<svg id="Layer_1" data-name="Layer 1" xmlns="http://www.w3.org/2000/svg" xmlns:xlink="http://www.w3.org/1999/xlink" viewBox="0 0 329.77 270.44"><defs><style>.cls-1{fill:#f2f2f2;}.cls-2{fill:none;stroke:#3f3d56;stroke-miterlimit:10;}.cls-3{fill:#6c63ff;}.cls-4{fill:#fff;}.cls-5{fill:url(#linear-gradient);}.cls-6{fill:#575a89;}.cls-7{fill:#cbceda;}.cls-12,.cls-8{opacity:0.1;}.cls-11,.cls-15,.cls-8{isolation:isolate;}.cls-9{fill:#fbbebe;}.cls-10{fill:#3f3d56;}.cls-11{opacity:0.05;}.cls-13{fill:#57b894;}.cls-14{fill:#656380;}.cls-15{opacity:0.2;}</style><linearGradient id="linear-gradient" x1="429.32" y1="-28.46" x2="429.32" y2="-28.31" gradientTransform="translate(541.49 253.22) rotate(180)" gradientUnits="userSpaceOnUse"><stop offset="0" stop-color="gray" stop-opacity="0.25"/><stop offset="0.54" stop-color="gray" stop-opacity="0.12"/><stop offset="1" stop-color="gray" stop-opacity="0.1"/></linearGradient></defs><title>what-6</title><path class="cls-1" d="M249.9,50.48V255.94a9.23,9.23,0,0,1-9.23,9.23H157.26a9.24,9.24,0,0,1-9.24-9.23V50.48a9.24,9.24,0,0,1,9.23-9.24h12.49v1.61a7.6,7.6,0,0,0,7.6,7.6h42.42a7.6,7.6,0,0,0,7.6-7.6h0V41.24h13.31a9.23,9.23,0,0,1,9.23,9.23Z" transform="translate(-39.05 -23.5)"/><path class="cls-2" d="M262.47,82.62h.83a.77.77,0,0,1,.77.77h0v27.09a.77.77,0,0,1-.77.77h-.83" transform="translate(-39.05 -23.5)"/><path class="cls-2" d="M146.23,69.61h-.59a.51.51,0,0,1-.51-.51V60.69a.51.51,0,0,1,.51-.51h.59" transform="translate(-39.05 -23.5)"/><path class="cls-2" d="M146.14,93.85h-.51a.56.56,0,0,1-.57-.57V78a.57.57,0,0,1,.57-.57h.6" transform="translate(-39.05 -23.5)"/><path class="cls-2" d="M146.14,116.14h-.5a.55.55,0,0,1-.55-.54V100.14a.55.55,0,0,1,.55-.55h.5" transform="translate(-39.05 -23.5)"/><rect class="cls-2" x="107.19" y="5.53" width="116.24" height="236.23" rx="12.02"/><rect class="cls-1" x="153.42" y="13.59" width="16.23" height="3.3" rx="0.86"/><circle class="cls-1" cx="173.97" cy="15.24" r="1.87"/><rect class="cls-2" x="154.09" y="12.58" width="16.23" height="3.3" rx="0.86"/><circle class="cls-2" cx="174.65" cy="14.23" r="1.87"/><path class="cls-2" d="M255.29,44.41V249.88a9.22,9.22,0,0,1-9.23,9.22H162.64a9.22,9.22,0,0,1-9.23-9.22V44.41a9.23,9.23,0,0,1,9.23-9.23h12.49v1.6a7.61,7.61,0,0,0,7.6,7.61h42.42a7.61,7.61,0,0,0,7.6-7.61h0v-1.6h13.31a9.23,9.23,0,0,1,9.23,9.23Z" transform="translate(-39.05 -23.5)"/><rect class="cls-2" x="117.28" y="31.32" width="10.44" height="1.35"/><rect class="cls-2" x="117.28" y="33.68" width="10.44" height="1.35"/><rect class="cls-2" x="117.28" y="36.03" width="10.44" height="1.35"/><path class="cls-2" d="M250.52,58.19h-.31l-.12-.1a2.56,2.56,0,0,0,.6-1.65A2.5,2.5,0,1,0,248.2,59a2.53,2.53,0,0,0,1.64-.6l.12.1v.31l1.93,1.94.58-.59Zm-2.32,0a1.75,1.75,0,1,1,1.74-1.75h0a1.74,1.74,0,0,1-1.73,1.75Z" transform="translate(-39.05 -23.5)"/><path class="cls-1" d="M307.07,80.75a13.13,13.13,0,0,1,13.11-12.43c.39,0,.79,0,1.18.05a17.43,17.43,0,0,1,30.13,0c.33,0,.66,0,1,0a13.11,13.11,0,0,1,13.1,12.43" transform="translate(-39.05 -23.5)"/><path class="cls-2" d="M309.81,79.74a13.11,13.11,0,0,1,13.1-12.43,11.51,11.51,0,0,1,1.18.06,17.43,17.43,0,0,1,30.13,0c.33,0,.66,0,1,0a13.13,13.13,0,0,1,13.11,12.43" transform="translate(-39.05 -23.5)"/><path class="cls-1" d="M272.05,155.19a13.12,13.12,0,0,1,13.1-12.44c.4,0,.79,0,1.18.06a17.43,17.43,0,0,1,30.13,0c.33,0,.66-.05,1-.05a13.12,13.12,0,0,1,13.1,12.44" transform="translate(-39.05 -23.5)"/><path class="cls-2" d="M274.78,154.18a13.11,13.11,0,0,1,13.1-12.43c.4,0,.79,0,1.18.05a17.43,17.43,0,0,1,30.13,0c.33,0,.66,0,1,0a13.12,13.12,0,0,1,13.1,12.43" transform="translate(-39.05 -23.5)"/><path class="cls-1" d="M52.78,46.06a13.12,13.12,0,0,1,13.1-12.43c.4,0,.79,0,1.18,0a17.43,17.43,0,0,1,30.13,0c.33,0,.66,0,1,0a13.12,13.12,0,0,1,13.1,12.43" transform="translate(-39.05 -23.5)"/><path class="cls-2" d="M55.51,45.05a13.12,13.12,0,0,1,13.1-12.43c.4,0,.8,0,1.19.05a17.43,17.43,0,0,1,30.13,0c.33,0,.66,0,1,0A13.11,13.11,0,0,1,114,45.05" transform="translate(-39.05 -23.5)"/><rect class="cls-3" x="117.79" y="65.68" width="80.16" height="44.46" rx="4.23"/><rect class="cls-2" x="122.16" y="57.26" width="80.16" height="44.46" rx="4.23"/><path class="cls-4" d="M188.65,112.93l7.07,7.28a1.59,1.59,0,0,0,1.18.48h0a1.59,1.59,0,0,0,1.18-.48l7.07-7.28a1.56,1.56,0,0,0,.08-2.21l-.08-.07a1.73,1.73,0,0,0-2.38,0L198.6,115V103.74a1.69,1.69,0,0,0-3.38,0V115L191,110.65a1.73,1.73,0,0,0-2.38,0,1.55,1.55,0,0,0-.07,2.2l.07.08Z" transform="translate(-39.05 -23.5)"/><rect class="cls-3" x="126.54" y="141.8" width="80.16" height="44.46" rx="4.23"/><rect class="cls-2" x="122.16" y="133.38" width="80.16" height="44.46" rx="4.23"/><path class="cls-4" d="M213.93,189.05a1.57,1.57,0,0,0,.08-2.21l-.08-.07a1.73,1.73,0,0,0-2.38,0l-4.19,4.38V179.86a1.69,1.69,0,0,0-3.38,0v11.29l-4.19-4.38a1.73,1.73,0,0,0-2.38,0,1.55,1.55,0,0,0-.08,2.2l.08.08,7.07,7.28a1.59,1.59,0,0,0,1.18.48h0a1.59,1.59,0,0,0,1.18-.48l7.07-7.28Z" transform="translate(-39.05 -23.5)"/><path class="cls-5" d="M112.31,281.53h0l-.28.15Z" transform="translate(-39.05 -23.5)"/><path class="cls-6" d="M72.14,246.23c-2.52,7.27.43,19.06,1.8,24.32a74.24,74.24,0,0,1,1.78,11.59,24.49,24.49,0,0,0,9.27-.21l-2.21-10.85c1.58-6.42,0-23.58,0-23.58a40.9,40.9,0,0,0,3.89-16.75c.32-9.95,2.77-13.16,2.85-13.26h0c5,2.63,11.47,30.85,11.47,30.85-.52,6.84.11,17.37,2.22,23.06a28.55,28.55,0,0,1,1.57,11.26,3.44,3.44,0,0,0,2.87.55c3-.48,6.61-3.07,6.61-3.07s-1.16-30.75-2-31.91,0-7.79,0-7.79l-1.37-10.74s.21-18.21-1.79-21.37c-1.73-2.73-2.12-7.52-2.2-8.78,0-.2,0-.31,0-.31l-3-3.65s-29.48-2.21-31.7,0a6.35,6.35,0,0,0-1.07,3.33c-.61,4.78.09,12.57.09,12.57s.88,5.79,2.14,11.68a25.58,25.58,0,0,1,0,10.74A31.85,31.85,0,0,1,72.14,246.23Z" transform="translate(-39.05 -23.5)"/><path class="cls-7" d="M74,292.4c1.31,1.74,9.05,1,10.37.46.8-.33.74-1.84.52-3.4-.13-1-.33-2-.42-2.74A25.05,25.05,0,0,1,85.1,281s-1.74,1.84-2.16,0a2,2,0,0,0-1.51-1.43,4,4,0,0,0-2.73.17c-1.37.59-3.65,1.86-3.24,3.57.58,2.42-1.47,5.85-1.47,5.85a2.73,2.73,0,0,0-.39.66A2.51,2.51,0,0,0,74,292.4Z" transform="translate(-39.05 -23.5)"/><path class="cls-8" d="M74,292.4c1.31,1.74,9.05,1,10.37.46.8-.33.74-1.84.52-3.4a8.92,8.92,0,0,1-4.6.49,13,13,0,0,0-1.65-.05,38.4,38.4,0,0,1-5-.1A2.51,2.51,0,0,0,74,292.4Z" transform="translate(-39.05 -23.5)"/><path class="cls-8" d="M101,248.34c-.52,6.84.11,17.37,2.22,23.06a28.55,28.55,0,0,1,1.57,11.26,3.44,3.44,0,0,0,2.87.55c-.64-4.44-3.34-23.57-5.08-38.69a63.27,63.27,0,0,0-11.21-29.06l-1.84,2C94.57,220.12,101,248.34,101,248.34Z" transform="translate(-39.05 -23.5)"/><path class="cls-9" d="M77.15,137.68,78.43,144l6.3,10.58,7.76-3.32s10.56-11,3.92-12.63a6,6,0,0,1-2.2-1,4.58,4.58,0,0,1-1.72-3.81,11.63,11.63,0,0,1,1.08-4.53L80,125a21.53,21.53,0,0,1,1,5.51c.11,3.69-1.27,5.52-2.39,6.39A4.29,4.29,0,0,1,77.15,137.68Z" transform="translate(-39.05 -23.5)"/><path class="cls-8" d="M80,125a21.53,21.53,0,0,1,1,5.51c.25.29.51.57.79.84a10.74,10.74,0,0,0,10.74,2.45,11.63,11.63,0,0,1,1.08-4.53Z" transform="translate(-39.05 -23.5)"/><path class="cls-9" d="M78.43,123.31a10.7,10.7,0,1,0,0-.08Z" transform="translate(-39.05 -23.5)"/><path class="cls-8" d="M77.15,137.68,78.43,144l6.3,10.58,7.76-3.32s10.56-11,3.92-12.63a6,6,0,0,1-2.2-1c1.2,3.29-3.75,10.14-3.75,10.14-.57.84-1.89.31-1.89.31-3.18-.48-9-9.64-10-11.16A4.29,4.29,0,0,1,77.15,137.68Z" transform="translate(-39.05 -23.5)"/><path class="cls-8" d="M71.07,198.92c1.87.42,12.21,2.72,16.13,2.14,4.32-.63,12.71-1.05,12.71-1.05s5.35.29,7-.46c0-.2,0-.31,0-.31l-3-3.65s-29.48-2.21-31.7,0A6.35,6.35,0,0,0,71.07,198.92Z" transform="translate(-39.05 -23.5)"/><path class="cls-10" d="M90.47,148.1s5.55-7.69,3.46-10.69l9.38,3.85S109,140.57,111,149a15,15,0,0,1,.35,4.28,12.63,12.63,0,0,0,1.54,6.4c2.32,4.64,1.79,15.27-3,16.32s-6.42.53-6.42.53.63,19.27,3.37,21.48-7,1.68-7,1.68-8.39.43-12.71,1.06-16.42-2.21-16.42-2.21,1.79-8.11,2.42-13.27,2.1-16.15,2.1-16.15L64.56,154.58s-1.89-8.79,4.74-12.69A74.63,74.63,0,0,1,78.43,137s6.67,10.85,10.14,11.38C88.57,148.42,89.89,149,90.47,148.1Z" transform="translate(-39.05 -23.5)"/><path class="cls-8" d="M102.78,151.16s.11,3.47-.52,4.84-3,8.95-3,8.95h5.26s-2.84-3-2.63-4.53S102.78,151.16,102.78,151.16Z" transform="translate(-39.05 -23.5)"/><path class="cls-9" d="M87.2,177.37s11.63-2.84,12.71-5.26,4.07-7.84,4.07-7.84l-1.23-1.66-5.65,4.44s-6.74,5.37-9.9,5.9S87.2,177.37,87.2,177.37Z" transform="translate(-39.05 -23.5)"/><path class="cls-11" d="M87.2,177.37s11.63-2.84,12.71-5.26,4.07-7.84,4.07-7.84l-1.23-1.66-5.65,4.44s-6.74,5.37-9.9,5.9S87.2,177.37,87.2,177.37Z" transform="translate(-39.05 -23.5)"/><path class="cls-9" d="M77.15,163.69V170h1a29.53,29.53,0,0,1,14.32,3.71l1.9,1.05.51.29,3.26-7.35L95.1,165h-.16c-.74.08-4,.35-5.34-.12S86.68,163,82.85,164c-1.89.48-3.5,2.6-5.33,1.94Z" transform="translate(-39.05 -23.5)"/><path class="cls-8" d="M67,152.21l-2.11,2.37v5.74s1.79,18.11,7.48,20.11,15.83-1.16,15.83-1.16,2.62-7,1.4-7.37-10.84-3-10.84-3,.13-10.62-2-13.78c0,0,1.37-9.9-3.37-10.11S67,152.21,67,152.21Z" transform="translate(-39.05 -23.5)"/><path class="cls-10" d="M66.67,152.21l-2.11,2.37v5.74s1.79,18.11,7.48,20.11,15.83-1.16,15.83-1.16,2.63-7,1.4-7.37-10.84-3-10.84-3,.14-10.62-2-13.78c0,0,1.37-9.9-3.37-10.11S66.67,152.21,66.67,152.21Z" transform="translate(-39.05 -23.5)"/><path class="cls-8" d="M81.38,127.87a4.21,4.21,0,0,1,.24-2.05,1.57,1.57,0,0,1,1.67-1c.9.21,1.29,1.38,2.17,1.66a1.71,1.71,0,0,0,1.91-1,4.92,4.92,0,0,0,.37-2.29c0-.88,0-1.76,0-2.64a4.36,4.36,0,0,1,.62-2.74A4.84,4.84,0,0,1,92,116.55a3.1,3.1,0,0,1,2.06.83,2.67,2.67,0,0,0,2.17.78,1.88,1.88,0,0,0,1.51-1.31,0,0,0,0,1,0,0,10.74,10.74,0,1,0-16,14.25A28.76,28.76,0,0,1,81.38,127.87Z" transform="translate(-39.05 -23.5)"/><path class="cls-10" d="M96.21,117.84a1.88,1.88,0,0,0,1.51-1.31c.09-.34.06-.7.16-1,.25-.82,1.13-1.26,1.73-1.88a4.25,4.25,0,0,0,.27-4.85,3.49,3.49,0,0,0-3.37-2c-.85.15-1.59.76-2.45.81a5.13,5.13,0,0,1-2.35-.76,8.9,8.9,0,0,0-5.82-.51,3.34,3.34,0,0,0-1.6.81,13,13,0,0,0-.86,1.2c-1,1.25-2.74,1.49-4.3,1.77s-3.34.91-3.85,2.41a6.28,6.28,0,0,0,.18,3.12.89.89,0,0,1,0,.64c-.24.41-.85.24-1.31.33-.89.19-1.12,1.33-1.15,2.24s-.07,2.08-.09,3.11a4.51,4.51,0,0,0,.09,1.16,4.21,4.21,0,0,0,.9,1.45l3.48,4.18c1.54,1.85,3.18,4,2.86,6.4A1.5,1.5,0,0,0,82,134a4.78,4.78,0,0,0-.11-2.37,28.57,28.57,0,0,1-.55-4.11,4.2,4.2,0,0,1,.24-2,1.58,1.58,0,0,1,1.67-1c.9.21,1.29,1.38,2.17,1.66a1.72,1.72,0,0,0,1.91-1,4.94,4.94,0,0,0,.37-2.29v-2.64a4.46,4.46,0,0,1,.63-2.75,4.85,4.85,0,0,1,3.61-1.3,3.06,3.06,0,0,1,2.06.83A2.67,2.67,0,0,0,96.21,117.84Z" transform="translate(-39.05 -23.5)"/><path class="cls-8" d="M93.78,150.89l-3.3,13.55S87.89,164.42,93.78,150.89Z" transform="translate(-39.05 -23.5)"/><path class="cls-8" d="M82.52,148.63s4.31,7.07,2.63,14.38l-.81.06S85.78,159.68,82.52,148.63Z" transform="translate(-39.05 -23.5)"/><path class="cls-8" d="M79.78,188.64s-5.3-1.75-5.69,2.32C74.09,191,75.09,188.17,79.78,188.64Z" transform="translate(-39.05 -23.5)"/><path class="cls-8" d="M95.1,165.26s1.05,7.37-.84,10.32a23.13,23.13,0,0,0,9.26,1.27l.63-11.59Z" transform="translate(-39.05 -23.5)"/><path class="cls-8" d="M94.38,174.75l.51.29,3.26-7.35L95.1,165h-.16C95,165.3,95.84,171.63,94.38,174.75Z" transform="translate(-39.05 -23.5)"/><path class="cls-10" d="M95.1,165s1.05,7.37-.84,10.32a23,23,0,0,0,9.26,1.26L107.21,165Z" transform="translate(-39.05 -23.5)"/><path class="cls-7" d="M103.53,290.61a2.4,2.4,0,0,0,2,2.09c2.86.43,9.74-.84,11.48,0,2.21,1.05,10.95.31,11.37-.74a1.66,1.66,0,0,0-.15-1.27,3.33,3.33,0,0,0-1.41-1.51,3.6,3.6,0,0,0-.63-.29c-1.65-.54-4.76-1.71-5.6-2.93,0,0-3.87-3.39-5-5.23a2.54,2.54,0,0,0-2-1.26c-.93,0-2,.43-2.37,2.45,0,0-5,2.88-6.42.35,0,0-.21,6.24-1,7.3h0A1.39,1.39,0,0,0,103.53,290.61Z" transform="translate(-39.05 -23.5)"/><path class="cls-8" d="M103.53,290.61a2.4,2.4,0,0,0,2,2.09c2.86.43,9.74-.84,11.48,0,2.21,1.05,10.95.31,11.37-.74a1.66,1.66,0,0,0-.15-1.27,3.33,3.33,0,0,0-1.41-1.51c-1.42.94-4.59,1.87-11.55.78-6.63-1-9.92.31-11.52-.39h0A1.39,1.39,0,0,0,103.53,290.61Z" transform="translate(-39.05 -23.5)"/><g class="cls-12"><path d="M75.47,115.75v0a9.9,9.9,0,0,1-.33-2.39,15.57,15.57,0,0,0,.33,1.91A1.19,1.19,0,0,1,75.47,115.75Z" transform="translate(-39.05 -23.5)"/><path d="M81.62,125.6a3,3,0,0,0-.26,1.21,3.56,3.56,0,0,1,.26-1.68,1.58,1.58,0,0,1,1.67-1c.9.21,1.29,1.39,2.17,1.67a1.71,1.71,0,0,0,1.91-1,4.92,4.92,0,0,0,.37-2.29c0-.88,0-1.76,0-2.64a4.36,4.36,0,0,1,.62-2.74A4.82,4.82,0,0,1,92,115.86a3.1,3.1,0,0,1,2.06.83,2.64,2.64,0,0,0,2.17.77,1.86,1.86,0,0,0,1.51-1.3c.09-.34.07-.71.17-1,.24-.83,1.12-1.26,1.72-1.89a3.45,3.45,0,0,0,.88-2.23,3.59,3.59,0,0,1-.88,2.7c-.6.63-1.48,1.06-1.72,1.89-.1.34-.08.7-.17,1a1.88,1.88,0,0,1-1.51,1.31,2.68,2.68,0,0,1-2.17-.78,3.1,3.1,0,0,0-2.06-.83,4.9,4.9,0,0,0-3.61,1.31,4.38,4.38,0,0,0-.62,2.75c0,.88,0,1.75,0,2.63a4.9,4.9,0,0,1-.37,2.29,1.71,1.71,0,0,1-1.91,1c-.88-.28-1.27-1.45-2.17-1.66A1.57,1.57,0,0,0,81.62,125.6Z" transform="translate(-39.05 -23.5)"/><path d="M73,122.7a4,4,0,0,0,.89,1.45l3.48,4.18c1.46,1.76,3,3.79,2.9,6-.11-2.06-1.54-3.93-2.9-5.57l-3.48-4.17a4,4,0,0,1-.89-1.45,4.11,4.11,0,0,1-.1-1.16A3.1,3.1,0,0,0,73,122.7Z" transform="translate(-39.05 -23.5)"/><path d="M82,133.66a2.64,2.64,0,0,0,.11-.56,2.82,2.82,0,0,1-.11,1,1.48,1.48,0,0,1-1.83,1.06,3.44,3.44,0,0,0,0-.46A1.5,1.5,0,0,0,82,133.66Z" transform="translate(-39.05 -23.5)"/></g><path class="cls-8" d="M116.36,281.68s-1.1,1.93-5.09.23" transform="translate(-39.05 -23.5)"/><path class="cls-8" d="M83.31,281.81s-3.44,4.05-7.77,1.32" transform="translate(-39.05 -23.5)"/><path class="cls-8" d="M73.3,233.91s2.43,1.52,2.51,2.39-1.25-.63-1.25-.63Z" transform="translate(-39.05 -23.5)"/><path class="cls-8" d="M72.34,245.56a5.08,5.08,0,0,0,3,1.16c1.82.08,1.66,2.45.48,1.74A30,30,0,0,1,72.34,245.56Z" transform="translate(-39.05 -23.5)"/><path class="cls-8" d="M71.88,247.07s1.17,5.73,2.12,4.63" transform="translate(-39.05 -23.5)"/><path class="cls-13" d="M43.87,241.3a7,7,0,1,0,.94-13.45l.17,3.61-1.7-3.09a7,7,0,0,0-3.6,3.95,6.87,6.87,0,0,0-.41,1.89A7,7,0,0,0,43.87,241.3Z" transform="translate(-39.05 -23.5)"/><path class="cls-2" d="M52.32,283.14c-.6-3.06,2-5.78,4.59-7.55s5.59-3.51,6.47-6.51c1.27-4.31-2.5-8.26-5.43-11.67a41.64,41.64,0,0,1-5.57-8.27,11.35,11.35,0,0,1-1.33-3.76,13,13,0,0,1,1-5.64q3.09-9.11,6.61-18.07" transform="translate(-39.05 -23.5)"/><path class="cls-2" d="M44.16,240.37A7,7,0,1,0,49,227.19a6.92,6.92,0,0,0-3.85-.26l.17,3.6-1.7-3.09a7,7,0,0,0-3.6,3.95,6.86,6.86,0,0,0-.41,1.9A7,7,0,0,0,44.16,240.37Z" transform="translate(-39.05 -23.5)"/><path class="cls-13" d="M51.46,220.43a7,7,0,0,1,5-4.45l.58,3.43,1.07-3.6A7,7,0,1,1,51,222.72a7.36,7.36,0,0,1,.42-2.29Z" transform="translate(-39.05 -23.5)"/><path class="cls-2" d="M51.85,219.19a7,7,0,0,1,5-4.45l.58,3.43,1.07-3.6a7,7,0,1,1-7.11,6.91,6.87,6.87,0,0,1,.42-2.29Z" transform="translate(-39.05 -23.5)"/><path class="cls-13" d="M56.72,257.48A7,7,0,0,0,62.92,245l-.82,2.77-.59-3.47h0a7,7,0,0,0-4.8,13.18Z" transform="translate(-39.05 -23.5)"/><path class="cls-2" d="M57.05,256.23a7,7,0,0,0,6.2-12.47l-.82,2.77-.58-3.47h0A7,7,0,1,0,57,256.22Z" transform="translate(-39.05 -23.5)"/><path class="cls-13" d="M49.42,269.12a7,7,0,1,0,1.35-5.48l3.12,4.7-4.26-2.5A6.76,6.76,0,0,0,49.42,269.12Z" transform="translate(-39.05 -23.5)"/><path class="cls-2" d="M49.71,268.2a7,7,0,1,0,1.35-5.49l3.12,4.7-4.27-2.5A6.91,6.91,0,0,0,49.71,268.2Z" transform="translate(-39.05 -23.5)"/><path class="cls-14" d="M42.59,287.3s6.18-2.42,8-3.75,9.51-2.91,10-.78,9.29,10.58,2.31,10.64-16.23,1.15-18.09,0S42.59,287.3,42.59,287.3Z" transform="translate(-39.05 -23.5)"/><path class="cls-15" d="M63.05,292.67c-7,.06-16.22,1.15-18.08,0-1.42-.86-2-4-2.17-5.39h-.21s.39,5,2.25,6.12,11.1.05,18.09,0c2,0,2.71-.73,2.67-1.8C65.32,292.26,64.55,292.66,63.05,292.67Z" transform="translate(-39.05 -23.5)"/><line class="cls-2" x1="17.33" y1="269.63" x2="108.94" y2="269.63"/></svg>