<svg id="Layer_1" data-name="Layer 1" xmlns="http://www.w3.org/2000/svg" viewBox="0 0 208.42 243"><defs><style>.cls-1{fill:#14af10;}</style></defs><title>what-2</title><path class="cls-1" d="M127.56,121.63v62.85a14.87,14.87,0,0,1-14.7,15h-.22c-8.3,0-16.36-6.73-16.36-15V121.63c0-8.2,8-14.92,16.36-14.92A15,15,0,0,1,127.56,121.63Zm5.87,85.19a16,16,0,0,0,16,16.06h10.86l.17,33.16c0,20,30,19.86,30,0V222.89h20.19V256c0,19.92,30.13,20,30.13,0V222.89h11a16,16,0,0,0,16-16.06h0V109.44H133.43ZM268,104.21H132.82c0-23.25,13.88-43.42,34.51-53.94L157,31.11c-1.51-2.66,2.34-4.3,3.64-2.05l10.53,19.32a73.25,73.25,0,0,1,58.76,0l10.47-19.26c1.36-2.34,5.17-.6,3.64,2.05L233.7,50.27C254.11,60.79,268,81,268,104.21ZM175.37,74.07a5.59,5.59,0,1,0-5.7,5.69,5.7,5.7,0,0,0,5.7-5.69Zm61.54,0a5.62,5.62,0,1,0-5.54,5.7,5.61,5.61,0,0,0,5.54-5.7Zm51.44,32.62a14.88,14.88,0,0,0-14.93,14.83v63a15,15,0,0,0,14.92,15h0c8.36,0,16.36-6.73,16.36-15V121.61c0-8.34-8.06-14.9-16.36-14.9Z" transform="translate(-96.28 -28)"/></svg>