<svg id="Layer_1" data-name="Layer 1" xmlns="http://www.w3.org/2000/svg" xmlns:xlink="http://www.w3.org/1999/xlink" viewBox="0 0 372.34 138.77"><defs><style>.cls-1{fill:#264de4;}.cls-2{fill:#2965f1;}.cls-3{fill:#ebebeb;}.cls-4{fill:#fff;}</style></defs><title>what-5</title><g id="layer1"><g id="g3013"><polygon id="polygon2989" class="cls-1" points="234.03 27.27 225.08 127.61 184.82 138.77 144.67 127.62 135.72 27.27 234.03 27.27"/><polygon id="polygon2991" class="cls-2" points="217.41 121.22 225.06 35.48 184.88 35.48 184.88 130.24 217.41 121.22"/><polygon id="polygon2993" class="cls-3" points="156.23 72.7 157.34 85 184.88 85 184.88 72.7 156.23 72.7"/><polygon id="polygon2995" class="cls-3" points="184.88 47.78 184.84 47.78 154.02 47.78 155.13 60.09 184.88 60.09 184.88 47.78"/><polygon id="polygon2997" class="cls-3" points="184.88 117.47 184.88 104.66 184.82 104.67 171.12 100.97 170.24 91.16 163.58 91.16 157.89 91.16 159.61 110.48 184.82 117.48 184.88 117.47"/><path id="path2999" d="M171.86,88h14.91v6.23h-8.68v6.24h8.68v6.23H171.86Z" transform="translate(-13 -88)"/><path id="path3001" d="M189.75,88h14.9v5.42H196V94.5h8.67V107h-14.9v-5.69h8.67V100.2h-8.67Z" transform="translate(-13 -88)"/><path id="path3003" d="M207.64,88h14.9v5.42h-8.67V94.5h8.67V107h-14.9v-5.69h8.67V100.2h-8.67Z" transform="translate(-13 -88)"/><polygon id="polygon3005" class="cls-4" points="199.99 85 198.56 100.97 184.84 104.67 184.84 117.47 210.07 110.48 210.25 108.4 213.15 76 213.44 72.7 215.67 47.78 184.84 47.78 184.84 60.09 202.18 60.09 201.06 72.7 184.84 72.7 184.84 85 199.99 85"/></g></g><image width="500" height="500" transform="translate(233.83 0) scale(0.28)" xlink:href="../../../../../../../Downloads/js-logo.png"/><image width="512" height="512" transform="translate(0 0) scale(0.27)" xlink:href="../../../../../../../Downloads/PgcSR.png"/></svg>