<svg id="Layer_1" data-name="Layer 1" xmlns="http://www.w3.org/2000/svg" xmlns:xlink="http://www.w3.org/1999/xlink" viewBox="0 0 400 195.66"><defs><style>.cls-1{fill:#2196f3;}.cls-2{opacity:0.2;}.cls-2,.cls-27{isolation:isolate;}.cls-3{fill:url(#linear-gradient);}.cls-4{fill:#ff9800;}.cls-27,.cls-5,.cls-6,.cls-7{fill:#6c63ff;}.cls-10,.cls-6{opacity:0.52;}.cls-7{opacity:0.46;}.cls-10,.cls-8,.cls-9{fill:none;stroke:#6c63ff;stroke-miterlimit:10;}.cls-8{stroke-width:2px;}.cls-11{fill:url(#linear-gradient-2);}.cls-12{fill:url(#linear-gradient-3);}.cls-13{fill:url(#linear-gradient-4);}.cls-14{fill:#ccc;}.cls-15{fill:url(#linear-gradient-5);}.cls-16{fill:url(#linear-gradient-6);}.cls-17{fill:url(#linear-gradient-7);}.cls-18{fill:url(#linear-gradient-8);}.cls-19{fill:url(#linear-gradient-9);}.cls-20{fill:url(#linear-gradient-10);}.cls-21{fill:url(#linear-gradient-11);}.cls-22{fill:url(#linear-gradient-12);}.cls-23{fill:url(#linear-gradient-13);}.cls-24{fill:url(#linear-gradient-14);}.cls-25{fill:url(#linear-gradient-15);}.cls-26{fill:url(#linear-gradient-16);}.cls-27{opacity:0.1;}</style><linearGradient id="linear-gradient" x1="92.36" y1="198.15" x2="92.36" y2="241.31" gradientTransform="matrix(1, 0, 0, -1, 0, 245.87)" gradientUnits="userSpaceOnUse"><stop offset="0" stop-color="gray" stop-opacity="0.25"/><stop offset="0.54" stop-color="gray" stop-opacity="0.12"/><stop offset="1" stop-color="gray" stop-opacity="0.1"/></linearGradient><linearGradient id="linear-gradient-2" x1="274.68" y1="113.74" x2="274.68" y2="115.72" xlink:href="#linear-gradient"/><linearGradient id="linear-gradient-3" x1="274.7" y1="111.67" x2="274.7" y2="113.66" xlink:href="#linear-gradient"/><linearGradient id="linear-gradient-4" x1="274.73" y1="109.6" x2="274.73" y2="111.59" xlink:href="#linear-gradient"/><linearGradient id="linear-gradient-5" x1="267.7" y1="104.09" x2="267.7" y2="108.28" gradientTransform="matrix(1, 0, 0, -1, 0, 302)" xlink:href="#linear-gradient"/><linearGradient id="linear-gradient-6" x1="281.62" y1="104.05" x2="281.62" y2="108.24" gradientTransform="matrix(1, 0, 0, -1, 0, 302)" xlink:href="#linear-gradient"/><linearGradient id="linear-gradient-7" x1="143.62" y1="113.74" x2="143.62" y2="115.72" xlink:href="#linear-gradient"/><linearGradient id="linear-gradient-8" x1="143.65" y1="111.67" x2="143.65" y2="113.66" xlink:href="#linear-gradient"/><linearGradient id="linear-gradient-9" x1="143.67" y1="109.6" x2="143.67" y2="111.59" xlink:href="#linear-gradient"/><linearGradient id="linear-gradient-10" x1="136.64" y1="104.09" x2="136.64" y2="108.28" gradientTransform="matrix(1, 0, 0, -1, 0, 302)" xlink:href="#linear-gradient"/><linearGradient id="linear-gradient-11" x1="150.56" y1="104.05" x2="150.56" y2="108.24" gradientTransform="matrix(1, 0, 0, -1, 0, 302)" xlink:href="#linear-gradient"/><linearGradient id="linear-gradient-12" x1="78.09" y1="113.74" x2="78.09" y2="115.72" xlink:href="#linear-gradient"/><linearGradient id="linear-gradient-13" x1="78.12" y1="111.67" x2="78.12" y2="113.66" xlink:href="#linear-gradient"/><linearGradient id="linear-gradient-14" x1="78.14" y1="109.6" x2="78.14" y2="111.59" xlink:href="#linear-gradient"/><linearGradient id="linear-gradient-15" x1="71.11" y1="104.09" x2="71.11" y2="108.28" gradientTransform="matrix(1, 0, 0, -1, 0, 302)" xlink:href="#linear-gradient"/><linearGradient id="linear-gradient-16" x1="85.03" y1="104.05" x2="85.03" y2="108.24" gradientTransform="matrix(1, 0, 0, -1, 0, 302)" xlink:href="#linear-gradient"/></defs><title>what-4</title><path class="cls-1" d="M128.33,247s10-3.45,17.29,0,19.11,1.15,22.75-.69,20,.69,21.85,2.53,9.1,4.14,14.1,2.3,15-6,19.12-3.45" transform="translate(0 -56.13)"/><path class="cls-2" d="M128.33,247s10-3.45,17.29,0,19.11,1.15,22.75-.69,20,.69,21.85,2.53,9.1,4.14,14.1,2.3,15-6,19.12-3.45" transform="translate(0 -56.13)"/><path class="cls-1" d="M92.38,220s22.94-6.82,39.63,0,43.8,2.28,52.15-1.36,45.89,1.36,50.06,5,20.86,8.19,32.33,4.55,34.42-11.84,43.8-6.83" transform="translate(0 -56.13)"/><path class="cls-2" d="M92.38,220s22.94-6.82,39.63,0,43.8,2.28,52.15-1.36,45.89,1.36,50.06,5,20.86,8.19,32.33,4.55,34.42-11.84,43.8-6.83" transform="translate(0 -56.13)"/><ellipse class="cls-3" cx="92.36" cy="26.14" rx="21.86" ry="21.58"/><circle class="cls-4" cx="92.36" cy="26.14" r="19.06"/><rect class="cls-5" y="139.26" width="400" height="7.74"/><rect class="cls-5" x="194.99" y="113.31" width="2.73" height="30.94"/><rect class="cls-6" x="43.95" y="28.21" width="2.73" height="116.04"/><rect class="cls-7" x="353.85" y="28.21" width="2.73" height="116.04"/><path class="cls-8" d="M355.18,85C195.45,301.65,44.82,85,44.82,85" transform="translate(0 -56.13)"/><path class="cls-9" d="M5.41,195.39" transform="translate(0 -56.13)"/><line class="cls-9" x1="183.86" y1="123.69" x2="183.86" y2="139.26"/><line class="cls-9" x1="216.61" y1="125.18" x2="216.61" y2="139.26"/><line class="cls-9" x1="150.79" y1="114.74" x2="150.79" y2="139.26"/><line class="cls-9" x1="119.16" y1="98.68" x2="119.16" y2="139.26"/><line class="cls-9" x1="86.75" y1="74.42" x2="86.75" y2="139.26"/><line class="cls-9" x1="249.71" y1="116.96" x2="249.71" y2="139.26"/><line class="cls-9" x1="283.53" y1="99.9" x2="283.53" y2="139.04"/><line class="cls-9" x1="315.51" y1="74.42" x2="315.51" y2="139.26"/><line class="cls-10" x1="69.62" y1="58.1" x2="69.62" y2="139.26"/><line class="cls-10" x1="331.42" y1="58.1" x2="331.42" y2="139.26"/><path class="cls-9" d="M394.59,195.39" transform="translate(0 -56.13)"/><path class="cls-9" d="M380.29,195.39" transform="translate(0 -56.13)"/><line class="cls-9" x1="103.23" y1="87.78" x2="103.23" y2="139.04"/><line class="cls-9" x1="135.76" y1="108.02" x2="135.76" y2="139.26"/><line class="cls-9" x1="164.64" y1="119.47" x2="164.64" y2="139.04"/><line class="cls-9" x1="234.37" y1="121.56" x2="234.37" y2="139.26"/><line class="cls-9" x1="266.1" y1="109.91" x2="266.1" y2="139.26"/><line class="cls-9" x1="298.04" y1="89.51" x2="298.04" y2="139.04"/><path class="cls-1" d="M19.11,230.6s4.12-3.45,7.12,0,7.86,1.15,9.36-.69,8.24.69,9,2.53,3.74,4.13,5.8,2.29,6.18-6,7.87-3.44" transform="translate(0 -56.13)"/><path class="cls-2" d="M19.11,230.6s4.12-3.45,7.12,0,7.86,1.15,9.36-.69,8.24.69,9,2.53,3.74,4.13,5.8,2.29,6.18-6,7.87-3.44" transform="translate(0 -56.13)"/><path class="cls-1" d="M306.71,236.51s4.12-3.44,7.12,0,7.86,1.15,9.36-.69,8.24.69,9,2.53,3.74,4.14,5.8,2.3,6.18-6,7.87-3.45" transform="translate(0 -56.13)"/><path class="cls-2" d="M306.71,236.51s4.12-3.44,7.12,0,7.86,1.15,9.36-.69,8.24.69,9,2.53,3.74,4.14,5.8,2.3,6.18-6,7.87-3.45" transform="translate(0 -56.13)"/><path class="cls-5" d="M268,186.91h0a.52.52,0,0,1,.53.52v5.5a.53.53,0,0,1-.53.53h0a.52.52,0,0,1-.52-.53v-5.5A.52.52,0,0,1,268,186.91Z" transform="translate(0 -56.13)"/><path class="cls-5" d="M281.36,186.91h0a.52.52,0,0,1,.53.52v5.24a.53.53,0,0,1-.53.53h0a.52.52,0,0,1-.52-.53v-5.24A.52.52,0,0,1,281.36,186.91Z" transform="translate(0 -56.13)"/><rect class="cls-11" x="265.72" y="130.15" width="17.92" height="1.99" rx="0.99"/><rect class="cls-12" x="265.74" y="132.22" width="17.92" height="1.99" rx="0.99"/><rect class="cls-13" x="265.76" y="134.28" width="17.92" height="1.99" rx="0.99"/><path class="cls-14" d="M266.69,186.38h16a.79.79,0,0,1,.79.79h0a.79.79,0,0,1-.79.79h-16a.8.8,0,0,1-.79-.79h0A.8.8,0,0,1,266.69,186.38Z" transform="translate(0 -56.13)"/><path class="cls-14" d="M266.69,188.48h16a.79.79,0,0,1,.79.79h0a.78.78,0,0,1-.79.78h-16a.79.79,0,0,1-.79-.78h0A.79.79,0,0,1,266.69,188.48Z" transform="translate(0 -56.13)"/><path class="cls-14" d="M266.69,190.58h16a.78.78,0,0,1,.79.78h0a.79.79,0,0,1-.79.79h-16a.79.79,0,0,1-.79-.79h0A.79.79,0,0,1,266.69,190.58Z" transform="translate(0 -56.13)"/><path class="cls-5" d="M266.69,192.41h16a.79.79,0,0,1,.79.79h0a.78.78,0,0,1-.79.78h-16a.79.79,0,0,1-.79-.78h0A.79.79,0,0,1,266.69,192.41Z" transform="translate(0 -56.13)"/><circle class="cls-5" cx="267.97" cy="131.04" r="0.26"/><circle class="cls-5" cx="267.97" cy="133.14" r="0.26"/><circle class="cls-5" cx="267.97" cy="135.23" r="0.26"/><circle class="cls-5" cx="281.36" cy="135.23" r="0.26"/><circle class="cls-5" cx="281.36" cy="133.14" r="0.26"/><circle class="cls-5" cx="281.36" cy="131.04" r="0.26"/><path class="cls-15" d="M267.7,193.72h0a.4.4,0,0,1,.4.4v3.4a.4.4,0,0,1-.4.39h0a.4.4,0,0,1-.4-.39v-3.4A.4.4,0,0,1,267.7,193.72Z" transform="translate(0 -56.13)"/><path class="cls-16" d="M281.62,193.76h0a.4.4,0,0,1,.39.4v3.4a.4.4,0,0,1-.39.39h0a.4.4,0,0,1-.4-.39v-3.4A.4.4,0,0,1,281.62,193.76Z" transform="translate(0 -56.13)"/><path class="cls-5" d="M267.71,193.72h0a.26.26,0,0,1,.26.26v3.67a.26.26,0,0,1-.26.26h0a.25.25,0,0,1-.26-.26V194A.26.26,0,0,1,267.71,193.72Z" transform="translate(0 -56.13)"/><path class="cls-5" d="M281.62,193.72h0a.27.27,0,0,1,.27.26v3.67a.26.26,0,0,1-.27.26h0a.26.26,0,0,1-.26-.26V194A.26.26,0,0,1,281.62,193.72Z" transform="translate(0 -56.13)"/><rect class="cls-5" x="136.39" y="130.78" width="1.05" height="6.55" rx="0.52"/><rect class="cls-5" x="149.78" y="130.78" width="1.05" height="6.29" rx="0.52"/><rect class="cls-17" x="134.66" y="130.15" width="17.92" height="1.99" rx="0.99"/><rect class="cls-18" x="134.68" y="132.22" width="17.92" height="1.99" rx="0.99"/><rect class="cls-19" x="134.71" y="134.28" width="17.92" height="1.99" rx="0.99"/><path class="cls-14" d="M135.63,186.38h16a.79.79,0,0,1,.79.79h0a.79.79,0,0,1-.79.79h-16a.79.79,0,0,1-.78-.79h0A.79.79,0,0,1,135.63,186.38Z" transform="translate(0 -56.13)"/><path class="cls-14" d="M135.63,188.48h16a.79.79,0,0,1,.79.79h0a.78.78,0,0,1-.79.78h-16a.78.78,0,0,1-.78-.78h0A.78.78,0,0,1,135.63,188.48Z" transform="translate(0 -56.13)"/><path class="cls-14" d="M135.63,190.58h16a.78.78,0,0,1,.79.78h0a.79.79,0,0,1-.79.79h-16a.78.78,0,0,1-.78-.79h0A.78.78,0,0,1,135.63,190.58Z" transform="translate(0 -56.13)"/><path class="cls-5" d="M135.63,192.41h16a.79.79,0,0,1,.79.79h0a.78.78,0,0,1-.79.78h-16a.78.78,0,0,1-.78-.78h0A.78.78,0,0,1,135.63,192.41Z" transform="translate(0 -56.13)"/><circle class="cls-5" cx="136.91" cy="131.04" r="0.26"/><circle class="cls-5" cx="136.91" cy="133.14" r="0.26"/><circle class="cls-5" cx="136.91" cy="135.23" r="0.26"/><circle class="cls-5" cx="150.3" cy="135.23" r="0.26"/><circle class="cls-5" cx="150.3" cy="133.14" r="0.26"/><circle class="cls-5" cx="150.3" cy="131.04" r="0.26"/><path class="cls-20" d="M136.64,193.72h0a.4.4,0,0,1,.4.4v3.4a.4.4,0,0,1-.4.39h0a.4.4,0,0,1-.4-.39v-3.4A.4.4,0,0,1,136.64,193.72Z" transform="translate(0 -56.13)"/><path class="cls-21" d="M150.56,193.76h0a.39.39,0,0,1,.39.4v3.4a.39.39,0,0,1-.39.39h0a.4.4,0,0,1-.4-.39v-3.4A.4.4,0,0,1,150.56,193.76Z" transform="translate(0 -56.13)"/><path class="cls-5" d="M136.65,193.72h0a.26.26,0,0,1,.26.26v3.67a.25.25,0,0,1-.26.26h0a.26.26,0,0,1-.26-.26V194A.26.26,0,0,1,136.65,193.72Z" transform="translate(0 -56.13)"/><path class="cls-5" d="M150.57,193.72h0a.26.26,0,0,1,.26.26v3.67a.26.26,0,0,1-.26.26h0a.26.26,0,0,1-.27-.26V194A.27.27,0,0,1,150.57,193.72Z" transform="translate(0 -56.13)"/><rect class="cls-5" x="70.86" y="130.78" width="1.05" height="6.55" rx="0.52"/><rect class="cls-5" x="84.25" y="130.78" width="1.05" height="6.29" rx="0.52"/><rect class="cls-22" x="69.13" y="130.15" width="17.92" height="1.99" rx="0.99"/><rect class="cls-23" x="69.15" y="132.22" width="17.92" height="1.99" rx="0.99"/><rect class="cls-24" x="69.18" y="134.28" width="17.92" height="1.99" rx="0.99"/><path class="cls-14" d="M70.1,186.38h16a.79.79,0,0,1,.78.79h0a.79.79,0,0,1-.78.79h-16a.79.79,0,0,1-.78-.79h0A.79.79,0,0,1,70.1,186.38Z" transform="translate(0 -56.13)"/><path class="cls-14" d="M70.1,188.48h16a.78.78,0,0,1,.78.79h0a.78.78,0,0,1-.78.78h-16a.78.78,0,0,1-.78-.78h0A.78.78,0,0,1,70.1,188.48Z" transform="translate(0 -56.13)"/><path class="cls-14" d="M70.1,190.58h16a.78.78,0,0,1,.78.78h0a.78.78,0,0,1-.78.79h-16a.78.78,0,0,1-.78-.79h0A.78.78,0,0,1,70.1,190.58Z" transform="translate(0 -56.13)"/><path class="cls-5" d="M70.1,192.41h16a.78.78,0,0,1,.78.79h0a.78.78,0,0,1-.78.78h-16a.78.78,0,0,1-.78-.78h0A.78.78,0,0,1,70.1,192.41Z" transform="translate(0 -56.13)"/><circle class="cls-5" cx="71.38" cy="131.04" r="0.26"/><circle class="cls-5" cx="71.38" cy="133.14" r="0.26"/><circle class="cls-5" cx="71.38" cy="135.23" r="0.26"/><circle class="cls-5" cx="84.78" cy="135.23" r="0.26"/><circle class="cls-5" cx="84.78" cy="133.14" r="0.26"/><circle class="cls-5" cx="84.78" cy="131.04" r="0.26"/><path class="cls-25" d="M71.11,193.72h0a.4.4,0,0,1,.4.4v3.4a.4.4,0,0,1-.4.39h0a.4.4,0,0,1-.4-.39v-3.4A.4.4,0,0,1,71.11,193.72Z" transform="translate(0 -56.13)"/><path class="cls-26" d="M85,193.76h0a.4.4,0,0,1,.4.4v3.4a.4.4,0,0,1-.4.39h0a.4.4,0,0,1-.4-.39v-3.4A.4.4,0,0,1,85,193.76Z" transform="translate(0 -56.13)"/><path class="cls-5" d="M71.12,193.72h0a.26.26,0,0,1,.26.26v3.67a.25.25,0,0,1-.26.26h0a.26.26,0,0,1-.26-.26V194A.26.26,0,0,1,71.12,193.72Z" transform="translate(0 -56.13)"/><path class="cls-5" d="M85,193.72h0a.26.26,0,0,1,.26.26v3.67a.26.26,0,0,1-.26.26h0a.25.25,0,0,1-.26-.26V194A.26.26,0,0,1,85,193.72Z" transform="translate(0 -56.13)"/><path class="cls-27" d="M196.59,75.7H195a1.14,1.14,0,0,0-.88-1.35l-.23,0h-35.5a1.14,1.14,0,0,0,0,2.28H160a1.14,1.14,0,0,0,.88,1.34l.23,0h-5.91a1.14,1.14,0,0,0,0,2.28h35.49a1.14,1.14,0,1,0,0-2.28h5.92a1.14,1.14,0,0,0,0-2.27Z" transform="translate(0 -56.13)"/><path class="cls-27" d="M377.25,57.49h-1.62a1.14,1.14,0,0,0-.88-1.34l-.23,0H339a1.14,1.14,0,1,0,0,2.27h1.62a1.14,1.14,0,0,0,.88,1.35l.23,0h-5.91a1.14,1.14,0,1,0,0,2.27h35.49a1.14,1.14,0,1,0,0-2.27h5.92a1.14,1.14,0,0,0,0-2.28Z" transform="translate(0 -56.13)"/><path class="cls-27" d="M295.34,112.56h-1.62a1.14,1.14,0,0,0-.89-1.35l-.22,0h-35.5a1.14,1.14,0,0,0,0,2.28h1.62a1.14,1.14,0,0,0,.88,1.34l.23,0h-5.92a1.14,1.14,0,0,0,0,2.28h35.5a1.14,1.14,0,0,0,0-2.28h5.92a1.14,1.14,0,0,0,0-2.27Z" transform="translate(0 -56.13)"/><image width="1200" height="452" transform="translate(2 112.87) scale(0.06)" xlink:href="../../../../../../Projects/Web/blend-test/src/images/1200px-Progressive_Web_Apps_Logo.svg.png"/><image width="2362" height="709" transform="translate(326 115.87) scale(0.03)" xlink:href="../../../../../../Projects/Web/blend-test/src/images/Spotify_Logo_CMYK_Green.png"/></svg>