<svg id="Layer_1" data-name="Layer 1" xmlns="http://www.w3.org/2000/svg" xmlns:xlink="http://www.w3.org/1999/xlink" viewBox="0 0 390.95 287.9"><defs><style>.cls-1,.cls-4{fill:#6c63ff;}.cls-1,.cls-2{opacity:0.1;}.cls-1,.cls-5{isolation:isolate;}.cls-3{fill:none;stroke:#535461;stroke-width:2px;}.cls-12,.cls-3{stroke-miterlimit:10;}.cls-5{opacity:0.25;}.cls-6{fill:#535461;}.cls-7{fill:#eaeaf3;}.cls-12,.cls-8{fill:#fff;}.cls-9{fill:#264de4;}.cls-10{fill:#2965f1;}.cls-11{fill:#ebebeb;}.cls-12{stroke:#f9f9f9;}</style></defs><title>what-3</title><path class="cls-1" d="M11.55,165.22c6.19,26.44,19.28,49.29,40,60.37,43,23,140,11.15,212.41-2.49a165.73,165.73,0,0,0,94.26-53.89Z" transform="translate(-7.33 -12)"/><path class="cls-1" d="M391.18,40.77H351.46a3.44,3.44,0,0,1,0-6.87h6.87a3.44,3.44,0,0,1,0-6.87h-4.9a3.43,3.43,0,1,1,0-6.86h20.73A54.87,54.87,0,0,0,358,15.71c-56.53-7.26-76.72-2.46-83.84,2.49a79,79,0,0,1-29,12.74C210.22,38.13,145,46.79,85.87,28.17,56.48,18.9,34.64,34.55,21.55,60.69H398.08a61.1,61.1,0,0,0-4.67-20.75A3.39,3.39,0,0,1,391.18,40.77Z" transform="translate(-7.33 -12)"/><path class="cls-1" d="M8.18,110a174.73,174.73,0,0,0,1.54,46.13l348.75,12.75A163.92,163.92,0,0,0,382.7,132ZM146.11,143h-6.86a3.43,3.43,0,0,1,0,6.86H99.53a3.43,3.43,0,1,1,0-6.86h6.86a3.44,3.44,0,0,1,0-6.87h-4.9a3.44,3.44,0,0,1,0-6.87h39.72a3.44,3.44,0,0,1,0,6.87h4.9a3.44,3.44,0,1,1,0,6.87Z" transform="translate(-7.33 -12)"/><path class="cls-1" d="M398.1,60.93,17.35,70.19a152,152,0,0,0-9.11,39.32H391.43A162.43,162.43,0,0,0,397,84.45,118.76,118.76,0,0,0,398.1,60.93ZM85.54,91.28H78.67a3.43,3.43,0,0,1,0,6.86H39a3.43,3.43,0,1,1,0-6.86h6.86a3.44,3.44,0,0,1,0-6.87h-4.9a3.44,3.44,0,0,1,0-6.87H80.63a3.44,3.44,0,1,1,0,6.87h4.91a3.44,3.44,0,0,1,0,6.87Z" transform="translate(-7.33 -12)"/><g class="cls-2"><path class="cls-3" d="M248.77,234.11s10-24.77,28.81-34A40.53,40.53,0,0,0,296,182.32a68.79,68.79,0,0,0,4.6-11.58" transform="translate(-7.33 -12)"/><path class="cls-4" d="M312.37,164.88c-1.95,2.46-12.08,6.06-12.08,6.06s1.22-10.69,3.18-13.13a5.7,5.7,0,0,1,8.91,7.08Z" transform="translate(-7.33 -12)"/><path class="cls-4" d="M308.9,184.36c-3,1-13.43-1.49-13.43-1.49s6.83-8.3,9.81-9.3a5.7,5.7,0,0,1,3.62,10.79Z" transform="translate(-7.33 -12)"/><path class="cls-4" d="M290.06,207.38c-3.07-.64-10.84-8.07-10.84-8.07s10.08-3.71,13.16-3.08a5.7,5.7,0,0,1-2.32,11.14Z" transform="translate(-7.33 -12)"/><path class="cls-4" d="M271.89,221.59c-3.14-.11-12.05-6.12-12.05-6.12s9.31-5.35,12.45-5.25a5.7,5.7,0,1,1,.36,11.39A6.37,6.37,0,0,1,271.89,221.59Z" transform="translate(-7.33 -12)"/><path class="cls-4" d="M285.75,175.91c.4,3.12,7.2,11.43,7.2,11.43s4.48-9.77,4.08-12.89a5.7,5.7,0,0,0-11.28,1.46Z" transform="translate(-7.33 -12)"/><path class="cls-4" d="M264.7,192.8c1.31,2.85,10.29,8.74,10.29,8.74s1.36-10.65,0-13.51a5.7,5.7,0,0,0-10.64,4.1,5.79,5.79,0,0,0,.31.67Z" transform="translate(-7.33 -12)"/><path class="cls-4" d="M246.5,212c.81,3,8.67,10.36,8.67,10.36s3.13-10.27,2.32-13.31a5.7,5.7,0,0,0-11,3Z" transform="translate(-7.33 -12)"/><path class="cls-5" d="M312.37,164.88c-1.95,2.46-12.08,6.06-12.08,6.06s1.22-10.69,3.18-13.13a5.7,5.7,0,0,1,8.91,7.08Z" transform="translate(-7.33 -12)"/><path class="cls-5" d="M308.9,184.36c-3,1-13.43-1.49-13.43-1.49s6.83-8.3,9.81-9.3a5.7,5.7,0,0,1,3.62,10.79Z" transform="translate(-7.33 -12)"/><path class="cls-5" d="M290.06,207.38c-3.07-.64-10.84-8.07-10.84-8.07s10.08-3.71,13.16-3.08a5.7,5.7,0,0,1-2.32,11.14Z" transform="translate(-7.33 -12)"/><path class="cls-5" d="M271.89,221.59c-3.14-.11-12.05-6.12-12.05-6.12s9.31-5.35,12.45-5.25a5.7,5.7,0,1,1,.36,11.39A6.37,6.37,0,0,1,271.89,221.59Z" transform="translate(-7.33 -12)"/><path class="cls-5" d="M285.75,175.91c.4,3.12,7.2,11.43,7.2,11.43s4.48-9.77,4.08-12.89a5.7,5.7,0,0,0-11.28,1.46Z" transform="translate(-7.33 -12)"/><path class="cls-5" d="M264.7,192.8c1.31,2.85,10.29,8.74,10.29,8.74s1.36-10.65,0-13.51a5.7,5.7,0,0,0-10.64,4.1,5.79,5.79,0,0,0,.31.67Z" transform="translate(-7.33 -12)"/><path class="cls-5" d="M246.5,212c.81,3,8.67,10.36,8.67,10.36s3.13-10.27,2.32-13.31a5.7,5.7,0,0,0-11,3Z" transform="translate(-7.33 -12)"/></g><g class="cls-2"><path class="cls-3" d="M241.64,197.9s1.27-26.7,15.93-41.59A40.52,40.52,0,0,0,269,133.38a68.19,68.19,0,0,0,.51-12.45" transform="translate(-7.33 -12)"/><path class="cls-4" d="M278.7,111.5c-1,3-9.39,9.71-9.39,9.71s-2.38-10.47-1.35-13.44a5.7,5.7,0,1,1,11,3A5.24,5.24,0,0,1,278.7,111.5Z" transform="translate(-7.33 -12)"/><path class="cls-4" d="M281.87,131c-2.5,1.93-13.17,3.05-13.17,3.05s3.69-10.09,6.17-12a5.7,5.7,0,0,1,7.58,8.52C282.26,130.72,282.07,130.87,281.87,131Z" transform="translate(-7.33 -12)"/><path class="cls-4" d="M271.73,159c-3.11.42-12.9-4-12.9-4s8.28-6.85,11.4-7.27a5.7,5.7,0,1,1,2.25,11.18,6,6,0,0,1-.74.1Z" transform="translate(-7.33 -12)"/><path class="cls-4" d="M259.3,178.42c-3,.94-13.4-1.78-13.4-1.78s7-8.15,10-9.09a5.7,5.7,0,0,1,3.4,10.86Z" transform="translate(-7.33 -12)"/><path class="cls-4" d="M257.22,130.73c1.43,2.81,10.59,8.39,10.59,8.39s1-10.69-.42-13.5a5.7,5.7,0,0,0-10.17,5.11Z" transform="translate(-7.33 -12)"/><path class="cls-4" d="M243,153.64c2.18,2.26,12.61,4.84,12.61,4.84s-2.26-10.5-4.44-12.75a5.7,5.7,0,0,0-8.17,7.92Z" transform="translate(-7.33 -12)"/><path class="cls-4" d="M232.17,177.81c1.78,2.6,11.62,6.9,11.62,6.9s-.45-10.73-2.23-13.32a5.7,5.7,0,0,0-9.39,6.41Z" transform="translate(-7.33 -12)"/></g><path class="cls-1" d="M114.14,288.45c14,4.71,31.11,1.84,47,2.17a16.15,16.15,0,0,1,6.23,1c1.74.81,2.6,2.13,3.8,3.26,4.45,4.2,13.58,5.55,21.56,4.84s15.29-3.08,22.8-4.87c13-3.11,27.9-4.52,40.73-1.13a10.63,10.63,0,0,0,3.68.54c2.82-.28,3.65-2.53,5.62-3.82,3.57-2.32,11.27-1.69,12.83-4.75.92-1.78-1.19-3.63-3.48-4.86-8.77-4.69-21.33-5.46-32.81-4.74s-22.77,2.72-34.31,2.73c-14.38,0-28.27-3.06-42.51-4.32-9.86-.87-20.63-.76-29.88,1.78C125.41,279.07,123.2,285.28,114.14,288.45Z" transform="translate(-7.33 -12)"/><rect class="cls-6" x="130.25" y="65.9" width="2.49" height="35.28"/><rect class="cls-6" x="130.25" y="113.29" width="2.49" height="19.96"/><rect class="cls-6" x="132.03" y="31.33" width="112.25" height="243.74" rx="16.78"/><rect class="cls-4" x="132.03" y="42.73" width="112.25" height="222" rx="16.78"/><path class="cls-7" d="M187.64,48.67h16a1.25,1.25,0,0,1,1.25,1.25h0a1.25,1.25,0,0,1-1.25,1.25h-16a1.24,1.24,0,0,1-1.24-1.25h0A1.24,1.24,0,0,1,187.64,48.67Z" transform="translate(-7.33 -12)"/><circle class="cls-7" cx="204.01" cy="38.1" r="1.78"/><path class="cls-8" d="M176.31,223.66V241a4.1,4.1,0,0,1-4.05,4.14h-.06a4.46,4.46,0,0,1-4.5-4.14V223.66a4.45,4.45,0,0,1,4.5-4.11A4.13,4.13,0,0,1,176.31,223.66Zm1.61,23.44a4.42,4.42,0,0,0,4.4,4.42h3l.05,9.12c0,5.51,8.24,5.47,8.24,0v-9.12h5.55v9.12c0,5.48,8.29,5.5,8.29,0v-9.12h3a4.41,4.41,0,0,0,4.39-4.42h0V220.31H177.92Zm37-28.23h-37.2a16.75,16.75,0,0,1,9.5-14.84l-2.84-5.27c-.42-.74.64-1.19,1-.57l2.89,5.32a20.13,20.13,0,0,1,16.17,0l2.88-5.3a.57.57,0,1,1,1,.56L205.51,204A16.82,16.82,0,0,1,215,218.87Zm-25.49-8.3a1.54,1.54,0,1,0-1.57,1.57,1.56,1.56,0,0,0,1.57-1.57Zm16.93,0a1.54,1.54,0,0,0-1.56-1.52,1.55,1.55,0,1,0,1.56,1.53Zm14.16,9a4.1,4.1,0,0,0-4.11,4.08V241a4.13,4.13,0,0,0,4.1,4.14h0a4.45,4.45,0,0,0,4.5-4.14v-17.3a4.44,4.44,0,0,0-4.5-4.1Z" transform="translate(-7.33 -12)"/><g id="layer1"><g id="g3013"><polygon id="polygon2989" class="cls-9" points="201.9 111.1 199.24 140.93 187.27 144.25 175.33 140.94 172.67 111.1 201.9 111.1"/><polygon id="polygon2991" class="cls-10" points="196.96 139.03 199.23 113.54 187.29 113.54 187.29 141.71 196.96 139.03"/><polygon id="polygon2993" class="cls-11" points="178.77 124.61 179.1 128.27 187.29 128.27 187.29 124.61 178.77 124.61"/><polygon id="polygon2995" class="cls-11" points="187.29 117.2 187.28 117.2 178.11 117.2 178.45 120.86 187.29 120.86 187.29 117.2"/><polygon id="polygon2997" class="cls-11" points="187.29 137.92 187.29 134.11 187.27 134.11 183.2 133.01 182.94 130.1 180.96 130.1 179.26 130.1 179.78 135.84 187.27 137.92 187.29 137.92"/><path id="path2999" d="M186.88,115h4.43v1.85h-2.58v1.85h2.58v1.86h-4.43Z" transform="translate(-7.33 -12)"/><path id="path3001" d="M192.2,115h4.43v1.61h-2.58v.32h2.58v3.71H192.2v-1.7h2.57v-.32H192.2Z" transform="translate(-7.33 -12)"/><path id="path3003" d="M197.51,115H202v1.61h-2.58v.32H202v3.71h-4.44v-1.7h2.58v-.32h-2.58Z" transform="translate(-7.33 -12)"/><polygon id="polygon3005" class="cls-8" points="191.78 128.27 191.36 133.01 187.28 134.11 187.28 137.92 194.78 135.84 194.83 135.22 195.69 125.59 195.78 124.61 196.44 117.2 187.28 117.2 187.28 120.86 192.43 120.86 192.1 124.61 187.28 124.61 187.28 128.27 191.78 128.27"/></g></g><image width="500" height="500" transform="translate(193.67 59) scale(0.08)" xlink:href="../../../../../../../Downloads/js-logo.png"/><image width="512" height="512" transform="translate(141.67 60) scale(0.07)" xlink:href="../../../../../../../Downloads/PgcSR.png"/><line class="cls-12" x1="178.17" y1="186.5" x2="160.67" y2="106"/><line class="cls-12" x1="201.17" y1="186.5" x2="213.17" y2="104.5"/><line class="cls-12" x1="188.17" y1="197.5" x2="187.17" y2="147.5"/></svg>