<svg id="Layer_1" data-name="Layer 1" xmlns="http://www.w3.org/2000/svg" xmlns:xlink="http://www.w3.org/1999/xlink" viewBox="0 0 387.99 258.16"><defs><style>.cls-1,.cls-2{fill:#6c63ff;}.cls-1,.cls-4,.cls-6{opacity:0.1;}.cls-1,.cls-4{isolation:isolate;}.cls-3{fill:#3f3d56;}.cls-5{fill:#fabdbd;}.cls-7{fill:#f86d70;}</style></defs><title>why-1</title><path class="cls-1" d="M238.16,71.31c-22.82-.81-44.56-8.18-65.31-16.22s-41.32-17-63.6-21.27C94.92,31.07,78.53,30.69,67,38.37c-11.11,7.4-14.7,20.15-16.63,32C48.91,79.28,48.05,88.65,52,97c2.77,5.79,7.67,10.66,11.06,16.21,11.8,19.3,3.46,43.09-9.33,61.94-6,8.84-13,17.28-17.59,26.68S29.4,222,33.45,231.61,47,248.27,57.4,253.3c21.05,10.21,45.85,13.13,70,14.78,53.55,3.67,107.38,2.08,161.07.49,19.87-.58,39.83-1.18,59.37-4.25,10.86-1.71,22.06-4.42,29.94-10.95,10-8.3,12.48-22.36,5.78-32.76-11.24-17.45-42.32-21.79-50.19-40.52-4.32-10.31.12-21.8,6.4-31.36,13.49-20.51,36.09-38.51,37.28-62,.82-16.1-10-32.23-26.85-39.85-17.61-8-42-7-55,6.24C281.83,66.76,258.32,72,238.16,71.31Z" transform="translate(-12.01 -19.82)"/><ellipse class="cls-2" cx="60.4" cy="253.19" rx="25.82" ry="4.97"/><ellipse class="cls-3" cx="59.96" cy="251.08" rx="3" ry="3.94"/><ellipse class="cls-3" cx="59.96" cy="246.27" rx="3" ry="3.94"/><ellipse class="cls-3" cx="59.96" cy="241.46" rx="3" ry="3.94"/><ellipse class="cls-3" cx="59.96" cy="236.65" rx="3" ry="3.94"/><ellipse class="cls-3" cx="59.96" cy="231.84" rx="3" ry="3.94"/><ellipse class="cls-3" cx="59.96" cy="227.03" rx="3" ry="3.94"/><ellipse class="cls-3" cx="59.96" cy="222.22" rx="3" ry="3.94"/><path class="cls-2" d="M83.23,209.13a13.29,13.29,0,0,0,1.12-1.65l-7.9-1.3,8.54.07a14.41,14.41,0,0,0,.28-11.41l-11.46,5.95L84.39,193a14.4,14.4,0,0,0-24.92,14.44,15.78,15.78,0,0,0,1.13,1.67A14.29,14.29,0,0,0,59,211.77l10.26,5.32-10.94-3.66A14.4,14.4,0,0,0,60.6,227a14.4,14.4,0,1,0,22.64,0,14.4,14.4,0,0,0,0-17.81Z" transform="translate(-12.01 -19.82)"/><path class="cls-4" d="M57.53,218a14.31,14.31,0,0,0,3.08,8.9,14.4,14.4,0,1,0,22.63,0C85.16,224.49,57.53,216.42,57.53,218Z" transform="translate(-12.01 -19.82)"/><path class="cls-3" d="M197.5,213.09c.22,2.82,1.31,5.74,3.59,7.41s5.92,1.63,7.67-.61a8.51,8.51,0,0,0,1.27-2.77c1.47-4.64,2.52-9.73.9-14.33-3.63-.24-7.85-1.95-10.58,1.06A12.55,12.55,0,0,0,197.5,213.09Z" transform="translate(-12.01 -19.82)"/><path class="cls-5" d="M214.38,184.65c-.48,4.11-1.3,8.19-1.22,12.32,0,1.59.2,3.17.2,4.77a23.42,23.42,0,0,1-3.17,11.84,3.84,3.84,0,0,1-.87,1.13,2.79,2.79,0,0,1-3,.1,6,6,0,0,1-2.16-2.34c-2.62-4.5-2.7-10-3.74-15.07-.79-3.91-2.19-7.69-2.7-11.64-.32-2.55-.27-5.14-.8-7.65-.15-.76-.6-1.9-.89-3a4.5,4.5,0,0,1-.14-2.66c.56-1.38,2.4-.84,3.59-.75a82.19,82.19,0,0,0,12.65,0,1.46,1.46,0,0,1,1.18.25,1.41,1.41,0,0,1,.28.51,17.31,17.31,0,0,1,.77,2.82A31.31,31.31,0,0,1,214.38,184.65Z" transform="translate(-12.01 -19.82)"/><g class="cls-6"><path d="M212.76,171.65a3.53,3.53,0,0,0-.65,0c-2,.17-4,.25-6.06.26C208.29,171.91,210.52,171.83,212.76,171.65Z" transform="translate(-12.01 -19.82)"/><path d="M207,214.81a6,6,0,0,1-2.15-2.34c-2.63-4.5-2.7-10-3.74-15.07-.8-3.91-2.2-7.69-2.7-11.64-.33-2.55-.28-5.14-.8-7.65-.16-.76-.61-1.9-.9-3a4.5,4.5,0,0,1-.14-2.66,1.51,1.51,0,0,1,1.41-.91c-.89-.06-1.76,0-2.12.91a4.6,4.6,0,0,0,.15,2.66c.29,1.11.73,2.25.89,3,.52,2.51.47,5.1.8,7.65.51,4,1.9,7.74,2.7,11.64,1,5.1,1.11,10.58,3.74,15.07a6,6,0,0,0,2.16,2.34,3.11,3.11,0,0,0,1.84.37A3.32,3.32,0,0,1,207,214.81Z" transform="translate(-12.01 -19.82)"/></g><path class="cls-5" d="M227.72,206.28c-2.12,4.24-1.77,10.23-1.77,10.23.35,14.11-5.29,43.73-5.29,43.73h-4.94s-.7-32.8,0-35.62-.35-12.69-1.41-26.45a70.72,70.72,0,0,1,2.51-23.56c.39-1.41.67-2.18.67-2.18s8.11-12,12.69-6.35c1.06,1.31,1.62,4,1.82,7.3C232.62,184.41,229.34,203,227.72,206.28Z" transform="translate(-12.01 -19.82)"/><path class="cls-4" d="M232,173.38c-.2-3.34-.75-6-1.82-7.3a3.61,3.61,0,0,0-3.46-1.47,3.75,3.75,0,0,1,2.41,1.47c1.05,1.31,1.61,4,1.81,7.3.63,11-2.66,29.66-4.28,32.9-2.12,4.24-1.77,10.23-1.77,10.23.36,14.11-5.29,43.73-5.29,43.73h1.06s5.64-29.62,5.29-43.73c0,0-.35-6,1.77-10.23C229.34,203,232.62,184.41,232,173.38Z" transform="translate(-12.01 -19.82)"/><path class="cls-3" d="M213.16,259a4.4,4.4,0,0,0-1,1.1c-.63,1.19.26,2.61,1.22,3.56s2.12,2,2.12,3.32a3.31,3.31,0,0,1-1.74,2.59c-.5.31-1.12.71-1,1.29a1.33,1.33,0,0,0,.19.42,5.42,5.42,0,0,0,3.61,2.18,16,16,0,0,0,4.32,0,.84.84,0,0,0,.59-.21.77.77,0,0,0,.16-.48,6.25,6.25,0,0,1,.36-2.21c.45-.92,1.51-1.39,2.11-2.22a4.92,4.92,0,0,0,.41-4.07,16.69,16.69,0,0,0-4.63-8.46C217.12,253.43,215,257.24,213.16,259Z" transform="translate(-12.01 -19.82)"/><path class="cls-3" d="M223.84,81.19c2-2.94,1.46-7.06-.55-10s-5.24-4.77-8.57-6a24.19,24.19,0,0,0-14.07-1c-3.67,1-7,3-10.44,4.5a44.82,44.82,0,0,1-19.5,3.88c-7.44-.2-15.6-2.11-21.84,2-11.44,7.44-6.35,27.68-17.17,36-2.92,2.24-6.59,3.21-9.83,4.94s-6.32,4.73-6.24,8.4a9.76,9.76,0,0,0,1.76,4.94,22.84,22.84,0,0,0,19.23,10.33A24.48,24.48,0,0,0,156,128.89c1.1-1.55,2.06-3.28,3.65-4.32,3.18-2.08,7.36-.62,11.15-.31a18.09,18.09,0,0,0,18.55-14c.7-3.55.58-7.78,3.43-10,2.31-1.79,5.55-1.41,8.47-1.71,5.34-.56,9.55-3.88,12.45-8.23,1.33-2,1.48-4.37,3.3-5.94C219,82.69,222,84,223.84,81.19Z" transform="translate(-12.01 -19.82)"/><g class="cls-6"><path d="M163.66,73.36a44.61,44.61,0,0,0,9.23-.7c-.84,0-1.68,0-2.53,0-5.84-.16-12.12-1.37-17.58.08C156.38,72.78,160.1,73.27,163.66,73.36Z" transform="translate(-12.01 -19.82)"/><path d="M152.59,125.27c-1.59,1-2.55,2.77-3.65,4.33A24.74,24.74,0,0,1,135,139.19c.41,0,.83,0,1.24,0a24.49,24.49,0,0,0,19.38-10.33c1.1-1.55,2.06-3.29,3.66-4.32l.27-.17C157.08,124.06,154.64,123.94,152.59,125.27Z" transform="translate(-12.01 -19.82)"/><path d="M222.93,71.2c-2-2.92-5.24-4.77-8.57-6a24.18,24.18,0,0,0-14.07-.95l-.31.09a26.91,26.91,0,0,1,7.68,1.56c3.33,1.19,6.57,3,8.57,6s2.52,7,.56,10-4.9,1.52-6.87,3.24c-1.82,1.57-2,3.95-3.3,5.94a18.17,18.17,0,0,1-10.29,7.83c1.49-.18,3-.16,4.54-.31,5.34-.56,9.55-3.88,12.45-8.23,1.33-2,1.48-4.37,3.3-5.94,2-1.72,5-.44,6.87-3.23C225.46,78.24,225,74.11,222.93,71.2Z" transform="translate(-12.01 -19.82)"/><path d="M194.17,99.28c-2.9.31-6.15-.07-8.47,1.72-2.85,2.23-2.71,6.46-3.43,10A18.11,18.11,0,0,1,170,124.21l.42,0a18.07,18.07,0,0,0,18.55-14c.7-3.54.58-7.78,3.43-10a6.45,6.45,0,0,1,2.19-1.06C194.46,99.24,194.32,99.27,194.17,99.28Z" transform="translate(-12.01 -19.82)"/></g><path class="cls-5" d="M279.38,68.56s-8.46,16.93-11.28,23.28-28.57,15.87-32.1,16.22a4.59,4.59,0,0,0-2.51,1.21,13.86,13.86,0,0,0-3.13,4.79s1.41,9.52-.35,25.39c0,.31-.07.61-.1.91-1.54,15.1,1.68,18.66,1.68,18.66s-34.21,13-33.15-3.88a77.84,77.84,0,0,0,0-12.47,52.16,52.16,0,0,0-2-9.83c-.83-2.92-1.83-6.13-2.86-10.49a46.5,46.5,0,0,0-2-6.41l-.07-.18c-1.76-4.38-3.52-5.79-4.53-6.25a15.72,15.72,0,0,1-2.71-1.53,142,142,0,0,1-16.48-13.85c-8.47-8.46-16.93-28.57-16.93-28.57S148.35,53.93,154,44.4s3.18,18.69,3.18,18.69S167.4,76.85,169.86,83.2A10.59,10.59,0,0,0,174.8,89a58.32,58.32,0,0,1,7.81,4.88,45.05,45.05,0,0,0,5.25,3.43c3.95,2.12,8.67,4.51,12.6,5.13a10.62,10.62,0,0,0,1.86.16,1.93,1.93,0,0,0,1.55-.7c1.06-1.25,1-3.93.79-6.13a32.59,32.59,0,0,0-.57-3.4S215.55,85.14,215.2,94a9.78,9.78,0,0,0,.26,2.9,5,5,0,0,0,3.42,3.74,8.42,8.42,0,0,0,4.23.13,4.19,4.19,0,0,0,1.25-.42c1.06-.71,11.64-3.88,14.81-4.24S258.22,88,258.22,88L275.5,64s-.35-14.11,6.7-19.75S279.38,68.56,279.38,68.56Z" transform="translate(-12.01 -19.82)"/><g class="cls-6"><path d="M229.91,138.24a69.66,69.66,0,0,0-.4,8.54c0-1.86.16-4,.4-6.42,0-.3.06-.6.1-.91a139.66,139.66,0,0,0,.88-16.36q-.09,7.14-.88,14.24C230,137.64,229.94,138,229.91,138.24Z" transform="translate(-12.01 -19.82)"/><path d="M204.45,92.15a3.56,3.56,0,0,0-.35.22,30.86,30.86,0,0,1,.68,4.58A21.43,21.43,0,0,0,204.45,92.15Z" transform="translate(-12.01 -19.82)"/><path d="M157.33,61.18c.18-2.47.43-6.9.39-10.83-.06,5.26-.53,10.63-.53,10.63Z" transform="translate(-12.01 -19.82)"/><path d="M198.47,154.73a1.84,1.84,0,0,1,0,.41c-1.06,16.93,33.15,3.88,33.15,3.88a5.66,5.66,0,0,1-.89-1.79C225.55,159.07,199.66,167.59,198.47,154.73Z" transform="translate(-12.01 -19.82)"/><path d="M279.38,66.45s-8.46,16.92-11.28,23.27S239.53,105.59,236,106a4.53,4.53,0,0,0-2.51,1.21,13.77,13.77,0,0,0-3.13,4.78s.08.58.19,1.67a13,13,0,0,1,2.94-4.34,4.59,4.59,0,0,1,2.51-1.21c3.53-.35,29.28-9.87,32.1-16.22s11.28-23.28,11.28-23.28,6-18.11,5.31-23.53C284.15,52,279.38,66.45,279.38,66.45Z" transform="translate(-12.01 -19.82)"/><path d="M198.4,140.55a52.23,52.23,0,0,0-2-9.82c-.83-2.93-1.83-6.13-2.86-10.5a46,46,0,0,0-2-6.4c0-.07,0-.13-.07-.19-1.76-4.38-3.52-5.79-4.53-6.25a15,15,0,0,1-2.71-1.52A142.29,142.29,0,0,1,167.75,92c-8.47-8.46-16.93-28.56-16.93-28.56a31.76,31.76,0,0,1-.52-5.14,33.87,33.87,0,0,0,.52,7.25s8.46,20.11,16.93,28.57A142,142,0,0,0,184.23,108a15.53,15.53,0,0,0,2.73,1.53c1,.46,2.76,1.87,4.53,6.25l.08.18a47.83,47.83,0,0,1,2,6.41c1,4.36,2,7.57,2.86,10.49a52.16,52.16,0,0,1,2,9.83c.15,1.47.23,3.08.26,4.88A62.92,62.92,0,0,0,198.4,140.55Z" transform="translate(-12.01 -19.82)"/></g><path class="cls-2" d="M233.33,125.23a20.72,20.72,0,0,0-1.41,2.78,16.54,16.54,0,0,0-.64,4.66,37.89,37.89,0,0,1-1,6.53,7.41,7.41,0,0,1-.35,1.16,3.4,3.4,0,0,1-.42.71,2.8,2.8,0,0,1-.65.59,7.72,7.72,0,0,1-1.2.65c-4.91,2.3-10.26,4.32-15.62,3.53a22.78,22.78,0,0,1-6.5-2.19c-1.94-.94-4.13-2.06-6.14-1.27h0a3.07,3.07,0,0,1-1,.3.61.61,0,0,1-.19,0c-.67-.13-.67-2.37-.82-3-.58-2.53-.66-4.58-1-6.78a22,22,0,0,0-.85-3.59A42.4,42.4,0,0,1,193.7,116c0-.22-1.58,0-2.11,0-.14,0-.21,0-.18-.07l.11-.12a1.62,1.62,0,0,1,.63-.31l.41-.12c2.18-.62,4.59-.88,6.22-2.41s2.11-4.11,2-6.43a38.68,38.68,0,0,1-.32-4,10.43,10.43,0,0,0,1.85.16,1.94,1.94,0,0,0,1.56-.7,30.37,30.37,0,0,1,1.52,3.52,24,24,0,0,0,1.94,4.36,7.39,7.39,0,0,0,6.6,3.39,6.13,6.13,0,0,0,5.46-4.77c.4-2.24-.54-5.46-.52-7.79a8.42,8.42,0,0,0,4.23.14c.06.14.11.29.16.44.79,2.72,1.85,5.85,4.51,6.82,1.72.62,3.76.15,5.35,1a2.71,2.71,0,0,1,.35.24,3.81,3.81,0,0,1,.93,1,7.86,7.86,0,0,1,1.14,3.55A19.8,19.8,0,0,1,233.33,125.23Z" transform="translate(-12.01 -19.82)"/><path class="cls-4" d="M215.46,96.85a12,12,0,0,1-10.8-1.09,32.4,32.4,0,0,0-.57-3.39S215.55,85.14,215.2,94A9.72,9.72,0,0,0,215.46,96.85Z" transform="translate(-12.01 -19.82)"/><circle class="cls-5" cx="199.12" cy="65.14" r="11.99"/><path class="cls-7" d="M190.15,114.76s23.28-14.81,95.58,1.06S400,119,400,119v16.58s-81.12,8.82-112.15,0-75.22-13.9-90.69-.25Z" transform="translate(-12.01 -19.82)"/><path class="cls-4" d="M190.15,114.76s23.28-14.81,95.58,1.06S400,119,400,119v16.58s-81.12,8.82-112.15,0-75.22-13.9-90.69-.25Z" transform="translate(-12.01 -19.82)"/><path class="cls-7" d="M190.86,115.47s22.57-14.81,94.87,1.06,113.56,3.17,113.56,3.17l.36,15.17s-80.41,8.81-111.45,0-74.86-15-90.34-1.31Z" transform="translate(-12.01 -19.82)"/><path class="cls-7" d="M182.37,138.25s-23.27,14.81-95.57-1.06S18,134,18,134V117.44s35.62-8.81,66.65,0,75.22,13.91,90.69.25Z" transform="translate(-12.01 -19.82)"/><path class="cls-4" d="M182.37,138.25s-23.27,14.81-95.57-1.06S18,134,18,134V117.44s35.62-8.81,66.65,0,75.22,13.91,90.69.25Z" transform="translate(-12.01 -19.82)"/><path class="cls-7" d="M181.67,137.55s-22.57,14.81-94.87-1.06-68.07-3.18-68.07-3.18l-.35-15.16s34.91-8.82,66,0,74.86,15,90.33,1.31Z" transform="translate(-12.01 -19.82)"/><path class="cls-3" d="M200.82,87c-.35-2.2-.89-5,1-6.24a4,4,0,0,1,2.18-.56c3.81,0,7.46,2.62,11.2,1.84a6.3,6.3,0,0,0,2.46-11.24,12.68,12.68,0,0,0-5.12-1.86c-4.73-1-9.67-1.94-14.34-.7s-8.94,5.42-8.56,10.23a14.31,14.31,0,0,0,2.57,6.34c.93,1.49,4.55,8.47,6.31,8.57C201,93.48,201.07,88.39,200.82,87Z" transform="translate(-12.01 -19.82)"/><path class="cls-2" d="M230.54,153s-24.34,6-32.45,0c0,0-3.53,13.75-2.47,20.81,0,0,17.28,1,19,2.11,0,0,.35-2.82,2.11-1.41,0,0,6-7,16.93-.7C233.71,173.84,235.83,157.26,230.54,153Z" transform="translate(-12.01 -19.82)"/><path class="cls-4" d="M217.62,70.75a5.79,5.79,0,0,0-.79-.49,6.29,6.29,0,0,1-3.45,10.32c-3.74.78-7.38-1.88-11.19-1.84a4,4,0,0,0-2.18.56c-1.85,1.26-1.31,4-.95,6.24.23,1.43.13,6.53-2.34,6.39h0c.68.83,1.31,1.39,1.8,1.41,2.47.14,2.57-4.94,2.34-6.39-.35-2.2-.89-5,1-6.24a4,4,0,0,1,2.18-.56c3.81,0,7.46,2.62,11.2,1.84a6.3,6.3,0,0,0,2.46-11.24Z" transform="translate(-12.01 -19.82)"/><g class="cls-6"><path class="cls-2" d="M42.47,54S16.1,42.91,12.64,62.91a4.87,4.87,0,0,0,.7,5.69s.54-1.38,3.09.05a13.06,13.06,0,0,0,2.88,1.16,6.4,6.4,0,0,0,4.1-.22h0s8.67-.46,16-11.81c0,0,3.12-1.93,3.28-2.66l-5.23.36s.4,3.82-1.76,6.12c0,0,1.92-5.94,1-6.11-.19,0-2.76.31-2.76.31s.66,6.65-2.83,10.1c0,0,3.24-6.77,1.83-10l-3.85.75s1.05,7-2.76,11.07c0,0,3.13-7.2,1.92-10.86l-3.69,1.25s.89,6.84-2.3,10.22c0,0,2.79-8.68,1.47-9.87,0,0-3.32,1.35-4,2.11,0,0,.53,4.94-1.5,6.71,0,0,1.24-6,.63-6.25,0,0-3.86,2.91-5,5.42a14.7,14.7,0,0,1,4.55-6,8.05,8.05,0,0,0-4.58.65s1.33-2.55,5.52-1.34c0,0,3.1-2.14,3.72-2.12,0,0-4-1.76-6.82-1.54,0,0,3.06-1.77,7.79,1.18L27.62,56s-5.11-2.62-7.68-2.61c0,0,3.41-1.32,8.64,2.35l3.77-.77s-4.23-2.59-7.09-3.2c0,0,3.43-.54,8.18,3L36,54.54S32.89,52.7,32,52.26s-.9-.74-.9-.74a12.32,12.32,0,0,1,6.05,2.91S42.44,54.33,42.47,54Z" transform="translate(-12.01 -19.82)"/></g><g class="cls-6"><path class="cls-2" d="M41.49,34.12S32.13,12.51,18.7,22.42a4,4,0,0,0-2.82,3.78s1.1-.51,1.8,1.79a11.13,11.13,0,0,0,1.06,2.33,5.34,5.34,0,0,0,2.54,2.2h0s5.41,4.66,16.22,2.07c0,0,3,.64,3.47.3l-3.31-2.77s-1.94,2.5-4.54,2.62c0,0,4.52-2.43,4.07-3.06-.09-.13-1.81-1.39-1.81-1.39S32,34.62,28,34.69c0,0,5.78-2.18,6.77-4.89L32,28s-3.37,4.76-8,5c0,0,6-2.47,7.33-5.34L28.5,26.33s-3.37,4.58-7.18,4.76c0,0,6.6-3.57,6.5-5a15.48,15.48,0,0,0-3.61-1s-2.5,3.23-4.72,3.14c0,0,4.16-2.86,3.93-3.36,0,0-4-.47-6.08.36a12.07,12.07,0,0,1,6.12-1A6.61,6.61,0,0,0,20.38,22s2.24-.75,4,2.35c0,0,3.06.49,3.42.86,0,0-1.34-3.32-3.18-4.81,0,0,2.82.71,3.95,5.14l2.95,1.31S30,22.36,28.47,20.91c0,0,2.77,1.16,3.79,6.31l2.68,1.69A24.37,24.37,0,0,0,32.55,23s2.34,1.62,3.14,6.44l1.65,1.34s-.81-2.87-1.11-3.67-.12-.95-.12-.95a10,10,0,0,1,1.94,5.18S41.3,34.31,41.49,34.12Z" transform="translate(-12.01 -19.82)"/></g><image width="218" height="226" transform="translate(174.99 30.18) scale(0.22)" xlink:href="../../../../../../Projects/Web/blend-test/src/images/hybrid-app-logo.png"/></svg>