<svg id="Layer_1" data-name="Layer 1" xmlns="http://www.w3.org/2000/svg" viewBox="0 0 282.58 211.84"><defs><style>.cls-1{opacity:0.75;}.cls-2{fill:#3f3d56;}.cls-3{opacity:0.1;}.cls-3,.cls-6,.cls-7{isolation:isolate;}.cls-4,.cls-6,.cls-7{fill:#6c63ff;}.cls-5{fill:#2f2e41;}.cls-6{opacity:0.2;}.cls-7{opacity:0.5;}.cls-8{opacity:0.85;}.cls-9{opacity:0.8;}.cls-10{opacity:0.9;}.cls-11{opacity:0.95;}</style></defs><title>why-3</title><g class="cls-1"><ellipse class="cls-2" cx="112.95" cy="12.05" rx="5.03" ry="2.91"/><polygon class="cls-2" points="245.22 33.38 132.09 33.38 134.87 23.37 137.28 14.7 141.36 0 236.21 0 240.18 14.7 242.9 24.77 245.22 33.38"/><polygon class="cls-3" points="242.9 24.77 134.87 24.77 134.87 23.37 137.28 14.7 240.18 14.7 242.9 24.77"/><rect class="cls-4" x="105.6" y="11.13" width="14.7" height="11.39"/><rect class="cls-2" x="95" y="16.69" width="187.58" height="100.15"/><rect class="cls-4" x="95" y="54.31" width="187.58" height="24.9"/><circle class="cls-5" cx="188.79" cy="66.76" r="46.5"/><circle class="cls-2" cx="188.79" cy="66.76" r="43.18"/><circle class="cls-5" cx="188.79" cy="66.76" r="32.85"/><circle class="cls-6" cx="253.7" cy="23.58" r="3.18"/><circle class="cls-7" cx="263.24" cy="23.58" r="3.18"/><circle class="cls-4" cx="272.77" cy="23.58" r="3.18"/><rect class="cls-5" x="177.53" y="2.38" width="22.25" height="10.07"/></g><g class="cls-8"><ellipse class="cls-2" cx="77.95" cy="46.05" rx="5.03" ry="2.91"/><polygon class="cls-2" points="210.22 67.38 97.09 67.38 99.87 57.37 102.28 48.7 106.36 34 201.21 34 205.18 48.7 207.9 58.77 210.22 67.38"/><polygon class="cls-3" points="207.9 58.77 99.87 58.77 99.87 57.37 102.28 48.7 205.18 48.7 207.9 58.77"/><rect class="cls-4" x="70.6" y="45.13" width="14.7" height="11.39"/><rect class="cls-2" x="60" y="50.69" width="187.58" height="100.15"/><rect class="cls-4" x="60" y="88.31" width="187.58" height="24.9"/><circle class="cls-5" cx="153.79" cy="100.76" r="46.5"/><circle class="cls-2" cx="153.79" cy="100.76" r="43.18"/><circle class="cls-5" cx="153.79" cy="100.76" r="32.85"/><circle class="cls-6" cx="218.7" cy="57.58" r="3.18"/><circle class="cls-7" cx="228.24" cy="57.58" r="3.18"/><circle class="cls-4" cx="237.77" cy="57.58" r="3.18"/><rect class="cls-5" x="142.53" y="36.38" width="22.25" height="10.07"/></g><g class="cls-9"><ellipse class="cls-2" cx="94.95" cy="29.05" rx="5.03" ry="2.91"/><polygon class="cls-2" points="227.22 50.38 114.09 50.38 116.87 40.37 119.28 31.7 123.36 17 218.21 17 222.18 31.7 224.9 41.77 227.22 50.38"/><polygon class="cls-3" points="224.9 41.77 116.87 41.77 116.87 40.37 119.28 31.7 222.18 31.7 224.9 41.77"/><rect class="cls-4" x="87.6" y="28.13" width="14.7" height="11.39"/><rect class="cls-2" x="77" y="33.69" width="187.58" height="100.15"/><rect class="cls-4" x="77" y="71.31" width="187.58" height="24.9"/><circle class="cls-5" cx="170.79" cy="83.76" r="46.5"/><circle class="cls-2" cx="170.79" cy="83.76" r="43.18"/><circle class="cls-5" cx="170.79" cy="83.76" r="32.85"/><circle class="cls-6" cx="235.7" cy="40.58" r="3.18"/><circle class="cls-7" cx="245.24" cy="40.58" r="3.18"/><circle class="cls-4" cx="254.77" cy="40.58" r="3.18"/><rect class="cls-5" x="159.53" y="19.38" width="22.25" height="10.07"/></g><g class="cls-10"><ellipse class="cls-2" cx="59.95" cy="63.05" rx="5.03" ry="2.91"/><polygon class="cls-2" points="192.22 84.38 79.09 84.38 81.87 74.37 84.28 65.7 88.36 51 183.21 51 187.18 65.7 189.9 75.77 192.22 84.38"/><polygon class="cls-3" points="189.9 75.77 81.87 75.77 81.87 74.37 84.28 65.7 187.18 65.7 189.9 75.77"/><rect class="cls-4" x="52.6" y="62.13" width="14.7" height="11.39"/><rect class="cls-2" x="42" y="67.69" width="187.58" height="100.15"/><rect class="cls-4" x="42" y="105.31" width="187.58" height="24.9"/><circle class="cls-5" cx="135.79" cy="117.76" r="46.5"/><circle class="cls-2" cx="135.79" cy="117.76" r="43.18"/><circle class="cls-5" cx="135.79" cy="117.76" r="32.85"/><circle class="cls-6" cx="200.7" cy="74.58" r="3.18"/><circle class="cls-7" cx="210.24" cy="74.58" r="3.18"/><circle class="cls-4" cx="219.77" cy="74.58" r="3.18"/><rect class="cls-5" x="124.53" y="53.38" width="22.25" height="10.07"/></g><g class="cls-11"><ellipse class="cls-2" cx="40.95" cy="88.05" rx="5.03" ry="2.91"/><polygon class="cls-2" points="173.22 109.38 60.09 109.38 62.87 99.37 65.28 90.7 69.36 76 164.21 76 168.18 90.7 170.9 100.77 173.22 109.38"/><polygon class="cls-3" points="170.9 100.77 62.87 100.77 62.87 99.37 65.28 90.7 168.18 90.7 170.9 100.77"/><rect class="cls-4" x="33.6" y="87.13" width="14.7" height="11.39"/><rect class="cls-2" x="23" y="92.69" width="187.58" height="100.15"/><rect class="cls-4" x="23" y="130.31" width="187.58" height="24.9"/><circle class="cls-5" cx="116.79" cy="142.76" r="46.5"/><circle class="cls-2" cx="116.79" cy="142.76" r="43.18"/><circle class="cls-5" cx="116.79" cy="142.76" r="32.85"/><circle class="cls-6" cx="181.7" cy="99.58" r="3.18"/><circle class="cls-7" cx="191.24" cy="99.58" r="3.18"/><circle class="cls-4" cx="200.77" cy="99.58" r="3.18"/><rect class="cls-5" x="105.53" y="78.38" width="22.25" height="10.07"/></g><ellipse class="cls-2" cx="17.95" cy="107.05" rx="5.03" ry="2.91"/><polygon class="cls-2" points="150.22 128.38 37.09 128.38 39.87 118.37 42.28 109.7 46.36 95 141.21 95 145.18 109.7 147.9 119.77 150.22 128.38"/><polygon class="cls-3" points="147.9 119.77 39.87 119.77 39.87 118.37 42.28 109.7 145.18 109.7 147.9 119.77"/><rect class="cls-4" x="10.6" y="106.13" width="14.7" height="11.39"/><rect class="cls-2" y="111.69" width="187.58" height="100.15"/><rect class="cls-4" y="149.31" width="187.58" height="24.9"/><circle class="cls-5" cx="93.79" cy="161.76" r="46.5"/><circle class="cls-2" cx="93.79" cy="161.76" r="43.18"/><circle class="cls-5" cx="93.79" cy="161.76" r="32.85"/><circle class="cls-6" cx="158.7" cy="118.58" r="3.18"/><circle class="cls-7" cx="168.24" cy="118.58" r="3.18"/><circle class="cls-4" cx="177.77" cy="118.58" r="3.18"/><rect class="cls-5" x="82.53" y="97.38" width="22.25" height="10.07"/></svg>