<svg id="Layer_1" data-name="Layer 1" xmlns="http://www.w3.org/2000/svg" xmlns:xlink="http://www.w3.org/1999/xlink" viewBox="0 0 400 218.27"><defs><style>.cls-1,.cls-3{fill:#6c63ff;}.cls-2{fill:#f2f2f2;}.cls-3{opacity:0.3;}.cls-3,.cls-6{isolation:isolate;}.cls-4{fill:#2f2e41;}.cls-5{fill:#ffb8b8;}.cls-6{opacity:0.1;}.cls-7{fill:#9f616a;}.cls-8{fill:#fff;}</style></defs><title>why-2</title><path class="cls-1" d="M400,246.69c0-11.92-6.05-21.57-13.5-21.57-4.69,0-8.82,3.81-11.24,9.61a6.72,6.72,0,0,0-2.58-.52,8.06,8.06,0,0,0-6,3.11c-2.19-7.22-6.81-12.2-12.17-12.2-5,0-9.38,4.36-11.71,10.83a7.33,7.33,0,0,0-4.62-1.74c-5.72,0-10.36,7.41-10.36,16.55a24.06,24.06,0,0,0,1.63,8.92h67.87A30.68,30.68,0,0,0,400,246.69Z" transform="translate(0 -42.07)"/><path class="cls-2" d="M351.59,122.12C341,99.12,320.15,79.5,295,76.3c-6.65-.85-13.59-.51-19.75,2.11-8.1,3.44-14.06,10.38-20.09,16.78a242.2,242.2,0,0,1-42.58,35.87c-7.66,5.07-15.88,9.81-25,11.11-18.24,2.6-36.28-9.84-44.6-26.28-5.19-10.27-7.59-22.33-11.79-33-4.84,0-10.61,0-16.81,0-17.14.08-31.09.34-31.09.34s16.59-22,31-13.83c4.62,2.6,9.45,4.92,13.9,6.88a38.9,38.9,0,0,0-10.09-12.74c-8.64-6.93-20.34-8.87-31.4-8.36C75.15,55.74,63.43,58.85,54,65.64,37.18,77.73,30.24,99,24.3,118.87l14.36,7.2c6.16-5.33,15.17-10.6,23.47-5.92a196.73,196.73,0,0,0,31,13.54s-13.84-.12-31,0l-8.31,0,159.45,79.93c52.6.75,92.25-2.1,142.23,0,2.6.11,8.46-13.55,8.48-17.14C364.18,171.15,362.23,145.12,351.59,122.12ZM300.52,129c-17.13.07-31.09.33-31.09.33s16.59-22,31-13.83a197.16,197.16,0,0,0,31,13.54s-13.84-.12-31,0Z" transform="translate(0 -42.07)"/><path class="cls-3" d="M345.19,204.19c0-8.66-5.37-15.68-12-15.68-4.16,0-7.82,2.77-10,7a7.13,7.13,0,0,0-2.29-.37,7.79,7.79,0,0,0-5.37,2.26c-1.93-5.25-6-8.87-10.79-8.87-4.44,0-8.32,3.17-10.39,7.87a7.45,7.45,0,0,0-4.1-1.26c-5.07,0-9.19,5.39-9.19,12a14.79,14.79,0,0,0,1.45,6.48h60.21A19,19,0,0,0,345.19,204.19Z" transform="translate(0 -42.07)"/><polygon class="cls-4" points="400 218.24 30.37 218.24 30.37 217.5 399.63 217.5 400 218.24"/><polygon class="cls-4" points="369.63 172.31 0 172.31 0 171.57 369.26 171.57 369.63 172.31"/><path class="cls-5" d="M156.9,146.19s2.33-17.07,6.21-12.42,0,11.64,0,11.64L160,149.29,156.9,147Z" transform="translate(0 -42.07)"/><path class="cls-1" d="M147.59,151.62s7.76-8.53,9.31-7,6.21,2.33,5.43,5.43-17.07,13.19-17.07,13.19Z" transform="translate(0 -42.07)"/><path class="cls-6" d="M147.59,151.62s7.76-8.53,9.31-7,6.21,2.33,5.43,5.43-17.07,13.19-17.07,13.19Z" transform="translate(0 -42.07)"/><path class="cls-5" d="M103.36,150.85v6.2s-.78,14,3.88,13.2,2.32-12.42,2.32-12.42l-.77-7Z" transform="translate(0 -42.07)"/><path class="cls-5" d="M105.68,195.85s-7,10.87-9.31,11.64-14.74,7.76-16.29,14.75l-10.87,14,5.44,7s24.83-26.39,31.81-28.71,14-14,14-14Z" transform="translate(0 -42.07)"/><path class="cls-5" d="M160.78,178s14.74,2.32,12.42,11.64-24.84,28.71-24.84,28.71l-.77,4.65-8.54,1.55-3.88-3.88.78-2.32s9.31-8.54,10.09-11.64,9.31-15.52,13.19-16.3l-5.43-3.1Z" transform="translate(0 -42.07)"/><path class="cls-4" d="M71.54,236.2s3.11-4.65-1.55-3.88-7.76,1.56-7.76,4.66,3.88,24.83,8.54,23.28.77-8.54.77-8.54,2.33-6.2,3.88-7,1.55-4.66,0-4.66S70.77,237.76,71.54,236.2Z" transform="translate(0 -42.07)"/><path class="cls-4" d="M137.5,219.13s0-3.88-3.1,0-4.66,7-1.56,9.31,14,7.76,14,7.76,11.64,2.33,10.09-3.1c0,0-7.76-3.88-7.76-7s0-8.54-2.33-7S137.5,221.46,137.5,219.13Z" transform="translate(0 -42.07)"/><path class="cls-4" d="M122.76,160.93s-10.87,1.56-10.09,17.08c0,0-14,14-10.09,18.62S115,209.82,118.1,207.49s12.42-20.17,12.42-20.17,21.72,7.76,25.6,3.88S163.88,178,163.88,178l-19.4-10.09Z" transform="translate(0 -42.07)"/><circle class="cls-5" cx="153.02" cy="65.33" r="9.31"/><path class="cls-5" d="M146,108.17s-5.44,8.53-7,9.31S149.92,126,149.92,126s0-10.08,3.88-12.41Z" transform="translate(0 -42.07)"/><path class="cls-1" d="M145.26,116.7s-12.42-3.88-14.74,2.33-7.76,17.85-7,25.61,2.33,6.21,0,8.53-3.88.78-3.1,3.88,1.55,3.11.77,4.66,9.32,7,17.85,7.76l8.54.78s0-14,1.55-17.08,4.66-9.31,4.66-11.64v-6.16a23.47,23.47,0,0,0-3.11-11.68h0S146,116.7,145.26,116.7Z" transform="translate(0 -42.07)"/><path class="cls-1" d="M136,119.81s-28.71,2.32-31.82,10.08-4.65,23.28-1.55,23.28,7,1.56,7.76,0,3.88-17.07,4.66-17.07,24.05-2.33,24.05-2.33S149.14,121.36,136,119.81Z" transform="translate(0 -42.07)"/><path class="cls-4" d="M153.39,105.08s2.48-4.29,5.56-.56,8.12-3.13,7.35-4.59-3.5.07-8.17-1.46S144.47,93.84,143,104s2.08,9.08,2.08,9.08,1.64-9,3.13-6.41l1.48,2.58,1.29.32Z" transform="translate(0 -42.07)"/><circle class="cls-4" cx="241.23" cy="27.89" r="11.36"/><path class="cls-7" d="M237.59,78.37S238.18,89,237,89s7.34,5,7.34,5l5.3-2.94V87.48s-7.06-.88-4.12-8.52S237.59,78.37,237.59,78.37Z" transform="translate(0 -42.07)"/><polygon class="cls-7" points="212.9 152.41 212.02 161.23 214.96 162.11 217.31 159.76 218.19 152.41 212.9 152.41"/><polygon class="cls-7" points="255.23 157.41 256.7 163 260.82 165.64 265.23 163.29 260.23 155.06 255.23 157.41"/><circle class="cls-7" cx="240.39" cy="32.33" r="8.52"/><path class="cls-7" d="M235.24,106.29l-2.06-.88a8.36,8.36,0,0,1-3.82-6.17c-.29-4.12,2.94-9.41,2.94-9.41L237,88.36l5.52,4.5.06,7.26Z" transform="translate(0 -42.07)"/><path class="cls-7" d="M233.18,90.42,232,89.83s-5.88-.29-6.47,6.76-2.64,18.82-2.64,18.82-4.71,8.23-4.41,17.05l-2.35,7.64s-3.24,11.17.58,11.17,3.53-12.05,3.53-12.05,7.06-17,7.64-20,5.59-16.76,4.12-20.58S233.18,90.42,233.18,90.42Z" transform="translate(0 -42.07)"/><path class="cls-7" d="M237.59,108.94v3.23s2.06,2.35,1.18,3.82A25.67,25.67,0,0,0,237,120.4l4.11,6.47,13.82,1.18,2.74-18.41Z" transform="translate(0 -42.07)"/><path class="cls-7" d="M250.53,88.36l2.35-1.17s5-3.53,9.11-4.12l12.64-8.52,8.23-19.7s-.29-10.58,2.06-9.4S287,55.73,287,55.73,282.57,74,278.75,79s-17.64,13.22-17.64,13.22-3.82,4.41-3.53,6.47S250.53,88.36,250.53,88.36Z" transform="translate(0 -42.07)"/><path class="cls-4" d="M239.65,120.4a3.67,3.67,0,0,0-5.29,1.47c-2.06,3.53-5.88,4.41-8.23,15s-7.94,27.34-9.41,28.52-7.64,13.52-4.11,30.86h5.88l5-25s16.17-20,17.35-28.22l5.29,30.86s.29,11.76,4.7,17.35l4.7,11.17,6.18-2.94-7.06-28.22s3.53-28.52,1.18-36.45l-.34-10.41S245.82,124.81,239.65,120.4Z" transform="translate(0 -42.07)"/><path class="cls-4" d="M215,201.83h-3.53c-.59,0-5.29,3.82-3.23,5.88s5.29,5.88,5.29,5.88S225,215,225.25,213s-5-6.46-5-6.46l-1.47-4.7S215.84,198.59,215,201.83Z" transform="translate(0 -42.07)"/><path class="cls-4" d="M261.7,204.77a57.28,57.28,0,0,1-5.88-.59c-.88-.29-2.65,7.64,0,8.23s13.52,1.47,13.52,1.47,8.53-.29,7.94-2.65-12-7-12-7S263.76,201.24,261.7,204.77Z" transform="translate(0 -42.07)"/><path class="cls-1" d="M238.48,88.07,237,87.19l-1.77,1.47s5.29,3.52,4.12,6.76-6.18,10-6.18,10,4.41,5,4.41,6.76c0,0,11.47-4.11,20,0,0,0,0-5.88,1.18-7s1.76-5.29-1.18-8.82A64.33,64.33,0,0,1,252,88.07l-2.94-1.77-1.52.49s3,3.34.05,3.63S240,89.83,238.48,88.07Z" transform="translate(0 -42.07)"/><path class="cls-4" d="M249.53,50.59a6.27,6.27,0,0,1-3.85,2c-2.57.36-.55,4.4-.55,4.4a2.31,2.31,0,0,1,.73-2.75C247.33,53,249.53,52.24,249.53,50.59Z" transform="translate(0 -42.07)"/><circle class="cls-4" cx="244.58" cy="15.79" r="3.17"/><path class="cls-1" d="M248.27,61a22.36,22.36,0,0,0-8.89-2.21L240,56.6a17.41,17.41,0,0,0,8.89,2.21Z" transform="translate(0 -42.07)"/><path class="cls-4" d="M243.22,61.16a18.61,18.61,0,0,1-11.56,6.06C224,68.32,230,80.43,230,80.43s-2.21-4.4,2.2-8.26S243.22,66.12,243.22,61.16Z" transform="translate(0 -42.07)"/><path class="cls-4" d="M243.51,60.87s2.21,7.71,5.51,8.81,1.65,12.66-3.85,13.76c0,0,4.68-6.33,1.92-11.28S242.69,63.35,243.51,60.87Z" transform="translate(0 -42.07)"/><rect class="cls-4" x="275.07" y="5.88" width="20.28" height="2.35"/><ellipse class="cls-4" cx="295.36" cy="7.05" rx="1.76" ry="7.05"/><ellipse class="cls-4" cx="275.07" cy="7.05" rx="1.76" ry="7.05"/><rect class="cls-4" x="285.36" y="164.03" width="20.28" height="2.35"/><ellipse class="cls-4" cx="305.64" cy="165.21" rx="1.76" ry="7.05"/><ellipse class="cls-4" cx="285.36" cy="165.21" rx="1.76" ry="7.05"/><path class="cls-3" d="M71.85,204.19c0-8.66-5.36-15.68-12-15.68-4.16,0-7.82,2.77-10,7a7.07,7.07,0,0,0-2.28-.37,7.78,7.78,0,0,0-5.37,2.26c-1.93-5.25-6-8.87-10.79-8.87-4.45,0-8.32,3.17-10.39,7.87a7.47,7.47,0,0,0-4.1-1.26c-5.08,0-9.19,5.39-9.19,12a14.65,14.65,0,0,0,1.45,6.48H69.44A19,19,0,0,0,71.85,204.19Z" transform="translate(0 -42.07)"/><image width="218" height="226" transform="translate(132 38.93) scale(0.18)" xlink:href="../../../../../../Projects/Web/blend-test/src/images/hybrid-app-logo.png"/><circle class="cls-1" cx="241.5" cy="25.43" r="18.5"/><path class="cls-8" d="M233.11,64.14v7a1.67,1.67,0,0,1-1.66,1.69h0a1.82,1.82,0,0,1-1.84-1.69v-7a1.81,1.81,0,0,1,1.84-1.68A1.69,1.69,0,0,1,233.11,64.14Zm.65,9.56a1.81,1.81,0,0,0,1.8,1.81h1.22l0,3.72a1.68,1.68,0,1,0,3.36,0V75.51h2.27v3.72a1.69,1.69,0,0,0,3.38,0V75.51H247a1.81,1.81,0,0,0,1.8-1.81h0V62.77H233.76Zm15.12-11.52H233.69a6.84,6.84,0,0,1,3.88-6.06L236.41,54c-.17-.3.26-.48.41-.23L238,55.91a8.24,8.24,0,0,1,6.6,0l1.18-2.16a.24.24,0,1,1,.41.23L245,56.12A6.86,6.86,0,0,1,248.88,62.18Zm-10.41-3.39a.64.64,0,0,0-.64-.64.65.65,0,0,0-.61.67.63.63,0,0,0,1.25,0Zm6.92,0a.64.64,0,0,0-1.27,0,.64.64,0,0,0,1.27,0Zm5.77,3.67a1.66,1.66,0,0,0-1.67,1.66h0v7.06a1.67,1.67,0,0,0,1.67,1.69h0A1.82,1.82,0,0,0,253,71.19V64.13a1.81,1.81,0,0,0-1.84-1.67Z" transform="translate(0 -42.07)"/></svg>