<svg id="Layer_1" data-name="Layer 1" xmlns="http://www.w3.org/2000/svg" xmlns:xlink="http://www.w3.org/1999/xlink" viewBox="0 0 337.17 268.71"><defs><style>.cls-1{fill:#e6e6e6;}.cls-2{fill:#3f3d56;}.cls-3{fill:#6c63ff;}.cls-4{fill:#ccc;}.cls-5{fill:#14af10;}</style></defs><title>why-4</title><path class="cls-1" d="M97,284.46a6.78,6.78,0,0,0-4-2.79,19.74,19.74,0,0,0-4.48-.26l-18.93.14a3.1,3.1,0,0,0,0,6.2l16.64-.13c1.3,0,2.61,0,3.92,0l.88,0h.18l.47.11c-.06,0,.1.1.17.13l.08.12a3.72,3.72,0,0,0,.21.39,14.27,14.27,0,0,1,.58,1.82,10.1,10.1,0,0,1,.49,2.93,3.1,3.1,0,0,0,6.2,0C99.25,290.19,98.74,286.91,97,284.46Z" transform="translate(-33.33 -29)"/><path class="cls-1" d="M70.67,291.45c-.36-2.15-.71-4.31-1.07-6.46a9,9,0,0,0-2.82-5.62c-.45-.38-.92-.74-1.4-1.1l-.49-.37,0,0-.07-.06c-.7-.6-1.39-1.23-2-1.89s-1.13-1.21-1.66-1.85l-.39-.49-.22-.28-.23-.31c-.15-.22-.3-.43-.44-.65a29.82,29.82,0,0,1-2.56-4.67l-.21-.49L57,267l-.42-1.18c-.27-.85-.51-1.71-.72-2.59-.09-.43-.18-.86-.26-1.3l-.12-.67s0-.28-.06-.42,0-.38,0-.42l-.06-.68c0-.51-.06-1-.08-1.54,0-.91,0-1.82,0-2.73,0-.52.08-1,.14-1.54v-.08l0-.08c0-.28.08-.56.13-.84a30.8,30.8,0,0,1,.73-3.16c.14-.49.29-1,.45-1.46l.23-.65s.23-.58.23-.6c.93-2.2,2.45-4.2,2.45-6.69a3.2,3.2,0,0,0-3.1-3.23,3.24,3.24,0,0,0-3.1,3.23v.1l0,.14c-.18.39-.4.77-.6,1.15-.54,1.05-1,2.14-1.45,3.24a30.67,30.67,0,0,0-1.65,5.54,35.33,35.33,0,0,0-.19,12.6,32.48,32.48,0,0,0,10.68,19.05c.47.41,1,.81,1.46,1.19l.62.48c.09.07.5.39.32.24a1.91,1.91,0,0,1,.65.73,2,2,0,0,0,.06.23c.07.28.13.55.19.82.48,2.42.81,4.87,1.21,7.3a3.1,3.1,0,0,0,3.81,2.25A3.34,3.34,0,0,0,70.67,291.45Z" transform="translate(-33.33 -29)"/><path class="cls-2" d="M97.3,297.71a4.93,4.93,0,0,1-4.93-4.89v-3.54c-3.7.42-16.38.32-20-.26v3.65a4.93,4.93,0,0,1-9.86,0v-7.18a31.61,31.61,0,0,1,13-59.1c.86-.07,1.72-.1,2.56-.1,3,0,16.39.45,19.76,1.42l7.68-7.61a.78.78,0,0,1,.88-.18.81.81,0,0,1,.5.75v1.21l1.5-1.48a.78.78,0,0,1,.88-.18.81.81,0,0,1,.5.75V234.5a31.54,31.54,0,0,1-7.57,51.89v6.43A4.92,4.92,0,0,1,97.3,297.71Zm-4.54-8.87v4a4.54,4.54,0,0,0,9.08,0v-6.67l.11-.06a31.37,31.37,0,0,0,12.89-11.27,31.06,31.06,0,0,0-5.37-40.09l-.06-.06V221a.4.4,0,0,0-.26-.39.41.41,0,0,0-.46.09l-2.16,2.14v-2.14a.39.39,0,0,0-.26-.39.41.41,0,0,0-.46.09L98,228.15l-.11,0c-3.13-1-16.76-1.45-19.76-1.45-.83,0-1.68,0-2.53.1a31.43,31.43,0,0,0-17.09,6.73,31.09,31.09,0,0,0,4.31,51.71l.1.05v7.41a4.54,4.54,0,0,0,9.08,0v-4.12l.23,0c3.27.62,17,.72,20.34.28Z" transform="translate(-33.33 -29)"/><path class="cls-2" d="M83.46,198a13.55,13.55,0,0,0-13.55,13.14c0,.14,0,.28,0,.42A13.56,13.56,0,1,0,83.46,198Zm0,26.73a13.18,13.18,0,0,1-13.17-13.17c0-.18,0-.36,0-.53a13.17,13.17,0,1,1,13.16,13.7Z" transform="translate(-33.33 -29)"/><path class="cls-1" d="M94.89,211.56a11.43,11.43,0,0,1-22.86,0c0-.36,0-.72,0-1.07a11.43,11.43,0,0,1,22.81,1.07Z" transform="translate(-33.33 -29)"/><path class="cls-3" d="M86.86,212.32a2.74,2.74,0,0,0-1.06-.84,9.54,9.54,0,0,0-1.59-.52v-3.11a4.49,4.49,0,0,1,2.27,1l.63-1.35a4.22,4.22,0,0,0-1.23-.76,6,6,0,0,0-1.57-.4v-1.58H82.85v1.6a4,4,0,0,0-1.6.53A3.22,3.22,0,0,0,80.17,208a2.74,2.74,0,0,0-.39,1.42,2.46,2.46,0,0,0,.45,1.51,2.82,2.82,0,0,0,1.1.87,9.62,9.62,0,0,0,1.62.54v3a4.8,4.8,0,0,1-2.69-1.07l-.63,1.34a4.38,4.38,0,0,0,1.44.82,6.34,6.34,0,0,0,1.78.37v1.57h1.46v-1.6a3.66,3.66,0,0,0,2.17-1,2.59,2.59,0,0,0,.81-2A2.26,2.26,0,0,0,86.86,212.32ZM83,210.63a2.93,2.93,0,0,1-1-.52,1.06,1.06,0,0,1-.35-.81,1.36,1.36,0,0,1,.35-.94,1.82,1.82,0,0,1,1-.5Zm2.18,4.12a1.71,1.71,0,0,1-.92.48v-2.57a2.57,2.57,0,0,1,.92.46.92.92,0,0,1,.32.72,1.32,1.32,0,0,1-.32.91Z" transform="translate(-33.33 -29)"/><path class="cls-2" d="M47.57,248.22A19,19,0,0,1,40,245.36a18,18,0,0,1-3.13-2.57,9.59,9.59,0,0,1-2.3-3.3,4.92,4.92,0,0,1,.07-3.64,4.7,4.7,0,0,1,2.55-2.54,4.82,4.82,0,0,1,3.69,0,3.34,3.34,0,0,1,1.35,1.09,2.14,2.14,0,0,1,.35.73,1.46,1.46,0,0,1,0,.72,1.75,1.75,0,0,1-.93,1.11,4.39,4.39,0,0,1-1.58.48,2.13,2.13,0,0,1-1.79-.3.74.74,0,0,1-.21-.31.55.55,0,0,1,0-.28s0-.09,0-.09h0l0-.07h0a.42.42,0,0,1,.18-.11l.08,0c.07,0-.07,0,0,0h.08c.07,0-.07,0,0,0l.07,0c.06,0,0,0,0,0s0,0,0,0l.07.08a.47.47,0,0,0,.64,0,.48.48,0,0,0,0-.65,1.24,1.24,0,0,0-1.79.06,1.47,1.47,0,0,0,.22,2.06,2.81,2.81,0,0,0,2.35.54,5.76,5.76,0,0,0,2-.57,2.72,2.72,0,0,0,1.36-1.47,2.57,2.57,0,0,0-.2-2.08,4.51,4.51,0,0,0-3.7-2.18,5.66,5.66,0,0,0-6.14,5.28,6.62,6.62,0,0,0,1.35,4.3A16.22,16.22,0,0,0,38,245a19.89,19.89,0,0,0,8.29,3.91l1.09.19a.47.47,0,0,0,.56-.32.47.47,0,0,0-.32-.56Z" transform="translate(-33.33 -29)"/><path class="cls-4" d="M90.84,228.49q-5.94-.09-11.84.3c-1.35.09-2.51.56-2.51,1.36s1.16,1.45,2.51,1.36q5.9-.37,11.84-.3C94.07,231.26,94.07,228.53,90.84,228.49Z" transform="translate(-33.33 -29)"/><path class="cls-2" d="M85,231.08c-.43,0-10.48,0-10.48-1.41s10-1.4,10.48-1.4,10.48,0,10.48,1.4S85.42,231.08,85,231.08ZM74.9,229.67c.28.42,4,1,10.09,1s9.81-.6,10.09-1c-.28-.42-4-1-10.09-1s-9.81.6-10.09,1Z" transform="translate(-33.33 -29)"/><path class="cls-2" d="M116.89,267.58c2.22-.06,5-.14,7.13-1.7a5.47,5.47,0,0,0,2.15-4.08,3.71,3.71,0,0,0-1.25-3,4.78,4.78,0,0,0-4.5-.65l1.82-13.27-1.34-.19-2.13,15.61,1.11-.51c1.29-.59,3.07-.89,4.17,0a2.35,2.35,0,0,1,.77,1.95,4.13,4.13,0,0,1-1.6,3.05c-1.66,1.21-3.87,1.37-6.37,1.44Z" transform="translate(-33.33 -29)"/><rect class="cls-2" x="72.62" y="216.99" width="7.25" height="1.35"/><image width="218" height="226" transform="translate(28.67 210) scale(0.18)" xlink:href="../../../../../../Projects/Web/blend-test/src/images/hybrid-app-logo.png"/><path class="cls-5" d="M233.83,171.3v26a6.16,6.16,0,0,1-6.08,6.21h-.09c-3.43,0-6.76-2.78-6.76-6.21v-26c0-3.39,3.32-6.17,6.76-6.17A6.21,6.21,0,0,1,233.83,171.3Zm2.42,35.19a6.62,6.62,0,0,0,6.6,6.63h4.49l.07,13.7c0,8.27,12.37,8.2,12.37,0v-13.7h8.34v13.7c0,8.23,12.45,8.25,12.45,0v-13.7h4.53a6.61,6.61,0,0,0,6.59-6.63h0V166.26H236.25Zm55.59-42.39H236c0-9.6,5.74-17.93,14.26-22.28L246,133.91c-.62-1.1,1-1.78,1.5-.85l4.35,8a30.25,30.25,0,0,1,24.28,0l4.32-8c.57-1,2.14-.24,1.5.85l-4.26,7.89C286.1,146.17,291.84,154.51,291.84,164.1Zm-38.27-12.45a2.31,2.31,0,1,0-2.35,2.35,2.35,2.35,0,0,0,2.35-2.35Zm25.42,0a2.32,2.32,0,1,0-2.28,2.36,2.34,2.34,0,0,0,2.28-2.35Zm21.25,13.47a6.15,6.15,0,0,0-6.16,6.13v26a6.17,6.17,0,0,0,6.16,6.21h0c3.46,0,6.76-2.77,6.76-6.21v-26c0-3.44-3.33-6.16-6.76-6.16Z" transform="translate(-33.33 -29)"/><path class="cls-1" d="M294.68,253.58a17.49,17.49,0,0,0-10.45-7.24c-3.82-.86-7.75-.71-11.64-.68l-49.16.38c-4.21,0-8.25,3.68-8.05,8.05a8.19,8.19,0,0,0,8.05,8l43.2-.33c3.39,0,6.79-.09,10.19-.08.76,0,1.52,0,2.28,0h.41l.08,0c.39.11.8.18,1.2.29-.14,0,.26.25.46.34l.18.3c.14.25.55,1,.56,1a37,37,0,0,1,1.51,4.72,26.53,26.53,0,0,1,1.27,7.62c.17,4.2,3.58,8.25,8.05,8.05,4.22-.19,8.24-3.55,8.05-8.05C300.57,268.48,299.23,260,294.68,253.58Z" transform="translate(-33.33 -29)"/><path class="cls-1" d="M226.32,271.75c-.93-5.6-1.83-11.2-2.77-16.79s-2.91-10.87-7.32-14.59c-1.18-1-2.41-1.92-3.63-2.85-.44-.32-.87-.65-1.29-1l-.07,0-.18-.16c-1.84-1.55-3.61-3.18-5.31-4.91q-2.25-2.29-4.31-4.8-.52-.63-1-1.26c-.06-.07-.37-.47-.57-.74s-.54-.73-.59-.81c-.4-.55-.78-1.11-1.16-1.67A78.89,78.89,0,0,1,191.47,210l-.54-1.26-.19-.52c-.37-1-.74-2.05-1.08-3.09q-1.09-3.3-1.87-6.71c-.26-1.12-.49-2.25-.7-3.38l-.3-1.75c0-.1-.1-.73-.16-1.08s-.11-1-.12-1.09q-.09-.88-.15-1.77c-.11-1.33-.18-2.66-.21-4-.07-2.36,0-4.73.12-7.1.09-1.33.21-2.66.35-4l0-.21c0-.06,0-.13,0-.21.1-.73.22-1.46.35-2.19a79.32,79.32,0,0,1,1.88-8.21c.36-1.28.76-2.55,1.19-3.8.19-.56.38-1.12.59-1.67,0,0,.59-1.52.6-1.57,2.41-5.7,6.36-10.9,6.36-17.37,0-4.39-3.7-8.59-8.05-8.39a8.37,8.37,0,0,0-8,8.39v.26l-.1.35c-.47,1-1,2-1.57,3-1.41,2.73-2.62,5.55-3.77,8.41a81.19,81.19,0,0,0-4.29,14.41,91.61,91.61,0,0,0-.48,32.73,84.45,84.45,0,0,0,27.72,49.48q1.88,1.59,3.8,3.1l1.61,1.23c.25.19,1.31,1,.84.62a5.21,5.21,0,0,1,1.68,1.9c0,.15.09.34.15.61.18.71.36,1.42.5,2.13,1.24,6.27,2.11,12.64,3.15,18.95.72,4.33,6.05,7.15,9.9,5.85C225.18,280.55,227.08,276.39,226.32,271.75Z" transform="translate(-33.33 -29)"/><path class="cls-2" d="M295.5,288a12.77,12.77,0,0,1-12.8-12.71v-9.18c-9.62,1.08-42.55.83-52-.69v9.51a12.81,12.81,0,0,1-25.61,0V256.26A82.12,82.12,0,0,1,239,102.74c2.23-.18,4.47-.27,6.66-.27,7.73,0,42.58,1.2,51.33,3.71L316.9,86.4a2.08,2.08,0,0,1,2.29-.46,2.05,2.05,0,0,1,1.3,1.94V91l3.88-3.84a2.08,2.08,0,0,1,2.29-.46,2.05,2.05,0,0,1,1.3,1.93v35.16A81.9,81.9,0,0,1,308.3,258.6v16.69A12.77,12.77,0,0,1,295.5,288Zm-11.8-23v10.32a11.8,11.8,0,0,0,23.59,0V258l.29-.14a81.75,81.75,0,0,0,33.48-29.28,80.66,80.66,0,0,0-13.94-104.14l-.17-.15V88.65a1.05,1.05,0,0,0-.67-1,1.09,1.09,0,0,0-1.2.24l-5.6,5.54V87.88a1.06,1.06,0,0,0-.67-1,1.09,1.09,0,0,0-1.2.24l-20.37,20.21-.29-.09c-8.13-2.54-43.53-3.75-51.32-3.75-2.17,0-4.38.09-6.58.26a81.56,81.56,0,0,0-44.4,17.48,80.76,80.76,0,0,0,11.21,134.31l.26.14v19.26a11.8,11.8,0,0,0,23.59,0V264.22l.6.11c8.48,1.59,44.19,1.85,52.83.71Z" transform="translate(-33.33 -29)"/><path class="cls-2" d="M259.55,29a35.24,35.24,0,0,0-35.21,34.14c0,.36,0,.72,0,1.08A35.22,35.22,0,1,0,259.55,29Zm0,69.44a34.26,34.26,0,0,1-34.22-34.22c0-.46,0-.93,0-1.38a34.22,34.22,0,1,1,34.19,35.6Z" transform="translate(-33.33 -29)"/><path class="cls-1" d="M289.24,64.22a29.69,29.69,0,0,1-59.38,0c0-.94,0-1.86.13-2.78a29.69,29.69,0,0,1,59.25,2.78Z" transform="translate(-33.33 -29)"/><path class="cls-3" d="M268.39,66.2A7,7,0,0,0,265.64,64a26,26,0,0,0-4.14-1.36V54.58a11.71,11.71,0,0,1,5.88,2.68l1.65-3.5a10.73,10.73,0,0,0-3.21-2,15.76,15.76,0,0,0-4.06-1V46.65H258v4.13a10.43,10.43,0,0,0-4.16,1.4A8.24,8.24,0,0,0,251,54.94a6.84,6.84,0,0,0-1,3.66,6.26,6.26,0,0,0,1.15,3.93A7.31,7.31,0,0,0,254,64.8a27,27,0,0,0,4.21,1.4v7.74a12.56,12.56,0,0,1-7-2.79l-1.64,3.5a12.27,12.27,0,0,0,3.74,2.12,17.05,17.05,0,0,0,4.64,1V81.8h3.79V77.67a9.94,9.94,0,0,0,5.65-2.59,6.85,6.85,0,0,0,2.1-5.08A6.05,6.05,0,0,0,268.39,66.2Zm-10.16-4.4a7.27,7.27,0,0,1-2.53-1.35,2.7,2.7,0,0,1-.9-2.11,3.37,3.37,0,0,1,.92-2.42,4.62,4.62,0,0,1,2.51-1.3Zm5.66,10.71a4.31,4.31,0,0,1-2.39,1.25V67.09a6.73,6.73,0,0,1,2.39,1.2,2.35,2.35,0,0,1,.82,1.86,3.44,3.44,0,0,1-.82,2.36Z" transform="translate(-33.33 -29)"/><path class="cls-2" d="M166.32,159.46A49.4,49.4,0,0,1,146.63,152a47.69,47.69,0,0,1-8.14-6.65,25.1,25.1,0,0,1-6-8.6,12.78,12.78,0,0,1,.17-9.44,12.27,12.27,0,0,1,6.63-6.61,12.64,12.64,0,0,1,9.59,0,8.59,8.59,0,0,1,3.5,2.82,5.61,5.61,0,0,1,.91,1.89,3.9,3.9,0,0,1,0,1.89,4.56,4.56,0,0,1-2.41,2.88,12,12,0,0,1-4.1,1.25c-1.44.2-3.5.38-4.66-.78a2.24,2.24,0,0,1-.55-.81,1.51,1.51,0,0,1-.09-.73c0,.11.07-.24.07-.23s-.1.18,0,0a1.4,1.4,0,0,1,.12-.18c0,.05-.12.13,0,0a.93.93,0,0,1,.46-.29l.21,0c.18-.05-.18,0,0,0h.21c.18,0-.17-.05,0,0l.2.06c.14,0-.11-.11,0,0s-.12-.12,0,0l.18.2a1.18,1.18,0,0,0,1.67,0,1.22,1.22,0,0,0,0-1.67c-1.16-1.44-3.46-1.08-4.64.14-1.5,1.55-.9,4,.55,5.37,1.66,1.54,4,1.64,6.12,1.39a15,15,0,0,0,5.17-1.47,7.28,7.28,0,0,0,3.54-3.81,6.64,6.64,0,0,0-.54-5.42c-1.87-3.53-5.76-5.34-9.6-5.65a15,15,0,0,0-11,3.6,15.18,15.18,0,0,0-5,10.1,17.25,17.25,0,0,0,3.5,11.18,42.34,42.34,0,0,0,8.44,8.73,51.37,51.37,0,0,0,21.54,10.16c.94.2,1.88.36,2.83.5a1.22,1.22,0,0,0,1.45-.82,1.18,1.18,0,0,0-.82-1.45Z" transform="translate(-33.33 -29)"/><path class="cls-4" d="M278.72,108.19Q263.3,108,248,109c-3.49.23-6.51,1.47-6.51,3.54,0,1.74,3,3.77,6.51,3.54q15.33-1,30.76-.78C287.12,115.39,287.11,108.31,278.72,108.19Z" transform="translate(-33.33 -29)"/><path class="cls-2" d="M263.52,114.92c-1.11,0-27.23,0-27.23-3.65s26.12-3.65,27.23-3.65,27.23,0,27.23,3.65S264.63,114.92,263.52,114.92Zm-26.2-3.65c.71,1.09,10.31,2.64,26.2,2.64s25.49-1.55,26.21-2.64c-.72-1.09-10.32-2.64-26.21-2.64s-25.49,1.55-26.2,2.64Z" transform="translate(-33.33 -29)"/><path class="cls-2" d="M346.38,209.75c5.78-.16,13-.36,18.51-4.41a14.21,14.21,0,0,0,5.6-10.62,9.58,9.58,0,0,0-3.25-7.86c-2.9-2.45-7.13-3-11.68-1.68l4.72-34.49-3.47-.48-5.54,40.55,2.89-1.32c3.35-1.54,8-2.33,10.82.09a6.19,6.19,0,0,1,2,5.07,10.79,10.79,0,0,1-4.17,7.91c-4.31,3.15-10.05,3.56-16.55,3.74Z" transform="translate(-33.33 -29)"/><rect class="cls-2" x="284.63" y="124.66" width="18.84" height="3.5"/></svg>