<svg id="Layer_1" data-name="Layer 1" xmlns="http://www.w3.org/2000/svg" xmlns:xlink="http://www.w3.org/1999/xlink" viewBox="0 0 353.89 268.58"><defs><style>.cls-1,.cls-23{fill:#6c63ff;}.cls-1,.cls-6{opacity:0.1;}.cls-1,.cls-11,.cls-24,.cls-4,.cls-6{isolation:isolate;}.cls-2{fill:#3a3768;}.cls-3{fill:#d48a9b;}.cls-4{opacity:0.05;}.cls-5{fill:#efc6cd;}.cls-7{fill:#fff;}.cls-8{fill:#d3dae1;}.cls-9{fill:url(#linear-gradient);}.cls-10{fill:#585b8a;}.cls-11{opacity:0.2;}.cls-12{fill:#636992;}.cls-13{fill:#ffd6d6;}.cls-14{fill:#dce6f2;}.cls-15{fill:#565988;}.cls-16{fill:#505484;}.cls-17{fill:#575988;}.cls-18{fill:#d28690;}.cls-19{fill:#575989;}.cls-20{fill:#353045;}.cls-21{fill:#f0f3f7;}.cls-22{fill:#663d5c;}.cls-24{opacity:0.3;}.cls-25{opacity:0.15;}.cls-26{fill:#ffd037;}.cls-27{fill:#65617d;}.cls-28{fill:#9d9cb5;}.cls-29{fill:#4b4770;}.cls-30{fill:#d4dfec;}.cls-31{fill:#14af10;}</style><linearGradient id="linear-gradient" x1="239.97" y1="-3.2" x2="239.97" y2="186.58" gradientTransform="matrix(1, 0, 0, -1, -54.11, 266.29)" gradientUnits="userSpaceOnUse"><stop offset="0" stop-color="gray" stop-opacity="0.25"/><stop offset="0.54" stop-color="gray" stop-opacity="0.12"/><stop offset="1" stop-color="gray" stop-opacity="0.1"/></linearGradient></defs><title>why-6</title><path class="cls-1" d="M364.39,95.47c-.06.29-.12.58-.19.87a92.79,92.79,0,0,1-10.76,27.93l-.52.86a80.63,80.63,0,0,1-12.14,15.33,36.9,36.9,0,0,1-8.72,6.69c-4.68,2.45-10.15,3.44-15.52,4.25-5.58.84-11.24,1.55-16.89,2.31q-3,.4-6,.85c-5.45.81-10.86,1.74-16.15,3a93.84,93.84,0,0,0-18.84,6.34q-.72.31-1.41.69l-1.4.71c-.46.24-.92.47-1.37.72l-.69.39-.68.38c-.68.37-1.34.76-2,1.15h0l-1.29.78c-2.45,1.49-4.84,3-7.23,4.6l-1.51,1-2.33,1.51-1.37.88-1,.65c-1.7,1.07-3.42,2.12-5.19,3.12l-1.26.71a71.22,71.22,0,0,1-11.16,5l0,0a48.78,48.78,0,0,1-5.93,1.67c-1.15.26-2.31.46-3.49.62a37.44,37.44,0,0,1-9.46.14c-6.18-.72-12-3.09-18.15-3.89-12.72-1.62-25.08,3.6-37,7.69q-4.41,1.5-8.89,2.82c-2,.59-4,1.14-6,1.68a223.88,223.88,0,0,1-37.5,6.57,105.91,105.91,0,0,1-15.93.36,58.78,58.78,0,0,1-6-.65c-6.71-1-13-3.21-18-7.2A35.18,35.18,0,0,1,43,184a52.19,52.19,0,0,1-4.84-14.44c-.12-.68-.23-1.37-.32-2.06q-.24-1.76-.36-3.54a50.64,50.64,0,0,1,2.23-18.75c2.14-6.78,5.7-13.29,7.27-20.13.06-.29.13-.57.18-.86a28,28,0,0,0,.48-3.14c.8-8.4-2.27-16.58-4.68-24.79-.08-.29-.16-.58-.25-.87-.25-.91-.5-1.82-.74-2.73-2.23-8.68-2.85-18-.86-26.64.06-.28.13-.57.2-.86a39,39,0,0,1,7.34-15,58.14,58.14,0,0,1,13.82-12q3.81-2.5,7.89-4.67,2.92-1.56,6-2.94a117.7,117.7,0,0,1,53.45-10.3c1,.05,2,.1,2.92.17l3,.25c11.89,1.15,23.45,3.94,34.93,7,3.85,1,7.69,2.07,11.53,3.1l5.12,1.35c8.36,2.16,16.85,4.12,25.45,5.58q3,.51,6,.94a171.94,171.94,0,0,0,20.9,1.77q4.08.07,8.17-.07c1.37,0,2.75-.13,4.12-.22,14.22-1,28-4.36,41.71-7.49l6-1.34c2.62-.58,5.24-1.14,7.87-1.65,16.38-3.22,31-1.37,46.21,5.27,3.46,1.51,6.92,3.33,9,6.16s2.65,6.31,3.05,9.66c.56,4.78.93,9.62,1.07,14.48,0,.29,0,.58,0,.87A129.37,129.37,0,0,1,364.39,95.47Z" transform="translate(-15 -18)"/><path class="cls-1" d="M255.75,124.27h-1.07v.86h1.21Zm-12.14,0v0l-.09.71v.13h9.27v0l.65-.81Zm-24.84,0V96.34h10.66l-.35-.23-.15-.1-.21-.12-.35-.2-.3-.17-.07,0h-9.23V93.94l-.25.1-.26.12h0l-.06,0-.16.09-.17.09-.49.28-.15.11-.33.2c-.41.28-.83.58-1.25.85l-.32.2-.71.38a3.27,3.27,0,0,1-.33.14l-.17.07-.17.05h0a9.45,9.45,0,0,1-1.16.31v27.3h-16a.32.32,0,0,0,0,.09c.09.26.17.52.26.78h15.72v29.93H213l.29,0,.5,0,.82.1.37,0,.41,0h.06l.71.08.16,0,.34.05.5.07h0l1.19,0h0l.16,0a1.38,1.38,0,0,1,.2,0V125.13h24.75V125l.09-.71v0Zm37,0h-1.07v.86h1.21Zm-12.8,0-.12.86h10.34l.7-.86Zm-24.18,0V96.34h10.66l-.35-.23-.15-.1-.21-.12-.35-.2-.3-.17-.07,0h-9.23V93.94l-.25.1-.26.12h0l-.06,0-.16.09-.17.09-.49.28-.15.11-.33.2c-.41.28-.83.58-1.25.85l-.32.2-.71.38a3.27,3.27,0,0,1-.33.14l-.17.07-.17.05h0a9.45,9.45,0,0,1-1.16.31v27.3h-16a.32.32,0,0,0,0,.09c.09.26.18.52.26.78h15.72v29.93H213l.29,0,.5,0,.82.1.37,0,.41,0h.06l.71.08.16,0,.34.05.5.07h0l1.19,0h0l.16,0a1.38,1.38,0,0,1,.2,0V125.13h24.1c0-.29.07-.57.11-.86ZM299.65,66.1H366.9c0-.29,0-.57,0-.86H299.65V31.33c-2,.43-4,.88-6,1.34V65.24H220.53l-.18-.16.28-.25h0l27.2-24.45q-4.08.16-8.16.07L218.76,59.23V38.69c-2-.29-4-.6-6-.94V58.29L182.22,30.82c-3.83-1-7.68-2.08-11.52-3.1l41.56,37.36-.18.16H135.77V20.77c-1-.1-2-.18-3.05-.25s-1.95-.12-2.92-.17V65.24H76.34V30.64q-3,1.39-6,3V65.24h-29c-.07.29-.14.57-.2.86H70.36V95.47H42.71c.09.29.17.58.25.87h27.4v27.93H47.16c0,.29-.12.57-.18.86H70.36v78.1c2,.3,4,.51,6,.65V125.13h53.45v71.81q3-.8,6-1.67V125.13h77v62.74a50.65,50.65,0,0,0,5.93-1.67l.05,0V125.13h74.9v29.43c2-.29,4-.57,6-.84V125.13h53.27l.52-.86H299.65V96.34H364.2c.07-.29.13-.58.19-.87H299.65Zm-223.31,0h53.45V95.47H76.34Zm0,58.17V96.34h53.45v27.93ZM135.77,66.1h77V95.47h-77Zm0,58.17V96.34h77v27.93Zm157.9,0h-74.9V96.34h74.9Zm0-28.8h-74.9V66.89l1-.79h73.85Zm-50.06,28.8v0l-.09.71v.13h9.27v0l.65-.81Zm12.14,0h-1.07v.86h1.21Zm-37,0V96.34h10.66l-.35-.23-.15-.1-.21-.12-.35-.2-.3-.17-.07,0h-9.23V93.94l-.25.1-.26.12h0l-.06,0-.16.09-.17.09-.49.28-.15.11-.33.2c-.41.28-.83.58-1.25.85l-.32.2-.71.38a3.27,3.27,0,0,1-.33.14l-.17.07-.17.05h0a9.45,9.45,0,0,1-1.16.31v27.3h-16a.32.32,0,0,0,0,.09c.09.26.17.52.26.78h15.72v29.93H213l.29,0,.5,0,.82.1.37,0,.41,0h.06l.71.08.16,0,.34.05.5.07h0l1.19,0h0l.16,0a1.38,1.38,0,0,1,.2,0V125.13h24.75V125l.09-.71v0Z" transform="translate(-15 -18)"/><path class="cls-1" d="M102,45.88h.46a.93.93,0,0,1-.56-.75h0c0-.6.89-1.08,2-1.08h13.86c1.09,0,2,.48,2,1.08h0c0,.59-.88,1.08-2,1.08h-.47a.94.94,0,0,1,.57.75c0,.51-.65.94-1.51,1h4c1.08,0,2,.49,2,1.09s-.89,1.08-2,1.08H106.49c-1.08,0-2-.49-2-1.08s.64-.94,1.51-1.06h-4c-1.09,0-2-.48-2-1.08S101,45.88,102,45.88Z" transform="translate(-15 -18)"/><path class="cls-1" d="M252.26,56.18h.46a.93.93,0,0,1-.56-.75h0c0-.6.89-1.09,2-1.09H268c1.09,0,2,.49,2,1.09h0c0,.59-.89,1.08-2,1.08h-.46a.93.93,0,0,1,.56.75c0,.51-.65.94-1.51,1.05h4c1.09,0,2,.49,2,1.08s-.89,1.09-2,1.09H256.72c-1.09,0-2-.49-2-1.09s.65-.93,1.51-1h-4c-1.08,0-2-.48-2-1.08S251.18,56.18,252.26,56.18Z" transform="translate(-15 -18)"/><path class="cls-1" d="M80.77,100.25h.46a.94.94,0,0,1-.57-.75h0c0-.6.89-1.09,2-1.09H96.5c1.09,0,2,.49,2,1.09h0c0,.59-.89,1.08-2,1.08H96a.91.91,0,0,1,.56.75c0,.51-.64.94-1.51,1h4c1.09,0,2,.49,2,1.08s-.89,1.09-2,1.09H85.23c-1.09,0-2-.49-2-1.09s.64-.93,1.51-1h-4c-1.09,0-2-.48-2-1.08S79.69,100.25,80.77,100.25Z" transform="translate(-15 -18)"/><ellipse class="cls-1" cx="273.86" cy="201.89" rx="21.06" ry="69.29" transform="translate(6.23 411.78) rotate(-78.45)"/><path class="cls-2" d="M266,142.76s3.69-18.09,17.76-16.42c0,0,9.73.67,11.73,7v14.07Z" transform="translate(-15 -18)"/><polygon class="cls-3" points="328.09 131.46 202.79 121.07 186.71 124.42 187.71 146.87 188.81 147 190.06 180.71 313.01 202.82 326.08 191.76 326.08 155.22 327.76 154.24 328.09 131.46"/><polygon class="cls-4" points="328.26 131.46 327.92 154.24 314.36 160.61 314.19 136.82 328.26 131.46"/><polygon class="cls-4" points="326.08 155.25 326.25 191.1 313.18 202.15 314.02 160.61 326.08 155.25"/><polygon class="cls-4" points="188.98 148.34 314.12 163.62 314.19 160.72 188.88 147.2 188.98 148.34"/><polygon class="cls-4" points="326.08 156.56 326.08 155.25 313.69 160.72 313.69 163.62 326.08 156.56"/><polygon class="cls-5" points="186.54 124.42 202.62 121.07 327.92 131.46 313.85 136.82 186.54 124.42"/><polygon class="cls-6" points="314.58 132.1 320.73 132.51 310.53 135.56 305.35 135.19 314.58 132.1"/><polygon class="cls-7" points="314.58 131.84 320.73 132.24 310.53 135.29 305.35 134.92 314.58 131.84"/><path class="cls-8" d="M328.84,150.53c.24-.11.5.09.76.14s.3,0,.45,0,.6.24.89.14" transform="translate(-15 -18)"/><path class="cls-8" d="M328.52,150.71c.24-.1.5.09.76.14s.3,0,.45,0,.6.24.89.14" transform="translate(-15 -18)"/><path class="cls-8" d="M327.79,151.08c.24-.1.5.09.76.14s.3,0,.45,0c.3,0,.6.24.89.14" transform="translate(-15 -18)"/><polygon class="cls-6" points="288 129.08 294.14 129.48 283.95 132.53 278.76 132.16 288 129.08"/><polygon class="cls-7" points="288 128.81 294.14 129.21 283.95 132.26 278.76 131.89 288 128.81"/><path class="cls-8" d="M302.26,147.5c.24-.1.5.09.76.15s.3,0,.45,0,.6.24.89.14" transform="translate(-15 -18)"/><path class="cls-8" d="M301.94,147.69c.24-.11.5.09.76.14s.3,0,.45,0c.3,0,.6.24.89.14" transform="translate(-15 -18)"/><path class="cls-8" d="M301.21,148.05c.24-.1.5.1.76.15s.3,0,.45,0,.6.24.89.13" transform="translate(-15 -18)"/><polygon class="cls-6" points="300.75 130.59 306.9 130.99 296.71 134.05 291.51 133.67 300.75 130.59"/><polygon class="cls-7" points="300.75 130.33 306.9 130.73 296.71 133.78 291.51 133.4 300.75 130.33"/><path class="cls-8" d="M315,149c.24-.11.5.09.76.14s.3,0,.45,0,.6.25.89.14" transform="translate(-15 -18)"/><path class="cls-8" d="M314.69,149.2c.24-.11.5.09.76.14s.3,0,.45,0c.3,0,.6.24.89.14" transform="translate(-15 -18)"/><path class="cls-8" d="M314,149.57c.24-.11.5.09.76.14s.3,0,.45,0,.6.24.89.14" transform="translate(-15 -18)"/><ellipse class="cls-1" cx="161.53" cy="243.01" rx="65.63" ry="13.51"/><path class="cls-9" d="M248.4,150.37a44,44,0,0,0-3.47-12l.21-2.07s.05-1,0-2.6a11.14,11.14,0,0,1,.38-2.87c.56-1.8-.71-4-.86-4.22s.08-4.15-1.2-6.08-9.78-5.54-9.78-5.54-.46-1-1.11-2.07l.06-.11a12.5,12.5,0,0,0-1.94-2.63c-.53-.55-1-.87-1.43-.72a11.17,11.17,0,0,1-.38-1.64,2.44,2.44,0,0,0,.26.06,2.75,2.75,0,0,0,1.07,0,3.17,3.17,0,0,0,1.75-1.56c2.2-3.34,4.09-7,4.48-11a7,7,0,0,0-.11-2.42,8.59,8.59,0,0,0-.76-1.76A14.18,14.18,0,0,0,233.41,88a12.23,12.23,0,0,0-5.75-3.15,20,20,0,0,0-7.42-.55c-.65.07-1.3.18-2,.22a18.37,18.37,0,0,1-2.46,0l-4.25-.25,0-.06-.7,0a1.8,1.8,0,0,0,.34,1.73,2.94,2.94,0,0,1,.72,1.67,3.38,3.38,0,0,1-.82,1.62,1.55,1.55,0,0,0-.26,1.7,1.54,1.54,0,0,0,.17.19,2.17,2.17,0,0,0,1.56.41h.1a10.54,10.54,0,0,0-2.15,6.39,10.77,10.77,0,0,0,5.86,9.53l.18.64a19.53,19.53,0,0,1,.68,7l-.07.16,0-.17s-5,3.39-6.48,4.29-3,3.94-3,4.77-2.41,13.35-2.41,13.35a30.64,30.64,0,0,0-1.17,3.86l-3,2.62s-6.16.56-7.94.14l0,.35a26.55,26.55,0,0,0-4.78-.65,5,5,0,0,0-2.59.34l-.07,0,0,0a10,10,0,0,0-2.73.76l-.29.13,0-.43L176,144.3l-3.4-.69s-1.21-1-1.92-.83-2.2-.83-2.2-.83a5.85,5.85,0,0,0-1.09-.68l-.19-1.26s-2.65-10.51-4.63-16.69c-1.33-4.13-3.24-6.16-4.37-7-.5-.88-.83-1.44-.83-1.44a6.39,6.39,0,0,0-1.72-2.51c0-.08-.08-.12-.1-.12a.58.58,0,0,0-.19,0,20.6,20.6,0,0,1,0-9.28,10.27,10.27,0,0,0,3.74-7.9v-.27a10.17,10.17,0,0,0-2.41-6.58l-.11-.13.09-.06a1.76,1.76,0,0,0,.61-1.68,11.92,11.92,0,0,0-.88-1.7,10.9,10.9,0,0,1-.36-1.39,4.36,4.36,0,0,0-1-1.78l0,.13a6.14,6.14,0,0,0-5.42-1.82c-1.46.24-2.82.92-4.29,1.13-1.05.15-2.13,0-3.19.16a8.16,8.16,0,0,0-2.82.81,1.64,1.64,0,0,0-.6.44,2.48,2.48,0,0,0-.3.84c-.36,1.31-1.5,2.25-2.33,3.34a7.88,7.88,0,0,0-1.57,4.33,3.39,3.39,0,0,0,.12,1.18c.07.23.18.45.23.68a4.73,4.73,0,0,1-.39,2.13,4.11,4.11,0,0,0,.23,2.7c1.28,2.87,5.48,3.82,6.36,6.83a8.12,8.12,0,0,0,2.1.65q.09.45.15.9a.1.1,0,0,0-.05,0,6.39,6.39,0,0,0-1.42,3.24l-.13.11c-.47.38-2,1.67-3.49,2.65-1.7,1.18-4.53,5.12-6.52,6.3s-3.62,8.43-3.19,11.06,2.2,10,1.49,12.72,1.06,15,1.06,15a18.31,18.31,0,0,1,3.48,1l0,.54-.1,1.62s-3.22,11.62-2,20.56-.57,9.86-.57,9.86.38,4-.56,5.35-1.14,4.43-1.14,4.43-.09,6.82.1,8.75.28,5.44-.38,6.27-1.89,6.27-1.8,7.93-2.36,5.44-1,10.32-3.89,5-3.89,5,.67,7.46,2.08,9.59l.21.3c0,.13-.07.26-.11.4-.53,1.94-1.27,5-.76,5.75.76,1.11,1.14.92,1.14.92l.28,5s5.67,4.8,10,4.62,3.5-4.62,3.5-4.62l-3.71-9.6-.12-.33,4.11-7.78s1.14-3.41,1.42-4.61,1.82-5.45,1.82-5.45,3.89-9.22,4-10.32.38-7.1,1.14-8.3,2.83-8.11,2.83-8.11l.06,0a2.74,2.74,0,0,1,.7,2.72,22,22,0,0,0-.19,5.34,36.49,36.49,0,0,1-.57,4.62c-.38,1.57-.47,14.38.19,17.42a48.82,48.82,0,0,1,.49,8.72c-.44,1.83-.83,4.1-.11,4.37,1.23.47,7.47.37,7.47.37s2.65-.92,6.24,2.31,14.65-.92,14.65-.92,3.41-.93-3.31-3.6c-4.68-1.86-7.7-3.1-9.68-4.43l.13-.27s-2.74-2.6-.47-7.19a20.06,20.06,0,0,0,2.18-8.48l.38-15.5L168,191.08l-.88-21.58.16-.05c.15,4,.92,13.41,5,11.58,5.1-2.31.75-8.3.75-8.3l-2.29-4.47.68-.23-2.56-8.28a18.62,18.62,0,0,1-.1-4.89,19.38,19.38,0,0,0-.06-2.85c3.36-.59,6.58-1.21,7.16-1.07s4.48.2,6,.21a11.6,11.6,0,0,0-.88.76L187,156s2.07-1.13,2.5-2.33a2.81,2.81,0,0,0,1.14-.61c.06,1.42.44,3,1.75,3a2.37,2.37,0,0,0,1-.19l10-2-.85,5.35.59,1.06c-.3,4.51-.65,9.3-1,13.51l-.14.92H202c-.47,6.49-.85,11.4-.85,11.4a5.89,5.89,0,0,1,2.49-2.5l.06,9.62s.5,15.21.5,17.29.07,6.7.07,6.7,1.06,5.67,1.7,7.54,1.13,10.37,1.13,10.37,1.49,2.35.86,3.24,2.48,2.84,2.48,2.84-2,2.69-2.13,4.49c0,.21.19.43.56.65l-.37.28a6.54,6.54,0,0,1-4.3.87c-5.53-.49-9.43,4.63-6,5.67s13.61,1.24,13.61,1.24,3.1-1.93,5.51-1.06c0,2,.07,3.89.09,4.14l0,0a22.52,22.52,0,0,1-6.92,4.44c-3.89,1.31-4.75,6.64.28,7.33s12.41-.83,12.41-.83,3.83-2.84,6.74-3.46,5.39-2,4.89-3.66c-.32-1.06-1.16-3.84-1.72-5.71,0-.11-.07-.22-.1-.32s.18-.4.26-.61c0,0-1.49-7.74-.28-9.68s.56-21.3.56-21.3-2.06-4.9-1-7.88-1.7-7.19-1.7-7.19a131.24,131.24,0,0,1,1.11-13.17c0-.2.07-.39.11-.58a25.6,25.6,0,0,0,3.95-1.53s.71-10.65,1.14-13.07c0-.22.1-.59.17-1.07l.32-1.71h0l.39-1.94h0l1.29-6.63,2.34-3,6-6.16S249.11,156.53,248.4,150.37Zm-93-38,0,0a.64.64,0,0,1,0-.07ZM215,119.89l-.23.51.85-.85-1.16,1.3.39-.82Zm-5.76,11.9-.71,1.9.46-1.36Z" transform="translate(-15 -18)"/><path class="cls-10" d="M190.63,151.18s-.79,5.29,1.59,5.36,4-4.08,4-4.08l-1-3.32Z" transform="translate(-15 -18)"/><path class="cls-11" d="M190.63,151.18s-.79,5.29,1.59,5.36,4-4.08,4-4.08l-1-3.32Z" transform="translate(-15 -18)"/><path class="cls-12" d="M137.27,265.62c-4.24.18-9.77-4.61-9.77-4.61l-.28-5s-.36.18-1.1-.92c-.5-.75.21-3.82.74-5.76.25-.94.46-1.62.46-1.62l9.3,2.49.44,1.18,3.61,9.6S141.5,265.43,137.27,265.62Z" transform="translate(-15 -18)"/><path class="cls-12" d="M180,251.52s-10.78,4.15-14.26.92-6.08-2.3-6.08-2.3-6.08.09-7.28-.37c-.71-.27-.33-2.57.12-4.41.29-1.27.62-2.31.62-2.31s10.59-3.6,12.25-1.39a7.89,7.89,0,0,0,1.77,1.69c1.92,1.39,4.91,2.64,9.66,4.58C183.33,250.6,180,251.52,180,251.52Z" transform="translate(-15 -18)"/><path class="cls-13" d="M170.34,167.31l2.95,5.9s4.24,6-.74,8.29-4.88-13.26-4.88-13.26Z" transform="translate(-15 -18)"/><path class="cls-14" d="M158,116.18s3.23,1.48,5.16,7.65,4.52,16.68,4.52,16.68,1.75,11.88,1.47,14.83a19,19,0,0,0,.09,4.88l2.49,8.29-5,1.75L159.1,141Z" transform="translate(-15 -18)"/><path class="cls-4" d="M158,116.18s3.23,1.48,5.16,7.65,4.52,16.68,4.52,16.68,1.75,11.88,1.47,14.83a19,19,0,0,0,.09,4.88l2.49,8.29-5,1.75L159.1,141Z" transform="translate(-15 -18)"/><path class="cls-6" d="M136.62,250.23l.44,1.18-.54,1c-2.12.92-7.37.19-7.37.19s-1-1.24-2.3-3.27c.25-1,.46-1.62.46-1.62Z" transform="translate(-15 -18)"/><path class="cls-6" d="M167.48,243.78c-2.68,6.09-11.82,3.83-14.36,3.07l-.64-.21s0-.5,0-1.28c.3-1.27.62-2.31.62-2.31s10.59-3.6,12.25-1.39a8.11,8.11,0,0,0,1.77,1.69A3.57,3.57,0,0,0,167.48,243.78Z" transform="translate(-15 -18)"/><path class="cls-15" d="M167,236.05c-2.21,4.6.46,7.18.46,7.18-2.68,6.09-11.82,3.83-14.36,3.07l-.64-.21s.18-6.36-.46-9.4-.56-15.85-.19-17.41a37,37,0,0,0,.55-4.61,22.56,22.56,0,0,1,.19-5.34,2.76,2.76,0,0,0-.69-2.72l0-.05s-2,6.91-2.76,8.11-1,7.18-1.11,8.29-3.87,10.32-3.87,10.32-1.47,4.23-1.75,5.43-1.38,4.61-1.38,4.61l-4.44,8.57c-2.12.92-7.37.18-7.37.18s-1-1.29-2.4-3.41-2-9.57-2-9.57,5.06-.1,3.77-5,1.11-8.66,1-10.32,1.1-7.09,1.75-7.92.55-4.33.36-6.27-.09-8.75-.09-8.75.19-3,1.11-4.42.55-5.35.55-5.35,1.75-.92.55-9.85,1.95-20.55,1.95-20.55l.11-1.62.16-2.62s26.35-1.66,28.47.36a7,7,0,0,1,1.35,1.93,19.16,19.16,0,0,1,1.52,4.91l1.11,27.91,1.1,20.54-.37,15.48A20.64,20.64,0,0,1,167,236.05Z" transform="translate(-15 -18)"/><path class="cls-6" d="M159.21,181l-2.77,59.88-3.32,5.46c-.41-.12-.64-.21-.64-.21s.18-6.36-.46-9.4-.56-15.84-.19-17.41a36.7,36.7,0,0,0,.55-4.6,22.64,22.64,0,0,1,.19-5.35,2.74,2.74,0,0,0-.69-2.71l.05-.33Z" transform="translate(-15 -18)"/><path class="cls-6" d="M129.43,245.26s7.19-2.86,8.29-1.95-8.47,2.3-8.47,2.3Z" transform="translate(-15 -18)"/><path class="cls-6" d="M164.9,237.7c-.27.1-7.27,2.6-6.63,5.25S164.9,237.7,164.9,237.7Z" transform="translate(-15 -18)"/><path class="cls-13" d="M143,101.4s2.35,5.67,1.11,8.57,13.4,7.88,13.4,7.88-4.28-11.06-.13-17.28S143,101.4,143,101.4Z" transform="translate(-15 -18)"/><path class="cls-16" d="M228.77,265.43c-2.83.63-6.56,3.46-6.56,3.46s-7.19,1.52-12.09.83-4.08-6-.28-7.33a22.13,22.13,0,0,0,6.75-4.43c.62-.57,1-1,1-1l13.75-2.77s.22.77.54,1.83l1.67,5.7C234,263.43,231.61,264.81,228.77,265.43Z" transform="translate(-15 -18)"/><path class="cls-16" d="M225.25,254.79s-5.81.62-8.22-.76-5.88.83-5.88.83-10-.21-13.26-1.24.48-6.16,5.87-5.67a6.16,6.16,0,0,0,4.19-.87,4.43,4.43,0,0,0,1.83-2.73l11.66.69,1.63,4.13Z" transform="translate(-15 -18)"/><path class="cls-6" d="M223.24,251.06s-13.56-2.22-15.29-4a4.43,4.43,0,0,0,1.83-2.73l11.66.69,1.63,4.13Z" transform="translate(-15 -18)"/><path class="cls-17" d="M203.14,173.47l.14,20.24s.48,15.2.48,17.28.07,6.7.07,6.7,1,5.66,1.66,7.53,1.1,10.37,1.1,10.37,1.45,2.35.83,3.24,2.42,2.84,2.42,2.84-1.94,2.69-2.07,4.49,15.47,4.35,15.47,4.35l-6.07-62.33-4.84-15.61Z" transform="translate(-15 -18)"/><path class="cls-6" d="M203.14,173.47l.14,20.24s.48,15.2.48,17.28.07,6.7.07,6.7,1,5.66,1.66,7.53,1.1,10.37,1.1,10.37,1.45,2.35.83,3.24,2.42,2.84,2.42,2.84-1.94,2.69-2.07,4.49,15.47,4.35,15.47,4.35l-6.07-62.33-4.84-15.61Z" transform="translate(-15 -18)"/><path class="cls-6" d="M231.87,256.07c-4.52,10.76-15.26,2.46-15.26,2.46s0-.21,0-.57c.62-.57,1-1,1-1l13.75-2.77S231.55,255,231.87,256.07Z" transform="translate(-15 -18)"/><path class="cls-17" d="M232,255.14c-4.42,11.34-15.41,2.83-15.41,2.83s-.35-5.87.35-8.57-.76-10.78-.76-10.78-.83-7.18-1.59-8.84-.69-5-.69-5.25a10.09,10.09,0,0,0-.35-4,27.1,27.1,0,0,1-1-5.25,55.63,55.63,0,0,0-.62-8.36l-2.15-10.7L206,174.31l1.21-.21,21.67-3.8s4.07,20.74,2.69,22.87a9,9,0,0,0-.78,2.8c-.79,4.71-1.09,13.16-1.09,13.16s2.7,4.22,1.66,7.19,1,7.88,1,7.88.62,19.34-.56,21.28S232,255.14,232,255.14Z" transform="translate(-15 -18)"/><path class="cls-18" d="M230,113.7s-19.63,13.82-15.21,6.9c2.39-3.72,1.95-8.46,1-12a29.08,29.08,0,0,0-1.95-5.28s16.68-7.1,14.46-.74a12.07,12.07,0,0,0-.64,4.62A12.24,12.24,0,0,0,230,113.7Z" transform="translate(-15 -18)"/><path class="cls-18" d="M194.62,145.34s-8.3-2.39-9.68,0,.42,7.51,2.92,8.34,8.25-2.82,8.25-2.82Z" transform="translate(-15 -18)"/><path class="cls-10" d="M204.11,141.27l-3.46,3.18s-6,.55-7.74.14c0,0,1.59,10.64-.69,11.95l14-2.83Z" transform="translate(-15 -18)"/><path class="cls-6" d="M204.11,141.27l-3.46,3.18s-6,.55-7.74.14c0,0,1.59,10.64-.69,11.95l14-2.83Z" transform="translate(-15 -18)"/><path class="cls-6" d="M159.74,95.59A10.37,10.37,0,0,1,149.37,106c-5.32-2.56-10.37-4.64-10.37-10.38a10.37,10.37,0,0,1,20.73-.82c0,.28,0,.55,0,.82Z" transform="translate(-15 -18)"/><path class="cls-13" d="M159.74,95.32a10.34,10.34,0,1,1-2.34-6.56A10.34,10.34,0,0,1,159.74,95.32Z" transform="translate(-15 -18)"/><path class="cls-6" d="M165.79,158.74a24.43,24.43,0,0,1-3.21,1.67s-5.25-.77-6,.13-7.46,1.25-7.46,1.25-10.23-.49-11.75-1.8a6.22,6.22,0,0,0-1.55-.92l.17-2.62s26.35-1.66,28.47.36A7.18,7.18,0,0,1,165.79,158.74Z" transform="translate(-15 -18)"/><path class="cls-14" d="M167.07,156.88c-.21,1.18-4.49,3-4.49,3s-5.25-.76-6,.14-7.46,1.25-7.46,1.25-10.23-.49-11.75-1.8-4.9-1.95-4.9-1.95-1.73-12.3-1-15-1-10.09-1.45-12.72,1.17-9.88,3.11-11,4.7-5.11,6.36-6.29c1.39-1,2.94-2.27,3.39-2.65l.13-.11a6.57,6.57,0,0,1,1.38-3.24c1.11-1.1,11.26,7,11.26,7s.08.62.77-.56c.15-.26,1.49,1.67,1.72,2.49,0,0,5.53,9.68,5.88,11.67s1.79,8.5,2.07,10.09c.07.41.19,1.84.32,3.76,0,.37,0,.77.08,1.19.2,3.18.43,7.24.56,10.32,0,.35,0,.68,0,1A33.86,33.86,0,0,1,167.07,156.88Z" transform="translate(-15 -18)"/><path class="cls-6" d="M132,131.94s3.8,4.63,5,4.63S132,131.94,132,131.94Z" transform="translate(-15 -18)"/><path class="cls-6" d="M140,141.89s-6.22,6.77-5.39,8S140,141.89,140,141.89Z" transform="translate(-15 -18)"/><path class="cls-6" d="M135.42,155.36s7.13-7.81,7.46-10.5Z" transform="translate(-15 -18)"/><path class="cls-6" d="M144.41,155.91s8.22-4.35,8.91-7.8S144.41,155.91,144.41,155.91Z" transform="translate(-15 -18)"/><path class="cls-6" d="M154.84,113.9l-1.14,2.77,1.9.89,1.86,5.22s5.15,10.3,4.94,15.65a95.73,95.73,0,0,0,.94,13.41l3-.55-1.4-15.76a22.75,22.75,0,0,0-1.81-7.06C160.73,123,156.31,113,156,113s-.11.14-.11.14Z" transform="translate(-15 -18)"/><path class="cls-19" d="M155.11,113.63,154,116.39l1.91.9,1.86,5.22s5.15,10.29,4.94,15.65a94.68,94.68,0,0,0,.93,13.4l3-.55-1.41-15.75a22.45,22.45,0,0,0-1.8-7.07c-2.38-5.44-6.79-15.46-7.07-15.46s-.11.14-.11.14Z" transform="translate(-15 -18)"/><path class="cls-13" d="M188.76,154.23c-1.44-.11-4.91-1.86-6.29-2.59l-.58-.32L182,146a9.59,9.59,0,0,1,1.06-.54c1.84-.8,5.61-1.9,7.51,1.62C193.08,151.77,190.6,154.36,188.76,154.23Z" transform="translate(-15 -18)"/><path class="cls-6" d="M157.4,88.76a1.63,1.63,0,0,1-.49.2c-1.2.26-2.57-.78-3.6-.11a2.62,2.62,0,0,0-.86,2c-.14,1.29-.29,2.58-.44,3.86a4.57,4.57,0,0,1-.28,1.33,3.34,3.34,0,0,1-3.18,1.7,1.91,1.91,0,0,1-1.37-.46c-.23-.22-.35-.54-.59-.75-1.62-1.36-2.12,2-1.69,2.92.69,1.54,3.13,3,2.1,5a1.81,1.81,0,0,1-.75.75A10.37,10.37,0,1,1,157.4,88.76Z" transform="translate(-15 -18)"/><path class="cls-20" d="M146.31,96.52a8.86,8.86,0,0,1,.59.75,1.9,1.9,0,0,0,1.37.45,3.31,3.31,0,0,0,3.18-1.7,4.59,4.59,0,0,0,.29-1.32l.44-3.87a2.6,2.6,0,0,1,.86-2c1-.65,2.4.37,3.6.11a1.75,1.75,0,0,0,1.29-2,10.79,10.79,0,0,0-.85-1.7,9.3,9.3,0,0,1-.35-1.38c-.68-2.52-3.63-3.93-6.2-3.51-1.42.24-2.75.92-4.18,1.12-1,.15-2.07.06-3.1.17a7.85,7.85,0,0,0-2.76.81,1.66,1.66,0,0,0-.58.44,2.29,2.29,0,0,0-.29.83c-.35,1.3-1.46,2.25-2.27,3.35a8,8,0,0,0-1.54,4.31,3.59,3.59,0,0,0,.11,1.18c.07.23.18.45.23.68a4.86,4.86,0,0,1-.38,2.13A4.24,4.24,0,0,0,136,98c1.25,2.87,5.35,3.82,6.2,6.83a7,7,0,0,0,2.41.65,2.35,2.35,0,0,0,2.13-1.09c1-1.94-1.42-3.46-2.1-5C144.19,98.48,144.68,95.16,146.31,96.52Z" transform="translate(-15 -18)"/><path class="cls-6" d="M228.29,102.55a11.88,11.88,0,0,0-.65,4.62c-.5.42-1-.85-1.62-.52-1.58.91-3.41,3.09-5.37,3.09a10.76,10.76,0,0,1-4.88-1.17,27.66,27.66,0,0,0-2-5.28S230.5,96.19,228.29,102.55Z" transform="translate(-15 -18)"/><path class="cls-18" d="M231.42,98.4a10.78,10.78,0,1,1-10.78-10.78A10.78,10.78,0,0,1,231.42,98.4Z" transform="translate(-15 -18)"/><path class="cls-21" d="M231,116.09s-2,2.21-2.3,2.39-6.16,25-6.27,25.25-7,22.66-7,22.66l-11.06,5.44.93-27.36,8.1-22.57s2.67-3,3.5-4.15S228,110,228,110l1.76,3.64Z" transform="translate(-15 -18)"/><path class="cls-6" d="M229.5,114.2l-12.71,9.1-.21-5c.83-1.1,11.15-7.73,11.15-7.73Z" transform="translate(-15 -18)"/><path class="cls-21" d="M229.78,113.65l-12.72,9.1-.2-5C217.69,116.64,228,110,228,110Z" transform="translate(-15 -18)"/><path class="cls-10" d="M216.44,115.53l.42,2.22L214,120.64l2.27-5.08s-4.86,3.39-6.32,4.29-2.92,3.93-3,4.76S204.65,138,204.65,138s-1.73,4.63-1.24,5.94-2.63,42.7-2.63,42.7a6.17,6.17,0,0,1,4.16-3.18L203.83,159s1.35-16.27,1.41-16.48l3.15-9.64Z" transform="translate(-15 -18)"/><path class="cls-6" d="M217.14,118l-.22,4.54s-3.07,9.7-4.11,11.29-4.18,11.06-4.18,11.06l-1.77,16.45-3,1.38-1.5-2.76,2.49-15.88s4.7-13.4,5.39-14.79l3.47-7.3Z" transform="translate(-15 -18)"/><path class="cls-22" d="M216.86,117.75l-.21,4.54s-3.08,9.71-4.12,11.3-4.17,11-4.17,11l-1.77,16.45-3,1.38L202,159.71l2.49-15.89s4.7-13.4,5.39-14.78l3.49-7.29Z" transform="translate(-15 -18)"/><path class="cls-18" d="M181,152.39,187,156.5s4.19-2.35,1.75-3.87a10.83,10.83,0,0,0-5.39-1.75C182.54,150.88,181,152.39,181,152.39Z" transform="translate(-15 -18)"/><path class="cls-18" d="M185.46,144.79a.9.9,0,0,0-.43.78c0,1.26.15,4.6,1.2,3.09,1.3-1.84,1.06-3.5,3-2.31a11.81,11.81,0,0,1,3.18,2.92l-.55-4S187.83,143.3,185.46,144.79Z" transform="translate(-15 -18)"/><path class="cls-6" d="M231.54,193.16a8.63,8.63,0,0,0-.78,2.8,23.39,23.39,0,0,1-21-4.05,104.39,104.39,0,0,1-2.63-11,35.76,35.76,0,0,1,0-6.77l21.66-3.8S232.92,191,231.54,193.16Z" transform="translate(-15 -18)"/><path class="cls-10" d="M244,131.31a21.48,21.48,0,0,0-.34,5.46l-5,23.5s-2.41,18.1-2.83,20.52-1.1,13.06-1.1,13.06a23.4,23.4,0,0,1-25-2.49,104.39,104.39,0,0,1-2.63-11.05c-.69-4.11,1.35-20.55,2.31-27.85.29-2.16.49-3.52.49-3.52l3.63-13.48s4.45-11.37,6.11-14.68S228,110,228,110c.82-.52,2.14,1.33,3.13,3,.74,1.28,1.29,2.46,1.29,2.46s8.3,3.59,9.54,5.51,1,5.88,1.17,6.08S244.53,129.52,244,131.31Z" transform="translate(-15 -18)"/><path class="cls-6" d="M224.42,123s.62,3.67-1,4.77-13,23.61-13.72,25c.29-2.17.49-3.53.49-3.53l3.62-13.47s4.46-11.37,6.12-14.69,8.33-10.76,8.33-10.76c.82-.53,2.14,1.33,3.13,3C229.93,116.38,226.84,122.2,224.42,123Z" transform="translate(-15 -18)"/><path class="cls-10" d="M224.14,122.68s.62,3.66-1,4.77-13,23.6-13.72,25c.29-2.16.48-3.52.48-3.52l3.63-13.48s4.46-11.37,6.12-14.68S228,110,228,110c.83-.52,2.15,1.33,3.13,3C229.66,116.1,226.57,121.92,224.14,122.68Z" transform="translate(-15 -18)"/><polygon class="cls-23" points="225.59 137.78 221.69 158.07 221.69 158.07 221.32 160.01 221.32 160.01 220.48 164.38 216.9 163.62 215.23 163.27 192.12 158.37 190.43 158.01 186.55 157.19 187.31 152.16 187.62 150.06 190.42 131.49 225.59 137.78"/><path class="cls-18" d="M219,172.36s-9.19,3.32-7.19,7.26,14.86-3.05,14.86-3.05Z" transform="translate(-15 -18)"/><path class="cls-6" d="M225.59,200.62c0,.28.35,3.8,1.73,5S225.59,200.62,225.59,200.62Z" transform="translate(-15 -18)"/><path class="cls-6" d="M216.34,213.13s1.65,4.56,8.22,6.42S216.34,213.13,216.34,213.13Z" transform="translate(-15 -18)"/><path class="cls-6" d="M231.42,98.4a10.79,10.79,0,0,1-5.4,9.35,5.87,5.87,0,0,1-1.62-1.35,2.1,2.1,0,0,1-.56-2c.23-.55.83-.9,1-1.46a2.2,2.2,0,0,0-.06-1c-.12-.53-.23-1.07-.35-1.6s-.27-1-.73-1.1-.82.27-1.18.55a3.7,3.7,0,0,1-3.56.58c-1-.56-.75-2.43-.92-3.45a.61.61,0,0,0-.23-.46.93.93,0,0,0-.47,0,1.35,1.35,0,0,1-1.17-1,9.39,9.39,0,0,1-.19-1.67,1.85,1.85,0,0,0-.74-1.44A2.28,2.28,0,0,0,214,92l-2,0a10.78,10.78,0,0,1,19.45,6.39Z" transform="translate(-15 -18)"/><path class="cls-22" d="M222.79,99.71c.36-.28.75-.65,1.18-.54s.63.64.73,1.09l.35,1.6a2.19,2.19,0,0,1,0,1c-.16.57-.76.91-1,1.46a2.08,2.08,0,0,0,.56,2,5.86,5.86,0,0,0,3.33,2,2.43,2.43,0,0,0,1,0,3.08,3.08,0,0,0,1.71-1.55c2.15-3.34,4-7,4.37-11A7.23,7.23,0,0,0,235,93.5a8.6,8.6,0,0,0-.74-1.77,13.8,13.8,0,0,0-2.09-3.15,11.74,11.74,0,0,0-5.6-3.14,18.76,18.76,0,0,0-7.23-.57c-.65.07-1.27.18-1.91.22a17.48,17.48,0,0,1-2.4,0l-4.78-.28a1.85,1.85,0,0,0,.33,1.73,3.12,3.12,0,0,1,.7,1.67,3.44,3.44,0,0,1-.8,1.62,1.61,1.61,0,0,0-.26,1.7,1.85,1.85,0,0,0,1.62.53l2.41,0a2.33,2.33,0,0,1,1.22.21,1.91,1.91,0,0,1,.75,1.45,9.38,9.38,0,0,0,.18,1.67,1.38,1.38,0,0,0,1.18,1,.84.84,0,0,1,.47,0,.58.58,0,0,1,.22.46c.17,1-.14,2.88.92,3.45A3.75,3.75,0,0,0,222.79,99.71Z" transform="translate(-15 -18)"/><path class="cls-6" d="M236.49,121a5.27,5.27,0,0,0-5.55,3.55c-1.3,3.69-3.46,10.35-2.92,13,.76,3.74,1.66,10,1.66,10s3.94,2.27,1.94,4.55a12.9,12.9,0,0,0-2.55,5.53A5.76,5.76,0,0,0,226,161c-.55,2.35-4.29,5.59-4.29,5.59l-5.59,5.6s9.25,9.4,11.12,9.88l5.74-6.7,6.77-9,5.87-6.16s1.38-3.24.69-9.4a45,45,0,0,0-3.39-12l.21-2.07S243.73,121.9,236.49,121Z" transform="translate(-15 -18)"/><path class="cls-10" d="M237.05,121a5.29,5.29,0,0,0-5.56,3.55c-1.29,3.69-3.46,10.35-2.91,13,.75,3.74,1.65,10,1.65,10s3.94,2.27,2,4.55a12.85,12.85,0,0,0-2.56,5.53,5.79,5.79,0,0,0-3.11,3.46c-.55,2.35-4.28,5.59-4.28,5.59l-5.6,5.6s9.26,9.4,11.13,9.88l5.73-6.7,6.76-9,5.87-6.16s1.38-3.24.69-9.4a45,45,0,0,0-3.39-12l.21-2.07S244.28,121.9,237.05,121Z" transform="translate(-15 -18)"/><path class="cls-6" d="M231.26,142s5.87,7.18,8.36,5.59S231.26,142,231.26,142Z" transform="translate(-15 -18)"/><path class="cls-6" d="M233.47,136.5c.62.21,5.74,7.32,8.36,6.48S233.47,136.5,233.47,136.5Z" transform="translate(-15 -18)"/><path class="cls-6" d="M234.92,148.72a3.85,3.85,0,0,0,4.56,3.53C243.7,151.69,234.92,148.72,234.92,148.72Z" transform="translate(-15 -18)"/><polygon class="cls-6" points="201.3 97.84 199.02 102.92 201.87 100.03 201.3 97.84"/><polygon class="cls-21" points="201.3 97.56 199.02 102.64 201.87 99.75 201.3 97.56"/><polygon class="cls-24" points="192.12 158.37 190.43 158.01 187.31 152.16 187.62 150.06 192.12 158.37"/><polygon class="cls-24" points="221.69 158.07 221.32 160.01 221.32 160.01 216.9 163.62 215.23 163.27 221.69 158.07"/><path class="cls-6" d="M167,153.4c-.86.14-1.69.27-2.45.37-4.21.56-14.23-4.42-14.23-4.42s-12.23-10.23-15.76-19.9,4.22-11.12,4.22-11.12c2.91-1.66,9.26,3,10.16,3.73a5.75,5.75,0,0,1,1.58,3.94c-.07,1.24,2.08,2.83,2.08,2.83s3.66,6.35,4.56,7a3.61,3.61,0,0,1,1.38,2.48c.28,1.18,2.69,2.15,3.73,2.08s2.27.34,2.27.89,1,.67,1.85.74C166.66,145.61,166.91,150.25,167,153.4Z" transform="translate(-15 -18)"/><path class="cls-6" d="M167,152.39l-1.86.28c-4.21.55-14.23-4.43-14.23-4.43S138.67,138,135.15,128.35s4.21-11.13,4.21-11.13c2.92-1.66,9.26,3,10.16,3.73a5.82,5.82,0,0,1,1.59,3.94c-.07,1.24,2.07,2.83,2.07,2.83s3.66,6.36,4.56,7.05a3.57,3.57,0,0,1,1.38,2.49c.28,1.18,2.7,2.14,3.74,2.07s2.26.35,2.26.9c0,.32.58.54,1.22.65,0,.37,0,.77.08,1.19C166.63,145.25,166.86,149.32,167,152.39Z" transform="translate(-15 -18)"/><path class="cls-6" d="M183,145.43l-.27,6.21h-.28l-.58-.32L182,146A9.59,9.59,0,0,1,183,145.43Z" transform="translate(-15 -18)"/><path class="cls-14" d="M138.81,117.77s-7.74,1.45-4.22,11.13,15.76,19.9,15.76,19.9,10,5,14.23,4.42,10.64-2,11.47-1.8,6.43.21,6.43.21l.27-6.48-6.48-.35-3.31-.69s-1.18-1-1.87-.83-2.14-.83-2.14-.83a4.13,4.13,0,0,0-1.95-.9c-.83,0-2.41-.2-2.41-.75s-1.25-1-2.27-.9-3.47-.9-3.76-2.09a3.59,3.59,0,0,0-1.38-2.49c-.9-.69-4.56-7-4.56-7s-2.14-1.58-2.08-2.83A5.81,5.81,0,0,0,149,121.5C148.06,120.74,141.71,116.12,138.81,117.77Z" transform="translate(-15 -18)"/><path class="cls-6" d="M158.71,140s-3,3-2.21,3.52Z" transform="translate(-15 -18)"/><path class="cls-6" d="M161.89,142.37s-3.87,3-2.84,3.18S161.89,142.37,161.89,142.37Z" transform="translate(-15 -18)"/><path class="cls-6" d="M155.32,146.78c.55.28,8.77,5.19,11.89,5.11Z" transform="translate(-15 -18)"/><path class="cls-6" d="M155.88,114s-1.46,4.77-2,4.77-7.73-5.9-10.77-8.39l.13-.11a6.57,6.57,0,0,1,1.38-3.24C145.72,105.9,155.88,114,155.88,114Z" transform="translate(-15 -18)"/><path class="cls-14" d="M155.6,113.42s-1.45,4.77-2,4.77-7.73-5.91-10.77-8.39l.13-.11a6.53,6.53,0,0,1,1.39-3.24C145.44,105.35,155.6,113.42,155.6,113.42Z" transform="translate(-15 -18)"/><g class="cls-25"><path d="M136,98h0c1,2.22,3.65,3.3,5.2,5.07C140.31,100.9,137.61,99.83,136,98Z" transform="translate(-15 -18)"/><path d="M145.94,103.12a2.32,2.32,0,0,1-2.13,1.09,6.25,6.25,0,0,1-2.13-.54,4.05,4.05,0,0,1,.55,1.17,7,7,0,0,0,2.41.65,2.31,2.31,0,0,0,2.13-1.09c.62-1.18,0-2.19-.78-3.15A2.09,2.09,0,0,1,145.94,103.12Z" transform="translate(-15 -18)"/><path d="M158,86.88a11.79,11.79,0,0,0-.86-1.7,9.43,9.43,0,0,1-.35-1.39,4.43,4.43,0,0,0-1-1.78,4.75,4.75,0,0,1,.17.49,11.51,11.51,0,0,0,.36,1.4,11.19,11.19,0,0,1,.86,1.69,1.76,1.76,0,0,1-1.3,2c-1.2.27-2.57-.77-3.6-.1a2.57,2.57,0,0,0-.86,2c-.14,1.3-.29,2.59-.44,3.87a4.73,4.73,0,0,1-.29,1.33,3.31,3.31,0,0,1-3.18,1.69,1.89,1.89,0,0,1-1.36-.45q-.28-.39-.6-.75c-1.62-1.36-2.11,2-1.68,2.92a6.15,6.15,0,0,0,.79,1.19c-.36-1.07.14-4.15,1.72-2.83a7.21,7.21,0,0,1,.59.75,2,2,0,0,0,1.37.45A3.33,3.33,0,0,0,151.49,96a4.72,4.72,0,0,0,.29-1.34c.15-1.29.29-2.58.44-3.86a2.59,2.59,0,0,1,.86-2c1-.66,2.4.37,3.6.11A1.77,1.77,0,0,0,158,86.88Z" transform="translate(-15 -18)"/></g><path class="cls-6" d="M229.73,107.58a2.43,2.43,0,0,1-1,0,5.9,5.9,0,0,1-3.33-2,2.08,2.08,0,0,1-.55-2c.22-.55.82-.89,1-1.46a2.08,2.08,0,0,0-.06-1l-.35-1.6c-.1-.45-.27-1-.72-1.09s-.83.26-1.18.54a3.69,3.69,0,0,1-3.57.58c-1-.56-.75-2.43-.92-3.45a.56.56,0,0,0-.22-.45,1,1,0,0,0-.48,0,1.36,1.36,0,0,1-1.17-1,9.38,9.38,0,0,1-.18-1.67,1.91,1.91,0,0,0-.75-1.44,2.34,2.34,0,0,0-1.22-.21l-2.41,0c-.59,0-1.3,0-1.62-.54a1.62,1.62,0,0,1,.26-1.69,3.35,3.35,0,0,0,.8-1.62,3.06,3.06,0,0,0-.7-1.67,3,3,0,0,1-.41-.93l-.69,0a1.87,1.87,0,0,0,.32,1.73,3,3,0,0,1,.7,1.67,3.48,3.48,0,0,1-.8,1.62,1.57,1.57,0,0,0-.25,1.69c.33.51,1,.54,1.62.54l2.4,0a2.36,2.36,0,0,1,1.23.21,1.87,1.87,0,0,1,.74,1.44,9.29,9.29,0,0,0,.19,1.67,1.34,1.34,0,0,0,1.18,1,1,1,0,0,1,.47,0,.61.61,0,0,1,.22.45c.17,1-.14,2.89.92,3.46a3.71,3.71,0,0,0,3.57-.59c.35-.28.74-.65,1.18-.55s.62.65.72,1.1l.36,1.6a2.19,2.19,0,0,1,0,1c-.17.57-.76.91-1,1.46a2.1,2.1,0,0,0,.55,2,5.89,5.89,0,0,0,3.36,2,2.43,2.43,0,0,0,1,0,2.46,2.46,0,0,0,1.35-1A1.83,1.83,0,0,1,229.73,107.58Z" transform="translate(-15 -18)"/><ellipse class="cls-1" cx="66.03" cy="231.54" rx="7.83" ry="1.2"/><ellipse class="cls-1" cx="339.58" cy="200.27" rx="7.83" ry="1.2"/><ellipse class="cls-1" cx="259.7" cy="248.73" rx="22.69" ry="3.48"/><ellipse class="cls-1" cx="324.21" cy="233.98" rx="17.7" ry="2.72"/><ellipse class="cls-1" cx="321.29" cy="261.05" rx="30.01" ry="4.61"/><ellipse class="cls-1" cx="32.49" cy="265.1" rx="22.69" ry="3.48"/><path class="cls-23" d="M81.38,211.24s.89,1.16-.41,2.91-2.36,3.24-1.94,4.33c0,0,1.94-3.24,3.56-3.3S83.14,213.19,81.38,211.24Z" transform="translate(-15 -18)"/><path class="cls-6" d="M81.38,211.24a1.22,1.22,0,0,1,.18.36c1.56,1.83,2.39,3.53.89,3.56s-3.06,2.53-3.46,3.16a.58.58,0,0,0,.05.14s1.94-3.24,3.56-3.3S83.14,213.19,81.38,211.24Z" transform="translate(-15 -18)"/><path class="cls-26" d="M83,212.71c0,.41,0,.74-.1.74s-.1-.32-.1-.74.06-.21.11-.21S83,212.31,83,212.71Z" transform="translate(-15 -18)"/><path class="cls-26" d="M83.6,213.2c-.36.2-.67.33-.7.27s.24-.25.6-.45.22-.05.24,0S84,213,83.6,213.2Z" transform="translate(-15 -18)"/><path class="cls-23" d="M76.69,211.24s-.88,1.16.41,2.91,2.37,3.24,2,4.33c0,0-2-3.24-3.55-3.3S74.93,213.19,76.69,211.24Z" transform="translate(-15 -18)"/><path class="cls-6" d="M76.69,211.24a2,2,0,0,0-.18.36c-1.55,1.83-2.38,3.53-.89,3.56s3.06,2.53,3.47,3.16c0,.05,0,.1,0,.14s-2-3.24-3.55-3.3S74.93,213.19,76.69,211.24Z" transform="translate(-15 -18)"/><path class="cls-26" d="M75,212.71c0,.41,0,.74.11.74s.1-.32.1-.74-.06-.21-.11-.21S75,212.31,75,212.71Z" transform="translate(-15 -18)"/><path class="cls-26" d="M74.48,213.2c.36.2.67.33.7.27s-.25-.25-.61-.45-.21-.05-.24,0S74.12,213,74.48,213.2Z" transform="translate(-15 -18)"/><ellipse class="cls-1" cx="64.04" cy="207.93" rx="9.28" ry="1.42"/><path class="cls-27" d="M83.82,216.91l0,.36-.06.51,0,.22-.06.51,0,.21-.06.52-.71,5.83c-.06.52-.91.92-1.94.92H77.2c-1,0-1.87-.4-1.94-.92l-.71-5.83-.07-.52,0-.21-.07-.51,0-.22-.06-.51,0-.36c0-.3.42-.54,1-.54h7.54C83.39,216.37,83.85,216.61,83.82,216.91Z" transform="translate(-15 -18)"/><polygon class="cls-28" points="68.77 199.27 68.71 199.78 59.37 199.78 59.31 199.27 68.77 199.27"/><polygon class="cls-28" points="68.68 200 68.62 200.51 59.46 200.51 59.39 200 68.68 200"/><polygon class="cls-28" points="68.6 200.72 68.53 201.24 59.55 201.24 59.48 200.72 68.6 200.72"/><path class="cls-23" d="M348.4,206.75s-1.11,5.16,3.82,5.77l.31-.58S348.71,208.35,348.4,206.75Z" transform="translate(-15 -18)"/><path class="cls-23" d="M354.1,211.9l-1.15.24-.11,0s-3.06-2.48-3-8a12.66,12.66,0,0,0,1.46,2.31C352.49,208.06,353.87,210.2,354.1,211.9Z" transform="translate(-15 -18)"/><path class="cls-23" d="M354.48,212.43a.7.7,0,0,1-.61.08c-2.95-.68-1.95-10.28-1.95-10.28.16.08.33,1.3,1,2.88C354.12,207.87,355.43,211.74,354.48,212.43Z" transform="translate(-15 -18)"/><path class="cls-23" d="M361,206.75s.19,5.16-4.74,5.77l-.31-.59S360.71,208.35,361,206.75Z" transform="translate(-15 -18)"/><path class="cls-23" d="M359.6,204.15a9.54,9.54,0,0,1-3.94,8l-.11,0-1.15-.24c.23-1.7,1.62-3.84,2.82-5.45A12.7,12.7,0,0,1,359.6,204.15Z" transform="translate(-15 -18)"/><path class="cls-23" d="M355.53,211.93a1.8,1.8,0,0,1-.65.51h0l-.24.08c-.72.16-1-.36-.93-1.25a22.86,22.86,0,0,1,1.94-6.36,8,8,0,0,1,1.85-2.67S357.45,209.7,355.53,211.93Z" transform="translate(-15 -18)"/><path class="cls-23" d="M354.71,198.87s-3.29,11.67-.46,13.41S355.43,199.9,354.71,198.87Z" transform="translate(-15 -18)"/><path class="cls-6" d="M348.4,206.75s-1.11,5.16,3.82,5.77l.31-.58S348.71,208.35,348.4,206.75Z" transform="translate(-15 -18)"/><path class="cls-6" d="M354.1,211.9l-1.15.24-.11,0s-3.06-2.48-3-8a12.66,12.66,0,0,0,1.46,2.31C352.49,208.06,353.87,210.2,354.1,211.9Z" transform="translate(-15 -18)"/><path class="cls-6" d="M354.48,212.43a.7.7,0,0,1-.61.08c-2.95-.68-1.95-10.28-1.95-10.28.16.08.33,1.3,1,2.88C354.12,207.87,355.43,211.74,354.48,212.43Z" transform="translate(-15 -18)"/><path class="cls-6" d="M361,206.75s.19,5.16-4.74,5.77l-.31-.59S360.71,208.35,361,206.75Z" transform="translate(-15 -18)"/><path class="cls-6" d="M359.6,204.15a9.54,9.54,0,0,1-3.94,8l-.11,0-1.15-.24c.23-1.7,1.62-3.84,2.82-5.45A12.7,12.7,0,0,1,359.6,204.15Z" transform="translate(-15 -18)"/><path class="cls-6" d="M355.53,211.93a1.8,1.8,0,0,1-.65.51h0l-.24.08c-.72.16-1-.36-.93-1.25a22.86,22.86,0,0,1,1.94-6.36,8,8,0,0,1,1.85-2.67S357.45,209.7,355.53,211.93Z" transform="translate(-15 -18)"/><path class="cls-6" d="M354.71,198.87s-3.29,11.67-.46,13.41S355.43,199.9,354.71,198.87Z" transform="translate(-15 -18)"/><path class="cls-23" d="M348.4,206.75s-.65,5.16,4.28,5.77l.31-.58S348.71,208.35,348.4,206.75Z" transform="translate(-15 -18)"/><path class="cls-23" d="M354.55,211.9l-1.14.24-.12,0a9.86,9.86,0,0,1-3.48-8s.9,1,1.92,2.31C353,208.06,354.32,210.2,354.55,211.9Z" transform="translate(-15 -18)"/><path class="cls-6" d="M354.55,211.9l-1.14.24c-1.09-.95-1.52-3.44-1.68-5.69C353,208.06,354.32,210.2,354.55,211.9Z" transform="translate(-15 -18)"/><path class="cls-23" d="M354.94,212.43a.71.71,0,0,1-.62.08c-2.94-.68-2.4-10.28-2.4-10.28a13.34,13.34,0,0,1,1.47,2.88C354.58,207.87,355.89,211.74,354.94,212.43Z" transform="translate(-15 -18)"/><path class="cls-23" d="M361,206.75s.65,5.16-4.28,5.77l-.3-.58S360.71,208.35,361,206.75Z" transform="translate(-15 -18)"/><path class="cls-23" d="M359.6,204.15a9.83,9.83,0,0,1-3.48,8l-.11,0-1.15-.24c.23-1.7,1.62-3.84,2.82-5.45C358.7,205.13,359.6,204.15,359.6,204.15Z" transform="translate(-15 -18)"/><path class="cls-6" d="M357.68,206.45c-.15,2.1-.53,4.4-1.46,5.48l-.21.21-1.15-.24C355.09,210.2,356.47,208.06,357.68,206.45Z" transform="translate(-15 -18)"/><path class="cls-23" d="M356,211.93a1.89,1.89,0,0,1-.65.51h0l-.24.08c-.73.16-1-.36-.94-1.25a23.25,23.25,0,0,1,1.95-6.36,12.12,12.12,0,0,1,1.39-2.67S357.91,209.7,356,211.93Z" transform="translate(-15 -18)"/><path class="cls-6" d="M354.94,212.43a.77.77,0,0,1-.46-.15c-1.39-.86-1.42-4.09-1.09-7.17C354.58,207.87,355.89,211.74,354.94,212.43Z" transform="translate(-15 -18)"/><path class="cls-6" d="M356,211.93c-.16.35-.38.53-.65.51h0a.88.88,0,0,1-.39-.15,2.1,2.1,0,0,1-.79-1,23.25,23.25,0,0,1,1.95-6.36C356.43,207.75,356.53,210.76,356,211.93Z" transform="translate(-15 -18)"/><path class="cls-23" d="M354.71,198.87s-2.83,11.67,0,13.41S355.43,199.9,354.71,198.87Z" transform="translate(-15 -18)"/><polygon class="cls-29" points="345.13 193.71 333.36 193.71 333.36 195.66 335.16 195.66 335.2 195.89 335.92 199.67 342.77 199.67 343.49 195.89 343.53 195.66 345.13 195.66 345.13 193.71"/><polygon class="cls-6" points="345.13 193.71 333.36 193.71 333.36 195.66 335.16 195.66 335.2 195.89 335.92 199.67 342.77 199.67 343.49 195.89 343.53 195.66 345.13 195.66 345.13 193.71"/><polygon class="cls-29" points="344.14 194.86 343.94 195.89 343.22 199.67 336.38 199.67 335.66 195.89 335.46 194.86 344.14 194.86"/><polygon class="cls-6" points="344.14 194.86 343.94 195.89 335.66 195.89 335.46 194.86 344.14 194.86"/><rect class="cls-29" x="333.82" y="193.71" width="11.77" height="1.95"/><path class="cls-23" d="M60.18,245.05a5.63,5.63,0,0,0-.74,1.39c0,.12-.09.26-.13.39a1.14,1.14,0,0,0-.26-.09,3.49,3.49,0,0,0-1.16-.09c0-.16,0-.33,0-.48,0-1.71-.16-4.09-1.79-3.08s-.44,2.59.56,3.63L57,247c-.92.64-1.09,2.18-1.24,3.77s-1.51,3.33-2.41,4.32l-.25.28a3.31,3.31,0,0,0-2.61-.68c0-.13-.08-.28-.12-.43-.72-2.63-2.23-7.17-4.15-8.16l.25-.33c.82-1.06,1.74-2.65.38-3.06s-1.48,1.38-1.41,2.71c0,.17,0,.33,0,.48a2,2,0,0,0-1.42.69l-.21-.25c-1.1-1.29-3.12-3.36-3.73-1.8s1.21,3.34,2.46,4.43l.07.07c-.84,3.41,2.83,6.19,4.8,7.4l.26.16c-2.72,3.21-4.4,9.22-4.4,9.22l7.62,1.36s5.06-4.36,4.41-8.46h.05c5-1,6.2-6.4,5.41-9.59l.09,0a5.77,5.77,0,0,0,2.34-1.77A1.88,1.88,0,0,0,60.18,245.05Z" transform="translate(-15 -18)"/><path class="cls-6" d="M60.18,245.05a5.63,5.63,0,0,0-.74,1.39c0,.12-.09.26-.13.39a1.14,1.14,0,0,0-.26-.09,3.49,3.49,0,0,0-1.16-.09c0-.16,0-.33,0-.48,0-1.71-.16-4.09-1.79-3.08s-.44,2.59.56,3.63L57,247c-.92.64-1.09,2.18-1.24,3.77s-1.51,3.33-2.41,4.32l-.25.28a3.31,3.31,0,0,0-2.61-.68c0-.13-.08-.28-.12-.43-.72-2.63-2.23-7.17-4.15-8.16l.25-.33c.82-1.06,1.74-2.65.38-3.06s-1.48,1.38-1.41,2.71c0,.17,0,.33,0,.48a2,2,0,0,0-1.42.69l-.21-.25c-1.1-1.29-3.12-3.36-3.73-1.8s1.21,3.34,2.46,4.43l.07.07c-.84,3.41,2.83,6.19,4.8,7.4l.26.16c-2.72,3.21-4.4,9.22-4.4,9.22l7.62,1.36s5.06-4.36,4.41-8.46h.05c5-1,6.2-6.4,5.41-9.59l.09,0a5.77,5.77,0,0,0,2.34-1.77A1.88,1.88,0,0,0,60.18,245.05Z" transform="translate(-15 -18)"/><path class="cls-23" d="M45,247.26l-.9,2.6s-.49-.35-1.12-.9c-1.25-1.1-3-3-2.46-4.43s2.63.49,3.74,1.8C44.71,246.85,45,247.26,45,247.26Z" transform="translate(-15 -18)"/><path class="cls-23" d="M46.89,245.76a12,12,0,0,1-.87,1,12.49,12.49,0,0,1-.16-1.37c-.08-1.34.07-3.11,1.41-2.71S47.7,244.69,46.89,245.76Z" transform="translate(-15 -18)"/><path class="cls-23" d="M58.4,246.17c0,.86-.11,1.55-.11,1.55a11.65,11.65,0,0,1-1.11-1c-1-1.05-2.13-2.66-.56-3.63S58.43,244.46,58.4,246.17Z" transform="translate(-15 -18)"/><path class="cls-23" d="M63.65,247.29a5.6,5.6,0,0,1-2.34,1.77,7.31,7.31,0,0,1-.78.29l-1.05-1.48a10.64,10.64,0,0,1,.43-1.43,5.63,5.63,0,0,1,.74-1.39A1.87,1.87,0,0,1,63.65,247.29Z" transform="translate(-15 -18)"/><path class="cls-6" d="M44.27,246.33c.44.52.74.92.74.92l-.9,2.59s-.49-.35-1.12-.9a5.09,5.09,0,0,1,1-2.29Z" transform="translate(-15 -18)"/><path class="cls-6" d="M46.89,245.76a12,12,0,0,1-.87,1,12.49,12.49,0,0,1-.16-1.37A1.75,1.75,0,0,1,46.89,245.76Z" transform="translate(-15 -18)"/><path class="cls-23" d="M51.27,256.12l-2.22,1a13.14,13.14,0,0,1-1.18-.67c-2.33-1.43-7-5-3.89-9.29s5.76,3.37,6.81,7.1C51.1,255.37,51.27,256.12,51.27,256.12Z" transform="translate(-15 -18)"/><path class="cls-6" d="M57.16,246.72a1.82,1.82,0,0,1,1.22-.55c0,.86-.11,1.55-.11,1.55A11.65,11.65,0,0,1,57.16,246.72Z" transform="translate(-15 -18)"/><path class="cls-6" d="M61.32,249.06a7.47,7.47,0,0,1-.79.29l-1.05-1.48a10.7,10.7,0,0,1,.44-1.43A3.84,3.84,0,0,1,61.32,249.06Z" transform="translate(-15 -18)"/><path class="cls-23" d="M55.81,258.7l-.38.07C48,259.89,53,255.88,53,255.88s.33-.32.79-.81c.9-1,2.25-2.72,2.4-4.32.24-2.41.51-4.67,3.35-4S62.84,257.29,55.81,258.7Z" transform="translate(-15 -18)"/><rect class="cls-30" x="26.47" y="259.2" width="14.2" height="3.73"/><rect class="cls-30" x="24.21" y="247.07" width="18.55" height="13.03"/><rect class="cls-6" x="26.47" y="259.2" width="14.2" height="3.73"/><rect class="cls-6" x="24.21" y="247.07" width="18.55" height="13.03"/><rect class="cls-30" x="27.4" y="259.2" width="14.2" height="3.73"/><path class="cls-6" d="M50.79,254.24c.32,1.11.48,1.88.48,1.88l-2.22,1a13.14,13.14,0,0,1-1.18-.67A5.65,5.65,0,0,1,50.79,254.24Z" transform="translate(-15 -18)"/><path class="cls-6" d="M55.81,258.7l-.38.07C48,259.89,53,255.88,53,255.88s.33-.32.79-.81A4.93,4.93,0,0,1,55.81,258.7Z" transform="translate(-15 -18)"/><path class="cls-23" d="M43.72,265.81s4.16-14.92,10-10.32-2.37,11.67-2.37,11.67Z" transform="translate(-15 -18)"/><circle class="cls-6" cx="30.82" cy="231.47" r="0.47"/><circle class="cls-6" cx="30.78" cy="233.64" r="0.47"/><circle class="cls-6" cx="44.32" cy="231.89" r="0.47"/><circle class="cls-6" cx="33.43" cy="243.06" r="0.47"/><circle class="cls-6" cx="43.35" cy="235.51" r="0.47"/><circle class="cls-6" cx="38.53" cy="240.34" r="0.47"/><circle class="cls-6" cx="32.42" cy="232.4" r="0.47"/><circle class="cls-6" cx="43.04" cy="233.29" r="0.47"/><circle class="cls-6" cx="41.45" cy="236.91" r="0.47"/><circle class="cls-6" cx="36.54" cy="242.71" r="0.47"/><circle class="cls-6" cx="35.53" cy="240.42" r="0.47"/><circle class="cls-6" cx="33.12" cy="235.24" r="0.47"/><rect class="cls-6" x="27.4" y="259.2" width="14.2" height="1.36"/><rect class="cls-30" x="25.14" y="247.07" width="18.55" height="13.03"/><circle class="cls-6" cx="37.17" cy="244.81" r="0.47"/><circle class="cls-6" cx="34.37" cy="245.39" r="0.47"/><circle class="cls-1" cx="16.21" cy="16.86" r="3.39"/><circle class="cls-1" cx="341.83" cy="123.53" r="4.54"/><circle class="cls-1" cx="350.58" cy="113.8" r="3.31"/><circle class="cls-1" cx="22.04" cy="4.54" r="4.54"/><circle class="cls-1" cx="4.54" cy="25.28" r="4.54"/><image width="218" height="226" transform="translate(116 53) scale(0.18)" xlink:href="../../../../../../Projects/Web/blend-test/src/images/hybrid-app-logo.png"/><circle class="cls-7" cx="206" cy="80" r="21"/><path class="cls-31" d="M211.15,93.71v8.54a2,2,0,0,1-2,2h0a2.2,2.2,0,0,1-2.22-2V93.71a2.19,2.19,0,0,1,2.22-2A2,2,0,0,1,211.15,93.71Zm.8,11.57a2.16,2.16,0,0,0,2.17,2.18h1.47l0,4.51a2,2,0,1,0,4.06,0v-4.5h2.75V112a2,2,0,0,0,4.09,0v-4.5H228a2.17,2.17,0,0,0,2.16-2.18h0V92.06H212Zm18.27-13.93H211.86A8.29,8.29,0,0,1,216.55,84l-1.4-2.6c-.21-.36.31-.58.49-.28l1.43,2.63a9.9,9.9,0,0,1,8,0l1.42-2.62c.19-.32.71-.08.5.28L225.56,84A8.31,8.31,0,0,1,230.22,91.35Zm-12.58-4.09a.76.76,0,1,0-.77.77.76.76,0,0,0,.77-.77Zm8.36,0a.76.76,0,1,0-.75.77.76.76,0,0,0,.75-.77Zm7,4.43a2,2,0,0,0-2,2h0v8.54a2,2,0,0,0,2,2h0a2.2,2.2,0,0,0,2.22-2V93.71a2.19,2.19,0,0,0-2.22-2Z" transform="translate(-15 -18)"/></svg>