<svg id="Layer_1" data-name="Layer 1" xmlns="http://www.w3.org/2000/svg" xmlns:xlink="http://www.w3.org/1999/xlink" viewBox="0 0 345.97 209"><defs><style>.cls-1{fill:#f2f2f2;}.cls-2{fill:#3f3d56;}.cls-3{fill:#6c63ff;}.cls-4{opacity:0.1;}.cls-4,.cls-5{isolation:isolate;}.cls-5{opacity:0.15;}.cls-6{fill:url(#linear-gradient);}.cls-7{fill:#2f2e41;}.cls-8{fill:#fbbebe;}</style><linearGradient id="linear-gradient" x1="208.28" y1="-1.33" x2="208.28" y2="13.68" gradientTransform="matrix(1, 0, 0, -1, -5.73, 211)" gradientUnits="userSpaceOnUse"><stop offset="0" stop-color="gray" stop-opacity="0.25"/><stop offset="0.54" stop-color="gray" stop-opacity="0.12"/><stop offset="1" stop-color="gray" stop-opacity="0.1"/></linearGradient></defs><title>why-5</title><path class="cls-1" d="M70.56,110.49V121a16.6,16.6,0,0,1,0,33.19v10.48H124.7V110.49Z" transform="translate(-17 -45)"/><circle class="cls-1" cx="53.56" cy="92.57" r="13.1"/><polygon class="cls-1" points="252.08 105.68 230.83 92.58 230.83 193.86 252.08 193.86 252.08 105.68"/><polygon class="cls-1" points="198.23 193.86 219.48 193.86 219.48 85.58 198.23 72.49 198.23 193.86"/><polygon class="cls-1" points="186.88 65.49 80.63 0 80.63 59.09 114.69 59.09 114.69 127.2 80.63 127.2 80.63 193.86 186.88 193.86 186.88 65.49"/><polygon class="cls-1" points="263.43 112.68 263.43 193.86 274.49 193.86 304.48 137.97 263.43 112.68"/><path class="cls-2" d="M321.71,200.12c-17.63,13.18-22.6,36.34-22.6,36.34s23.62,1.78,41.25-11.4S363,188.72,363,188.72,339.35,186.94,321.71,200.12Z" transform="translate(-17 -45)"/><path class="cls-3" d="M299.12,236.23s-.26-.14-.73-.43-.88-.55-1.5-1c-5.54-3.65-19.9-14.39-25.79-31-7.36-20.75,1.34-42.78,1.34-42.78s19,10.67,27,29.83c.35.83.68,1.67,1,2.53,6.41,18,.66,37.07-.94,41.71C299.27,235.86,299.12,236.23,299.12,236.23Z" transform="translate(-17 -45)"/><path class="cls-2" d="M299.21,236.89l-.27-.2c-.2-.14-19.33-14.2-24.25-35.51s6.12-42.34,6.23-42.55l.16-.29.27.2c.2.13,19.33,14.2,24.25,35.51h0c4.92,21.31-6.12,42.33-6.24,42.54Zm-17.93-77.68c-1.32,2.65-10.57,22.13-6,41.84s21.39,33.17,23.75,35c1.32-2.65,10.57-22.13,6-41.84h0C300.49,174.47,283.64,161,281.28,159.21Z" transform="translate(-17 -45)"/><path class="cls-4" d="M299.51,235.17l-1.12.63-1.05.56s-.18-.54-.45-1.52c-1.5-5.37-5.77-24.08,1.38-41.27q.57-1.35,1.2-2.64c.35.83.68,1.67,1,2.53C306.86,211.51,301.11,230.53,299.51,235.17Z" transform="translate(-17 -45)"/><path class="cls-3" d="M329.07,206.29c-8.45,20.32-29.69,30.82-29.69,30.82s-7.52-22.46.94-42.79S330,163.5,330,163.5,337.53,186,329.07,206.29Z" transform="translate(-17 -45)"/><rect class="cls-2" x="275.61" y="200.17" width="78.22" height="0.58" transform="translate(-8.88 368.13) rotate(-67.24)"/><path class="cls-2" d="M359.75,243.08c0,2.73-15.68,5.22-41.6,7.14-4.71.34-9.77.67-15.12,1q-7,.39-14.56.75-7.38.33-15.32.62c-16.71.61-35.19,1.05-54.83,1.26q-7.14.09-14.48.13-7.65,0-15.46,0C93.73,254,17,249.11,17,243.08s76.73-10.92,171.38-10.92c40.74,0,78.17.91,107.58,2.42l3.21.17h0C336.24,236.76,359.75,239.74,359.75,243.08Z" transform="translate(-17 -45)"/><path class="cls-5" d="M359.75,243.08c0,2.73-15.68,5.22-41.6,7.14-4.71.34-9.77.67-15.12,1q-7,.39-14.56.75-7.38.33-15.32.62c-16.71.61-35.19,1.05-54.83,1.26q-7.14.09-14.48.13-7.65,0-15.46,0C93.73,254,17,249.11,17,243.08s76.73-10.92,171.38-10.92c40.74,0,78.17.91,107.58,2.42l3.21.17h0C336.24,236.76,359.75,239.74,359.75,243.08Z" transform="translate(-17 -45)"/><path class="cls-2" d="M346.58,241.16c0,2.28-14.62,4.36-38.78,6-4.4.29-9.11.57-14.1.83q-6.48.33-13.57.62-6.88.28-14.28.52c-15.59.51-32.82.88-51.12,1.06q-6.66.06-13.5.1-7.12,0-14.42,0C98.57,250.29,27,246.2,27,241.16S98.57,232,186.81,232c19.52,0,38.21.2,55.49.57h0c16.34.35,31.43.84,44.76,1.45l3,.14h0c6.1.29,11.81.61,17.07,1h.18C331.8,236.77,346.58,238.87,346.58,241.16Z" transform="translate(-17 -45)"/><path class="cls-4" d="M307.2,235.16c-2.16,14.06-15.8,9.35-32.3,9.35-17.43,0-31.66,5.26-32.55-11.91,16.34.35,31.43.84,44.76,1.45l3,.14h0C296.23,234.49,301.94,234.81,307.2,235.16Z" transform="translate(-17 -45)"/><path class="cls-3" d="M109.35,230.88c0,5.07-3,6.84-6.73,6.84h-.25l-.52,0c-3.35-.23-6-2.1-6-6.81,0-4.88,6.24-11,6.71-11.49h0l0,0S109.35,225.81,109.35,230.88Z" transform="translate(-17 -45)"/><path class="cls-2" d="M102.38,236.94l2.46-3.44-2.47,3.82v.4l-.52,0,.27-5.07v0h0l0-.48-2.48-3.83,2.48,3.47v.1l.2-3.83-2.12-4,2.15,3.28.21-7.94v0l0,6.26,2.11-2.48-2.12,3,0,3.43,2-3.29-2,3.8,0,1.91,2.86-4.59-2.87,5.25Z" transform="translate(-17 -45)"/><path class="cls-2" d="M242.3,227.33c0-19.29,14.6-34.93,32.6-34.93s32.6,15.64,32.6,34.93S292.91,241,274.9,241,242.3,246.63,242.3,227.33Z" transform="translate(-17 -45)"/><rect class="cls-2" x="44.07" y="159.32" width="0.58" height="39.35"/><circle class="cls-2" cx="44.36" cy="159.32" r="5.56"/><path class="cls-2" d="M61.36,228.57s-.8-17.09-17.09-15.11" transform="translate(-17 -45)"/><path class="cls-6" d="M223.38,210.8q.23.76.48,1.53c-.77-.77-1.53-1.55-2.31-2.31.31.1.62.19.91.31A4.7,4.7,0,0,1,223.38,210.8Zm-3.76-2.56c-4.58-4-9.89-7.06-14.58-10.92,2.56,1.26,5.05,2.73,7.53,4.14q4.4,2.5,8.9,4.82A7.19,7.19,0,0,1,219.62,208.24Zm2-10,.22-.23c0,.57,0,1.1,0,1.58l-1.23-.42a11,11,0,0,0,1-.93ZM181.23,209a37.51,37.51,0,0,0,4.89-7c1.82,3.17,4.77,5.46,7.29,8.12C189.36,209.62,185.3,209.18,181.23,209Z" transform="translate(-17 -45)"/><path class="cls-3" d="M51.14,238.45c0,5.07-3,6.84-6.73,6.84h-.26l-.51,0c-3.36-.24-6-2.1-6-6.81,0-4.88,6.24-11,6.71-11.49h0l0,0S51.14,233.38,51.14,238.45Z" transform="translate(-17 -45)"/><path class="cls-2" d="M44.16,244.51l2.46-3.44-2.47,3.82v.39l-.51,0,.26-5.07v0h0l0-.48-2.47-3.82,2.48,3.46v.11l.2-3.84L42,231.62l2.14,3.28.21-7.94v0l0,6.26,2.11-2.48-2.11,3-.06,3.43,2-3.29-2,3.8,0,1.9L47.1,235l-2.87,5.25Z" transform="translate(-17 -45)"/><circle class="cls-3" cx="37.55" cy="150.2" r="2.91"/><path class="cls-7" d="M241.72,154.46s10.56-2.34,11.72,7-5.61,11.08-5.61,11.08l-4.29,1.15L227,169.29l2.33-6.69Z" transform="translate(-17 -45)"/><circle class="cls-7" cx="220.91" cy="95.7" r="14.27"/><polygon class="cls-7" points="170.77 125.33 173.66 125.92 183.52 140.49 179.17 141.08 170.77 125.33"/><path class="cls-8" d="M117.63,229.48a58,58,0,0,0,2.89,7.52,70.26,70.26,0,0,0,9.62-2.74,27.27,27.27,0,0,0-2-2.72,9.69,9.69,0,0,0-2.72-2.09c-1-.43-2.23-.1-3.31,0C120.62,229.48,119.13,229.5,117.63,229.48Z" transform="translate(-17 -45)"/><path class="cls-7" d="M125.44,233.37c-1.64-.51-2.63-2.16-3.29-3.74s-1.2-3.32-2.47-4.48a1.46,1.46,0,0,0-1.11.84c-.24.42-.38.9-.65,1.3-.53.76-1.45,1.12-2.12,1.77s-1.07,1.63-1.78,2.28a7.18,7.18,0,0,1-3.36,1.28,21.9,21.9,0,0,0-5.26,1.95,8.66,8.66,0,0,1-1.94.87,7.27,7.27,0,0,1-2.28.08L96,235.15a4.11,4.11,0,0,0-1.4.06,2.54,2.54,0,0,0-1.66,2.62,4.07,4.07,0,0,0,1.65,2.81,11,11,0,0,0,3,1.51,87.46,87.46,0,0,0,14,4v1a24.2,24.2,0,0,0,10.66,2.48,1.56,1.56,0,0,0,.8-.14,1.71,1.71,0,0,0,.68-1,41.93,41.93,0,0,0,2.18-11.36,8.77,8.77,0,0,0-.23-2.93c-.28-.94.7-.55-.21-.91" transform="translate(-17 -45)"/><path class="cls-7" d="M225.69,213.66c-15.5.93-30.81-3.6-46.33-4.09a23.23,23.23,0,0,0-5.77.37,28.86,28.86,0,0,0-5.7,2.21c-8.32,3.87-16.93,7.08-25.53,10.28l-9.88,3.68a15.08,15.08,0,0,1-6.12,1.35c-.94-.05-2.1-.2-2.63.59-1.6,2.38-.84,5.88.22,8.55.34.87.93,1.8,1.85,1.9a5.42,5.42,0,0,0,1.89-.47c1.79-.49,3.59.72,5.44.92,2.28.24,4.41-1.06,6.56-1.86,3.58-1.32,7.5-1.28,11.26-1.9,6.3-1.05,12.15-4,17.61-7.32,2.09-1.27,4.19-2.63,6.58-3.1,2.75-.53,5.57.18,8.27.94a192.13,192.13,0,0,1,19,6.45,86.21,86.21,0,0,0,9.9,3.61,35.72,35.72,0,0,0,22.19-1.29c2.48-1,5.18-2.71,5.32-5.39.08-1.52-1.1-2.87-1.89-4.17-.51-.84-1-1.68-1.57-2.49C233.64,218.53,230.4,213.38,225.69,213.66Z" transform="translate(-17 -45)"/><path class="cls-4" d="M225.69,213.66c-15.5.93-30.81-3.6-46.33-4.09a23.23,23.23,0,0,0-5.77.37,28.86,28.86,0,0,0-5.7,2.21c-8.32,3.87-16.93,7.08-25.53,10.28l-9.88,3.68a15.08,15.08,0,0,1-6.12,1.35c-.94-.05-2.1-.2-2.63.59-1.6,2.38-.84,5.88.22,8.55.34.87.93,1.8,1.85,1.9a5.42,5.42,0,0,0,1.89-.47c1.79-.49,3.59.72,5.44.92,2.28.24,4.41-1.06,6.56-1.86,3.58-1.32,7.5-1.28,11.26-1.9,6.3-1.05,12.15-4,17.61-7.32,2.09-1.27,4.19-2.63,6.58-3.1,2.75-.53,5.57.18,8.27.94a192.13,192.13,0,0,1,19,6.45,86.21,86.21,0,0,0,9.9,3.61,35.72,35.72,0,0,0,22.19-1.29c2.48-1,5.18-2.71,5.32-5.39.08-1.52-1.1-2.87-1.89-4.17-.51-.84-1-1.68-1.57-2.49C233.64,218.53,230.4,213.38,225.69,213.66Z" transform="translate(-17 -45)"/><path class="cls-8" d="M147.39,230.23q3.63,1.25,7.34,2.28c1.38-2.27,4-3.84,4.56-6.44a.65.65,0,0,0,0-.34.57.57,0,0,0-.28-.25,13.68,13.68,0,0,0-5.75-1.69c-1.59-.1-2.32,1.56-3,2.73C149.93,227,148,230.45,147.39,230.23Z" transform="translate(-17 -45)"/><path class="cls-7" d="M150.79,228.57a5.31,5.31,0,0,1-3.57-2.34c-.34-.6-.7-1.4-1.39-1.36s-.92.8-1.07,1.43a40.24,40.24,0,0,1-2,6.89,12.89,12.89,0,0,1-4.29,5.63c-.9.63-1.9,1.09-2.78,1.75a19,19,0,0,1-2.35,1.77,12.57,12.57,0,0,1-1.8.68,11.82,11.82,0,0,0-2.58,1.25A5.33,5.33,0,0,0,127.2,246a2.46,2.46,0,0,0-.14,2.35,2.54,2.54,0,0,0,1.72,1.18,7.3,7.3,0,0,0,2.14.05c2.82-.2,5.64-.46,8.47-.71a23.68,23.68,0,0,0,3.55-.49c.61-.15,1.22-.35,1.84-.51a15.17,15.17,0,0,1,3.22-.47,3,3,0,0,1,.94.09c.66.21,1.12.86,1.8,1a2.62,2.62,0,0,0,1.27-.17,30,30,0,0,1,6.28-.65c.92-.05,2-.23,2.43-1.06.53-1-.34-2.19-.7-3.3a10.49,10.49,0,0,1-.29-2.16,13.28,13.28,0,0,0-1.55-5.15c-.72-1.32-1.7-2.78-1.2-4.2a3.89,3.89,0,0,0,.48-1.44C157.31,228.06,152.09,228.85,150.79,228.57Z" transform="translate(-17 -45)"/><path class="cls-8" d="M202.45,188.8a12.12,12.12,0,0,1-6.18-6.13c-.25-.59-.47-1.2-.72-1.8a13.51,13.51,0,0,0-3.69-5.12,1.74,1.74,0,0,0-1.37-.58,1.45,1.45,0,0,0-1,1.08,4.38,4.38,0,0,0-.11,1.65,30,30,0,0,0,.68,3.88l.75,3.42a6.67,6.67,0,0,0,.46,1.52,5.4,5.4,0,0,0,1.26,1.51c.69.64,1.39,1.25,2.1,1.85a5.85,5.85,0,0,0,3.62,1.61,19.89,19.89,0,0,1,8.81,3.4s0-2.29-.06-2.55a3.38,3.38,0,0,0-.66-1.84C205.33,189.65,203.68,189.35,202.45,188.8Z" transform="translate(-17 -45)"/><path class="cls-4" d="M202.45,188.8a12.12,12.12,0,0,1-6.18-6.13c-.25-.59-.47-1.2-.72-1.8a13.51,13.51,0,0,0-3.69-5.12,1.74,1.74,0,0,0-1.37-.58,1.45,1.45,0,0,0-1,1.08,4.38,4.38,0,0,0-.11,1.65,30,30,0,0,0,.68,3.88l.75,3.42a6.67,6.67,0,0,0,.46,1.52,5.4,5.4,0,0,0,1.26,1.51c.69.64,1.39,1.25,2.1,1.85a5.85,5.85,0,0,0,3.62,1.61,19.89,19.89,0,0,1,8.81,3.4s0-2.29-.06-2.55a3.38,3.38,0,0,0-.66-1.84C205.33,189.65,203.68,189.35,202.45,188.8Z" transform="translate(-17 -45)"/><ellipse class="cls-7" cx="217.01" cy="113.82" rx="3.77" ry="3.79"/><path class="cls-7" d="M231.68,156.53a4.06,4.06,0,0,0-3,.43,4,4,0,0,0-1,1.38,19.75,19.75,0,0,0-2,4.62c-.34,1.39-.4,2.83-.81,4.19-.77,2.53-2.75,4.66-3,7.29-.1,1.18.09,2.56-.76,3.36a5.23,5.23,0,0,1-.68.48,5.18,5.18,0,0,0-1.49,1.53,4.82,4.82,0,0,1-1.05,1.46c-.77.56-2,.51-2.42,1.39s.6,1.9.37,2.86c-.18.78-1.05,1.14-1.65,1.67a5.85,5.85,0,0,0-1.44,2.67,8.84,8.84,0,0,1-7.21-1.8c1.05,2.6,1.08,5.46,1.12,8.26a3.36,3.36,0,0,1-.66,2.55,45.55,45.55,0,0,1,8.86,1.54,6.14,6.14,0,0,0,3.86,0,6.37,6.37,0,0,0,1.77-1.41c1.59-1.62,3.26-3.38,3.65-5.62a30.38,30.38,0,0,0,.07-3.82,21.7,21.7,0,0,1,1-4.62,55,55,0,0,0,1.7-9.53c.17-2,1.89-3.58,2.79-5.36,1.7-3.35,3.45-6.84,3.57-10.6C233.34,158.19,232.92,156.67,231.68,156.53Z" transform="translate(-17 -45)"/><path class="cls-4" d="M231.68,156.53a4.06,4.06,0,0,0-3,.43,4,4,0,0,0-1,1.38,19.75,19.75,0,0,0-2,4.62c-.34,1.39-.4,2.83-.81,4.19-.77,2.53-2.75,4.66-3,7.29-.1,1.18.09,2.56-.76,3.36a5.23,5.23,0,0,1-.68.48,5.18,5.18,0,0,0-1.49,1.53,4.82,4.82,0,0,1-1.05,1.46c-.77.56-2,.51-2.42,1.39s.6,1.9.37,2.86c-.18.78-1.05,1.14-1.65,1.67a5.85,5.85,0,0,0-1.44,2.67,8.84,8.84,0,0,1-7.21-1.8c1.05,2.6,1.08,5.46,1.12,8.26a3.36,3.36,0,0,1-.66,2.55,45.55,45.55,0,0,1,8.86,1.54,6.14,6.14,0,0,0,3.86,0,6.37,6.37,0,0,0,1.77-1.41c1.59-1.62,3.26-3.38,3.65-5.62a30.38,30.38,0,0,0,.07-3.82,21.7,21.7,0,0,1,1-4.62,55,55,0,0,0,1.7-9.53c.17-2,1.89-3.58,2.79-5.36,1.7-3.35,3.45-6.84,3.57-10.6C233.34,158.19,232.92,156.67,231.68,156.53Z" transform="translate(-17 -45)"/><path class="cls-7" d="M228.15,216.93c-3.23-1.54-5.59-4.4-8.2-6.85-5-4.68-11.08-8-16.31-12.38-3.48-2.9-6.58-6.29-10.4-8.72a25.79,25.79,0,0,0-11.13-3.9,3.12,3.12,0,0,0-1.36.06,3.21,3.21,0,0,0-1.27,1,39.55,39.55,0,0,0-4.49,6.17c-6.63,11.27-16.07,20.74-23.88,31.23a1.39,1.39,0,0,0-.09,1.89l1.59,3.11c.89,1.75,2.31,3.78,4.23,3.43a4.67,4.67,0,0,0,2.22-1.42l7.13-6.82,7.48-7.15c4.39-4.19,8.85-8.48,11.7-13.84,2.24,3.87,6.2,6.41,8.92,9.95,1,1.35,1.88,2.84,2.8,4.26,1.48,2.29,3.16,4.44,4.84,6.59l8.58,10.95a16.56,16.56,0,0,0,4,4,15.26,15.26,0,0,0,6.89,1.84,92.39,92.39,0,0,0,9.7.35,16.67,16.67,0,0,0,7.22-1.3c2.22-1.1,4-3.35,3.92-5.82A8.54,8.54,0,0,0,241,230C237.92,224.34,233.91,219.67,228.15,216.93Z" transform="translate(-17 -45)"/><ellipse class="cls-7" cx="219.33" cy="116.44" rx="2.9" ry="2.92"/><path class="cls-8" d="M235.69,159.25a5.5,5.5,0,0,1,.32,4.18,16.08,16.08,0,0,1-1.87,3.87,19.35,19.35,0,0,1-2.42,3.46c4.47.21,8.81-1.54,12.76-3.67,3.18-1.71,6.35-3.83,8-7a3.73,3.73,0,0,1-3-.55,11.36,11.36,0,0,1-2.27-2.11l-2.24-2.53a9.85,9.85,0,0,1-1.39-1.82,5.12,5.12,0,0,1-.59-2.93,16.73,16.73,0,0,1-3,2.47c-1.61,1-3.38,1.8-5,2.84-.58.37-1.84,1-1.52,1.71S235.24,158.45,235.69,159.25Z" transform="translate(-17 -45)"/><path class="cls-4" d="M235.69,159.25a5.5,5.5,0,0,1,.32,4.18,16.08,16.08,0,0,1-1.87,3.87,19.35,19.35,0,0,1-2.42,3.46c4.47.21,8.81-1.54,12.76-3.67,3.18-1.71,6.35-3.83,8-7a3.73,3.73,0,0,1-3-.55,11.36,11.36,0,0,1-2.27-2.11l-2.24-2.53a9.85,9.85,0,0,1-1.39-1.82,5.12,5.12,0,0,1-.59-2.93,16.73,16.73,0,0,1-3,2.47c-1.61,1-3.38,1.8-5,2.84-.58.37-1.84,1-1.52,1.71S235.24,158.45,235.69,159.25Z" transform="translate(-17 -45)"/><path class="cls-3" d="M235.75,159.69a3.79,3.79,0,0,0,0,4.38c.13.16.6,1.15.8,1.16a.77.77,0,0,0,.51-.26,34.08,34.08,0,0,0,2.84-3.38,6.28,6.28,0,0,1,3.61-2.37c1.76-.27,3.45.65,5,1.55a4.72,4.72,0,0,1,1.7,1.39,4.65,4.65,0,0,1,.56,1.89,89.84,89.84,0,0,1,.5,12.06,46.68,46.68,0,0,1-.57,8.69c-.28,1.48-.71,2.93-.91,4.42a29.09,29.09,0,0,0-.18,4v5.54a14.72,14.72,0,0,0,.22,3c.26,1.21.84,2.33,1.22,3.51a22.66,22.66,0,0,1,.81,4.16l.76,5.73c.24,1.81.41,3.79-.68,5.24-.49.66-1.14,1.18-1.64,1.84-1.88,2.44-1.28,5.92-2.06,8.9a11.21,11.21,0,0,1-3.64,5.58,6,6,0,0,1-4.79,1.71c-2.33-.43-3.73-2.86-4.36-5.15s-.87-4.79-2.25-6.73c-1.12-1.58-2.86-2.58-4.43-3.71s-3.12-2.59-3.46-4.5c-.15-.84-.06-1.7-.14-2.54a6,6,0,0,0-3.71-4.87c-1.2-.47-2.67-.63-3.34-1.73a8.09,8.09,0,0,0,3.49-4.68,24,24,0,0,0,.85-5.92l.4-6.66c.18-3,.26-5.93,1.57-8.61.58-1.2,1.31-2.32,1.92-3.5a39.42,39.42,0,0,0,2.07-5.14c1-2.73,1.9-5.46,2.75-8.23a16.25,16.25,0,0,1,1.51-3.83C233.37,161.46,234.4,160,235.75,159.69Z" transform="translate(-17 -45)"/><path class="cls-7" d="M221,203l1.76.07.38-2.67a5.57,5.57,0,0,1,.37-1.55,9.36,9.36,0,0,1,1-1.49c1.73-2.45,1.61-5.71,2-8.68.57-4,2.23-7.7,3.87-11.36l3.42-7.63a8.22,8.22,0,0,0,.95-4.21c0-1.18.38-5.47.41-6.65,0-.44-1-.2-1.16-.59-.43-.84-1,1.46-1.82,2a4.48,4.48,0,0,0-1.58,2.3c-.74,1.93-1.19,3.95-1.88,5.89a12.12,12.12,0,0,1-3.2,5.2c-.7.61-1.51,1.1-2.17,1.76-2.13,2.1-2.34,5.43-2.41,8.43C220.9,185.56,220.56,203,221,203Z" transform="translate(-17 -45)"/><path class="cls-7" d="M246.34,156.51c-1.71.67-2.65,2.53-3.13,4.32s-.68,3.68-1.6,5.29c-2.15,3.74-7.64,4.83-9.15,8.88a15.76,15.76,0,0,0-.61,4.18c-.28,2.9-1.23,5.7-1.51,8.6a37.17,37.17,0,0,0,.16,6.75l1.91,22.86a30.26,30.26,0,0,1-.57,10.05,9.63,9.63,0,0,0,5.76-.94c1.8-.83,3.44-1.95,5.17-2.91,3-1.64,6.27-2.81,8.88-5a5,5,0,0,0,1.2-1.32,11.25,11.25,0,0,0,.81-3,16.78,16.78,0,0,1,.86-2.37,70.18,70.18,0,0,0,2.49-7,37.85,37.85,0,0,0,1.15-4.84c.21-1.3.32-2.62.43-3.93a23.48,23.48,0,0,1,1.22-6,48.42,48.42,0,0,0,2.8-14.48,7.31,7.31,0,0,0-.14-2.14,11.87,11.87,0,0,0-1.16-2.41c-.8-1.5-1.28-3.16-2-4.68-1.7-3.44-4.7-6-7.84-8.24C249.9,157,248.09,155.82,246.34,156.51Z" transform="translate(-17 -45)"/><path class="cls-8" d="M206.27,193.8a13.6,13.6,0,0,1-3.65-2.77c-.48-.56-.88-1.19-1.36-1.74a9,9,0,0,0-4.59-2.62,22.65,22.65,0,0,0-5.32-.52,9.79,9.79,0,0,0-3.54.43,3.6,3.6,0,0,0-2.35,2.52,4.15,4.15,0,0,0,1.79,3.72,8.7,8.7,0,0,0,3.56,1.73,29.32,29.32,0,0,0,3.23.38c6.35.66,12,4.12,17.57,7.26q7.32,4.14,14.94,7.75a30.57,30.57,0,0,0,.25-4.59c0-1.14-.08-2.89-1.17-3.56-1.26-.78-3.33-1-4.75-1.43a76.72,76.72,0,0,1-9.56-3.86C209.6,195.66,207.92,194.77,206.27,193.8Z" transform="translate(-17 -45)"/><ellipse class="cls-8" cx="217.01" cy="101.57" rx="11.31" ry="11.37"/><path class="cls-7" d="M249.57,169.4a18.47,18.47,0,0,0-2.19,4.09c-1.4,2.88-3.59,5.35-4.68,8.35-1.16,3.17-1.12,6.94-3.39,9.43a3.26,3.26,0,0,0-1,1.42,7.2,7.2,0,0,1-.12,1c-.32.9-1.8,1-2.08,1.87-.08.27,0,.57-.14.83-.22.59-1,.68-1.53,1-1.1.75-.88,2.48-1.66,3.55a3,3,0,0,1-2.83,1,9.82,9.82,0,0,1-2.93-1.1,2.85,2.85,0,0,0-1.06-.33,2.24,2.24,0,0,0-1.22.42,7.55,7.55,0,0,0-3,6.44,21.16,21.16,0,0,0,1.74,7.21,3.19,3.19,0,0,0,.58,1.07,2.54,2.54,0,0,0,2.82.21,12.65,12.65,0,0,1,2.74-1.23c1.75-.32,3.46.88,5.24.78a7.21,7.21,0,0,0,3.53-1.56,19.32,19.32,0,0,0,4.75-4c.77-1,1.34-2.17,2-3.25a37.9,37.9,0,0,1,2.85-3.82l6.52-8a12.88,12.88,0,0,0,3.13-6.06,28.48,28.48,0,0,0,1.35-6.5,26.2,26.2,0,0,0-.47-5.44,19.21,19.21,0,0,0-1.41-5.18C255.69,168.73,252.24,166.3,249.57,169.4Z" transform="translate(-17 -45)"/><circle class="cls-7" cx="236.37" cy="76.91" r="14.27"/><path class="cls-7" d="M265.68,133.73a14.28,14.28,0,0,1-22-7.49A14.27,14.27,0,1,0,272,122.68a14.91,14.91,0,0,0-.48-2.3A14.26,14.26,0,0,1,265.68,133.73Z" transform="translate(-17 -45)"/><circle class="cls-7" cx="224.72" cy="98.08" r="10.46"/><ellipse class="cls-7" cx="215.92" cy="94.16" rx="9.28" ry="7.25"/><ellipse class="cls-8" cx="235.1" cy="150.52" rx="1.46" ry="2.18" transform="matrix(0.78, -0.63, 0.63, 0.78, -59.27, 137.07)"/><path class="cls-3" d="M224.92,243.11c0,5.07-3,6.84-6.74,6.84h-.25l-.51,0c-3.36-.24-6-2.1-6-6.81,0-4.88,6.24-11,6.71-11.5h0l0,0S224.92,238,224.92,243.11Z" transform="translate(-17 -45)"/><path class="cls-2" d="M217.94,249.17l2.46-3.44-2.47,3.82v.39l-.51,0,.26-5.07v0h0l0-.48-2.48-3.83,2.49,3.47v.1l.2-3.83-2.12-3.95,2.15,3.28.21-7.95v0l0,6.27,2.11-2.49-2.12,3-.05,3.43,2-3.29-2,3.79,0,1.91,2.86-4.58L218,244.93Z" transform="translate(-17 -45)"/></svg>