<svg id="Layer_1" data-name="Layer 1" xmlns="http://www.w3.org/2000/svg" viewBox="0 0 358.76 247.92"><defs><style>.cls-1{fill:#6c63ff;}.cls-2{fill:#f2f2f2;}.cls-3{fill:#cfcce0;}.cls-4{fill:#3f3d56;}.cls-5{fill:#828282;}.cls-6{fill:#ffb9b9;}.cls-7{fill:#2f2e41;}.cls-8{fill:#d0cde1;}.cls-9{opacity:0.15;isolation:isolate;}</style></defs><title>what-3</title><path class="cls-1" d="M127.14,259.05H39.62s-1.78-26,8.72-26.32,9.31,11.53,22.47-4.73,29.13-15.37,31.2-5.76-4,17.29,7.1,14.93S136.16,241,127.14,259.05Z" transform="translate(-30 -33)"/><path class="cls-2" d="M81.9,259.06l-.29,0c.69-17.13,4.27-28.14,7.16-34.35,3.14-6.75,6.16-9.49,6.19-9.51l.2.22s-3,2.73-6.13,9.43C86.16,231,82.59,242,81.9,259.06Z" transform="translate(-30 -33)"/><path class="cls-2" d="M113.58,259.09l-.28-.08a46,46,0,0,1,11.54-19.22l.2.22A45.6,45.6,0,0,0,113.58,259.09Z" transform="translate(-30 -33)"/><path class="cls-2" d="M53.4,259.07l-.29,0a32.12,32.12,0,0,0-2.9-18.82,26,26,0,0,0-4.57-6.68l.21-.21a26.49,26.49,0,0,1,4.63,6.75A32.52,32.52,0,0,1,53.4,259.07Z" transform="translate(-30 -33)"/><path class="cls-3" d="M139,259.44H30.18l0-.36c-.06-.92-1.45-22.56,5.56-30.28a7.71,7.71,0,0,1,5.61-2.69,16.67,16.67,0,0,1,9.76,3c4.36,2.59,7.25,4.3,17.73-8.66,11.36-14,23.62-17.06,30.67-15.38a10.91,10.91,0,0,1,8.6,8.41,37.08,37.08,0,0,1,.37,10.88c-.23,3.26-.42,5.84.92,7,1.12,1,3.35,1.06,7,.27,7.47-1.59,17.9-.23,23.13,6.54,2.81,3.63,5,10.24-.39,21.09Zm-108.1-.79H138.53c4-8.19,4.17-15.12.36-20-4.8-6.2-14.87-7.83-22.33-6.24-4,.85-6.37.71-7.71-.46-1.64-1.42-1.44-4.17-1.18-7.66a36.85,36.85,0,0,0-.36-10.65,10.16,10.16,0,0,0-8-7.81c-6.82-1.63-18.73,1.35-29.86,15.11-10.92,13.49-14.2,11.54-18.75,8.84-2.35-1.39-5-3-9.34-2.85a6.92,6.92,0,0,0-5,2.44C30,236.27,30.77,255.73,30.92,258.65Z" transform="translate(-30 -33)"/><path class="cls-1" d="M373.45,259.05H285.93s-1.78-26,8.72-26.32S304,244.26,317.12,228s29.13-15.37,31.2-5.76-4,17.29,7.09,14.93S382.47,241,373.45,259.05Z" transform="translate(-30 -33)"/><path class="cls-2" d="M328.21,259.06l-.29,0c.68-17.13,4.27-28.14,7.16-34.35,3.14-6.75,6.16-9.49,6.19-9.51l.2.22s-3,2.73-6.13,9.43C332.47,231,328.9,242,328.21,259.06Z" transform="translate(-30 -33)"/><path class="cls-2" d="M359.89,259.09l-.28-.08a46,46,0,0,1,11.54-19.22l.2.22A45.6,45.6,0,0,0,359.89,259.09Z" transform="translate(-30 -33)"/><path class="cls-2" d="M299.71,259.07l-.29,0a32.2,32.2,0,0,0-2.9-18.82,26.27,26.27,0,0,0-4.57-6.68l.21-.21a26.49,26.49,0,0,1,4.63,6.75A32.52,32.52,0,0,1,299.71,259.07Z" transform="translate(-30 -33)"/><path class="cls-3" d="M385.33,259.44H276.49l0-.36c-.06-.92-1.45-22.56,5.56-30.28a7.69,7.69,0,0,1,5.61-2.69,16.67,16.67,0,0,1,9.76,3c4.36,2.59,7.25,4.3,17.73-8.66,11.36-14,23.62-17.06,30.66-15.38a10.92,10.92,0,0,1,8.61,8.41,37.08,37.08,0,0,1,.37,10.88c-.24,3.26-.42,5.84.92,7,1.11,1,3.35,1.06,7,.27,7.47-1.59,17.9-.23,23.13,6.54,2.81,3.63,5,10.24-.39,21.09Zm-108.1-.79H384.84c4-8.19,4.17-15.12.36-20-4.8-6.2-14.87-7.83-22.34-6.24-4,.85-6.36.71-7.7-.46-1.64-1.42-1.44-4.17-1.19-7.66a36.47,36.47,0,0,0-.35-10.65,10.16,10.16,0,0,0-8-7.81c-6.82-1.63-18.73,1.35-29.86,15.11-10.92,13.49-14.21,11.54-18.76,8.84-2.34-1.39-5-3-9.33-2.85a6.92,6.92,0,0,0-5,2.44c-6.31,6.93-5.54,26.39-5.38,29.31Z" transform="translate(-30 -33)"/><path class="cls-4" d="M198.68,185.16c-7.67,0-14.39,8-18.1,20-.27.84-.51,1.7-.74,2.58a74.69,74.69,0,0,0-2.31,18.77c0,22.79,9.49,41.33,21.15,41.33s21.16-18.54,21.16-41.33S210.35,185.16,198.68,185.16Zm0,82c-11.3,0-20.49-18.25-20.49-40.67a74.29,74.29,0,0,1,2.33-18.84c.22-.83.45-1.63.7-2.43,3.61-11.63,10.09-19.4,17.46-19.4,11.31,0,20.5,18.25,20.5,40.67S210,267.15,198.68,267.15Z" transform="translate(-30 -33)"/><path class="cls-4" d="M203.77,250.37c-4.05,0-7.22-10.49-7.22-23.89s3.17-23.89,7.22-23.89S211,213.08,211,226.48,207.81,250.37,203.77,250.37Zm0-47.13c-3.56,0-6.56,10.64-6.56,23.24s3,23.24,6.56,23.24,6.56-10.64,6.56-23.24S207.32,203.24,203.77,203.24Z" transform="translate(-30 -33)"/><ellipse class="cls-3" cx="174.59" cy="193.48" rx="2.79" ry="5.49"/><polygon class="cls-4" points="168.52 119.03 213.45 118.87 213.45 136.57 168.52 138.38 168.52 119.03"/><polygon class="cls-4" points="130.15 179.07 129.49 179.03 131.48 142.97 172.13 142.97 172.13 143.63 132.1 143.63 130.15 179.07"/><polygon class="cls-4" points="130.08 237.42 107.12 233.49 107.26 232.84 130.22 236.78 130.08 237.42"/><rect class="cls-4" x="178.35" y="265.46" width="0.66" height="27.97" transform="translate(-144.49 401.59) rotate(-85.29)"/><path class="cls-4" d="M229.43,212.1c-.24.79-.48,1.6-.69,2.42l-.69.08L206.72,217l-48.87-4.92,50.84-2.62,20.1,2.59Z" transform="translate(-30 -33)"/><path class="cls-5" d="M218.26,94.74s-7.11-2.54-11.67,7.61a201.69,201.69,0,0,1-11.67,21.31l4.06,1s1-7.1,3.55-8.12l-1,9.14s30.45,10.65,44.15-1l-.51-3.55s2,.51,2,3.55l1.52-1.52s-1.52-3-6.09-7.1c-3-2.67-4-7.74-4.38-10.91a13.1,13.1,0,0,0-3-7.18C232.16,94.44,226.63,90.71,218.26,94.74Z" transform="translate(-30 -33)"/><path class="cls-6" d="M179,104.31l-3-30.83s-5.9-16.73,3-15.41,3.6,14.1,3.6,14.1l4.92,32.14Z" transform="translate(-30 -33)"/><polygon class="cls-6" points="126.05 211.35 122.77 222.51 129 227.75 133.59 213.65 126.05 211.35"/><path class="cls-6" d="M181.3,252.55,178,264.36l11.48,7.22s.33-13.45,2-16.07Z" transform="translate(-30 -33)"/><path class="cls-7" d="M195.25,192l-1.77,3.68s-20.18-9.58-25.49,3.69-17,55.26-17,55.26L161.27,259,180,214.42l42.83-1.1,1.77-24.69Z" transform="translate(-30 -33)"/><path class="cls-7" d="M207.11,196.83s-29.24-6.49-31.38,9.16,1.07,45.44,1.43,46.21-1.43,14.89-1.43,14.89L188.57,269s8.2-41.62,4.63-52.31l24.13-1.6c8.32-.55,15.13-7.6,15.61-16.52.18-3.41-.62-6.51-3.37-8.23C221,185,205.32,185,205.32,185Z" transform="translate(-30 -33)"/><path class="cls-7" d="M157,255.18s-2.29-4.92-5.57-2.63-10.83,7.22-10.83,7.22-11.67,4.11-1.31,6.89c9.21,2.47,11.48,2,11.48,2s7.54,1.31,8.53.65S161,258.13,161,258.13,156.38,257.15,157,255.18Z" transform="translate(-30 -33)"/><path class="cls-7" d="M182.61,265.35s-3.28-4.6-5.57-2.63-10.5,7.55-10.5,7.55-13.77,3.93-1.64,7.54,25.58,2.95,25.91,1.64-.65-10.82-.65-10.82S183.27,268.3,182.61,265.35Z" transform="translate(-30 -33)"/><circle class="cls-6" cx="191.97" cy="82.46" r="11.81"/><path class="cls-6" d="M213.44,120.71s-.65,13.45-3.93,14.43S197,147,201.31,150.23s28.86,1,28.86,1l-2.3-17.05s-5.24-3.61-1-9.84Z" transform="translate(-30 -33)"/><path class="cls-3" d="M213.11,143l-2.29-10.82-7.54-2.95L197,143.67s-7,46.73-5.08,47.39a8.76,8.76,0,0,0,3.44.49s10.5-3.28,13.78-1.64,20.33,3,20.33,3,11.81-6.23,11.15-11.8,0-36.74,0-36.74l-1.47-13.94-12.94,2Z" transform="translate(-30 -33)"/><polygon class="cls-3" points="173.6 97.1 173.22 94.07 162.35 76.85 156.14 48 141 55.59 151.87 90.52 167.39 116.34 173.6 97.1"/><path class="cls-5" d="M206.46,116.87s4.06-5.58,7.61-6.59,4.06-6.09,4.06-6.09,9.13,10.15,14.71,10.65.51-12.17.51-12.17l-10.15-2.54-9.64,1L206,106.22Z" transform="translate(-30 -33)"/><polygon class="cls-4" points="214.44 159.71 214.12 146.25 183.6 146.25 182.62 182.34 181.97 182.32 182.96 145.6 214.75 145.6 214.76 145.91 215.09 159.69 214.44 159.71"/><polygon class="cls-4" points="213.78 141.33 213.12 141.33 213.12 116.3 223.71 119.37 223.53 120 213.78 117.17 213.78 141.33"/><path class="cls-4" d="M246.9,192c-7.68,0-14.4,8-18.11,20-.26.84-.51,1.7-.74,2.58a74.69,74.69,0,0,0-2.31,18.77c0,22.79,9.49,41.32,21.16,41.32s21.15-18.53,21.15-41.32S258.56,192,246.9,192Zm0,82c-11.31,0-20.5-18.25-20.5-40.67a74,74,0,0,1,2.34-18.85c.21-.82.44-1.63.69-2.42,3.61-11.63,10.09-19.4,17.47-19.4,11.3,0,20.49,18.24,20.49,40.67S258.2,274,246.9,274Z" transform="translate(-30 -33)"/><path class="cls-4" d="M252,257.26c-4,0-7.22-10.49-7.22-23.89s3.17-23.9,7.22-23.9,7.22,10.5,7.22,23.9S256,257.26,252,257.26Zm0-47.13c-3.56,0-6.56,10.64-6.56,23.24s3,23.24,6.56,23.24,6.56-10.65,6.56-23.24S255.54,210.13,252,210.13Z" transform="translate(-30 -33)"/><ellipse class="cls-3" cx="222.8" cy="200.37" rx="2.79" ry="5.49"/><polygon class="cls-4" points="218.37 115.75 225.26 118.37 223.95 121.98 218.37 119.69 218.37 115.75"/><polygon class="cls-4" points="191.15 143.96 191.15 149.2 210.69 149.2 210.69 144.31 191.15 143.96"/><polygon class="cls-4" points="140.97 141.33 140.97 146.58 160.51 146.58 160.51 141.68 140.97 141.33"/><path class="cls-4" d="M237.76,63.28H104.07V33H237.76Zm-132.9-.79H237V33.79H104.86Z" transform="translate(-30 -33)"/><rect class="cls-1" x="84.69" y="10.22" width="14.94" height="14.94"/><path class="cls-4" d="M127.66,56.2H111.94V40.47h15.72Zm-14.94-.79h14.16V41.26H112.72Z" transform="translate(-30 -33)"/><rect class="cls-4" x="122.44" y="10.62" width="69.99" height="0.79"/><rect class="cls-4" x="122.44" y="16.12" width="69.99" height="0.79"/><rect class="cls-4" x="122.44" y="21.63" width="69.99" height="0.79"/><path class="cls-4" d="M206.72,161.6h-.16v-4.37A2.53,2.53,0,0,0,204,154.7h-9.25a2.53,2.53,0,0,0-2.53,2.53h0v24a2.53,2.53,0,0,0,2.53,2.53H204a2.53,2.53,0,0,0,2.53-2.53h0V164.71h.16Z" transform="translate(-30 -33)"/><circle class="cls-8" cx="169.49" cy="129.15" r="1.55"/><path class="cls-6" d="M238.72,177.27l-31-.58s-17.29,4-15-4.69,14.42-2,14.42-2l32.49-1.22Z" transform="translate(-30 -33)"/><path class="cls-3" d="M229.77,132.68l4.27-2.3s7.12-2.62,8.54,6.56,11.86,39.69,1.42,40-37,.65-37,.65l2.85-10.16,21.82-1Z" transform="translate(-30 -33)"/><polygon class="cls-9" points="206.56 108 205.58 131.69 191.15 135.43 204.27 128.78 206.56 108"/></svg>