<svg id="Layer_1" data-name="Layer 1" xmlns="http://www.w3.org/2000/svg" xmlns:xlink="http://www.w3.org/1999/xlink" viewBox="0 0 394.05 246.02"><defs><style>.cls-1{fill:#ffb9b9;}.cls-2{fill:#2f2e41;}.cls-3{opacity:0.1;isolation:isolate;}.cls-4{fill:#575a89;}.cls-5{fill:#6c63ff;}.cls-6{fill:#3f3d56;}.cls-7{fill:#f2f2f2;}.cls-8{font-size:36px;font-family:Montserrat-Bold, Montserrat;font-weight:700;}.cls-10,.cls-8{fill:#fff;}.cls-9{fill:#e25252;}.cls-11{fill:url(#linear-gradient);}.cls-12{fill:#fafafa;}.cls-13{fill:#e0e0e0;}.cls-14{fill:#f5f5f5;}.cls-15{fill:url(#linear-gradient-2);}.cls-16{fill:#eee;}.cls-17{fill:url(#linear-gradient-3);}.cls-18{fill:url(#linear-gradient-4);}.cls-19{fill:url(#linear-gradient-5);}.cls-20{fill:url(#linear-gradient-6);}.cls-21{opacity:0.5;}.cls-22{fill:url(#linear-gradient-7);}.cls-23{fill:#333;}.cls-24{fill:#fdb797;}</style><linearGradient id="linear-gradient" x1="332.83" y1="160.78" x2="332.83" y2="224.11" gradientTransform="matrix(1, 0, 0, -1, -4, 274.44)" gradientUnits="userSpaceOnUse"><stop offset="0.01" stop-color="gray" stop-opacity="0.25"/><stop offset="0.54" stop-color="gray" stop-opacity="0.12"/><stop offset="1" stop-color="gray" stop-opacity="0.1"/></linearGradient><linearGradient id="linear-gradient-2" x1="313.68" y1="214.96" x2="313.68" y2="223.37" gradientTransform="matrix(1, 0, 0, -1, -4, 274.44)" gradientUnits="userSpaceOnUse"><stop offset="0" stop-color="#b3b3b3" stop-opacity="0.25"/><stop offset="0.54" stop-color="#b3b3b3" stop-opacity="0.1"/><stop offset="1" stop-color="#b3b3b3" stop-opacity="0.05"/></linearGradient><linearGradient id="linear-gradient-3" x1="347.45" y1="166.04" x2="347.45" y2="229.37" xlink:href="#linear-gradient"/><linearGradient id="linear-gradient-4" x1="328.3" y1="220.22" x2="328.3" y2="228.64" xlink:href="#linear-gradient-2"/><linearGradient id="linear-gradient-5" x1="361.76" y1="170.67" x2="361.76" y2="234" xlink:href="#linear-gradient"/><linearGradient id="linear-gradient-6" x1="342.61" y1="224.85" x2="342.61" y2="233.26" xlink:href="#linear-gradient-2"/><linearGradient id="linear-gradient-7" x1="168.5" y1="144" x2="168.5" y2="205" gradientTransform="matrix(1, 0, 0, -1, -4, 274.44)" gradientUnits="userSpaceOnUse"><stop offset="0" stop-color="gray" stop-opacity="0.25"/><stop offset="0.54" stop-color="gray" stop-opacity="0.12"/><stop offset="1" stop-color="gray" stop-opacity="0.1"/></linearGradient></defs><title>what-1</title><polygon class="cls-1" points="28.09 215.82 19.11 215.22 22.1 228.7 32.28 224.51 28.09 215.82"/><polygon class="cls-2" points="110.46 190.66 89.5 170.29 77.51 179.58 53.85 208.03 56.55 212.23 85.3 192.76 104.77 218.22 123.34 208.93 110.46 190.66"/><polygon class="cls-3" points="110.46 190.66 89.5 170.29 77.51 179.58 53.85 208.03 56.55 212.23 85.3 192.76 104.77 218.22 123.34 208.93 110.46 190.66"/><path class="cls-1" d="M116.26,231.7l-2.7,2.1L91.7,226.31l-5.09-2.1-10.19,2.1s0-8.39,9.59-8.09l9.88,2.4,11.68.89Z" transform="translate(-4 -27.56)"/><polygon class="cls-2" points="131.73 226.31 125.14 230.5 117.35 230.5 81.11 217.02 28.09 226.6 26.59 215.22 75.12 193.96 117.65 208.03 131.73 226.31"/><path class="cls-1" d="M93.2,200.55l-4.5.9-1-1.15a6,6,0,0,1-.81-6.64h0l12.58-16.48s3.59-8.08,9.28-4.79-4.79,8.69-4.79,8.69L97.69,191l.6,5.09Z" transform="translate(-4 -27.56)"/><circle class="cls-1" cx="117.65" cy="141.84" r="11.68"/><path class="cls-1" d="M116.41,177.93l5.39,12.88,12.88-5.39s-4.19-10.18-4.19-10.48S116.41,177.93,116.41,177.93Z" transform="translate(-4 -27.56)"/><path class="cls-4" d="M151.88,216a67.16,67.16,0,0,1-3.29,20.76l-.88,2.69-4.19,19.17-4.5,1.19-3.29-4.19-6.59-4.79-4.79-7.79-4.11-6.85L119,234.09l-4.5-22.46-17.07-9.58-5.69-.9,1.2-3.3L98,191l5.09-.6,1.5-1.19,1.2.59,4.79-2.69,1.5.6,8.75.81,5.32-1.11,7.65-4.11,3.14.51,10.78,9A67,67,0,0,1,151.88,216Z" transform="translate(-4 -27.56)"/><path class="cls-2" d="M25.86,248s2.69-4.55,1.55-5.08-5.94-2.65-5.94-2.65L14.41,238S4.23,222.82,4,236s7.42,16.33,7.42,16.33S18.23,267,22.09,264.63s7.72-10.27,7.72-10.27S22.85,250.61,25.86,248Z" transform="translate(-4 -27.56)"/><polygon class="cls-3" points="144.61 185.87 133.23 193.36 116.24 208.68 114.96 206.54 111.36 188.56 112.26 188.56 121.55 171.49 144.61 185.87"/><polygon class="cls-4" points="121.55 169.69 112.26 186.77 108.97 186.77 106.87 192.76 102.08 193.96 114.96 208.03 133.23 191.56 144.61 184.07 121.55 169.69"/><path class="cls-2" d="M112.57,160.71l-1.27.49a1.77,1.77,0,0,1-.47-2.46l0,0-2.34-.11a17.66,17.66,0,0,1,24.73-3.51,18,18,0,0,1,1.64,1.39c.1-.37,1.26.35,1.74,1.07.16-.6,1.24,2.29,1.63,4.33.18-.68.86.41.26,1.47.38-.06.56.91.26,1.46.42-.2.35,1-.1,1.74.59-.05-4.69,8.14-6.82,12.92-.63-2.85-1.32-5.85-3.32-8-.34-.36-.72-.69-1.09-1l-2-1.78c-2.34-2.06-4.46-4.61-7.58-5.38-2.14-.53-3.49-.65-2.33-3.06-1,.44-2,1.09-3.1,1.5A9.48,9.48,0,0,0,112.57,160.71Z" transform="translate(-4 -27.56)"/><circle class="cls-1" cx="123.49" cy="143.19" r="2.1"/><rect class="cls-5" x="64.6" y="96.06" width="10.14" height="10.14"/><path class="cls-6" d="M84.9,128H72.59V115.65H84.9Zm-11.78-.53H84.36V116.19H73.12Z" transform="translate(-4 -27.56)"/><rect class="cls-5" x="22.11" y="156.15" width="10.14" height="10.14" transform="translate(-47.22 -13.9) rotate(-15.94)"/><path class="cls-6" d="M31,171.81,27.58,160l11.84-3.38,3.38,11.84Zm-2.72-11.47,3.09,10.81,10.8-3.09-3.08-10.81Z" transform="translate(-4 -27.56)"/><rect class="cls-5" x="25.62" y="107.06" width="10.14" height="10.14" transform="translate(-76.19 30.43) rotate(-46.94)"/><path class="cls-6" d="M23.55,120.83l8.41-9,9,8.41-8.41,9ZM32,112.59l-7.67,8.21,8.21,7.68,7.67-8.21Z" transform="translate(-4 -27.56)"/><path class="cls-6" d="M375.55,103.94H281.36V102H238.64v1.94H144.06a6.37,6.37,0,0,0-6.37,6.37h0v129a6.37,6.37,0,0,0,6.37,6.37H375.55a6.37,6.37,0,0,0,6.37-6.37v-129a6.37,6.37,0,0,0-6.37-6.37Z" transform="translate(-4 -27.56)"/><rect class="cls-5" x="142.23" y="87.64" width="227.15" height="128.14"/><circle class="cls-5" cx="255.61" cy="81.82" r="2.33"/><polygon class="cls-3" points="304.42 215.78 142.23 215.78 142.23 87.64 304.42 215.78"/><rect class="cls-6" x="308.61" y="156.75" width="21.22" height="4.43"/><rect class="cls-6" x="282.96" y="122.23" width="72.52" height="1.9"/><rect class="cls-6" x="282.96" y="128.25" width="72.52" height="1.9"/><rect class="cls-6" x="282.96" y="134.26" width="72.52" height="1.9"/><rect class="cls-6" x="282.96" y="140.28" width="72.52" height="1.9"/><rect class="cls-6" x="282.96" y="146.3" width="72.52" height="1.9"/><rect class="cls-7" x="346.61" y="90.24" width="8.87" height="8.87"/><path class="cls-6" d="M363.6,130.79H352.83V120H363.6Zm-10.3-.47h9.83v-9.83H353.3Z" transform="translate(-4 -27.56)"/><path class="cls-6" d="M388.3,241H366.13v-1.6a.32.32,0,0,0-.31-.32h-7.61a.32.32,0,0,0-.31.32h0V241h-4.75v-1.6a.32.32,0,0,0-.32-.32h-7.6a.33.33,0,0,0-.32.32h0V241h-4.75v-1.6a.32.32,0,0,0-.31-.32h-7.6a.32.32,0,0,0-.32.32h0V241h-4.75v-1.6a.32.32,0,0,0-.32-.32h-7.6a.32.32,0,0,0-.31.32h0V241H314.2v-1.6a.33.33,0,0,0-.32-.32h-7.6a.32.32,0,0,0-.32.32h0V241h-4.75v-1.6a.32.32,0,0,0-.32-.32h-7.6a.32.32,0,0,0-.31.32h0V241h-4.75v-1.6a.33.33,0,0,0-.32-.32H228.37a.32.32,0,0,0-.31.32h0V241h-4.75v-1.6a.33.33,0,0,0-.32-.32h-7.6a.32.32,0,0,0-.32.32h0V241h-4.75v-1.6a.32.32,0,0,0-.32-.32h-7.6a.32.32,0,0,0-.31.32h0V241h-4.75v-1.6a.33.33,0,0,0-.32-.32h-7.6a.32.32,0,0,0-.32.32h0V241h-4.75v-1.6a.32.32,0,0,0-.31-.32h-7.61a.32.32,0,0,0-.31.32h0V241h-4.75v-1.6a.32.32,0,0,0-.32-.32h-7.6a.33.33,0,0,0-.32.32h0V241h-4.75v-1.6a.32.32,0,0,0-.31-.32h-7.6a.32.32,0,0,0-.32.32h0V241H135.58a7.6,7.6,0,0,0-7.6,7.6v3.44a7.6,7.6,0,0,0,7.6,7.6H388.3a7.6,7.6,0,0,0,7.6-7.6v-3.44A7.6,7.6,0,0,0,388.3,241Z" transform="translate(-4 -27.56)"/><text class="cls-8" transform="translate(145.15 182.43)">CMS</text><rect class="cls-2" x="91.48" y="1.45" width="35.43" height="47.61"/><rect class="cls-6" x="85.39" width="47.61" height="18.9"/><rect class="cls-6" x="85.39" y="21.08" width="47.61" height="18.9"/><rect class="cls-6" x="85.39" y="42.16" width="47.61" height="18.9"/><rect class="cls-5" x="85.39" y="8.01" width="47.61" height="2.91"/><rect class="cls-5" x="85.39" y="29.09" width="47.61" height="2.91"/><rect class="cls-5" x="85.39" y="50.17" width="47.61" height="2.91"/><circle class="cls-5" cx="123.73" cy="2.73" r="1.09"/><circle class="cls-5" cx="127.55" cy="2.73" r="1.09"/><circle class="cls-5" cx="131.36" cy="2.73" r="1.09"/><circle class="cls-5" cx="123.73" cy="23.44" r="1.09"/><circle class="cls-5" cx="127.55" cy="23.44" r="1.09"/><circle class="cls-5" cx="131.36" cy="23.44" r="1.09"/><circle class="cls-5" cx="123.73" cy="44.16" r="1.09"/><circle class="cls-5" cx="127.55" cy="44.16" r="1.09"/><circle class="cls-5" cx="131.36" cy="44.16" r="1.09"/><rect class="cls-9" x="307.69" y="197.44" width="86.36" height="48.58"/><polygon class="cls-10" points="362.17 221.73 343.34 210.86 343.34 232.6 362.17 221.73 343.34 210.86 343.34 232.6 362.17 221.73"/><polygon class="cls-11" points="352.66 113.66 305 113.66 305 58.31 312.2 50.33 352.66 50.33 352.66 113.66"/><polygon class="cls-12" points="351.92 111.98 305.84 111.98 305.84 58.75 312.8 51.07 351.92 51.07 351.92 111.98"/><rect class="cls-13" x="310.34" y="57.64" width="22.45" height="3.79"/><rect class="cls-13" x="310.39" y="68" width="16.45" height="3.79"/><rect class="cls-5" x="310.39" y="83.57" width="36.9" height="13.89"/><rect class="cls-14" x="338.92" y="57.69" width="8.36" height="3.79"/><rect class="cls-14" x="338.92" y="63.59" width="8.36" height="3.79"/><polygon class="cls-15" points="313.52 51.07 313.52 59.48 305.84 59.48 305.84 58.75 312.79 51.07 313.52 51.07"/><polygon class="cls-16" points="305.82 58.75 312.79 51.07 312.79 58.75 305.82 58.75"/><polygon class="cls-17" points="367.28 108.4 319.62 108.4 319.62 53.05 326.82 45.07 367.28 45.07 367.28 108.4"/><polygon class="cls-12" points="366.54 106.72 320.46 106.72 320.46 53.49 327.43 45.81 366.54 45.81 366.54 106.72"/><rect class="cls-13" x="324.96" y="52.38" width="22.45" height="3.79"/><rect class="cls-13" x="325.01" y="62.74" width="16.45" height="3.79"/><rect class="cls-5" x="325.01" y="78.31" width="36.9" height="13.89"/><rect class="cls-14" x="353.55" y="52.43" width="8.36" height="3.79"/><rect class="cls-14" x="353.55" y="58.33" width="8.36" height="3.79"/><polygon class="cls-18" points="328.14 45.81 328.14 54.22 320.46 54.22 320.46 53.49 327.41 45.81 328.14 45.81"/><polygon class="cls-16" points="320.45 53.49 327.41 45.81 327.41 53.49 320.45 53.49"/><polygon class="cls-19" points="381.59 103.77 333.93 103.77 333.93 48.43 341.13 40.44 381.59 40.44 381.59 103.77"/><polygon class="cls-10" points="380.85 102.09 334.77 102.09 334.77 48.86 341.73 41.18 380.85 41.18 380.85 102.09"/><rect class="cls-13" x="339.27" y="47.75" width="22.45" height="3.79"/><rect class="cls-13" x="339.32" y="58.12" width="16.45" height="3.79"/><rect class="cls-5" x="339.32" y="73.68" width="36.9" height="13.89"/><rect class="cls-13" x="367.85" y="47.81" width="8.36" height="3.79"/><rect class="cls-13" x="367.85" y="53.7" width="8.36" height="3.79"/><rect class="cls-13" x="367.85" y="59.59" width="8.36" height="3.79"/><polygon class="cls-20" points="342.45 41.18 342.45 49.59 334.77 49.59 334.77 48.86 341.71 41.18 342.45 41.18"/><polygon class="cls-16" points="334.75 48.86 341.71 41.18 341.71 48.86 334.75 48.86"/><g class="cls-21"><circle class="cls-22" cx="164.5" cy="99.94" r="30.5"/></g><circle class="cls-14" cx="164.56" cy="99.75" r="29.86"/><path class="cls-5" d="M168.59,157.28A29.74,29.74,0,0,0,185,152.37c-1.1-6-5.29-6.36-5.29-6.36H156.62s-4,.33-5.18,5.86A29.73,29.73,0,0,0,168.59,157.28Z" transform="translate(-4 -27.56)"/><circle class="cls-23" cx="164.27" cy="99.12" r="14.41"/><path class="cls-3" d="M163.62,138.68h9.23v7.39a4.6,4.6,0,0,1-4.61,4.61h0a4.61,4.61,0,0,1-4.62-4.61h0v-7.39Z" transform="translate(-4 -27.56)"/><path class="cls-24" d="M163.91,138.34h8.65a.29.29,0,0,1,.3.29h0v7.09a4.62,4.62,0,0,1-4.62,4.62h0a4.62,4.62,0,0,1-4.62-4.62h0v-7.09A.29.29,0,0,1,163.91,138.34Z" transform="translate(-4 -27.56)"/><path class="cls-3" d="M163.64,142.17a13.26,13.26,0,0,0,9.23,0v-1.13h-9.23Z" transform="translate(-4 -27.56)"/><circle class="cls-24" cx="164.27" cy="101.99" r="13.24"/><path class="cls-3" d="M158.84,117.51s5.58,11.32,21.32,4.75l-3.67-5.75L170,114.18Z" transform="translate(-4 -27.56)"/><path class="cls-23" d="M158.84,117.34s5.58,11.33,21.32,4.75l-3.67-5.75L170,114Z" transform="translate(-4 -27.56)"/><path class="cls-23" d="M158.79,116.58a7.67,7.67,0,0,1,1.9-3.09c2.6-2.57,6.87-3.11,9.06-6a1.72,1.72,0,0,1-.79,2.42c2.1,0,4.53-.2,5.72-1.92a3.92,3.92,0,0,1-.66,4.14c1.85.09,3.84,1.34,4,3.2a3.71,3.71,0,0,1-1.71,3.12,9.42,9.42,0,0,1-3.46,1.3C169.27,120.48,156.49,123.75,158.79,116.58Z" transform="translate(-4 -27.56)"/><ellipse class="cls-24" cx="151.03" cy="101.98" rx="1.23" ry="2.31"/><ellipse class="cls-24" cx="177.5" cy="101.98" rx="1.23" ry="2.31"/></svg>