<svg id="Layer_1" data-name="Layer 1" xmlns="http://www.w3.org/2000/svg" viewBox="0 0 373.81 372.84"><defs><style>.cls-1{fill:#3f3d56;}.cls-2{fill:#f2f2f2;}.cls-3{fill:#6c63ff;}.cls-4{opacity:0.1;isolation:isolate;}.cls-5{font-size:343px;fill:#d61212;font-family:MyriadPro-Regular, Myriad Pro;}</style></defs><title>what-2</title><rect class="cls-1" y="71.2" width="260.01" height="204"/><path class="cls-2" d="M197.24,75.88H133.1a.78.78,0,0,1-.78-.78.77.77,0,0,1,.77-.78h64.15a.78.78,0,0,1,0,1.56Z" transform="translate(-70.19 23.2)"/><path class="cls-2" d="M267.46,84.44H166.57a.78.78,0,0,1,0-1.56H267.46a.78.78,0,0,1,0,1.56Z" transform="translate(-70.19 23.2)"/><path class="cls-2" d="M197.55,93H133.41a.77.77,0,0,1-.78-.77.78.78,0,0,1,.78-.78h64.14a.78.78,0,0,1,.78.78A.77.77,0,0,1,197.55,93Z" transform="translate(-70.19 23.2)"/><path class="cls-2" d="M267.46,93.16H203.31a.78.78,0,0,1,0-1.56h64.15a.78.78,0,0,1,0,1.56Z" transform="translate(-70.19 23.2)"/><path class="cls-2" d="M197.71,101.57H133.56a.78.78,0,0,1,0-1.56h64.15a.78.78,0,1,1,0,1.56Z" transform="translate(-70.19 23.2)"/><path class="cls-2" d="M197.86,110.13H133.72a.78.78,0,0,1,0-1.56h64.14a.78.78,0,1,1,0,1.56Z" transform="translate(-70.19 23.2)"/><path class="cls-2" d="M227,76H208.61a.77.77,0,0,1-.78-.77.78.78,0,0,1,.78-.78H227a.78.78,0,0,1,.78.78A.77.77,0,0,1,227,76Z" transform="translate(-70.19 23.2)"/><path class="cls-2" d="M227,101.57H208.61a.78.78,0,0,1,0-1.56H227a.78.78,0,1,1,0,1.56Z" transform="translate(-70.19 23.2)"/><path class="cls-2" d="M227,110H208.61a.78.78,0,0,1-.78-.78.77.77,0,0,1,.77-.78H227a.77.77,0,0,1,.78.77.8.8,0,0,1-.78.79Z" transform="translate(-70.19 23.2)"/><path class="cls-2" d="M257.81,110H239.43a.79.79,0,0,1-.77-.79.78.78,0,0,1,.77-.77h18.38a.77.77,0,0,1,.78.77.8.8,0,0,1-.78.79Z" transform="translate(-70.19 23.2)"/><path class="cls-2" d="M151.31,84.44H132.94a.78.78,0,0,1,0-1.56h18.37a.78.78,0,0,1,0,1.56Z" transform="translate(-70.19 23.2)"/><path class="cls-2" d="M197.32,202H133.17a.78.78,0,0,1,0-1.56h64.15a.78.78,0,0,1,0,1.56Z" transform="translate(-70.19 23.2)"/><path class="cls-2" d="M197,219.12H132.86a.78.78,0,0,1,0-1.56H197a.78.78,0,0,1,0,1.56Z" transform="translate(-70.19 23.2)"/><path class="cls-2" d="M197.16,227.68H133a.78.78,0,0,1,0-1.56h64.14a.78.78,0,0,1,0,1.56Z" transform="translate(-70.19 23.2)"/><path class="cls-2" d="M224.57,219.27H206.19a.78.78,0,0,1,0-1.56h18.38a.78.78,0,0,1,0,1.56Z" transform="translate(-70.19 23.2)"/><path class="cls-2" d="M224.57,227.68H206.19a.78.78,0,0,1,0-1.56h18.38a.78.78,0,0,1,0,1.56Z" transform="translate(-70.19 23.2)"/><path class="cls-2" d="M255.39,219.27H237a.78.78,0,1,1,0-1.56h18.37a.78.78,0,0,1,0,1.56Z" transform="translate(-70.19 23.2)"/><path class="cls-2" d="M267.54,210.55H166.65a.78.78,0,0,1-.78-.78.77.77,0,0,1,.78-.77H267.54a.77.77,0,0,1,.78.77A.78.78,0,0,1,267.54,210.55Z" transform="translate(-70.19 23.2)"/><path class="cls-2" d="M151.39,210.55H133a.78.78,0,0,1-.78-.78A.77.77,0,0,1,133,209h18.37a.77.77,0,0,1,.78.77A.78.78,0,0,1,151.39,210.55Z" transform="translate(-70.19 23.2)"/><path class="cls-2" d="M267.54,236.4H166.65a.78.78,0,1,1,0-1.56H267.54a.78.78,0,1,1,0,1.56Z" transform="translate(-70.19 23.2)"/><path class="cls-2" d="M151.39,236.4H133a.78.78,0,1,1,0-1.56h18.37a.78.78,0,0,1,0,1.56Z" transform="translate(-70.19 23.2)"/><polygon class="cls-3" points="111.64 153.89 86.72 178.49 111.64 203.09 117.24 197.48 98.4 178.64 117.4 159.65 111.64 153.89"/><polygon class="cls-3" points="148.38 153.89 173.29 178.49 148.38 203.09 142.77 197.48 161.61 178.64 142.62 159.65 148.38 153.89"/><circle class="cls-3" cx="6.92" cy="76.39" r="3.11"/><circle class="cls-3" cx="15.21" cy="76.39" r="3.11"/><circle class="cls-3" cx="23.51" cy="76.39" r="3.11"/><rect class="cls-4" y="81.58" width="260.01" height="1.04"/><text class="cls-5" transform="translate(27.66 287.09)">X</text></svg>