<svg id="Layer_1" data-name="Layer 1" xmlns="http://www.w3.org/2000/svg" viewBox="0 0 355.44 230.02"><defs><style>.cls-1{fill:#e6e6e6;}.cls-2{fill:#fff;}.cls-3{fill:#6c63ff;}.cls-4{fill:#ccc;}.cls-5{fill:#ffb9b9;}.cls-6{fill:#2f2e41;}</style></defs><title>why-4</title><rect class="cls-1" x="108.56" y="0.14" width="246.89" height="158.12"/><rect class="cls-2" x="115.62" y="19.97" width="232.77" height="128.93"/><rect class="cls-3" x="108.45" width="246.89" height="10.49"/><circle class="cls-2" cx="116.24" cy="5.36" r="1.94"/><circle class="cls-2" cx="123.62" cy="5.36" r="1.94"/><circle class="cls-2" cx="131" cy="5.36" r="1.94"/><path class="cls-4" d="M305.08,66.71H229.29a.68.68,0,0,1-.57-.76.66.66,0,0,1,.57-.57h75.79a.67.67,0,0,1,.58.75A.68.68,0,0,1,305.08,66.71Z" transform="translate(-22.56 -34.66)"/><path class="cls-4" d="M252.57,74H204.38a.66.66,0,0,1-.57-.75.67.67,0,0,1,.57-.58h48.19a.68.68,0,0,1,.58.76A.67.67,0,0,1,252.57,74Z" transform="translate(-22.56 -34.66)"/><path class="cls-4" d="M305.08,74.18H256.89a.68.68,0,0,1-.57-.76.67.67,0,0,1,.57-.58h48.19a.68.68,0,0,1,0,1.34Z" transform="translate(-22.56 -34.66)"/><path class="cls-4" d="M252.68,81.38H204.5a.67.67,0,0,1,0-1.33h48.18a.67.67,0,0,1,0,1.33Z" transform="translate(-22.56 -34.66)"/><path class="cls-4" d="M252.8,88.72H204.62a.68.68,0,0,1,0-1.34H252.8a.68.68,0,0,1,0,1.34Z" transform="translate(-22.56 -34.66)"/><path class="cls-4" d="M274.67,81.38h-13.8a.67.67,0,0,1,0-1.33h13.8a.67.67,0,0,1,.58.75.68.68,0,0,1-.58.58Z" transform="translate(-22.56 -34.66)"/><path class="cls-4" d="M274.67,88.58h-13.8a.67.67,0,0,1-.58-.75.68.68,0,0,1,.58-.58h13.8a.67.67,0,0,1,0,1.33Z" transform="translate(-22.56 -34.66)"/><path class="cls-4" d="M297.83,88.58H284a.67.67,0,0,1,0-1.33h13.8a.69.69,0,0,1,.58.75A.67.67,0,0,1,297.83,88.58Z" transform="translate(-22.56 -34.66)"/><path class="cls-4" d="M217.83,66.71H204a.68.68,0,0,1-.57-.76.65.65,0,0,1,.57-.57h13.8a.66.66,0,0,1,.58.75A.67.67,0,0,1,217.83,66.71Z" transform="translate(-22.56 -34.66)"/><path class="cls-4" d="M252.39,150.82H204.21a.68.68,0,0,1,0-1.34h48.18a.68.68,0,0,1,0,1.34Z" transform="translate(-22.56 -34.66)"/><path class="cls-4" d="M252.16,165.49H204a.68.68,0,0,1-.58-.76.67.67,0,0,1,.58-.58h48.18a.68.68,0,0,1,0,1.34Z" transform="translate(-22.56 -34.66)"/><path class="cls-4" d="M252.28,172.82H204.09a.67.67,0,0,1,0-1.33h48.19a.67.67,0,0,1,.57.75.66.66,0,0,1-.57.58Z" transform="translate(-22.56 -34.66)"/><path class="cls-4" d="M272.86,165.62h-13.8a.67.67,0,0,1,0-1.33h13.8a.67.67,0,0,1,.58.75.68.68,0,0,1-.58.58Z" transform="translate(-22.56 -34.66)"/><path class="cls-4" d="M272.86,172.82h-13.8a.67.67,0,0,1-.58-.75.68.68,0,0,1,.58-.58h13.8a.67.67,0,0,1,0,1.33Z" transform="translate(-22.56 -34.66)"/><path class="cls-4" d="M296,165.62h-13.8a.69.69,0,0,1-.58-.75.67.67,0,0,1,.58-.58H296a.67.67,0,0,1,0,1.33Z" transform="translate(-22.56 -34.66)"/><path class="cls-4" d="M305.14,158.15H229.35a.67.67,0,0,1,0-1.33h75.79a.67.67,0,0,1,0,1.33Z" transform="translate(-22.56 -34.66)"/><path class="cls-4" d="M217.89,158.15h-13.8a.67.67,0,0,1,0-1.33h13.8a.67.67,0,0,1,.58.75A.68.68,0,0,1,217.89,158.15Z" transform="translate(-22.56 -34.66)"/><polygon class="cls-1" points="218.2 65.9 199.49 84.38 218.2 102.86 222.41 98.65 208.26 84.5 222.53 70.23 218.2 65.9"/><polygon class="cls-1" points="245.8 65.9 264.51 84.38 245.8 102.86 241.59 98.65 255.74 84.5 241.47 70.23 245.8 65.9"/><polygon class="cls-3" points="218.2 65.9 199.49 84.38 218.2 102.86 222.41 98.65 208.26 84.5 222.53 70.23 218.2 65.9"/><polygon class="cls-3" points="245.8 65.9 264.51 84.38 245.8 102.86 241.59 98.65 255.74 84.5 241.47 70.23 245.8 65.9"/><path class="cls-1" d="M209.52,255.13c5.82,7.8,17.91,8.62,17.91,8.62s2.64-11.82-3.18-19.62-17.91-8.62-17.91-8.62S203.7,247.34,209.52,255.13Z" transform="translate(-22.56 -34.66)"/><path class="cls-1" d="M239.18,258.06c-3.84,5.15-11.82,5.69-11.82,5.69s-1.74-7.8,2.1-12.94,11.81-5.69,11.81-5.69S243,252.92,239.18,258.06Z" transform="translate(-22.56 -34.66)"/><polygon class="cls-5" points="57.44 186.13 57.44 206.37 51.66 206.37 47.81 185.17 57.44 186.13"/><polygon class="cls-5" points="11.66 186.13 11.66 206.37 5.88 206.37 2.03 185.17 11.66 186.13"/><path class="cls-5" d="M64.73,71.6s-9.3-6.68-10.46-3.49,7,9,7,9Z" transform="translate(-22.56 -34.66)"/><path class="cls-6" d="M31.77,80.17c0,11.54,5,11.9,13.07,11.9s16.26-.36,16.26-11.9S54.53,59.26,46.43,59.26,31.77,68.62,31.77,80.17Z" transform="translate(-22.56 -34.66)"/><path class="cls-5" d="M51.66,80S50.5,88.73,56,89.31s-18,2.33-18,2.33,6.1-5.52,2.9-9.88S51.66,80,51.66,80Z" transform="translate(-22.56 -34.66)"/><path class="cls-6" d="M81,235.67l2,17.13s10.16,12.49,3.78,11.61-10.46.19-10.46-1-.15-5.31-1-5.31-1.59,6.55-1.59,6.55a12.16,12.16,0,0,1-2.91-.49c-.29-.29-.58-16.91-.58-16.91s-.87-4.93.87-7.26a6.33,6.33,0,0,0,1.46-4.35Z" transform="translate(-22.56 -34.66)"/><path class="cls-6" d="M34.73,235.48l2,17.13s10.16,12.49,3.77,11.62-10.45.18-10.45-1-.15-5.31-1-5.31-1.59,6.55-1.59,6.55a12.16,12.16,0,0,1-2.91-.49c-.29-.29-.58-16.91-.58-16.91s-.87-4.93.87-7.26a6.33,6.33,0,0,0,1.46-4.35Z" transform="translate(-22.56 -34.66)"/><path class="cls-6" d="M65.89,133.74s9.29,26.43,9.87,32.23-.58,25.56-.58,25.56,8.42,34.12,6.68,34.41-11.45,1.66-11.74.21-1.32-3.7-1-4.57-.87-4.06-.87-5.81-4.07-10.88-3.78-12.34-4.94-22.94-5.81-24.68-3.2-13.94-3.2-13.94S42.37,200.53,42.08,201.4s-1.46,2.32-.88,2.61-.87,2.33-.87,2.33-3,12-3,12.63.59,7.15-.58,7.44-13,.27-13.6-1.76,6.16-25.57,6.16-25.57,4.94-14.81,3.48-18.59,1.46-26.42,2.62-28.16,1.45-12.2,1.45-12.2Z" transform="translate(-22.56 -34.66)"/><circle class="cls-5" cx="24.02" cy="40.86" r="9.29"/><path class="cls-3" d="M51.66,87.28s-10.46.29-11-.58-15.1,2-15.1,7.84S34,123,34,123s3.19,16.26,2.32,18,32.23-3.77,31.36-6.68-5.81-9.29.58-14.81a36.56,36.56,0,0,0,9-11.32l-7.55-20s-7.55-1.16-9.29,0S51.66,87.28,51.66,87.28Z" transform="translate(-22.56 -34.66)"/><path class="cls-3" d="M75.18,109.64l2-1.45S96.09,88.44,91.15,84.67,79,77.41,75.47,77.12a12.51,12.51,0,0,1-6.39-2.91s-3.77-6.68-6.68-2.32-6.1,5.81-2,7.26,6.68.87,8.71,2.32,9.87,3.78,6.39,4.65a30.79,30.79,0,0,0-5.81,2l-3.77,6.68Z" transform="translate(-22.56 -34.66)"/><path class="cls-5" d="M42.37,158.71s7.55,11,2,10.46S36.27,161,36.27,161Z" transform="translate(-22.56 -34.66)"/><path class="cls-3" d="M27.56,93.09l-2,1.45s-6.67,36.59,0,46.17,7.26,9,7.26,9,1.17-.87,1.75,4.94-.29,8.13,1.45,8.13,9.58-1.74,9-3.19-4.36-9.88-4.65-11.91S38.59,141,38,138.39s2.61-4.07,1.16-9.59-3.48-15.39-3.48-17.42S27.56,93.09,27.56,93.09Z" transform="translate(-22.56 -34.66)"/><path class="cls-6" d="M37.57,67.24c0,3.13,4.3,5.67,9.59,5.67s10.16,1.67,10.16-1.46-4.87-9.87-10.16-9.87S37.57,64.12,37.57,67.24Z" transform="translate(-22.56 -34.66)"/><path class="cls-6" d="M61,82.12s.39,10.53-10.07,9.95,1.41-9,1.41-9Z" transform="translate(-22.56 -34.66)"/></svg>