<svg id="Layer_1" data-name="Layer 1" xmlns="http://www.w3.org/2000/svg" xmlns:xlink="http://www.w3.org/1999/xlink" viewBox="0 0 306.34 255.77"><defs><style>.cls-1{fill:url(#linear-gradient);}.cls-2,.cls-21{fill:#fff;}.cls-3{fill:#64ffda;}.cls-4{opacity:0.7;}.cls-5{opacity:0.6;}.cls-6{opacity:0.5;}.cls-7{opacity:0.4;}.cls-8{opacity:0.3;}.cls-9{fill:#6c63ff;}.cls-10{fill:url(#linear-gradient-2);}.cls-11{fill:url(#linear-gradient-3);}.cls-12{fill:url(#linear-gradient-4);}.cls-13,.cls-14,.cls-15,.cls-16{fill:none;stroke:#6c63ff;stroke-linecap:round;stroke-linejoin:round;stroke-width:4px;}.cls-14{stroke-dasharray:12.52 33.38;}.cls-15{stroke-dasharray:11.93 31.8;}.cls-16{stroke-dasharray:11.55 30.79;}.cls-17{fill:#e0e0e0;}.cls-18{fill:url(#linear-gradient-5);}.cls-19{fill:#f5f5f5;}.cls-20{fill:url(#linear-gradient-6);}.cls-21{opacity:0.2;isolation:isolate;}</style><linearGradient id="linear-gradient" x1="125.64" y1="124.55" x2="125.64" y2="280" gradientTransform="matrix(1, 0, 0, -1, -56, 280)" gradientUnits="userSpaceOnUse"><stop offset="0" stop-color="gray" stop-opacity="0.25"/><stop offset="0.54" stop-color="gray" stop-opacity="0.12"/><stop offset="1" stop-color="gray" stop-opacity="0.1"/></linearGradient><linearGradient id="linear-gradient-2" x1="173.91" y1="239.29" x2="173.91" y2="266.44" xlink:href="#linear-gradient"/><linearGradient id="linear-gradient-3" x1="173.91" y1="188.8" x2="173.91" y2="215.95" xlink:href="#linear-gradient"/><linearGradient id="linear-gradient-4" x1="173.91" y1="138.64" x2="173.91" y2="165.79" xlink:href="#linear-gradient"/><linearGradient id="linear-gradient-5" x1="279.97" y1="24.23" x2="279.97" y2="29.99" xlink:href="#linear-gradient"/><linearGradient id="linear-gradient-6" x1="428.33" y1="-16.07" x2="428.33" y2="90.68" gradientTransform="matrix(1, 0, 0, -1, -148, 229.38)" xlink:href="#linear-gradient"/></defs><title>why-3</title><rect class="cls-1" width="139.28" height="155.45"/><rect class="cls-2" x="2.3" y="103.79" width="134.67" height="48.28"/><rect class="cls-3" x="13.35" y="115.24" width="5.22" height="24.74"/><g class="cls-4"><rect class="cls-3" x="23.66" y="115.24" width="5.22" height="24.74"/></g><g class="cls-5"><rect class="cls-3" x="33.96" y="115.24" width="5.22" height="24.74"/></g><g class="cls-6"><rect class="cls-3" x="44.26" y="115.24" width="5.22" height="24.74"/></g><g class="cls-6"><rect class="cls-3" x="54.57" y="115.24" width="5.22" height="24.74"/></g><g class="cls-7"><rect class="cls-3" x="64.87" y="115.24" width="5.22" height="24.74"/></g><g class="cls-8"><rect class="cls-3" x="75.17" y="115.24" width="5.22" height="24.74"/></g><circle class="cls-9" cx="117.91" cy="127.45" r="12.59"/><rect class="cls-2" x="2.3" y="53.63" width="134.67" height="48.28"/><rect class="cls-3" x="13.35" y="65.08" width="5.22" height="24.74"/><g class="cls-4"><rect class="cls-3" x="23.66" y="65.08" width="5.22" height="24.74"/></g><g class="cls-5"><rect class="cls-3" x="33.96" y="65.08" width="5.22" height="24.74"/></g><g class="cls-6"><rect class="cls-3" x="44.26" y="65.08" width="5.22" height="24.74"/></g><g class="cls-6"><rect class="cls-3" x="54.57" y="65.08" width="5.22" height="24.74"/></g><g class="cls-7"><rect class="cls-3" x="64.87" y="65.08" width="5.22" height="24.74"/></g><g class="cls-8"><rect class="cls-3" x="75.17" y="65.08" width="5.22" height="24.74"/></g><circle class="cls-9" cx="117.91" cy="77.29" r="12.59"/><rect class="cls-2" x="2.3" y="3.47" width="134.67" height="48.28"/><rect class="cls-3" x="13.35" y="14.93" width="5.22" height="24.74"/><g class="cls-4"><rect class="cls-3" x="23.66" y="14.93" width="5.22" height="24.74"/></g><g class="cls-5"><rect class="cls-3" x="33.96" y="14.93" width="5.22" height="24.74"/></g><g class="cls-6"><rect class="cls-3" x="44.26" y="14.93" width="5.22" height="24.74"/></g><g class="cls-6"><rect class="cls-3" x="54.57" y="14.93" width="5.22" height="24.74"/></g><g class="cls-7"><rect class="cls-3" x="64.87" y="14.93" width="5.22" height="24.74"/></g><g class="cls-8"><rect class="cls-3" x="75.17" y="14.93" width="5.22" height="24.74"/></g><circle class="cls-10" cx="117.91" cy="27.14" r="13.58"/><circle class="cls-11" cx="117.91" cy="77.63" r="13.58"/><circle class="cls-12" cx="117.91" cy="127.78" r="13.58"/><circle class="cls-9" cx="117.91" cy="27.14" r="12.59"/><g class="cls-4"><line class="cls-13" x1="156.22" y1="53.77" x2="158.25" y2="53.77"/><line class="cls-14" x1="169.56" y1="53.77" x2="226.13" y2="53.77"/><polyline class="cls-13" points="231.79 53.77 233.82 53.77 233.82 55.8"/><line class="cls-15" x1="233.82" y1="66.58" x2="233.82" y2="105.65"/><line class="cls-13" x1="233.82" y1="111.04" x2="233.82" y2="113.07"/></g><g class="cls-4"><line class="cls-13" x1="124.56" y1="207.28" x2="122.53" y2="207.27"/><line class="cls-14" x1="111.22" y1="207.21" x2="54.65" y2="206.94"/><polyline class="cls-13" points="48.99 206.92 46.96 206.91 46.97 204.88"/><line class="cls-16" x1="47.04" y1="194.44" x2="47.2" y2="170.97"/><line class="cls-13" x1="47.23" y1="165.75" x2="47.25" y2="163.72"/></g><path class="cls-17" d="M300.4,235.64s4,27.28,27.88,36.37H231.7c23.84-9.09,27.88-36.37,27.88-36.37Z" transform="translate(-56 -22)"/><rect class="cls-18" x="175.23" y="250.01" width="97.48" height="5.76"/><rect class="cls-19" x="175.71" y="250.01" width="96.56" height="4.45"/><path class="cls-20" d="M358.7,138.7H202a3.64,3.64,0,0,0-3.64,3.64h0v98.75a4.36,4.36,0,0,0,4.35,4.36H358a4.36,4.36,0,0,0,4.36-4.36V142.34a3.64,3.64,0,0,0-3.64-3.64Z" transform="translate(-56 -22)"/><path class="cls-2" d="M203.94,140.19H356.05a3.64,3.64,0,0,1,3.64,3.64h0v84.54H200.3V143.84a3.65,3.65,0,0,1,3.64-3.65Z" transform="translate(-56 -22)"/><path class="cls-19" d="M355.33,242.92H204.66a4.36,4.36,0,0,1-4.36-4.36V228.37H359.69v10.19A4.36,4.36,0,0,1,355.33,242.92Z" transform="translate(-56 -22)"/><rect class="cls-9" x="152.18" y="125.33" width="144.24" height="71.18"/><polygon class="cls-21" points="157.88 130.06 296.51 130.06 296.51 125.31 152.27 125.31 152.27 196.5 157.88 196.5 157.88 130.06"/></svg>