<svg id="Layer_1" data-name="Layer 1" xmlns="http://www.w3.org/2000/svg" xmlns:xlink="http://www.w3.org/1999/xlink" viewBox="0 0 374 290"><defs><style>.cls-1{fill:#3f3d56;}.cls-2{fill:#f2f2f2;}.cls-3{fill:#6c63ff;}.cls-4{opacity:0.1;isolation:isolate;}.cls-5{fill:url(#linear-gradient);}.cls-6{fill:#fafafa;}.cls-7{fill:#e0e0e0;}.cls-8{fill:#f5f5f5;}.cls-9{fill:url(#linear-gradient-2);}.cls-10{fill:#eee;}.cls-11{fill:url(#linear-gradient-3);}.cls-12{fill:url(#linear-gradient-4);}.cls-13{fill:url(#linear-gradient-5);}.cls-14{fill:#fff;}.cls-15{fill:url(#linear-gradient-6);}.cls-16{fill:#2f2e41;}</style><linearGradient id="linear-gradient" x1="36.41" y1="134.78" x2="36.41" y2="207.63" gradientTransform="matrix(1, 0, 0, -1, -9, 294)" gradientUnits="userSpaceOnUse"><stop offset="0.01" stop-color="gray" stop-opacity="0.25"/><stop offset="0.54" stop-color="gray" stop-opacity="0.12"/><stop offset="1" stop-color="gray" stop-opacity="0.1"/></linearGradient><linearGradient id="linear-gradient-2" x1="14.39" y1="197.1" x2="14.39" y2="206.78" gradientTransform="matrix(1, 0, 0, -1, -9, 294)" gradientUnits="userSpaceOnUse"><stop offset="0" stop-color="#b3b3b3" stop-opacity="0.25"/><stop offset="0.54" stop-color="#b3b3b3" stop-opacity="0.1"/><stop offset="1" stop-color="#b3b3b3" stop-opacity="0.05"/></linearGradient><linearGradient id="linear-gradient-3" x1="53.23" y1="140.83" x2="53.23" y2="213.68" xlink:href="#linear-gradient"/><linearGradient id="linear-gradient-4" x1="31.2" y1="203.15" x2="31.2" y2="212.83" xlink:href="#linear-gradient-2"/><linearGradient id="linear-gradient-5" x1="69.68" y1="146.15" x2="69.68" y2="219" xlink:href="#linear-gradient"/><linearGradient id="linear-gradient-6" x1="47.66" y1="208.47" x2="47.66" y2="218.15" xlink:href="#linear-gradient-2"/></defs><title>what-4</title><image width="768" height="768" transform="translate(95 95) scale(0.25)" xlink:href="../../../../../../../Downloads/WordPress_blue_logo.svg.png"/><rect class="cls-1" x="287.19" y="80.89" width="86.81" height="68.11"/><path class="cls-2" d="M338.61,98.2H317.19a.26.26,0,0,1-.26-.26.26.26,0,0,1,.26-.26h21.42a.26.26,0,0,1,.26.26A.26.26,0,0,1,338.61,98.2Z" transform="translate(-9 -8)"/><path class="cls-2" d="M362.05,101.06H328.37a.26.26,0,0,1,0-.52h33.68a.26.26,0,1,1,0,.52Z" transform="translate(-9 -8)"/><path class="cls-2" d="M338.71,103.92H317.3a.26.26,0,0,1,0-.52h21.41a.26.26,0,0,1,0,.52Z" transform="translate(-9 -8)"/><path class="cls-2" d="M362.05,104H340.64a.26.26,0,0,1,0-.52h21.41a.26.26,0,1,1,0,.52Z" transform="translate(-9 -8)"/><path class="cls-2" d="M338.77,106.78H317.35a.26.26,0,0,1-.26-.26.26.26,0,0,1,.26-.26h21.42a.26.26,0,0,1,.26.26A.26.26,0,0,1,338.77,106.78Z" transform="translate(-9 -8)"/><path class="cls-2" d="M338.82,109.64H317.4a.26.26,0,0,1-.26-.26.26.26,0,0,1,.26-.26h21.42a.26.26,0,0,1,.26.26A.26.26,0,0,1,338.82,109.64Z" transform="translate(-9 -8)"/><path class="cls-2" d="M348.54,98.25H342.4a.26.26,0,0,1-.26-.26.26.26,0,0,1,.26-.26h6.14a.26.26,0,0,1,.26.26A.26.26,0,0,1,348.54,98.25Z" transform="translate(-9 -8)"/><path class="cls-2" d="M348.54,106.78H342.4a.26.26,0,0,1-.26-.26.26.26,0,0,1,.26-.26h6.14a.26.26,0,0,1,.26.26A.26.26,0,0,1,348.54,106.78Z" transform="translate(-9 -8)"/><path class="cls-2" d="M348.54,109.58H342.4a.26.26,0,0,1-.26-.25.27.27,0,0,1,.26-.27h6.14a.26.26,0,0,1,.26.26.26.26,0,0,1-.26.26Z" transform="translate(-9 -8)"/><path class="cls-2" d="M358.83,109.58H352.7a.25.25,0,0,1-.26-.26.26.26,0,0,1,.26-.26h6.13a.26.26,0,0,1,.26.26.26.26,0,0,1-.26.26Z" transform="translate(-9 -8)"/><path class="cls-2" d="M323.28,101.06h-6.14a.26.26,0,0,1,0-.52h6.14a.26.26,0,0,1,0,.52Z" transform="translate(-9 -8)"/><path class="cls-2" d="M338.64,140.3H317.22A.26.26,0,0,1,317,140a.26.26,0,0,1,.26-.26h21.42a.26.26,0,0,1,.26.26A.26.26,0,0,1,338.64,140.3Z" transform="translate(-9 -8)"/><path class="cls-2" d="M338.53,146H317.12a.26.26,0,0,1,0-.52h21.41a.26.26,0,0,1,0,.52Z" transform="translate(-9 -8)"/><path class="cls-2" d="M338.58,148.88H317.17a.26.26,0,0,1,0-.52h21.41a.26.26,0,0,1,0,.52Z" transform="translate(-9 -8)"/><path class="cls-2" d="M347.73,146.07H341.6a.25.25,0,0,1-.26-.26.26.26,0,0,1,.26-.26h6.13a.26.26,0,0,1,.26.26.26.26,0,0,1-.26.26Z" transform="translate(-9 -8)"/><path class="cls-2" d="M347.73,148.88H341.6a.26.26,0,1,1,0-.52h6.13a.26.26,0,0,1,0,.52Z" transform="translate(-9 -8)"/><path class="cls-2" d="M358,146.07h-6.13a.26.26,0,0,1-.26-.26.26.26,0,0,1,.26-.26H358a.26.26,0,0,1,.26.26A.25.25,0,0,1,358,146.07Z" transform="translate(-9 -8)"/><path class="cls-2" d="M362.08,143.16H328.4a.25.25,0,0,1-.26-.26.26.26,0,0,1,.26-.26h33.68a.26.26,0,0,1,.26.26A.26.26,0,0,1,362.08,143.16Z" transform="translate(-9 -8)"/><path class="cls-2" d="M323.3,143.16h-6.13a.25.25,0,0,1-.26-.26.26.26,0,0,1,.26-.26h6.13a.26.26,0,0,1,.26.26A.25.25,0,0,1,323.3,143.16Z" transform="translate(-9 -8)"/><path class="cls-2" d="M362.08,151.79H328.4a.26.26,0,0,1,0-.52h33.68a.26.26,0,0,1,0,.52Z" transform="translate(-9 -8)"/><path class="cls-2" d="M323.3,151.79h-6.13a.26.26,0,0,1,0-.52h6.13a.26.26,0,0,1,0,.52Z" transform="translate(-9 -8)"/><polygon class="cls-3" points="324.46 108.5 316.15 116.71 324.46 124.92 326.33 123.05 320.05 116.76 326.39 110.42 324.46 108.5"/><polygon class="cls-3" points="336.73 108.5 345.05 116.71 336.73 124.92 334.86 123.05 341.15 116.76 334.81 110.42 336.73 108.5"/><circle class="cls-3" cx="289.5" cy="82.63" r="1.04"/><circle class="cls-3" cx="292.27" cy="82.63" r="1.04"/><circle class="cls-3" cx="295.04" cy="82.63" r="1.04"/><rect class="cls-4" x="287.19" y="84.36" width="86.81" height="0.35"/><polygon class="cls-5" points="54.81 159.22 0 159.22 0 95.56 8.28 86.37 54.81 86.37 54.81 159.22"/><polygon class="cls-6" points="53.97 157.28 0.97 157.28 0.97 96.06 8.98 87.22 53.97 87.22 53.97 157.28"/><rect class="cls-7" x="6.14" y="94.78" width="25.82" height="4.36"/><rect class="cls-7" x="6.19" y="106.7" width="18.92" height="4.36"/><rect class="cls-3" x="6.19" y="124.61" width="42.44" height="15.97"/><rect class="cls-8" x="39.02" y="94.84" width="9.62" height="4.36"/><rect class="cls-8" x="39.02" y="101.62" width="9.62" height="4.36"/><polygon class="cls-9" points="9.8 87.22 9.8 96.9 0.97 96.9 0.97 96.06 8.95 87.22 9.8 87.22"/><polygon class="cls-10" points="0.95 96.06 8.95 87.22 8.95 96.06 0.95 96.06"/><polygon class="cls-11" points="71.64 153.17 16.82 153.17 16.82 89.51 25.1 80.32 71.64 80.32 71.64 153.17"/><polygon class="cls-6" points="70.79 151.23 17.79 151.23 17.79 90 25.8 81.17 70.79 81.17 70.79 151.23"/><rect class="cls-7" x="22.96" y="88.73" width="25.82" height="4.36"/><rect class="cls-7" x="23.01" y="100.65" width="18.92" height="4.36"/><rect class="cls-3" x="23.01" y="118.56" width="42.44" height="15.97"/><rect class="cls-8" x="55.84" y="88.79" width="9.62" height="4.36"/><rect class="cls-8" x="55.84" y="95.57" width="9.62" height="4.36"/><polygon class="cls-12" points="26.62 81.17 26.62 90.85 17.79 90.85 17.79 90 25.77 81.17 26.62 81.17"/><polygon class="cls-10" points="17.77 90 25.77 81.17 25.77 90 17.77 90"/><polygon class="cls-13" points="88.09 147.85 33.28 147.85 33.28 84.19 41.56 75 88.09 75 88.09 147.85"/><polygon class="cls-14" points="87.25 145.91 34.24 145.91 34.24 84.68 42.25 75.85 87.25 75.85 87.25 145.91"/><rect class="cls-7" x="39.42" y="83.41" width="25.82" height="4.36"/><rect class="cls-7" x="39.47" y="95.33" width="18.92" height="4.36"/><rect class="cls-3" x="39.47" y="113.24" width="42.44" height="15.97"/><rect class="cls-7" x="72.3" y="83.47" width="9.62" height="4.36"/><rect class="cls-7" x="72.3" y="90.25" width="9.62" height="4.36"/><rect class="cls-7" x="72.3" y="97.02" width="9.62" height="4.36"/><polygon class="cls-15" points="43.08 75.85 43.08 85.53 34.24 85.53 34.24 84.68 42.23 75.85 43.08 75.85"/><polygon class="cls-10" points="34.22 84.68 42.23 75.85 42.23 84.68 34.22 84.68"/><rect class="cls-16" x="172.43" y="2.16" width="52.59" height="70.66"/><rect class="cls-1" x="163.39" width="70.66" height="28.05"/><rect class="cls-1" x="163.39" y="31.28" width="70.66" height="28.05"/><rect class="cls-1" x="163.39" y="62.57" width="70.66" height="28.05"/><rect class="cls-3" x="163.39" y="11.89" width="70.66" height="4.31"/><rect class="cls-3" x="163.39" y="43.18" width="70.66" height="4.31"/><rect class="cls-3" x="163.39" y="74.46" width="70.66" height="4.31"/><circle class="cls-3" cx="220.29" cy="4.05" r="1.62"/><circle class="cls-3" cx="225.96" cy="4.05" r="1.62"/><circle class="cls-3" cx="231.62" cy="4.05" r="1.62"/><circle class="cls-3" cx="220.29" cy="34.79" r="1.62"/><circle class="cls-3" cx="225.96" cy="34.79" r="1.62"/><circle class="cls-3" cx="231.62" cy="34.79" r="1.62"/><circle class="cls-3" cx="220.29" cy="65.53" r="1.62"/><circle class="cls-3" cx="225.96" cy="65.53" r="1.62"/><circle class="cls-3" cx="231.62" cy="65.53" r="1.62"/></svg>