<svg id="Layer_1" data-name="Layer 1" xmlns="http://www.w3.org/2000/svg" viewBox="0 0 279.81 283.23"><defs><style>.cls-1{fill:#e6e6e6;}.cls-2{fill:#6c63ff;}.cls-3{opacity:0.2;}.cls-3,.cls-8{isolation:isolate;}.cls-4{fill:#fff;}.cls-5{fill:#575a89;}.cls-6{fill:#ffb9b9;}.cls-7{fill:#2f2e41;}.cls-8{opacity:0.1;}</style></defs><title>what-5</title><ellipse class="cls-1" cx="58.98" cy="277.28" rx="36.62" ry="5.95"/><polygon class="cls-1" points="279.81 250.73 132.46 220.03 132.46 76.91 279.81 0 279.81 250.73"/><polygon class="cls-2" points="279.46 15.03 132.1 85.56 132.1 77.26 279.46 0.49 279.46 15.03"/><path class="cls-1" d="M212.89,86.34c0,1.91-.64,3.76-1.43,4.14s-1.41-.84-1.41-2.73.63-3.73,1.41-4.13S212.89,84.43,212.89,86.34Z" transform="translate(-74 -8)"/><path class="cls-1" d="M218.62,83.48c0,1.86-.65,3.67-1.43,4s-1.41-.81-1.41-2.64.62-3.64,1.41-4S218.62,81.63,218.62,83.48Z" transform="translate(-74 -8)"/><path class="cls-1" d="M224.34,80.62c0,1.86-.64,3.67-1.43,4s-1.41-.81-1.41-2.64.63-3.64,1.41-4S224.34,78.77,224.34,80.62Z" transform="translate(-74 -8)"/><polygon class="cls-3" points="241.56 111.61 150.71 132.4 150.71 105.89 241.56 73.77 241.56 111.61"/><polygon class="cls-4" points="239.76 109.81 148.91 130.59 148.91 104.09 239.76 71.97 239.76 109.81"/><path class="cls-3" d="M239.73,122.15c0,4.27-1.62,8.14-3.58,8.65s-3.47-2.47-3.47-6.61,1.54-8,3.47-8.62S239.73,117.88,239.73,122.15Z" transform="translate(-74 -8)"/><path class="cls-2" d="M238.65,121.07c0,4.27-1.62,8.14-3.58,8.64s-3.47-2.46-3.47-6.6,1.54-8,3.47-8.62S238.65,116.8,238.65,121.07Z" transform="translate(-74 -8)"/><polygon class="cls-1" points="217.94 97.92 174.3 110.52 174.3 106.06 217.94 92.64 217.94 97.92"/><polygon class="cls-1" points="207.92 110.68 182.17 117.18 182.17 112.57 207.92 105.59 207.92 110.68"/><polygon class="cls-3" points="241.56 206.4 150.71 198.78 150.71 145.59 241.56 130.43 241.56 206.4"/><polygon class="cls-4" points="239.4 204.59 148.55 196.98 148.55 143.79 239.4 128.62 239.4 204.59"/><polygon class="cls-3" points="163.58 158.82 159.33 159.21 159.33 154.56 163.58 154.08 163.58 158.82"/><polygon class="cls-2" points="162.86 158.1 158.61 158.49 158.61 153.84 162.86 153.36 162.86 158.1"/><polygon class="cls-1" points="217.94 152.85 167.15 157.61 167.15 153.28 217.94 147.58 217.94 152.85"/><polygon class="cls-1" points="217.94 170.09 167.15 171.73 167.15 167.41 217.94 164.81 217.94 170.09"/><polygon class="cls-1" points="217.94 187.76 167.15 186.21 167.15 181.89 217.94 182.48 217.94 187.76"/><polygon class="cls-5" points="56.85 130.56 47.13 130.56 47.13 125.8 55.26 125.8 57.05 126.8 56.85 130.56"/><polygon class="cls-6" points="38.99 261.69 39.39 268.83 45.34 267.64 44.35 260.5 38.99 261.69"/><path class="cls-6" d="M141.16,265.92s.2,5.95-.4,7.53,1.59,2.39,1.59,2.39h4.76l2.78.39v-3s-3.18-5-3.18-7.74S141.16,265.92,141.16,265.92Z" transform="translate(-74 -8)"/><path class="cls-7" d="M114,275.64s4-1.88,5.36-.74,6.54,10.85,4.56,11.45c0,0-1.39,2.38-6.15.79s-4.76-3.37-4.76-3.37-1.39-1.19-1.39-1.59.6-4,.6-4,.44-3,1.11-2.79Z" transform="translate(-74 -8)"/><path class="cls-7" d="M141.55,272.66s-.59-.59-1,0-2.58,8.13-.59,8.53,5,1.79,5.35,1.39a5.35,5.35,0,0,0,.8-1.39s3.17,1.39,4.16,2.58,12.9,3.77,12.5,0-6.35-6.94-6.35-6.94l-6.54-4.37s-2.58.2-3.18,1.39S142,274.84,141.55,272.66Z" transform="translate(-74 -8)"/><path class="cls-5" d="M84.43,195.89s-2.18,2.78-1.78,3,9.12,2.18,13.88,1,14.68-1,15.28-2.38l7.93-18.65-2.38-13.09-2.58-3.37-6-5.16-11.9,22.22Z" transform="translate(-74 -8)"/><path class="cls-8" d="M84.43,195.89s-2.18,2.78-1.78,3,9.12,2.18,13.88,1,14.68-1,15.28-2.38l7.93-18.65-2.38-13.09-2.58-3.37-6-5.16-11.9,22.22Z" transform="translate(-74 -8)"/><path class="cls-7" d="M109.63,191.13s-2.78,9.92,0,23.61.19,16.66.79,17.26.79.39.79,1,.6,3.37,0,4.36-.59,32.53,1.19,33.33,6.95,2.77,7.94,0,.2-22.81.59-23.81a14.73,14.73,0,0,0,.4-4c0-.6,1.19-7.34,1.39-9.13s.79-5.35.79-5.35-.4-14.09.79-18.25,1.59-4.57,1.59-4.57l9.52,24.8s-.79,2.58,0,3.37-.2.6.6,2,1.59,1.79,1.59,2.58-.8.8-.4,1.39a16,16,0,0,1,1,2.78l-1,2.38a72.17,72.17,0,0,0,1.39,7.93c.79,3,.79,15.08,1.78,15.28s8.73,2.38,8.73-2.18-.59-24.4-.59-24.4a21.51,21.51,0,0,1-1.19-3.77c0-.8-.2-1.19.19-1.59a1.24,1.24,0,0,0,.2-1.78c-.59-.6-.39-1.39-.39-2.19a17.85,17.85,0,0,0-.4-3.17c-.2-.79-4-25.59-4-25.59s.79-3,0-3.17-.79-1.79-.79-2.58,2-10.71-.4-10.71S109.63,191.13,109.63,191.13Z" transform="translate(-74 -8)"/><path class="cls-6" d="M83.44,179.23l-2.78,1.39S70.75,186,75.11,189s8.73-4.17,8.73-4.17L88,181.61Z" transform="translate(-74 -8)"/><path class="cls-6" d="M122.12,124.88s-.79,9.12-5,11.11-1.39,16.86-1.39,16.86l5.76,5.55,10.11-3,1.19-6.75,1-6.94-2.38-3.57s-3-.8-1.79-8.73S122.12,124.88,122.12,124.88Z" transform="translate(-74 -8)"/><path class="cls-2" d="M116.17,139.16s4.56,15.08,7.74,15.08,5-3.58,5.35-7.94a28.23,28.23,0,0,1,3-9.12l6.15,5.55s5,43.84,4.56,45-15.87,2.58-22,4.36-12.3.4-12.3-.59,3.15-8.53.76-14.12a23,23,0,0,1-1.76-6.25c-.37-2.94-.72-6.5-.38-7.6.59-2,3.76-23,3.76-23Z" transform="translate(-74 -8)"/><path class="cls-5" d="M119.53,133.69s-3.56,1.9-5.14,2.69-11.31,3.18-11.51,4.37,1.39,17.85.6,19.63S94.75,178,94.75,178l-.4,3.37s-13.09,15.67-11.5,17.46,7.53-5.56,7.53-5.56,13.29-21.22,13.69-22,8.53-15.48,9.72-15.87,4-17.06,4.37-17.86S120.11,133.37,119.53,133.69Z" transform="translate(-74 -8)"/><path class="cls-5" d="M103.87,140.55h-1.19s-4.36,16.66-5.55,18.84-1.39,5.76-1.59,6.35-1,.4-1.19,1.79-2.18,3.17-3.77,4-8.73,7.54-8.53,7.74,2.38,7.14,3.77,7.14,6.94-6.74,7.54-6.74,3.17-2.38,3.57-2.58,10.51-18.85,10.12-23.41S103.87,140.55,103.87,140.55Z" transform="translate(-74 -8)"/><path class="cls-6" d="M153.37,191.94l2.44,1.92s8.65,7.23,3.78,9.27-7.72-5.83-7.72-5.83l-3.45-3.94Z" transform="translate(-74 -8)"/><path class="cls-5" d="M129.42,133.92a25,25,0,0,1,3.81,2.26c1.19,1,10.32,3.57,10.32,4.37s-1,13.09-1,13.09l1.39,21.82s2,24.6,2.38,25.19,1,3.77,0,3.77-5.95-5.55-5.75-8.33,1.59-9.12.2-10.71-7.94-28.17-7.94-29.76-2.77-17.45-2.57-17.85S129.42,133.92,129.42,133.92Z" transform="translate(-74 -8)"/><path class="cls-5" d="M140.57,140.35l3,.2,7.34,29.95s.59,3.77.79,4.17,3.17,17.65,2,18.25-5.15,2.77-5.35,1.39-2.18-9.13-4.17-10.91-4-32.54-4-32.54Z" transform="translate(-74 -8)"/><circle class="cls-6" cx="54.67" cy="114.1" r="8.13"/><path class="cls-7" d="M123,122.69a1.44,1.44,0,0,1,1.68.57,7.94,7.94,0,0,1,9.39-6.15,8.27,8.27,0,0,1,2.15.78v-.82a6.87,6.87,0,0,0-6.87-6.87h-1.65a12.91,12.91,0,0,0-12.91,12.9h0v2.3a11.57,11.57,0,0,0,6.34,10.32l7.43-3.93a7.94,7.94,0,0,1-4-5.9,1.63,1.63,0,0,1-1.91-1A1.61,1.61,0,0,1,123,122.69Z" transform="translate(-74 -8)"/></svg>