<svg id="Layer_1" data-name="Layer 1" xmlns="http://www.w3.org/2000/svg" xmlns:xlink="http://www.w3.org/1999/xlink" viewBox="0 0 269.95 241.67"><defs><style>.cls-1,.cls-2{fill:none;stroke-miterlimit:10;}.cls-1{stroke:#2f2e41;}.cls-2{stroke:#3f3d56;}.cls-3{fill:#57b894;}.cls-4{fill:#6c63ff;}.cls-5{fill:#2f2e41;}.cls-6{fill:#ffc1c7;}.cls-7{opacity:0.1;isolation:isolate;}</style></defs><title>why-9</title><path class="cls-1" d="M240.59,95.22q4.74,2.5,9.26,5.12" transform="translate(-73 -45)"/><path class="cls-1" d="M181.79,84.89a202.15,202.15,0,0,1,44,15.38,210.55,210.55,0,0,1,31.4,18.43" transform="translate(-73 -45)"/><line class="cls-2" x1="62.91" y1="241" x2="204.23" y2="241"/><path class="cls-1" d="M168.89,82.68c4.14.51,8.45,1.25,12.9,2.21" transform="translate(-73 -45)"/><path class="cls-1" d="M128.36,125.89c-7.65-11.19-10.28-21.77-6.35-30,4.35-9.08,16-13.72,31.76-14.07" transform="translate(-73 -45)"/><path class="cls-1" d="M289.49,150.9c6.38,10.27,8.36,19.9,4.72,27.49-3.2,6.68-10.36,11-20.2,12.89" transform="translate(-73 -45)"/><path class="cls-1" d="M257.17,118.7a156.05,156.05,0,0,1,18.08,15" transform="translate(-73 -45)"/><path class="cls-1" d="M124.12,68.72c12.7-2.73,29.14-2.24,47.52,1.38" transform="translate(-73 -45)"/><path class="cls-1" d="M309,150.9c5.68,8.31,9.18,16.35,10.1,23.67" transform="translate(-73 -45)"/><path class="cls-1" d="M249.85,100.34q8.57,4.95,16.28,10.23" transform="translate(-73 -45)"/><path class="cls-2" d="M258,222.68a7.86,7.86,0,0,0-6.78,4.74c-1.7,4.1.48,8.91,3.76,11.9s7.49,4.69,11.31,6.94c5.13,3,9.75,7.2,12.32,12.57s2.84,12-.18,17.16c-2.8,4.76-7.9,7.61-12.76,10.24" transform="translate(-73 -45)"/><ellipse class="cls-3" cx="189.34" cy="178.04" rx="5.99" ry="2.91"/><ellipse class="cls-3" cx="194.13" cy="197.2" rx="5.99" ry="2.91"/><ellipse class="cls-3" cx="183.18" cy="200.28" rx="5.99" ry="2.91"/><ellipse class="cls-3" cx="200.29" cy="216.36" rx="5.99" ry="2.91"/><ellipse class="cls-3" cx="212.27" cy="216.36" rx="5.99" ry="2.91"/><path class="cls-4" d="M225.94,109.74h3.37s3.09,23.89.84,26.14-8.43,3.65-9.27,0,0-17.15,0-17.15Z" transform="translate(-73 -45)"/><ellipse class="cls-5" cx="130.87" cy="43.93" rx="20.52" ry="24.04"/><path class="cls-6" d="M199.23,93.43s1.13,9.28-2.25,11.25,3.94,13.21,3.94,13.21l8.71,2.25,5.91-8.15-1.13-8.44s-6.75-6.74-3.65-12.93Z" transform="translate(-73 -45)"/><path class="cls-7" d="M199.23,93.43s1.13,9.28-2.25,11.25,3.94,13.21,3.94,13.21l8.71,2.25,5.91-8.15-1.13-8.44s-6.75-6.74-3.65-12.93Z" transform="translate(-73 -45)"/><path class="cls-6" d="M186.58,194.13s-3.37,30.64,0,38S199,259.91,199,259.91l-2.81,5.91,7.59-1.69,3.09-5.9s-3.65-14.34-4.22-19.4-4.77-14.34-4.77-14.34L205.7,191Z" transform="translate(-73 -45)"/><path class="cls-6" d="M213.29,189s.28,30.92,2.25,35.72l-1.13,41.89,6.19.82s9-35.14,7.59-43.57.28-38.79.28-38.79Z" transform="translate(-73 -45)"/><circle class="cls-6" cx="130.87" cy="41.54" r="10.68"/><path class="cls-4" d="M240.27,193s-7.59,5.06-10.68,1.4-41,2.25-45.82,1.13,2.53-19.12,2.53-28.4c0-6.94,2.52-17.5,3.79-22.38.42-1.64.71-2.64.71-2.64s2.88-8.2,2.34-11.61a2.79,2.79,0,0,0-.21-.75,1.22,1.22,0,0,0-.17-.29c-1.34-1.79-5.2-14.89-6.7-20.52a23.87,23.87,0,0,1-.6-2.53c0-.84,10.4-3.37,13-3.49s3.3,3.49,3.3,3.49c.84.57,4.78,10.4,4.78,10.4l3.65-9.27s-.28-2-.56-2,4.16-2.65,4.16-2.65,4.56,3.21,7.09,2.65,8.43,4.5,8.43,4.5-10.4,26.14-6.18,31.76S240.27,193,240.27,193Z" transform="translate(-73 -45)"/><path class="cls-5" d="M206,257.1s-4.78,4.78-4.78,5.34l-3.94-1.68s-1.68,6.18-2,7-5.07,8.44-9.84,11.81,0,7.59,4.21,6.75,14.9-10.4,14.9-10.4,7.31,0,9.84-5.63C214.41,270.31,207.66,256.54,206,257.1Z" transform="translate(-73 -45)"/><path class="cls-5" d="M220,265.21s-7.22-5.25-7.68-.37-.47,15.55-.47,15.55-2.25,7,4.78,6.19,7.59-2.82,7.59-2.82l-3.37-13.49v-5.9Z" transform="translate(-73 -45)"/><path class="cls-7" d="M192.76,129.41c-1.34-1.79-5.2-14.89-6.7-20.52h1.36s3.43,13.4,5.51,20.81A1.22,1.22,0,0,0,192.76,129.41Z" transform="translate(-73 -45)"/><path class="cls-7" d="M211.32,148s-3.94.28-18.27-2.53a27.24,27.24,0,0,1-3-.74c.42-1.64.71-2.64.71-2.64s2.88-8.2,2.34-11.61a24,24,0,0,0,1.31,4c.56.29,18.56,3.38,21.09,4.5S211.32,148,211.32,148Z" transform="translate(-73 -45)"/><path class="cls-7" d="M216.38,111.18s7.75-1,8.23.3,2.45,13.4,3.29,15S229,137.66,225.66,138s-7.88-3.12-7-5.92S216.38,111.18,216.38,111.18Z" transform="translate(-73 -45)"/><path class="cls-6" d="M212.44,137s11.81,1.41,13.78,0,10.12-1.4,8.43,2.53-16.3,4.22-16.3,4.22h-8.44Z" transform="translate(-73 -45)"/><path class="cls-4" d="M187.42,106.93h-2s-3.94.84-3.38,13.21-3.37,20.52,11,23.33S211.32,146,211.32,146s6.75-7.87,4.22-9-20.53-4.21-21.09-4.49S187.42,106.93,187.42,106.93Z" transform="translate(-73 -45)"/><path class="cls-6" d="M224.4,112.47S219.47,94,215.54,94s-8.44.85-5.06,4.5,7.59,7.59,7.87,9.56a26.53,26.53,0,0,0,1.4,4.78Z" transform="translate(-73 -45)"/><path class="cls-4" d="M217.5,111.18s7.76-1,8.24.3,2.45,13.4,3.29,15,1.12,11.22-2.25,11.53-7.87-3.12-7-5.92S217.5,111.18,217.5,111.18Z" transform="translate(-73 -45)"/><circle class="cls-5" cx="128.06" cy="31.42" r="10.12"/><path class="cls-1" d="M241.84,190.83c-15.71-2.59-33.47-8.22-51.4-16.8-20.4-9.78-37.69-21.8-50-33.95" transform="translate(-73 -45)"/><path class="cls-1" d="M178.16,179.31a253.88,253.88,0,0,1-37.74-23.79" transform="translate(-73 -45)"/><image width="768" height="768" transform="translate(0 0) scale(0.06)" xlink:href="../../../../../../../Downloads/WordPress_blue_logo.svg.png"/><image width="331" height="275" transform="translate(208 40) scale(0.19)" xlink:href="../../../../../../../Downloads/Vertical-logo-light-background-en.png"/><image width="312" height="322" transform="translate(18 130) scale(0.16)" xlink:href="../../../../../../../Downloads/magento-logo.png"/></svg>