<svg id="Layer_1" data-name="Layer 1" xmlns="http://www.w3.org/2000/svg" viewBox="0 0 405.47 273.11"><defs><style>.cls-1{fill:#2f2e41;}.cls-2{fill:#3f3d56;}.cls-3{fill:#6c63ff;}.cls-20,.cls-4{font-size:16px;}.cls-4{font-family:Montserrat-Bold, Montserrat;font-weight:700;}.cls-5{letter-spacing:1.97em;}.cls-6{letter-spacing:0em;}.cls-7{font-size:12px;font-family:Montserrat-Medium, Montserrat;font-weight:500;}.cls-8{letter-spacing:-0.02em;}.cls-9{letter-spacing:-0.02em;}.cls-10{letter-spacing:0em;}.cls-11{letter-spacing:0em;}.cls-12{letter-spacing:0em;}.cls-13{letter-spacing:-0.01em;}.cls-14{letter-spacing:-0.01em;}.cls-15{letter-spacing:-0.02em;}.cls-16,.cls-17,.cls-18{fill:none;stroke-miterlimit:10;}.cls-16{stroke:#000;}.cls-17,.cls-18{stroke:#3f3d56;}.cls-17{stroke-width:0.25px;}.cls-19{fill:#f2f2f2;}.cls-20{font-family:Montserrat-SemiBold, Montserrat;font-weight:600;}.cls-21{letter-spacing:-0.05em;}.cls-22{letter-spacing:-0.02em;}.cls-23{fill:#e6e8ec;}.cls-24{fill:#fff;}.cls-25{fill:#e6e6e6;}.cls-26{opacity:0.1;isolation:isolate;}.cls-27{fill:#a0616a;}.cls-28{fill:#d0cde1;}.cls-29{fill:#575a89;}</style></defs><title>why-1</title><rect class="cls-1" x="148.65" y="117.05" width="47.48" height="63.79"/><rect class="cls-2" x="140.49" y="115.11" width="63.79" height="25.32"/><rect class="cls-2" x="140.49" y="143.35" width="63.79" height="25.32"/><rect class="cls-2" x="140.49" y="171.59" width="63.79" height="25.32"/><rect class="cls-3" x="140.49" y="125.84" width="63.79" height="3.9"/><rect class="cls-3" x="140.49" y="154.09" width="63.79" height="3.9"/><rect class="cls-3" x="140.49" y="182.33" width="63.79" height="3.9"/><circle class="cls-3" cx="191.86" cy="118.76" r="1.46"/><circle class="cls-3" cx="196.98" cy="118.76" r="1.46"/><circle class="cls-3" cx="191.86" cy="146.52" r="1.46"/><circle class="cls-3" cx="196.98" cy="146.52" r="1.46"/><circle class="cls-3" cx="191.86" cy="174.27" r="1.46"/><circle class="cls-3" cx="196.98" cy="174.27" r="1.46"/><rect class="cls-3" x="172.23" y="75.11" width="82.71" height="108.59"/><rect class="cls-2" x="184.32" y="89.45" width="58.52" height="6.75"/><rect class="cls-2" x="184.32" y="104.08" width="58.52" height="6.75"/><rect class="cls-2" x="184.32" y="118.71" width="58.52" height="6.75"/><rect class="cls-2" x="184.32" y="133.34" width="58.52" height="6.75"/><rect class="cls-2" x="184.32" y="147.97" width="58.52" height="6.75"/><rect class="cls-2" x="184.32" y="162.6" width="58.52" height="6.75"/><text class="cls-4" transform="translate(99 214.55)"><tspan class="cls-5"><tspan xml:space="preserve">		</tspan><tspan class="cls-6" x="72" y="0">CMS</tspan></tspan><tspan class="cls-7"><tspan x="0" y="14.4">(</tspan><tspan class="cls-8" x="4.04" y="14.4">C</tspan><tspan x="12.46" y="14.4">on</tspan><tspan class="cls-9" x="28.25" y="14.4">t</tspan><tspan class="cls-10" x="33" y="14.4">ent Man</tspan><tspan class="cls-11" x="83.52" y="14.4">a</tspan><tspan class="cls-12" x="90.73" y="14.4">ge</tspan><tspan class="cls-11" x="106.35" y="14.4">m</tspan><tspan x="119.07" y="14.4">ent </tspan><tspan class="cls-13" x="142.78" y="14.4">S</tspan><tspan class="cls-14" x="150.12" y="14.4">y</tspan><tspan x="156.74" y="14.4">s</tspan><tspan class="cls-15" x="162.75" y="14.4">t</tspan><tspan x="167.51" y="14.4">ems)</tspan></tspan></text><line class="cls-16" x1="155.47" y1="97.11" x2="101.47" y2="54.11"/><rect class="cls-17" x="46.23" y="10.95" width="37.04" height="7.62"/><path class="cls-17" d="M26.66,37.67A6.32,6.32,0,0,1,32,34.91c3.39,0,6.15,2.44,6.15,5.45a5.33,5.33,0,0,1-2.83,4.58" transform="translate(-2.53 -15.89)"/><rect class="cls-3" x="43.61" y="12.43" width="37.04" height="7.62"/><circle class="cls-3" cx="20.2" cy="4.58" r="0.57"/><circle class="cls-3" cx="22.16" cy="4.58" r="0.57"/><circle class="cls-3" cx="24.13" cy="4.58" r="0.57"/><rect class="cls-17" x="18.64" y="3.11" width="68.83" height="44.74"/><line class="cls-17" x1="18.64" y1="5.59" x2="87.47" y2="5.59"/><circle class="cls-18" cx="20.36" cy="4.34" r="0.57"/><circle class="cls-18" cx="22.33" cy="4.34" r="0.57"/><circle class="cls-18" cx="24.29" cy="4.34" r="0.57"/><line class="cls-17" x1="40.25" y1="5.59" x2="40.25" y2="47.91"/><rect class="cls-19" x="47.99" y="26.4" width="12.05" height="1.64"/><rect class="cls-19" x="66.92" y="26.4" width="12.05" height="1.64"/><rect class="cls-17" x="48.65" y="25.58" width="12.05" height="1.64"/><rect class="cls-19" x="47.99" y="39.1" width="12.05" height="1.64"/><rect class="cls-17" x="48.65" y="38.28" width="12.05" height="1.64"/><rect class="cls-19" x="48.03" y="32.58" width="30.97" height="1.64"/><rect class="cls-17" x="48.69" y="31.93" width="30.97" height="1.64"/><rect class="cls-17" x="67.58" y="25.58" width="12.05" height="1.64"/><circle class="cls-19" cx="83.12" cy="34.31" r="0.12"/><circle class="cls-19" cx="82.31" cy="35.84" r="0.12"/><circle class="cls-19" cx="82.68" cy="35.04" r="0.12"/><circle class="cls-19" cx="81.83" cy="36.64" r="0.12"/><path class="cls-3" d="M24.54,41.5A5.41,5.41,0,0,0,28,46.37L25.07,39.3A4.82,4.82,0,0,0,24.54,41.5Zm10.25-.27a2.63,2.63,0,0,0-.51-1.49,2.42,2.42,0,0,1-.6-1.27,1,1,0,0,1,1-1h.08a6.59,6.59,0,0,0-4.13-1.42,6.33,6.33,0,0,0-5.11,2.44h.39c.64,0,1.63-.07,1.63-.07a.22.22,0,1,1,0,.44s-.33,0-.7.06l2.23,5.86,1.34-3.55-1-2.31c-.33,0-.64-.06-.64-.06a.22.22,0,1,1,0-.44s1,.07,1.61.07,1.63-.07,1.63-.07a.22.22,0,1,1,0,.44s-.33,0-.7.06l2.21,5.81.61-1.8a6.13,6.13,0,0,0,.47-1.75Z" transform="translate(-2.53 -15.89)"/><path class="cls-3" d="M30.77,42l-1.84,4.71a7,7,0,0,0,3.76-.08.3.3,0,0,1,0-.08ZM36,38.91a3.41,3.41,0,0,1,0,.55,4.6,4.6,0,0,1-.47,1.94l-1.87,4.78a5.33,5.33,0,0,0,3-4.68A4.83,4.83,0,0,0,36,38.91Z" transform="translate(-2.53 -15.89)"/><text class="cls-20" transform="translate(16 63.55)"><tspan class="cls-21">W</tspan><tspan x="17.42" y="0">ebsi</tspan><tspan class="cls-22" x="51.22" y="0">t</tspan><tspan x="57.71" y="0">es</tspan></text><path class="cls-2" d="M363,30.36v7.1a.25.25,0,0,1-.25.25h-.17v37a3.86,3.86,0,0,1-3.87,3.86H335.59a3.86,3.86,0,0,1-3.86-3.86h0V39h-.13a.18.18,0,0,1-.17-.17V34.79a.18.18,0,0,1,.17-.17h.13V33.09h-.13a.18.18,0,0,1-.18-.18v-4a.18.18,0,0,1,.18-.18h.13V26.66h-.13a.16.16,0,0,1-.16-.16h0V24.32a.16.16,0,0,1,.16-.16h.13V19.75a3.86,3.86,0,0,1,3.86-3.86h23.12a3.86,3.86,0,0,1,3.87,3.86V30.11h.17A.25.25,0,0,1,363,30.36Z" transform="translate(-2.53 -15.89)"/><rect class="cls-23" x="341.7" y="1.98" width="4.31" height="0.87" rx="0.27"/><circle class="cls-23" cx="347.16" cy="2.42" r="0.5"/><path class="cls-24" d="M360.73,20.52V75a2.45,2.45,0,0,1-2.45,2.45H336.14a2.45,2.45,0,0,1-2.45-2.44h0V20.52a2.45,2.45,0,0,1,2.45-2.45h3.32v.42a2,2,0,0,0,2,2h11.26a2,2,0,0,0,2-2v-.42h3.53a2.45,2.45,0,0,1,2.45,2.45Z" transform="translate(-2.53 -15.89)"/><rect class="cls-25" x="333.47" y="38.07" width="22.5" height="2.92"/><rect class="cls-25" x="333.47" y="43.26" width="22.5" height="2.92"/><rect class="cls-25" x="333.47" y="48.45" width="22.5" height="2.92"/><circle class="cls-3" cx="353.48" cy="9.84" r="2.16"/><rect class="cls-25" x="333.43" y="17.08" width="22.5" height="14.93"/><path class="cls-2" d="M344.92,41.37a7.8,7.8,0,0,0,2.91,3.93,7.8,7.8,0,0,0,.52-4.86,7.75,7.75,0,0,0-2.9-3.93A7.77,7.77,0,0,0,344.92,41.37Z" transform="translate(-2.53 -15.89)"/><path class="cls-3" d="M345.88,40.85a7.77,7.77,0,0,1,2,4.45,7.86,7.86,0,0,1-4.51-1.9,7.82,7.82,0,0,1-2-4.45A7.74,7.74,0,0,1,345.88,40.85Z" transform="translate(-2.53 -15.89)"/><path class="cls-2" d="M350.9,41.37A7.8,7.8,0,0,1,348,45.3a7.77,7.77,0,0,1-.53-4.86,7.8,7.8,0,0,1,2.91-3.93A7.84,7.84,0,0,1,350.9,41.37Z" transform="translate(-2.53 -15.89)"/><path class="cls-3" d="M349.93,40.85a7.8,7.8,0,0,0-2,4.45,7.82,7.82,0,0,0,4.5-1.9,7.82,7.82,0,0,0,2-4.45A7.74,7.74,0,0,0,349.93,40.85Z" transform="translate(-2.53 -15.89)"/><line class="cls-16" x1="323.97" y1="60.61" x2="263.47" y2="100.11"/><text class="cls-20" transform="translate(324 83.55)">Mobile <tspan x="0" y="19.2">apps</tspan></text><path class="cls-19" d="M82.41,238.94a24.44,24.44,0,0,0-1.71-21.52l-39.07,5.41L79.07,215a24.41,24.41,0,0,0-43.76,14.89,23.1,23.1,0,0,0,.23,3.33Z" transform="translate(-2.53 -15.89)"/><path class="cls-19" d="M36.94,238.7a24.42,24.42,0,0,0,44.85,1.66Z" transform="translate(-2.53 -15.89)"/><path class="cls-3" d="M81.19,247.19c0,9.6-14.15,17.37-31.6,17.37-9.37,0-17.79-2.24-23.58-5.81-3.77-2.32-6.42-5.21-7.49-8.4a10,10,0,0,1-.52-3.16c0-9.59,26.18-52.86,31.59-17.37S81.19,237.6,81.19,247.19Z" transform="translate(-2.53 -15.89)"/><path class="cls-26" d="M65.3,253.49c0,3.54-11.19,6.42-25,6.42A82.46,82.46,0,0,1,26,258.75c-3.77-2.32-6.42-5.21-7.49-8.4,4.29-1.95,12.44-3.27,21.79-3.27C54.11,247.08,65.3,250,65.3,253.49Z" transform="translate(-2.53 -15.89)"/><path class="cls-1" d="M47.26,217a7.71,7.71,0,0,0-5.9-3.5s-3.82-.49-6.27,4.61c-2.28,4.75-5.43,9.34-.5,10.45l.89-2.77.55,3a18.4,18.4,0,0,0,2.1,0c5.28-.17,10.3.05,10.14-1.84C48.06,224.39,49.16,220.17,47.26,217Z" transform="translate(-2.53 -15.89)"/><path class="cls-1" d="M34.3,246.26a6.88,6.88,0,0,1-.25,1.09c-.12.34-.31.67-.43,1a3.43,3.43,0,0,0,.94,3.24,5.3,5.3,0,0,0,2.58,1.53,10.26,10.26,0,0,0,2.22.23,17.23,17.23,0,0,0,6.12-.53,9.75,9.75,0,0,0,1.77-.81,1.26,1.26,0,0,0,.47-.36,1.34,1.34,0,0,0,.16-.74c0-.88-.18-1.75-.14-2.62a8.69,8.69,0,0,0,.07-1.44,2.66,2.66,0,0,0-2-2.3,5.32,5.32,0,0,0-1.69,0,43,43,0,0,1-4.4.19c-1.5,0-3-.23-4.48-.26-.45,0-.44.13-.58.56A11.75,11.75,0,0,0,34.3,246.26Z" transform="translate(-2.53 -15.89)"/><path class="cls-27" d="M38.56,224.71a2.67,2.67,0,0,1-.37,1.08c-.26.36-.69.56-1,.9a3,3,0,0,0-.45,1.91,3.14,3.14,0,0,0,.35,1.77,3.37,3.37,0,0,0,.89.79,8.22,8.22,0,0,0,4.22,1.77,2.22,2.22,0,0,0,1.75-.64,2.41,2.41,0,0,0,.42-.75,9.82,9.82,0,0,0,.71-3.06A3.48,3.48,0,0,0,45,227a14.91,14.91,0,0,0-.82-1.45,3.15,3.15,0,0,1-.31-1.91.23.23,0,0,0,0-.14.22.22,0,0,0-.17-.07l-3.07-.22a6.13,6.13,0,0,1-.85-.09c-.16,0-.6-.27-.76-.21S38.62,224.4,38.56,224.71Z" transform="translate(-2.53 -15.89)"/><path class="cls-26" d="M38.56,224.8a2.67,2.67,0,0,1-.37,1.08c-.26.36-.69.57-1,.91a3,3,0,0,0-.45,1.9A2.33,2.33,0,0,0,38,231.25,8.15,8.15,0,0,0,42.23,233a2.26,2.26,0,0,0,1.75-.64,2.46,2.46,0,0,0,.42-.76,9.69,9.69,0,0,0,.71-3,3.47,3.47,0,0,0-.13-1.47,14.91,14.91,0,0,0-.82-1.45,3.16,3.16,0,0,1-.31-1.91.15.15,0,0,0-.18-.21l-3.07-.22a6.15,6.15,0,0,1-.85-.1c-.16,0-.6-.27-.76-.2S38.62,224.49,38.56,224.8Z" transform="translate(-2.53 -15.89)"/><circle class="cls-27" cx="38.97" cy="204.73" r="4.5"/><path class="cls-28" d="M39.2,230.7a2.68,2.68,0,0,0,.79.63,2.52,2.52,0,0,0,1,.19,3,3,0,0,0,2.26-.71c.73-.75.7-2,1.27-2.84a.61.61,0,0,1,.19-.2.55.55,0,0,1,.31-.07,3.21,3.21,0,0,1,1.91.9,2.44,2.44,0,0,1,.67.69,2.16,2.16,0,0,1,.23.69,30.74,30.74,0,0,1,.46,4.17c0,.77.1,1.55.1,2.32A33.29,33.29,0,0,1,47.18,244a1.19,1.19,0,0,1-.47.83,1.17,1.17,0,0,1-.41.1,48.09,48.09,0,0,1-5.08.42c-.66,0-1.32,0-2,0a1.27,1.27,0,0,1-.34-.05,1.08,1.08,0,0,1-.36-.31,6.63,6.63,0,0,1-1-4.24q0-5.41.39-10.83a1.22,1.22,0,0,0-.19-.89A10.62,10.62,0,0,0,39.2,230.7Z" transform="translate(-2.53 -15.89)"/><path class="cls-29" d="M38.24,225.5a14.66,14.66,0,0,1-1.49,1.19c-1.2,1.27-3.41,1.23-4.52,2.59a4.39,4.39,0,0,0-.74,1.68,4.06,4.06,0,0,0,0,2.58,12.68,12.68,0,0,0,1.54,2,7.82,7.82,0,0,1,1,2.57,5.8,5.8,0,0,1,.27,2,12,12,0,0,1-.66,2.22,2.36,2.36,0,0,0,.25,2.21,2.47,2.47,0,0,0,1.52.69,15.76,15.76,0,0,0,2.17.19,2.59,2.59,0,0,0,1.84-.38,1.83,1.83,0,0,0,.58-1.35,8.49,8.49,0,0,0-.15-1.51c-.07-.52-.09-1.05-.11-1.57-.1-2.36-.12-4.72,0-7.07a6,6,0,0,0-.08-1.47,7.52,7.52,0,0,0-.76-1.78,6.7,6.7,0,0,1-.74-3.54C38.23,225.49,38.78,224.52,38.24,225.5Z" transform="translate(-2.53 -15.89)"/><path class="cls-29" d="M44.56,225.6c.23.24,1,.32,1.31.47a5,5,0,0,0,.87.3,11.39,11.39,0,0,1,3,1.39,1.93,1.93,0,0,1,.51.44,2.13,2.13,0,0,1,.28.79,9.3,9.3,0,0,1,.25,2.16,8.4,8.4,0,0,1-.5,2.26l-.86,2.76A29.78,29.78,0,0,0,48,242.46a14.71,14.71,0,0,0,.13,3.57.4.4,0,0,1,0,.34.3.3,0,0,1-.21.1,2.1,2.1,0,0,1-1.2-.33,13,13,0,0,0-3.65-1.2,8.44,8.44,0,0,0,1.13-2.34,12.44,12.44,0,0,0,.34-1.61l.41-2.32a24.57,24.57,0,0,0,.34-2.56,3.15,3.15,0,0,0-.06-1,4.43,4.43,0,0,0-.36-.87,7.47,7.47,0,0,1-.71-4.45,6.72,6.72,0,0,0,.24-2,14.76,14.76,0,0,0-.16-1.76C43.51,223.49,44.13,225.15,44.56,225.6Z" transform="translate(-2.53 -15.89)"/><path class="cls-29" d="M32.22,231.46a10,10,0,0,0-1,1.83,3.78,3.78,0,0,0-.09,1,4.61,4.61,0,0,0,.14,1.44c.1.3.25.57.37.87a3.22,3.22,0,0,1,.2,1.27c0,.6-.23,1.19-.25,1.79a5.73,5.73,0,0,0,.84,2.69A2,2,0,0,1,35,241.21a1.4,1.4,0,0,1,.3.15.53.53,0,0,0,.13-.43l.09-3.3a19.71,19.71,0,0,0-.3-5.09,4.78,4.78,0,0,0-1-2.07c-.27-.31-1.17-1.11-1.61-.77-.19.16-.15.58-.18.79A3.1,3.1,0,0,1,32.22,231.46Z" transform="translate(-2.53 -15.89)"/><path class="cls-29" d="M50.9,229.65a4.64,4.64,0,0,1,.15,1.39q0,1.43,0,2.85a5.45,5.45,0,0,1-.19,1.45c-.1.3-.25.59-.35.89a8.62,8.62,0,0,0-.11,2.87,3.2,3.2,0,0,1-.08.93,7.5,7.5,0,0,1-.88,1.62c-.29.52-.46,1.09-.79,1.57a1.5,1.5,0,0,1-1.5.71,1.62,1.62,0,0,1-.94-.88,4.29,4.29,0,0,1-.45-2.81c.21-1.17.9-2.21,1.14-3.37.34-1.59-.17-3.24-.16-4.87a2.39,2.39,0,0,1,.11-.75,3,3,0,0,1,.66-1,14.69,14.69,0,0,0,.9-1.18c.18-.27.43-1,.76-1C49.87,227.93,50.72,229.09,50.9,229.65Z" transform="translate(-2.53 -15.89)"/><path class="cls-1" d="M28.44,245.55a4.33,4.33,0,0,0-1.24-.13,3.09,3.09,0,0,0-2.91,3.25,2.32,2.32,0,0,0,.05.38,5,5,0,0,0,.49,1.34,4.45,4.45,0,0,0,1.32,1.76,5.68,5.68,0,0,0,1.17.55l3.2,1.21,1.41.51a27.47,27.47,0,0,0,7.39,1.47,8,8,0,0,0,2.3-.11.76.76,0,0,0,.47-.26.79.79,0,0,0,.1-.34l.2-1.38a1.14,1.14,0,0,0,0-.58,1.08,1.08,0,0,0-.53-.5c-2.1-1.21-4.55-1.87-6.32-3.53-.42-.39-.76-1-1.27-1.27s-1.25-.47-1.84-.75A20.69,20.69,0,0,0,28.44,245.55Z" transform="translate(-2.53 -15.89)"/><path class="cls-26" d="M31.62,247.4c1.13.36,5.9,2.81,6.72,3.67-.11,0-3.83-2-3.94-2.08a22.59,22.59,0,0,1-3-1.06c-.2-.09-1.26-.51-1.21-.75S31.42,247.34,31.62,247.4Z" transform="translate(-2.53 -15.89)"/><path class="cls-27" d="M45.71,256.61a.28.28,0,0,0,.18-.06.24.24,0,0,0,.06-.2v-1.88a5.68,5.68,0,0,0-1.73-.41l-2.76-.37c.06,0-.44,1.19-.36,1.34s1.16.53,1.45.66A7.13,7.13,0,0,0,45.71,256.61Z" transform="translate(-2.53 -15.89)"/><path class="cls-27" d="M37.05,254.47a2.16,2.16,0,0,0-1.44.56,2.06,2.06,0,0,0,0,1.92.78.78,0,0,0,.18.35.8.8,0,0,0,.55.17,2.55,2.55,0,0,0,1.4-.18c.19-.11.36-.27.54-.4a3.37,3.37,0,0,1,1-.46,9.73,9.73,0,0,1,2-.41,3.44,3.44,0,0,0,.79-.14.91.91,0,0,0,.56-.54,1.33,1.33,0,0,0-.3-1,3.81,3.81,0,0,0-.84-1c-.51-.4-.77-.09-1.28.17A11.29,11.29,0,0,1,37.05,254.47Z" transform="translate(-2.53 -15.89)"/><path class="cls-1" d="M35.68,254.94l-3.31-1a4.33,4.33,0,0,0-1.23-.24,1.47,1.47,0,0,0-1.13.46,2.22,2.22,0,0,0-.4,1.1l-.13.84a4.23,4.23,0,0,0-.08,1.28,1.41,1.41,0,0,0,.66,1.06,2.23,2.23,0,0,0,1.53,0,17.34,17.34,0,0,1,3.14-.34,2.53,2.53,0,0,0,1.16-.18,1.44,1.44,0,0,0,.71-1.16C36.66,256.09,36.43,255.16,35.68,254.94Z" transform="translate(-2.53 -15.89)"/><path class="cls-1" d="M47,254.08a6.93,6.93,0,0,0,1.22-.46,5.57,5.57,0,0,1,1.82-.2,1.23,1.23,0,0,1,.66.13,1.19,1.19,0,0,1,.38.86l.28,1.94a3.13,3.13,0,0,1,0,1.1,1,1,0,0,1-.68.8,2.06,2.06,0,0,1-1.27-.35c-1-.45-2.21-.34-3.27-.68a.69.69,0,0,1-.49-.35.73.73,0,0,1,0-.33,8.93,8.93,0,0,1,.07-2.07C45.88,253.93,46.53,254.08,47,254.08Z" transform="translate(-2.53 -15.89)"/><path class="cls-1" d="M54,244.77a5.78,5.78,0,0,1,2-.14,2.49,2.49,0,0,1,1.49.59,2.52,2.52,0,0,1,.65,1.82A5.71,5.71,0,0,1,57,250.68a3.27,3.27,0,0,1-.71.68,5.22,5.22,0,0,1-.92.45l-7.15,2.82a46.88,46.88,0,0,1-5.74,2,.45.45,0,0,1-.59-.21h0a15.09,15.09,0,0,1-1.57-2.87.2.2,0,0,1,0-.27l.06,0,5.06-2.9a5.24,5.24,0,0,0,1-.71,2.45,2.45,0,0,0,.53-.74c.1-.22.11-.74.25-.9s.58-.17.78-.23a8,8,0,0,0,.86-.32c1.13-.51,2.14-1.25,3.23-1.84A7.79,7.79,0,0,1,54,244.77Z" transform="translate(-2.53 -15.89)"/><path class="cls-26" d="M51.15,246.94c-.87.65-2,1.25-2.85,1.92-.3.23-5.2,3-5.27,3.35.8.14,5.92-3.44,6.66-3.8a11.91,11.91,0,0,0,2-1.36c.17-.13.86-.51.39-.65C51.84,246.31,51.35,246.81,51.15,246.94Z" transform="translate(-2.53 -15.89)"/><path class="cls-2" d="M45.17,225.66H37.54a1.17,1.17,0,0,0-1.17,1.17v.43h-.08v1h.08v.67h-.08v.57h.08v7.07a1.16,1.16,0,0,0,1.17,1.16h7.63a1.16,1.16,0,0,0,1.17-1.16v-9.7A1.17,1.17,0,0,0,45.17,225.66Z" transform="translate(-2.53 -15.89)"/><polygon class="cls-1" points="43.85 200.74 39.98 198.71 34.63 199.54 33.53 204.43 36.28 204.32 37.05 202.53 37.05 204.29 38.32 204.24 39.06 201.38 39.52 204.43 44.04 204.33 43.85 200.74"/><path class="cls-27" d="M33.24,244.14a2.07,2.07,0,0,0,.72.72,1.42,1.42,0,0,0,1.24,0,2.23,2.23,0,0,0,.9-.9,4.48,4.48,0,0,0,.45-2.48c0-.85-.23-1.69-.31-2.54-.06-.62-.07-1.24-.07-1.86a.63.63,0,0,1,.08-.38.72.72,0,0,1,.41-.2,3.38,3.38,0,0,0,1.82-1.84,3.2,3.2,0,0,0,.45-1.69,1.32,1.32,0,0,0-1.06-1.24,1.7,1.7,0,0,0-1.29.59A5.55,5.55,0,0,0,35,235.5a12,12,0,0,1-.21,1.8c-.35,1.24-1.44,2-2,3.12A3.75,3.75,0,0,0,33.24,244.14Z" transform="translate(-2.53 -15.89)"/><path class="cls-27" d="M49.25,239.39a2.37,2.37,0,0,1-1.31,1.27,1.89,1.89,0,0,1-1.15.07A1.31,1.31,0,0,1,46,240a2.12,2.12,0,0,1-.09-.57,5.94,5.94,0,0,1,.27-2.48c.12-.3.28-.59.37-.9a4.93,4.93,0,0,0,.14-1.09l.1-2.29a1.63,1.63,0,0,0,0-.49,1.54,1.54,0,0,0-.69-.74,4.63,4.63,0,0,1-1.69-1.8,1.27,1.27,0,0,1-.12-.74,1.23,1.23,0,0,1,1-.85,2.24,2.24,0,0,1,2.67,1.71s0,.07,0,.1c0,.26,0,.52.07.78a15.22,15.22,0,0,0,.34,1.63c.27,1.34.13,2.73.4,4.07C48.93,237.44,49.77,238.17,49.25,239.39Z" transform="translate(-2.53 -15.89)"/><circle class="cls-28" cx="38.92" cy="213.95" r="0.96"/><path class="cls-2" d="M81.87,230.87A5.13,5.13,0,1,0,87,236h0A5.13,5.13,0,0,0,81.87,230.87Zm2.54,3.83v.17A3.72,3.72,0,0,1,78.68,238l.32,0a2.65,2.65,0,0,0,1.62-.56,1.31,1.31,0,0,1-1.22-.91,1,1,0,0,0,.24,0,1.34,1.34,0,0,0,.35,0,1.32,1.32,0,0,1-1-1.29h0a1.21,1.21,0,0,0,.59.16,1.31,1.31,0,0,1-.4-1.75A3.68,3.68,0,0,0,81.82,235a1.53,1.53,0,0,1,0-.3,1.31,1.31,0,0,1,1.31-1.31,1.29,1.29,0,0,1,1,.42,2.7,2.7,0,0,0,.83-.32,1.34,1.34,0,0,1-.57.73,2.79,2.79,0,0,0,.75-.21A3,3,0,0,1,84.41,234.7Z" transform="translate(-2.53 -15.89)"/><circle class="cls-2" cx="77.69" cy="200.71" r="0.91"/><path class="cls-2" d="M81.36,214.32H79.08a1.15,1.15,0,0,0-1.14,1.14v2.28a1.14,1.14,0,0,0,1.14,1.14h2.28a1.14,1.14,0,0,0,1.14-1.14v-2.28A1.15,1.15,0,0,0,81.36,214.32ZM80.22,218a1.37,1.37,0,1,1,1.37-1.37A1.37,1.37,0,0,1,80.22,218Zm1.48-2.51a.34.34,0,1,1,.34-.34.34.34,0,0,1-.34.34Z" transform="translate(-2.53 -15.89)"/><path class="cls-2" d="M80.16,211.24a5.41,5.41,0,1,0,5.41,5.41h0A5.41,5.41,0,0,0,80.16,211.24Zm2.8,6.5a1.62,1.62,0,0,1-1.6,1.6H79.08a1.6,1.6,0,0,1-1.59-1.6v-2.28a1.59,1.59,0,0,1,1.59-1.59h2.28a1.6,1.6,0,0,1,1.6,1.59Z" transform="translate(-2.53 -15.89)"/><path class="cls-2" d="M58.23,201.49a5.32,5.32,0,1,0,5.32,5.32,5.32,5.32,0,0,0-5.32-5.32Zm1.68,3.22h-.68c-.47,0-.56.22-.56.54v.69h1.11L59.64,207h-1V210H57.44V207h-.89v-1.08h.89v-.8A1.4,1.4,0,0,1,59,203.67c.41,0,.84,0,.95,0Z" transform="translate(-2.53 -15.89)"/><text class="cls-20" transform="translate(0 266.55)">Social Media</text><line class="cls-16" x1="126.97" y1="196.61" x2="83.97" y2="211.61"/></svg>