<svg id="Layer_1" data-name="Layer 1" xmlns="http://www.w3.org/2000/svg" xmlns:xlink="http://www.w3.org/1999/xlink" viewBox="0 0 332 258.28"><defs><style>.cls-1,.cls-4,.cls-7{isolation:isolate;}.cls-1{fill:url(#linear-gradient);}.cls-2{fill:#3f3d56;}.cls-3,.cls-4{fill:#6c63ff;}.cls-4{opacity:0.3;}.cls-5{fill:#2f2e41;}.cls-6{fill:#ffb6b6;}.cls-7{opacity:0.1;}.cls-8{fill:#f0f0f0;}</style><linearGradient id="linear-gradient" x1="167.58" y1="37.35" x2="167.58" y2="276.45" gradientTransform="matrix(1, 0, 0, -1, -31, 276.45)" gradientUnits="userSpaceOnUse"><stop offset="0" stop-color="#e4e4e4"/><stop offset="0.47" stop-color="#f0f0f0" stop-opacity="0.7"/></linearGradient></defs><title>why-8</title><polygon class="cls-1" points="136.57 239.1 261.58 0 11.57 0 136.57 239.1 261.58 0 11.57 0 136.57 239.1"/><rect class="cls-2" x="119.55" y="211.34" width="34.05" height="34.05"/><path class="cls-2" d="M169.43,161.76a64.41,64.41,0,1,1,64.4-64.41A64.48,64.48,0,0,1,169.43,161.76Zm0-127A62.56,62.56,0,1,0,232,97.35,62.62,62.62,0,0,0,169.43,34.8Z" transform="translate(-31 -25.55)"/><path class="cls-2" d="M169.43,146.21a48.86,48.86,0,1,1,48.85-48.86A48.92,48.92,0,0,1,169.43,146.21Zm0-96.6a47.75,47.75,0,1,0,47.74,47.74,47.75,47.75,0,0,0-47.74-47.74Z" transform="translate(-31 -25.55)"/><path class="cls-2" d="M169.43,112.9A15.55,15.55,0,1,1,185,97.35,15.55,15.55,0,0,1,169.43,112.9Zm0-30.35a14.81,14.81,0,1,0,14.8,14.8,14.81,14.81,0,0,0-14.8-14.8Z" transform="translate(-31 -25.55)"/><path class="cls-3" d="M165.72,78.85A15.17,15.17,0,0,0,150.55,94h15.17Z" transform="translate(-31 -25.55)"/><path class="cls-4" d="M150.55,100.69a15.17,15.17,0,0,0,15.17,15.17V100.69Z" transform="translate(-31 -25.55)"/><path class="cls-4" d="M172,78.85V94h15.17A15.17,15.17,0,0,0,172,78.85Z" transform="translate(-31 -25.55)"/><path class="cls-3" d="M172,114.38a15.17,15.17,0,0,0,15.17-15.17H172Z" transform="translate(-31 -25.55)"/><polygon class="cls-2" points="153.75 53.64 153.08 53.33 160.95 36.46 211.9 36.46 211.9 37.2 161.42 37.2 153.75 53.64"/><rect class="cls-2" x="195.42" y="20.36" width="28.87" height="2.22"/><rect class="cls-2" x="195.42" y="25.17" width="28.87" height="2.22"/><rect class="cls-2" x="195.42" y="29.98" width="28.87" height="2.22"/><rect class="cls-2" x="123.99" y="142.5" width="28.87" height="2.22"/><rect class="cls-2" x="123.99" y="147.31" width="28.87" height="2.22"/><rect class="cls-2" x="123.99" y="152.12" width="28.87" height="2.22"/><polygon class="cls-2" points="165.07 158.41 164.33 158.41 164.33 100.78 155.88 87.17 156.51 86.78 165.07 100.57 165.07 158.41"/><polygon class="cls-2" points="112.52 158.41 111.78 158.41 111.78 100.57 120.35 86.78 120.97 87.17 112.52 100.78 112.52 158.41"/><rect class="cls-5" y="245.02" width="332" height="0.74"/><ellipse class="cls-5" cx="255.33" cy="168.85" rx="22.78" ry="5.76"/><path class="cls-6" d="M277.41,117.69s-.27,11-2.47,12.35,3.85,5.49,3.85,5.49l9-1.65,5.77-7.14s-4.12-4.94-2.75-9Z" transform="translate(-31 -25.55)"/><path class="cls-7" d="M277.41,117.69s-.27,11-2.47,12.35,3.85,5.49,3.85,5.49l9-1.65,5.77-7.14s-4.12-4.94-2.75-9Z" transform="translate(-31 -25.55)"/><path class="cls-8" d="M265.06,128.39s-4.66,1.92-4.94,8.51,0,25.8,0,25.8l8-.55Z" transform="translate(-31 -25.55)"/><rect class="cls-5" x="304.59" y="197.22" width="0.55" height="74.35" transform="translate(-59.45 17.04) rotate(-7.64)"/><rect class="cls-5" x="293.74" y="198.52" width="0.55" height="73.01" transform="matrix(1, -0.09, 0.09, 1, -50.22, 0.75)"/><rect class="cls-5" x="228.18" y="229.05" width="84.2" height="0.55" transform="translate(-13.64 452.11) rotate(-84.79)"/><rect class="cls-5" x="281.92" y="185.98" width="0.55" height="85.57" transform="translate(-39.04 -15.26) rotate(-2.06)"/><path class="cls-5" d="M257.38,174.77S225.82,177,231,187.4s30.47,28,30.47,28,4.66,1.1,5.48,1.38,13.45-8.24,13.45-8.24-7.68-4.66-11.25-5.49-13.72-9.6-13.72-9.6L284,186.3,267.26,172Z" transform="translate(-31 -25.55)"/><path class="cls-5" d="M282.63,181.64s-18.12,25.62-14.55,35.72,1.1,43.59,1.1,43.59,13.45,4.4,13.45,0,3.84-35.4,0-45.83c0,0,.82-6.59,3-7.69s9.88-11.25,9.88-11.25,8.23-3.84,7.13-7.41S282.63,181.64,282.63,181.64Z" transform="translate(-31 -25.55)"/><path class="cls-6" d="M295.25,111.92a11,11,0,1,1-11-11,11,11,0,0,1,11,11Z" transform="translate(-31 -25.55)"/><path class="cls-8" d="M291.41,122.9s16.47,6.86,14,15.64-7.69,46.66-15.65,46.66-24.7-4.39-25.79-6S268.08,144,268.08,144s6.31-20.41,8.64-18.71c0,0-1.5,8.83,6.46,6.64S291.41,122.9,291.41,122.9Z" transform="translate(-31 -25.55)"/><path class="cls-2" d="M277.05,122.9s-13.91,1.92-13.36,4.94l-1.1,11.53L267,162.7l-.54,7.68L253,175.05l15.92,4.66s6.58-31.56,5.49-37.6S277.05,122.9,277.05,122.9Z" transform="translate(-31 -25.55)"/><path class="cls-2" d="M291,121.93s15,8.66,16.07,11.4,0,29.09,0,29.09,1.92,24.7-3.57,31c0,0,1.92-3.3-8.24-3.3s-15.09-1.92-15.37-2.19-5.48,0-5.48,0-1.93-39.25,4.39-46.39S291.93,126.17,291,121.93Z" transform="translate(-31 -25.55)"/><path class="cls-6" d="M261.77,179.71V183s-11,10.15-6.59,12.9,12.9-9.88,12.9-9.88l1-7.34Z" transform="translate(-31 -25.55)"/><path class="cls-7" d="M261.77,179.71V183s-11,10.15-6.59,12.9,12.9-9.88,12.9-9.88l1-7.34Z" transform="translate(-31 -25.55)"/><path class="cls-5" d="M266.16,214.57l3,4.39s-10.43,15.92-5.76,17.57,25-18.12,24.7-19.76-9.88-8.24-9.88-8.24Z" transform="translate(-31 -25.55)"/><path class="cls-5" d="M270,258.76l-2.47,11s-9.6,12.62-5.21,13.72,14.27-.27,15.64-3.29,3-7.14,5.22-10.43-1.92-11-1.92-11Z" transform="translate(-31 -25.55)"/><path class="cls-8" d="M262,157.76l-1.92,4.94.83,18.94s6.86-2.75,9.05,0l-1.92-18.94-3-4.94Z" transform="translate(-31 -25.55)"/><path class="cls-6" d="M272.2,181.64,267,183.28s-20.31,6.59-11.25,11.25,14.27-3,14.27-3l3.57-2.75Z" transform="translate(-31 -25.55)"/><path class="cls-8" d="M302.94,134.15a17,17,0,0,0-8.51,13.18c-1.1,9.6-2.47,22.23-2.47,22.23l-13.72,9.06s-9.39-.38-8,3.1,1.67,10.89,4.15,9.8,6-7.69,9.6-8,18.39-6,20-12.63,8-28.82,5.21-32.11S305.13,132.78,302.94,134.15Z" transform="translate(-31 -25.55)"/><path class="cls-2" d="M273.89,104.92s-4.4-.06-5.35,1.63-.65,2.93.65,3,7.34-3.53,7.34-3.53Z" transform="translate(-31 -25.55)"/><path class="cls-7" d="M273.89,104.92s-4.4-.06-5.35,1.63-.65,2.93.65,3,7.34-3.53,7.34-3.53Z" transform="translate(-31 -25.55)"/><path class="cls-2" d="M293.09,110.54l-3,2.6s-2.85,2.65-7-1.42-9.91-7.31-12.3-6.33l6.1-2.57,5.92-.17,6.74,2.84Z" transform="translate(-31 -25.55)"/><path class="cls-2" d="M295.14,113.47a38.63,38.63,0,0,0-3.77-3.69c-2.59-2.22-6.25-4.79-10.15-5.69,0,0-3.9-1.24-6.68,0l5.37-5.87s2.91-1.65,4.43-1.23c0,0,5.1,1.1,6.55,2.38a1.14,1.14,0,0,1,.11.11h0a3.76,3.76,0,0,1,2.28,1.23c1.31,1.51,3.38,4.45,2.93,7.72C295.57,113.1,295.14,113.47,295.14,113.47Z" transform="translate(-31 -25.55)"/><path class="cls-7" d="M292.37,111.21c-11.06-9.32-17.35-7.29-17.41-7.27l-.18-.52c.26-.09,6.61-2.18,18,7.37Z" transform="translate(-31 -25.55)"/><ellipse class="cls-2" cx="290.73" cy="99.16" rx="1.1" ry="1.65" transform="translate(28.49 275.8) rotate(-60)"/><ellipse class="cls-6" cx="293.47" cy="112.06" rx="0.82" ry="1.37" transform="translate(-44.12 18.05) rotate(-8.31)"/><path class="cls-2" d="M284.09,119.48a1.64,1.64,0,0,0-.57-2.52l-5.08-1.85c-1.39-.5-2,1.48-2,1.48-.25.12-1.75-1-2.81-2.09A11,11,0,0,0,290,121.31l1.94-4.7A15.33,15.33,0,0,1,284.09,119.48Zm-1.69.66a2.69,2.69,0,0,1-2.56.71l.09-.46s1.59-.08.91-.49a12.63,12.63,0,0,0-2.32-.85s-.51-.18,0,.66l.28.35-.2.34a2.77,2.77,0,0,1-1.36-2.39s-.15-1.37,1.66-.71l3.13,1.14S283.56,119,282.4,120.14Z" transform="translate(-31 -25.55)"/></svg>