<svg id="Layer_1" data-name="Layer 1" xmlns="http://www.w3.org/2000/svg" viewBox="0 0 371.96 204.74"><defs><style>.cls-1{fill:none;stroke:#3f3d56;stroke-miterlimit:10;}.cls-2{fill:#6c63ff;}.cls-3{fill:#57b894;}.cls-4{fill:#f2f2f2;}.cls-5{fill:#3f3d56;}.cls-6{fill:#fbbebe;}.cls-10,.cls-7{opacity:0.1;}.cls-7{isolation:isolate;}.cls-8{fill:#55536e;}.cls-9{fill:#4b4b5b;}</style></defs><title>why-5</title><rect class="cls-1" x="159.3" y="32.42" width="150.67" height="31"/><path class="cls-1" d="M83.39,140c4.3-6.71,12.43-11.24,21.76-11.24,13.8,0,25,9.92,25,22.17,0,7.82-4.58,14.7-11.49,18.65" transform="translate(-14 -63.5)"/><rect class="cls-2" x="148.63" y="38.42" width="150.67" height="31"/><circle class="cls-2" cx="53.39" cy="6.5" r="2.33"/><circle class="cls-2" cx="61.39" cy="6.5" r="2.33"/><circle class="cls-2" cx="69.39" cy="6.5" r="2.33"/><rect class="cls-1" x="47.06" y="0.5" width="280" height="182"/><line class="cls-1" x1="47.06" y1="10.61" x2="327.06" y2="10.61"/><circle class="cls-1" cx="54.06" cy="5.5" r="2.33"/><circle class="cls-1" cx="62.06" cy="5.5" r="2.33"/><circle class="cls-1" cx="70.06" cy="5.5" r="2.33"/><path class="cls-3" d="M25.07,132a7.21,7.21,0,1,0-8.88-10.64l2.7,2.55-3.47-1.07a7.13,7.13,0,0,0,.15,5.48,6.9,6.9,0,0,0,1.05,1.7A7.21,7.21,0,0,0,25.07,132Z" transform="translate(-14 -63.5)"/><path class="cls-1" d="M61.13,157c-2.63-1.84-2.63-5.72-2-8.87s1.65-6.58.17-9.43c-2.13-4.1-7.74-4.34-12.34-4.78a44,44,0,0,1-10-2.17,11.72,11.72,0,0,1-3.67-1.84A13.49,13.49,0,0,1,30,125q-4.2-9-8-18.11" transform="translate(-14 -63.5)"/><path class="cls-1" d="M24.62,131.12a7.2,7.2,0,1,0-8.87-10.63L18.44,123,15,122a7.16,7.16,0,0,0,.14,5.49,7,7,0,0,0,1.05,1.69A7.18,7.18,0,0,0,24.62,131.12Z" transform="translate(-14 -63.5)"/><path class="cls-3" d="M15.84,111.14a7.2,7.2,0,0,1,.58-6.89l2.87,2.13L17.52,103a7.2,7.2,0,1,1-.36,10.18A7.34,7.34,0,0,1,15.84,111.14Z" transform="translate(-14 -63.5)"/><path class="cls-1" d="M15.25,109.94a7.18,7.18,0,0,1,.57-6.88l2.87,2.13-1.77-3.44a7.24,7.24,0,1,1-1.67,8.19Z" transform="translate(-14 -63.5)"/><path class="cls-3" d="M46.12,134.88a7.21,7.21,0,0,0-4.28-13.67l1.36,2.64-2.9-2.16h0a7.21,7.21,0,1,0,5.84,13.18Z" transform="translate(-14 -63.5)"/><path class="cls-1" d="M45.47,133.71A7.21,7.21,0,0,0,41.2,120l1.36,2.64-2.91-2.16h0a7.2,7.2,0,1,0,5.82,13.18Z" transform="translate(-14 -63.5)"/><path class="cls-3" d="M49,148.7a7.19,7.19,0,1,0-2.91-5l5.66,1.26-4.94,1.19A7,7,0,0,0,49,148.7Z" transform="translate(-14 -63.5)"/><path class="cls-1" d="M48.55,147.81a7.2,7.2,0,1,0-2.91-5L51.3,144l-4.94,1.19A7.09,7.09,0,0,0,48.55,147.81Z" transform="translate(-14 -63.5)"/><path class="cls-3" d="M361.52,216.63a6.94,6.94,0,1,0,2.78-13l-.33,3.56-1.24-3.27a6.93,6.93,0,0,0-4.08,3.37,7.2,7.2,0,0,0-.66,1.8A6.94,6.94,0,0,0,361.52,216.63Z" transform="translate(-14 -63.5)"/><path class="cls-1" d="M364,258.81c-.16-3.09,2.77-5.4,5.54-6.77s6-2.66,7.25-5.48c1.84-4.05-1.31-8.44-3.71-12.19a41.53,41.53,0,0,1-4.3-8.87,11.28,11.28,0,0,1-.79-3.87,12.86,12.86,0,0,1,1.77-5.39q4.29-8.49,9-16.79" transform="translate(-14 -63.5)"/><path class="cls-1" d="M361.93,215.76a6.94,6.94,0,1,0,2.78-13l-.33,3.56L363.14,203a6.93,6.93,0,0,0-4.08,3.37,6.81,6.81,0,0,0-.65,1.8A6.93,6.93,0,0,0,361.93,215.76Z" transform="translate(-14 -63.5)"/><path class="cls-3" d="M371.85,197.23a7,7,0,0,1,5.56-3.65l.09,3.44,1.55-3.38a6.93,6.93,0,1,1-7.2,3.59Z" transform="translate(-14 -63.5)"/><path class="cls-1" d="M372.4,196.07a6.93,6.93,0,0,1,5.56-3.65l.09,3.44,1.55-3.38a6.93,6.93,0,1,1-7.2,3.59Z" transform="translate(-14 -63.5)"/><path class="cls-3" d="M371.86,234.27a6.94,6.94,0,0,0,7.81-11.36l-1.19,2.6-.09-3.48h0a6.94,6.94,0,0,0-6.53,12.24Z" transform="translate(-14 -63.5)"/><path class="cls-1" d="M372.36,233.09a6.94,6.94,0,0,0,7.81-11.36l-1.19,2.6-.09-3.48h0a6.94,6.94,0,0,0-6.53,12.24Z" transform="translate(-14 -63.5)"/><path class="cls-3" d="M363.09,244.67a6.93,6.93,0,1,0,2.09-5.2l2.4,5-3.83-3A6.88,6.88,0,0,0,363.09,244.67Z" transform="translate(-14 -63.5)"/><path class="cls-1" d="M363.5,243.8a6.93,6.93,0,1,0,2.09-5.2l2.41,5-3.84-3A6.88,6.88,0,0,0,363.5,243.8Z" transform="translate(-14 -63.5)"/><path class="cls-3" d="M52.74,103.35a7.21,7.21,0,1,0-8.88-10.63l2.7,2.55-3.47-1.08a7.2,7.2,0,0,0,.14,5.49,7.36,7.36,0,0,0,1.05,1.69A7.21,7.21,0,0,0,52.74,103.35Z" transform="translate(-14 -63.5)"/><path class="cls-1" d="M61,101.27a13.36,13.36,0,0,1-3.27-4.89q-4.2-9-8-18.11" transform="translate(-14 -63.5)"/><path class="cls-1" d="M52.29,102.46a7.21,7.21,0,1,0-8.88-10.64l2.7,2.55-3.47-1.08a7.16,7.16,0,0,0,.15,5.49,6.61,6.61,0,0,0,1.05,1.7A7.21,7.21,0,0,0,52.29,102.46Z" transform="translate(-14 -63.5)"/><path class="cls-3" d="M43.51,82.47a7.2,7.2,0,0,1,.57-6.89L47,77.71l-1.77-3.43a7.21,7.21,0,1,1-.35,10.18,7,7,0,0,1-1.32-2Z" transform="translate(-14 -63.5)"/><path class="cls-1" d="M42.91,81.28a7.2,7.2,0,0,1,.58-6.89l2.87,2.13-1.77-3.43a7.2,7.2,0,1,1-.36,10.18,7.34,7.34,0,0,1-1.32-2Z" transform="translate(-14 -63.5)"/><line class="cls-1" x1="134.97" y1="10.61" x2="134.97" y2="182.76"/><rect class="cls-4" x="166.47" y="95.25" width="49" height="6.67"/><rect class="cls-4" x="243.47" y="95.25" width="49" height="6.67"/><rect class="cls-1" x="169.13" y="91.92" width="49" height="6.67"/><rect class="cls-4" x="166.47" y="146.92" width="49" height="6.67"/><rect class="cls-1" x="169.13" y="143.58" width="49" height="6.67"/><rect class="cls-4" x="166.63" y="120.42" width="126" height="6.67"/><rect class="cls-1" x="169.3" y="117.75" width="126" height="6.67"/><rect class="cls-1" x="246.13" y="91.92" width="49" height="6.67"/><path class="cls-5" d="M324.69,135.9a6.21,6.21,0,0,0,.4,1,17.67,17.67,0,0,1,.22,13.29,26.87,26.87,0,0,1,3.58.21,7.44,7.44,0,0,0,3.54-.39,3.56,3.56,0,0,0,2.24-2.7c.22-1.67-1-3.13-2.06-4.39a10.18,10.18,0,0,1-2.46-4.4c-.35-1.85.15-4-1-5.46a1.12,1.12,0,0,0-.38-.34,4.57,4.57,0,0,0-2.9.08A3,3,0,0,0,324.69,135.9Z" transform="translate(-14 -63.5)"/><path class="cls-5" d="M357.79,256.61a9.31,9.31,0,0,1-.39,1.64s-1.21,2.78-6.19,2c-3.26-.49-3.24-2-2.7-3.2a8.33,8.33,0,0,1,.89-1.38c.49-.65.44-3.15.61-5.43s1.2-2.39,1.2-2.39l.06,2.56c1.94-2.54,3.29.44,3.29.44s2.76.06,2.42-1.36-.89-3.89-.89-3.89,1.33.62,1.57,1.06a33.59,33.59,0,0,1-.26,6.83,4,4,0,0,0,.31,2.5A.92.92,0,0,1,357.79,256.61Z" transform="translate(-14 -63.5)"/><path class="cls-6" d="M356.87,249.37A2.72,2.72,0,0,1,355,252a3.66,3.66,0,0,1-3.19-.49,1.87,1.87,0,0,1-.79-1.76l.07-.64.28-2.35.39-3.23s4.13-2.11,3.85-1.31a13.14,13.14,0,0,0,.45,3.19c.24,1.11.52,2.33.77,3.37A2.7,2.7,0,0,1,356.87,249.37Z" transform="translate(-14 -63.5)"/><path class="cls-7" d="M350.73,249.19s3.58-4.19,6.5.39l-.49,2.93h-6Z" transform="translate(-14 -63.5)"/><path class="cls-5" d="M350.73,249.48s3.58-4.19,6.5.39l-.49,2.93h-6Z" transform="translate(-14 -63.5)"/><circle class="cls-4" cx="341.38" cy="188.21" r="0.36"/><circle class="cls-4" cx="336.73" cy="187.63" r="0.36"/><circle class="cls-4" cx="340.13" cy="190.67" r="0.36"/><circle class="cls-4" cx="336.95" cy="190.25" r="0.36"/><circle class="cls-4" cx="340.83" cy="189.52" r="0.36"/><circle class="cls-4" cx="336.73" cy="188.94" r="0.36"/><circle class="cls-4" cx="339.76" cy="192.03" r="0.36"/><circle class="cls-4" cx="336.95" cy="191.56" r="0.36"/><path class="cls-6" d="M326.79,261l-4.94,1.67s-2.62-2.62-1.89-3.42a7.17,7.17,0,0,0,.78-2.66c.07-.38.13-.76.18-1.12.18-1.19.27-2.18.27-2.18s5.75-2.76,4.8,0a6.81,6.81,0,0,0-.27,2.42,15.26,15.26,0,0,0,.31,2.42A23.78,23.78,0,0,0,326.79,261Z" transform="translate(-14 -63.5)"/><path class="cls-7" d="M326.79,261l-4.94,1.67s-2.62-2.62-1.89-3.42a7.17,7.17,0,0,0,.78-2.66,4.86,4.86,0,0,1,.58,1.61c4.27,2.34,4.34.94,4.34.94a2.62,2.62,0,0,1,.37-1A23.78,23.78,0,0,0,326.79,261Z" transform="translate(-14 -63.5)"/><path class="cls-5" d="M327.88,264.82a6.43,6.43,0,0,1-3.36.73,14,14,0,0,0-1.95.22,24.55,24.55,0,0,1-8,.22,17.51,17.51,0,0,1-2-.4c-2.58-.71-.62-2.35-.62-2.35l.34-.27a7,7,0,0,1,2.84-1.34c1.62-.26,3.11-3.13,3.11-3.13l1-1.84c1.59-1.36,2.13,1.84,2.13,1.84,4.27,2.34,4.34.94,4.34.94.24-1.25.68-1.25.68-1.25s1.06,2.87,1.45,3.58a.6.6,0,0,0,.09.15C328.14,262.17,327.88,264.82,327.88,264.82Z" transform="translate(-14 -63.5)"/><circle class="cls-4" cx="307.3" cy="196.2" r="0.36"/><circle class="cls-4" cx="305.22" cy="197.22" r="0.36"/><circle class="cls-4" cx="306.34" cy="196.7" r="0.36"/><circle class="cls-4" cx="304.05" cy="197.82" r="0.36"/><path class="cls-7" d="M326,253.3a6.81,6.81,0,0,0-.27,2.42,13.74,13.74,0,0,0-4.8-.24c.18-1.19.27-2.18.27-2.18S326.94,250.54,326,253.3Z" transform="translate(-14 -63.5)"/><path class="cls-7" d="M356,245.37c-1.78,1.75-3.49,1.86-4.69,1.35l.39-3.23s4.13-2.11,3.85-1.31A13.14,13.14,0,0,0,356,245.37Z" transform="translate(-14 -63.5)"/><path class="cls-5" d="M324.68,185.69a7.29,7.29,0,0,0-3.34,4.73c-.51,3.12-1.38,7.12-2,7.85s-2.69,3-1.89,4.29.95,5.45.95,5.45-.29,3.78.51,5,1.45,9.08-.29,11.41a47.92,47.92,0,0,0-.37,5.89c.22.51-.94,1.82-.58,2.91s2.11,21.15,1.89,21.95c0,0,5.53-.8,7,.51a14.37,14.37,0,0,0,0-3.71c-.29-1.52.22-7.56.87-9.08s.8-7.35.58-7.93c0,0,1.17-5.16.73-6.18s1.89-10.39,1.89-10.39,1.17-2.26.87-2.55c0,0,1.89-1.23,1.68-2.18s1.74-2,1.74-2a40.41,40.41,0,0,0,2.33,4.94c.58.65.6,4.87,1.32,5.74s1.66,5.45,2.6,6.69,4.73,4.51,5.31,8.22c0,0,3.42,5.3,3.27,7s3.85,4.73,7.71-.94a5,5,0,0,1-2-4.14c0-2.84-3.05-11.93-3.05-11.93s-1.75-2.54-1.09-3.78.07-4.87.07-4.87l1.38-2.25s.22-2.18.44-4.44-1.31-4.72-.58-5.81-.29-6.54-.29-6.54-.91-9.39-2.26-10S324.68,185.69,324.68,185.69Z" transform="translate(-14 -63.5)"/><path class="cls-6" d="M331.31,172.53s-1.5.17-3.31.35c-2.62.24-5.91.49-6.31.24-.66-.44,0-6,0-6s.23-6,0-10.25a9.19,9.19,0,0,1,2.95-6.76l.32-.29.73.58,4.15,7.06Z" transform="translate(-14 -63.5)"/><path class="cls-6" d="M347.51,149.34l-4.07,2.47-6.69,5.09s-6.9-3.63-5.16-5.74a3.43,3.43,0,0,0,.64-1.43c.52-2.42-.64-5.91-.64-5.91s9.1-12.29,8.58-2.76c-.21,3.82.93,5.91,2.38,7A7,7,0,0,0,347.51,149.34Z" transform="translate(-14 -63.5)"/><path class="cls-7" d="M347.51,149.34l-4.07,2.47-6.69,5.09s-6.9-3.63-5.16-5.74a3.43,3.43,0,0,0,.64-1.43c.52-2.42-.64-5.91-.64-5.91s9.1-12.29,8.58-2.76c-.21,3.82.93,5.91,2.38,7A7,7,0,0,0,347.51,149.34Z" transform="translate(-14 -63.5)"/><ellipse class="cls-7" cx="321.02" cy="74.92" rx="8.42" ry="8.92"/><ellipse class="cls-6" cx="321.02" cy="74.63" rx="8.42" ry="8.92"/><path class="cls-7" d="M347.51,149.34l-4.07,2.47-6.69,5.09s-6.9-3.63-5.16-5.74a3.43,3.43,0,0,0,.64-1.43c7.62,6.52,9.93-.22,10.32-1.63A7,7,0,0,0,347.51,149.34Z" transform="translate(-14 -63.5)"/><path class="cls-7" d="M331.31,172.53s-1.5.17-3.31.35c-.07-1.57-.31-3.34-.26-4.42.07-1.81.07-2-.51-3.05a5,5,0,0,1-.44-3.13c.07-1.25-.26-1.5-1.44-3.51l-.16-.27a10.25,10.25,0,0,1-.75-4.5v0c0-.41,0-.81,0-1.19v0c.05-1.15.14-2.13.19-2.6l.32-.29.73.58,4.15,7.06Z" transform="translate(-14 -63.5)"/><path class="cls-8" d="M352.8,150.42l.87.66c-2.63-1.14-4.12,4.58-4.52,6.38-.08.34-.11.53-.11.53l.1,1.25c.2,2.58.54,8.33-.25,9.73a2.72,2.72,0,0,0-.19.47,10.23,10.23,0,0,0-.09,3.37,34.48,34.48,0,0,0,.65,3.79s1.74,4.44,1,7.35a10.7,10.7,0,0,0-.21,3.29,20.25,20.25,0,0,0,.46,3c.07.29.12.46.12.46-1.1.37-2.17.68-3.22.93a31,31,0,0,1-6.22.84,27.53,27.53,0,0,1-17.92-5.68l-.27-.24c-1-.94.95-1.67.73-2.32s1-2.11,1-2.11-.26-2.4.83-2.91,1.89-2.25,2.5-3.71-.11-5.23,0-7,.07-2-.51-3.05a5,5,0,0,1-.44-3.13c.07-1.25-.26-1.5-1.44-3.51l-.16-.27c-.58-1,.33-2.71.32-4.42h.33c0-.4-.68-1-.66-1.33,0,0-.34-.32-.34-.33a10.55,10.55,0,0,0-.16-2.57c5.82-3,7.2.13,7.2.13,8.51,7.32,10.44-1.83,10.44-1.83,4.63-1.58,10.72,2.68,11.06,2.93Z" transform="translate(-14 -63.5)"/><path class="cls-6" d="M321.59,171.79s-.72,3.88,1.38,6.05a2.38,2.38,0,0,0,2.74.47,3.63,3.63,0,0,0,1.77-1.51C328.06,175.51,326.25,169.21,321.59,171.79Z" transform="translate(-14 -63.5)"/><path class="cls-7" d="M348.89,169a2.72,2.72,0,0,0-.19.47l.34-8.5.1-1.7C349.34,161.82,349.68,167.57,348.89,169Z" transform="translate(-14 -63.5)"/><path class="cls-7" d="M350.27,184a10.7,10.7,0,0,0-.21,3.29l-1.13,2-.33.58a14,14,0,0,0-1.18,1.77,3.38,3.38,0,0,0-.49,1.44c0,1.12-1.13,8.57-6.47,6.72-3.45-1.2-1.25-4.87.74-7.32a31.13,31.13,0,0,1,2.13-2.32s.62-.78,1.21-1.6a9.92,9.92,0,0,0,1-1.67c.26-.73,1.94-3.92,1.94-3.92s1.66-3.53,1.3-5.17a31.75,31.75,0,0,1-.21-5,34.48,34.48,0,0,0,.65,3.79S351,181,350.27,184Z" transform="translate(-14 -63.5)"/><path class="cls-6" d="M353.69,151.09s2.62,1.82,2.54,6.54-.94,12.9-.94,12.9l-.55,5.09a10.48,10.48,0,0,0-.58,2.69c.11.62-5.7,11-5.7,11s-1.68,2.09-1.68,3.21-1.12,8.57-6.47,6.71,2.88-9.63,2.88-9.63a25.82,25.82,0,0,0,2.25-3.27c.25-.73,1.93-3.93,1.93-3.93s1.67-3.52,1.3-5.16a56.48,56.48,0,0,1-.14-7.57l.36-9.29L349,158S350.38,150.14,353.69,151.09Z" transform="translate(-14 -63.5)"/><path class="cls-2" d="M325.93,168.43l4-1.44a1.88,1.88,0,0,1,1.93.4l5.26,5s.29.8-.1.77-6.05-5.71-6.05-5.71l-5.63,1.89h0A1,1,0,0,1,325.93,168.43Z" transform="translate(-14 -63.5)"/><polygon class="cls-9" points="317.54 111.6 322.99 109.63 316.94 103.92 311.31 105.81 317.54 111.6"/><circle class="cls-4" cx="309.35" cy="127.45" r="0.48"/><circle class="cls-4" cx="306.06" cy="133.68" r="0.48"/><circle class="cls-4" cx="332.38" cy="135.94" r="0.48"/><circle class="cls-4" cx="335.12" cy="144.74" r="0.48"/><circle class="cls-4" cx="334.06" cy="142.26" r="0.48"/><circle class="cls-4" cx="333.13" cy="139.1" r="0.48"/><circle class="cls-4" cx="307.59" cy="130.4" r="0.48"/><circle class="cls-4" cx="304.13" cy="136.91" r="0.48"/><path class="cls-2" d="M353.67,151.08h0c-2.63-1.14-4.12,4.58-4.52,6.38L345,151.55s-1.69,2.71-7.17,3.12a6.27,6.27,0,0,1-6.81-4.16c-.75-.06-4.15,6.06-5.39,8.26l-.16-.27a10.25,10.25,0,0,1-.75-4.5v0c0-.4,0-.79,0-1.19v0c.06-1.61.22-2.89.22-2.89,5.82-3,7.2.13,7.2.13,8.51,7.32,10.44-1.83,10.44-1.83C347.24,146.57,353.33,150.83,353.67,151.08Z" transform="translate(-14 -63.5)"/><path class="cls-7" d="M321.41,204.23c.07.18,6.18,7.23,8.44,7.6S321.41,204.23,321.41,204.23Z" transform="translate(-14 -63.5)"/><path class="cls-7" d="M325.78,193.41s.07,5-1.46,6.1S325.78,193.41,325.78,193.41Z" transform="translate(-14 -63.5)"/><path class="cls-7" d="M328.61,195.18s-.15,5.85,2,7.23C330.64,202.41,326.65,198.52,328.61,195.18Z" transform="translate(-14 -63.5)"/><path class="cls-7" d="M325.92,225.24s-4.07,3-5.2,3.24S325.92,225.24,325.92,225.24Z" transform="translate(-14 -63.5)"/><path class="cls-7" d="M324.9,132.92a2,2,0,0,0,.34,3,5.33,5.33,0,0,0,3.27.86,30.21,30.21,0,0,1,6.59.47,5.31,5.31,0,0,1,2.52,1.3,5.74,5.74,0,0,1,1.32,2.61,14.68,14.68,0,0,1,.45,4.38,14.77,14.77,0,0,0-.07,3,9.54,9.54,0,0,0,.93,2.64,111.07,111.07,0,0,0,5.61,10.42,2,2,0,0,0,.74.8,1.93,1.93,0,0,0,1.66-.26,12.42,12.42,0,0,1-.51-3.15,1.42,1.42,0,0,0,1.49-.52,4.13,4.13,0,0,0,.68-1.53l1-3.37c.3-1,.75-2.24,1.79-2.55a7,7,0,0,0,1.1-.25,1.42,1.42,0,0,0,.68-1.39,3,3,0,0,0-.66-1.48c-1.47-2-3.92-3.15-5.07-5.34-1-1.87-.82-4.13-.49-6.22s.78-4.25.28-6.31a8.35,8.35,0,0,0-3.25-4.64,13,13,0,0,0-5.3-2.18,5.29,5.29,0,0,0-2.68,0c-.66.22-1.23.66-1.87.93-1.47.6-3.16.24-4.69.62a6.36,6.36,0,0,0-3.48,2.51,13.41,13.41,0,0,0-1.81,4c-.29.92.17,1.29-.66,1.79" transform="translate(-14 -63.5)"/><path class="cls-5" d="M325.05,132.63c-.88.74-.56,2.28.33,3a5.35,5.35,0,0,0,3.27.86,29.56,29.56,0,0,1,6.59.47,5.32,5.32,0,0,1,2.53,1.29,5.71,5.71,0,0,1,1.31,2.62,14.05,14.05,0,0,1,.45,4.38,14.76,14.76,0,0,0-.06,3,9.52,9.52,0,0,0,.92,2.64A111.16,111.16,0,0,0,346,161.27a1.48,1.48,0,0,0,2.4.54,12.43,12.43,0,0,1-.52-3.15,1.44,1.44,0,0,0,1.5-.52,4.49,4.49,0,0,0,.68-1.53l1-3.37c.31-1.05.75-2.24,1.8-2.55a6.63,6.63,0,0,0,1.09-.25,1.4,1.4,0,0,0,.68-1.39,3,3,0,0,0-.65-1.48c-1.47-2-3.93-3.16-5.08-5.34-1-1.87-.81-4.13-.49-6.22s.78-4.25.28-6.31a8.33,8.33,0,0,0-3.24-4.64,13.06,13.06,0,0,0-5.3-2.18,5.18,5.18,0,0,0-2.68,0c-.66.22-1.23.66-1.88.93-1.46.6-3.15.24-4.69.62a6.37,6.37,0,0,0-3.47,2.51,13.44,13.44,0,0,0-1.82,4c-.28.92.17,1.29-.65,1.79" transform="translate(-14 -63.5)"/><path class="cls-6" d="M324.14,172.24s6.65-4.43,8.54-1.71-5.85,6.07-5.85,6.07Z" transform="translate(-14 -63.5)"/><path class="cls-5" d="M326.31,151.17c0,.43-.1,1-.34,1,.62,0,1.23.44,1.85.3a1.84,1.84,0,0,0,1.16-1.2.54.54,0,0,1,.16-.26.22.22,0,0,1,.2,0,20,20,0,0,1,3.35,2.53c.34.32.71.66,1.09.49a8.4,8.4,0,0,0-.72-3.49,4.44,4.44,0,0,0-1.9-2.09,5.81,5.81,0,0,0-2.24-.58,2.31,2.31,0,0,1-1-.24c-.33-.2-1.38-1.46-1.62-.54a9.16,9.16,0,0,0,0,1.88Q326.37,150.11,326.31,151.17Z" transform="translate(-14 -63.5)"/><g class="cls-10"><path d="M347.36,161.34a2,2,0,0,1-.73-.8A108.64,108.64,0,0,1,341,150.13a9.61,9.61,0,0,1-.93-2.65,15.54,15.54,0,0,1,.06-3,14.08,14.08,0,0,0-.45-4.38,5.62,5.62,0,0,0-1.31-2.61,5.38,5.38,0,0,0-2.53-1.3,30.17,30.17,0,0,0-6.59-.47,5.38,5.38,0,0,1-3.26-.85,2.27,2.27,0,0,1-.75-2.4l-.19.15a2,2,0,0,0,.35,3,5.37,5.37,0,0,0,3.27.86,29.56,29.56,0,0,1,6.59.47,5.28,5.28,0,0,1,2.53,1.29,5.71,5.71,0,0,1,1.31,2.62,14.05,14.05,0,0,1,.45,4.38,15.54,15.54,0,0,0-.06,3,9.52,9.52,0,0,0,.92,2.64,111.16,111.16,0,0,0,5.62,10.42,1.48,1.48,0,0,0,2.4.54l-.12-.44A1.35,1.35,0,0,1,347.36,161.34Z" transform="translate(-14 -63.5)"/><path d="M325,132.71l.09-.06,0,0Z" transform="translate(-14 -63.5)"/><path d="M325.65,131.92l-.09.06.11-.07h0c.69-.47.29-.85.56-1.73A13.32,13.32,0,0,1,328,126.3q-.28.32-.54.66a13.44,13.44,0,0,0-1.82,4,6.56,6.56,0,0,0-.14,1.17Z" transform="translate(-14 -63.5)"/><path d="M354.56,149.71a6,6,0,0,1-1.1.25,2.16,2.16,0,0,0-1.22,1.08,1.74,1.74,0,0,1,.64-.35,7,7,0,0,0,1.1-.25,1.3,1.3,0,0,0,.6-.74Z" transform="translate(-14 -63.5)"/><path d="M348.52,157.93c0,.25,0,.5,0,.75a1.6,1.6,0,0,0,.87-.54,2.66,2.66,0,0,0,.29-.45A1.33,1.33,0,0,1,348.52,157.93Z" transform="translate(-14 -63.5)"/></g><path class="cls-7" d="M322.53,171.38a7.07,7.07,0,0,1,2.78-.55" transform="translate(-14 -63.5)"/><path class="cls-7" d="M327.59,179.37s.89,1.38,5.39,2S327.59,179.37,327.59,179.37Z" transform="translate(-14 -63.5)"/><path class="cls-7" d="M326,184.53a12.76,12.76,0,0,0,10.54,2.25C343,185.47,326,184.53,326,184.53Z" transform="translate(-14 -63.5)"/><line class="cls-1" x1="293.8" y1="204.25" x2="360.47" y2="193.92"/><path class="cls-2" d="M74.77,155.54c0,8.71,5.72,16.24,14,19.81L76.92,146.59A19.74,19.74,0,0,0,74.77,155.54Zm41.67-1.11a10.66,10.66,0,0,0-2-6.07c-1.26-1.81-2.44-3.35-2.44-5.16a4,4,0,0,1,4.18-3.9h.32a26.63,26.63,0,0,0-16.8-5.77,25.83,25.83,0,0,0-20.79,9.91l1.6,0c2.61,0,6.63-.28,6.63-.28a.91.91,0,1,1,.16,1.81s-1.34.14-2.84.21l9,23.84,5.45-14.44L95,145.22c-1.34-.07-2.61-.21-2.61-.21a.91.91,0,1,1,.16-1.81s4.11.28,6.55.28c2.61,0,6.63-.28,6.63-.28a.91.91,0,1,1,.16,1.81s-1.35.14-2.84.21l9,23.66,2.48-7.34c1.07-3,1.89-5.23,1.89-7.11Z" transform="translate(-14 -63.5)"/><path class="cls-2" d="M100.08,157.47l-7.46,19.18a28,28,0,0,0,15.29-.35,1.83,1.83,0,0,1-.18-.3ZM121.48,145a15.66,15.66,0,0,1,.17,2.27,18.75,18.75,0,0,1-1.9,7.88l-7.6,19.43c7.4-3.81,12.38-10.9,12.38-19a20,20,0,0,0-3-10.56Z" transform="translate(-14 -63.5)"/></svg>