<svg id="Layer_1" data-name="Layer 1" xmlns="http://www.w3.org/2000/svg" viewBox="0 0 315 233.98"><defs><style>.cls-1{fill:#f2f2f2;}.cls-2{fill:#3f3d56;}.cls-3{fill:none;stroke:#6c63ff;stroke-miterlimit:10;stroke-width:2px;opacity:0.8;isolation:isolate;}.cls-4{fill:#6c63ff;}</style></defs><title>how-2</title><path class="cls-1" d="M326.2,91.88c-35.75-49.76-111.28-69.94-185.55-48.2-39.27,11.49-77.13,34.51-95.89,79.09C11.22,202.47,81.64,227.92,127.69,236a249,249,0,0,1,62.4,19.48c34.48,16.14,95.51,30.44,141.52-36.78C365,170,350,125,326.2,91.88Z" transform="translate(-36 -35)"/><path class="cls-2" d="M118.92,101.72a9.25,9.25,0,0,0-.6-2.31,1.07,1.07,0,0,0-.53-.65,1.06,1.06,0,0,0-.53,0l-2.7.41a1,1,0,0,0-.61.24c-.36.37,0,1,0,1.47a1.39,1.39,0,0,1-1.07,1.2,4.28,4.28,0,0,1-1.71,0l-3.78-.59a6.33,6.33,0,0,0,2.86-1.91c.5-.59.76-1.68,0-2a1.78,1.78,0,0,0-.65-.06c-1.72,0-3.06-1.41-4.66-2a5.15,5.15,0,0,0-5.8,1.73l2,.09a.87.87,0,0,1,.54.15c.44.36-.11,1,0,1.62.08.74,1.06.9,1.8,1s1.67.67,1.32,1.32c-3.71,1.28-7.48-2.49-11.38-2a24.23,24.23,0,0,0-2.87.75c-5.88,1.49-12-2.48-18-1.64a23.08,23.08,0,0,0-3.92,1,5.28,5.28,0,0,0-2.26,1.18,1.81,1.81,0,0,0-.26,2.34,13,13,0,0,1-4.61-.44,2.57,2.57,0,0,1,1.33,2.28,27,27,0,0,0-7,2.14A13,13,0,0,0,57.29,109l-3.06,2a1.74,1.74,0,0,1,1,2.55c1.07-.48,1.74-1.71,2.89-2a3.84,3.84,0,0,1,2.23.43,3.43,3.43,0,0,0,2.23.35c.74-.22,1.28-1.17.82-1.78a38.34,38.34,0,0,1,9.7-1.52,1.28,1.28,0,0,1,.74.14c.42.3.31.94.29,1.46s.38,1.2.85,1c-.55.47-.08,1.36.44,1.86s1.16,1.19.84,1.84c-.09.17-.23.3-.31.48-.24.5.14,1.09.59,1.42a5.09,5.09,0,0,1,1.3,1c.31.46.17,1.27-.39,1.34l-1.57-2a4,4,0,0,0-1.06,2,4.23,4.23,0,0,1,.52,5.79,14.3,14.3,0,0,1-2.62,2A3.57,3.57,0,0,0,71,130c0,1.91-.16,3.68.56,5.44A81,81,0,0,0,76.1,145c.45.81,1,1.69,1.94,1.83q-1.73-4.22-3.11-8.55a2,2,0,0,1,1.65.54,3.41,3.41,0,0,1,.31,1.44,4.79,4.79,0,0,0,.57,1.34l5.5,9.8a4.06,4.06,0,0,0,1.86,2,10.78,10.78,0,0,1,1.71.47c.4.24.67.66,1.08.88,1.16.64,2.77-.58,3.86.18.31.21.5.56.79.8,1,.87,2.64.29,3.79.94a4.45,4.45,0,0,1,1.53,2c1,1.89,2.6,3.74,4.74,3.9a13.33,13.33,0,0,1,2,.06c.66.15,1.3.72,1.2,1.39-.18,1.13.38,2.38.23,3.52-.28,2.08-3.22,3-3.48,5.07a12.57,12.57,0,0,1-.07,1.37c-.14.55-.55,1-.69,1.53a2.91,2.91,0,0,0,1.27,2.75,7.47,7.47,0,0,1,2.22,2.26c.46,1,.23,2.22.39,3.33.33,2.44,2.43,4.25,4.6,5.41a4.84,4.84,0,0,1,1.79,1.31,7.06,7.06,0,0,1,.69,2.83c.46,2.35,2.44,4.29,2.49,6.68,0,1.7-.9,3.24-1.47,4.85a11.31,11.31,0,0,0,.93,9.38,15.92,15.92,0,0,1,1.22,2.16c.54,1.38.36,2.95.86,4.35.65,1.85,2.43,3.37,2.26,5.32.81,1.68,2.61,2.51,4.41,3l3.23.9a4,4,0,0,0,1.89.22,1.42,1.42,0,0,0,1.22-1.29,11.62,11.62,0,0,1-4.53-1.7,4,4,0,0,1-1.7-4.23c.23-.71.72-1.54.25-2.13-.26-.34-.75-.43-1-.74a1.61,1.61,0,0,1,0-1.88,6.57,6.57,0,0,0,1-1.76,1.85,1.85,0,0,0-.86-1.91,4.47,4.47,0,0,0,1.59-1,1.57,1.57,0,0,0,.29-1.77c1,.13,2.14.19,2.78-.56a2.49,2.49,0,0,0,.28-2.26,9.9,9.9,0,0,1-.56-2.3,41.6,41.6,0,0,0,6.79-.23,4.42,4.42,0,0,0-2.06-2.58A3.6,3.6,0,0,0,134,201.5a6.14,6.14,0,0,0,0-3.07,1.55,1.55,0,0,1,0-.8,1.58,1.58,0,0,1,.8-.79l5.07-2.9a3.41,3.41,0,0,0,.81-.6,2.42,2.42,0,0,0,.18-2.34,11.53,11.53,0,0,1-.81-2.31c-.32-2.42,2.28-4.17,3.16-6.45a10,10,0,0,0,.48-2.83c.07-1,.08-2.23-.71-2.89s-1.94-.49-2.74-1.08-1-1.6-1.77-2-1.62-.14-2.42-.33c-1.42-.33-2.3-2-3.75-2.11-.81-.08-1.73.32-2.4-.16s-.61-1.25-.72-2a5.5,5.5,0,0,0-4.44-4.45,6.1,6.1,0,0,1-2.46-.54c-.73-.47-1.06-1.34-1.62-2a6.85,6.85,0,0,0-3.71-1.73l-5.49-1.29c-1-.23-2.23-.35-2.75.5a3.76,3.76,0,0,0-.33,1,3.17,3.17,0,0,1-3,2.24,3.57,3.57,0,0,0-2.08-1.61,11.88,11.88,0,0,1-1.69-.4,2.36,2.36,0,0,1-1.08-3.16.67.67,0,0,1,.06-.12,2.94,2.94,0,0,0-.51-3.54,4.72,4.72,0,0,0-3.53-1c-.33-.72.22-1.53.81-2s1.31-1,1.44-1.8c.2-1.23-1.36-2.15-2.54-1.79a4.39,4.39,0,0,0-2.44,2.65,8,8,0,0,1-1,1.88,1.91,1.91,0,0,1-1.87.76c-1-.24-1.35-1.4-1.57-2.38a15.58,15.58,0,0,1-.51-4,5.24,5.24,0,0,1,1.5-3.64c1.62-1.49,4.11-1.34,6.29-1.1a1.6,1.6,0,0,1,.17-2.11,2.39,2.39,0,0,1,2.17-.54,3.08,3.08,0,0,1,1.69,1,16,16,0,0,1,1.26,2.64c.47.86,1.53,1.59,2.39,1.13a2,2,0,0,0,.68-2.26,8.24,8.24,0,0,1-.51-2.47c.13-1.61,1.79-2.58,3.27-3.24s3.15-1.55,3.39-3.15a2.58,2.58,0,0,1,.17-.91,1.71,1.71,0,0,1,.66-.62c4.29-2.84,8.66-5.72,13.57-7.27.26-.08.29,0,.55,0s.12-.79-.23-1-.82-.41-.91-.83.12-.59.16-.9a1.13,1.13,0,0,0-1.48-1.15c-.39-.52.39-1.12,1-1.3a27.76,27.76,0,0,1,5.8-1,1.07,1.07,0,0,1,.66.12.77.77,0,0,1,0,1.07,6.17,6.17,0,0,1-.88.81,2.4,2.4,0,0,0-.63,2.44,5.46,5.46,0,0,0,3.27.87c1.13-.18,2.14-1.46,1.61-2.47s-2-1.17-2.25-2.21c-.3-1.21,1.42-2.29,1-3.48-.17-.53-.69-.83-1.09-1.21a3.27,3.27,0,0,1-.72-3.63,4.14,4.14,0,0,1-3.62-1.13c-.87-.88-1.56-2.25-2.79-2.21s-2.1,1.35-3.15,1c-.26-.1-.53-.3-.79-.19a.68.68,0,0,0-.29.49c-.27,1.28.19,2.74-.5,3.85s-2.52,1.37-3.44,2.46c-.51.59-.7,1.38-1.16,2s-1.43,1-2,.47a2.74,2.74,0,0,0-.74-3.33,7.63,7.63,0,0,0-1.65-.8,9.94,9.94,0,0,1-1.83-1,2,2,0,0,1-.68-.72,1.69,1.69,0,0,1,0-1.15,4.65,4.65,0,0,1,3.71-3.07c.74-.1,1.59-.07,2.08-.63.26-.29.39-.74.76-.86a1.09,1.09,0,0,1,.71.09l2.74,1a2,2,0,0,0,1,.16.64.64,0,0,0,.57-.69c-.08-.46-.78-.68-.72-1.14a.78.78,0,0,1,.23-.38,9.78,9.78,0,0,1,7.78-3.07c.34.56-.2,1.24-.66,1.72s-.82,1.36-.27,1.73a1.55,1.55,0,0,0,.73.16,6.6,6.6,0,0,1,1.94.59c.95.42,1.88.87,2.79,1.36a3.53,3.53,0,0,1,.07-1.8,1.22,1.22,0,0,1,1.44-.78c.55.21.83.93,1.41,1,.77.08,1.08-1.06.75-1.77s-1-1.3-1-2.08c0-.52.16-1.18-.26-1.49a1.12,1.12,0,0,0-.49-.18l-10.47-1.92c-.62-.12-1.51,0-1.54.6,0,.36.3.7.16,1s-.64.31-1,.43a1.35,1.35,0,0,0-.77,1.43,3.91,3.91,0,0,0,.65,1.61C120.63,102.05,119.6,102,118.92,101.72Z" transform="translate(-36 -35)"/><path class="cls-2" d="M110.57,92.84A3.37,3.37,0,0,0,106.85,94a.74.74,0,0,0-.17.79c.2.35.73.21,1.12.08a2.82,2.82,0,0,1,1.77,0c.37.13.69.35,1.06.47a1.08,1.08,0,0,0,1.09-.16,1.43,1.43,0,0,0,.26-1,.82.82,0,0,0-.2-.67,1.2,1.2,0,0,0-.49-.14,1.66,1.66,0,0,1-1-.56" transform="translate(-36 -35)"/><path class="cls-2" d="M114.35,91.79a.85.85,0,0,0-.91.81.92.92,0,0,0,.07.4,3.67,3.67,0,0,0,1.4.09,1.2,1.2,0,0,0,1-.89,2.22,2.22,0,0,1-1.59-.31" transform="translate(-36 -35)"/><path class="cls-2" d="M127,90a16.16,16.16,0,0,0-3.57,1.21,2.71,2.71,0,0,1,1.72,2.7,1.38,1.38,0,0,0,0,.67c.13.31.51.43.85.52a5.53,5.53,0,0,0,1.85.23,1.87,1.87,0,0,0,1.54-.94,5.45,5.45,0,0,1,.32-.75c.8-1.22,3.18.25,4-.92.3-.42.27-1,.67-1.37a1.43,1.43,0,0,1,.69-.27,48.39,48.39,0,0,1,5.23-.74c.83-.08,1.92-.37,1.92-1.21A14.46,14.46,0,0,0,133,90.4c-1,.52-2.4,1.61-3.39.92-.37-.25-.35-.94-.87-1.23A2.56,2.56,0,0,0,127,90Z" transform="translate(-36 -35)"/><path class="cls-2" d="M137.26,92l1.47.28a1.91,1.91,0,0,0-2,1.82v.25c1.38.46,2.89,0,4.34.07s3.14,1.1,2.89,2.53c-.07.43-.32.87-.19,1.29s.35.5.49.77a1.73,1.73,0,0,1-.32,1.79c-.39.52-.9.93-1.24,1.47-.84,1.36-.37,3.11.13,4.63a4.19,4.19,0,0,0,.79,1.56,4.13,4.13,0,0,0,3,.88,2.68,2.68,0,0,0,2.19-.64c.66-.8.2-2.05.63-3a3.29,3.29,0,0,1,2.28-1.47,34.38,34.38,0,0,0,4.88-1.6c1.93-.89,3.74-2.27,5.86-2.39a8.08,8.08,0,0,0,1.78-.12,1.35,1.35,0,0,0,1.08-1.26c0-.5-.47-.88-.81-1.26s-.6-1-.29-1.38l5.57-1c-.39-1.08-.7-2.49.21-3.19a8,8,0,0,0,1-.66,1.35,1.35,0,0,0-.31-1.86,3.53,3.53,0,0,0-2-.6,53,53,0,0,0-7.35.06l-14.34.79a10.38,10.38,0,0,0-3,.3A13.39,13.39,0,0,1,142,91C140.42,91.29,138.69,91.06,137.26,92Z" transform="translate(-36 -35)"/><path class="cls-2" d="M163.62,103.58a.57.57,0,0,0-.42.1.47.47,0,0,0-.14.33,2.14,2.14,0,0,0,.31,1.56,1.53,1.53,0,0,0,1.4.67c.66-.08,1.15-.65,1.76-.92.94-.43,4.93-1.09,2.17-2.58-.95-.52-1.56-.06-2.31.28A5.32,5.32,0,0,1,163.62,103.58Z" transform="translate(-36 -35)"/><path class="cls-2" d="M187.79,91.11a1.51,1.51,0,0,0-.77.66.68.68,0,0,0,.25.9,1.21,1.21,0,0,0,.38.06l1.31,0c.55,0,1.25.13,1.4.67s-.14.91.16,1.19a.8.8,0,0,0,.45.17,2.94,2.94,0,0,0,1.32,0c1-.26.45-.84.75-1.36.46-.79.38-.31,1.19-.76.59-.34,1.37-1,.87-1.8C194.23,89.44,189.06,90.47,187.79,91.11Z" transform="translate(-36 -35)"/><path class="cls-2" d="M213.64,90.36l-.76.1a30.42,30.42,0,0,0-5.1,1A8.65,8.65,0,0,0,210,92a6.61,6.61,0,0,1,1.25.18c.73.22,1.47.78,2.17.49.44-.18.58-.63.94-.87s1.2-.44,1.31-.61C216.53,89.81,214.29,90.27,213.64,90.36Z" transform="translate(-36 -35)"/><path class="cls-2" d="M217,93.82a13.77,13.77,0,0,0-2.81,2.05,1.72,1.72,0,0,0-.69,1.24c0,.65.73,1,1.33,1.29l2.44,1c.29-.42,0-1-.28-1.4s-.67-.88-.54-1.38.84-.75,1.42-.84c.93-.16,3.45-.15,3.15-1.65C220.64,92.38,217.91,93.29,217,93.82Z" transform="translate(-36 -35)"/><path class="cls-2" d="M216.49,194.24a2.31,2.31,0,0,0,.14,2,2.06,2.06,0,0,0,2.13.73,3.8,3.8,0,0,0,2-1.27,6.54,6.54,0,0,0,1.14-1.74,13.64,13.64,0,0,0,.84-3.08l.76-4c.16-.88.16-3.6-1.47-2.72-.45.25-1.47,2.15-1.94,2.7a8.62,8.62,0,0,0-1.39,3.1C218.11,191.53,217,192.76,216.49,194.24Z" transform="translate(-36 -35)"/><path class="cls-2" d="M302.47,214.53a12.12,12.12,0,0,1-1.54-.74,13,13,0,0,0-.79,4.27l3.65-2.06c.55-.31,1.17-.74,1.16-1.37a.42.42,0,0,0-.21-.39.37.37,0,0,0-.25,0,6.21,6.21,0,0,0-1.55.49,1.87,1.87,0,0,1-1.57,0" transform="translate(-36 -35)"/><path class="cls-2" d="M321.7,215.75a8.16,8.16,0,0,0-1.17.42,17.32,17.32,0,0,0-2.16,1.8,8.51,8.51,0,0,1-2.43,1.11.58.58,0,0,0,.13.86,1.64,1.64,0,0,0,1,.22,5.06,5.06,0,0,0,2.59-.4,8.66,8.66,0,0,0,1.22-1,12.85,12.85,0,0,1,3.07-1.73,3.76,3.76,0,0,0,1.07-.64c.67-.67.72-1.7-.26-1.92C324,214.31,322.45,215.51,321.7,215.75Z" transform="translate(-36 -35)"/><path class="cls-2" d="M330.2,210.2a3,3,0,0,0-.93-2.49,4.69,4.69,0,0,1-.56,2.65c-.36.54-.94.91-1.34,1.42a1.39,1.39,0,0,0-.11,1.79,1.8,1.8,0,0,0,1.05.36,3.17,3.17,0,0,0,2.69-.51c.36-.37.53-.92,1-1.19a1.18,1.18,0,0,0,.43-.31c.18-.29-.11-.67-.43-.77s-.68-.05-1-.15-.63-.47-.46-.76" transform="translate(-36 -35)"/><path class="cls-2" d="M315.1,176.56a4.28,4.28,0,0,1-1.51.09,5.55,5.55,0,0,1-2.17-1.31,9.6,9.6,0,0,0-5.58-2c-1.83,0-3.69.47-5.49.12a2.17,2.17,0,0,0,1.27,1.44c.6.29,1.26.44,1.87.72a4.51,4.51,0,0,1,2.15,2.24,5.62,5.62,0,0,0,.61,1.34,3.07,3.07,0,0,0,2.74.92c1.31-.08,2.67-.46,3.89,0a9.61,9.61,0,0,1,2.37,1.82,2.68,2.68,0,0,0,2.77.64,4.55,4.55,0,0,1-3.16-4.39c.87.08,3.39,0,3.26-1.44C318,175.57,315.85,176.42,315.1,176.56Z" transform="translate(-36 -35)"/><path class="cls-2" d="M303.64,186.81c.16-.85,1-1.6.75-2.43a1.5,1.5,0,0,0-1.45-.86c-.6,0-1.19.16-1.79.18a7.62,7.62,0,0,0-1.17,0c-1.19.19-1.92,1.44-3,1.88a19.15,19.15,0,0,1-2.16.41c-1.6.42-2.62,1.94-3.75,3.16a13.3,13.3,0,0,1-6.79,4,6.11,6.11,0,0,0-2.63.94,5.29,5.29,0,0,0-1.41,3.36,56,56,0,0,1-2.7,9.92l3.82.49a5.12,5.12,0,0,0,2.17,0,6.21,6.21,0,0,0,1.44-.76,14.31,14.31,0,0,1,5.59-2,6,6,0,0,1,3,.21,2.8,2.8,0,0,1,1.82,2.22,2.35,2.35,0,0,1,2.34.58,4.07,4.07,0,0,1,1.12,2.23c.11.52.21,1.15.69,1.37s.85,0,1.28,0c1.47-.12,2.69,1.6,4.13,1.3s1.93-2.63,3.44-3.1c.87-.27,2.09.06,2.5-.75s-.36-1.53-.29-2.33c.1-1,1.25-1.39,2.15-1.81a6.68,6.68,0,0,0,3-8.63c-.88-1.81-2.62-3.24-2.94-5.22-.25-1.53.36-3.31-.62-4.52-.49-.61-1.33-.95-1.63-1.68a8.86,8.86,0,0,1-.21-1.46c-.1-.49-.52-1-1-.87-1.4.37-1.84,4.66-2.58,5.71A1.73,1.73,0,0,1,303.64,186.81Z" transform="translate(-36 -35)"/><path class="cls-2" d="M277.92,178.18a2.27,2.27,0,0,0-1.45-.07c-.46.19-.72.86-.36,1.19a49.16,49.16,0,0,1,8.58.17c3.27.44,6.5,1.55,9.79,1.23a49.2,49.2,0,0,0-5.71-1.33l-3.22-.61a25.3,25.3,0,0,0-2.61-.41C281.11,178.2,279.72,178.69,277.92,178.18Z" transform="translate(-36 -35)"/><path class="cls-2" d="M280.78,168.22c-.24,0-.53,0-.65.16s0,.46-.05.67-.48.38-.78.34a1.52,1.52,0,0,0-.92,0,.77.77,0,0,0-.3.88,2.11,2.11,0,0,0,.53.84A8.13,8.13,0,0,0,280,172.5c1,.73,2.32,1.08,2.94,2.13a1.29,1.29,0,0,0,.39.53,1.09,1.09,0,0,0,1-.1l1.13-.52a1.23,1.23,0,0,0,.52-.35,1.16,1.16,0,0,0-.11-1.22,2,2,0,0,1-.45-1.19c.08-.77,1.07-1.06,1.47-1.72s.15-1.51.19-2.28.63-2.09-.29-2.77-1.52,0-2.08.59C283.51,166.94,283,168.4,280.78,168.22Z" transform="translate(-36 -35)"/><path class="cls-2" d="M287.59,154.67c.39.73,1.19,1.17,1.6,1.88s.41,1.78.9,2.53,1.52,1.18,1.8,2-.39,2.12.16,3a1.24,1.24,0,0,0,1.74.23l.08-.06a1.34,1.34,0,0,0-.05-1.87c-.33-.3-.81-.43-1.08-.78a1.56,1.56,0,0,1-.28-.68,4.43,4.43,0,0,1,.07-2.14,1,1,0,0,0,.05-.56c-.12-.36-.61-.39-.95-.55-.78-.38-.76-1.48-.63-2.34-.09.57-2.12-.4-2.33-.72-.43-.65-.2-1.88-.28-2.59A2,2,0,0,0,287.59,154.67Z" transform="translate(-36 -35)"/><path class="cls-2" d="M267.13,166c-.37-.42-.94-.86-1.44-.61a.92.92,0,0,0-.34,1.13,2.48,2.48,0,0,0,.82,1,27.86,27.86,0,0,1,3.09,2.65c1.63,1.8,2.5,4.22,4.28,5.88a2.4,2.4,0,0,0,1.35.73,1,1,0,0,0,1.15-.81,1.53,1.53,0,0,0-.53-1.12c-.69-.75-1.45-1.44-2.1-2.23a1.88,1.88,0,0,1-.54-1.12c0-.42.38-.86.79-.76-.5-.12-.87-.95-1.6-1.11s-.76.25-1.48-.06C269.19,168.9,268.1,167,267.13,166Z" transform="translate(-36 -35)"/><path class="cls-2" d="M299.72,125.09a11.61,11.61,0,0,1-1.17-.42c-1-.31-2.39.45-2.26,1.51.1.71.75,1.19,1.12,1.81a4,4,0,0,1,.11,3.08,2.33,2.33,0,0,1-.39.88,2.91,2.91,0,0,1-.92.67,12.36,12.36,0,0,0-3.61,3.06.85.85,0,0,0-.22.42c-.05.36.31.62.52.92.45.66.12,1.56.17,2.37a.67.67,0,0,0,.28.59c.27.14.6-.1.75-.37.49-.89.12-2.33,1-2.76.18-.08.39-.11.51-.27s0-.6.1-.89c.14-.44.74-.46,1.19-.44a6.82,6.82,0,0,0,2.34-.31,1.51,1.51,0,0,0,.77-.45,1.63,1.63,0,0,0,.2-1.27,17.38,17.38,0,0,0-2-6.23,3.7,3.7,0,0,0,2.4-.22c.39-.24.86-1,.67-1.43C301,124.57,300.41,125.22,299.72,125.09Z" transform="translate(-36 -35)"/><path class="cls-2" d="M195.62,137.11a3.1,3.1,0,0,1,0,1.57,1.07,1.07,0,0,1-1.21.77c-.4-.12-.63-.51-.91-.82-1.55-1.68-5.06-.7-6-2.78-.39-.85-.12-1.86-.39-2.76a2.46,2.46,0,0,0-2.49-1.69,5.13,5.13,0,0,0-1.43.43,36,36,0,0,1-9.48,2.37,8.1,8.1,0,0,0-1.82.33,5.75,5.75,0,0,0-2.89,3,23.21,23.21,0,0,1-2,3.75,16.62,16.62,0,0,1-3.4,2.9,3.58,3.58,0,0,0-1.12,1.17,3.82,3.82,0,0,0-.22,1.75l.24,7.18A6.69,6.69,0,0,0,163,157a18.48,18.48,0,0,0,2.24,2.62,5.13,5.13,0,0,1,1.07,3.28c0,.48-.06,1,.31,1.34a1.35,1.35,0,0,0,.76.22l9.72.79c1.71.14,3.6.37,4.72,1.68.53.61.95,1.5,1.76,1.56a6.21,6.21,0,0,0,1-.14,2.51,2.51,0,0,1,2.12,1.32,5.87,5.87,0,0,1,.94,3.77c-.08.84-.33,1.65-.39,2.48-.21,3.18,2.48,5.94,2.53,9.12a11.34,11.34,0,0,1-1.72,5.29c1.4,2.12.25,4.94.81,7.42s2.49,4.19,3,6.55c.22,1.08.23,2.4,1.18,3a2.75,2.75,0,0,0,1.35.27,17.82,17.82,0,0,0,8.08-1.84c1.17-.58,2.39-1.46,2.6-2.75.17-1-.37-2.22.17-3.13.64-1.08,2.27-1,3.21-1.82,1.52-1.34.34-3.9.95-5.83.55-1.74,2.46-2.66,3.41-4.22a7.76,7.76,0,0,0,.79-2.14,30.45,30.45,0,0,0,.8-5.47c0-1.12.11-2.24.25-3.35,1-6.33,7.27-10.56,9.31-16.64.19-.58.28-1.36-.24-1.69a1.5,1.5,0,0,0-1-.1l-4.48.57a3.1,3.1,0,0,1-1.66-.1,1.07,1.07,0,0,1-.61-1.37c.77-1.38-.8-3.12-1.5-4.53a66.68,66.68,0,0,0-6.66-10.81,1.12,1.12,0,0,1-.29-.63l1.27,0c-.43-1.54-1.14-3.22-2.63-3.79a6.7,6.7,0,0,0-2.68-.16A38.73,38.73,0,0,1,195.62,137.11Z" transform="translate(-36 -35)"/><path class="cls-2" d="M203.51,102.39a4.31,4.31,0,0,0,2.41,1.6c1.72.23,3-1.56,3.75-3.1a1.51,1.51,0,0,0,1.59,1.4,3.06,3.06,0,0,0,1.19-.47A23.52,23.52,0,0,1,223.58,99a1.2,1.2,0,0,1,.92-1.32c.79-.16,1.5.52,1.88,1.23a6.93,6.93,0,0,0,1.23,2.07c.61.53,1.78.51,2-.26s-.54-1.37-1.18-1.81-1.32-1.24-.88-1.88a57.54,57.54,0,0,1,9.9-1.6,4.15,4.15,0,0,0,1.67-.29,1.3,1.3,0,0,0,.78-1.37A3.77,3.77,0,0,1,236,92.24c4.64-.39,9.58-.71,13.69,1.47.5,1.06-2,1.94-1.35,2.9a1.23,1.23,0,0,0,1,.35,51,51,0,0,0,8.56-.33,11.32,11.32,0,0,1,3.12-.25c1.72.21,3.2,1.36,4.9,1.74a2.64,2.64,0,0,0,2.05-.24,1.32,1.32,0,0,0,.36-1.85c1.6-1.56,4.25-1.18,6.36-.42s4.11,2,6.35,2.12c1.6.12,3.23-.31,4.81,0a30,30,0,0,1,2.89.88,21.71,21.71,0,0,0,5.7.43,40,40,0,0,1,14.21,2.83,4.21,4.21,0,0,1,1.58.93,1.56,1.56,0,0,1,.36,1.7l-4.68-.68c.44.87,1.58,1,2.51,1.32s1.88,1.32,1.33,2.12c-1-.32-1.92.68-2.42,1.6s-1.13,2-2.18,2.09-2.08-.75-2.69,0a18.74,18.74,0,0,1,2.16,3.46c.61,1.27,1,2.86.22,4a1,1,0,0,1-.55.43c-.67.17-1.11-.65-1.59-1.14a5.63,5.63,0,0,0-2.34-1.1c-.82-.29-1.68-.87-1.74-1.74a3.46,3.46,0,0,1,.45-1.54,5.78,5.78,0,0,0,.45-2.66,3,3,0,0,0-.77-2,1.56,1.56,0,0,0-2-.2c-.26.22-.48.57-.82.58-.6,0-1.07-1-1.55-.67a1.7,1.7,0,0,1-.23,1.1c-1.45,1.27-3.68.73-5.55,1.18a10.19,10.19,0,0,0-2.53,1.11,1.59,1.59,0,0,0-.73.6,1.13,1.13,0,0,0,.44,1.34,3.53,3.53,0,0,0,1.44.49,14,14,0,0,1,6.39,2.57A6.26,6.26,0,0,1,296,122.8l-4.49-4.3c.17,1.81.26,3.62.29,5.43a2.36,2.36,0,0,1-.15,1c-.32.71-1.19.94-1.95,1.1a1.53,1.53,0,0,0-1.21,1.79,1,1,0,0,0,0,.17,6.3,6.3,0,0,0,1.56,2.25,4.35,4.35,0,0,1,1.31,2.39,1.67,1.67,0,0,1-1.53,1.89,2,2,0,0,1-1.52-1.31,7.75,7.75,0,0,0-.92-1.87c-1.35-1.63-4.39-.93-5.6-2.67a2.73,2.73,0,0,0-.57,2.61,1.43,1.43,0,0,1,1.76.49,13.31,13.31,0,0,1,1,1.74c.44.78,1.16,1.47,1.22,2.37a8.47,8.47,0,0,0,0,1,4,4,0,0,0,.89,1.39,4,4,0,0,1,.22,3.7,11.21,11.21,0,0,1-2.18,3.17,37.71,37.71,0,0,1-4.75,4.79,4.86,4.86,0,0,0-1.35,1.36,1.47,1.47,0,0,0,.15,1.77c-.34,0-1,.19-1.3.21a30.27,30.27,0,0,1-.08-4.15c-1.36-.65-2.82,1.09-2.64,2.59s1.25,2.69,2,4a4.73,4.73,0,0,1,.8,3.13,2.32,2.32,0,0,1-2.25,2c-1.75-.15-2.48-2.66-4.2-2.94a.73.73,0,0,0-.46,0c-.25.14-.3.49-.31.78a9.61,9.61,0,0,0,.43,4.24c.82,1.93,2.93,3.55,2.48,5.6-2.38-1.11-3.62-3.78-4.19-6.36s-.66-5.27-1.67-7.7c-.76,1-2.38.17-3.08-.86s-1.07-2.11-1.71-3.1a3.82,3.82,0,0,0-2.82-1.93,5,5,0,0,0-3.25,1.59,7.53,7.53,0,0,0-2,2.26c-.66,1.33-.49,2.9-.52,4.38a6.75,6.75,0,0,1-1.47,4.47,3.24,3.24,0,0,1-4.31.52,4.8,4.8,0,0,1-1.21-2.17A103.64,103.64,0,0,1,243.19,148c-.2.9-1,2.06-1.75,1.53a1.51,1.51,0,0,1-.4-.51c-1.41-2.39-4-3.82-6.65-4.68s-5.41-1.26-8-2.2a20.18,20.18,0,0,1-4.16-2.07,3.28,3.28,0,0,0-.2,3.34,2.67,2.67,0,0,0,3,1.26c.58-.19,1.07-.59,1.64-.79a1.28,1.28,0,0,1,1.59.46c.24.53-.12,1.17.06,1.72.28.84,1.55.9,2,1.67a1.55,1.55,0,0,1-.41,1.79,7.57,7.57,0,0,1-1.68,1c-1.87,1-3.2,2.81-4.83,4.19s-3.93,2.39-5.88,1.5c.47-2.35-2.33-4.07-2.85-6.41-.17-.77-.08-1.58-.32-2.33a7.56,7.56,0,0,0-2.1-2.66,10.4,10.4,0,0,1-2.86-7.58,10.76,10.76,0,0,0,0-2.89,2.17,2.17,0,0,0-2-1.81c-2.2.1-5,.26-6.14-1.62-.41-.67-.59-1.65,0-2.16a2.07,2.07,0,0,1,1.59-.28l5,.49a5.51,5.51,0,0,0,3.42-.4c1-.61,1.43-2.22.51-2.94-.68-.52-1.89-.49-2.08-1.32s.6-1.48.18-2.06c-.29-.41-1-.29-1.36,0a9.81,9.81,0,0,1-1.15,1,3.51,3.51,0,0,1-2.6-.25c-.85-.27-2-.29-2.41.5s.41,2,0,2.94c-.6,1.17-2.66.5-3.51,1.51s.66,2.89.33,4.37a2.7,2.7,0,0,1-2.68-.15,2.6,2.6,0,0,1-1.12-2.42c.08-.67.43-1.35.19-2a2.28,2.28,0,0,0-1.17-1.07l-4.83-2.67a2.19,2.19,0,0,0,.83,2.49,8.39,8.39,0,0,1,2.06,1.92,2.52,2.52,0,0,1-1,3.32.62.62,0,0,1-.48.08.7.7,0,0,1-.31-.42,10.3,10.3,0,0,0-4.17-5.47c-2.05-1.14-5-.9-6.33,1-.32.46-.53,1-.81,1.46-1.48,2.56-4.64,3.78-7.59,3.7a1.5,1.5,0,0,1-.83-.2c-.48-.33-.46-1-.38-1.6l.31-2.45a1.89,1.89,0,0,1,.54-1.33c.54-.44,1.33-.16,2-.17a2.58,2.58,0,0,0,2.34-1.81,2.89,2.89,0,0,0-.81-2.89c-.32-.3-.75-.67-.58-1.08a.89.89,0,0,1,.63-.42c1.25-.36,2.57-.46,3.8-.89a3.94,3.94,0,0,0,2.72-2.58c.09-.39.13-.86.48-1a1.51,1.51,0,0,1,.56-.11,2.71,2.71,0,0,0,2.31-2.82,1.77,1.77,0,0,1,2,.33,5.53,5.53,0,0,0,1.77,1.21c1.29.35,2.54-.79,3.88-.8a5,5,0,0,0,1.68,0c.54-.2.86-.73,1.27-1.13s1.14-.63,1.52-.21l-.32-2.4a4.71,4.71,0,0,0,3.84-.7l-4.19-1.42a.83.83,0,0,1-.39-.21c-.31-.32,0-.84.24-1.21.59-.89.69-2.36-.28-2.81a2.4,2.4,0,0,0-2.07.42l-3.06,1.71c-.1.58.61.91,1.05,1.3a1.77,1.77,0,0,1,.15,2.5,1.74,1.74,0,0,1-1.3.59,2.2,2.2,0,0,1,.39,1.87L189,112a.89.89,0,0,1-.67-.13c-.22-.2-.19-.54-.24-.83a1.8,1.8,0,0,0-1.51-1.32,5.42,5.42,0,0,0-2.11.2,1.27,1.27,0,0,1-.9,0,.86.86,0,0,1-.36-.46,2.3,2.3,0,0,1,.47-2.23,11.65,11.65,0,0,1,1.75-1.61,10.27,10.27,0,0,0,3.05-4.73c1.13-.47,2.3-1.12,3.44-1.59a10.48,10.48,0,0,1,5.66-1.1l3.84.07a9.26,9.26,0,0,1,3.36.49,3.12,3.12,0,0,1,2,2.5.79.79,0,0,1-.25.71.92.92,0,0,1-.48.11C205,102.09,204.57,102.36,203.51,102.39Z" transform="translate(-36 -35)"/><path class="cls-2" d="M172.9,114.43a1.13,1.13,0,0,0,.3-1.13,2.12,2.12,0,0,0-2.18.41,4,4,0,0,0-.58.77,3.48,3.48,0,0,0-.66,2.73.78.78,0,0,0,.36.49,1,1,0,0,0,.41.06,13.09,13.09,0,0,0,1.66-.1c.34,0,.74-.14.87-.45s-.25-.89-.13-1.32a1.53,1.53,0,0,1,.36-.51.68.68,0,0,0,.21-.56c-.05-.2-.36-.32-.47-.14" transform="translate(-36 -35)"/><path class="cls-2" d="M175.78,110.69a4.79,4.79,0,0,0-1.51-.09.71.71,0,0,0-.32.07.53.53,0,0,0-.2.29,1.43,1.43,0,0,0,.83,1.75,1.93,1.93,0,0,1,.52.2c.42.33.15,1,.23,1.54s.67,1.1.56,1.7-.58.84-.5,1.31.71.64,1.21.68a1.54,1.54,0,0,0,.85-.09,1.32,1.32,0,0,0,.54-.79,5,5,0,0,0,.26-1.88,1.87,1.87,0,0,0-.22-.84,5.27,5.27,0,0,0-.49-.57C176.58,112.86,177.59,111.2,175.78,110.69Z" transform="translate(-36 -35)"/><path class="cls-3" d="M301.36,197.71s-73.15-42-104.63-34c0,0-66.74,7.19-74.47,23,0,0-21.21-66.29-28.95-68.5" transform="translate(-36 -35)"/><path class="cls-3" d="M122.26,186.66C134.52,154,245,117.72,245,117.72c-15.69,4-48.28,46-48.28,46s-68.95-50.16-103.42-45.52c0,0,151.81,5,208.05,79.55" transform="translate(-36 -35)"/><circle class="cls-4" cx="57.31" cy="83.17" r="3.2"/><circle class="cls-4" cx="86.26" cy="151.67" r="3.2"/><circle class="cls-4" cx="209.01" cy="82.72" r="3.2"/><circle class="cls-4" cx="265.36" cy="162.72" r="3.2"/><circle class="cls-4" cx="160.73" cy="128.69" r="3.2"/></svg>