<svg id="Layer_1" data-name="Layer 1" xmlns="http://www.w3.org/2000/svg" viewBox="0 0 279.21 235.34"><defs><style>.cls-1{fill:#e6e6e6;}.cls-2{fill:#3f3d56;}.cls-3{fill:#ff64cb;}.cls-4{fill:#43f78b;}.cls-5{fill:#2f2e41;}.cls-6{fill:#fff;}.cls-7{fill:#ffce43;}.cls-8{fill:#6c63ff;}</style></defs><title>how-1</title><ellipse class="cls-1" cx="246.04" cy="233.02" rx="30.38" ry="2.32"/><ellipse class="cls-1" cx="98.07" cy="233.02" rx="30.38" ry="2.32"/><path class="cls-1" d="M292.81,229.82H86.25A3.26,3.26,0,0,1,83,226.56V28.25A3.26,3.26,0,0,1,86.25,25H292.81a3.26,3.26,0,0,1,3.25,3.25V226.56A3.26,3.26,0,0,1,292.81,229.82ZM86.25,26.3a2,2,0,0,0-2,1.95V226.56a2,2,0,0,0,2,1.95H292.81a2,2,0,0,0,1.95-1.95V28.25a2,2,0,0,0-1.95-1.95Z" transform="translate(-60 -25)"/><path class="cls-1" d="M98.19,42.36a1.31,1.31,0,0,0-1.31,1.3V97.47a1.31,1.31,0,0,0,1.31,1.3H152a1.31,1.31,0,0,0,1.31-1.3V43.66a1.31,1.31,0,0,0-1.31-1.3Z" transform="translate(-60 -25)"/><path id="b9d15c13-74bb-46fd-a6fd-5a7002be597d" class="cls-1" d="M182.82,81.3a1.58,1.58,0,0,0,0,3.15H257A1.58,1.58,0,0,0,257,81.3H182.82Z" transform="translate(-60 -25)"/><path id="fb98932a-aea9-43a1-946e-96a095a0002f" class="cls-1" d="M182.82,67a1.58,1.58,0,0,0,0,3.15H204a1.58,1.58,0,0,0,.06-3.15H182.82Z" transform="translate(-60 -25)"/><path id="a8382d7c-76a2-4f66-b41d-b5784413a475" class="cls-1" d="M182.82,96.06a1.57,1.57,0,0,0,0,3.14H257a1.57,1.57,0,0,0,0-3.14h-74.2Z" transform="translate(-60 -25)"/><path id="a69b3c31-ebec-4776-89b9-9c88b713759e" class="cls-1" d="M271,152.89H169.12c-2,0-3.59-1.15-3.6-2.56V128.18c0-1.42,1.62-2.56,3.6-2.56H271c2,0,3.59,1.14,3.59,2.56v22.14C274.62,151.74,273,152.88,271,152.89Z" transform="translate(-60 -25)"/><path id="ac481be8-039b-4a38-bb10-2d9a81406e5c" class="cls-1" d="M202,206.69H100.13c-2,0-3.6-1.14-3.6-2.56V182c0-1.41,1.61-2.56,3.6-2.56H202c2,0,3.6,1.15,3.6,2.56v22.15C205.63,205.55,204,206.69,202,206.69Z" transform="translate(-60 -25)"/><path id="e05581d0-cd6a-412e-af3c-57495fab8d46" class="cls-2" d="M171.29,218.89H69.39c-2,0-3.6-1.14-3.6-2.56V194.19c0-1.42,1.61-2.56,3.6-2.56h101.9c2,0,3.6,1.14,3.6,2.56v22.14C174.89,217.75,173.28,218.89,171.29,218.89ZM69.39,192.65c-1.2,0-2.16.69-2.16,1.53v22.15c0,.85,1,1.54,2.16,1.54h101.9c1.19,0,2.16-.69,2.16-1.54V194.19c0-.85-1-1.54-2.16-1.54Z" transform="translate(-60 -25)"/><circle class="cls-3" cx="147.97" cy="124.97" r="8.24"/><circle class="cls-4" cx="24.3" cy="180.08" r="8.24"/><path id="f4993879-8a0d-4ea4-907e-e549be7081a0" class="cls-2" d="M225.78,144.06a1.58,1.58,0,0,0,0,3.15h59a1.58,1.58,0,0,0,.05-3.15h-59Z" transform="translate(-60 -25)"/><path id="a649136c-96b9-48c7-9686-75389104c34a" class="cls-2" d="M225.78,152.74a1.57,1.57,0,0,0,0,3.14h59a1.57,1.57,0,1,0,.05-3.14h-59Z" transform="translate(-60 -25)"/><path id="bf4cb793-0df2-4753-9628-c376ea3545d1" class="cls-2" d="M102.11,199.17a1.58,1.58,0,0,0,0,3.15h59a1.58,1.58,0,0,0,.05-3.15h-59Z" transform="translate(-60 -25)"/><path id="bf2170fd-291c-4664-b596-01f8e04656d6" class="cls-2" d="M102.11,207.85a1.57,1.57,0,0,0,0,3.14h59a1.57,1.57,0,1,0,.05-3.14h-59Z" transform="translate(-60 -25)"/><circle class="cls-5" cx="246.9" cy="206.52" r="18.69"/><rect class="cls-5" x="249.74" y="221.19" width="5.68" height="10.17"/><rect class="cls-5" x="238.38" y="221.19" width="5.68" height="10.17"/><ellipse class="cls-5" cx="250.68" cy="231.48" rx="4.73" ry="1.77"/><ellipse class="cls-5" cx="239.33" cy="231.24" rx="4.73" ry="1.77"/><circle class="cls-6" cx="246.42" cy="201.79" r="6.39"/><circle class="cls-2" cx="246.42" cy="201.79" r="2.13"/><path class="cls-7" d="M325,214.14c1.51-6.76-3.31-13.58-10.77-15.25s-14.73,2.46-16.24,9.22,3.44,9.25,10.9,10.92S323.52,220.9,325,214.14Z" transform="translate(-60 -25)"/><path class="cls-5" d="M107.87,107.43a18.62,18.62,0,0,1-1.93,8.26c-.14.3-.29.58-.45.87H72.87c-.16-.29-.31-.57-.46-.87a18.69,18.69,0,1,1,35.46-8.26Z" transform="translate(-60 -25)"/><circle class="cls-6" cx="29.65" cy="77.7" r="6.39"/><circle class="cls-2" cx="29.65" cy="77.7" r="2.13"/><path class="cls-8" d="M71.05,90.05c-1.51-6.76,3.32-13.59,10.78-15.25S96.56,77.26,98.06,84s-3.43,9.25-10.89,10.91S72.56,96.81,71.05,90.05Z" transform="translate(-60 -25)"/><path class="cls-2" d="M116,58.41H62.17A2.17,2.17,0,0,0,60,60.58v53.81a2.17,2.17,0,0,0,2.17,2.17H116a2.17,2.17,0,0,0,2.17-2.17V60.58A2.17,2.17,0,0,0,116,58.41Zm1.3,56a1.3,1.3,0,0,1-1.3,1.3H62.17a1.3,1.3,0,0,1-1.3-1.3V60.58a1.3,1.3,0,0,1,1.3-1.3H116a1.3,1.3,0,0,1,1.3,1.3Z" transform="translate(-60 -25)"/><ellipse class="cls-5" cx="172.3" cy="217.41" rx="9.34" ry="2.93" transform="translate(-152.3 275.73) rotate(-69.08)"/><circle class="cls-5" cx="155.02" cy="231.52" r="18.69" transform="translate(-158.34 322.46) rotate(-80.78)"/><rect class="cls-5" x="86.51" y="221.19" width="5.68" height="10.17"/><rect class="cls-5" x="97.86" y="221.19" width="5.68" height="10.17"/><ellipse class="cls-5" cx="91.24" cy="231.48" rx="4.73" ry="1.77"/><ellipse class="cls-5" cx="102.59" cy="231.24" rx="4.73" ry="1.77"/><path class="cls-4" d="M136.9,214.14c-1.51-6.76,3.31-13.58,10.77-15.25s14.73,2.46,16.24,9.22S160.47,217.36,153,219,138.41,220.9,136.9,214.14Z" transform="translate(-60 -25)"/><ellipse class="cls-5" cx="133.98" cy="222.85" rx="2.93" ry="9.34" transform="translate(-184.79 223.4) rotate(-64.63)"/><circle class="cls-5" cx="252.54" cy="149.55" r="18.23"/><rect class="cls-5" x="315.39" y="188.83" width="5.54" height="9.92" transform="translate(-60.9 -23.52) rotate(-0.27)"/><rect class="cls-5" x="304.32" y="188.88" width="5.54" height="9.92" transform="translate(-60.9 -23.57) rotate(-0.27)"/><ellipse class="cls-5" cx="305.96" cy="199.85" rx="4.62" ry="1.73" transform="translate(-119.02 156.45) rotate(-30.27)"/><ellipse class="cls-5" cx="316.81" cy="199.8" rx="4.62" ry="1.73" transform="translate(-117.52 161.91) rotate(-30.27)"/><circle class="cls-6" cx="252.05" cy="144.94" r="6.23"/><circle class="cls-2" cx="249.92" cy="142.29" r="2.08"/><path class="cls-3" d="M330.14,157.52c1.44-6.6-3.29-13.24-10.58-14.83s-14.36,2.47-15.8,9.06,3.4,9,10.68,10.6S328.7,164.12,330.14,157.52Z" transform="translate(-60 -25)"/><ellipse class="cls-5" cx="293.5" cy="165.32" rx="2.86" ry="9.12" transform="translate(-33.02 346.33) rotate(-67.1)"/><ellipse class="cls-5" cx="330.74" cy="180.43" rx="2.86" ry="9.12" transform="translate(-24.19 389.87) rotate(-67.1)"/><path class="cls-6" d="M316.22,182.5a4.16,4.16,0,0,1-8.31.06v0h0c0-2.29,1.85-2.77,4.14-2.78S316.21,180.2,316.22,182.5Z" transform="translate(-60 -25)"/><path id="acccf4df-3a09-4c7b-a8c8-af469fe66e6d" class="cls-2" d="M297.54,163.71H195.63c-2,0-3.59-1.14-3.6-2.56V139c0-1.41,1.62-2.56,3.6-2.56H297.54c2,0,3.59,1.15,3.6,2.56v22.15C301.13,162.57,299.52,163.71,297.54,163.71ZM195.63,137.47c-1.19,0-2.16.69-2.16,1.53v22.15c0,.85,1,1.54,2.16,1.54H297.54c1.19,0,2.15-.69,2.16-1.54V139c0-.84-1-1.53-2.16-1.53Z" transform="translate(-60 -25)"/></svg>