<svg id="Layer_1" data-name="Layer 1" xmlns="http://www.w3.org/2000/svg" viewBox="0 0 283.92 266.92"><defs><style>.cls-1{fill:#3f3d56;}.cls-2{fill:#6c63ff;}.cls-3{fill:#f2f2f2;}.cls-4{fill:#2f2e41;}.cls-5{fill:#fff;}</style></defs><title>how-6</title><path class="cls-1" d="M225,203.46v92.46H343.92V203.46Zm103.41,24.73h-9.21V219h9.21Z" transform="translate(-60 -29)"/><rect class="cls-1" y="174.46" width="155" height="24.17"/><rect class="cls-1" y="208.61" width="155" height="24.17"/><rect class="cls-1" y="242.75" width="155" height="24.17"/><rect class="cls-1" x="27.62" y="57.82" width="7.67" height="9.98"/><rect class="cls-1" x="224.45" y="135.71" width="9.98" height="7.67"/><polygon class="cls-2" points="108.95 208.61 155 208.61 155 232.78 94.99 232.78 108.95 208.61"/><polygon class="cls-2" points="89.23 242.75 155 242.75 155 266.93 75.28 266.93 89.23 242.75"/><path class="cls-1" d="M173.9,147.81c-.66-.66-1.31-1.35-2-2l.69-.63c.62.68,1.27,1.36,1.92,2Z" transform="translate(-60 -29)"/><path class="cls-1" d="M168.24,141.4c-1.17-1.51-2.29-3.08-3.33-4.67l.78-.51c1,1.57,2.13,3.12,3.29,4.6ZM162,131.8c-.9-1.68-1.75-3.41-2.51-5.16l.85-.37c.76,1.72,1.59,3.43,2.48,5.08Zm-4.59-10.51c-.62-1.8-1.17-3.65-1.64-5.5l.91-.23c.46,1.83,1,3.66,1.61,5.43ZM155.48,110l-.92.16c-.32-1.88-.56-3.8-.72-5.69l.93-.08c.16,1.87.4,3.76.71,5.61Zm-1-11.26h-.93c0-1.91.07-3.83.22-5.73l.93.07c-.15,1.88-.22,3.78-.22,5.66Zm.91-11.28-.92-.15c.31-1.88.7-3.77,1.17-5.62l.9.23c-.46,1.82-.85,3.69-1.15,5.54Zm125-27c-1.05-1.57-2.17-3.1-3.34-4.57l.73-.59c1.19,1.5,2.33,3,3.38,4.64Zm-122.2,16-.89-.3c.62-1.8,1.32-3.6,2.08-5.35l.86.37c-.76,1.73-1.45,3.5-2.05,5.28ZM273.35,51.63c-1.29-1.37-2.65-2.71-4.05-4l.63-.7c1.41,1.28,2.79,2.63,4.1,4ZM162.71,66.14l-.82-.44c.9-1.68,1.88-3.34,2.92-4.94l.78.51C164.57,62.84,163.6,64.48,162.71,66.14ZM265,44.05c-1.5-1.14-3.06-2.23-4.64-3.25l.5-.78c1.61,1,3.19,2.13,4.7,3.29Zm-96.08,12.6-.74-.57c1.16-1.51,2.4-3,3.69-4.39l.69.62c-1.27,1.39-2.5,2.85-3.64,4.34Zm86.55-18.71c-1.66-.88-3.37-1.7-5.1-2.44l.37-.86c1.75.75,3.49,1.59,5.17,2.48ZM176.49,48.29l-.64-.68c1.4-1.3,2.86-2.55,4.36-3.73l.57.73C179.31,45.77,177.86,47,176.49,48.29ZM245,33.48c-1.79-.6-3.61-1.13-5.44-1.58l.22-.91c1.85.46,3.71,1,5.52,1.6ZM185.37,41.3l-.51-.78c1.58-1.05,3.24-2,4.9-3l.45.82C188.57,39.28,186.94,40.27,185.37,41.3ZM234,30.78c-1.85-.3-3.74-.52-5.62-.66l.07-.93c1.9.14,3.82.37,5.7.67Zm-38.76,5.09-.37-.85c1.73-.77,3.53-1.48,5.33-2.11l.31.88C198.77,34.41,197,35.11,195.28,35.87Zm27.48-5.94c-1.87,0-3.78.11-5.65.28l-.09-.93c1.9-.17,3.83-.26,5.73-.28ZM206,32.15l-.23-.9c1.84-.48,3.73-.89,5.61-1.21l.16.91C209.65,31.28,207.78,31.68,206,32.15Z" transform="translate(-60 -29)"/><path class="cls-1" d="M284.67,67.83c-.42-.83-.85-1.65-1.3-2.46l.82-.45c.45.82.89,1.65,1.31,2.49Z" transform="translate(-60 -29)"/><path class="cls-2" d="M309.7,295.92,266.09,220.4l-9.78-16.94-22.59-39.14-11.23-19.44-11.23,19.44-22.59,39.14-9.79,16.94-4.17,7.23H215V203.46h10v92.46ZM253.75,257a5.6,5.6,0,1,1-5.6,5.6h0a5.6,5.6,0,0,1,5.6-5.6Zm-32.3-73.55-6.29-6.74,6.74-6.28,6.28,6.73Z" transform="translate(-60 -29)"/><circle class="cls-3" cx="155.34" cy="96.21" r="4.67"/><path class="cls-3" d="M220.71,57.71a46,46,0,1,0,53.92,36.5h0A46,46,0,0,0,220.71,57.71Zm-4.31,73a5.6,5.6,0,1,1,4.43-6.55h0A5.59,5.59,0,0,1,216.4,130.71Zm31-40.85-9,1.74-1.75-9,9.05-1.74Z" transform="translate(-60 -29)"/><circle class="cls-4" cx="72.91" cy="126.71" r="30.31"/><polygon class="cls-4" points="61.21 168.21 52.15 166.57 55.09 147.65 64.15 149.29 61.21 168.21"/><rect class="cls-4" x="128.02" y="184.27" width="16.5" height="9.21" transform="translate(-133.86 260.32) rotate(-79.74)"/><ellipse class="cls-4" cx="136.38" cy="199.03" rx="2.88" ry="7.67" transform="translate(-163.64 145.48) rotate(-49.74)"/><ellipse class="cls-4" cx="118.64" cy="198.5" rx="2.88" ry="7.67" transform="translate(-169.51 131.75) rotate(-49.74)"/><circle class="cls-5" cx="75.04" cy="119.29" r="10.36"/><circle class="cls-1" cx="79.29" cy="115.58" r="3.45"/><path class="cls-2" d="M109,122.73c-.45-11.22,9.22-20.72,21.61-21.23s22.79,8.19,23.25,19.41-8.16,13.77-20.54,14.28S109.46,134,109,122.73Z" transform="translate(-60 -29)"/><ellipse class="cls-4" cx="160.9" cy="150.19" rx="15.16" ry="4.76" transform="translate(-89.49 10.75) rotate(-12.91)"/><ellipse class="cls-4" cx="101.4" cy="160.08" rx="15.16" ry="4.76" transform="translate(-93.2 -2.3) rotate(-12.91)"/><path class="cls-5" d="M124.59,167.65a6.91,6.91,0,1,0,13.59,2.46c.68-3.75-2.22-5.08-6-5.76S125.27,163.9,124.59,167.65Z" transform="translate(-60 -29)"/></svg>