<svg id="Layer_1" data-name="Layer 1" xmlns="http://www.w3.org/2000/svg" xmlns:xlink="http://www.w3.org/1999/xlink" viewBox="0 0 303.99 226.56"><defs><style>.cls-1,.cls-9{fill:#6c63ff;}.cls-1,.cls-15,.cls-6{opacity:0.1;isolation:isolate;}.cls-2{fill:#65617d;}.cls-3{fill:url(#linear-gradient);}.cls-4{fill:#ee8e9e;}.cls-5{fill:#dfe5ee;}.cls-7{fill:#d48a9b;}.cls-8{fill:#efc6cd;}.cls-10,.cls-15{fill:#fff;}.cls-11{fill:#ffd037;}.cls-12{fill:#9d9cb5;}.cls-13{fill:#603556;}.cls-14{fill:#5c5c8e;}.cls-16{fill:#efc8c4;}.cls-17{fill:#727a9c;}</style><linearGradient id="linear-gradient" x1="271.26" y1="37.86" x2="271.26" y2="143.19" gradientTransform="matrix(1, 0, 0, -1, -70.44, 246.71)" gradientUnits="userSpaceOnUse"><stop offset="0" stop-color="gray" stop-opacity="0.25"/><stop offset="0.54" stop-color="gray" stop-opacity="0.12"/><stop offset="1" stop-color="gray" stop-opacity="0.1"/></linearGradient></defs><title>how-5</title><path class="cls-1" d="M347,137.73c-.06.32-.11.65-.17,1A118.36,118.36,0,0,1,337,169.89c-.15.32-.31.64-.47,1A89.08,89.08,0,0,1,325.43,188a35.29,35.29,0,0,1-8,7.48c-4.27,2.73-9.27,3.84-14.19,4.75-5.1.94-10.28,1.72-15.44,2.58-1.83.3-3.64.61-5.45.94-5,.9-9.93,1.94-14.77,3.32a76.51,76.51,0,0,0-17.22,7.09c-.43.24-.86.5-1.29.76s-.86.52-1.28.79l-1.25.81-.63.43-.63.43-1.82,1.28,0,0-1.19.86c-2.23,1.66-4.42,3.39-6.6,5.13l-1.37,1.1-2.13,1.69-1.26,1-.92.71c-1.55,1.2-3.12,2.37-4.73,3.49l-1.14.79a60.66,60.66,0,0,1-10.2,5.62l0,0a39.88,39.88,0,0,1-5.42,1.87,29.76,29.76,0,0,1-3.19.69,27.89,27.89,0,0,1-8.65.15c-5.66-.8-11-3.44-16.59-4.32-11.63-1.81-22.92,4-33.87,8.59-2.68,1.12-5.38,2.17-8.12,3.15q-2.73,1-5.47,1.87a171.94,171.94,0,0,1-34.31,7.34,78.58,78.58,0,0,1-14.56.39,50.31,50.31,0,0,1-5.46-.7,31.51,31.51,0,0,1-16.47-8,38.65,38.65,0,0,1-8.6-13.37q-1.23-3-2.19-6.13a69.47,69.47,0,0,1-2.23-10c-.11-.76-.21-1.53-.28-2.29-.15-1.32-.26-2.64-.34-4a68.84,68.84,0,0,1,2-21c2-7.57,5.22-14.82,6.65-22.47.06-.32.12-.64.17-1,.2-1.15.34-2.32.44-3.51.72-9.35-2.07-18.5-4.28-27.67-.08-.32-.16-.65-.23-1-.24-1-.47-2-.68-3a77,77,0,0,1-.79-29.74c.05-.33.12-.65.19-1a48.14,48.14,0,0,1,6.7-16.77A58.14,58.14,0,0,1,71,73.84q3.48-2.79,7.21-5.21,2.68-1.74,5.46-3.29A90.81,90.81,0,0,1,132.5,53.86q1.33.06,2.67.18c.94.08,1.87.18,2.8.29,10.86,1.25,21.42,4.36,31.92,7.76l10.54,3.45,4.68,1.5a240.63,240.63,0,0,0,23.28,6.24q2.72.57,5.45,1a127.64,127.64,0,0,0,19.11,2q3.74.09,7.46-.07c1.26-.06,2.52-.15,3.78-.26,13-1.11,25.54-4.84,38.13-8.35,1.82-.51,3.65-1,5.46-1.5,2.39-.65,4.79-1.27,7.19-1.84,15-3.6,28.33-1.53,42.25,5.88,3.16,1.69,6.31,3.72,8.27,6.87s2.42,7,2.78,10.79c.51,5.33.86,10.74,1,16.17,0,.32,0,.64,0,1A172.27,172.27,0,0,1,347,137.73Z" transform="translate(-48.01 -36.86)"/><path class="cls-1" d="M247.68,169.89h-1v1h1.1Zm-11.09,0v0l-.09.8v.14H245v0l.61-.91Zm-22.72,0V138.7h9.76a3.92,3.92,0,0,0-.32-.25l-.14-.11-.18-.14-.33-.23-.29-.18-.06,0h-8.44V136l-.22.11-.24.13h0l0,0-.15.1-.16.1-.44.32-.14.11-.29.23c-.38.32-.76.64-1.15.94l-.29.23a7.06,7.06,0,0,1-.64.42l-.29.16-.16.08-.15.06h0a6.35,6.35,0,0,1-1.07.34v30.49H193.78s0,.06,0,.1c.08.29.17.57.24.86h14.38v33.43h.22l.26,0,.46,0,.75.07.34,0,.37.05h.06l.65.09.14,0,.32,0,.45.08h0l1.09-.06h0l.15,0a1.16,1.16,0,0,1,.18,0V170.85h22.62v-.14l.09-.8v0Zm33.81,0h-1v1h1.1Zm-11.7,0-.1,1h9.45l.65-1Zm-22.1,0V138.7h9.76l-.32-.25-.14-.11-.19-.14-.32-.23-.29-.18-.07,0h-8.44V136l-.22.11-.24.13h0l0,0-.15.1-.16.1-.44.32-.14.11-.29.23c-.38.32-.76.64-1.15.94l-.29.23a7.06,7.06,0,0,1-.64.42l-.29.16-.16.08-.15.06h0a6.35,6.35,0,0,1-1.07.34v30.49H193.78s0,.06,0,.1c.08.29.17.57.25.86h14.37v33.43l.22,0h.26l.46,0,.75.07.34,0,.37,0h.06l.65.1.14,0,.32.05.45.08h0l1.09-.06h0l.15,0,.18,0V170.85h22l.11-1Zm73.95-64.95h61.49c0-.33,0-.65,0-1H287.83V66.1c-1.82.49-3.65,1-5.45,1.5V104H215.5l-.17-.18.26-.29h0l24.87-27.3c-2.48.12-5,.14-7.46.08l-19.13,21V74.32q-2.73-.48-5.45-1V96.2l-28-30.67c-3.51-1.15-7-2.32-10.53-3.44l38,41.7-.17.18H138V54.32c-.93-.11-1.86-.2-2.79-.29s-1.78-.14-2.68-.18V104H83.65V65.34c-1.86,1-3.67,2.13-5.46,3.29V104H51.61c-.06.32-.13.64-.19,1H78.17v32.79H52.91c.07.32.15.65.23,1h25v31.19H57c-.06.32-.11.64-.17,1H78.18v87.21a48,48,0,0,0,5.46.71V170.85h48.88V251c1.84-.59,3.66-1.22,5.47-1.87V170.85h70.42v70.06a39.83,39.83,0,0,0,5.42-1.86l0,0V170.85h68.49v32.86q2.73-.5,5.46-.94V170.85h48.69c.17-.32.32-.64.48-1H287.83V138.7h59c.06-.32.12-.65.17-1H287.83Zm-204.18,0h48.87v32.79H83.65Zm0,64.95V138.7h48.87v31.19ZM138,104.94h70.42v32.79H138Zm0,64.95V138.7h70.42v31.19Zm144.37,0H213.87V138.7h68.49Zm0-32.15H213.87V105.81l1-.87h67.53Zm-45.77,32.15v0l-.08.8v.14H245v0l.61-.91Zm11.1,0h-1v1h1.11Zm-33.81,0V138.7h9.75l-.31-.25-.15-.11-.18-.14-.33-.23-.28-.18-.07,0h-8.44V136l-.22.11-.24.13h0l0,0-.15.1-.16.1-.44.32-.14.11-.29.23c-.38.32-.76.64-1.15.94l-.29.23a7.06,7.06,0,0,1-.64.42l-.29.16-.16.08-.15.06h0a6.35,6.35,0,0,1-1.07.34v30.49H193.78s0,.06,0,.1c.08.29.17.57.24.86h14.38v33.43h.22l.26,0,.46,0,.75.07.34,0,.37.05h.06l.65.09.14,0,.32,0,.45.08h0l1.09-.06h0l.15,0a1.16,1.16,0,0,1,.18,0V170.85h22.62v-.14l.09-.8v0Z" transform="translate(-48.01 -36.86)"/><path class="cls-1" d="M107.15,82.35h.43a1,1,0,0,1-.52-.84h0c0-.66.82-1.21,1.81-1.21h12.68c1,0,1.81.55,1.81,1.21h0c0,.66-.82,1.21-1.81,1.21h-.43a1,1,0,0,1,.52.84c0,.57-.59,1-1.38,1.17h3.65c1,0,1.8.55,1.8,1.21s-.81,1.21-1.8,1.21H111.22c-1,0-1.81-.54-1.81-1.21s.59-1,1.38-1.17h-3.64c-1,0-1.81-.54-1.81-1.21S106.15,82.35,107.15,82.35Z" transform="translate(-48.01 -36.86)"/><path class="cls-1" d="M244.49,93.85h.43a1,1,0,0,1-.52-.84h0c0-.66.81-1.21,1.81-1.21h12.67c1,0,1.81.55,1.81,1.21h0c0,.67-.81,1.21-1.81,1.21h-.42a1.08,1.08,0,0,1,.52.84c0,.58-.6,1-1.39,1.17h3.65c1,0,1.81.55,1.81,1.21s-.82,1.21-1.81,1.21H248.57c-1,0-1.81-.54-1.81-1.21s.59-1,1.39-1.17h-3.66c-1,0-1.81-.55-1.81-1.21S243.5,93.85,244.49,93.85Z" transform="translate(-48.01 -36.86)"/><path class="cls-1" d="M87.71,143.07h.42a1.1,1.1,0,0,1-.52-.84h0c0-.67.82-1.21,1.81-1.21H102.1c1,0,1.81.54,1.81,1.21h0c0,.66-.82,1.2-1.81,1.2h-.43a1,1,0,0,1,.52.85c0,.57-.59,1-1.38,1.17h3.64c1,0,1.81.54,1.81,1.21s-.81,1.21-1.81,1.21H91.78c-1,0-1.81-.55-1.81-1.21s.6-1,1.38-1.18H87.71c-1,0-1.81-.54-1.81-1.2S86.71,143.07,87.71,143.07Z" transform="translate(-48.01 -36.86)"/><path class="cls-2" d="M234.26,225.74l-2.13,1.69-1.25,1-.92.71c-1.55,1.2-3.13,2.37-4.73,3.49l-1.15.8a61,61,0,0,1-10.2,5.62l0,0V225.74Z" transform="translate(-48.01 -36.86)"/><path class="cls-3" d="M266.2,173.46l.32-9.92c-.19-.15-.38-.28-.57-.42a52.39,52.39,0,0,0-.51-8.85c-1.29-9.91-9.72-10.13-12.09-8.08a5.5,5.5,0,0,1-1,.7c.22-1.41.48-2.83.68-4.23,1-7.55-.58-16-6.44-20.93-2.45-2-5.45-3.3-8.15-5-4.82-3-8.64-7.54-13.52-10.5s-11.74-4.08-16-.27c-1.65,1.48-2.72,3.52-4.41,5-3.16,2.65-8.08,2.82-10.83,5.79h0c-.14.15-.27.3-.4.46-2.3,2.94-1.67,7.12-.94,10.77.89,4.4.52,7.92,4.29,9.19,0,.17,0,.35.05.52a18.62,18.62,0,0,0,8.2,13.41l-.62.22c-1.63.57-3.09,1.13-4,1.51-3.45,1.4-10.7,3.23-10.7,3.23s-.17,2.07-.14,5.12c-2.41,2.62-6.45,7.24-7.63,10-1.72,4-11.45,15.42-14,17.14s-5.41,3.78-5.41,3.78-4.1,2.26-6,2.48a32.4,32.4,0,0,1-5.51-.65s-16.64-20.38-15.56-4.74,14.37,16.16,14.37,16.16l13.39-.21s7.24,1,10.48-1.72c2.77-2.3,17.11-14.9,21.71-20.61l.33.34s1.83-2.37,2.05,0-1.19,3.45-.43,4.31,3,3.88,3.13,5.06-3,6,2.27,9.71l.27.16c.94,2.15,3.94,4.26,3.94,4.26l16.21-.22,30.57,2.37s.91-.8,2.14-2.11c1.64,1.51,3.92,2.81,6.5,2,0,0,3.67-4.42,3.78-7.33,0,0-2.38-6.14-3.45-8s.76-5.82.76-5.82,1.3-3.88,2.05-3.88.22-2.59.22-2.59a3.17,3.17,0,0,1-.33-2.91A27.27,27.27,0,0,0,266.2,173.46Z" transform="translate(-48.01 -36.86)"/><path class="cls-4" d="M247.88,171.23l-1.15,1.34h0l-4.64,5.4-6.06.37-9.7.6s-13.07-15.76-10.62-19.19a6.23,6.23,0,0,0,.86-4.41c0-.22,0-.43-.09-.64A18.29,18.29,0,0,0,215,150l.33-.14.2-.1,11.44-5.21,2.83-1.3a7.73,7.73,0,0,0,.77,2.24l.18.32c3.9,6.46,16.41,2.37,16.41,2.37Z" transform="translate(-48.01 -36.86)"/><path class="cls-4" d="M264.78,163.16a18.72,18.72,0,0,1-.72,5.6l-16.18,2.47-.61-4.21-2.4-16.59,2.25-2.25a6,6,0,0,0,5.15-1.28c2.36-2,10.72-1.83,12,8A54,54,0,0,1,264.78,163.16Z" transform="translate(-48.01 -36.86)"/><path class="cls-5" d="M261,209s3.65-4.39,3.75-7.29l-3.64-6.11-3.22-3.44-6,11.59S255.81,210.56,261,209Z" transform="translate(-48.01 -36.86)"/><path class="cls-6" d="M261,209s3.65-4.39,3.75-7.29l-3.64-6.11-3.22-3.44-6,11.59S255.81,210.56,261,209Z" transform="translate(-48.01 -36.86)"/><path class="cls-7" d="M230.88,228.41l-.92.71c-1.55,1.2-3.13,2.37-4.73,3.49l-1.15.8H132.52l-27.09-1-21.78-.19L78.19,232,51,230.53a68.34,68.34,0,0,1-2.25-10c-.11-.76-.21-1.53-.28-2.29l29.72,1.65,5.46.3,48.87,2.73,5.47.3,70.42,3.94,5.42.3h0Z" transform="translate(-48.01 -36.86)"/><path class="cls-8" d="M267.6,207a76.13,76.13,0,0,0-17.22,7.09l-1.3.76c-.43.26-.86.52-1.28.79l-1.24.81-.64.43-.62.43c-.62.42-1.22.86-1.83,1.28l0,0-1.19.86c-2.24,1.66-4.43,3.39-6.61,5.13-.45.37-.91.74-1.38,1.1l-2.12,1.69-1.26,1c-.3.24-.6.48-.91.71l-16.08-.76h0l-5.42-.26L138,224.76l-5.47-.27-48.87-2.32-5.46-.26-29.45-1.39c-.11-.76-.21-1.53-.28-2.29-.15-1.32-.26-2.64-.34-4l30.07-10.62,5.46-1.93L88.6,200l9,.47,20.86,1.07h0l14,.73,5.47.29,3.49.18h0l.84,0h0l29.39,1.54h0l.31,0h0l13.12.68h.24l1.31.07h0l4.47.23,5.59.29h0l1.84.1h0l.35,0,2.61.13h0l.74,0h0l2.49.13h0l1,.05H206l2.32.13,3.61.19h0l1.12.05h.12l.67,0,1.64.09h0l1.43.07h0l1.61.09h0l1.22.06h0l.94.05,3.32.18h0l.6,0h.49l1,.06h0l.44,0h0l3.39.17h.31l5,0h0l19-.15h1.88l6.12-.05h.91Z" transform="translate(-48.01 -36.86)"/><path class="cls-9" d="M139.3,207.42l1.77,9.41,48.07-.72s3.62,1,3.54-1.85c0,0,7.31-6.92,44.37,1.12l-14.23-11.17-38.89,2.09-45.1-1.21Z" transform="translate(-48.01 -36.86)"/><path class="cls-10" d="M140.19,205.17l1.68,10.21s41.33-1.2,47.83-.08L184.79,206S159.8,203.65,140.19,205.17Z" transform="translate(-48.01 -36.86)"/><path class="cls-6" d="M140.19,205.17l1.68,10.21s41.33-1.2,47.83-.08L184.79,206S159.8,203.65,140.19,205.17Z" transform="translate(-48.01 -36.86)"/><path class="cls-10" d="M140.8,205.14l1.67,9.49s40.8-1.12,47.23-.07l-4.84-8.67S160.17,203.72,140.8,205.14Z" transform="translate(-48.01 -36.86)"/><path class="cls-6" d="M141.55,205.43l1.62,8.88s39.91-1.05,46.21-.07l-4.73-8.11S160.5,204.09,141.55,205.43Z" transform="translate(-48.01 -36.86)"/><path class="cls-10" d="M141.87,205.11,143.5,214s39.91-1,46.21-.07L185,205.81S160.82,203.78,141.87,205.11Z" transform="translate(-48.01 -36.86)"/><path class="cls-9" d="M113.64,181s2.09,2.73-1,6.85-5.57,7.61-4.55,10.18c0,0,4.59-7.66,8.35-7.75S117.76,185.56,113.64,181Z" transform="translate(-48.01 -36.86)"/><path class="cls-6" d="M113.64,181a3.27,3.27,0,0,1,.42.86c3.66,4.31,5.61,8.32,2.09,8.41-3.27.09-7.2,6-8.14,7.43,0,.11.07.22.11.33s4.59-7.65,8.35-7.75S117.76,185.56,113.64,181Z" transform="translate(-48.01 -36.86)"/><path class="cls-11" d="M117.52,184.44c0,1-.11,1.74-.24,1.74s-.24-.78-.24-1.74.13-.51.26-.51S117.52,183.48,117.52,184.44Z" transform="translate(-48.01 -36.86)"/><path class="cls-11" d="M118.85,185.59c-.84.46-1.58.74-1.64.62s.57-.58,1.41-1.05.51-.12.58,0S119.7,185.13,118.85,185.59Z" transform="translate(-48.01 -36.86)"/><path class="cls-9" d="M102.61,181s-2.09,2.73,1,6.85,5.57,7.61,4.55,10.18c0,0-4.6-7.66-8.35-7.75S98.48,185.56,102.61,181Z" transform="translate(-48.01 -36.86)"/><path class="cls-6" d="M102.61,181a3,3,0,0,0-.43.86c-3.66,4.31-5.61,8.32-2.09,8.41,3.27.09,7.2,6,8.14,7.43a2.13,2.13,0,0,1-.11.33c-.06.17-4.6-7.65-8.35-7.75S98.48,185.56,102.61,181Z" transform="translate(-48.01 -36.86)"/><path class="cls-11" d="M98.72,184.44c0,1,.11,1.74.24,1.74s.24-.78.24-1.74-.13-.51-.26-.51S98.72,183.48,98.72,184.44Z" transform="translate(-48.01 -36.86)"/><path class="cls-11" d="M97.39,185.59c.84.46,1.58.74,1.65.62s-.58-.58-1.42-1.05-.51-.12-.57,0S96.55,185.13,97.39,185.59Z" transform="translate(-48.01 -36.86)"/><path class="cls-2" d="M119.35,194.31l-.1.86-.15,1.2-.06.5-.15,1.21-.06.5-.15,1.2L117,213.48c-.15,1.22-2.15,2.18-4.56,2.18h-8.67c-2.41,0-4.41-1-4.56-2.18l-1.67-13.7-.14-1.2-.07-.5-.14-1.21-.06-.5-.15-1.2-.11-.86c-.08-.7,1-1.28,2.37-1.28H117C118.36,193,119.45,193.61,119.35,194.31Z" transform="translate(-48.01 -36.86)"/><polygon class="cls-12" points="71.24 158.3 71.1 159.51 49.12 159.51 48.98 158.3 71.24 158.3"/><polygon class="cls-12" points="71.04 160.01 70.89 161.22 49.33 161.22 49.18 160.01 71.04 160.01"/><polygon class="cls-12" points="70.83 161.72 70.68 162.92 49.54 162.92 49.39 161.72 70.83 161.72"/><path class="cls-4" d="M145.84,193.2s-5.57-5.36-5.36,1.6S145.84,193.2,145.84,193.2Z" transform="translate(-48.01 -36.86)"/><path class="cls-4" d="M195.89,181a8.08,8.08,0,0,1-1.66,2.56c-4.83,5.82-18.58,17.91-21.27,20.16-3.22,2.68-10.4,1.72-10.4,1.72l-13.29.22s-13.18-.54-14.26-16.08,15.44,4.72,15.44,4.72a32.17,32.17,0,0,0,5.46.64c1.93-.21,6-2.46,6-2.46s2.78-2,5.35-3.75,12.22-13.08,13.94-17.05c1.09-2.51,4.59-6.63,7-9.3,1.39-1.53,2.42-2.58,2.42-2.58S196.64,177.66,195.89,181Z" transform="translate(-48.01 -36.86)"/><path class="cls-6" d="M195.89,181a8.08,8.08,0,0,1-1.66,2.56c-4.87-5-5.89-14.89-6-21.19,1.39-1.53,2.42-2.58,2.42-2.58S196.64,177.66,195.89,181Z" transform="translate(-48.01 -36.86)"/><path class="cls-6" d="M246.73,172.57h0l-4.64,5.4-6.06.37-9.7.6s-13.07-15.76-10.62-19.19a6.23,6.23,0,0,0,.86-4.41c0-.22,0-.43-.09-.64A18.29,18.29,0,0,0,215,150l.33-.14.2-.1a20.29,20.29,0,0,1,1.05,4.4c0,.2.06.41.09.63.1.78.19,1.64.29,2.59.75,8.67,6.2,11.93,8.66,13,.8.34,1.57.71,2.32,1.12a12.4,12.4,0,0,0,7.78,1.41c6.08-.8,11-5.21,11-5.21l0,4.34Z" transform="translate(-48.01 -36.86)"/><path class="cls-5" d="M246.91,206.27s-39.87-.11-45.12-3.75-2.14-8.46-2.25-9.64-2.36-4.18-3.11-5,.64-1.93.43-4.29-2,0-2,0c-7.5-7.61-5.9-26.9-5.9-26.9s7.18-1.82,10.62-3.22c.94-.38,2.39-.92,4-1.5l.61-.22c4.21-1.51,9.21-3.21,9.21-3.21s1-.68,1.93,1.36a17.59,17.59,0,0,1,1.25,4.85q0,.3.09.63c.1.78.19,1.64.28,2.59.75,8.67,6.21,11.93,8.67,13,.79.34,1.56.71,2.32,1.12a12.38,12.38,0,0,0,7.78,1.41c6.07-.8,11-5.22,11-5.22l0,4.35.07,13.07Z" transform="translate(-48.01 -36.86)"/><path class="cls-4" d="M245.2,189.34l-.65,4.07s-15.86,4-22.08,5.15-19.61-.33-20.57,2.25,4.07,6.11,4.07,6.11L222,206.7l30.33,2.36S264,198.88,260.2,191.8,245.2,189.34,245.2,189.34Z" transform="translate(-48.01 -36.86)"/><path class="cls-6" d="M212.51,157.18s-7.29,6-5.9,8.9S212.51,157.18,212.51,157.18Z" transform="translate(-48.01 -36.86)"/><path class="cls-6" d="M203.5,168s-7.39,12.75-7,13.72,2.46,4.39,2.35,1.82S203.5,168,203.5,168Z" transform="translate(-48.01 -36.86)"/><path class="cls-6" d="M206.51,170.26s-1.73,7.93-3.43,11.26S206.51,170.26,206.51,170.26Z" transform="translate(-48.01 -36.86)"/><path class="cls-6" d="M230.72,145.81a18.56,18.56,0,0,1-14.1,9.53h0a18.47,18.47,0,0,1-13.05-3.41c4.31-1.56,9.82-3.43,9.82-3.43s1-.68,1.93,1.35l14.47-6.6A7.64,7.64,0,0,0,230.72,145.81Z" transform="translate(-48.01 -36.86)"/><path class="cls-4" d="M233,136.28a18.6,18.6,0,0,1-2.44,9.21,19.08,19.08,0,0,1-2.77,3.68,18.46,18.46,0,0,1-11.24,5.55h0a17.92,17.92,0,0,1-2.06.12A18.55,18.55,0,1,1,233,136.3Z" transform="translate(-48.01 -36.86)"/><path class="cls-6" d="M245,171.37l1.73-2.58s9.43-11.26,18.65-4.08l-.32,9.87a26.44,26.44,0,0,1-1.07,4.59,3.1,3.1,0,0,0,.32,2.89s.53,2.59-.21,2.59-2,3.85-2,3.85-1.82,4-.75,5.79,3.43,7.93,3.43,7.93-3.75-2.25-4.83-6c0,0-9.11-7.07-16.18-2.58Z" transform="translate(-48.01 -36.86)"/><path class="cls-6" d="M264.78,163.16a18.72,18.72,0,0,1-.72,5.6l-16.18,2.47-.61-4.21C249.39,164.81,257.09,157.79,264.78,163.16Z" transform="translate(-48.01 -36.86)"/><path class="cls-5" d="M245,170.8l1.73-2.59s9.43-11.25,18.65-4.07L265,174a26.23,26.23,0,0,1-1.07,4.59,3.12,3.12,0,0,0,.32,2.9s.53,2.58-.21,2.58-2,3.86-2,3.86-1.82,4-.75,5.79,3.43,7.93,3.43,7.93-3.75-2.25-4.83-6c0,0-9.11-7.08-16.18-2.58Z" transform="translate(-48.01 -36.86)"/><path class="cls-6" d="M260.2,163.51s-15.54,9.54-14.79,17.91C245.41,181.42,254.09,166.08,260.2,163.51Z" transform="translate(-48.01 -36.86)"/><path class="cls-6" d="M246.72,172.57l.08,13.07c-2.94.13-5.71-.25-7.9-2.16a9.41,9.41,0,0,1-2.87-5.13,18.46,18.46,0,0,1-.38-4.86v-.05c.19-3.61,1-7.22.58-10.8s-2.61-7.37-6.16-8.12a3.72,3.72,0,0,1-2-.73,2.88,2.88,0,0,1-.47-2.26l.1-1.34c0-.34,0-.68,0-1a13.14,13.14,0,0,0-10.62-12.9l-.11,0a7.28,7.28,0,0,0-3-.17c-1.9.44-3.13,2.28-4.88,3.15-3.36,1.68-9-.15-12.47-.73l-.66-.13a18.18,18.18,0,0,1-.12-2.09,18.55,18.55,0,1,1,34.65,9.2,3.24,3.24,0,0,0,.17.32c3.9,6.46,16.41,2.38,16.41,2.38l.75,23Z" transform="translate(-48.01 -36.86)"/><path class="cls-13" d="M209.79,138.92c1.74-.88,3-2.73,4.88-3.16a7.24,7.24,0,0,1,3,.17l.12,0a13.17,13.17,0,0,1,10.57,13.93l-.1,1.34a2.84,2.84,0,0,0,.46,2.26,3.66,3.66,0,0,0,2,.71c3.55.76,5.72,4.52,6.15,8.13s-.4,7.22-.57,10.85.5,7.62,3.24,10c4.3,3.73,10.85,1.6,16.55,1.26-2.52,0-4.41-2.6-4.55-5.11s1-4.91,2.05-7.18,2.15-4.71,1.91-7.21c-.33-3.45-3.05-6.21-4.08-9.52-1.22-3.86-.05-8,.5-12,1-7.51-.57-16-6.39-20.82-2.43-2-5.41-3.27-8.08-5-4.79-3-8.57-7.5-13.42-10.46s-11.65-4.05-15.87-.26c-1.64,1.47-2.7,3.5-4.38,4.92-3.29,2.77-8.51,2.82-11.14,6.22-2.27,2.92-1.66,7.07-.93,10.71,1,4.84.42,8.61,5.6,9.47C200.83,138.76,206.42,140.59,209.79,138.92Z" transform="translate(-48.01 -36.86)"/><path class="cls-6" d="M252.43,182.12c-4.15.51-8.26.77-11.28-1.85-2.74-2.38-3.41-6.37-3.24-10s1-7.25.57-10.85-2.6-7.36-6.15-8.12a3.68,3.68,0,0,1-2-.72,2.81,2.81,0,0,1-.47-2.26L230,147a13.18,13.18,0,0,0-10.57-13.93l-.12,0a7.24,7.24,0,0,0-3-.17c-1.9.44-3.13,2.3-4.88,3.16-3.37,1.68-9-.16-12.48-.73-5.17-.85-4.63-4.62-5.6-9.47-.54-2.71-1-5.72-.29-8.28-.13.14-.26.29-.39.46-2.27,2.93-1.65,7.08-.93,10.71,1,4.84.42,8.61,5.6,9.47,3.52.58,9.11,2.41,12.48.73,1.73-.88,3-2.72,4.87-3.15a7.27,7.27,0,0,1,3,.16l.12,0a13.16,13.16,0,0,1,10.57,13.92l-.1,1.34a2.82,2.82,0,0,0,.46,2.26,3.59,3.59,0,0,0,2,.72c3.55.76,5.72,4.52,6.15,8.13s-.4,7.22-.57,10.84.5,7.62,3.24,10c4.3,3.73,10.85,1.61,16.55,1.27A4.35,4.35,0,0,1,252.43,182.12Z" transform="translate(-48.01 -36.86)"/><path class="cls-14" d="M135.94,191.69l17.7-6.6a1.68,1.68,0,0,1,2.16,1h0a1.68,1.68,0,0,1-1,2.17l-17.7,6.6-3.79-.38Z" transform="translate(-48.01 -36.86)"/><path class="cls-15" d="M155.27,185.54h0a1.7,1.7,0,0,1-1,2.17l-17.71,6.62-2.85-.29-.41.44,3.8.38,17.69-6.6a1.69,1.69,0,0,0,1-2.17h0a1.67,1.67,0,0,0-.69-.84A1.69,1.69,0,0,1,155.27,185.54Z" transform="translate(-48.01 -36.86)"/><polygon class="cls-16" points="87.93 154.84 89.11 157.99 86 157.68 85.32 157.61 86.25 156.62 87.93 154.84"/><path class="cls-17" d="M134.26,193.47a.7.7,0,0,1,.18.2.29.29,0,0,1,0,.31.66.66,0,0,1-.17.12.55.55,0,0,0-.25.42l-.69-.06Z" transform="translate(-48.01 -36.86)"/><path class="cls-10" d="M191.5,211.84s15.33-3.22,41,.86l-10.07-7.39-18.33-3.75-13,3.44Z" transform="translate(-48.01 -36.86)"/><path class="cls-6" d="M191.5,211.84s15.33-3.22,41,.86l-10.07-7.39-18.33-3.75-13,3.44Z" transform="translate(-48.01 -36.86)"/><path class="cls-10" d="M189.7,215.32s7.72-20.88,47.36.06l-14.23-9.15s-34.08-9.42-38,1.43Z" transform="translate(-48.01 -36.86)"/><path class="cls-6" d="M189.7,215.3s7.72-22.32,47.36.41l-14.23-9.94s-34.09-11.26-38,.53Z" transform="translate(-48.01 -36.86)"/><path class="cls-10" d="M189.7,215.31s7.72-22.65,47.36.07l-14.23-9.93s-34.08-10.94-38,.86Z" transform="translate(-48.01 -36.86)"/><path class="cls-6" d="M189.7,215.32s7.72-25.18,47.36.39l-14.24-11.18s-34.08-11.48-38,1.77Z" transform="translate(-48.01 -36.86)"/><path class="cls-10" d="M189.7,215.3s7.72-25.48,47.36.08l-14.24-11.17s-34.08-11.48-38,1.77Z" transform="translate(-48.01 -36.86)"/><path class="cls-1" d="M308.63,212.9s-9.52,10.2-.95,15.15a2.37,2.37,0,0,0,2.72.64s-.54-.48.54-1.4a6.79,6.79,0,0,0,1-1.12,3.2,3.2,0,0,0,.59-1.91h0s1.24-4-2.71-9.3c0,0-.36-1.75-.67-2l-.72,2.45a4.19,4.19,0,0,1,2.5,1.85s-2.39-1.88-2.63-1.49c0,.08-.32,1.32-.32,1.32s3.16.81,4.14,3c0,0-2.55-2.62-4.25-2.51l-.31,1.88s3.38.7,4.59,3.13c0,0-2.76-2.65-4.64-2.71l0,1.9s3.28.75,4.28,2.77c0,0-3.5-2.73-4.26-2.33a9.41,9.41,0,0,0,.28,2.2s2.35.58,2.82,1.82c0,0-2.53-1.58-2.75-1.34a9.83,9.83,0,0,0,1.63,3.22,7.16,7.16,0,0,1-2-3.1,3.94,3.94,0,0,0-.48,2.21s-.94-1,.32-2.75a9.31,9.31,0,0,1-.35-2.07,8.51,8.51,0,0,0-1.85,2.88s-.29-1.7,1.85-3.37V220a12.36,12.36,0,0,0-2.49,3.07s0-1.78,2.53-3.55l.29-1.85a14.19,14.19,0,0,0-2.65,2.7s.32-1.66,2.75-3.23l.34-1.22s-1.37,1.12-1.73,1.48-.49.28-.49.28a6.08,6.08,0,0,1,2.36-2.28A13.46,13.46,0,0,0,308.63,212.9Z" transform="translate(-48.01 -36.86)"/><path class="cls-1" d="M351.16,47.06s-12.71,5.74-6.72,13.61a2.39,2.39,0,0,0,2.26,1.64s-.31-.65,1-1.09a6.33,6.33,0,0,0,1.37-.64,3.16,3.16,0,0,0,1.29-1.53h0s2.71-3.25,1.08-9.62c0,0,.35-1.76.14-2.06l-1.61,2A4.2,4.2,0,0,1,351.6,52s-1.48-2.66-1.85-2.38c-.07,0-.8,1.09-.8,1.09s2.58,2,2.67,4.35c0,0-1.34-3.4-3-4l-1,1.63s2.85,1.95,3,4.66c0,0-1.53-3.51-3.24-4.29l-.78,1.72s2.74,2,2.87,4.21c0,0-2.17-3.87-3-3.8a8.82,8.82,0,0,0-.58,2.14s1.94,1.44,1.9,2.77c0,0-1.72-2.43-2-2.29a9.91,9.91,0,0,0,.26,3.59,7.08,7.08,0,0,1-.62-3.61,3.93,3.93,0,0,0-1.29,1.84s-.47-1.32,1.35-2.41a8.89,8.89,0,0,1,.48-2,8.71,8.71,0,0,0-2.82,1.92s.39-1.67,3-2.38l.75-1.76a12.33,12.33,0,0,0-3.48,1.87s.66-1.65,3.7-2.29l1-1.6a14.54,14.54,0,0,0-3.49,1.47s.94-1.4,3.79-1.92l.78-1s-1.7.5-2.17.69-.58.08-.58.08a6.08,6.08,0,0,1,3.07-1.2A15,15,0,0,0,351.16,47.06Z" transform="translate(-48.01 -36.86)"/><path class="cls-1" d="M230.51,50.62s-19.1,5.45-9.82,13.57a3.7,3.7,0,0,0,3.47,1.72s-.49-.67,1.55-1.07a12.47,12.47,0,0,0,2.06-.61,3.66,3.66,0,0,0,1.9-1.52h0s4-3.21,1.38-9.69c0,0,.48-1.77.16-2.08l-2.39,2s2.3,1.18,2.49,2.74c0,0-2.32-2.72-2.87-2.46-.11.06-1.19,1.08-1.19,1.08s4,2.06,4.16,4.47c0,0-2.12-3.47-4.59-4.08l-1.49,1.61s4.36,2.05,4.72,4.79c0,0-2.41-3.59-5-4.42l-1.15,1.72s4.2,2,4.47,4.34c0,0-3.39-4-4.69-3.93a6.78,6.78,0,0,0-.82,2.15s3,1.52,3,2.85c0,0-2.68-2.51-3.12-2.37a6.79,6.79,0,0,0,.49,3.64,5.47,5.47,0,0,1-1-3.67,4.3,4.3,0,0,0-1.9,1.83s-.74-1.35,2-2.4c0,0,.35-1.84.66-2a14,14,0,0,0-4.21,1.87s.54-1.69,4.49-2.33l1.09-1.76s-4,.9-5.22,1.8c0,0,.95-1.65,5.55-2.23L226,54.5a28,28,0,0,0-5.25,1.39s1.39-1.39,5.69-1.83l1.15-1s-2.55.47-3.27.65-.86.06-.86.06a11.29,11.29,0,0,1,4.59-1.13A17.48,17.48,0,0,0,230.51,50.62Z" transform="translate(-48.01 -36.86)"/><path class="cls-1" d="M286.85,263.42s9.62-10.1,1.1-15.13a2.37,2.37,0,0,0-2.71-.68s.53.49-.56,1.4a6.78,6.78,0,0,0-1,1.11,3.1,3.1,0,0,0-.6,1.91h0s-1.29,4,2.62,9.32c0,0,.34,1.76.64,2l.75-2.45a4.23,4.23,0,0,1-2.49-1.87s2.38,1.9,2.61,1.51c.05-.08.34-1.31.34-1.31s-3.15-.86-4.11-3c0,0,2.52,2.64,4.23,2.55l.32-1.88s-3.37-.73-4.56-3.16c0,0,2.73,2.68,4.61,2.76l.07-1.9s-3.27-.8-4.27-2.83c0,0,3.48,2.77,4.25,2.38a8.61,8.61,0,0,0-.29-2.21s-2.34-.61-2.8-1.85c0,0,2.52,1.61,2.73,1.37a9.75,9.75,0,0,0-1.59-3.23,7.11,7.11,0,0,1,1.94,3.11,4,4,0,0,0,.5-2.2s.93,1-.34,2.75a9,9,0,0,1,.32,2.06,8.53,8.53,0,0,0,1.88-2.83s.29,1.7-1.88,3.34l0,1.91a12.09,12.09,0,0,0,2.51-3.05s0,1.78-2.56,3.53l-.29,1.85a14.3,14.3,0,0,0,2.68-2.68s-.34,1.66-2.78,3.21l-.35,1.21s1.38-1.1,1.74-1.46.5-.28.5-.28a6.06,6.06,0,0,1-2.38,2.25A15,15,0,0,0,286.85,263.42Z" transform="translate(-48.01 -36.86)"/><path class="cls-1" d="M193.07,37.2S194.71,51,204,47.7A2.39,2.39,0,0,0,206.27,46s-.72.1-.72-1.32a6.86,6.86,0,0,0-.2-1.5,3.12,3.12,0,0,0-1.08-1.69h0S202,38,195.41,37.62c0,0-1.57-.86-1.92-.75L194.9,39a4.2,4.2,0,0,1,3-.72s-3,.61-2.83,1c0,.08.8,1.09.8,1.09s2.68-1.89,5-1.25c0,0-3.65.26-4.67,1.62l1.22,1.46s2.72-2.13,5.36-1.49c0,0-3.81.4-5.07,1.79l1.43,1.27s2.69-2,4.88-1.48c0,0-4.35.91-4.54,1.75a9.34,9.34,0,0,0,1.88,1.2s2-1.41,3.2-1c0,0-2.84.91-2.79,1.23a9.72,9.72,0,0,0,3.5.83,7.27,7.27,0,0,1-3.63-.48A3.88,3.88,0,0,0,203,47.67s-1.4,0-1.9-2a9.42,9.42,0,0,1-1.79-1.06,8.53,8.53,0,0,0,1,3.26s-1.49-.86-1.38-3.59L197.5,43a12.23,12.23,0,0,0,.74,3.88s-1.38-1.12-1.08-4.22l-1.23-1.42a14.55,14.55,0,0,0,.34,3.78s-1.05-1.32-.68-4.2l-.72-1s0,1.77,0,2.28-.1.56-.1.56a6.1,6.1,0,0,1-.22-3.28A14.11,14.11,0,0,0,193.07,37.2Z" transform="translate(-48.01 -36.86)"/><path class="cls-1" d="M262.66,232s-13.43-3.73-13.87,6.15a2.39,2.39,0,0,0,.69,2.71s.18-.7,1.5-.17a6.18,6.18,0,0,0,1.46.39,3.14,3.14,0,0,0,2-.36h0s4.16-.77,7-6.7c0,0,1.39-1.13,1.43-1.49l-2.51.49a4.22,4.22,0,0,1-.48,3.07s.58-3,.11-3c-.1,0-1.32.31-1.32.31s.74,3.18-.73,5.06c0,0,1.15-3.47.27-4.94l-1.82.6s.94,3.32-.65,5.52c0,0,1.07-3.67.26-5.36l-1.71.83s.86,3.25-.48,5.08c0,0,.81-4.37.1-4.87a9.27,9.27,0,0,0-1.81,1.29s.57,2.35-.31,3.34c0,0,.22-3-.09-3.06a9.7,9.7,0,0,0-2.1,2.93,7.12,7.12,0,0,1,1.83-3.18,4,4,0,0,0-2.17.59s.49-1.31,2.58-1a8.82,8.82,0,0,1,1.67-1.26,8.45,8.45,0,0,0-3.39-.33s1.37-1,3.84.09l1.69-.86a12.07,12.07,0,0,0-3.87-.78s1.57-.86,4.31.6l1.77-.61a14.4,14.4,0,0,0-3.62-1.1s1.62-.48,4.14,1l1.23-.27s-1.62-.69-2.11-.86-.48-.29-.48-.29a6,6,0,0,1,3.11,1A15.54,15.54,0,0,0,262.66,232Z" transform="translate(-48.01 -36.86)"/></svg>