<svg id="Layer_1" data-name="Layer 1" xmlns="http://www.w3.org/2000/svg" viewBox="0 0 154.47 263.52"><defs><style>.cls-1{fill:#002e4e;stroke:#002e4e;stroke-miterlimit:10;stroke-width:1.12px;}.cls-2{fill:#c5cae9;}.cls-3{fill:#1a237e;}.cls-4{fill:#536dfe;}.cls-5{fill:#ff6584;}.cls-6{fill:#ffb8b8;}.cls-7{opacity:0.1;isolation:isolate;}.cls-8{fill:#2f2e41;}.cls-9{fill:#3f3d56;}</style></defs><title>how-4</title><polygon class="cls-1" points="82.8 135.16 84.49 136.41 65.31 166.05 61.55 168.02 82.8 135.16"/><polygon class="cls-2" points="0 128.49 66.42 46.81 73.17 51.46 7.49 134.18 0 128.49"/><polygon class="cls-3" points="46.86 84.6 54.04 89.03 41.09 104.45 34.56 100.09 46.86 84.6"/><polygon class="cls-3" points="49.42 94.52 71.95 131.4 63.14 131.94 44.36 99.76 49.42 94.52"/><rect class="cls-3" x="20.73" y="131.08" width="65.95" height="3.1"/><rect class="cls-3" x="24.31" y="137.22" width="8.26" height="107.29"/><rect class="cls-3" x="93.35" y="137.22" width="7.69" height="107.29"/><rect class="cls-4" x="4.59" y="133.54" width="118.98" height="6.38"/><ellipse class="cls-5" cx="107.61" cy="28.7" rx="15.83" ry="16.13"/><path class="cls-6" d="M240.15,77.27a3,3,0,0,0-3.52.92C235.22,80,233.3,83.9,234,91.6l2.85,29.81.46,30s4.29,13.85,10.57,13.72-5.2-13.27-5.2-13.27,1.59-23.83.94-30.67C243.05,114.85,249.09,81.23,240.15,77.27Z" transform="translate(-122.53 -18)"/><path class="cls-6" d="M232.41,63.64l-3.6,9.94L234,75.2l.73,14.43-12.77-7-6.43-7.22-.8-5.54s5-.87,6.76-12Z" transform="translate(-122.53 -18)"/><path class="cls-6" d="M256.58,146.71s22.52,23,16.72,35.18-34.13,54.66-34.13,54.66l-7.58-9.83s7.45-5.51,10.92-18.44,11.32-21.85,13.64-25-21.76-25.41-19.63-31.09S256.58,146.71,256.58,146.71Z" transform="translate(-122.53 -18)"/><path class="cls-7" d="M256.58,146.71s22.52,23,16.72,35.18-34.13,54.66-34.13,54.66l-7.58-9.83s7.45-5.51,10.92-18.44,11.32-21.85,13.64-25-21.76-25.41-19.63-31.09S256.58,146.71,256.58,146.71Z" transform="translate(-122.53 -18)"/><path class="cls-8" d="M242.43,229.53s2.35,4.74,1.64,6.63S239.64,249,239.64,249s4,15.82,1.09,15.47-13.26-11-12.8-14.92l1.32-11.22L226,240.88l-4.1-6.44,5.71-7.21s6.13-6.67,8-6.43S242.43,229.53,242.43,229.53Z" transform="translate(-122.53 -18)"/><path class="cls-6" d="M238,152.34l1.51,3.64,6.35,28.47s2.52,3.28,1.74,14.06S260.28,251,260.28,251l.46,8.46-8.14-1-5.55-10.57a72.69,72.69,0,0,0-8.16-21.27c-6.09-10.14-6.08-34.87-6.08-34.87l-16.37-38.1,12.88-6.34Z" transform="translate(-122.53 -18)"/><path class="cls-8" d="M257.5,245.72s2.45-.19,2.82.84S268,267.78,268,267.78s13.93,13.57,7.11,13.73-18.24-1.74-20.17-5.94-4.17-9.9-4.17-9.9l-.69,5.85-5.4-3.63s-3-19.66.51-20.71S257.5,245.72,257.5,245.72Z" transform="translate(-122.53 -18)"/><path class="cls-8" d="M249.29,134.44s5.7,5.15,5.16,5.58,3.24,1.39,2.53,3.28,3.2,5.83,1.28,5.59-9.34-3.12-17.55,4.77l-1.44-.17.19,2.49s-6-7.15-21.32,3.82c0,0-5.09-2.11-4.39-4s-8.26-4-3.42-16.24,19.86-11.91,19.86-11.91Z" transform="translate(-122.53 -18)"/><path class="cls-9" d="M218.39,71.32s-2.46-3.77-4-3.46-9.65.13-11,2.93,4.9,31.93,3.91,36.26-6.29,36.81-1.74,39.35,9.88-9.67,9.88-9.67,14.32-6.15,26.48-2.19,8.42-1.44,8.42-1.44-8.71-8.49-7.38-19.7,1.91-12.13-.32-17.84c0,0-.4-9-.12-11.39s2.07-5.18.75-6.33-15-4.32-15-4.32,6.95,2.83,3.79,4.92S218.39,71.32,218.39,71.32Z" transform="translate(-122.53 -18)"/><ellipse class="cls-6" cx="108.04" cy="36.51" rx="11.57" ry="11.78"/><path class="cls-6" d="M206.26,69.43a3,3,0,0,1,3.5,1c1.37,1.82,3.2,5.78,2.29,13.46l-3.51,29.73-1.12,30s.73,14.43-5.55,14.16S202,144,202,144s-1.06-23.87-.25-30.69C202.54,106.93,197.24,73.18,206.26,69.43Z" transform="translate(-122.53 -18)"/><path class="cls-5" d="M221.88,18a8.7,8.7,0,0,0,5,3.5c3.49.95,0,6.29,0,6.29a3.33,3.33,0,0,0-.56-4C224.52,21.73,221.6,20.33,221.88,18Z" transform="translate(-122.53 -18)"/><ellipse class="cls-5" cx="104.98" cy="11.08" rx="4.41" ry="4.49"/><path class="cls-9" d="M221.88,32.84a30.83,30.83,0,0,1,12.67-1.61l-.42-3.14c-3,1.56-8.93,2.29-12.67,1.61Z" transform="translate(-122.53 -18)"/><path class="cls-5" d="M228.84,34a26.06,26.06,0,0,0,15,10.49c10.48,2.86.09,18.91.09,18.91s3.78-5.84-1.67-12S228,41,228.84,34Z" transform="translate(-122.53 -18)"/><path class="cls-5" d="M228.48,33.5S224.15,44,219.4,45,215,62.55,222.44,65c0,0-5.42-9.72-.79-16.24S229.22,37.14,228.48,33.5Z" transform="translate(-122.53 -18)"/></svg>