<svg id="Layer_1" data-name="Layer 1" xmlns="http://www.w3.org/2000/svg" xmlns:xlink="http://www.w3.org/1999/xlink" viewBox="0 0 307.29 228.39"><defs><style>.cls-1,.cls-3{fill:#6c63ff;}.cls-1,.cls-9{opacity:0.1;isolation:isolate;}.cls-2{opacity:0.8;}.cls-4{fill:#444053;}.cls-5,.cls-6{fill:none;stroke:#444053;stroke-miterlimit:10;}.cls-6{stroke-width:0.75px;}.cls-7{fill:url(#linear-gradient);}.cls-8{fill:#fbbebe;}.cls-10{fill:#3f3d56;}</style><linearGradient id="linear-gradient" x1="222.16" y1="-35.51" x2="222.16" y2="147.3" gradientTransform="matrix(1, 0, 0, -1, -95.23, 227.2)" gradientUnits="userSpaceOnUse"><stop offset="0" stop-color="gray" stop-opacity="0.25"/><stop offset="0.54" stop-color="gray" stop-opacity="0.12"/><stop offset="1" stop-color="gray" stop-opacity="0.1"/></linearGradient></defs><title>how-3</title><path class="cls-1" d="M224.53,68c-19.7-.51-38.46-5.24-56.38-10.4S132.49,46.7,113.27,44c-12.37-1.76-26.52-2-36.48,2.92C67.2,51.61,64.1,59.79,62.44,67.4c-1.26,5.71-2,11.72,1.44,17.07,2.39,3.71,6.62,6.83,9.55,10.39,10.18,12.38,3,27.64-8.06,39.72-5.17,5.67-11.18,11.07-15.18,17.11s-5.84,12.94-2.35,19.1,11.73,10.68,20.67,13.91c18.17,6.54,39.57,8.42,60.46,9.48,46.21,2.35,92.67,1.33,139,.3,17.15-.37,34.37-.76,51.24-2.74,9.37-1.09,19-2.83,25.85-7,8.63-5.32,10.77-14.33,5-21-9.7-11.19-36.52-14-43.32-26-3.73-6.61.11-14,5.53-20.1,11.64-13.16,31.15-24.7,32.18-39.73.7-10.33-8.68-20.67-23.18-25.55-15.19-5.12-36.27-4.48-47.48,4C262.22,65.08,241.93,68.44,224.53,68Z" transform="translate(-46 -36)"/><g class="cls-2"><path class="cls-3" d="M331.74,90.4S328.31,89,317.39,94s-12.29,4.37-15.12,3.61-4.4-.95-7.43-5.13c0,0-2.13-11.59-4.21-13.4s-10.86,1-10.86,1-10.54,2.42-12.56-11.67c0,0,1.43-10.61-.51-13.87,0,0,3.92,1.68,10.38-1s11.64,2.94,11.64,2.94,1.63,4.22,1.46,6.73.86,3.47,4,2.25c0,0,1.52-2.15-.63-5.72s-3.68-6.21-3.08-9,2.32-6.6,7.85-8.52,13.05-2.28,16.65-3.77S319.41,36,319.41,36s-2.22,2.23,3,11.65,1.9,13.52,1.9,13.52-2.78,6.63-15.06,6.08c0,0-11.83.44-5.38,5.45,0,0,4.13-.84,10.31-2.8S324.82,76,325.93,81.68A14.75,14.75,0,0,0,331.74,90.4Z" transform="translate(-46 -36)"/><path class="cls-4" d="M315.84,43.13h.06c.48,1.8-4.81,9-9.33,14.77l-.05,0C312.89,49.74,316.22,44.52,315.84,43.13Z" transform="translate(-46 -36)"/><path class="cls-4" d="M306.61,57.73l0,.07c-3.61,4.59-8.15,10.07-11.79,14.13-.34.39-.69.79-1,1.22l-.1-.09c.33-.41.68-.82,1-1.21C298.39,67.78,303,62.32,306.61,57.73Z" transform="translate(-46 -36)"/><path class="cls-4" d="M293.82,72.94l.07.12c-6.62,8.26-7.05,21.08-7.07,21.2l-1.39-1.6C285.44,92.53,287.16,81.26,293.82,72.94Z" transform="translate(-46 -36)"/><path class="cls-5" d="M324.07,85.92s-7.79-4-13.87-2.59-19.76-5.15-19.76-5.15-5.81-2.36-7-5.05c0,0-4-4.21-4.21-6.39s-4.12-7.67-6.64-7.87" transform="translate(-46 -36)"/><path class="cls-5" d="M323,89.83s-3.93-2.65-3.47-5.73" transform="translate(-46 -36)"/><path class="cls-5" d="M316.92,93.25s-5.62-2-6.18-10" transform="translate(-46 -36)"/><path class="cls-5" d="M307.86,95.31a12.56,12.56,0,0,1-3.59-12.23" transform="translate(-46 -36)"/><path class="cls-5" d="M297,93.14s-3.57-7.5-.39-12.37" transform="translate(-46 -36)"/><path class="cls-5" d="M324.17,81s-4.07,1.29-3.19,3.43" transform="translate(-46 -36)"/><path class="cls-5" d="M319.26,73.61s-5.43,1.72-5.56,9.41" transform="translate(-46 -36)"/><path class="cls-5" d="M311.68,71.83s-4.94,6.11-4.59,11.66" transform="translate(-46 -36)"/><path class="cls-5" d="M303,74.23s-4.92,4.7-4.29,7.31" transform="translate(-46 -36)"/><path class="cls-5" d="M300.06,72.57s-4.61.83-5.25-.69" transform="translate(-46 -36)"/><path class="cls-5" d="M294.07,67s2.33,3.08,2.93,2.39" transform="translate(-46 -36)"/><path class="cls-5" d="M317.15,65.06s-11.62.84-14.25-2.66" transform="translate(-46 -36)"/><path class="cls-5" d="M291.62,51.47s5.46,11.7,9.41,13.19" transform="translate(-46 -36)"/><path class="cls-5" d="M297.35,45.9s3.34,10.76,7.49,14.12" transform="translate(-46 -36)"/><path class="cls-6" d="M322,56.18s-8.83,3.79-14.14,0" transform="translate(-46 -36)"/><path class="cls-6" d="M305.21,43.6s2,7.92,4.74,9.83" transform="translate(-46 -36)"/><path class="cls-6" d="M320.7,47.31s-5,1.88-6.82.44" transform="translate(-46 -36)"/><path class="cls-5" d="M289.82,69.59s0,6.9-1.88,7.39" transform="translate(-46 -36)"/><path class="cls-5" d="M274.47,78.53s7.46.63,10.89-3.21" transform="translate(-46 -36)"/><path class="cls-5" d="M287.89,61.45s-1.8,7-6.78,8.87" transform="translate(-46 -36)"/><path class="cls-5" d="M270,71.16a9.76,9.76,0,0,0,9.81-2.84" transform="translate(-46 -36)"/><path class="cls-5" d="M282,55.43s-.5,5.94-3.73,8.72" transform="translate(-46 -36)"/><path class="cls-5" d="M270.2,62.11s4.38,0,5.4-1.4" transform="translate(-46 -36)"/></g><ellipse class="cls-1" cx="80.01" cy="223.67" rx="66.36" ry="4.72"/><path class="cls-7" d="M164.45,234c.91-1.65,2-3.19,2.89-4.85s1.44-3.14,2.16-4.7c1.25-2.68,2.78-5.21,4.18-7.82.91-1.71,1.8-3.57,1.62-5.5s-1.24-3.41-1.65-5.17c-1.69-7.25-5.75-13.9-8.22-20.91-.64-1.78-1.25-3.57-2-5.29a55.19,55.19,0,0,0-5.79-9.21,25.93,25.93,0,0,0-2.55-3.18c-.77-.76-1.62-1.43-2.32-2.26-1.43-1.71-2.1-4.16-3.89-5.48a2.29,2.29,0,0,1-.1.23c-1.28-3.27-5.57-5.43-8.07-8.14a48.37,48.37,0,0,1-4-5.25l-5.43-7.84a13.22,13.22,0,0,1-2.27-4.35c-.46-2,0-4-.49-6a7.43,7.43,0,0,0-1.66-3.15l.17,0c1-.28,2.13-.32,3.15-.57,2.24-.53,4.18-2,6.41-2.54a15.26,15.26,0,0,0,3.39-.91,2.83,2.83,0,0,0,1.31-3c-.72-3.82,1.29-7.69,1-11.57-.09-1.07-.37-2.11-.54-3.17a33.57,33.57,0,0,1-.19-7.5A16,16,0,0,1,144,92.78c1.37-1.32,3-2.44,4-4.09a8,8,0,0,0,.82-4.91,4.73,4.73,0,0,0-1.52-3.23,4.29,4.29,0,0,0-4-.23,4,4,0,0,0-3.15-.18A9.5,9.5,0,0,0,137,82.08a7.16,7.16,0,0,0-1.44,1.52,9.18,9.18,0,0,0-1,3.12,30.53,30.53,0,0,1-2,6c-.17.34-.61,1-1,1.54l-.65-.14c-.28,2.72-2.55,4.71-3.94,7-.67,1.14-1.14,2.38-1.75,3.56a34.75,34.75,0,0,1-2.31,3.71c-.82,1.21-1.64,2.42-2.47,3.61a51.31,51.31,0,0,1-3.34,4.53c-1.12-.09-2.24-.17-3.35-.19a26.82,26.82,0,0,0-5.58.5,16.08,16.08,0,0,1-.19-2v-.12a3.74,3.74,0,0,1,0-.55,11.27,11.27,0,0,0-.54-19.06,7.2,7.2,0,0,0,.11-1v-.61a1.62,1.62,0,0,0,0-.31,4.17,4.17,0,0,0-.1-.6c0-.1,0-.2-.09-.31a3,3,0,0,0-.25-.55l0,0L107,91.6c0-.06,0,0,0-.07l-.11-.13-.07-.08-.11-.1-.08-.08-.11-.09-.1-.08-.11-.08-.1-.07-.11-.07-.12-.06-.11-.07-.12-.06-.11,0-.14-.06-.11,0-.14-.06-.11,0-.16,0-.09,0-.17-.06-.09,0-.18,0-.08,0-.19,0-.06,0-.22,0h0l-.32-.07c-1.33-.27-2.68-.51-4-.7a8.83,8.83,0,0,0-3.32-.06c-1.51.33-2.76,1.35-4.17,2a27.75,27.75,0,0,1-5.27,1.36A8,8,0,0,0,82,95a9,9,0,0,0-1.44,3.89c-2.1,11.46.17,23.21.6,34.86.16,4.53,0,9.38-2.61,13.09l7.48-.2c.36,0,.72,0,1.09,0s.73-.05,1.09-.1a7,7,0,0,0,2.71-.81,4.7,4.7,0,0,0,1.06-.82A10.54,10.54,0,0,0,94,141c.17-.47.34-.95.49-1.43.06-.2.12-.4.17-.61l0-.1.09,0a18.23,18.23,0,0,0,1,1.68,36.65,36.65,0,0,0,4.61,5.2c3.26,3.24,6.6,6.54,10.69,8.62a12.62,12.62,0,0,1,3.93,2.44c.52.55,1,1.27,1.7,1.46a9.25,9.25,0,0,1,1.4.19c.64.27.87,1,1.17,1.68s1,1.27,1.59,1a3.21,3.21,0,0,0,1.19,3.18,2.46,2.46,0,0,1,.78.69,2.53,2.53,0,0,1,.15.82,3.26,3.26,0,0,0,1.16,2c-.59,1-.12,2.4-.1,3.62a13.84,13.84,0,0,1-.57,3,22.07,22.07,0,0,0,.24,9,9.7,9.7,0,0,0,1.76,4.6c.34.41.76.76,1.12,1.16a10.79,10.79,0,0,1,1.72,2.62,20.6,20.6,0,0,1,1.87,6,10.53,10.53,0,0,0,.88,3c.67,1.46.06,3.25.65,4.73a13.84,13.84,0,0,1,.94,1.94c.22,1-.31,2-.45,3.06-.35,2.41,1.4,4.66,1.55,7.09a.54.54,0,0,1-.08.41c-.12.14-.32.13-.49.21s-.38.56-.48.9-.37.72-.71.62c-5,2.68-10.18,5.15-15.18,7.82l-2.28,1.22-12.21,6.52a.89.89,0,0,0-.49.8c0,.15,0,.31,0,.44-.85.22-1.68.47-2.26.58l-.72.14A.68.68,0,0,0,99,237a.61.61,0,0,0-.54-.61,2,2,0,0,0-.88.11,14,14,0,0,1-2.13.4,14.55,14.55,0,0,0-2.55.3,2.91,2.91,0,0,0-2,1.52,3.71,3.71,0,0,0-.22,1.44,21.85,21.85,0,0,0,.66,5.58.49.49,0,0,0,.23.36c.1,0,.23,0,.34.05a.41.41,0,0,1,.19.25,12.27,12.27,0,0,1,.77,3.72q.3,2.82.77,5.62a6.17,6.17,0,0,0,1.12,3.06,5,5,0,0,0,3.2,1.48,22.34,22.34,0,0,0,7.53-.69,2.13,2.13,0,0,0,1.26-.57,1.44,1.44,0,0,0,.31-1c-.06-1.25-1.2-2.13-2.23-2.83l-1.41-1a.6.6,0,0,1-.31-.68l.09-1.85H103a6.59,6.59,0,0,1,1.75-3.45c.66-.61,1.52-1,2.21-1.59a5.48,5.48,0,0,0,3.08,1.13c1.83-2.46,4.4-4.13,7-5.78a67.09,67.09,0,0,1,6.47-3.61c1.8-.89,3.62-1.73,5.48-2.5,2.62-1.1,5.28-2.09,7.95-3a32.44,32.44,0,0,0,5.22-2.21c4.26-2.46,7.27-7.38,6.7-12.3-.73-6.21.82-12.68.72-18.93a18.85,18.85,0,0,0-.65-5.4,3.37,3.37,0,0,1,.36.3c1.11,1,1.37,2.68,2.43,3.86.83.93,2.08,1.52,2.58,2.65.38.87.33,2,1.12,2.54.23.15.49.21.72.35a2.31,2.31,0,0,1,.67.72,8.09,8.09,0,0,1,1.8,4c0,.59,0,1.26.42,1.65a1.26,1.26,0,0,1,.34.35c.13.3-.22.63-.28,1s.37.83.66,1.22a1.92,1.92,0,0,1,0,2.26c-2.5,3.24-2.95,7.61-5.13,11.07-.76,1.2-1.6,2.33-2.33,3.54-2.24,3.72-3.38,8-4.48,12.21a6.77,6.77,0,0,0,1.87,2.08,10.31,10.31,0,0,1-2.08,3.85,9.4,9.4,0,0,0-.69.87,1.66,1.66,0,0,0-.68-.52,23.94,23.94,0,0,0-.61,5.33c0,1.18.16,2.53,1.12,3.21a3.94,3.94,0,0,0,1.25.52l2.08.6a2.19,2.19,0,0,0,1.16.12,7.66,7.66,0,0,1,.72-.27,1.73,1.73,0,0,1,.81.1l1.8.53a11.06,11.06,0,0,1,1.78.63c.52.25,1,.57,1.5.84a18.57,18.57,0,0,0,2.61,1.07l3.11,1.07a10.88,10.88,0,0,0,2.69.7c.64.06,1.29,0,1.92.11.48.08.95.26,1.43.31a3.78,3.78,0,0,0,2.26-.67,2.16,2.16,0,0,0,.65-.59,2.35,2.35,0,0,0-.38-2.37,9.49,9.49,0,0,0-3.22-3.35c-.55-.3-1.15-.53-1.72-.81-1.62-.79-2.84-2.11-4.37-3a1,1,0,0,0-1.31.09,8.85,8.85,0,0,1-3.35-3,6.71,6.71,0,0,1-.61-2.06c.72.17,1.44.31,2.17.43C160.84,242.8,162.13,238.12,164.45,234ZM135.21,104.17c-.06.34-.13.68-.2,1-.61,2.85-1.48,6.06-3.47,8.18a7.67,7.67,0,0,1-2.25,1.49l-.22.1A49,49,0,0,1,135.21,104.17Z" transform="translate(-46 -36)"/><path class="cls-8" d="M138.15,87.22a9.16,9.16,0,0,1,1-3.1,6.92,6.92,0,0,1,1.44-1.52,9.47,9.47,0,0,1,3.08-1.93,3.86,3.86,0,0,1,3.5.41,4.6,4.6,0,0,1,1.54,3.21,7.86,7.86,0,0,1-.83,4.87c-.94,1.65-2.58,2.74-4,4.06a15.66,15.66,0,0,0-2.58,3.22,9.13,9.13,0,0,1-1.18,1.71,2.2,2.2,0,0,1-1.86.75,3.2,3.2,0,0,1-1.52-.89c-.57-.49-2.08-1.37-2.13-2.16,0-.63,1.14-2.07,1.43-2.66A29.52,29.52,0,0,0,138.15,87.22Z" transform="translate(-46 -36)"/><path class="cls-9" d="M138.15,87.22a9.16,9.16,0,0,1,1-3.1,6.92,6.92,0,0,1,1.44-1.52,9.47,9.47,0,0,1,3.08-1.93,3.86,3.86,0,0,1,3.5.41,4.6,4.6,0,0,1,1.54,3.21,7.86,7.86,0,0,1-.83,4.87c-.94,1.65-2.58,2.74-4,4.06a15.66,15.66,0,0,0-2.58,3.22,9.13,9.13,0,0,1-1.18,1.71,2.2,2.2,0,0,1-1.86.75,3.2,3.2,0,0,1-1.52-.89c-.57-.49-2.08-1.37-2.13-2.16,0-.63,1.14-2.07,1.43-2.66A29.52,29.52,0,0,0,138.15,87.22Z" transform="translate(-46 -36)"/><path class="cls-3" d="M106.19,117.64a27,27,0,0,1,7.48-.91c4.21.06,8.55,1.08,12.56-.21a22.27,22.27,0,0,0,3-1.31,7.83,7.83,0,0,0,2.24-1.47c2-2.12,2.85-5.3,3.48-8.14a55.7,55.7,0,0,0,.95-8.65,6.59,6.59,0,0,0,3.28.86,2.38,2.38,0,0,0,2.29-2.13,34.47,34.47,0,0,0,.15,8.06c.17,1.06.45,2.09.54,3.16.34,3.85-1.67,7.69-.95,11.49a2.79,2.79,0,0,1-1.31,3,14.4,14.4,0,0,1-3.39.92c-2.23.57-4.18,2-6.42,2.52-1,.24-2.13.3-3.16.56-1.48.39-2.82,1.24-4.33,1.51-1.13.2-2.29.06-3.43.16s-2,.34-3,.37a8.55,8.55,0,0,1-6.36-3.15C108.24,122.41,107.21,119.85,106.19,117.64Z" transform="translate(-46 -36)"/><path class="cls-9" d="M106.19,117.64a27,27,0,0,1,7.48-.91c4.21.06,8.55,1.08,12.56-.21a22.27,22.27,0,0,0,3-1.31,7.83,7.83,0,0,0,2.24-1.47c2-2.12,2.85-5.3,3.48-8.14a55.7,55.7,0,0,0,.95-8.65,6.59,6.59,0,0,0,3.28.86,2.38,2.38,0,0,0,2.29-2.13,34.47,34.47,0,0,0,.15,8.06c.17,1.06.45,2.09.54,3.16.34,3.85-1.67,7.69-.95,11.49a2.79,2.79,0,0,1-1.31,3,14.4,14.4,0,0,1-3.39.92c-2.23.57-4.18,2-6.42,2.52-1,.24-2.13.3-3.16.56-1.48.39-2.82,1.24-4.33,1.51-1.13.2-2.29.06-3.43.16s-2,.34-3,.37a8.55,8.55,0,0,1-6.36-3.15C108.24,122.41,107.21,119.85,106.19,117.64Z" transform="translate(-46 -36)"/><path class="cls-10" d="M215.66,121.38a21,21,0,1,1-20.95,21h0a21,21,0,0,1,20.95-21m0-5.18a26.13,26.13,0,1,0,26.13,26.13h0A26.17,26.17,0,0,0,215.66,116.2Z" transform="translate(-46 -36)"/><rect class="cls-10" x="165.8" y="74.09" width="6.12" height="6.45"/><rect class="cls-10" x="226.58" y="113.99" width="6.45" height="6.12" transform="translate(-34.88 217.74) rotate(-59)"/><rect class="cls-10" x="237.33" y="124.44" width="6.45" height="6.12" transform="translate(-77.65 96.61) rotate(-29)"/><rect class="cls-10" x="237.63" y="153.69" width="6.12" height="6.45" transform="translate(-65.92 241.88) rotate(-58)"/><rect class="cls-10" x="187.71" y="124.28" width="6.12" height="6.45" transform="translate(-59.23 196.54) rotate(-61)"/><rect class="cls-10" x="187.41" y="153.85" width="6.45" height="6.12" transform="translate(-100.18 88.86) rotate(-32)"/><rect class="cls-10" x="198.45" y="113.82" width="6.12" height="6.45" transform="translate(-77.5 84.51) rotate(-31)"/><rect class="cls-10" x="165.8" y="132.12" width="6.12" height="6.45"/><rect class="cls-10" x="226.74" y="164.39" width="6.12" height="6.45" transform="translate(-99.5 106.3) rotate(-31)"/><rect class="cls-10" x="198.29" y="164.55" width="6.45" height="6.12" transform="translate(-91.94 218.02) rotate(-59)"/><rect class="cls-10" x="136.78" y="103.75" width="7.41" height="5.48"/><rect class="cls-10" x="195.13" y="103.75" width="7.41" height="5.48"/><path class="cls-10" d="M264.34,83.66a21,21,0,1,1-21,21h0a21,21,0,0,1,21-21m0-5.17a26.13,26.13,0,1,0,26.12,26.13h0A26.14,26.14,0,0,0,264.34,78.49Z" transform="translate(-46 -36)"/><rect class="cls-10" x="214.47" y="36.38" width="6.12" height="6.45"/><rect class="cls-10" x="275.26" y="76.27" width="6.45" height="6.12" transform="translate(21.06 241.18) rotate(-59)"/><rect class="cls-10" x="286" y="86.73" width="6.45" height="6.12" transform="translate(-53.26 115.48) rotate(-29)"/><rect class="cls-10" x="286.31" y="115.98" width="6.12" height="6.45" transform="translate(-11.06 265.43) rotate(-58)"/><rect class="cls-10" x="236.38" y="86.57" width="6.12" height="6.45" transform="translate(-1.17 219.68) rotate(-61)"/><rect class="cls-10" x="236.08" y="116.14" width="6.45" height="6.12" transform="translate(-72.8 108.92) rotate(-32)"/><rect class="cls-10" x="247.13" y="76.11" width="6.12" height="6.45" transform="translate(-51.12 104.19) rotate(-31)"/><rect class="cls-10" x="214.47" y="94.4" width="6.12" height="6.45"/><rect class="cls-10" x="275.42" y="126.67" width="6.12" height="6.45" transform="translate(-73.12 125.98) rotate(-31)"/><rect class="cls-10" x="246.97" y="126.83" width="6.45" height="6.12" transform="translate(-36.01 241.45) rotate(-59)"/><rect class="cls-10" x="185.46" y="66.04" width="7.41" height="5.48"/><rect class="cls-10" x="243.81" y="66.04" width="7.41" height="5.48"/><path class="cls-10" d="M167,82.05h.74A21,21,0,0,1,167,124h-.74a21,21,0,0,1,.71-41.9m0-5.17h0a26.13,26.13,0,0,0-.89,52.24H167a26.13,26.13,0,0,0,.89-52.24Z" transform="translate(-46 -36)"/><rect class="cls-10" x="163.96" y="70.92" width="6.45" height="6.12" transform="translate(41.44 202.5) rotate(-88.01)"/><rect class="cls-10" x="178.77" y="75.17" width="6.45" height="6.12" transform="translate(-28.71 152.28) rotate(-57.01)"/><rect class="cls-10" x="189.15" y="85.99" width="6.45" height="6.12" transform="translate(-65.46 61.08) rotate(-27.01)"/><rect class="cls-10" x="188.43" y="115.22" width="6.12" height="6.45" transform="translate(-59.76 175) rotate(-56.01)"/><rect class="cls-10" x="139.56" y="84.1" width="6.12" height="6.45" transform="matrix(0.51, -0.86, 0.86, 0.51, -51.66, 128.62)"/><rect class="cls-10" x="137.78" y="114.13" width="6.47" height="6.15" transform="translate(-85.64 49.85) rotate(-29.89)"/><rect class="cls-10" x="150.67" y="74.01" width="6.12" height="6.45" transform="translate(-64.17 48.24) rotate(-29.01)"/><rect class="cls-10" x="161.95" y="128.91" width="6.45" height="6.12" transform="translate(-18.45 256.46) rotate(-88.01)"/><rect class="cls-10" x="177.18" y="125.54" width="6.12" height="6.45" transform="translate(-85.83 67.57) rotate(-29.01)"/><rect class="cls-10" x="148.75" y="124.72" width="6.45" height="6.12" transform="translate(-83.95 149.68) rotate(-57.01)"/><rect class="cls-10" x="135.08" y="98.45" width="5.48" height="7.41" transform="translate(-15.05 200.34) rotate(-88.01)"/><rect class="cls-10" x="193.4" y="100.46" width="5.48" height="7.41" transform="translate(39.22 260.57) rotate(-88.01)"/><path class="cls-8" d="M99.5,236.61a6.25,6.25,0,0,0-2.16.67,5.1,5.1,0,0,0-1.88,2.53,21.82,21.82,0,0,0-1.26,7.92,17.25,17.25,0,0,0,.81,6.4,4.16,4.16,0,0,0,1.08,1.68,3.79,3.79,0,0,0,1.47.71,4,4,0,0,0,3.45-.42c1-.83,1.31-2.28,1.54-3.6.3-1.78.72-3.65,2-4.89,1-.91,2.39-1.37,3.1-2.5.85-1.35.4-3.1-.14-4.6-.47-1.3-1.16-3.93-2.52-4.59S100.91,236.35,99.5,236.61Z" transform="translate(-46 -36)"/><path class="cls-8" d="M149.56,243a10.18,10.18,0,0,1-2.13,3.93c-.61.7-1.36,1.54-1,2.4a2.24,2.24,0,0,0,.57.76c4.46,4.37,10.71,6.49,16.9,7.26a.51.51,0,0,0,.3,0c.19-.08.23-.3.25-.5a6.37,6.37,0,0,0,0-1.95c-.3-1.52-1.62-2.58-2.92-3.41s-2.72-1.65-3.44-3c-.91-1.69-.52-3.89-1.6-5.48a5.85,5.85,0,0,0-4-2.08c-.53-.08-1.66-.66-2.13-.39S149.72,242.45,149.56,243Z" transform="translate(-46 -36)"/><path class="cls-10" d="M98.89,236.45a.61.61,0,0,0-.54-.61,2,2,0,0,0-.88.11,12.87,12.87,0,0,1-2.13.39,14.68,14.68,0,0,0-2.56.31,2.88,2.88,0,0,0-2,1.52,3.64,3.64,0,0,0-.22,1.43,22,22,0,0,0,.66,5.54.47.47,0,0,0,.23.35c.11,0,.23,0,.34,0a.55.55,0,0,1,.2.25,12.45,12.45,0,0,1,.77,3.7c.2,1.87.46,3.72.77,5.58a6.1,6.1,0,0,0,1.12,3,5,5,0,0,0,3.2,1.47,22.64,22.64,0,0,0,7.54-.69,2.24,2.24,0,0,0,1.27-.57,1.4,1.4,0,0,0,.3-1c0-1.24-1.2-2.13-2.23-2.81l-1.43-1a.86.86,0,0,1-.25-.22.91.91,0,0,1-.07-.46l.1-1.83a5.22,5.22,0,0,0-4.57,2.84c-.2.39-.38.85-.79,1a1.06,1.06,0,0,1-1.25-.75,3.26,3.26,0,0,1,.05-1.61c.83-4.47.64-9.06,1.14-13.58a3.21,3.21,0,0,1,.46-1.43C98.38,237.16,98.84,236.86,98.89,236.45Z" transform="translate(-46 -36)"/><path class="cls-10" d="M161.06,253.77c.21.35.53.61.73,1a.83.83,0,0,1-.16,1.09,1.07,1.07,0,0,1-.66.06,22.21,22.21,0,0,1-12-5.44,8,8,0,0,1-1.47-1.61c-.4-.61-.73-1.33-1.4-1.58a24.18,24.18,0,0,0-.61,5.29c0,1.17.16,2.51,1.12,3.19a4.12,4.12,0,0,0,1.25.51l2.09.59a2.18,2.18,0,0,0,1.16.11c.25-.06.46-.22.72-.26a1.73,1.73,0,0,1,.81.1l1.8.53a12.14,12.14,0,0,1,1.79.6c.52.25,1,.57,1.5.84a17.4,17.4,0,0,0,2.61,1.06l3.18,1.1a11.07,11.07,0,0,0,2.7.7c.64.05,1.29,0,1.92.11.48.08.95.25,1.44.3a3.77,3.77,0,0,0,2.25-.67,1.91,1.91,0,0,0,.65-.58,2.29,2.29,0,0,0-.38-2.36,9.29,9.29,0,0,0-3.22-3.31c-.56-.3-1.15-.53-1.72-.81-1.62-.78-2.85-2.09-4.38-3S160.37,252.66,161.06,253.77Z" transform="translate(-46 -36)"/><path class="cls-8" d="M116.43,125.84a13.19,13.19,0,0,1-5.62,2.18,21.19,21.19,0,0,1-3.18.17,80.25,80.25,0,0,1-13.23-1.1c1.74-1.92,3.5-4,4.15-6.47a10.48,10.48,0,0,0,.2-4.06,29.84,29.84,0,0,0-1.23-5.1,36,36,0,0,0,5.59-.14c1.06-.11,3.65-1.08,4.56-.34s.21,3.08.2,4.18v.12a13.51,13.51,0,0,0,1.07,4.89A9.29,9.29,0,0,0,116.43,125.84Z" transform="translate(-46 -36)"/><path class="cls-9" d="M107.88,115.15a11.19,11.19,0,0,1-9.13,1.4,30,30,0,0,0-1.24-5.11,34.9,34.9,0,0,0,5.6-.14c1-.11,3.65-1.07,4.56-.34S107.9,114,107.88,115.15Z" transform="translate(-46 -36)"/><circle class="cls-8" cx="55.79" cy="69.3" r="11.14"/><path class="cls-3" d="M149.05,161.68a5.17,5.17,0,0,1-2.51,4.47,10.26,10.26,0,0,1-2.74,1c-5.1,1.21-10.32,2.22-15.55,1.92a8.64,8.64,0,0,1-3.3-.7,3.52,3.52,0,0,1-2-2.54,2.25,2.25,0,0,0-.16-.81,2.22,2.22,0,0,0-.77-.69,3.15,3.15,0,0,1-1.17-3.14c-.64.28-1.3-.36-1.6-1s-.54-1.39-1.17-1.66a10.72,10.72,0,0,0-1.4-.19c-.74-.19-1.18-.91-1.7-1.46a13.26,13.26,0,0,0-3.94-2.4c-4.1-2.07-7.44-5.34-10.71-8.57a34.79,34.79,0,0,1-4.61-5.17c-.37-.54-.7-1.09-1-1.66a46.46,46.46,0,0,1-2.56-5.88,6.7,6.7,0,0,1-.67-3.35l.06-.3a6.6,6.6,0,0,1,1-2,8.54,8.54,0,0,1,4.57-3.76c2-.51,3.89.11,5.87.53a13.47,13.47,0,0,0,2,.3,18.52,18.52,0,0,0,6.2-1l2.21-.61c1.11-.3,1.67-1.64,2.79-1.88a4,4,0,0,1,1.5.08,20.57,20.57,0,0,1,6.56,2.15,9.87,9.87,0,0,1,1.28.86,8.09,8.09,0,0,1,3,4.38c.46,1.93,0,4,.49,5.91a13.32,13.32,0,0,0,2.27,4.33l5.44,7.76a48.2,48.2,0,0,0,4,5.22C143.55,155,149,157.36,149.05,161.68Z" transform="translate(-46 -36)"/><path class="cls-8" d="M134.52,87.22a9.37,9.37,0,0,1,1-3.1,7.42,7.42,0,0,1,1.44-1.52A9.62,9.62,0,0,1,140,80.67a3.86,3.86,0,0,1,3.5.41,4.63,4.63,0,0,1,1.53,3.21,7.92,7.92,0,0,1-.82,4.87c-.94,1.65-2.58,2.74-4,4.06a16.36,16.36,0,0,0-2.58,3.22,8.63,8.63,0,0,1-1.17,1.71,2.22,2.22,0,0,1-1.87.75,3.3,3.3,0,0,1-1.52-.89c-.56-.49-2.08-1.37-2.13-2.16,0-.63,1.15-2.07,1.44-2.66A30.15,30.15,0,0,0,134.52,87.22Z" transform="translate(-46 -36)"/><path class="cls-10" d="M173.68,216.26c-1.4,2.59-2.94,5.1-4.19,7.76-.72,1.56-1.35,3.16-2.16,4.67s-2,3.19-2.89,4.82c-2.33,4.11-3.62,8.75-4.82,13.32a26.55,26.55,0,0,1-9.48-3.35c-.2-.12-.39-.24-.57-.37a6.92,6.92,0,0,1-1.92-2.11c1.11-4.18,2.24-8.43,4.49-12.12.74-1.22,1.58-2.33,2.33-3.51,2.19-3.44,2.64-7.78,5.14-11a1.89,1.89,0,0,0,0-2.24c-.29-.37-.75-.73-.66-1.19s.41-.64.28-1c-.07-.15-.22-.23-.34-.34-.43-.39-.37-1.06-.41-1.64a8,8,0,0,0-1.83-3.93,2.52,2.52,0,0,0-.66-.72c-.23-.13-.5-.19-.72-.33-.8-.5-.74-1.67-1.13-2.53-.5-1.13-1.75-1.71-2.58-2.63-1.05-1.18-1.32-2.81-2.43-3.84a3.37,3.37,0,0,0-.36-.3,18.91,18.91,0,0,1,.64,5.37c.11,6.2-1.44,12.63-.71,18.79.57,4.9-2.44,9.78-6.72,12.22a31.52,31.52,0,0,1-5.22,2.2c-2.67,1-5.34,1.93-8,3q-2.79,1.16-5.48,2.48a68,68,0,0,0-6.48,3.59c-2.58,1.64-5.15,3.3-7,5.75a6.29,6.29,0,0,1-4.51-2.49,17,17,0,0,1-2.47-4.67,13,13,0,0,1-1.17-4.4.85.85,0,0,1,.53-.76l12.22-6.48,2.29-1.22c5-2.66,10.19-5.11,15.2-7.77.34.1.61-.28.71-.61s.17-.74.49-.89c.16-.08.36-.07.48-.21a.57.57,0,0,0,.09-.4c-.16-2.44-1.91-4.65-1.56-7,.15-1,.67-2,.45-3a13.11,13.11,0,0,0-.94-1.92c-.6-1.48,0-3.26-.65-4.7a10.91,10.91,0,0,1-.89-3,20.43,20.43,0,0,0-1.86-5.94,11.28,11.28,0,0,0-1.72-2.6c-.37-.39-.79-.75-1.14-1.16a9.64,9.64,0,0,1-1.75-4.56,22,22,0,0,1-.25-8.92,12,12,0,0,0,.57-3c0-1.34-.61-2.92.33-3.89a3.11,3.11,0,0,1,1.37-.71,41.35,41.35,0,0,1,6.63-1.21l10.21-1.34a9,9,0,0,0,3.4-.89,6.85,6.85,0,0,0,2.87-3.65c1.79,1.31,2.46,3.75,3.89,5.44.7.82,1.56,1.49,2.32,2.25a25.71,25.71,0,0,1,2.56,3.15,56.52,56.52,0,0,1,5.79,9.16c.79,1.7,1.4,3.48,2,5.25,2.49,7,6.55,13.57,8.24,20.76.41,1.76,1.49,3.35,1.66,5.15S174.59,214.56,173.68,216.26Z" transform="translate(-46 -36)"/><path class="cls-9" d="M120.2,158.45a3.15,3.15,0,0,0-.38,1.5c.23-1.12,1.78-1.75,1.88-2.86,0-.52,0-.49-.37-.22C120.85,157.29,120.64,158,120.2,158.45Z" transform="translate(-46 -36)"/><path class="cls-9" d="M124.92,161.87a2.34,2.34,0,0,0-.71,1,2.68,2.68,0,0,0-.14,1.83c.23-.11.3-.39.37-.63a4.38,4.38,0,0,1,.49-1.08c.18-.3,1-1,1-1.3C125.94,161.24,125.14,161.69,124.92,161.87Z" transform="translate(-46 -36)"/><path class="cls-9" d="M125.46,124.16a11.34,11.34,0,0,1-2.35,1.57c-2.2,1.11-4.65,1.7-6.87,2.79a32.74,32.74,0,0,0-3.19,1.86l-6.61,4.18a7.15,7.15,0,0,0-1.45,1.11c-.8.84-.79,2.33-1.52,3.24a4.44,4.44,0,0,1-3.21,1.48,10.39,10.39,0,0,1-3.57-.61,21.63,21.63,0,0,1-2-.74,10,10,0,0,1-2-1.12,5.57,5.57,0,0,1-2.3-3.66,7.13,7.13,0,0,1,.39-3,11.68,11.68,0,0,1,.7-1.81,7,7,0,0,1,.56-.95c1.52-2.15,4.19-3.15,6.78-3.65,1.35-.27,2.74-.43,4.11-.66a15,15,0,0,0,2,.31,18.53,18.53,0,0,0,6.2-1l2.21-.61c1.11-.3,1.66-1.64,2.78-1.87a3.85,3.85,0,0,1,1.51.07,20.57,20.57,0,0,1,6.56,2.15A10.29,10.29,0,0,1,125.46,124.16Z" transform="translate(-46 -36)"/><path class="cls-3" d="M130.85,94.59c-.28,2.7-2.56,4.68-4,7-.67,1.13-1.14,2.37-1.75,3.54a32.47,32.47,0,0,1-2.31,3.68l-2.48,3.6a37,37,0,0,1-4.78,6c-3.24.55-6,3-9,4.12-2.46.94-5.15,1.07-7.73,1.57s-5.25,1.52-6.77,3.65a9.91,9.91,0,0,0-1.27,2.74,7,7,0,0,0-.38,3,5.63,5.63,0,0,0,2.3,3.65,12.94,12.94,0,0,0,4,1.86,10.31,10.31,0,0,0,3.57.61,4.35,4.35,0,0,0,3.21-1.48c.75-1,.72-2.4,1.52-3.24a7.5,7.5,0,0,1,1.46-1.11l6.6-4.18a34.82,34.82,0,0,1,3.19-1.85c2.22-1.09,4.67-1.67,6.87-2.79s4.26-3,4.71-5.4c1.34-7.48,6.52-13.79,11-20-.14,0-.1-.37-.15-.51a6.44,6.44,0,0,0-3.25-3.27A19.63,19.63,0,0,0,130.85,94.59Z" transform="translate(-46 -36)"/><path class="cls-10" d="M107.5,94.65A4.17,4.17,0,0,0,107,92.3c-.74-1.22-2.27-1.65-3.65-1.93s-2.69-.51-4-.71A9.38,9.38,0,0,0,96,89.6c-1.52.34-2.76,1.34-4.17,2a28.6,28.6,0,0,1-5.28,1.35,8.09,8.09,0,0,0-4.72,2.55,8.9,8.9,0,0,0-1.43,3.86c-2.11,11.38.16,23,.59,34.62.17,4.5,0,9.31-2.61,13l7.49-.2c1.92,0,4-.14,5.48-1.33a9,9,0,0,0,2.52-4.31,13.27,13.27,0,0,0,1-3.85c.12-2.72-1.42-5.39-.91-8.06a8.92,8.92,0,0,1,3.38-4.92,30.21,30.21,0,0,0,4.54-4.05c2.25-2.84,2.68-6.72,2.4-10.32a38.72,38.72,0,0,1-.37-6.44,8.1,8.1,0,0,1,1.7-4.51A6.34,6.34,0,0,0,107.5,94.65Z" transform="translate(-46 -36)"/><path class="cls-9" d="M107,92.3c-.72-1.2-2.22-1.63-3.59-1.92a3.5,3.5,0,0,1,1.77,1.4,4,4,0,0,1,.46,2.35,6.22,6.22,0,0,1-1.92,4.32,8.1,8.1,0,0,0-1.7,4.51,39.76,39.76,0,0,0,.37,6.44c.28,3.61-.15,7.49-2.39,10.33a30.15,30.15,0,0,1-4.54,4,9,9,0,0,0-3.39,4.92c-.5,2.68,1,5.35.91,8.06a13.32,13.32,0,0,1-1,3.86,9.06,9.06,0,0,1-2.53,4.3c-1.52,1.18-3.57,1.29-5.48,1.34l-5.3.14c-.12.19-.24.39-.37.57l7.49-.2c1.91,0,4-.14,5.48-1.33a9.15,9.15,0,0,0,2.52-4.31,13.27,13.27,0,0,0,1-3.85c.11-2.72-1.43-5.39-.92-8.06a9,9,0,0,1,3.38-4.92,29.8,29.8,0,0,0,4.55-4.05c2.24-2.84,2.67-6.72,2.39-10.32a38.71,38.71,0,0,1-.36-6.44A8.09,8.09,0,0,1,105.57,99a6.17,6.17,0,0,0,1.92-4.32A4.08,4.08,0,0,0,107,92.3Z" transform="translate(-46 -36)"/><path class="cls-9" d="M163.32,209.6l-13.75,33.53a6.92,6.92,0,0,1-1.92-2.11c1.11-4.18,2.24-8.43,4.49-12.12.74-1.22,1.58-2.33,2.33-3.52,2.19-3.44,2.64-7.78,5.14-11a1.89,1.89,0,0,0,0-2.24c-.29-.37-.75-.73-.66-1.19s.41-.65.28-1a1.26,1.26,0,0,0-.34-.35c-.43-.39-.37-1.06-.41-1.63a8,8,0,0,0-1.83-3.93,2.4,2.4,0,0,0-.66-.72c-.23-.14-.5-.2-.72-.34-.8-.5-.74-1.66-1.13-2.52-.5-1.14-1.75-1.72-2.58-2.64-1.05-1.17-1.32-2.81-2.43-3.83l-.1-.24,1.07-6.47Z" transform="translate(-46 -36)"/></svg>