<svg id="Layer_1" data-name="Layer 1" xmlns="http://www.w3.org/2000/svg" viewBox="0 0 298.2 251.34"><defs><style>.cls-1{fill:#e6e6e6;}.cls-2{fill:#3f3d56;}.cls-3{fill:#6c63ff;}.cls-4{fill:#2f2e41;}.cls-5{fill:#fff;}</style></defs><title>what-5</title><ellipse class="cls-1" cx="262.77" cy="248.86" rx="32.44" ry="2.47"/><ellipse class="cls-1" cx="104.74" cy="248.86" rx="32.44" ry="2.47"/><path class="cls-1" d="M294.63,239.74H74a3.48,3.48,0,0,1-3.48-3.47V24.48A3.48,3.48,0,0,1,74,21H294.63a3.48,3.48,0,0,1,3.48,3.48V236.27A3.48,3.48,0,0,1,294.63,239.74ZM74,22.39A2.09,2.09,0,0,0,72,24.48V236.27A2.09,2.09,0,0,0,74,238.35H294.63a2.09,2.09,0,0,0,2.09-2.08V24.48a2.09,2.09,0,0,0-2.09-2.09Z" transform="translate(-46 -21)"/><path class="cls-1" d="M86.78,39.54a1.39,1.39,0,0,0-1.39,1.39V98.39a1.39,1.39,0,0,0,1.39,1.39h57.47a1.39,1.39,0,0,0,1.39-1.39V40.93a1.39,1.39,0,0,0-1.39-1.39Z" transform="translate(-46 -21)"/><path id="b9d15c13-74bb-46fd-a6fd-5a7002be597d" class="cls-1" d="M177.17,81.13a1.68,1.68,0,0,0,0,3.36h79.19a1.68,1.68,0,0,0,.07-3.36H177.17Z" transform="translate(-46 -21)"/><path id="fb98932a-aea9-43a1-946e-96a095a0002f" class="cls-1" d="M177.17,65.84a1.68,1.68,0,0,0,0,3.36h22.65a1.68,1.68,0,0,0,.07-3.36H177.17Z" transform="translate(-46 -21)"/><path id="a8382d7c-76a2-4f66-b41d-b5784413a475" class="cls-1" d="M177.17,96.89a1.68,1.68,0,0,0,0,3.36h79.19a1.68,1.68,0,0,0,.06-3.36H177.17Z" transform="translate(-46 -21)"/><path id="a69b3c31-ebec-4776-89b9-9c88b713759e" class="cls-1" d="M271.37,157.58H162.54c-2.12,0-3.84-1.22-3.84-2.73V131.19c0-1.51,1.72-2.73,3.84-2.73H271.37c2.12,0,3.84,1.22,3.85,2.73v23.66C275.21,156.35,273.49,157.58,271.37,157.58Z" transform="translate(-46 -21)"/><path id="ac481be8-039b-4a38-bb10-2d9a81406e5c" class="cls-1" d="M197.69,215.05H88.85c-2.12,0-3.84-1.23-3.84-2.74V188.66c0-1.51,1.72-2.74,3.84-2.74H197.69c2.12,0,3.84,1.23,3.84,2.74v23.65C201.53,213.82,199.81,215,197.69,215.05Z" transform="translate(-46 -21)"/><path id="e05581d0-cd6a-412e-af3c-57495fab8d46" class="cls-2" d="M164.86,228.08H56c-2.12,0-3.84-1.23-3.84-2.74V201.69c0-1.51,1.72-2.74,3.84-2.74H164.86c2.12,0,3.84,1.23,3.84,2.74v23.65C168.7,226.85,167,228.08,164.86,228.08ZM56,200.05c-1.27,0-2.3.73-2.3,1.64v23.65c0,.91,1,1.64,2.3,1.64H164.86c1.27,0,2.3-.73,2.3-1.64V201.69c0-.91-1-1.64-2.3-1.64Z" transform="translate(-46 -21)"/><circle class="cls-3" cx="158.03" cy="133.47" r="8.81"/><circle class="cls-3" cx="25.95" cy="192.33" r="8.81"/><path id="f4993879-8a0d-4ea4-907e-e549be7081a0" class="cls-2" d="M223.05,148.16a1.68,1.68,0,0,0,0,3.35h63a1.68,1.68,0,0,0,.06-3.35h-63Z" transform="translate(-46 -21)"/><path id="a649136c-96b9-48c7-9686-75389104c34a" class="cls-2" d="M223.05,157.42a1.68,1.68,0,0,0,0,3.36h63a1.68,1.68,0,0,0,.06-3.36h-63Z" transform="translate(-46 -21)"/><path id="bf4cb793-0df2-4753-9628-c376ea3545d1" class="cls-2" d="M91,207a1.68,1.68,0,0,0,0,3.36h63A1.68,1.68,0,0,0,154,207H91Z" transform="translate(-46 -21)"/><path id="bf2170fd-291c-4664-b596-01f8e04656d6" class="cls-2" d="M91,216.28a1.68,1.68,0,0,0,0,3.36h63a1.68,1.68,0,1,0,.06-3.36H91Z" transform="translate(-46 -21)"/><circle class="cls-4" cx="263.68" cy="220.56" r="19.96"/><rect class="cls-4" x="266.71" y="236.23" width="6.06" height="10.86"/><rect class="cls-4" x="254.59" y="236.23" width="6.06" height="10.86"/><ellipse class="cls-4" cx="267.72" cy="247.22" rx="5.05" ry="1.89"/><ellipse class="cls-4" cx="255.6" cy="246.96" rx="5.05" ry="1.89"/><circle class="cls-5" cx="263.18" cy="215.51" r="6.82"/><circle class="cls-2" cx="263.18" cy="215.51" r="2.27"/><path class="cls-1" d="M329,223c1.61-7.22-3.54-14.51-11.5-16.29s-15.73,2.63-17.35,9.85,3.67,9.88,11.64,11.66S327.43,230.22,329,223Z" transform="translate(-46 -21)"/><path class="cls-4" d="M97.12,109a19.9,19.9,0,0,1-2.05,8.83c-.15.31-.32.62-.49.92H59.75c-.18-.3-.34-.61-.49-.92A20,20,0,1,1,97.12,109Z" transform="translate(-46 -21)"/><circle class="cls-5" cx="31.67" cy="82.98" r="6.82"/><circle class="cls-2" cx="31.67" cy="82.98" r="2.27"/><path class="cls-3" d="M57.8,90.47C56.19,83.25,61.34,76,69.31,74.18S85,76.81,86.65,84,83,93.91,75,95.69,59.41,97.69,57.8,90.47Z" transform="translate(-46 -21)"/><path class="cls-2" d="M105.78,56.68H48.32A2.32,2.32,0,0,0,46,59v57.47a2.31,2.31,0,0,0,2.32,2.31h57.46a2.31,2.31,0,0,0,2.32-2.31V59A2.32,2.32,0,0,0,105.78,56.68Zm1.39,59.79a1.39,1.39,0,0,1-1.39,1.39H48.32a1.39,1.39,0,0,1-1.39-1.39V59a1.39,1.39,0,0,1,1.39-1.39h57.46A1.39,1.39,0,0,1,107.17,59Z" transform="translate(-46 -21)"/><ellipse class="cls-4" cx="165.93" cy="226.49" rx="9.98" ry="3.13" transform="translate(-150.87 279.62) rotate(-69.08)"/><circle class="cls-4" cx="147.48" cy="241.56" r="19.96" transform="translate(-160.58 327.45) rotate(-80.78)"/><rect class="cls-4" x="92.39" y="236.23" width="6.06" height="10.86"/><rect class="cls-4" x="104.52" y="236.23" width="6.06" height="10.86"/><ellipse class="cls-4" cx="97.44" cy="247.22" rx="5.05" ry="1.89"/><ellipse class="cls-4" cx="109.57" cy="246.96" rx="5.05" ry="1.89"/><path class="cls-3" d="M128.12,223c-1.61-7.22,3.54-14.51,11.51-16.29s15.73,2.63,17.34,9.85-3.67,9.88-11.63,11.66S129.74,230.22,128.12,223Z" transform="translate(-46 -21)"/><ellipse class="cls-4" cx="125" cy="232.3" rx="3.13" ry="9.98" transform="translate(-184.45 224.7) rotate(-64.63)"/><circle class="cls-4" cx="269.7" cy="159.72" r="19.47"/><rect class="cls-4" x="318.76" y="195.97" width="5.91" height="10.6" transform="translate(-46.93 -19.5) rotate(-0.27)"/><rect class="cls-4" x="306.93" y="196.03" width="5.91" height="10.6" transform="translate(-46.93 -19.56) rotate(-0.27)"/><ellipse class="cls-4" cx="308.68" cy="207.74" rx="4.93" ry="1.85" transform="translate(-108.63 162.9) rotate(-30.27)"/><ellipse class="cls-4" cx="320.27" cy="207.69" rx="4.93" ry="1.85" transform="translate(-107.02 168.73) rotate(-30.27)"/><circle class="cls-5" cx="269.19" cy="154.79" r="6.65"/><circle class="cls-2" cx="266.91" cy="151.97" r="2.22"/><path class="cls-3" d="M334.51,162.53c1.54-7.05-3.52-14.14-11.3-15.84s-15.34,2.63-16.87,9.68,3.62,9.62,11.4,11.32S333,169.57,334.51,162.53Z" transform="translate(-46 -21)"/><ellipse class="cls-4" cx="295.37" cy="170.86" rx="3.06" ry="9.73" transform="translate(-22.98 355.44) rotate(-67.1)"/><ellipse class="cls-4" cx="335.15" cy="187" rx="3.06" ry="9.73" transform="translate(-13.54 401.94) rotate(-67.1)"/><path class="cls-5" d="M319.64,189.2a4.44,4.44,0,1,1-8.87.07v0h0c0-2.45,2-3,4.42-3S319.63,186.75,319.64,189.2Z" transform="translate(-46 -21)"/><path id="acccf4df-3a09-4c7b-a8c8-af469fe66e6d" class="cls-2" d="M299.69,169.14H190.85c-2.12,0-3.84-1.22-3.84-2.73V142.76c0-1.51,1.72-2.74,3.84-2.74H299.69c2.12,0,3.84,1.23,3.84,2.74v23.65C303.53,167.92,301.81,169.14,299.69,169.14Zm-108.84-28c-1.27,0-2.3.74-2.3,1.64v23.66c0,.9,1,1.64,2.3,1.64H299.69c1.27,0,2.3-.74,2.3-1.64V142.76c0-.91-1-1.64-2.3-1.65Z" transform="translate(-46 -21)"/></svg>