<svg id="Layer_1" data-name="Layer 1" xmlns="http://www.w3.org/2000/svg" viewBox="0 0 313.79 281"><defs><style>.cls-1{fill:#f2f2f2;}.cls-2{fill:#fff;}.cls-3{fill:#6c63ff;}.cls-4{fill:#3f3d56;}.cls-5{fill:#a0616a;}.cls-6{fill:#2f2e41;}.cls-7{fill:#ccc;}.cls-8{font-size:18px;font-family:Montserrat-Medium, Montserrat;font-weight:500;}.cls-9{letter-spacing:0em;}</style></defs><title>what-1</title><path class="cls-1" d="M300.57,217.14a12.25,12.25,0,0,1-4.39-10.56,9.89,9.89,0,0,1,7.36-8.41c3.88-.84,8.31,1.48,9.49,5.28.65-7.32,1.4-14.94,5.29-21.17a22.41,22.41,0,0,1,16.23-10.4,20.13,20.13,0,0,1,17.69,7.22,18.29,18.29,0,0,1,2.25,18.8c-2.13,4.41-6.05,7.69-10.16,10.37a65.5,65.5,0,0,1-44.81,9.8" transform="translate(-42.34 -4)"/><path class="cls-2" d="M345.7,174a108.19,108.19,0,0,0-31.76,43c-.3.74.9,1.07,1.2.33a106.79,106.79,0,0,1,31.45-42.4C347.21,174.41,346.32,173.53,345.7,174Z" transform="translate(-42.34 -4)"/><path class="cls-3" d="M107.61,218.89H90.4a2.19,2.19,0,0,1-2.19-2.19V180.92a2.19,2.19,0,0,1,2.19-2.19h17.21a2.2,2.2,0,0,1,2.2,2.19V216.7A2.2,2.2,0,0,1,107.61,218.89Z" transform="translate(-42.34 -4)"/><path class="cls-4" d="M148.45,219.23H131.24a2.53,2.53,0,0,1-2.53-2.53V147.17a2.53,2.53,0,0,1,2.53-2.53h17.21a2.53,2.53,0,0,1,2.53,2.53V216.7A2.53,2.53,0,0,1,148.45,219.23Zm-17.21-73.91a1.85,1.85,0,0,0-1.86,1.85V216.7a1.86,1.86,0,0,0,1.86,1.86h17.21a1.86,1.86,0,0,0,1.86-1.86V147.17a1.85,1.85,0,0,0-1.86-1.85Z" transform="translate(-42.34 -4)"/><path class="cls-4" d="M189.29,219.23H172.08a2.53,2.53,0,0,1-2.53-2.53V103a2.53,2.53,0,0,1,2.53-2.53h17.21a2.53,2.53,0,0,1,2.53,2.53V216.7A2.53,2.53,0,0,1,189.29,219.23ZM172.08,101.1a1.87,1.87,0,0,0-1.86,1.86V216.7a1.86,1.86,0,0,0,1.86,1.86h17.21a1.87,1.87,0,0,0,1.86-1.86V103a1.88,1.88,0,0,0-1.86-1.86Z" transform="translate(-42.34 -4)"/><path class="cls-3" d="M313.51,219.06H296.3c-1.21,0-2.2-1.28-2.2-2.86V6.86c0-1.58,1-2.86,2.2-2.86h17.21c1.21,0,2.19,1.28,2.19,2.86V216.2C315.7,217.78,314.72,219.06,313.51,219.06Z" transform="translate(-42.34 -4)"/><path class="cls-5" d="M123.46,120.05a3.41,3.41,0,0,0-2.94-3.8,4,4,0,0,0-.6,0l-6-11L112.57,110,116.68,120a3.41,3.41,0,0,0,6.78,0Z" transform="translate(-42.34 -4)"/><polygon class="cls-5" points="34.89 159.5 38.23 161.94 49.23 150.21 44.3 146.61 34.89 159.5"/><path class="cls-6" d="M84.75,173.75l-10.5-7.67h0l3-4.05h0l6.45,4.7a5,5,0,0,1,1.09,7Z" transform="translate(-42.34 -4)"/><polygon class="cls-5" points="52.57 172.42 56.71 172.42 58.68 156.46 52.57 156.46 52.57 172.42"/><path class="cls-6" d="M107,180.26H94v-5h8a5,5,0,0,1,5,5Z" transform="translate(-42.34 -4)"/><path class="cls-6" d="M107.34,114.17s2,19.57-3,33.07l-3.71,25.65H94.17l.68-30.37-2.36-27S97.21,103.37,107.34,114.17Z" transform="translate(-42.34 -4)"/><polygon class="cls-6" points="43.06 111.52 49.81 134.81 36.65 155.73 43.23 161.3 58.25 137.84 53.86 109.16 43.06 111.52"/><circle class="cls-5" cx="60.27" cy="51.01" r="8.29"/><path class="cls-7" d="M95.69,66.41s5.07-3.37,10.8,4L108,117.21s-4.39-6.08-13.5-.34-11.14-.68-11.14-.68S77,67.93,95.69,66.41Z" transform="translate(-42.34 -4)"/><path class="cls-7" d="M106.09,70.34h0a5.92,5.92,0,0,1,5.58,5.59l1.07,20.35,7.08,19.24-4,3.37-13.16-23L99.92,77.08a5.92,5.92,0,0,1,5-6.69A6.4,6.4,0,0,1,106.09,70.34Z" transform="translate(-42.34 -4)"/><path class="cls-6" d="M96.52,61.23a2.35,2.35,0,0,0,4-1.31,3.53,3.53,0,0,0,0-.46c-.09-.87-.6-1.66-.48-2.59a1.44,1.44,0,0,1,.25-.63c1.08-1.45,3.62.64,4.64-.66.62-.81-.11-2.07.37-3,.63-1.18,2.5-.6,3.68-1.25s1.23-2.72.37-4A6.22,6.22,0,0,0,104.69,45a12.39,12.39,0,0,0-5.32,1,10.67,10.67,0,0,0-5,3.48,8.54,8.54,0,0,0-.86,7.25A13.75,13.75,0,0,0,96.52,61.23Z" transform="translate(-42.34 -4)"/><path class="cls-4" d="M341.47,219.57H54.53a.48.48,0,0,1-.52-.46.49.49,0,0,1,.52-.46H341.47a.46.46,0,1,1,0,.92Z" transform="translate(-42.34 -4)"/><path class="cls-3" d="M230.51,219.06H213.3a2.11,2.11,0,0,1-2.2-2V70a2.11,2.11,0,0,1,2.2-2h17.21a2.11,2.11,0,0,1,2.19,2v147A2.11,2.11,0,0,1,230.51,219.06Z" transform="translate(-42.34 -4)"/><path class="cls-4" d="M273.29,219.23H256.08c-1.4,0-2.53-1.76-2.53-3.92V38.93c0-2.17,1.13-3.93,2.53-3.93h17.21c1.4,0,2.53,1.76,2.53,3.93V215.31C275.82,217.47,274.69,219.23,273.29,219.23ZM256.08,36.05c-1,0-1.86,1.29-1.86,2.88V215.31c0,1.59.83,2.87,1.86,2.87h17.21c1,0,1.85-1.28,1.86-2.87V38.93c0-1.59-.84-2.88-1.86-2.88Z" transform="translate(-42.34 -4)"/><text class="cls-8" transform="translate(0 270.27)">Ga<tspan class="cls-9" x="24.66" y="0">m</tspan><tspan x="43.74" y="0">e Design</tspan></text><rect x="55.66" y="221" width="2" height="38"/><polygon points="54.66 221 58.66 221 56.66 218 54.66 221"/></svg>