<svg id="Layer_1" data-name="Layer 1" xmlns="http://www.w3.org/2000/svg" xmlns:xlink="http://www.w3.org/1999/xlink" viewBox="0 0 367.98 225.75"><defs><style>.cls-1,.cls-21{fill:#6c63ff;}.cls-1,.cls-10,.cls-14,.cls-9{opacity:0.1;}.cls-1,.cls-10,.cls-6,.cls-9{isolation:isolate;}.cls-10,.cls-2{fill:#fff;}.cls-3{fill:#d0d0db;}.cls-4{fill:url(#linear-gradient);}.cls-5{fill:#95b6f0;}.cls-6{opacity:0.05;}.cls-7{fill:#5f546f;}.cls-8{fill:#ccccd8;}.cls-11{fill:#c27099;}.cls-12{fill:#4c4981;}.cls-13{fill:#63345e;}.cls-15{fill:url(#linear-gradient-2);}.cls-16{fill:#aea4b2;}.cls-17{fill:#ffc4d0;}.cls-18{fill:#575989;}.cls-19{fill:#ae757a;}.cls-20{fill:none;}.cls-22{fill:#d4dfec;}.cls-23{fill:#444053;}</style><linearGradient id="linear-gradient" x1="256.24" y1="-49.7" x2="256.24" y2="117.12" gradientTransform="matrix(1, 0, 0, -1, -19.44, 208.19)" gradientUnits="userSpaceOnUse"><stop offset="0" stop-color="gray" stop-opacity="0.25"/><stop offset="0.54" stop-color="gray" stop-opacity="0.12"/><stop offset="1" stop-color="gray" stop-opacity="0.1"/></linearGradient><linearGradient id="linear-gradient-2" x1="136.5" y1="-49.89" x2="136.5" y2="125.68" xlink:href="#linear-gradient"/></defs><title>what-2</title><path class="cls-1" d="M389.94,95.34c0,.48-.06,1-.11,1.41a40,40,0,0,1-3,11.93c-5.34,12.68-16,22.32-27.38,30.07l-.72.48c-2.06,1.39-4.15,2.72-6.26,4l-.17.11-.13.08-.38.23-.91.56-.5.32L348.1,146l-2,1.22h0l-3.87,2.33c-4.29,2.59-8.57,5.21-12.7,8l-.64.45c-.31.2-.6.41-.89.63q-2.32,1.63-4.58,3.38l-.89.7a40.71,40.71,0,0,0-8,8.2,19.5,19.5,0,0,0-3.54,8.74c-.63,5.07,1.11,10,3.54,14.74,1.57,3.07,3.43,6.1,5.13,9.11.55,1,1.09,2,1.58,3a40.17,40.17,0,0,1,2.37,5.37c1.36,3.93,1.75,7.87.19,11.89-1.71,4.41-5.16,7.24-9.28,9.51-2.22,1.22-4.61,2.28-7,3.34a70.81,70.81,0,0,0-10,5l-.57.38q-.6.4-1.17.84h0c-.63.48-1.24,1-1.83,1.53-.35.32-.69.64-1,1s-.53.53-.79.81c-.5.52-1,1.06-1.47,1.6l-.37.44-1.05,1.25c-.45.54-.89,1.09-1.33,1.65-.64.79-1.27,1.58-1.88,2.38-.19.22-.37.45-.55.68-1,1.27-2.07,2.53-3.17,3.71l-.12.14a23,23,0,0,1-9.12,6.4c-8.76,3.05-17.43-1.49-25.85-6.33h0l-.23-.14-.11-.06h0l-.72-.42-.34-.2-2.57-1.49-.21-.12c-1.21-.69-2.4-1.36-3.6-2-.71-.38-1.44-.74-2.17-1.09a61.05,61.05,0,0,0-7.48-3,64,64,0,0,0-10.22-2.47c-1.41-.22-2.83-.4-4.26-.53-.91-.08-1.84-.15-2.77-.19a65.47,65.47,0,0,0-22.21,2.7c-1,.3-1.95.63-2.92,1l-.53.19c-.89.32-1.78.68-2.65,1l-.32.13h0l-.05,0c-4.51,1.94-8.87,4.42-13.37,6.36l-1.2.5a35.49,35.49,0,0,1-8.74,2.43,32.35,32.35,0,0,1-9.32-.24,66.22,66.22,0,0,1-8.22-1.92h0l-.18-.06-.75-.22-.34-.1-.44-.14c-6.33-1.94-12.69-4.24-19.22-4.87l-1-.08a39.94,39.94,0,0,0-6.09.05c-6.07.47-12.11,2.11-18.12,3.83l-.37.11-1,.28-.71.21-1.37.39-.32.09h0c-9.9,2.85-19.71,5.29-29.39,2.46a35,35,0,0,1-11.54-6.08,63.44,63.44,0,0,1-7-6.38c-2-2.13-4-4.36-5.88-6.58-6.29-7.4-12.51-15.26-15.25-24.58a48.16,48.16,0,0,1-1.72-10.11c-.14-2.08-.19-4.17-.19-6.27q0-2.09.06-4.17c0-1,.06-2,.09-3v-.49c0-.47,0-1,0-1.4L23,165.18c.18-5.83.37-11.75,2.18-17.3.2-.63.43-1.27.68-1.9.18-.48.38-.95.59-1.41,4-9,11.72-16.4,18.58-24a88.71,88.71,0,0,0,7-8.58c3.28-4.68,5.64-9.64,6.17-15.25,0-.47.07-.93.09-1.41s0-1,0-1.45c-.17-8.12-4.49-15.91-6.27-23.72a23.31,23.31,0,0,1-.26-10.54c.08-.34.17-.67.26-1C55.15,48.12,67.2,42.6,78.19,40.8c11.41-1.85,23-1.31,34.43.32l2.25.35c2.36.38,4.7.84,7,1.32,5.66,1.19,11.25,2.58,16.93,3.73,7.27,1.48,13.85.07,21.11-1q5.56-.78,11.17-1.09,4.68-.25,9.36-.18a131.49,131.49,0,0,1,37,5.88c8.07,2.52,16,5.83,24.21,7.64a54.35,54.35,0,0,0,8.52,1.24l.68,0c19.41.86,37.24-10.73,56.51-12.91l.65-.07a59.12,59.12,0,0,1,6.38-.31c18,.07,35.38,7.8,51.88,15.42,5,2.32,10.14,4.71,14.22,8.44C387.58,76.09,390.48,85.76,389.94,95.34Z" transform="translate(-22.02 -39.64)"/><path class="cls-1" d="M219.42,191.42V146H232l-.31-.29-.09-.08-.18-.16-.24-.2-.2-.16-.22-.17a3.18,3.18,0,0,0-.35-.26l-.08-.07H219.42v-2.49l-.29.16-.32.2h0l-.06.05-.2.14-.19.14-.57.47-.19.17-.36.33c-.5.46-1,.94-1.47,1.38-.13.11-.26.22-.39.31a8.71,8.71,0,0,1-.83.64l-.36.23-.21.1-.19.1h0a6.79,6.79,0,0,1-1.37.49v44.42H193.59a.8.8,0,0,0,0,.15c.11.42.21.83.32,1.26h18.47v48.73h.29l.31,0,.6,0,.95.11a3.11,3.11,0,0,1,.44.06l.51.07h.07l.84.15.18,0,.41.07.58.12h0l1.41-.05h0l.19,0,.24.06V192.85h29v-.11a.17.17,0,0,0,0-.1c0-.39.08-.77.11-1.16v0Zm43.45,0h-1.26v1.42h1.44Zm-14.26,0v0c0,.38-.07.77-.11,1.16v.21h10.92v-.08l.78-1.32ZM51.82,59.64a23,23,0,0,0,.26,10.54V58.64C52,59,51.9,59.29,51.82,59.64Zm179.81,86c0-.36,0-.73-.07-1.12h-3a1.08,1.08,0,0,0,0,.19c0,.21.06.41.1.63l.06.43,0,.17h2.89Zm-23.3,46.51h0L208,192c.34-.21.68-.4,1-.57H141.45a2.08,2.08,0,0,0,.12.32c0,.06.06.12.09.19a1.71,1.71,0,0,0,.12.23l.2.37.19.32h67.22C208.94,192.54,208.57,192.33,208.33,192.18Zm-86.45-34.35,0,.09v-.1Zm0-6.81a1.26,1.26,0,0,1-.34.31l.33.43a.42.42,0,0,1,0,.1.58.58,0,0,1,0,.14l0,.06-.07.12,0,0a1.71,1.71,0,0,1-.11.14l-.07.07-.14.12,0,0h0l0,0,0,0a6.46,6.46,0,0,1,.66.92v-2.64l-.08.1Zm86,40.4H198c2.6,1,6.75.63,9.53.24l.54-.08Zm21.12,1.4-.07-.09-.08-.07a2.6,2.6,0,0,1-.26-.32l-.12-.2c-.07-.13-.16-.29-.24-.46s0,0,0-.06l-.09-.2h-8.62V146h9.33l0-.16-.06-.44c0-.2-.06-.4-.1-.63a1.13,1.13,0,0,0,0-.18h-9.12v-35h0l-.12,0-.15,0-.11,0-.15.06-.09,0c-.23.1-.49.24-.81.39l-1.38.62-.28.11L216,111c-.22.09-.45.18-.68.25l-.46.16-.82.23-.42.09-.41.08c-.13,0-.27.05-.41.06l-.37.05v32.62H121.91v-40l-.19.11c-1.13.63-2.61.52-3.6,1.35-1.26,1.07-1,3-.61,4.63,0,.14.08.28.11.42a.93.93,0,0,0,0,.13h0a.2.2,0,0,0,0,.1,1.42,1.42,0,0,1,0,.22l0,.18,0,.11v.06a.88.88,0,0,1,0,.16,2.64,2.64,0,0,1,0,.28v0a2.78,2.78,0,0,1-3,2.61v29.56H109.1l.13,1.4h5.65v45.47H104.7c0,.23-.08.47-.14.72s0,.2-.08.31-.08.26-.11.38h10.51v9.51H116l.67,0h.29l1.08-.06.42,0,.27,0,.39,0h.24l.2,0h.08l.57.09.3,0,.17,0,.47.07h.07l.74.09v-9.69H212.4v2.07l.77.6.39.32c.46.38.91.79,1.35,1.21l.36.35.44.46,0,.06c.12.12.23.25.34.37l.23.26.37.48.35.48c.11.17.22.32.31.49a4.86,4.86,0,0,1,.32.6h.67l.06.13a1,1,0,0,1,.07.15,5.91,5.91,0,0,1,.24.61c0,.08.05.16.07.24a1,1,0,0,1,.06.25,1.74,1.74,0,0,0,.05.22l0,.22a1.1,1.1,0,0,1,0,.18v.17a2.35,2.35,0,0,1,0,.53l.46-.1V192.83h9.52Zm-107-1.4V146H212.4v45.46Zm87.07,0H197c.3.12.55.24.76.34,2.49,1.27,7.07.93,10,.5l.53-.08L208,192C208.32,191.78,208.65,191.59,209,191.42Zm-145.33,0q.45.72.93,1.41h39.79c0-.13.07-.26.11-.38l.08-.32c.06-.24.1-.48.14-.72Zm144.16,0H198c2.6,1,6.75.63,9.53.24l.54-.08Zm-144.16,0q.45.72.93,1.41h39.79c0-.13.07-.26.11-.38l.08-.32c.06-.24.1-.48.14-.72Zm165.28,1.4-.07-.09-.08-.07a2.6,2.6,0,0,1-.26-.32l-.12-.2c-.07-.13-.16-.29-.24-.46s0,0,0-.06l-.09-.2h-8.62V146h9.33l0-.16-.06-.44c0-.2-.06-.4-.1-.63a1.13,1.13,0,0,0,0-.18h-9.12v-35h0l-.12,0-.15,0-.11,0-.15.06-.09,0c-.23.1-.49.24-.81.39l-1.38.62-.28.11L216,111c-.22.09-.45.18-.68.25l-.46.16-.82.23-.42.09-.41.08c-.13,0-.27.05-.41.06l-.37.05v32.62H121.91v-40l-.19.11c-1.13.63-2.61.52-3.6,1.35-1.26,1.07-1,3-.61,4.63,0,.14.08.28.11.42a.93.93,0,0,0,0,.13h0a.27.27,0,0,0,0,.1,1.42,1.42,0,0,1,0,.22l0,.18,0,.11a.2.2,0,0,0,0,.11v.11a2.64,2.64,0,0,1,0,.28v0a2.86,2.86,0,0,1-2,2.49,2.89,2.89,0,0,1-1,.12v29.56H109.1l.13,1.4h5.65v45.47H104.7c0,.23-.08.47-.14.72s0,.2-.08.31-.08.26-.11.38h10.51v9.51H116l.67,0h.29l1.08-.06.42,0,.27,0,.39,0h.24l.2,0h.08l.57.09.3,0,.17,0,.47.07h.07l.74.09v-9.69h21.23a15.61,15.61,0,0,1-.9-1.41H121.9V146h90.5v45.46H209c-.32.17-.66.36-1,.57l.34.19h0l1.07.64h3v2.07l.77.6.39.32c.45.39.91.79,1.35,1.21l.36.35c.15.15.29.32.43.46l.06.06c.12.12.23.25.33.37l.23.26.38.48c.12.16.24.32.34.48s.22.32.32.49a5.76,5.76,0,0,1,.32.61h.67l.06.12a1,1,0,0,1,.07.15,5.77,5.77,0,0,1,.23.61,2.25,2.25,0,0,1,.08.24l.06.25a1.74,1.74,0,0,0,.05.22,1.66,1.66,0,0,0,0,.22,1.1,1.1,0,0,1,0,.18v.17a4.68,4.68,0,0,1,0,.53c.15,0,.32-.06.45-.1V192.83h9.53Zm-21.12-1.4H198c2.6,1,6.75.63,9.53.24l.54-.08Zm23.82-45.75c0-.36,0-.73-.07-1.12h-3a1.08,1.08,0,0,0,0,.19c0,.21.06.41.1.63l.06.43,0,.17h2.89Zm-168,45.75c.29.48.6,1,.92,1.41h39.79c0-.13.07-.26.11-.38l.08-.32c.06-.24.1-.48.14-.72Zm165.28,1.4-.08-.09-.07-.07a1.92,1.92,0,0,1-.26-.32l-.12-.2a4.84,4.84,0,0,1-.24-.46s0,0,0-.06a.77.77,0,0,1-.09-.2h-8.63V146h9.33l0-.16-.06-.44c0-.2-.06-.4-.1-.63a1.13,1.13,0,0,0,0-.18h-9.12v-35h0l-.12,0-.15,0-.11,0-.15.06-.09,0c-.23.1-.49.24-.81.39l-1.38.62-.28.11L216,111c-.22.09-.45.18-.68.25l-.46.16-.82.23-.42.09-.41.08c-.13,0-.27.05-.41.06l-.37.05v32.62H121.91v-40l-.19.11c-1.13.63-2.61.52-3.6,1.35-1.26,1.07-1,3-.61,4.63,0,.14.08.28.11.42a.93.93,0,0,0,0,.13h0a.36.36,0,0,0,0,.1,1.42,1.42,0,0,1,0,.22l0,.18,0,.12a.34.34,0,0,0,0,.1.2.2,0,0,1,0,.11,1.43,1.43,0,0,1,0,.29v0a2.75,2.75,0,0,1-3,2.61v29.56H109.1l.13,1.41h5.65v45.46H104.7c0,.23-.08.47-.14.72s0,.2-.08.31-.08.26-.11.38h10.51v9.51H116l.67,0h.29l1.08-.06.42,0,.27,0,.39,0h.24l.2,0h.08l.57.09.3,0,.17,0,.47.07h.07l.74.09v-9.69h21.23a15.61,15.61,0,0,1-.9-1.41H121.9V146h90.5v45.46H209c-.32.17-.66.36-1,.57l.34.19h0l1.07.64h3v2.07l.77.6.39.32c.45.39.91.79,1.35,1.21l.36.35c.15.15.29.32.43.46l.06.06c.12.12.23.25.33.37l.23.26.38.48c.12.16.24.32.34.48s.22.32.32.49a5.76,5.76,0,0,1,.32.61h.67l.06.12a1,1,0,0,1,.07.15,5.77,5.77,0,0,1,.23.61,2.25,2.25,0,0,1,.08.24l.06.25a1.74,1.74,0,0,0,.05.22,1.66,1.66,0,0,0,0,.22,1.1,1.1,0,0,1,0,.18v.17a4.68,4.68,0,0,1,0,.53c.15,0,.32-.06.45-.1V192.83h9.54Zm2.69-47.15c0-.36,0-.73-.06-1.12h-3a1.08,1.08,0,0,0,0,.19c0,.21.06.41.1.63l.06.43,0,.17h2.89Zm-168,45.75q.45.72.93,1.41h39.78c0-.13.07-.26.11-.38l.08-.32c.06-.24.1-.48.14-.72Zm165.28,1.4-.07-.09-.08-.07a2.51,2.51,0,0,1-.25-.32.82.82,0,0,1-.12-.2c-.08-.13-.16-.29-.25-.46a.09.09,0,0,0,0-.06l-.09-.2h-8.63V146h9.33l0-.16-.06-.44c0-.2-.06-.4-.1-.63a1.13,1.13,0,0,0,0-.18h-9.12v-35h0l-.12,0-.15,0-.11,0-.15.06-.09,0c-.23.1-.49.24-.81.39l-1.38.62-.28.11L216,111c-.22.09-.45.18-.68.25l-.46.16-.82.23-.42.09-.41.08c-.13,0-.27.05-.41.06l-.37.05v32.62H121.91v-40l-.19.11c-1.13.63-2.61.52-3.6,1.35-1.26,1.07-1,3-.61,4.63,0,.14.08.28.11.42a.93.93,0,0,0,0,.13h0a.36.36,0,0,0,0,.1,1.42,1.42,0,0,1,0,.22l0,.18,0,.12a.34.34,0,0,0,0,.1.2.2,0,0,1,0,.11,1.43,1.43,0,0,1,0,.29v0a2.75,2.75,0,0,1-3,2.61v29.56H109.1l.13,1.41h5.65v45.46H104.7c0,.23-.08.47-.14.72s0,.2-.08.31-.08.26-.11.38h10.51v9.51H116l.67,0h.29l1.08-.06.42,0,.27,0,.39,0h.24l.2,0h.08l.57.09.3,0,.17,0,.47.07h.07l.74.09v-9.69h21.23a15.61,15.61,0,0,1-.9-1.41H121.9V146h90.5v45.46H209c-.32.17-.66.36-1,.57l.34.19h0l1.07.64h3v2.07l.77.6.39.32c.45.39.91.79,1.35,1.21l.36.35c.15.15.29.32.43.46l.06.06c.12.12.23.25.33.37l.23.26.38.48c.12.16.24.32.34.48s.22.32.32.49a5.76,5.76,0,0,1,.32.61h.67l.06.12a1,1,0,0,1,.07.15,5.77,5.77,0,0,1,.23.61,2.25,2.25,0,0,1,.08.24l.06.25a1.74,1.74,0,0,0,.05.22,1.66,1.66,0,0,0,0,.22,1.1,1.1,0,0,1,0,.18v.17a4.68,4.68,0,0,1,0,.53c.15,0,.32-.06.45-.1V192.83h9.54Zm2.7-47.15c0-.36,0-.73-.06-1.12h-3a1.08,1.08,0,0,0,0,.19c0,.21.06.41.1.63l.06.43,0,.17h2.89Zm-168,45.75q.44.72.93,1.41h39.77c0-.13.07-.26.11-.38l.08-.32c.06-.24.1-.48.14-.72ZM229,192.82l-.07-.09-.08-.07a2.6,2.6,0,0,1-.26-.32l-.12-.2c-.07-.13-.16-.29-.24-.46s0,0,0-.06l-.09-.2h-8.64V146h9.33l0-.16-.06-.44c0-.2-.06-.4-.1-.63a1.13,1.13,0,0,0,0-.18h-9.12v-35h0l-.12,0-.15,0-.11,0-.15.06-.09,0c-.23.1-.49.24-.81.39l-1.38.62-.28.11L216,111c-.22.09-.45.18-.68.25l-.46.16-.82.23-.42.09-.41.08c-.13,0-.27.05-.41.06l-.37.05v32.62H121.91v-40l-.19.11c-1.13.63-2.61.52-3.6,1.35-1.26,1.07-1,3-.61,4.63,0,.14.08.28.11.42a.93.93,0,0,0,0,.13h0a.36.36,0,0,0,0,.1,1.42,1.42,0,0,1,0,.22l0,.18,0,.12a.34.34,0,0,0,0,.1.2.2,0,0,1,0,.11,1.43,1.43,0,0,1,0,.29v0a2.75,2.75,0,0,1-3,2.61v29.56H109.1l.13,1.41h5.65v45.46H104.7c0,.23-.08.47-.14.72s0,.2-.08.31-.08.26-.11.38h10.51v9.51H116l.67,0h.29l1.08-.06.42,0,.27,0,.39,0h.24l.2,0h.08l.57.09.3,0,.17,0,.47.07h.07l.74.09v-9.69h21.23a15.61,15.61,0,0,1-.9-1.41H121.9V146h90.5v45.46H209c-.32.17-.66.36-1,.57l.34.19h0l1.07.64h3v2.07l.77.6.39.32c.45.39.91.79,1.35,1.21l.36.35c.15.15.29.32.43.46l.06.06c.12.12.23.25.33.37l.23.26.38.48c.12.16.24.32.34.48s.22.32.32.49a5.76,5.76,0,0,1,.32.61h.67l.06.12a1,1,0,0,1,.07.15,5.77,5.77,0,0,1,.23.61,2.25,2.25,0,0,1,.08.24l.06.25a1.74,1.74,0,0,0,.05.22,1.66,1.66,0,0,0,0,.22,1.1,1.1,0,0,1,0,.18v.17a4.68,4.68,0,0,1,0,.53c.15,0,.32-.06.45-.1V192.83H229Zm2.7-47.15c0-.36-.05-.73-.07-1.12h-3a1.08,1.08,0,0,0,0,.19c0,.21.06.41.1.63l.06.43,0,.17h2.89Zm-168,45.75c.29.48.6,1,.92,1.41h39.77c0-.13.07-.26.11-.38l.08-.32c.06-.24.1-.48.14-.72ZM229,192.82l-.07-.09-.07-.07a1.92,1.92,0,0,1-.26-.32l-.12-.2a4.84,4.84,0,0,1-.24-.46s0,0,0-.06a1.21,1.21,0,0,1-.1-.2h-8.64V146h9.33l0-.16-.06-.44c0-.2-.06-.4-.1-.63a1.13,1.13,0,0,0,0-.18h-9.12v-35h0l-.12,0-.15,0-.11,0-.15.06-.09,0c-.23.1-.49.24-.81.39l-1.38.62-.28.11L216,111c-.22.09-.45.18-.68.25l-.46.16-.82.23-.42.09-.41.08c-.13,0-.27.05-.41.06l-.37.05v32.62H121.91v-40l-.19.11c-1.13.63-2.61.52-3.6,1.35-1.26,1.07-1,3-.61,4.63,0,.14.08.28.11.42a.93.93,0,0,0,0,.13h0a.36.36,0,0,0,0,.1,1.42,1.42,0,0,1,0,.22l0,.18,0,.12a.34.34,0,0,0,0,.1.2.2,0,0,1,0,.11,1.43,1.43,0,0,1,0,.29v0a2.75,2.75,0,0,1-3,2.61v29.56H109.1l.13,1.41h5.65v45.46H104.7c0,.23-.08.47-.14.72s0,.2-.08.31-.08.26-.11.38h10.51v9.51H116l.67,0h.29l1.08-.06.42,0,.27,0,.39,0h.24l.2,0h.08l.57.09.3,0,.17,0,.47.07h.07l.74.09v-9.69h21.23a15.61,15.61,0,0,1-.9-1.41H121.9V146h90.5v45.46H209c-.32.17-.66.36-1,.57l.34.19h0l1.07.64h3v2.07l.77.6.39.32c.45.39.91.79,1.35,1.21l.36.35c.15.15.29.32.43.46l.06.06c.12.12.23.25.33.37l.23.26.38.48c.12.16.24.32.34.48s.22.32.32.49a5.76,5.76,0,0,1,.32.61h.67l.06.12a1,1,0,0,1,.07.15,5.77,5.77,0,0,1,.23.61,2.25,2.25,0,0,1,.08.24l.06.25a1.74,1.74,0,0,0,.05.22,1.66,1.66,0,0,0,0,.22,1.1,1.1,0,0,1,0,.18v.17a4.68,4.68,0,0,1,0,.53c.15,0,.32-.06.45-.1V192.83H229Zm2.7-47.15c0-.36-.05-.73-.06-1.12h-3.05a1.08,1.08,0,0,0,0,.19c0,.21.06.41.1.63l.06.43,0,.17h2.89Zm-168,45.75q.45.72.93,1.41h39.76c0-.13.07-.26.11-.38l.08-.32c.06-.24.1-.48.14-.72ZM229,192.82l-.07-.09-.08-.07a1.85,1.85,0,0,1-.25-.32,1.37,1.37,0,0,1-.13-.2l-.24-.46s0,0,0-.06l-.09-.2h-8.65V146h9.33l0-.16-.06-.44c0-.2-.06-.4-.1-.63a1.13,1.13,0,0,0,0-.18h-9.12v-35h0l-.12,0-.15,0-.11,0-.15.06-.09,0c-.23.1-.49.24-.81.39l-1.38.62-.28.11L216,111c-.22.09-.45.18-.68.25l-.46.16-.82.23-.42.09-.41.08c-.13,0-.27.05-.41.06l-.37.05v32.62H121.91v-40l-.19.11c-1.13.63-2.61.52-3.6,1.35-1.26,1.07-1,3-.61,4.63,0,.14.08.28.11.42a.93.93,0,0,0,0,.13h0a.36.36,0,0,0,0,.1,1.42,1.42,0,0,1,0,.22l0,.18,0,.12a.34.34,0,0,0,0,.1.2.2,0,0,1,0,.11,1.43,1.43,0,0,1,0,.29v0a2.75,2.75,0,0,1-3,2.61v29.56H109.1l.13,1.41h5.65v45.46H104.7c0,.23-.08.47-.14.72s0,.2-.08.31-.08.26-.11.38h10.51v9.51H116l.67,0h.29l1.08-.06.42,0,.27,0,.39,0h.24l.2,0h.08l.57.09.3,0,.17,0,.47.07h.07l.74.09v-9.69h21.23a15.61,15.61,0,0,1-.9-1.41H121.9V146h90.5v45.46H209c-.32.17-.66.36-1,.57l.34.19h0l1.07.64h3v2.07l.77.6.39.32c.45.39.91.79,1.35,1.21l.36.35c.15.15.29.32.43.46l.06.06c.12.12.23.25.33.37l.23.26.38.48c.12.16.24.32.34.48s.22.32.32.49a5.76,5.76,0,0,1,.32.61h.67l.06.12a1,1,0,0,1,.07.15,5.77,5.77,0,0,1,.23.61,2.25,2.25,0,0,1,.08.24l.06.25a1.74,1.74,0,0,0,.05.22,1.66,1.66,0,0,0,0,.22,1.1,1.1,0,0,1,0,.18v.17a4.68,4.68,0,0,1,0,.53c.15,0,.32-.06.45-.1V192.83H229Zm2.7-47.15c0-.36,0-.73-.07-1.12h-3.05a1.08,1.08,0,0,0,0,.19c0,.21.06.41.1.63l.06.43,0,.17h2.89Zm-168,45.75c.29.48.6,1,.92,1.41h39.76c0-.13.07-.26.11-.38l.08-.32c.06-.24.1-.48.14-.72ZM229,192.82l-.08-.09-.07-.07a2.6,2.6,0,0,1-.26-.32l-.12-.2c-.07-.13-.16-.29-.24-.46s0,0,0-.06l-.09-.2h-8.66V146h9.33l0-.16-.06-.44c0-.2-.06-.4-.1-.63a1.13,1.13,0,0,0,0-.18h-9.12v-35h0l-.12,0-.15,0-.11,0-.15.06-.09,0c-.23.1-.49.24-.81.39l-1.38.62-.28.11L216,111c-.22.09-.45.18-.68.25l-.46.16-.82.23-.42.09-.41.08c-.13,0-.27.05-.41.06l-.37.05v32.62H121.91v-40l-.19.11c-1.13.63-2.61.52-3.6,1.35-1.26,1.07-1,3-.61,4.63,0,.14.08.28.11.42a.93.93,0,0,0,0,.13h0a.36.36,0,0,0,0,.1,1.42,1.42,0,0,1,0,.22l0,.18,0,.12a.34.34,0,0,0,0,.1.2.2,0,0,1,0,.11,1.43,1.43,0,0,1,0,.29v0a2.75,2.75,0,0,1-3,2.61v29.56H109.1l.13,1.41h5.65v45.46H104.7c0,.23-.08.47-.14.72s0,.2-.08.31-.08.26-.11.38h10.51v9.51H116l.67,0h.29l1.08-.06.42,0,.27,0,.39,0h.24l.2,0h.08l.57.09.3,0,.17,0,.47.07h.07l.74.09v-9.69h21.23a15.61,15.61,0,0,1-.9-1.41H121.9V146h90.5v45.46H209c-.32.17-.66.36-1,.57l.34.19h0l1.07.64h3v2.07l.77.6.39.32c.45.39.91.79,1.35,1.21l.36.35c.15.15.29.32.43.46l.06.06c.12.12.23.25.33.37l.23.26.38.48c.12.16.24.32.34.48s.22.32.32.49a5.76,5.76,0,0,1,.32.61h.67l.06.12a1,1,0,0,1,.07.15,5.77,5.77,0,0,1,.23.61,2.25,2.25,0,0,1,.08.24l.06.25a1.74,1.74,0,0,0,.05.22,1.66,1.66,0,0,0,0,.22,1.1,1.1,0,0,1,0,.18v.17a4.68,4.68,0,0,1,0,.53c.15,0,.32-.06.45-.1V192.83H229Zm2.69-47.15c0-.36,0-.73-.06-1.12h-3.06a1.08,1.08,0,0,0,0,.19c0,.21.06.41.1.63l.06.43,0,.17h2.89Zm-168,45.75c.29.48.6,1,.92,1.41h39.75c0-.13.07-.26.11-.38l.08-.32c.06-.24.1-.48.14-.72ZM229,192.82l-.07-.09-.08-.07a2.51,2.51,0,0,1-.25-.32.82.82,0,0,1-.12-.2,4.84,4.84,0,0,1-.24-.46s0,0,0-.06l-.09-.2h-8.66V146h9.33l0-.16-.06-.44c0-.2-.06-.4-.1-.63a1.13,1.13,0,0,0,0-.18h-9.12v-35h0l-.12,0-.15,0-.11,0-.15.06-.09,0c-.23.1-.49.24-.81.39l-1.38.62-.28.11L216,111c-.22.09-.45.18-.68.25l-.46.16-.82.23-.42.09-.41.08c-.13,0-.27.05-.41.06l-.37.05v32.62H121.91v-40l-.19.11c-1.13.63-2.61.52-3.6,1.35-1.26,1.07-1,3-.61,4.63,0,.14.08.28.11.42a.65.65,0,0,1,0,.13h0a.36.36,0,0,0,0,.1,1.42,1.42,0,0,1,0,.22l0,.18,0,.12a.34.34,0,0,0,0,.1.2.2,0,0,1,0,.11,1.43,1.43,0,0,1,0,.29v0a2.75,2.75,0,0,1-3,2.61v29.56H109.1l.13,1.41h5.65v45.46H104.7c0,.23-.08.47-.14.72s0,.2-.08.31-.08.26-.11.38h10.51v9.51H116l.67,0h.29l1.08-.06.42,0,.27,0,.39,0h.24l.2,0h.08l.57.09.3,0,.17,0,.47.07h.07l.74.09v-9.69h21.23a15.61,15.61,0,0,1-.9-1.41H121.9V146h90.5v45.46H209c-.32.17-.66.36-1,.57l.34.19h0l1.07.64h3v2.07l.77.6.39.32c.45.39.91.79,1.35,1.21l.36.35.43.46.06.06c.12.12.23.25.33.37l.23.26.38.48c.12.16.24.32.34.48s.22.32.32.49a5.76,5.76,0,0,1,.32.61h.67l.06.12a1,1,0,0,1,.07.15,5.77,5.77,0,0,1,.23.61,2.25,2.25,0,0,1,.08.24l.06.25a1.74,1.74,0,0,0,.05.22l0,.22a1.1,1.1,0,0,1,0,.18v.17a4.68,4.68,0,0,1,0,.53c.15,0,.32-.06.45-.1V192.83H229Zm2.7-47.15c0-.36,0-.73-.06-1.12h-3.07a1.08,1.08,0,0,0,0,.19c0,.21.06.41.1.63l.06.43,0,.17h2.89Zm82.79-50.33V45.82a59.13,59.13,0,0,0-6.38.32l-.65.07V95.34H221.5l-.21-.26.31-.4h0L223,92.93l1.4-1.75h0L250.23,59a53.18,53.18,0,0,1-8.52-1.23l-22.3,27.76V52.12c-2.34-.45-4.69-1-7-1.52V84L180.47,44.28q-4.66-.08-9.35.19l39.42,49.06,1,1.27.22.27-.22.27H121.91V42.78c-2.33-.49-4.67-1-7-1.33V95.33H58.34c0,.47-.05,1-.1,1.41h56.64v47.81H52.08V112a90.21,90.21,0,0,1-7,8.58v24H26.47c-.2.47-.4.93-.59,1.41H45.06v45.46H22.22c0,.47,0,1,0,1.41H45.06V248a61.51,61.51,0,0,0,7,6.38V192.83h62.8v60.3a39.94,39.94,0,0,1,6.09,0l1,.08V192.83H212.4v53.56c.92,0,1.85.11,2.77.19,1.42.13,2.84.3,4.25.53V192.83h88v43.73c2.42-1.06,4.82-2.12,7-3.34V194.38c-2.43-4.77-4.17-9.65-3.54-14.73a19.35,19.35,0,0,1,3.54-8.75V146h33.63l2.32-1.41H314.46V96.75h75.36c.05-.47.08-.93.11-1.41Zm-7,1.41v47.8h-88V98l.07-.07,1.17-1.21Zm-185.52,0h90.5v47.8H121.91ZM52.08,191.42V146h62.8v45.46Zm69.83,0V146H212.4v45.46Zm97.51,0V146h88v45.46Zm12.21-45.75c0-.36,0-.73-.07-1.12h-3a1.08,1.08,0,0,0,0,.19c0,.21.06.41.1.63l.06.43,0,.17h2.89Zm-2.7,47.15-.07-.09-.08-.07a2.6,2.6,0,0,1-.26-.32l-.12-.2c-.07-.13-.16-.29-.24-.46s0,0,0-.06l-.09-.2h-8.62V146h9.33l0-.16-.06-.44c0-.2-.06-.4-.1-.63a1.13,1.13,0,0,0,0-.18h-9.12v-35h0l-.12,0-.15,0-.11,0-.15.06-.09,0c-.23.1-.49.24-.81.39l-1.38.62-.28.11L216,111c-.22.09-.45.18-.68.25l-.46.16-.82.23-.42.09-.41.08c-.13,0-.27.05-.41.06l-.37.05v32.62H121.91v-40l-.19.11c-1.13.63-2.61.52-3.6,1.35-1.26,1.07-1,3-.61,4.63,0,.14.08.28.11.42a.93.93,0,0,0,0,.13h0a.36.36,0,0,0,0,.1,1.42,1.42,0,0,1,0,.22l0,.18,0,.12a.34.34,0,0,0,0,.1.2.2,0,0,1,0,.11,1.43,1.43,0,0,1,0,.29v0a2.75,2.75,0,0,1-3,2.61v29.56H109.1l.13,1.41h5.65v45.46H104.7c0,.23-.08.47-.14.72s0,.2-.08.31-.08.26-.11.38h10.51v9.51H116l.67,0h.29l1.08-.06.42,0,.27,0,.39,0h.24l.2,0h.08l.57.09.3,0,.17,0,.47.07h.07l.74.09v-9.69h21.23a15.61,15.61,0,0,1-.9-1.41H121.9V146h90.5v45.46H209c-.32.17-.66.36-1,.57l.34.19h0l1.07.64h3v2.07l.77.6.39.32c.45.39.91.79,1.35,1.21l.36.35c.15.15.29.32.43.46l.06.06c.12.12.23.25.33.37l.23.26.38.48c.12.16.24.32.34.48s.22.32.32.49a5.76,5.76,0,0,1,.32.61h.67l.06.12a1,1,0,0,1,.07.15,5.77,5.77,0,0,1,.23.61,2.25,2.25,0,0,1,.08.24l.06.25a1.74,1.74,0,0,0,.05.22,1.66,1.66,0,0,0,0,.22,1.1,1.1,0,0,1,0,.18v.17a4.68,4.68,0,0,1,0,.53c.15,0,.32-.06.45-.1V192.83h9.53Zm-165.28-1.4q.45.72.93,1.41h39.79c0-.13.07-.26.11-.38l.08-.32c.06-.24.1-.48.14-.72Zm168-45.75c0-.36-.05-.73-.06-1.12h-3a1.08,1.08,0,0,0,0,.19c0,.21.06.41.1.63l.06.43,0,.17h2.89Zm-2.7,47.15-.07-.09-.08-.07a2.51,2.51,0,0,1-.25-.32.82.82,0,0,1-.12-.2,4.84,4.84,0,0,1-.24-.46s0,0,0-.06l-.09-.2h-8.61V146h9.33l0-.16-.06-.44c0-.2-.06-.4-.1-.63a1.13,1.13,0,0,0,0-.18h-9.12v-35h0l-.12,0-.15,0-.11,0-.15.06-.09,0c-.23.1-.49.24-.81.39l-1.38.62-.28.11L216,111c-.22.09-.45.18-.68.25l-.46.16-.82.23-.42.09-.41.08c-.13,0-.27.05-.41.06l-.37.05v32.62H121.91v-40l-.19.11c-1.13.63-2.61.52-3.6,1.35-1.26,1.07-1,3-.61,4.63,0,.14.08.28.11.42a.93.93,0,0,0,0,.13h0a.36.36,0,0,0,0,.1,1.42,1.42,0,0,1,0,.22l0,.18,0,.12a.34.34,0,0,0,0,.1.2.2,0,0,1,0,.11,1.43,1.43,0,0,1,0,.29v0a2.75,2.75,0,0,1-3,2.61v29.56H109.1l.13,1.41h5.65v45.46H104.7c0,.23-.08.47-.14.72s0,.2-.08.31-.08.26-.11.38h10.51v9.51H116l.67,0h.29l1.08-.06.42,0,.27,0,.39,0h.24l.2,0h.08l.57.09.3,0,.17,0,.47.07h.07l.74.09v-9.69h21.23a15.61,15.61,0,0,1-.9-1.41H121.9V146h90.5v45.46H209c-.32.17-.66.36-1,.57l.34.19h0l1.07.64h3v2.07l.77.6.39.32c.45.39.91.79,1.35,1.21l.36.35c.15.15.29.32.43.46l.06.06c.12.12.23.25.33.37l.23.26.38.48c.12.16.24.32.34.48s.22.32.32.49a5.76,5.76,0,0,1,.32.61h.67l.06.12a1,1,0,0,1,.07.15,5.77,5.77,0,0,1,.23.61,2.25,2.25,0,0,1,.08.24l.06.25a1.74,1.74,0,0,0,.05.22,1.66,1.66,0,0,0,0,.22,1.1,1.1,0,0,1,0,.18v.17a4.68,4.68,0,0,1,0,.53c.15,0,.32-.06.45-.1V192.83h9.52Zm-165.27-1.4q.45.72.93,1.41h39.79c0-.13.07-.26.11-.38l.08-.32c.06-.24.1-.48.14-.72Zm168-45.75c0-.36-.05-.73-.06-1.12h-3a1.08,1.08,0,0,0,0,.19c0,.21.06.41.1.63l.06.43,0,.17h2.89Zm-2.7,47.15-.07-.09-.08-.07a2.51,2.51,0,0,1-.25-.32.82.82,0,0,1-.12-.2,4.84,4.84,0,0,1-.24-.46s0,0,0-.06l-.09-.2h-8.61V146h9.33l0-.16-.06-.44c0-.2-.06-.4-.1-.63a1.13,1.13,0,0,0,0-.18h-9.12v-35h0l-.12,0-.15,0-.11,0-.15.06-.09,0c-.23.1-.49.24-.81.39l-1.38.62-.28.11L216,111c-.22.09-.45.18-.68.25l-.46.16-.82.23-.42.09-.41.08c-.13,0-.27.05-.41.06l-.37.05v32.62H121.91v-40l-.19.11c-1.13.63-2.61.52-3.6,1.35-1.26,1.07-1,3-.61,4.63,0,.14.08.28.11.42a.93.93,0,0,0,0,.13h0a.36.36,0,0,0,0,.1,1.42,1.42,0,0,1,0,.22l0,.18,0,.12a.34.34,0,0,0,0,.1.2.2,0,0,1,0,.11,1.43,1.43,0,0,1,0,.29v0a2.75,2.75,0,0,1-3,2.61v29.56H109.1l.13,1.41h5.65v45.46H104.7c0,.23-.08.47-.14.72s0,.2-.08.31-.08.26-.11.38h10.51v9.51H116l.67,0h.29l1.08-.06.42,0,.27,0,.39,0h.24l.2,0h.08l.57.09.3,0,.17,0,.47.07h.07l.74.09v-9.69h21.23a15.61,15.61,0,0,1-.9-1.41H121.9V146h90.5v45.46H209c-.32.17-.66.36-1,.57l.34.19h0l1.07.64h3v2.07l.77.6.39.32c.45.39.91.79,1.35,1.21l.36.35c.15.15.29.32.43.46l.06.06c.12.12.23.25.33.37l.23.26.38.48c.12.16.24.32.34.48s.22.32.32.49a5.76,5.76,0,0,1,.32.61h.67l.06.12a1,1,0,0,1,.07.15,5.77,5.77,0,0,1,.23.61,2.25,2.25,0,0,1,.08.24l.06.25a1.74,1.74,0,0,0,.05.22,1.66,1.66,0,0,0,0,.22,1.1,1.1,0,0,1,0,.18v.17a4.68,4.68,0,0,1,0,.53c.15,0,.32-.06.45-.1V192.83h9.52Zm-165.27-1.4q.45.72.93,1.41h39.79c0-.13.07-.26.11-.38l.08-.32c.06-.24.1-.48.14-.72Zm168-45.75c0-.36-.05-.73-.06-1.12h-3a1.08,1.08,0,0,0,0,.19c0,.21.06.41.1.63l.06.43,0,.17h2.89Zm-2.7,47.15-.07-.09-.08-.07a2.51,2.51,0,0,1-.25-.32.82.82,0,0,1-.12-.2,4.84,4.84,0,0,1-.24-.46s0,0,0-.06l-.09-.2h-8.61V146h9.33l0-.16-.06-.44c0-.2-.06-.4-.1-.63a1.13,1.13,0,0,0,0-.18h-9.12v-35h0l-.12,0-.15,0-.11,0-.15.06-.09,0c-.23.1-.49.24-.81.39l-1.38.62-.28.11L216,111c-.22.09-.45.18-.68.25l-.46.16-.82.23-.42.09-.41.08c-.13,0-.27.05-.41.06l-.37.05v32.62H121.91v-40l-.19.11c-1.13.63-2.61.52-3.6,1.35-1.26,1.07-1,3-.61,4.63,0,.14.08.28.11.42a.93.93,0,0,0,0,.13h0a.36.36,0,0,0,0,.1,1.42,1.42,0,0,1,0,.22l0,.18,0,.12a.34.34,0,0,0,0,.1.2.2,0,0,1,0,.11,1.43,1.43,0,0,1,0,.29v0a2.75,2.75,0,0,1-3,2.61v29.56H109.1l.13,1.41h5.65v45.46H104.7c0,.23-.08.47-.14.72s0,.2-.08.31-.08.26-.11.38h10.51v9.51H116l.67,0h.29l1.08-.06.42,0,.27,0,.39,0h.24l.2,0h.08l.57.09.3,0,.17,0,.47.07h.07l.74.09v-9.69h21.23a15.61,15.61,0,0,1-.9-1.41H121.9V146h90.5v45.46H209c-.32.17-.66.36-1,.57l.34.19h0l1.07.64h3v2.07l.77.6.39.32c.45.39.91.79,1.35,1.21l.36.35c.15.15.29.32.43.46l.06.06c.12.12.23.25.33.37l.23.26.38.48c.12.16.24.32.34.48s.22.32.32.49a5.76,5.76,0,0,1,.32.61h.67l.06.12a1,1,0,0,1,.07.15,5.77,5.77,0,0,1,.23.61,2.25,2.25,0,0,1,.08.24l.06.25a1.74,1.74,0,0,0,.05.22,1.66,1.66,0,0,0,0,.22,1.1,1.1,0,0,1,0,.18v.17a4.68,4.68,0,0,1,0,.53c.15,0,.32-.06.45-.1V192.83h9.52Zm-165.27-1.4q.45.72.93,1.41h39.79c0-.13.07-.26.11-.38l.08-.32c.06-.24.1-.48.14-.72Zm168-45.75c0-.36-.05-.73-.06-1.12h-3a1.08,1.08,0,0,0,0,.19c0,.21.06.41.1.63l.06.43,0,.17h2.89Zm-2.7,47.15-.07-.09-.08-.07a2.51,2.51,0,0,1-.25-.32.82.82,0,0,1-.12-.2,4.84,4.84,0,0,1-.24-.46s0,0,0-.06l-.09-.2h-8.61V146h9.33l0-.16-.06-.44c0-.2-.06-.4-.1-.63a1.13,1.13,0,0,0,0-.18h-9.12v-35h0l-.12,0-.15,0-.11,0-.15.06-.09,0c-.23.1-.49.24-.81.39l-1.38.62-.28.11L216,111c-.22.09-.45.18-.68.25l-.46.16-.82.23-.42.09-.41.08c-.13,0-.27.05-.41.06l-.37.05v32.62H121.91v-40l-.19.11c-1.13.63-2.61.52-3.6,1.35-1.26,1.07-1,3-.61,4.63,0,.14.08.28.11.42a.93.93,0,0,0,0,.13h0a.36.36,0,0,0,0,.1,1.42,1.42,0,0,1,0,.22l0,.18,0,.12a.34.34,0,0,0,0,.1.2.2,0,0,1,0,.11,1.43,1.43,0,0,1,0,.29v0a2.75,2.75,0,0,1-3,2.61v29.56H109.1l.13,1.41h5.65v45.46H104.7c0,.23-.08.47-.14.72s0,.2-.08.31-.08.26-.11.38h10.51v9.51H116l.67,0h.29l1.08-.06.42,0,.27,0,.39,0h.24l.2,0h.08l.57.09.3,0,.17,0,.47.07h.07l.74.09v-9.69h21.23a15.61,15.61,0,0,1-.9-1.41H121.9V146h90.5v45.46H209c-.32.17-.66.36-1,.57l.34.19h0l1.07.64h3v2.07l.77.6.39.32c.45.39.91.79,1.35,1.21l.36.35c.15.15.29.32.43.46l.06.06c.12.12.23.25.33.37l.23.26.38.48c.12.16.24.32.34.48s.22.32.32.49a5.76,5.76,0,0,1,.32.61h.67l.06.12a1,1,0,0,1,.07.15,5.77,5.77,0,0,1,.23.61,2.25,2.25,0,0,1,.08.24l.06.25a1.74,1.74,0,0,0,.05.22,1.66,1.66,0,0,0,0,.22,1.1,1.1,0,0,1,0,.18v.17a4.68,4.68,0,0,1,0,.53c.15,0,.32-.06.45-.1V192.83h9.52Zm-165.27-1.4q.45.72.93,1.41h39.79c0-.13.07-.26.11-.38l.08-.32c.06-.24.1-.48.14-.72Zm168-45.75c0-.36-.05-.73-.06-1.12h-3a1.08,1.08,0,0,0,0,.19c0,.21.06.41.1.63l.06.43,0,.17h2.89Zm-2.7,47.15-.07-.09-.08-.07a2.51,2.51,0,0,1-.25-.32.82.82,0,0,1-.12-.2,4.84,4.84,0,0,1-.24-.46s0,0,0-.06l-.09-.2h-8.61V146h9.33l0-.16-.06-.44c0-.2-.06-.4-.1-.63a1.13,1.13,0,0,0,0-.18h-9.12v-35h0l-.12,0-.15,0-.11,0-.15.06-.09,0c-.23.1-.49.24-.81.39l-1.38.62-.28.11L216,111c-.22.09-.45.18-.68.25l-.46.16-.82.23-.42.09-.41.08c-.13,0-.27.05-.41.06l-.37.05v32.62H121.91v-40l-.19.11c-1.13.63-2.61.52-3.6,1.35-1.26,1.07-1,3-.61,4.63,0,.14.08.28.11.42a.93.93,0,0,0,0,.13h0a.36.36,0,0,0,0,.1,1.42,1.42,0,0,1,0,.22l0,.18,0,.12a.34.34,0,0,0,0,.1.2.2,0,0,1,0,.11,1.43,1.43,0,0,1,0,.29v0a2.75,2.75,0,0,1-3,2.61v29.56H109.1l.13,1.41h5.65v45.46H104.7c0,.23-.08.47-.14.72s0,.2-.08.31-.08.26-.11.38h10.51v9.51H116l.67,0h.29l1.08-.06.42,0,.27,0,.39,0h.24l.2,0h.08l.57.09.3,0,.17,0,.47.07h.07l.74.09v-9.69h21.23a15.61,15.61,0,0,1-.9-1.41H121.9V146h90.5v45.46H209c-.32.17-.66.36-1,.57l.34.19h0l1.07.64h3v2.07l.77.6.39.32c.45.39.91.79,1.35,1.21l.36.35c.15.15.29.32.43.46l.06.06c.12.12.23.25.33.37l.23.26.38.48c.12.16.24.32.34.48s.22.32.32.49a5.76,5.76,0,0,1,.32.61h.67l.06.12a1,1,0,0,1,.07.15,5.77,5.77,0,0,1,.23.61,2.25,2.25,0,0,1,.08.24l.06.25a1.74,1.74,0,0,0,.05.22,1.66,1.66,0,0,0,0,.22,1.1,1.1,0,0,1,0,.18v.17a4.68,4.68,0,0,1,0,.53c.15,0,.32-.06.45-.1V192.83h9.52Zm-165.27-1.4q.45.72.93,1.41h39.79c0-.13.07-.26.11-.38l.08-.32c.06-.24.1-.48.14-.72Zm168-45.75c0-.36-.05-.73-.06-1.12h-3a1.08,1.08,0,0,0,0,.19c0,.21.06.41.1.63l.06.43,0,.17h2.89Zm-2.7,47.15-.07-.09-.08-.07a2.51,2.51,0,0,1-.25-.32.82.82,0,0,1-.12-.2,4.84,4.84,0,0,1-.24-.46s0,0,0-.06l-.09-.2h-8.61V146h9.33l0-.16-.06-.44c0-.2-.06-.4-.1-.63a1.13,1.13,0,0,0,0-.18h-9.12v-35h0l-.12,0-.15,0-.11,0-.15.06-.09,0c-.23.1-.49.24-.81.39l-1.38.62-.28.11L216,111c-.22.09-.45.18-.68.25l-.46.16-.82.23-.42.09-.41.08c-.13,0-.27.05-.41.06l-.37.05v32.62H121.91v-40l-.19.11c-1.13.63-2.61.52-3.6,1.35-1.26,1.07-1,3-.61,4.63,0,.14.08.28.11.42a.93.93,0,0,0,0,.13h0a.36.36,0,0,0,0,.1,1.42,1.42,0,0,1,0,.22l0,.18,0,.12a.34.34,0,0,0,0,.1.2.2,0,0,1,0,.11,1.43,1.43,0,0,1,0,.29v0a2.75,2.75,0,0,1-3,2.61v29.56H109.1l.13,1.41h5.65v45.46H104.7c0,.23-.08.47-.14.72s0,.2-.08.31-.08.26-.11.38h10.51v9.51H116l.67,0h.29l1.08-.06.42,0,.27,0,.39,0h.24l.2,0h.08l.57.09.3,0,.17,0,.47.07h.07l.74.09v-9.69h21.23a15.61,15.61,0,0,1-.9-1.41H121.9V146h90.5v45.46H209c-.32.17-.66.36-1,.57l.34.19h0l1.07.64h3v2.07l.77.6.39.32c.45.39.91.79,1.35,1.21l.36.35c.15.15.29.32.43.46l.06.06c.12.12.23.25.33.37l.23.26.38.48c.12.16.24.32.34.48s.22.32.32.49a5.76,5.76,0,0,1,.32.61h.67l.06.12a1,1,0,0,1,.07.15,5.77,5.77,0,0,1,.23.61,2.25,2.25,0,0,1,.08.24l.06.25a1.74,1.74,0,0,0,.05.22,1.66,1.66,0,0,0,0,.22,1.1,1.1,0,0,1,0,.18v.17a4.68,4.68,0,0,1,0,.53c.15,0,.32-.06.45-.1V192.83h9.52Zm-165.27-1.4q.45.72.93,1.41h39.79c0-.13.07-.26.11-.38l.08-.32c.06-.24.1-.48.14-.72Zm168-45.75c0-.36-.05-.73-.06-1.12h-3a1.08,1.08,0,0,0,0,.19c0,.21.06.41.1.63l.06.43,0,.17h2.89Zm-2.7,47.15-.07-.09-.08-.07a2.51,2.51,0,0,1-.25-.32.82.82,0,0,1-.12-.2,4.84,4.84,0,0,1-.24-.46s0,0,0-.06l-.09-.2h-8.61V146h9.33l0-.16-.06-.44c0-.2-.06-.4-.1-.63a1.13,1.13,0,0,0,0-.18h-9.12v-35h0l-.12,0-.15,0-.11,0-.15.06-.09,0c-.23.1-.49.24-.81.39l-1.38.62-.28.11L216,111c-.22.09-.45.18-.68.25l-.46.16-.82.23-.42.09-.41.08c-.13,0-.27.05-.41.06l-.37.05v32.62H121.91v-40l-.19.11c-1.13.63-2.61.52-3.6,1.35-1.26,1.07-1,3-.61,4.63,0,.14.08.28.11.42a.93.93,0,0,0,0,.13h0a.2.2,0,0,0,0,.1,1.42,1.42,0,0,1,0,.22l0,.18,0,.11a.2.2,0,0,0,0,.11v.11a2.64,2.64,0,0,1,0,.28v0a2.86,2.86,0,0,1-2,2.49,2.89,2.89,0,0,1-1,.12v29.56H109.1l.13,1.4h5.65v45.47H104.7c0,.23-.08.47-.14.72s0,.2-.08.31-.08.26-.11.38h10.51v9.51H116l.67,0h.29l1.08-.06.42,0,.27,0,.39,0h.24l.2,0h.08l.57.09.3,0,.17,0,.47.07h.07l.74.09v-9.69h21.23a15.61,15.61,0,0,1-.9-1.41H121.9V146h90.5v45.46H197c.3.12.55.24.76.34,2.49,1.27,7.07.93,10,.5l.53-.08h0l1.07.64h3v2.07l.77.6.39.32c.45.39.91.79,1.35,1.21l.36.35c.15.15.29.32.43.46l.06.06c.12.12.23.25.33.37l.23.26.38.48c.12.16.24.32.34.48s.22.32.32.49a5.76,5.76,0,0,1,.32.61h.67l.06.12a1,1,0,0,1,.07.15,5.77,5.77,0,0,1,.23.61,2.25,2.25,0,0,1,.08.24l.06.25a1.74,1.74,0,0,0,.05.22,1.66,1.66,0,0,0,0,.22,1.1,1.1,0,0,1,0,.18v.17a4.68,4.68,0,0,1,0,.53c.15,0,.32-.06.45-.1V192.83h9.52Zm-165.27-1.4q.45.72.93,1.41h39.79c0-.13.07-.26.11-.38l.08-.32c.06-.24.1-.48.14-.72Zm145.33,0H197c.3.12.55.24.76.34,2.49,1.27,7.07.93,10,.5l.53-.08L208,192C208.32,191.78,208.65,191.59,209,191.42Zm10.45,0V146H232l-.31-.29-.09-.08-.18-.16-.24-.2-.2-.16-.22-.17a3.18,3.18,0,0,0-.35-.26l-.08-.07H219.42v-2.49l-.29.16-.32.2h0l-.06.05-.2.14-.19.14-.57.47-.19.17-.36.33c-.5.46-1,.94-1.47,1.38-.13.11-.26.22-.39.31a8.71,8.71,0,0,1-.83.64l-.36.23-.21.1-.19.1h0a6.79,6.79,0,0,1-1.37.49v44.42H193.59a.8.8,0,0,0,0,.15c.11.42.21.84.32,1.26H212.4v48.73h.29l.32,0,.6,0,.95.11a3.32,3.32,0,0,1,.44.06l.51.07h.07l.84.15.18,0,.41.07.58.12h0l1.41-.05h0l.19,0,.24.06V192.85H247.7c.05-.47.09-.95.14-1.41Zm28.41,0c0,.47-.09,1-.13,1.41h12.14l.83-1.41Zm15,0h-1.26v1.42h1.43Zm-43.45,0V146H232l-.31-.29-.09-.08-.18-.16-.24-.2-.2-.16-.22-.17a3.18,3.18,0,0,0-.35-.26l-.08-.07H219.42v-2.49l-.29.16-.32.2h0l-.06.05-.2.14-.19.14-.57.47-.19.17-.36.33c-.5.46-1,.94-1.47,1.38-.13.11-.26.22-.39.31a8.71,8.71,0,0,1-.83.64l-.36.23-.21.1-.19.1h0a6.79,6.79,0,0,1-1.37.49v44.42H193.59a.8.8,0,0,0,0,.15c.11.42.21.83.32,1.26h18.47v48.73h.29l.31,0,.6,0,.95.11a3.11,3.11,0,0,1,.44.06l.51.07h.07l.84.15.18,0,.41.07.58.12h0l1.41-.05h0l.19,0,.24.06V192.85h29v-.11a.17.17,0,0,0,0-.1c0-.39.08-.77.11-1.16v0Zm29.2,0s0,0,0,0c0,.38-.08.77-.11,1.16v.21h10.91v-.08l.78-1.32Zm14.26,0h-1.27v1.42h1.43Z" transform="translate(-22.02 -39.64)"/><path class="cls-2" d="M323.55,211.81l-9.09-.15-7-.12L293,211.3h-.63l-12.11-.2h0l-24.21-.41L243,210.47l-1.64,0h-.63l-1.23,0h-.65l-6.81-.14-3.9-.06-1.05,0h-.44l-7.15-.12-7-.12-56.6-1h-.77l-21.47-.36-1.35,0h0l-10.29-.17-7-.12-6.34-.1H108l-25-.42h0l-8.3-.17-22.63-.38-2.29,0h0l-4.7-.08-22.85-.38c-.14-2.08-.19-4.17-.19-6.27q0-2.08.06-4.17l23,.51,4.44.09h.08l2.51.06,10.55.23,5.67.12,33.6.73,2.35.05,10.64.23,1.32,0,2.36.05,3.11.07h.23l10.08.22,14.41.31.9,0,34.45.75h.57l30.08.65,4.62.11h1.35l1.06,0,1.32,0h0l5.94.12h.66l1.87,0H230l.74,0,4.12.09,14.71.32h.67l1,0,40.54.88h.61l15.05.32,6.28.13.74.11,5.13.72c.55,1,1.09,2,1.58,2.95A40.68,40.68,0,0,1,323.55,211.81Z" transform="translate(-22.02 -39.64)"/><path class="cls-3" d="M323.55,211.81l-9.09-.15-7-.12L293,211.3h-.63l-12.11-.2h0l-24.21-.41L243,210.47l-1.64,0h-.63l-1.23,0h-.65l-6.81-.14-3.9-.06-1.05,0h-.44l-7.15-.12-7-.12-56.6-1h-.77l-21.47-.36-1.35,0h0l-10.29-.17-7-.12-6.34-.1H108l-25-.42h0l-8.3-.17-22.63-.38-2.29,0h0l-4.7-.08-22.85-.38c-.14-2.08-.19-4.17-.19-6.27l23,.46,4.76.09h.07l2.2,0,13.34.26,7.53.15,12.72.26L98.3,202h0l7.25.14h.15l8,.16h.3l1,0,7,.14h.15l3.64.07,1.24,0,2.26.05h0l20.68.41h.83l61.68,1.22,7,.14,6,.12h.79l4.91.1.91,0h.73l14.82.29h.66l1,0,17.62.35h0l19.29.38h0l5.44.11h.52l15.27.32,7,.14,6.73.13A41.69,41.69,0,0,1,323.55,211.81Z" transform="translate(-22.02 -39.64)"/><path class="cls-4" d="M297.4,241.59l-.57.38c-.4.27-.79.55-1.18.84h0q-.94.74-1.83,1.53c-.35.32-.69.65-1,1s-.54.53-.8.81c-.5.52-1,1.06-1.46,1.61l-.38.43c-.35.43-.7.84-1.05,1.25l-1.33,1.65c-.63.8-1.27,1.59-1.88,2.38-.18.23-.37.45-.54.68-1,1.27-2.07,2.54-3.17,3.71l-27.71.05h-7.63l-.11-.06h0l-.72-.41-.34-.2-2.57-1.49-.21-.12c-1.21-.69-2.4-1.36-3.59-2-.72-.38-1.45-.74-2.18-1.09a62.08,62.08,0,0,0-7.48-3,65,65,0,0,0-10.22-2.46c-1.41-.23-2.83-.4-4.26-.53-.91-.08-1.84-.15-2.77-.19a65.47,65.47,0,0,0-22.21,2.7c-1,.3-1.95.63-2.92,1l-.53.19c0-.16.07-.32.1-.49a8.38,8.38,0,0,1,2.87-3.87c.64-7.76,7.13-13.94,7.13-13.94l15.37-6.66.19-.12a37.45,37.45,0,0,1,7-3.78,3.72,3.72,0,0,1,.65-.19c2.81-.56,5.28-2.81,7.29-4,.88-.54,1-2.47.93-4.49a3.54,3.54,0,0,0,0-.46l-.46,0-.09-.23-.11-.32s0-.1-.05-.15h-.43c-.18-.48-.34-.93-.49-1.36a27.29,27.29,0,0,1-1-3.77.77.77,0,0,1,0-.15,11.17,11.17,0,0,1-.19-1.72,6.27,6.27,0,0,1,.08-1.3,3.39,3.39,0,0,1,.13-.55l-.29,0h0l-.76.06-.24,0-.1.07-4.81.43-.46,0-.24,0a0,0,0,0,0,0,0v0l-.44,0-.24,0a4.54,4.54,0,0,0,.09-.51l-.5,0-.18,0a37.28,37.28,0,0,1-5.07-.07,143.6,143.6,0,0,1-14.56-2s-9,2-15.53-1.08a11.53,11.53,0,0,1-3.28-2.29h0a10.43,10.43,0,0,1-2.19-3.23,7.56,7.56,0,0,1-.48-1.46,4.19,4.19,0,0,1-.12-1.41c.56-6.34,17.66-2.06,21.16-.27.2.1.41.19.62.27,2.59.95,6.74.63,9.52.24l.54-.08a1.83,1.83,0,0,0-.27-.16l-.08-.05a16.62,16.62,0,0,1,4.67-2,11.18,11.18,0,0,1,3.05-.31,16.37,16.37,0,0,1,3.12.27h.07a3.54,3.54,0,0,0,.79-.21,1.83,1.83,0,0,0,1.22-2.22,5.63,5.63,0,0,1,.33-3.14s1.56.42,1.38-1.58h0a6.45,6.45,0,0,0-.25-1.22,5.06,5.06,0,0,1-.17-.67v0a14.81,14.81,0,0,1,.51-6.69l.79-1,0-.13,0-.07-.41-2.19h0l-.11-.52-.22-7.51s-.11-11.76,3.71-13.44l0-.53-.07-.92a9.34,9.34,0,0,1-2.62-1.27,2.46,2.46,0,0,1-.55-.61h0a1,1,0,0,1-.15-.8,1.6,1.6,0,0,1,.51-.79,8.32,8.32,0,0,0,2.47-4.48s.41-.68,1.08-1.74a1.76,1.76,0,0,1,.14-.23c-.7-2.54-1.52-5.13-2.27-7.37l-.21-.61-.12-.38c-.08-.21-.15-.42-.22-.64l-.26.06a16.66,16.66,0,0,1-2.91.26,16,16,0,0,1-16.05-16,16.36,16.36,0,0,1,.39-3.55c.06-.25.12-.5.19-.74s.08-.27.12-.4a2.74,2.74,0,0,0-1.69.21c-.78.35-1.47.93-2.24,1.32a5.25,5.25,0,0,1-2.43.56,5.36,5.36,0,0,1-1.54-.22h0a5.46,5.46,0,0,1-1.79-.89,1.38,1.38,0,0,0,.35,0h.09l.27,0h.07a1.35,1.35,0,0,0,.32-.09h.06l.28-.1.08,0,.31-.13h0l.32-.17.06,0,.26-.17,0,0,.32-.23a7.41,7.41,0,0,0,1-1,19.29,19.29,0,0,0,2.49-4.07l1.9-3.78c.38-.75.78-1.51,1.23-2.22a9,9,0,0,1,1.06-1.4,5.49,5.49,0,0,1,1.17-1,6.05,6.05,0,0,1,2.81-.84c1.56-.11,3.2.14,4.77.09a19.38,19.38,0,0,0,6.21-1.49,17.36,17.36,0,0,1,2.91-1h0a6.56,6.56,0,0,1,1.18-.14,7.56,7.56,0,0,1,3.3.82,13,13,0,0,1,4,3c.17.17.32.36.48.54.38.46.75,1,1.12,1.41s.62.77,1,1.14c1.54,1.76,3.42,3.12,4.93,4.92a8.45,8.45,0,0,1,2.22,6.61v.06h0c0,.16-.07.31-.12.49a.42.42,0,0,1,0,.16,3.37,3.37,0,0,1-.1.34l-.06.18-.12.36a8.31,8.31,0,0,0-.66,2.67,2.8,2.8,0,0,0,0,.41h0a16.23,16.23,0,0,0,1,3.49,6.27,6.27,0,0,1,.3,1.61v.3h0v.29h0a4,4,0,0,1-.07.46h0v.15l-.07.22a.07.07,0,0,1,0,.07l-.08.18,0,.08a1.4,1.4,0,0,1-.1.16.25.25,0,0,1,0,.07l-.17.21a1.14,1.14,0,0,1-.11.11l.46.29.13.08a77.92,77.92,0,0,0,7.79,1.34,7.62,7.62,0,0,1,2.43.89,21.79,21.79,0,0,1,9.88,10.3c1.48,3.17,3.23,6.61,4.16,7.29a10.1,10.1,0,0,1,2.16,2.8c.28.49.53,1,.74,1.41.49,1,.8,1.72.8,1.72s7.29,4.93,6.4,9.75c0,0,1.59,5.39,3.15,7s5.17,14.13,5.17,14.13a9.38,9.38,0,0,1,1.23,4.14c-.11,1.79,1.35,5.6,1.35,5.6s.32,1.59.73,3.17c.13.49.26.95.41,1.41a4.85,4.85,0,0,0,.88,1.9c.9.78.45,2.46.45,2.46a27.54,27.54,0,0,0,1.69,3.7,2.69,2.69,0,0,1,.31,1.31,13.14,13.14,0,0,1-.09,2.17s-.08.63-.13,1.49c-.08,1.39-.08,3.35.47,4.12a3,3,0,0,1,.41,1.33c.27,1.91.05,4.82.83,5.51,1,.9.56,9.08.56,9.08S296,236,297.4,241.59Z" transform="translate(-22.02 -39.64)"/><path class="cls-5" d="M257.15,221.24l-1.07.88-5.15,4.22-1.05.86-4.52,3.72s-12.73,7.41-25.94,13.68c-1.41.67-2.85,1.33-4.25,2-.92-.08-1.85-.15-2.77-.19a65.41,65.41,0,0,0-22.21,2.7,14,14,0,0,1-.07-3c.64-7.71,7.07-13.85,7.07-13.85l15.21-6.6h0l7-3L230,218l3.35.4,6.09.73Z" transform="translate(-22.02 -39.64)"/><path class="cls-6" d="M257.15,221.24l-1.07.88-5.15,4.22-1.05.86-4.52,3.72s-12.73,7.41-25.94,13.68c-1.41.67-2.85,1.33-4.25,2-.92-.08-1.85-.15-2.77-.19a65.41,65.41,0,0,0-22.21,2.7,14,14,0,0,1-.07-3c.64-7.71,7.07-13.85,7.07-13.85l15.21-6.6h0l7-3L230,218l3.35.4,6.09.73Z" transform="translate(-22.02 -39.64)"/><path class="cls-7" d="M243.58,252.17l0,.32-.21,1.52,0,.24v.08l-.08.58-.11.84-.2-.12c-1.21-.68-2.41-1.35-3.6-2-.72-.38-1.45-.75-2.18-1.09a59.42,59.42,0,0,0-7.47-3l.69-1.27,4.25,1.25,6,1.78,1.11.32.88.26Z" transform="translate(-22.02 -39.64)"/><path class="cls-6" d="M243.58,252.17l0,.32-.21,1.52,0,.24v.08l-.08.58-.11.84-.2-.12c-1.21-.68-2.41-1.35-3.6-2-.72-.38-1.45-.75-2.18-1.09a59.42,59.42,0,0,0-7.47-3l.69-1.27,4.25,1.25,6,1.78,1.11.32.88.26Z" transform="translate(-22.02 -39.64)"/><polygon class="cls-8" points="211.99 207.75 220.22 211.09 221.45 214.76 212.99 211.42 211.99 207.75"/><polygon class="cls-6" points="211.99 207.75 220.22 211.09 221.45 214.76 212.99 211.42 211.99 207.75"/><path class="cls-7" d="M287.77,251.09c-.63.79-1.27,1.58-1.88,2.37l-.54.68c-1,1.27-2.07,2.54-3.17,3.71l-.13.14-35,.07h0l-.24-.14-.1-.06h0l-.73-.42-.34-.2-2.57-1.49-.2-.12,0-.76,0-.66h0l0-1.19h0l0-.5.52,0Z" transform="translate(-22.02 -39.64)"/><path class="cls-9" d="M254.48,258h-.34l-3.13,0h-.11l-4.16-.05-.73-.42-.06-2.57v-.67l0-1.14,7.88-.41.33,0,.09,1.43,0,.67.2,3.19Z" transform="translate(-22.02 -39.64)"/><path class="cls-7" d="M254.14,258h0l-3.42,0-4-.05h0l-.72-.42-.34-.2-.06-2.37v-.67l0-1.15,8.24-.44v0l.09,1.42,0,.67.2,3.18Z" transform="translate(-22.02 -39.64)"/><path class="cls-10" d="M254.14,258h0l-3.42,0-4-.05h0l-.72-.42-.34-.2-.06-2.37v-.67l0-1.15,8.24-.44v0l.09,1.42,0,.67.2,3.18Z" transform="translate(-22.02 -39.64)"/><path class="cls-9" d="M243.54,252.48l44.23-1.39c-.63.79-1.27,1.58-1.88,2.37l-.54.68-31.06.58H254l-8,.14h-.32l-2.26,0h-.15a1.35,1.35,0,0,1-.28,0l0-.66h0l.05-1.19h0l0-.5Z" transform="translate(-22.02 -39.64)"/><path class="cls-8" d="M290.52,247.75l-.38.44-1,1.25c-.45.54-.89,1.09-1.33,1.65q-1,1.18-1.89,2.37l-31.65.59h-.31l-8,.15h-.32l-2.22,0h-.1l-.29,0h-.07a1.69,1.69,0,0,1-1.3-1.88l.1-.7.09-.67.06-.38.11-.75,0-.22Z" transform="translate(-22.02 -39.64)"/><path class="cls-7" d="M292.3,243.83l1.51.52c-.35.32-.69.65-1,1s-.53.53-.79.8c-.5.53-1,1.06-1.47,1.61l-.38.44-1,1.25-46.27,1.26h-.57l-.24-.89-1.88-7.23,44.74,1.06h0l2.57.06Z" transform="translate(-22.02 -39.64)"/><path class="cls-5" d="M295.64,242.82c-.64.49-1.24,1-1.83,1.53-.35.32-.69.65-1,1s-.53.53-.79.81c-.5.52-1,1.06-1.47,1.61l-.38.43c-7.7.88-21.27,2.06-33.55,1.32a45.56,45.56,0,0,0-13.77,1.2h0l-.54.14-.43.12c-.41.11-.81.22-1.21.35-.95.28-1.83.59-2.67.91l-.85.33a61.94,61.94,0,0,0-7.47-3,63.92,63.92,0,0,0-10.22-2.46c-1.41-.23-2.83-.4-4.26-.53-.92-.08-1.84-.15-2.77-.19a65.19,65.19,0,0,0-22.21,2.7c-1,.3-2,.63-2.92,1l0-.1a8.17,8.17,0,0,1,2.85-3.84c4.88-4.28,14.19-8.51,14.19-8.51l5-2.1h0l3.12-1.33,7-3,14.85-6.3.16-.07,3.44-1.45L241,222a25.15,25.15,0,0,1,6.69-.84h.86a4.86,4.86,0,0,1,.66,0h.4l1.62.12.57.06h.1l.43.05.53.07.53.08,1.07.17,1.61.32.79.17c.82.18,1.63.38,2.45.6l.76.2.51.15.63.19c1.5.44,3,1,4.47,1.48l.8.3.76.28,0,0c.46.17.91.35,1.36.54,2.56,1,5.07,2.17,7.44,3.36l.82.41.42.22.84.44.82.43.41.22.4.22.4.22c.94.52,1.84,1,2.72,1.55l.74.44.36.21,1.42.87.68.43,1,.63.64.42.31.21.6.4.34.24c.23.15.45.32.66.46l.32.23.1.07.77.57h0l.47.36.47.36c.31.23.59.46.86.68l.38.32.19.16.18.16.32.29.22.22.23.21a10.73,10.73,0,0,1,.79.86l.51.68Z" transform="translate(-22.02 -39.64)"/><path class="cls-11" d="M220.33,202.89a7.63,7.63,0,0,1-2.71.56c-6.44.48-19.43-2-19.43-2s-16.36,3.67-20.81-6.56,16.47-5.12,20.36-3.12c2.49,1.27,7.07.93,10,.51,1.69-.25,2.86-.51,2.86-.51S224.44,200.89,220.33,202.89Z" transform="translate(-22.02 -39.64)"/><path class="cls-12" d="M238.23,184.54l-3.67,17.9-10.89.95-5.46.48C219.55,198.31,208,192,208,192c5.89-3.56,9.34-1.9,10.56-2a.61.61,0,0,0,.24,0c1.16-.17,2.31-.86,2-2.42a5.61,5.61,0,0,1,.32-3.11s2.11.55,1.11-2.78.33-7.35.33-7.35l.78-1,1.23-3.78,5,5.12Z" transform="translate(-22.02 -39.64)"/><path class="cls-6" d="M238.23,184.65l-3.67,17.91-10.89.95-5.46.48c1.34-5.56-10.23-11.91-10.23-11.91,5.89-3.55,9.34-1.9,10.56-2l.24,0c1.16-.17,2.31-.85,2-2.41a5.64,5.64,0,0,1,.32-3.12s2.11.56,1.11-2.78.33-7.34.33-7.34l.78-1,1.24-3.79,5,5.12Z" transform="translate(-22.02 -39.64)"/><path class="cls-9" d="M225.89,202.33q-.81.58-1.56,1.08l-5.45.48c1.33-5.56-10.23-11.9-10.23-11.9,5.89-3.56,9.34-1.9,10.56-2a1,1,0,0,0,.24,0c1.48,1.87,3.35,4,4.44,4.59C225.89,195.55,230.23,199.22,225.89,202.33Z" transform="translate(-22.02 -39.64)"/><path class="cls-9" d="M220.33,202.89a7.63,7.63,0,0,1-2.71.56c.58-4.75-7.72-9.95-9.82-11.18,1.68-.25,2.85-.51,2.85-.51S224.44,200.89,220.33,202.89Z" transform="translate(-22.02 -39.64)"/><path class="cls-12" d="M225.22,202.33c-.54.39-1.06.75-1.55,1.08l-5.46.48C219.55,198.33,208,192,208,192c5.89-3.56,9.34-1.9,10.56-2a.9.9,0,0,0,.24,0c1.49,1.87,3.35,4,4.44,4.59C225.22,195.55,229.56,199.22,225.22,202.33Z" transform="translate(-22.02 -39.64)"/><path class="cls-6" d="M225.22,202.56l-1.55,1.07-5.46.49c1.34-5.57-10.23-11.91-10.23-11.91,5.89-3.56,9.34-1.9,10.56-2a1.57,1.57,0,0,0,.24,0c1.49,1.88,3.35,4,4.44,4.59C225.22,195.77,229.56,199.44,225.22,202.56Z" transform="translate(-22.02 -39.64)"/><path class="cls-11" d="M247.91,126.13S227,155.39,228.67,150.05c1.1-3.52-1.95-13.58-4.16-20.05-1.15-3.36-2.07-5.76-2.07-5.76s12-10.35,11.79-8c-.06.61.84,1.58,2.22,2.66A101.55,101.55,0,0,0,247.91,126.13Z" transform="translate(-22.02 -39.64)"/><path class="cls-9" d="M236.43,118.91A15.92,15.92,0,0,1,224.51,130c-1.15-3.36-2.08-5.76-2.08-5.76s12-10.35,11.8-8C234.17,116.84,235.07,117.8,236.43,118.91Z" transform="translate(-22.02 -39.64)"/><path class="cls-11" d="M237.06,113.79a15.91,15.91,0,1,1-15.9-15.91h0a15.82,15.82,0,0,1,15.9,15.75Z" transform="translate(-22.02 -39.64)"/><path class="cls-9" d="M295.64,242.82c-.64.49-1.24,1-1.83,1.53-.35.32-.69.65-1,1s-.53.53-.79.81a44.48,44.48,0,0,1-7.12-2.49h0a13.32,13.32,0,0,1-4.25-2.73c-2.85-3.13-12.24-11.27-30.74-13.73a87.54,87.54,0,0,0-13.44-.68l-1.88.06-.29-1.7.16-.07,3.44-1.45L241,222a25.13,25.13,0,0,1,6.68-.84h.87a4.86,4.86,0,0,1,.66,0h.4c.54,0,1.07.07,1.61.12l.58.06h.1l.42.06c.18,0,.36,0,.54.06l.53.08c.35,0,.71.11,1.06.18.54.08,1.07.19,1.62.31l.79.17c.81.18,1.63.38,2.45.6l.76.2.51.15.63.19c1.49.44,3,1,4.47,1.48l.79.3.77.28,0,0c.45.17.91.35,1.36.54,2.55,1,5.07,2.17,7.44,3.36l.82.41.42.22.83.44.83.43.41.22.4.22.4.22c.94.52,1.84,1,2.71,1.55l.75.44.36.21,1.41.87.69.43,1,.64.63.41.32.21.6.41.34.23.66.52.32.22.1.07.77.57h0l.48.37.46.35.86.69.38.32.19.16.18.16.32.29.22.21.23.22a10.73,10.73,0,0,1,.79.86c.18.23.36.46.51.68Z" transform="translate(-22.02 -39.64)"/><path class="cls-12" d="M293.86,226.25s1.58,10.21,3,15.72c-.4.27-.79.55-1.18.84h0q-.94.74-1.83,1.53c-.35.32-.69.65-1,1a45.16,45.16,0,0,1-5.35-1.62c-2.89-1.08-5.58-2.43-6.81-3.78-2.81-3.07-11.89-11-29.7-13.58a84.89,84.89,0,0,0-13.89-.84c-.81,0-1.63,0-2.47.07l-.13-.77-1.1-6.38-1-6v0l-.11-.67v0l-.05-.28-.19-1.14-.52-3.06-.24-1.44s0-.17,0-.46v-.42s0-.16,0-.25a.54.54,0,0,1,0-.18l0-.2a.09.09,0,0,1,0-.07c0-.1,0-.21,0-.32v0c0-.2,0-.42-.07-.65s0-.29,0-.44c-.07-.59-.14-1.23-.22-1.9s-.14-1.15-.23-1.73c0-.17,0-.32-.07-.48a1.45,1.45,0,0,0,0-.28h0a1.92,1.92,0,0,0,0-.22c-.05-.31-.1-.6-.15-.89a1.08,1.08,0,0,0,0-.19c0-.15-.06-.32-.09-.45s-.06-.36-.1-.53v0a1,1,0,0,0,0-.22,2.34,2.34,0,0,0-.07-.32q-.06-.28-.12-.54l-.06-.23c0-.12-.07-.24-.1-.36a5.3,5.3,0,0,0-.64-1.58h0a.31.31,0,0,0-.07-.09l-.08-.08a2,2,0,0,1-.25-.32,1,1,0,0,1-.12-.19c-.08-.14-.16-.29-.24-.46a.21.21,0,0,0,0-.07,1.21,1.21,0,0,1-.1-.2c-1.54-3.46-3.48-12.22-3.48-12.22l-1.27-6.1h0l-.12-.67-.39-2v-.24h0l-.22-7.21s-.11-11.68,3.67-13.35l-.11-1.44s-2.94-.88-3.28-2.2a1,1,0,0,1,0-.61h0a1.68,1.68,0,0,1,.46-.63c.05,0,.11-.1.16-.16a8.34,8.34,0,0,0,2.29-4.29s.46-.78,1.21-2c2.33-3.71,7.42-11.44,9.69-12.28a18.28,18.28,0,0,0,5.23-3.12l.51.11h0a76.48,76.48,0,0,0,7.72,1.34,7.52,7.52,0,0,1,2.4.88,21.7,21.7,0,0,1,9.83,10.22c1.47,3.17,3.2,6.57,4.12,7.25a7.28,7.28,0,0,1,1.56,1.85c.3.45.58,1,.83,1.41a29.08,29.08,0,0,1,1.27,2.64s7.23,4.9,6.34,9.68c0,0,1.56,5.34,3.12,6.9s5.11,14,5.11,14a9.31,9.31,0,0,1,1.23,4.12c-.11,1.79,1.33,5.57,1.33,5.57s.23,1.18.57,2.54c.12.46.24.95.38,1.4a6.86,6.86,0,0,0,1.06,2.5c.88.78.44,2.45.44,2.45a28.18,28.18,0,0,0,1.67,3.67,1.76,1.76,0,0,1,.25.74,12.28,12.28,0,0,1,0,2.71s-.05.38-.09,1c-.11,1.35-.2,3.74.43,4.6a2.24,2.24,0,0,1,.31.84c.39,1.8.06,5.19.9,5.94C294.3,218.13,293.86,226.25,293.86,226.25Z" transform="translate(-22.02 -39.64)"/><path class="cls-11" d="M245.13,205.23s-.63,1.49-1.55,3.7c-1.82,4.38-4.76,11.54-6,15.32-1.91,5.67-9.57,9-9.57,9s-15.24,5.23-20.58,1.33,10-12.46,12.79-13,5.23-2.78,7.23-4c.95-.57,1-2.78.9-4.95a43.66,43.66,0,0,0-.67-4.84Z" transform="translate(-22.02 -39.64)"/><path class="cls-9" d="M265.94,152.94s5.78-2.56,8.24,1.45S265.94,152.94,265.94,152.94Z" transform="translate(-22.02 -39.64)"/><path class="cls-9" d="M287.29,204.45s-39.93.33-32.37,5.45,8.68,7.56,17.47,5.11S287.29,204.45,287.29,204.45Z" transform="translate(-22.02 -39.64)"/><path class="cls-9" d="M237.06,113.79a15.76,15.76,0,0,1-2.13,7.95,5,5,0,0,1-1.63-1,7.58,7.58,0,0,1-1.18-2.08,18,18,0,0,0-2.65-4.23c-.75-.89-1.72-1.75-2.82-1.65-1.85.18-3.17,3-4.94,2.42-.54-.18-1.33-3.6-1.64-4.23-.72-1.49-1.12-1.06-2.44-.44-2.5,1.18-5.21,2.22-7.95,1.69a4.2,4.2,0,0,1-2.49-1.32,9.3,9.3,0,0,0-.85-1,1.76,1.76,0,0,0-.51-.3,15.9,15.9,0,0,1,31.23,4.27Z" transform="translate(-22.02 -39.64)"/><path class="cls-13" d="M222,114.82c1.78.6,3.1-2.24,5-2.42,1.09-.11,2.06.76,2.82,1.65a18.5,18.5,0,0,1,2.65,4.22,7.47,7.47,0,0,0,1.17,2.09,5.32,5.32,0,0,0,1.77,1.1l2.41,1.09c1.39.63,3.17,1.18,4.25,0,.86-1,.74-2.54.34-3.81a12.32,12.32,0,0,1-1-3.87c0-1.46.82-2.75,1.08-4.18a8.38,8.38,0,0,0-2.18-6.62c-1.49-1.79-3.35-3.14-4.89-4.88-.87-1-1.63-2.1-2.53-3.07a12.76,12.76,0,0,0-4-2.93,7.51,7.51,0,0,0-3.28-.82,12.51,12.51,0,0,0-4,1.09,19.22,19.22,0,0,1-6.14,1.48c-2.54.08-5.29-.64-7.52.74-1.58,1-2.53,2.83-3.42,4.58l-1.9,3.76a19.61,19.61,0,0,1-2.47,4,5.45,5.45,0,0,1-3.84,2.09,5.38,5.38,0,0,0,5.7.53c.76-.39,1.44-1,2.22-1.31a2.28,2.28,0,0,1,2.4.15,8.22,8.22,0,0,1,.84,1,4.19,4.19,0,0,0,2.5,1.31c2.74.53,5.45-.5,7.95-1.68,1.32-.63,1.72-1,2.44.44C220.71,111.22,221.5,114.64,222,114.82Z" transform="translate(-22.02 -39.64)"/><path class="cls-9" d="M245.13,205.23s-.63,1.49-1.55,3.7c-.75.37-1.54.78-2.29,1.17-2,1.05-3.83,2-3.83,2l-9.12.5a41.42,41.42,0,0,0-.67-4.84Z" transform="translate(-22.02 -39.64)"/><path class="cls-9" d="M260.15,161.28l-2.22,7.79s-2.21,4.67-1.11,9.12-.66,11.24-.66,11.24l-3.46,8.9s-4.34,9.12-5.12,9.12A42.45,42.45,0,0,0,242,210.1c-2,1.05-3.82,2-3.82,2l-10.24.56c-3.38-8.88-1-10.43.63-10.58a3.87,3.87,0,0,1,1.27.12l2.22-14v-8.68s.67-8.34,2.11-11a25.27,25.27,0,0,0,2.11-5.56,21.5,21.5,0,0,1-1.67-4.23,32.35,32.35,0,0,1-.44-3.56s-1.56.22-2-12.46,9-16.13,9-16.13c11.35-3.45,17.91,6.12,22.47,13S260.15,161.28,260.15,161.28Z" transform="translate(-22.02 -39.64)"/><path class="cls-9" d="M258.82,160.62l-2.22,7.78s-2.22,4.68-1.12,9.13-.66,11.23-.66,11.23l-3.45,8.9s-4.34,9.12-5.11,9.12a41.25,41.25,0,0,0-5.63,2.65c-2,1.06-3.83,2-3.83,2l-4.57.24-1-5.92s-.59-7.71-1.65-11.38l1.09-6.86v-8.68s.67-8.34,2.12-11a25.16,25.16,0,0,0,2.11-5.57,20.67,20.67,0,0,1-1.67-4.22,28.6,28.6,0,0,1-.44-3.56s-1.56.22-2-12.46,9-16.13,9-16.13c11.35-3.45,17.92,6.11,22.47,13S258.82,160.62,258.82,160.62Z" transform="translate(-22.02 -39.64)"/><path class="cls-12" d="M259.48,160.62l-2.21,7.78s-2.22,4.68-1.12,9.13-.67,11.23-.67,11.23l-3.44,8.9s-4.34,9.12-5.12,9.12a41.84,41.84,0,0,0-5.63,2.65c-2,1.06-3.83,2-3.83,2l-10.23.55c-3.37-8.87-1-10.43.62-10.58a3.83,3.83,0,0,1,1.26.12l2.22-14v-8.68s.67-8.34,2.11-11a25.69,25.69,0,0,0,2.12-5.57,20.67,20.67,0,0,1-1.67-4.22,30.65,30.65,0,0,1-.45-3.56s-1.55.22-2-12.46,9-16.13,9-16.13c11.35-3.45,17.91,6.11,22.47,13S259.48,160.62,259.48,160.62Z" transform="translate(-22.02 -39.64)"/><path class="cls-9" d="M241.62,209.1c-2,1.05-3.83,2-3.83,2l-10.23.56c-3.38-8.88-1.05-10.43.61-10.58,2.45,1.77,5.64,4.2,5.84,5S238.35,208.2,241.62,209.1Z" transform="translate(-22.02 -39.64)"/><path class="cls-12" d="M241.29,209.43c-2,1.06-3.83,2-3.83,2l-10.24.55c-3.37-8.87-1-10.43.62-10.58,2.45,1.78,5.63,4.2,5.84,5S238,208.53,241.29,209.43Z" transform="translate(-22.02 -39.64)"/><g class="cls-14"><path d="M242.62,120.43c-1.07,1.18-2.86.63-4.26,0l-2.4-1.09a5.17,5.17,0,0,1-1.77-1.1,7.23,7.23,0,0,1-1.17-2.09,18.2,18.2,0,0,0-2.66-4.22c-.75-.89-1.72-1.75-2.82-1.65-1.85.18-3.17,3-4.94,2.43-.54-.19-1.33-3.61-1.63-4.24-.72-1.49-1.13-1.06-2.45-.44-2.49,1.18-5.2,2.22-8,1.68a4.14,4.14,0,0,1-2.49-1.31,8.3,8.3,0,0,0-.85-1,2.26,2.26,0,0,0-2.39-.15c-.78.35-1.46.92-2.22,1.31a5.35,5.35,0,0,1-3.45.48,4.75,4.75,0,0,1-2.81,1.1,5.38,5.38,0,0,0,5.7.54c.76-.4,1.44-1,2.22-1.31a2.26,2.26,0,0,1,2.4.14,7.64,7.64,0,0,1,.84,1,4.24,4.24,0,0,0,2.5,1.31c2.74.52,5.45-.51,7.95-1.69,1.32-.63,1.72-1,2.44.44.32.64,1.09,4.06,1.63,4.24,1.78.6,3.1-2.24,5-2.43,1.09-.1,2.06.76,2.82,1.66a18.5,18.5,0,0,1,2.65,4.22,7.47,7.47,0,0,0,1.17,2.09,5.32,5.32,0,0,0,1.77,1.1l2.41,1.09c1.39.63,3.17,1.18,4.25,0a3.06,3.06,0,0,0,.63-2.22Z" transform="translate(-22.02 -39.64)"/><path d="M242.56,110.26a9.29,9.29,0,0,0-.56,2.13,11.64,11.64,0,0,0,.5-1.72A2.9,2.9,0,0,0,242.56,110.26Z" transform="translate(-22.02 -39.64)"/></g><path class="cls-9" d="M180.06,247.72s-2,5.34-5.9,5.45Z" transform="translate(-22.02 -39.64)"/><path class="cls-15" d="M182.08,237a34.79,34.79,0,0,0-2.53-4.44l-.42-.61h.28a1.35,1.35,0,0,0,1-.32h0c2.47-2.06-2.58-13.94-5.32-14.14-1.88-.14-5.56-.28-8.05-.37l-.68,0c0-.13,0-.26-.08-.4a11.27,11.27,0,0,1-4.69-2.46c-1.56-1.68-3.46-3.69-3.46-3.69A7.41,7.41,0,0,1,155.8,209a1.37,1.37,0,0,1-.39-.86c0-1.08-3.76-4.3-4.7-5.09l-.21-.18s-.34-1.68-1.56-2c-.51-.14-1.12-.93-1.65-1.81a25.82,25.82,0,0,1-1.37-2.67s-1.54-1.8-2.76-3.56a13.59,13.59,0,0,1-.9-1.4,3.89,3.89,0,0,1-.58-1.43c-.11-1.56-1.9-1.68-1.9-1.68a20,20,0,0,1-1.56-3.92c0-.79-2.34-2.35-2.34-2.35l-3.69-4.15s1-2.91-2.56-5.15-4-8.63-4-8.63l-3.14-6.81-.32-.69a2,2,0,0,0,.7-.67,2,2,0,0,0,.2-1.69,7.59,7.59,0,0,0-1.14-2.36l-.09-.13c-.2-.27-.33-.42-.33-.42a1.3,1.3,0,0,0,.34-.32.44.44,0,0,0,.08-.11,1.72,1.72,0,0,0,0-1.77c-.06-.13-.13-.25-.2-.37-1.12-1.79-1.34-6.05-1.34-6.05l-2.68-7.51s-.35-4.54-2.81-7.42a6.5,6.5,0,0,0-2.32-1.77,5.32,5.32,0,0,0-2.15-1.66h0c-.05-.28-.08-.56-.12-.83s0-.45-.08-.68a17.34,17.34,0,0,0,2.39.16,16.35,16.35,0,0,0,2.32-.16,17.5,17.5,0,0,0,7-2.53,17.88,17.88,0,0,0,7.89-10.91h0a18.17,18.17,0,0,0,.5-4.22,17.41,17.41,0,0,0-.37-3.61.86.86,0,0,0-.05-.23c-.09-.44-.2-.87-.33-1.3a2.76,2.76,0,0,1-.08-.27,8.63,8.63,0,0,0,2.53.29,1.54,1.54,0,0,0,.84-.23,1.88,1.88,0,0,0,.49-.75c.15-.37.3-.75.42-1.13l0-.09h0a8.37,8.37,0,0,0,.26-1.1,5.8,5.8,0,0,0,.05-.93,3.93,3.93,0,0,0,0-.48,3.34,3.34,0,0,0-.12-.63.39.39,0,0,1,0,.15,2.35,2.35,0,0,0-.17-.44c-.89-1.86-3.48-2.59-4-4.58-.25-.95,0-2.16-.77-2.8a3.38,3.38,0,0,0-1.16-.49c-1.66-.53-3-1.8-4.39-2.78A8.32,8.32,0,0,0,121.9,83a4.12,4.12,0,0,0-3.38-.13c-.3.14-.57.32-.87.47a5,5,0,0,1-2.78.35c-.63-.06-1.25-.18-1.86-.27-1.55-.24-3.37-.22-4.4.95a9.48,9.48,0,0,1-1.1,1.39c-.86.66-2.08.34-3.14.13s-2.44-.13-2.85.87a8.14,8.14,0,0,0-.22,1,2.81,2.81,0,0,1-1.9,1.74,19.32,19.32,0,0,1-2.63.48,9.78,9.78,0,0,0-3.94,1.67A3.82,3.82,0,0,0,91.56,93a.36.36,0,0,0,0-.11,1.63,1.63,0,0,0-.13.75,1.71,1.71,0,0,0,0,.45,3,3,0,0,0,.1.32,3.91,3.91,0,0,1,.24.68.86.86,0,0,1,0,.28,2,2,0,0,1-.32,1.08,3.45,3.45,0,0,1-.2.32c-.26.35-.55.69-.84,1a4.15,4.15,0,0,0-.67,1l0,0,0,0a2.05,2.05,0,0,0-.16.88,1.33,1.33,0,0,0,.12.68,1.32,1.32,0,0,0,.19.29,5.51,5.51,0,0,0,1,.7,3.91,3.91,0,0,1,1.18,3.1,26.09,26.09,0,0,1-.26,5.07v0c-.1.66-.36,1.89-.45,3.1h0v.55a3.63,3.63,0,0,0,.64,2.44h0a1.24,1.24,0,0,0,1.74.17c-.2.49-.4,1-.61,1.47h0c0,.08-.07.17-.11.25-.25.57-.51,1.13-.77,1.67a8.74,8.74,0,0,0-4.64.49s-.67,5.16-2.91,5.71-10.37,7.4-10.37,7.4L62.55,144.51l-.29.29s-.3.41-.78,1.11c-1.8,2.6-6.21,9.13-7.7,12.68a37.82,37.82,0,0,0-1.67,5.76C50.84,170,49.79,177,49.89,178.08h0c.09,1.35-.48,13.9-.28,18.82a10.5,10.5,0,0,0,.16,1.68,14.22,14.22,0,0,1,.15,2.44c0,1.62,0,3.8-.09,6.17-.2,6.39-.61,13.92-.61,13.92a63.34,63.34,0,0,0,2.9,7.15c.18.31.34.48.44.46.67-.11,2.57,4.6,2.57,4.6s.74,0,2-.11l.38,0c.1.22.2.43.32.65s.21.44.31.67.21.43.32.63c1.29,2.6,2.75,5.09,3.67,5.35,2,.56,7.48,3.36,7.93,4.59s8,2.51,11.22,2.51H82.9v.57a3.23,3.23,0,0,0,3.15,2.95l2.44,0h.11l-.08.55v.12l-.08.55-.66,5.07H88l6.69.11h.71v-.22l1-.28.37-.11c6-1.72,12-3.37,18.12-3.83a39.82,39.82,0,0,1,6.08,0l1,.08c6.54.63,12.89,2.93,19.23,4.87h.77l2,0h.31l6.44.06h.65l.13-5.24v-.68l2.12,0a3.17,3.17,0,0,0,2.47-1.11h0a3.12,3.12,0,0,0,.71-1.43,3.08,3.08,0,0,0,.08-.68v-.47a3.31,3.31,0,0,1-.22,4.15h0a6.78,6.78,0,0,1-1.34,1.16,10.79,10.79,0,0,0-3.3,2.93h0c-.41.7-.16,1-.16,1h18.55c4.51-1.94,8.88-4.42,13.37-6.36l.05,0h0l.32-.13C185.14,248.85,185.75,241.38,182.08,237Zm-75.17-56.34.18-.47.36-.9c0,.06.08.12.11.17l6.67,9.8.59.66-1,.11c-1.2.13-2.43.24-2.94.24a29.78,29.78,0,0,1-4.24-.78l-1.63-.75a8.74,8.74,0,0,0-.3-2h0l-.07-.25,1.93-4.91Zm30.2,30.79c2.74,1.95,6.15,4.17,9.55,6.3l-1.56,0-8.25.2c-3.08-.69-7.61-1.73-8.78-2.16-.57-.21-3-.89-6.16-1.71-2.17-.58-4.66-1.23-7-1.83l-4.8-1.24a.93.93,0,0,0-.2-.38,9.16,9.16,0,0,1-1.32-2.39,15.7,15.7,0,0,1-.69-2.31s-2.85-.32-3.34-1.27c-.15-.27-.08-.6.32-1a2.7,2.7,0,0,0,.69-1h0a3.16,3.16,0,0,0,.17-.52,4.27,4.27,0,0,0,0-1.67h0a4.92,4.92,0,0,0-.3-1,19.53,19.53,0,0,1,3.58,1.19,15.92,15.92,0,0,0,5.9.78c1.49,0,2.88-.08,3.75-.14h.16c.5,0,.79-.08.79-.08s1,.17,2.32.34c.88.11,1.93.21,3,.28.42,0,.84,0,1.26,0l.74.73.2.19c2.13,2.07,4.33,4.1,6.42,5.85,1.23,1,2.43,2,3.55,2.74Z" transform="translate(-22.02 -39.64)"/><polygon class="cls-16" points="110.98 179.16 139.68 178.49 149.69 184.06 151.25 197.07 124.89 189.51 110.98 179.16"/><polygon class="cls-6" points="110.98 179.16 139.68 178.49 149.69 184.06 151.25 197.07 124.89 189.51 110.98 179.16"/><path class="cls-17" d="M116.32,198.77c.33,0,3,3.34,3,3.34s10.12,1.78,12.57-.44-4.8-9.68-4.8-9.68l-6.45.33-5.23,3.11Z" transform="translate(-22.02 -39.64)"/><path class="cls-18" d="M101.52,188.21l4.89,2.21a29.57,29.57,0,0,0,4.23.78c1.11,0,5.78-.55,5.78-.55l4.23,1.67s-3.78,7.11-1.33,9.78c0,0-7.68.78-10.57-.55a26,26,0,0,0-6.79-1.78Z" transform="translate(-22.02 -39.64)"/><path class="cls-6" d="M102.19,188.31l4.89,2.22a29.29,29.29,0,0,0,4.23.78c1.11,0,5.78-.56,5.78-.56l4.23,1.68s-3.78,7.12-1.34,9.79c0,0-7.67.78-10.56-.55a26.23,26.23,0,0,0-6.79-1.79Z" transform="translate(-22.02 -39.64)"/><path class="cls-17" d="M112.75,135.59s-32.25-7.35-26.47-8.35c3.69-.63,7.06-9,9-14.93,1.11-3.38,1.77-6,1.77-6s18.58,8.68,14.35,11.57c-1.63,1.11-1.81,4-1.41,7.08A55.6,55.6,0,0,0,112.75,135.59Z" transform="translate(-22.02 -39.64)"/><path class="cls-7" d="M144.23,250.61l0,.57h0l-.06,1.44,0,.66-.2,4.76v.49h-2.3v-.37l-.44-.13c-6.34-1.94-12.7-4.24-19.23-4.87l-1-.08a39.8,39.8,0,0,0-6.08,0c-6.08.47-12.12,2.11-18.13,3.84l-.37.1-1,.29.08-4.87V251h2.1l17.26-.12,7-.05Z" transform="translate(-22.02 -39.64)"/><path class="cls-9" d="M97.85,249.39l-.23,1.55h0l-.13.92-.09.66h0L96.77,257l-.38.11-1,.28v.21h-.7l-1.37.4H88l.07-.5.66-5.07h0l.09-.67.18-1.32,8.56-.95Z" transform="translate(-22.02 -39.64)"/><path class="cls-7" d="M97.51,249.39v0l-.21,1.51-.13.91-.1.67-.68,4.57-1,.28v.21h-.7l-1.38.4-.31.09h0L87.61,258l.74-5.58.08-.7.07-.56h0l.1-.76Z" transform="translate(-22.02 -39.64)"/><polygon class="cls-9" points="128.78 211.87 128.76 213.1 128.75 213.77 128.75 213.78 128.67 218.48 128.67 218.54 121.89 218.81 120.65 218.86 119.91 218.89 119.57 218.9 119.56 218.54 119.56 218.4 119.39 213.63 119.39 213.62 119.37 212.95 119.32 211.42 119.66 211.44 121.86 211.54 122.19 211.56 128.78 211.87"/><polygon class="cls-7" points="129.11 211.87 129.09 213.11 129.08 213.78 128.96 218.48 128.95 218.99 121.88 218.92 120.83 218.91 120.82 218.91 119.91 218.9 119.91 218.89 119.89 218.64 119.89 218.41 119.73 213.63 119.71 212.96 119.66 211.44 119.66 211.42 122.19 211.54 129.11 211.87"/><path class="cls-10" d="M97.51,249.39v0l-.21,1.51-.13.91-.1.67-.68,4.57-1,.28v.21h-.7l-1.38.4-.31.09h0L87.61,258l.74-5.58.08-.7.07-.56h0l.1-.76Z" transform="translate(-22.02 -39.64)"/><polygon class="cls-10" points="129.11 211.87 129.09 213.11 129.08 213.78 128.96 218.48 128.95 218.99 121.88 218.92 120.83 218.91 120.82 218.91 119.91 218.9 119.91 218.89 119.89 218.64 119.89 218.41 119.73 213.63 119.71 212.96 119.66 211.44 119.66 211.42 122.19 211.54 129.11 211.87"/><path class="cls-9" d="M111.42,117.9c-1.63,1.11-1.81,4-1.41,7.08A17.7,17.7,0,0,1,95.3,112.3c1.11-3.38,1.77-6,1.77-6S115.65,115,111.42,117.9Z" transform="translate(-22.02 -39.64)"/><path class="cls-17" d="M130,106.78a17.69,17.69,0,1,1-.75-5.1A17.68,17.68,0,0,1,130,106.78Z" transform="translate(-22.02 -39.64)"/><path class="cls-9" d="M129.25,101.68a19.14,19.14,0,0,0-4.27-.86,1.4,1.4,0,0,0-1,.24c-.41.35-.35,1-.4,1.53a3.12,3.12,0,0,1-1.58,2.44c-1.14.64-2.62.52-3.6,1.36-1.26,1.07-1,3-.62,4.62a6,6,0,0,1,.32,1.93,2.79,2.79,0,0,1-5,1.56c-.89-1.14-.77-2.74-1-4.16a7.79,7.79,0,0,0-2.19-4.25,4.2,4.2,0,0,0-1.93-1.18,2.21,2.21,0,0,0-2.12.54c-.71.78-.58,2-.67,3a6.71,6.71,0,0,1-2.76,4.82,21,21,0,0,1-5,2.07,2.82,2.82,0,0,0-.49.25,17.69,17.69,0,1,1,32.28-13.91Z" transform="translate(-22.02 -39.64)"/><path class="cls-19" d="M97.12,115a20.58,20.58,0,0,0,5-2.08,6.7,6.7,0,0,0,2.75-4.82c.09-1,0-2.22.69-3a2.23,2.23,0,0,1,2.12-.55,4.2,4.2,0,0,1,1.93,1.18,7.84,7.84,0,0,1,2.2,4.25c.24,1.43.12,3,1,4.17a2.79,2.79,0,0,0,3.91.46,2.75,2.75,0,0,0,1.06-2,6,6,0,0,0-.32-1.92c-.43-1.58-.63-3.56.62-4.62,1-.84,2.46-.74,3.6-1.36a3.15,3.15,0,0,0,1.58-2.44c.05-.55,0-1.18.4-1.53a1.4,1.4,0,0,1,1-.24c2.39,0,4.66,1.34,7,1.21a1.55,1.55,0,0,0,.84-.24,1.67,1.67,0,0,0,.48-.74c.64-1.47,1.14-3.18.44-4.62-.89-1.85-3.48-2.57-4-4.55-.26-1,0-2.15-.78-2.78a3.28,3.28,0,0,0-1.16-.48c-1.65-.53-2.94-1.79-4.37-2.76s-3.31-1.69-4.88-1c-.32.14-.57.32-.87.48-1.41.68-3.07.31-4.62.07s-3.36-.22-4.4.95a9.19,9.19,0,0,1-1.09,1.38c-.86.65-2.07.34-3.13.12s-2.43-.12-2.85.88a7.73,7.73,0,0,0-.23,1,2.77,2.77,0,0,1-1.9,1.72,19.29,19.29,0,0,1-2.61.47,9.86,9.86,0,0,0-3.93,1.66,2.67,2.67,0,0,0-1.41,2.48c.08.35.27.66.34,1,.22,1-.63,1.9-1.31,2.68s-1.27,2-.58,2.78a5.06,5.06,0,0,0,1,.7A3.86,3.86,0,0,1,91.88,106a26,26,0,0,1-.26,5.07c-.22,1.44-1.24,5.57.65,6.42C93.38,118,96,115.42,97.12,115Z" transform="translate(-22.02 -39.64)"/><path class="cls-20" d="M109.3,192.77s-4.12.22-3.78,1.78S109.3,192.77,109.3,192.77Z" transform="translate(-22.02 -39.64)"/><path class="cls-16" d="M183.78,251.41h0l-.05,0c-4.51,1.94-8.87,4.42-13.37,6.36l-1.21.5a35.25,35.25,0,0,1-8.74,2.43,32.28,32.28,0,0,1-9.31-.24c.1-1.23.34-3,.91-3.68h0a13.52,13.52,0,0,1,2.91-2.4,5.55,5.55,0,0,0,1.72-1.69h0a3.11,3.11,0,0,0,.14-3,4.63,4.63,0,0,0-.31-.58,4.94,4.94,0,0,0-.67-.84H101.18s-12.9-.09-18.26-.11H81.16c-3.23,0-10.79-1.22-11.24-2.45s-5.89-4-7.9-4.56c-1-.28-2.61-3.15-4-5.94l-.64-1.32c-.1-.21-.2-.42-.29-.63v0c-.4-.87-.74-1.66-1-2.27l-.14-.32c0-.06,0-.11-.07-.17a.71.71,0,0,0-.08-.18h0l-.07-.18-.18-.43,49.73-19,3.94,1,.6.15,5,1.29,7,1.83c3,.78,5.31,1.42,5.86,1.63,1.15.43,5.7,1.46,8.76,2.14h0l2.91.63s3.93.77,9.07,1.81l1,.2,1.33.27.8.17h0l2.78.57,2,.42c2.15.44,4.29.9,6.27,1.33l1.53.34.59.13.59.13c2.28.51,4.17,1,5.39,1.31a6.61,6.61,0,0,1,1.22.45c2.68,1.21,5,3.75,6.62,6.1a33.42,33.42,0,0,1,2.94,5C185.09,241.77,184.72,248.66,183.78,251.41Z" transform="translate(-22.02 -39.64)"/><path class="cls-9" d="M99.52,223.81s-2.11,9.34-8.68,12.68S99.52,223.81,99.52,223.81Z" transform="translate(-22.02 -39.64)"/><path class="cls-9" d="M113.53,229.59s-7.12,4.12-6.12,7.12Z" transform="translate(-22.02 -39.64)"/><path class="cls-9" d="M177.72,241.38s-2,8.45-6.34,8.56Z" transform="translate(-22.02 -39.64)"/><polygon class="cls-9" points="129.11 211.87 129.08 213.78 122.1 213.67 119.73 213.63 75.05 212.88 73.47 212.86 66.33 212.74 66.59 210.75 75.49 209.75 75.27 211.31 122.22 210.98 122.19 211.54 129.11 211.87"/><path class="cls-8" d="M153.22,252.79l-67.33-1.12a3.2,3.2,0,0,1-3.14-3.13l0-1.49h73.76v2.54a3.2,3.2,0,0,1-3.2,3.2Z" transform="translate(-22.02 -39.64)"/><path class="cls-9" d="M105.19,215.25a24.4,24.4,0,0,0-3.78,3.67c-1.23,1.67-7.91,4.66-7.91,4.66C85,232.41,65.25,234.67,58,235.21c-.22-.44-.43-.88-.64-1.31-1.06-2.28-1.84-4.2-1.84-4.2l49.72-19,3.94,1a8.24,8.24,0,0,0,.74,1.11.87.87,0,0,1,.19.37C110.54,214.67,105.19,215.25,105.19,215.25Z" transform="translate(-22.02 -39.64)"/><path class="cls-18" d="M109.84,211.83c.37,1.5-5,2.07-5,2.07a24.76,24.76,0,0,0-3.79,3.67c-1.22,1.68-7.89,4.68-7.89,4.68-8.58,8.95-28.8,11.15-35.75,11.65C55.91,234,55,234,55,234s-1.9-4.68-2.55-4.56-3.34-7.57-3.34-7.57,1.11-20,.55-22.36.23-18.8.12-20.36,2-14.9,3.89-19.36,8.45-13.67,8.45-13.67l12-12s8.12-6.79,10.34-7.34,2.89-5.67,2.89-5.67c5.34-2.22,11.68,2.44,11.68,2.44,5.56-.11,5,.89,5,.89l3.23.67.08.9,4,43.58-4.76,12-2.27,5.76a9,9,0,0,1-.22,5.9c-1.22,3.11.89,6.78.89,6.78s1.33,2.79-.44,4.44,3,2.22,3,2.22a12.49,12.49,0,0,0,2,4.67A1,1,0,0,1,109.84,211.83Z" transform="translate(-22.02 -39.64)"/><path class="cls-9" d="M86.28,199.11s-2.22,4.23,1.78,4.89,14.35-.44,15.68-.44S86.28,199.11,86.28,199.11Z" transform="translate(-22.02 -39.64)"/><path class="cls-9" d="M85.83,185c.56,1,12.57,11.12,16.69,12.9Z" transform="translate(-22.02 -39.64)"/><path class="cls-9" d="M94.4,177.85s6,10.78,8,12.47.33-6,.33-6Z" transform="translate(-22.02 -39.64)"/><path class="cls-9" d="M77.49,147.16s15.24,9.9,14.58,16.91S77.49,147.16,77.49,147.16Z" transform="translate(-22.02 -39.64)"/><path class="cls-9" d="M59.47,179.08s-3.89,30.82,27,30.26C86.5,209.34,61.25,200,59.47,179.08Z" transform="translate(-22.02 -39.64)"/><path class="cls-17" d="M178.94,232.59c-4.45-.11-17-4.67-17-4.67l.07-.35,2-9.78,2.53.08c2.48.09,6.15.22,8,.36C177.61,218.46,183.39,232.7,178.94,232.59Z" transform="translate(-22.02 -39.64)"/><path class="cls-9" d="M107.39,126l4,43.58-4.76,12c-3.7-5.42-7.88-11.51-9-13.15-2.22-3.11-6.79-18.35-6.79-18.35s-1.33-13.46,7.68-20.58C102.41,126.51,105.33,125.82,107.39,126Z" transform="translate(-22.02 -39.64)"/><path class="cls-9" d="M164.25,224.46a11.11,11.11,0,0,1-3.33,4.12s-5.81-3.37-12.4-7.43C153.45,222.16,159.5,223.4,164.25,224.46Z" transform="translate(-22.02 -39.64)"/><path class="cls-9" d="M162.59,227.93l-.59-.35,2-9.79,2.53.08C167.92,224.19,162.59,227.93,162.59,227.93Z" transform="translate(-22.02 -39.64)"/><path class="cls-18" d="M112.31,127.46s-3.78-5.67-12.79,1.45-7.68,20.58-7.68,20.58,4.56,15.24,6.79,18.36S114,190.21,114,190.21s13.79,15.69,22.8,22,25.14,15.69,25.14,15.69,5.56-3.9,3.9-10.46a11.25,11.25,0,0,1-4.67-2.45c-1.56-1.67-3.46-3.67-3.46-3.67S155,210.24,155,209s-4.9-5.23-4.9-5.23-.33-1.67-1.56-2-3-4.44-3-4.44-4.12-4.78-4.23-6.34-1.9-1.67-1.9-1.67a19.89,19.89,0,0,1-1.56-3.89c0-.78-2.33-2.34-2.33-2.34L131.88,179s1-2.89-2.56-5.11-4-8.56-4-8.56l-3.44-7.45a2,2,0,0,0,.89-2.34,7.81,7.81,0,0,0-1.56-2.89s1.33-.78.22-2.56-1.33-6-1.33-6l-2.67-7.45S116.87,129.47,112.31,127.46Z" transform="translate(-22.02 -39.64)"/><path class="cls-9" d="M121.65,177.3s11.57-3,8.12-.55S121.65,177.3,121.65,177.3Z" transform="translate(-22.02 -39.64)"/><path class="cls-9" d="M120.09,189.87s8.79-1.55,6.79.45S120.09,189.87,120.09,189.87Z" transform="translate(-22.02 -39.64)"/><path class="cls-9" d="M102.74,137.81s11.79,3.12,14.58,9.68Z" transform="translate(-22.02 -39.64)"/><g class="cls-14"><path d="M91.76,104.18a3.86,3.86,0,0,0-1.17-3.07,7.09,7.09,0,0,1-1-.7l0,0a1.52,1.52,0,0,0,.15,1.61,5.46,5.46,0,0,0,1,.69,3,3,0,0,1,1.07,2.08C91.77,104.56,91.77,104.37,91.76,104.18Z" transform="translate(-22.02 -39.64)"/><path d="M91.24,95.51a2.83,2.83,0,0,0,.14.41,1.61,1.61,0,0,0,.09-1,2,2,0,0,0-.13-.41A1.7,1.7,0,0,0,91.24,95.51Z" transform="translate(-22.02 -39.64)"/><path d="M133.65,96.38a9.07,9.07,0,0,1-.74,2.56,1.76,1.76,0,0,1-.48.74,1.55,1.55,0,0,1-.84.24c-2.39.13-4.66-1.19-7-1.21a1.39,1.39,0,0,0-1,.24c-.42.35-.35,1-.4,1.52a3.16,3.16,0,0,1-1.59,2.45c-1.13.63-2.61.52-3.6,1.35s-1.07,2.32-.82,3.68a2.89,2.89,0,0,1,.95-2.12c1-.84,2.46-.73,3.6-1.35a3.15,3.15,0,0,0,1.58-2.45c0-.54,0-1.17.4-1.52a1.35,1.35,0,0,1,1-.24c2.39,0,4.66,1.34,7.05,1.21a1.55,1.55,0,0,0,.84-.24,1.73,1.73,0,0,0,.48-.74A6.5,6.5,0,0,0,133.65,96.38Z" transform="translate(-22.02 -39.64)"/><path d="M115.78,113.32a2.85,2.85,0,0,1-3-.95c-.89-1.14-.77-2.73-1-4.16a7.84,7.84,0,0,0-2.2-4.25,4.2,4.2,0,0,0-1.93-1.18,2.22,2.22,0,0,0-2.11.55c-.71.76-.6,2-.69,3a6.7,6.7,0,0,1-2.75,4.82c-1.49,1-3.34,1.44-5,2.08-1.14.42-3.74,3-4.86,2.44a1.91,1.91,0,0,1-1-1.44c0,1.32.17,2.57,1.12,3,1.12.5,3.72-2,4.86-2.45a21,21,0,0,0,5-2.07,6.69,6.69,0,0,0,2.75-4.82c.09-1,0-2.22.69-3a2.23,2.23,0,0,1,2.12-.54,4.31,4.31,0,0,1,1.93,1.18,7.86,7.86,0,0,1,2.19,4.25c.24,1.43.12,3,1,4.16a2.78,2.78,0,0,0,5-1.56,4.17,4.17,0,0,0-.14-1.27A2.86,2.86,0,0,1,115.78,113.32Z" transform="translate(-22.02 -39.64)"/></g><path class="cls-21" d="M40.32,179a2.94,2.94,0,0,0-.38.75,1.18,1.18,0,0,0-.07.2l-.14,0a1.69,1.69,0,0,0-.63-.06v-.25c0-.91-.09-2.18-1-1.64s-.23,1.38.3,1.93l.14.14c-.49.35-.58,1.16-.66,2a4.85,4.85,0,0,1-1.27,2.3l-.13.15a1.8,1.8,0,0,0-1.4-.36c0-.07,0-.15-.06-.23-.39-1.4-1.19-3.82-2.22-4.35l.14-.17c.43-.57.92-1.42.2-1.63s-.79.73-.75,1.44a1.1,1.1,0,0,0,0,.26,1,1,0,0,0-.75.37l-.11-.14c-.59-.69-1.67-1.79-2-.95s.63,1.78,1.31,2.37l0,0c-.45,1.82,1.51,3.3,2.56,4l.13.08a15.79,15.79,0,0,0-2.34,4.91l4.06.73s2.7-2.32,2.35-4.51h0c2.69-.54,3.3-3.41,2.88-5.11l.05,0a3.07,3.07,0,0,0,1.25-.95A1,1,0,0,0,40.32,179Z" transform="translate(-22.02 -39.64)"/><path class="cls-9" d="M40.32,179a2.94,2.94,0,0,0-.38.75,1.18,1.18,0,0,0-.07.2l-.14,0a1.69,1.69,0,0,0-.63-.06v-.25c0-.91-.09-2.18-1-1.64s-.23,1.38.3,1.93l.14.14c-.49.35-.58,1.16-.66,2a4.85,4.85,0,0,1-1.27,2.3l-.13.15a1.8,1.8,0,0,0-1.4-.36c0-.07,0-.15-.06-.23-.39-1.4-1.19-3.82-2.22-4.35l.14-.17c.43-.57.92-1.42.2-1.63s-.79.73-.75,1.44a1.1,1.1,0,0,0,0,.26,1,1,0,0,0-.75.37l-.11-.14c-.59-.69-1.67-1.79-2-.95s.63,1.78,1.31,2.37l0,0c-.45,1.82,1.51,3.3,2.56,4l.13.08a15.79,15.79,0,0,0-2.34,4.91l4.06.73s2.7-2.32,2.35-4.51h0c2.69-.54,3.3-3.41,2.88-5.11l.05,0a3.07,3.07,0,0,0,1.25-.95A1,1,0,0,0,40.32,179Z" transform="translate(-22.02 -39.64)"/><path class="cls-21" d="M32.23,180.22l-.47,1.38a5.39,5.39,0,0,1-.6-.47c-.67-.59-1.61-1.59-1.31-2.37s1.4.27,2,1C32.08,180,32.23,180.22,32.23,180.22Z" transform="translate(-22.02 -39.64)"/><path class="cls-21" d="M33.24,179.42c-.25.32-.47.55-.47.55a6.2,6.2,0,0,1-.08-.74c0-.71,0-1.65.75-1.44S33.67,178.85,33.24,179.42Z" transform="translate(-22.02 -39.64)"/><path class="cls-21" d="M39.36,179.64a5.55,5.55,0,0,1-.06.82,5.88,5.88,0,0,1-.59-.53c-.54-.55-1.13-1.42-.3-1.93S39.39,178.73,39.36,179.64Z" transform="translate(-22.02 -39.64)"/><path class="cls-21" d="M42.16,180.24a3.07,3.07,0,0,1-1.25.95,2.6,2.6,0,0,1-.42.15l-.55-.79a4.78,4.78,0,0,1,.23-.76,3,3,0,0,1,.4-.75A1,1,0,0,1,42.16,180.24Z" transform="translate(-22.02 -39.64)"/><path class="cls-9" d="M31.84,179.72c.24.28.39.5.39.5l-.47,1.38a5.39,5.39,0,0,1-.6-.47,2.78,2.78,0,0,1,.54-1.23Z" transform="translate(-22.02 -39.64)"/><path class="cls-9" d="M33.24,179.42c-.25.32-.47.55-.47.55a6.2,6.2,0,0,1-.08-.74A1,1,0,0,1,33.24,179.42Z" transform="translate(-22.02 -39.64)"/><path class="cls-21" d="M35.57,184.94l-1.18.52a6.37,6.37,0,0,1-.63-.35c-1.24-.77-3.74-2.69-2.07-5s3.07,1.8,3.62,3.81C35.48,184.53,35.57,184.94,35.57,184.94Z" transform="translate(-22.02 -39.64)"/><path class="cls-9" d="M38.71,179.93a1,1,0,0,1,.65-.29,5.55,5.55,0,0,1-.06.82A5.88,5.88,0,0,1,38.71,179.93Z" transform="translate(-22.02 -39.64)"/><path class="cls-9" d="M40.92,181.18a2.86,2.86,0,0,1-.41.15l-.57-.78a4.78,4.78,0,0,1,.23-.76A2,2,0,0,1,40.92,181.18Z" transform="translate(-22.02 -39.64)"/><path class="cls-21" d="M38,186.32l-.2,0c-4,.6-1.31-1.53-1.31-1.53s.18-.17.43-.44a4.55,4.55,0,0,0,1.26-2.3c.13-1.28.27-2.49,1.79-2.13S41.74,185.57,38,186.32Z" transform="translate(-22.02 -39.64)"/><rect class="cls-22" x="8.33" y="156.54" width="7.57" height="1.99"/><rect class="cls-22" x="7.12" y="150.08" width="9.89" height="6.95"/><rect class="cls-9" x="8.33" y="156.54" width="7.57" height="1.99"/><rect class="cls-9" x="7.12" y="150.08" width="9.89" height="6.95"/><rect class="cls-22" x="8.83" y="156.54" width="7.57" height="1.99"/><path class="cls-9" d="M35.31,183.94c.17.59.26,1,.26,1l-1.18.52a6.37,6.37,0,0,1-.63-.35A3,3,0,0,1,35.31,183.94Z" transform="translate(-22.02 -39.64)"/><path class="cls-9" d="M38,186.32l-.2,0c-4,.6-1.31-1.53-1.31-1.53s.18-.17.43-.44A2.67,2.67,0,0,1,38,186.32Z" transform="translate(-22.02 -39.64)"/><path class="cls-21" d="M31.55,190.1s2.22-7.92,5.33-5.49-1.27,6.22-1.27,6.22Z" transform="translate(-22.02 -39.64)"/><circle class="cls-9" cx="10.65" cy="141.76" r="0.25"/><circle class="cls-9" cx="10.63" cy="142.92" r="0.25"/><circle class="cls-9" cx="17.84" cy="141.99" r="0.25"/><circle class="cls-9" cx="12.04" cy="147.94" r="0.25"/><circle class="cls-9" cx="17.33" cy="143.92" r="0.25"/><circle class="cls-9" cx="14.76" cy="146.49" r="0.25"/><circle class="cls-9" cx="11.5" cy="142.26" r="0.25"/><circle class="cls-9" cx="17.16" cy="142.74" r="0.25"/><circle class="cls-9" cx="16.31" cy="144.66" r="0.25"/><circle class="cls-9" cx="13.7" cy="147.75" r="0.25"/><circle class="cls-9" cx="13.16" cy="146.53" r="0.25"/><circle class="cls-9" cx="11.87" cy="143.77" r="0.25"/><rect class="cls-9" x="8.83" y="156.54" width="7.57" height="0.73"/><rect class="cls-22" x="7.62" y="150.08" width="9.89" height="6.95"/><circle class="cls-9" cx="14.03" cy="148.87" r="0.25"/><circle class="cls-9" cx="12.54" cy="149.19" r="0.25"/><path class="cls-21" d="M328.29,153.08s2.48-7.41,9-4.69c0,0-3,6.63-8.69,5.88Z" transform="translate(-22.02 -39.64)"/><path class="cls-21" d="M327.26,145.65s2.76-7.45,9.29-4.16c0,0-3.8,6.85-9,5.29Z" transform="translate(-22.02 -39.64)"/><path class="cls-21" d="M327,138.82s3.69-7.29,9-6.27c0,0-3.8,7.72-8.76,7.88Z" transform="translate(-22.02 -39.64)"/><path class="cls-21" d="M327.13,132.23s4.15-8.83,8.36-7.45c0,0-3,6.78-8.43,8.91Z" transform="translate(-22.02 -39.64)"/><path class="cls-21" d="M327.84,124.44s3.74-7.31,8.06-7c0,0-2.9,7.31-8.27,9Z" transform="translate(-22.02 -39.64)"/><path class="cls-21" d="M328.42,117.18s4.38-7.23,7.23-7c0,0-2.55,7.39-7.14,8.28Z" transform="translate(-22.02 -39.64)"/><path class="cls-21" d="M329.1,110.43s3.24-8.08,6.17-8.34c0,0-1.44,6.8-6,9Z" transform="translate(-22.02 -39.64)"/><path class="cls-21" d="M329.38,101.51s3.08-6.37,5.53-7c0,0-1.67,7.79-5.25,8.74Z" transform="translate(-22.02 -39.64)"/><path class="cls-21" d="M329.38,95.62l1.39-11.83s2.9,9.54-1.4,14Z" transform="translate(-22.02 -39.64)"/><path class="cls-21" d="M327.87,83.41s-1.75-9.07-2.42-9.66c0,0,5.18,6.5,3.49,13.59Z" transform="translate(-22.02 -39.64)"/><path class="cls-21" d="M328,158.62c-1.56,1.09-3.08,2.22-4.59,3.39-.29.22-.59.45-.88.69a10.08,10.08,0,0,1-2.79-.88C322.63,157.7,326,158,328,158.62Z" transform="translate(-22.02 -39.64)"/><path class="cls-21" d="M328.34,153.26s-4.77-6.2-10.06-1.48c0,0,5,5.27,10.14,2.71Z" transform="translate(-22.02 -39.64)"/><path class="cls-21" d="M327.61,145.51s-4.79-6.34-10.09-1.29c0,0,5.62,5.45,10.11,2.47Z" transform="translate(-22.02 -39.64)"/><path class="cls-21" d="M327.58,138.69s-3.29-7.48-8.63-6.74c0,0,3.39,7.92,8.33,8.34Z" transform="translate(-22.02 -39.64)"/><path class="cls-21" d="M327.26,132.22s-3.05-9.27-7.41-8.41c0,0,2.14,7.09,7.29,9.87Z" transform="translate(-22.02 -39.64)"/><path class="cls-21" d="M328.21,124.05s-3.46-7.45-7.79-7.29c0,0,2.62,7.42,7.92,9.3Z" transform="translate(-22.02 -39.64)"/><path class="cls-21" d="M328.92,117.1s-2.31-8.12-5.13-8.62c0,0,.51,7.79,4.7,9.86Z" transform="translate(-22.02 -39.64)"/><path class="cls-21" d="M329.26,110.29s-2.69-8.28-5.59-8.74c0,0,1,6.87,5.36,9.39Z" transform="translate(-22.02 -39.64)"/><path class="cls-21" d="M329.92,102.08s-1.9-6.81-4.2-7.89c0,0,.26,8,3.63,9.53Z" transform="translate(-22.02 -39.64)"/><path class="cls-21" d="M329.07,95.35l-5-10.84s.17,10,5.61,12.86Z" transform="translate(-22.02 -39.64)"/><path class="cls-21" d="M326.27,84s-6.72-6.34-6.87-7.21c0,0,2.72,7.85,9.61,10.22Z" transform="translate(-22.02 -39.64)"/><path class="cls-21" d="M326.18,81.58s-7.35-9.62-9.57-9.94a14.21,14.21,0,0,1,9.83,9.53Z" transform="translate(-22.02 -39.64)"/><path class="cls-23" d="M329.65,103.3h-.32c.32-12.94-.89-20.8-3.41-22.14l.15-.29C328.74,82.28,330,90,329.65,103.3Z" transform="translate(-22.02 -39.64)"/><path class="cls-23" d="M327.39,134l-.48,0c.08-1.2.19-2.43.31-3.64,1.16-10.57,1.94-20.33,2.12-27.7l.32-.29c-.18,7.38-.81,17.45-2,28C327.57,131.58,327.46,132.81,327.39,134Z" transform="translate(-22.02 -39.64)"/><path class="cls-23" d="M328.75,154.29c.23,1.11.47,2.2.73,3.27l-.63.44c-.27-1.11-.51-2.23-.72-3.38-.12-.65-.24-1.32-.34-2-.3-1.85-.52-3.73-.69-5.63,0-.34-.06-.69-.08-1l-.09-1.22v-.19c-.08-1.44-.13-2.89-.14-4.34,0-1,0-2,0-3s.07-2.15.13-3.22a2,2,0,0,1,0-.42c0-.15,0-.3,0-.45V133l.11.08.11.07.23.16v.23c-.09,1.52-.15,3-.16,4.47a1.5,1.5,0,0,0,0,.3v2.11c0,1.4.08,2.77.18,4.12,0,.2,0,.4,0,.6a1.48,1.48,0,0,0,0,.21l.06.6.06.73v.1c.2,2,.48,4,.82,5.89C328.54,153.22,328.64,153.76,328.75,154.29Z" transform="translate(-22.02 -39.64)"/><path class="cls-21" d="M359.48,138.75l-.72.48c-2.06,1.39-4.15,2.72-6.26,4v.64l-.13-.05,0-.5,0-.53h0v-.18l.24-.37C353.29,141.17,355.84,138,359.48,138.75Z" transform="translate(-22.02 -39.64)"/><path class="cls-21" d="M352.81,135.15s4.23-6.71,9.95-2.15c0,0-5.14,5.91-9.87,3.33Z" transform="translate(-22.02 -39.64)"/><path class="cls-21" d="M353.93,128.41S359,122,364,124.12c0,0-5.31,6.78-10.2,5.91Z" transform="translate(-22.02 -39.64)"/><path class="cls-21" d="M355.44,122s5.88-7.79,9.73-5.57c0,0-4.31,6-10.1,7Z" transform="translate(-22.02 -39.64)"/><path class="cls-21" d="M357.74,114.52s5.17-6.39,9.32-5.16c0,0-4.34,6.56-9.94,7.09Z" transform="translate(-22.02 -39.64)"/><path class="cls-21" d="M359.81,107.53s5.76-6.17,8.5-5.33c0,0-4,6.7-8.68,6.63Z" transform="translate(-22.02 -39.64)"/><path class="cls-21" d="M361.85,101.07s4.84-7.24,7.76-6.88c0,0-2.8,6.34-7.71,7.58Z" transform="translate(-22.02 -39.64)"/><path class="cls-21" d="M364,92.4s4.33-5.59,6.85-5.74c0,0-3.23,7.29-6.94,7.47Z" transform="translate(-22.02 -39.64)"/><path class="cls-21" d="M365.18,86.63,369,75.34s.88,9.93-4.24,13.37Z" transform="translate(-22.02 -39.64)"/><path class="cls-21" d="M366.22,74.38s.15-9.24-.38-9.95c0,0,3.72,7.43.61,14Z" transform="translate(-22.02 -39.64)"/><path class="cls-21" d="M342.07,149.42a8.71,8.71,0,0,1,4-2.23l-3.86,2.33Z" transform="translate(-22.02 -39.64)"/><path class="cls-21" d="M352.3,142.82h0l-.1.62-.08.59-.32.08a6.71,6.71,0,0,1-.9.12c-4.86.37-8.16-4.94-8.16-4.94,4.91-2.81,8.06,1.1,9.13,2.8C352.14,142.51,352.28,142.79,352.3,142.82Z" transform="translate(-22.02 -39.64)"/><path class="cls-21" d="M353.18,135.09s-3.39-7.18-9.61-3.34c0,0,4.38,6.49,9.39,4.5Z" transform="translate(-22.02 -39.64)"/><path class="cls-21" d="M354.55,128.41s-1.68-8-7.05-8.37c0,0,1.69,8.44,6.44,9.87Z" transform="translate(-22.02 -39.64)"/><path class="cls-21" d="M355.59,122s-1.08-9.69-5.52-9.74c0,0,.64,7.37,5.12,11.15Z" transform="translate(-22.02 -39.64)"/><path class="cls-21" d="M358.18,114.21s-1.84-8-6.12-8.71c0,0,1,7.79,5.84,10.72Z" transform="translate(-22.02 -39.64)"/><path class="cls-21" d="M360.31,107.56s-.59-8.43-3.25-9.5c0,0-1.1,7.74,2.58,10.62Z" transform="translate(-22.02 -39.64)"/><path class="cls-21" d="M362,101s-.92-8.66-3.67-9.7c0,0-.46,6.92,3.31,10.3Z" transform="translate(-22.02 -39.64)"/><path class="cls-21" d="M364.38,93.06s-.47-7-2.49-8.58c0,0-1.38,7.85,1.59,10.07Z" transform="translate(-22.02 -39.64)"/><path class="cls-21" d="M364.93,86.3l-2.62-11.63s-1.9,9.79,2.85,13.75Z" transform="translate(-22.02 -39.64)"/><path class="cls-21" d="M364.53,74.6s-5.27-7.58-5.23-8.47c0,0,1,8.24,7.29,12Z" transform="translate(-22.02 -39.64)"/><path class="cls-21" d="M364.93,72.23s-5.22-10.92-7.3-11.69a14.27,14.27,0,0,1,7.66,11.35Z" transform="translate(-22.02 -39.64)"/><path class="cls-23" d="M363.87,94.19l-.32-.08c3-12.59,3.41-20.54,1.21-22.36l.21-.25C367.3,73.45,366.92,81.29,363.87,94.19Z" transform="translate(-22.02 -39.64)"/><path class="cls-23" d="M355.33,123.78l-.47-.13c.32-1.16.69-2.33,1.07-3.48,3.31-10.11,6.08-19.5,7.77-26.67l.38-.23c-1.7,7.19-4.38,16.93-7.69,27C356,121.46,355.65,122.63,355.33,123.78Z" transform="translate(-22.02 -39.64)"/><path class="cls-23" d="M355.52,123.13l-.06.21c-.42,1.47-.79,2.91-1.1,4.34l-.06.32c-.14.63-.27,1.27-.4,1.9a.59.59,0,0,1,0,.14c-.3,1.58-.55,3.13-.75,4.67a1.92,1.92,0,0,1,0,.22h0c-.06.44-.11.88-.16,1.32v.1c-.22,2-.35,4-.41,5.92,0,.32,0,.66,0,1v.63l-.13,0,0-.5-.13.08-.09.59-.31.08v-.44c0-.52,0-1,.06-1.58.09-1.87.26-3.76.48-5.66.09-.74.19-1.5.3-2.24h0c.21-1.5.47-3,.78-4.47.2-1,.41-2,.64-2.94h0c.24-1.06.5-2.1.79-3.13,0-.14.07-.28.11-.41h0l.12-.47,0-.05.1.1.09.09Z" transform="translate(-22.02 -39.64)"/></svg>