<svg id="Layer_1" data-name="Layer 1" xmlns="http://www.w3.org/2000/svg" viewBox="0 0 300.26 251.07"><defs><style>.cls-1{fill:#3f3d56;}.cls-2{opacity:0.1;}.cls-2,.cls-7{isolation:isolate;}.cls-3{fill:#6c63ff;}.cls-4{fill:#ff6584;}.cls-5{fill:#ffb9b9;}.cls-6{fill:#2f2e41;}.cls-7{opacity:0.15;}</style></defs><title>what-7</title><path class="cls-1" d="M255.51,93.57c-15.31-19.45-40.68-31.81-66.33-43.24-74-33-129.92-27-103.13,43.24Z" transform="translate(-53 -31)"/><path class="cls-1" d="M137.32,189.1c12.33,19.8,26.83,34.19,51.86,34.19,26.3,0,49.67-13.42,64.45-34.19Z" transform="translate(-53 -31)"/><path class="cls-2" d="M71.31,127.8a34.88,34.88,0,0,1,9.81-8.68,17,17,0,0,1,12.72-1.78c3.14.93,5.82,3,8.3,5.13,5.08,4.4,9.77,9.43,15.76,12.47s13.89,3.6,19-.78c4-3.47,5.75-9.49,10.56-11.75s10.24.16,15.06,2.24a126.24,126.24,0,0,0,20.21,6.77c4.68,1.13,9.51,2,14.3,1.54s9.61-2.37,12.73-6" transform="translate(-53 -31)"/><path class="cls-2" d="M140,147.37a34.59,34.59,0,0,1,9.82-8.67,16.92,16.92,0,0,1,12.72-1.79c3.14.94,5.82,3,8.3,5.13,5.08,4.4,9.77,9.44,15.76,12.47s13.89,3.61,19-.78c4-3.47,5.75-9.48,10.56-11.75s10.24.17,15.05,2.25A126.31,126.31,0,0,0,251.37,151c4.68,1.14,9.5,2,14.3,1.55s9.6-2.38,12.73-6" transform="translate(-53 -31)"/><path class="cls-1" d="M73.35,125.46a34.59,34.59,0,0,1,9.82-8.67A16.9,16.9,0,0,1,95.88,115c3.15.93,5.83,3,8.31,5.13,5.08,4.4,9.76,9.43,15.76,12.47s13.89,3.61,19-.78c4-3.47,5.75-9.48,10.56-11.75s10.24.17,15,2.25a126.31,126.31,0,0,0,20.22,6.76c4.68,1.13,9.5,2,14.29,1.55s9.61-2.38,12.74-6" transform="translate(-53 -31)"/><path class="cls-1" d="M142.59,144.16a34.78,34.78,0,0,1,9.82-8.68,16.94,16.94,0,0,1,12.71-1.78c3.15.93,5.83,3,8.31,5.13,5.08,4.4,9.77,9.43,15.76,12.47s13.89,3.61,19-.78c4-3.47,5.75-9.48,10.56-11.75s10.24.16,15.05,2.24A125.37,125.37,0,0,0,254,147.78c4.68,1.13,9.5,2,14.3,1.55s9.6-2.38,12.73-6" transform="translate(-53 -31)"/><circle class="cls-2" cx="18.15" cy="75.72" r="6.43"/><circle class="cls-3" cx="20.49" cy="72.79" r="6.43"/><path class="cls-2" d="M270.2,120.84h12.07a42.4,42.4,0,0,0,0-14.39H270.2A25.89,25.89,0,0,1,270.2,120.84Z" transform="translate(-53 -31)"/><path class="cls-3" d="M272,118.5H284a41.89,41.89,0,0,0,0-14.39H272A25.89,25.89,0,0,1,272,118.5Z" transform="translate(-53 -31)"/><path class="cls-3" d="M83.44,212.21A148.7,148.7,0,0,1,90,270.79,148.71,148.71,0,0,1,60.11,220a148.7,148.7,0,0,1-6.51-58.58A148.71,148.71,0,0,1,83.44,212.21Z" transform="translate(-53 -31)"/><path class="cls-3" d="M96.46,212.21A148.92,148.92,0,0,0,90,270.79,148.71,148.71,0,0,0,119.79,220a148.7,148.7,0,0,0,6.51-58.58A148.71,148.71,0,0,0,96.46,212.21Z" transform="translate(-53 -31)"/><path class="cls-1" d="M100.51,212.54a148.79,148.79,0,0,1-11.07,57.89,148.84,148.84,0,0,1-13.51-57.37A148.79,148.79,0,0,1,87,155.17,148.63,148.63,0,0,1,100.51,212.54Z" transform="translate(-53 -31)"/><ellipse class="cls-1" cx="36.43" cy="239.79" rx="28.39" ry="1.56"/><circle class="cls-3" cx="35.22" cy="153.41" r="3.12"/><circle class="cls-3" cx="29.16" cy="178.34" r="1.73"/><circle class="cls-1" cx="8.04" cy="161.2" r="1.73"/><circle class="cls-1" cx="69.15" cy="144.41" r="1.73"/><circle class="cls-1" cx="17.05" cy="177.47" r="1.73"/><circle class="cls-1" cx="53.4" cy="167.43" r="1.73"/><circle class="cls-1" cx="18.08" cy="202.92" r="1.73"/><circle class="cls-1" cx="55.13" cy="193.05" r="1.73"/><circle class="cls-3" cx="38.34" cy="194.78" r="1.73"/><path class="cls-2" d="M252.28,129H240.21a42.4,42.4,0,0,1,0-14.39h12.07A25.89,25.89,0,0,0,252.28,129Z" transform="translate(-53 -31)"/><path class="cls-4" d="M254,127.21H242a42.4,42.4,0,0,1,0-14.39H254A25.89,25.89,0,0,0,254,127.21Z" transform="translate(-53 -31)"/><polygon class="cls-5" points="284.37 227.28 286.9 235.33 279.08 236.02 279.77 227.28 284.37 227.28"/><polygon class="cls-5" points="246.42 233.49 246.42 244.53 237.46 244.53 239.99 233.49 246.42 233.49"/><path class="cls-6" d="M331.39,184.24l3.68,34.95s4.6,30.81,3.68,35.64.23,5.52.23,5.52h-6.9s.23-3-1.15-4.37-.69-5.52-.69-5.52l-17.48-53.35L302.87,227s-1.61,32.88-1.84,33.34-.92,6.67-.92,6.67h-8.5s1.15-3.68-.46-4.83-3-.23-1.61-2.3,1.84-4.6,1.38-5.75-.46-5.75-.46-5.75.69-62.09,4.6-64.15S331.39,184.24,331.39,184.24Z" transform="translate(-53 -31)"/><path class="cls-6" d="M297,269.68a27.69,27.69,0,0,1,3.94-.4c0,.2,4.71,13,0,12.78s-22.61-2.75-21.43-7.47,7.07-3.34,7.07-3.34l5.31-2.95Z" transform="translate(-53 -31)"/><path class="cls-6" d="M335.71,265.61a27.55,27.55,0,0,0-3.93-.4c0,.2-4.72,13,0,12.78s22.6-2.75,21.42-7.47-7.07-3.34-7.07-3.34l-5.31-2.95Z" transform="translate(-53 -31)"/><path class="cls-3" d="M318.25,215.37H303.88a50.27,50.27,0,0,1,0-17.13h14.37A30.89,30.89,0,0,0,318.25,215.37Z" transform="translate(-53 -31)"/><circle class="cls-5" cx="259.47" cy="78.5" r="9.05"/><path class="cls-5" d="M319.66,108.35s1.61,16.1,3.68,17.25-15.87,2.3-15.87,2.3,4.37-14.72,3-16.1S319.66,108.35,319.66,108.35Z" transform="translate(-53 -31)"/><path class="cls-1" d="M300.34,125.14s6.44-6.21,13.8-5.06,12.65,2.53,12.65,2.53,11.27,6,11.5,10.81-4.14,23-4.14,23-2.07,29.66-2.3,29.66L293,185.62,300.11,147Z" transform="translate(-53 -31)"/><path class="cls-5" d="M301.85,180.47c1.49.4,4.06-.15,6.74-1a83.76,83.76,0,0,0,9.92-4.17s16.56-6.67,21.39-10.12,1.61-17.25,1.61-17.25l-7.36,2.3.46,8.51-18.17,11.73a41,41,0,0,0-8.41,1.69c-3.06,1-6,2.57-7.1,5a4.73,4.73,0,0,0-.36,1.16A1.7,1.7,0,0,0,301.85,180.47Z" transform="translate(-53 -31)"/><path class="cls-7" d="M300.93,177.1c.32,1.2.63,2.33.92,3.37,1.49.4,4.06-.15,6.74-1l-.56-7.31C305,173.13,302,174.7,300.93,177.1Z" transform="translate(-53 -31)"/><path class="cls-5" d="M304.25,143.53l1.38,12.19,2.29,30.07s12.66,15.23,5.53,15.69-11-14.95-11-14.95-7.12-24.37-6.89-29.43,0-13.57,0-13.57Z" transform="translate(-53 -31)"/><path class="cls-6" d="M302.25,108.49a2.28,2.28,0,0,1-.65-.4,1.91,1.91,0,0,1-.2-1.94,3.85,3.85,0,0,0,.38-2c-.07-.32-.24-.6-.29-.92a1.92,1.92,0,0,1,1.15-1.81c.66-.38,1.43-.56,2.06-1,1-.66,1.5-1.83,2.48-2.47a6,6,0,0,1,3.32-.64h3.41c1.79,0,3.75.07,5.08,1.26.4.37.72.82,1.13,1.17a24,24,0,0,0,2.85,1.61,5,5,0,0,1,2.2,4.16c0,1.52-.77,3-.58,4.49.13,1,.67,2,.53,3a3.49,3.49,0,0,1-2.39,2.48c-1.12.44-2.35.6-3.44,1.11-.89.42-1.82,1.08-2.77.79a2.77,2.77,0,0,1-1.51-1.87,14.43,14.43,0,0,1-.73-2.82,4.8,4.8,0,0,0-.62-2.08,2.4,2.4,0,0,0-2.13-.92c-1.85.16-2.89,3.3-4.58,2.56-.84-.37-1.49-1.47-2.16-2.07A10.81,10.81,0,0,0,302.25,108.49Z" transform="translate(-53 -31)"/><path class="cls-1" d="M335.53,131.35s4.6,1.61,6.44,8a27.52,27.52,0,0,1,1.15,10.81l-9.66,1.61Z" transform="translate(-53 -31)"/><path class="cls-1" d="M304.94,124.68s-8.28-1.84-9.42,6a123.75,123.75,0,0,0-1.15,15.86s7.81-3.68,11.26,0Z" transform="translate(-53 -31)"/></svg>