<svg id="Layer_1" data-name="Layer 1" xmlns="http://www.w3.org/2000/svg" xmlns:xlink="http://www.w3.org/1999/xlink" viewBox="0 0 251 219.12"><defs><style>.cls-1,.cls-2{fill:#6c63ff;}.cls-1,.cls-4{opacity:0.2;}.cls-1,.cls-14,.cls-4,.cls-8{isolation:isolate;}.cls-14,.cls-3{fill:none;stroke-miterlimit:10;}.cls-3{stroke:#535461;stroke-width:2px;}.cls-4{fill:#f5f5f5;}.cls-5{fill:url(#linear-gradient);}.cls-6{fill:#e14b5a;}.cls-7{fill:#f7c4a7;}.cls-10,.cls-14,.cls-8{opacity:0.1;}.cls-9{fill:#575988;}.cls-11{fill:#632652;}.cls-12{fill:#535461;}.cls-13{fill:#fff;}.cls-14{stroke:#000;}.cls-15{fill:#6a5c99;}.cls-16{fill:#ffd037;}.cls-17{fill:#d6d6e3;}</style><linearGradient id="linear-gradient" x1="351.1" y1="30.5" x2="351.1" y2="181.54" gradientTransform="matrix(1, 0, 0, -1, -149.42, 245.5)" gradientUnits="userSpaceOnUse"><stop offset="0" stop-color="gray" stop-opacity="0.25"/><stop offset="0.54" stop-color="gray" stop-opacity="0.12"/><stop offset="1" stop-color="gray" stop-opacity="0.1"/></linearGradient></defs><title>what-6</title><rect class="cls-1" x="212.77" y="78.8" width="14.48" height="7.52"/><rect class="cls-1" x="213.89" y="87.98" width="14.48" height="7.52"/><rect class="cls-1" x="201.91" y="24.22" width="14.48" height="7.52"/><rect class="cls-1" x="212.22" y="32.85" width="14.48" height="7.52"/><rect class="cls-1" x="184.37" y="24.78" width="14.48" height="7.52"/><rect class="cls-1" x="230.87" y="41.49" width="14.48" height="7.52"/><rect class="cls-1" x="213.33" y="42.04" width="14.48" height="7.52"/><rect class="cls-1" x="194.68" y="33.41" width="14.48" height="7.52"/><rect class="cls-1" x="230.04" y="99.4" width="14.48" height="7.52"/><rect class="cls-1" x="212.49" y="99.96" width="14.48" height="7.52"/><path class="cls-2" d="M109.56,127.72s20.4,20.41,8.88,50.68S138.19,259,138.19,259l-1-.16C95.32,251.48,74.5,203.55,97.81,168,106.47,154.71,113.58,139.18,109.56,127.72Z" transform="translate(-73 -50.88)"/><path class="cls-3" d="M109.56,127.72s11.51,25,0,45.42-2,77.68,28.63,85.9" transform="translate(-73 -50.88)"/><path class="cls-2" d="M73.21,210.25s23.29-3.7,25.41,17.16,44.77,23.77,44.77,23.77l-.8.53c-35.21,23.11-68.88,14.72-63.8-16C80.67,224.32,80.52,212.86,73.21,210.25Z" transform="translate(-73 -50.88)"/><path class="cls-4" d="M73.21,210.25s23.29-3.7,25.41,17.16,44.77,23.77,44.77,23.77l-.8.53c-35.21,23.11-68.88,14.72-63.8-16C80.67,224.32,80.52,212.86,73.21,210.25Z" transform="translate(-73 -50.88)"/><path class="cls-3" d="M73.21,210.25s18.07,4,16.59,20.41,26.84,36.14,53.59,20.52" transform="translate(-73 -50.88)"/><rect class="cls-1" x="0.33" y="79.07" width="14.48" height="7.52"/><rect class="cls-1" x="10.63" y="87.71" width="14.48" height="7.52"/><rect class="cls-1" x="88.87" width="14.48" height="7.52"/><rect class="cls-1" x="203.03" y="138.66" width="14.48" height="7.52"/><rect class="cls-1" x="11.75" y="96.89" width="14.48" height="7.52"/><rect class="cls-1" x="99.17" y="8.63" width="14.48" height="7.52"/><rect class="cls-1" x="46.27" y="59.58" width="14.48" height="7.52"/><rect class="cls-1" x="56.57" y="68.22" width="14.48" height="7.52"/><rect class="cls-1" x="84.14" y="63.48" width="14.48" height="7.52"/><rect class="cls-1" x="57.69" y="77.4" width="14.48" height="7.52"/><rect class="cls-1" x="222.52" y="138.66" width="14.48" height="7.52"/><path class="cls-5" d="M273.8,159.77A114.48,114.48,0,0,1,272.08,144h0a21.15,21.15,0,0,0-14.88-19.31c-1.52-.47-3.2-.91-5-1.3-16.2-3.44-21.12-.44-21.68,0a20.94,20.94,0,0,1-1.24-2.68c0-.09,0-.19-.08-.28a20.77,20.77,0,0,0,5.55-12.5A13.67,13.67,0,0,0,239,98.26a13.18,13.18,0,0,0-3.22-8.42V85a21,21,0,0,0-21-21H213A21,21,0,0,0,192,85h0v5.22a13.09,13.09,0,0,0-2.91,8,13.6,13.6,0,0,0,4.12,9.43,20.77,20.77,0,0,0,5.77,12.9c.12.8.24,1.64.35,2.54l-29,6.12s-11.18.46-18.38,15.32c-6.09,12.58-18.21,44.91-21.8,54.53h0c-.65,1.74-1,2.74-1,2.74l.34-.33-.34.94s.17-.18.51-.47c-.51,4-.58,10.94,4.69,11.8,4.42.72,15.82,1,24.42,1.14h.6c5.7.08,10,.08,10,.08v-.08H262V214a6.31,6.31,0,0,0-.5-2.5l.12-.16a5,5,0,0,1,1,2.23,1.85,1.85,0,0,1,0,.23l.06-.14a2.36,2.36,0,0,1-.06.75s11.87-30.59,11.75-48.86A31.62,31.62,0,0,0,273.8,159.77Zm-74-32.5a21.52,21.52,0,0,1-.29-2.64v0C199.59,125.46,199.69,126.35,199.78,127.27ZM163.8,193v7.29l-4.56,1Z" transform="translate(-73 -50.88)"/><path class="cls-6" d="M213.4,66.91h0a21,21,0,0,1,21,21v9H192.36V88A21,21,0,0,1,213.4,66.91Z" transform="translate(-73 -50.88)"/><ellipse class="cls-6" cx="140.55" cy="48.99" rx="23.98" ry="16.48"/><path class="cls-7" d="M198.17,115.83s5,26.19,0,33.26S213.49,159,213.49,159l21-7.66,2.95-18.83s-12.81-7.21-10.16-21.78Z" transform="translate(-73 -50.88)"/><path class="cls-7" d="M260.27,204.12s1.32,5.74-5.89,6.77a40.9,40.9,0,0,1-12.83-.15L240,196.32h16.78Z" transform="translate(-73 -50.88)"/><path class="cls-7" d="M132.93,196.78s-3.18,12.94,4,14.11,33.69,1.18,33.69,1.18V196.75l-12,2.57-11.26-10.8Z" transform="translate(-73 -50.88)"/><path class="cls-8" d="M199.72,124.29l-28.18,6s-10.74.44-17.66,14.72S132,200,132,200s12.8-12.95,27.81.88l10-18.1-2.21,28.7H245.1V197.94s16.19,8.68,15,13.54c0,0,13.86-35.69,10.86-51.91a110.27,110.27,0,0,1-1.65-15.18h0A20.32,20.32,0,0,0,255,125.83c-1.46-.45-3.06-.87-4.84-1.24-16.63-3.53-20.88,0-20.88,0s-3.22,10.48-3.17,15.23c.08,6.1-8.68,10.15-8.68,10.15s-12.95-3.09-13.54-5.59S198.68,127.24,199.72,124.29Z" transform="translate(-73 -50.88)"/><path class="cls-9" d="M199.72,123.7l-28.18,6s-10.74.45-17.66,14.72-21.93,55-21.93,55,12.81-12.95,27.82.88l10-18.1-2.21,28.69H245.1V197.35s16.19,8.68,15,13.54c0,0,13.86-35.69,10.86-51.91a110.3,110.3,0,0,1-1.65-15.17h0A20.33,20.33,0,0,0,255,125.24c-1.46-.44-3.06-.86-4.84-1.24-16.63-3.53-20.88,0-20.88,0s-3.22,10.48-3.17,15.23c.08,6.11-8.68,10.15-8.68,10.15s-12.95-3.09-13.54-5.59S198.68,126.65,199.72,123.7Z" transform="translate(-73 -50.88)"/><path class="cls-8" d="M228.52,122.45a19.83,19.83,0,0,1-.77-10.44l-29.14,5.15s.42,2.2.89,5.5a20,20,0,0,0,28.29.52c.25-.24.49-.48.72-.73Z" transform="translate(-73 -50.88)"/><path class="cls-7" d="M233.49,107.44a20,20,0,0,1-40,.49v-.49a20,20,0,0,1,11.21-18c.6-.29,1.22-.56,1.85-.79a20.22,20.22,0,0,1,10.31-1h0a20,20,0,0,1,16.59,18.41Q233.49,106.78,233.49,107.44Z" transform="translate(-73 -50.88)"/><g class="cls-10"><path d="M206.5,89.14l0,0c-.63.24-1.25.5-1.85.79a20,20,0,0,0-11.22,18v.48a4.29,4.29,0,0,0,1.8-.43c4.88-2.28,7.8-9.24,9-14.1C204.63,92.11,205,90.15,206.5,89.14Z" transform="translate(-73 -50.88)"/><path d="M221.82,89.7a19.68,19.68,0,0,0-5-1.53,6.42,6.42,0,0,1,3.58,2.24,9.1,9.1,0,0,1,1.09,2,20,20,0,0,0-16.83.35c1.25,2.75,5.15,4.25,7.75,5.26,2.85,1.1,5.72,2.1,8.63,3l-2.57-2.09,5.81.93a10.19,10.19,0,0,0-.41-3.43c1.12.9,2.59,1.2,3.8,2,2.26,1.43,3.21,4.18,4.44,6.56a4.37,4.37,0,0,0,1.3,1.67A20,20,0,0,0,221.82,89.7Z" transform="translate(-73 -50.88)"/></g><path class="cls-11" d="M206.5,88.69l0,0c-.63.23-1.25.5-1.85.79a20,20,0,0,0-11.22,18v.49a4.45,4.45,0,0,0,1.8-.43c4.88-2.28,7.8-9.25,9-14.11C204.63,91.67,205,89.7,206.5,88.69Z" transform="translate(-73 -50.88)"/><path class="cls-11" d="M221.82,89.25a20.12,20.12,0,0,0-5-1.54A6.49,6.49,0,0,1,220.42,90a9.1,9.1,0,0,1,1.09,2,20,20,0,0,0-16.83.35c1.25,2.75,5.15,4.25,7.75,5.26,2.85,1.09,5.72,2.1,8.63,3l-2.57-2.09,5.81.93a10.19,10.19,0,0,0-.41-3.43c1.12.9,2.59,1.2,3.8,2,2.26,1.43,3.21,4.18,4.44,6.56a4.37,4.37,0,0,0,1.3,1.67A20,20,0,0,0,221.82,89.25Z" transform="translate(-73 -50.88)"/><path class="cls-8" d="M191.18,104.14s20.6-25.61,44.44,0l-2.06-5.73S222.38,82.07,214.43,85.6s-15.74,6-15.74,6Z" transform="translate(-73 -50.88)"/><path class="cls-6" d="M191.18,103.69s20.6-25.61,44.44,0L233.56,98s-11.18-16.33-19.13-12.81-15.74,6-15.74,6Z" transform="translate(-73 -50.88)"/><path class="cls-8" d="M174.26,158.87s-4.42,11.78,1.76,22.37-5.44,15-5.44,15" transform="translate(-73 -50.88)"/><path class="cls-8" d="M245.77,148.28s7.65,9.71,2.65,18.39-4.71,29.58-4.71,29.58" transform="translate(-73 -50.88)"/><path class="cls-12" d="M167.49,204.93h85A7.06,7.06,0,0,1,259.6,212H160.43A7.06,7.06,0,0,1,167.49,204.93Z" transform="translate(-73 -50.88)"/><path class="cls-12" d="M176.14,156.37h67.75a10.86,10.86,0,0,1,10.86,10.86v39.32H165.28V167.23A10.86,10.86,0,0,1,176.14,156.37Z" transform="translate(-73 -50.88)"/><circle class="cls-13" cx="136.95" cy="132.79" r="5.3"/><path class="cls-14" d="M192.36,92.14s20.25-20.24,42.08-.37" transform="translate(-73 -50.88)"/><rect class="cls-15" x="164.53" y="39.97" width="2.03" height="11.52"/><path class="cls-16" d="M234.81,98.31h0a7,7,0,0,1,7,7v.45a7,7,0,0,1-7,7h0V98.31Z" transform="translate(-73 -50.88)"/><path class="cls-15" d="M235,97.63h0a1.58,1.58,0,0,1,1.58,1.58v12.66a1.58,1.58,0,0,1-1.58,1.58h0a1.58,1.58,0,0,1-1.58-1.58V99.21A1.58,1.58,0,0,1,235,97.63Z" transform="translate(-73 -50.88)"/><rect class="cls-15" x="114.04" y="40.2" width="2.03" height="11.52"/><path class="cls-16" d="M191.78,113h0a7,7,0,0,1-7-7v-.45a7,7,0,0,1,7-7h0V113Z" transform="translate(-73 -50.88)"/><path class="cls-15" d="M191.55,113.67h0a1.58,1.58,0,0,1-1.58-1.58V99.43a1.58,1.58,0,0,1,1.58-1.58h0a1.59,1.59,0,0,1,1.59,1.58v12.66A1.59,1.59,0,0,1,191.55,113.67Z" transform="translate(-73 -50.88)"/><path class="cls-16" d="M237.29,78.53c-2.76-5.72-8.76-12.64-21.68-13.2h-.16l-4.58.21v0c-12.84.59-18.81,7.49-21.55,13.2a29.67,29.67,0,0,0-2.85,12.36l1.58,0,1.58,0a27,27,0,0,1,2.57-11c3.49-7.16,9.9-11,19.07-11.32h0l4-.23h0c9.17.35,15.58,4.17,19.07,11.32a26.91,26.91,0,0,1,2.57,11l1.58,0,1.59,0A29.85,29.85,0,0,0,237.29,78.53Z" transform="translate(-73 -50.88)"/><rect class="cls-17" x="20.84" y="161.21" width="215.7" height="57.91"/><rect class="cls-8" x="20.84" y="165.11" width="215.7" height="7.52"/><rect class="cls-17" x="6.37" y="160.38" width="244.64" height="7.52"/></svg>