<svg id="Layer_1" data-name="Layer 1" xmlns="http://www.w3.org/2000/svg" xmlns:xlink="http://www.w3.org/1999/xlink" viewBox="0 0 385.83 177.34"><defs><style>.cls-1,.cls-3,.cls-8{fill:#6c63ff;}.cls-1,.cls-13,.cls-7{opacity:0.1;}.cls-1,.cls-12,.cls-4,.cls-7,.cls-8{isolation:isolate;}.cls-2{fill:none;stroke:#535461;stroke-miterlimit:10;stroke-width:2px;}.cls-4{opacity:0.25;}.cls-5{fill:#464353;}.cls-6{fill:#514e7f;}.cls-8{opacity:0.5;}.cls-9{fill:url(#linear-gradient);}.cls-10{fill:#3f3d56;}.cls-11{fill:#a1616a;}.cls-12{opacity:0.05;}.cls-14{fill:#47465a;}.cls-15{fill:#7a799c;}.cls-16{fill:#9493b6;}.cls-17{fill:#ff6584;}.cls-18{fill:#fbbebe;}</style><linearGradient id="linear-gradient" x1="115.76" y1="-46.16" x2="115.76" y2="106.25" gradientTransform="matrix(1, 0, 0, -1, -24.78, 189.78)" gradientUnits="userSpaceOnUse"><stop offset="0" stop-color="gray" stop-opacity="0.25"/><stop offset="0.54" stop-color="gray" stop-opacity="0.12"/><stop offset="1" stop-color="gray" stop-opacity="0.1"/></linearGradient></defs><title>what-3</title><path class="cls-1" d="M363.91,229l-.87.6a29.26,29.26,0,0,1-3.39,2c-6.16,3.07-13.74,4.57-21.13,5.58-16.58,2.29-33.51,2.74-50.36,3.17-45.54,1.19-91.2,2.37-136.62-.36-17.95-1.08-36.29-2.89-52.56-8.4-2.33-.79-4.61-1.66-6.86-2.61a57.24,57.24,0,0,1-12.5-7.07,26,26,0,0,1-7.81-9.07c-3.43-7.14-1.62-15.17,2.31-22.17a68.8,68.8,0,0,1,5.51-8.14c3-3.94,6.36-7.76,9.41-11.7C99.89,156.72,107,139,97,124.64c-2.88-4.12-7-7.75-9.38-12-3-5.52-2.76-11.64-1.81-17.59.12-.75.27-1.5.39-2.24,1.64-8.82,4.69-18.31,14.11-23.82,9.79-5.71,23.69-5.42,35.85-3.38,18.9,3.18,36.34,9.83,53.94,15.83s36,11.48,55.41,12.07c17.1.53,37-3.38,48.39-13.51,11-9.84,31.73-10.58,46.67-4.64,10.24,4.08,17.89,11.43,21.12,19.69a24.5,24.5,0,0,1,1.4,5.13,22.4,22.4,0,0,1,.26,4.84,21,21,0,0,1-.26,2.36c-2.49,16.31-20.45,29.17-31.37,43.74-5.33,7.12-9.1,15.66-5.43,23.34,5.59,11.69,25.05,15.84,36.8,24.55a26.93,26.93,0,0,1,5.78,5.6C374.5,212.31,372.4,222.77,363.91,229Z" transform="translate(-4.17 -64.22)"/><ellipse class="cls-1" cx="101.2" cy="170.87" rx="63.81" ry="2.17"/><path class="cls-2" d="M156.07,233.64S169.8,216.26,168.73,199a33.57,33.57,0,0,1,5.34-20.55,54.93,54.93,0,0,1,6.45-8.06" transform="translate(-4.17 -64.22)"/><path class="cls-3" d="M179.91,159.46c-1,2.42.59,11.19.59,11.19s7.19-5.25,8.16-7.67a4.72,4.72,0,0,0-8.76-3.52h0Z" transform="translate(-4.17 -64.22)"/><path class="cls-3" d="M167.3,169.94c.5,2.56,6.57,9.07,6.57,9.07s3.18-8.32,2.68-10.87a4.71,4.71,0,0,0-9.25,1.8Z" transform="translate(-4.17 -64.22)"/><path class="cls-3" d="M158.42,193c1.72,2,10.25,4.49,10.25,4.49s-1.45-8.78-3.17-10.74a4.72,4.72,0,0,0-7.08,6.24h0Z" transform="translate(-4.17 -64.22)"/><path class="cls-3" d="M155.63,211.86C157,214.08,165,218,165,218s.05-8.9-1.31-11.12a4.72,4.72,0,0,0-8.07,4.89Z" transform="translate(-4.17 -64.22)"/><path class="cls-3" d="M182.88,183.17c-2.41,1-11.18-.51-11.18-.51s5.2-7.23,7.61-8.22a4.72,4.72,0,0,1,3.57,8.73Z" transform="translate(-4.17 -64.22)"/><path class="cls-3" d="M179.33,205.25c-2.6.22-10.52-3.83-10.52-3.83s7.13-5.34,9.72-5.57a4.72,4.72,0,0,1,1,9.39Z" transform="translate(-4.17 -64.22)"/><path class="cls-3" d="M172.92,226.24c-2.52.66-11-2-11-2s6.12-6.47,8.64-7.13a4.72,4.72,0,0,1,2.37,9.13Z" transform="translate(-4.17 -64.22)"/><path class="cls-4" d="M179.91,159.46c-1,2.42.59,11.19.59,11.19s7.19-5.25,8.16-7.67a4.72,4.72,0,0,0-8.76-3.52h0Z" transform="translate(-4.17 -64.22)"/><path class="cls-4" d="M167.3,169.94c.5,2.56,6.57,9.07,6.57,9.07s3.18-8.32,2.68-10.87a4.71,4.71,0,0,0-9.25,1.8Z" transform="translate(-4.17 -64.22)"/><path class="cls-4" d="M158.42,193c1.72,2,10.25,4.49,10.25,4.49s-1.45-8.78-3.17-10.74a4.72,4.72,0,0,0-7.08,6.24h0Z" transform="translate(-4.17 -64.22)"/><path class="cls-4" d="M155.63,211.86C157,214.08,165,218,165,218s.05-8.9-1.31-11.12a4.72,4.72,0,0,0-8.07,4.89Z" transform="translate(-4.17 -64.22)"/><path class="cls-4" d="M182.88,183.17c-2.41,1-11.18-.51-11.18-.51s5.2-7.23,7.61-8.22a4.72,4.72,0,0,1,3.57,8.73Z" transform="translate(-4.17 -64.22)"/><path class="cls-4" d="M179.33,205.25c-2.6.22-10.52-3.83-10.52-3.83s7.13-5.34,9.72-5.57a4.72,4.72,0,0,1,1,9.39Z" transform="translate(-4.17 -64.22)"/><path class="cls-4" d="M172.92,226.24c-2.52.66-11-2-11-2s6.12-6.47,8.64-7.13a4.72,4.72,0,0,1,2.37,9.13Z" transform="translate(-4.17 -64.22)"/><path class="cls-2" d="M156.19,232.92s19.59-10.33,25.62-26.57A33.68,33.68,0,0,1,195,189.72a56.39,56.39,0,0,1,9.16-4.75" transform="translate(-4.17 -64.22)"/><path class="cls-3" d="M208,174.76c-1.86,1.81-4,10.46-4,10.46s8.7-1.89,10.57-3.7a4.72,4.72,0,0,0-6.58-6.76Z" transform="translate(-4.17 -64.22)"/><path class="cls-3" d="M192.26,179.23c-.58,2.54,2.34,11,2.34,11s6.28-6.32,6.86-8.86a4.71,4.71,0,0,0-9.15-2.28c0,.06,0,.12,0,.18Z" transform="translate(-4.17 -64.22)"/><path class="cls-3" d="M174.84,196.67c.78,2.48,7.54,8.28,7.54,8.28s2.24-8.62,1.45-11.1a4.71,4.71,0,0,0-9.05,2.63l.06.21Z" transform="translate(-4.17 -64.22)"/><path class="cls-3" d="M164.61,212.83c.35,2.58,6,9.43,6,9.43s3.65-8.12,3.31-10.7a4.72,4.72,0,0,0-9.35,1.27Z" transform="translate(-4.17 -64.22)"/><path class="cls-3" d="M201.14,197.64c-2.6-.08-10-5-10-5s7.69-4.49,10.29-4.42a4.72,4.72,0,0,1-.27,9.43Z" transform="translate(-4.17 -64.22)"/><path class="cls-3" d="M189,216.38c-2.46-.85-8.06-7.77-8.06-7.77s8.67-2,11.14-1.14a4.71,4.71,0,0,1-3.08,8.91Z" transform="translate(-4.17 -64.22)"/><path class="cls-3" d="M174.6,233c-2.57-.42-9.26-6.3-9.26-6.3s8.21-3.43,10.78-3A4.72,4.72,0,0,1,174.6,233Z" transform="translate(-4.17 -64.22)"/><polygon class="cls-5" points="153.74 170.14 151.64 170.14 136.28 90.88 134.32 170.14 132.09 170.14 129.59 91.01 114.63 170.14 112.27 170.14 122.44 88.67 122.77 86.02 142.72 83.79 143.34 88.67 153.74 170.14"/><rect class="cls-5" x="98.67" y="67.9" width="12.7" height="7.87"/><path class="cls-5" d="M176.51,128.68l7.67-3.1h1.69a.92.92,0,0,1,.92.92v21.62a.93.93,0,0,1-.92.93h-1.69l-7.67-3.2Z" transform="translate(-4.17 -64.22)"/><rect class="cls-5" x="156.64" y="65.44" width="15.7" height="15.21"/><rect class="cls-6" x="129.39" y="36.88" width="10.11" height="1.84"/><rect class="cls-6" x="117.86" y="39.26" width="28.44" height="20.77"/><rect class="cls-7" x="117.86" y="57.57" width="28.44" height="2.46"/><rect class="cls-7" x="156.4" y="65.44" width="0.64" height="15.21"/><rect class="cls-7" x="107.03" y="67.9" width="4.33" height="7.87"/><polygon class="cls-7" points="143.34 88.67 122.44 88.67 122.77 86.02 142.72 83.79 143.34 88.67"/><rect class="cls-6" x="107.43" y="57.96" width="49.21" height="30.31" rx="2.53"/><path class="cls-6" d="M176.36,128.68h.15v17.17h-.15a1.23,1.23,0,0,1-1.23-1.23h0V129.91A1.23,1.23,0,0,1,176.36,128.68Z" transform="translate(-4.17 -64.22)"/><path class="cls-6" d="M184.18,125.58h1.6a1,1,0,0,1,1,1v21.45a1,1,0,0,1-1,1h-1.6V125.58Z" transform="translate(-4.17 -64.22)"/><rect class="cls-7" x="98.67" y="67.9" width="2.26" height="7.87"/><rect class="cls-6" x="96.11" y="65.44" width="4.43" height="13.39" rx="1.7"/><circle class="cls-5" cx="117.86" cy="39.26" r="14.17"/><circle class="cls-3" cx="117.86" cy="39.26" r="10.63"/><circle class="cls-5" cx="144.14" cy="39.55" r="10.34"/><circle class="cls-3" cx="144.14" cy="39.55" r="7.75"/><circle class="cls-3" cx="143.34" cy="62.47" r="1.36"/><circle class="cls-8" cx="147.67" cy="62.47" r="1.36"/><path class="cls-9" d="M134.71,131.39l-.1-.19a8.09,8.09,0,0,1,1.72.79c-.24-2.06-8.13-7.84-9.55-7.84s-3-2.45-3-2.45-4.1-.63-4.73-1.3-4.89-.28-5.92,0a4.89,4.89,0,0,1-2.6-.63s-.87-1.42-2-1.42-2.28-1.58-2.28-1.58a4.88,4.88,0,0,0-2-1.11,5.11,5.11,0,0,1-2.68-2c-.56-.79-3.32-1.18-4.89-.94a34.4,34.4,0,0,1-5.84-.33A4.19,4.19,0,0,0,93,109.68c-1.55-.08-5.63-3.5-5.63-3.5s.17,1.1.36,2.65l-.26-.34,0,0a26.12,26.12,0,0,1,0-3.31,2.28,2.28,0,0,1,0-.26,7.39,7.39,0,0,0,2.31-7.26l-.15-.53a3.4,3.4,0,0,0,.94.23h.17a1.36,1.36,0,0,0,1-.45h0l.12-.18a.05.05,0,0,1,0,0,1.34,1.34,0,0,0,.07-.18.17.17,0,0,0,0-.07.4.4,0,0,0,0-.15v-.21a2.92,2.92,0,0,0-.23-1.06,4.58,4.58,0,0,1-.58-1.87.78.78,0,0,1,0-.16,7.55,7.55,0,0,1,.5-1.5v0l.06-.22a.25.25,0,0,1,0-.07,2.06,2.06,0,0,0,0-.26v0a2.49,2.49,0,0,0-1.64-2.25,16,16,0,0,1-2.47-1,9.32,9.32,0,0,1-1.94-2.32A4.45,4.45,0,0,0,82,83.55c-.9.11-1.72.58-2.61.76-1.35.28-2.79-.13-4.14.19a1.42,1.42,0,0,0-.84.47,1,1,0,0,0-.17.43h0a1.55,1.55,0,0,0,0,.43h0c0,.14,0,.27.07.41l0,.08s0,0,0,.08l0,.17c0,.09,0,.18.07.28v0l.06.29h0a4.36,4.36,0,0,1,.07.62h0a2.84,2.84,0,0,1-.36,1.69c-.59.94-1.85,1.36-2.39,2.35a2.1,2.1,0,0,0-.24.77h0a2.44,2.44,0,0,0,0,.27v0a1,1,0,0,0,0,.24v.06a1.6,1.6,0,0,0,.05.21.14.14,0,0,0,0,.06,1.17,1.17,0,0,0,.09.24h0c.25.53.73,1,.83,1.54h0a.11.11,0,0,0,0,0,3.72,3.72,0,0,1-.21,1.27l0,.16h0v.53a.29.29,0,0,0,0,.09l0,.06a.2.2,0,0,0,0,.08l0,.06.06.08,0,0,.11.1c.32.23.83.17,1.1.47l.08.12v0a.5.5,0,0,1,.05.13h0a1.63,1.63,0,0,1,0,.54c-.1.47-.3.9-.41,1.37a2.7,2.7,0,0,0,0,.28h0a.27.27,0,0,1,0,.13V101a.55.55,0,0,0,0,.18c0,.06,0,.06,0,.08l0,.07a.29.29,0,0,0,0,.09l0,.06,0,.1s0,0,0,0a.51.51,0,0,0,.09.13,1.46,1.46,0,0,0,1.25.52,4,4,0,0,0,.84-.09c.06.14.12.29.19.43a7.24,7.24,0,0,0,1.33,1.87,1.5,1.5,0,0,1,0,.22c0,.54-.12,1.12-.2,1.71-.61-.29-1.08-.39-1.27-.19-.79.87,0,3.88,0,3.88s-3.87,0-4.82.86-2.68,0-2.68,0-3.55.4-3.31,1.11-1.89,0-1.89,0-1.5.16-1.42,1.19-2.29,1.5-2,2.21-1.42,1.18-1.42,1.18-1.73-.07-1.1,1h0s-1,2.22-1.73,2.37-1.82,2-1.82,2-3,.56-2.9,1.51-4.67,7.74-4.67,7.74-1.58,3.25-.48,5.62a44.57,44.57,0,0,1,2.13,4.83c.24.86,3.11,4.69,3.08,5.4A17,17,0,0,0,52.5,150l-.28.29-.62.65s-2,4.9.39,5.14a15.39,15.39,0,0,0,4.16.14,1.28,1.28,0,0,0,.34-.14l0,0c.87,1.28,1.48,2.16,1.48,2.16l.23-.34.24.34.51-.71c-.1,2.15-.12,4.27-.12,4.27s1-.16.56,4.59S62.25,175,62.25,175v7h0s0,.18,0,.47a14.44,14.44,0,0,0,1.23,5c1.1,2.06,0,7.44,0,7.44s-.08,4.38.19,9.86c0,.14,0,.3,0,.45-4.78,4-9.92,9.3-9.92,9.3a2.41,2.41,0,0,1,.71.32l-.28.37-1.31,1.6h0l-1,1.25h0L53.51,223l1.75-.68a5.39,5.39,0,0,1,.75,2.75,1.24,1.24,0,0,1-.24.55.72.72,0,0,0-.12.27c-.46,1.79,1.44,9.47,4.47,9.8a1.05,1.05,0,0,0,1.35-.58,4,4,0,0,0-.2-2.38,3.94,3.94,0,0,1-.56-4c.6-1.21,1.6-2.84,2.33-4l.3-.48c.65.82,1,1.35,1,1.35l2.32-2.5.15.31a9.12,9.12,0,0,0,.6,1L69,230.67l.64-.14c0,.15,0,.31,0,.47a7.83,7.83,0,0,0,.52,3.62,2.16,2.16,0,0,0,2.12,1.32c3.66-.09,4.73-2.07,4.73-2.07v-5l1.26-.28s-.09-10.92-.42-17c0-.14,0-.27,0-.4v-.05l8.1-8.71.63-.25a8.42,8.42,0,0,0,5.28-7.36,25.26,25.26,0,0,1,.63-5.37c.63-2.46.08-15.19-1.1-18.35a32.53,32.53,0,0,1-1.58-6.73,2.56,2.56,0,0,0,0-3A6.52,6.52,0,0,1,89,160l1.54-.25.89-.15.47-.08c-.23,2.09-.27,3.7.29,4.08,1.74,1.19,7.57-2.77,7.57-2.77-2.13,0-3.31-15.89-2.88-16.29s1.08-8.36.52-9.78,2-7.76,2-7.76l.39-.58h0s9.31,4.06,10.34,4.84,4.26-1.89,4.81-.86,4,2.58,4,2.58,5.13-.52,5.68.74,3.87,4.24,3.87,4.24a16,16,0,0,1,.13-2.08c.06.16.13.33.2.49,1.57,3.72,4.19,8.43,6.61,5.9C138.14,139.39,136.05,134.07,134.71,131.39Zm-70.17,16.8v0h0ZM62.7,130l-1,10.58-2,2-.24.25-2-2.22s-1-.47,0-1.34-1.73-2.84-1.73-2.84-.08-1.42.94-1.82,2.37-3,2.37-3l3.71-1.9h0Zm13.2,54.16a1.3,1.3,0,0,1,.23-.18c.45-.25.73,0,.88.51a4.12,4.12,0,0,1-.17,2.43c-.55,1.27.79,6.33.79,6.33a3.84,3.84,0,0,0-2,2.29,1.64,1.64,0,0,1-.24.52l-.06-.38c-.15-.95-.23-1.56-.23-1.56a9.91,9.91,0,0,1-.16-3.72c.25-1.52.75-4.61.94-5.78,0-.28.08-.45.08-.47Z" transform="translate(-4.17 -64.22)"/><path class="cls-5" d="M86.9,107.05l.51-.34,1.44,3-.55.65H86.62s.06-1.65.1-1.71S86.9,107.05,86.9,107.05Z" transform="translate(-4.17 -64.22)"/><path class="cls-10" d="M77,227.6v6.51s-1.06,2-4.73,2.07a2.16,2.16,0,0,1-2.11-1.32,7.81,7.81,0,0,1-.52-3.61,13.31,13.31,0,0,1,.17-1.67Z" transform="translate(-4.17 -64.22)"/><path class="cls-7" d="M77,227.6v2l-7.36,1.64a13.31,13.31,0,0,1,.17-1.67Z" transform="translate(-4.17 -64.22)"/><path class="cls-6" d="M78.26,228.86l-9.23,2-1.57-6.23a6.79,6.79,0,0,1-.6-1c-.11-.2-.2-.41-.3-.63-1.72-3.93-2.48-11-2.81-17.05,0-.31,0-.61,0-.91-.26-5.46-.19-9.83-.19-9.83s1.11-5.37,0-7.42a14.49,14.49,0,0,1-1.23-5c0-.3,0-.47,0-.47l.17-.45.7-1.84h7.65l4.45,3.76.68.58-.08.47c-.19,1.17-.7,4.26-.95,5.77A10.3,10.3,0,0,0,75,194.4s.1.6.24,1.55c0,.24.08.49.12.76.57,3.5,1.63,9.89,2.08,11.41a17.62,17.62,0,0,1,.32,2.89c0,.29,0,.58,0,.89C78.17,218,78.26,228.86,78.26,228.86Z" transform="translate(-4.17 -64.22)"/><path class="cls-7" d="M77,234v.07s-1.06,2-4.73,2.07a2.16,2.16,0,0,1-2.11-1.32A9.19,9.19,0,0,0,77,234Z" transform="translate(-4.17 -64.22)"/><path class="cls-11" d="M135.38,142.71c-2.43,2.53-5-2.17-6.61-5.88-.88-2.08-1.44-3.86-1.44-3.86l6.48-2.74s.4.63.9,1.63C136.05,134.54,138.14,139.84,135.38,142.71Z" transform="translate(-4.17 -64.22)"/><path class="cls-11" d="M87.44,105.74a29.89,29.89,0,0,0,.53,7s-13.18,1.42-12-.63c.69-1.21,1.14-4.38,1.39-6.81.18-1.71.26-3.06.26-3.06s12.63-5,10.73-.78A12.62,12.62,0,0,0,87.44,105.74Z" transform="translate(-4.17 -64.22)"/><polygon class="cls-5" points="84.39 75.42 82.62 96.56 90.74 95.22 89.32 77.78 89.8 73.13 84.39 75.42"/><polygon class="cls-7" points="90.74 95.25 87.22 95.83 82.62 96.59 82.94 92.73 84.39 75.45 86.23 74.67 87.54 74.12 89.8 73.16 89.32 77.82 90.74 95.25"/><path class="cls-10" d="M60.7,229a4,4,0,0,0,.56,4,4,4,0,0,1,.2,2.36,1.06,1.06,0,0,1-1.35.59c-3.22-.36-5.18-9.05-4.35-10.05s-.5-3.29-.5-3.29l-1.75.68-1.59-4.91,1-1.24,1.31-1.6.88-1.09,8.82,9.2s-.38.56-.9,1.38C62.31,226.11,61.31,227.75,60.7,229Z" transform="translate(-4.17 -64.22)"/><path class="cls-7" d="M77.85,211.89l-11,11.79c-1.93-3.76-2.76-11.31-3.11-17.69a29.82,29.82,0,0,1,5.52-3.87s5.06-3.67,6.13-5.42c.56,3.5,1.62,9.88,2.08,11.41A25.79,25.79,0,0,1,77.85,211.89Z" transform="translate(-4.17 -64.22)"/><polygon class="cls-7" points="71.05 119.65 58.26 117.73 58.95 115.89 66.6 115.89 71.05 119.65"/><path class="cls-7" d="M77.8,211,66.57,223.05c-1.73-3.93-2.49-11-2.82-17.05,0-.31,0-.61,0-.91a31.26,31.26,0,0,1,5.57-3.92s4.72-3.41,6-5.23c0,.24.07.49.12.76.56,3.5,1.62,9.89,2.08,11.41A18.86,18.86,0,0,1,77.8,211Z" transform="translate(-4.17 -64.22)"/><path class="cls-7" d="M63.93,223.6s-.38.57-.9,1.38c-1.88-2.38-6.34-7.85-8.8-9.49l.88-1.09Z" transform="translate(-4.17 -64.22)"/><path class="cls-6" d="M92.46,189.81a25.14,25.14,0,0,0-.63,5.36,8.4,8.4,0,0,1-5.28,7.34l-.63.24-21.53,23.1s-8-10.41-10.57-11c0,0,10.49-10.81,15.46-13.18,0,0,6-4.34,6.31-5.84a3.84,3.84,0,0,1,2-2.28s-1.34-5-.79-6.32a4.08,4.08,0,0,0,.17-2.42c-.15-.47-.43-.76-.87-.51a1.46,1.46,0,0,0-.24.17l-13.65-2.05v-7s-3.31-3.86-2.84-8.6-.55-4.57-.55-4.57.05-8,.72-8.66,7.16-3.73,7.16-3.73l20.31,3.61.84,3.89a13.28,13.28,0,0,0,1.89,4.46,2.55,2.55,0,0,1,0,3,32.49,32.49,0,0,0,1.58,6.71C92.56,174.67,93.1,187.36,92.46,189.81Z" transform="translate(-4.17 -64.22)"/><path class="cls-7" d="M88.36,101.46a12.67,12.67,0,0,0-.92,4.28,7.33,7.33,0,0,1-10.07-.44c.18-1.71.26-3.06.26-3.06S90.26,97.2,88.36,101.46Z" transform="translate(-4.17 -64.22)"/><path class="cls-11" d="M90,100a7.37,7.37,0,1,1-.21-1.72A7.1,7.1,0,0,1,90,100Z" transform="translate(-4.17 -64.22)"/><path class="cls-7" d="M84,112.74s-5.27-2.45-5.6-2.77-11.27,27.77-11.27,27.77l-3.07,14s16.41,7,20,6.07,3.86,0,3.86,0,3.63-20.35,4.81-22.17-1.1-20.27-1.1-20.27L87.51,110Z" transform="translate(-4.17 -64.22)"/><path class="cls-7" d="M84,111.79s-5.27-2.45-5.6-2.76S67.15,136.8,67.15,136.8l-3.07,14s16.41,7,20,6.07,3.86,0,3.86,0,3.63-20.35,4.81-22.16-1.1-20.28-1.1-20.28L87.51,109Z" transform="translate(-4.17 -64.22)"/><path class="cls-3" d="M92.7,135.14a15.74,15.74,0,0,0-1,3.16c-.28,1.13-.59,2.47-.9,3.92-1.39,6.51-2.92,15.09-2.92,15.09s-.1-.29-.78-.39a8,8,0,0,0-3.08.39c-3.55.95-20-6.08-20-6.08l.47-2.13,2.61-11.83s11-28.08,11.28-27.77a41.54,41.54,0,0,0,3.8,1.92c1,.48,1.8.84,1.8.84l3.31-2.62.19-.14,4.08,5.37S93.88,133.32,92.7,135.14Z" transform="translate(-4.17 -64.22)"/><path class="cls-7" d="M80.16,115c.47,1.82-.63,4.82-.63,4.82s-3.79,9.31-4.89,13.61-7.43,13-7.43,13L65,148.65l-.45.45,2.61-11.84s11-28.08,11.28-27.76a42.4,42.4,0,0,0,3.8,1.91C81.25,112.3,79.84,113.82,80.16,115Z" transform="translate(-4.17 -64.22)"/><path class="cls-5" d="M79.68,115c.48,1.82-.63,4.82-.63,4.82s-3.78,9.31-4.89,13.61-7.42,13-7.42,13l-2.23,2.23c-.16.15-.32.31-.47.47-2.54,2.53-6.11,6.07-7.22,7.1l-.32.29a1.43,1.43,0,0,1-.34.14,15.39,15.39,0,0,1-4.16-.14c-2.37-.24-.39-5.13-.39-5.13l.62-.64.57-.59,6.44-6.63.48-.5,2-2,1-10.56,0-.25L62,128.49c-1.21-2.77-3.57-8.11-4.44-9.84l-.23-.44,0,0c-.64-1,1.1-1,1.1-1s1.74-.47,1.42-1.18,2.05-1.18,2-2.21,1.42-1.18,1.42-1.18,2.13.71,1.9,0,3.31-1.11,3.31-1.11,1.73.87,2.68,0,4.83-.86,4.83-.86-.79-3,0-3.87,6.74,3.87,6.74,3.87S79.21,113.21,79.68,115Z" transform="translate(-4.17 -64.22)"/><path class="cls-7" d="M60,155.41s6.55,9.23,11.13,6.24-6.16-10.81-6.16-10.81Z" transform="translate(-4.17 -64.22)"/><path class="cls-11" d="M60,154.94s6.55,9.23,11.13,6.23-6.16-10.81-6.16-10.81Z" transform="translate(-4.17 -64.22)"/><path class="cls-7" d="M91.38,160c.5-4.36,2-10.9.77-12.89a15.71,15.71,0,0,1-1.34-4.91c-.17-1.11-.3-2.27-.41-3.36-.29-2.92-.38-5.41-.38-5.41s-2.84-12.67-2.29-15.27c.35-1.63,0-5.71-.4-8.54l.18-.14,4.09,5.37s2.28,18.46,1.1,20.27a15.74,15.74,0,0,0-1,3.16l2.25-.94L93.49,142l1.42,17.44Z" transform="translate(-4.17 -64.22)"/><path class="cls-5" d="M87.41,106.71s4.08,3.42,5.63,3.5a4.18,4.18,0,0,1-2.15,2.68,32.63,32.63,0,0,0,5.84.32c1.57-.24,4.33.16,4.89,1a5.12,5.12,0,0,0,2.69,2,4.79,4.79,0,0,1,2,1.1l-7,10.26s-2.52,6.31-2,7.73-.08,9.39-.52,9.78.75,16.25,2.88,16.25c0,0-5.83,3.95-7.57,2.76s2.21-14,.47-16.88-2.13-13.68-2.13-13.68-2.84-12.67-2.28-15.27S87.41,106.71,87.41,106.71Z" transform="translate(-4.17 -64.22)"/><path class="cls-7" d="M134.71,131.86c-2.11-.66-5.34-.67-5.94,5-.88-2.09-1.44-3.86-1.44-3.86l6.48-2.74S134.21,130.86,134.71,131.86Z" transform="translate(-4.17 -64.22)"/><path class="cls-5" d="M102.42,116.76l3.87.47s1.18,1.58,2.28,1.58,2,1.42,2,1.42a4.81,4.81,0,0,0,2.61.63c1-.24,5.28-.63,5.91,0s4.74,1.3,4.74,1.3,1.57,2.45,3,2.45,9.31,5.76,9.55,7.81c0,0-7.81-5-7.89,5.95,0,0-3.31-3-3.87-4.22s-5.68-.74-5.68-.74-3.47-1.54-4-2.57-3.79,1.63-4.81.85-10.34-4.83-10.34-4.83l-2.88-5.41Z" transform="translate(-4.17 -64.22)"/><circle class="cls-10" cx="80.41" cy="61.45" r="0.67"/><circle class="cls-10" cx="79.74" cy="75.44" r="0.67"/><circle class="cls-10" cx="80.41" cy="68.08" r="0.67"/><circle class="cls-10" cx="78.48" cy="82.8" r="0.67"/><path class="cls-7" d="M61.47,235.32c-.32.93-1.35.59-1.35.59-3.22-.36-5.17-9-4.35-10s-.51-3.3-.51-3.3l-1.75.68-1.59-4.91,1-1.24c1,1.74,2.44,4.24,2.78,4.88a8.86,8.86,0,0,1,.89,4.26C56.54,227.77,58.32,235.13,61.47,235.32Z" transform="translate(-4.17 -64.22)"/><path class="cls-7" d="M89.77,98.24c-.16,0-.32-.12-.47-.18a3,3,0,0,1-1.44-1c-.3-.44-.4-1.06-.87-1.31s-1.18.1-1.77.24a3.7,3.7,0,0,1-2.09-.28c-1-.37-2.42-1.06-3.45-.35-.81.55-.5,1.71-.7,2.55-.32,1.29-1.69,2.13-2,3.43-.12.57,0,1.28-.51,1.63a1.08,1.08,0,0,1-.45.2,7.34,7.34,0,0,1,13.16-6.49,7.46,7.46,0,0,1,.55,1.52Z" transform="translate(-4.17 -64.22)"/><path class="cls-5" d="M83.12,95.28a3.72,3.72,0,0,0,2.1.28c.59-.14,1.23-.53,1.76-.24s.57.87.87,1.31a3,3,0,0,0,1.44,1,4.13,4.13,0,0,0,1.29.36,1.49,1.49,0,0,0,1.21-.46,1.88,1.88,0,0,0,0-1.88,4.58,4.58,0,0,1-.58-1.87c0-.78.6-1.46.64-2.24a2.49,2.49,0,0,0-1.64-2.25,16,16,0,0,1-2.47-.95A9.41,9.41,0,0,1,85.84,86a4.39,4.39,0,0,0-3.78-1.86c-.9.1-1.71.57-2.61.75-1.35.28-2.79-.13-4.14.19a1.41,1.41,0,0,0-.84.46,1.86,1.86,0,0,0,0,1.6,3.72,3.72,0,0,1-.15,2.9c-.59,1-1.85,1.37-2.4,2.35a2.09,2.09,0,0,0,0,1.9c.26.54.76,1,.84,1.58a3.72,3.72,0,0,1-.21,1.27,1.13,1.13,0,0,0,.28,1.19c.35.23.83.17,1.1.47a.94.94,0,0,1,.13.81c-.1.48-.3.9-.41,1.37a1.67,1.67,0,0,0,.19,1.36,2,2,0,0,0,2.13.42,1.36,1.36,0,0,0,.6-.24c.47-.35.39-1.06.5-1.63.26-1.3,1.63-2.15,1.95-3.44.21-.83-.11-2,.7-2.54C80.7,94.22,82.11,94.91,83.12,95.28Z" transform="translate(-4.17 -64.22)"/><path class="cls-7" d="M82,180.89s7.43,4.74,7.67,6.55Z" transform="translate(-4.17 -64.22)"/><path class="cls-7" d="M81.59,184.68s8.52,4.1,8,5.52Z" transform="translate(-4.17 -64.22)"/><path class="cls-7" d="M81,188.31s4.81,2.52,5.12,4Z" transform="translate(-4.17 -64.22)"/><path class="cls-7" d="M83.08,194s3.15,2.76,3.78,2S83.08,194,83.08,194Z" transform="translate(-4.17 -64.22)"/><path class="cls-7" d="M78.66,195.73s2.46,3.94,1.27,4.18S78.66,195.73,78.66,195.73Z" transform="translate(-4.17 -64.22)"/><path class="cls-7" d="M67.86,125.67s-4.18,2.53-2.92,3.16S67.86,125.67,67.86,125.67Z" transform="translate(-4.17 -64.22)"/><path class="cls-7" d="M67.86,116.36s-4.26,7.81-2.28,7.26S67.86,116.36,67.86,116.36Z" transform="translate(-4.17 -64.22)"/><path class="cls-7" d="M113.13,124.17s-2.6,3.07-2.13,4.74Z" transform="translate(-4.17 -64.22)"/><path class="cls-7" d="M119.93,125.67s-3.91,3.47-3.33,3.87Z" transform="translate(-4.17 -64.22)"/><path class="cls-7" d="M122.36,129.94s-.39,2.28.24,2.36Z" transform="translate(-4.17 -64.22)"/><path class="cls-12" d="M79.72,178.07c-1,1.3-1,3.61-1.46,4.56-.24.52-.8,1.42-1.25,2.15-.14-.48-.43-.76-.87-.51-.29-2.17-.81-5.92-1-6.67-.24-1.07,2.36-3.91,2.36-3.91s2.55.54,3.2,1.84S80.73,176.77,79.72,178.07Z" transform="translate(-4.17 -64.22)"/><path class="cls-7" d="M66.59,150.68c-2.84.39-8.13,8-8.13,8l-1.65-2.42c-1.21-1.79-2.84-4.22-4-6.07L59.72,143,61,144.37s2.45,2.44,2.45,2.92a4.57,4.57,0,0,0,1.07,1.36C65.42,149.6,66.59,150.68,66.59,150.68Z" transform="translate(-4.17 -64.22)"/><path class="cls-7" d="M57.53,118.65l-.23-.44,3.05.21L62,128.48C60.76,125.72,58.4,120.38,57.53,118.65Z" transform="translate(-4.17 -64.22)"/><path class="cls-7" d="M64,149.13c-2.54,2.52-6.1,6.06-7.22,7.1a3.1,3.1,0,0,1-.32.28,1,1,0,0,1-.33.15c-1.12-1.64-2.71-4-3.94-5.92l.57-.59,6.45-6.63.8.86s2.45,2.44,2.45,2.92A7.44,7.44,0,0,0,64,149.13Z" transform="translate(-4.17 -64.22)"/><path class="cls-5" d="M60.83,118.42l-3.55-.24s-1,2.21-1.73,2.37-1.82,2-1.82,2-3,.55-2.91,1.5-4.67,7.71-4.67,7.71-1.58,3.25-.47,5.62a45.17,45.17,0,0,1,2.13,4.81c.24.87,3,4.65,3,5.36S58,158.65,58,158.65s5.28-7.58,8.12-8c0,0-3.15-2.92-3.15-3.39s-2.43-2.92-2.43-2.92l-3.08-3.31s-1-.48,0-1.35-1.73-2.84-1.73-2.84-.08-1.42.94-1.81,2.37-3,2.37-3l3.71-1.89Z" transform="translate(-4.17 -64.22)"/><path class="cls-7" d="M47.27,134.11s4.26-.86,4.34-.31S47.27,134.11,47.27,134.11Z" transform="translate(-4.17 -64.22)"/><path class="cls-7" d="M50.82,138.41s3.62.48,3.46,1.25S50.82,138.41,50.82,138.41Z" transform="translate(-4.17 -64.22)"/><path class="cls-7" d="M53.81,125s3.47,4.92,3.94,3.9Z" transform="translate(-4.17 -64.22)"/><g class="cls-13"><path d="M74.67,88.38a5.4,5.4,0,0,0-.21-1.7A5.62,5.62,0,0,1,74.3,86a2.79,2.79,0,0,0,.16,1.18A6.33,6.33,0,0,1,74.67,88.38Z" transform="translate(-4.17 -64.22)"/><path d="M91.27,93.58c.09-.71.58-1.35.62-2.08a1.45,1.45,0,0,0,0-.36c-.09.73-.6,1.38-.63,2.13A1.62,1.62,0,0,0,91.27,93.58Z" transform="translate(-4.17 -64.22)"/><path d="M91.79,97a1.46,1.46,0,0,1-1.21.46,4.13,4.13,0,0,1-1.29-.36,3,3,0,0,1-1.44-1c-.3-.44-.4-1-.87-1.31s-1.18.1-1.76.24a3.65,3.65,0,0,1-2.1-.28c-1-.37-2.42-1-3.45-.35-.81.55-.49,1.72-.7,2.55-.32,1.29-1.69,2.13-2,3.43-.11.58,0,1.28-.5,1.64a1.47,1.47,0,0,1-.6.23c-.76.17-1.68.21-2.13-.41a1.25,1.25,0,0,1-.24-.61,1.47,1.47,0,0,0,.24,1.08,2.06,2.06,0,0,0,2.13.42,1.65,1.65,0,0,0,.6-.24c.47-.36.39-1.06.5-1.63.26-1.31,1.63-2.15,2-3.44.21-.83-.11-2,.7-2.54,1-.71,2.44,0,3.45.35a3.72,3.72,0,0,0,2.1.27c.59-.14,1.23-.53,1.76-.23s.57.87.87,1.31a3,3,0,0,0,1.44.94,4.13,4.13,0,0,0,1.29.36,1.45,1.45,0,0,0,1.21-.45A1.41,1.41,0,0,0,92,96.4,1.11,1.11,0,0,1,91.79,97Z" transform="translate(-4.17 -64.22)"/><path d="M72.7,95.4c-.08-.6-.58-1-.84-1.59a2,2,0,0,1-.19-.65,2,2,0,0,0,.19,1.12c.25.53.73,1,.83,1.54A1.48,1.48,0,0,0,72.7,95.4Z" transform="translate(-4.17 -64.22)"/><path d="M74,99.09a.88.88,0,0,0-.14-.75c-.26-.3-.77-.23-1.1-.47a.84.84,0,0,1-.31-.56,1.06,1.06,0,0,0,.31,1c.31.23.84.18,1.1.48A.59.59,0,0,1,74,99.09Z" transform="translate(-4.17 -64.22)"/></g><path class="cls-3" d="M17.84,221.67s-9.79-.59-8.64,6.27a1.67,1.67,0,0,0,.87,1.76s0-.51,1-.34a4.17,4.17,0,0,0,1.06,0,2.21,2.21,0,0,0,1.3-.53h0s2.75-1.14,3.82-5.64c0,0,.79-1,.76-1.23l-1.65.71a3,3,0,0,1,.12,2.18s-.06-2.13-.37-2.09c-.07,0-.86.42-.86.42s1,2.07.23,3.58c0,0,.28-2.56-.54-3.43l-1.16.67s1.14,2.15.36,3.9c0,0,.2-2.68-.6-3.73l-1.06.82s1.07,2.12.42,3.57c0,0-.09-3.13-.65-3.36a6.46,6.46,0,0,0-1.06,1.14s.73,1.54.28,2.35c0,0-.28-2.08-.51-2.09A6.84,6.84,0,0,0,10,229a5,5,0,0,1,.79-2.46,2.9,2.9,0,0,0-1.41.73s.14-1,1.64-1.06a6.77,6.77,0,0,1,1-1.11,6,6,0,0,0-2.38.28,2.67,2.67,0,0,1,2.65-.5l1-.85a8.67,8.67,0,0,0-2.78,0s.95-.81,3.06-.22l1.13-.67a10.43,10.43,0,0,0-2.65-.24,4.07,4.07,0,0,1,3,.05l.82-.37s-1.22-.23-1.58-.27-.38-.14-.38-.14a4.25,4.25,0,0,1,2.29.25A11.07,11.07,0,0,0,17.84,221.67Z" transform="translate(-4.17 -64.22)"/><ellipse class="cls-1" cx="6.93" cy="166.08" rx="6.93" ry="1.17"/><polygon class="cls-14" points="352.48 93.02 343.62 137.43 341.7 137.43 341.49 137.1 340.87 136.15 348.55 94.66 349.71 94.17 352.48 93.02"/><polygon class="cls-7" points="349.71 94.17 341.49 137.1 340.87 136.15 348.55 94.66 349.71 94.17"/><polygon class="cls-14" points="365.82 153.51 363.54 154.24 362.99 154.42 362.26 152.78 349.71 95.57 351.02 95.27 353.76 94.66 365.82 153.51"/><polygon class="cls-7" points="363.54 154.24 362.99 154.42 362.26 152.78 349.71 95.57 351.02 95.27 363.54 154.24"/><polygon class="cls-14" points="257.17 93.02 255.16 150.59 252.85 151.1 252.69 151.13 252.05 149.94 253.33 93.56 254.56 93.39 257.17 93.02"/><polygon class="cls-7" points="254.56 93.39 252.85 151.1 252.69 151.13 252.05 149.94 253.33 93.56 254.56 93.39"/><polygon class="cls-14" points="269.14 170.96 266.76 171.37 266.49 171.42 265.76 169.87 254.15 94.66 254.49 94.56 256.25 94.02 269.14 170.96"/><polygon class="cls-7" points="266.76 171.37 266.49 171.42 265.76 169.87 254.15 94.66 254.49 94.56 266.76 171.37"/><path class="cls-15" d="M323.75,152.58l8.87,11.33a2.91,2.91,0,0,0,2.6,1.09l36.43-4.27a2.88,2.88,0,0,0,2.54-2.86v-8.4Z" transform="translate(-4.17 -64.22)"/><path class="cls-14" d="M353.63,154.4h2.47V158a.92.92,0,0,1-.92.92h-.63a.92.92,0,0,1-.92-.92h0V154.4Z" transform="translate(-4.17 -64.22)"/><path class="cls-15" d="M258.32,159.79l8.87,11.34a2.91,2.91,0,0,0,2.6,1.09L306.22,168a2.88,2.88,0,0,0,2.54-2.86v-8.4Z" transform="translate(-4.17 -64.22)"/><path class="cls-14" d="M288.2,161.62h2.47v3.56a.92.92,0,0,1-.92.92h-.63a.92.92,0,0,1-.92-.92h0v-3.56Z" transform="translate(-4.17 -64.22)"/><path class="cls-14" d="M268.51,165.54l108.35-12.62a1.6,1.6,0,0,0,.54-3L358,140.16a22.34,22.34,0,0,0-12.35-2.27L249.4,147.7a1.84,1.84,0,0,0-1.64,2,1.82,1.82,0,0,0,.51,1.09l11.21,11.5A10.9,10.9,0,0,0,268.51,165.54Z" transform="translate(-4.17 -64.22)"/><path class="cls-14" d="M388.78,151.21l-1.16-.65s-1.25.93-2.27,4.81,1.91,0,1.91,0l1.28-2.65Z" transform="translate(-4.17 -64.22)"/><path class="cls-14" d="M376.38,186.75s-1.18,5.58-1.73,7.13c-.27.76-1.57,1.46-3,2a20.39,20.39,0,0,1-3.94,1c-1.55.18-21.47-2.93-31.16-5-6.52-1.42-7.37-3-7.22-4a1.23,1.23,0,0,1,.37-.71s9.59-6.49,13-9.6,10.06-.64,17.37.64S376.38,186.75,376.38,186.75Z" transform="translate(-4.17 -64.22)"/><path class="cls-14" d="M387.62,150.56s4.48,2.93-10.6,9c0,0-8.19,4.62-7.12,23.66a5.28,5.28,0,0,0,.75,2.41c1.56,2.56,4.89,9-.66,9.84v1.47s10.05-5,11.15-9.33,4.75-28.14,6.58-30.33S390.73,151.57,387.62,150.56Z" transform="translate(-4.17 -64.22)"/><path class="cls-7" d="M371.64,195.87a20.39,20.39,0,0,1-3.94,1c-1.55.18-21.47-2.93-31.16-5-6.52-1.42-7.37-3-7.22-4,4.29,1.47,18.22,6.12,23.21,6.51,5.94.45,17.29,1.73,18.15.86C371,195,371.35,195.31,371.64,195.87Z" transform="translate(-4.17 -64.22)"/><path class="cls-14" d="M319.45,233.9l8.68-39.65s1.56-4.21,5.12-4l3.29,1.65s-5.48-1.28-6.67,2.92-8.77,39.11-8.77,39.11Z" transform="translate(-4.17 -64.22)"/><polygon class="cls-14" points="336.12 151.59 339.59 127.37 341.15 127.37 337.58 151.59 336.12 151.59"/><path class="cls-14" d="M373.55,239.48l-3.29-37.83s0-3.2,1.65-4.75,6.95-6,6.95-6,1.36-.32,2.46,2.79S390,227.87,390,227.87l-1.46.64-9.41-35.82-6.49,6.12a6.44,6.44,0,0,0-.64,4.39c.64,2.1,3,36.28,3,36.28Z" transform="translate(-4.17 -64.22)"/><polygon class="cls-14" points="359.24 131.76 367.47 134.14 369.29 132.4 364.54 131.76 359.24 131.76"/><path class="cls-15" d="M290.29,129.28l1.34,20,29.15-2.84-1.16-19.55a2,2,0,0,0-2.08-1.85h-.05l-25.4,2.13A2,2,0,0,0,290.29,129.28Z" transform="translate(-4.17 -64.22)"/><polygon class="cls-15" points="326.39 87.99 297.33 91.16 296.23 91.28 287.74 85.8 287.74 84.61 316.61 82.01 326.39 87.99"/><polygon class="cls-7" points="297.33 91.16 296.23 91.28 287.74 85.8 287.74 84.73 297.33 91.16"/><polygon class="cls-16" points="288.1 64.87 289.11 82.69 314.69 80.31 313.78 62.95 288.1 64.87"/><polygon class="cls-7" points="303.36 87.62 306.47 89.72 315.88 88.81 312.68 86.8 303.36 87.62"/><polygon class="cls-16" points="290.66 85.06 294.59 87.99 319.72 85.61 315.24 82.69 290.66 85.06"/><rect class="cls-17" x="335.25" y="58.06" width="18.55" height="18.55"/><rect class="cls-7" x="335.25" y="58.06" width="18.55" height="18.55"/><path class="cls-18" d="M345.81,130.87s2.62,7.08,0,8.39,9.38,0,9.38,0l3.38-2.72s-7.64-2.18-6.55-7.2S345.81,130.87,345.81,130.87Z" transform="translate(-4.17 -64.22)"/><path class="cls-7" d="M345.81,130.87s2.62,7.08,0,8.39,9.38,0,9.38,0l3.38-2.72s-7.64-2.18-6.55-7.2S345.81,130.87,345.81,130.87Z" transform="translate(-4.17 -64.22)"/><path class="cls-18" d="M324.33,202s9.81,13.85,8.18,17.66-.77,6.22-4,7.53-4.14,3.7-1.31,3.59,6.55-.87,7.09-1.85,1.85-5.67,3.71-6.32,5.34-3.17,2.83-6.22-8.82-14.3-8.34-15.43S324.33,202,324.33,202Z" transform="translate(-4.17 -64.22)"/><path class="cls-16" d="M344.83,174.59s-20.28,1.31-25.52,6.22S323.89,204,325,204.25s9.6-.66,9.27-3.05-6.1-12.22-6.1-12.22a88.56,88.56,0,0,1,11.66-3.38c4.15-.65,8.72-3.7,8.72-3.7Z" transform="translate(-4.17 -64.22)"/><path class="cls-18" d="M335.56,171.54s.33,12.1,3.38,12.54,0-9.27,0-9.27l-.11-3.71Z" transform="translate(-4.17 -64.22)"/><path class="cls-3" d="M344.83,139.81s-5.67-1.64-6.76,2.72-1.42,19.41-1.42,19.41l-2,12s3.6-1.09,4.36-.55l4.58-5.78Z" transform="translate(-4.17 -64.22)"/><path class="cls-7" d="M344.83,139.81s-5.67-1.64-6.76,2.72-1.42,19.41-1.42,19.41l-2,12s3.6-1.09,4.36-.55l4.58-5.78Z" transform="translate(-4.17 -64.22)"/><path class="cls-18" d="M352.57,204.28s3.82,7.49,6.11,7.38,4.47-1.52,5.56,3-.22,3.27,1.09,5.88,1.52,7.2-1,8.29-4.8,1.2-4.91,0,2.18-1.2-.44-5.45-8.18-12-10.47-12.76S352.57,204.28,352.57,204.28Z" transform="translate(-4.17 -64.22)"/><path class="cls-16" d="M362.49,170.12s7.85,13.08,2.73,16.9-20.39,11.12-20.39,11.12,8.18,5.56,8.61,7.42-3.92,6.87-5.45,7-6-5-10.79-6.32-7.75-10.68-2.51-14.17a58.64,58.64,0,0,0,10.14-9.27l-1.53-8.4Z" transform="translate(-4.17 -64.22)"/><path class="cls-18" d="M355.69,126.49c0,4.63-4.75,8.47-9.39,8.47a8.4,8.4,0,0,1,0-16.8C350.94,118.16,355.69,121.85,355.69,126.49Z" transform="translate(-4.17 -64.22)"/><path class="cls-3" d="M348.43,138.61s7.52-3.27,7.52-3.71,4.36,1,5.34,1.86,1.53.76,2.18,2.5-3.27,18-3.27,18,2.18,12.54,3.38,13.74-9.7,2.95-9.7,2.95-7.2,1.3-8.4,1.85-3.38,1.31-2.94,0,2.29-2.29-.87-3.93c0,0,1.09-5.34,0-7.74s-6.11-11.12-2.08-17.44,5.89-8.62,5.89-8.62A3.09,3.09,0,0,0,348.43,138.61Z" transform="translate(-4.17 -64.22)"/><path class="cls-18" d="M350.82,168.38s-8.5,3.77-11.06,4.12-10.31,2.31-6.05,4.05,10.68-.87,10.68-.87l9.05-3.82Z" transform="translate(-4.17 -64.22)"/><path class="cls-7" d="M360,138.27s3.14-1.51,4,3.83,3.93,22.24,0,24.75-13,6.54-13,6.54-5.34-3.6-2.84-4.91,8.51-5,9.38-6.32,1.75-15.91.23-18.31S360,138.27,360,138.27Z" transform="translate(-4.17 -64.22)"/><path class="cls-3" d="M359.77,137s4.36-.21,5.23,5.13,3.92,22.24,0,24.75a140.39,140.39,0,0,1-13,6.54s-5.34-3.6-2.83-4.91,8.5-5,9.38-6.32-.66-14.94-2.18-17.34S359.77,137,359.77,137Z" transform="translate(-4.17 -64.22)"/><path class="cls-17" d="M344.23,112.43a4.52,4.52,0,0,0-3.45,1.84,16.51,16.51,0,0,0-.69,1.86c-.7,1.68-2.4,2.69-3.63,4a6.38,6.38,0,0,0-1.45,6.59,26.9,26.9,0,0,0,1.41,2.37c1.26,2.24,1.32,4.93,1.36,7.5l.07,5a7.31,7.31,0,0,1-.21,2.29,2.44,2.44,0,0,1-1.49,1.66,3.86,3.86,0,0,0,4.49-1.53,3.94,3.94,0,0,1-1.21,3.49,7.76,7.76,0,0,0,4.73-3.69,14.23,14.23,0,0,0,1.77-5.85,7.65,7.65,0,0,0-.18-3.23,10.34,10.34,0,0,0-1.06-2,15.51,15.51,0,0,1-2.28-5.42,7,7,0,0,1,1.26-5.59,5,5,0,0,1,4-1.83,4.45,4.45,0,0,1,3.71,2.27c.29.55.7,1.29,1.29,1.1l.32-.16c.66-.3,1.41.29,1.7,1,.92,2.09-.77,4.37-.94,6.65-.17,2.12,1,4.12,2.43,5.7a18.74,18.74,0,0,0,9.16,5.63,2.61,2.61,0,0,1-1.33-.82,18.16,18.16,0,0,0,4.29-.36,29,29,0,0,1-4.36-3.76,9.85,9.85,0,0,1-2.57-5.06c-.37-2.55.58-5.32-.51-7.65-1-2.14-3.46-3.34-4.36-5.51s-1.5-4.14-3.92-5.1A16.66,16.66,0,0,0,344.23,112.43Z" transform="translate(-4.17 -64.22)"/></svg>