<svg id="Layer_1" data-name="Layer 1" xmlns="http://www.w3.org/2000/svg" viewBox="0 0 305.61 267.99"><defs><style>.cls-1{fill:#3f3d56;}.cls-2{fill:#6c63ff;}.cls-3{fill:#fff;}.cls-4{fill:#2f2e41;}.cls-5{fill:#9f616a;}.cls-6{opacity:0.1;isolation:isolate;}.cls-7{fill:#d0cde1;}</style></defs><title>what-4</title><ellipse class="cls-1" cx="170.42" cy="248.4" rx="110.89" ry="19.59"/><path class="cls-2" d="M131,140.62a52.78,52.78,0,1,0-24.5,19.68A17.08,17.08,0,1,0,131,140.62Z" transform="translate(-34.39 -19.06)"/><rect class="cls-3" x="21.35" y="81.53" width="62.81" height="4.96"/><rect class="cls-3" x="21.35" y="89.79" width="62.81" height="4.96"/><rect class="cls-3" x="21.35" y="98.06" width="62.81" height="4.96"/><path class="cls-2" d="M243.38,101.35A52.8,52.8,0,1,1,267.88,121a17.08,17.08,0,1,1-24.5-19.67Z" transform="translate(-34.39 -19.06)"/><rect class="cls-3" x="221.45" y="42.25" width="62.81" height="4.96"/><rect class="cls-3" x="221.45" y="50.51" width="62.81" height="4.96"/><rect class="cls-3" x="221.45" y="58.78" width="62.81" height="4.96"/><path class="cls-2" d="M151.69,245.87a29.46,29.46,0,1,1,13.67,11,9.53,9.53,0,1,1-13.67-11Z" transform="translate(-34.39 -19.06)"/><circle class="cls-3" cx="130.18" cy="209.68" r="3.41"/><circle class="cls-3" cx="141.82" cy="209.68" r="3.41"/><circle class="cls-3" cx="153.46" cy="209.68" r="3.41"/><path class="cls-4" d="M179.62,122.91s15.23.42,17.74,1.33S201,131.7,201,131.7l-11.82,3.71-8.84-.5-6.65.47,3.71-9.73Z" transform="translate(-34.39 -19.06)"/><path class="cls-5" d="M180.28,117.92s1,3.87-1.22,6.61S188.61,137,188.61,137l6.22-1.06s-1.37-11.89.47-14.9S180.28,117.92,180.28,117.92Z" transform="translate(-34.39 -19.06)"/><path class="cls-6" d="M180.28,117.92s1,3.87-1.22,6.61S188.61,137,188.61,137l6.22-1.06s-1.37-11.89.47-14.9S180.28,117.92,180.28,117.92Z" transform="translate(-34.39 -19.06)"/><polygon class="cls-5" points="187.21 211.94 173.5 230.12 182.86 235.59 195.73 214.52 187.21 211.94"/><path class="cls-4" d="M212,249.49s-5.05-5.86-4.83-4.55-3.59,12.4,0,13.47,34,3.92,34.42.48-9.08-5.84-9.08-5.84-5.65-5.43-6.9-4.88S212,249.49,212,249.49Z" transform="translate(-34.39 -19.06)"/><polygon class="cls-5" points="184.13 229.31 195.08 247.96 203.35 243.17 192.31 227.9 184.13 229.31"/><path class="cls-4" d="M235.81,204l-3.25,4.6s-15.49,21.51-13.84,23.25,8.49,8.3,12,7,15.86-23.26,15.86-23.26l-3.23-12.91Z" transform="translate(-34.39 -19.06)"/><path class="cls-4" d="M169.08,199.64a19.68,19.68,0,0,0,12.26,8.66c8.79,2.19,18,6.67,18.31,6.62s1.25-.55,1.47.75,2.64,3.59,2.64,3.59,9.71,33,13.42,33,11.34-2.62,11.49-3.65-11.35-34.75-11.47-35.4l-1.35-7.85s15.24,2.43,16.66,2.86,14.05,7.35,14.05,7.35,12.88-9.29.84-18.66-32.76-16.26-32.76-16.26l-7.43-2.08-6.48-.39-.95-3.66-15.33.89-16,6.79Z" transform="translate(-34.39 -19.06)"/><circle class="cls-5" cx="154.92" cy="94.61" r="11.94"/><path class="cls-7" d="M178.51,123.27l1.43-.24s2.6,10,10.63,11.64c0,0,4-4.75,3.79-5.55s3.14-5.07,4.89-2.68-.43,44.52,1.05,45.27,4.65,1.56,2.1,4.36-12.68,6.55-14.92,5.25-6.83-12.29-8.81-16-5.16-16.28-5.16-16.28-4-13.78-1.56-16.91S178.51,123.27,178.51,123.27Z" transform="translate(-34.39 -19.06)"/><path class="cls-4" d="M189.94,175.13a67.31,67.31,0,0,1-1.37,8.72c-.58,2.34-1.27,3.76-2,3.7-2-.15-2.89,2.76-3.36,6.12-.5,3.56-.5,7.63-.77,9.06-.36,1.9-2.67,3.35-7.29,2.92a32.2,32.2,0,0,1-8-2c-6.24-2.26-6.05-20.65-5-34.29.64-8.36,1.6-14.95,1.6-14.95a73.23,73.23,0,0,1-2.5-9.52,12.7,12.7,0,0,1-.18-2.14c.09-3.38,6.26-12.52,10-18.21s8.83-1.52,8.83-1.52L178,128.4s2.75,4.24,2.77,8.28,6.58,6.95,8.94,8.9C191.23,146.81,191.19,163.2,189.94,175.13Z" transform="translate(-34.39 -19.06)"/><path class="cls-4" d="M195.13,125s.43.51,2.4.26c2.36-.29,5.61.52,6.37,2.78,1.38,4.14,5.29,21,5.29,21s1.62,19.25,2.35,23.5.37,8,1.09,10.25-7.11-4.16-10-3.33-4.74-10-4.38-13.72.67-7.86-.33-11.73.77-14.1.71-16.45S192.26,129.24,195.13,125Z" transform="translate(-34.39 -19.06)"/><path class="cls-5" d="M203.58,184.78s12.65,6.9,13.86,16.72-16.92-9.5-16.92-9.5Z" transform="translate(-34.39 -19.06)"/><path class="cls-5" d="M210.8,177.82s3.87,19.53,9.91,18.5-3.37-19.62-3.37-19.62Z" transform="translate(-34.39 -19.06)"/><path class="cls-4" d="M231.47,263s-3.09,3.56-3.85,3-2.53,6.83-.94,8.24,7.71,3.73,7.77,6.07,16.49,1.88,17.07-.58-2.06-8.06-3.92-9.09-8.73-10.48-8.73-10.48S233.48,261,231.47,263Z" transform="translate(-34.39 -19.06)"/><path class="cls-6" d="M201.56,196.73c-2.93-2.07-11.12-2.58-18.39-3.06-3.19-.21-6.2-.41-8.52-.73s-4.23-2.35-6-5.39c-2.7-4.6-4.88-11.5-6.56-18.16.64-8.36,1.6-14.95,1.6-14.95a73.23,73.23,0,0,1-2.5-9.52,5,5,0,0,1,1.61-1.45c7.71-3.31,15.07,29.27,16,34.38a2.23,2.23,0,0,1,0,.23c.45,2.63,5.35,4.88,9.74,5.77,2.71.55,5.22.59,6.38-.12,3.05-1.87,12.41,5.61,13.12,5.82S205.78,199.71,201.56,196.73Z" transform="translate(-34.39 -19.06)"/><path class="cls-4" d="M162.78,141.46s-5.6,2.65-3.14,15,7.42,33.4,15,34.45,22.7.82,26.91,3.8,7.22-7,6.51-7.18S198,179.85,195,181.72s-15.39-1.39-16.12-5.64S170.62,138.1,162.78,141.46Z" transform="translate(-34.39 -19.06)"/><path class="cls-4" d="M203.17,135.53l6.16,14.3s.62-.31,1.34,1.92,1.06,4.19,2.32,5.66,6.88,22.39,7,23.37-7.76,4.36-9.53,1.63S203.17,135.53,203.17,135.53Z" transform="translate(-34.39 -19.06)"/><path class="cls-4" d="M182.52,113.51c.46-.13.52-.73.54-1.21.08-2.53,1.61-5.14,4-5.87a6.73,6.73,0,0,1,2.86-.16,10.86,10.86,0,0,1,3.87,1.29,5.74,5.74,0,0,0,2,.89c.47.08,2.53.67,3,.76,1,.18,2,1.11,3,.76s1.17-1.56,1.19-2.57c.05-2.29-1.69-5.47-3.23-7.18a8,8,0,0,0-4.63-2.2,30.71,30.71,0,0,0-6.06-.37,19.19,19.19,0,0,0-8,1.45c-2.47,1.19-4.55,3.55-4.67,6.29,0,.57,0,1.14,0,1.71a25.16,25.16,0,0,1-1.21,4,7.32,7.32,0,0,0,1,5.84c.91,1.35,2.36,2.57,2.3,4.2l2-2.06a1.63,1.63,0,0,0,.49-2l-.7-2.74a2.43,2.43,0,0,1-.07-1.53C180.94,110.94,181.76,113.71,182.52,113.51Z" transform="translate(-34.39 -19.06)"/><path class="cls-1" d="M273,250.94c-.09-.14-2-3.39-2.7-10.13-.62-6.19-.23-16.61,5.18-31.16,10.25-27.56-2.36-49.8-2.49-50l.62-.36A54.92,54.92,0,0,1,278.8,174a64.37,64.37,0,0,1-2.66,35.88c-10.23,27.51-2.63,40.53-2.55,40.66Z" transform="translate(-34.39 -19.06)"/><circle class="cls-2" cx="234.58" cy="134.28" r="4.67"/><circle class="cls-1" cx="249.32" cy="151.53" r="4.67"/><circle class="cls-2" cx="239.25" cy="163.03" r="4.67"/><circle class="cls-2" cx="251.47" cy="172.74" r="4.67"/><circle class="cls-1" cx="235.66" cy="187.83" r="4.67"/><path class="cls-1" d="M275.8,251.11s-4.67-11.5,9.35-20.13Z" transform="translate(-34.39 -19.06)"/><path class="cls-1" d="M270.05,250.9s-2.12-12.23-18.58-12.13Z" transform="translate(-34.39 -19.06)"/></svg>