<svg id="Layer_1" data-name="Layer 1" xmlns="http://www.w3.org/2000/svg" xmlns:xlink="http://www.w3.org/1999/xlink" viewBox="0 0 370 253.9"><defs><style>.cls-1,.cls-2{fill:#6c63ff;}.cls-1,.cls-6{opacity:0.1;}.cls-1,.cls-12,.cls-6{isolation:isolate;}.cls-3{fill:#fc6681;}.cls-4{fill:url(#linear-gradient);}.cls-5{fill:#e2e2ec;}.cls-7{fill:#f1f2fb;}.cls-8{fill:#e8eaf8;}.cls-9{fill:url(#linear-gradient-2);}.cls-10{fill:#fdc2cc;}.cls-11{fill:#5f5d7e;}.cls-12{opacity:0.15;}.cls-13{fill:#d39999;}.cls-14{fill:#865a61;}</style><linearGradient id="linear-gradient" x1="260.75" y1="-1.66" x2="260.75" y2="179.4" gradientTransform="matrix(1, 0, 0, -1, -60.75, 242.18)" gradientUnits="userSpaceOnUse"><stop offset="0" stop-color="gray" stop-opacity="0.25"/><stop offset="0.54" stop-color="gray" stop-opacity="0.12"/><stop offset="1" stop-color="gray" stop-opacity="0.1"/></linearGradient><linearGradient id="linear-gradient-2" x1="1418.9" y1="-30.48" x2="1418.9" y2="190.66" gradientTransform="translate(1708.25 242.18) rotate(180)" xlink:href="#linear-gradient"/></defs><title>why-2</title><path class="cls-1" d="M334.37,169.23c-11.7,19.13-9.63,45.12-4.61,65.61,1.67,6.86,3.61,14.09,2.12,21.78-1.83,9.4-8.36,16.81-15,21.05-12,7.74-25.75,7.58-35.68-.41-8.59-6.9-14.22-19-23-25.5-14.69-10.93-34.92-4.18-52.51,6.17-12.45,7.32-26.16,16.59-37.6,11.43-8.06-3.64-13-14-15.35-25.22-1.11-5.43-1.77-11.36-4.35-15.5a17.07,17.07,0,0,0-5.86-5.43c-20.07-12.24-47.34-1.82-66.69-15.69-13.07-9.37-20.44-28.8-22.8-49.6s-.27-43.08,2.33-65c1.86-15.59,4.36-32.28,12.47-45,8.58-13.45,22-19.49,33.71-18.29s21.78,8.69,30.48,17.84C143,58.89,152.74,73.51,166.86,77.15c9.61,2.48,20.14-.48,30.38-2.18,17.11-2.83,34-2.11,50.69-1.15,16,.92,32.14,2.1,47,7.76,10.55,4,18.62,12.42,28.46,17.87,6.41,3.55,13.66,4,19.63,8.72a30.05,30.05,0,0,1,10.68,30.4C350.87,151.63,340.58,159.07,334.37,169.23Z" transform="translate(-15 -29.47)"/><path class="cls-2" d="M338.91,117.75c-3.52,2.37-18,2.89-18,2.89s5.9-13.25,9.42-15.63a7.69,7.69,0,0,1,8.6,12.74Z" transform="translate(-15 -29.47)"/><path class="cls-2" d="M303.58,127.47c3.3,2.67,17.7,4.43,17.7,4.43s-4.74-13.72-8-16.38a7.68,7.68,0,0,0-9.66,12Z" transform="translate(-15 -29.47)"/><path class="cls-3" d="M338.91,117.75c-3.52,2.37-18,2.89-18,2.89s5.9-13.25,9.42-15.63a7.69,7.69,0,0,1,8.6,12.74Z" transform="translate(-15 -29.47)"/><path class="cls-3" d="M303.58,127.47c3.3,2.67,17.7,4.43,17.7,4.43s-4.74-13.72-8-16.38a7.68,7.68,0,0,0-9.66,12Z" transform="translate(-15 -29.47)"/><path class="cls-4" d="M385,237.2,354.94,105H343.78c-.45-5-.75-10-.86-14.56,0,0-40.48,8.86-72.77-16.77s-70.23,2.22-70.23,2.22l-.15-.11v0c-2.63-1.87-39-26.79-70.08-2.11C97.42,99.27,56.93,90.41,56.93,90.41c-.12,4.67-.42,9.61-.87,14.71H45.69L15,237.67s124.77,4.68,168.5.37c1.57,3.31,8.32,5.8,16.42,5.8,9.1,0,16.5-3.14,16.76-7.06C250.71,239.37,324,243.51,385,237.2Z" transform="translate(-15 -29.47)"/><path class="cls-5" d="M48.91,106.11l-30,129.8s165.42,6.2,178.74-2.48c0,0,102.69,10.38,183.54,2L351.71,106Z" transform="translate(-15 -29.47)"/><path class="cls-6" d="M59.13,110.6l-28,121s154.22,5.78,166.64-2.31c0,0,95.74,9.67,171.12,1.88L341.43,110.45Z" transform="translate(-15 -29.47)"/><path class="cls-7" d="M339.94,91.71s-39.65,8.68-71.25-16.42-68.77,2.17-68.77,2.17-37.17-27.26-68.77-2.17S59.9,91.71,59.9,91.71C58.66,142.21,35.12,224,35.12,224s43.37,11.77,100.68-12.08,64.12,8.36,64.12,8.36,6.82-32.22,64.13-8.36S364.72,224,364.72,224,341.18,142.21,339.94,91.71Z" transform="translate(-15 -29.47)"/><path class="cls-6" d="M123.41,221.21s52.35-11.77,76.5,5.57c0,0,23.24-21.06,77.14-4.64" transform="translate(-15 -29.47)"/><ellipse class="cls-8" cx="184.92" cy="205.36" rx="16.42" ry="7.13"/><path class="cls-6" d="M199.77,77.31s11.77,59.78.31,144" transform="translate(-15 -29.47)"/><path class="cls-9" d="M268.21,138.08s.08.49.23,1.37l-.23.41c-2.81,4.73-3.25,11.55-3,17.15a56.15,56.15,0,0,0,2.35,13.31A62.5,62.5,0,0,1,270,187.61a12.49,12.49,0,0,0,3.93,2.87l.23.69a71,71,0,0,1,2.62,13.24l.88,11.21s6.78,25.36,8.84,30.08c1.47,3.35,1.15,10.29.84,14-.88,2.5-1.95,4.88-2.9,5.14-1.72.49-3.43,4.62-.93,6.7h0a3.73,3.73,0,0,0,.6.41l.1.05.18.09.27.12.13.06.29.09.12,0,.42.11a7.46,7.46,0,0,0,5.09-.81,10.23,10.23,0,0,0,4.8-2.31l0,1.79h2.06l-.1-3.57c.37-.41.58-.69.58-.69s.06-2.15.3-4.66l-.15,8.05h2l-.55-14.87a2.21,2.21,0,0,1,.41-.6c1.71-1.72-1.25-7.25-2.79-8.18.69-3.63,3.31-8.89,6.33-18.95,4.42-14.76-1.18-29.2-1.18-29.2V187.2c1.48-.64,2.36-1.07,2.36-1.07s-2.06-12.09,0-20.64c1.33-5.53,1.68-10.44.56-15.13,1.49-5.11,2.68-9.05,2.68-9.05l2.06-21.23c.53-3.19.88-5.91,1.11-8.23,0-.29.06-.58.07-.87a43,43,0,0,0,.05-9.09,15.22,15.22,0,0,0,.13-2.61,12.18,12.18,0,0,0,.05-1.35c.3-.34.58-.69.86-1a15.06,15.06,0,0,0,1.85-3c2.27-4.28,2.33-9.5-.84-13.27-1.94-2.33-2.55-4.83-4.24-7.3-1.54-2.27-1.83-5-2.2-7.59A93.07,93.07,0,0,0,305,56.16c-.23-.93-1.53-1.5-2.17-2.28-1.25-1.5-4.89-1.45-7-1.78-3.52-.56-7.33-1.08-10.54.3-2.23,1-3.83,2.72-5.57,4.27s-5.72,2.46-6.32,4.46c-.53.76-.56,1.71.34,3a14.64,14.64,0,0,0,3.53,3c.16.11.32.24.48.34a12.52,12.52,0,0,0,6.81,13.25c0,.23-.07.45-.12.66A38.34,38.34,0,0,1,283,87.07c-.38,1.14-4.78,3.13-7.89,4.4a4,4,0,0,0-1.26-.87c-2.36-.59-10.32,3.84-10.91,5.31-.16.41.27,1.55,1,3a10.49,10.49,0,0,0,.31,1.93c-.17,3,.15,7.89,1.67,15.72Zm33.11,3.32-.35-.65c-3.27-6.62-5.22-17.33-.53-23.72.42,0,.84.09,1.26.11.28,8.7.12,23,.12,23l-.5,1.27Zm-11.7,50.49c.67,3.34,1.45,7.23,2.18,10.76a28.32,28.32,0,0,1-.17,12.46l-2.78-8.31-.64-14.63,0-.6,1.33-.25Z" transform="translate(-15 -29.47)"/><path class="cls-10" d="M291.76,202a27.72,27.72,0,0,1-.17,12.26,15.78,15.78,0,0,1-.68,2.25l.78,31.8.09,3.61a18.06,18.06,0,0,0,2.19.32,10.13,10.13,0,0,0,2.06,0,2.44,2.44,0,0,0,1.61-.69c.33-.39.4-1-.06-1.95a5.79,5.79,0,0,1-.56-3.28c0-.31.08-.64.14-1,.69-3.58,3.25-8.75,6.22-18.66,4.36-14.51-1.16-28.73-1.16-28.73V184.6L288,183.15s.69,3.6,1.63,8.27C290.27,194.71,291,198.54,291.76,202Z" transform="translate(-15 -29.47)"/><path class="cls-6" d="M291.76,202a27.72,27.72,0,0,1-.17,12.26,15.78,15.78,0,0,1-.68,2.25l.78,31.8.09,3.61a18.06,18.06,0,0,0,2.19.32,10.13,10.13,0,0,0,2.06,0,2.44,2.44,0,0,0,1.61-.69c.33-.39.4-1-.06-1.95a5.79,5.79,0,0,1-.56-3.28c0-.31.08-.64.14-1,.69-3.58,3.25-8.75,6.22-18.66,4.36-14.51-1.16-28.73-1.16-28.73V184.6L288,183.15s.69,3.6,1.63,8.27C290.27,194.71,291,198.54,291.76,202Z" transform="translate(-15 -29.47)"/><path class="cls-10" d="M272,184.6a43.21,43.21,0,0,1,2.36,6.12,68.89,68.89,0,0,1,2.58,13l.87,11s6.67,25,8.71,29.61c1.44,3.3,1.12,10.13.82,13.8-.12,1.49-.24,2.45-.24,2.45l3-3.62,3.88-4.76,1.77-2.17.38-.48a18.65,18.65,0,0,1-1.13-3h0a50.84,50.84,0,0,1-1.76-9.72c-.88-9-1.16-21.19-1.16-21.19l-.46-1.37-2.75-8.2-.63-14.41-.24-5.34Z" transform="translate(-15 -29.47)"/><path class="cls-11" d="M294.47,247.21A20.81,20.81,0,0,0,291,254c-.92,3.14-2.54,8-3.9,8.35-2,.58-4.07,6.39,1.16,7.55s9.57-4.65,9.57-4.65.3-10.15,2-11.89-1.45-7.55-2.9-8.13C296.4,245,295.42,246,294.47,247.21Z" transform="translate(-15 -29.47)"/><path class="cls-6" d="M286.54,269.06a7,7,0,0,0,4.07-.37,9.1,9.1,0,0,0,5.7-7.83c.25-3.11.77-7.28,1.83-8.34,1.37-1.38-.34-5.29-1.82-7.16a.81.81,0,0,1,.66-.1c1.45.58,4.64,6.38,2.9,8.13s-2,11.89-2,11.89-4.35,5.81-9.57,4.64a4.76,4.76,0,0,1-2.08-.95Z" transform="translate(-15 -29.47)"/><path class="cls-11" d="M299.47,253.63l.56,15h-2l.28-15a.57.57,0,0,1,.6-.54h0A.57.57,0,0,1,299.47,253.63Z" transform="translate(-15 -29.47)"/><path class="cls-12" d="M299.47,253.63l.56,15h-2l.28-15a.57.57,0,0,1,.6-.54h0A.57.57,0,0,1,299.47,253.63Z" transform="translate(-15 -29.47)"/><path class="cls-11" d="M291.86,248.08a20.81,20.81,0,0,0-3.45,6.82c-.92,3.14-2.54,8-3.91,8.35-2,.58-4.06,6.39,1.16,7.55s9.58-4.65,9.58-4.65.29-10.16,2-11.9-1.45-7.55-2.9-8.13C293.78,245.91,292.81,246.86,291.86,248.08Z" transform="translate(-15 -29.47)"/><path class="cls-6" d="M283.92,269.92a6.94,6.94,0,0,0,4.08-.37,9.1,9.1,0,0,0,5.7-7.82c.25-3.11.77-7.29,1.83-8.35,1.37-1.37-.34-5.28-1.82-7.15a.82.82,0,0,1,.66-.11c1.45.58,4.64,6.39,2.9,8.13s-2,11.9-2,11.9-4.35,5.8-9.58,4.64a4.67,4.67,0,0,1-2.07-1Z" transform="translate(-15 -29.47)"/><path class="cls-11" d="M296.86,254.48l.56,15h-2.05l.28-15a.59.59,0,0,1,.6-.55h0A.57.57,0,0,1,296.86,254.48Z" transform="translate(-15 -29.47)"/><path class="cls-12" d="M296.86,254.48l.56,15h-2.05l.28-15a.59.59,0,0,1,.6-.55h0A.57.57,0,0,1,296.86,254.48Z" transform="translate(-15 -29.47)"/><path class="cls-10" d="M272.32,93.76l11.6,18.29,13.65,1.74s8.41-16.54,8.12-17.41-4.64-2.61-8.7-5.81.87-16.54.87-16.54l-13.35,1.16c.05.18.1.34.14.54a17.35,17.35,0,0,1-.07,7,38.12,38.12,0,0,1-1.53,5.56C282.47,90,272.32,93.76,272.32,93.76Z" transform="translate(-15 -29.47)"/><path class="cls-6" d="M288,183.15s.68,3.6,1.63,8.27a66.87,66.87,0,0,0,12.59-4v-2.8Z" transform="translate(-15 -29.47)"/><path class="cls-6" d="M272,184.6a43.21,43.21,0,0,1,2.36,6.12c4,1.82,9.06,1.77,13.84,1l-.24-5.34Z" transform="translate(-15 -29.47)"/><path class="cls-13" d="M268.54,140.2c-2.77,4.66-3.19,11.37-2.93,16.9a55.08,55.08,0,0,0,2.32,13.1,61.19,61.19,0,0,1,2.36,17c9.87,10.73,34.25-1.46,34.25-1.46s-2-11.89,0-20.31c1.41-5.85,1.72-11,.28-15.95a25.11,25.11,0,0,0-2.89-6.4c-.38-.61-.76-1.29-1.12-2-3.36-6.8-5.3-18,.1-24.13a11.85,11.85,0,0,1,1.89-1.72c4.71-3.41,6.86-7.2,7.77-10.41a14.11,14.11,0,0,0,.34-6.13c-.58-3.19-8.71-6.1-8.71-6.1.3,9.58-11.89,17.71-11.89,17.71s-13.94-18-16.26-18.58S263.9,95.51,263.32,97s6.38,12.19,6.38,12.19S274.06,130.91,268.54,140.2Z" transform="translate(-15 -29.47)"/><path class="cls-6" d="M302.79,115.24c4.71-3.41,6.86-7.2,7.77-10.41-.23-4.81-1.37-5.55-1.37-5.55s-9.59,9.28-8.72,12.49a32.92,32.92,0,0,1,.43,5.2A11.07,11.07,0,0,1,302.79,115.24Z" transform="translate(-15 -29.47)"/><path class="cls-6" d="M286.54,181.41c2,6.1,12.18-4.64,12.48-9.29.18-3,3.46-14.61,5.79-22.62a25.11,25.11,0,0,0-2.89-6.4,20.85,20.85,0,0,1-1.12-2c-1.1,2.71-5.52,13.81-5.27,17.11.3,3.77-1.74,9.28-1.74,9.28S284.5,175.31,286.54,181.41Z" transform="translate(-15 -29.47)"/><path class="cls-10" d="M309.75,99.28s3.2,2,0,21.47l-2,20.9s-7.83,25.83-8.12,30.47-10.45,15.38-12.48,9.29,7.25-13.93,7.25-13.93,2-5.51,1.74-9.29,5.52-17.7,5.52-17.7.29-25.54-.58-28.73S309.75,99.28,309.75,99.28Z" transform="translate(-15 -29.47)"/><path class="cls-6" d="M266.8,97s-3.77.88,0,20.32l2.32,21.19s5.23,30.47,4.94,34,11.32,12.48,12.19,7.55-5.81-13.06-5.81-13.06-2.91-6.4-2.91-18.3L277,139,272.9,104.5Z" transform="translate(-15 -29.47)"/><path class="cls-10" d="M266.21,97s-3.77.88,0,20.32l2.32,21.19s5.23,30.47,4.94,34,11.32,12.48,12.19,7.55-5.81-13.06-5.81-13.06-2.9-6.38-2.9-18.29l-.58-9.57-4.05-34.55Z" transform="translate(-15 -29.47)"/><path class="cls-6" d="M264.34,98s-1.75,9.29,10.44,12.48-1.45-11-1.45-11S268.69,92.46,264.34,98Z" transform="translate(-15 -29.47)"/><path class="cls-13" d="M264.62,97.68s-1.74,9.29,10.45,12.48-1.45-11-1.45-11S269,92.17,264.62,97.68Z" transform="translate(-15 -29.47)"/><path class="cls-6" d="M311.06,98s1.74,9.29-10.44,12.48,1.44-11,1.44-11S306.69,92.46,311.06,98Z" transform="translate(-15 -29.47)"/><path class="cls-13" d="M310.77,97.68s1.76,9.29-10.45,12.48,1.45-11,1.45-11S306.42,92.17,310.77,97.68Z" transform="translate(-15 -29.47)"/><path class="cls-6" d="M284.58,82.68c1.61.47,3.4-3.28,5.29-3.28s3.9,4,5.58,3.16a48.81,48.81,0,0,1,2.12-8l-12.92,1.14A17.2,17.2,0,0,1,284.58,82.68Z" transform="translate(-15 -29.47)"/><circle class="cls-10" cx="275.17" cy="41.51" r="12.33"/><path class="cls-6" d="M274.05,65.66a14.79,14.79,0,0,0,3.47,3,38.62,38.62,0,0,1,4.39,3.69,12.88,12.88,0,0,1,2.46,3,13.94,13.94,0,0,1,1.23,5.9L286.8,102a13.26,13.26,0,0,1-.2,4.12,14,14,0,0,1-1.48,3.25c-1.58,2.8-3.21,5.67-5.75,7.89-.86.74-1.89,1.69-1.44,2.66.36.78,1.48,1,2.44,1.14,4,.54,8.5,1,11.89-1,1.28-.74,2.34-1.81,3.78-2.27,2-.63,4.19,0,6.32,0a19.89,19.89,0,0,0,6.52-1.49,2.4,2.4,0,0,0,1.07-.61,1.82,1.82,0,0,0,.31-.82,10.53,10.53,0,0,0,.1-5.08c-.57-1.79-2.06-3.33-2.23-5.18-.22-2.56,2.15-4.65,3.85-6.76,3.62-4.49,4.43-11,.71-15.39-1.92-2.29-2.52-4.75-4.18-7.18-1.51-2.23-1.8-4.9-2.17-7.47a92.79,92.79,0,0,0-1.85-9.48c-.23-.91-1.51-1.48-2.15-2.24-1.23-1.48-4.8-1.43-6.86-1.76-3.47-.54-7.2-1.06-10.37.3-2.2,1-3.78,2.68-5.49,4.2C277.19,61.1,271.3,61.78,274.05,65.66Z" transform="translate(-15 -29.47)"/><path class="cls-14" d="M274.34,65.08a14.79,14.79,0,0,0,3.47,3,39.62,39.62,0,0,1,4.4,3.69,13.18,13.18,0,0,1,2.46,3.05,14.06,14.06,0,0,1,1.22,5.9l1.21,20.76a13.25,13.25,0,0,1-.19,4.12,14.48,14.48,0,0,1-1.49,3.25c-1.58,2.8-3.21,5.67-5.75,7.89-.85.74-1.89,1.69-1.44,2.66.36.78,1.48,1,2.44,1.14,4,.54,8.5,1,11.89-1,1.28-.74,2.34-1.81,3.78-2.27,2-.63,4.2,0,6.32,0a19.84,19.84,0,0,0,6.52-1.49,2.29,2.29,0,0,0,1.07-.61,1.71,1.71,0,0,0,.31-.82,10.41,10.41,0,0,0,.1-5.08c-.57-1.79-2.06-3.33-2.23-5.18-.22-2.56,2.15-4.65,3.85-6.76,3.62-4.49,4.43-11,.71-15.39-1.92-2.29-2.52-4.75-4.18-7.18-1.51-2.23-1.8-4.9-2.16-7.47a95.62,95.62,0,0,0-1.86-9.48c-.23-.91-1.51-1.48-2.15-2.24-1.23-1.48-4.8-1.43-6.86-1.76-3.46-.54-7.2-1.06-10.37.3-2.2,1-3.77,2.68-5.49,4.2C277.46,60.52,271.59,61.2,274.34,65.08Z" transform="translate(-15 -29.47)"/></svg>