<svg id="Layer_1" data-name="Layer 1" xmlns="http://www.w3.org/2000/svg" viewBox="0 0 348.68 261.82"><defs><style>.cls-1{fill:#e6e6e6;}.cls-2{fill:#ccc;}.cls-3{fill:#3f3d56;}.cls-4{opacity:0.1;isolation:isolate;}.cls-5{fill:#6c63ff;}.cls-6{fill:#2f2e41;}.cls-7{font-size:21px;fill:#fff;font-family:Montserrat-ExtraBold, Montserrat;font-weight:800;}.cls-8{letter-spacing:0.01em;}.cls-9{letter-spacing:-0.02em;}.cls-10{letter-spacing:0.01em;}</style></defs><title>why-6</title><path class="cls-1" d="M181.68,51.36s-39.77,18.48-73.43,30.73c-20.88-47.15-51-45.38-51-45.38L39,49.27l3.29,18.84-.9,30.8-4.78,16.15,6.86,1.24,3.88.7.58-.53a40.37,40.37,0,0,0-1.16,11.74L219.36,101.3S213.38,73.49,181.68,51.36Z" transform="translate(-33.51 -36.7)"/><path class="cls-2" d="M47.26,114.61l8.37-2.69c.9-1.72-.74-.62,0-2.29,21.19-45.19,1.61-72.92,1.61-72.92L42.13,47.14a2,2,0,0,0-.1-.26s-2.69-6-6.88-1.5c0,0,13.16,32-1.49,71.77l17,7.77,6.58-7.77.15-.75-11.78-1.07Z" transform="translate(-33.51 -36.7)"/><path class="cls-3" d="M286,282.52c-67.28-15-129.93,16-129.93,16l-.17-.16L131,276.09,33.51,117l23.77.15c66.09-39.47,159.09-34.09,159.09-34.09C256.44,128.51,286,282.52,286,282.52Z" transform="translate(-33.51 -36.7)"/><path class="cls-4" d="M155.94,298.36,131,276.09,33.51,117l23.77.15S152,242.29,155.94,298.36Z" transform="translate(-33.51 -36.7)"/><ellipse class="cls-5" cx="159.7" cy="150.79" rx="38.58" ry="24.52" transform="translate(-70.7 16.76) rotate(-17.05)"/><path class="cls-6" d="M338.71,292.06V246.2a2.42,2.42,0,0,1,2.42-2.42h5.5a2.42,2.42,0,0,1,2.43,2.42v45.86a2.44,2.44,0,0,1-2.43,2.43h-5.5A2.43,2.43,0,0,1,338.71,292.06Z" transform="translate(-33.51 -36.7)"/><path class="cls-6" d="M327.83,292.06V246.2a2.42,2.42,0,0,1,2.42-2.42h5.5a2.42,2.42,0,0,1,2.42,2.42v45.86a2.43,2.43,0,0,1-2.42,2.43h-5.5A2.43,2.43,0,0,1,327.83,292.06Z" transform="translate(-33.51 -36.7)"/><rect class="cls-6" x="291.56" y="194.36" width="26.75" height="29.64" rx="2.24"/><rect class="cls-5" x="283.29" y="209.83" width="50.33" height="9.98" rx="2.24" transform="translate(-100.79 188.69) rotate(-36.47)"/><rect class="cls-5" x="353.81" y="194.5" width="9.98" height="50.33" rx="2.24" transform="translate(-94.61 157.12) rotate(-27.95)"/><path class="cls-2" d="M363.05,214.12l-7.94,5.26a2.36,2.36,0,0,1-3.24-.81l-8.77-16.52a2.37,2.37,0,0,1,1.15-3.14l5.4-2.87a2.38,2.38,0,0,1,3.25.81L364.2,211A2.36,2.36,0,0,1,363.05,214.12Z" transform="translate(-33.51 -36.7)"/><path class="cls-2" d="M309,209.28l5.16,6.85a2.23,2.23,0,0,0,3.16.1l13.64-12.8a2.24,2.24,0,0,0,.1-3.16l-3.77-4a2.24,2.24,0,0,0-3.16-.1l-15,10a2.23,2.23,0,0,0-.1,3.16Z" transform="translate(-33.51 -36.7)"/><rect class="cls-2" x="290.2" y="158.78" width="29.47" height="57.59" rx="2.24"/><circle class="cls-5" cx="304.79" cy="135.36" r="19.95"/><path class="cls-6" d="M340.62,178.73a6.94,6.94,0,0,1-3.95-.94,3,3,0,0,1-1.19-2.27,2,2,0,0,1,.69-1.67,2.63,2.63,0,0,1,2.49-.36l-1-7.36.74-.1,1.18,8.65-.62-.28a2.25,2.25,0,0,0-2.31,0,1.29,1.29,0,0,0-.42,1.08,2.27,2.27,0,0,0,.88,1.68,6.19,6.19,0,0,0,3.53.8Z" transform="translate(-33.51 -36.7)"/><rect class="cls-6" x="296.48" y="130.07" width="4.02" height="0.75"/><rect class="cls-6" x="309.16" y="130.07" width="4.02" height="0.75"/><path class="cls-6" d="M325.11,156.47c-3.23-.37-5.73-3.46-6-6.61-.33-3.74,1.85-7.29,4.84-9.39a20.68,20.68,0,0,1,10.79-3.31A29.6,29.6,0,0,1,355,143.84c2.82,2.34,5.46,5.33,6.45,8.93a8.65,8.65,0,0,1-2.35,8.88,6,6,0,0,1-4.57,1.41,11.36,11.36,0,0,1-5.32-2.37c-3-2.21-5.53-5.28-9.24-6.44-2.71-.84-6.23-.1-7.89,2.35a4.6,4.6,0,0,0-.71,1.87.58.58,0,0,0,.39.69.56.56,0,0,0,.69-.39c.43-3.09,4.23-4.24,6.9-3.54,3.89,1,6.5,4.5,9.69,6.71a11.75,11.75,0,0,0,5.64,2.25,7,7,0,0,0,4.92-1.51,9.59,9.59,0,0,0,3.17-9.19c-.7-3.86-3.3-7.16-6.15-9.72a30.71,30.71,0,0,0-21-7.76,23,23,0,0,0-11.46,3,12.52,12.52,0,0,0-6.17,9.34,8.83,8.83,0,0,0,4.75,8.59,7.62,7.62,0,0,0,2.38.67c.72.08.71-1,0-1.12Z" transform="translate(-33.51 -36.7)"/><rect class="cls-3" x="262.19" y="257.55" width="86.49" height="0.75"/><text class="cls-7" transform="translate(91.64 176.56)">Ga<tspan class="cls-8" x="29.36" y="0">m</tspan><tspan x="51.47" y="0">e S</tspan><tspan class="cls-9" x="84.65" y="0">t</tspan><tspan x="93.7" y="0">o</tspan><tspan class="cls-10" x="107.69" y="0">r</tspan><tspan x="117.3" y="0">y</tspan></text></svg>