<svg id="Layer_1" data-name="Layer 1" xmlns="http://www.w3.org/2000/svg" viewBox="0 0 315.94 277.05"><defs><style>.cls-1{fill:#3f3d56;}.cls-2{fill:#6c63ff;}.cls-3{fill:#fff;}.cls-4{fill:#2f2e41;}.cls-5{fill:#9f616a;}.cls-6{opacity:0.1;isolation:isolate;}.cls-7{fill:#d0cde1;}</style></defs><title>why-3</title><ellipse class="cls-1" cx="176.18" cy="256.8" rx="114.64" ry="20.25"/><path class="cls-2" d="M142.28,136.67A54.58,54.58,0,1,0,117,157a17.66,17.66,0,1,0,25.33-20.34Z" transform="translate(-42.39 -11)"/><rect class="cls-3" x="22.07" y="84.28" width="64.94" height="5.13"/><rect class="cls-3" x="22.07" y="92.83" width="64.94" height="5.13"/><rect class="cls-3" x="22.07" y="101.37" width="64.94" height="5.13"/><path class="cls-2" d="M258.45,96.07a54.6,54.6,0,1,1,25.33,20.33,17.66,17.66,0,1,1-25.33-20.33Z" transform="translate(-42.39 -11)"/><rect class="cls-3" x="228.94" y="43.68" width="64.94" height="5.13"/><rect class="cls-3" x="228.94" y="52.22" width="64.94" height="5.13"/><rect class="cls-3" x="228.94" y="60.77" width="64.94" height="5.13"/><path class="cls-2" d="M163.65,245.48a30.47,30.47,0,1,1,14.14,11.36,9.86,9.86,0,1,1-14.14-11.36Z" transform="translate(-42.39 -11)"/><circle class="cls-3" cx="134.58" cy="216.77" r="3.53"/><circle class="cls-3" cx="146.61" cy="216.77" r="3.53"/><circle class="cls-3" cx="158.65" cy="216.77" r="3.53"/><path class="cls-4" d="M192.54,118.36s15.73.43,18.33,1.38,3.76,7.7,3.76,7.7l-12.22,3.84-9.13-.51-6.88.48,3.84-10.06Z" transform="translate(-42.39 -11)"/><path class="cls-5" d="M193.22,113.2s1,4-1.27,6.83S201.83,133,201.83,133l6.42-1.1s-1.41-12.29.49-15.4S193.22,113.2,193.22,113.2Z" transform="translate(-42.39 -11)"/><path class="cls-6" d="M193.22,113.2s1,4-1.27,6.83S201.83,133,201.83,133l6.42-1.1s-1.41-12.29.49-15.4S193.22,113.2,193.22,113.2Z" transform="translate(-42.39 -11)"/><polygon class="cls-5" points="193.54 219.11 179.37 237.91 189.04 243.55 202.35 221.78 193.54 219.11"/><path class="cls-4" d="M226,249.22s-5.22-6.06-5-4.71-3.72,12.82,0,13.93,35.16,4.05,35.59.5-9.39-6-9.39-6-5.84-5.61-7.13-5S226,249.22,226,249.22Z" transform="translate(-42.39 -11)"/><polygon class="cls-5" points="190.36 237.06 201.68 256.35 210.23 251.4 198.81 235.61 190.36 237.06"/><path class="cls-4" d="M250.62,202.18l-3.36,4.75s-16,22.25-14.31,24,8.78,8.59,12.39,7.27,16.4-24.05,16.4-24.05l-3.34-13.35Z" transform="translate(-42.39 -11)"/><path class="cls-4" d="M181.63,197.68a20.37,20.37,0,0,0,12.68,9c9.09,2.26,18.59,6.9,18.93,6.84s1.29-.57,1.52.78,2.73,3.71,2.73,3.71,10,34.12,13.88,34.16,11.71-2.71,11.88-3.78-11.75-35.92-11.86-36.6l-1.4-8.11s15.75,2.51,17.22,3,14.53,7.59,14.53,7.59,13.32-9.6.86-19.29-33.87-16.8-33.87-16.8l-7.68-2.16-6.69-.4-1-3.78-15.85.91-16.54,7Z" transform="translate(-42.39 -11)"/><circle class="cls-5" cx="160.16" cy="97.81" r="12.35"/><path class="cls-7" d="M191.38,118.73l1.49-.25s2.68,10.33,11,12c0,0,4.09-4.9,3.92-5.73s3.24-5.24,5.06-2.77-.44,46,1.08,46.8,4.8,1.61,2.17,4.5-13.11,6.78-15.43,5.44-7.05-12.71-9.1-16.54-5.33-16.83-5.33-16.83-4.19-14.25-1.61-17.48S191.38,118.73,191.38,118.73Z" transform="translate(-42.39 -11)"/><path class="cls-4" d="M203.2,172.35a70.33,70.33,0,0,1-1.41,9c-.61,2.42-1.31,3.88-2.12,3.82-2-.15-3,2.86-3.47,6.33-.51,3.68-.51,7.89-.79,9.37-.38,2-2.77,3.46-7.54,3a33.68,33.68,0,0,1-8.31-2c-6.44-2.34-6.25-21.35-5.17-35.45C175.05,157.77,176,151,176,151a76.88,76.88,0,0,1-2.59-9.85,13.63,13.63,0,0,1-.18-2.21c.09-3.49,6.48-12.94,10.34-18.83s9.13-1.57,9.13-1.57L190.9,124s2.84,4.38,2.86,8.55,6.81,7.19,9.24,9.21C204.53,143.07,204.5,160,203.2,172.35Z" transform="translate(-42.39 -11)"/><path class="cls-4" d="M208.56,120.48s.45.53,2.49.27c2.44-.31,5.8.54,6.58,2.87,1.43,4.28,5.47,21.68,5.47,21.68s1.68,19.9,2.43,24.3.38,8.29,1.13,10.59-7.35-4.3-10.34-3.44-4.9-10.29-4.53-14.19.7-8.12-.34-12.12.8-14.58.73-17S205.6,124.9,208.56,120.48Z" transform="translate(-42.39 -11)"/><path class="cls-5" d="M217.3,182.32s13.08,7.14,14.33,17.29-17.49-9.83-17.49-9.83Z" transform="translate(-42.39 -11)"/><path class="cls-5" d="M224.77,175.13s4,20.19,10.24,19.12S231.53,174,231.53,174Z" transform="translate(-42.39 -11)"/><path class="cls-4" d="M246.14,263.16s-3.2,3.69-4,3.13-2.61,7.06-1,8.52,8,3.85,8,6.27,17,1.95,17.65-.59-2.13-8.34-4.05-9.4-9-10.84-9-10.84S248.22,261.07,246.14,263.16Z" transform="translate(-42.39 -11)"/><path class="cls-6" d="M215.22,194.68c-3-2.14-11.5-2.68-19-3.17-3.29-.21-6.41-.42-8.8-.75s-4.38-2.43-6.23-5.57c-2.79-4.76-5-11.89-6.78-18.78C175.05,157.77,176,151,176,151a76.88,76.88,0,0,1-2.59-9.85,5.45,5.45,0,0,1,1.67-1.5c8-3.42,15.59,30.26,16.55,35.54,0,.09,0,.17,0,.25.47,2.72,5.54,5,10.08,6,2.79.57,5.39.61,6.59-.13,3.15-1.93,12.83,5.8,13.57,6S219.57,197.76,215.22,194.68Z" transform="translate(-42.39 -11)"/><path class="cls-4" d="M175.12,137.54s-5.79,2.74-3.25,15.52,7.68,34.54,15.52,35.62,23.47.84,27.83,3.92,7.46-7.2,6.73-7.42-10.42-8-13.57-6-15.91-1.44-16.66-5.84S183.23,134.06,175.12,137.54Z" transform="translate(-42.39 -11)"/><path class="cls-4" d="M216.88,131.41l6.37,14.77s.64-.32,1.39,2,1.09,4.34,2.39,5.86,7.11,23.14,7.29,24.15-8,4.51-9.85,1.69S216.88,131.41,216.88,131.41Z" transform="translate(-42.39 -11)"/><path class="cls-4" d="M195.53,108.64c.47-.13.54-.76.56-1.25.08-2.62,1.66-5.31,4.17-6.07a7,7,0,0,1,3-.17,11.26,11.26,0,0,1,4,1.34,6.23,6.23,0,0,0,2,.92c.49.08,2.61.69,3.1.78,1.07.19,2.07,1.15,3.09.79s1.21-1.61,1.23-2.65c0-2.38-1.75-5.66-3.33-7.42a8.29,8.29,0,0,0-4.79-2.28,32,32,0,0,0-6.26-.39,20,20,0,0,0-8.31,1.5c-2.56,1.23-4.71,3.67-4.83,6.5,0,.59,0,1.19,0,1.78-.12,1.43-.89,2.73-1.24,4.13a7.52,7.52,0,0,0,1.05,6c.95,1.4,2.44,2.66,2.39,4.35l2.05-2.13a1.68,1.68,0,0,0,.51-2.06l-.73-2.85a2.51,2.51,0,0,1-.06-1.58C193.9,106,194.74,108.85,195.53,108.64Z" transform="translate(-42.39 -11)"/><path class="cls-1" d="M289.05,250.72c-.09-.14-2.1-3.5-2.8-10.47-.64-6.4-.22-17.18,5.37-32.22,10.59-28.49-2.44-51.48-2.58-51.71l.65-.37a57.49,57.49,0,0,1,5.38,15.25,66.55,66.55,0,0,1-2.76,37.09c-10.57,28.44-2.71,41.91-2.63,42Z" transform="translate(-42.39 -11)"/><circle class="cls-2" cx="242.51" cy="138.82" r="4.83"/><circle class="cls-1" cx="257.75" cy="156.65" r="4.83"/><circle class="cls-2" cx="247.34" cy="168.55" r="4.83"/><circle class="cls-2" cx="259.98" cy="178.58" r="4.83"/><circle class="cls-1" cx="243.63" cy="194.19" r="4.83"/><path class="cls-1" d="M292,250.89s-4.83-11.89,9.67-20.81Z" transform="translate(-42.39 -11)"/><path class="cls-1" d="M286,250.68s-2.19-12.65-19.21-12.54Z" transform="translate(-42.39 -11)"/></svg>