<svg id="Layer_1" data-name="Layer 1" xmlns="http://www.w3.org/2000/svg" viewBox="0 0 380.01 286.09"><defs><style>.cls-1,.cls-3{fill:#6c63ff;}.cls-1,.cls-11,.cls-7{opacity:0.1;}.cls-1,.cls-13,.cls-15,.cls-7,.cls-9{isolation:isolate;}.cls-2{fill:#3f3d56;}.cls-4{fill:#35323e;}.cls-5{fill:#504f60;}.cls-6{fill:#a1616a;}.cls-8{fill:#464353;}.cls-9{opacity:0.04;}.cls-10{fill:#fff;}.cls-12{fill:#fbbebe;}.cls-13{opacity:0.05;}.cls-14{fill:#f86d70;}.cls-15{opacity:0.07;}</style></defs><title>why-5</title><path class="cls-1" d="M385.64,205.35v.45q0,3.91-.46,7.8v.05c0,.21-.05.43-.08.64,0,.37-.08.73-.13,1.09a78.85,78.85,0,0,1-2.86,13.08h0a70.57,70.57,0,0,1-7.46,16.43q-1.47,2.36-3.12,4.55h0c-.59.78-1.2,1.54-1.82,2.29-.43.52-.88,1-1.33,1.55l-.28.31a74.63,74.63,0,0,1-7.68,7.3,121.86,121.86,0,0,1-14.15,9.9c-.27.17-.55.34-.83.49l-.07,0a147.91,147.91,0,0,1-20.59,10.52,93.23,93.23,0,0,1-24,6.51c-11.45,1.4-23.05.26-34.43-1.71a224,224,0,0,1-28-6.69l-1.51-.47-2.35-.77q-7.08-2.34-14-5.2a184,184,0,0,1-33-17.74q-2-1.34-3.91-2.73-2.69-1.93-5.31-4l-1.09-.84a111.15,111.15,0,0,1-12.84-11.8,65.38,65.38,0,0,1-12.88-19.82c-.47-1.17-.91-2.37-1.3-3.59l0-.12c-.2-.62-.38-1.24-.55-1.88-.25-.93-.46-1.86-.65-2.8,0-.19-.07-.37-.11-.55A47.27,47.27,0,0,1,148,198a45.87,45.87,0,0,1,1-8.42h0a38.65,38.65,0,0,1,2.81-8.32h0a29.85,29.85,0,0,1,4.3-6.62h0a25,25,0,0,1,4-3.79,33.36,33.36,0,0,1,8.76-4.5h0c1.46-.52,2.93-1,4.41-1.4,1-.3,2.1-.59,3.15-.87l3.09-.83c2-.54,4-1.1,5.92-1.7A66.28,66.28,0,0,0,200.84,155c.76-.46,1.54-1,2.32-1.51,1-.69,2-1.44,2.93-2.25h0a36.83,36.83,0,0,0,2.85-2.62l.42-.43c.74-.78,1.46-1.6,2.13-2.46.33-.41.64-.84.95-1.27.42-.59.81-1.2,1.18-1.83h0a18.71,18.71,0,0,0,2.84-10.19,15.26,15.26,0,0,0-.16-1.79c-.32-2.19-.63-4.32-.86-6.41-1-8.64-.56-16.48,5.93-23.84,8.06-9.15,20.72-11,32.24-10.29,33.31,2.11,63.63,21.13,90.27,43.76q3.47,2.94,6.83,5.95l1.7,1.53c4.22,3.79,8.36,7.73,12.23,11.94l.93,1c.19.21.38.42.56.64q1.81,2,3.51,4.19a78.88,78.88,0,0,1,8,12.14,68.71,68.71,0,0,1,7,21.48h0a75.3,75.3,0,0,1,.85,8.22q.06,1.22.09,2.43v.78C385.64,204.6,385.64,205,385.64,205.35Z" transform="translate(-11.55 -2.88)"/><polygon class="cls-2" points="234.08 198.32 230.11 268.89 234.08 268.94 237.3 197.32 234.08 198.32"/><rect class="cls-3" x="170.39" y="234.07" width="49.06" height="10.66"/><path class="cls-2" d="M234.23,246.36v6.69H183.55q-2.7-1.94-5.32-4v-2.7Z" transform="translate(-11.55 -2.88)"/><path class="cls-4" d="M244.35,231.13c-.14.65-.32,1.28-.51,1.91a25,25,0,0,0-1.37,5.53c-.18,2.51.5,5.42-1.24,7.24-.45.47-1,.83-1.43,1.33a2.13,2.13,0,0,0-.16.25,3.86,3.86,0,0,0-.41,2,36.38,36.38,0,0,0,.28,4.3c.59,4.91,1.75,9.82.22,14.45a20.11,20.11,0,0,1-1,2.36,18.86,18.86,0,0,0-1.8,5,33.28,33.28,0,0,0-.13,4l-2.35-.76q-7.08-2.34-14-5.2c0-.07,0-.14,0-.21a15.86,15.86,0,0,0-.72-6.61c-1.24-4.56-3-9.07-4-13.66a35.66,35.66,0,0,1-.82-5.45c0-.41,0-.82,0-1.24s0-1.08,0-1.62c0-1.09.1-2.38-.77-3a6.35,6.35,0,0,0-1.67-.64,9.51,9.51,0,0,1-2.67-2.17,3.48,3.48,0,0,0-3.12-.92c-5.57,1.28-9.66,6-14.84,8.39-.2.1-.4.18-.61.27a8.51,8.51,0,0,0-1.9,1,2.16,2.16,0,0,0-.85,1.2,4.42,4.42,0,0,0,.05,1.62,8.29,8.29,0,0,1-.12,2.63,6.54,6.54,0,0,1-.26,1,18.75,18.75,0,0,1-.72,1.74q-2-1.33-3.9-2.73-2.7-1.94-5.32-4l-1.07-.85a111.15,111.15,0,0,1-12.84-11.8A43.91,43.91,0,0,0,166,232c.21-.87.29-1.78.57-2.63a10.05,10.05,0,0,1,1.37-2.46,33.4,33.4,0,0,1,7.62-7.62c3.07-2.2,6.62-4,9.38-6.46a14.85,14.85,0,0,0,2.87-3.4c0-.08.09-.16.13-.25a5.26,5.26,0,0,0,.44-1.41c.2-1.11.17-2.33.27-3.4a36.25,36.25,0,0,0,10.19.31c4-.44,7.82-1.54,11.77-2l.9-.09c1.26-.1,2.53-.12,3.8-.1,1.07,0,2.13,0,3.19.08l11.71.39a11.68,11.68,0,0,1,3.82.57,8.32,8.32,0,0,1,3.5,2.92,5.85,5.85,0,0,1,.34.48,14.93,14.93,0,0,1,1.81,3.56c0,.13.09.25.13.39.11.35.21.69.3,1l.18.83a35.09,35.09,0,0,0,.86,4.1,2.47,2.47,0,0,0,.1.29c.52,1.45,1.38,2.75,2,4.15a16,16,0,0,1,1.06,3.15A15.44,15.44,0,0,1,244.35,231.13Z" transform="translate(-11.55 -2.88)"/><path class="cls-3" d="M208.78,142.45c-1.05-.83-2.57-.22-3.79.32a25.33,25.33,0,0,1-3.16,1.14,1.28,1.28,0,0,1-.7.07c-.49-.12-.7-.7-1.07-1.06a2.39,2.39,0,0,0-2.52-.14,5.73,5.73,0,0,1-2.53.75c-.95-.08-1.77-.78-2.73-.8-1.68,0-3.1,2-4.69,1.49-1-.34-1.73-1.6-2.69-1.24-.74.28-.81,1.31-1.26,2a4.78,4.78,0,0,1-2.44,1.35,7,7,0,0,0-4.24,7.15,24.55,24.55,0,0,0,1.51,4.68c1.55,4.54,1,9.65,3,14,.25-.23.39-.32.63-.55a5.68,5.68,0,0,0-.33,4.11c.2.69.54,1.33.79,2a17.88,17.88,0,0,1,.63,2.31l2.16,9.51a61.28,61.28,0,0,1,1.83,11.24,32.63,32.63,0,0,1-.56,7.38c3.9-.65,7.48-2.38,11.43-2.36a31.61,31.61,0,0,1,4.34.45,89.41,89.41,0,0,0,12.67.86,5.1,5.1,0,0,0,1.94-.27,17.28,17.28,0,0,0,1.51-1,6.69,6.69,0,0,1,3.39-.74c5.3-.1,10.41,1.84,15.67,2.52a18.88,18.88,0,0,0,.61-14.15,21.46,21.46,0,0,1-1.3-4.1,19.29,19.29,0,0,1-.06-2.63,19,19,0,0,0-1.2-6.59,7,7,0,0,1-.64-2.55,5.76,5.76,0,0,1,.89-2.47,22.79,22.79,0,0,1,3-4.53,23.26,23.26,0,0,1,4.36-3.47l3.83-2.57a38.07,38.07,0,0,0-2.6-9.82,17.41,17.41,0,0,0-6.33-7.6,20.72,20.72,0,0,0-3-1.49,13.89,13.89,0,0,0-4.53-1.24,23.91,23.91,0,0,0-5.3.68C219.7,146.07,213.18,146,208.78,142.45Z" transform="translate(-11.55 -2.88)"/><path class="cls-2" d="M250.59,199.78l-1.82,2.29-3.43,4.33-4,5-1.11,1.4h-2.14l-53.2.06-33.32,0h-1.49c-.2-.62-.38-1.24-.55-1.88-.25-.92-.46-1.86-.65-2.8,0-.18-.07-.36-.11-.55l12.09-7.9,4.55,0h0l13.9-.08h0l7.76,0h2.31l5.17,0h0l39.44-.22h2.89l2.32,0,8.62-.05,1.65-.63.12.13Z" transform="translate(-11.55 -2.88)"/><path class="cls-5" d="M249.84,198.54l-.2.24-1.36,1.6-2.78,3.29-5.84,6.88-51.74-1.32-39-1c0-.18-.07-.36-.11-.55a47.23,47.23,0,0,1-.78-9.64l4.33-2.22,1-.51,7.72-4,6.77-3.47,17.65,2.29,3.91.51,1.77.23,2.59.34.22,0,40.61,5.26,4.49.58,2.63.35,8.12,1.05Z" transform="translate(-11.55 -2.88)"/><path class="cls-2" d="M241.42,210.43l0,1-.24,5.5-1.34,30.23-.28,6.54-.74,16.81-.42,9.5-1.51-.48-2.35-.76,3.63-65.92.07-1.38,1.6-.49Z" transform="translate(-11.55 -2.88)"/><path class="cls-2" d="M151.71,210.36l-.11,2.54-.16,3.72c-.47-1.17-.91-2.37-1.3-3.59l0-.12c-.2-.62-.38-1.24-.55-1.88Z" transform="translate(-11.55 -2.88)"/><ellipse class="cls-6" cx="204.96" cy="154.65" rx="11.4" ry="15.36"/><ellipse class="cls-7" cx="204.96" cy="154.65" rx="11.4" ry="15.36"/><circle class="cls-6" cx="206.57" cy="145.36" r="15.86"/><path class="cls-8" d="M218.44,123.79a21.54,21.54,0,0,0-2.88.44,23.35,23.35,0,0,0-6.79,3.29,8,8,0,0,0-2.5,2.1c-1.06,1.57-.65,3.57-1.24,5.32a15.5,15.5,0,0,1-1.35,2.54,29.74,29.74,0,0,0-2.68,7.29c-.14.52-.18,1.22.38,1.42a1.66,1.66,0,0,0,1-.11c1.78-.59,4-.76,5.35.43s1.21,3.31,2.78,4.22c1.8,1,4.6-.22,6.23,1,.7.53,1,1.38,1.53,2,1.33,1.49,3.89,1.42,6,1.12,1.22-.17,2.72-.29,3.47.57.35.4.45,1,.87,1.33a2.27,2.27,0,0,0,2.83-.36,20.59,20.59,0,0,0,1.68-2.36c1.17-1.49,3.24-2.3,4.46-3.77a9.16,9.16,0,0,0,1.6-4.29l1-5.55c.42-2.25.8-4.7-.47-6.69-.45-.71-1.09-1.32-1.48-2.06-.26-.5-.41-1-.71-1.49a6.16,6.16,0,0,0-1.27-1.28l-2.45-2a20.73,20.73,0,0,0-2.67-2C227.66,122.89,222.43,123.42,218.44,123.79Z" transform="translate(-11.55 -2.88)"/><path class="cls-6" d="M166.2,164.64c-.59.63-1.13,1.3-1.76,1.89s-1.13.95-1.73,1.39q-1.46,1.08-2.85,2.25a15.72,15.72,0,0,0-2.61,2.61c-1.33,1.78-1.95,4-3.19,5.83-1.1,1.62-2.64,2.91-3.75,4.53a6.71,6.71,0,0,0-1.07,2.24,10.56,10.56,0,0,0-.23,2.38,17.61,17.61,0,0,0,.23,3.91,5.93,5.93,0,0,0,1.86,3.38,8.25,8.25,0,0,0,3.32,1.44,3,3,0,0,0,1.85,0,2.88,2.88,0,0,0,1.08-.91l3-3.46c2-2.33,4.12-4.71,6.89-6.08.86-.42,1.78-.74,2.65-1.15a14.31,14.31,0,0,0,7.3-9.38c.25-1,.41-2,.57-2.95l.44-2.71a1,1,0,0,0,0-.41,1,1,0,0,0-.32-.38,51.42,51.42,0,0,1-5.88-5.55,14,14,0,0,0-1.34-1.52c-.62-.5-.58-.46-1.33,0A16,16,0,0,0,166.2,164.64Z" transform="translate(-11.55 -2.88)"/><path class="cls-2" d="M186.83,182.68a.47.47,0,0,0-.61-.24.46.46,0,0,0-.24.62v0l-.24.12,7.39,15.15,1.33-.65-7.39-15.16Z" transform="translate(-11.55 -2.88)"/><path class="cls-9" d="M166.2,164.64c-.59.63-1.13,1.3-1.76,1.89s-1.13.95-1.73,1.39q-1.46,1.08-2.85,2.25a15.72,15.72,0,0,0-2.61,2.61c-1.33,1.78-1.95,4-3.19,5.83-1.1,1.62-2.64,2.91-3.75,4.53a6.71,6.71,0,0,0-1.07,2.24,10.56,10.56,0,0,0-.23,2.38,17.61,17.61,0,0,0,.23,3.91,5.93,5.93,0,0,0,1.86,3.38,8.25,8.25,0,0,0,3.32,1.44,3,3,0,0,0,1.85,0,2.88,2.88,0,0,0,1.08-.91l3-3.46c2-2.33,4.12-4.71,6.89-6.08.86-.42,1.78-.74,2.65-1.15a14.31,14.31,0,0,0,7.3-9.38c.25-1,.41-2,.57-2.95l.44-2.71a1,1,0,0,0,0-.41,1,1,0,0,0-.32-.38,51.42,51.42,0,0,1-5.88-5.55,14,14,0,0,0-1.34-1.52c-.62-.5-.58-.46-1.33,0A16,16,0,0,0,166.2,164.64Z" transform="translate(-11.55 -2.88)"/><path class="cls-6" d="M251.63,192.56a11.77,11.77,0,0,1-.74,4.65,2.51,2.51,0,0,1-1.38,1.44,3.29,3.29,0,0,1-1.21,0,43.7,43.7,0,0,0-14.5,1.15c1.27-2.53.54-5.56.89-8.37.1-.76.27-1.52.34-2.28.25-2.73-.92-5.38-1.46-8.07a18.18,18.18,0,0,1,0-7,4.88,4.88,0,0,1,.61-1.7,4,4,0,0,1,1.39-1.21A11.65,11.65,0,0,1,242.2,170c1.52.11,4.57,0,5.83.9s1.83,4.46,2.2,6a51.41,51.41,0,0,1,1.14,7.41A79.46,79.46,0,0,1,251.63,192.56Z" transform="translate(-11.55 -2.88)"/><polygon class="cls-10" points="151.31 195.17 160.23 201.11 200.38 199.63 173.86 195.17 151.31 195.17"/><path class="cls-3" d="M174.63,150.79c-1.47,1.29-2.71,2.81-4.1,4.19a55.41,55.41,0,0,1-6.22,5.09,4.64,4.64,0,0,1,3.23,3.25c.09.36.14.74.24,1.1a6.18,6.18,0,0,0,1.38,2.23c2.51,2.83,6,4.93,7.51,8.42a.75.75,0,0,0,.3.42.62.62,0,0,0,.38,0,5.23,5.23,0,0,0,3.22-2.27,23.7,23.7,0,0,0,4.22-7.42,13.19,13.19,0,0,0,.06-8.42,21.63,21.63,0,0,0-1.95-3.8l-1.92-3.2c-.34-.57-.76-1.71-1.42-2C178.14,147.83,175.54,149.88,174.63,150.79Z" transform="translate(-11.55 -2.88)"/><path class="cls-3" d="M247.61,166.81l2.11,4.95a15.32,15.32,0,0,0-13.85,1.92A7.86,7.86,0,0,0,233,177a1.43,1.43,0,0,1-1.43-.56,2.84,2.84,0,0,1-.53-1.51,11.81,11.81,0,0,1,1.24-5.55,7.77,7.77,0,0,1,1.26-2.36,7.43,7.43,0,0,1,2.16-1.55,48.26,48.26,0,0,1,7.82-3.45c1.14-.37,2.33-.36,3,.7C247.25,164,247,165.45,247.61,166.81Z" transform="translate(-11.55 -2.88)"/><path class="cls-6" d="M162.92,181.68c.52.42,1,.92,1.53,1.32a11.17,11.17,0,0,0,1.82,1l2.45,1.17a13.46,13.46,0,0,0,2.36,1c1,.28,2.15.3,3.2.56,1.32.33,2.54,1,3.84,1.41a4.47,4.47,0,0,0,3.93-.37c.68-.51,1.19-1.36,2-1.48a2.73,2.73,0,0,1,1.55.44l6.36,3.35a4.85,4.85,0,0,1,2.22,1.81,1.68,1.68,0,0,1-.8,2.39c-.33,0-.66,0-1,0s-.69.24-.73.57a1.19,1.19,0,0,0,.15.58,2.42,2.42,0,0,1,0,2.07,1.48,1.48,0,0,1-1.8.74c.11,1-.93,1.63-1.86,1.89-2.34.64-4.83.25-7.22-.16a10,10,0,0,1-2.76-.74c-.41-.2-.79-.46-1.21-.65a8.63,8.63,0,0,0-3.69-.42c-5.78.11-11.5-1-17.18-2a8.43,8.43,0,0,1-3-1,5.62,5.62,0,0,1-2.09-5.5,16.39,16.39,0,0,1,2.35-5.72l1.32-2.33a3.19,3.19,0,0,1,.72-.95C157.38,179.2,161.25,180.33,162.92,181.68Z" transform="translate(-11.55 -2.88)"/><path class="cls-9" d="M162.92,181.68c.52.42,1,.92,1.53,1.32a11.17,11.17,0,0,0,1.82,1l2.45,1.17a13.46,13.46,0,0,0,2.36,1c1,.28,2.15.3,3.2.56,1.32.33,2.54,1,3.84,1.41a4.47,4.47,0,0,0,3.93-.37c.68-.51,1.19-1.36,2-1.48a2.73,2.73,0,0,1,1.55.44l6.36,3.35a4.85,4.85,0,0,1,2.22,1.81,1.68,1.68,0,0,1-.8,2.39c-.33,0-.66,0-1,0s-.69.24-.73.57a1.19,1.19,0,0,0,.15.58,2.42,2.42,0,0,1,0,2.07,1.48,1.48,0,0,1-1.8.74c.11,1-.93,1.63-1.86,1.89-2.34.64-4.83.25-7.22-.16a10,10,0,0,1-2.76-.74c-.41-.2-.79-.46-1.21-.65a8.63,8.63,0,0,0-3.69-.42c-5.78.11-11.5-1-17.18-2a8.43,8.43,0,0,1-3-1,5.62,5.62,0,0,1-2.09-5.5,16.39,16.39,0,0,1,2.35-5.72l1.32-2.33a3.19,3.19,0,0,1,.72-.95C157.38,179.2,161.25,180.33,162.92,181.68Z" transform="translate(-11.55 -2.88)"/><path class="cls-6" d="M238.56,186a40.39,40.39,0,0,1-4.12,1.14,24.28,24.28,0,0,0-3.73,2c-3.22,1.8-6.94,2.48-10.59,3.13a31.54,31.54,0,0,1-6.69.7c-3-.13-5.92-1.14-8.84-1.9s-6.05-1.27-8.94-.41a10,10,0,0,0-6.57,6.3,14.38,14.38,0,0,0-.57,5.58c.61.45,1.46-.18,1.79-.86s.51-1.51,1.16-1.91c1.12.38,1.39,1.87,2.31,2.6a4,4,0,0,0,2.07.69l3.77.54a3.08,3.08,0,0,0,2.62-.43c.32-.31.49-.74.79-1.07a2.89,2.89,0,0,1,2.49-.69c2.78.28,5.4,2.08,8.16,1.65a14.79,14.79,0,0,0,2.74-.87c5.38-1.9,11.35-.74,16.94-1.83a37.59,37.59,0,0,0,6.22-1.92,12.6,12.6,0,0,0,3.16-1.57,6.67,6.67,0,0,0,2.57-5.9,6.78,6.78,0,0,0-2.38-4.37,8.29,8.29,0,0,0-1.54-1.31C240.39,184.8,239.41,185.56,238.56,186Z" transform="translate(-11.55 -2.88)"/><g class="cls-11"><path d="M231.32,154.3c-.41-.37-.52-.92-.87-1.33-.75-.86-2.25-.74-3.47-.57-2.14.3-4.71.37-6-1.11-.58-.64-.83-1.49-1.53-2-1.63-1.24-4.43,0-6.23-1-1.57-.92-1.47-3-2.78-4.22s-3.57-1-5.35-.43a1.52,1.52,0,0,1-1,.11c-.56-.2-.52-.9-.38-1.41a29.66,29.66,0,0,1,2.68-7.3,15.5,15.5,0,0,0,1.35-2.54c.54-1.57.26-3.35,1-4.83a6.58,6.58,0,0,0-2,1.73c-1,1.58-.64,3.58-1.24,5.33a14.69,14.69,0,0,1-1.35,2.53,30.65,30.65,0,0,0-2.68,7.3c-.14.51-.18,1.21.39,1.41a1.52,1.52,0,0,0,1-.11c1.77-.59,4-.75,5.35.44s1.21,3.3,2.77,4.21c1.8,1.05,4.61-.22,6.24,1,.7.53,1,1.38,1.52,2,1.33,1.49,3.9,1.41,6,1.11,1.23-.17,2.73-.29,3.47.57.36.41.46,1,.87,1.33a2.27,2.27,0,0,0,2.83-.35,7.51,7.51,0,0,0,1.19-1.62A1.84,1.84,0,0,1,231.32,154.3Z" transform="translate(-11.55 -2.88)"/><path d="M235.83,151.58a7.23,7.23,0,0,0-.44.64,13.65,13.65,0,0,0,2.67-2.18,5,5,0,0,0,.5-.71A12.9,12.9,0,0,0,235.83,151.58Z" transform="translate(-11.55 -2.88)"/></g><polygon class="cls-2" points="274.35 197.77 275.09 268.89 278.56 268.39 277.81 197.77 274.35 197.77"/><polygon class="cls-2" points="295.16 210.65 295.9 281.77 299.37 281.28 298.63 210.65 295.16 210.65"/><path class="cls-2" d="M371.52,249.46h0l0-1.37v-.81l-.13-12.51-.2-19.56,0-1.68h-3.47l0,1.62.11,10.48,0,4.53h0l0,3.67.06,6.35,0,3.75h0v.39l0,4.92.05,4.34.28-.31c.45-.51.9-1,1.33-1.55Z" transform="translate(-11.55 -2.88)"/><polygon class="cls-3" points="291.32 222.18 289.34 225.14 291.32 238.64 308.17 243.25 335.43 243.25 351.78 244.24 359.57 238.91 358.23 229.75 352.28 222.18 291.32 222.18"/><path class="cls-2" d="M300.89,228l-1,8.23s-5.21,16.14,36.67,15.15,34.69-4.28,34.69-4.28l-.24-9.55s1.46,4.52-19.83,3.9-41.13-2.58-41.13-2.58S302.62,240.2,300.89,228Z" transform="translate(-11.55 -2.88)"/><path class="cls-12" d="M335.78,154.23a12,12,0,0,0-5.41,5.53,36.28,36.28,0,0,0-2.57,7.43,68.78,68.78,0,0,0-1.78,8.12,24.48,24.48,0,0,0,2.08,14.41,16.24,16.24,0,0,0,11.25,8.78,20.92,20.92,0,0,0,5.7.07,46.74,46.74,0,0,0,10.06-2.22c3.41-1.15,7-2.93,8.47-6.2a13.71,13.71,0,0,0,.91-6.14,65,65,0,0,0-2.55-16.8,14.47,14.47,0,0,0-2-4.52,13.93,13.93,0,0,0-3.66-3.22C350.53,155.57,342.91,151,335.78,154.23Z" transform="translate(-11.55 -2.88)"/><path class="cls-13" d="M335.78,154.23a12,12,0,0,0-5.41,5.53,36.28,36.28,0,0,0-2.57,7.43,68.78,68.78,0,0,0-1.78,8.12,24.48,24.48,0,0,0,2.08,14.41,16.24,16.24,0,0,0,11.25,8.78,20.92,20.92,0,0,0,5.7.07,46.74,46.74,0,0,0,10.06-2.22c3.41-1.15,7-2.93,8.47-6.2a13.71,13.71,0,0,0,.91-6.14,65,65,0,0,0-2.55-16.8,14.47,14.47,0,0,0-2-4.52,13.93,13.93,0,0,0-3.66-3.22C350.53,155.57,342.91,151,335.78,154.23Z" transform="translate(-11.55 -2.88)"/><path class="cls-3" d="M333.1,185.42a11.18,11.18,0,0,0,2.47,2.48c2.36,1.63,5.39,1.85,8.26,1.94,2.29.07,4.93-.06,6.37-1.86a7.28,7.28,0,0,0,1.21-2.84,126,126,0,0,0,3.44-18.77l6.56,0c2.84,12.16,2.61,24.8,2.36,37.29l-.36,18.2-4.22-.44c-10-1.07-20.1-2.13-30.19-2.31a171.79,171.79,0,0,0-17.72.58l9.2-27.37a45.16,45.16,0,0,0,2.69-10.9c.4-5.43-1.12-11.16,1-16.17a2,2,0,0,1,.76-1,2.16,2.16,0,0,1,1.31-.1c.84.11,3.38,0,4,.53.89.78.3.89,0,2.14a26,26,0,0,0-1.08,6.62A19.46,19.46,0,0,0,333.1,185.42Z" transform="translate(-11.55 -2.88)"/><path class="cls-8" d="M371.52,249.46h0c1.1-1.47,2.15-3,3.12-4.56-.49-1.06-1-2.1-1.47-3.18a31.63,31.63,0,0,1-1.42-5.17l-.39-1.78a118,118,0,0,1-3-19.59c0-.55,0-1.09,0-1.64v-2c0-1.49.13-3,.3-4.48,0-.29.07-.59.11-.88a1.23,1.23,0,0,1,0-.19l16.85-.61h0l1.42-.06a5.16,5.16,0,0,0,2.81-.64c1.35-.93,1.51-2.83,1.49-4.46a66.68,66.68,0,0,0-1.4-12.28c-.64-3-1.55-6.14-3.6-8.47-1.68-1.92-4.11-3.32-5-5.7a22.93,22.93,0,0,0-.83-2.71,8.41,8.41,0,0,0-1.77-2.13,29.35,29.35,0,0,1-5.67-7.86,25.21,25.21,0,0,0-3.41-5.65l-.19-.2a3.16,3.16,0,0,0-3.91-.83,4.12,4.12,0,0,0-.77.48h0a9.68,9.68,0,0,0-1.47,1.39,34.16,34.16,0,0,0-4,5.7,33.8,33.8,0,0,0-2,4.46,32.35,32.35,0,0,0-1.1,3.72c-.21.94-.38,1.88-.52,2.83a69.27,69.27,0,0,0-.42,10.79c.07,3.31.22,6.62.52,9.92.07.8.16,1.6.25,2.39.18,1.58.4,3.15.67,4.71.11.6.22,1.2.34,1.79l.09.47,0,.07a42.27,42.27,0,0,1,.76,4.19c0,.18,0,.35,0,.53a19.7,19.7,0,0,1,0,2.43c-.05,1-.14,1.91-.19,2.87a3.93,3.93,0,0,1,0,.49c0,.49,0,1,0,1.45a22.75,22.75,0,0,0,2.56,9.5c.09.18.19.35.29.53,1.25,2.24,2.84,4.3,4,6.6a28.8,28.8,0,0,1,2.23,6.49c.17.75.32,1.49.47,2.23.23,1.19.44,2.39.65,3.59,0,.12,0,.25.06.36.28,1.59.58,3.17,1,4.73.22.9.47,1.79.76,2.67Z" transform="translate(-11.55 -2.88)"/><path class="cls-14" d="M368.21,229.92c0,.23,0,.45,0,.68a29.74,29.74,0,0,1-.3,3.25,20.5,20.5,0,0,1-1.07,4.3,14.21,14.21,0,0,1-1.28,2.63,11.72,11.72,0,0,1-1.59,2.05c-1.49,1.55-3.63,2-5.7,2.69a14.6,14.6,0,0,0-2.75,1.13,4.21,4.21,0,0,0-.45.28l-2.6,1.71a7.9,7.9,0,0,0-2.18,1.88,2.22,2.22,0,0,0-.25.42,9.8,9.8,0,0,0-.77,2.29c-1.34,5.61-2.69,11.23-3.62,16.93l-.18,1.14,0,.12a.36.36,0,0,0,0-.09,149.07,149.07,0,0,1-20.59,10.53L323.24,269a15.91,15.91,0,0,1-.16-3.16c.15-1.67.83-3.25,1-4.92a8.31,8.31,0,0,0-.88-4.72,5.34,5.34,0,0,1-.73-1.75,1.11,1.11,0,0,1,.93-1.28,2.26,2.26,0,0,0,.39-2,5.46,5.46,0,0,0-.34-1.13c-.43-1-1-2.17-.6-3.22a1.24,1.24,0,0,0,.13-.62v0c-.09-.28-.42-.4-.59-.64-.32-.44,0-1,.2-1.54a5.7,5.7,0,0,0,.33-1.69c0-.32.05-.64.08-1a9.17,9.17,0,0,1,.24-1.27,10.06,10.06,0,0,1,4.07-5.83c1-.65,2-1.12,3-1.73a28.36,28.36,0,0,0,2.88-2.23q3.27-2.73,6.8-5.14a85.21,85.21,0,0,1,7.86-4.77c.58-.32,1.16-.62,1.74-.92s1.26-.64,1.9-.94c2-1,4.36-.61,6.62,0,.94.27,1.88.6,2.78.89a13.66,13.66,0,0,1,2.53,1.13,9.3,9.3,0,0,1,4.33,5.1,0,0,0,0,1,0,0A12.82,12.82,0,0,1,368.21,229.92Z" transform="translate(-11.55 -2.88)"/><path class="cls-7" d="M368.21,229.92c0,.23,0,.45,0,.68a29.74,29.74,0,0,1-.3,3.25,20.5,20.5,0,0,1-1.07,4.3,14.21,14.21,0,0,1-1.28,2.63,11.72,11.72,0,0,1-1.59,2.05c-1.49,1.55-3.63,2-5.7,2.69a14.6,14.6,0,0,0-2.75,1.13,4.21,4.21,0,0,0-.45.28l-2.6,1.71a7.9,7.9,0,0,0-2.18,1.88,2.22,2.22,0,0,0-.25.42,9.8,9.8,0,0,0-.77,2.29c-1.34,5.61-2.69,11.23-3.62,16.93l-.18,1.14,0,.12a.36.36,0,0,0,0-.09,149.07,149.07,0,0,1-20.59,10.53L323.24,269a15.91,15.91,0,0,1-.16-3.16c.15-1.67.83-3.25,1-4.92a8.31,8.31,0,0,0-.88-4.72,5.34,5.34,0,0,1-.73-1.75,1.11,1.11,0,0,1,.93-1.28,2.26,2.26,0,0,0,.39-2,5.46,5.46,0,0,0-.34-1.13c-.43-1-1-2.17-.6-3.22a1.24,1.24,0,0,0,.13-.62v0c-.09-.28-.42-.4-.59-.64-.32-.44,0-1,.2-1.54a5.7,5.7,0,0,0,.33-1.69c0-.32.05-.64.08-1a9.17,9.17,0,0,1,.24-1.27,10.06,10.06,0,0,1,4.07-5.83c1-.65,2-1.12,3-1.73a28.36,28.36,0,0,0,2.88-2.23q3.27-2.73,6.8-5.14a85.21,85.21,0,0,1,7.86-4.77c.58-.32,1.16-.62,1.74-.92s1.26-.64,1.9-.94c2-1,4.36-.61,6.62,0,.94.27,1.88.6,2.78.89a13.66,13.66,0,0,1,2.53,1.13,9.3,9.3,0,0,1,4.33,5.1,0,0,0,0,1,0,0A12.82,12.82,0,0,1,368.21,229.92Z" transform="translate(-11.55 -2.88)"/><path class="cls-2" d="M344.68,188.88a.46.46,0,0,0-.61-.24.45.45,0,0,0-.24.61v0l-.25.12L351,204.55l1.34-.65-7.39-15.15Z" transform="translate(-11.55 -2.88)"/><circle class="cls-12" cx="342.37" cy="154.28" r="15.86"/><path class="cls-8" d="M374.85,147.34a20.6,20.6,0,0,0-.56-3.74,21.89,21.89,0,0,0-5.57-10.83,21.7,21.7,0,0,0-.64-2.08l0-.05a23.23,23.23,0,0,0-3.74-6.63c-.93-1.16-2.14-2.3-3.62-2.34a2.9,2.9,0,0,1-1.24-.14,2.3,2.3,0,0,1-.69-.7,6.49,6.49,0,0,0-6.28-2.36l-.16,0a.94.94,0,0,0-.24.06l-.32.09c.12.19.23.38.34.57.29.52.57,1.06.82,1.61s.4.92.57,1.39c-2.53.29-4.6,2.09-6.49,3.8l-4.44,4,0,0-.12.12a.94.94,0,0,0-.1.1l0,0-.11.12a1.32,1.32,0,0,0-.16.25l-.07.11,0,0s0,.07,0,.11h0a.14.14,0,0,1,0,.06.75.75,0,0,0,.05.53l2.93,0h.34c0,.39,0,.79.05,1.18a16.11,16.11,0,0,0-1.34,1.11,14.24,14.24,0,0,0-1.31,1.38,19,19,0,0,0-4.16,11.47v1.52c0,.25,0,.5,0,.74a1.84,1.84,0,0,0,.25.92l.07.09a1.82,1.82,0,0,0,.52.39l.22.1h0l.3.16c.94.53,1.49,1.55,2.34,2.2l.15.11.11.07.07,0,.09.05.19.1h0l.12.06h0l.3.13.14.05h.05l.12,0,.25.06.25.06.29.05.15,0h.15c.23,0,.47,0,.71,0h0a18.91,18.91,0,0,0,2.25-.16l6.32-.74a13.56,13.56,0,0,1,4.31,0,29.17,29.17,0,0,1,3.47,1.22c.27.09.53.18.79.25l.3.08.14,0,.31.07.34.08.49.09a3.23,3.23,0,0,0,.33.06h0l.32.05h.07l.24,0,.34.05.76.08c.41,0,.82.07,1.24.09l.41,0,.41,0,1.24,0h.23a6.11,6.11,0,0,0,1.54-.08,1.1,1.1,0,0,0,.26-.06l.25-.08a4.19,4.19,0,0,0,2.08-2c.1-.19.19-.37.28-.56s.16-.39.23-.58.16-.48.22-.73a1.6,1.6,0,0,0,.05-.21c0-.06.05-.2.07-.3a8.79,8.79,0,0,0,.15-.87,2.48,2.48,0,0,1,0-.27c0-.25,0-.48.05-.73v-.55C374.87,147.86,374.85,147.59,374.85,147.34Zm-6.35-14.8-.62-.54a2.63,2.63,0,0,1,.61.54Z" transform="translate(-11.55 -2.88)"/><path class="cls-8" d="M323.48,156.28c-1.87-.23-3.72-1-5.56-.64a7.55,7.55,0,0,0-3.06,1.7,37.26,37.26,0,0,0-8.62,9.85,5.21,5.21,0,0,0-.79,1.86,4.93,4.93,0,0,0,.34,2.3c1.69,5,5.32,9.19,7,14.21,1.73,5.29,1.13,11.06-.15,16.47A68.76,68.76,0,0,1,305,221a10.65,10.65,0,0,1-1.76,2.41c-.9.86-2.11,1.48-2.65,2.62a10.47,10.47,0,0,0-.49,1.59c-.5,1.49-1.7,2.76-1.82,4.33a10.12,10.12,0,0,0,.83,3.47,9.53,9.53,0,0,1-.18,6c-1.25,3.44-4.54,6.58-3.58,10.12,2.12-.61,4.48-1.41,5.49-3.38a6.08,6.08,0,0,1,1.12-2c1.2-1,3.23-.09,4.49-1a2.85,2.85,0,0,0,.57-3.28c-.43-1.12-1.16-2.1-1.49-3.24-.57-2.07.34-4.26.17-6.4-.08-1-.38-1.94-.4-2.93a6.87,6.87,0,0,1,2.43-5,20,20,0,0,1,4.86-3l6.49-3.22c2.35-1.16,4.92-2.58,5.69-5.09a9.88,9.88,0,0,0,.31-2.92c.22-15,4-29.69,7.72-44.21a55.15,55.15,0,0,1,2-6.67c.86-2.16,2.55-3.9,3.41-5.91C333.22,152.62,328.66,156.93,323.48,156.28Z" transform="translate(-11.55 -2.88)"/><path class="cls-14" d="M359.22,250.35c.57,3.47.92,7,1.19,10.54a120.9,120.9,0,0,1-14.14,9.9c-.28.17-.56.34-.84.49l0,.12s0,0,0-.08a3.74,3.74,0,0,0-1.86-1.84L338,258a30.11,30.11,0,0,1-2.47-6.41s0-.09,0-.14c-.38-1.74-.47-3.54-.72-5.29a14.93,14.93,0,0,0-.67-3c-.3-.86-.71-1.69-1.07-2.52a8.4,8.4,0,0,1-.84-3.19,2.13,2.13,0,0,0-.15-1,2.47,2.47,0,0,0-.68-.65,2.59,2.59,0,0,1-.83-2.36c-1.49.08-2.32,1.67-2.92,3a16.71,16.71,0,0,1-2.12,3.72,7,7,0,0,1-2.35,1.95l-.25.12c-2.07.91-4.48.59-6.73.17a12.61,12.61,0,0,1-5.56-2l-.17-.13a7.44,7.44,0,0,1-1.24-1.33,14.46,14.46,0,0,1-2.23-6.44c0-.21-.06-.43-.08-.64a23.65,23.65,0,0,1-.19-4.83c0-.39.07-.79.12-1.18s.08-.52.12-.78v0c.06-.41.13-.82.2-1.24a11.44,11.44,0,0,1,1.24-4.05,7.73,7.73,0,0,1,1.82-2c.27-.21.55-.41.82-.6.45-.31.92-.61,1.39-.89a23.24,23.24,0,0,1,3.72-1.81c.3-.12.62-.23.93-.34a7.37,7.37,0,0,1,3.78-.3,19.29,19.29,0,0,0,3.39.2,86,86,0,0,0,8.73-1c4-.5,8.36-.56,11.87,1.49a5.09,5.09,0,0,1,.5.3,14.89,14.89,0,0,1,4.26,4.5c.25.38.46.76.68,1.15a30.28,30.28,0,0,1,1.33,2.75,3.49,3.49,0,0,1,.37,1.49,2.89,2.89,0,0,1,0,.29c-.07.35-.21.69-.25,1.05-.16,1.35,1,2.48,1.42,3.77a17.1,17.1,0,0,1,.4,2.61,13.52,13.52,0,0,0,1.38,3.47,43.14,43.14,0,0,1,2.2,5.54c.44,1.33.81,2.67,1.13,4,.11.43.21.87.3,1.31C358.8,248,359,249.17,359.22,250.35Z" transform="translate(-11.55 -2.88)"/><polygon class="cls-2" points="374.08 210.78 374.08 212.51 373.76 212.51 373.41 212.5 369.42 212.45 359.61 212.32 356.85 212.29 356.14 212.28 352 212.23 346.17 212.15 333.81 211.99 312.35 211.71 304.61 211.61 301.5 211.57 298.64 211.54 296.86 211.51 295.17 211.49 282.66 211.33 279.19 211.28 278.43 211.27 277.94 210.01 274.38 200.81 273.73 199.13 274.22 197.15 276.45 198.64 277.82 198.81 300.43 201.62 304.67 202.15 313.66 203.26 322.48 204.36 325.93 204.79 346.37 207.33 352.08 208.04 356.81 208.63 373.62 210.72 374.08 210.78"/><polygon class="cls-5" points="274.22 197.15 278.68 208.8 374.08 210.78 374.08 198.14 274.22 197.15"/><polygon class="cls-2" points="279.18 210.03 279.92 281.15 283.39 280.66 282.65 210.03 279.18 210.03"/><path class="cls-2" d="M385.32,215.38H385a77.85,77.85,0,0,1-2.86,13.08L381,215.33l-.05-.56,4.17-.48.14,0Z" transform="translate(-11.55 -2.88)"/><polygon class="cls-10" points="360.21 204.09 323.9 204.83 312.63 201.11 342.86 199.38 360.21 204.09"/><path class="cls-12" d="M326.22,192.51a2.48,2.48,0,0,0-1,.71,2.61,2.61,0,0,0-.37,1.12l-.61,3.64a1.59,1.59,0,0,0,.05,1c.16.3.62.46.85.21a3.29,3.29,0,0,0,.44,2.05,1.44,1.44,0,0,0,1.87.48,1.2,1.2,0,0,0,1.66.4l.16-.12c-.35.12-.37.66-.12.93a1.56,1.56,0,0,0,1,.4A24.7,24.7,0,0,0,343,201.73c.38-.16-.63-4.9-.73-5.38-.25-1.15-.37-2.54-1.34-3.31-2.3-1.84-6.4-2.2-9.2-2A15.89,15.89,0,0,0,326.22,192.51Z" transform="translate(-11.55 -2.88)"/><path class="cls-7" d="M363.16,193.06c-9,.17-18.11.32-26.67-2.36a18.1,18.1,0,0,1-.16,9.63l41.91,3.47c1.77.14,9.14,1,10.87.56s-14.53-5.78-13.87-7.44c1.8-4.56,7.85-7.24,3.5-7.41C373.23,189.29,368.7,193,363.16,193.06Z" transform="translate(-11.55 -2.88)"/><path class="cls-8" d="M363.41,193.56c-9,.17-18.12.31-26.67-2.37a18.09,18.09,0,0,1-.16,9.63l41.9,3.47c1.78.15,9.15,1,10.88.56s1.33-2.55,2-4.21c1.81-4.57-8-10.46-12.36-10.64C373.48,189.79,369,193.45,363.41,193.56Z" transform="translate(-11.55 -2.88)"/><path class="cls-12" d="M349.16,194.25a2.46,2.46,0,0,1,1,.7,2.84,2.84,0,0,1,.37,1.13l.61,3.63a1.66,1.66,0,0,1-.05,1c-.16.31-.62.47-.85.21a3.23,3.23,0,0,1-.45,2,1.42,1.42,0,0,1-1.86.48,1.22,1.22,0,0,1-1.67.4.57.57,0,0,1-.15-.12c.35.12.37.66.12.93a1.65,1.65,0,0,1-1,.41,24.81,24.81,0,0,1-12.86-1.62c-.38-.16.63-4.89.73-5.38.25-1.14.37-2.54,1.34-3.31,2.3-1.83,6.39-2.2,9.2-2A16,16,0,0,1,349.16,194.25Z" transform="translate(-11.55 -2.88)"/><path class="cls-8" d="M289.93,186.35a16.12,16.12,0,0,0-2.18,3.38c-1,2.36-.86,5-.69,7.6a4.36,4.36,0,0,0,.49,2.12,3.64,3.64,0,0,0,1.3,1.1A18.18,18.18,0,0,0,296,202.4q5.63.63,11.31.76c9.37.23,18.88-.53,28,1.59a7,7,0,0,1-.49-5.95,20.41,20.41,0,0,1,3-5.34c-4.18-1.32-8.66.75-13,.54s-8.65-2.81-13.14-2.8a11.61,11.61,0,0,1-2.89-.12,2.41,2.41,0,0,1-1.94-1.9c1.2.27,2.34-.76,2.83-1.88s.59-2.4,1.07-3.53c1.2-2.82,4.43-4.12,6.44-6.44a1.58,1.58,0,0,0,.11-2.4c-1.67-2.23-4.19-3.47-6.28-5.2-.73-.61-2.2-2.89-3-3.1-1.52-.38-2.8,1.81-3.79,2.87Q296.71,177.62,289.93,186.35Z" transform="translate(-11.55 -2.88)"/><path class="cls-15" d="M339.76,185.72a8.11,8.11,0,0,1,1.66,1.65,2.81,2.81,0,0,1,.51,2.21,3.32,3.32,0,0,1,2.07-3.42Z" transform="translate(-11.55 -2.88)"/><g class="cls-11"><path d="M353.5,120.74a24.06,24.06,0,0,0-1-2.27,6,6,0,0,0-.73.19,20.77,20.77,0,0,1,1.15,2.19A3.71,3.71,0,0,1,353.5,120.74Z" transform="translate(-11.55 -2.88)"/><path d="M367.88,130.51l.19.18a.43.43,0,0,0,0-.05Z" transform="translate(-11.55 -2.88)"/><path d="M344.84,131.6c.13-.1.25-.21.39-.3l0-1.18-2.65,0c-.42.4-.88,1-.63,1.49Z" transform="translate(-11.55 -2.88)"/><path d="M373.78,151.42a4.23,4.23,0,0,1-2.08,2.05,5.6,5.6,0,0,1-2.27.21,26.51,26.51,0,0,1-7.74-1.08,26.48,26.48,0,0,0-3.47-1.23,13.85,13.85,0,0,0-4.31,0l-6.33.75c-1.86.22-3.94.38-5.43-.77-.85-.65-1.4-1.67-2.34-2.19-.39-.23-.86-.37-1.11-.75a1.74,1.74,0,0,1-.25-.92c0-.26,0-.52,0-.78a19.07,19.07,0,0,0,0,2.27,1.77,1.77,0,0,0,.25.92,2.89,2.89,0,0,0,1.11.74c.94.53,1.49,1.55,2.34,2.2,1.49,1.15,3.57,1,5.43.76l6.33-.74a13.55,13.55,0,0,1,4.31,0,29.17,29.17,0,0,1,3.47,1.22,26.24,26.24,0,0,0,7.74,1.09,5.79,5.79,0,0,0,2.27-.21,4.25,4.25,0,0,0,2.08-2.06,10.58,10.58,0,0,0,1.07-5.56A9.86,9.86,0,0,1,373.78,151.42Z" transform="translate(-11.55 -2.88)"/></g><path class="cls-7" d="M353.43,122.33l3.47,3.23S353.93,124.32,353.43,122.33Z" transform="translate(-11.55 -2.88)"/><circle class="cls-2" cx="79.64" cy="105.48" r="79.64"/><circle class="cls-10" cx="79.64" cy="105.48" r="73.05"/><circle class="cls-2" cx="79.38" cy="105.75" r="9.76"/><rect class="cls-2" x="77.27" y="36.13" width="4.22" height="7.91"/><rect class="cls-2" x="77.27" y="167.46" width="4.22" height="7.91"/><rect class="cls-2" x="141.08" y="103.64" width="7.91" height="4.22"/><polygon class="cls-2" points="76.56 109.98 80.17 101.74 125.35 126.76 76.56 109.98"/><rect class="cls-2" x="69.36" y="6.59" width="20.57" height="23.73"/><ellipse class="cls-2" cx="79.64" cy="6.59" rx="23.73" ry="6.59"/></svg>