<svg id="Layer_1" data-name="Layer 1" xmlns="http://www.w3.org/2000/svg" viewBox="0 0 399 299.5"><defs><style>.cls-1{fill:#ffc2c2;}.cls-2{fill:#e53030;}.cls-3{fill:none;stroke:#3f3d56;stroke-miterlimit:10;}.cls-4{fill:#57b894;}.cls-5{fill:#3f3d56;}.cls-6{fill:#ffc1c7;}.cls-7{fill:#2f2e41;}.cls-8{fill:#6c63ff;}.cls-9{opacity:0.1;}.cls-13,.cls-9{isolation:isolate;}.cls-10{fill:#ff6584;}.cls-11{fill:#f2f2f2;}.cls-12{fill:#a8a8a8;}.cls-13{opacity:0.2;}.cls-14,.cls-15{fill:#fff;}.cls-15{font-size:36px;font-family:Montserrat-Bold, Montserrat;font-weight:700;}.cls-16{letter-spacing:-0.02em;}</style></defs><title>why-1</title><rect class="cls-1" width="200" height="299.5"/><rect class="cls-2" x="199" width="200" height="299.5"/><line class="cls-3" x1="19.38" y1="285.56" x2="109.03" y2="285.56"/><path class="cls-3" d="M16.59,242.24A5.34,5.34,0,0,0,12,245.47c-1.16,2.79.33,6.06,2.56,8.09s5.09,3.2,7.69,4.73a20.63,20.63,0,0,1,8.39,8.55,12.68,12.68,0,0,1-.12,11.68c-1.91,3.24-5.38,5.18-8.69,7" transform="translate(-0.5)"/><ellipse class="cls-4" cx="19.03" cy="242.48" rx="4.08" ry="1.98"/><ellipse class="cls-4" cx="22.29" cy="255.52" rx="4.08" ry="1.98"/><ellipse class="cls-4" cx="14.84" cy="257.62" rx="4.08" ry="1.98"/><ellipse class="cls-4" cx="26.48" cy="268.57" rx="4.08" ry="1.98"/><ellipse class="cls-4" cx="34.63" cy="268.57" rx="4.08" ry="1.98"/><path class="cls-3" d="M26.47,250.24a4.38,4.38,0,0,1,3.77,2.63c.94,2.28-.27,4.95-2.1,6.62s-4.15,2.6-6.28,3.85a16.9,16.9,0,0,0-6.85,7,10.33,10.33,0,0,0,.1,9.54c1.56,2.64,4.39,4.23,7.1,5.69" transform="translate(-0.5)"/><ellipse class="cls-4" cx="23.57" cy="250.44" rx="3.33" ry="1.62"/><ellipse class="cls-4" cx="20.91" cy="261.09" rx="3.33" ry="1.62"/><ellipse class="cls-4" cx="26.99" cy="262.8" rx="3.33" ry="1.62"/><ellipse class="cls-4" cx="17.48" cy="271.74" rx="3.33" ry="1.62"/><path class="cls-5" d="M40.47,275.3a16.74,16.74,0,0,0,4,1.39c1.63.24,2.55-1.41,2.2-2s1.06-.1,2,2c0,0,4,4.66,6.29,4.89s2.34,3.39,1.16,3.5-3.49.93-6.29,0-5.35-3.5-6.52-3.5-5.12-1.86-3.95-2.79S40.47,275.3,40.47,275.3Z" transform="translate(-0.5)"/><path class="cls-5" d="M63.42,280.56a12.79,12.79,0,0,0,3.55-.22c1.6-.39,1.84-2.26,1.31-2.67s.94-.49,2.59,1.11c0,0,5.4,2.86,7.65,2.21s3.44,2.27,2.38,2.81a13.45,13.45,0,0,1-5.84,1.65c-2.94.17-6.27-.57-7.35-.14s-5.45.17-4.71-1.12A7.24,7.24,0,0,0,63.42,280.56Z" transform="translate(-0.5)"/><circle class="cls-6" cx="58.96" cy="160.4" r="9.08"/><path class="cls-6" d="M52.36,164s1.4,9.78-1.86,11.18,16.53.93,16.53.93-2.79-8.85-2.09-11.18S52.36,164,52.36,164Z" transform="translate(-0.5)"/><path class="cls-7" d="M49.1,219.66s-.7,17.7-1.4,19.56-1.39,14.44-1.39,14.44l-6.06,22.82,5.59,1.87s7.68-13.51,8.62-15.14,8.38-27.71,8.38-27.71-.7,16.07-.7,21.42,1.4,24.92,1.4,24.92l4.42-.47,5.82-24.68s8.39-33.3,2.8-37S49.1,219.66,49.1,219.66Z" transform="translate(-0.5)"/><path class="cls-6" d="M83.1,225.25s.23,13.51-2.56,11.41,0-12.57,0-12.57Z" transform="translate(-0.5)"/><path class="cls-6" d="M44.44,220.6s.24,13.5-2.56,11.41,0-12.58,0-12.58Z" transform="translate(-0.5)"/><path class="cls-8" d="M78.67,181.24s-4.65-5.35-8.61-4.66-25.62.47-25.62.47-7.22,9.08-5.35,10.94S47,222.92,47,222.92s16.07-2.09,21.66-2.09,7.92-.93,7.92-.93-7.45-14.91-4-21.66a137.76,137.76,0,0,1,8.62-14Z" transform="translate(-0.5)"/><path class="cls-8" d="M77.28,182.87l4,1.4s2.32,8.15,2.32,14.67.24,9.78,1.17,12.11,4,13.27,2.33,15.6a15.45,15.45,0,0,1-3.26,3.49l-5.36-.46s-.23-7.69-1.63-8.39-3.26-5.12-3.26-5.12-4.42-14.2-1.63-18.86S77.28,182.87,77.28,182.87Z" transform="translate(-0.5)"/><path class="cls-5" d="M62.37,191.49s2.33-10.25-2.09-9.78-10.48.7-12.11.7-11-1.17-12.34,4.89-3.26,13.5.7,18.16c0,0,1.39,20.49,6.75,21.89s19.56,3,24.68-3.73a17.33,17.33,0,0,0,3-14.2H68.66Z" transform="translate(-0.5)"/><polygon class="cls-5" points="69.56 209.88 71.42 197.31 70.49 210.35 69.56 209.88"/><path class="cls-9" d="M38.85,207.09s4,1.86,12.11.7v3.49l-12.11-.93Z" transform="translate(-0.5)"/><polygon class="cls-5" points="59.66 181.59 65.72 178.33 60.59 182.75 59.66 181.59"/><path class="cls-8" d="M73.09,178.21s4.65,1.63,4.65,0-4.19-3-6.75-4-14.67-2.33-16.53-3-10.72-1.86-11.41.93-.94,8.62,2.56,9.31,12.57-1.16,17.23-.69S73.09,178.21,73.09,178.21Z" transform="translate(-0.5)"/><path class="cls-9" d="M73.09,178.21s4.65,1.63,4.65,0-4.19-3-6.75-4-14.67-2.33-16.53-3-10.72-1.86-11.41.93-.94,8.62,2.56,9.31,12.57-1.16,17.23-.69S73.09,178.21,73.09,178.21Z" transform="translate(-0.5)"/><polygon class="cls-5" points="40.1 183.45 41.68 180.13 41.96 184.15 40.1 183.45"/><ellipse class="cls-7" cx="57.39" cy="159.9" rx="8.5" ry="9.88"/><ellipse class="cls-7" cx="58.89" cy="154.64" rx="8.5" ry="5.38"/><ellipse class="cls-6" cx="65.52" cy="162.77" rx="0.88" ry="1.5"/><path class="cls-7" d="M64.8,153.29A5.6,5.6,0,0,0,67,150.71a2.76,2.76,0,0,1,0,.81,3.15,3.15,0,0,0,1.07-.32l-.08.88a9.17,9.17,0,0,0,1.75-1.41,6.86,6.86,0,0,1-.61,3.71,7.46,7.46,0,0,1-1.72,2.1" transform="translate(-0.5)"/><line class="cls-3" x1="217.38" y1="287.56" x2="307.03" y2="287.56"/><path class="cls-3" d="M214.59,244.24a5.34,5.34,0,0,0-4.61,3.23c-1.16,2.79.33,6.06,2.56,8.09s5.09,3.2,7.69,4.73a20.63,20.63,0,0,1,8.39,8.55,12.68,12.68,0,0,1-.12,11.68c-1.91,3.24-5.38,5.18-8.69,7" transform="translate(-0.5)"/><ellipse class="cls-4" cx="217.03" cy="244.48" rx="4.08" ry="1.98"/><ellipse class="cls-4" cx="220.29" cy="257.52" rx="4.08" ry="1.98"/><ellipse class="cls-4" cx="212.84" cy="259.62" rx="4.08" ry="1.98"/><ellipse class="cls-4" cx="224.48" cy="270.57" rx="4.08" ry="1.98"/><ellipse class="cls-4" cx="232.63" cy="270.57" rx="4.08" ry="1.98"/><path class="cls-3" d="M224.47,252.24a4.38,4.38,0,0,1,3.77,2.63c.94,2.28-.27,4.95-2.1,6.62s-4.15,2.6-6.28,3.85a16.9,16.9,0,0,0-6.85,7,10.33,10.33,0,0,0,.1,9.54c1.56,2.64,4.39,4.23,7.1,5.69" transform="translate(-0.5)"/><ellipse class="cls-4" cx="221.57" cy="252.44" rx="3.33" ry="1.62"/><ellipse class="cls-4" cx="218.91" cy="263.09" rx="3.33" ry="1.62"/><ellipse class="cls-4" cx="224.99" cy="264.8" rx="3.33" ry="1.62"/><ellipse class="cls-4" cx="215.48" cy="273.74" rx="3.33" ry="1.62"/><ellipse class="cls-4" cx="208.83" cy="273.74" rx="3.33" ry="1.62"/><path class="cls-5" d="M238.47,277.3a16.74,16.74,0,0,0,4,1.39c1.63.24,2.55-1.41,2.2-2s1.06-.1,2,2c0,0,4,4.66,6.29,4.89s2.34,3.39,1.16,3.5-3.49.93-6.29,0-5.35-3.5-6.52-3.5-5.12-1.86-3.95-2.79S238.47,277.3,238.47,277.3Z" transform="translate(-0.5)"/><path class="cls-5" d="M261.42,282.56a12.79,12.79,0,0,0,3.55-.22c1.6-.39,1.84-2.26,1.31-2.67s.94-.49,2.59,1.11c0,0,5.4,2.86,7.65,2.21s3.44,2.27,2.38,2.81a13.45,13.45,0,0,1-5.84,1.65c-2.94.17-6.27-.57-7.35-.14s-5.45.17-4.71-1.12A7.24,7.24,0,0,0,261.42,282.56Z" transform="translate(-0.5)"/><circle class="cls-6" cx="256.96" cy="162.4" r="9.08"/><path class="cls-6" d="M250.36,166s1.4,9.78-1.86,11.18,16.53.93,16.53.93-2.79-8.85-2.09-11.18S250.36,166,250.36,166Z" transform="translate(-0.5)"/><path class="cls-7" d="M247.1,221.66s-.7,17.7-1.4,19.56-1.39,14.44-1.39,14.44l-6.06,22.82,5.59,1.87s7.68-13.51,8.62-15.14,8.38-27.71,8.38-27.71-.7,16.07-.7,21.42,1.4,24.92,1.4,24.92l4.42-.47,5.82-24.68s8.39-33.3,2.8-37S247.1,221.66,247.1,221.66Z" transform="translate(-0.5)"/><path class="cls-6" d="M281.1,227.25s.23,13.51-2.56,11.41,0-12.57,0-12.57Z" transform="translate(-0.5)"/><path class="cls-6" d="M242.44,222.6s.24,13.5-2.56,11.41,0-12.58,0-12.58Z" transform="translate(-0.5)"/><path class="cls-8" d="M276.67,183.24s-4.65-5.35-8.61-4.66-25.62.47-25.62.47-7.22,9.08-5.35,10.94S245,224.92,245,224.92s16.07-2.09,21.66-2.09,7.92-.93,7.92-.93-7.45-14.91-4-21.66a137.76,137.76,0,0,1,8.62-14Z" transform="translate(-0.5)"/><path class="cls-8" d="M275.28,184.87l4,1.4s2.32,8.15,2.32,14.67.24,9.78,1.17,12.11,4,13.27,2.33,15.6a15.45,15.45,0,0,1-3.26,3.49l-5.36-.46s-.23-7.69-1.63-8.39-3.26-5.12-3.26-5.12-4.42-14.2-1.63-18.86S275.28,184.87,275.28,184.87Z" transform="translate(-0.5)"/><path class="cls-5" d="M260.37,193.49s2.33-10.25-2.09-9.78-10.48.7-12.11.7-10.95-1.17-12.34,4.89-3.26,13.5.7,18.16c0,0,1.39,20.49,6.75,21.89s19.56,3,24.68-3.73a17.33,17.33,0,0,0,3-14.2h-2.33Z" transform="translate(-0.5)"/><polygon class="cls-5" points="267.56 211.88 269.42 199.31 268.49 212.35 267.56 211.88"/><path class="cls-9" d="M236.85,209.09s4,1.86,12.11.7v3.49l-12.11-.93Z" transform="translate(-0.5)"/><polygon class="cls-5" points="257.66 183.59 263.72 180.33 258.59 184.75 257.66 183.59"/><path class="cls-8" d="M271.09,180.21s4.65,1.63,4.65,0-4.19-3-6.75-4-14.67-2.33-16.53-3-10.72-1.86-11.41.93-.94,8.62,2.56,9.31,12.57-1.16,17.23-.69S271.09,180.21,271.09,180.21Z" transform="translate(-0.5)"/><path class="cls-9" d="M271.09,180.21s4.65,1.63,4.65,0-4.19-3-6.75-4-14.67-2.33-16.53-3-10.72-1.86-11.41.93-.94,8.62,2.56,9.31,12.57-1.16,17.23-.69S271.09,180.21,271.09,180.21Z" transform="translate(-0.5)"/><polygon class="cls-5" points="238.1 185.45 239.68 182.13 239.96 186.15 238.1 185.45"/><ellipse class="cls-7" cx="255.39" cy="161.9" rx="8.5" ry="9.88"/><ellipse class="cls-7" cx="256.89" cy="156.64" rx="8.5" ry="5.38"/><ellipse class="cls-6" cx="263.52" cy="164.77" rx="0.88" ry="1.5"/><path class="cls-7" d="M262.8,155.29a5.6,5.6,0,0,0,2.23-2.58,2.76,2.76,0,0,1,0,.81,3.15,3.15,0,0,0,1.07-.32l-.08.88a9.17,9.17,0,0,0,1.75-1.41,6.86,6.86,0,0,1-.61,3.71,7.46,7.46,0,0,1-1.72,2.1" transform="translate(-0.5)"/><circle class="cls-10" cx="44.76" cy="74.54" r="14.31"/><path class="cls-11" d="M187.08,140.64a30,30,0,0,1-2.65,2.12,34.06,34.06,0,0,1-7.06,3.79c-10.38-.25-25.63-1.52-44.87-2.2q-2.16-.73-4.41-1.59-3-1.14-6.13-2.5a113.11,113.11,0,0,0-26.56-7.68q-2.85-.48-5.7-.81c-40.07-4.79-77,9.28-81.29,11H8l2.63-5.1L55.41,50.92,65.88,77.81l3.34,8.58,9.22-12.64,4.75-6.53,21.67,24.84L111,78.54l42.39,34.59,2.36,1.93,2.39,2,.77.62,22.66,18.5Z" transform="translate(-0.5)"/><polygon class="cls-9" points="50.92 68.39 55.24 58.91 61.23 72.71 56.07 62.73 50.92 68.39"/><path class="cls-9" d="M95.4,132.58q-2.85-.48-5.7-.81L69.22,86.39Z" transform="translate(-0.5)"/><polygon class="cls-9" points="77.94 73.75 82.69 70.05 104.32 95.01 82.36 73.71 77.94 73.75"/><polygon class="cls-9" points="104.36 92.06 147.58 133.44 141.67 134.83 104.36 92.06"/><path class="cls-5" d="M193,142.84c0,3.22-5.48,4-15.63,3.71-10.38-.25-25.63-1.52-44.87-2.2-7.29-.26-15.14-.43-23.52-.43-52.19,0-105,6.68-105-1.08,0-1.83,2.35-3.58,6.62-5.18,12.68-4.76,42.29-8.24,77.77-8.8,1.61,0,3.24,0,4.87-.06l5.24,0c14.1,0,27.49.46,39.51,1.28h.11l2.87.21,3.06.24.63,0,.44,0,.82.07h0l1.47.13h.16c14.22,1.29,26,3.13,34,5.31C188.85,138.12,193,140.41,193,142.84Z" transform="translate(-0.5)"/><path class="cls-5" d="M15.79,115.08c0,10.65,6.69,19.27,14.94,19.27" transform="translate(-0.5)"/><path class="cls-8" d="M30.73,134.35c0-10.77,7.46-19.48,16.67-19.48" transform="translate(-0.5)"/><path class="cls-8" d="M21.21,116.05c0,10.11,4.26,18.3,9.52,18.3" transform="translate(-0.5)"/><path class="cls-5" d="M30.73,134.35c0-13.76,8.62-24.9,19.27-24.9" transform="translate(-0.5)"/><path class="cls-12" d="M27.59,134.49a7.89,7.89,0,0,0,2.76-.52c.64-.46,3.26-1,3.41-.27s3.19,3.62.8,3.64-5.56-.37-6.2-.76S27.59,134.49,27.59,134.49Z" transform="translate(-0.5)"/><path class="cls-13" d="M34.6,137.09c-2.39,0-5.56-.37-6.2-.76-.48-.3-.67-1.36-.74-1.85h-.07s.13,1.71.77,2.09,3.8.78,6.2.76c.69,0,.92-.25.91-.61C35.38,137,35.11,137.09,34.6,137.09Z" transform="translate(-0.5)"/><path class="cls-5" d="M130.92,113.58c0,10.66,6.69,19.27,14.94,19.27Z" transform="translate(-0.5)"/><path class="cls-8" d="M145.86,132.85c0-10.77,7.46-19.48,16.67-19.48Z" transform="translate(-0.5)"/><path class="cls-8" d="M136.34,114.55c0,10.12,4.26,18.3,9.52,18.3Z" transform="translate(-0.5)"/><path class="cls-5" d="M145.86,132.85c0-13.76,8.62-24.89,19.27-24.89Z" transform="translate(-0.5)"/><path class="cls-12" d="M142.72,133a7.89,7.89,0,0,0,2.76-.52c.64-.46,3.26-1,3.41-.27s3.19,3.63.8,3.65-5.56-.38-6.2-.76S142.72,133,142.72,133Z" transform="translate(-0.5)"/><path class="cls-13" d="M149.73,135.59c-2.39,0-5.56-.37-6.2-.76-.48-.29-.67-1.35-.74-1.84h-.07s.13,1.71.77,2.1,3.8.78,6.2.76c.69,0,.93-.25.91-.62C150.51,135.45,150.24,135.59,149.73,135.59Z" transform="translate(-0.5)"/><path class="cls-8" d="M174.89,137.51V130h-2.43v7.52a1.56,1.56,0,0,0-.78,1.35h4A1.56,1.56,0,0,0,174.89,137.51Z" transform="translate(-0.5)"/><path class="cls-8" d="M181.43,137.51V130H179v7.52a1.55,1.55,0,0,0-.77,1.35h4A1.55,1.55,0,0,0,181.43,137.51Z" transform="translate(-0.5)"/><circle class="cls-8" cx="176.39" cy="120.89" r="16.11"/><ellipse class="cls-14" cx="176.39" cy="128.96" rx="6.38" ry="2.13"/><circle class="cls-14" cx="170.61" cy="117.24" r="2.74"/><circle class="cls-14" cx="182.16" cy="117.24" r="2.74"/><circle class="cls-5" cx="170.67" cy="117.21" r="2.13"/><circle class="cls-5" cx="182.19" cy="117.21" r="2.13"/><circle class="cls-5" cx="176.39" cy="123.1" r="1.22"/><circle class="cls-14" cx="169.74" cy="116.48" r="0.44"/><circle class="cls-14" cx="183.25" cy="116.48" r="0.44"/><path class="cls-8" d="M29.89,136.51V129H27.46v7.52a1.56,1.56,0,0,0-.78,1.35h4A1.56,1.56,0,0,0,29.89,136.51Z" transform="translate(-0.5)"/><path class="cls-8" d="M36.43,136.51V129H34v7.52a1.55,1.55,0,0,0-.77,1.35h4A1.55,1.55,0,0,0,36.43,136.51Z" transform="translate(-0.5)"/><circle class="cls-8" cx="31.39" cy="119.89" r="16.11"/><ellipse class="cls-14" cx="31.39" cy="127.96" rx="6.38" ry="2.13"/><circle class="cls-14" cx="25.61" cy="116.24" r="2.74"/><circle class="cls-14" cx="37.16" cy="116.24" r="2.74"/><circle class="cls-5" cx="25.67" cy="116.21" r="2.13"/><circle class="cls-5" cx="37.19" cy="116.21" r="2.13"/><circle class="cls-5" cx="31.39" cy="122.1" r="1.22"/><circle class="cls-14" cx="24.74" cy="115.48" r="0.44"/><circle class="cls-14" cx="38.25" cy="115.48" r="0.44"/><path class="cls-8" d="M98.89,133.51V126H96.46v7.52a1.56,1.56,0,0,0-.78,1.35h4A1.56,1.56,0,0,0,98.89,133.51Z" transform="translate(-0.5)"/><path class="cls-8" d="M105.43,133.51V126H103v7.52a1.55,1.55,0,0,0-.77,1.35h4A1.55,1.55,0,0,0,105.43,133.51Z" transform="translate(-0.5)"/><circle class="cls-8" cx="100.39" cy="116.89" r="16.11"/><ellipse class="cls-14" cx="100.39" cy="124.96" rx="6.38" ry="2.13"/><circle class="cls-14" cx="94.61" cy="113.24" r="2.74"/><circle class="cls-14" cx="106.16" cy="113.24" r="2.74"/><circle class="cls-5" cx="94.67" cy="113.21" r="2.13"/><circle class="cls-5" cx="106.19" cy="113.21" r="2.13"/><circle class="cls-5" cx="100.39" cy="119.1" r="1.22"/><circle class="cls-14" cx="93.74" cy="112.48" r="0.44"/><circle class="cls-14" cx="107.25" cy="112.48" r="0.44"/><circle class="cls-10" cx="243.76" cy="75.54" r="14.31"/><path class="cls-11" d="M386.08,141.64a30,30,0,0,1-2.65,2.12,34.06,34.06,0,0,1-7.06,3.79c-10.38-.25-25.63-1.52-44.87-2.2q-2.16-.73-4.41-1.59-3-1.14-6.13-2.5a113.11,113.11,0,0,0-26.56-7.68q-2.85-.48-5.7-.81c-40.07-4.79-77,9.28-81.29,11H207l2.63-5.1,44.79-86.74,10.47,26.89,3.34,8.58,9.22-12.64,4.75-6.53,21.67,24.84L310,79.54l42.39,34.59,2.36,1.93,2.39,2,.77.62,22.66,18.5Z" transform="translate(-0.5)"/><polygon class="cls-9" points="249.92 69.39 254.24 59.91 260.23 73.71 255.07 63.73 249.92 69.39"/><path class="cls-9" d="M294.4,133.58q-2.85-.48-5.7-.81L268.22,87.39Z" transform="translate(-0.5)"/><polygon class="cls-9" points="276.94 74.75 281.69 71.05 303.32 96.01 281.36 74.71 276.94 74.75"/><polygon class="cls-9" points="303.36 93.06 346.58 134.44 340.67 135.83 303.36 93.06"/><path class="cls-5" d="M392,143.84c0,3.22-5.48,4-15.63,3.71-10.38-.25-25.63-1.52-44.87-2.2-7.29-.26-15.14-.43-23.52-.43-52.19,0-105,6.68-105-1.08,0-1.83,2.35-3.58,6.62-5.18,12.68-4.76,42.29-8.24,77.77-8.8,1.61,0,3.24,0,4.87-.06l5.24,0c14.1,0,27.49.46,39.51,1.28h.11l2.87.21,3.06.24.63,0,.44,0,.82.07h0l1.47.13h.16c14.22,1.29,26,3.13,33.95,5.31C387.85,139.12,392,141.41,392,143.84Z" transform="translate(-0.5)"/><path class="cls-5" d="M214.79,116.08c0,10.65,6.69,19.27,14.94,19.27" transform="translate(-0.5)"/><path class="cls-8" d="M229.73,135.35c0-10.77,7.46-19.48,16.67-19.48" transform="translate(-0.5)"/><path class="cls-8" d="M220.21,117.05c0,10.11,4.26,18.3,9.52,18.3" transform="translate(-0.5)"/><path class="cls-5" d="M229.73,135.35c0-13.76,8.62-24.9,19.27-24.9" transform="translate(-0.5)"/><path class="cls-12" d="M226.59,135.49a7.89,7.89,0,0,0,2.76-.52c.64-.46,3.26-1,3.41-.27s3.19,3.62.8,3.64-5.56-.37-6.2-.76S226.59,135.49,226.59,135.49Z" transform="translate(-0.5)"/><path class="cls-13" d="M233.6,138.09c-2.39,0-5.56-.37-6.2-.76-.48-.3-.67-1.36-.74-1.85h-.07s.13,1.71.77,2.09,3.8.78,6.2.76c.69,0,.92-.25.91-.61C234.38,138,234.11,138.09,233.6,138.09Z" transform="translate(-0.5)"/><path class="cls-5" d="M329.92,114.58c0,10.66,6.69,19.27,14.94,19.27Z" transform="translate(-0.5)"/><path class="cls-8" d="M344.86,133.85c0-10.77,7.46-19.48,16.67-19.48Z" transform="translate(-0.5)"/><path class="cls-8" d="M335.34,115.55c0,10.12,4.26,18.3,9.52,18.3Z" transform="translate(-0.5)"/><path class="cls-5" d="M344.86,133.85c0-13.76,8.62-24.89,19.27-24.89Z" transform="translate(-0.5)"/><path class="cls-12" d="M341.72,134a7.89,7.89,0,0,0,2.76-.52c.64-.46,3.26-1,3.41-.27s3.19,3.63.8,3.65-5.56-.38-6.2-.76S341.72,134,341.72,134Z" transform="translate(-0.5)"/><path class="cls-13" d="M348.73,136.59c-2.39,0-5.56-.37-6.2-.76-.48-.29-.67-1.35-.74-1.84h-.07s.13,1.71.77,2.1,3.8.78,6.2.76c.69,0,.93-.25.91-.62C349.51,136.45,349.24,136.59,348.73,136.59Z" transform="translate(-0.5)"/><path class="cls-8" d="M370.9,138.8v-5.93H369v5.93a1.22,1.22,0,0,0-.61,1.06h3.14A1.22,1.22,0,0,0,370.9,138.8Z" transform="translate(-0.5)"/><path class="cls-8" d="M376.05,138.8v-5.93h-1.92v5.93a1.22,1.22,0,0,0-.61,1.06h3.14A1.22,1.22,0,0,0,376.05,138.8Z" transform="translate(-0.5)"/><circle class="cls-8" cx="371.97" cy="125.7" r="12.7"/><ellipse class="cls-14" cx="371.97" cy="132.06" rx="5.03" ry="1.68"/><circle class="cls-14" cx="367.42" cy="122.82" r="2.16"/><circle class="cls-14" cx="376.52" cy="122.82" r="2.16"/><circle class="cls-5" cx="367.46" cy="122.8" r="1.68"/><circle class="cls-5" cx="376.55" cy="122.8" r="1.68"/><circle class="cls-5" cx="371.98" cy="127.44" r="0.96"/><circle class="cls-14" cx="366.73" cy="122.22" r="0.35"/><circle class="cls-14" cx="377.38" cy="122.22" r="0.35"/><path class="cls-8" d="M257.88,128.18v-3.79h-1.22v3.79a.77.77,0,0,0-.39.68h2A.79.79,0,0,0,257.88,128.18Z" transform="translate(-0.5)"/><path class="cls-8" d="M261.17,128.18v-3.79H260v3.79a.79.79,0,0,0-.39.68h2A.77.77,0,0,0,261.17,128.18Z" transform="translate(-0.5)"/><circle class="cls-8" cx="258.39" cy="119.81" r="8.11"/><ellipse class="cls-14" cx="258.39" cy="123.87" rx="3.21" ry="1.07"/><circle class="cls-14" cx="255.48" cy="117.97" r="1.38"/><circle class="cls-14" cx="261.3" cy="117.97" r="1.38"/><circle class="cls-5" cx="255.51" cy="117.96" r="1.07"/><circle class="cls-5" cx="261.31" cy="117.96" r="1.07"/><circle class="cls-5" cx="258.39" cy="120.92" r="0.61"/><circle class="cls-14" cx="255.04" cy="117.59" r="0.22"/><circle class="cls-14" cx="261.84" cy="117.59" r="0.22"/><path class="cls-8" d="M343.24,131v-5.05h-1.63V131a1,1,0,0,0-.52.9h2.67A1,1,0,0,0,343.24,131Z" transform="translate(-0.5)"/><path class="cls-8" d="M347.63,131v-5.05H346V131a1,1,0,0,0-.52.9h2.68A1,1,0,0,0,347.63,131Z" transform="translate(-0.5)"/><circle class="cls-8" cx="344.08" cy="119.8" r="10.8"/><ellipse class="cls-14" cx="344.08" cy="125.22" rx="4.28" ry="1.43"/><circle class="cls-14" cx="340.21" cy="117.36" r="1.83"/><circle class="cls-14" cx="347.96" cy="117.36" r="1.83"/><circle class="cls-5" cx="340.24" cy="117.34" r="1.43"/><circle class="cls-5" cx="347.97" cy="117.34" r="1.43"/><circle class="cls-5" cx="344.08" cy="121.29" r="0.82"/><circle class="cls-14" cx="339.62" cy="116.85" r="0.3"/><circle class="cls-14" cx="348.69" cy="116.85" r="0.3"/><path class="cls-8" d="M237.88,136.18v-3.79h-1.22v3.79a.77.77,0,0,0-.39.68h2A.79.79,0,0,0,237.88,136.18Z" transform="translate(-0.5)"/><path class="cls-8" d="M241.17,136.18v-3.79H240v3.79a.79.79,0,0,0-.39.68h2A.77.77,0,0,0,241.17,136.18Z" transform="translate(-0.5)"/><circle class="cls-8" cx="238.39" cy="127.81" r="8.11"/><ellipse class="cls-14" cx="238.39" cy="131.87" rx="3.21" ry="1.07"/><circle class="cls-14" cx="235.48" cy="125.97" r="1.38"/><circle class="cls-14" cx="241.3" cy="125.97" r="1.38"/><circle class="cls-5" cx="235.51" cy="125.96" r="1.07"/><circle class="cls-5" cx="241.31" cy="125.96" r="1.07"/><circle class="cls-5" cx="238.39" cy="128.92" r="0.61"/><circle class="cls-14" cx="235.04" cy="125.59" r="0.22"/><circle class="cls-14" cx="241.84" cy="125.59" r="0.22"/><path class="cls-8" d="M275.49,134.84v-5.71h-1.85v5.71a1.17,1.17,0,0,0-.59,1h3A1.18,1.18,0,0,0,275.49,134.84Z" transform="translate(-0.5)"/><path class="cls-8" d="M280.44,134.84v-5.71h-1.85v5.71a1.18,1.18,0,0,0-.58,1h3A1.17,1.17,0,0,0,280.44,134.84Z" transform="translate(-0.5)"/><circle class="cls-8" cx="276.5" cy="122.22" r="12.22"/><ellipse class="cls-14" cx="276.5" cy="128.35" rx="4.84" ry="1.61"/><circle class="cls-14" cx="272.12" cy="119.46" r="2.08"/><circle class="cls-14" cx="280.88" cy="119.46" r="2.08"/><circle class="cls-5" cx="272.16" cy="119.43" r="1.61"/><circle class="cls-5" cx="280.9" cy="119.43" r="1.61"/><circle class="cls-5" cx="276.5" cy="123.9" r="0.92"/><circle class="cls-14" cx="271.46" cy="118.88" r="0.34"/><circle class="cls-14" cx="281.71" cy="118.88" r="0.34"/><path class="cls-8" d="M250.88,140.18v-3.79h-1.22v3.79a.77.77,0,0,0-.39.68h2A.79.79,0,0,0,250.88,140.18Z" transform="translate(-0.5)"/><path class="cls-8" d="M254.17,140.18v-3.79H253v3.79a.79.79,0,0,0-.39.68h2A.77.77,0,0,0,254.17,140.18Z" transform="translate(-0.5)"/><circle class="cls-8" cx="251.39" cy="131.81" r="8.11"/><ellipse class="cls-14" cx="251.39" cy="135.87" rx="3.21" ry="1.07"/><circle class="cls-14" cx="248.48" cy="129.97" r="1.38"/><circle class="cls-14" cx="254.3" cy="129.97" r="1.38"/><circle class="cls-5" cx="248.51" cy="129.96" r="1.07"/><circle class="cls-5" cx="254.31" cy="129.96" r="1.07"/><circle class="cls-5" cx="251.39" cy="132.92" r="0.61"/><circle class="cls-14" cx="248.04" cy="129.59" r="0.22"/><circle class="cls-14" cx="254.84" cy="129.59" r="0.22"/><path class="cls-8" d="M292.49,130.84v-5.71h-1.85v5.71a1.17,1.17,0,0,0-.59,1h3A1.18,1.18,0,0,0,292.49,130.84Z" transform="translate(-0.5)"/><path class="cls-8" d="M297.44,130.84v-5.71h-1.85v5.71a1.18,1.18,0,0,0-.58,1h3A1.17,1.17,0,0,0,297.44,130.84Z" transform="translate(-0.5)"/><circle class="cls-8" cx="293.5" cy="118.22" r="12.22"/><ellipse class="cls-14" cx="293.5" cy="124.35" rx="4.84" ry="1.61"/><circle class="cls-14" cx="289.12" cy="115.46" r="2.08"/><circle class="cls-14" cx="297.88" cy="115.46" r="2.08"/><circle class="cls-5" cx="289.16" cy="115.43" r="1.61"/><circle class="cls-5" cx="297.9" cy="115.43" r="1.61"/><circle class="cls-5" cx="293.5" cy="119.9" r="0.92"/><circle class="cls-14" cx="288.46" cy="114.88" r="0.34"/><circle class="cls-14" cx="298.71" cy="114.88" r="0.34"/><path class="cls-8" d="M353.88,139.18v-3.79h-1.22v3.79a.77.77,0,0,0-.39.68h2A.79.79,0,0,0,353.88,139.18Z" transform="translate(-0.5)"/><path class="cls-8" d="M357.17,139.18v-3.79H356v3.79a.79.79,0,0,0-.39.68h2A.77.77,0,0,0,357.17,139.18Z" transform="translate(-0.5)"/><circle class="cls-8" cx="354.39" cy="130.81" r="8.11"/><ellipse class="cls-14" cx="354.39" cy="134.87" rx="3.21" ry="1.07"/><circle class="cls-14" cx="351.48" cy="128.97" r="1.38"/><circle class="cls-14" cx="357.3" cy="128.97" r="1.38"/><circle class="cls-5" cx="351.51" cy="128.96" r="1.07"/><circle class="cls-5" cx="357.31" cy="128.96" r="1.07"/><circle class="cls-5" cx="354.39" cy="131.92" r="0.61"/><circle class="cls-14" cx="351.04" cy="128.59" r="0.22"/><circle class="cls-14" cx="357.84" cy="128.59" r="0.22"/><path class="cls-8" d="M315.64,131.35v-8.46H312.9v8.46a1.75,1.75,0,0,0-.87,1.51h4.49A1.74,1.74,0,0,0,315.64,131.35Z" transform="translate(-0.5)"/><path class="cls-8" d="M323,131.35v-8.46h-2.74v8.46a1.73,1.73,0,0,0-.87,1.51h4.48A1.73,1.73,0,0,0,323,131.35Z" transform="translate(-0.5)"/><circle class="cls-8" cx="317.39" cy="112.66" r="18.11"/><ellipse class="cls-14" cx="317.39" cy="121.73" rx="7.18" ry="2.39"/><circle class="cls-14" cx="310.9" cy="108.56" r="3.08"/><circle class="cls-14" cx="323.88" cy="108.56" r="3.08"/><circle class="cls-5" cx="310.96" cy="108.52" r="2.39"/><circle class="cls-5" cx="323.91" cy="108.52" r="2.39"/><circle class="cls-5" cx="317.39" cy="115.14" r="1.37"/><circle class="cls-14" cx="309.91" cy="107.7" r="0.5"/><circle class="cls-14" cx="325.11" cy="107.7" r="0.5"/><path class="cls-8" d="M263.88,142.18v-3.79h-1.22v3.79a.77.77,0,0,0-.39.68h2A.79.79,0,0,0,263.88,142.18Z" transform="translate(-0.5)"/><path class="cls-8" d="M267.17,142.18v-3.79H266v3.79a.79.79,0,0,0-.39.68h2A.77.77,0,0,0,267.17,142.18Z" transform="translate(-0.5)"/><circle class="cls-8" cx="264.39" cy="133.81" r="8.11"/><ellipse class="cls-14" cx="264.39" cy="137.87" rx="3.21" ry="1.07"/><circle class="cls-14" cx="261.48" cy="131.97" r="1.38"/><circle class="cls-14" cx="267.3" cy="131.97" r="1.38"/><circle class="cls-5" cx="261.51" cy="131.96" r="1.07"/><circle class="cls-5" cx="267.31" cy="131.96" r="1.07"/><circle class="cls-5" cx="264.39" cy="134.92" r="0.61"/><circle class="cls-14" cx="261.04" cy="131.59" r="0.22"/><circle class="cls-14" cx="267.84" cy="131.59" r="0.22"/><path class="cls-8" d="M293.08,138.74V126.85h-3.85v11.89a2.42,2.42,0,0,0-1.22,2.12h6.3A2.43,2.43,0,0,0,293.08,138.74Z" transform="translate(-0.5)"/><path class="cls-8" d="M303.41,138.74V126.85h-3.85v11.89a2.43,2.43,0,0,0-1.23,2.12h6.3A2.42,2.42,0,0,0,303.41,138.74Z" transform="translate(-0.5)"/><circle class="cls-8" cx="295.74" cy="112.46" r="25.46"/><ellipse class="cls-14" cx="295.74" cy="125.22" rx="10.09" ry="3.36"/><circle class="cls-14" cx="286.61" cy="106.7" r="4.32"/><circle class="cls-14" cx="304.86" cy="106.7" r="4.32"/><circle class="cls-5" cx="286.7" cy="106.64" r="3.36"/><circle class="cls-5" cx="304.91" cy="106.64" r="3.36"/><circle class="cls-5" cx="295.74" cy="115.95" r="1.93"/><circle class="cls-14" cx="285.23" cy="105.5" r="0.7"/><circle class="cls-14" cx="306.59" cy="105.5" r="0.7"/><text class="cls-15" transform="translate(92.8 33.92)">EA<tspan class="cls-16" x="51.73" y="0">S</tspan><tspan x="74.16" y="0">Y</tspan></text><text class="cls-15" transform="translate(282.8 33.92)">HARD</text><path class="cls-8" d="M328.88,138.18v-3.79h-1.22v3.79a.77.77,0,0,0-.39.68h2A.79.79,0,0,0,328.88,138.18Z" transform="translate(-0.5)"/><path class="cls-8" d="M332.17,138.18v-3.79H331v3.79a.79.79,0,0,0-.39.68h2A.77.77,0,0,0,332.17,138.18Z" transform="translate(-0.5)"/><circle class="cls-8" cx="329.39" cy="129.81" r="8.11"/><ellipse class="cls-14" cx="329.39" cy="133.87" rx="3.21" ry="1.07"/><circle class="cls-14" cx="326.48" cy="127.97" r="1.38"/><circle class="cls-14" cx="332.3" cy="127.97" r="1.38"/><circle class="cls-5" cx="326.51" cy="127.96" r="1.07"/><circle class="cls-5" cx="332.31" cy="127.96" r="1.07"/><circle class="cls-5" cx="329.39" cy="130.92" r="0.61"/><circle class="cls-14" cx="326.04" cy="127.59" r="0.22"/><circle class="cls-14" cx="332.84" cy="127.59" r="0.22"/><path class="cls-8" d="M213.88,140.18v-3.79h-1.22v3.79a.77.77,0,0,0-.39.68h2A.79.79,0,0,0,213.88,140.18Z" transform="translate(-0.5)"/><path class="cls-8" d="M217.17,140.18v-3.79H216v3.79a.79.79,0,0,0-.39.68h2A.77.77,0,0,0,217.17,140.18Z" transform="translate(-0.5)"/><circle class="cls-8" cx="214.39" cy="131.81" r="8.11"/><ellipse class="cls-14" cx="214.39" cy="135.87" rx="3.21" ry="1.07"/><circle class="cls-14" cx="211.48" cy="129.97" r="1.38"/><circle class="cls-14" cx="217.3" cy="129.97" r="1.38"/><circle class="cls-5" cx="211.51" cy="129.96" r="1.07"/><circle class="cls-5" cx="217.31" cy="129.96" r="1.07"/><circle class="cls-5" cx="214.39" cy="132.92" r="0.61"/><circle class="cls-14" cx="211.04" cy="129.59" r="0.22"/><circle class="cls-14" cx="217.84" cy="129.59" r="0.22"/></svg>