<svg id="Layer_1" data-name="Layer 1" xmlns="http://www.w3.org/2000/svg" viewBox="0 0 396.81 292.82"><defs><style>.cls-1{font-size:228px;}.cls-1,.cls-2{fill:#6c63ff;font-family:Montserrat-BoldItalic, Montserrat;font-weight:700;font-style:italic;}.cls-2{font-size:26px;}.cls-3{letter-spacing:-0.01em;}.cls-4{letter-spacing:-0.01em;}.cls-5{letter-spacing:0.02em;}.cls-6{letter-spacing:0em;}.cls-7{letter-spacing:-0.01em;}.cls-8{letter-spacing:0.01em;}.cls-9{letter-spacing:-0.05em;}.cls-10{letter-spacing:-0.01em;}</style></defs><title>why-7</title><text class="cls-1" transform="translate(192.76 232.17)">!</text><text class="cls-2" transform="translate(15 30.1)">C<tspan class="cls-3" x="19.06" y="0">r</tspan><tspan x="30.03" y="0">eativi</tspan><tspan class="cls-4" x="106.75" y="0">t</tspan><tspan x="117.8" y="0">y</tspan></text><text class="cls-2" transform="translate(204 274.1)">A<tspan class="cls-5" x="19.92" y="0">r</tspan><tspan x="31.51" y="0">tistic s</tspan><tspan class="cls-6" x="120.07" y="0">k</tspan><tspan x="136.73" y="0">ills</tspan></text><text class="cls-2" transform="translate(238 22.1)">Design<tspan class="cls-7" x="0" y="31.2">E</tspan><tspan x="17.26" y="31.2">xpe</tspan><tspan class="cls-6" x="67" y="31.2">r</tspan><tspan x="78.1" y="31.2">ie</tspan><tspan class="cls-8" x="102.23" y="31.2">n</tspan><tspan class="cls-7" x="120.35" y="31.2">c</tspan><tspan x="135.54" y="31.2">e</tspan></text><text class="cls-2" transform="translate(6 238.1)"><tspan class="cls-9">T</tspan><tspan x="14.64" y="0">e</tspan><tspan class="cls-6" x="30.97" y="0">c</tspan><tspan x="46.23" y="0">b S</tspan><tspan class="cls-6" x="88.11" y="0">k</tspan><tspan x="104.78" y="0">ills</tspan></text><text class="cls-2" transform="translate(0 127.1)"><tspan class="cls-4">P</tspan><tspan class="cls-3" x="18.77" y="0">r</tspan><tspan x="29.74" y="0">og</tspan><tspan class="cls-10" x="64.95" y="0">r</tspan><tspan x="75.92" y="0">ammi</tspan><tspan class="cls-8" x="156.21" y="0">n</tspan><tspan x="174.33" y="0">g</tspan></text></svg>