<svg id="Layer_1" data-name="Layer 1" xmlns="http://www.w3.org/2000/svg" xmlns:xlink="http://www.w3.org/1999/xlink" viewBox="0 0 367.12 223.99"><defs><style>.cls-1,.cls-4{fill:#6c63ff;}.cls-1,.cls-5{opacity:0.1;}.cls-1,.cls-5,.cls-8{isolation:isolate;}.cls-2{opacity:0.2;}.cls-3{fill:#3f3d56;}.cls-6{fill:#fff;}.cls-7{opacity:0.5;}.cls-8{fill:none;stroke:#3f3d56;stroke-linecap:round;stroke-miterlimit:10;opacity:0.7;}.cls-9{fill:url(#linear-gradient);}.cls-10{fill:#fbbebe;}.cls-11{fill:#f86d70;}.cls-12{fill:#434175;}</style><linearGradient id="linear-gradient" x1="3133.55" y1="-66.76" x2="3133.55" y2="60.24" gradientTransform="translate(3410 201) rotate(180)" gradientUnits="userSpaceOnUse"><stop offset="0" stop-color="gray" stop-opacity="0.25"/><stop offset="0.54" stop-color="gray" stop-opacity="0.12"/><stop offset="1" stop-color="gray" stop-opacity="0.1"/></linearGradient></defs><title>why-9</title><path class="cls-1" d="M388.12,178.28a57.93,57.93,0,0,1-8.38,30.12c0,11.11-5.18,21.18-13.59,28.52a45.9,45.9,0,0,1-6.76,4.91l-.3.17-.54.32-.17.1h0a52.88,52.88,0,0,1-26,6.68H90.69c-1.92,0-3.83-.08-5.72-.23a67.8,67.8,0,0,1-19.6-4.54q-1.83-.74-3.6-1.56c-.56-.26-1.11-.54-1.66-.81l-1-.54A60.47,60.47,0,0,1,48,233.92c-10.91-9.38-17.68-22.34-17.68-36.65A58,58,0,0,1,21,165.6C21,133.79,46.43,108,77.8,108c1,0,1.93,0,2.89.08a2.82,2.82,0,0,1,.41,0A97.81,97.81,0,0,1,102,83.51c23.18-19.87,57.06-32.39,94.8-32.39,31.72,0,60.7,8.84,82.91,23.45a55.85,55.85,0,0,1,27.58-7.23c31.36,0,56.8,25.79,56.8,57.6,0,2-.11,4-.32,6A57.78,57.78,0,0,1,388.12,178.28Z" transform="translate(-21 -45)"/><g class="cls-2"><path class="cls-3" d="M65.4,243.9a3.11,3.11,0,0,1,0,.43q-1.83-.74-3.6-1.56a2.9,2.9,0,0,1-1.66-.81l-1-.54a4.17,4.17,0,0,1,.26-.46,3,3,0,0,1,5.43.16A5.36,5.36,0,0,1,65.4,243.9Z" transform="translate(-21 -45)"/><path class="cls-3" d="M65.58,238.4a5.36,5.36,0,0,1-.81,2.72A3.2,3.2,0,0,1,62,242.78h-.23a2.9,2.9,0,0,1-1.66-.81,3.93,3.93,0,0,1-.77-1,5.64,5.64,0,0,1,.17-5.5,3,3,0,0,1,5.43.17A5.36,5.36,0,0,1,65.58,238.4Z" transform="translate(-21 -45)"/><ellipse class="cls-3" cx="62.32" cy="232.81" rx="4.5" ry="3.43" transform="translate(-193.34 242.74) rotate(-88.19)"/><ellipse class="cls-3" cx="62.49" cy="227.31" rx="4.5" ry="3.43" transform="translate(-187.68 237.59) rotate(-88.19)"/><ellipse class="cls-3" cx="62.69" cy="221.46" rx="4.5" ry="3.44" transform="translate(-181.55 232.48) rotate(-88.28)"/><path class="cls-4" d="M51,183.81a16,16,0,0,1-1.21-1.93l9.06-1.19-9.76-.24a16.5,16.5,0,0,1,.1-13l12.88,7.2-11.8-9.25a16.46,16.46,0,1,1,28,17.3,16.13,16.13,0,0,1-1.41,2,16.4,16.4,0,0,1,1.78,3.06l-11.9,5.71,12.62-3.79A16.48,16.48,0,0,1,76.2,205a16.46,16.46,0,1,1-25.86-.81A16.46,16.46,0,0,1,51,183.81Z" transform="translate(-21 -45)"/><path class="cls-5" d="M80.05,194.91A16.4,16.4,0,0,1,76.2,205a16.46,16.46,0,1,1-25.86-.81C48.24,201.28,80.1,193.06,80.05,194.91Z" transform="translate(-21 -45)"/></g><path class="cls-6" d="M328.43,89.42V243.19a5.92,5.92,0,0,1-5.91,5.91H86.6a5.91,5.91,0,0,1-5.91-5.91V108.08a2.82,2.82,0,0,1,.41,0A97.81,97.81,0,0,1,102,83.51H322.52A5.91,5.91,0,0,1,328.43,89.42Z" transform="translate(-21 -45)"/><rect class="cls-3" x="228.54" y="58.48" width="44.23" height="11.54" rx="5.77"/><rect class="cls-5" x="231.42" y="60.41" width="38.46" height="7.68" rx="3.84"/><rect class="cls-4" x="255.03" y="60.83" width="13.89" height="6.84" rx="3.42"/><circle class="cls-6" cx="261.87" cy="64.25" r="2.14"/><path class="cls-3" d="M255.31,179.55H288a5.77,5.77,0,0,1,5.77,5.77h0a5.77,5.77,0,0,1-5.77,5.77H255.31a5.77,5.77,0,0,1-5.77-5.77h0A5.77,5.77,0,0,1,255.31,179.55Z" transform="translate(-21 -45)"/><path class="cls-5" d="M256.26,181.48H287a3.84,3.84,0,0,1,3.85,3.84h0a3.84,3.84,0,0,1-3.85,3.84H256.26a3.84,3.84,0,0,1-3.84-3.84h0A3.84,3.84,0,0,1,256.26,181.48Z" transform="translate(-21 -45)"/><rect class="cls-4" x="255.03" y="136.9" width="13.89" height="6.84" rx="3.42"/><circle class="cls-6" cx="261.87" cy="140.32" r="2.14"/><rect class="cls-3" x="228.54" y="172.58" width="44.23" height="11.54" rx="5.77"/><path class="cls-5" d="M256.26,219.52H287a3.84,3.84,0,0,1,3.85,3.84h0A3.84,3.84,0,0,1,287,227.2H256.26a3.84,3.84,0,0,1-3.84-3.84h0A3.83,3.83,0,0,1,256.26,219.52Z" transform="translate(-21 -45)"/><rect class="cls-4" x="255.03" y="174.94" width="13.89" height="6.84" rx="3.42"/><circle class="cls-6" cx="261.87" cy="178.35" r="2.14"/><rect class="cls-4" x="94.35" y="51.21" width="25.86" height="6.84" rx="3.42"/><rect class="cls-4" x="94.35" y="60.83" width="71.8" height="6.84" rx="3.42"/><rect class="cls-4" x="94.35" y="70.45" width="71.8" height="6.84" rx="3.42"/><g class="cls-7"><rect class="cls-4" x="94.35" y="89.25" width="25.86" height="6.84" rx="3.42"/><rect class="cls-4" x="94.35" y="98.87" width="53.59" height="6.84" rx="3.42"/><rect class="cls-4" x="94.35" y="108.48" width="71.8" height="6.84" rx="3.42"/></g><rect class="cls-4" x="94.35" y="127.28" width="25.86" height="6.84" rx="3.42"/><rect class="cls-4" x="94.35" y="136.9" width="71.8" height="6.84" rx="3.42"/><rect class="cls-4" x="94.35" y="146.52" width="44.61" height="6.84" rx="3.42"/><rect class="cls-4" x="94.35" y="165.32" width="25.86" height="6.84" rx="3.42"/><rect class="cls-4" x="94.35" y="174.94" width="71.8" height="6.84" rx="3.42"/><rect class="cls-4" x="94.35" y="184.55" width="57.76" height="6.84" rx="3.42"/><line class="cls-8" x1="83.44" y1="83.43" x2="292.67" y2="83.43"/><line class="cls-8" x1="83.44" y1="122.1" x2="292.67" y2="122.1"/><line class="cls-8" x1="83.44" y1="160.77" x2="292.67" y2="160.77"/><line class="cls-8" x1="83.44" y1="200.4" x2="292.67" y2="200.4"/><ellipse class="cls-1" cx="255.12" cy="220.62" rx="47.39" ry="3.37"/><circle class="cls-1" cx="22.63" cy="45.31" r="6.94"/><circle class="cls-1" cx="51.56" cy="6.94" r="6.94"/><circle class="cls-1" cx="49.21" cy="33.3" r="11.63"/><path class="cls-3" d="M255.31,141.51H288a5.77,5.77,0,0,1,5.77,5.77h0a5.77,5.77,0,0,1-5.77,5.77H255.31a5.77,5.77,0,0,1-5.77-5.77h0A5.77,5.77,0,0,1,255.31,141.51Z" transform="translate(-21 -45)"/><path class="cls-5" d="M256.26,143.44H287a3.84,3.84,0,0,1,3.85,3.84h0a3.84,3.84,0,0,1-3.85,3.84H256.26a3.84,3.84,0,0,1-3.84-3.84h0A3.84,3.84,0,0,1,256.26,143.44Z" transform="translate(-21 -45)"/><path class="cls-9" d="M253.71,257.12c.51-.07,1-.18,1.5-.29a4.47,4.47,0,0,1-.42,1.42,6.32,6.32,0,0,1-2.33,2.07.73.73,0,0,0-.91-.07c-1.07.65-1.91,1.55-3,2.1-.39.2-.81.35-1.19.57a6.34,6.34,0,0,0-2.25,2.32,1.57,1.57,0,0,0-.26,1.64,1.36,1.36,0,0,0,.45.41,2.58,2.58,0,0,0,1.57.46c.32,0,.64-.15,1-.2s.89,0,1.33-.08A7.56,7.56,0,0,0,251,267l2.21-.77a11.9,11.9,0,0,0,1.81-.75c.35-.19.68-.41,1-.58a8.68,8.68,0,0,1,1.24-.44l1.25-.36a1.2,1.2,0,0,1,.56-.08,5.1,5.1,0,0,1,.5.19,1.45,1.45,0,0,0,.8-.08l1.45-.41a2.76,2.76,0,0,0,.87-.36,2.65,2.65,0,0,0,.78-2.23,17.52,17.52,0,0,0-.42-3.68,1.12,1.12,0,0,0-.47.36,7,7,0,0,0-.48-.6,7.21,7.21,0,0,1-1.45-2.68,4.68,4.68,0,0,0,1.28-1.45,31.42,31.42,0,0,0-3.11-8.47c-.51-.84-1.09-1.63-1.6-2.46-1.52-2.4-1.83-5.45-3.57-7.7a1.32,1.32,0,0,1,0-1.56c.2-.27.52-.52.46-.84s-.29-.45-.19-.67.15-.16.23-.24c.3-.28.26-.74.29-1.15a5.54,5.54,0,0,1,1.25-2.74,1.6,1.6,0,0,1,.47-.5c.15-.1.34-.15.5-.24.55-.35.51-1.16.77-1.77.35-.79,1.22-1.19,1.79-1.84.73-.82.92-2,1.68-2.68l.26-.2a12.7,12.7,0,0,0-.45,3.74c-.08,4.34,1,8.83.5,13.15a9.09,9.09,0,0,0,4.65,8.55,22.58,22.58,0,0,0,3.62,1.53c1.86.67,3.71,1.35,5.53,2.11,1.28.54,2.55,1.12,3.79,1.74a44.92,44.92,0,0,1,4.5,2.51,17.37,17.37,0,0,1,4.84,4,3.82,3.82,0,0,0,2.13-.78c.49.38,1.08.67,1.54,1.1a4.64,4.64,0,0,1,1.22,2.4h-.19l.06,1.28a.51.51,0,0,1,0,.32.52.52,0,0,1-.17.16l-1,.67c-.72.48-1.51,1.1-1.55,2a1,1,0,0,0,.22.7,1.59,1.59,0,0,0,.88.4,15.65,15.65,0,0,0,5.22.48,3.45,3.45,0,0,0,2.22-1,4.3,4.3,0,0,0,.78-2.13c.22-1.28.4-2.6.54-3.9a8.54,8.54,0,0,1,.53-2.59.29.29,0,0,1,.14-.17c.07,0,.16,0,.24,0a.48.48,0,0,0,.15-.25,15.37,15.37,0,0,0,.46-3.88,2.82,2.82,0,0,0-.15-1,2,2,0,0,0-1.38-1.06,13,13,0,0,0-1.77-.21,8.1,8.1,0,0,1-1.47-.27,1.46,1.46,0,0,0-.62-.08.43.43,0,0,0-.37.43.54.54,0,0,0,.08.21l-.5-.1c-.41-.07-1-.25-1.57-.4a1.77,1.77,0,0,1,0-.32.61.61,0,0,0-.34-.55L285,244.19l-1.59-.85c-3.47-1.86-7.06-3.58-10.54-5.43-.23.07-.42-.2-.49-.44s-.11-.52-.34-.62-.25,0-.32-.14a.43.43,0,0,1-.06-.29c.11-1.69,1.32-3.25,1.08-4.92a6.37,6.37,0,0,1-.32-2.13,11.72,11.72,0,0,1,.64-1.34c.42-1,0-2.28.46-3.29a7.61,7.61,0,0,0,.61-2.09,14.4,14.4,0,0,1,1.29-4.15,7.33,7.33,0,0,1,1.19-1.82c.25-.28.54-.52.78-.81a6.76,6.76,0,0,0,1.22-3.21,15.23,15.23,0,0,0,.17-6.23,8.84,8.84,0,0,1-.39-2.1c0-.85.34-1.83-.08-2.51a2.16,2.16,0,0,0,.8-1.37,1.81,1.81,0,0,1,.12-.57,1.62,1.62,0,0,1,.53-.48,2.22,2.22,0,0,0,.83-2.21c.44.2.9-.24,1.11-.68s.37-1,.81-1.16a6,6,0,0,1,1-.14c.52-.13.83-.64,1.19-1a9.13,9.13,0,0,1,2.72-1.68,30.71,30.71,0,0,0,7.43-6,25,25,0,0,0,3.21-3.61,11.52,11.52,0,0,0,.7-1.16l.06,0,0,.07.12.42c.1.32.22.66.32,1a7.47,7.47,0,0,0,1.43,2.72,3.68,3.68,0,0,0,.73.57,5,5,0,0,0,1.88.56l.76.07.76,0,5.19.13c-1.78-2.58-1.92-5.95-1.81-9.09.3-8.09,1.88-16.25.42-24.21a6.35,6.35,0,0,0-1-2.7,5.53,5.53,0,0,0-3.27-1.78,20.47,20.47,0,0,1-3.66-.94,15.6,15.6,0,0,0-2.89-1.38,6.19,6.19,0,0,0-2.31,0c-.94.14-1.87.3-2.8.49l-.22,0h0l-.16,0h0l-.14,0h0l-.13,0-.05,0-.12,0-.07,0-.11,0-.07,0-.1,0-.08,0-.09,0-.08,0-.09,0-.07,0-.08,0-.08.05-.07,0-.08.05-.07.05-.07.07-.06.05a.27.27,0,0,0-.07.08l-.06.05-.07.09s0,0,0,0a1.05,1.05,0,0,0-.08.13v0a1.46,1.46,0,0,0-.18.38,1.66,1.66,0,0,0-.06.21,2.7,2.7,0,0,0-.07.41.82.82,0,0,1,0,.22v.42a5.47,5.47,0,0,0,.08.72,7.81,7.81,0,0,0-.37,13.23l0,.39v.08a10.14,10.14,0,0,1-.15,1.35,19,19,0,0,0-3.85-.34c-.77,0-1.54.07-2.32.13a33.9,33.9,0,0,1-2.32-3.14l-1.72-2.52a23.32,23.32,0,0,1-1.6-2.56c-.42-.82-.75-1.68-1.22-2.47-1-1.63-2.53-3-2.73-4.9l-.45.1c-.25-.41-.56-.84-.68-1.07a21.14,21.14,0,0,1-1.42-4.17,6.57,6.57,0,0,0-.68-2.16,4.8,4.8,0,0,0-1-1.06,6.58,6.58,0,0,0-2.14-1.35,2.76,2.76,0,0,0-2.18.13l-.33-.13a2.64,2.64,0,0,0-2.42.28,3.27,3.27,0,0,0-1.07,2.25,5.67,5.67,0,0,0,.57,3.41,13.89,13.89,0,0,0,2.75,2.83,11.2,11.2,0,0,1,1.72,2.15,23.81,23.81,0,0,1-.13,5.2c-.13.74-.32,1.46-.38,2.21-.24,2.69,1.16,5.37.66,8a2,2,0,0,0,.91,2.07,10.35,10.35,0,0,0,2.35.65c1.55.39,2.89,1.39,4.45,1.76.73.17,1.48.2,2.2.39l.11,0a5.14,5.14,0,0,0-1.15,2.19c-.33,1.34,0,2.79-.34,4.13a9.4,9.4,0,0,1-1.58,3L269.71,187a34,34,0,0,1-2.77,3.65c-1.73,1.89-4.72,3.39-5.6,5.66l-.06-.17c-1.25.92-1.71,2.62-2.7,3.81-.49.57-1.08,1-1.61,1.57a17.76,17.76,0,0,0-1.77,2.2,39.49,39.49,0,0,0-4,6.4c-.55,1.2-1,2.44-1.42,3.67-1.72,4.87-4.54,9.49-5.71,14.53-.29,1.22-1,2.33-1.15,3.59a7.07,7.07,0,0,0,1.12,3.82c1,1.81,2,3.57,2.89,5.43.51,1.08.94,2.2,1.5,3.26s1.37,2.23,2,3.37A42.15,42.15,0,0,1,253.71,257.12Zm21.23-92-.15-.07a5.43,5.43,0,0,1-1.56-1c-1.38-1.48-2-3.7-2.41-5.69-.05-.24-.09-.47-.14-.71a34,34,0,0,1,4.26,7.51Z" transform="translate(-21 -45)"/><path class="cls-10" d="M268.64,145.89a6.46,6.46,0,0,0-.68-2.14,5,5,0,0,0-1-1.06,6.57,6.57,0,0,0-2.15-1.33,2.66,2.66,0,0,0-2.42.27,3.23,3.23,0,0,0-1.07,2.25,5.46,5.46,0,0,0,.57,3.39,13.8,13.8,0,0,0,2.75,2.81,11.43,11.43,0,0,1,1.79,2.25,6.09,6.09,0,0,0,.81,1.19,1.54,1.54,0,0,0,1.29.52,2.14,2.14,0,0,0,1-.62c.4-.34,1.45-1,1.48-1.5s-.8-1.43-1-1.85A21.2,21.2,0,0,1,268.64,145.89Z" transform="translate(-21 -45)"/><path class="cls-5" d="M268.64,145.89a6.46,6.46,0,0,0-.68-2.14,5,5,0,0,0-1-1.06,6.57,6.57,0,0,0-2.15-1.33,2.66,2.66,0,0,0-2.42.27,3.23,3.23,0,0,0-1.07,2.25,5.46,5.46,0,0,0,.57,3.39,13.8,13.8,0,0,0,2.75,2.81,11.43,11.43,0,0,1,1.79,2.25,6.09,6.09,0,0,0,.81,1.19,1.54,1.54,0,0,0,1.29.52,2.14,2.14,0,0,0,1-.62c.4-.34,1.45-1,1.48-1.5s-.8-1.43-1-1.85A21.2,21.2,0,0,1,268.64,145.89Z" transform="translate(-21 -45)"/><path class="cls-11" d="M290.83,167a18.56,18.56,0,0,0-5.19-.64c-2.92,0-5.93.75-8.72-.15a14.62,14.62,0,0,1-2.08-.89,5.26,5.26,0,0,1-1.56-1c-1.39-1.47-2-3.68-2.42-5.65a36.71,36.71,0,0,1-.65-6,4.68,4.68,0,0,1-2.28.6,1.69,1.69,0,0,1-1.61-1.47,24.3,24.3,0,0,1-.1,5.59c-.12.74-.32,1.46-.38,2.2-.24,2.67,1.17,5.34.67,8a1.91,1.91,0,0,0,.9,2.06,10.43,10.43,0,0,0,2.36.65c1.55.39,2.89,1.38,4.46,1.75.72.17,1.47.2,2.19.39,1,.27,2,.86,3,1,.78.14,1.6.05,2.38.12s1.36.23,2.06.25a5.92,5.92,0,0,0,4.41-2.18A18.84,18.84,0,0,0,290.83,167Z" transform="translate(-21 -45)"/><path class="cls-5" d="M290.83,167a18.56,18.56,0,0,0-5.19-.64c-2.92,0-5.93.75-8.72-.15a14.62,14.62,0,0,1-2.08-.89,5.26,5.26,0,0,1-1.56-1c-1.39-1.47-2-3.68-2.42-5.65a36.71,36.71,0,0,1-.65-6,4.68,4.68,0,0,1-2.28.6,1.69,1.69,0,0,1-1.61-1.47,24.3,24.3,0,0,1-.1,5.59c-.12.74-.32,1.46-.38,2.2-.24,2.67,1.17,5.34.67,8a1.91,1.91,0,0,0,.9,2.06,10.43,10.43,0,0,0,2.36.65c1.55.39,2.89,1.38,4.46,1.75.72.17,1.47.2,2.19.39,1,.27,2,.86,3,1,.78.14,1.6.05,2.38.12s1.36.23,2.06.25a5.92,5.92,0,0,0,4.41-2.18A18.84,18.84,0,0,0,290.83,167Z" transform="translate(-21 -45)"/><path class="cls-10" d="M295.47,249.63a4.53,4.53,0,0,1,1.5.47,3.55,3.55,0,0,1,1.31,1.76,15.23,15.23,0,0,1,.87,5.49,11.68,11.68,0,0,1-.56,4.45,2.82,2.82,0,0,1-.74,1.17,3.18,3.18,0,0,1-3.42.2,3.89,3.89,0,0,1-1.07-2.5,5.79,5.79,0,0,0-1.42-3.4c-.68-.64-1.65-1-2.15-1.74a3.69,3.69,0,0,1,.1-3.19c.32-.9.8-2.73,1.75-3.19S294.5,249.46,295.47,249.63Z" transform="translate(-21 -45)"/><path class="cls-10" d="M260.72,254.06a7,7,0,0,0,1.47,2.73c.41.48.94,1.07.72,1.66a1.41,1.41,0,0,1-.4.53c-3.1,3-7.43,4.5-11.73,5a.37.37,0,0,1-.21,0,.41.41,0,0,1-.17-.35,4.43,4.43,0,0,1,0-1.36,4.09,4.09,0,0,1,2-2.37,6.36,6.36,0,0,0,2.39-2.08c.62-1.18.36-2.71,1.11-3.81a4,4,0,0,1,2.79-1.44c.37-.06,1.16-.46,1.47-.28S260.61,253.69,260.72,254.06Z" transform="translate(-21 -45)"/><path class="cls-11" d="M295.9,249.52a.43.43,0,0,1,.37-.42,1.39,1.39,0,0,1,.61.08,9.39,9.39,0,0,0,1.48.27,10.56,10.56,0,0,1,1.77.21,2,2,0,0,1,1.38,1.05,2.39,2.39,0,0,1,.15,1,14.65,14.65,0,0,1-.46,3.85.33.33,0,0,1-.15.25c-.1,0-.16,0-.24,0a.28.28,0,0,0-.14.18,8.29,8.29,0,0,0-.53,2.56c-.14,1.29-.32,2.59-.54,3.87a4.25,4.25,0,0,1-.77,2.12,3.46,3.46,0,0,1-2.23,1,15.69,15.69,0,0,1-5.23-.48,1.57,1.57,0,0,1-.89-.39,1,1,0,0,1-.21-.7c0-.86.83-1.47,1.55-1.95l1-.67a.44.44,0,0,0,.17-.16.51.51,0,0,0,0-.32l-.06-1.28a3.64,3.64,0,0,1,3.17,2c.13.27.26.59.54.7a.74.74,0,0,0,.87-.53,2.32,2.32,0,0,0,0-1.11c-.58-3.1-.44-6.29-.8-9.43a2.07,2.07,0,0,0-.32-1C296.25,250,295.93,249.81,295.9,249.52Z" transform="translate(-21 -45)"/><rect class="cls-4" x="232.39" y="98.87" width="13.89" height="6.84" rx="3.42"/><circle class="cls-6" cx="239.44" cy="102.28" r="2.14"/><path class="cls-11" d="M252.73,261.55c-.14.25-.37.43-.51.68a.57.57,0,0,0,.11.75.74.74,0,0,0,.46,0,15.47,15.47,0,0,0,8.34-3.78,6.06,6.06,0,0,0,1-1.12c.27-.42.5-.92,1-1.1a16.89,16.89,0,0,1,.43,3.68,2.6,2.6,0,0,1-.78,2.21,2.53,2.53,0,0,1-.87.35l-1.45.42a1.55,1.55,0,0,1-.8.07c-.17,0-.32-.15-.5-.18a1.19,1.19,0,0,0-.56.07l-1.26.37a7.91,7.91,0,0,0-1.24.43c-.36.17-.69.39-1,.58a11.81,11.81,0,0,1-1.81.73l-2.21.77a7.56,7.56,0,0,1-1.87.48c-.45,0-.9,0-1.34.08a9.62,9.62,0,0,1-1,.2,2.58,2.58,0,0,1-1.57-.46,1.44,1.44,0,0,1-.45-.4c-.32-.5,0-1.14.26-1.64a6.44,6.44,0,0,1,2.25-2.3c.38-.22.8-.37,1.19-.56,1.13-.55,2-1.46,3-2.08S253.2,260.78,252.73,261.55Z" transform="translate(-21 -45)"/><path class="cls-10" d="M283.72,172.7a9.25,9.25,0,0,0,3.91,1.52,16.22,16.22,0,0,0,2.2.12,55.51,55.51,0,0,0,9.19-.77,11.38,11.38,0,0,1-2.89-4.49,7.65,7.65,0,0,1-.14-2.82,21.63,21.63,0,0,1,.86-3.53,24,24,0,0,1-3.88-.1c-.74-.07-2.54-.74-3.18-.23s-.15,2.14-.14,2.9a.14.14,0,0,1,0,.09,9.17,9.17,0,0,1-.74,3.39A6.4,6.4,0,0,1,283.72,172.7Z" transform="translate(-21 -45)"/><path class="cls-5" d="M289.66,165.29a7.73,7.73,0,0,0,6.33,1,22.44,22.44,0,0,1,.86-3.53,24,24,0,0,1-3.88-.1c-.73-.07-2.54-.74-3.18-.24S289.65,164.52,289.66,165.29Z" transform="translate(-21 -45)"/><circle class="cls-10" cx="272.89" cy="113.45" r="7.74"/><path class="cls-11" d="M261.07,197.6a3.59,3.59,0,0,0,1.74,3.1,6.83,6.83,0,0,0,1.9.67,36.88,36.88,0,0,0,10.79,1.33,5.89,5.89,0,0,0,2.3-.48,2.43,2.43,0,0,0,1.41-1.77,1.55,1.55,0,0,1,.11-.56,1.67,1.67,0,0,1,.54-.48,2.19,2.19,0,0,0,.83-2.18c.44.19.9-.25,1.11-.69s.37-1,.81-1.15a6,6,0,0,1,1-.13c.51-.14.82-.65,1.18-1a9.63,9.63,0,0,1,2.73-1.67,31,31,0,0,0,7.45-5.94,25.42,25.42,0,0,0,3.21-3.59,12.31,12.31,0,0,0,.7-1.16,31.53,31.53,0,0,0,1.79-4.08,4.77,4.77,0,0,0,.46-2.33,2.07,2.07,0,0,0,0-.22,4.51,4.51,0,0,0-.71-1.42,5.91,5.91,0,0,0-3.17-2.6,8.79,8.79,0,0,0-4.08.36,9,9,0,0,1-1.38.22,13,13,0,0,1-4.31-.68l-1.53-.42c-.77-.22-1.15-1.14-1.93-1.31a2.61,2.61,0,0,0-1,.06,14.29,14.29,0,0,0-4.56,1.49,6.51,6.51,0,0,0-.88.6,5.59,5.59,0,0,0-2.06,3c-.32,1.34,0,2.77-.34,4.11a9.06,9.06,0,0,1-1.58,3l-3.78,5.42a32.49,32.49,0,0,1-2.78,3.62C264.89,192.94,261.12,194.6,261.07,197.6Z" transform="translate(-21 -45)"/><path class="cls-10" d="M271.16,145.89a6.46,6.46,0,0,0-.68-2.14,4.84,4.84,0,0,0-1-1.06,6.52,6.52,0,0,0-2.14-1.33,2.66,2.66,0,0,0-2.42.27,3.23,3.23,0,0,0-1.07,2.25,5.46,5.46,0,0,0,.57,3.39,13.49,13.49,0,0,0,2.74,2.81,11.12,11.12,0,0,1,1.8,2.25,6.09,6.09,0,0,0,.81,1.19A1.53,1.53,0,0,0,271,154a2.17,2.17,0,0,0,1-.62c.4-.34,1.45-1,1.48-1.5s-.8-1.43-1-1.85A20.57,20.57,0,0,1,271.16,145.89Z" transform="translate(-21 -45)"/><path class="cls-12" d="M244,235.5c1,1.8,2,3.53,2.9,5.39.51,1.09.94,2.2,1.51,3.25s1.36,2.21,2,3.34a38.61,38.61,0,0,1,3.35,9.25,18.17,18.17,0,0,0,6.58-2.32,3.34,3.34,0,0,0,.4-.25,4.8,4.8,0,0,0,1.33-1.47,31.64,31.64,0,0,0-3.12-8.41c-.51-.83-1.09-1.6-1.6-2.44-1.52-2.39-1.84-5.41-3.57-7.64a1.32,1.32,0,0,1,0-1.56c.2-.26.52-.5.46-.83s-.29-.44-.2-.66a.69.69,0,0,1,.24-.24c.29-.27.25-.74.28-1.13a5.6,5.6,0,0,1,1.26-2.74,1.79,1.79,0,0,1,.46-.49c.16-.1.35-.14.5-.24.56-.34.52-1.15.78-1.75.35-.79,1.22-1.19,1.8-1.83.73-.82.91-1.95,1.68-2.66a1.64,1.64,0,0,1,.25-.21,13.06,13.06,0,0,0-.45,3.73c-.07,4.31,1,8.77.5,13.06a9,9,0,0,0,4.66,8.48,22.68,22.68,0,0,0,3.63,1.53c1.85.66,3.71,1.33,5.53,2.09,1.28.54,2.57,1.11,3.81,1.73a45.72,45.72,0,0,1,4.49,2.49,17,17,0,0,1,4.84,4,4.38,4.38,0,0,0,3.14-1.73,12.11,12.11,0,0,0,1.71-3.24,9,9,0,0,0,.81-3.06.59.59,0,0,0-.34-.55l-8.49-4.49-1.6-.84c-3.48-1.85-7.06-3.55-10.56-5.4-.23.07-.42-.2-.49-.43s-.12-.52-.34-.62-.25,0-.32-.14a.45.45,0,0,1-.06-.28c.12-1.68,1.33-3.23,1.09-4.9a6,6,0,0,1-.33-2.1,9.73,9.73,0,0,1,.65-1.34c.41-1,0-2.25.45-3.26a7.56,7.56,0,0,0,.62-2.08,13.73,13.73,0,0,1,1.29-4.12,7.31,7.31,0,0,1,1.2-1.81c.26-.28.54-.52.78-.81a6.65,6.65,0,0,0,1.22-3.17,15,15,0,0,0,.17-6.19,8.77,8.77,0,0,1-.39-2.08c0-.93.42-2-.23-2.7a2,2,0,0,0-1-.49,28.78,28.78,0,0,0-4.61-.85l-7.08-.92a6.65,6.65,0,0,1-2.36-.62,4.73,4.73,0,0,1-2-2.54c-1.24.91-1.71,2.6-2.7,3.78-.49.57-1.08,1-1.61,1.56a17,17,0,0,0-1.77,2.19,39.11,39.11,0,0,0-4,6.35c-.55,1.19-1,2.42-1.42,3.65-1.73,4.84-4.55,9.42-5.72,14.42-.29,1.22-1,2.32-1.15,3.58A6.72,6.72,0,0,0,244,235.5Z" transform="translate(-21 -45)"/><path class="cls-5" d="M281.1,195.36a2,2,0,0,1,.26,1c-.15-.78-1.23-1.21-1.3-2,0-.35,0-.34.26-.15S280.8,195.05,281.1,195.36Z" transform="translate(-21 -45)"/><path class="cls-5" d="M277.83,197.73a1.81,1.81,0,0,1,.49.73,1.88,1.88,0,0,1,.1,1.26c-.16-.07-.22-.27-.26-.44a3.57,3.57,0,0,0-.33-.75c-.12-.2-.71-.68-.7-.9S277.67,197.61,277.83,197.73Z" transform="translate(-21 -45)"/><path class="cls-5" d="M277.45,171.55a7.69,7.69,0,0,0,1.63,1.08c1.53.78,3.23,1.19,4.77,1.93a24.17,24.17,0,0,1,2.22,1.28c1.53,1,3.06,1.93,4.58,2.91a5.41,5.41,0,0,1,1,.76c.55.6.54,1.61,1.05,2.25a3,3,0,0,0,2.22,1,7.18,7.18,0,0,0,2.48-.42,10,10,0,0,0,1.42-.52,6.52,6.52,0,0,0,1.36-.77,3.94,3.94,0,0,0,1.61-2.53,5,5,0,0,0-.28-2.07,8.37,8.37,0,0,0-.48-1.26,4.71,4.71,0,0,0-.4-.65A7.22,7.22,0,0,0,296,172c-.94-.18-1.91-.29-2.86-.45a10.43,10.43,0,0,1-1.38.21,13,13,0,0,1-4.31-.68l-1.53-.42c-.77-.21-1.15-1.14-1.93-1.31a2.61,2.61,0,0,0-1,.06,14.54,14.54,0,0,0-4.56,1.49A6.83,6.83,0,0,0,277.45,171.55Z" transform="translate(-21 -45)"/><path class="cls-11" d="M273.71,151c.2,1.88,1.78,3.25,2.74,4.86.47.79.79,1.65,1.21,2.46a23.54,23.54,0,0,0,1.61,2.57l1.72,2.49a25.34,25.34,0,0,0,3.32,4.17c2.24.39,4.14,2.06,6.27,2.87a33.18,33.18,0,0,0,5.37,1.09,7.28,7.28,0,0,1,4.7,2.54,6.75,6.75,0,0,1,.88,1.93,5,5,0,0,1,.27,2.06,3.92,3.92,0,0,1-1.6,2.54,9,9,0,0,1-2.78,1.28,7.51,7.51,0,0,1-2.48.42,3.07,3.07,0,0,1-2.23-1c-.5-.64-.5-1.67-1-2.25a5,5,0,0,0-1-.76l-4.58-2.89a22.37,22.37,0,0,0-2.22-1.28c-1.54-.76-3.24-1.17-4.77-1.93a5.63,5.63,0,0,1-3.27-3.75c-.93-5.19-4.53-9.57-7.6-13.86.1,0,.07-.26.1-.35a4.49,4.49,0,0,1,2.25-2.27A11.35,11.35,0,0,1,273.71,151Z" transform="translate(-21 -45)"/><path class="cls-12" d="M289.92,151.05a2.81,2.81,0,0,1,.32-1.63,3.69,3.69,0,0,1,2.55-1.34c1-.2,1.86-.35,2.79-.49a6.46,6.46,0,0,1,2.32,0,15.56,15.56,0,0,1,2.89,1.37,20.34,20.34,0,0,0,3.67.93,5.68,5.68,0,0,1,3.27,1.77,6.23,6.23,0,0,1,1,2.68c1.46,7.91-.11,16-.41,24-.12,3.12,0,6.46,1.81,9l-5.2-.13a4.75,4.75,0,0,1-5.57-3.92,9.16,9.16,0,0,1-.66-2.68c-.08-1.89,1-3.74.64-5.6a6.31,6.31,0,0,0-2.35-3.41,21.67,21.67,0,0,1-3.16-2.81c-1.55-2-1.85-4.67-1.66-7.17a26.89,26.89,0,0,0,.26-4.47,5.69,5.69,0,0,0-1.18-3.14A4.4,4.4,0,0,1,289.92,151.05Z" transform="translate(-21 -45)"/><path class="cls-5" d="M290.24,149.42a3.6,3.6,0,0,1,2.49-1.33,2.49,2.49,0,0,0-1.23,1,2.84,2.84,0,0,0-.32,1.64,4.35,4.35,0,0,0,1.33,3,5.58,5.58,0,0,1,1.18,3.13,27.93,27.93,0,0,1-.25,4.47c-.2,2.5.1,5.2,1.66,7.17a21.09,21.09,0,0,0,3.15,2.81,6.23,6.23,0,0,1,2.35,3.42c.35,1.85-.72,3.71-.64,5.59a9.09,9.09,0,0,0,.67,2.68,6.24,6.24,0,0,0,1.75,3,6.36,6.36,0,0,0,3.81.93l3.68.1.26.4-5.2-.14a6.37,6.37,0,0,1-3.81-.93,6.28,6.28,0,0,1-1.75-3,9.09,9.09,0,0,1-.67-2.68c-.08-1.88,1-3.73.64-5.59a6.29,6.29,0,0,0-2.35-3.42,21.59,21.59,0,0,1-3.15-2.81c-1.56-2-1.86-4.66-1.66-7.17a27.93,27.93,0,0,0,.25-4.47,5.66,5.66,0,0,0-1.18-3.13,4.35,4.35,0,0,1-1.33-3A2.81,2.81,0,0,1,290.24,149.42Z" transform="translate(-21 -45)"/><path class="cls-5" d="M251.16,230.88l9.56,23.28a4.8,4.8,0,0,0,1.33-1.47,31.64,31.64,0,0,0-3.12-8.41c-.51-.83-1.09-1.6-1.6-2.44-1.52-2.39-1.84-5.41-3.57-7.64a1.32,1.32,0,0,1,0-1.56c.2-.26.52-.5.46-.83s-.29-.44-.2-.66a.69.69,0,0,1,.24-.24c.29-.27.25-.74.28-1.13A5.6,5.6,0,0,1,255.8,227a1.79,1.79,0,0,1,.46-.49c.16-.1.35-.14.5-.24.56-.34.52-1.15.78-1.75.35-.79,1.22-1.19,1.8-1.83.73-.82.91-1.95,1.68-2.66l.07-.17-.73-4.49Z" transform="translate(-21 -45)"/><ellipse class="cls-4" cx="313.54" cy="211.59" rx="10.89" ry="2.1"/><ellipse class="cls-3" cx="313.73" cy="210.7" rx="1.27" ry="1.66"/><ellipse class="cls-3" cx="313.73" cy="208.67" rx="1.27" ry="1.66"/><ellipse class="cls-3" cx="313.73" cy="206.64" rx="1.27" ry="1.66"/><ellipse class="cls-3" cx="313.73" cy="204.61" rx="1.27" ry="1.66"/><ellipse class="cls-3" cx="313.73" cy="202.58" rx="1.27" ry="1.66"/><ellipse class="cls-3" cx="313.73" cy="200.55" rx="1.27" ry="1.66"/><ellipse class="cls-3" cx="313.73" cy="198.52" rx="1.27" ry="1.66"/><path class="cls-4" d="M330,229.63a5.33,5.33,0,0,1-.48-.69l3.33-.55-3.6,0a6.07,6.07,0,0,1-.11-4.82l4.83,2.51-4.46-3.28a6.08,6.08,0,1,1,10.55,6,6.59,6.59,0,0,1-.51.75,6.41,6.41,0,0,1,.69,1.11L335.89,233l4.62-1.55a6.18,6.18,0,0,1,.32,1.95,6.1,6.1,0,0,1-1.3,3.76,6.07,6.07,0,1,1-9.55,0,6.07,6.07,0,0,1,0-7.52Z" transform="translate(-21 -45)"/><path class="cls-5" d="M340.83,233.39a6.1,6.1,0,0,1-1.3,3.76,6.07,6.07,0,1,1-9.55,0C329.16,236.11,340.83,232.71,340.83,233.39Z" transform="translate(-21 -45)"/><ellipse class="cls-4" cx="334.76" cy="188.32" rx="7.33" ry="1.41"/><ellipse class="cls-3" cx="334.89" cy="187.72" rx="0.85" ry="1.12"/><ellipse class="cls-3" cx="334.89" cy="186.36" rx="0.85" ry="1.12"/><ellipse class="cls-3" cx="334.89" cy="184.99" rx="0.85" ry="1.12"/><ellipse class="cls-3" cx="334.89" cy="183.63" rx="0.85" ry="1.12"/><ellipse class="cls-3" cx="334.89" cy="182.26" rx="0.85" ry="1.12"/><ellipse class="cls-3" cx="334.89" cy="180.9" rx="0.85" ry="1.12"/><ellipse class="cls-3" cx="334.89" cy="179.53" rx="0.85" ry="1.12"/><path class="cls-4" d="M352.69,215.2a4.87,4.87,0,0,1-.32-.47l2.25-.37-2.42,0a4.06,4.06,0,0,1-.38-1.71,4.24,4.24,0,0,1,.29-1.53l3.26,1.69-3-2.21a4.08,4.08,0,0,1,7.1,4,3.9,3.9,0,0,1-.36.54,3.8,3.8,0,0,1,.46.74l-2.9,1.51,3.1-1a4.13,4.13,0,0,1-.66,3.85,4.09,4.09,0,1,1-6.42,0,4.07,4.07,0,0,1,0-5Z" transform="translate(-21 -45)"/><path class="cls-5" d="M360,217.72a4.07,4.07,0,0,1-.88,2.53,4.08,4.08,0,1,1-6.41,0C352.14,219.55,360,217.26,360,217.72Z" transform="translate(-21 -45)"/></svg>