<svg id="Layer_1" data-name="Layer 1" xmlns="http://www.w3.org/2000/svg" xmlns:xlink="http://www.w3.org/1999/xlink" viewBox="0 0 399.9 116.07"><defs><style>.cls-1{fill:#646464;}.cls-2{fill:url(#linear-gradient);}.cls-3{fill:url(#linear-gradient-2);}.cls-4{opacity:0.44;isolation:isolate;fill:url(#radial-gradient);}</style><linearGradient id="linear-gradient" x1="11.12" y1="102.68" x2="102.94" y2="23.68" gradientTransform="matrix(0.56, 0, 0, -0.57, -8.96, 166.65)" gradientUnits="userSpaceOnUse"><stop offset="0" stop-color="#5a9fd4"/><stop offset="1" stop-color="#306998"/></linearGradient><linearGradient id="linear-gradient-2" x1="138.44" y1="-24.13" x2="105.65" y2="22.26" gradientTransform="matrix(0.56, 0, 0, -0.57, -8.96, 166.65)" gradientUnits="userSpaceOnUse"><stop offset="0" stop-color="#ffd43b"/><stop offset="1" stop-color="#ffe873"/></linearGradient><radialGradient id="radial-gradient" cx="-262.97" cy="183.7" r="24.46" gradientTransform="matrix(0, -0.24, -1.05, 0, 240.35, 150.1)" gradientUnits="userSpaceOnUse"><stop offset="0" stop-color="#b8b8b8" stop-opacity="0.5"/><stop offset="1" stop-color="#7f7f7f" stop-opacity="0"/></radialGradient></defs><title>how-4</title><path id="path46" class="cls-1" d="M150.37,152.41q0-18.39-10.49-18.9a19.81,19.81,0,0,0-8.14,1.33,12.16,12.16,0,0,0-4.28,2.26v29.28c4.47,2.8,8.45,4.11,11.91,3.91Q150.36,169.56,150.37,152.41Zm8.63.51q0,9.35-4.4,15.52A16.22,16.22,0,0,1,141,175.62q-6.55.21-13.52-4.1v26.6l-7.5-2.67V136.39a16.74,16.74,0,0,1,4.73-3.91q6.7-3.9,16.28-4l.11.11a14.94,14.94,0,0,1,13.5,7.18Q159,142.45,159,152.92Z" transform="translate(0.41 -103)"/><path id="path48" class="cls-1" d="M204.86,170.38q0,12.54-2.51,17.37t-9.62,7.7a36.81,36.81,0,0,1-12.43,2.47l-1.23-4.73a59.68,59.68,0,0,0,9.55-1.85c3.64-1.23,6.13-3.12,7.5-5.65q1.65-3.09,1.65-11.81v-1.95a38.59,38.59,0,0,1-16.14,3.49,14.85,14.85,0,0,1-9.76-3.49,11.89,11.89,0,0,1-4.73-9.66V131l7.51-2.57v31.44a9.55,9.55,0,0,0,3.25,7.76,12.33,12.33,0,0,0,8.41,2.62q5.16-.12,11.05-4V129.61h7.5Z" transform="translate(0.41 -103)"/><path id="path50" class="cls-1" d="M234.15,175.21c-.89.07-1.71.11-2.47.11q-6.36,0-9.92-3a10.52,10.52,0,0,1-3.54-8.4V134.33h-5.13v-4.72h5.13V117.07l7.5-2.67v15.21h8.43v4.72h-8.43v29.35c0,2.81.75,4.81,2.27,6,1.29,1,3.35,1.51,6.16,1.65Z" transform="translate(0.41 -103)"/><path id="path52" class="cls-1" d="M279.58,174.6h-7.5v-29A13.69,13.69,0,0,0,270,138a7.51,7.51,0,0,0-6.61-3.6q-5.16,0-12.91,5.45V174.6H243V105.36l7.5-2.36v31.53a26.17,26.17,0,0,1,15.73-5.23,12.51,12.51,0,0,1,9.65,4,14.11,14.11,0,0,1,3.7,10V174.6Z" transform="translate(0.41 -103)"/><path id="path54" class="cls-1" d="M319.46,151.23a23.07,23.07,0,0,0-2.67-11.68,11.22,11.22,0,0,0-9.86-5.94q-12.35.72-12.33,17.67a29,29,0,0,0,2.58,13c2.2,4.42,5.5,6.61,9.9,6.53Q319.46,170.7,319.46,151.23Zm8.22.05q0,10.07-5.14,16.75-5.66,7.49-15.61,7.49T291.51,168q-5-6.69-5-16.75a23.92,23.92,0,0,1,5.44-15.93A18.76,18.76,0,0,1,307,128.47a19.07,19.07,0,0,1,15.21,6.88A23.92,23.92,0,0,1,327.68,151.28Z" transform="translate(0.41 -103)"/><path id="path56" class="cls-1" d="M370.7,174.6h-7.5V144a10.21,10.21,0,0,0-3-7.86,11,11,0,0,0-8.07-2.72,17.94,17.94,0,0,0-10.17,3.49v37.7h-7.51V136a34.37,34.37,0,0,1,21-7.5,23.81,23.81,0,0,1,5,.52,14.46,14.46,0,0,1,7.19,3.8,10.07,10.07,0,0,1,3.09,7.4Z" transform="translate(0.41 -103)"/><path id="path1948" class="cls-2" d="M45.85,105.64a65.09,65.09,0,0,0-10.79.92c-9.56,1.69-11.3,5.22-11.3,11.74v8.61H46.35v2.87H15.29c-6.56,0-12.31,3.94-14.11,11.45-2.07,8.6-2.16,14,0,23,1.61,6.68,5.44,11.45,12,11.45H21V165.31a14.36,14.36,0,0,1,14.11-14H57.61A11.37,11.37,0,0,0,68.9,139.81V118.3c0-6.12-5.16-10.72-11.29-11.74A70.78,70.78,0,0,0,45.85,105.64Zm-12.22,6.92a4.31,4.31,0,1,1-4.23,4.32A4.29,4.29,0,0,1,33.63,112.56Z" transform="translate(0.41 -103)"/><path id="path1950" class="cls-3" d="M71.72,129.78v10a14.48,14.48,0,0,1-14.11,14.31H35.06a11.53,11.53,0,0,0-11.3,11.48v21.5c0,6.12,5.33,9.72,11.3,11.48a37.79,37.79,0,0,0,22.55,0c5.69-1.65,11.29-5,11.29-11.48v-8.6H46.35v-2.87H80.19c6.57,0,9-4.58,11.3-11.45,2.35-7.08,2.25-13.88,0-23-1.63-6.54-4.72-11.45-11.3-11.45ZM59,184.23a4.31,4.31,0,1,1-4.23,4.29A4.27,4.27,0,0,1,59,184.23Z" transform="translate(0.41 -103)"/><path id="text3004" class="cls-1" d="M385.31,122.92h1.32v-8.25h3.11v-1h-7.55v1h3.12v8.25m5.6,0H392v-7.54l2.44,7.54h1.25l2.55-7.51v7.51h1.22v-9.24h-1.62l-2.78,7.91-2.37-7.91h-1.81v9.24" transform="translate(0.41 -103)"/><path id="path1894" class="cls-4" d="M76.87,213.2c0,3.24-13.55,5.87-30.27,5.87s-30.26-2.63-30.26-5.87,13.55-5.87,30.26-5.87S76.87,210,76.87,213.2Z" transform="translate(0.41 -103)"/></svg>