<svg id="Layer_1" data-name="Layer 1" xmlns="http://www.w3.org/2000/svg" xmlns:xlink="http://www.w3.org/1999/xlink" viewBox="0 0 407.24 300.2"><defs><style>.cls-1{fill:#a4c639;}.cls-2{fill:none;stroke:#a4c639;stroke-linecap:round;stroke-linejoin:round;stroke-width:3px;}.cls-3{fill:#fff;}</style></defs><title>what-6</title><image width="340" height="340" transform="translate(5.24) scale(0.49)" xlink:href="../../../../../../../Downloads/App_Store_for_iOS.png"/><image width="472" height="300" transform="translate(0 42) scale(0.86)" xlink:href="../../../../../../../Downloads/unnamed.png"/><path class="cls-1" d="M285.62,221.19A12.37,12.37,0,0,1,298,233.56v53.07a12.37,12.37,0,1,1-24.74,0V233.56a12.36,12.36,0,0,1,12.36-12.37Z" transform="translate(5.24)"/><path class="cls-1" d="M257.38,157.39c0,.47-.07.94-.07,1.42v80.41a15.45,15.45,0,0,0,15.34,15.61h81.76a15.45,15.45,0,0,0,15.34-15.61V158.81c0-.48,0-.95-.06-1.42Z" transform="translate(5.24)"/><path class="cls-1" d="M341.44,221.19a12.37,12.37,0,0,1,12.37,12.37v53.07a12.37,12.37,0,0,1-24.74,0V233.56a12.37,12.37,0,0,1,12.37-12.37Zm-104-56.64a12.37,12.37,0,0,1,12.37,12.37V230a12.37,12.37,0,0,1-24.74,0V176.92a12.37,12.37,0,0,1,12.37-12.37Zm152.2,0A12.37,12.37,0,0,1,402,176.92V230a12.37,12.37,0,1,1-24.74,0V176.92a12.37,12.37,0,0,1,12.37-12.37ZM257.75,152.11c.34-24.7,21.89-45,49.56-47.61h12.44c27.67,2.67,49.22,22.91,49.56,47.61Z" transform="translate(5.24)"/><path class="cls-2" d="M262.05,102.11l13.05,22.61M365,102.11,352,124.72" transform="translate(5.24)"/><path class="cls-3" d="M296.91,130a6.4,6.4,0,0,1-12.8,0v0a6.4,6.4,0,0,1,12.8,0Zm47.78,0a6.4,6.4,0,0,1-12.8,0v0a6.4,6.4,0,0,1,12.8,0Z" transform="translate(5.24)"/></svg>