<svg id="Layer_1" data-name="Layer 1" xmlns="http://www.w3.org/2000/svg" xmlns:xlink="http://www.w3.org/1999/xlink" viewBox="0 0 396.82 211.18"><defs><style>.cls-1,.cls-3{fill:#6c63ff;}.cls-1,.cls-2,.cls-7{opacity:0.1;}.cls-1,.cls-6,.cls-7{isolation:isolate;}.cls-4{fill:#3f3d56;}.cls-5{fill:#65617d;}.cls-6{opacity:0.2;}.cls-8{fill:#d4dfec;}.cls-9{fill:#fbbebe;}.cls-10{fill:url(#linear-gradient);}.cls-11{fill:none;stroke:#6c63ff;stroke-miterlimit:10;stroke-width:2px;}</style><linearGradient id="linear-gradient" x1="278.92" y1="-125.46" x2="278.92" y2="18.39" gradientTransform="matrix(1, 0, 0, -1, -79.34, 129.09)" gradientUnits="userSpaceOnUse"><stop offset="0" stop-color="gray" stop-opacity="0.25"/><stop offset="0.54" stop-color="gray" stop-opacity="0.12"/><stop offset="1" stop-color="gray" stop-opacity="0.1"/></linearGradient></defs><title>what-9</title><path class="cls-1" d="M368.41,211q-.66,1.44-1.32,2.82c-.68,1.44-1.36,2.86-2,4.24-.3.61-.59,1.22-.88,1.82-3.28,6.69-6.34,12.62-8.94,17.49a27.9,27.9,0,0,1-24.32,14.74l-57.79.63h-.61l-4.95.06-4.24,0-13,.14h-.52l-6.62.08H243l-40.78.44-36.39.38-4.24,0-26.29.29h0l-17.06.18H118L64.1,255,48,255.13a33.67,33.67,0,0,1-10.17-1.45,33,33,0,0,1-14.89-9.44A76.14,76.14,0,0,1,7.54,218c-.49-1.39-1-2.81-1.38-4.24C-5.58,174.11,8.74,122.91,34.5,88.64q1.62-2.15,3.29-4.19l0,0c7.92-9.73,16.8-17.85,26.27-23.63,16.76-10.26,35.34-13.14,53.61-4.54A120,120,0,0,0,161.59,67.9c1.42.09,2.83.16,4.24.2,32.1,1,62.18-10.56,97.51-18q2.1-.45,4.23-.87c25.21-5,53.16-7.66,86.41-2.1a71.72,71.72,0,0,1,10.2,2.44c1.46.47,2.87,1,4.23,1.52,15.87,6.46,24.53,18.38,28.2,33.33.35,1.39.65,2.8.91,4.23C404,124.59,384.94,175.58,368.41,211Z" transform="translate(-2.01 -44)"/><g class="cls-2"><path class="cls-3" d="M64.09,60.79V255L48,255.17a33.61,33.61,0,0,1-10.16-1.45V84.42h0C45.74,74.68,54.62,66.55,64.09,60.79Z" transform="translate(-2.01 -44)"/><path class="cls-3" d="M397.54,88.64H34.5q1.62-2.15,3.29-4.19v0H396.63C397,85.8,397.28,87.2,397.54,88.64Z" transform="translate(-2.01 -44)"/><path class="cls-3" d="M368.41,51.07V213.8h-1.32q-1,2.16-2,4.24l-.88,1.81V49.54Q366.37,50.25,368.41,51.07Z" transform="translate(-2.01 -44)"/><path class="cls-3" d="M267.57,49.2V252.79l-4.23.05V50.07C264.74,49.77,266.15,49.47,267.57,49.2Z" transform="translate(-2.01 -44)"/><path class="cls-3" d="M165.83,68.09V253.9l-4.24,0V67.88C163,68,164.42,68,165.83,68.09Z" transform="translate(-2.01 -44)"/><path class="cls-3" d="M367.09,213.8c-.68,1.44-1.36,2.86-2,4.24H7.54c-.49-1.39-1-2.81-1.38-4.24Z" transform="translate(-2.01 -44)"/></g><rect class="cls-4" x="80.63" y="101.29" width="7.24" height="21.97"/><rect class="cls-4" x="275.49" y="100.15" width="7.24" height="23.25"/><polygon class="cls-5" points="328.91 203.35 328.91 208.31 271.02 208.84 270.4 208.85 248.4 209.06 247.87 209.06 241.18 209.12 240.98 209.12 200.22 209.5 133.29 210.12 133.24 210.12 116.22 210.28 116.04 210.28 40.43 210.97 40.43 205.26 58.21 194.59 93.88 194.29 94.64 194.29 94.89 194.28 95.65 194.27 112.78 194.13 113.54 194.13 113.79 194.12 114.55 194.12 120.04 194.07 120.19 194.07 133.73 193.96 133.84 193.96 239.56 193.06 242.15 193.04 242.41 193.04 244.38 193.03 258.73 192.91 259.49 192.9 260.19 192.89 260.56 192.89 265.02 192.85 265.91 192.84 267.09 192.84 270.81 192.8 276.7 192.75 277.46 192.74 278.79 192.74 279.04 192.74 307.51 192.49 328.91 203.35"/><polygon class="cls-6" points="328.91 203.35 328.91 208.31 271.02 208.84 270.4 208.85 248.4 209.06 247.87 209.06 241.18 209.12 240.98 209.12 200.22 209.5 133.29 210.12 133.24 210.12 116.22 210.28 116.04 210.28 40.43 210.97 40.43 205.26 58.21 194.59 93.88 194.29 94.64 194.29 94.89 194.28 95.65 194.27 112.78 194.13 113.54 194.13 113.79 194.12 114.55 194.12 120.04 194.07 120.19 194.07 133.73 193.96 133.84 193.96 239.56 193.06 242.15 193.04 242.41 193.04 244.38 193.03 258.73 192.91 259.49 192.9 260.19 192.89 260.56 192.89 265.02 192.85 265.91 192.84 267.09 192.84 270.81 192.8 276.7 192.75 277.46 192.74 278.79 192.74 279.04 192.74 307.51 192.49 328.91 203.35"/><path class="cls-4" d="M114.85,228.3v9.34a2.34,2.34,0,0,1-1.34,2.11,2.37,2.37,0,0,1-1,.23l-13.3.28a2.27,2.27,0,0,1-1-.22,2.33,2.33,0,0,1-1.36-2.12V228.3Z" transform="translate(-2.01 -44)"/><path class="cls-7" d="M114.85,228.3v9.34a2.34,2.34,0,0,1-1.34,2.11,2.37,2.37,0,0,1-1,.23l-13.3.28a2.27,2.27,0,0,1-1-.22,2.33,2.33,0,0,1-1.36-2.12V228.3Z" transform="translate(-2.01 -44)"/><path class="cls-4" d="M115.61,228.3v9.34a2.34,2.34,0,0,1-1.34,2.11,2.37,2.37,0,0,1-1,.23l-13.3.28a2.3,2.3,0,0,1-1-.22,2.33,2.33,0,0,1-1.36-2.12V228.3Z" transform="translate(-2.01 -44)"/><rect class="cls-4" x="259.49" y="184.3" width="17.98" height="12"/><rect class="cls-7" x="259.49" y="184.3" width="17.98" height="12"/><rect class="cls-4" x="258.73" y="184.3" width="17.98" height="12"/><polygon class="cls-7" points="87.87 101.29 87.87 103.47 80.63 103.28 80.63 101.29 87.87 101.29"/><path class="cls-5" d="M137.54,83.77l-8.7,62.5a1.62,1.62,0,0,1-1.66,1.41l-69.66-1.8-1.33,0a1.64,1.64,0,0,1-1.6-1.67c0-.06,0-.12,0-.18l9.77-65.43a1.63,1.63,0,0,1,1.73-1.38L136,81.91a1.64,1.64,0,0,1,1.54,1.73S137.55,83.73,137.54,83.77Z" transform="translate(-2.01 -44)"/><polygon class="cls-3" points="67.04 37.77 59.67 95.44 123.7 97.48 131.57 41.84 67.04 37.77"/><rect class="cls-5" x="146.56" y="36.88" width="78" height="66.05" rx="2.03"/><rect class="cls-3" x="150.24" y="41.33" width="70.88" height="55"/><polygon class="cls-7" points="282.74 100.14 282.74 101.59 275.5 101.74 275.5 100.14 282.74 100.14"/><path class="cls-5" d="M317.42,142.92a1.18,1.18,0,0,1-1.1,1.25h-.05l-71.34,1.48a1.18,1.18,0,0,1-1.19-1.06l-6.13-63.75a1.17,1.17,0,0,1,1.06-1.28h.05L309.52,76l.76,0a1.17,1.17,0,0,1,1.23,1.07Z" transform="translate(-2.01 -44)"/><polygon class="cls-3" points="239.67 39.3 304.33 36.12 309.79 94.05 245.64 95.57 239.67 39.3"/><path class="cls-7" d="M317.42,142.92a1.18,1.18,0,0,1-1.1,1.25h-.05L309.52,76l.76,0a1.17,1.17,0,0,1,1.23,1.07Z" transform="translate(-2.01 -44)"/><path class="cls-7" d="M66.12,77.18l-8.6,68.7-1.33,0a1.64,1.64,0,0,1-1.6-1.67c0-.06,0-.12,0-.18l9.77-65.43A1.62,1.62,0,0,1,66.12,77.18Z" transform="translate(-2.01 -44)"/><rect class="cls-7" x="80.63" y="116.76" width="7.24" height="6.51"/><polygon class="cls-7" points="113.6 184.3 113.6 186.19 95.62 186.67 95.62 184.3 113.6 184.3"/><path class="cls-5" d="M147.33,163v64.1a1.53,1.53,0,0,1-1.46,1.51l-73,1.94h0a1.52,1.52,0,0,1-1.5-1.5V163a1.52,1.52,0,0,1,1.5-1.5h73A1.52,1.52,0,0,1,147.33,163Z" transform="translate(-2.01 -44)"/><path class="cls-7" d="M72.83,161.52v69h0a1.52,1.52,0,0,1-1.5-1.5V163a1.52,1.52,0,0,1,1.5-1.5Z" transform="translate(-2.01 -44)"/><polygon class="cls-8" points="74.16 121.61 141.8 121.61 141.8 178.11 74.16 179.63 74.16 121.61"/><rect class="cls-7" x="275.49" y="116.76" width="7.24" height="6.64"/><polygon class="cls-7" points="276.7 184.3 276.7 186.74 258.73 186.26 258.73 184.3 276.7 184.3"/><path class="cls-5" d="M302.44,163v66a1.52,1.52,0,0,1-1.53,1.5h0l-73.05-1.94a1.53,1.53,0,0,1-1.47-1.51V163a1.53,1.53,0,0,1,1.51-1.5h73A1.52,1.52,0,0,1,302.44,163Z" transform="translate(-2.01 -44)"/><path class="cls-7" d="M302.44,163v66a1.52,1.52,0,0,1-1.53,1.5h0v-69h0A1.52,1.52,0,0,1,302.44,163Z" transform="translate(-2.01 -44)"/><polygon class="cls-8" points="295.57 121.61 227.92 121.61 227.92 178.11 295.57 179.63 295.57 121.61"/><path class="cls-5" d="M224.5,163v64.1a1.53,1.53,0,0,1-1.46,1.51l-73,1.94h0a1.52,1.52,0,0,1-1.52-1.5V163a1.52,1.52,0,0,1,1.5-1.5h73A1.52,1.52,0,0,1,224.5,163Z" transform="translate(-2.01 -44)"/><polygon class="cls-8" points="151.32 121.61 218.97 121.61 218.97 178.11 151.32 179.63 151.32 121.61"/><polygon class="cls-7" points="328.91 203.35 328.91 208.31 271.02 208.84 270.4 208.85 248.4 209.06 247.87 209.06 241.18 209.12 240.98 209.12 200.22 209.5 133.29 210.12 133.24 210.12 116.22 210.28 116.04 210.28 40.43 210.97 40.43 205.26 117.6 204.75 117.79 204.75 133.41 204.65 133.48 204.65 241.36 203.93 241.47 203.93 241.53 203.93 241.71 203.93 243.54 203.92 244.09 203.92 272.48 203.73 274.16 203.72 274.53 203.72 328.91 203.35"/><circle class="cls-9" cx="185.68" cy="103.7" r="19.56"/><path class="cls-10" d="M118,254.42a.37.37,0,0,1,0-.14c.38-1.37,1.06-3.68,1.56-5.53.07-.23.13-.45.19-.66.56-2.09,1.65-7,2.25-10,.22-1.07.38-1.9.42-2.32a62.08,62.08,0,0,1,2.52-6.57c.91-2.22,1.91-4.65,2.63-6.7a23.53,23.53,0,0,0,1.12-3.76,1.84,1.84,0,0,0,0-.81,5.92,5.92,0,0,1-.18-1.33h0c-.09-2.37.62-6.1,1.71-7.67,1.33-1.9,2.28-9,2.28-9s2,.28,2.29-1.35a3.08,3.08,0,0,0,0-.53,3,3,0,0,0,0-.42c-.34-2.38,5.61-4.91,9-5.46a7.31,7.31,0,0,1,1.14-.1,10.82,10.82,0,0,0,2.38-.55l1.15-.38c1.4-.48,3.08-1.1,4.85-1.79,6.7-2.59,14.8-6.1,14.8-6.1.06-.27.12-.53.19-.78a10.54,10.54,0,0,1,6.23-7.21h0v-.77c0-1.31,0-2.66-.11-4,0-.27,0-.53,0-.79v-.43c0-.27,0-.54,0-.8l-.07-.05a6.48,6.48,0,0,1-1.49-1.6,6,6,0,0,1-.54-1.15,36.22,36.22,0,0,1-.9-4.09l-.07-.29a32.71,32.71,0,0,0-1.53-4c-.84-2.06-1.49-4.19-2.13-6.34-.39-1.31-.79-2.61-1.19-3.92l-.6-2c-.11-.38-.23-.76-.31-1.14h0a3.29,3.29,0,0,1-.1-.53h0a3.74,3.74,0,0,1,.09-1.76,11.57,11.57,0,0,1,.5-1.14,3.35,3.35,0,0,0,.19-.53h0l0-.12a1.9,1.9,0,0,0,0-.41,7.5,7.5,0,0,0-.19-1.49s0,0,0,0,0-.07,0-.11a8.87,8.87,0,0,1-.14-1.14,10.85,10.85,0,0,1,1.32-5.93l.07-.14a9.33,9.33,0,0,1,.71-1.06h0a5.22,5.22,0,0,1,.38-.47,1.37,1.37,0,0,1-1.91-.26,1.46,1.46,0,0,1-.21-.28l-.09-.18a1.21,1.21,0,0,0-.05-.14,3.15,3.15,0,0,1,.81-2.69,7,7,0,0,1,2.19-1.79h0l.15-.08a6.24,6.24,0,0,1,1-.4h0a4.37,4.37,0,0,1,.62-.17l-1.41-.13-.58,0a5.53,5.53,0,0,1,5-4.16h.41a4,4,0,0,1,.6,0,1.7,1.7,0,0,1-1-1.65,5.47,5.47,0,0,0,3.5,1.16h.15a10.22,10.22,0,0,1-.13-1.24h0a12.06,12.06,0,0,1,0-1.7,3.22,3.22,0,0,0,2.58.86l-.79-1.1a3.63,3.63,0,0,0,2.5.78l.18,0,.45-.09h0a1.87,1.87,0,0,1-.2-.29l0,0a3.91,3.91,0,0,1-.38-.8,2,2,0,0,1-.09-.33h0a3.3,3.3,0,0,1,.17-2.08c1.23,1,2.58,2.44,4.19,1.38s1.67-3,4.2-2.82a3.88,3.88,0,0,1,3.2,2.33,2.59,2.59,0,0,1,2.92-.67,2.63,2.63,0,0,1,1.48,2.63,5.34,5.34,0,0,1,3.18-.13,1.86,1.86,0,0,1,1.09,2.54l-.06.08c-.47.6-1.5.94-1.39,1.7l.16.11.49.36h0c1.95,1.4,3.84,2.88,5.68,4.42a4.61,4.61,0,0,1,2,3,3.44,3.44,0,0,1-.09.9h0c-.06.3-.15.59-.21.89a7.16,7.16,0,0,0-.13,2.31h0c0,.22.06.44.1.67.58,2.94,2.94,5.37,3.17,8.38v.21a6.25,6.25,0,0,1,0,1,20.54,20.54,0,0,1-1.7,5.33c-.05.11-.09.22-.13.32a53.13,53.13,0,0,0-2.66,10.73,38.56,38.56,0,0,1-.77,3.85,10,10,0,0,1-1.93,4,6.41,6.41,0,0,1-1.29,1.15,6.91,6.91,0,0,1-1,.53v0c.05.23.08.46.12.7s0,.24.07.38h0v0c.32,1.8.68,3.57,1.07,5.24l.19.84c4.8,1.73,5.37,5.28,5.41,6.64a5,5,0,0,1,0,.55s7.24.19,10.1,2.29a7.87,7.87,0,0,0,1.71.87,31.33,31.33,0,0,0,3.53,1.1c.61.16,1.25.32,1.9.47,1.15.26,2.36.52,3.53.76,3.12.63,6.06,1.15,7.55,1.53,3.55.9,11.69,8.69,11.69,8.69s.95,7.87,1.9,9a33.07,33.07,0,0,1,2.67,5.18l6.3,11.2,2.67,4.72h1.72a2.88,2.88,0,0,1,1.22.8c.45.4,1,.91,1.4,1.36l.73.78.46.51s2.77.07,3.52,2.26a17.25,17.25,0,0,1,7,1,7.08,7.08,0,0,1,.77.41,3.33,3.33,0,0,1,1.57,2.16,3.45,3.45,0,0,1,.07.55V238c-.14,2.88-2,5.28-3.74,6.9l.12.22-.17.38-.11.24h0c-.22.48-.58,1.2-1.05,2a24.06,24.06,0,0,1-3.65,5l-.11.12-22,.2-.07-.08-4.27-5.09L244,245.37l-.06-.08-.06.61-.21,2-.5,4.88,0,.24v.07l-.06.56,0-.56H243l-40.77.38-66.93.74v.32h-.05v-.32l-17.06.18Z" transform="translate(-2.01 -44)"/><path class="cls-9" d="M207.26,187.72s-37.92,4.57-34.3,0c1.31-1.66,1.68-6.56,1.6-12.14,0-1.7-.08-3.45-.17-5.2C174,162,173,153.8,173,153.8s33.16-15.62,29.35-3.24c-1.53,5-1,12,.13,18.63.34,1.92.73,3.81,1.14,5.6A132.18,132.18,0,0,0,207.26,187.72Z" transform="translate(-2.01 -44)"/><path class="cls-7" d="M207.26,187.72s-37.92,4.57-34.3,0c1.31-1.66,1.68-6.56,1.6-12.14,5.78-2.47,13.14-.63,13.14-.63,7.74-1.54,12.71-1.24,15.88-.16A132.18,132.18,0,0,0,207.26,187.72Z" transform="translate(-2.01 -44)"/><path class="cls-3" d="M135.29,254.55v-.32l66.92-.73,40.78-.38h.11l0,.56.06-.56h.07v-.07l.52-5.12.2-1.94.06-.61.06-.5,2.35-7.86,2.36-7.84,2-6.6,3-10.1a33.75,33.75,0,0,0-2.66-5.14c-1-1.14-1.91-9-1.91-9s-8.13-7.74-11.69-8.64c-1.49-.38-4.43-.88-7.55-1.52-1.17-.24-2.37-.49-3.53-.76l-1.9-.46a36,36,0,0,1-3.53-1.09,7.91,7.91,0,0,1-1.71-.88c-2.8-2.05-9.82-2.28-10.09-2.28h0a0,0,0,0,1,0,0v0a3.84,3.84,0,0,0,0-.48,2.69,2.69,0,0,0,0-.54.44.44,0,0,0,0-.19,3.83,3.83,0,0,0-.07-.43,1.17,1.17,0,0,0-.05-.2,6.77,6.77,0,0,0-.47-1.33,1.74,1.74,0,0,0-.1-.19,6.53,6.53,0,0,0-.64-1l-.16-.2a7.63,7.63,0,0,0-1-1l-.32-.24-.19-.13-.34-.23-.32-.18c-.28-.15-.57-.3-.89-.44l-.31-.13-.42-.16h0l-.29-.11c-.22-.08-.44-.14-.67-.21l-.35-.09-.38-.09-.39-.08c-.38-.07-.78-.14-1.21-.19l-.44-.06-.44,0-.46,0-.66,0-.76,0a47.39,47.39,0,0,0-10,1.07,27.12,27.12,0,0,0-7-.64h-.33l-.38,0h-.24l-.5,0a4.07,4.07,0,0,0-.49.05l-.5.07-.25,0-.76.14-.26.06c-.33.07-.66.16-1,.26l-.49.16-.24.08-.25.09-.24.09-.28.12-.43.19-.24.12a2.39,2.39,0,0,0-.22.12,10.31,10.31,0,0,0-2.37,1.66l-.2.19-.19.2-.18.2a9.72,9.72,0,0,0-.7.86l-.17.24a12.47,12.47,0,0,0-.66,1.11c-.05.09-.09.19-.14.28a12.68,12.68,0,0,0-.76,2c-.07.25-.14.51-.19.76s-8.07,3.56-14.76,6.14c-1.78.68-3.46,1.31-4.86,1.77l-1.15.39a10,10,0,0,1-2.38.54,8.79,8.79,0,0,0-1.14.11c-3.08.5-8.35,2.67-8.92,4.84a1.41,1.41,0,0,0,0,.54v0c.38,2.67-2.29,2.29-2.29,2.29s-.95,7.05-2.28,9c-1,1.37-1.63,4.43-1.71,6.74h0a7.39,7.39,0,0,0,.17,2.15v.05a9.49,9.49,0,0,1-.84,3.69c-.67,2-1.66,4.41-2.6,6.71a75.4,75.4,0,0,0-2.85,7.32c0,.31-.13.86-.27,1.58-.56,2.9-1.79,8.43-2.4,10.67-.46,1.67-1.12,3.95-1.57,5.52a.74.74,0,0,1,0,.14l17.09-.17v.32h0Z" transform="translate(-2.01 -44)"/><path class="cls-7" d="M141.52,209.63s21.72,11.24,29.54,9.91Z" transform="translate(-2.01 -44)"/><path class="cls-7" d="M185.73,205.06s21.15,6.86,28.2,7.81S185.73,205.06,185.73,205.06Z" transform="translate(-2.01 -44)"/><path class="cls-7" d="M209.19,183c-11.05,2-31.86,1.6-40.85,1.29,3.29-11.81,19.37-7.79,19.37-7.79C207.6,172.5,209.13,180.74,209.19,183Z" transform="translate(-2.01 -44)"/><path class="cls-3" d="M209.19,182.22c-11.05,2-31.86,1.6-40.85,1.29,3.29-11.81,19.37-7.8,19.37-7.8C207.6,171.74,209.13,180,209.19,182.22Z" transform="translate(-2.01 -44)"/><path class="cls-9" d="M267.85,234.31s13-2,13.28,3.71-6.64,9.71-6.64,9.71Z" transform="translate(-2.01 -44)"/><path class="cls-7" d="M202.44,169.19a17,17,0,0,1-1.72.66,61.12,61.12,0,0,1-12.57,3.37,20.52,20.52,0,0,1-12.64-2.1,10.58,10.58,0,0,1-1.14-.74c-.42-8.39-1.43-16.58-1.43-16.58s33.15-15.62,29.34-3.24C200.77,155.57,201.28,162.59,202.44,169.19Z" transform="translate(-2.01 -44)"/><path class="cls-4" d="M182.33,117.13a3.62,3.62,0,0,1-3.17-.67l.79,1.1a3.22,3.22,0,0,1-2.58-.85,13.26,13.26,0,0,0,.12,3,5.55,5.55,0,0,1-3.64-1.14,1.67,1.67,0,0,0,1,1.64,5.45,5.45,0,0,0-5.94,4.08l2,.18a7,7,0,0,0-4,2.43,3.08,3.08,0,0,0-.81,2.67c.27.93,1.56,1.52,2.26.86a10.66,10.66,0,0,0-2.33,8.68,5.7,5.7,0,0,1,.18,2c-.13.63-.53,1.17-.72,1.79a5.65,5.65,0,0,0,.32,3.43l1.78,5.87c.65,2.12,1.3,4.25,2.14,6.31a31.12,31.12,0,0,1,1.53,4c.48,1.84.5,3.86,1.52,5.48a7.58,7.58,0,0,0,2.74,2.41,20.51,20.51,0,0,0,12.63,2.09,60.38,60.38,0,0,0,12.56-3.36,11.88,11.88,0,0,0,2.61-1.14c2.84-1.86,3.47-5.67,4-9a51,51,0,0,1,2.78-11c.83-2.09,1.9-4.22,1.72-6.46-.23-3-2.59-5.39-3.17-8.31a7,7,0,0,1,0-3,6.85,6.85,0,0,0,.3-1.79c-.07-1.23-1.07-2.18-2-3q-3.08-2.56-6.35-4.85c-.11-.76.93-1.09,1.4-1.69.66-.85,0-2.2-1-2.6a5.25,5.25,0,0,0-3.18.13,2.52,2.52,0,0,0-4.41-1.95,3.87,3.87,0,0,0-3.21-2.32c-2.52-.19-2.57,1.74-4.19,2.8s-2.95-.34-4.19-1.36A3.54,3.54,0,0,0,182.33,117.13Z" transform="translate(-2.01 -44)"/><path class="cls-3" d="M277.51,245.74s-.34.81-1,2a25.55,25.55,0,0,1-3.43,5l-.1.12h-.62l-22,.2h-.53l-.06-.08-4.27-5.06L243.92,246l-.06-.08-.14-.16-.08-.09-.1-.12-3.13-3.71,1.15-4.77,1.95-8,0-.2.39-1.52.27-1.15.9-3.72,3.11-12.83,5.53,2.86,5.83,10.29,3.12,5.53h1.72a4.88,4.88,0,0,1,1.81,1.34l.77.76c.67.71,1.21,1.31,1.21,1.31s2.78.06,3.53,2.25a3,3,0,0,1,.09.32,14.87,14.87,0,0,0,1,2.5c.49,1.07,1.1,2.29,1.73,3.5,1.16,2.23,2.34,4.35,2.78,5.12l.05.1Z" transform="translate(-2.01 -44)"/><path class="cls-7" d="M244.77,228.53l0,.55v0l-.06.88-.51,7.06-.61,8.49-.18,2.4-.38,5.12v.06l-40.78.38-66.91.73v.32h-.05v-.43l.17-5.47.33-10.69.28-9.07,0-.9a4,4,0,0,1,4.14-3.89h.22c1.79.15,4.13.34,6.92.54l1.15.08c16.13,1.12,45.94,2.57,76,.76l1.91-.11c4.66-.3,9.32-.67,13.94-1.15a4,4,0,0,1,4.41,3.58,4.09,4.09,0,0,1,0,.7Z" transform="translate(-2.01 -44)"/><path class="cls-4" d="M135.29,254.55v-.32l66.92-.73,40.78-.38h.11v-.07l.39-5.12.16-2.28.62-8.62.5-6.82V230a3.71,3.71,0,0,0-.05-.94,0,0,0,0,0,0,0,3.89,3.89,0,0,0-.76-1.77,4,4,0,0,0-3.59-1.52c-4.61.47-9.27.85-13.94,1.14-.63.05-1.27.09-1.9.12-30.09,1.79-59.9.34-76-.76l-1.14-.09c-2.8-.19-5.13-.38-6.93-.53a4,4,0,0,0-4.28,3.25,3.18,3.18,0,0,0-.07.62l-.26,8.45-.36,10.69-.16,5.48v.42Z" transform="translate(-2.01 -44)"/><path class="cls-7" d="M244.88,231.2l-.46,5.85-.7,8.7-.18,2.18-.38,4.88,0,.25v.06h0l-.06.57,0-.57H243l-40.77.38-66.94.73v-.11l.19-5.47.38-10.69.24-7.11a2.42,2.42,0,0,1,1.17-2,2.27,2.27,0,0,1,1.44-.34l2.93.22c1.86.14,4.16.3,6.83.46,5,.32,11.17.65,18.3.93,19.81.76,46.57,1,72-1.21l3.48-.32a2.34,2.34,0,0,1,1.32.25,1.85,1.85,0,0,1,.33.21,2.37,2.37,0,0,1,.76.93,2.44,2.44,0,0,1,.1.24A2.33,2.33,0,0,1,244.88,231.2Z" transform="translate(-2.01 -44)"/><path class="cls-7" d="M115.61,236.42v1.22a2.34,2.34,0,0,1-1.34,2.11L99,240a2.33,2.33,0,0,1-1.36-2.12v-1.15Z" transform="translate(-2.01 -44)"/><polygon class="cls-4" points="113.79 196.46 93.88 196.84 93.88 193.54 113.79 193.16 113.79 196.46"/><polygon class="cls-7" points="113.79 196.46 93.88 196.84 93.88 193.54 113.79 193.16 113.79 196.46"/><polygon class="cls-4" points="114.55 196.46 94.64 196.84 94.64 193.54 114.55 193.16 114.55 196.46"/><g class="cls-2"><path d="M182.49,115.88a3.64,3.64,0,0,1-.72-1.66,3.51,3.51,0,0,0,.16,1.76A3.89,3.89,0,0,0,182.49,115.88Z" transform="translate(-2.01 -44)"/><path d="M177.65,118.41a13.49,13.49,0,0,1-.15-1.41v1.41Z" transform="translate(-2.01 -44)"/><path d="M208.7,131.13a8.46,8.46,0,0,1,.14-1,7.22,7.22,0,0,0,.31-1.79,2.9,2.9,0,0,0-.06-.41c-.07.36-.17.71-.25,1A7.47,7.47,0,0,0,208.7,131.13Z" transform="translate(-2.01 -44)"/><path d="M200.78,119.35l.41.3a7.13,7.13,0,0,0,1-.84,1.42,1.42,0,0,0,.15-1.39,1,1,0,0,1-.15.24C201.7,118.26,200.67,118.6,200.78,119.35Z" transform="translate(-2.01 -44)"/><path d="M169.46,123a4.34,4.34,0,0,0-.33.87,6.6,6.6,0,0,1,1.91-.72Z" transform="translate(-2.01 -44)"/><path d="M174.72,118.87a5.56,5.56,0,0,1-.72-.47,1.38,1.38,0,0,0,0,.45A5.2,5.2,0,0,1,174.72,118.87Z" transform="translate(-2.01 -44)"/><path d="M212,141.32a19.62,19.62,0,0,1-1.72,5.38,51.86,51.86,0,0,0-2.78,11c-.52,3.35-1.14,7.16-4,9a11.63,11.63,0,0,1-2.6,1.15,61.19,61.19,0,0,1-12.58,3.36,20.49,20.49,0,0,1-12.63-2.09,7.66,7.66,0,0,1-2.74-2.41c-1-1.62-1-3.64-1.52-5.48a31.83,31.83,0,0,0-1.53-4c-.84-2.05-1.49-4.19-2.13-6.3-.6-2-1.19-3.92-1.79-5.88a11.09,11.09,0,0,1-.43-1.81,6.89,6.89,0,0,0,.43,3c.6,2,1.19,3.92,1.79,5.88.64,2.12,1.29,4.24,2.13,6.29a31.83,31.83,0,0,1,1.53,4c.48,1.85.5,3.87,1.52,5.48a7.66,7.66,0,0,0,2.74,2.41,20.51,20.51,0,0,0,12.63,2.09A60.89,60.89,0,0,0,200.88,169a11.6,11.6,0,0,0,2.6-1.14c2.84-1.86,3.48-5.66,4-9a51.55,51.55,0,0,1,2.78-11c.83-2.09,1.91-4.21,1.73-6.46C212,141.37,212,141.35,212,141.32Z" transform="translate(-2.01 -44)"/><path d="M166.37,139.85v0a5.63,5.63,0,0,0-.18-2,9,9,0,0,1-.15-1.27,10.78,10.78,0,0,0,.15,2.41C166.25,139.25,166.32,139.55,166.37,139.85Z" transform="translate(-2.01 -44)"/><path d="M167.53,130.53a10.42,10.42,0,0,1,1-1.4c-.69.67-2,.07-2.25-.85a2.2,2.2,0,0,0,0,1.14A1.67,1.67,0,0,0,167.53,130.53Z" transform="translate(-2.01 -44)"/></g><path class="cls-7" d="M262.71,228.3a16.56,16.56,0,0,1,0,8.2C261.5,240.31,262.71,228.3,262.71,228.3Z" transform="translate(-2.01 -44)"/><path class="cls-7" d="M267.85,232.77s.51,5.57-.63,6.55S267.85,232.77,267.85,232.77Z" transform="translate(-2.01 -44)"/><line class="cls-11" x1="75.83" y1="130.65" x2="114.55" y2="130.26"/><line class="cls-11" x1="75.83" y1="135.4" x2="114.55" y2="135.02"/><line class="cls-11" x1="75.83" y1="140.15" x2="114.55" y2="139.77"/></svg>