<svg id="Layer_1" data-name="Layer 1" xmlns="http://www.w3.org/2000/svg" xmlns:xlink="http://www.w3.org/1999/xlink" viewBox="0 0 388.94 200.88"><defs><style>.cls-1{fill:#a4c639;}.cls-2{fill:none;stroke:#a4c639;stroke-linecap:round;stroke-linejoin:round;stroke-width:3px;}.cls-3{fill:#fff;}.cls-4{font-size:180px;fill:#cc0909;font-family:Montserrat-Bold, Montserrat;font-weight:700;}</style></defs><title>what-7</title><path class="cls-1" d="M62.38,167.07a10.49,10.49,0,0,1,10.49,10.48v45a10.49,10.49,0,0,1-21,0v-45a10.48,10.48,0,0,1,10.48-10.48Z" transform="translate(-11.06 -55.08)"/><path class="cls-1" d="M38.45,113c0,.4-.06.8-.06,1.21v68.13a13.09,13.09,0,0,0,13,13.23h69.28a13.1,13.1,0,0,0,13-13.23V114.21c0-.41,0-.81,0-1.21Z" transform="translate(-11.06 -55.08)"/><path class="cls-1" d="M109.68,167.07a10.48,10.48,0,0,1,10.48,10.48v45a10.49,10.49,0,0,1-21,0v-45a10.49,10.49,0,0,1,10.49-10.48Zm-88.14-48A10.49,10.49,0,0,1,32,129.55v45a10.49,10.49,0,0,1-21,0v-45a10.49,10.49,0,0,1,10.48-10.49Zm129,0A10.49,10.49,0,0,1,161,129.55v45a10.49,10.49,0,0,1-21,0v-45a10.49,10.49,0,0,1,10.49-10.49ZM38.76,108.52c.29-20.92,18.56-38.08,42-40.34H91.3c23.45,2.26,41.71,19.42,42,40.34Z" transform="translate(-11.06 -55.08)"/><path class="cls-2" d="M42.4,66.16,53.46,85.31m76.2-19.15L118.6,85.31" transform="translate(-11.06 -55.08)"/><path class="cls-3" d="M72,89.77a5.43,5.43,0,0,1-10.85,0v0a5.43,5.43,0,0,1,10.85,0Zm40.48,0a5.43,5.43,0,0,1-10.85,0v0a5.43,5.43,0,0,1,10.85,0Z" transform="translate(-11.06 -55.08)"/><image width="850" height="477" transform="translate(152.94 19.92) scale(0.28)" xlink:href="../../../../../../../Downloads/ios-app%20(1).png"/><text class="cls-4" transform="translate(211.26 153)">X</text></svg>