<svg id="Layer_1" data-name="Layer 1" xmlns="http://www.w3.org/2000/svg" viewBox="0 0 303.83 281"><defs><style>.cls-1{fill:#e0e0e0;}.cls-2{opacity:0.1;}.cls-10,.cls-2,.cls-3,.cls-4,.cls-5,.cls-8,.cls-9{isolation:isolate;}.cls-3{opacity:0.17;}.cls-4{opacity:0.05;}.cls-5{opacity:0.07;}.cls-6,.cls-9{fill:#00aced;}.cls-10,.cls-7{fill:#6c63ff;}.cls-11,.cls-8{fill:#535461;}.cls-10,.cls-8,.cls-9{opacity:0.3;}</style></defs><title>what-4</title><polygon class="cls-1" points="209.14 150.85 129.97 131.78 129.97 281 209.14 260.28 209.14 150.85"/><polygon class="cls-2" points="209.14 150.85 129.97 131.78 129.97 281 209.14 260.28 209.14 150.85"/><polygon class="cls-1" points="50.8 150.85 129.97 131.78 129.97 281 50.8 260.69 50.8 150.85"/><polygon class="cls-3" points="50.8 150.19 129.97 131.13 129.97 281 50.8 260.69 50.8 150.19"/><polygon class="cls-1" points="129.31 132.44 171.01 97.79 250.18 118.11 208.48 151.51 129.31 132.44"/><polygon class="cls-1" points="10.84 119.18 51.47 151.51 130.63 132.44 90.43 98.45 10.84 119.18"/><polygon class="cls-4" points="10.19 118.52 51.79 151.51 130.96 132.44 89.77 97.79 10.19 118.52"/><polygon class="cls-1" points="50.8 150.85 50.8 260.69 129.97 281 131.04 171.99 50.8 150.85"/><polygon class="cls-1" points="209.14 260.28 129.97 281 129.97 171.99 209.14 150.85 209.14 260.28"/><polygon class="cls-5" points="209.14 260.28 129.97 281 129.97 171.99 209.14 150.85 209.14 260.28"/><polygon class="cls-5" points="177.64 223.8 177.64 259.86 209.14 251.16 209.14 215.1 177.64 223.8"/><polygon class="cls-2" points="49.77 207.84 94.12 219.03 129.77 190.02 129.77 172.19 50.6 152.3 49.77 207.84"/><polygon class="cls-2" points="209.76 207.84 165.41 219.03 129.77 190.02 129.77 172.19 208.93 152.3 209.76 207.84"/><path class="cls-6" d="M157,162.13l3.07-.61a29.46,29.46,0,0,1-3.07,3.07h0a11.3,11.3,0,0,0,0,1.84c-5.89,25.29-27.63,14.12-27.63,14.12,7.92.18,8.6-3.07,8.6-3.07-4.6-.67-5.53-3.68-5.53-3.68a1.91,1.91,0,0,0,2.46-.62,5.56,5.56,0,0,1-4.3-6.13,6.31,6.31,0,0,0,3,1.16c-.55-.67-5.23-6.26-2.4-9.15,0,0,3.44,6.14,12.47,6.7l.61-.13a4.69,4.69,0,0,1-.13-1.35,6.44,6.44,0,0,1,6.45-6.44c4.3,0,5.23,2.45,5.23,2.45l3.07-1.84C158.86,158.45,158.56,161.52,157,162.13Z" transform="translate(-60.17 -13)"/><polygon class="cls-1" points="50.8 150.85 10.19 184.43 89.35 204.32 129.97 171.99 50.8 150.85"/><path class="cls-7" d="M218.9,161.31l1.51-2.11a24.45,24.45,0,0,1-.12,3.61h0a10,10,0,0,0,1,1.12c10.75,18.71-8.79,24.24-8.79,24.24,4.91-4.38,3.48-6.73,3.48-6.73-3.2,2.19-5.44.88-5.44.88a1.58,1.58,0,0,0,1.15-1.77,4.65,4.65,0,0,1-6.1-1.29,5.23,5.23,0,0,0,2.49-1c-.71-.09-6.72-.85-6.64-4.2,0,0,5.57,1.78,11.37-3l.3-.42a4.26,4.26,0,0,1-.84-.75,5.36,5.36,0,0,1,.26-7.57h0c2.61-2.44,4.56-1.46,4.56-1.46L218,158S219.48,160.07,218.9,161.31Z" transform="translate(-60.17 -13)"/><polygon class="cls-1" points="209.14 150.85 250.18 184.43 171.42 204.32 129.97 171.99 209.14 150.85"/><polygon class="cls-5" points="209.14 150.85 250.18 184.43 171.42 204.32 129.97 171.99 209.14 150.85"/><path class="cls-6" d="M216,58.72l2.8-1.35a28.48,28.48,0,0,1-2.2,3.72h0a12.12,12.12,0,0,0,.46,1.77c.57,25.83-23.13,20.43-23.13,20.43,7.67-1.77,7.52-5.08,7.52-5.08-4.6.49-6.23-2.18-6.23-2.18a1.86,1.86,0,0,0,2.21-1.2A5.53,5.53,0,0,1,191.79,70a6.28,6.28,0,0,0,3.18.38c-.69-.52-6.57-4.75-4.56-8.22,0,0,4.83,5.06,13.66,3.36l.56-.27a4.81,4.81,0,0,1-.45-1.27,6.42,6.42,0,0,1,4.61-7.81h0c4.14-1.06,5.63,1.08,5.63,1.08l2.5-2.53C216.87,54.71,217.33,57.75,216,58.72Z" transform="translate(-60.17 -13)"/><path class="cls-6" d="M87.64,78.39l3.06-.61a29.26,29.26,0,0,1-3.06,3.06h0a14,14,0,0,0,0,1.83c-5.86,25.16-27.47,14-27.47,14,7.87.19,8.54-3,8.54-3C64.13,93,63.22,90,63.22,90a1.86,1.86,0,0,0,2.44-.6,5.53,5.53,0,0,1-4.28-6.1,6.23,6.23,0,0,0,3,1.17c-.55-.68-5.2-6.23-2.39-9.1,0,0,3.42,6.1,12.4,6.65l.61-.12a5.07,5.07,0,0,1-.12-1.35,6.4,6.4,0,0,1,6.41-6.4h0c4.28,0,5.19,2.44,5.19,2.44l3.06-1.83C89.46,74.75,89.16,77.8,87.64,78.39Z" transform="translate(-60.17 -13)"/><path class="cls-6" d="M359,24.1l5-1s-4.19,4.69-5,5h0a18.53,18.53,0,0,0,0,3C349.45,72.12,314.18,54,314.18,54c12.85.3,13.95-5,13.95-5-7.48-1.1-9-6-9-6a3.07,3.07,0,0,0,4-1c-8.07-2.09-7-10-7-10A10.42,10.42,0,0,0,321.05,34c-.9-1.09-8.47-10.16-3.89-14.84,0,0,5.58,10,20.23,10.86l1-.2a8.12,8.12,0,0,1-.19-2.2,10.46,10.46,0,0,1,10.46-10.46c7,0,8.47,4,8.47,4l5-3C362,18.12,361.51,23.09,359,24.1Z" transform="translate(-60.17 -13)"/><path class="cls-6" d="M277.61,15.89l2.06-.41a19,19,0,0,1-2.06,2.06h0a8.55,8.55,0,0,0,0,1.24c-4,17-18.57,9.49-18.57,9.49,5.33.12,5.78-2.06,5.78-2.06-3.09-.46-3.71-2.48-3.71-2.48a1.28,1.28,0,0,0,1.65-.41,3.74,3.74,0,0,1-2.89-4.11,4.22,4.22,0,0,0,2,.78c-.37-.45-3.51-4.21-1.61-6.15,0,0,2.31,4.11,8.38,4.49l.41-.08a3.12,3.12,0,0,1-.08-.91A4.33,4.33,0,0,1,273.31,13h0c2.89,0,3.51,1.65,3.51,1.65l2.06-1.24S278.64,15.48,277.61,15.89Z" transform="translate(-60.17 -13)"/><path class="cls-8" d="M183.94,98.41,186,98a20.09,20.09,0,0,1-2.07,2.07h0a8.42,8.42,0,0,0,0,1.23c-4,17-18.56,9.49-18.56,9.49,5.32.13,5.77-2.06,5.77-2.06-3.09-.45-3.71-2.48-3.71-2.48a1.27,1.27,0,0,0,1.65-.41,3.74,3.74,0,0,1-2.89-4.11,4.38,4.38,0,0,0,2,.79c-.37-.46-3.51-4.21-1.61-6.15,0,0,2.31,4.11,8.38,4.48l.41-.08a3.09,3.09,0,0,1-.08-.91,4.33,4.33,0,0,1,4.33-4.33c2.89,0,3.51,1.65,3.51,1.65L185.22,96C185.17,96,185,98,183.94,98.41Z" transform="translate(-60.17 -13)"/><path class="cls-9" d="M264.39,60l2.06-.41a16.59,16.59,0,0,1-2.06,2.06h0a8.55,8.55,0,0,0,0,1.24c-4,17-18.57,9.49-18.57,9.49,5.33.12,5.78-2.07,5.78-2.07-3.09-.45-3.71-2.47-3.71-2.47a1.29,1.29,0,0,0,1.65-.41,3.74,3.74,0,0,1-2.89-4.11,4.22,4.22,0,0,0,2,.78c-.37-.45-3.51-4.21-1.61-6.15,0,0,2.31,4.11,8.38,4.49l.41-.08a3.12,3.12,0,0,1-.08-.91,4.33,4.33,0,0,1,4.33-4.33h0c2.89,0,3.51,1.65,3.51,1.65l2.06-1.24S265.44,59.63,264.39,60Z" transform="translate(-60.17 -13)"/><path class="cls-7" d="M225.45,129.12l4.29-.86s-3.6,4-4.29,4.29h0a18.51,18.51,0,0,0,0,2.58c-8.24,35.36-38.62,19.74-38.62,19.74,11.07.26,12-4.29,12-4.29-6.44-1-7.72-5.15-7.72-5.15a2.65,2.65,0,0,0,3.43-.86c-6.95-1.8-6-8.6-6-8.6a8.8,8.8,0,0,0,4.2,1.63c-.77-.94-7.29-8.75-3.36-12.78,0,0,4.81,8.59,17.43,9.34l.86-.17a6.7,6.7,0,0,1-.18-1.89,9,9,0,0,1,9-9h0c6,0,7.29,3.43,7.29,3.43l4.3-2.54C228,124,227.6,128.27,225.45,129.12Z" transform="translate(-60.17 -13)"/><path class="cls-7" d="M195.08,22.9l2-.41a19,19,0,0,1-2.06,2.06h0a8.55,8.55,0,0,0,0,1.24c-4,17-18.57,9.49-18.57,9.49,5.32.13,5.78-2.06,5.78-2.06-3.1-.45-3.72-2.48-3.72-2.48a1.26,1.26,0,0,0,1.65-.41,3.73,3.73,0,0,1-2.88-4.11,4.33,4.33,0,0,0,2,.79c-.38-.46-3.51-4.21-1.61-6.15,0,0,2.31,4.11,8.37,4.48l.42-.08a3.47,3.47,0,0,1-.09-.91A4.34,4.34,0,0,1,190.77,20h0c2.89,0,3.51,1.66,3.51,1.66l2.06-1.24S196.12,22.49,195.08,22.9Z" transform="translate(-60.17 -13)"/><path class="cls-7" d="M132,68.71,134,68.3A19,19,0,0,1,132,70.36h0a8.55,8.55,0,0,0,0,1.24c-4,17-18.57,9.49-18.57,9.49,5.33.12,5.78-2.07,5.78-2.07-3.09-.45-3.71-2.47-3.71-2.47a1.29,1.29,0,0,0,1.65-.41A3.75,3.75,0,0,1,114.21,72a4.13,4.13,0,0,0,2,.79c-.37-.45-3.51-4.21-1.61-6.15,0,0,2.31,4.11,8.38,4.49l.41-.09a3,3,0,0,1-.08-.9,4.33,4.33,0,0,1,4.33-4.33c2.89,0,3.51,1.65,3.51,1.65l2.06-1.24S133,68.3,132,68.71Z" transform="translate(-60.17 -13)"/><path class="cls-10" d="M114.62,39l2.06-.41a19.89,19.89,0,0,1-2.06,2.06h0a8.42,8.42,0,0,0,0,1.23c-4,17-18.57,9.5-18.57,9.5,5.33.12,5.78-2.07,5.78-2.07-3.09-.45-3.72-2.47-3.72-2.47a1.29,1.29,0,0,0,1.66-.42,3.74,3.74,0,0,1-2.89-4.11,4.23,4.23,0,0,0,2,.79c-.37-.45-3.51-4.21-1.61-6.15,0,0,2.31,4.11,8.38,4.49l.41-.09a3,3,0,0,1-.08-.9,4.32,4.32,0,0,1,4.33-4.33c2.88,0,3.51,1.65,3.51,1.65l2.06-1.24S115.67,38.59,114.62,39Z" transform="translate(-60.17 -13)"/><path class="cls-11" d="M187.24,164.85l2.07-.41a19.14,19.14,0,0,1-2.07,2.06h0a8.55,8.55,0,0,0,0,1.24c-4,17-18.56,9.49-18.56,9.49,5.32.12,5.77-2.06,5.77-2.06-3.09-.46-3.71-2.48-3.71-2.48a1.28,1.28,0,0,0,1.65-.41,3.74,3.74,0,0,1-2.89-4.11,4.26,4.26,0,0,0,2,.78c-.37-.45-3.51-4.21-1.61-6.15,0,0,2.31,4.11,8.38,4.49l.41-.08a3.12,3.12,0,0,1-.08-.91A4.33,4.33,0,0,1,183,162c2.89,0,3.51,1.65,3.51,1.65l2.06-1.24S188.27,164.44,187.24,164.85Z" transform="translate(-60.17 -13)"/><path class="cls-11" d="M307.65,75.29l4.2-.84s-3.54,4-4.21,4.21h0a17.66,17.66,0,0,0,0,2.52c-8.08,34.68-37.88,19.36-37.88,19.36,10.87.27,11.8-4.21,11.8-4.21-6.32-.93-7.58-5-7.58-5a2.62,2.62,0,0,0,3.37-.84c-6.82-1.77-5.9-8.42-5.9-8.42a8.79,8.79,0,0,0,4.11,1.6c-.74-.93-7.15-8.6-3.28-12.55,0,0,4.71,8.42,17.09,9.18l.84-.17a6.52,6.52,0,0,1-.17-1.87,8.84,8.84,0,0,1,8.84-8.84h0c5.89,0,7.15,3.36,7.15,3.36l4.21-2.52C310.18,70.24,309.75,74.45,307.65,75.29Z" transform="translate(-60.17 -13)"/><path class="cls-11" d="M140.53,109.13l4.21-.84s-3.53,3.95-4.21,4.2h0a17.8,17.8,0,0,0,0,2.53c-8.08,34.68-37.87,19.36-37.87,19.36,10.85.25,11.78-4.21,11.78-4.21-6.31-.92-7.57-5-7.57-5a2.61,2.61,0,0,0,3.36-.84c-6.82-1.77-5.89-8.42-5.89-8.42a8.75,8.75,0,0,0,4.11,1.6c-.75-.93-7.16-8.59-3.29-12.54,0,0,4.72,8.41,17.09,9.17l.84-.17a6.9,6.9,0,0,1-.17-1.87,8.83,8.83,0,0,1,8.84-8.83c5.89,0,7.16,3.36,7.16,3.36l4.2-2.53C143.06,104.07,142.64,108.29,140.53,109.13Z" transform="translate(-60.17 -13)"/></svg>