<svg id="Layer_1" data-name="Layer 1" xmlns="http://www.w3.org/2000/svg" xmlns:xlink="http://www.w3.org/1999/xlink" viewBox="0 0 312.72 256.44"><defs><style>.cls-1{fill:#f2f2f2;}.cls-2{fill:none;stroke:#3f3d56;stroke-miterlimit:10;}.cls-3{fill:#6c63ff;}.cls-4{fill:#fff;}.cls-5{fill:url(#linear-gradient);}.cls-6{fill:#575a89;}.cls-7{fill:#cbceda;}.cls-12,.cls-8{opacity:0.1;}.cls-11,.cls-15,.cls-8{isolation:isolate;}.cls-9{fill:#fbbebe;}.cls-10{fill:#3f3d56;}.cls-11{opacity:0.05;}.cls-13{fill:#57b894;}.cls-14{fill:#656380;}.cls-15{opacity:0.2;}</style><linearGradient id="linear-gradient" x1="432.35" y1="-21.1" x2="432.35" y2="-20.95" gradientTransform="translate(541.49 253.22) rotate(180)" gradientUnits="userSpaceOnUse"><stop offset="0" stop-color="gray" stop-opacity="0.25"/><stop offset="0.54" stop-color="gray" stop-opacity="0.12"/><stop offset="1" stop-color="gray" stop-opacity="0.1"/></linearGradient></defs><title>what-5</title><path class="cls-1" d="M239.73,55.1V249.91a8.76,8.76,0,0,1-8.76,8.75H151.88a8.75,8.75,0,0,1-8.75-8.75V55.1a8.76,8.76,0,0,1,8.75-8.76h11.84v1.52a7.2,7.2,0,0,0,7.2,7.21h40.23a7.2,7.2,0,0,0,7.2-7.21h0V46.34H231a8.76,8.76,0,0,1,8.76,8.76Z" transform="translate(-39.77 -29.49)"/><path class="cls-2" d="M251.64,85.57h.79a.73.73,0,0,1,.73.73h0V112a.73.73,0,0,1-.73.73h-.79" transform="translate(-39.77 -29.49)"/><path class="cls-2" d="M141.43,73.24h-.57a.49.49,0,0,1-.48-.48v-8a.49.49,0,0,1,.48-.48h.57" transform="translate(-39.77 -29.49)"/><path class="cls-2" d="M141.34,96.22h-.48a.54.54,0,0,1-.54-.54V81.21a.54.54,0,0,1,.54-.54h.57" transform="translate(-39.77 -29.49)"/><path class="cls-2" d="M141.34,117.36h-.47a.51.51,0,0,1-.52-.51V102.18a.51.51,0,0,1,.52-.51h.47" transform="translate(-39.77 -29.49)"/><rect class="cls-2" x="101.66" y="5.27" width="110.21" height="223.98" rx="11.4"/><rect class="cls-1" x="145.49" y="12.92" width="15.39" height="3.13" rx="0.81"/><circle class="cls-1" cx="164.98" cy="14.48" r="1.77"/><rect class="cls-2" x="146.13" y="11.96" width="15.39" height="3.13" rx="0.81"/><circle class="cls-2" cx="165.62" cy="13.52" r="1.77"/><path class="cls-2" d="M244.84,49.35V244.16a8.76,8.76,0,0,1-8.76,8.75H157a8.75,8.75,0,0,1-8.75-8.75V49.35A8.75,8.75,0,0,1,157,40.6h11.84v1.52a7.2,7.2,0,0,0,7.2,7.2h40.23a7.2,7.2,0,0,0,7.2-7.2h0V40.6h12.62a8.76,8.76,0,0,1,8.76,8.75Z" transform="translate(-39.77 -29.49)"/><rect class="cls-2" x="111.23" y="29.72" width="9.9" height="1.28"/><rect class="cls-2" x="111.23" y="31.96" width="9.9" height="1.28"/><rect class="cls-2" x="111.23" y="34.19" width="9.9" height="1.28"/><path class="cls-2" d="M240.31,62.41H240l-.11-.09a2.44,2.44,0,0,0,.57-1.57,2.38,2.38,0,1,0-2.37,2.39,2.42,2.42,0,0,0,1.56-.57l.11.09V63l1.83,1.84.55-.55Zm-2.2,0a1.66,1.66,0,0,1,0-3.31,1.65,1.65,0,0,1,1.66,1.65h0a1.65,1.65,0,0,1-1.63,1.66Z" transform="translate(-39.77 -29.49)"/><path class="cls-1" d="M293.93,83.8A12.46,12.46,0,0,1,306.36,72a10.51,10.51,0,0,1,1.12.06,16.51,16.51,0,0,1,28.56,0c.32,0,.63,0,.95,0A12.46,12.46,0,0,1,349.41,83.8" transform="translate(-39.77 -29.49)"/><path class="cls-2" d="M296.52,82.85A12.45,12.45,0,0,1,309,71.06c.37,0,.75,0,1.12,0a16.53,16.53,0,0,1,28.57,0c.31,0,.62,0,.94,0A12.44,12.44,0,0,1,352,82.85" transform="translate(-39.77 -29.49)"/><path class="cls-1" d="M260.72,154.38a12.44,12.44,0,0,1,12.42-11.79c.38,0,.75,0,1.12,0a16.52,16.52,0,0,1,28.57,0c.31,0,.63,0,.95,0a12.44,12.44,0,0,1,12.42,11.79" transform="translate(-39.77 -29.49)"/><path class="cls-2" d="M263.31,153.42a12.45,12.45,0,0,1,12.42-11.79,10.23,10.23,0,0,1,1.12.06,16.52,16.52,0,0,1,28.57,0c.31,0,.63,0,.95,0a12.45,12.45,0,0,1,12.42,11.79" transform="translate(-39.77 -29.49)"/><path class="cls-1" d="M52.82,50.91A12.45,12.45,0,0,1,65.25,39.12c.37,0,.75,0,1.12.05a16.52,16.52,0,0,1,28.56,0c.32,0,.63,0,.95,0A12.44,12.44,0,0,1,108.3,50.91" transform="translate(-39.77 -29.49)"/><path class="cls-2" d="M55.41,50A12.45,12.45,0,0,1,67.84,38.16a10.51,10.51,0,0,1,1.12.06,16.51,16.51,0,0,1,28.56,0c.32,0,.63,0,1,0A12.44,12.44,0,0,1,110.89,50" transform="translate(-39.77 -29.49)"/><rect class="cls-3" x="111.7" y="62.3" width="76.01" height="42.15" rx="4.01"/><rect class="cls-2" x="115.86" y="54.31" width="76.01" height="42.15" rx="4.01"/><path class="cls-4" d="M181.65,114.31l6.7,6.91a1.52,1.52,0,0,0,1.12.45h0a1.51,1.51,0,0,0,1.12-.45l6.71-6.91a1.49,1.49,0,0,0,.07-2.09l-.07-.07a1.64,1.64,0,0,0-2.26,0l-4,4.15V105.6a1.6,1.6,0,0,0-3.2,0v10.7l-4-4.15a1.64,1.64,0,0,0-2.26,0,1.47,1.47,0,0,0-.07,2.09.23.23,0,0,0,.07.07Z" transform="translate(-39.77 -29.49)"/><rect class="cls-3" x="120.01" y="134.47" width="76.01" height="42.15" rx="4.01"/><rect class="cls-2" x="115.86" y="126.49" width="76.01" height="42.15" rx="4.01"/><path class="cls-4" d="M205.62,186.48a1.47,1.47,0,0,0,.07-2.09.46.46,0,0,1-.07-.07,1.66,1.66,0,0,0-2.26,0l-4,4.16V177.77a1.61,1.61,0,0,0-3.21,0v10.71l-4-4.16a1.66,1.66,0,0,0-2.26,0,1.47,1.47,0,0,0-.07,2.09l.07.07,6.7,6.91a1.55,1.55,0,0,0,1.13.45h0a1.54,1.54,0,0,0,1.12-.45l6.7-6.91Z" transform="translate(-39.77 -29.49)"/><path class="cls-5" d="M109.27,274.17h0l-.27.15Z" transform="translate(-39.77 -29.49)"/><path class="cls-6" d="M71.18,240.71c-2.39,6.88.4,18.07,1.7,23.06a69.61,69.61,0,0,1,1.7,11,23.06,23.06,0,0,0,8.78-.2l-2.09-10.28c1.49-6.09,0-22.37,0-22.37A38.82,38.82,0,0,0,85,226c.29-9.43,2.62-12.48,2.69-12.58h0c4.79,2.5,10.88,29.25,10.88,29.25-.5,6.49.1,16.48,2.09,21.87a27.1,27.1,0,0,1,1.5,10.68,3.29,3.29,0,0,0,2.72.52c2.85-.46,6.27-2.92,6.27-2.92s-1.1-29.15-1.9-30.25,0-7.38,0-7.38L107.92,225s.2-17.27-1.7-20.26c-1.63-2.59-2-7.14-2.08-8.33,0-.19,0-.29,0-.29l-2.89-3.46s-27.95-2.1-30,0a6,6,0,0,0-1,3.16,72.07,72.07,0,0,0,.09,11.91s.83,5.49,2,11.08a24.26,24.26,0,0,1,0,10.18A30.39,30.39,0,0,1,71.18,240.71Z" transform="translate(-39.77 -29.49)"/><path class="cls-7" d="M72.93,284.48c1.25,1.65,8.59.95,9.83.44.77-.32.71-1.75.5-3.23-.13-.94-.32-1.9-.4-2.6a23.81,23.81,0,0,1,.6-5.44s-1.64,1.75-2,0A1.9,1.9,0,0,0,80,272.3a3.73,3.73,0,0,0-2.59.16c-1.3.56-3.46,1.76-3.07,3.38.55,2.29-1.4,5.55-1.4,5.55a2.57,2.57,0,0,0-.36.62A2.41,2.41,0,0,0,72.93,284.48Z" transform="translate(-39.77 -29.49)"/><path class="cls-8" d="M72.93,284.48c1.25,1.65,8.59.95,9.83.44.77-.32.71-1.75.5-3.23a8.51,8.51,0,0,1-4.36.47,11.72,11.72,0,0,0-1.57-.05,36,36,0,0,1-4.76-.1A2.41,2.41,0,0,0,72.93,284.48Z" transform="translate(-39.77 -29.49)"/><path class="cls-8" d="M98.54,242.7c-.5,6.49.1,16.48,2.09,21.87a27.1,27.1,0,0,1,1.5,10.68,3.29,3.29,0,0,0,2.72.52c-.6-4.21-3.17-22.35-4.82-36.69A60,60,0,0,0,89.4,211.53l-1.74,1.92C92.45,216,98.54,242.7,98.54,242.7Z" transform="translate(-39.77 -29.49)"/><path class="cls-9" d="M75.93,137.78l1.21,6,6,10,7.37-3.14s10-10.49,3.71-12a5.5,5.5,0,0,1-2.08-.93,4.29,4.29,0,0,1-1.63-3.61,11,11,0,0,1,1-4.3l-12.88-4a20.5,20.5,0,0,1,.92,5.22c.1,3.5-1.2,5.23-2.27,6.06A3.82,3.82,0,0,1,75.93,137.78Z" transform="translate(-39.77 -29.49)"/><path class="cls-8" d="M78.62,125.8a20.5,20.5,0,0,1,.92,5.22c.24.28.49.54.75.79a10.21,10.21,0,0,0,10.19,2.33,11,11,0,0,1,1-4.3Z" transform="translate(-39.77 -29.49)"/><path class="cls-9" d="M77.14,124.15a10.15,10.15,0,1,0,0-.07Z" transform="translate(-39.77 -29.49)"/><path class="cls-8" d="M75.93,137.78l1.21,6,6,10,7.37-3.14s10-10.49,3.71-12a5.5,5.5,0,0,1-2.08-.93c1.13,3.12-3.56,9.61-3.56,9.61-.54.81-1.79.3-1.79.3-3-.45-8.58-9.14-9.49-10.58A3.82,3.82,0,0,1,75.93,137.78Z" transform="translate(-39.77 -29.49)"/><path class="cls-8" d="M70.16,195.85c1.77.4,11.58,2.57,15.3,2,4.09-.6,12.05-1,12.05-1s5.07.27,6.63-.44c0-.19,0-.29,0-.29l-2.89-3.46s-27.95-2.1-30,0A6,6,0,0,0,70.16,195.85Z" transform="translate(-39.77 -29.49)"/><path class="cls-10" d="M88.55,147.66s5.27-7.29,3.29-10.14l8.89,3.65s5.36-.65,7.29,7.35a13.77,13.77,0,0,1,.33,4,12.12,12.12,0,0,0,1.47,6.07c2.19,4.4,1.7,14.48-2.8,15.48s-6.09.5-6.09.5.6,18.27,3.2,20.36-6.62,1.6-6.62,1.6-8,.4-12.05,1-15.57-2.1-15.57-2.1,1.69-7.69,2.29-12.58,2-15.31,2-15.31L64,153.8s-1.8-8.33,4.49-12a72.46,72.46,0,0,1,8.65-4.6s6.32,10.29,9.62,10.79C86.76,148,88,148.46,88.55,147.66Z" transform="translate(-39.77 -29.49)"/><path class="cls-8" d="M100.23,150.56s.1,3.29-.49,4.59-2.8,8.49-2.8,8.49h5s-2.69-2.9-2.49-4.3S100.23,150.56,100.23,150.56Z" transform="translate(-39.77 -29.49)"/><path class="cls-9" d="M85.46,175.42s11-2.7,12.05-5,3.86-7.43,3.86-7.43l-1.16-1.57-5.37,4.21s-6.39,5.09-9.38,5.59S85.46,175.42,85.46,175.42Z" transform="translate(-39.77 -29.49)"/><path class="cls-11" d="M85.46,175.42s11-2.7,12.05-5,3.86-7.43,3.86-7.43l-1.16-1.57-5.37,4.21s-6.39,5.09-9.38,5.59S85.46,175.42,85.46,175.42Z" transform="translate(-39.77 -29.49)"/><path class="cls-9" d="M75.93,162.44v6h1a28,28,0,0,1,13.57,3.51l1.8,1,.49.27,3.09-7L93,163.64H92.8a17.55,17.55,0,0,1-5.07-.11c-1.23-.42-2.76-1.75-6.4-.82-1.78.45-3.31,2.46-5,1.83Z" transform="translate(-39.77 -29.49)"/><path class="cls-8" d="M66.29,151.56l-2,2.24v5.44s1.69,17.17,7.08,19.07,15-1.1,15-1.1,2.48-6.59,1.32-7-10.28-2.8-10.28-2.8.13-10.07-1.86-13.07c0,0,1.29-9.38-3.2-9.58S66.29,151.56,66.29,151.56Z" transform="translate(-39.77 -29.49)"/><path class="cls-10" d="M66,151.56l-2,2.24v5.44s1.69,17.17,7.08,19.07,15-1.1,15-1.1,2.48-6.59,1.32-7-10.28-2.8-10.28-2.8.13-10.07-1.86-13.07c0,0,1.29-9.38-3.2-9.58S66,151.56,66,151.56Z" transform="translate(-39.77 -29.49)"/><path class="cls-8" d="M79.94,128.48a4,4,0,0,1,.22-1.94,1.52,1.52,0,0,1,1.59-.92c.85.2,1.22,1.31,2.06,1.58a1.64,1.64,0,0,0,1.81-.94,4.69,4.69,0,0,0,.35-2.17c0-.83,0-1.67,0-2.5a4.12,4.12,0,0,1,.58-2.6A4.59,4.59,0,0,1,90,117.75a2.91,2.91,0,0,1,2,.79,2.56,2.56,0,0,0,2.06.73A1.77,1.77,0,0,0,95.43,118s0,0,0,0a10.18,10.18,0,0,0-16.23,12.3,10.37,10.37,0,0,0,1.08,1.21A27.82,27.82,0,0,1,79.94,128.48Z" transform="translate(-39.77 -29.49)"/><path class="cls-10" d="M94,119a1.77,1.77,0,0,0,1.43-1.24c.09-.32.06-.67.16-1,.23-.78,1.07-1.19,1.63-1.79a4,4,0,0,0,.26-4.59,3.31,3.31,0,0,0-3.2-1.9c-.8.14-1.5.71-2.32.76a4.85,4.85,0,0,1-2.23-.72,8.39,8.39,0,0,0-5.52-.48,3.1,3.1,0,0,0-1.51.76q-.44.56-.81,1.14c-.94,1.19-2.6,1.42-4.08,1.69s-3.17.85-3.65,2.28a5.84,5.84,0,0,0,.17,3,.85.85,0,0,1,0,.61c-.23.39-.81.23-1.25.32C72.2,118,72,119,72,119.89s-.06,2-.08,3a4.06,4.06,0,0,0,.09,1.1,3.76,3.76,0,0,0,.85,1.37l3.3,4c1.46,1.76,3,3.8,2.72,6.07a1.41,1.41,0,0,0,1.74-1,4.53,4.53,0,0,0-.11-2.25,27.06,27.06,0,0,1-.52-3.9,3.89,3.89,0,0,1,.23-1.94,1.5,1.5,0,0,1,1.58-.92c.85.2,1.22,1.31,2.06,1.58a1.63,1.63,0,0,0,1.81-.94,4.69,4.69,0,0,0,.35-2.17v-2.5a4.19,4.19,0,0,1,.59-2.6A4.59,4.59,0,0,1,90,117.45a2.91,2.91,0,0,1,2,.79A2.56,2.56,0,0,0,94,119Z" transform="translate(-39.77 -29.49)"/><path class="cls-8" d="M91.7,150.31l-3.13,12.84S86.11,163.14,91.7,150.31Z" transform="translate(-39.77 -29.49)"/><path class="cls-8" d="M81,148.16s4.09,6.7,2.49,13.64l-.76,0S84.11,158.64,81,148.16Z" transform="translate(-39.77 -29.49)"/><path class="cls-8" d="M78.42,186.1s-5-1.66-5.39,2.19C73,188.29,74,185.65,78.42,186.1Z" transform="translate(-39.77 -29.49)"/><path class="cls-8" d="M93,163.93s1,7-.8,9.79a21.85,21.85,0,0,0,8.78,1.2l.6-11Z" transform="translate(-39.77 -29.49)"/><path class="cls-8" d="M92.26,172.93l.49.27,3.09-7L93,163.64H92.8C92.84,164,93.65,170,92.26,172.93Z" transform="translate(-39.77 -29.49)"/><path class="cls-10" d="M93,163.64s1,7-.8,9.78a21.85,21.85,0,0,0,8.78,1.2l3.5-11Z" transform="translate(-39.77 -29.49)"/><path class="cls-7" d="M100.94,282.79a2.26,2.26,0,0,0,1.94,2c2.71.41,9.24-.79,10.89,0,2.1,1,10.38.3,10.78-.7a1.53,1.53,0,0,0-.14-1.2,3.17,3.17,0,0,0-1.34-1.44,3.2,3.2,0,0,0-.6-.26c-1.56-.52-4.51-1.63-5.3-2.79,0,0-3.68-3.21-4.73-4.95a2.43,2.43,0,0,0-1.92-1.2c-.87,0-1.84.4-2.24,2.32,0,0-4.79,2.73-6.09.34,0,0-.2,5.91-1,6.92h0A1.34,1.34,0,0,0,100.94,282.79Z" transform="translate(-39.77 -29.49)"/><path class="cls-8" d="M100.94,282.79a2.26,2.26,0,0,0,1.94,2c2.71.41,9.24-.79,10.89,0,2.1,1,10.38.3,10.78-.7a1.53,1.53,0,0,0-.14-1.2,3.17,3.17,0,0,0-1.34-1.44c-1.35.9-4.35,1.78-10.95.75-6.29-1-9.4.29-10.92-.37h0A1.34,1.34,0,0,0,100.94,282.79Z" transform="translate(-39.77 -29.49)"/><g class="cls-12"><path d="M74.34,117v0a9.92,9.92,0,0,1-.31-2.27,16.09,16.09,0,0,0,.31,1.82A1,1,0,0,1,74.34,117Z" transform="translate(-39.77 -29.49)"/><path d="M80.17,126.33a3,3,0,0,0-.25,1.14,3.46,3.46,0,0,1,.25-1.59,1.5,1.5,0,0,1,1.58-.92c.85.2,1.22,1.32,2.06,1.58a1.62,1.62,0,0,0,1.81-.93,4.69,4.69,0,0,0,.35-2.17c0-.84,0-1.67,0-2.51a4.13,4.13,0,0,1,.58-2.6A4.63,4.63,0,0,1,90,117.09a2.91,2.91,0,0,1,2,.79,2.52,2.52,0,0,0,2.06.73,1.76,1.76,0,0,0,1.43-1.24c.09-.32.06-.66.16-1,.23-.79,1.07-1.2,1.63-1.79a3.24,3.24,0,0,0,.84-2.11,3.38,3.38,0,0,1-.84,2.56c-.56.59-1.4,1-1.63,1.79-.1.32-.07.66-.16,1A1.76,1.76,0,0,1,94,119.06a2.52,2.52,0,0,1-2.06-.73,2.91,2.91,0,0,0-2-.79,4.63,4.63,0,0,0-3.43,1.24,4.13,4.13,0,0,0-.58,2.6c0,.84,0,1.67,0,2.5a4.73,4.73,0,0,1-.35,2.18,1.62,1.62,0,0,1-1.81.93c-.84-.26-1.21-1.38-2.06-1.58A1.5,1.5,0,0,0,80.17,126.33Z" transform="translate(-39.77 -29.49)"/><path d="M72,123.58a3.76,3.76,0,0,0,.85,1.37l3.3,4c1.38,1.67,2.85,3.6,2.75,5.73-.1-1.95-1.46-3.73-2.75-5.28l-3.3-4A3.76,3.76,0,0,1,72,124a4.06,4.06,0,0,1-.09-1.1A3.51,3.51,0,0,0,72,123.58Z" transform="translate(-39.77 -29.49)"/><path d="M80.57,134a2.36,2.36,0,0,0,.1-.53,2.71,2.71,0,0,1-.1,1,1.41,1.41,0,0,1-1.74,1c0-.14,0-.29,0-.43A1.43,1.43,0,0,0,80.57,134Z" transform="translate(-39.77 -29.49)"/></g><path class="cls-8" d="M113.1,274.31s-1,1.84-4.82.22" transform="translate(-39.77 -29.49)"/><path class="cls-8" d="M81.77,274.44s-3.26,3.84-7.37,1.25" transform="translate(-39.77 -29.49)"/><path class="cls-8" d="M72.28,229s2.31,1.44,2.38,2.27-1.19-.6-1.19-.6Z" transform="translate(-39.77 -29.49)"/><path class="cls-8" d="M71.37,240.06a4.79,4.79,0,0,0,2.84,1.11c1.72.08,1.58,2.32.45,1.65A29.37,29.37,0,0,1,71.37,240.06Z" transform="translate(-39.77 -29.49)"/><path class="cls-8" d="M70.93,241.5s1.11,5.44,2,4.39" transform="translate(-39.77 -29.49)"/><path class="cls-13" d="M44.38,236a6.65,6.65,0,1,0,.88-12.75l.17,3.42-1.62-2.93A6.65,6.65,0,0,0,44.38,236Z" transform="translate(-39.77 -29.49)"/><path class="cls-2" d="M52.39,275.7c-.57-2.91,1.9-5.48,4.35-7.16s5.3-3.32,6.13-6.17c1.2-4.09-2.37-7.83-5.15-11.06a40.42,40.42,0,0,1-5.28-7.85,10.82,10.82,0,0,1-1.26-3.56,12.43,12.43,0,0,1,1-5.35q2.94-8.64,6.27-17.13" transform="translate(-39.77 -29.49)"/><path class="cls-2" d="M44.65,235.15a6.65,6.65,0,1,0,.89-12.75l.16,3.42-1.61-2.93a6.65,6.65,0,0,0,.56,12.26Z" transform="translate(-39.77 -29.49)"/><path class="cls-13" d="M51.57,216.24A6.67,6.67,0,0,1,56.36,212l.55,3.26,1-3.42a6.62,6.62,0,1,1-6.35,4.38Z" transform="translate(-39.77 -29.49)"/><path class="cls-2" d="M51.94,215.06a6.65,6.65,0,0,1,4.78-4.21l.55,3.25,1-3.41a6.65,6.65,0,1,1-6.75,6.54,6.72,6.72,0,0,1,.4-2.17Z" transform="translate(-39.77 -29.49)"/><path class="cls-13" d="M56.55,251.37a6.65,6.65,0,0,0,5.89-11.82l-.78,2.62-.56-3.29h0a6.65,6.65,0,1,0-4.55,12.49Z" transform="translate(-39.77 -29.49)"/><path class="cls-2" d="M56.87,250.18a6.64,6.64,0,0,0,5.88-11.82L62,241l-.55-3.3h0a6.64,6.64,0,0,0-4.54,12.49Z" transform="translate(-39.77 -29.49)"/><path class="cls-13" d="M49.64,262.41a6.64,6.64,0,1,0,1.28-5.2l3,4.45-4.05-2.36A6.55,6.55,0,0,0,49.64,262.41Z" transform="translate(-39.77 -29.49)"/><path class="cls-2" d="M49.91,261.53a6.64,6.64,0,1,0,1.28-5.2l3,4.45-4-2.36A6.55,6.55,0,0,0,49.91,261.53Z" transform="translate(-39.77 -29.49)"/><path class="cls-14" d="M43.16,279.64s5.86-2.29,7.63-3.55,9-2.76,9.46-.75,8.82,10,2.19,10.1-15.38,1.08-17.14,0S43.16,279.64,43.16,279.64Z" transform="translate(-39.77 -29.49)"/><path class="cls-15" d="M62.56,284.74c-6.62.05-15.38,1.08-17.15,0-1.34-.82-1.88-3.76-2-5.11h-.2s.37,4.73,2.14,5.81,10.52,0,17.14,0c1.92,0,2.58-.7,2.54-1.7C64.71,284.34,64,284.72,62.56,284.74Z" transform="translate(-39.77 -29.49)"/><line class="cls-2" x1="16.45" y1="255.68" x2="103.32" y2="255.68"/></svg>