<svg id="Layer_1" data-name="Layer 1" xmlns="http://www.w3.org/2000/svg" viewBox="0 0 221.06 247.48"><defs><style>.cls-1{fill:#a4c639;}.cls-2{fill:none;stroke:#a4c639;stroke-linecap:round;stroke-linejoin:round;stroke-width:3px;}.cls-3{fill:#fff;}</style></defs><title>what-1</title><path class="cls-1" d="M164.73,177.79a15.46,15.46,0,0,1,15.45,15.46v66.3a15.46,15.46,0,0,1-30.91,0v-66.3a15.46,15.46,0,0,1,15.46-15.46Z" transform="translate(-89.06 -27.52)"/><path class="cls-1" d="M129.44,98.08c-.05.59-.09,1.18-.09,1.78V200.31a19.29,19.29,0,0,0,19.16,19.5H250.66a19.3,19.3,0,0,0,19.17-19.5V99.86c0-.6,0-1.19-.07-1.78Z" transform="translate(-89.06 -27.52)"/><path class="cls-1" d="M234.45,177.79a15.46,15.46,0,0,1,15.46,15.46v66.3a15.46,15.46,0,0,1-30.91,0v-66.3a15.46,15.46,0,0,1,15.45-15.46ZM104.52,107A15.46,15.46,0,0,1,120,122.48v66.3a15.46,15.46,0,0,1-30.91,0v-66.3A15.46,15.46,0,0,1,104.52,107Zm190.14,0a15.46,15.46,0,0,1,15.46,15.46v66.3a15.46,15.46,0,0,1-30.91,0v-66.3A15.46,15.46,0,0,1,294.66,107ZM129.89,91.48c.43-30.85,27.36-56.15,61.93-59.48h15.53c34.57,3.33,61.5,28.63,61.93,59.48Z" transform="translate(-89.06 -27.52)"/><path class="cls-2" d="M135.27,29l16.3,28.24M263.91,29l-16.3,28.24" transform="translate(-89.06 -27.52)"/><path class="cls-3" d="M178.83,63.83a8,8,0,0,1-16,.05v-.05a8,8,0,0,1,16,0Zm59.68,0a8,8,0,0,1-16,.05v-.05a8,8,0,0,1,16,0Z" transform="translate(-89.06 -27.52)"/></svg>