<svg id="Layer_1" data-name="Layer 1" xmlns="http://www.w3.org/2000/svg" xmlns:xlink="http://www.w3.org/1999/xlink" viewBox="0 0 291 346.58"><defs><style>.cls-1{fill:#264de4;}.cls-2{fill:#2965f1;}.cls-3{fill:#ebebeb;}.cls-4{fill:#fff;}.cls-5{font-size:310px;fill:#9e1616;font-family:Montserrat-ExtraBold, Montserrat;font-weight:800;}</style></defs><title>why-7</title><g id="layer1"><g id="g3013"><polygon id="polygon2989" class="cls-1" points="65.3 139.29 59.35 205.94 32.61 213.35 5.94 205.95 0 139.29 65.3 139.29"/><polygon id="polygon2991" class="cls-2" points="54.26 201.69 59.34 144.74 32.65 144.74 32.65 207.69 54.26 201.69"/><polygon id="polygon2993" class="cls-3" points="13.62 169.47 14.36 177.64 32.65 177.64 32.65 169.47 13.62 169.47"/><polygon id="polygon2995" class="cls-3" points="32.65 152.92 32.62 152.92 12.15 152.92 12.89 161.09 32.65 161.09 32.65 152.92"/><polygon id="polygon2997" class="cls-3" points="32.65 199.2 32.65 190.7 32.62 190.71 23.51 188.25 22.93 181.73 18.5 181.73 14.72 181.73 15.87 194.56 32.61 199.21 32.65 199.2"/><path id="path2999" d="M87.37,121.57h9.9v4.14H91.51v4.14h5.76V134h-9.9Z" transform="translate(-72 -0.39)"/><path id="path3001" d="M99.25,121.57h9.9v3.6h-5.76v.72h5.76v8.28h-9.9v-3.78H105v-.72H99.25Z" transform="translate(-72 -0.39)"/><path id="path3003" d="M111.13,121.57H121v3.6h-5.76v.72H121v8.28h-9.9v-3.78h5.76v-.72h-5.76Z" transform="translate(-72 -0.39)"/><polygon id="polygon3005" class="cls-4" points="42.69 177.64 41.74 188.24 32.62 190.7 32.62 199.21 49.38 194.56 49.51 193.18 51.43 171.66 51.63 169.47 53.1 152.92 32.62 152.92 32.62 161.09 44.14 161.09 43.4 169.47 32.62 169.47 32.62 177.64 42.69 177.64"/></g></g><image width="500" height="500" transform="translate(168.22 124.62) scale(0.18)" xlink:href="../../../../../../../Downloads/js-logo.png"/><image width="512" height="512" transform="translate(33.36 58.61) scale(0.35)" xlink:href="../../../../../../../Downloads/PgcSR.png"/><text class="cls-5" transform="translate(20.06 263.5)">X</text></svg>