<svg id="Layer_1" data-name="Layer 1" xmlns="http://www.w3.org/2000/svg" viewBox="0 0 396 256.99"><defs><style>.cls-1{fill:#e6e6e6;}.cls-2,.cls-8{fill:#fff;}.cls-3{fill:#6c63ff;}.cls-4{fill:#3f3d56;}.cls-5{fill:#9f616a;}.cls-6{opacity:0.1;isolation:isolate;}.cls-7{fill:#2f2e41;}.cls-8{stroke:#08080a;stroke-miterlimit:10;}.cls-9{fill:#a4c639;}.cls-10{fill:none;stroke:#a4c639;stroke-linecap:round;stroke-linejoin:round;stroke-width:3px;}</style></defs><title>why-2</title><path class="cls-1" d="M303.39,288.54,324,257.88l-20.57,34,0,3.45c-1.5,0-3,0-4.47-.08l1-44.35,0-.34,0-.06.1-4.19-22.58-32.78,22.55,29.64.08.89.78-33.51-19.5-34L301,204.62l-.2-69.41v0l1.29,54.7,17.77-22.22-17.71,26.94.39,30,16.35-29.25L302.62,229l.21,16.67,23.79-40.75L302.9,251.48Z" transform="translate(0 -45.12)"/><path class="cls-1" d="M372.77,289.5l20.62-30.66-20.58,34,.05,3.45c-1.51,0-3,0-4.48-.07l1-44.35,0-.34,0-.07.09-4.19-22.57-32.78,22.55,29.65.08.88.77-33.5-19.5-34,19.56,28.1-.21-69.41v0l1.29,54.71,17.78-22.22-17.72,26.93.39,30,16.35-29.25L372,230l.22,16.66L396,205.89l-23.71,46.56Z" transform="translate(0 -45.12)"/><rect class="cls-1" x="40.83" width="123.37" height="166.88"/><rect class="cls-2" x="45.17" y="5.88" width="114.68" height="155.12"/><path class="cls-1" d="M144.78,78.2H60.62a2.57,2.57,0,1,1,0-5.14h84.16a2.57,2.57,0,1,1,0,5.14Z" transform="translate(0 -45.12)"/><path class="cls-1" d="M144.78,104.67H60.62a2.58,2.58,0,0,1,0-5.15h84.16a2.58,2.58,0,1,1,0,5.15Z" transform="translate(0 -45.12)"/><path class="cls-1" d="M144.78,131.13H60.62a2.58,2.58,0,0,1,0-5.15h84.16a2.58,2.58,0,0,1,0,5.15Z" transform="translate(0 -45.12)"/><path class="cls-1" d="M144.78,157.59H60.62a2.58,2.58,0,0,1,0-5.15h84.16a2.58,2.58,0,1,1,0,5.15Z" transform="translate(0 -45.12)"/><path class="cls-1" d="M144.78,184.05H60.62a2.57,2.57,0,1,1,0-5.14h84.16a2.57,2.57,0,1,1,0,5.14Z" transform="translate(0 -45.12)"/><path class="cls-3" d="M130.08,78.2H60.25a2.57,2.57,0,1,1,0-5.14h69.84a2.57,2.57,0,1,1,0,5.14Z" transform="translate(0 -45.12)"/><path class="cls-3" d="M108.39,104.67H60.25a2.58,2.58,0,0,1,0-5.15h48.14a2.58,2.58,0,0,1,0,5.15Z" transform="translate(0 -45.12)"/><path class="cls-3" d="M81.93,131.13H60.25a2.58,2.58,0,1,1,0-5.15H81.93a2.58,2.58,0,0,1,0,5.15Z" transform="translate(0 -45.12)"/><path class="cls-3" d="M136.69,157.59H60.25a2.58,2.58,0,0,1,0-5.15h76.44a2.58,2.58,0,1,1,0,5.15Z" transform="translate(0 -45.12)"/><path class="cls-3" d="M119.79,184.05H60.25a2.57,2.57,0,1,1,0-5.14h59.55a2.57,2.57,0,0,1,0,5.14Z" transform="translate(0 -45.12)"/><rect class="cls-4" y="250.17" width="394.07" height="0.89"/><path class="cls-5" d="M224.54,165.34s-2.79-20.46-7.43-14.88,0,13.95,0,13.95l3.71,4.65,3.72-2.79Z" transform="translate(0 -45.12)"/><path class="cls-3" d="M235.7,171.85s-9.3-10.23-11.16-8.37-7.43,2.79-6.51,6.51,20.46,15.8,20.46,15.8Z" transform="translate(0 -45.12)"/><path class="cls-6" d="M235.7,171.85s-9.3-10.23-11.16-8.37-7.43,2.79-6.51,6.51,20.46,15.8,20.46,15.8Z" transform="translate(0 -45.12)"/><path class="cls-5" d="M288.7,170.92v7.43s.93,16.74-4.65,15.81-2.79-14.88-2.79-14.88l.93-8.36Z" transform="translate(0 -45.12)"/><path class="cls-5" d="M285.91,224.84s8.37,13,11.16,13.95,17.66,9.3,19.52,17.67l13,16.73-6.51,8.37S293.35,250,285,247.16s-16.74-16.74-16.74-16.74Z" transform="translate(0 -45.12)"/><path class="cls-5" d="M219.89,203.46s-17.66,2.79-14.87,13.95,29.75,34.4,29.75,34.4l.93,5.58,10.23,1.86,4.65-4.65-.93-2.79s-11.16-10.23-12.09-13.95-11.16-18.6-15.81-19.52l6.51-3.72Z" transform="translate(0 -45.12)"/><path class="cls-7" d="M326.82,273.19s-3.72-5.58,1.86-4.65,9.3,1.86,9.3,5.58-4.65,29.75-10.23,27.89-.93-10.22-.93-10.22-2.79-7.44-4.65-8.37-1.86-5.58,0-5.58S327.75,275.05,326.82,273.19Z" transform="translate(0 -45.12)"/><path class="cls-7" d="M247.79,252.74s0-4.65,3.72,0,5.58,8.36,1.86,11.15-16.74,9.3-16.74,9.3-13.95,2.79-12.09-3.72c0,0,9.3-4.65,9.3-8.37s0-10.22,2.79-8.36S247.79,255.53,247.79,252.74Z" transform="translate(0 -45.12)"/><path class="cls-7" d="M265.45,183s13,1.86,12.09,20.46c0,0,16.74,16.73,12.09,22.31s-14.88,15.81-18.6,13-14.87-24.17-14.87-24.17-26,9.29-30.69,4.64-9.29-15.8-9.29-15.8l23.24-12.09Z" transform="translate(0 -45.12)"/><circle class="cls-5" cx="229.19" cy="73.73" r="11.16"/><path class="cls-5" d="M237.56,119.78s6.51,10.23,8.37,11.16-13,10.22-13,10.22,0-12.08-4.65-14.87Z" transform="translate(0 -45.12)"/><path class="cls-3" d="M238.49,130s14.88-4.65,17.67,2.79,9.29,21.38,8.36,30.68-2.79,7.44,0,10.23,4.65.93,3.72,4.64-1.86,3.72-.93,5.58-11.15,8.37-21.38,9.3l-10.23.93s0-16.73-1.86-20.45-5.58-11.16-5.58-14v-7.38a28.24,28.24,0,0,1,3.72-14h0S237.56,130,238.49,130Z" transform="translate(0 -45.12)"/><path class="cls-3" d="M249.65,133.73s34.4,2.79,38.12,12.08,5.58,27.9,1.86,27.9-8.37,1.86-9.3,0-4.65-20.46-5.58-20.46-28.82-2.79-28.82-2.79S233.84,135.59,249.65,133.73Z" transform="translate(0 -45.12)"/><path class="cls-7" d="M228.74,116.08s-3-5.14-6.66-.67-9.72-3.75-8.8-5.5,4.19.08,9.79-1.75,16.36-5.55,18.17,6.6-2.49,10.88-2.49,10.88-2-10.77-3.75-7.68l-1.78,3.09-1.55.38Z" transform="translate(0 -45.12)"/><circle class="cls-8" cx="228" cy="65.88" r="25"/><path class="cls-9" d="M221.65,115.39a2.16,2.16,0,0,1,2.16,2.17v9.28a2.16,2.16,0,0,1-4.32,0v-9.28a2.17,2.17,0,0,1,2.16-2.17Z" transform="translate(0 -45.12)"/><path class="cls-9" d="M216.71,104.24c0,.08,0,.16,0,.25v14.06a2.7,2.7,0,0,0,2.68,2.73h14.3a2.7,2.7,0,0,0,2.68-2.73V104.49a2,2,0,0,0,0-.25Z" transform="translate(0 -45.12)"/><path class="cls-9" d="M231.41,115.39a2.17,2.17,0,0,1,2.16,2.17v9.28a2.16,2.16,0,0,1-4.32,0v-9.28a2.17,2.17,0,0,1,2.16-2.17Zm-18.19-9.9a2.17,2.17,0,0,1,2.17,2.16v9.28a2.17,2.17,0,0,1-4.33,0v-9.28a2.16,2.16,0,0,1,2.16-2.16Zm26.62,0a2.16,2.16,0,0,1,2.16,2.16v9.28a2.17,2.17,0,0,1-4.33,0v-9.28a2.17,2.17,0,0,1,2.17-2.16Zm-23.06-2.18c.06-4.31,3.82-7.85,8.66-8.32h2.18c4.84.47,8.6,4,8.66,8.32Z" transform="translate(0 -45.12)"/><path class="cls-10" d="M217.53,94.57l2.28,4m15.72-4-2.28,4" transform="translate(0 -45.12)"/><path class="cls-2" d="M223.62,99.44a1.09,1.09,0,0,1-1.11,1.1,1.11,1.11,0,0,1-1.12-1.09h0a1.12,1.12,0,0,1,2.23,0Zm8.36,0a1.12,1.12,0,0,1-2.24,0h0a1.12,1.12,0,0,1,2.24,0Z" transform="translate(0 -45.12)"/></svg>