<svg id="Layer_1" data-name="Layer 1" xmlns="http://www.w3.org/2000/svg" viewBox="0 0 396.26 176.31"><defs><style>.cls-1,.cls-5{opacity:0.1;}.cls-2{fill:none;stroke:#535461;stroke-miterlimit:10;stroke-width:2px;}.cls-3,.cls-5{fill:#6c63ff;}.cls-4{opacity:0.25;}.cls-4,.cls-5{isolation:isolate;}.cls-6{fill:#535461;}.cls-7{fill:#eaeaf3;}.cls-8{fill:#fff;}</style></defs><title>why-3</title><g class="cls-1"><path class="cls-2" d="M95.77,252s6.86-16.93,19.69-23.21A27.62,27.62,0,0,0,128,216.59a45.76,45.76,0,0,0,3.15-7.91" transform="translate(-3.74 -121.59)"/><path class="cls-3" d="M139.24,204.67c-1.34,1.68-8.26,4.14-8.26,4.14s.84-7.31,2.17-9a3.9,3.9,0,0,1,6.09,4.85Z" transform="translate(-3.74 -121.59)"/><path class="cls-3" d="M136.87,218c-2,.69-9.18-1-9.18-1s4.66-5.68,6.7-6.36a3.9,3.9,0,0,1,2.48,7.37Z" transform="translate(-3.74 -121.59)"/><path class="cls-3" d="M124,233.72c-2.1-.44-7.41-5.51-7.41-5.51s6.89-2.54,9-2.11a3.9,3.9,0,0,1-1.58,7.62Z" transform="translate(-3.74 -121.59)"/><path class="cls-3" d="M111.57,243.43c-2.15-.07-8.24-4.18-8.24-4.18s6.37-3.66,8.51-3.59a3.9,3.9,0,1,1,.24,7.79A2.9,2.9,0,0,1,111.57,243.43Z" transform="translate(-3.74 -121.59)"/><path class="cls-3" d="M121,212.21c.27,2.13,4.92,7.81,4.92,7.81s3.07-6.67,2.79-8.81a3.9,3.9,0,0,0-7.71,1Z" transform="translate(-3.74 -121.59)"/><path class="cls-3" d="M106.65,223.75c.9,1.95,7,6,7,6s.93-7.28,0-9.23a3.9,3.9,0,0,0-7.28,2.8,3.68,3.68,0,0,0,.21.45Z" transform="translate(-3.74 -121.59)"/><path class="cls-3" d="M94.21,236.89c.56,2.07,5.93,7.08,5.93,7.08s2.14-7,1.58-9.09a3.9,3.9,0,0,0-7.51,2Z" transform="translate(-3.74 -121.59)"/><path class="cls-4" d="M139.24,204.67c-1.34,1.68-8.26,4.14-8.26,4.14s.84-7.31,2.17-9a3.9,3.9,0,0,1,6.09,4.85Z" transform="translate(-3.74 -121.59)"/><path class="cls-4" d="M136.87,218c-2,.69-9.18-1-9.18-1s4.66-5.68,6.7-6.36a3.9,3.9,0,0,1,2.48,7.37Z" transform="translate(-3.74 -121.59)"/><path class="cls-4" d="M124,233.72c-2.1-.44-7.41-5.51-7.41-5.51s6.89-2.54,9-2.11a3.9,3.9,0,0,1-1.58,7.62Z" transform="translate(-3.74 -121.59)"/><path class="cls-4" d="M111.57,243.43c-2.15-.07-8.24-4.18-8.24-4.18s6.37-3.66,8.51-3.59a3.9,3.9,0,1,1,.24,7.79A2.9,2.9,0,0,1,111.57,243.43Z" transform="translate(-3.74 -121.59)"/><path class="cls-4" d="M121,212.21c.27,2.13,4.92,7.81,4.92,7.81s3.07-6.67,2.79-8.81a3.9,3.9,0,0,0-7.71,1Z" transform="translate(-3.74 -121.59)"/><path class="cls-4" d="M106.65,223.75c.9,1.95,7,6,7,6s.93-7.28,0-9.23a3.9,3.9,0,0,0-7.28,2.8,3.68,3.68,0,0,0,.21.45Z" transform="translate(-3.74 -121.59)"/><path class="cls-4" d="M94.21,236.89c.56,2.07,5.93,7.08,5.93,7.08s2.14-7,1.58-9.09a3.9,3.9,0,0,0-7.51,2Z" transform="translate(-3.74 -121.59)"/></g><g class="cls-1"><path class="cls-2" d="M90.89,227.24s.87-18.25,10.89-28.43a27.66,27.66,0,0,0,7.79-15.67,45.69,45.69,0,0,0,.35-8.51" transform="translate(-3.74 -121.59)"/><path class="cls-3" d="M116.23,168.18c-.71,2-6.42,6.64-6.42,6.64s-1.63-7.16-.93-9.19a3.9,3.9,0,1,1,7.52,2A3.39,3.39,0,0,1,116.23,168.18Z" transform="translate(-3.74 -121.59)"/><path class="cls-3" d="M118.39,181.52c-1.71,1.32-9,2.08-9,2.08s2.52-6.9,4.21-8.22a3.9,3.9,0,1,1,5.18,5.83A4.08,4.08,0,0,1,118.39,181.52Z" transform="translate(-3.74 -121.59)"/><path class="cls-3" d="M111.46,200.64c-2.13.29-8.82-2.74-8.82-2.74s5.66-4.68,7.8-5a3.9,3.9,0,0,1,1.53,7.65,4.26,4.26,0,0,1-.5.06Z" transform="translate(-3.74 -121.59)"/><path class="cls-3" d="M103,213.93c-2,.64-9.16-1.22-9.16-1.22s4.79-5.57,6.84-6.21a3.89,3.89,0,0,1,2.32,7.42Z" transform="translate(-3.74 -121.59)"/><path class="cls-3" d="M101.54,181.33c1,1.92,7.24,5.73,7.24,5.73s.67-7.3-.29-9.23a3.9,3.9,0,0,0-6.95,3.5Z" transform="translate(-3.74 -121.59)"/><path class="cls-3" d="M91.8,197c1.49,1.54,8.62,3.31,8.62,3.31s-1.54-7.18-3-8.72A3.89,3.89,0,0,0,91.8,197Z" transform="translate(-3.74 -121.59)"/><path class="cls-3" d="M84.42,213.51c1.21,1.77,7.94,4.72,7.94,4.72s-.31-7.34-1.52-9.11a3.9,3.9,0,0,0-6.42,4.38Z" transform="translate(-3.74 -121.59)"/></g><path class="cls-5" d="M3.74,289.13c9.58,3.22,21.26,1.26,32.13,1.49a10.91,10.91,0,0,1,4.25.68,9.51,9.51,0,0,1,2.6,2.23c3.05,2.87,9.28,3.79,14.74,3.31s10.45-2.1,15.59-3.33c8.89-2.13,19.06-3.09,27.84-.78a7.09,7.09,0,0,0,2.51.38c1.93-.19,2.5-1.73,3.84-2.61,2.44-1.59,7.71-1.16,8.77-3.25.63-1.22-.81-2.49-2.38-3.32-6-3.21-14.57-3.74-22.42-3.24s-15.57,1.86-23.46,1.86c-9.82,0-19.32-2.09-29-2.95-6.75-.59-14.11-.52-20.43,1.22C11.44,282.72,9.93,287,3.74,289.13Z" transform="translate(-3.74 -121.59)"/><rect class="cls-6" x="17.08" y="13.48" width="1.82" height="25.72"/><rect class="cls-6" x="17.08" y="48.03" width="1.82" height="14.55"/><rect class="cls-6" x="17.24" width="76.73" height="166.61" rx="11.47"/><rect class="cls-3" x="17.24" y="7.79" width="76.73" height="151.75" rx="11.47"/><path class="cls-7" d="M54,125.24h11a.86.86,0,0,1,.86.85h0a.86.86,0,0,1-.86.85H54a.85.85,0,0,1-.85-.85h0A.85.85,0,0,1,54,125.24Z" transform="translate(-3.74 -121.59)"/><circle class="cls-7" cx="66.44" cy="4.63" r="1.22"/><path class="cls-8" d="M39.44,196.66v17.78a4.21,4.21,0,0,1-4.16,4.25h-.06a4.59,4.59,0,0,1-4.63-4.25V196.66a4.59,4.59,0,0,1,4.63-4.23A4.24,4.24,0,0,1,39.44,196.66Zm1.66,24.1a4.53,4.53,0,0,0,4.52,4.54H48.7l0,9.38c0,5.66,8.48,5.62,8.48,0V225.3h5.71v9.38c0,5.63,8.52,5.65,8.52,0V225.3h3.1a4.54,4.54,0,0,0,4.52-4.54h0V193.21h-38Zm38.07-29H40.93a17.25,17.25,0,0,1,9.76-15.26l-2.92-5.42c-.43-.75.66-1.22,1-.58l3,5.46a20.82,20.82,0,0,1,16.63,0l3-5.44a.59.59,0,1,1,1,.58l-2.93,5.4A17.3,17.3,0,0,1,79.17,191.73ZM53,183.2a1.58,1.58,0,1,0-1.61,1.61A1.61,1.61,0,0,0,53,183.2Zm17.41,0a1.59,1.59,0,1,0-1.56,1.62,1.59,1.59,0,0,0,1.56-1.62Zm14.55,9.23a4.21,4.21,0,0,0-4.22,4.2v17.8a4.23,4.23,0,0,0,4.22,4.25h0a4.57,4.57,0,0,0,4.63-4.25V196.65a4.56,4.56,0,0,0-4.63-4.22Z" transform="translate(-3.74 -121.59)"/><rect class="cls-6" x="37.58" y="117.3" width="15.83" height="0.73"/><rect class="cls-6" x="59.25" y="117.3" width="10.47" height="0.73"/><rect class="cls-6" x="23.69" y="117.3" width="10.47" height="0.73"/><rect class="cls-6" x="75.82" y="117.3" width="10.47" height="0.73"/><g class="cls-1"><path class="cls-2" d="M228.92,252.93s6.87-16.93,19.69-23.21a27.67,27.67,0,0,0,12.57-12.19,46.18,46.18,0,0,0,3.15-7.92" transform="translate(-3.74 -121.59)"/><path class="cls-3" d="M272.39,205.61c-1.33,1.68-8.25,4.14-8.25,4.14s.83-7.31,2.17-9a3.9,3.9,0,0,1,6.09,4.84Z" transform="translate(-3.74 -121.59)"/><path class="cls-3" d="M270,218.92c-2,.69-9.18-1-9.18-1s4.66-5.67,6.7-6.35a3.9,3.9,0,0,1,2.48,7.37Z" transform="translate(-3.74 -121.59)"/><path class="cls-3" d="M257.14,234.66c-2.1-.44-7.41-5.52-7.41-5.52s6.89-2.54,9-2.1a3.9,3.9,0,0,1-1.59,7.61Z" transform="translate(-3.74 -121.59)"/><path class="cls-3" d="M244.72,244.37c-2.15-.08-8.24-4.18-8.24-4.18s6.37-3.66,8.51-3.59a3.9,3.9,0,0,1,.25,7.79A4.43,4.43,0,0,1,244.72,244.37Z" transform="translate(-3.74 -121.59)"/><path class="cls-3" d="M254.19,213.15c.28,2.13,4.93,7.81,4.93,7.81s3.06-6.68,2.78-8.81a3.9,3.9,0,0,0-7.71,1Z" transform="translate(-3.74 -121.59)"/><path class="cls-3" d="M239.8,224.69c.9,1.95,7,6,7,6s.93-7.29,0-9.24a3.9,3.9,0,0,0-7.28,2.81l.21.45Z" transform="translate(-3.74 -121.59)"/><path class="cls-3" d="M227.36,237.83c.56,2.07,5.93,7.08,5.93,7.08s2.14-7,1.58-9.1a3.9,3.9,0,0,0-7.51,2Z" transform="translate(-3.74 -121.59)"/><path class="cls-4" d="M272.39,205.61c-1.33,1.68-8.25,4.14-8.25,4.14s.83-7.31,2.17-9a3.9,3.9,0,0,1,6.09,4.84Z" transform="translate(-3.74 -121.59)"/><path class="cls-4" d="M270,218.92c-2,.69-9.18-1-9.18-1s4.66-5.67,6.7-6.35a3.9,3.9,0,0,1,2.48,7.37Z" transform="translate(-3.74 -121.59)"/><path class="cls-4" d="M257.14,234.66c-2.1-.44-7.41-5.52-7.41-5.52s6.89-2.54,9-2.1a3.9,3.9,0,0,1-1.59,7.61Z" transform="translate(-3.74 -121.59)"/><path class="cls-4" d="M244.72,244.37c-2.15-.08-8.24-4.18-8.24-4.18s6.37-3.66,8.51-3.59a3.9,3.9,0,0,1,.25,7.79A4.43,4.43,0,0,1,244.72,244.37Z" transform="translate(-3.74 -121.59)"/><path class="cls-4" d="M254.19,213.15c.28,2.13,4.93,7.81,4.93,7.81s3.06-6.68,2.78-8.81a3.9,3.9,0,0,0-7.71,1Z" transform="translate(-3.74 -121.59)"/><path class="cls-4" d="M239.8,224.69c.9,1.95,7,6,7,6s.93-7.29,0-9.24a3.9,3.9,0,0,0-7.28,2.81l.21.45Z" transform="translate(-3.74 -121.59)"/><path class="cls-4" d="M227.36,237.83c.56,2.07,5.93,7.08,5.93,7.08s2.14-7,1.58-9.1a3.9,3.9,0,0,0-7.51,2Z" transform="translate(-3.74 -121.59)"/></g><g class="cls-1"><path class="cls-2" d="M224.05,228.18s.86-18.25,10.88-28.43a27.67,27.67,0,0,0,7.8-15.67,46.56,46.56,0,0,0,.34-8.51" transform="translate(-3.74 -121.59)"/><path class="cls-3" d="M249.38,169.12c-.71,2-6.42,6.64-6.42,6.64s-1.63-7.16-.93-9.19a3.9,3.9,0,0,1,7.53,2A4.56,4.56,0,0,1,249.38,169.12Z" transform="translate(-3.74 -121.59)"/><path class="cls-3" d="M251.54,182.46c-1.7,1.32-9,2.08-9,2.08s2.52-6.9,4.22-8.22a3.9,3.9,0,0,1,5.18,5.83Z" transform="translate(-3.74 -121.59)"/><path class="cls-3" d="M244.61,201.58c-2.13.29-8.82-2.74-8.82-2.74s5.66-4.68,7.8-5a3.9,3.9,0,1,1,1.53,7.64,2.74,2.74,0,0,1-.5.07Z" transform="translate(-3.74 -121.59)"/><path class="cls-3" d="M236.11,214.86c-2.05.64-9.15-1.21-9.15-1.21s4.78-5.58,6.83-6.22a3.9,3.9,0,0,1,2.32,7.43Z" transform="translate(-3.74 -121.59)"/><path class="cls-3" d="M234.69,182.27c1,1.91,7.24,5.73,7.24,5.73s.68-7.31-.29-9.23a3.9,3.9,0,0,0-6.95,3.5Z" transform="translate(-3.74 -121.59)"/><path class="cls-3" d="M225,197.93c1.49,1.54,8.62,3.3,8.62,3.3s-1.54-7.17-3-8.72a3.9,3.9,0,0,0-5.58,5.42Z" transform="translate(-3.74 -121.59)"/><path class="cls-3" d="M217.57,214.45c1.22,1.77,7.94,4.71,7.94,4.71s-.31-7.33-1.52-9.11a3.9,3.9,0,0,0-6.42,4.39Z" transform="translate(-3.74 -121.59)"/></g><path class="cls-5" d="M136.89,290.07c9.58,3.22,21.26,1.26,32.13,1.49a10.91,10.91,0,0,1,4.25.68,9.36,9.36,0,0,1,2.6,2.23c3,2.87,9.29,3.79,14.74,3.3s10.45-2.1,15.59-3.32c8.89-2.13,19.06-3.09,27.84-.78a7.08,7.08,0,0,0,2.51.37c1.93-.19,2.5-1.72,3.84-2.6,2.44-1.59,7.71-1.16,8.77-3.25.63-1.22-.81-2.49-2.38-3.33-6-3.2-14.57-3.73-22.42-3.24s-15.56,1.86-23.45,1.87c-9.83,0-19.33-2.09-29.06-2.95-6.74-.6-14.1-.52-20.42,1.22C144.59,283.66,143.08,287.91,136.89,290.07Z" transform="translate(-3.74 -121.59)"/><rect class="cls-6" x="149.17" y="24.56" width="1.71" height="24.11"/><rect class="cls-6" x="149.17" y="56.96" width="1.71" height="13.64"/><rect class="cls-6" x="150.39" y="0.94" width="76.73" height="166.61" rx="11.47"/><rect class="cls-3" x="150.39" y="8.73" width="76.73" height="151.75" rx="11.47"/><path class="cls-7" d="M187.13,126.18h11a.85.85,0,0,1,.85.85h0a.85.85,0,0,1-.85.85h-11a.85.85,0,0,1-.85-.85h0A.85.85,0,0,1,187.13,126.18Z" transform="translate(-3.74 -121.59)"/><circle class="cls-7" cx="199.59" cy="5.57" r="1.22"/><path class="cls-8" d="M178.18,153.07v12.05a2.84,2.84,0,0,1-2.82,2.88h0a3.11,3.11,0,0,1-3.14-2.88V153.07a3.11,3.11,0,0,1,3.14-2.86A2.86,2.86,0,0,1,178.18,153.07Zm1.13,16.33a3.06,3.06,0,0,0,3.06,3.08h2.09l0,6.36c0,3.84,5.74,3.81,5.74,0v-6.35h3.87v6.35c0,3.82,5.78,3.83,5.78,0v-6.35H202a3.07,3.07,0,0,0,3.06-3.08h0V150.73H179.31Zm25.8-19.67H179.19a11.69,11.69,0,0,1,6.62-10.35l-2-3.67c-.3-.51.44-.82.69-.39l2,3.7a14.07,14.07,0,0,1,11.27,0l2-3.69a.4.4,0,1,1,.69.39l-2,3.66A11.73,11.73,0,0,1,205.11,149.73ZM187.35,144a1.07,1.07,0,1,0-1.09,1.09,1.09,1.09,0,0,0,1.09-1.09Zm11.8,0a1.08,1.08,0,1,0-1.06,1.09,1.09,1.09,0,0,0,1.06-1.09ZM209,150.2a2.86,2.86,0,0,0-2.86,2.85h0v12.06A2.88,2.88,0,0,0,209,168h0a3.1,3.1,0,0,0,3.14-2.88V153.06a3.08,3.08,0,0,0-3.14-2.85Z" transform="translate(-3.74 -121.59)"/><rect class="cls-6" x="171.67" y="65.72" width="15.83" height="0.73"/><rect class="cls-6" x="193.34" y="65.72" width="10.47" height="0.73"/><rect class="cls-6" x="157.78" y="65.72" width="10.47" height="0.73"/><rect class="cls-6" x="209.91" y="65.72" width="10.47" height="0.73"/><rect class="cls-6" x="157.78" y="75.14" width="62.83" height="2.81"/><rect class="cls-6" x="157.78" y="86.39" width="62.83" height="2.81"/><rect class="cls-6" x="157.78" y="92.02" width="62.83" height="2.81"/><rect class="cls-6" x="157.78" y="80.76" width="62.83" height="2.81"/><rect class="cls-6" x="157.78" y="96.7" width="62.83" height="2.81"/><rect class="cls-6" x="157.78" y="107.96" width="62.83" height="2.81"/><rect class="cls-6" x="157.78" y="113.58" width="62.83" height="2.81"/><rect class="cls-6" x="157.78" y="102.33" width="62.83" height="2.81"/><rect class="cls-6" x="157.78" y="118.27" width="62.83" height="2.81"/><rect class="cls-6" x="157.78" y="122.96" width="62.83" height="2.81"/><rect class="cls-6" x="157.78" y="134.21" width="62.83" height="2.81"/><rect class="cls-6" x="157.78" y="139.84" width="62.83" height="2.81"/><rect class="cls-6" x="157.78" y="128.59" width="62.83" height="2.81"/><g class="cls-1"><path class="cls-2" d="M355.82,252.93s6.87-16.93,19.69-23.21a27.67,27.67,0,0,0,12.57-12.19,46.18,46.18,0,0,0,3.15-7.92" transform="translate(-3.74 -121.59)"/><path class="cls-3" d="M399.29,205.61c-1.33,1.68-8.25,4.14-8.25,4.14s.83-7.31,2.17-9a3.89,3.89,0,0,1,6.08,4.84Z" transform="translate(-3.74 -121.59)"/><path class="cls-3" d="M396.92,218.92c-2,.69-9.18-1-9.18-1s4.66-5.67,6.7-6.35a3.9,3.9,0,0,1,2.48,7.37Z" transform="translate(-3.74 -121.59)"/><path class="cls-3" d="M384,234.66c-2.1-.44-7.41-5.52-7.41-5.52s6.89-2.54,9-2.1a3.9,3.9,0,0,1-1.59,7.61Z" transform="translate(-3.74 -121.59)"/><path class="cls-3" d="M371.62,244.37c-2.15-.08-8.24-4.18-8.24-4.18s6.37-3.66,8.51-3.59a3.9,3.9,0,0,1,.25,7.79A4.43,4.43,0,0,1,371.62,244.37Z" transform="translate(-3.74 -121.59)"/><path class="cls-3" d="M381.09,213.15c.28,2.13,4.93,7.81,4.93,7.81s3.06-6.68,2.78-8.81a3.9,3.9,0,0,0-7.71,1Z" transform="translate(-3.74 -121.59)"/><path class="cls-3" d="M366.7,224.69c.9,1.95,7,6,7,6s.93-7.29,0-9.24a3.9,3.9,0,0,0-7.28,2.81,4.54,4.54,0,0,0,.21.45Z" transform="translate(-3.74 -121.59)"/><path class="cls-3" d="M354.26,237.83c.56,2.07,5.93,7.08,5.93,7.08s2.14-7,1.58-9.1a3.9,3.9,0,0,0-7.51,2Z" transform="translate(-3.74 -121.59)"/><path class="cls-4" d="M399.29,205.61c-1.33,1.68-8.25,4.14-8.25,4.14s.83-7.31,2.17-9a3.89,3.89,0,0,1,6.08,4.84Z" transform="translate(-3.74 -121.59)"/><path class="cls-4" d="M396.92,218.92c-2,.69-9.18-1-9.18-1s4.66-5.67,6.7-6.35a3.9,3.9,0,0,1,2.48,7.37Z" transform="translate(-3.74 -121.59)"/><path class="cls-4" d="M384,234.66c-2.1-.44-7.41-5.52-7.41-5.52s6.89-2.54,9-2.1a3.9,3.9,0,0,1-1.59,7.61Z" transform="translate(-3.74 -121.59)"/><path class="cls-4" d="M371.62,244.37c-2.15-.08-8.24-4.18-8.24-4.18s6.37-3.66,8.51-3.59a3.9,3.9,0,0,1,.25,7.79A4.43,4.43,0,0,1,371.62,244.37Z" transform="translate(-3.74 -121.59)"/><path class="cls-4" d="M381.09,213.15c.28,2.13,4.93,7.81,4.93,7.81s3.06-6.68,2.78-8.81a3.9,3.9,0,0,0-7.71,1Z" transform="translate(-3.74 -121.59)"/><path class="cls-4" d="M366.7,224.69c.9,1.95,7,6,7,6s.93-7.29,0-9.24a3.9,3.9,0,0,0-7.28,2.81,4.54,4.54,0,0,0,.21.45Z" transform="translate(-3.74 -121.59)"/><path class="cls-4" d="M354.26,237.83c.56,2.07,5.93,7.08,5.93,7.08s2.14-7,1.58-9.1a3.9,3.9,0,0,0-7.51,2Z" transform="translate(-3.74 -121.59)"/></g><g class="cls-1"><path class="cls-2" d="M351,228.18s.86-18.25,10.88-28.43a27.6,27.6,0,0,0,7.79-15.67,45.69,45.69,0,0,0,.35-8.51" transform="translate(-3.74 -121.59)"/><path class="cls-3" d="M376.28,169.12c-.71,2-6.42,6.64-6.42,6.64s-1.63-7.16-.93-9.19a3.89,3.89,0,1,1,7.52,2A3.16,3.16,0,0,1,376.28,169.12Z" transform="translate(-3.74 -121.59)"/><path class="cls-3" d="M378.44,182.46c-1.71,1.32-9,2.08-9,2.08s2.52-6.9,4.22-8.22a3.9,3.9,0,0,1,5.18,5.83Z" transform="translate(-3.74 -121.59)"/><path class="cls-3" d="M371.51,201.58c-2.13.29-8.82-2.74-8.82-2.74s5.66-4.68,7.8-5a3.9,3.9,0,0,1,1.53,7.64,2.74,2.74,0,0,1-.5.07Z" transform="translate(-3.74 -121.59)"/><path class="cls-3" d="M363,214.86c-2.05.64-9.15-1.21-9.15-1.21s4.78-5.58,6.83-6.22a3.9,3.9,0,0,1,2.32,7.43Z" transform="translate(-3.74 -121.59)"/><path class="cls-3" d="M361.59,182.27c1,1.91,7.24,5.73,7.24,5.73s.68-7.31-.29-9.23a3.9,3.9,0,0,0-7,3.5Z" transform="translate(-3.74 -121.59)"/><path class="cls-3" d="M351.85,197.93c1.49,1.54,8.62,3.3,8.62,3.3s-1.54-7.17-3-8.72a3.9,3.9,0,0,0-5.58,5.42Z" transform="translate(-3.74 -121.59)"/><path class="cls-3" d="M344.47,214.45c1.22,1.77,7.94,4.71,7.94,4.71s-.31-7.33-1.52-9.11a3.9,3.9,0,0,0-6.42,4.39Z" transform="translate(-3.74 -121.59)"/></g><path class="cls-5" d="M263.79,290.07c9.58,3.22,21.26,1.26,32.13,1.49a10.91,10.91,0,0,1,4.25.68,9.51,9.51,0,0,1,2.6,2.23c3.05,2.87,9.29,3.79,14.74,3.3s10.45-2.1,15.59-3.32c8.89-2.13,19.06-3.09,27.84-.78a7.08,7.08,0,0,0,2.51.37c1.93-.19,2.5-1.72,3.84-2.6,2.44-1.59,7.71-1.16,8.77-3.25.63-1.22-.81-2.49-2.38-3.33-6-3.2-14.57-3.73-22.42-3.24s-15.57,1.86-23.45,1.87c-9.83,0-19.33-2.09-29.06-2.95-6.75-.6-14.1-.52-20.42,1.22C271.49,283.66,270,287.91,263.79,290.07Z" transform="translate(-3.74 -121.59)"/><rect class="cls-6" x="277.29" y="0.94" width="76.73" height="166.61" rx="11.47"/><rect class="cls-3" x="277.29" y="8.73" width="76.73" height="151.75" rx="11.47"/><path class="cls-7" d="M314,126.18h11a.85.85,0,0,1,.86.85h0a.85.85,0,0,1-.86.85H314a.85.85,0,0,1-.85-.85h0A.85.85,0,0,1,314,126.18Z" transform="translate(-3.74 -121.59)"/><circle class="cls-7" cx="326.49" cy="5.57" r="1.22"/><path class="cls-8" d="M305.08,186.07v12.05a2.84,2.84,0,0,1-2.82,2.88h0a3.11,3.11,0,0,1-3.14-2.88V186.07a3.11,3.11,0,0,1,3.14-2.86A2.87,2.87,0,0,1,305.08,186.07Zm1.13,16.33a3.06,3.06,0,0,0,3.06,3.08h2.09l0,6.36c0,3.84,5.74,3.81,5.74,0v-6.35H321v6.35c0,3.82,5.78,3.83,5.78,0v-6.35h2.1a3.07,3.07,0,0,0,3.06-3.08h0V183.73H306.21ZM332,182.73H306.09a11.69,11.69,0,0,1,6.62-10.35l-2-3.67c-.29-.51.45-.82.7-.39l2,3.7a14.07,14.07,0,0,1,11.27,0l2-3.69a.4.4,0,1,1,.69.39l-2,3.66A11.73,11.73,0,0,1,332,182.73ZM314.25,177a1.07,1.07,0,1,0-1.09,1.09,1.09,1.09,0,0,0,1.09-1.09Zm11.8,0A1.08,1.08,0,1,0,325,178a1.09,1.09,0,0,0,1.06-1.09Zm9.86,6.25a2.86,2.86,0,0,0-2.86,2.85h0v12.06a2.88,2.88,0,0,0,2.86,2.88h0a3.1,3.1,0,0,0,3.14-2.88V186.06a3.09,3.09,0,0,0-3.14-2.85Z" transform="translate(-3.74 -121.59)"/><rect class="cls-6" x="300.57" y="17.72" width="15.83" height="0.73"/><rect class="cls-6" x="322.24" y="17.72" width="10.47" height="0.73"/><rect class="cls-6" x="281.68" y="17.72" width="10.47" height="0.73"/><rect class="cls-6" x="338.81" y="17.72" width="10.47" height="0.73"/><rect class="cls-6" x="284.68" y="107.96" width="62.83" height="2.81"/><rect class="cls-6" x="284.68" y="113.58" width="62.83" height="2.81"/><rect class="cls-6" x="284.68" y="118.27" width="62.83" height="2.81"/><rect class="cls-6" x="284.68" y="122.96" width="62.83" height="2.81"/><rect class="cls-6" x="284.68" y="134.21" width="62.83" height="2.81"/><rect class="cls-6" x="284.68" y="139.84" width="62.83" height="2.81"/><rect class="cls-6" x="284.68" y="128.59" width="62.83" height="2.81"/></svg>