<svg id="Layer_1" data-name="Layer 1" xmlns="http://www.w3.org/2000/svg" xmlns:xlink="http://www.w3.org/1999/xlink" viewBox="0 0 372 289.26"><defs><style>.cls-1{fill:#f2f2f2;}.cls-2{fill:#2f2e41;}.cls-3{fill:#3f3d56;}.cls-4{fill:#fbc661;}.cls-5{fill:#fbb3b2;}.cls-6{opacity:0.05;}.cls-6,.cls-7{isolation:isolate;}.cls-7{opacity:0.1;}.cls-8{fill:#6c63ff;}.cls-9{fill:#eeeff3;}.cls-10{fill:#a0616a;}.cls-11{fill:#36344a;}.cls-12,.cls-13,.cls-16{fill:#fff;}.cls-12{stroke:#030307;}.cls-12,.cls-13{stroke-miterlimit:10;}.cls-13{stroke:#08080a;}.cls-14{fill:#a4c639;}.cls-15{fill:none;stroke:#a4c639;stroke-linecap:round;stroke-linejoin:round;stroke-width:3px;}</style></defs><title>why-1</title><path class="cls-1" d="M354.13,247.22c-3.5-3.72-11.59-6.9-22.43-9v-48h-.49v-.49h-8.95v.49H308.2c1.26-7.25,5.46-32.54,4.62-42.7,0,0,10.92-29.79,2-54.62,0,0,8.95,2,9.93-8,.81-8,10-25.73-.56-35.92-2.48-2.61-6.17-4.76-11.5-6.2l-2.58-7.23a19.36,19.36,0,0,0,2.73-10.23c0-5.34-1.88-10-4.7-12.66A7.93,7.93,0,0,0,302.39,10a7.38,7.38,0,0,0-4.48,1.6c.19.14.37.3.55.45-3.27,2.44-5.51,7.5-5.51,13.34a18.74,18.74,0,0,0,3.33,11.11l-1.34,8.76S267.13,38.31,279.05,85c0,0,3,8,7.95,8,0,0-3,35.75,2,48.66,0,0-2,31.78,2,38.73v9.93H266.14v49.18c-12.71,2.91-20.86,7.38-20.86,12.39,0,8.78,24.9,15.89,55.62,15.89s55.61-7.1,55.61-15.88A6.51,6.51,0,0,0,354.13,247.22Z" transform="translate(-17 -10)"/><path class="cls-1" d="M158.41,252.43C155.16,249,147.63,246,137.53,244V199.43h-.46V199h-8.32v.46H115.67c1.17-6.75,5.08-30.29,4.3-39.74,0,0,10.16-27.73,1.84-50.83,0,0,8.32,1.84,9.25-7.39.74-7.47,9.31-24-.53-33.44-2.31-2.41-5.74-4.42-10.69-5.75l-2.41-6.74A18,18,0,0,0,120,46c0-5-1.75-9.33-4.37-11.77a7.34,7.34,0,0,0-5.34-2.55,6.86,6.86,0,0,0-4.16,1.49c.18.13.35.28.51.42-3,2.27-5.13,7-5.13,12.41a17.43,17.43,0,0,0,3.1,10.33l-1.25,8.14s-25.88-6.47-14.8,37c0,0,2.77,7.39,7.4,7.39,0,0-2.78,33.27,1.84,45.29,0,0-1.84,29.57,1.85,36v9.24H76.53v45.77c-11.83,2.71-19.41,6.88-19.41,11.54,0,8.16,23.18,14.79,51.76,14.79s51.75-6.62,51.75-14.79A6,6,0,0,0,158.41,252.43Z" transform="translate(-17 -10)"/><path class="cls-1" d="M234.55,250.1c-2.41-2.58-8-4.78-15.55-6.25V210.63h-.35v-.35h-6.19v.35h-9.74c.88-5,3.79-22.57,3.2-29.6,0,0,7.57-20.65,1.38-37.85,0,0,6.19,1.37,6.88-5.51.56-5.56,6.94-17.84-.39-24.9a16.77,16.77,0,0,0-8-4.29l-1.79-5a13.41,13.41,0,0,0,1.9-7.09c0-3.7-1.31-7-3.26-8.77a5.44,5.44,0,0,0-4-1.9,5.07,5.07,0,0,0-3.1,1.12,3.68,3.68,0,0,1,.38.31c-2.26,1.68-3.82,5.19-3.82,9.24a13,13,0,0,0,2.31,7.7l-.93,6.07s-19.27-4.82-11,27.53c0,0,2.07,5.5,5.51,5.5,0,0-2.06,24.78,1.38,33.73,0,0-1.38,22,1.37,26.84v6.88h-17.2v34.07c-8.81,2-14.46,5.12-14.46,8.6,0,6.09,17.26,11,38.55,11s38.54-4.94,38.54-11A4.49,4.49,0,0,0,234.55,250.1Z" transform="translate(-17 -10)"/><path class="cls-1" d="M375,255.74c-1.43-1.52-4.74-2.82-9.17-3.69V232.47h-.2v-.2h-3.65v.2h-5.74c.51-3,2.23-13.29,1.88-17.44,0,0,4.48-12.17.82-22.31a3.28,3.28,0,0,0,4.05-3.25c.35-3.27,4.09-10.51-.23-14.67a9.87,9.87,0,0,0-4.7-2.53l-1.05-3a7.87,7.87,0,0,0,1.11-4.18,7.12,7.12,0,0,0-1.91-5.16,3.22,3.22,0,0,0-2.35-1.12,3,3,0,0,0-1.82.66l.22.18a6.86,6.86,0,0,0-2.25,5.45,7.67,7.67,0,0,0,1.38,4.54l-.55,3.57s-11.36-2.84-6.49,16.23c0,0,1.22,3.24,3.24,3.24,0,0-1.21,14.61.82,19.88,0,0-.82,13,.81,15.83v4.06H339v20.08c-5.19,1.19-8.52,3-8.52,5.07,0,3.58,10.17,6.49,22.71,6.49s22.71-2.91,22.71-6.49A2.6,2.6,0,0,0,375,255.74Z" transform="translate(-17 -10)"/><path class="cls-1" d="M79,255.74c-1.43-1.52-4.73-2.82-9.17-3.69V232.47h-.2v-.2H66v.2H60.24c.52-3,2.23-13.29,1.89-17.44,0,0,4.47-12.17.81-22.31a3.28,3.28,0,0,0,4-3.25c.33-3.27,4.09-10.51-.23-14.67a10,10,0,0,0-4.69-2.53l-1.06-3a8,8,0,0,0,1.12-4.18A7.12,7.12,0,0,0,60.21,160a3.22,3.22,0,0,0-2.35-1.12,3,3,0,0,0-1.82.66l.22.18A6.86,6.86,0,0,0,54,165.14a7.71,7.71,0,0,0,1.36,4.53l-.55,3.58s-11.36-2.84-6.49,16.22c0,0,1.22,3.25,3.24,3.25,0,0-1.21,14.6.82,19.87,0,0-.82,13,.81,15.83v4.06H43.06v20.09c-5.19,1.18-8.52,3-8.52,5.06,0,3.59,10.17,6.49,22.71,6.49S80,261.22,80,257.63A2.57,2.57,0,0,0,79,255.74Z" transform="translate(-17 -10)"/><path class="cls-2" d="M17,257.22H389s-13.77,37.42-49,24.09-56.33,2.58-75.69,9.89-58.06,12.91-67.95,1.72-18.92-16.34-53.75-12S85,294.21,80.64,282.17,75.47,266.26,51,268.4,17,257.22,17,257.22Z" transform="translate(-17 -10)"/><path class="cls-3" d="M235.43,137.32c-4.18,7.1-4.82,15.65-6.22,23.77-2.21,12.57-6.54,24.7-8.72,37.28A132.63,132.63,0,0,1,218,211.53c-1.65,5.91-4.61,11.36-7.39,16.81-4.73,9.32-9,19-10.79,29.31-.55,3.21-.12,7.57,3.06,8.26.91.2,1.93,0,2.71.56a6.92,6.92,0,0,1,1.11,1.18c1.39,1.55,3.8,1.72,5.8,1.16a30.74,30.74,0,0,0,5.58-2.75c7.35-3.78,16.07-3.33,24.31-2.8,1.52.1,3.22.29,4.18,1.47a11.49,11.49,0,0,1,1,2.07,5.7,5.7,0,0,0,7.2,2.47c.95-.45,1.77-1.16,2.76-1.52,3-1.13,6.19,1.31,9.42,1.33,4.65,0,8.14-4.9,12.79-5.07,3.16-.11,6.06,2,9.22,2.06,2.38,0,4.56-1.19,6.63-2.36l14.11-8a58.46,58.46,0,0,0-13.67-13.65c-3.89-2.76-4.94-8.26-7.31-12.39a34.27,34.27,0,0,1-3.91-8.56c-.55-2.2-.66-4.5-1.21-6.7-.75-3-2.3-5.81-3.53-8.69-4.89-11.42-4.73-24.44-9.2-36-1.26-3.26-2.88-6.38-4-9.69-1.47-4.37-2.05-9-3.54-13.35s-4.13-8.63-8.34-10.51a17,17,0,0,0-5.75-1.25A30.34,30.34,0,0,0,235.43,137.32Z" transform="translate(-17 -10)"/><rect class="cls-4" x="217.16" y="69.45" width="19.63" height="26.17"/><path class="cls-3" d="M253.26,99.75a20.3,20.3,0,0,0-3,0c-2.48,0-3.19,3-5.66,3.21-3,.3-7.21-1.61-9.73.07a8.49,8.49,0,0,1-1.46.84c-2.06.91-4.58.58-6.47,1.81s-2.58,3.68-2.58,5.93a6,6,0,0,0,.34,2.38c.26.64.71,1.2,1,1.85.19.45.28.94.44,1.4a11.51,11.51,0,0,0,1.72,3l4.37,6.08c1.14,1.59.69,3.57.87,5.53.14,1.5.49,3,.49,4.5a5.58,5.58,0,0,1-1.54,4.12q3.87-.22,7.74-.71c2.12-.26,4.23-.57,6.36-.72a82.46,82.46,0,0,1,13.42.5,7.12,7.12,0,0,1-1.25-3.35c-.61-3.85-1-7.88.28-11.56a27.13,27.13,0,0,1,1.42-3.22l1.36-2.73c1.93-3.87,3.72-7.83,4.13-12.14a6.52,6.52,0,0,0-.38-3.27,5.36,5.36,0,0,0-3.27-2.72,11.52,11.52,0,0,0-4.33-.38A21.54,21.54,0,0,1,253.26,99.75Z" transform="translate(-17 -10)"/><path class="cls-5" d="M239.13,97.94a4.1,4.1,0,0,1,.45,2.54c-.46,1.68-2.78,2-3.79,3.45a.7.7,0,0,0-.15.72,1,1,0,0,0,.18.22c1.89,1.64,4.62,1.78,7.13,1.76,3.65,0,7.55-.35,10.44-2.56.81-.62,1.57-1.65,1.16-2.58-.32-.72-1.16-1-1.86-1.34a7.08,7.08,0,0,1-3.31-3.93,15,15,0,0,1-.8-5.16,1.51,1.51,0,0,0-.19-.86,1.39,1.39,0,0,0-1.11-.42,33.44,33.44,0,0,0-7.07.28c-.66.1-1.92.19-2.38.73s-.2,1.18-.11,1.77A26.31,26.31,0,0,0,239.13,97.94Z" transform="translate(-17 -10)"/><path class="cls-6" d="M239.13,97.94a4.1,4.1,0,0,1,.45,2.54c-.46,1.68-2.78,2-3.79,3.45a.7.7,0,0,0-.15.72,1,1,0,0,0,.18.22c1.89,1.64,4.62,1.78,7.13,1.76,3.65,0,7.55-.35,10.44-2.56.81-.62,1.57-1.65,1.16-2.58-.32-.72-1.16-1-1.86-1.34a7.08,7.08,0,0,1-3.31-3.93,15,15,0,0,1-.8-5.16,1.51,1.51,0,0,0-.19-.86,1.39,1.39,0,0,0-1.11-.42,33.44,33.44,0,0,0-7.07.28c-.66.1-1.92.19-2.38.73s-.2,1.18-.11,1.77A26.31,26.31,0,0,0,239.13,97.94Z" transform="translate(-17 -10)"/><circle class="cls-5" cx="226.58" cy="75.79" r="8.81"/><path class="cls-7" d="M252,267.76a12.06,12.06,0,0,0-2,1.11,5.67,5.67,0,0,0,5.26.41c.66-.31,1.26-.76,1.9-1.12C255.39,267.61,253.66,267.13,252,267.76Z" transform="translate(-17 -10)"/><path class="cls-7" d="M212.49,266.08c-1.49.76-2.91,1.69-4.45,2.33a6.38,6.38,0,0,0,4.88.41,32.15,32.15,0,0,0,5.58-2.76,31.69,31.69,0,0,1,13-3.09C224.94,262.75,218.29,263.1,212.49,266.08Z" transform="translate(-17 -10)"/><path class="cls-7" d="M296.49,242.08c-3.88-2.75-4.93-8.26-7.3-12.39a34.33,34.33,0,0,1-3.92-8.56c-.55-2.2-.66-4.49-1.2-6.7-.75-3-2.3-5.81-3.54-8.69-4.88-11.41-4.72-24.43-9.19-36-1.27-3.26-2.89-6.38-4-9.7-1.47-4.36-2.06-9-3.53-13.34s-4.13-8.64-8.34-10.51a16.66,16.66,0,0,0-5.76-1.25,30.66,30.66,0,0,0-5,.08,15.84,15.84,0,0,1,4.74,1.17c4.2,1.88,6.86,6.16,8.34,10.51s2.07,9,3.54,13.35c1.11,3.31,2.75,6.43,4,9.7,4.48,11.58,4.32,24.6,9.2,36,1.24,2.88,2.79,5.65,3.54,8.69.54,2.21.65,4.5,1.21,6.7a34.1,34.1,0,0,0,3.91,8.56c2.37,4.13,3.42,9.62,7.3,12.39a58.32,58.32,0,0,1,13.68,13.65l-14.11,8a24.85,24.85,0,0,1-3.7,1.81,10.58,10.58,0,0,0,3.1.55c2.37,0,4.56-1.2,6.63-2.36l14.11-8A58.87,58.87,0,0,0,296.49,242.08Z" transform="translate(-17 -10)"/><path class="cls-7" d="M274.19,264c-3.64.13-6.57,3.19-9.91,4.48a11.53,11.53,0,0,0,3.13.58c3.74,0,6.73-3.16,10.18-4.5A10.06,10.06,0,0,0,274.19,264Z" transform="translate(-17 -10)"/><path class="cls-8" d="M243,136.22v-6.5h-3.15a34.68,34.68,0,0,0,.62-5.74s1.47-4,.26-7.35a1.08,1.08,0,0,0,1.31-.79,1.24,1.24,0,0,0,0-.27c.13-1.34,2-4.68-1.6-5.61l-.37-1a2.7,2.7,0,0,0,.37-1.38c0-1.11-.6-2-1.34-2s-1.33.89-1.33,2a2.51,2.51,0,0,0,.44,1.5l-.18,1.19s-3.74-.94-2.13,5.34c0,0,.4,1.06,1.06,1.06,0,0-.4,4.82.27,6.54,0,0-.27,4.27.27,5.21v1.33h-3.34v6.62c-1.72.39-2.81,1-2.81,1.66,0,1.18,3.35,2.14,7.48,2.14s7.48-1,7.48-2.14C246.38,137.26,245.06,136.6,243,136.22Z" transform="translate(-17 -10)"/><path class="cls-7" d="M239.24,107.48a2.58,2.58,0,0,1-.37,1.38l.37,1c3.6.94,1.73,4.27,1.6,5.61a1.08,1.08,0,0,1-1.07,1.1,1.24,1.24,0,0,1-.27,0c1.21,3.34-.26,7.34-.26,7.34a34.68,34.68,0,0,1-.62,5.75h1.2a33.76,33.76,0,0,0,.62-5.75s1.47-4,.27-7.34a1.09,1.09,0,0,0,1.31-.8.82.82,0,0,0,0-.27c.14-1.34,2-4.67-1.6-5.61l-.36-1a2.66,2.66,0,0,0,.36-1.38c0-1.1-.59-2-1.33-2a.94.94,0,0,0-.6.22A2.29,2.29,0,0,1,239.24,107.48Z" transform="translate(-17 -10)"/><path class="cls-7" d="M243,136.15v-6.49h-1.2v6.49c2,.39,3.33,1,3.33,1.78,0,1.13-3,2-6.88,2.13h.6c4.13,0,7.48-.95,7.48-2.13C246.32,137.19,245,136.54,243,136.15Z" transform="translate(-17 -10)"/><path class="cls-4" d="M246.55,73.42c-2.76-.69-5.72-1.22-8.34-.16a12.08,12.08,0,0,0-3.28,2.15,8.22,8.22,0,0,0-2.23,2.72,11.23,11.23,0,0,0-.54,4.21,6.12,6.12,0,0,1-1.17,4,6.11,6.11,0,0,0-1.08,1.25,2.62,2.62,0,0,0,.22,2.24,9.09,9.09,0,0,1,.94,2.12,4.29,4.29,0,0,1-.78,3.06c-.58.91-1.34,1.69-1.94,2.59a3.21,3.21,0,0,0-.52,3.17c.34.64,1,1,1.41,1.66.17.3.26.65.44.94a3.23,3.23,0,0,0,2.51,1.1c1.5.15,3.18.2,4.35-.76a4.57,4.57,0,0,0,1.4-2.71c.2-1,.2-2.07.38-3.1a8.41,8.41,0,0,0,.29-2.22A8,8,0,0,0,237.5,93a7.53,7.53,0,0,1-.92-4,4.34,4.34,0,0,1,2.1-3.44c.87-.48,1.94-.6,2.68-1.26,1.16-1,1-2.86,1.2-4.41a2.19,2.19,0,0,1,.32-1,2.24,2.24,0,0,1,1.66-.69,6.5,6.5,0,0,1,4.18.83,5.43,5.43,0,0,1,2.17,3.33,9.49,9.49,0,0,1-.08,4c.05-.58.95-.74,1.36-.34a1.83,1.83,0,0,1,.32,1.65c-.49,2.41-2.67,4.13-3.4,6.47a5.86,5.86,0,0,0,1.26,5.61,1.62,1.62,0,0,0,.69.49,3.28,3.28,0,0,0,.83,0,4.73,4.73,0,0,1,2.88,1.47,5.3,5.3,0,0,0,2.84,1.57c1.11.08,2.31-.92,2-2a2,2,0,0,0-.56-.82A11,11,0,0,1,257,98.37c-.83-1.45-.33-3.27.19-4.86s1-3.42.19-4.87A19.47,19.47,0,0,1,256,86.71a3.62,3.62,0,0,1-.26-1.33c-.08-1.67.34-3.36,0-5a6.11,6.11,0,0,0-2.87-3.74,8,8,0,0,0-2.3-1c-.31-.08-.79-.07-1-.3s-.29-.65-.57-.91A5.71,5.71,0,0,0,246.55,73.42Z" transform="translate(-17 -10)"/><path class="cls-6" d="M252.17,84.15a.93.93,0,0,0-1.1-.09,11.27,11.27,0,0,1-.24,2.17.86.86,0,0,1,1.34-.21.83.83,0,0,1,.19.26c0-.16.09-.32.13-.48A1.81,1.81,0,0,0,252.17,84.15Z" transform="translate(-17 -10)"/><path class="cls-6" d="M255.65,83.53a2.93,2.93,0,0,0,0,.41,18,18,0,0,0,.07-2.84A21.94,21.94,0,0,0,255.65,83.53Z" transform="translate(-17 -10)"/><path class="cls-6" d="M250.83,86.23s0,.08,0,.12Z" transform="translate(-17 -10)"/><path class="cls-6" d="M256.57,95.6a15,15,0,0,1,.55-2.07,7.65,7.65,0,0,0,.54-3.92,12.36,12.36,0,0,1-.54,2.07A7.74,7.74,0,0,0,256.57,95.6Z" transform="translate(-17 -10)"/><path class="cls-6" d="M250.89,82.3a7.76,7.76,0,0,1,.13.82,8.31,8.31,0,0,0-.13-2.68,5.46,5.46,0,0,0-2.17-3.34,6.53,6.53,0,0,0-4.18-.83,1.71,1.71,0,0,0-2,1.65c-.21,1.55,0,3.37-1.2,4.41-.74.66-1.81.78-2.68,1.26a4.43,4.43,0,0,0-2.1,3.44,6.18,6.18,0,0,0,0,1.49,4.3,4.3,0,0,1,2.07-3.07c.87-.48,1.94-.6,2.67-1.26,1.17-1,1-2.87,1.2-4.41a2.08,2.08,0,0,1,.33-1,2.25,2.25,0,0,1,1.65-.69,6.48,6.48,0,0,1,4.18.84A5.43,5.43,0,0,1,250.89,82.3Z" transform="translate(-17 -10)"/><path class="cls-6" d="M259.22,100.77a2.07,2.07,0,0,1-1.64.68,5.29,5.29,0,0,1-2.84-1.56,4.76,4.76,0,0,0-2.87-1.47,3,3,0,0,1-.84,0,1.52,1.52,0,0,1-.69-.48,5.85,5.85,0,0,1-1.44-3,5.86,5.86,0,0,0,1.44,4.86,1.47,1.47,0,0,0,.69.49,2.64,2.64,0,0,0,.84,0,4.76,4.76,0,0,1,2.87,1.47,5.18,5.18,0,0,0,2.84,1.57c1.11.09,2.31-.92,2-2A1.52,1.52,0,0,0,259.22,100.77Z" transform="translate(-17 -10)"/><path class="cls-6" d="M231,91.65a3.25,3.25,0,0,0,.08-1.55,9.53,9.53,0,0,0-.94-2.12,3.25,3.25,0,0,1-.18-.43s0,0,0,.06a2.62,2.62,0,0,0,.22,2.24A13.49,13.49,0,0,1,231,91.65Z" transform="translate(-17 -10)"/><path class="cls-6" d="M238.51,95.14c-.06.31-.13.61-.19.92-.18,1-.19,2.06-.38,3.1a4.46,4.46,0,0,1-1.4,2.71c-1.17,1-2.85.91-4.35.75a3.19,3.19,0,0,1-2.51-1.09c-.18-.3-.27-.64-.44-.94-.34-.64-1.06-1-1.41-1.66a.61.61,0,0,1-.07-.14,2.47,2.47,0,0,0,.07,2c.34.64,1,1,1.41,1.66.17.3.26.65.44.94a3.19,3.19,0,0,0,2.51,1.09c1.5.16,3.18.21,4.35-.75a4.57,4.57,0,0,0,1.4-2.72c.2-1,.2-2.06.38-3.09a8.46,8.46,0,0,0,.29-2.22A3.78,3.78,0,0,0,238.51,95.14Z" transform="translate(-17 -10)"/><path class="cls-5" d="M225.68,108.22s-1.72.94-2.8,9.62-1.6,17.89-1.6,17.89,0,7.75,7.34,8A14.75,14.75,0,0,1,232.5,145c.93.66,15.62-3.88,8.67-4.82s-9.48-.54-9.48-.54-3.74-2.41-3.74-4.67,3.74-15.74,3.74-15.74Z" transform="translate(-17 -10)"/><path class="cls-3" d="M225.66,115c.18.45.28.94.43,1.4a11.93,11.93,0,0,0,1.72,3c.88,1.22,2.28,4.09,3.15,5.3a20.6,20.6,0,0,1,2.27-5.07l-7.54-12.22s-.59.32-1.3,2.31c0,.36,0,.72-.06,1.07a6,6,0,0,0,.35,2.38C225,113.83,225.39,114.38,225.66,115Z" transform="translate(-17 -10)"/><path class="cls-9" d="M251.52,90.28a.4.4,0,0,0-.26-.38v-.45a.38.38,0,0,0,.26-.37.4.4,0,1,0-.8,0,.38.38,0,0,0,.27.38v.45a.41.41,0,0,0-.25.51.39.39,0,0,0,.25.25v.44a.41.41,0,0,0-.25.51.39.39,0,0,0,.25.25v.45a.39.39,0,0,0-.24.51.4.4,0,0,0,.51.24.4.4,0,0,0,0-.75v-.45a.41.41,0,0,0,.24-.51.4.4,0,0,0-.24-.25v-.44A.4.4,0,0,0,251.52,90.28Z" transform="translate(-17 -10)"/><path class="cls-5" d="M264.41,102.88a37.27,37.27,0,0,1,4.4,11.08c1.34,6.28,2.28,7.62,2.28,7.62s5.87,15-.67,15.89-18,0-18,0-23.23,4-15.09-1.34,14.57-4.67,14.57-4.67,9.74-.27,11.08-1.21l2.54-.26-6-17.09Z" transform="translate(-17 -10)"/><path class="cls-3" d="M258.2,112.69l2.8,6.54c1.9-3.81,4.07-8.49,4.48-12.73a16.73,16.73,0,0,0-.06-2.35,6.51,6.51,0,0,0-1.2-1.74Z" transform="translate(-17 -10)"/><path class="cls-10" d="M166.68,188s-6.75,14.06-2.06,19,7.86-19.57,7.86-19.57Z" transform="translate(-17 -10)"/><path class="cls-11" d="M134,253.76l-7.57,9.52s-15.3,6.06-1.24,6.88c0,0,6.88-.55,8.26-1.52s2.2-2.89,5-1.79,5.93-1.1,5.93-1.1.41-10.76-2.35-12S134,253.76,134,253.76Z" transform="translate(-17 -10)"/><path class="cls-11" d="M162.27,257.21l-1.79,7.86s-4,9.37,1.79,8,8.69-2.89,9.24-5.65a27.71,27.71,0,0,1,2.06-5.79s-1.65-4.27-3.17-4.41S162.27,257.21,162.27,257.21Z" transform="translate(-17 -10)"/><path class="cls-3" d="M125.32,162.22s-5,34.07-1.51,52.65,7.57,37.64,7.57,37.64-4.82,11,11.7,3.72c0,0-1.1-27.3-4.41-37.91s1.7-24.94,3.08-25.36c0,0,5.5,27.72,10.89,36.83S161,260.11,161,260.11s11.58,1.51,11.44-1.52-2.2-28.68-8.94-37.78c0,0-5.8-15.16-2.07-30.88s-4-21.09-4-21.09l-12.26-14.48-12.27-2.75Z" transform="translate(-17 -10)"/><path class="cls-10" d="M161.7,103.53a2.85,2.85,0,0,1-1.62,2,19.55,19.55,0,0,1-3.82,1.64c-.34.69.21,1.46.74,2l1.56,1.64c.91,1,1.82,1.92,2.8,2.8a24.54,24.54,0,0,0,6.37,4.13c1.22.54,2.79.92,3.77,0s.74-2.5,1.33-3.68a.67.67,0,0,0,0-.94.83.83,0,0,0-.15-.11,3.66,3.66,0,0,1-.79-3.14c.17-1.11.62-2.16.88-3.25a4.34,4.34,0,0,0-.28-3.27,4.53,4.53,0,0,0-1.3-1.28,12,12,0,0,0-3.72-1.77c-.69-.19-1.38-.32-2.06-.52-.43-.13-1.59-.93-1.95-.87C162.74,99.08,162,102.72,161.7,103.53Z" transform="translate(-17 -10)"/><path class="cls-7" d="M161.7,103.53a2.85,2.85,0,0,1-1.62,2,19.55,19.55,0,0,1-3.82,1.64c-.34.69.21,1.46.74,2l1.56,1.64c.91,1,1.82,1.92,2.8,2.8a24.54,24.54,0,0,0,6.37,4.13c1.22.54,2.79.92,3.77,0s.74-2.5,1.33-3.68a.67.67,0,0,0,0-.94.83.83,0,0,0-.15-.11,3.66,3.66,0,0,1-.79-3.14c.17-1.11.62-2.16.88-3.25a4.34,4.34,0,0,0-.28-3.27,4.53,4.53,0,0,0-1.3-1.28,12,12,0,0,0-3.72-1.77c-.69-.19-1.38-.32-2.06-.52-.43-.13-1.59-.93-1.95-.87C162.74,99.08,162,102.72,161.7,103.53Z" transform="translate(-17 -10)"/><path class="cls-9" d="M160.16,106c0-.27,0-.59-.28-.74a.83.83,0,0,0-.44-.09c-3.25,0-5.89,2.56-7.94,5.09a86.6,86.6,0,0,0-10.67,17.5c-1.81,3.81-3.5,8.09-2.33,12.15a12.56,12.56,0,0,0,1.63,3.38,18.5,18.5,0,0,0,3.52,4,3.93,3.93,0,0,0,1.83,1,4.42,4.42,0,0,0,2.9-.95q2.66-1.65,5.28-3.34a61.59,61.59,0,0,0,8.2-5.94,22,22,0,0,0,5.92-8.12c.53-1.33.88-2.75,1.47-4,.9-2,2.36-3.75,2.88-5.88.24-1,.26-2.07.52-3.08.21-.81.57-1.57.74-2.39a2.91,2.91,0,0,0-.39-2.39c-.87-1.11-2.57-.94-4-.65-1.8.37-5,1.28-6.73.19C160.84,110.73,160.26,107.6,160.16,106Z" transform="translate(-17 -10)"/><path class="cls-3" d="M159.24,112.59l-1.93.14-1.38-.56,1.11-3.3s3.89.44,4.29,1.66c0,0,.29.85.75,1s2.41-.15,2.81.81.28,6.2-2.34,5.51l-1.24-3.31-.55-.83S159.1,113.42,159.24,112.59Z" transform="translate(-17 -10)"/><path class="cls-3" d="M143.38,143.33s4.28-28.12,17.65-38.19c0,0,.14-2.62-2.21-2.35s-12.13-1.65-12.13-1.65l-9.23,17.92s-2.07,16.68-3.59,19.44-11,24.68-11,24.68,5.38,18.06,13.38-6.19c0,0-6.2,19.71,11.3,21.64s15.44-1.1,15.44-1.1L165,163.19V152.43l3.86-7.57,15.71-20s-10.66-14.77-12.7-13.45C171.9,111.41,158.69,132.31,143.38,143.33Z" transform="translate(-17 -10)"/><path class="cls-3" d="M148.76,102.25l-2.06-1.1s-6.34,2.34-8.55,11.44c0,0-5.38,3.86-9,6.76,0,0-4.82-8.95-4.82-12,0,0-8,5.38-9.79,4,0,0,4.82,22.19,13.93,20.54s12.54-7,12.54-7Z" transform="translate(-17 -10)"/><path class="cls-3" d="M179.37,125.69l5.24-.83s3.31,4.41-2.62,10.89l-3.59,21.92a56.35,56.35,0,0,1-.82,12.82C176.34,176,174.4,193,174.4,193s-6.34-2.34-9.78-1.93l5.23-50.85Z" transform="translate(-17 -10)"/><path class="cls-10" d="M124.09,108.86s-2.9-17.37-7.86-10.89.55,15.44.55,15.44Z" transform="translate(-17 -10)"/><circle class="cls-10" cx="155.27" cy="88.6" r="11.17"/><path class="cls-3" d="M181.2,86.55a6.93,6.93,0,0,1-.69-1,7.64,7.64,0,0,0-2.76-2.2c-1.88-1-4-2-6.14-1.5-1.46.34-2.69,1.37-4.16,1.67s-3.21,0-4.19,1.07-.55,2.83-1.4,4c-.48.63-1.35,1.21-1.11,2,.1.32.39.54.52.85.24.54-.05,1.15-.06,1.74a5,5,0,0,0,1,2.38c.42.76.65,1.83,0,2.43a33.78,33.78,0,0,1,7.15-4.38,2.24,2.24,0,0,1-.27,1,36,36,0,0,0,4.1-.87L172.47,95l3-1.33c.82-.36,1.86-.69,2.56-.14a2.29,2.29,0,0,1,.65,1.14,15.14,15.14,0,0,1,.71,3.84c.08,1.47,0,3.09.95,4.22a2.87,2.87,0,0,0,4.06.11l.13-.14c.27-1-.13-2.1-.15-3.16,0-1.54.74-3,.89-4.53.18-2-1-3.1-1.5-4.82-.2-.66-.07-1.44-.46-2.07S181.82,87.21,181.2,86.55Z" transform="translate(-17 -10)"/><path class="cls-8" d="M116.3,118.05l4-6.69L117,109.42a40.7,40.7,0,0,0,4.15-5.52s4-3.22,4.78-7.39a1.3,1.3,0,0,0,2-.29c1-1.29,4.92-3.57,1.78-6.74l.25-1.29A3,3,0,0,0,131.25,87c.68-1.14.61-2.41-.15-2.88s-1.93.11-2.6,1.25a3,3,0,0,0-.46,1.81l-.9,1.1s-3.28-3.25-5.47,4.18c0,0-.25,1.35.44,1.76,0,0-3.36,4.7-3.73,6.88,0,0-2.89,4.23-2.92,5.51l-.81,1.37-3.45-2-4,6.8c-2-.64-3.5-.69-3.91,0-.72,1.22,2.14,4.25,6.39,6.78s8.27,3.59,9,2.38C119.1,121.16,118.13,119.67,116.3,118.05Z" transform="translate(-17 -10)"/><path class="cls-7" d="M130,86.15a3.17,3.17,0,0,1-1.22,1.19l-.25,1.28c3.14,3.17-.83,5.46-1.79,6.75a1.3,1.3,0,0,1-1.77.48,1.21,1.21,0,0,1-.26-.2c-.8,4.17-4.77,7.39-4.77,7.39a41,41,0,0,1-4.15,5.53l1.23.74a41.7,41.7,0,0,0,4.16-5.53s4-3.22,4.77-7.39a1.3,1.3,0,0,0,2-.28c1-1.3,4.92-3.58,1.79-6.75l.25-1.28a3.13,3.13,0,0,0,1.22-1.2c.68-1.13.61-2.4-.15-2.87a1.23,1.23,0,0,0-.75-.15A2.69,2.69,0,0,1,130,86.15Z" transform="translate(-17 -10)"/><path class="cls-7" d="M116.28,117.94l4-6.69-1.23-.74-4,6.69c1.84,1.63,2.8,3.1,2.35,3.87-.69,1.16-4.37.25-8.38-2l.61.38c4.25,2.53,8.28,3.59,9,2.38C119.07,121.05,118.1,119.56,116.28,117.94Z" transform="translate(-17 -10)"/><circle class="cls-12" cx="227" cy="75" r="25"/><circle class="cls-13" cx="155" cy="79" r="25"/><path class="cls-14" d="M165.65,93.39a2.16,2.16,0,0,1,2.16,2.17v9.28a2.16,2.16,0,0,1-4.32,0V95.56a2.17,2.17,0,0,1,2.16-2.17Z" transform="translate(-17 -10)"/><path class="cls-14" d="M160.71,82.24c0,.08,0,.16,0,.25V96.55a2.7,2.7,0,0,0,2.68,2.73h14.3a2.7,2.7,0,0,0,2.68-2.73V82.49a2,2,0,0,0,0-.25Z" transform="translate(-17 -10)"/><path class="cls-14" d="M175.41,93.39a2.17,2.17,0,0,1,2.16,2.17v9.28a2.16,2.16,0,0,1-4.32,0V95.56a2.17,2.17,0,0,1,2.16-2.17Zm-18.19-9.9a2.17,2.17,0,0,1,2.17,2.16v9.28a2.17,2.17,0,0,1-4.33,0V85.65a2.16,2.16,0,0,1,2.16-2.16Zm26.62,0A2.16,2.16,0,0,1,186,85.65v9.28a2.17,2.17,0,0,1-4.33,0V85.65a2.17,2.17,0,0,1,2.17-2.16Zm-23.06-2.18c.06-4.31,3.82-7.85,8.66-8.32h2.18c4.84.47,8.6,4,8.66,8.32Z" transform="translate(-17 -10)"/><path class="cls-15" d="M161.53,72.57l2.28,4m15.72-4-2.28,4" transform="translate(-17 -10)"/><path class="cls-16" d="M167.62,77.44a1.09,1.09,0,0,1-1.11,1.1,1.11,1.11,0,0,1-1.12-1.09h0a1.12,1.12,0,0,1,2.23,0Zm8.36,0a1.12,1.12,0,0,1-2.24,0h0a1.12,1.12,0,0,1,2.24,0Z" transform="translate(-17 -10)"/><image width="850" height="477" transform="translate(199 57.14) scale(0.06)" xlink:href="../../../../../../../Downloads/ios-app%20(1).png"/></svg>