<svg id="Layer_1" data-name="Layer 1" xmlns="http://www.w3.org/2000/svg" viewBox="0 0 237.69 289.64"><defs><style>.cls-1{fill:#3f3d56;}.cls-2{opacity:0.1;isolation:isolate;}.cls-3{fill:#6c63ff;}.cls-4{fill:#f2f2f2;}.cls-5{fill:#a0616a;}.cls-6{fill:#d0cde1;}.cls-7{fill:#2f2e41;}</style></defs><title>why-4</title><path class="cls-1" d="M192.66,228.19v-.74c1.48,0,3,0,4.46-.09l0,.74C195.66,228.16,194.15,228.19,192.66,228.19Zm-4.49-.08c-1.49-.06-3-.15-4.49-.27l.06-.74c1.48.12,3,.2,4.45.26Zm13.47-.28-.06-.74c1.47-.12,3-.27,4.44-.45l.09.74c-1.48.18-3,.33-4.47.45Zm-22.43-.43c-1.48-.18-3-.39-4.45-.63l.12-.73c1.46.23,2.94.44,4.42.62Zm31.35-.65-.12-.73c1.46-.24,2.93-.51,4.39-.8l.15.73c-1.47.3-3,.57-4.42.8ZM170.34,226c-1.47-.29-2.94-.62-4.39-1l.18-.72c1.44.35,2.9.68,4.36,1Zm49-1-.18-.72c1.44-.36,2.89-.74,4.31-1.16l.21.72c-1.43.41-2.89.8-4.34,1.16Zm-57.75-1.13c-1.43-.41-2.88-.86-4.29-1.33l.24-.7c1.4.46,2.83.91,4.26,1.32ZM228,222.46l-.24-.7c1.41-.47,2.82-1,4.21-1.5l.26.69c-1.39.53-2.82,1-4.23,1.51ZM153.08,221c-1.4-.53-2.81-1.09-4.18-1.68l.29-.68c1.37.58,2.76,1.14,4.15,1.67Zm83.3-1.71-.29-.69c1.36-.58,2.72-1.19,4-1.83l.32.67c-1.34.64-2.71,1.26-4.08,1.85Zm-91.59-1.82c-1.35-.64-2.71-1.32-4-2l.35-.66c1.31.69,2.66,1.36,4,2Zm99.68-2-.34-.66c1.31-.69,2.62-1.42,3.9-2.16l.37.65c-1.29.74-2.61,1.47-3.93,2.17Zm-107.65-2.15c-1.29-.75-2.59-1.54-3.85-2.33l.4-.63c1.25.79,2.54,1.57,3.83,2.31Zm115.42-2.35-.4-.63c1.25-.79,2.5-1.61,3.72-2.46l.42.62c-1.23.84-2.49,1.68-3.74,2.47Zm-123-2.47c-1.23-.85-2.45-1.73-3.64-2.63l.44-.59c1.19.89,2.4,1.77,3.63,2.61Zm130.4-2.63-.45-.6c1.18-.88,2.36-1.81,3.51-2.75l.48.58c-1.16.94-2.35,1.88-3.54,2.77ZM122,203.06c-1.16-.94-2.31-1.92-3.43-2.91l.5-.56c1.11,1,2.25,2,3.4,2.89Zm144.54-2.91-.5-.56c1.11-1,2.21-2,3.28-3l.52.54c-1.08,1-2.19,2.06-3.3,3.05ZM115.31,197.1c-1.07-1-2.14-2.1-3.18-3.18l.54-.51c1,1.07,2.09,2.13,3.16,3.15Zm157.75-3.17-.54-.52c1-1.07,2-2.17,3-3.28l.56.49c-1,1.12-2,2.23-3.05,3.31Zm-164-3.31c-1-1.12-2-2.27-2.92-3.42l.58-.47c.93,1.15,1.91,2.29,2.89,3.4ZM279,187.2l-.58-.47c.94-1.15,1.87-2.33,2.76-3.51l.6.45c-.9,1.19-1.83,2.38-2.78,3.53ZM103.4,183.67c-.9-1.19-1.78-2.41-2.63-3.64l.61-.42c.84,1.21,1.72,2.43,2.61,3.61Zm181-3.65-.61-.42c.84-1.23,1.67-2.48,2.46-3.73l.63.4C286.12,177.53,285.28,178.79,284.43,180ZM98.29,176.29c-.8-1.26-1.58-2.55-2.33-3.84l.65-.37c.74,1.28,1.52,2.56,2.31,3.81Zm191-3.87-.65-.37c.75-1.29,1.47-2.6,2.16-3.91l.66.34c-.69,1.32-1.42,2.65-2.17,3.94ZM93.79,168.53c-.69-1.32-1.36-2.67-2-4l.67-.32c.63,1.33,1.3,2.67,2,4Zm199.65-4.07-.68-.32c.64-1.34,1.26-2.71,1.84-4.08l.69.29C294.7,161.73,294.08,163.11,293.44,164.46Zm-203.5-4c-.59-1.37-1.15-2.76-1.68-4.15L89,156c.52,1.38,1.08,2.77,1.66,4.13Zm207-4.26-.7-.26c.53-1.39,1-2.81,1.51-4.22l.7.24C298,153.35,297.5,154.77,297,156.17ZM86.75,152.05c-.47-1.42-.93-2.86-1.34-4.29l.71-.21c.42,1.42.86,2.86,1.33,4.26Zm213.07-4.41-.72-.21c.41-1.42.8-2.87,1.15-4.31l.73.18C300.62,144.75,300.23,146.21,299.82,147.64ZM84.24,143.42c-.35-1.45-.68-2.92-1-4.38l.73-.15c.29,1.45.62,2.91,1,4.35ZM302,138.91l-.73-.14c.29-1.45.56-2.93.8-4.4l.73.12c-.23,1.48-.5,3-.8,4.42ZM82.45,134.62c-.24-1.47-.45-3-.63-4.45l.74-.09c.17,1.47.38,3,.62,4.42ZM303.39,130l-.74-.09c.18-1.47.33-3,.44-4.44l.75.06c-.12,1.49-.27,3-.45,4.47Zm-222-4.34c-.12-1.49-.22-3-.28-4.49l.75,0c.06,1.48.15,3,.27,4.46Zm222.73-4.61-.74,0c.06-1.48.09-3,.09-4.46v-.25h.74v.24C304.19,118.08,304.16,119.6,304.1,121.09ZM81.74,116.72H81v-.13c0-1.45,0-2.92.08-4.36l.75,0c-.06,1.43-.09,2.89-.09,4.34Zm221.61-4.83c-.06-1.48-.15-3-.28-4.46l.75-.06c.12,1.49.21,3,.27,4.49ZM82.09,107.8l-.74-.06c.11-1.49.26-3,.44-4.47l.74.09C82.35,104.83,82.2,106.32,82.09,107.8ZM302.62,103c-.18-1.46-.39-2.95-.63-4.42l.73-.12c.25,1.48.46,3,.64,4.45Zm-219.48-4-.73-.12c.23-1.47.5-3,.8-4.42l.73.15c-.3,1.45-.56,2.93-.8,4.39Zm218-4.75c-.3-1.46-.63-2.92-1-4.36l.72-.18c.36,1.45.69,2.92,1,4.39Zm-216.27-4L84.19,90c.35-1.44.74-2.91,1.15-4.34l.72.21C85.65,87.3,85.26,88.75,84.91,90.19ZM299,85.52c-.41-1.42-.86-2.85-1.33-4.26l.7-.23c.48,1.41.93,2.85,1.35,4.28ZM87.38,81.61l-.71-.23c.47-1.42,1-2.85,1.51-4.25l.69.27C88.35,78.79,87.84,80.21,87.38,81.61Zm208.81-4.55c-.53-1.38-1.09-2.77-1.67-4.12l.68-.3c.59,1.37,1.15,2.76,1.69,4.16ZM90.54,73.24,89.86,73c.58-1.37,1.2-2.75,1.84-4.1l.67.31C91.74,70.51,91.12,71.88,90.54,73.24Zm202.14-4.36c-.63-1.33-1.31-2.67-2-4l.66-.35c.7,1.32,1.37,2.67,2,4ZM94.37,65.16l-.66-.34c.7-1.32,1.43-2.65,2.17-3.94l.65.37C95.79,62.53,95.06,63.85,94.37,65.16ZM288.52,61c-.74-1.28-1.52-2.56-2.31-3.8l.62-.4c.8,1.25,1.59,2.54,2.34,3.83ZM98.84,57.42,98.21,57c.8-1.27,1.64-2.53,2.48-3.76l.61.43C100.46,54.92,99.63,56.17,98.84,57.42Zm184.9-3.94c-.84-1.21-1.72-2.43-2.62-3.61l.6-.45c.9,1.19,1.78,2.41,2.63,3.64ZM103.92,50.07l-.6-.44c.9-1.2,1.83-2.39,2.77-3.54l.58.47c-.94,1.14-1.86,2.33-2.75,3.51Zm174.45-3.7c-.94-1.15-1.92-2.29-2.9-3.4l.55-.49c1,1.11,2,2.26,2.92,3.41ZM109.56,43.15l-.55-.49c1-1.12,2-2.23,3-3.3l.54.51c-1,1.07-2,2.18-3,3.28ZM272.44,39.7c-1-1.07-2.09-2.13-3.16-3.15l.51-.54c1.08,1,2.15,2.1,3.18,3.17Zm-156.7-3-.51-.53c1.07-1,2.18-2.06,3.29-3l.5.55C117.91,34.67,116.81,35.69,115.74,36.71ZM266,33.52c-1.11-1-2.25-2-3.4-2.89l.47-.58c1.15.95,2.31,1.92,3.43,2.91ZM122.41,30.79l-.47-.58c1.16-.94,2.34-1.88,3.53-2.77l.45.59C124.74,28.92,123.56,29.85,122.41,30.79Zm136.66-2.91c-1.19-.89-2.41-1.77-3.63-2.61l.43-.61c1.22.84,2.45,1.73,3.65,2.62ZM129.53,25.42l-.42-.61c1.23-.85,2.48-1.69,3.74-2.49l.4.63c-1.25.79-2.5,1.62-3.72,2.47Zm122.19-2.61c-1.26-.79-2.55-1.57-3.83-2.31l.37-.65c1.29.75,2.59,1.53,3.85,2.33ZM137.06,20.64l-.38-.64c1.29-.75,2.61-1.48,3.93-2.18l.35.66C139.65,19.17,138.34,19.9,137.06,20.64ZM244,18.34c-1.31-.68-2.66-1.36-4-2l.32-.67c1.35.64,2.71,1.31,4,2Zm-99-1.86-.32-.67c1.34-.64,2.71-1.26,4.08-1.85l.29.69c-1.36.58-2.72,1.2-4.05,1.83Zm90.95-2c-1.37-.58-2.76-1.14-4.15-1.67l.26-.69c1.4.52,2.81,1.09,4.18,1.67ZM153.12,13l-.26-.7c1.39-.53,2.81-1,4.23-1.51l.23.7C155.92,12,154.5,12.45,153.12,13Zm74.4-1.62c-1.41-.47-2.84-.91-4.26-1.32l.2-.72c1.43.42,2.88.86,4.29,1.33Zm-65.94-1.22-.21-.71c1.43-.42,2.89-.81,4.34-1.17l.18.72C164.45,9.34,163,9.73,161.58,10.14Zm57.36-1.25c-1.43-.35-2.9-.67-4.36-1l.15-.72c1.47.29,2.94.62,4.39,1ZM170.25,8l-.15-.73c1.45-.3,2.94-.57,4.42-.81l.11.73C173.17,7.43,171.69,7.7,170.25,8Zm39.94-.87c-1.46-.23-2.95-.44-4.42-.61l.09-.74c1.48.18,3,.38,4.45.62Zm-31.14-.57L179,5.82c1.48-.18,3-.33,4.47-.45l.06.74C182,6.23,180.52,6.38,179.05,6.56Zm22.28-.48c-1.47-.11-3-.2-4.46-.25l0-.75c1.49.06,3,.15,4.49.26ZM188,5.84l0-.74c1.49-.07,3-.1,4.49-.1v.74C190.93,5.75,189.43,5.78,188,5.84Z" transform="translate(-81 -5)"/><path class="cls-1" d="M318.69,81.27V61a46.58,46.58,0,0,1-30.08-22.39h0a8.76,8.76,0,0,1-5.29,1.74H267.24A66.41,66.41,0,0,0,318.69,81.27Z" transform="translate(-81 -5)"/><path class="cls-1" d="M318.69,59.86V40.41a10.83,10.83,0,0,0-10.83-10.84H292.24v1.88a8.94,8.94,0,0,1-2.75,6.45A45.49,45.49,0,0,0,318.69,59.86Z" transform="translate(-81 -5)"/><path class="cls-1" d="M243.59,40.37H233.53a8.92,8.92,0,0,1-8.92-8.92V29.57H210A10.83,10.83,0,0,0,199.13,40.4h0V281.53a10.82,10.82,0,0,0,10.81,10.83h97.91a9.94,9.94,0,0,0,1.34-.09,10.84,10.84,0,0,0,9.5-10.74V104A89.11,89.11,0,0,1,243.59,40.37Z" transform="translate(-81 -5)"/><path class="cls-1" d="M266,40.37H244.77a87.93,87.93,0,0,0,73.92,62.52V82.43A67.6,67.6,0,0,1,266,40.37Z" transform="translate(-81 -5)"/><path class="cls-2" d="M234.58,288.63c.27-.27,6.66-6.75,12.09-22.13,5-14.1,10-38.71,5.66-75.79-8.22-70.26,33.93-115,34.36-115.48L285.44,74c-.1.11-10.94,11.51-20.59,31.51a154.92,154.92,0,0,0-14.24,85.37c8.21,70.14-17,96.24-17.25,96.49Z" transform="translate(-81 -5)"/><circle class="cls-2" cx="218.64" cy="57.81" r="11.24"/><circle class="cls-2" cx="174.35" cy="89.72" r="11.24"/><circle class="cls-2" cx="272.3" cy="127.35" r="11.24" transform="translate(21.98 370.74) rotate(-80.78)"/><circle class="cls-2" cx="157.2" cy="138.06" r="11.24"/><circle class="cls-2" cx="266.55" cy="187.37" r="11.24" transform="translate(-42.09 415.47) rotate(-80.78)"/><path class="cls-2" d="M227.88,287.42S245.37,263.2,217.52,235Z" transform="translate(-81 -5)"/><path class="cls-2" d="M241.43,290.21s11.95-27.37,50.36-17.73Z" transform="translate(-81 -5)"/><rect class="cls-3" x="130.84" y="188.2" width="94.48" height="18.6"/><path class="cls-4" d="M240.7,153.78a28.38,28.38,0,1,1,13.17,10.58,9.19,9.19,0,1,1-13.17-10.58Z" transform="translate(-81 -5)"/><path class="cls-3" d="M270.27,127.78c-.68-.39-3.24,2.74-6.07,7.3-2.82-4.56-5.38-7.69-6.06-7.3s1.1,5.06,4.17,10.5c-3.07,5.45-4.92,10.07-4.17,10.51s3.24-2.74,6.06-7.3c2.83,4.56,5.39,7.69,6.07,7.3s-1.1-5.06-4.17-10.51C269.17,132.84,271,128.22,270.27,127.78Z" transform="translate(-81 -5)"/><path class="cls-5" d="M134.25,176s-3,13-.43,13,7.78-6,7.78-6v-3.46Z" transform="translate(-81 -5)"/><polygon class="cls-6" points="59.52 159.53 51.74 171.63 57.36 171.63 59.52 159.53"/><rect class="cls-5" x="54.76" y="265.01" width="10.37" height="8.65"/><polygon class="cls-5" points="88.05 263.71 90.21 273.65 101.02 271.06 98.42 262.41 88.05 263.71"/><path class="cls-7" d="M136.63,179.23s-3.46,1.73-3.89,9.51,1.3,28.09,1.3,28.09-1.73,9.08,0,17.3-1.73,38,.43,38,13.4,1.29,13.83,0,.86-20.75.86-20.75,3.46-9.95,0-16c0,0,7.79,6.49,7.79,8.22s8.21,28.53,12.1,29,14.7-.43,12.54-4.32-7.35-21.62-7.35-21.62-3.89-13-10.81-18.59l3.46-27.66s7.35-18.59,3-21.18S136.63,179.23,136.63,179.23Z" transform="translate(-81 -5)"/><circle class="cls-5" cx="68.6" cy="92.53" r="11.24"/><path class="cls-5" d="M144,104.44s4.32,14.27,3,16,13.84-9.51,13.84-9.51-5.62-3.89-3.46-9.51Z" transform="translate(-81 -5)"/><path class="cls-6" d="M162.13,109.63s-5.18,1.73-7.78,4.75-8.64,3.46-8.64,3.46-5.35,3-7.35,8.22c-2.13,5.54-.89,13.34,0,15.13,1.73,3.45,1.73,12.1,1.73,12.1l-2.16,19.88s-7.79,7.35-1.73,8.22,16.86-.43,23.34,0,13.83,1.29,11.67-3-4.75-7.35-2.16-16c2-6.77,1.94-32.06,1.81-42.74a8.6,8.6,0,0,0-4.18-7.27Z" transform="translate(-81 -5)"/><path class="cls-5" d="M145.27,175.77s-2,4.33-2.16,6.91c-1.51,20.11,9.51,0,9.51,0v-3.45Z" transform="translate(-81 -5)"/><path class="cls-7" d="M175.53,275.19s-6.48-4.75-6.48-2.16-7.35,13-7.35,13-12.1,8.64-2.16,8.64,14.26-1.72,14.26-1.72L184.18,286s2.59-3,1.73-6.48S182,271.3,182,271.3,178.56,276.06,175.53,275.19Z" transform="translate(-81 -5)"/><path class="cls-7" d="M137.49,276.49s-.86-4.32-3.89-2.16S122.36,283,122.36,283s-15.13,3.46-5.62,7.78S147.87,289,147.87,289s.86-13.84,0-13.41S137.93,277.35,137.49,276.49Z" transform="translate(-81 -5)"/><polygon class="cls-2" points="74.86 118.25 76.16 144.62 63.6 170.07 61.46 169.25 74.43 145.48 74.86 118.25"/><path class="cls-6" d="M166,115.25l3.25-.65S179,121.73,176,136s-16.43,35.88-16.43,35.88-3,3.89-3.89,4.75-2.59,0-1.73,1.3-1.3,2.16-1.3,2.16-9.51,0-8.64-3.46,15.56-28.1,15.56-28.1l-2.16-22.91S155.65,114.38,166,115.25Z" transform="translate(-81 -5)"/><polygon class="cls-2" points="89.13 150.24 89.13 147.21 74.43 171.42 89.13 150.24"/><path class="cls-7" d="M141.62,87.11l-1.86-.74s3.89-4.28,9.29-3.9l-1.52-1.68s3.72-1.49,7.1,2.42a33,33,0,0,1,5.11,7.18h2l-.83,1.83,2.91,1.83-3-.33a10.15,10.15,0,0,1-.28,4.74l.08,1.44s-3.46-5.35-3.46-6.09v1.86S155.3,94,155.3,92.88l-1,1.3-.51-2-6.25,2,1-1.67-3.89.56,1.52-2s-4.39,2.42-4.56,4.46-2.36,4.65-2.36,4.65l-1-1.86S136.72,89.9,141.62,87.11Z" transform="translate(-81 -5)"/></svg>