<svg id="Layer_1" data-name="Layer 1" xmlns="http://www.w3.org/2000/svg" xmlns:xlink="http://www.w3.org/1999/xlink" viewBox="0 0 399.5 300.5"><defs><style>.cls-1{fill:#29b5e3;}.cls-2{fill:#0b92bf;}.cls-3{fill:#a4c639;}.cls-4{fill:none;stroke:#a4c639;stroke-linecap:round;stroke-linejoin:round;stroke-width:3px;}.cls-5{fill:#fff;}</style></defs><title>how-1</title><rect class="cls-1" y="0.5" width="200" height="300"/><rect class="cls-2" x="199.5" width="200" height="300"/><image width="850" height="477" transform="translate(228.5 167) scale(0.17)" xlink:href="../../../../../../../Downloads/ios-app%20(1).png"/><path class="cls-3" d="M286.7,102.77a6.73,6.73,0,0,1,6.73,6.73v28.86a6.73,6.73,0,0,1-13.46,0V109.5a6.73,6.73,0,0,1,6.73-6.73Z" transform="translate(-0.5)"/><path class="cls-3" d="M271.34,68.07c0,.25,0,.51,0,.77v43.73a8.4,8.4,0,0,0,8.34,8.49h44.47a8.4,8.4,0,0,0,8.35-8.49V68.84c0-.26,0-.52,0-.77Z" transform="translate(-0.5)"/><path class="cls-3" d="M317.06,102.77a6.73,6.73,0,0,1,6.73,6.73v28.86a6.73,6.73,0,0,1-13.46,0V109.5a6.73,6.73,0,0,1,6.73-6.73ZM260.49,72a6.73,6.73,0,0,1,6.73,6.73v28.86a6.73,6.73,0,0,1-13.46,0V78.69A6.73,6.73,0,0,1,260.49,72Zm82.78,0A6.73,6.73,0,0,1,350,78.69v28.86a6.73,6.73,0,0,1-13.46,0V78.69A6.73,6.73,0,0,1,343.27,72Zm-71.73-6.77c.18-13.43,11.91-24.44,27-25.89h6.76c15.05,1.45,26.77,12.46,27,25.89Z" transform="translate(-0.5)"/><path class="cls-4" d="M273.88,38,281,50.29M329.88,38l-7.1,12.29" transform="translate(-0.5)"/><path class="cls-5" d="M292.84,53.16a3.48,3.48,0,0,1-7,0h0a3.48,3.48,0,0,1,7,0Zm26,0a3.48,3.48,0,0,1-7,0h0a3.48,3.48,0,0,1,7,0Z" transform="translate(-0.5)"/><image width="1000" height="377" transform="translate(27.5 131) scale(0.16)" xlink:href="../../../../../../../Downloads/1_U01ubQ9TrE1Zow5pkGHTfw.png"/></svg>