<svg id="Layer_1" data-name="Layer 1" xmlns="http://www.w3.org/2000/svg" xmlns:xlink="http://www.w3.org/1999/xlink" viewBox="0 0 328.99 243"><defs><style>.cls-1,.cls-6{fill:#6c63ff;}.cls-2{fill:#666;}.cls-3,.cls-4{fill:#fff;}.cls-10,.cls-11,.cls-12,.cls-13,.cls-14,.cls-15,.cls-16,.cls-17,.cls-18,.cls-19,.cls-20,.cls-21,.cls-22,.cls-23,.cls-24,.cls-25,.cls-26,.cls-27,.cls-28,.cls-29,.cls-30,.cls-31,.cls-32,.cls-33,.cls-34,.cls-35,.cls-36,.cls-37,.cls-38,.cls-39,.cls-4,.cls-5,.cls-6,.cls-7,.cls-8,.cls-9{stroke:#666;stroke-miterlimit:10;}.cls-5{opacity:0.1;isolation:isolate;}.cls-7{fill:url(#radial-gradient);}.cls-8{fill:url(#radial-gradient-2);}.cls-9{fill:url(#radial-gradient-3);}.cls-10{fill:url(#radial-gradient-4);}.cls-11{fill:url(#radial-gradient-5);}.cls-12{fill:url(#radial-gradient-6);}.cls-13{fill:url(#radial-gradient-7);}.cls-14{fill:url(#radial-gradient-8);}.cls-15{fill:url(#radial-gradient-9);}.cls-16{fill:url(#radial-gradient-10);}.cls-17{fill:url(#radial-gradient-11);}.cls-18{fill:url(#radial-gradient-12);}.cls-19{fill:url(#radial-gradient-13);}.cls-20{fill:url(#radial-gradient-14);}.cls-21{fill:url(#radial-gradient-15);}.cls-22{fill:url(#radial-gradient-16);}.cls-23{fill:url(#radial-gradient-17);}.cls-24{fill:url(#radial-gradient-18);}.cls-25{fill:url(#radial-gradient-19);}.cls-26{fill:url(#radial-gradient-20);}.cls-27{fill:url(#radial-gradient-21);}.cls-28{fill:url(#radial-gradient-22);}.cls-29{fill:#ee1559;}.cls-30{fill:url(#radial-gradient-23);}.cls-31{fill:url(#radial-gradient-24);}.cls-32{fill:url(#radial-gradient-25);}.cls-33{fill:url(#radial-gradient-26);}.cls-34{fill:url(#radial-gradient-27);}.cls-35{fill:url(#radial-gradient-28);}.cls-36{fill:url(#radial-gradient-29);}.cls-37{fill:url(#radial-gradient-30);}.cls-38{fill:url(#radial-gradient-31);}.cls-39{fill:url(#radial-gradient-32);}.cls-40{fill:#a4c639;}.cls-41{fill:none;stroke:#a4c639;stroke-linecap:round;stroke-linejoin:round;stroke-width:3px;}</style><radialGradient id="radial-gradient" cx="188.16" cy="205.73" r="3.11" gradientTransform="matrix(1, 0, 0, -1, -48.01, 270.12)" gradientUnits="userSpaceOnUse"><stop offset="0" stop-color="#212149"/><stop offset="0.27" stop-color="#201f45" stop-opacity="0.95"/><stop offset="0.63" stop-color="#1c183b" stop-opacity="0.81"/><stop offset="1" stop-color="#170f2c" stop-opacity="0.6"/></radialGradient><radialGradient id="radial-gradient-2" cx="189.2" cy="194.43" r="3.11" xlink:href="#radial-gradient"/><radialGradient id="radial-gradient-3" cx="188.16" cy="184.38" r="3.11" xlink:href="#radial-gradient"/><radialGradient id="radial-gradient-4" cx="113.39" cy="169.69" r="3.11" gradientTransform="matrix(0.73, 0, 0, -1, 37.55, 247.05)" xlink:href="#radial-gradient"/><radialGradient id="radial-gradient-5" cx="113.39" cy="159.01" r="3.11" gradientTransform="matrix(0.73, 0, 0, -1, 37.55, 247.05)" xlink:href="#radial-gradient"/><radialGradient id="radial-gradient-6" cx="-141.05" cy="154.41" r="3.11" gradientTransform="matrix(0.36, 0, 0, -1, 158.28, 247.05)" xlink:href="#radial-gradient"/><radialGradient id="radial-gradient-7" cx="-150.3" cy="141.02" r="3.11" gradientTransform="matrix(0.36, 0, 0, -1, 158.28, 247.05)" xlink:href="#radial-gradient"/><radialGradient id="radial-gradient-8" cx="-167.06" cy="96.86" r="3.11" gradientTransform="matrix(0.36, 0, 0, -1, 158.28, 247.05)" xlink:href="#radial-gradient"/><radialGradient id="radial-gradient-9" cx="-156.66" cy="77.39" r="3.11" gradientTransform="matrix(0.36, 0, 0, -1, 158.28, 247.05)" xlink:href="#radial-gradient"/><radialGradient id="radial-gradient-10" cx="-131.8" cy="57.72" r="3.11" gradientTransform="matrix(0.36, 0, 0, -1, 158.28, 247.05)" xlink:href="#radial-gradient"/><radialGradient id="radial-gradient-11" cx="1914.49" cy="96.86" r="3.11" gradientTransform="translate(913.03 247.05) rotate(180) scale(0.36 1)" xlink:href="#radial-gradient"/><radialGradient id="radial-gradient-12" cx="1924.89" cy="77.39" r="3.11" gradientTransform="translate(913.03 247.05) rotate(180) scale(0.36 1)" xlink:href="#radial-gradient"/><radialGradient id="radial-gradient-13" cx="1949.75" cy="57.72" r="3.11" gradientTransform="translate(913.03 247.05) rotate(180) scale(0.36 1)" xlink:href="#radial-gradient"/><radialGradient id="radial-gradient-14" cx="1139.89" cy="169.69" r="3.11" gradientTransform="translate(1033.75 247.05) rotate(180) scale(0.73 1)" xlink:href="#radial-gradient"/><radialGradient id="radial-gradient-15" cx="1139.89" cy="159.01" r="3.11" gradientTransform="translate(1033.75 247.05) rotate(180) scale(0.73 1)" xlink:href="#radial-gradient"/><radialGradient id="radial-gradient-16" cx="1940.5" cy="154.41" r="3.11" gradientTransform="translate(913.03 247.05) rotate(180) scale(0.36 1)" xlink:href="#radial-gradient"/><radialGradient id="radial-gradient-17" cx="1931.25" cy="141.02" r="3.11" gradientTransform="translate(913.03 247.05) rotate(180) scale(0.36 1)" xlink:href="#radial-gradient"/><radialGradient id="radial-gradient-18" cx="200.92" cy="181.25" r="3.11" xlink:href="#radial-gradient"/><radialGradient id="radial-gradient-19" cx="227.92" cy="183.76" r="3.11" xlink:href="#radial-gradient"/><radialGradient id="radial-gradient-20" cx="227.92" cy="203.22" r="3.11" xlink:href="#radial-gradient"/><radialGradient id="radial-gradient-21" cx="215.78" cy="181.25" r="3.11" xlink:href="#radial-gradient"/><radialGradient id="radial-gradient-22" cx="227.92" cy="193.38" r="3.11" xlink:href="#radial-gradient"/><radialGradient id="radial-gradient-23" cx="198.89" cy="80.77" r="3.32" xlink:href="#radial-gradient"/><radialGradient id="radial-gradient-24" cx="178.39" cy="79.98" r="3.25" xlink:href="#radial-gradient"/><radialGradient id="radial-gradient-25" cx="186.43" cy="80.77" r="3.25" xlink:href="#radial-gradient"/><radialGradient id="radial-gradient-26" cx="197.94" cy="68" r="3.32" xlink:href="#radial-gradient"/><radialGradient id="radial-gradient-27" cx="217.02" cy="68" r="3.25" xlink:href="#radial-gradient"/><radialGradient id="radial-gradient-28" cx="217.02" cy="58.85" r="3.57" xlink:href="#radial-gradient"/><radialGradient id="radial-gradient-29" cx="198.89" cy="58.85" r="3.47" xlink:href="#radial-gradient"/><radialGradient id="radial-gradient-30" cx="217.02" cy="80.77" r="3.25" xlink:href="#radial-gradient"/><radialGradient id="radial-gradient-31" cx="229.63" cy="79.98" r="3.32" xlink:href="#radial-gradient"/><radialGradient id="radial-gradient-32" cx="237.67" cy="76.04" r="3.41" xlink:href="#radial-gradient"/></defs><title>what-2</title><path class="cls-1" d="M239.15,72c-21.09-.82-41.17-8.33-60.36-16.55S140.61,38.07,120,33.72c-13.24-2.81-28.38-3.2-39,4.63C70.71,45.89,67.39,58.9,65.61,71c-1.34,9.08-2.13,18.65,1.54,27.15C69.71,104,74.24,109,77.37,114.66c10.91,19.67,3.2,43.94-8.62,63.17-5.54,9-12,17.62-16.25,27.21s-6.26,20.58-2.5,30.37,12.55,17,22.13,22.11c19.45,10.41,42.37,13.38,64.72,15.09,49.47,3.73,99.21,2.11,148.82.49,18.36-.6,36.8-1.2,54.86-4.34,10-1.74,20.38-4.5,27.66-11.16,9.24-8.47,11.53-22.8,5.34-33.41-10.39-17.8-39.11-22.22-46.39-41.32-4-10.53.11-22.22,5.92-32,12.46-20.91,33.35-39.27,34.44-63.17.75-16.43-9.29-32.87-24.81-40.64-16.27-8.15-38.84-7.12-50.85,6.36C279.49,67.32,257.77,72.66,239.15,72Z" transform="translate(-48.01 -31.88)"/><path class="cls-2" d="M192.59,104.33l-.87.31L182,77.38c-3.11-8.75-13.21-13.15-22.55-9.84h0l-62,22c-9.34,3.32-14.4,13.11-11.29,21.86h0l53.37,150.28c3.11,8.75,13.2,13.16,22.55,9.84l62-22c9.35-3.32,14.41-13.1,11.3-21.85L198.6,124l.87-.31Z" transform="translate(-48.01 -31.88)"/><path class="cls-3" d="M177.86,77.64l53.64,151c2.32,6.53-1.46,13.84-8.44,16.32h0l-62.14,22.07c-7,2.48-14.52-.81-16.85-7.35l-53.63-151c-2.09-5.9,1.31-12.48,7.61-14.72l8.77-3.11a5.74,5.74,0,0,0,2,4.73,6.43,6.43,0,0,0,5.92,1.06l36.16-12.84a6.47,6.47,0,0,0,3.93-4.56,5.81,5.81,0,0,0-1.44-4.93l9.3-3.3C169,68.78,175.77,71.75,177.86,77.64Z" transform="translate(-48.01 -31.88)"/><path class="cls-2" d="M184.72,110.68l-24.6,8.74a6.68,6.68,0,0,0-4.05,8.51l6,16.75a6.69,6.69,0,0,0,8.52,4.06L195.13,140a6.68,6.68,0,0,0,4.05-8.51l-6-16.76A6.68,6.68,0,0,0,184.72,110.68Zm7.74,18.48a6.69,6.69,0,0,1-4.05,8.52l-14.14,5a6.68,6.68,0,0,1-8.51-4.06l-3-8.37a6.69,6.69,0,0,1,4.05-8.52l14.14-5a6.68,6.68,0,0,1,8.51,4Z" transform="translate(-48.01 -31.88)"/><path class="cls-2" d="M99,148.2l6,16.76a6.69,6.69,0,0,0,8.52,4L138,160.28a6.7,6.7,0,0,0,4.05-8.52l-6-16.75a6.68,6.68,0,0,0-8.51-4L103,139.69A6.68,6.68,0,0,0,99,148.2Zm6.73,2.33a6.68,6.68,0,0,1,4.05-8.51l14.14-5a6.68,6.68,0,0,1,8.51,4.05l3,8.38a6.68,6.68,0,0,1-4.06,8.51l-14.14,5a6.69,6.69,0,0,1-8.51-4.05Z" transform="translate(-48.01 -31.88)"/><path class="cls-2" d="M158.79,138.77A16.92,16.92,0,0,0,141.4,145c-1.13,1.45-3,2.35-4.6,1.68l-2-.95c-1.53-.66-1.8-3.48,0-5.78a25.3,25.3,0,0,1,26-9.23c2.83.67,4.4,3,3.61,4.51l-.94,2C162.62,138.68,160.58,139.19,158.79,138.77Z" transform="translate(-48.01 -31.88)"/><image width="1000" height="377" transform="translate(51.99 75.21) rotate(-20.65) scale(0.07)" xlink:href="../../../../../../../Downloads/1_U01ubQ9TrE1Zow5pkGHTfw.png"/><path class="cls-4" d="M263.48,168.71V148.2h10.24c-6.91-34.58-28.61-61-55.44-66.39V96.3H197.76V81.89c-26.64,5.55-48.15,31.91-55,66.31h9.82v20.51H140.47c0,1,0,2.09,0,3.13,0,50.28,30.36,91,67.81,91s67.79-40.75,67.79-91c0-1,0-2.1,0-3.13Z" transform="translate(-48.01 -31.88)"/><path class="cls-5" d="M194.62,151.76a16.74,16.74,0,0,1-33.48,0c0-9.25,7.5-13.81,16.74-13.81S194.62,142.51,194.62,151.76Z" transform="translate(-48.01 -31.88)"/><path class="cls-6" d="M192.74,151.76a14.86,14.86,0,0,1-29.72,0c0-8.21,6.65-11.93,14.86-11.93S192.74,143.55,192.74,151.76Z" transform="translate(-48.01 -31.88)"/><circle class="cls-7" cx="140.15" cy="64.39" r="3.11"/><path class="cls-5" d="M221.41,151.76a16.75,16.75,0,0,0,33.49,0c0-9.25-7.5-13.81-16.75-13.81S221.41,142.51,221.41,151.76Z" transform="translate(-48.01 -31.88)"/><path class="cls-6" d="M223.29,151.76a14.86,14.86,0,1,0,29.71,0v0c0-8.21-6.65-11.93-14.85-11.93S223.29,143.55,223.29,151.76Z" transform="translate(-48.01 -31.88)"/><circle class="cls-8" cx="141.19" cy="75.69" r="3.11"/><circle class="cls-6" cx="140.1" cy="64.45" r="2.49"/><circle class="cls-6" cx="141.02" cy="75.6" r="2.49"/><circle class="cls-9" cx="140.15" cy="85.73" r="3.11"/><circle class="cls-6" cx="140.1" cy="85.65" r="2.49"/><ellipse class="cls-10" cx="120.69" cy="77.36" rx="2.28" ry="3.11"/><ellipse class="cls-6" cx="120.66" cy="77.28" rx="1.82" ry="2.49"/><ellipse class="cls-11" cx="120.69" cy="88.04" rx="2.28" ry="3.11"/><ellipse class="cls-6" cx="120.66" cy="87.95" rx="1.82" ry="2.49"/><ellipse class="cls-12" cx="107.82" cy="92.64" rx="1.12" ry="3.11"/><ellipse class="cls-6" cx="107.8" cy="92.55" rx="0.9" ry="2.49"/><ellipse class="cls-13" cx="104.47" cy="106.03" rx="1.12" ry="3.11"/><ellipse class="cls-6" cx="104.46" cy="105.95" rx="0.9" ry="2.49"/><ellipse class="cls-14" cx="98.4" cy="150.19" rx="1.12" ry="3.11"/><ellipse class="cls-6" cx="98.39" cy="150.1" rx="0.9" ry="2.49"/><ellipse class="cls-15" cx="102.17" cy="169.66" rx="1.12" ry="3.11"/><ellipse class="cls-6" cx="102.15" cy="169.57" rx="0.9" ry="2.49"/><ellipse class="cls-16" cx="111.17" cy="189.33" rx="1.12" ry="3.11"/><ellipse class="cls-6" cx="111.15" cy="189.24" rx="0.9" ry="2.49"/><ellipse class="cls-17" cx="223.57" cy="150.19" rx="1.12" ry="3.11"/><ellipse class="cls-6" cx="223.58" cy="150.1" rx="0.9" ry="2.49"/><ellipse class="cls-18" cx="219.8" cy="169.66" rx="1.12" ry="3.11"/><ellipse class="cls-6" cx="219.81" cy="169.57" rx="0.9" ry="2.49"/><ellipse class="cls-19" cx="210.8" cy="189.33" rx="1.12" ry="3.11"/><ellipse class="cls-6" cx="210.81" cy="189.24" rx="0.9" ry="2.49"/><ellipse class="cls-20" cx="201.28" cy="77.36" rx="2.28" ry="3.11"/><ellipse class="cls-6" cx="201.31" cy="77.28" rx="1.82" ry="2.49"/><ellipse class="cls-21" cx="201.28" cy="88.04" rx="2.28" ry="3.11"/><ellipse class="cls-6" cx="201.31" cy="87.95" rx="1.82" ry="2.49"/><ellipse class="cls-22" cx="214.15" cy="92.64" rx="1.12" ry="3.11"/><ellipse class="cls-6" cx="214.16" cy="92.55" rx="0.9" ry="2.49"/><ellipse class="cls-23" cx="217.5" cy="106.03" rx="1.12" ry="3.11"/><ellipse class="cls-6" cx="217.51" cy="105.95" rx="0.9" ry="2.49"/><circle class="cls-24" cx="152.91" cy="88.87" r="3.11"/><circle class="cls-25" cx="179.91" cy="86.36" r="3.11"/><circle class="cls-26" cx="179.91" cy="66.9" r="3.11"/><circle class="cls-27" cx="167.77" cy="88.87" r="3.11"/><circle class="cls-28" cx="179.91" cy="76.74" r="3.11"/><circle class="cls-6" cx="152.91" cy="88.87" r="2.49"/><circle class="cls-6" cx="167.84" cy="88.87" r="2.49"/><circle class="cls-6" cx="179.91" cy="86.39" r="2.49"/><circle class="cls-6" cx="179.91" cy="76.8" r="2.49"/><circle class="cls-6" cx="179.91" cy="66.94" r="2.49"/><polygon class="cls-5" points="141.15 96.23 160.55 99.7 178.87 97.97 160.98 108.37 141.15 96.23"/><polygon class="cls-29" points="141.15 95.81 160.55 99.28 178.87 97.54 160.98 107.95 141.15 95.81"/><circle class="cls-30" cx="150.88" cy="189.35" r="3.32"/><circle class="cls-31" cx="130.38" cy="190.14" r="3.25"/><circle class="cls-32" cx="138.42" cy="189.35" r="3.25"/><circle class="cls-33" cx="149.93" cy="202.12" r="3.32"/><circle class="cls-34" cx="169.01" cy="202.12" r="3.25"/><circle class="cls-35" cx="169.01" cy="211.27" r="3.57"/><circle class="cls-36" cx="150.88" cy="211.27" r="3.47"/><circle class="cls-37" cx="169.01" cy="189.35" r="3.25"/><circle class="cls-38" cx="181.62" cy="190.14" r="3.32"/><circle class="cls-39" cx="189.66" cy="194.08" r="3.41"/><circle class="cls-6" cx="150.88" cy="189.35" r="2.9"/><circle class="cls-6" cx="138.38" cy="189.35" r="2.9"/><circle class="cls-6" cx="130.45" cy="190.13" r="2.9"/><circle class="cls-6" cx="169.07" cy="189.35" r="2.9"/><circle class="cls-6" cx="181.57" cy="190.13" r="2.9"/><circle class="cls-6" cx="189.61" cy="194.15" r="2.9"/><circle class="cls-6" cx="169.07" cy="202.08" r="2.9"/><circle class="cls-6" cx="169.07" cy="211.23" r="2.9"/><circle class="cls-6" cx="149.87" cy="202.08" r="2.9"/><circle class="cls-6" cx="150.88" cy="211.23" r="2.9"/><path class="cls-5" d="M163.13,199l5.58,4.49s5.95-20.49,7.4-21.34C176.11,182.1,163.5,196.54,163.13,199Z" transform="translate(-48.01 -31.88)"/><path class="cls-29" d="M162.92,198.75l5.58,4.49s5.95-20.49,7.4-21.34C175.9,181.89,163.29,196.33,162.92,198.75Z" transform="translate(-48.01 -31.88)"/><path class="cls-5" d="M253.53,197.5,248,202s-5.94-20.49-7.4-21.35C240.55,180.64,253.17,195.07,253.53,197.5Z" transform="translate(-48.01 -31.88)"/><path class="cls-29" d="M253.74,197.08l-5.58,4.49s-5.95-20.49-7.4-21.34C240.76,180.22,253.37,194.66,253.74,197.08Z" transform="translate(-48.01 -31.88)"/><path class="cls-40" d="M200.64,194.12a3.64,3.64,0,0,1,3.65,3.65v15.67a3.65,3.65,0,0,1-7.3,0V197.77a3.64,3.64,0,0,1,3.65-3.65Z" transform="translate(-48.01 -31.88)"/><path class="cls-40" d="M192.3,175.28c0,.14,0,.28,0,.42v23.74a4.56,4.56,0,0,0,4.53,4.61H221a4.56,4.56,0,0,0,4.53-4.61V175.7c0-.14,0-.28,0-.42Z" transform="translate(-48.01 -31.88)"/><path class="cls-40" d="M217.12,194.12a3.64,3.64,0,0,1,3.65,3.65v15.67a3.65,3.65,0,0,1-7.3,0V197.77a3.64,3.64,0,0,1,3.65-3.65Zm-30.71-16.73a3.65,3.65,0,0,1,3.65,3.65v15.67a3.65,3.65,0,0,1-7.3,0V181a3.66,3.66,0,0,1,3.65-3.65Zm44.94,0A3.66,3.66,0,0,1,235,181v15.67a3.65,3.65,0,0,1-7.3,0V181a3.65,3.65,0,0,1,3.65-3.65Zm-38.94-3.67c.1-7.29,6.47-13.27,14.63-14.06h3.68c8.16.79,14.53,6.77,14.63,14.06Z" transform="translate(-48.01 -31.88)"/><path class="cls-41" d="M193.68,159l3.85,6.67M224.08,159l-3.85,6.67" transform="translate(-48.01 -31.88)"/><path class="cls-3" d="M204,167.19a1.89,1.89,0,0,1-3.78,0h0a1.89,1.89,0,0,1,3.78,0Zm14.11,0a1.89,1.89,0,0,1-3.78,0h0a1.89,1.89,0,0,1,3.78,0Z" transform="translate(-48.01 -31.88)"/></svg>