<svg id="Layer_1" data-name="Layer 1" xmlns="http://www.w3.org/2000/svg" xmlns:xlink="http://www.w3.org/1999/xlink" viewBox="0 0 373.91 295.5"><defs><style>.cls-1,.cls-3{fill:#6c63ff;}.cls-1,.cls-9{opacity:0.1;}.cls-1,.cls-14,.cls-6,.cls-9{isolation:isolate;}.cls-2{fill:#f8f9fa;}.cls-16,.cls-4,.cls-5{fill:none;}.cls-4,.cls-5{stroke:#535461;}.cls-16,.cls-17,.cls-4,.cls-5{stroke-miterlimit:10;}.cls-16,.cls-5{stroke-width:2px;}.cls-6{opacity:0.25;}.cls-7{fill:#dbaca2;}.cls-8{fill:#e8c2b8;}.cls-10{fill:#ebecf0;}.cls-11{fill:url(#linear-gradient);}.cls-12{fill:#ffd5d8;}.cls-13{fill:#ff7c5e;}.cls-14{opacity:0.05;}.cls-15{fill:#85596b;}.cls-16{stroke:#6c63ff;}.cls-17{fill:#fcfcfc;stroke:#000;}</style><linearGradient id="linear-gradient" x1="230.58" y1="50.3" x2="230.58" y2="141.7" gradientTransform="matrix(1, 0, 0, -1, -71.39, 269.77)" gradientUnits="userSpaceOnUse"><stop offset="0" stop-color="gray" stop-opacity="0.25"/><stop offset="0.54" stop-color="gray" stop-opacity="0.12"/><stop offset="1" stop-color="gray" stop-opacity="0.1"/></linearGradient></defs><title>what-8</title><path class="cls-1" d="M358.91,201.2c-14.61,10.86-15.87,32.18-13.36,50.22.84,6,1.9,12.47-.65,18-3.12,6.77-10.86,10.23-18.26,11.18a43.7,43.7,0,0,1-36.9-13.37c-8-8.6-12.24-20.2-20.48-28.58-13.79-14-35.6-16.06-55.17-14.3-13.85,1.24-29.25,3.56-40.43-4.7-7.87-5.82-11.67-15.81-12.59-25.55-.44-4.71-.36-9.64-2.48-13.85a22.37,22.37,0,0,0-5.35-6.44c-19.18-17-48.78-18.75-67-36.78-12.31-12.19-17.4-30.25-17.12-47.56s5.37-34.17,11-50.58c4-11.65,8.73-23.94,18.79-31C109.49.38,124.22.51,136.15,5.73S157.56,20.56,165.37,31c9.77,13,18,28.15,32.13,36.19,9.65,5.5,20.93,7,31.74,9.39,18.09,4,35.44,10.73,52.64,17.61,16.47,6.58,33,13.4,47.7,23.34,10.39,7,17.65,16.62,27.13,24.53,6.17,5.16,13.62,8.14,19.18,14.07,6.85,7.31,12,18.19,7.07,27.94C378.29,193.31,366.66,195.43,358.91,201.2Z" transform="translate(-11 -2)"/><circle class="cls-2" cx="189.16" cy="63.41" r="0.73"/><circle class="cls-2" cx="191.1" cy="63.41" r="0.73"/><circle class="cls-2" cx="193.05" cy="63.41" r="0.73"/><path class="cls-3" d="M13.52,201.72S-4,229.1,53.46,229.58c0,0,.85-23.84-17.94-33.65a16.85,16.85,0,0,0-21.73,5.38Z" transform="translate(-11 -2)"/><path class="cls-4" d="M13.65,201.26s29.44,5.8,39.81,28.32" transform="translate(-11 -2)"/><path class="cls-5" d="M56,225.89s-18.9-24.43-17.18-48.5a46.93,46.93,0,0,0-7.14-28.73,79.54,79.54,0,0,0-8.88-11.31" transform="translate(-11 -2)"/><path class="cls-3" d="M23.82,122.17c1.31,3.38-1,15.58-1,15.58s-9.95-7.42-11.27-10.8a6.58,6.58,0,0,1,12.09-5.19C23.71,121.89,23.77,122,23.82,122.17Z" transform="translate(-11 -2)"/><path class="cls-3" d="M41.25,137C40.52,140.51,32,149.5,32,149.5s-4.32-11.64-3.59-15.21a6.57,6.57,0,0,1,12.94,2.32l-.06.32Z" transform="translate(-11 -2)"/><path class="cls-3" d="M53.31,169.13c-2.43,2.7-14.35,6.15-14.35,6.15s2.14-12.23,4.56-14.93a6.58,6.58,0,0,1,9.79,8.78Z" transform="translate(-11 -2)"/><path class="cls-3" d="M56.94,195.54C55,198.61,43.83,204,43.83,204s.05-12.41,2-15.48a6.57,6.57,0,1,1,11.27,6.77c0,.08-.09.15-.14.23Z" transform="translate(-11 -2)"/><path class="cls-3" d="M19.35,155.17c3.35,1.41,15.6-.56,15.6-.56S27.82,144.45,24.47,143a6.58,6.58,0,0,0-5.12,12.13Z" transform="translate(-11 -2)"/><path class="cls-3" d="M24,186c3.61.35,14.71-5.2,14.71-5.2s-9.85-7.54-13.47-7.89A6.57,6.57,0,1,0,23.66,186l.35,0Z" transform="translate(-11 -2)"/><path class="cls-3" d="M32.63,215.34c3.51.95,15.39-2.64,15.39-2.64s-8.44-9.1-12-10a6.57,6.57,0,0,0-3.68,12.62l.24.07Z" transform="translate(-11 -2)"/><path class="cls-6" d="M23.82,122.17c1.31,3.38-1,15.58-1,15.58s-9.95-7.42-11.27-10.8a6.58,6.58,0,0,1,12.09-5.19C23.71,121.89,23.77,122,23.82,122.17Z" transform="translate(-11 -2)"/><path class="cls-6" d="M41.25,137C40.52,140.51,32,149.5,32,149.5s-4.32-11.64-3.59-15.21a6.57,6.57,0,0,1,12.94,2.32l-.06.32Z" transform="translate(-11 -2)"/><path class="cls-6" d="M53.31,169.13c-2.43,2.7-14.35,6.15-14.35,6.15s2.14-12.23,4.56-14.93a6.58,6.58,0,0,1,9.79,8.78Z" transform="translate(-11 -2)"/><path class="cls-6" d="M56.94,195.54C55,198.61,43.83,204,43.83,204s.05-12.41,2-15.48a6.57,6.57,0,1,1,11.27,6.77c0,.08-.09.15-.14.23Z" transform="translate(-11 -2)"/><path class="cls-6" d="M19.35,155.17c3.35,1.41,15.6-.56,15.6-.56S27.82,144.45,24.47,143a6.58,6.58,0,0,0-5.12,12.13Z" transform="translate(-11 -2)"/><path class="cls-6" d="M24,186c3.61.35,14.71-5.2,14.71-5.2s-9.85-7.54-13.47-7.89A6.57,6.57,0,1,0,23.66,186l.35,0Z" transform="translate(-11 -2)"/><path class="cls-6" d="M32.63,215.34c3.51.95,15.39-2.64,15.39-2.64s-8.44-9.1-12-10a6.57,6.57,0,0,0-3.68,12.62l.24.07Z" transform="translate(-11 -2)"/><path class="cls-1" d="M174.93,179c-6.72-.15-13.94.18-19.28,2.83-9.9,4.88-8.57,14.8-15,21.68-5.45,5.8-15.87,8.82-26,10.74-16.47,3.14-33.74,4.32-50.09,7.69-9.64,2-19.21,4.87-25.82,9.82s-9.57,12.32-5.1,18.17c4.13,5.4,13.23,8.3,21.51,11.1s17.07,6.47,19.38,12.31c1.28,3.25.32,6.76,1.82,10,3,6.33,14,9.31,24,10.93,8,1.29,16,2.24,24.17,2.83a90.46,90.46,0,0,0,19.54-.2c5.53-.81,10.65-2.48,15.95-3.76,33.68-8.2,72.42-1.11,106.78-8.05,6.25-1.26,12.4-3,17.14-5.92a31.25,31.25,0,0,0,8.36-7.63c5.61-7.07,8.68-15,8.92-23,.14-4.76-.71-9.58.6-14.28,1.37-4.89,5-9.38,7-14.19,3.54-8.73,1.07-18.39-6.63-26a24.8,24.8,0,0,0-9.84-6.11,52.69,52.69,0,0,0-10-1.77c-9.55-1-19.22-2.07-28.85-1.49-6.86.42-13.57,1.65-20.44,1.88-9.65.31-17.21-1.91-26-4A157.19,157.19,0,0,0,174.93,179Z" transform="translate(-11 -2)"/><polygon class="cls-7" points="42.49 104.69 42.49 199.29 168.36 174.84 165.95 102.29 42.49 104.69"/><polygon class="cls-8" points="279.09 216.23 279.09 247.49 146.01 286.38 144.65 285.67 39.38 231.06 39.38 101.79 169.66 97.58 170.46 169.33 165.25 170.93 163.24 103.82 48.6 107.8 47.8 205 147.61 248.7 147.69 248.68 279.09 216.23"/><polygon class="cls-9" points="279.09 216.23 279.09 247.49 146.01 286.38 144.65 285.67 147.69 248.68 279.09 216.23"/><path class="cls-10" d="M129.65,172.83S65.22,179.26,59,188.57s-.05,20.74-.05,20.74l99.61,43.29L293.6,217.73s-3.6-24.46-14.83-27.26-100.62-22.05-100.62-22.05S142.08,166.22,129.65,172.83Z" transform="translate(-11 -2)"/><path class="cls-2" d="M58.9,188.66l101.62,35.08S268.9,190.87,284.26,194c0,0-75.82-27.14-106.11-26a493,493,0,0,0-49.4,4.9S61.71,179.65,58.9,188.66Z" transform="translate(-11 -2)"/><path class="cls-11" d="M215.25,211.23h0l0,0v0l0,0v-.27h0v-.55l0-.09h0l0-.1v0l0-.07v0l0-.07,0,0,0-.07,0,0,0-.07,0,0,0-.08,0,0-.05-.11h0l-.07-.12,0,0,0-.08,0-.05-.05-.07,0,0-.05-.08-.08-.12-.05-.08,0-.05-.05-.08,0-.05-.07-.11v0l-.09-.14,0,0-.06-.1,0,0-.06-.08,0-.06-.06-.08,0-.06-.07-.07,0,0-.07-.09,0-.05-.09-.12v0l-.1-.14,0,0-.07-.09-.05-.06-.06-.09-.05-.06-.06-.08-.05-.06-.06-.09-.05-.05-.07-.1,0-.05-.09-.1,0,0h0c-.31-.4-.64-.81-1-1.19a11,11,0,0,0-7.46-3.87l-.91-.1h-.13l-.23,0H203l-.35-.05h0l-.34,0-.12,0-.23,0-.15,0-.21,0-.15,0-.21,0-.15,0-.21-.05-.16,0-.2-.05-.16,0-.2-.06h0a7.28,7.28,0,0,0-4.24-3.25,3.16,3.16,0,0,0-1.3.06l-.08-.08-.1-.12-.14-.18-.1-.12-.14-.21-.08-.1-.21-.32a2.47,2.47,0,0,0-.65-.21,58.4,58.4,0,0,0,9.23-2.18,2.27,2.27,0,0,0,.41-.21l.07,0c2.62-1,5.84-10.26,3.57-11.56s-5.72-12-7.74-17.52-7.87-6.08-7.87-6.08-8.46-6.55-12.27-5.84-4.41-5-4.77-5.24a.29.29,0,0,1-.1-.12c-.92-1.44-8.23-3.36-12.18-4.31a37.15,37.15,0,0,0-12.17-5.86,8.36,8.36,0,0,0-7.27,1.45c-7.81.4-9.05,6.3-9.05,6.3a5.79,5.79,0,0,0,.41,2.36,10.64,10.64,0,0,1-1.26-.07c.9-1.5.93-3.42,1.61-5.07,1.33-3.25,5-4.93,8.48-5.37,2-.25,4.25-.25,5.85-1.52a4.46,4.46,0,0,0,1.58-2.62.89.89,0,0,0-.06-.68,1,1,0,0,0-.38-.31c-2.09-1.11-4.62-.82-7-.88-3.87-.08-7.63-1.14-11.36-2.12-1.58-.41-3.29-.81-4.82-.23s-2.43,1.87-3.58,2.89c-4.74,4.18-12.61,3.58-16.83,8.29a4.6,4.6,0,0,0-1.35,4c.15.58.47,1.11.57,1.7.21,1.17-.46,2.29-1,3.33s-1.06,2.31-.53,3.37c.8,1.62,3.25,1.5,4.53,2.78.59.6.87,1.46,1.49,2,1,.91,2.5.83,3.84.7.53,0,1.31-.19,1.6-.65a9.17,9.17,0,0,0,14.44-2.48,13,13,0,0,1,8.13,2.2,5.73,5.73,0,0,0,1.91,2.69c.83.65,1.82,1.45,2.82,2.31-2.53.67-4.78,1.1-4.78,1.1s-10,3.22-10,5.36a2.5,2.5,0,0,0,.35,1.1,4.39,4.39,0,0,0-.42,1.7c-2.76-.46-5-1.17-6.12-2.2,0,0-.32-.09-.82-.19-.67-.86-2.65-3.25-3.82-3.15-.78.06-1.06,1.88-1.16,3.51a1.27,1.27,0,0,0-.27.3c-1.19,1.79,1,5.36,2.38,6s9.3.35,14.66,4.29c2.38,1.74,6.46,2.08,10.26,1.92-3.82,2.69-9.16,6.83-9.91,9.4a16.17,16.17,0,0,0-.84,4.79c-2.33,3.09-5.87,9.61,2.87,12.73,7.2,2.57,26.72,2.24,40.63,1.62,6.48,1.14,11.82,2.29,14.06,3.39,0,0,5.36.7,7.51,2s6.08,1,6.08,1,7.62,1.31,9.29,3,4.53-2.86,1-5c-1.4-.83-3.47-2.21-5.49-3.72,2.59.31,4.87.64,6.32,1l.15,0h1.1l0,0h0l0,0h0l.05,0h0ZM182.33,199.8l-2.5-.58-3-1.2s5.08-1.6,9.79-3.64a9.72,9.72,0,0,1,2.83,1.49.72.72,0,0,0,.49.26,15,15,0,0,0-6.7,4.17A5.19,5.19,0,0,1,182.33,199.8Zm-36-28.72,2.94-1.36c.64.54,1.32,1.06,2,1.56-1.61.1-3.78.2-6.23.27C145.8,171.3,146.35,171.08,146.35,171.08Z" transform="translate(-11 -2)"/><path class="cls-12" d="M121.3,168.81s-2.56-3.49-4-3.38-1.17,5.94-1.17,5.94Z" transform="translate(-11 -2)"/><path class="cls-13" d="M154.31,171.14s-27.29,2.22-32.42-2.45c0,0-4.79-1.28-6,.47s.93,5.25,2.33,5.83,9.1.35,14.35,4.2,19,.7,19,.7l5.72-2.21Z" transform="translate(-11 -2)"/><path class="cls-14" d="M154.31,171.14s-27.29,2.22-32.42-2.45c0,0-4.79-1.28-6,.47s.93,5.25,2.33,5.83,9.1.35,14.35,4.2,19,.7,19,.7l5.72-2.21Z" transform="translate(-11 -2)"/><path class="cls-12" d="M193.39,184.21s-5.83-4.2-17.84,1.06-42,8-42,8-10,10,1.42,14.11,54.59.71,54.59.71,17.61,1.17,23.09,2.45c3.32.78.71-3-1.89-6.06a10.72,10.72,0,0,0-7.3-3.79c-3.44-.29-8.22-1.37-10.41-5,0,0-4.2-2.1-10.49,4.2l-6.08-2.47s16.68-5.24,17.26-8.75S193.39,184.21,193.39,184.21Z" transform="translate(-11 -2)"/><path class="cls-14" d="M193.39,184.21s-5.83-4.2-17.84,1.06-42,8-42,8-10,10,1.42,14.11,54.59.71,54.59.71,17.61,1.17,23.09,2.45c2.91.68,1.26-2.12-.93-4.89a13.44,13.44,0,0,0-9-5c-3.36-.38-7.65-1.55-9.68-4.9,0,0-4.2-2.1-10.5,4.2l-6.08-2.47s16.68-5.24,17.26-8.75S193.39,184.21,193.39,184.21Z" transform="translate(-11 -2)"/><path class="cls-12" d="M193.51,167.64s-7.35-11.67-24.73-1.51L146.5,178.5s-12.38,7.82-13.53,11.79-2.92,10.73,9.21,13.29,40.37,5.84,46.31,8.75c0,0,5.25.71,7.35,2s5.95.93,5.95.93,7.47,1.29,9.1,2.92,4.43-2.8.94-4.9-11.43-7.7-11.32-9.9-2.69-6.1-5.38-6.57-6.18,3.49-6.18,3.49-4.43.71-7.12-1.06c0,0-13.76-3.15-15.16-4.08s-11-4.55-11-4.55,22.64-.23,29.28-6.3c0,0,2.57-1.86,4.66-1.28C189.66,183,200,179.07,193.51,167.64Z" transform="translate(-11 -2)"/><path class="cls-12" d="M127.37,145.71s6.65,4.67,11.78,0,2.22,14.35,2.22,14.35-7.12-9.45-17.73-3.26Z" transform="translate(-11 -2)"/><path class="cls-14" d="M127.37,145.71s6.65,4.67,11.78,0,2.22,14.35,2.22,14.35-7.12-9.45-17.73-3.26Z" transform="translate(-11 -2)"/><path class="cls-2" d="M98.91,185.72s7-5.95,11-6.06c1.18,0,2.55-1.24,3.89-2.91a14.94,14.94,0,0,1,14.43-5.31,19.78,19.78,0,0,0,8.4-.42c12.25-3,6.18-10.61,6.18-10.61l-3.84-3.27s-5.25-3.61-7.24-3.38-7.11,5.48-7.7,4.9-7.7-5.83-8.86-7.23-10.51-6-8.17-7.24,14.11-6.06,11.78-7-14.94-2.33-19.84,3.5S96.45,182.34,98.91,185.72Z" transform="translate(-11 -2)"/><path class="cls-14" d="M98.91,185.72s7-5.95,11-6.06c1.18,0,2.55-1.24,3.89-2.91a14.94,14.94,0,0,1,14.43-5.31,19.78,19.78,0,0,0,8.4-.42c12.25-3,6.18-10.61,6.18-10.61l-3.84-3.27s-5.25-3.61-7.24-3.38-7.11,5.48-7.7,4.9-7.7-5.83-8.86-7.23-10.51-6-8.17-7.24,14.11-6.06,11.78-7-14.94-2.33-19.84,3.5S96.45,182.34,98.91,185.72Z" transform="translate(-11 -2)"/><path class="cls-2" d="M99.37,184.91s7-5.95,11-6.07c1.18,0,2.55-1.24,3.89-2.91a14.94,14.94,0,0,1,14.41-5.31,19.78,19.78,0,0,0,8.4-.42c12.25-3,6.18-10.61,6.18-10.61l-3.84-3.27s-5.25-3.61-7.24-3.38-7.11,5.48-7.7,4.9-7.7-5.83-8.86-7.23-10.49-6-8.16-7.22,14.11-6.06,11.78-7-14.93-2.33-19.83,3.5S96.92,181.52,99.37,184.91Z" transform="translate(-11 -2)"/><path class="cls-12" d="M133.55,145.48s1.87-8.87,15.52-5.37,20.41,11.08,20.41,11.08l-12.38,5.72-15.16-5.13S133.44,151.88,133.55,145.48Z" transform="translate(-11 -2)"/><path class="cls-14" d="M158.52,143.26s13.12,2.83,14.36,4.78a.58.58,0,0,0,.1.12c.36.23.94,5.83,4.67,5.13s12,5.72,12,5.72,5.72.58,7.7,5.94,5.37,15.87,7.58,17.15-.93,10.38-3.49,11.32-11.78,3.15-12.6,2-7.93-2.45-7.47-6.18,3.27-7.23,1.06-9.45-3.61-8.05-6.88-9.22-9.1-1.51-12.6.82a16.36,16.36,0,0,1-7.72,2.44s-7.23-4.2-8.4-7.12c-.79-2-4.7-5.25-7.17-7.19a5.65,5.65,0,0,1-2.16-4.24c-.1-2.88-.19-7.13.11-7.81.47-1.06,6.88-7.35,6.88-7.35Z" transform="translate(-11 -2)"/><path class="cls-13" d="M159,143s13.13,2.83,14.37,4.78a.53.53,0,0,0,.1.12c.35.23.93,5.83,4.66,5.13s12,5.71,12,5.71,5.71.59,7.7,5.95,5.36,15.87,7.58,17.15-.93,10.38-3.5,11.32-11.78,3.15-12.59,2-7.94-2.45-7.47-6.18,3.26-7.23,1.06-9.45-3.61-8.05-6.88-9.22-9.1-1.52-12.6.82a19.89,19.89,0,0,1-8.11,2.74s-6.82-4.49-8-7.41c-.78-2-4.69-5.25-7.16-7.19a5.65,5.65,0,0,1-2.16-4.24c-.11-2.88-.2-7.12.11-7.81.46-1.06,6.88-7.35,6.88-7.35Z" transform="translate(-11 -2)"/><path class="cls-12" d="M128.77,168.34c-.12.12-2.1,3,.23,4.66a5.24,5.24,0,0,0,4.55.81Z" transform="translate(-11 -2)"/><path class="cls-9" d="M140,142.91s3.15-6.3,9.9-4.66,16.56,7.58,18.9,13.53S159.91,165,159.91,165l-13.29,6.18s-4.09,1.63-5.25,1.06-6.77,4.43-6.77,4.43-6.3-6.07-6.3-8.17,9.8-5.27,9.8-5.27,11.67-2.22,11.55-4.43c0,0,2-2.34.93-3s-12.3-4-12.3-4S137.87,144.31,140,142.91Z" transform="translate(-11 -2)"/><path class="cls-13" d="M139.6,142.56s3.15-6.3,9.9-4.66,16.57,7.58,18.9,13.53-8.84,13.18-8.84,13.18l-13.29,6.18s-4.09,1.64-5.25,1.07-6.77,4.42-6.77,4.42-6.3-6.06-6.3-8.16,9.8-5.28,9.8-5.28,11.67-2.21,11.55-4.43c0,0,2-2.33.93-3s-12.3-4-12.3-4S137.52,144,139.6,142.56Z" transform="translate(-11 -2)"/><path class="cls-9" d="M124.69,155.62a14.64,14.64,0,0,1,6.23-2.06c.64-1.23-1-2.58-1-4.06,0-1.25-.48-1.72-.94-2.8-1.67-.61-.52-2.16-.52-2.16Z" transform="translate(-11 -2)"/><circle class="cls-12" cx="110.88" cy="148.61" r="8.98"/><path class="cls-15" d="M115.15,154.3a13.54,13.54,0,0,1,7.14-2.3,21.75,21.75,0,0,0,4.7-.67,17.85,17.85,0,0,0,2.53-1.12,8,8,0,0,0,2.93-2.1c1.16-1.5,1.12-3.59,1.84-5.35,1.31-3.18,4.91-4.83,8.33-5.26,2-.25,4.15-.25,5.72-1.49a4.37,4.37,0,0,0,1.55-2.56.75.75,0,0,0-.43-1c-2.06-1.09-4.52-.81-6.85-.86-3.78-.08-7.46-1.12-11.12-2.08a7.8,7.8,0,0,0-4.72-.22c-1.41.54-2.37,1.83-3.5,2.83-4.64,4.09-12.35,3.5-16.47,8.11a4.47,4.47,0,0,0-1.33,3.91c.15.57.46,1.09.56,1.67a5.29,5.29,0,0,1-1,3.26c-.55,1-1,2.26-.52,3.3.79,1.58,3.18,1.47,4.43,2.72.58.59.86,1.42,1.46,2,1,.89,2.45.82,3.76.71.71-.07,1.87-.3,1.66-1.25S114.53,155.35,115.15,154.3Z" transform="translate(-11 -2)"/><path class="cls-2" d="M112,159.66s6.12-4.6,10-3.09,4.9,2.33,7.35,1.41,3.5,1.87,3.5,1.87l-15.27,4.41Z" transform="translate(-11 -2)"/><path class="cls-14" d="M103.75,167.7s2.8-7.23,6.18-8.63" transform="translate(-11 -2)"/><path class="cls-14" d="M100.13,165.37s2.8-7.24,6.18-8.64" transform="translate(-11 -2)"/><path class="cls-14" d="M165.69,167.12s9.9-4.79,16.56-4.32,7.82-3.73,7.82-3.73" transform="translate(-11 -2)"/><path class="cls-3" d="M122.85,286.5a5.55,5.55,0,0,1-1.84-2.77,2.48,2.48,0,0,1,1.28-2.83c1.18-.45,2.44.35,3.4,1.19s2,1.77,3.3,1.59a5,5,0,0,1-1.55-4.7,1.88,1.88,0,0,1,.43-1c.65-.71,1.84-.4,2.62.15,2.48,1.77,3.18,5.14,3.2,8.18a15.79,15.79,0,0,0,.05-3.37,3.45,3.45,0,0,1,1.26-3,3.86,3.86,0,0,1,1.94-.46,4,4,0,0,1,3.13.89,3.12,3.12,0,0,1-.12,3.85,12.29,12.29,0,0,1-3.25,2.6,7.18,7.18,0,0,0-2.31,2.21,2,2,0,0,0-.18.4h-7A19.65,19.65,0,0,1,122.85,286.5Z" transform="translate(-11 -2)"/><path class="cls-3" d="M285,255a3.4,3.4,0,0,1-1.14-1.72,1.55,1.55,0,0,1,.8-1.77,2.26,2.26,0,0,1,2.12.74,2.79,2.79,0,0,0,2.05,1,3.14,3.14,0,0,1-1-2.92,1.31,1.31,0,0,1,.27-.6c.41-.43,1.15-.25,1.64.1,1.55,1.09,2,3.18,2,5.09a10.52,10.52,0,0,0,0-2.1,2.11,2.11,0,0,1,.79-1.85,2.37,2.37,0,0,1,1.2-.29,2.5,2.5,0,0,1,1.95.56,1.93,1.93,0,0,1-.08,2.39,7.59,7.59,0,0,1-2,1.62,4.49,4.49,0,0,0-1.44,1.37,1.09,1.09,0,0,0-.1.25h-4.39A12.24,12.24,0,0,1,285,255Z" transform="translate(-11 -2)"/><path class="cls-16" d="M197.14,66.85a37.75,37.75,0,1,1,17.52,14.07,12.22,12.22,0,1,1-17.52-14.07Z" transform="translate(-11 -2)"/><circle class="cls-16" cx="141" cy="122" r="4"/><circle class="cls-16" cx="152.5" cy="110.5" r="7.5"/><circle class="cls-16" cx="169" cy="94" r="11"/><circle class="cls-17" cx="105.5" cy="139.5" r="19.5"/><image width="1000" height="377" transform="translate(89.04 134) rotate(0.19) scale(0.03)" xlink:href="../../../../../../../Downloads/1_U01ubQ9TrE1Zow5pkGHTfw.png"/><image width="2000" height="1283" transform="translate(185 22) scale(0.03)" xlink:href="../../../../../../../Downloads/CableFree-Wi-Fi_Logo.png"/></svg>