<svg id="Layer_1" data-name="Layer 1" xmlns="http://www.w3.org/2000/svg" xmlns:xlink="http://www.w3.org/1999/xlink" viewBox="0 0 389.45 270.5"><defs><style>.cls-1,.cls-9{fill:none;}.cls-1{stroke:#3f3d56;stroke-miterlimit:10;}.cls-2{fill:#6c63ff;}.cls-3{fill:#f2f2f2;}.cls-4{fill:#ffc1c7;}.cls-5{fill:#3f3d56;}.cls-6{fill:#2f2e41;}.cls-7{opacity:0.1;isolation:isolate;}.cls-8{fill:#a4c639;}.cls-9{stroke:#a4c639;stroke-linecap:round;stroke-linejoin:round;stroke-width:3px;}.cls-10{fill:#fff;}</style></defs><title>what-6</title><path class="cls-1" d="M138.07,211.13a9.1,9.1,0,0,0-7.85,5.49c-2,4.74.56,10.31,4.35,13.77s8.67,5.44,13.1,8c5.94,3.49,11.29,8.34,14.26,14.56s3.3,13.92-.2,19.87c-3.25,5.51-9.15,8.81-14.78,11.86" transform="translate(-6.01 -29)"/><ellipse class="cls-2" cx="137.06" cy="182.54" rx="6.93" ry="3.37"/><ellipse class="cls-2" cx="142.6" cy="204.73" rx="6.93" ry="3.37"/><ellipse class="cls-2" cx="129.92" cy="208.3" rx="6.93" ry="3.37"/><ellipse class="cls-2" cx="149.73" cy="226.92" rx="6.93" ry="3.37"/><path class="cls-2" d="M210.66,46.15c-7.46-.31-14.57-3.15-21.36-6.26s-13.52-6.55-20.8-8.2c-4.69-1.06-10.05-1.21-13.82,1.76s-4.81,7.77-5.44,12.33c-.48,3.44-.76,7,.55,10.27.9,2.23,2.5,4.11,3.61,6.25,3.86,7.44,1.13,16.62-3.05,23.89-2,3.41-4.24,6.66-5.75,10.29s-2.22,7.78-.89,11.48,4.45,6.42,7.84,8.36c6.88,3.94,15,5.06,22.9,5.7,17.52,1.41,35.12.8,52.68.19a132.75,132.75,0,0,0,19.42-1.64c3.54-.66,7.21-1.7,9.79-4.22a10.88,10.88,0,0,0,1.89-12.63c-3.68-6.73-13.85-8.4-16.42-15.63-1.41-4,0-8.4,2.09-12.09,4.41-7.91,11.81-14.85,12.19-23.89a17,17,0,0,0-8.78-15.36c-5.76-3.08-13.75-2.69-18,2.4C224.94,44.4,217.25,46.42,210.66,46.15Z" transform="translate(-6.01 -29)"/><image width="850" height="477" transform="translate(152.99 20) scale(0.1)" xlink:href="../../../../../../../Downloads/ios-app%20(1).png"/><ellipse class="cls-3" cx="189.35" cy="261.98" rx="53.09" ry="8.52"/><ellipse class="cls-1" cx="193.51" cy="257.03" rx="53.09" ry="8.52"/><ellipse class="cls-2" cx="163.6" cy="226.92" rx="6.93" ry="3.37"/><path class="cls-4" d="M230.43,138.25s.79,5.94-1.19,8.32-5.15,18.22-5.15,18.22v9.51s12.28-17.83,14.66-25a19.22,19.22,0,0,0,0-12.68Z" transform="translate(-6.01 -29)"/><path class="cls-5" d="M229.24,108.93l.17.19a25,25,0,0,1,4.73,7.84c2.6,6.9,8.2,23.93,6.19,25.64-2.77,2.38-10.7,4-11.09,3.57s-8.32-25-8.32-25Z" transform="translate(-6.01 -29)"/><path class="cls-5" d="M216.36,277.31s9.51,2,9.91,0a15.37,15.37,0,0,1,1.19-3.56s8.61.36,6.36,7.91a3.13,3.13,0,0,1-1.38,1.79c-2.05,1.25-6.89,4.21-9.34,5.75-1.85,1.15-4.5.29-6.39-.63a3.41,3.41,0,0,1-1.85-3.75Z" transform="translate(-6.01 -29)"/><path class="cls-5" d="M189,278.5s-9.5,2-9.9,0a15.37,15.37,0,0,0-1.19-3.56s-8.6.35-6.37,7.89a3.22,3.22,0,0,0,1.4,1.82c2.07,1.26,6.88,4.21,9.33,5.74,2,1.26,5,.11,6.91-.89a2.78,2.78,0,0,0,1.43-3Z" transform="translate(-6.01 -29)"/><path class="cls-4" d="M177.14,143.4s-.79,5.94,1.19,8.32,5.15,11.49,5.15,11.49v9.51s-12.28-11.1-14.66-18.23a19.15,19.15,0,0,1,0-12.68Z" transform="translate(-6.01 -29)"/><circle class="cls-4" cx="198.86" cy="55.76" r="9.91"/><path class="cls-4" d="M212.8,88.72S210,101.4,212.8,103s-16.64,0-16.64,0,4.35-10.69,2.37-14.26S212.8,88.72,212.8,88.72Z" transform="translate(-6.01 -29)"/><path class="cls-6" d="M222.31,173.11s3.56,5.15,2.37,21-2.37,32.49-2.37,32.49,8.71,49.92,5.94,51.11-11.89,2.38-13.08,1.19-6.73-47.55-6.73-47.55l-5.15-38-7.93,43.58s-4.35,42.39-7.52,44.37c-2.27,1.42-6.76.41-9.14-.29a2.06,2.06,0,0,1-1.5-2.07c.29-6.67,1.6-33,4.69-49.14,3.57-18.62-3.56-55.87,2.78-56.66S222.31,173.11,222.31,173.11Z" transform="translate(-6.01 -29)"/><path class="cls-5" d="M194.57,101.4s1.59-7.13,7.53-6.34,9.9.4,11.09,4.36,13.87,7.13,13.87,7.13,3.17.4,2.77,5.55-8.32,24.17-8.32,24.17.4,15.84,2.38,23,2,15.84-2.38,17.82-31.69,9.12-38,.4c0,0-3.57-12.68-1.19-17.83s-.4-25.36-.4-25.36l-7.53-16.64s2.38-7.92,9.12-10.3A40.36,40.36,0,0,0,194.57,101.4Z" transform="translate(-6.01 -29)"/><path class="cls-5" d="M177.53,114.08l-3.17,3.56s-9.5,23.38-6.73,25.76,10.7,4,11.09,3.56,7.13-20.6,7.13-20.6Z" transform="translate(-6.01 -29)"/><path class="cls-6" d="M216.36,78.82a6.16,6.16,0,0,0-2,4c-.4,2.77-2.83-1.58-3.39,4.16s-10.08,9.71-13.65,6.93-9.5-20.2-1.18-23,16.64-2.37,18.22.4S216.36,78.82,216.36,78.82Z" transform="translate(-6.01 -29)"/><path class="cls-7" d="M208.61,86.94c.56-5.74,3-1.39,3.39-4.16a6.16,6.16,0,0,1,2-4s-.39-4.76-2-7.53c-.75-1.33-3.06-2.11-6.16-2.26,4.28-.2,7.6.61,8.54,2.26,1.59,2.77,2,7.53,2,7.53a6.16,6.16,0,0,0-2,4c-.4,2.77-2.83-1.58-3.39,4.16-.48,4.87-7.39,8.46-11.66,7.75C203.4,94.13,208.21,91,208.61,86.94Z" transform="translate(-6.01 -29)"/><path class="cls-2" d="M73.66,44.15C66.2,43.84,59.09,41,52.3,37.89s-13.52-6.55-20.8-8.2c-4.69-1.06-10-1.21-13.82,1.76s-4.81,7.77-5.44,12.33c-.48,3.44-.76,7,.55,10.27.9,2.23,2.5,4.11,3.61,6.25,3.86,7.44,1.13,16.62-3,23.89-2,3.41-4.24,6.66-5.75,10.29S5.38,102.26,6.71,106s4.45,6.42,7.84,8.36c6.88,3.94,15,5.06,22.9,5.7,17.52,1.41,35.12.8,52.68.19a132.75,132.75,0,0,0,19.42-1.64c3.54-.66,7.21-1.7,9.79-4.22a10.88,10.88,0,0,0,1.89-12.63c-3.68-6.73-13.85-8.4-16.42-15.63-1.41-4,0-8.4,2.09-12.09,4.41-7.91,11.81-14.85,12.19-23.89a17,17,0,0,0-8.78-15.36c-5.76-3.08-13.75-2.69-18,2.4C87.94,42.4,80.25,44.42,73.66,44.15Z" transform="translate(-6.01 -29)"/><image width="1000" height="377" transform="matrix(0.07, 0, 0, 0.07, 24.07, 35)" xlink:href="../../../../../../../Downloads/1_U01ubQ9TrE1Zow5pkGHTfw.png"/><path class="cls-2" d="M346.66,46.15c-7.46-.31-14.57-3.15-21.36-6.26s-13.52-6.55-20.8-8.2c-4.69-1.06-10.05-1.21-13.82,1.76s-4.81,7.77-5.44,12.33c-.48,3.44-.76,7,.55,10.27.9,2.23,2.5,4.11,3.61,6.25,3.86,7.44,1.13,16.62-3,23.89-2,3.41-4.24,6.66-5.75,10.29s-2.22,7.78-.89,11.48,4.45,6.42,7.84,8.36c6.88,3.94,15,5.06,22.9,5.7,17.52,1.41,35.12.8,52.68.19a132.75,132.75,0,0,0,19.42-1.64c3.54-.66,7.21-1.7,9.79-4.22a10.88,10.88,0,0,0,1.89-12.63c-3.68-6.73-13.85-8.4-16.42-15.63-1.41-4,0-8.4,2.09-12.09,4.41-7.91,11.81-14.85,12.19-23.89a17,17,0,0,0-8.78-15.36c-5.76-3.08-13.75-2.69-18,2.4C360.94,44.4,353.25,46.42,346.66,46.15Z" transform="translate(-6.01 -29)"/><path class="cls-8" d="M329.06,91.73a4,4,0,0,1,4,3.9l.26,17a4,4,0,0,1-7.92.13l-.26-17a4,4,0,0,1,3.9-4Z" transform="translate(-6.01 -29)"/><path class="cls-8" d="M319.7,71.45c0,.15,0,.3,0,.45l.4,25.74a4.94,4.94,0,0,0,5,4.92l26.17-.41a4.93,4.93,0,0,0,4.83-5.07l-.39-25.74c0-.15,0-.3,0-.45l-35.95.56Z" transform="translate(-6.01 -29)"/><path class="cls-8" d="M346.92,91.45a4,4,0,0,1,4,3.9l.26,17a4,4,0,1,1-7.92.12l-.26-17a4,4,0,0,1,3.9-4ZM313.35,73.83a4,4,0,0,1,4,3.9l.26,17a4,4,0,1,1-7.92.12l-.26-17a4,4,0,0,1,3.9-4Zm48.72-.75a4,4,0,0,1,4,3.9l.26,17a4,4,0,0,1-7.92.12l-.26-17a4,4,0,0,1,3.9-4Zm-42.28-3.33c0-7.9,6.79-14.49,15.63-15.48l4-.06c8.87.71,15.87,7.09,16.1,15Z" transform="translate(-6.01 -29)"/><path class="cls-9" d="M320.92,53.73l4.29,7.17m28.67-7.68-4.07,7.3" transform="translate(-6.01 -29)"/><path class="cls-10" d="M332.22,62.48a2.05,2.05,0,0,1-4.1.07h0a2.05,2.05,0,0,1,4.1-.08Zm15.29-.24a2.05,2.05,0,0,1-4.1.07h0a2.05,2.05,0,0,1,4.1-.07Z" transform="translate(-6.01 -29)"/></svg>