<svg id="Layer_1" data-name="Layer 1" xmlns="http://www.w3.org/2000/svg" viewBox="0 0 296.9 250.44"><defs><style>.cls-1{fill:#6c63ff;}.cls-2{fill:#e6e6e6;}.cls-3{fill:#ffb8b8;}.cls-4{fill:#2f2e41;}.cls-5{fill:#fff;}</style></defs><title>what-5</title><path class="cls-1" d="M348.9,220.71c-.06,1.54-1.62,33.28-22.94,50.63-.89.72-1.82,1.42-2.78,2.1l-.73-.71h.42a1.88,1.88,0,0,0,1.88-1.88V208.28c.44-2.4.87-4.76,1.25-7.06,2.08-12.48,3-23,1.48-27.41.68,1.7,14.23,36.3,6.87,71.57C341.64,235.4,348.56,224.92,348.9,220.71Z" transform="translate(-52 -26)"/><path class="cls-2" d="M322.37,29.85H65.58A3.13,3.13,0,0,0,62.45,33V271a3.13,3.13,0,0,0,3.13,3.13H322.37a3.11,3.11,0,0,0,3.08-2.64,2.63,2.63,0,0,0,.05-.49V33A3.14,3.14,0,0,0,322.37,29.85ZM324.24,271a1.87,1.87,0,0,1-1.87,1.88H65.58A1.88,1.88,0,0,1,63.7,271V33a1.88,1.88,0,0,1,1.88-1.87H322.37A1.87,1.87,0,0,1,324.24,33Z" transform="translate(-52 -26)"/><path class="cls-2" d="M202.51,53.37c-.52,0-.95.91-.95,2v83.67c0,1.12.43,2,.95,2h90.76c.52,0,1-.91,1-2V55.39c0-1.11-.43-2-1-2Z" transform="translate(-52 -26)"/><path id="ed9c03b2-1449-4b71-9e3b-3c62ff7f07bc" class="cls-2" d="M95.31,53.21a1.51,1.51,0,0,0,0,3h71.21a1.51,1.51,0,0,0,.07-3H95.31Z" transform="translate(-52 -26)"/><path id="ac2fe172-b9d2-4839-b8ea-2891040e5ba3" class="cls-2" d="M95.31,67.38a1.51,1.51,0,0,0,0,3h71.21a1.51,1.51,0,0,0,.07-3H95.31Z" transform="translate(-52 -26)"/><path id="a98745e5-eae5-4ee7-991c-f32673123033" class="cls-2" d="M95.31,81.55a1.51,1.51,0,0,0,0,3h71.21a1.51,1.51,0,1,0,.07-3H95.31Z" transform="translate(-52 -26)"/><path id="bf8b9df3-8875-4369-b4ec-4c359de04021" class="cls-2" d="M95.31,95.72a1.51,1.51,0,0,0,0,3h71.21a1.51,1.51,0,0,0,0-3H95.31Z" transform="translate(-52 -26)"/><path id="b5eb4171-b419-4870-b9cb-48e35e493bb4" class="cls-2" d="M95.31,109.89a1.51,1.51,0,0,0,0,3h71.21a1.51,1.51,0,0,0,0-3H95.31Z" transform="translate(-52 -26)"/><path id="b4317b62-1760-4cf8-b114-3696958a8a67" class="cls-2" d="M95.31,124.06a1.51,1.51,0,0,0,0,3h71.21a1.51,1.51,0,1,0,.07-3H95.31Z" transform="translate(-52 -26)"/><path id="ad76e78f-41a7-44a0-87c5-7c68f3e63063" class="cls-2" d="M95.31,138.23a1.51,1.51,0,0,0,0,3h71.21a1.51,1.51,0,1,0,.07-3H95.31Z" transform="translate(-52 -26)"/><path id="a20c62a3-d58f-423a-bfc7-4f2831a53e7a" class="cls-2" d="M95.56,168a1.54,1.54,0,1,0,0,3H292.32a1.73,1.73,0,0,0,1.9-1.48,1.71,1.71,0,0,0-1.83-1.54H95.56Z" transform="translate(-52 -26)"/><path id="b339e3e9-0bf0-431c-bdc4-4a1671822a7b" class="cls-2" d="M95.56,181.31a1.69,1.69,0,0,0-1.83,1.53,1.72,1.72,0,0,0,1.83,1.49H292.32a1.74,1.74,0,0,0,1.9-1.49,1.71,1.71,0,0,0-1.83-1.53H95.56Z" transform="translate(-52 -26)"/><path id="bab9b888-deda-4f86-84ee-5631e8d8031a" class="cls-2" d="M95.56,194.59a1.69,1.69,0,0,0-1.83,1.53,1.72,1.72,0,0,0,1.83,1.49H292.32a1.74,1.74,0,0,0,1.9-1.49,1.71,1.71,0,0,0-1.83-1.53H95.56Z" transform="translate(-52 -26)"/><path id="ba4803b1-6f87-4394-9362-31b3dc635e82" class="cls-2" d="M95.56,207.86a1.54,1.54,0,1,0,0,3H292.32a1.75,1.75,0,0,0,1.9-1.49,1.72,1.72,0,0,0-1.83-1.54H95.56Z" transform="translate(-52 -26)"/><path id="b9a1750e-efcd-4183-b5b9-e97a203cae9b" class="cls-2" d="M95.56,221.14a1.54,1.54,0,1,0,0,3H292.32a1.73,1.73,0,0,0,1.9-1.48,1.71,1.71,0,0,0-1.83-1.54H95.56Z" transform="translate(-52 -26)"/><path id="a27b2d6d-7ecd-44cf-acba-3e7ac71f51d4" class="cls-2" d="M95.56,234.42A1.69,1.69,0,0,0,93.73,236a1.72,1.72,0,0,0,1.83,1.48H292.32a1.74,1.74,0,0,0,1.9-1.48,1.71,1.71,0,0,0-1.83-1.54H95.56Z" transform="translate(-52 -26)"/><path id="befd801f-fd34-4cb7-a0c2-8d98396e21e0" class="cls-2" d="M95.56,247.7a1.69,1.69,0,0,0-1.83,1.53,1.72,1.72,0,0,0,1.83,1.49H292.32a1.74,1.74,0,0,0,1.9-1.49,1.71,1.71,0,0,0-1.83-1.53H95.56Z" transform="translate(-52 -26)"/><ellipse class="cls-2" cx="80.16" cy="274.29" rx="28.16" ry="2.15" transform="translate(-52.44 -25.87) rotate(-0.09)"/><path class="cls-3" d="M76.89,194.43l-1.25,7.47a4.27,4.27,0,0,1-4.92,3.5,4.06,4.06,0,0,1-1-.28h0a4.26,4.26,0,0,1-2.26-5.59c0-.06,0-.13.08-.19l2.94-6.09,4.26-29,7.87,2.11Z" transform="translate(-52 -26)"/><polygon class="cls-3" points="18.75 233.19 12.55 234.27 17.8 192.07 27.89 192.93 18.75 233.19"/><polygon class="cls-3" points="44.66 233.15 38.45 234.23 43.7 192.03 53.8 192.89 44.66 233.15"/><circle class="cls-3" cx="39.91" cy="108.09" r="7.79"/><polygon class="cls-3" points="40.63 123.33 31.64 122.49 32.9 108.57 43.39 108.56 40.63 123.33"/><path class="cls-4" d="M107.52,224.24l-40.47-4.86a106.32,106.32,0,0,1,4.13-20.56c2.88-8.85,7.14-15.39,13.36-18.65v-7.06l-3.38-21.56a5.26,5.26,0,0,1,4.37-6,5.52,5.52,0,0,1,.81-.06l6.94.63L102,156.61a14,14,0,0,1,3.15,10.75l-3,24.34Z" transform="translate(-52 -26)"/><path class="cls-4" d="M84.53,169.56,72,165.23l5-14.62a5.81,5.81,0,0,1,4.73-3.86h0a5.8,5.8,0,0,1,6.42,7.06Z" transform="translate(-52 -26)"/><path class="cls-4" d="M75.71,274.09c-5.15-.13-3.93.59-5.15-.13-3.6-2.12-5.09-4.73-5.56.65l-1.93.22c-1.7-5.78-1.22-10.19,1.05-13.49l.64-3L71,257.9c.55,5.8,3.07,10.41,5.83,12.42a2.28,2.28,0,0,1,.72.88h0a2.07,2.07,0,0,1-1.09,2.72A2,2,0,0,1,75.71,274.09Z" transform="translate(-52 -26)"/><path class="cls-4" d="M101.62,274.05c-5.15-.13-3.93.59-5.15-.13-3.61-2.12-5.09-4.74-5.57.65l-1.92.22c-1.7-5.78-1.23-10.19,1-13.49l.63-3,6.21-.44c.55,5.8,3.07,10.41,5.83,12.42a2.19,2.19,0,0,1,.72.88h0a2.07,2.07,0,0,1-1.08,2.72A2,2,0,0,1,101.62,274.05Z" transform="translate(-52 -26)"/><path class="cls-4" d="M97.09,132.23l4-1.95v-.48A7.64,7.64,0,0,0,93.8,122h0s-8.14-4.52-13.73,3-2.59,20.55-2.59,20.55l8.4-1.3.48-2.84,1.4,2.67,4.91-.25a54.65,54.65,0,0,0,.68-8.5C93.07,131.33,96.25,131.4,97.09,132.23Z" transform="translate(-52 -26)"/><path class="cls-3" d="M103.41,200.27l1.14,7.49a4.26,4.26,0,0,1-3.58,4.85,4.19,4.19,0,0,1-1,0h0A4.27,4.27,0,0,1,96.08,208c0-.06,0-.13,0-.2l.89-6.7-5-28.89,8.14-.44Z" transform="translate(-52 -26)"/><path class="cls-4" d="M101.87,173.08l-13.27,0,0-15.46a5.82,5.82,0,0,1,3.21-5.2h0a5.79,5.79,0,0,1,8.37,4.57Z" transform="translate(-52 -26)"/><path class="cls-1" d="M148.2,86.83a.89.89,0,0,1-.36-.07.88.88,0,0,1-.53-.79l-.43-58.74a.87.87,0,0,1,.87-.88L183.29,26a.88.88,0,0,1,.88.86l.43,58.74a.86.86,0,0,1-.86.88.85.85,0,0,1-.59-.22h0L166,71.05a.29.29,0,0,0-.39,0L148.78,86.6A.83.83,0,0,1,148.2,86.83Z" transform="translate(-52 -26)"/><path class="cls-5" d="M172,46.27l-5.31.12-.13-5.3a1.77,1.77,0,0,0-3.53.07h0l.12,5.31-5.3.13a1.77,1.77,0,1,0,.08,3.53l5.31-.12.12,5.3a1.77,1.77,0,0,0,3.54-.08l-.13-5.31,5.31-.13a1.77,1.77,0,1,0-.08-3.53Z" transform="translate(-52 -26)"/></svg>