<svg id="Layer_1" data-name="Layer 1" xmlns="http://www.w3.org/2000/svg" xmlns:xlink="http://www.w3.org/1999/xlink" viewBox="0 0 332.35 233.74"><defs><style>.cls-1{fill:#2f2e41;}.cls-2{fill:#6c63ff;}.cls-3{fill:#3f3d56;}.cls-4{fill:#a4c639;}.cls-5{fill:none;stroke:#a4c639;stroke-linecap:round;stroke-linejoin:round;stroke-width:3px;}.cls-6{fill:#fff;}</style><image id="image" width="1000" height="377" xlink:href="../../../../../../../Downloads/1_U01ubQ9TrE1Zow5pkGHTfw.png"/></defs><title>what-4</title><path class="cls-1" d="M276.63,292.31a18.3,18.3,0,0,1-4.88-.67L205.7,274l.19-.7,66.05,17.68a17.35,17.35,0,0,0,4.69.65c7.78,0,14.67-4.5,16.77-12l47-167.66h0l.11-.36a17.43,17.43,0,0,0-12.07-21.44L222.29,60.37a17.43,17.43,0,0,0-21.46,12.06l-3.69,13.15-.69-.19,3.69-13.16a18.14,18.14,0,0,1,22.34-12.56L328.65,89.44a18.16,18.16,0,0,1,12.65,22h0l-.09.35-47.12,168C291.91,287.59,284.73,292.31,276.63,292.31Z" transform="translate(-14 -59)"/><path class="cls-2" d="M210.22,102.5a40.45,40.45,0,0,0-4.06,2l-.72.41v-4.46a16.87,16.87,0,0,0-.68-4.74c.21-.13.42-.28.63-.42l.58-.38A48.8,48.8,0,0,0,210.22,102.5Z" transform="translate(-14 -59)"/><path class="cls-2" d="M283.14,252.66a40.25,40.25,0,0,0,7.38-4.15,59.7,59.7,0,0,0,4.25,7.56,44.91,44.91,0,0,0-7.38,4.15A49.64,49.64,0,0,0,283.14,252.66Z" transform="translate(-14 -59)"/><polygon class="cls-1" points="259.92 207.54 259.57 207.45 191.55 188.37 191.74 187.68 259.42 206.66 302.19 54.12 206.81 27.38 192.27 79.25 191.57 79.06 206.31 26.49 206.66 26.58 303.08 53.62 302.98 53.97 259.92 207.54"/><path class="cls-1" d="M29,280.51c4.49,8.32,14,11.89,14,11.89s2.24-9.92-2.24-18.24-14-11.88-14-11.88S24.54,272.19,29,280.51Z" transform="translate(-14 -59)"/><path class="cls-2" d="M32.11,277.77c8.09,4.87,11.21,14.55,11.21,14.55s-10,1.78-18.1-3.09S14,274.68,14,274.68,24,272.9,32.11,277.77Z" transform="translate(-14 -59)"/><path class="cls-1" d="M205.39,95.32a17.77,17.77,0,0,0-17-12.6H78.14a17.78,17.78,0,0,0-17.77,17.76V275a17.79,17.79,0,0,0,17.77,17.77H188.39A17.79,17.79,0,0,0,206.16,275V100.48A17.72,17.72,0,0,0,205.39,95.32ZM205.44,275a17.06,17.06,0,0,1-17.05,17H78.14a17.06,17.06,0,0,1-17-17V100.48a17.06,17.06,0,0,1,17-17H188.39a17,17,0,0,1,12.36,5.32c.18.18.35.37.52.57a17,17,0,0,1,4.17,11.15Z" transform="translate(-14 -59)"/><path class="cls-2" d="M71.2,118.94A2.89,2.89,0,0,0,67.11,123l4.09,4.09L75.29,123a2.89,2.89,0,0,0-4.09-4.09Z" transform="translate(-14 -59)"/><path class="cls-2" d="M195.33,257.63a2.89,2.89,0,0,0,4.09-4.09l-4.09-4.09-4.09,4.09a2.89,2.89,0,0,0,4.09,4.09Z" transform="translate(-14 -59)"/><path class="cls-1" d="M153.92,266.41q.12.36.21.72h2.68a7.15,7.15,0,0,0,.6-.72ZM83.19,108V267.13H183V108Zm99.06,158.42H83.92V108.71h98.33Zm-28.33,0q.12.36.21.72h2.68a7.15,7.15,0,0,0,.6-.72Z" transform="translate(-14 -59)"/><rect class="cls-3" x="4.33" y="232.85" width="328.02" height="0.72"/><path class="cls-4" d="M234.21,175.39a5.19,5.19,0,0,1,3.52,6.44l-6.29,21.36a5.19,5.19,0,0,1-10-2.93l6.29-21.36a5.18,5.18,0,0,1,6.44-3.51Z" transform="translate(-14 -59)"/><path class="cls-4" d="M230.4,146.36c-.07.18-.14.37-.2.56l-9.52,32.37a6.47,6.47,0,0,0,4.32,8.1l32.91,9.69a6.5,6.5,0,0,0,8-4.47l9.52-32.36c.06-.2.11-.39.15-.58L230.4,146.36Z" transform="translate(-14 -59)"/><path class="cls-4" d="M256.68,182a5.18,5.18,0,0,1,3.51,6.44L253.9,209.8a5.19,5.19,0,1,1-10-2.93l6.29-21.36a5.19,5.19,0,0,1,6.45-3.51Zm-35.15-35.12a5.19,5.19,0,0,1,3.51,6.44l-6.29,21.36a5.19,5.19,0,1,1-10-2.93l6.29-21.36a5.19,5.19,0,0,1,6.45-3.51Zm61.26,18a5.18,5.18,0,0,1,3.51,6.44L280,192.71a5.19,5.19,0,1,1-10-2.93l6.29-21.36a5.19,5.19,0,0,1,6.45-3.51Zm-51.61-20.63c3.06-9.9,14.13-15.5,25.59-13.29l5,1.47c10.82,4.35,17.1,15.06,14.31,25Z" transform="translate(-14 -59)"/><path class="cls-5" d="M238.83,124.66l2.57,10.65m38.87,1.55-7.93,7.55" transform="translate(-14 -59)"/><path class="cls-6" d="M249.56,140a2.68,2.68,0,0,1-5.15-1.5v0a2.69,2.69,0,0,1,5.16,1.51Zm19.23,5.66a2.69,2.69,0,0,1-5.16-1.5v0a2.69,2.69,0,0,1,5.16,1.51Z" transform="translate(-14 -59)"/><use transform="matrix(0.09, 0, 0, 0.09, 72.12, 111.98)" xlink:href="#image"/><path class="cls-4" d="M209.56,78.26a.91.91,0,0,1,.62,1.14l-1.11,3.78a.92.92,0,0,1-1.14.62.91.91,0,0,1-.62-1.14l1.11-3.78a.91.91,0,0,1,1.14-.62Z" transform="translate(-14 -59)"/><path class="cls-4" d="M208.89,73.12l0,.1L207.17,79a1.14,1.14,0,0,0,.76,1.43l5.82,1.72a1.16,1.16,0,0,0,1.42-.79l1.69-5.73a.36.36,0,0,0,0-.1l-8-2.36Z" transform="translate(-14 -59)"/><path class="cls-4" d="M213.53,79.43a.92.92,0,0,1,.63,1.14L213,84.35a.92.92,0,0,1-1.76-.52l1.11-3.78a.91.91,0,0,1,1.14-.62Zm-6.21-6.22a.93.93,0,0,1,.62,1.14l-1.12,3.78a.92.92,0,0,1-1.14.63.94.94,0,0,1-.62-1.15l1.12-3.77a.92.92,0,0,1,1.14-.63Zm10.83,3.19a.91.91,0,0,1,.62,1.14l-1.11,3.78a.92.92,0,0,1-1.14.63.93.93,0,0,1-.62-1.14L217,77a.93.93,0,0,1,1.14-.63ZM209,72.75a3.84,3.84,0,0,1,4.53-2.35l.89.26A3.85,3.85,0,0,1,217,75.09Z" transform="translate(-14 -59)"/><path class="cls-5" d="M210.38,69.28l.45,1.89m6.88.27-1.4,1.34" transform="translate(-14 -59)"/><path class="cls-6" d="M212.28,72a.48.48,0,0,1-.92-.27h0a.49.49,0,0,1,.59-.31.47.47,0,0,1,.33.58Zm3.4,1a.46.46,0,0,1-.59.31.46.46,0,0,1-.32-.58h0a.47.47,0,0,1,.91.27Z" transform="translate(-14 -59)"/><path class="cls-4" d="M285.38,273.43a.93.93,0,0,1-.66-1.13l1-3.8a.92.92,0,0,1,1.77.47l-1,3.81a.91.91,0,0,1-1.12.65Z" transform="translate(-14 -59)"/><path class="cls-4" d="M286.18,278.54a.29.29,0,0,0,0-.1l1.54-5.76a1.14,1.14,0,0,0-.8-1.42l-5.87-1.56a1.14,1.14,0,0,0-1.39.83l-1.54,5.76a.43.43,0,0,0,0,.11l8.05,2.14Z" transform="translate(-14 -59)"/><path class="cls-4" d="M281.37,272.36a.91.91,0,0,1-.65-1.12l1-3.81a.92.92,0,0,1,1.77.47l-1,3.81a.92.92,0,0,1-1.13.65Zm6.38,6.05a.91.91,0,0,1-.65-1.12l1-3.81a.92.92,0,0,1,1.13-.65.91.91,0,0,1,.65,1.12l-1,3.81a.91.91,0,0,1-1.12.65Zm-10.92-2.91a.91.91,0,0,1-.65-1.12l1-3.81a.91.91,0,0,1,1.12-.65.92.92,0,0,1,.65,1.13l-1,3.8a.92.92,0,0,1-1.13.65Zm9.23,3.41a3.83,3.83,0,0,1-4.47,2.47l-.89-.23a3.85,3.85,0,0,1-2.65-4.37Z" transform="translate(-14 -59)"/><path class="cls-5" d="M284.79,282.42l-.5-1.87m-6.88-.1,1.36-1.37" transform="translate(-14 -59)"/><path class="cls-6" d="M282.82,279.75a.48.48,0,0,1,.58-.32.46.46,0,0,1,.34.57h0a.47.47,0,0,1-.58.33.48.48,0,0,1-.34-.57Zm-3.42-.91a.47.47,0,0,1,.57-.33.48.48,0,0,1,.35.57h0a.47.47,0,0,1-.91-.25Z" transform="translate(-14 -59)"/><use transform="translate(64.03 95) rotate(0.19) scale(0.02)" xlink:href="#image"/><use transform="translate(194.03 279.04) rotate(179.62) scale(0.02)" xlink:href="#image"/></svg>