<svg id="Layer_1" data-name="Layer 1" xmlns="http://www.w3.org/2000/svg" xmlns:xlink="http://www.w3.org/1999/xlink" viewBox="0 0 400.99 264.81"><defs><style>.cls-1,.cls-2{fill:#6c63ff;}.cls-1,.cls-4,.cls-9{opacity:0.1;}.cls-1,.cls-4,.cls-7{isolation:isolate;}.cls-3{fill:#3f3d56;}.cls-5{fill:#f86d70;}.cls-6{fill:#fbbebe;}.cls-7{opacity:0.05;}.cls-8{fill:#706152;}.cls-10{fill:#ff6f61;}.cls-11{fill:#fabdbd;}.cls-12{fill:#fff;}.cls-13{fill:#a4c639;}.cls-14{fill:none;stroke:#a4c639;stroke-linecap:round;stroke-linejoin:round;stroke-width:3px;}</style></defs><title>why-5</title><path class="cls-1" d="M235.74,73.39c-23.59-.84-46.06-8.46-67.5-16.77s-42.7-17.56-65.73-22C87.7,31.8,70.76,31.4,58.83,39.34,47.35,47,43.64,60.17,41.64,72.41c-1.5,9.21-2.38,18.9,1.73,27.52,2.86,6,7.93,11,11.43,16.75,12.2,19.94,3.58,44.54-9.64,64C39,189.83,31.77,198.55,27,208.27s-7,20.87-2.81,30.79,14,17.22,24.75,22.41C70.68,272,96.3,275,121.31,276.75c55.34,3.79,111,2.15,166.46.51,20.54-.61,41.16-1.23,61.36-4.4,11.22-1.76,22.8-4.56,30.95-11.32,10.34-8.57,12.9-23.1,6-33.85-11.62-18-43.74-22.52-51.87-41.88-4.47-10.66.12-22.53,6.62-32.41,13.94-21.2,37.3-39.8,38.53-64,.84-16.64-10.39-33.31-27.75-41.18-18.2-8.26-43.44-7.22-56.87,6.44C280.87,68.68,256.57,74.09,235.74,73.39Z" transform="translate(-0.01 -22.17)"/><ellipse class="cls-2" cx="64.42" cy="259.67" rx="26.68" ry="5.13"/><ellipse class="cls-3" cx="63.97" cy="257.49" rx="3.11" ry="4.07"/><ellipse class="cls-3" cx="63.97" cy="252.52" rx="3.11" ry="4.07"/><ellipse class="cls-3" cx="63.97" cy="247.55" rx="3.11" ry="4.07"/><ellipse class="cls-3" cx="63.97" cy="242.58" rx="3.11" ry="4.07"/><ellipse class="cls-3" cx="63.97" cy="237.61" rx="3.11" ry="4.07"/><ellipse class="cls-3" cx="63.97" cy="232.64" rx="3.11" ry="4.07"/><ellipse class="cls-3" cx="63.97" cy="227.67" rx="3.11" ry="4.07"/><path class="cls-2" d="M75.61,215.82a13.79,13.79,0,0,0,1.16-1.7l-8.16-1.34,8.83.06a14.91,14.91,0,0,0,.28-11.79L65.88,207.2l10.93-8a14.88,14.88,0,0,0-25.75,14.93,14.46,14.46,0,0,0,1.17,1.72,15.67,15.67,0,0,0-1.7,2.72l10.6,5.5-11.3-3.79a14.9,14.9,0,0,0,2.4,14,14.88,14.88,0,1,0,23.4,0,14.91,14.91,0,0,0,0-18.41Z" transform="translate(-0.01 -22.17)"/><path class="cls-4" d="M49.05,225a14.83,14.83,0,0,0,3.19,9.2,14.88,14.88,0,1,0,23.39,0C77.61,231.69,49.05,223.35,49.05,225Z" transform="translate(-0.01 -22.17)"/><path class="cls-5" d="M184.12,120.29s24.06-15.31,98.78,1.1S401,124.67,401,124.67V141.8s-83.83,9.11-115.91,0-77.74-14.37-93.73-.26Z" transform="translate(-0.01 -22.17)"/><path class="cls-4" d="M184.12,120.29s24.06-15.31,98.78,1.1S401,124.67,401,124.67V141.8s-83.83,9.11-115.91,0-77.74-14.37-93.73-.26Z" transform="translate(-0.01 -22.17)"/><path class="cls-3" d="M293,161.77a3.1,3.1,0,0,0-.85,1.21c-.43,1.37.79,2.72.91,4.15a8.87,8.87,0,0,1-.86,3.29,7.12,7.12,0,0,0,2.44,7.54,2,2,0,0,0,.82.42,1.84,1.84,0,0,0,1.39-.41,3.72,3.72,0,0,0,1.31-1.72,7.5,7.5,0,0,0,.34-2.1l.18-2.74a28.38,28.38,0,0,0-.33-8.63c-.23-.93-.66-3.05-1.72-3.17S293.65,161.08,293,161.77Z" transform="translate(-0.01 -22.17)"/><path class="cls-6" d="M310.83,150a90.5,90.5,0,0,0-2.77,13.73,3.89,3.89,0,0,1-.56,1.87c-.79,1.06-2.37,1-3.68.82a2.13,2.13,0,0,1-.89-.26,2.08,2.08,0,0,1-.66-1.59q-1.35-13.09-1.8-26.27c0-.33,10.95-.36,11.89.52s.21,4.17,0,5.29A53.1,53.1,0,0,1,310.83,150Z" transform="translate(-0.01 -22.17)"/><path class="cls-7" d="M310.83,150a90.5,90.5,0,0,0-2.77,13.73,3.89,3.89,0,0,1-.56,1.87c-.79,1.06-2.37,1-3.68.82a2.13,2.13,0,0,1-.89-.26,2.08,2.08,0,0,1-.66-1.59q-1.35-13.09-1.8-26.27c0-.33,10.95-.36,11.89.52s.21,4.17,0,5.29A53.1,53.1,0,0,1,310.83,150Z" transform="translate(-0.01 -22.17)"/><path class="cls-6" d="M288,137.05l4.44,9.76a46.53,46.53,0,0,1,3.67,10,32.93,32.93,0,0,1,.54,4.42,16.26,16.26,0,0,1-.12,3.82c-.16.94-.46,1.85-.59,2.8-.51,3.76,1.62,7.3,3.08,10.8a32.68,32.68,0,0,1,2.38,9.43,8.2,8.2,0,0,0,1,4,10.66,10.66,0,0,1,4.36-.64c.27-2.21-1.13-4.24-1.64-6.41-.94-4,1.14-8.15.43-12.18-.38-2.18-1.58-4.23-1.48-6.44.18-4,.94-8.1.17-12-.87-4.46-3.36-8.52-3.91-13-.42-3.46.26-7.3-1.68-10.21A11.89,11.89,0,0,0,288,137.05Z" transform="translate(-0.01 -22.17)"/><path class="cls-3" d="M302.6,198.35a1.46,1.46,0,0,1-1.24-.35,1.37,1.37,0,0,1-.22-.68,34.78,34.78,0,0,1-.31-4.67,2.87,2.87,0,0,1,.35-1.64,4.43,4.43,0,0,1,.79-.77c.68-.63,1.17-1.54,2-1.83a2.2,2.2,0,0,1,2.2.58,3.67,3.67,0,0,1,1,2.15,7,7,0,0,0,.53,2.82c.2.32.48.58.7.88.77,1,1.46,3-.12,3.45S304.35,198.3,302.6,198.35Z" transform="translate(-0.01 -22.17)"/><path class="cls-8" d="M306.45,79.27a5,5,0,0,0-.92-5.43,9.34,9.34,0,0,0-5.07-2.74,13.28,13.28,0,0,0-7.77.35,38.16,38.16,0,0,0-5.44,3.11A24.84,24.84,0,0,1,276.8,77.9c-4.11.34-8.69-.2-11.86,2.42-5.81,4.78-1.77,15.56-7.18,20.78-1.46,1.41-3.41,2.17-5.09,3.32s-3.17,3-2.9,5A5.43,5.43,0,0,0,251,112a12.61,12.61,0,0,0,11.18,4.48,13.55,13.55,0,0,0,10-6.86A8.63,8.63,0,0,1,274,107c1.62-1.33,4-.79,6.1-.86a10,10,0,0,0,9.3-8.79c.18-2-.16-4.3,1.27-5.69,1.15-1.13,2.95-1.12,4.52-1.47a9.53,9.53,0,0,0,6.32-5.28c.61-1.17.55-2.49,1.44-3.46S305.6,80.92,306.45,79.27Z" transform="translate(-0.01 -22.17)"/><g class="cls-9"><path d="M273,78.71a25.15,25.15,0,0,0,5-1c-.46.07-.92.12-1.39.16-3.21.27-6.73,0-9.63,1.13C269,78.84,271,78.87,273,78.71Z" transform="translate(-0.01 -22.17)"/><path d="M270.11,107.85a8.11,8.11,0,0,0-1.73,2.59,13.69,13.69,0,0,1-7,6.12q.35,0,.69-.06a13.55,13.55,0,0,0,10-6.86,8.14,8.14,0,0,1,1.74-2.59l.13-.11A5.46,5.46,0,0,0,270.11,107.85Z" transform="translate(-0.01 -22.17)"/><path d="M305.34,73.85a9.46,9.46,0,0,0-5.07-2.73,13.27,13.27,0,0,0-7.77.35l-.17.06a14.88,14.88,0,0,1,4.31.39,9.43,9.43,0,0,1,5.07,2.73,5.06,5.06,0,0,1,.92,5.44c-.86,1.65-2.59,1.13-3.57,2.2s-.84,2.29-1.44,3.46a10,10,0,0,1-5.16,4.93c.81-.19,1.67-.28,2.47-.45A9.61,9.61,0,0,0,301.25,85c.6-1.17.54-2.49,1.44-3.46s2.71-.56,3.56-2.2A5,5,0,0,0,305.34,73.85Z" transform="translate(-0.01 -22.17)"/><path d="M291.3,91c-1.57.35-3.37.34-4.53,1.46-1.42,1.4-1.09,3.71-1.26,5.7a10,10,0,0,1-5.91,8h.23a10,10,0,0,0,9.31-8.79c.18-2-.16-4.31,1.26-5.7a3.5,3.5,0,0,1,1.14-.72Z" transform="translate(-0.01 -22.17)"/></g><path class="cls-6" d="M306.53,102.61a1.87,1.87,0,0,1-1.06.7c-4.22,1.56-8.66,3.14-13.12,2.48-.16-.7-.33-1.4-.49-2.1l-.72-3c-.11-.49-.23-1-.32-1.47h0a8.55,8.55,0,0,1-.15-2.37,5.91,5.91,0,0,1,.15-.84,4.58,4.58,0,0,1,.65-1.42c.06-.07.11-.14.17-.2h0a3.28,3.28,0,0,1,.9-.76c.76-.41,1.8-.59,2.1-1.4a2.15,2.15,0,0,0,0-1.28c-.26-1-.72-2-1-3-.36-1.29.19-1.21,1.43-1.52a15.74,15.74,0,0,1,6.85-.51,9.89,9.89,0,0,0,.07,3.39,3.35,3.35,0,0,0,2.14,2.46l.52.11h0a1.55,1.55,0,0,1,.65.27,1.07,1.07,0,0,1,.32.41,3.54,3.54,0,0,1,.22.85q.6,4,.86,8.11v.1A1.81,1.81,0,0,1,306.53,102.61Z" transform="translate(-0.01 -22.17)"/><path class="cls-6" d="M284.8,98.19a12.67,12.67,0,0,0-1.58,5l-1.86,10.79c-.26,1.48-.48,3.1.27,4.4a11,11,0,0,1,.81,1.28,7.07,7.07,0,0,1,.27,1.43c.44,2.48,2.87,4.15,5.31,4.75a2.94,2.94,0,0,0,2.61-.29,2.26,2.26,0,0,0,.32-2.73,6.69,6.69,0,0,0-2.09-2.08l-2.66-2,1.54-11.8c.11-.85.51-2,1.38-1.87s1.4,1.24,2.1.87a1,1,0,0,0,.43-.64,7.66,7.66,0,0,0,.14-3l-.32-3.66a13.45,13.45,0,0,1,.35-3.19c.16-1.3-.7-.91-1.77-.63A8.76,8.76,0,0,0,284.8,98.19Z" transform="translate(-0.01 -22.17)"/><path class="cls-6" d="M317.86,115.92a1.83,1.83,0,0,1-.83.75,9.41,9.41,0,0,1-6.83,1,13.27,13.27,0,0,0-1.63-.38c-.88-.11-1.77.06-2.65,0a7.44,7.44,0,0,1-4.62-2.57c-.75-.77-1.43-2-.73-2.85a1.64,1.64,0,0,1,1.53-.46,5.81,5.81,0,0,1,1.55.58,17.12,17.12,0,0,0,5.44,1.49c1.28.14,2.91-.08,3.35-1.3a3.2,3.2,0,0,0-.08-1.86c-.42-1.68-.83-3.36-1.25-5a1.24,1.24,0,0,0-.15-.42l-.07-.09a1.18,1.18,0,0,0-.58-.26,5.39,5.39,0,0,1-2.59-1.32,5.78,5.78,0,0,1-1.06-1.7l-.21-.48c-.52-1.22-1.08-2.48-1.51-3.77a15.29,15.29,0,0,1-.65-2.67c-.12-.79-.18-1.15.25-1.5a2.85,2.85,0,0,1,.37-.23c.2-.11.42-.21.65-.31l.23-.1a15,15,0,0,1,2.16-.68,5.23,5.23,0,0,1,4.9,1.81,10.89,10.89,0,0,1,2.26,4.92c.4,1.79.61,3.61,1.12,5.36.2.69.44,1.37.61,2.06a20.33,20.33,0,0,1,.39,2.48l.72,6.37A2,2,0,0,1,317.86,115.92Z" transform="translate(-0.01 -22.17)"/><path class="cls-6" d="M291.53,115c.52,3.27-1,6.49-2.38,9.49a7.92,7.92,0,0,0,2.75,1.13,54.85,54.85,0,0,0,19.8,1.49,6,6,0,0,0-.14-3.3c-.29-.63-.77-1.15-1.08-1.77a6.59,6.59,0,0,1-.41-3.36l.46-9.7c-3.18-1.46-6.87-.09-10.37.11a44.75,44.75,0,0,0-5.44.2c-.93.17-3.85.63-4.28,1.58S291.38,114,291.53,115Z" transform="translate(-0.01 -22.17)"/><path class="cls-7" d="M291.53,115c.52,3.27-1,6.49-2.38,9.49a7.92,7.92,0,0,0,2.75,1.13,54.85,54.85,0,0,0,19.8,1.49,6,6,0,0,0-.14-3.3c-.29-.63-.77-1.15-1.08-1.77a6.59,6.59,0,0,1-.41-3.36l.46-9.7c-3.18-1.46-6.87-.09-10.37.11a44.75,44.75,0,0,0-5.44.2c-.93.17-3.85.63-4.28,1.58S291.38,114,291.53,115Z" transform="translate(-0.01 -22.17)"/><path class="cls-3" d="M300,124.39c-3.44-.72-6.83-1.91-10.36-2a.92.92,0,0,0-.51.1.94.94,0,0,0-.32.56c-.37,1.26-.69,2.52-1,3.8-1,4.24-1.42,8.92.68,12.72a3.75,3.75,0,0,1,1.79-3.07,8.94,8.94,0,0,1,7.21-.64,5,5,0,0,1,2.91,4.08l12.12.39a.45.45,0,0,0,.55-.3.37.37,0,0,0,0-.18,49.24,49.24,0,0,0-.05-11.7c-.13-1.08-.15-2.59-1.37-3-1.45-.48-3.76.08-5.31,0A40.18,40.18,0,0,1,300,124.39Z" transform="translate(-0.01 -22.17)"/><path class="cls-10" d="M311,105.39l0,5.39-12.25.4a35.83,35.83,0,0,0-6.71.66c-.63.14-1.26.32-1.88.5a22.44,22.44,0,0,1-1.11-7.26h0a9.54,9.54,0,0,1,.34-1.92c.39-1.36,1.12-2.64,1.51-4h0a6.23,6.23,0,0,0,.26-1.61,8.07,8.07,0,0,0-.26-1.61,4.87,4.87,0,0,1-.16-1.32l1-.3h0c0,.12.05.23.07.35a6,6,0,0,1,.1.74h0a14.34,14.34,0,0,1,.05,1.85c0,1.24-.2,2.62.58,3.59,1,1.26,2.93,1.06,4.5.75l4.12-.82c1.31-.26,2.76-.62,3.44-1.76a4,4,0,0,0,.45-1.8v-.12a14.16,14.16,0,0,0-.41-4,12.45,12.45,0,0,0-.36-1.23h.42a1.55,1.55,0,0,1,.65.27,1.07,1.07,0,0,1,.32.41l.23-.09A35.57,35.57,0,0,0,310.23,103a4.59,4.59,0,0,1,.61,1.21,2.83,2.83,0,0,1,.1.71A2.94,2.94,0,0,1,311,105.39Z" transform="translate(-0.01 -22.17)"/><circle class="cls-6" cx="298" cy="59.48" r="7.44"/><path class="cls-6" d="M284.8,98.19a12.67,12.67,0,0,0-1.58,5l-1.86,10.79c-.26,1.48-.48,3.1.27,4.4a11,11,0,0,1,.81,1.28,7.07,7.07,0,0,1,.27,1.43c.44,2.48,2.87,4.15,5.31,4.75a2.94,2.94,0,0,0,2.61-.29,2.26,2.26,0,0,0,.32-2.73,6.69,6.69,0,0,0-2.09-2.08l-2.66-2,1.54-11.8C287.84,106.09,286,96.38,284.8,98.19Z" transform="translate(-0.01 -22.17)"/><path class="cls-6" d="M315.11,98.47c.41,1.78.61,3.61,1.12,5.36.2.69.45,1.36.62,2a19.05,19.05,0,0,1,.38,2.48l.72,6.37a2.06,2.06,0,0,1-.09,1.18,1.91,1.91,0,0,1-.83.76,9.51,9.51,0,0,1-6.83,1,13.27,13.27,0,0,0-1.63-.38c-.88-.11-1.77.07-2.65,0a7.46,7.46,0,0,1-4.62-2.55c-.75-.77-1.43-2-.73-2.86a1.67,1.67,0,0,1,1.53-.46,6.17,6.17,0,0,1,1.55.58,17.14,17.14,0,0,0,5.44,1.5c1.28.13,2.91-.09,3.35-1.31a3.2,3.2,0,0,0-.08-1.86l-1.25-5C311.06,105.08,314.71,96.69,315.11,98.47Z" transform="translate(-0.01 -22.17)"/><path class="cls-8" d="M293.41,84c-.33-1.19-.79-2.68.14-3.48a2.09,2.09,0,0,1,1.16-.44c2.09-.26,4.25,1,6.25.31a3.48,3.48,0,0,0,.66-6.31,6.93,6.93,0,0,0-2.92-.7c-2.66-.25-5.43-.47-7.91.51s-4.57,3.51-4.06,6.13a8,8,0,0,0,1.8,3.32c.6.75,3,4.36,4,4.31C293.89,87.52,293.63,84.72,293.41,84Z" transform="translate(-0.01 -22.17)"/><path class="cls-4" d="M301.62,74a3.88,3.88,0,0,0-.46-.22,3.47,3.47,0,0,1-1.26,5.87c-2,.66-4.16-.57-6.25-.32a2.17,2.17,0,0,0-1.16.45c-.93.8-.46,2.29-.13,3.47.21.77.47,3.57-.89,3.65h0c.42.41.8.68,1.07.67,1.37-.08,1.11-2.88.89-3.65-.33-1.19-.79-2.67.14-3.48a2.09,2.09,0,0,1,1.16-.44c2.09-.26,4.25,1,6.25.32a3.48,3.48,0,0,0,.66-6.32Z" transform="translate(-0.01 -22.17)"/><path class="cls-5" d="M184.85,121s23.33-15.31,98,1.1,117.37,3.28,117.37,3.28l.37,15.67s-83.11,9.11-115.19,0-77.37-15.46-93.36-1.35Z" transform="translate(-0.01 -22.17)"/><path class="cls-5" d="M176.08,144.57S152,159.88,77.3,143.48,6.23,140.2,6.23,140.2V123.06s36.81-9.11,68.89,0,77.73,14.37,93.72.26Z" transform="translate(-0.01 -22.17)"/><path class="cls-4" d="M176.08,144.57S152,159.88,77.3,143.48,6.23,140.2,6.23,140.2V123.06s36.81-9.11,68.89,0,77.73,14.37,93.72.26Z" transform="translate(-0.01 -22.17)"/><path class="cls-5" d="M175.35,143.84s-23.32,15.31-98-1.09S7,139.47,7,139.47l-.37-15.68s36.09-9.11,68.16,0,77.37,15.47,93.36,1.36Z" transform="translate(-0.01 -22.17)"/><path class="cls-3" d="M173.72,222.92c.22,2.91,1.34,5.93,3.71,7.65s6.12,1.69,7.92-.62a9,9,0,0,0,1.32-2.86c1.52-4.81,2.6-10.06.93-14.82-3.76-.25-8.11-2-10.94,1.09A13,13,0,0,0,173.72,222.92Z" transform="translate(-0.01 -22.17)"/><path class="cls-11" d="M191.16,193.53c-.5,4.24-1.35,8.46-1.26,12.72,0,1.65.21,3.29.21,4.94a24.25,24.25,0,0,1-3.28,12.24,4.21,4.21,0,0,1-.9,1.16,2.86,2.86,0,0,1-3.13.1,6.11,6.11,0,0,1-2.23-2.42c-2.71-4.65-2.79-10.3-3.87-15.57-.82-4-2.26-7.95-2.78-12-.34-2.63-.29-5.31-.83-7.9-.16-.79-.62-2-.93-3.12a4.69,4.69,0,0,1-.14-2.74c.58-1.43,2.48-.87,3.71-.79a83.87,83.87,0,0,0,13.07,0,1.15,1.15,0,0,1,1.52.78,18.53,18.53,0,0,1,.79,2.92A32.44,32.44,0,0,1,191.16,193.53Z" transform="translate(-0.01 -22.17)"/><path class="cls-11" d="M204.94,215.88c-2.18,4.38-1.82,10.57-1.82,10.57.36,14.58-5.47,45.2-5.47,45.2h-5.1s-.73-33.9,0-36.81-.36-13.13-1.46-27.34a73,73,0,0,1,2.59-24.35c.41-1.46.69-2.26.69-2.26s8.39-12.39,13.12-6.56c1.1,1.35,1.68,4.09,1.88,7.55C210,193.28,206.62,212.52,204.94,215.88Z" transform="translate(-0.01 -22.17)"/><path class="cls-4" d="M209.37,181.88c-.2-3.46-.78-6.2-1.88-7.55a3.74,3.74,0,0,0-3.58-1.52,3.86,3.86,0,0,1,2.49,1.52c1.09,1.35,1.67,4.09,1.87,7.55.65,11.4-2.74,30.64-4.42,34-2.19,4.38-1.82,10.57-1.82,10.57.36,14.58-5.47,45.2-5.47,45.2h1.09s5.83-30.62,5.47-45.2c0,0-.36-6.19,1.82-10.57C206.62,212.52,210,193.28,209.37,181.88Z" transform="translate(-0.01 -22.17)"/><path class="cls-3" d="M189.9,270.32a4.75,4.75,0,0,0-1.05,1.14c-.65,1.23.28,2.7,1.27,3.68s2.19,2,2.19,3.43a3.41,3.41,0,0,1-1.81,2.68c-.51.32-1.15.73-1,1.33a1.28,1.28,0,0,0,.19.43,5.68,5.68,0,0,0,3.73,2.26,16.72,16.72,0,0,0,4.47,0,.91.91,0,0,0,.61-.21.87.87,0,0,0,.17-.51,6.41,6.41,0,0,1,.36-2.28c.47-.95,1.56-1.44,2.19-2.29a5.12,5.12,0,0,0,.42-4.21,17.32,17.32,0,0,0-4.79-8.75C194,264.61,191.78,268.54,189.9,270.32Z" transform="translate(-0.01 -22.17)"/><path class="cls-3" d="M200.94,86.59c2-3,1.51-7.29-.57-10.31s-5.42-4.93-8.86-6.16a24.94,24.94,0,0,0-14.54-1c-3.8,1-7.21,3-10.79,4.65a46.56,46.56,0,0,1-20.15,4c-7.69-.22-16.12-2.19-22.58,2-11.82,7.69-6.56,28.61-17.74,37.18-3,2.31-6.81,3.32-10.16,5.11S89,127,89.1,130.79a10.07,10.07,0,0,0,1.82,5.1,23.6,23.6,0,0,0,19.88,10.68,25.32,25.32,0,0,0,20-10.67c1.13-1.61,2.13-3.4,3.77-4.47,3.28-2.15,7.61-.64,11.52-.32a18.69,18.69,0,0,0,19.17-14.42c.73-3.66.6-8,3.55-10.34,2.38-1.86,5.73-1.46,8.75-1.78,5.52-.57,9.87-4,12.87-8.5,1.37-2.06,1.53-4.52,3.41-6.14C195.88,88.15,199,89.47,200.94,86.59Z" transform="translate(-0.01 -22.17)"/><path class="cls-11" d="M258.34,73.54S249.59,91,246.68,97.6s-29.53,16.4-33.17,16.77a4.64,4.64,0,0,0-2.6,1.25,14.31,14.31,0,0,0-3.23,4.94s1.45,9.85-.37,26.25c0,.32-.07.63-.1.94C205.62,163.36,209,167,209,167s-35.35,13.48-34.26-4a79.48,79.48,0,0,0-.05-12.9A54.13,54.13,0,0,0,172.55,140c-.86-3-1.9-6.34-3-10.85a49.58,49.58,0,0,0-2-6.62,1.46,1.46,0,0,1-.07-.19c-1.83-4.52-3.65-6-4.69-6.46a15.69,15.69,0,0,1-2.8-1.57A146.14,146.14,0,0,1,143,100c-8.75-8.75-17.5-29.52-17.5-29.52s-2.55-12,3.28-21.87S132,67.89,132,67.89s10.57,14.22,13.12,20.78a11,11,0,0,0,5.11,6,60.22,60.22,0,0,1,8.07,5,48.49,48.49,0,0,0,5.42,3.54c4.08,2.19,9,4.65,13,5.3a12.34,12.34,0,0,0,1.92.17,2,2,0,0,0,1.6-.73c1.1-1.29,1.07-4.06.82-6.34a32.16,32.16,0,0,0-.6-3.51s11.85-7.47,11.48,1.64a10.43,10.43,0,0,0,.28,3,5.18,5.18,0,0,0,3.53,3.86,8.67,8.67,0,0,0,4.38.14,4,4,0,0,0,1.29-.44c1.09-.73,12-4,15.31-4.37s19.68-8.38,19.68-8.38l17.86-24.79S254,54.23,261.25,48.4,258.34,73.54,258.34,73.54Z" transform="translate(-0.01 -22.17)"/><g class="cls-9"><path d="M207.21,145.56a74.3,74.3,0,0,0-.42,8.82c0-1.92.17-4.12.42-6.63,0-.31.07-.62.1-.94a142.55,142.55,0,0,0,.91-16.91,144.84,144.84,0,0,1-.91,14.72C207.29,144.94,207.24,145.26,207.21,145.56Z" transform="translate(-0.01 -22.17)"/><path d="M180.9,97.92a4.13,4.13,0,0,0-.36.23,32.83,32.83,0,0,1,.7,4.74A22.36,22.36,0,0,0,180.9,97.92Z" transform="translate(-0.01 -22.17)"/><path d="M132.2,65.92c.18-2.56.45-7.13.4-11.2-.07,5.44-.55,11-.55,11Z" transform="translate(-0.01 -22.17)"/><path d="M174.71,162.6a3.1,3.1,0,0,1,0,.43c-1.09,17.49,34.26,4,34.26,4a6.16,6.16,0,0,1-.92-1.85C202.7,167.08,175.94,175.9,174.71,162.6Z" transform="translate(-0.01 -22.17)"/><path d="M258.34,71.36s-8.75,17.49-11.66,24-29.53,16.41-33.17,16.77a4.66,4.66,0,0,0-2.6,1.26,14.31,14.31,0,0,0-3.23,4.94s.08.59.19,1.72a13.62,13.62,0,0,1,3-4.48,4.64,4.64,0,0,1,2.6-1.25c3.64-.37,30.25-10.21,33.17-16.77s11.66-24.06,11.66-24.06,6.17-18.71,5.49-24.31C263.27,56.4,258.34,71.36,258.34,71.36Z" transform="translate(-0.01 -22.17)"/><path d="M174.64,148a54.07,54.07,0,0,0-2.09-10.16c-.86-3-1.9-6.33-3-10.85a49,49,0,0,0-2-6.61,1.59,1.59,0,0,1-.07-.2c-1.83-4.52-3.65-6-4.69-6.45a15.74,15.74,0,0,1-2.8-1.58,146.14,146.14,0,0,1-17-14.32c-8.75-8.74-17.5-29.52-17.5-29.52a33.78,33.78,0,0,1-.54-5.32,35,35,0,0,0,.54,7.51S134.22,91.22,143,100a146.14,146.14,0,0,0,17,14.32,15.26,15.26,0,0,0,2.82,1.57c1,.48,2.86,1.94,4.69,6.46l.07.19a48.11,48.11,0,0,1,2,6.62c1.07,4.51,2.1,7.83,3,10.85a54.13,54.13,0,0,1,2.09,10.15c.16,1.53.25,3.19.27,5.05A62.34,62.34,0,0,0,174.64,148Z" transform="translate(-0.01 -22.17)"/></g><path class="cls-2" d="M210.74,132.11a23.44,23.44,0,0,0-1.46,2.87,17.35,17.35,0,0,0-.65,4.82,38.37,38.37,0,0,1-1,6.75,8.29,8.29,0,0,1-.36,1.2,3,3,0,0,1-.43.73,2.83,2.83,0,0,1-.68.61,7.38,7.38,0,0,1-1.23.68c-5.08,2.37-10.61,4.46-16.15,3.64a23.41,23.41,0,0,1-6.71-2.26c-2-1-4.28-2.13-6.35-1.32h0a3.11,3.11,0,0,1-1,.32.65.65,0,0,1-.2,0c-.69-.13-.69-2.44-.85-3.12-.59-2.62-.68-4.74-1-7a23.55,23.55,0,0,0-.88-3.71,43.69,43.69,0,0,1-1.9-13.73c0-.23-1.64,0-2.19,0-.14,0-.21,0-.18-.07l.11-.12a1.59,1.59,0,0,1,.65-.32l.43-.13c2.26-.64,4.74-.91,6.43-2.49s2.18-4.25,2.11-6.64a37.85,37.85,0,0,1-.34-4.19,12.45,12.45,0,0,0,1.92.17,2,2,0,0,0,1.61-.73,30,30,0,0,1,1.57,3.64,25,25,0,0,0,2,4.51,7.63,7.63,0,0,0,6.82,3.49,6.33,6.33,0,0,0,5.65-4.92c.42-2.31-.56-5.64-.54-8a8.67,8.67,0,0,0,4.38.14c.06.15.11.3.16.46.82,2.81,1.91,6,4.66,7,1.78.64,3.88.16,5.53,1.09l.36.25a3.92,3.92,0,0,1,1,1,8.35,8.35,0,0,1,1.17,3.67A20.36,20.36,0,0,1,210.74,132.11Z" transform="translate(-0.01 -22.17)"/><circle class="cls-11" cx="187.79" cy="68.32" r="12.39"/><path class="cls-3" d="M177.15,92.55c-.36-2.28-.93-5.14,1-6.44a4,4,0,0,1,2.25-.59c3.94,0,7.71,2.71,11.57,1.9a6.51,6.51,0,0,0,2.55-11.61,13.06,13.06,0,0,0-5.3-1.92c-4.88-1-10-2-14.81-.73s-9.24,5.6-8.85,10.57a14.94,14.94,0,0,0,2.65,6.56c1,1.54,4.71,8.75,6.53,8.86C177.29,99.3,177.4,94,177.15,92.55Z" transform="translate(-0.01 -22.17)"/><path class="cls-2" d="M207.86,160.84s-25.15,6.2-33.54,0c0,0-3.64,14.22-2.55,21.51,0,0,17.86,1.09,19.69,2.18,0,0,.36-2.91,2.18-1.45,0,0,6.2-7.29,17.5-.73C211.14,182.35,213.33,165.22,207.86,160.84Z" transform="translate(-0.01 -22.17)"/><path class="cls-4" d="M194.51,75.81a6.87,6.87,0,0,0-.81-.51A6.51,6.51,0,0,1,190.13,86c-3.86.8-7.63-2-11.57-1.91a4.09,4.09,0,0,0-2.26.59c-1.9,1.3-1.34,4.16-1,6.44.24,1.49.15,6.75-2.41,6.61h0c.71.85,1.36,1.43,1.87,1.45,2.55.15,2.66-5.1,2.42-6.6-.37-2.28-.93-5.14,1-6.44a4,4,0,0,1,2.25-.59c3.94,0,7.71,2.71,11.57,1.9a6.51,6.51,0,0,0,2.55-11.61Z" transform="translate(-0.01 -22.17)"/><g class="cls-9"><path class="cls-2" d="M31.49,57.49S4.23,46,.66,66.7a5,5,0,0,0,.73,5.88s.56-1.42,3.19,0a13.8,13.8,0,0,0,3,1.21,6.67,6.67,0,0,0,4.23-.23h0s9-.48,16.5-12.21c0,0,3.23-2,3.4-2.74L26.28,59s.42,4-1.82,6.33c0,0,2-6.14,1-6.31-.19,0-2.85.32-2.85.32s.69,6.87-2.92,10.43c0,0,3.35-7,1.89-10.31l-4,.77s1.09,7.23-2.85,11.44c0,0,3.24-7.43,2-11.21L13,61.76s.92,7.08-2.38,10.57c0,0,2.88-9,1.52-10.21,0,0-3.43,1.4-4.16,2.19,0,0,.54,5.1-1.56,6.93,0,0,1.29-6.2.65-6.46,0,0-4,3-5.2,5.6a15.19,15.19,0,0,1,4.7-6.2,8.4,8.4,0,0,0-4.74.67s1.38-2.63,5.71-1.38c0,0,3.2-2.22,3.84-2.19,0,0-4.09-1.82-7-1.6,0,0,3.16-1.82,8.05,1.23l3.8-1.38s-5.28-2.71-7.93-2.7c0,0,3.52-1.36,8.92,2.43l3.9-.8s-4.38-2.68-7.32-3.3c0,0,3.54-.56,8.45,3.12l2.66-.22s-3.23-1.9-4.2-2.37-.94-.76-.94-.76a12.6,12.6,0,0,1,6.26,3S31.46,57.83,31.49,57.49Z" transform="translate(-0.01 -22.17)"/></g><g class="cls-9"><path class="cls-2" d="M30.48,37S20.81,14.62,6.92,24.86A4.12,4.12,0,0,0,4,28.76s1.14-.53,1.86,1.85A11.39,11.39,0,0,0,7,33a5.43,5.43,0,0,0,2.62,2.27h0s5.6,4.82,16.76,2.15c0,0,3.06.66,3.59.3l-3.42-2.86s-2,2.58-4.69,2.71c0,0,4.67-2.52,4.2-3.16-.09-.14-1.87-1.44-1.87-1.44s-3.51,4.48-7.65,4.54c0,0,6-2.25,7-5l-2.8-1.83s-3.48,4.92-8.22,5.18c0,0,6.16-2.56,7.58-5.53l-3-1.41s-3.49,4.73-7.43,4.91c0,0,6.82-3.69,6.71-5.19a16.07,16.07,0,0,0-3.72-1.07S10,30.89,7.74,30.79c0,0,4.3-2.94,4.06-3.46,0,0-4.08-.49-6.28.37a12.42,12.42,0,0,1,6.32-1,6.83,6.83,0,0,0-3.18-2.3s2.32-.77,4.17,2.43c0,0,3.17.51,3.54.88,0,0-1.39-3.42-3.28-5,0,0,2.91.73,4.08,5.31l3,1.35S18.62,24.8,17,23.3c0,0,2.87,1.19,3.92,6.52l2.76,1.75a25.47,25.47,0,0,0-2.46-6.12s2.42,1.68,3.24,6.66l1.71,1.39s-.83-3-1.15-3.8-.12-1-.12-1a10.49,10.49,0,0,1,2,5.35S30.28,37.14,30.48,37Z" transform="translate(-0.01 -22.17)"/></g><circle class="cls-12" cx="296.99" cy="50.83" r="21"/><path class="cls-13" d="M292.8,76.51a1.9,1.9,0,0,1,1.93,1.87l.12,8.15a1.9,1.9,0,0,1-3.8.06l-.12-8.15a1.89,1.89,0,0,1,1.87-1.93Z" transform="translate(-0.01 -22.17)"/><path class="cls-13" d="M288.31,66.77a1.55,1.55,0,0,0,0,.22l.19,12.35a2.37,2.37,0,0,0,2.39,2.36l12.57-.19a2.38,2.38,0,0,0,2.32-2.44l-.19-12.35a1.64,1.64,0,0,0,0-.22l-17.25.27Z" transform="translate(-0.01 -22.17)"/><path class="cls-13" d="M301.37,76.37a1.9,1.9,0,0,1,1.93,1.87l.13,8.16a1.9,1.9,0,0,1-3.8.06l-.13-8.16a1.91,1.91,0,0,1,1.87-1.93Zm-16.11-8.45a1.9,1.9,0,0,1,1.93,1.87l.13,8.15a1.91,1.91,0,0,1-3.81.06l-.12-8.15a1.89,1.89,0,0,1,1.87-1.93Zm23.38-.37a1.91,1.91,0,0,1,1.93,1.88l.13,8.15a1.9,1.9,0,0,1-3.8.06l-.13-8.15a1.91,1.91,0,0,1,1.87-1.94ZM288.35,66c0-3.8,3.26-7,7.5-7.44l1.91,0c4.26.35,7.62,3.41,7.73,7.2Z" transform="translate(-0.01 -22.17)"/><path class="cls-14" d="M288.89,58.27,291,61.71M304.71,58l-1.95,3.5" transform="translate(-0.01 -22.17)"/><path class="cls-12" d="M294.32,62.46a1,1,0,0,1-2,0h0a1,1,0,0,1,2,0Zm7.34-.11a1,1,0,0,1-2,0h0a1,1,0,0,1,2,0Z" transform="translate(-0.01 -22.17)"/><circle class="cls-12" cx="187.49" cy="57.33" r="25.5"/><image width="1000" height="377" transform="translate(165.88 48.76) rotate(0.19) scale(0.05)" xlink:href="../../../../../../../Downloads/1_U01ubQ9TrE1Zow5pkGHTfw.png"/></svg>