<svg id="Layer_1" data-name="Layer 1" xmlns="http://www.w3.org/2000/svg" xmlns:xlink="http://www.w3.org/1999/xlink" viewBox="0 0 353.98 255"><defs><style>.cls-1{fill:none;}.cls-2{clip-path:url(#clip-path);}.cls-3{fill:url(#radial-gradient);}.cls-4{clip-path:url(#clip-path-2);}.cls-5{fill:#777bb3;}.cls-6{fill:#fff;}</style><clipPath id="clip-path" transform="translate(-3.02 -21)"><path class="cls-1" d="M3,192.15C3,216,39.82,235.38,85.2,235.38h0c45.38,0,82.17-19.36,82.17-43.23h0c0-23.87-36.79-43.23-82.17-43.23h0C39.82,148.92,3,168.28,3,192.15"/></clipPath><radialGradient id="radial-gradient" cx="0.63" cy="300.8" r="0.24" gradientTransform="matrix(453.82, 0, 0, -453.82, -235.32, 136675.45)" gradientUnits="userSpaceOnUse"><stop offset="0" stop-color="#aeb2d5"/><stop offset="0.3" stop-color="#aeb2d5"/><stop offset="0.75" stop-color="#484c89"/><stop offset="1" stop-color="#484c89"/></radialGradient><clipPath id="clip-path-2" transform="translate(-3.02 -21)"><rect class="cls-1" x="-0.4" y="144" width="171.2" height="96.3"/></clipPath></defs><title>why-3</title><image width="500" height="500" transform="translate(228.98 95) scale(0.25)" xlink:href="../../../../../../../Downloads/js-logo.png"/><g id="g3438"><g id="g3440"><g class="cls-2"><g id="g3442"><g id="g3448"><g id="g3450"><path id="path3462" class="cls-3" d="M3,192.15C3,216,39.82,235.38,85.2,235.38h0c45.38,0,82.17-19.36,82.17-43.23h0c0-23.87-36.79-43.23-82.17-43.23h0C39.82,148.92,3,168.28,3,192.15" transform="translate(-3.02 -21)"/></g></g></g></g></g><g id="g3464"><g class="cls-4"><g id="g3466"><g id="g3472"><path id="path3474" class="cls-5" d="M85.2,232.17c43.61,0,79-17.92,79-40s-35.35-40-79-40-79,17.92-79,40,35.36,40,79,40" transform="translate(-3.02 -21)"/></g></g></g></g><g id="g3476"><g class="cls-4"><g id="g3478"><g id="g3484"><path id="path3486" d="M47.67,197.11c3.59,0,6.26-.66,8-2s2.83-3.53,3.44-6.65c.56-2.91.35-4.95-.64-6.05s-3.21-1.69-6.51-1.69H46.19L43,197.11ZM28.93,217.25a.9.9,0,0,1-.88-1.06l8.42-43.32a.9.9,0,0,1,.88-.73H55.49c5.71,0,9.95,1.55,12.62,4.61s3.51,7.36,2.46,12.75a20.5,20.5,0,0,1-2.18,6.07,20.1,20.1,0,0,1-4,5,17.49,17.49,0,0,1-6.61,4,29.69,29.69,0,0,1-9.07,1.17H41.34l-2.1,10.8a.9.9,0,0,1-.88.72Z" transform="translate(-3.02 -21)"/></g><g id="g3488"><path id="path3490" class="cls-6" d="M46.92,181.66h5c4,0,5.37.87,5.85,1.39.78.87.92,2.69.42,5.28-.56,2.9-1.61,5-3.11,6.11s-4,1.78-7.41,1.78H44.09Zm8.57-10.41H37.35a1.78,1.78,0,0,0-1.75,1.45L27.18,216a1.78,1.78,0,0,0,1.75,2.12h9.43a1.78,1.78,0,0,0,1.75-1.44l2-10.08h6.62A31,31,0,0,0,58,205.41,18.3,18.3,0,0,0,65,201.25,21.2,21.2,0,0,0,69.17,196a21.56,21.56,0,0,0,2.28-6.34c1.1-5.67.2-10.22-2.67-13.51s-7.32-4.91-13.29-4.91M41.93,198h5.74c3.81,0,6.64-.71,8.5-2.15s3.12-3.82,3.77-7.18.34-5.49-.85-6.81-3.59-2-7.17-2H45.45L41.93,198m13.56-25q8.19,0,11.95,4.29t2.26,12A18.86,18.86,0,0,1,63.77,200a16.57,16.57,0,0,1-6.28,3.76,28.91,28.91,0,0,1-8.8,1.13H40.6l-2.24,11.52H28.93L37.35,173H55.49" transform="translate(-3.02 -21)"/></g><g id="g3492"><path id="path3494" d="M92.21,205.73a.89.89,0,0,1-.88-1.06l3.73-19.17c.35-1.82.26-3.13-.25-3.68-.31-.34-1.26-.91-4-.91H84L79.34,205a.89.89,0,0,1-.88.72H69.1a.89.89,0,0,1-.88-1.06l8.42-43.32a.9.9,0,0,1,.88-.72h9.36a.89.89,0,0,1,.88,1.06l-2,10.45H93c5.53,0,9.28,1,11.47,3s2.92,5.31,2.06,9.72L102.59,205a.88.88,0,0,1-.87.72Z" transform="translate(-3.02 -21)"/></g><g id="g3496"><path id="path3498" class="cls-6" d="M86.88,159.74H77.52a1.78,1.78,0,0,0-1.75,1.44L67.35,204.5a1.77,1.77,0,0,0,.37,1.47,1.8,1.8,0,0,0,1.38.65h9.36a1.77,1.77,0,0,0,1.75-1.44l4.54-23.38h6c2.78,0,3.36.6,3.39.62.17.19.39,1,0,2.91L90.46,204.5a1.77,1.77,0,0,0,.37,1.47,1.8,1.8,0,0,0,1.38.65h9.51a1.78,1.78,0,0,0,1.75-1.44L107.39,185c.92-4.73.13-8.28-2.34-10.55s-6.3-3.22-12.07-3.22H86.81l1.82-9.39a1.77,1.77,0,0,0-1.75-2.12m0,1.78L84.64,173H93q7.88,0,10.86,2.74c2,1.83,2.59,4.8,1.8,8.9l-3.92,20.16H92.21l3.72-19.17q.64-3.27-.47-4.46c-.73-.79-2.3-1.19-4.69-1.19H83.28l-4.82,24.82H69.1l8.42-43.32h9.36" transform="translate(-3.02 -21)"/></g><g id="g3500"><path id="path3502" d="M121.33,197.11c3.58,0,6.26-.66,8-2s2.84-3.53,3.44-6.65c.57-2.91.35-4.95-.64-6.05s-3.2-1.69-6.5-1.69h-5.74l-3.17,16.35Zm-18.75,20.14a.89.89,0,0,1-.87-1.06l8.42-43.32a.9.9,0,0,1,.87-.73h18.15c5.7,0,9.95,1.55,12.61,4.61s3.52,7.36,2.47,12.75a19.8,19.8,0,0,1-6.2,11.1,17.56,17.56,0,0,1-6.61,4,29.76,29.76,0,0,1-9.08,1.17H115l-2.1,10.8a.89.89,0,0,1-.87.72Z" transform="translate(-3.02 -21)"/></g><g id="g3504"><path id="path3506" class="cls-6" d="M120.58,181.66h5c4,0,5.37.87,5.84,1.39.78.87.93,2.69.43,5.28-.57,2.9-1.61,5-3.11,6.11s-4,1.78-7.41,1.78h-3.58Zm8.57-10.41H111a1.79,1.79,0,0,0-1.75,1.45L100.83,216a1.79,1.79,0,0,0,1.75,2.12H112a1.79,1.79,0,0,0,1.75-1.44l2-10.08h6.61a31,31,0,0,0,9.36-1.21,18.37,18.37,0,0,0,6.94-4.16,20.57,20.57,0,0,0,6.46-11.58c1.11-5.67.21-10.22-2.66-13.51s-7.32-4.91-13.29-4.91M115.59,198h5.74c3.8,0,6.63-.71,8.5-2.15s3.11-3.82,3.77-7.18.34-5.49-.86-6.81-3.58-2-7.16-2h-6.47L115.59,198m13.56-25q8.19,0,11.94,4.29t2.26,12A18.76,18.76,0,0,1,137.43,200a16.61,16.61,0,0,1-6.29,3.76,28.87,28.87,0,0,1-8.8,1.13h-8.08L112,216.36h-9.44L111,173h18.15" transform="translate(-3.02 -21)"/></g></g></g></g></g><image width="512" height="512" transform="translate(48.98) scale(0.5)" xlink:href="../../../../../../../Downloads/PgcSR.png"/></svg>