<svg id="Layer_1" data-name="Layer 1" xmlns="http://www.w3.org/2000/svg" xmlns:xlink="http://www.w3.org/1999/xlink" viewBox="0 0 272 297.89"><defs><style>.cls-1{fill:#f2f2f2;}.cls-2{fill:#3f3d56;}.cls-3{fill:#6c63ff;}.cls-4{fill:#fff;}.cls-5{fill:#2f2e41;}.cls-6{fill:#ffb9b9;}.cls-7{opacity:0.1;isolation:isolate;}.cls-8{fill:#9f616a;}.cls-9{fill:#d0cde1;}.cls-10{fill:#fcfcfc;stroke:#000;stroke-miterlimit:10;}.cls-11{fill:#a4c639;}.cls-12{fill:none;stroke:#a4c639;stroke-linecap:round;stroke-linejoin:round;stroke-width:3px;}</style></defs><title>why-1</title><path class="cls-1" d="M307,270.55l-87.4.28c-23.19-7-42.18-31.16-42.3-67.44a102.46,102.46,0,0,1,1.23-16.32l70.39-15.82,54.31-12.2a108.24,108.24,0,0,1,11.16,11.6l-51.93,27.42L238,211l27.53-9.49,57.13-19.71a138.27,138.27,0,0,1,9.5,17l-17.24,17.82,19.5-12.77c.09.2.17.39.25.59C347,233.81,331.66,270.46,307,270.55Z" transform="translate(-67 -1.38)"/><path class="cls-1" d="M292.63,150.84c-13.21,3.8-29.46,8.59-46.17,13.58-24.15,7.21-49.26,14.81-67.55,20.37l0-.06A25.07,25.07,0,0,1,183.56,174c13.54-17.61,30.79-29.91,50-34.48h0a72,72,0,0,1,16.47-2C265.28,137.48,279.75,142.27,292.63,150.84Z" transform="translate(-67 -1.38)"/><ellipse class="cls-2" cx="137.35" cy="270.92" rx="86.93" ry="6.48"/><path class="cls-1" d="M191.38,164.88c0,46.84-27.84,63.19-62.19,63.19S67,211.72,67,164.88,129.19,58.46,129.19,58.46,191.38,118,191.38,164.88Z" transform="translate(-67 -1.38)"/><polygon class="cls-2" points="59.93 219.52 60.56 180.32 87.07 131.83 60.66 174.18 60.95 156.55 79.22 121.47 61.02 151.88 61.02 151.89 61.54 120.19 81.1 92.25 61.62 115.2 61.94 57.07 59.92 134.02 60.09 130.85 40.2 100.41 59.77 136.94 57.91 172.35 57.86 171.41 34.93 139.37 57.79 174.73 57.56 179.15 57.52 179.22 57.54 179.58 52.83 269.4 59.12 269.4 59.87 223.01 82.67 187.74 59.93 219.52"/><path class="cls-2" d="M265.62,12.49V259.64a11.12,11.12,0,0,1-11.11,11.1H154.17a11.1,11.1,0,0,1-11.11-11.07V12.49A11.12,11.12,0,0,1,154.17,1.38h15V3.31a9.15,9.15,0,0,0,9.14,9.15h51a9.1,9.1,0,0,0,5.42-1.79,8.13,8.13,0,0,0,.9-.75,9.15,9.15,0,0,0,2.83-6.61V1.38h16a11.12,11.12,0,0,1,11.11,11.1Z" transform="translate(-67 -1.38)"/><path class="cls-3" d="M199.78,98.15c0,6.9-4.1,9.31-9.16,9.31h-.35l-.69,0c-4.57-.32-8.12-2.85-8.12-9.27,0-6.63,8.48-15,9.11-15.64h0l0,0S199.77,91.26,199.78,98.15Z" transform="translate(-67 -1.38)"/><path class="cls-2" d="M190.29,106.41l3.35-4.68-3.36,5.19v.54l-.69,0,.35-6.9v-.07l0-.65-3.37-5.2L190,99.32v.14l.27-5.21-2.89-5.38,2.92,4.46.28-10.81v0l0,8.53,2.87-3.38-2.88,4.11-.08,4.67L193.12,92l-2.69,5.17,0,2.59,3.89-6.24-3.9,7.15Z" transform="translate(-67 -1.38)"/><polygon class="cls-3" points="180.81 184.81 93.87 184.81 93.87 193.31 93.87 206.24 93.87 213.52 101.15 206.24 180.81 206.24 180.81 184.81"/><rect class="cls-4" x="113.27" y="190.02" width="48.91" height="3.97"/><rect class="cls-4" x="113.27" y="195.96" width="48.91" height="3.97"/><polygon class="cls-3" points="93.87 145.73 180.81 145.73 180.81 154.22 180.81 167.16 180.81 174.44 173.53 167.16 93.87 167.16 93.87 145.73"/><rect class="cls-4" x="108.69" y="151.31" width="48.91" height="3.97"/><rect class="cls-4" x="108.69" y="157.26" width="48.91" height="3.97"/><path class="cls-1" d="M157.44,57.22v70h93.8v-70Zm12.09.88A1.51,1.51,0,1,1,168,59.61h0a1.51,1.51,0,0,1,1.51-1.51Zm-9.07,3A1.51,1.51,0,1,1,162,59.61a1.51,1.51,0,0,1-1.51,1.51Zm3-1.51A1.52,1.52,0,1,1,165,61.12h0a1.51,1.51,0,0,1-1.52-1.51Zm52,48H165V70.06h50.48Z" transform="translate(-67 -1.38)"/><rect class="cls-4" x="179.2" y="57.1" width="3.02" height="0.38"/><rect class="cls-4" x="179.2" y="58.23" width="3.02" height="0.38"/><rect class="cls-4" x="179.2" y="59.36" width="3.02" height="0.38"/><rect class="cls-4" x="156.41" y="68.05" width="22.79" height="1.13"/><rect class="cls-4" x="156.41" y="71.95" width="22.79" height="1.13"/><rect class="cls-4" x="156.41" y="75.86" width="22.79" height="1.13"/><rect class="cls-4" x="156.41" y="79.76" width="22.79" height="1.13"/><rect class="cls-4" x="156.41" y="83.66" width="22.79" height="1.13"/><rect class="cls-4" x="156.41" y="87.57" width="22.79" height="1.13"/><rect class="cls-4" x="156.41" y="91.47" width="22.79" height="1.13"/><rect class="cls-4" x="156.41" y="95.37" width="22.79" height="1.13"/><rect class="cls-4" x="156.41" y="99.27" width="22.79" height="1.13"/><rect class="cls-4" x="156.41" y="103.18" width="22.79" height="1.13"/><circle class="cls-4" cx="101.02" cy="108.84" r="1.51"/><circle class="cls-4" cx="106.18" cy="108.84" r="1.51"/><circle class="cls-4" cx="111.34" cy="108.84" r="1.51"/><rect class="cls-3" x="156.41" y="116.27" width="22.79" height="6.42"/><path class="cls-5" d="M122.25,205.57l-.83,29.24-8.91,34.25s1.94,5.85.55,7.24-7.79,3.9-7.79,3.9l5.29-73Z" transform="translate(-67 -1.38)"/><path class="cls-5" d="M102.91,276.16s-3.18,7,1.27,7.62,25,2.33,23.72-1.27-16.73-7-16.73-7Z" transform="translate(-67 -1.38)"/><path class="cls-5" d="M91.06,179.68s3.35,18.09,5.57,21.16-1.11,25.34-1.11,25.34-5,32-2.78,37,1.67,3.34,1.39,6.13-.84,5,0,7.52a22.47,22.47,0,0,1,1.11,3.61c.28,1.4,0,8.92,0,8.92s12,4.17,13.92-1.95c0,0-2.78-3.9-1.94-7a37.37,37.37,0,0,0,1.39-9.46v-5.85l12.81-47.89L124.48,200s-.84-17.54-3.9-19.21S91.06,179.68,91.06,179.68Z" transform="translate(-67 -1.38)"/><path class="cls-5" d="M96.08,288s-4.18,9.19,1.67,10,32.86,3.06,31.18-1.67-22-9.19-22-9.19Z" transform="translate(-67 -1.38)"/><circle class="cls-6" cx="34.37" cy="86.97" r="11.14"/><path class="cls-6" d="M93.54,93.28l.21,14.22,13.66,0s-3.47-11.14-1.92-13.47S93.54,93.28,93.54,93.28Z" transform="translate(-67 -1.38)"/><path class="cls-2" d="M113.9,115.35s-9.75-12.53-17.27-7.24-10.3,17.82-10.3,17.82L88,161s4.18,5,1.67,8.35-3.9,2.51-2,5,4.18,4.46,3.34,5.3.84,1.39.84,1.39l29.52.83s-.84-1.11,1.67-4.45-.56-7.8,0-9.47,1.11.28,1.39-3.62S113.9,115.35,113.9,115.35Z" transform="translate(-67 -1.38)"/><path class="cls-6" d="M111.11,187.19s.56,7,4.74,8.08a3.26,3.26,0,0,0,3.59-1.54,6.82,6.82,0,0,0,.22-7.67l-1-1.65Z" transform="translate(-67 -1.38)"/><path class="cls-2" d="M85.36,101.29s-.28,5.57,0,6.41a2.67,2.67,0,0,1,0,2.5c-.56.84-.28,3.62.28,3.9s-1.12,2.78-.56,4.46a12.19,12.19,0,0,0,1.39,2.78c.28.56.73,1.55.73,1.55s8.18-17.42,14.86-13.25a48.41,48.41,0,0,0,12,5.57S110.42,95.72,85.36,101.29Z" transform="translate(-67 -1.38)"/><path class="cls-2" d="M97.47,114.24s-8.91.83-8.35,12.53-.84,30.07-.84,30.07,15.32,23.39,17.82,25.06,2.79,1.4,2.51,2.79-.56,2.5.55,3.62a9.85,9.85,0,0,0,2.23,1.67s8.91-3.06,8.08-5.85-4.74-7.24-4.74-7.24-6.68-10.86-7-12.53-.28-1.39-1.11-2.23-3.06-4.17-3.06-5.84V151l2.33-28.27a8.24,8.24,0,0,0-2.17-6.35A7.1,7.1,0,0,0,97.47,114.24Z" transform="translate(-67 -1.38)"/><path class="cls-5" d="M108.55,79.77a4.57,4.57,0,0,0,4.21-1,3.43,3.43,0,0,0,.68-4.11,5.45,5.45,0,0,0-3.21-2,28.68,28.68,0,0,0-8.43-1.29,7.66,7.66,0,0,0-4,.82c-.57.35-1.06.83-1.63,1.19a20.66,20.66,0,0,1-3.46,1.34,8.88,8.88,0,0,0-5.06,5.36,10.83,10.83,0,0,0-.5,2.52,13.88,13.88,0,0,0,1.21,6.84c1.55,3.38,4.51,6.23,4.93,9.94,1.59-1.34,2-3.58,3.29-5.25a6.78,6.78,0,0,1,3.71-2.53,2.15,2.15,0,0,0,1.13-.5,1.86,1.86,0,0,0,.35-1l.77-5.51a4.67,4.67,0,0,1,1.22-3.07,4.24,4.24,0,0,1,1.83-.8,28.28,28.28,0,0,1,4.76-.77" transform="translate(-67 -1.38)"/><path class="cls-7" d="M89.63,160.82l15.64,20.28S90.87,169.07,89.63,160.82Z" transform="translate(-67 -1.38)"/><polygon class="cls-7" points="37.64 136.98 37.49 156.14 46.57 169.75 39.14 154.49 37.64 136.98"/><path class="cls-5" d="M273.58,265.34,271.77,264s-1.2,6.69.14,7.69,6.35,2.67,6.35,4.68S289.61,281,290,278a6.66,6.66,0,0,0-1-4.68s-5.35-5.34-6-6.34-2.34-3-2.34-3Z" transform="translate(-67 -1.38)"/><path class="cls-5" d="M300.3,182.15s-.05.3-.13.83-.19,1.16-.33,2c-1.4,8.56-5.49,33.77-5.22,34.6.34,1,2.68,4.67,0,5.68a2.06,2.06,0,0,0-.83.9,20,20,0,0,0-1.41,3.34,146,146,0,0,0-4.28,17.14c-.43,2.26-.73,4.07-.81,5a2.51,2.51,0,0,0,0,.67c.33,1.33-2,6-3,7.35s-2.67,2.67-2.34,4-8.35,5-9.35,2.68a39.86,39.86,0,0,1-1.34-4.35c-.33-.66-.67-5.34,1-6s.67-12.36,2.34-14.7a31.85,31.85,0,0,0,2.3-6.58c.35-1.25.71-2.57,1.05-3.89,1.41-5.44,2.66-10.91,2.66-10.91l-.33-39.08,18.37-2.34.47,1,.94,2.06Z" transform="translate(-67 -1.38)"/><path class="cls-5" d="M301.31,246.29s2.67-2.67,4,0,2.67,13,5,15.37,5.34,14,2,14.7-7-1-7.35-3S297.63,261,297.63,260s4.68-4.68,4.68-4.68Z" transform="translate(-67 -1.38)"/><path class="cls-5" d="M260.22,163.78s4.34,39.08,5.34,42.76,6.35,17.7,8,20S285.94,248,287.28,249s4,3.67,4,3.67,5,5,5.68,6,6.35-2,6.68-4A20.58,20.58,0,0,0,303,248c-.34-1.33.66-3.34-.34-4.34s-6-6-6-8.35-8.69-16-12-19-2.67-8-2.67-8V187.83l18.37-5.68s-1-16-3.34-16S263.89,160.77,260.22,163.78Z" transform="translate(-67 -1.38)"/><circle class="cls-8" cx="220.28" cy="95.58" r="11.02"/><path class="cls-8" d="M283.6,105.65s-1.34,5-3,6.35,4.35,7,4.35,7l11.36.67,2-6.35s-3.68-7.35-2.67-12S283.6,105.65,283.6,105.65Z" transform="translate(-67 -1.38)"/><path class="cls-2" d="M278.92,111.33s3,.33,3.68,1.33,5.34,4,9,3.35,6-1.68,6.68-1.34,2,7.35,2,7.35l-3.67,10.69.67,29.4,1,8s2-2.67-6-1-18.38-1.33-21.72-1.67-9-1.33-9.35-3.34,1-9.35,1-9.35l5.35-22.39,3.34-12Z" transform="translate(-67 -1.38)"/><path class="cls-9" d="M282.08,109.82s-2.82-1.5-3.82-.16-13.7,3.34-13.7,4.34-2.67,28.06-2,30.4-1.33,5-1.33,5l-2.34,10s-6.35,19-3.68,19.71,5,0,6,0,.67-12.69,3.34-16,6.35-11.69,7-13.36,9-24.72,8.69-27.4S282.08,109.82,282.08,109.82Z" transform="translate(-67 -1.38)"/><path class="cls-9" d="M296,111.33s2.67,0,3,.67a36.39,36.39,0,0,0,5,6c1.34,1,6,5.34,6,6.35s-9.69,8.35-9.69,8.35-4,19.71-2,26.39,5,22.72,3.67,23.72-4.34,1.34-4.34,0-2-15.7-3.67-18.71-6.68-22.05-4.68-27.39S296,111.33,296,111.33Z" transform="translate(-67 -1.38)"/><path class="cls-8" d="M251.86,144.4s-.33,10.36,3.34,15.7a63.66,63.66,0,0,1,6,11.36s6-1.67,7-3.67,7.35-.34,7.35-1-7.68-4-8.35-4.67-3-.67-4.34-2-1.67-4.34-1.67-4.34l-1.34-8.69Z" transform="translate(-67 -1.38)"/><path class="cls-5" d="M279.68,90.17a6.41,6.41,0,0,1-2.47-.57,3.32,3.32,0,0,1-.85-4.9,6.73,6.73,0,0,1,1.18-1L280.08,82a12.25,12.25,0,0,1,3.58-1.91,11.26,11.26,0,0,1,3.66-.21,24.7,24.7,0,0,1,7,1.27A11.76,11.76,0,0,1,300,85.34c2.15,3.11,2.18,7.31,1,10.9s-3.44,6.72-5.65,9.78l-1.15-5.61a2.06,2.06,0,0,0-.65-1.34c-1-.74-2.3.77-3.57.76a2.1,2.1,0,0,1-1.8-1.43,8.11,8.11,0,0,1-.41-2.4c-.15-1.72-.75-4.11-2.38-5.06S281.39,90.32,279.68,90.17Z" transform="translate(-67 -1.38)"/><path class="cls-7" d="M280.3,182.42s1.13,32.64,1.8,33.64,0-33.74,0-33.74Z" transform="translate(-67 -1.38)"/><path class="cls-9" d="M267.23,114h-2.67s-11.36,15.37-10,16.37,0,3.68,0,3.68l-2.68,5s-3.34,3-2.33,3.67,2.33,3.34,2.33,3.34,6.69-1,8.69,3l4.33-5.47Z" transform="translate(-67 -1.38)"/><path class="cls-8" d="M297.63,142.73s-7.35.34-15.7-5l-8.35-3.67s-7.35-11.36-8-9.36,1,6,1,6-10.94,2.09-10.34,5.29c.13.65,5.67-.94,5.67-.94s-1,6.34,4.67,6.68,7.35-1,7.35-1,24.06,20,28.06,13.69S297.63,142.73,297.63,142.73Z" transform="translate(-67 -1.38)"/><path class="cls-9" d="M306.32,123l3.67,1.34v10l1.34,2s-.34,4-1.34,5-3,.67-2.34,3a12.52,12.52,0,0,1,.34,4.68s-6,7.68-6.35,6.68-5-13.36-5.68-13.36S302.64,123,302.64,123Z" transform="translate(-67 -1.38)"/><path class="cls-5" d="M262.39,173.63s-3.46-3.34-1.73-3.51,7.74-3.5,8.74-1.83S262.39,173.63,262.39,173.63Z" transform="translate(-67 -1.38)"/><path class="cls-3" d="M147.33,262.43C147.33,271,142.24,274,136,274h-.44l-.86,0c-5.67-.41-10.08-3.55-10.08-11.52,0-8.24,10.54-18.65,11.33-19.42h0l.05,0S147.33,253.87,147.33,262.43Z" transform="translate(-67 -1.38)"/><path class="cls-2" d="M135.54,272.68l4.16-5.81-4.17,6.45V274l-.86,0,.45-8.58v-.06h0l0-.81L131,258l4.2,5.86v.17l.34-6.47-3.58-6.69,3.62,5.55.35-13.43v0l-.06,10.59,3.57-4.2-3.58,5.11-.09,5.8,3.32-5.57-3.34,6.42,0,3.23,4.83-7.75-4.85,8.87Z" transform="translate(-67 -1.38)"/><circle class="cls-10" cx="219.5" cy="93.12" r="19.5"/><image width="1000" height="377" transform="translate(203.04 87.62) rotate(0.19) scale(0.03)" xlink:href="../../../../../../../Downloads/1_U01ubQ9TrE1Zow5pkGHTfw.png"/><circle class="cls-10" cx="35" cy="82.62" r="19.5"/><path class="cls-11" d="M98.35,87.93a1.72,1.72,0,0,1,1.76,1.7l.11,7.42a1.73,1.73,0,0,1-3.45,0l-.12-7.42a1.73,1.73,0,0,1,1.7-1.75Z" transform="translate(-67 -1.38)"/><path class="cls-11" d="M94.27,79.07a1.27,1.27,0,0,0,0,.2l.17,11.24a2.17,2.17,0,0,0,2.18,2.15L108,92.48a2.16,2.16,0,0,0,2.11-2.22L110,79a1.41,1.41,0,0,0,0-.2l-15.7.25Z" transform="translate(-67 -1.38)"/><path class="cls-11" d="M106.16,87.8a1.73,1.73,0,0,1,1.75,1.71l.12,7.42a1.73,1.73,0,0,1-3.46,0l-.12-7.42a1.75,1.75,0,0,1,1.71-1.76ZM91.49,80.11a1.74,1.74,0,0,1,1.76,1.7l.11,7.42a1.73,1.73,0,1,1-3.45.06l-.12-7.42a1.73,1.73,0,0,1,1.7-1.76Zm21.28-.33a1.74,1.74,0,0,1,1.76,1.7l.11,7.42a1.73,1.73,0,0,1-3.46.06l-.11-7.42a1.73,1.73,0,0,1,1.7-1.76ZM94.31,78.33c0-3.46,3-6.33,6.82-6.77l1.74,0c3.88.31,6.93,3.09,7,6.55Z" transform="translate(-67 -1.38)"/><path class="cls-12" d="M94.8,71.33l1.87,3.13m12.53-3.35-1.78,3.18" transform="translate(-67 -1.38)"/><path class="cls-4" d="M99.73,75.15a.88.88,0,0,1-.87.89.89.89,0,0,1-.92-.86h0a.88.88,0,0,1,.88-.89.87.87,0,0,1,.91.85Zm6.68-.11a.89.89,0,0,1-.88.9.9.9,0,0,1-.91-.86h0a.9.9,0,0,1,.88-.89.88.88,0,0,1,.91.86Z" transform="translate(-67 -1.38)"/></svg>