<svg id="Layer_1" data-name="Layer 1" xmlns="http://www.w3.org/2000/svg" xmlns:xlink="http://www.w3.org/1999/xlink" viewBox="0 0 396.33 291.79"><defs><style>.cls-1{fill:none;}.cls-2{clip-path:url(#clip-path);}.cls-3{fill:url(#radial-gradient);}.cls-4{clip-path:url(#clip-path-2);}.cls-5{fill:#777bb3;}.cls-6{fill:#fff;}.cls-7{fill:#646464;}.cls-8{fill:url(#linear-gradient);}.cls-9{fill:url(#linear-gradient-2);}</style><clipPath id="clip-path" transform="translate(-2.67)"><path class="cls-1" d="M2.67,43.14c0,21.4,33,38.74,73.63,38.74h0c40.67,0,73.63-17.34,73.63-38.74h0c0-21.39-33-38.73-73.63-38.73h0C35.63,4.41,2.67,21.75,2.67,43.14"/></clipPath><radialGradient id="radial-gradient" cx="0.62" cy="301.13" r="0.21" gradientTransform="matrix(453.82, 0, 0, -453.82, -235.32, 136675.45)" gradientUnits="userSpaceOnUse"><stop offset="0" stop-color="#aeb2d5"/><stop offset="0.3" stop-color="#aeb2d5"/><stop offset="0.75" stop-color="#484c89"/><stop offset="1" stop-color="#484c89"/></radialGradient><clipPath id="clip-path-2" transform="translate(-2.67)"><rect class="cls-1" x="-0.4" width="153.4" height="86.29"/></clipPath><linearGradient id="linear-gradient" x1="488.59" y1="-170.75" x2="516.7" y2="-194.93" gradientTransform="matrix(0.56, 0, 0, -0.57, -8.96, 166.65)" gradientUnits="userSpaceOnUse"><stop offset="0" stop-color="#5a9fd4"/><stop offset="1" stop-color="#306998"/></linearGradient><linearGradient id="linear-gradient-2" x1="527.56" y1="-209.57" x2="517.52" y2="-195.37" gradientTransform="matrix(0.56, 0, 0, -0.57, -8.96, 166.65)" gradientUnits="userSpaceOnUse"><stop offset="0" stop-color="#ffd43b"/><stop offset="1" stop-color="#ffe873"/></linearGradient></defs><title>why-11</title><g id="g3438"><g id="g3440"><g class="cls-2"><g id="g3442"><g id="g3448"><g id="g3450"><path id="path3462" class="cls-3" d="M2.67,43.14c0,21.4,33,38.74,73.63,38.74h0c40.67,0,73.63-17.34,73.63-38.74h0c0-21.39-33-38.73-73.63-38.73h0C35.63,4.41,2.67,21.75,2.67,43.14" transform="translate(-2.67)"/></g></g></g></g></g><g id="g3464"><g class="cls-4"><g id="g3466"><g id="g3472"><path id="path3474" class="cls-5" d="M76.3,79c39.08,0,70.76-16,70.76-35.86S115.38,7.29,76.3,7.29,5.54,23.34,5.54,43.14,37.22,79,76.3,79" transform="translate(-2.67)"/></g></g></g></g><g id="g3476"><g class="cls-4"><g id="g3478"><g id="g3484"><path id="path3486" d="M42.67,47.59c3.22,0,5.61-.59,7.13-1.76s2.54-3.16,3.08-5.95c.51-2.62.32-4.44-.57-5.42s-2.87-1.52-5.83-1.52H41.35L38.5,47.59Zm-16.79,18a.78.78,0,0,1-.62-.29.82.82,0,0,1-.17-.66l7.55-38.81a.79.79,0,0,1,.78-.65H49.68c5.11,0,8.92,1.39,11.31,4.12s3.14,6.6,2.2,11.43a17.61,17.61,0,0,1-5.55,9.95,15.88,15.88,0,0,1-5.92,3.55,27,27,0,0,1-8.14,1H37L35.12,65a.8.8,0,0,1-.79.64Z" transform="translate(-2.67)"/></g><g id="g3488"><path id="path3490" class="cls-6" d="M42,33.74h4.48c3.57,0,4.82.79,5.24,1.25.7.78.83,2.41.38,4.73-.5,2.6-1.44,4.44-2.78,5.48s-3.61,1.59-6.65,1.59h-3.2Zm7.68-9.32H33.42a1.6,1.6,0,0,0-1.57,1.29L24.31,64.53a1.6,1.6,0,0,0,1.57,1.9h8.45a1.59,1.59,0,0,0,1.57-1.29l1.76-9h5.92A27.72,27.72,0,0,0,52,55a16.74,16.74,0,0,0,6.22-3.73A18.43,18.43,0,0,0,64,40.93c1-5.09.18-9.17-2.39-12.11s-6.56-4.4-11.91-4.4m-12.15,24h5.14q5.11,0,7.62-1.93C52,45.18,53.08,43,53.67,40s.3-4.92-.77-6.11-3.21-1.78-6.42-1.78H40.69L37.53,48.39M49.68,26Q57,26,60.39,29.87t2,10.75a16.89,16.89,0,0,1-5.31,9.51,15,15,0,0,1-5.63,3.38,26,26,0,0,1-7.89,1H36.34l-2,10.32H25.88L33.42,26H49.68" transform="translate(-2.67)"/></g><g id="g3492"><path id="path3494" d="M82.58,55.31A.8.8,0,0,1,82,55a.78.78,0,0,1-.16-.66l3.33-17.17c.32-1.64.24-2.81-.22-3.3-.28-.31-1.12-.81-3.62-.81H75.24L71.05,54.67a.8.8,0,0,1-.79.64H61.87a.8.8,0,0,1-.78-1l7.54-38.81a.81.81,0,0,1,.79-.65h8.39a.79.79,0,0,1,.61.29.76.76,0,0,1,.17.66l-1.82,9.37h6.51c5,0,8.31.87,10.27,2.67s2.61,4.76,1.85,8.71L91.89,54.67a.8.8,0,0,1-.79.64Z" transform="translate(-2.67)"/></g><g id="g3496"><path id="path3498" class="cls-6" d="M77.81,14.1H69.42a1.6,1.6,0,0,0-1.57,1.29L60.31,54.21a1.57,1.57,0,0,0,.33,1.32,1.59,1.59,0,0,0,1.23.58h8.39a1.59,1.59,0,0,0,1.57-1.29l4.07-21h5.39c2.49,0,3,.54,3,.56s.35.92,0,2.6L81,54.21a1.6,1.6,0,0,0,1.57,1.9H91.1a1.59,1.59,0,0,0,1.57-1.29l3.51-18.06c.83-4.24.12-7.43-2.09-9.46s-5.65-2.88-10.81-2.88H77.74L79.38,16A1.61,1.61,0,0,0,79,14.68a1.59,1.59,0,0,0-1.23-.58m0,1.6L75.8,26h7.48q7.05,0,9.73,2.46c1.78,1.64,2.32,4.3,1.6,8L91.1,54.51H82.58l3.34-17.17c.38-2,.24-3.29-.42-4s-2.06-1.06-4.21-1.06H74.58L70.26,54.51H61.87L69.42,15.7h8.39" transform="translate(-2.67)"/></g><g id="g3500"><path id="path3502" d="M108.67,47.59c3.21,0,5.61-.59,7.13-1.76s2.54-3.16,3.08-5.95c.51-2.62.32-4.44-.57-5.42s-2.87-1.52-5.83-1.52h-5.14L104.5,47.59Zm-16.79,18a.78.78,0,0,1-.62-.29.82.82,0,0,1-.17-.66l7.55-38.81a.79.79,0,0,1,.78-.65h16.26c5.11,0,8.91,1.39,11.31,4.12s3.14,6.6,2.2,11.43a17.61,17.61,0,0,1-5.55,9.95,15.88,15.88,0,0,1-5.92,3.55,27,27,0,0,1-8.14,1H103L101.12,65a.81.81,0,0,1-.79.64Z" transform="translate(-2.67)"/></g><g id="g3504"><path id="path3506" class="cls-6" d="M108,33.74h4.48c3.57,0,4.81.79,5.24,1.25.7.78.83,2.41.38,4.73-.51,2.6-1.44,4.44-2.79,5.48s-3.61,1.59-6.64,1.59h-3.2Zm7.68-9.32H99.42a1.6,1.6,0,0,0-1.57,1.29L90.31,64.53a1.59,1.59,0,0,0,1.57,1.9h8.45a1.6,1.6,0,0,0,1.57-1.29l1.76-9h5.92A27.61,27.61,0,0,0,118,55a16.58,16.58,0,0,0,6.22-3.73,18.7,18.7,0,0,0,3.75-4.7,19,19,0,0,0,2-5.67c1-5.09.18-9.17-2.39-12.11s-6.56-4.4-11.91-4.4m-12.15,24h5.14q5.11,0,7.62-1.93C118,45.18,119.08,43,119.67,40s.3-4.92-.77-6.11-3.21-1.78-6.42-1.78h-5.79l-3.16,16.25M115.68,26q7.33,0,10.7,3.85t2,10.75a17.31,17.31,0,0,1-1.87,5.2,17.5,17.5,0,0,1-3.44,4.31,15,15,0,0,1-5.63,3.38,26,26,0,0,1-7.89,1h-7.24l-2,10.32H91.88L99.42,26h16.26" transform="translate(-2.67)"/></g></g></g></g></g><image width="512" height="512" transform="translate(277.33 120) scale(0.17)" xlink:href="../../../../../../../Downloads/PgcSR.png"/><image width="500" height="500" transform="translate(18.33 174) scale(0.15)" xlink:href="../../../../../../../Downloads/js-logo.png"/><image width="1200" height="2195" transform="translate(137.33 43) scale(0.09)" xlink:href="../../../../../../../Downloads/1200px-Java_programming_language_logo.svg%20(2).png"/><path id="path46" class="cls-7" d="M312.75,277.13q0-5.64-3.21-5.79a6,6,0,0,0-2.5.41,3.58,3.58,0,0,0-1.3.69v9a6.35,6.35,0,0,0,3.64,1.2Q312.76,282.38,312.75,277.13Zm2.64.15A8,8,0,0,1,314,282a5,5,0,0,1-4.17,2.2,7.39,7.39,0,0,1-4.13-1.26v8.15l-2.3-.82V272.22a5.25,5.25,0,0,1,1.45-1.2,10,10,0,0,1,5-1.22l0,0A4.59,4.59,0,0,1,314,272,9.34,9.34,0,0,1,315.39,277.28Z" transform="translate(-2.67)"/><path id="path48" class="cls-7" d="M329.43,282.63a12.7,12.7,0,0,1-.77,5.31,5.46,5.46,0,0,1-2.94,2.36,11.58,11.58,0,0,1-3.81.76l-.38-1.45a18.22,18.22,0,0,0,2.93-.57,3.78,3.78,0,0,0,2.29-1.73,8.56,8.56,0,0,0,.51-3.61v-.6a11.87,11.87,0,0,1-4.94,1.07,4.57,4.57,0,0,1-3-1.07,3.66,3.66,0,0,1-1.45-3v-9.56l2.3-.78v9.62a2.92,2.92,0,0,0,1,2.38,3.77,3.77,0,0,0,2.57.8,6.5,6.5,0,0,0,3.38-1.23V270.15h2.3Z" transform="translate(-2.67)"/><path id="path50" class="cls-7" d="M338.4,284.11l-.76,0a4.55,4.55,0,0,1-3-.93,3.22,3.22,0,0,1-1.08-2.57v-9.05H332v-1.44h1.57v-3.84l2.29-.82v4.66h2.59v1.44h-2.59v9a2.17,2.17,0,0,0,.7,1.83,3.45,3.45,0,0,0,1.89.51Z" transform="translate(-2.67)"/><path id="path52" class="cls-7" d="M352.3,283.92H350v-8.87a4.21,4.21,0,0,0-.63-2.33,2.31,2.31,0,0,0-2-1.1,7.48,7.48,0,0,0-4,1.67v10.63h-2.3v-21.2l2.3-.72v9.65a8,8,0,0,1,4.81-1.6,3.83,3.83,0,0,1,3,1.23,4.28,4.28,0,0,1,1.13,3.05v9.59Z" transform="translate(-2.67)"/><path id="path54" class="cls-7" d="M364.51,276.76a7,7,0,0,0-.82-3.57,3.42,3.42,0,0,0-3-1.82q-3.76.22-3.77,5.41a8.83,8.83,0,0,0,.79,4,3.15,3.15,0,0,0,3,2C363.25,282.73,364.51,280.74,364.51,276.76Zm2.52,0a8.19,8.19,0,0,1-1.58,5.13,5.66,5.66,0,0,1-4.78,2.29,5.58,5.58,0,0,1-4.72-2.29,8.36,8.36,0,0,1-1.54-5.13,7.35,7.35,0,0,1,1.67-4.88,5.74,5.74,0,0,1,4.62-2.1,5.83,5.83,0,0,1,4.66,2.1A7.35,7.35,0,0,1,367,276.78Z" transform="translate(-2.67)"/><path id="path56" class="cls-7" d="M380.2,283.92h-2.3v-9.37a3.13,3.13,0,0,0-.93-2.41,3.36,3.36,0,0,0-2.47-.83,5.51,5.51,0,0,0-3.11,1.07v11.54h-2.3V272.09a11.25,11.25,0,0,1,3.65-1.88,10.85,10.85,0,0,1,2.77-.41,6.93,6.93,0,0,1,1.54.16,4.41,4.41,0,0,1,2.2,1.16,3.08,3.08,0,0,1,.95,2.26Z" transform="translate(-2.67)"/><path id="path1948" class="cls-8" d="M280.75,262.81a18.72,18.72,0,0,0-3.3.28c-2.93.52-3.46,1.6-3.46,3.59v2.64h6.91v.88h-9.5a4.31,4.31,0,0,0-4.32,3.5,12.91,12.91,0,0,0,0,7c.49,2,1.66,3.5,3.67,3.5h2.38v-3.16a4.39,4.39,0,0,1,4.32-4.29h6.9a3.48,3.48,0,0,0,3.46-3.51v-6.59a3.86,3.86,0,0,0-3.46-3.59A20.8,20.8,0,0,0,280.75,262.81ZM277,264.93a1.32,1.32,0,1,1-1.29,1.32A1.31,1.31,0,0,1,277,264.93Z" transform="translate(-2.67)"/><path id="path1950" class="cls-9" d="M288.67,270.2v3.07a4.43,4.43,0,0,1-4.32,4.38h-6.9a3.53,3.53,0,0,0-3.46,3.51v6.59c0,1.87,1.63,3,3.46,3.51a11.57,11.57,0,0,0,6.9,0c1.74-.5,3.46-1.52,3.46-3.51v-2.64H280.9v-.88h10.37c2,0,2.75-1.4,3.45-3.5a11.9,11.9,0,0,0,0-7c-.49-2-1.44-3.5-3.45-3.5Zm-3.88,16.67a1.32,1.32,0,1,1-1.3,1.31A1.31,1.31,0,0,1,284.79,286.87Z" transform="translate(-2.67)"/><path id="text3004" class="cls-7" d="M384.67,268.1h.4v-2.53h1v-.3h-2.31v.3h.95v2.53m1.71,0h.35v-2.31l.74,2.31h.39l.78-2.3v2.3H389v-2.83h-.5l-.85,2.42-.72-2.42h-.56v2.83" transform="translate(-2.67)"/><image width="1200" height="453" transform="translate(245.33) scale(0.13)" xlink:href="../../../../../../../Downloads/Ruby_On_Rails_Logo.svg.png"/></svg>