<svg id="Layer_1" data-name="Layer 1" xmlns="http://www.w3.org/2000/svg" viewBox="0 0 394 226.38"><defs><style>.cls-1{fill:#f2f2f2;}.cls-2{fill:#6c63ff;}.cls-3{fill:#3f3d56;}.cls-4{opacity:0.1;isolation:isolate;}</style></defs><title>why-2</title><circle class="cls-1" cx="85.37" cy="180.46" r="20.49"/><circle class="cls-2" cx="88.7" cy="177.46" r="20.49"/><rect class="cls-3" x="105.2" y="154.79" width="253.52" height="0.69"/><path class="cls-3" d="M239.5,43.45h-90V41.6H108.71v1.85H18.36a6.09,6.09,0,0,0-6.09,6.09h0V172.75a6.09,6.09,0,0,0,6.09,6.09H239.5a6.09,6.09,0,0,0,6.09-6.09V49.54a6.09,6.09,0,0,0-6.09-6.09Z" transform="translate(-3 -37)"/><rect class="cls-2" x="17.43" y="17.21" width="216.99" height="122.41"/><circle class="cls-2" cx="125.74" cy="11.64" r="2.23"/><polygon class="cls-4" points="172.37 139.62 17.43 139.62 17.43 17.21 172.37 139.62"/><circle class="cls-1" cx="51.39" cy="109.6" r="20.86"/><rect class="cls-3" x="176.38" y="83.22" width="20.27" height="4.24"/><rect class="cls-3" x="151.87" y="50.25" width="69.28" height="1.82"/><rect class="cls-3" x="151.87" y="56" width="69.28" height="1.82"/><rect class="cls-3" x="151.87" y="61.74" width="69.28" height="1.82"/><rect class="cls-3" x="151.87" y="67.49" width="69.28" height="1.82"/><rect class="cls-3" x="151.87" y="73.24" width="69.28" height="1.82"/><rect class="cls-1" x="212.68" y="19.69" width="8.47" height="8.47"/><path class="cls-3" d="M228.08,69.1H217.8V58.81h10.28Zm-9.84-.45h9.4V59.26h-9.4Z" transform="translate(-3 -37)"/><path class="cls-3" d="M251.68,174.39H230.5v-1.53a.3.3,0,0,0-.3-.3h-7.26a.3.3,0,0,0-.3.3h0v1.53H218.1v-1.53a.31.31,0,0,0-.3-.3h-7.26a.31.31,0,0,0-.31.3h0v1.53H205.7v-1.53a.31.31,0,0,0-.31-.3h-7.26a.3.3,0,0,0-.3.3h0v1.53h-4.54v-1.53a.3.3,0,0,0-.3-.3h-7.26a.3.3,0,0,0-.3.3h0v1.53h-4.54v-1.53a.31.31,0,0,0-.3-.3h-7.27a.31.31,0,0,0-.3.3h0v1.53h-4.54v-1.53a.3.3,0,0,0-.3-.3h-7.26a.3.3,0,0,0-.3.3h0v1.53h-4.54v-1.53a.31.31,0,0,0-.3-.3H98.9a.3.3,0,0,0-.3.3h0v1.53H94.06v-1.53a.3.3,0,0,0-.3-.3H86.5a.3.3,0,0,0-.3.3h0v1.53H81.66v-1.53a.31.31,0,0,0-.3-.3H74.09a.31.31,0,0,0-.3.3h0v1.53H69.25v-1.53a.3.3,0,0,0-.3-.3H61.69a.3.3,0,0,0-.3.3h0v1.53H56.85v-1.53a.31.31,0,0,0-.3-.3H49.29a.31.31,0,0,0-.31.3h0v1.53H44.45v-1.53a.31.31,0,0,0-.31-.3H36.88a.31.31,0,0,0-.3.3h0v1.53H32v-1.53a.3.3,0,0,0-.3-.3H24.48a.3.3,0,0,0-.3.3h0v1.53H10.26A7.26,7.26,0,0,0,3,181.65v3.28a7.26,7.26,0,0,0,7.26,7.26H251.68a7.26,7.26,0,0,0,7.26-7.26v-3.28A7.26,7.26,0,0,0,251.68,174.39Z" transform="translate(-3 -37)"/><path class="cls-3" d="M59.44,159.62a26.29,26.29,0,1,1,26.28-26.28A26.28,26.28,0,0,1,59.44,159.62Zm0-51.88A25.6,25.6,0,1,0,85,133.34,25.6,25.6,0,0,0,59.44,107.74Z" transform="translate(-3 -37)"/><rect class="cls-3" x="202.74" y="11.26" width="88.2" height="0.69"/><rect class="cls-3" x="140.48" y="193.87" width="253.52" height="0.69"/><rect class="cls-2" x="162.9" y="190.23" width="9.68" height="9.68"/><path class="cls-3" d="M181.47,231.38H169.71V219.62h11.76Zm-11.25-.51H181V220.13H170.22Z" transform="translate(-3 -37)"/><rect class="cls-2" x="275.31" y="7.61" width="9.68" height="9.68"/><path class="cls-3" d="M293.87,48.76H282.11V37h11.76Zm-11.25-.51h10.74V37.51H282.62Z" transform="translate(-3 -37)"/><rect class="cls-2" x="372.84" y="190.23" width="9.68" height="9.68"/><path class="cls-3" d="M391.41,231.38H379.65V219.62h11.76Zm-11.25-.51H390.9V220.13H380.16Z" transform="translate(-3 -37)"/><path class="cls-3" d="M368.64,117.23h-.82V94.69a13,13,0,0,0-13.05-13H307a13,13,0,0,0-13,13h0V218.33a13,13,0,0,0,13,13h47.75a13,13,0,0,0,13.05-13h0V133.27h.82Z" transform="translate(-3 -37)"/><path class="cls-2" d="M365,95.46V218.92a9.74,9.74,0,0,1-9.74,9.74h-48a9.74,9.74,0,0,1-9.74-9.74V95.46a9.74,9.74,0,0,1,9.74-9.74h5.82a4.63,4.63,0,0,0,2.54,6,4.74,4.74,0,0,0,1.75.34h27.35a4.63,4.63,0,0,0,4.63-4.63,4.69,4.69,0,0,0-.34-1.74h6.23A9.74,9.74,0,0,1,365,95.46Z" transform="translate(-3 -37)"/><rect class="cls-3" x="321.16" y="130.12" width="14.29" height="4.24"/><rect class="cls-3" x="303.88" y="97.14" width="48.85" height="1.82"/><rect class="cls-3" x="303.88" y="102.89" width="48.85" height="1.82"/><rect class="cls-3" x="303.88" y="108.64" width="48.85" height="1.82"/><rect class="cls-3" x="303.88" y="114.39" width="48.85" height="1.82"/><rect class="cls-3" x="303.88" y="120.14" width="48.85" height="1.82"/><rect class="cls-1" x="321.55" y="73.04" width="8.47" height="8.47"/><path class="cls-3" d="M327.79,112.16v10.28h10.28V112.16Zm9.84,9.84h-9.4v-9.4h9.4Z" transform="translate(-3 -37)"/><path class="cls-4" d="M365,205.73v13.19a9.74,9.74,0,0,1-9.74,9.74h-48a9.74,9.74,0,0,1-9.74-9.74V152.44L338,184.37l.69.55,7.52,5.94.71.55Z" transform="translate(-3 -37)"/><circle class="cls-1" cx="324.16" cy="172.49" r="15.17"/><path class="cls-3" d="M113.74,263.38a30.09,30.09,0,1,1,30.09-30.09A30.09,30.09,0,0,1,113.74,263.38Zm0-59.48a29.4,29.4,0,1,0,29.39,29.39A29.39,29.39,0,0,0,113.74,203.9Z" transform="translate(-3 -37)"/><path class="cls-3" d="M331.63,221.19a19,19,0,1,1,19-19A19,19,0,0,1,331.63,221.19Zm0-37.36A18.34,18.34,0,1,0,350,202.17h0A18.36,18.36,0,0,0,331.63,183.83Z" transform="translate(-3 -37)"/></svg>