<svg id="Layer_1" data-name="Layer 1" xmlns="http://www.w3.org/2000/svg" xmlns:xlink="http://www.w3.org/1999/xlink" viewBox="0 0 323.9 348.81"><defs><style>.cls-1{fill:none;}.cls-2{clip-path:url(#clip-path);}.cls-3{fill:url(#radial-gradient);}.cls-4{clip-path:url(#clip-path-2);}.cls-5{fill:#777bb3;}.cls-6{fill:#fff;}.cls-7{font-size:312px;fill:#d30d0d;font-family:Montserrat-ExtraBold, Montserrat;font-weight:800;}</style><clipPath id="clip-path" transform="translate(-38.35 2.19)"><path class="cls-1" d="M38.35,156.4c0,47.06,72.51,85.2,162,85.2h0c89.44,0,162-38.14,162-85.2h0c0-47-72.51-85.19-161.95-85.19h0c-89.44,0-162,38.15-162,85.19"/></clipPath><radialGradient id="radial-gradient" cx="0.82" cy="300.94" r="0.47" gradientTransform="matrix(453.82, 0, 0, -453.82, -235.32, 136675.45)" gradientUnits="userSpaceOnUse"><stop offset="0" stop-color="#aeb2d5"/><stop offset="0.3" stop-color="#aeb2d5"/><stop offset="0.75" stop-color="#484c89"/><stop offset="1" stop-color="#484c89"/></radialGradient><clipPath id="clip-path-2" transform="translate(-38.35 2.19)"><rect class="cls-1" x="31.6" y="61.51" width="337.4" height="189.79"/></clipPath></defs><title>why-10</title><g id="g3438"><g id="g3440"><g class="cls-2"><g id="g3442"><g id="g3448"><g id="g3450"><path id="path3462" class="cls-3" d="M38.35,156.4c0,47.06,72.51,85.2,162,85.2h0c89.44,0,162-38.14,162-85.2h0c0-47-72.51-85.19-161.95-85.19h0c-89.44,0-162,38.15-162,85.19" transform="translate(-38.35 2.19)"/></g></g></g></g></g><g id="g3464"><g class="cls-4"><g id="g3466"><g id="g3472"><path id="path3474" class="cls-5" d="M200.3,235.27c85.95,0,155.63-35.31,155.63-78.87S286.25,77.54,200.3,77.54,44.67,112.85,44.67,156.4s69.68,78.87,155.63,78.87" transform="translate(-38.35 2.19)"/></g></g></g></g><g id="g3476"><g class="cls-4"><g id="g3478"><g id="g3484"><path id="path3486" d="M126.34,166.18c7.07,0,12.34-1.3,15.68-3.87s5.58-6.95,6.78-13.09c1.11-5.75.69-9.76-1.26-11.92S141.23,134,134.71,134H123.42l-6.26,32.21ZM89.4,205.87a1.76,1.76,0,0,1-1.73-2.09l16.6-85.38A1.76,1.76,0,0,1,106,117h35.77c11.24,0,19.6,3,24.86,9.07s6.92,14.51,4.85,25.14a38.82,38.82,0,0,1-12.21,21.87,34.73,34.73,0,0,1-13,7.81c-4.69,1.53-10.71,2.3-17.89,2.3H113.86l-4.14,21.28a1.76,1.76,0,0,1-1.72,1.42Z" transform="translate(-38.35 2.19)"/></g><g id="g3488"><path id="path3490" class="cls-6" d="M124.87,135.72h9.84c7.86,0,10.6,1.73,11.52,2.76,1.54,1.7,1.83,5.3.84,10.4-1.11,5.71-3.17,9.76-6.12,12s-7.94,3.51-14.61,3.51h-7Zm16.89-20.5H106a3.51,3.51,0,0,0-3.45,2.85L86,203.44a3.52,3.52,0,0,0,3.45,4.19H108a3.52,3.52,0,0,0,3.45-2.85l3.86-19.85h13c7.37,0,13.57-.81,18.44-2.39a36.6,36.6,0,0,0,13.68-8.19,40.71,40.71,0,0,0,12.74-22.82c2.17-11.19.4-20.15-5.26-26.64s-14.42-9.67-26.18-9.67M115,167.94h11.31q11.25,0,16.75-4.24t7.43-14.15q1.84-9.51-1.68-13.43t-14.13-3.91H122L115,167.94m26.73-49.2q16.13,0,23.54,8.47t4.45,23.65a37.1,37.1,0,0,1-11.68,20.91,32.91,32.91,0,0,1-12.38,7.43q-6.81,2.22-17.35,2.21H112.41L108,204.11H89.4L106,118.74h35.77" transform="translate(-38.35 2.19)"/></g><g id="g3492"><path id="path3494" d="M214.11,183.17a1.76,1.76,0,0,1-1.72-2.09l7.34-37.78c.7-3.59.53-6.17-.49-7.26-.61-.66-2.47-1.78-8-1.78H198l-9.23,47.49a1.77,1.77,0,0,1-1.73,1.42H168.57a1.75,1.75,0,0,1-1.72-2.09L183.44,95.7a1.76,1.76,0,0,1,1.72-1.42h18.46a1.76,1.76,0,0,1,1.35.64,1.74,1.74,0,0,1,.37,1.45l-4,20.61h14.3c10.9,0,18.29,1.92,22.59,5.87S244,133.33,242.3,142l-7.72,39.73a1.76,1.76,0,0,1-1.72,1.42Z" transform="translate(-38.35 2.19)"/></g><g id="g3496"><path id="path3498" class="cls-6" d="M203.62,92.52H185.16a3.53,3.53,0,0,0-3.45,2.85l-16.59,85.37a3.52,3.52,0,0,0,3.45,4.19H187a3.52,3.52,0,0,0,3.45-2.85L199.42,136h11.85c5.49,0,6.64,1.17,6.69,1.22.33.36.77,2,0,5.73l-7.34,37.77a3.52,3.52,0,0,0,3.45,4.19h18.75a3.52,3.52,0,0,0,3.45-2.85L244,142.35c1.81-9.32.26-16.32-4.61-20.79-4.64-4.27-12.42-6.34-23.78-6.34H203.47l3.6-18.51a3.52,3.52,0,0,0-3.45-4.19m0,3.52-4.42,22.7h16.44q15.53,0,21.41,5.41t3.53,17.53l-7.72,39.73H214.11l7.34-37.77q1.26-6.45-.92-8.79c-1.45-1.57-4.53-2.35-9.26-2.35H196.53L187,181.41H168.57L185.16,96h18.46" transform="translate(-38.35 2.19)"/></g><g id="g3500"><path id="path3502" d="M271.5,166.18c7.07,0,12.34-1.3,15.68-3.87s5.58-6.95,6.78-13.09c1.12-5.75.69-9.76-1.26-11.92S286.39,134,279.87,134H268.58l-6.26,32.21Zm-36.94,39.69a1.8,1.8,0,0,1-1.36-.64,1.77,1.77,0,0,1-.37-1.45l16.6-85.38a1.76,1.76,0,0,1,1.72-1.42h35.77c11.24,0,19.6,3,24.86,9.07s6.92,14.51,4.85,25.14a38.82,38.82,0,0,1-12.21,21.87,34.73,34.73,0,0,1-13,7.81c-4.68,1.53-10.71,2.3-17.89,2.3H259l-4.14,21.28a1.76,1.76,0,0,1-1.72,1.42Z" transform="translate(-38.35 2.19)"/></g><g id="g3504"><path id="path3506" class="cls-6" d="M270,135.72h9.84c7.87,0,10.6,1.73,11.52,2.76,1.54,1.7,1.84,5.3.85,10.4-1.12,5.71-3.18,9.76-6.13,12s-7.94,3.51-14.61,3.51h-7.05Zm16.89-20.5H251.15a3.52,3.52,0,0,0-3.45,2.85l-16.59,85.37a3.52,3.52,0,0,0,3.45,4.19h18.6a3.52,3.52,0,0,0,3.45-2.85l3.86-19.85h13c7.37,0,13.57-.81,18.44-2.39a36.52,36.52,0,0,0,13.68-8.19,40.55,40.55,0,0,0,12.74-22.82c2.17-11.19.41-20.15-5.26-26.64s-14.41-9.67-26.18-9.67m-26.73,52.72H271.5q11.25,0,16.75-4.24t7.44-14.15q1.85-9.51-1.69-13.43t-14.13-3.91H267.13l-6.94,35.73m26.73-49.2q16.14,0,23.54,8.47t4.45,23.65a37.1,37.1,0,0,1-11.68,20.91,32.83,32.83,0,0,1-12.38,7.43q-6.81,2.22-17.35,2.21H257.57l-4.41,22.7h-18.6l16.59-85.37h35.77" transform="translate(-38.35 2.19)"/></g></g></g></g></g><text class="cls-7" transform="translate(42.95 265.2)">X</text></svg>