<svg id="Layer_1" data-name="Layer 1" xmlns="http://www.w3.org/2000/svg" viewBox="0 0 400.39 260.64"><defs><style>.cls-1{opacity:0.1;isolation:isolate;}.cls-2{fill:#3f3d56;}.cls-3{fill:#f2f2f2;}.cls-4{fill:#6c63ff;}.cls-5{fill:#666;}.cls-6{fill:#fff;}</style></defs><title>why-8</title><ellipse class="cls-1" cx="76.26" cy="257.02" rx="76.26" ry="3.63"/><rect class="cls-2" x="10.97" y="152" width="133.06" height="104.4"/><path class="cls-3" d="M76.25,194.27H43.42a.41.41,0,0,1-.4-.4.4.4,0,0,1,.4-.4H76.25a.4.4,0,0,1,0,.8Z" transform="translate(-0.26 -28)"/><path class="cls-3" d="M112.18,198.65H60.55a.4.4,0,0,1,0-.8h51.63a.4.4,0,1,1,0,.8Z" transform="translate(-0.26 -28)"/><path class="cls-3" d="M76.41,203H43.58a.4.4,0,0,1,0-.8H76.41a.4.4,0,1,1,0,.8Z" transform="translate(-0.26 -28)"/><path class="cls-3" d="M112.18,203.11H79.36a.4.4,0,0,1,0-.8h32.82a.4.4,0,1,1,0,.8Z" transform="translate(-0.26 -28)"/><path class="cls-3" d="M76.49,207.41H43.66a.4.4,0,0,1,0-.79H76.49a.4.4,0,1,1,0,.79Z" transform="translate(-0.26 -28)"/><path class="cls-3" d="M76.57,211.8H43.74a.4.4,0,0,1,0-.8H76.57a.4.4,0,0,1,0,.8Z" transform="translate(-0.26 -28)"/><path class="cls-3" d="M91.47,194.35h-9.4a.4.4,0,0,1,0-.8h9.4a.4.4,0,1,1,0,.8Z" transform="translate(-0.26 -28)"/><path class="cls-3" d="M91.47,207.41h-9.4a.4.4,0,1,1,0-.79h9.4a.4.4,0,1,1,0,.79Z" transform="translate(-0.26 -28)"/><path class="cls-3" d="M91.47,211.72h-9.4a.4.4,0,0,1-.4-.4.39.39,0,0,1,.39-.4h9.41a.4.4,0,1,1,0,.8Z" transform="translate(-0.26 -28)"/><path class="cls-3" d="M107.24,211.72h-9.4a.4.4,0,0,1,0-.8h9.4a.4.4,0,0,1,.4.4.39.39,0,0,1-.39.4Z" transform="translate(-0.26 -28)"/><path class="cls-3" d="M52.75,198.65H43.34a.4.4,0,0,1,0-.8h9.41a.4.4,0,1,1,0,.8Z" transform="translate(-0.26 -28)"/><path class="cls-3" d="M76.29,258.8H43.46a.38.38,0,0,1-.39-.39.39.39,0,0,1,.39-.4H76.29a.4.4,0,0,1,.4.4A.39.39,0,0,1,76.29,258.8Z" transform="translate(-0.26 -28)"/><path class="cls-3" d="M76.13,267.57H43.31a.4.4,0,0,1,0-.8H76.13a.4.4,0,1,1,0,.8Z" transform="translate(-0.26 -28)"/><path class="cls-3" d="M76.21,272H43.38a.4.4,0,0,1,0-.8H76.21a.4.4,0,1,1,0,.8Z" transform="translate(-0.26 -28)"/><path class="cls-3" d="M90.23,267.65h-9.4a.4.4,0,1,1,0-.8h9.4a.4.4,0,0,1,0,.8Z" transform="translate(-0.26 -28)"/><path class="cls-3" d="M90.23,272h-9.4a.4.4,0,1,1,0-.8h9.4a.4.4,0,1,1,0,.8Z" transform="translate(-0.26 -28)"/><path class="cls-3" d="M106,267.65h-9.4a.4.4,0,0,1,0-.8H106a.4.4,0,0,1,0,.8Z" transform="translate(-0.26 -28)"/><path class="cls-3" d="M112.22,263.19H60.59a.4.4,0,0,1,0-.8h51.63a.4.4,0,0,1,0,.8Z" transform="translate(-0.26 -28)"/><path class="cls-3" d="M52.79,263.19H43.38a.4.4,0,0,1,0-.8h9.41a.4.4,0,0,1,0,.8Z" transform="translate(-0.26 -28)"/><path class="cls-3" d="M112.22,276.41H60.59a.39.39,0,0,1-.39-.4.38.38,0,0,1,.39-.39h51.63a.39.39,0,0,1,.4.39.4.4,0,0,1-.4.4Z" transform="translate(-0.26 -28)"/><path class="cls-3" d="M52.79,276.41H43.38A.39.39,0,0,1,43,276a.38.38,0,0,1,.39-.39h9.41a.38.38,0,0,1,.39.39A.39.39,0,0,1,52.79,276.41Z" transform="translate(-0.26 -28)"/><polygon class="cls-4" points="68.1 194.31 55.35 206.9 68.1 219.49 70.97 216.62 61.33 206.98 71.05 197.26 68.1 194.31"/><polygon class="cls-4" points="86.9 194.31 99.65 206.9 86.9 219.49 84.03 216.62 93.68 206.98 83.95 197.26 86.9 194.31"/><circle class="cls-4" cx="14.51" cy="154.65" r="1.59"/><circle class="cls-4" cx="18.76" cy="154.65" r="1.59"/><circle class="cls-4" cx="23" cy="154.65" r="1.59"/><rect class="cls-1" x="10.97" y="157.31" width="133.06" height="0.53"/><path class="cls-2" d="M388.25,188.13H330.82V187h-26v1.18H247.12a3.89,3.89,0,0,0-3.89,3.89h0v78.63a3.89,3.89,0,0,0,3.89,3.89H388.25a3.88,3.88,0,0,0,3.88-3.89V192a3.88,3.88,0,0,0-3.88-3.89Z" transform="translate(-0.26 -28)"/><rect class="cls-4" x="248.18" y="167" width="138.49" height="78.12"/><circle class="cls-4" cx="317.3" cy="163.45" r="1.42"/><polygon class="cls-1" points="347.06 245.12 248.18 245.12 248.18 167 347.06 245.12"/><circle class="cls-3" cx="269.84" cy="225.96" r="13.31"/><rect class="cls-2" x="349.61" y="209.13" width="12.94" height="2.7"/><rect class="cls-2" x="333.97" y="188.08" width="44.22" height="1.16"/><rect class="cls-2" x="333.97" y="191.75" width="44.22" height="1.16"/><rect class="cls-2" x="333.97" y="195.42" width="44.22" height="1.16"/><rect class="cls-2" x="333.97" y="199.09" width="44.22" height="1.16"/><rect class="cls-2" x="333.97" y="202.76" width="44.22" height="1.16"/><rect class="cls-3" x="372.78" y="168.58" width="5.41" height="5.41"/><path class="cls-2" d="M381,204.5H374.4v-6.57H381Zm-6.28-.29h6v-6h-6Z" transform="translate(-0.26 -28)"/><path class="cls-2" d="M396,271.7H382.51v-1a.2.2,0,0,0-.2-.19h-4.63a.19.19,0,0,0-.19.19h0v1h-2.9v-1a.2.2,0,0,0-.19-.19h-4.64a.2.2,0,0,0-.19.19h0v1h-2.89v-1a.2.2,0,0,0-.2-.19h-4.63a.2.2,0,0,0-.2.19h0v1h-2.89v-1a.2.2,0,0,0-.19-.19h-4.64a.2.2,0,0,0-.19.19h0v1h-2.9v-1a.19.19,0,0,0-.19-.19H346a.2.2,0,0,0-.2.19h0v1h-2.89v-1a.2.2,0,0,0-.2-.19H338.1a.19.19,0,0,0-.19.19h0v1H335v-1a.2.2,0,0,0-.19-.19h-36.3a.19.19,0,0,0-.19.19h0v1h-2.9v-1a.2.2,0,0,0-.19-.19H290.6a.2.2,0,0,0-.19.19h0v1h-2.9v-1a.19.19,0,0,0-.19-.19h-4.63a.2.2,0,0,0-.2.19h0v1H279.6v-1a.2.2,0,0,0-.2-.19h-4.63a.19.19,0,0,0-.19.19h0v1h-2.9v-1a.2.2,0,0,0-.19-.19h-4.64a.2.2,0,0,0-.19.19h0v1h-2.9v-1a.19.19,0,0,0-.19-.19h-4.63a.2.2,0,0,0-.2.19h0v1h-2.89v-1a.2.2,0,0,0-.2-.19H251a.19.19,0,0,0-.19.19h0v1H242a4.63,4.63,0,0,0-4.64,4.63v2.1a4.63,4.63,0,0,0,4.64,4.63H396a4.63,4.63,0,0,0,4.64-4.63v-2.1A4.63,4.63,0,0,0,396,271.7Z" transform="translate(-0.26 -28)"/><path class="cls-2" d="M273.33,262.28a16.78,16.78,0,1,1,16.78-16.78A16.79,16.79,0,0,1,273.33,262.28Zm0-33.12a16.34,16.34,0,1,0,16.33,16.34A16.34,16.34,0,0,0,273.33,229.16Z" transform="translate(-0.26 -28)"/><polygon class="cls-5" points="226.27 203.48 226.19 216.48 240.74 209.52 226.27 203.48"/><rect class="cls-5" x="145.74" y="208" width="79.77" height="3"/><circle class="cls-2" cx="202.55" cy="76.55" r="57.8"/><circle class="cls-6" cx="202.55" cy="76.55" r="53.01"/><circle class="cls-2" cx="202.36" cy="76.74" r="7.08"/><rect class="cls-2" x="200.83" y="26.22" width="3.06" height="5.74"/><rect class="cls-2" x="200.83" y="121.52" width="3.06" height="5.74"/><rect class="cls-2" x="151.84" y="75.21" width="5.74" height="3.06"/><rect class="cls-2" x="247.14" y="75.21" width="5.74" height="3.06"/><polygon class="cls-2" points="207.88 74.31 201.66 72.3 216.44 37.86 207.88 74.31"/><rect class="cls-2" x="195.09" y="4.78" width="14.93" height="17.22"/><ellipse class="cls-2" cx="202.55" cy="4.78" rx="17.22" ry="4.78"/></svg>