<svg id="Layer_1" data-name="Layer 1" xmlns="http://www.w3.org/2000/svg" xmlns:xlink="http://www.w3.org/1999/xlink" viewBox="0 0 397 221"><defs><style>.cls-1{fill:#3f3d56;}.cls-2{fill:#6c63ff;}.cls-3{opacity:0.1;isolation:isolate;}.cls-4{fill:#f2f2f2;}.cls-5{fill:none;stroke:#010102;stroke-miterlimit:10;stroke-width:5px;}</style></defs><title>why-7</title><path class="cls-1" d="M365.81,91.91H296.26V90.47H264.72v1.44H194.87a4.69,4.69,0,0,0-4.7,4.7h0v95.25a4.7,4.7,0,0,0,4.7,4.7H365.81a4.71,4.71,0,0,0,4.71-4.7V96.61a4.7,4.7,0,0,0-4.71-4.7Z" transform="translate(-4 -25)"/><rect class="cls-2" x="192.48" y="75.22" width="167.73" height="94.62"/><circle class="cls-2" cx="276.2" cy="70.92" r="1.72"/><polygon class="cls-3" points="312.24 169.84 192.48 169.84 192.48 75.22 312.24 169.84"/><circle class="cls-4" cx="218.72" cy="146.64" r="16.12"/><rect class="cls-1" x="315.34" y="126.25" width="15.67" height="3.27"/><rect class="cls-1" x="296.39" y="100.76" width="53.55" height="1.4"/><rect class="cls-1" x="296.39" y="105.2" width="53.55" height="1.4"/><rect class="cls-1" x="296.39" y="109.65" width="53.55" height="1.4"/><rect class="cls-1" x="296.39" y="114.09" width="53.55" height="1.4"/><rect class="cls-1" x="296.39" y="118.53" width="53.55" height="1.4"/><rect class="cls-4" x="343.4" y="77.14" width="6.55" height="6.55"/><path class="cls-1" d="M357,111.73H349v-8H357Zm-7.61-.35h7.26v-7.26h-7.26Z" transform="translate(-4 -25)"/><path class="cls-1" d="M375.23,193.12H358.86v-1.18a.23.23,0,0,0-.24-.23H353a.23.23,0,0,0-.23.23h0v1.18h-3.51v-1.18a.23.23,0,0,0-.23-.23h-5.62a.23.23,0,0,0-.23.23h0v1.18h-3.51v-1.18a.23.23,0,0,0-.23-.23h-5.61a.23.23,0,0,0-.24.23h0v1.18h-3.51v-1.18a.23.23,0,0,0-.23-.23h-5.61a.23.23,0,0,0-.24.23h0v1.18h-3.5v-1.18a.23.23,0,0,0-.24-.23h-5.61a.23.23,0,0,0-.23.23h0v1.18h-3.51v-1.18a.23.23,0,0,0-.24-.23h-5.61a.23.23,0,0,0-.23.23h0v1.18h-3.51v-1.18a.23.23,0,0,0-.23-.23h-44a.23.23,0,0,0-.23.23h0v1.18h-3.51v-1.18a.23.23,0,0,0-.23-.23h-5.62a.23.23,0,0,0-.23.23h0v1.18H243.8v-1.18a.23.23,0,0,0-.23-.23H238a.23.23,0,0,0-.24.23h0v1.18h-3.51v-1.18a.23.23,0,0,0-.23-.23h-5.61a.23.23,0,0,0-.24.23h0v1.18h-3.5v-1.18a.23.23,0,0,0-.24-.23h-5.61a.23.23,0,0,0-.23.23h0v1.18H215v-1.18a.23.23,0,0,0-.24-.23h-5.61a.23.23,0,0,0-.23.23h0v1.18h-3.51v-1.18a.23.23,0,0,0-.23-.23H199.6a.23.23,0,0,0-.23.23h0v1.18H188.61a5.61,5.61,0,0,0-5.61,5.61v2.54a5.61,5.61,0,0,0,5.61,5.61H375.23a5.61,5.61,0,0,0,5.61-5.61v-2.54A5.61,5.61,0,0,0,375.23,193.12Z" transform="translate(-4 -25)"/><path class="cls-1" d="M226.62,181.71a20.32,20.32,0,1,1,20.32-20.32A20.31,20.31,0,0,1,226.62,181.71Zm0-40.11a19.79,19.79,0,1,0,19.79,19.79A19.79,19.79,0,0,0,226.62,141.6Z" transform="translate(-4 -25)"/><path class="cls-1" d="M401,149.9h-.41V138.69a6.49,6.49,0,0,0-6.49-6.49H370.34a6.49,6.49,0,0,0-6.5,6.49h0v61.53a6.49,6.49,0,0,0,6.5,6.49H394.1a6.49,6.49,0,0,0,6.49-6.49h0V157.89H401Z" transform="translate(-4 -25)"/><path class="cls-2" d="M399.21,139.07v61.44a4.85,4.85,0,0,1-4.85,4.85H370.48a4.85,4.85,0,0,1-4.84-4.85V139.07a4.85,4.85,0,0,1,4.84-4.85h2.9a2.32,2.32,0,0,0,1.26,3,2.4,2.4,0,0,0,.87.17h13.62a2.31,2.31,0,0,0,2.3-2.31,2.36,2.36,0,0,0-.17-.87h3.1A4.85,4.85,0,0,1,399.21,139.07Z" transform="translate(-4 -25)"/><rect class="cls-1" x="374.87" y="149.74" width="7.11" height="2.11"/><rect class="cls-1" x="366.27" y="133.32" width="24.31" height="0.9"/><rect class="cls-1" x="366.27" y="136.19" width="24.31" height="0.9"/><rect class="cls-1" x="366.27" y="139.05" width="24.31" height="0.9"/><rect class="cls-1" x="366.27" y="141.91" width="24.31" height="0.9"/><rect class="cls-1" x="366.27" y="144.77" width="24.31" height="0.9"/><rect class="cls-4" x="375.06" y="121.33" width="4.22" height="4.22"/><path class="cls-1" d="M380.67,147.38v5.12h5.12v-5.12Zm4.9,4.9h-4.68V147.6h4.68Z" transform="translate(-4 -25)"/><path class="cls-3" d="M399.21,194v6.56a4.85,4.85,0,0,1-4.85,4.85H370.48a4.85,4.85,0,0,1-4.84-4.85V167.43l20.11,15.89.35.27,3.74,3,.35.28Z" transform="translate(-4 -25)"/><circle class="cls-4" cx="376.36" cy="170.82" r="7.55"/><path class="cls-1" d="M382.58,201.64a9.47,9.47,0,1,1,9.47-9.46A9.45,9.45,0,0,1,382.58,201.64Zm0-18.59a9.13,9.13,0,1,0,9.13,9.13h0A9.15,9.15,0,0,0,382.58,183.05Z" transform="translate(-4 -25)"/><circle class="cls-5" cx="67.5" cy="125.5" r="65"/><path class="cls-5" d="M14.55,119.13s58.57,32.46,112.74.69c.38-.22.77-.45,1.15-.69" transform="translate(-4 -25)"/><path class="cls-5" d="M16,186.62s58.57-32.45,112.74-.68l1.15.68" transform="translate(-4 -25)"/><path class="cls-5" d="M85.61,86.93s32.46,65,.69,125.18l-.69,1.28" transform="translate(-4 -25)"/><path class="cls-5" d="M61.67,86.93S29.21,152,61,212.11l.69,1.28" transform="translate(-4 -25)"/><image width="1200" height="1200" transform="translate(58) scale(0.18)" xlink:href="../../../../../../../Downloads/1200px-Green_tick.svg.png"/></svg>