<svg id="Layer_1" data-name="Layer 1" xmlns="http://www.w3.org/2000/svg" viewBox="0 0 400 298"><defs><style>.cls-1{fill:#3f3d56;}.cls-2{fill:#6c63ff;}.cls-3{fill:#2f2e41;}.cls-4{opacity:0.1;isolation:isolate;}.cls-5{fill:#a0616a;}.cls-6{fill:#d0cde1;}.cls-7{fill:#f2f2f2;}</style></defs><title>why-4</title><path class="cls-1" d="M321.22,277.16c-2.59,10.5-11.69,17.06-11.69,17.06s-4.89-10.46-2.29-21,11.69-17.06,11.69-17.06S323.82,266.67,321.22,277.16Z"/><path class="cls-2" d="M317.29,274.94c-7.28,7.63-8.09,19.27-8.09,19.27s11-.72,18.25-8.35,8.09-19.26,8.09-19.26S324.56,267.32,317.29,274.94Z"/><path class="cls-3" d="M53.8,237.46H67.5l33.74-14s24-10.39,22,9.34S117.87,279,117.87,279s-10.76-5.19-16.63-3.64-1.95-31.67-1.95-31.67S51.36,268.09,47,265s-5.38-24.92-5.38-24.92Z"/><path class="cls-4" d="M53.8,237.46H67.5l33.74-14s24-10.39,22,9.34S117.87,279,117.87,279s-10.76-5.19-16.63-3.64-1.95-31.67-1.95-31.67S51.36,268.09,47,265s-5.38-24.92-5.38-24.92Z"/><path class="cls-5" d="M75.38,191.94,92,217.22l38.64,34.26s35.7,8.83,30.81,15.06-34.72-6.23-34.72-6.23S82.17,226,80.7,223.45s-17.61-27-17.61-27Z"/><path class="cls-4" d="M75.38,191.94,92,217.22l38.64,34.26s35.7,8.83,30.81,15.06-34.72-6.23-34.72-6.23S82.17,226,80.7,223.45s-17.61-27-17.61-27Z"/><path class="cls-6" d="M65.54,171.53,76.3,193.85s-2.45,10.91-6.36,11.94-20.54-13.5-20.54-13.5Z"/><path class="cls-4" d="M65.54,171.53,76.3,193.85s-2.45,10.91-6.36,11.94-20.54-13.5-20.54-13.5Z"/><path class="cls-3" d="M196.81,225.9,200,239.82a.93.93,0,0,1,0,.47l-14.42,47.83a.79.79,0,0,1-1,.56A.86.86,0,0,1,184,288l-2-18.63a.93.93,0,0,1,0-.37l13.24-43.11a.81.81,0,0,1,1-.56A.87.87,0,0,1,196.81,225.9Z"/><polygon class="cls-7" points="195.64 227.08 198.58 239.02 185.86 282.63 182.92 269.13 195.64 227.08"/><path class="cls-3" d="M131.57,292c.49,1.55,50.87-.52,51.35-1a11.39,11.39,0,0,0,1.08-2.08c.46-1,.88-2.07.88-2.07l-2-16.82L133,268.09s-1.25,14.25-1.51,20.77A16.46,16.46,0,0,0,131.57,292Z"/><polygon class="cls-4" points="176.57 272.25 177.54 286.79 155.53 286.79 155.53 272.25 176.57 272.25"/><polygon class="cls-4" points="148.2 276.92 148.33 276.89 147.71 283.15 135.48 283.15 135.48 276.92 148.2 276.92"/><path class="cls-4" d="M131.57,292c.49,1.55,50.87-.52,51.35-1a11.39,11.39,0,0,0,1.08-2.08H131.53A16.46,16.46,0,0,0,131.57,292Z"/><ellipse class="cls-5" cx="72.88" cy="140.9" rx="22.01" ry="23.36"/><path class="cls-5" d="M71.41,161.66s-7.34,13.5-8.8,20.77-22-14.54-22-14.54l-2.69-7.52s19.32-9.61,17.85-17.4S71.41,161.66,71.41,161.66Z"/><path class="cls-5" d="M75.32,202.16l20.06,28,47.93,37.9s34.72,7.79,26.9,13.5-30.33-5.19-30.33-5.19-48.42-27.51-58.69-38.94-29.35-30.63-29.35-30.63Z"/><path class="cls-3" d="M48.42,245.77l5.87,9.86,35-11.69a26.15,26.15,0,0,1,22.93,2.93c6.11,4.09,10,10.58,1.22,20.19-17.61,19.21-29.34,8.82-29.34,8.82s-59.19,29.6-69,15.06S4.89,269.13,4.89,269.13,42.55,244.21,48.42,245.77Z"/><path class="cls-6" d="M121.79,280s15.65,10.9-2.94,16.09-32.28-2.08-32.28-2.08-16.14,0-16.14-8.82,5.38-9.87,5.38-9.87L92.44,278S112.49,272.25,121.79,280Z"/><path class="cls-3" d="M90.93,135a15.7,15.7,0,0,0,4.61,1.75,4.12,4.12,0,0,0,4.26-1.93,6.52,6.52,0,0,0,.48-2.75c.06-2.85-.13-5.93-1.84-8.14-1.08-1.4-2.66-2.29-3.78-3.66A17.84,17.84,0,0,1,92.74,117c-2.18-4.34-5.4-8.52-9.89-9.77a20,20,0,0,0-5.78-.47l-11.3.17a18.35,18.35,0,0,0-5.43.62c-3.64,1.16-6.29,4.41-8.71,7.52a46.3,46.3,0,0,0-5,7.31,27,27,0,0,0-2.87,12.59,12.8,12.8,0,0,0,.41,3.32,19.33,19.33,0,0,0,1.23,2.88c2.12,4.42,3.38,9.94,1,14.2,4.15-1.8,8.25-4.16,11-7.92,1.22-1.69,2.18-3.66,3.81-4.89s4.28-1.34,5.33.47a5.26,5.26,0,0,1,.54,2.38,11.46,11.46,0,0,0,.62,4c.54,1.23,1.84,2.23,3.07,1.86,2.13-.64,1.93-4.11,3.57-5.68,1.25-1.2,3.17-1,4.77-1.52a7.29,7.29,0,0,0,4.06-4.24c.6-1.44.59-5.22,1.74-6C86.33,132.83,89.6,134.39,90.93,135Z"/><path class="cls-6" d="M36.16,157.9a5.44,5.44,0,0,1,3,0c3.14.9,10.18,3.26,11.69,6.87,2,4.67,8.8,11.94,8.8,11.94S69,186.58,67,193.33s-9.3,14.54-9.3,14.54,2,32.19-7.82,40.5-13.7,2.59-13.7,10.38S5.87,290.94,0,275.88c0,0,2.93-28,2-37.9C1,228.26,2.4,167.6,36.16,157.9Z"/><path class="cls-6" d="M51.84,171s29.84,23.36,24.46,33.23c0,0-18.1,9.34-22,8.82s-19.07-18.69-23-20.25S25.43,163.22,51.84,171Z"/><ellipse class="cls-7" cx="185.14" cy="93.7" rx="24.16" ry="25.65"/><path class="cls-1" d="M384.71,60.39H249.31V30.31h135.4Zm-134.8-.64h134.2V31H249.91Z"/><rect class="cls-2" x="240.06" y="36.33" width="134.8" height="29.44"/><ellipse class="cls-2" cx="154.85" cy="6.01" rx="2.09" ry="2.22"/><ellipse class="cls-2" cx="162.01" cy="6.01" rx="2.09" ry="2.22"/><ellipse class="cls-2" cx="169.16" cy="6.01" rx="2.09" ry="2.22"/><path class="cls-1" d="M400,173.48H148.88V0H400Zm-250.52-.63H399.4V.63H149.48Z"/><rect class="cls-1" x="149.18" y="9.6" width="250.52" height="0.63"/><path class="cls-1" d="M155.44,7.6a2.47,2.47,0,0,1-2.38-2.53,2.39,2.39,0,1,1,4.77,0A2.47,2.47,0,0,1,155.44,7.6Zm0-4.43a1.85,1.85,0,0,0-1.79,1.9,1.79,1.79,0,1,0,3.58,0A1.85,1.85,0,0,0,155.44,3.17Z"/><path class="cls-1" d="M162.6,7.6a2.46,2.46,0,0,1-2.38-2.53,2.39,2.39,0,1,1,4.77,0A2.47,2.47,0,0,1,162.6,7.6Zm0-4.43a1.85,1.85,0,0,0-1.79,1.9,1.79,1.79,0,1,0,3.58,0A1.85,1.85,0,0,0,162.6,3.17Z"/><path class="cls-1" d="M169.76,7.6a2.47,2.47,0,0,1-2.39-2.53,2.39,2.39,0,1,1,4.78,0h0A2.47,2.47,0,0,1,169.76,7.6Zm0-4.43A1.85,1.85,0,0,0,168,5.07a1.79,1.79,0,1,0,3.58,0h0A1.85,1.85,0,0,0,169.76,3.17Z"/><rect class="cls-1" x="227.54" y="9.92" width="0.6" height="163.49"/><rect class="cls-7" x="256.02" y="90.3" width="43.84" height="6.33"/><rect class="cls-7" x="324.91" y="90.3" width="43.84" height="6.33"/><path class="cls-1" d="M302.54,93.79H258.11v-7h44.43Zm-43.84-.64H302v-5.7H258.7Z"/><rect class="cls-7" x="256.02" y="139.37" width="43.84" height="6.33"/><path class="cls-1" d="M302.54,142.86H258.11v-7h44.43Zm-43.84-.64H302v-5.7H258.7Z"/><rect class="cls-7" x="256.17" y="114.21" width="112.73" height="6.33"/><path class="cls-1" d="M371.59,118.32H258.26v-7H371.59Zm-112.74-.63H371V112H258.85Z"/><path class="cls-1" d="M371.44,93.79H327v-7h44.44Zm-43.84-.64h43.24v-5.7H327.6Z"/><path class="cls-1" d="M189.23,112.64c-13.55,0-24.53-11.66-24.53-26s11-26,24.53-26,24.54,11.66,24.54,26S202.78,112.62,189.23,112.64Zm0-51.3c-13.14,0-23.79,11.31-23.79,25.25s10.65,25.26,23.79,25.26S213,100.54,213,86.59,202.36,61.36,189.23,61.34Z"/><rect class="cls-1" x="278.07" y="293.75" width="105.2" height="0.79"/></svg>