<svg id="Layer_1" data-name="Layer 1" xmlns="http://www.w3.org/2000/svg" viewBox="0 0 258.18 288.78"><defs><style>.cls-1{fill:#a4c639;}.cls-2{fill:none;stroke:#a4c639;stroke-linecap:round;stroke-linejoin:round;stroke-width:3px;}.cls-3{fill:#fff;}</style></defs><title>how-2</title><path class="cls-1" d="M166,179.75a18,18,0,0,1,18,18.05v77.44a18.05,18.05,0,0,1-36.1,0V197.8A18.05,18.05,0,0,1,166,179.75Z" transform="translate(-77.65 -4.5)"/><path class="cls-1" d="M124.81,86.66c-.06.68-.11,1.38-.11,2.07V206.05a22.54,22.54,0,0,0,22.39,22.78h119.3a22.53,22.53,0,0,0,22.38-22.78V88.73c0-.69,0-1.39-.08-2.07Z" transform="translate(-77.65 -4.5)"/><path class="cls-1" d="M247.46,179.75a18.05,18.05,0,0,1,18,18.05v77.44a18.05,18.05,0,0,1-36.1,0V197.8a18.05,18.05,0,0,1,18.05-18.05ZM95.7,97.1a18,18,0,0,1,18,18.05v77.43a18,18,0,0,1-36.1,0V115.15a18,18,0,0,1,18-18.05Zm222.08,0a18,18,0,0,1,18.05,18.05v77.43a18.05,18.05,0,0,1-36.1,0V115.15a18,18,0,0,1,18-18.05ZM125.34,79c.5-36,31.95-65.58,72.33-69.47h18.14c40.37,3.89,71.82,33.44,72.32,69.47Z" transform="translate(-77.65 -4.5)"/><path class="cls-2" d="M131.62,6l19,33M281.86,6l-19,33" transform="translate(-77.65 -4.5)"/><path class="cls-3" d="M182.49,46.66a9.34,9.34,0,0,1-18.68.05v-.05a9.34,9.34,0,0,1,18.68,0Zm69.71,0a9.34,9.34,0,0,1-18.68.05v-.05a9.34,9.34,0,0,1,18.68,0Z" transform="translate(-77.65 -4.5)"/></svg>