<svg id="Layer_1" data-name="Layer 1" xmlns="http://www.w3.org/2000/svg" viewBox="0 0 386 271.85"><defs><style>.cls-1{fill:#f0f0f0;}.cls-2{fill:#6c63ff;}.cls-3{fill:#3f3d56;}.cls-4{fill:#2f2e41;}.cls-5{fill:#f7df18;}.cls-6{opacity:0.1;isolation:isolate;}.cls-7{fill:#ffb6b6;}</style></defs><title>what-4</title><path class="cls-1" d="M358.71,218.92l-45.3,12.25,33.69-15.73A157.5,157.5,0,0,0,309,211.1c-4.15,0-8.23.18-12.21.47a250.58,250.58,0,0,1-33.56.27l-91.55,19.33L245,210a183.28,183.28,0,0,1-35.72-8.47c-2-.72-4.1-1.41-6.21-2.07L56.16,246.92s61.35-33.2,103.71-56q-13.22-1.32-26.52-1.32C63,189.58,6,216.8,6,250.37c0,13.25,8.9,25.52,24,35.51H344.87c27.86-6.29,47.13-19.83,47.13-35.51C392,237.56,378.84,226.11,358.71,218.92Z" transform="translate(-6 -14.03)"/><path class="cls-2" d="M310.27,237.81a120.41,120.41,0,0,1,5.27,47.44,120.57,120.57,0,0,1-24.16-41.16,120.53,120.53,0,0,1-5.28-47.44A120.37,120.37,0,0,1,310.27,237.81Z" transform="translate(-6 -14.03)"/><path class="cls-2" d="M320.82,237.81a120.53,120.53,0,0,0-5.28,47.44,120.5,120.5,0,0,0,24.17-41.16A120.41,120.41,0,0,0,345,196.65,120.44,120.44,0,0,0,320.82,237.81Z" transform="translate(-6 -14.03)"/><path class="cls-3" d="M324.09,238.08a120.42,120.42,0,0,1-9,46.88,120.37,120.37,0,0,1-10.94-46.46,120.44,120.44,0,0,1,9-46.89A120.38,120.38,0,0,1,324.09,238.08Z" transform="translate(-6 -14.03)"/><circle class="cls-2" cx="308.14" cy="201.27" r="2.52"/><circle class="cls-2" cx="303.23" cy="221.45" r="1.4"/><circle class="cls-3" cx="286.13" cy="207.57" r="1.4"/><circle class="cls-3" cx="335.62" cy="193.98" r="1.4"/><circle class="cls-3" cx="293.42" cy="220.75" r="1.4"/><circle class="cls-3" cx="322.86" cy="212.62" r="1.4"/><circle class="cls-3" cx="294.26" cy="241.36" r="1.4"/><circle class="cls-3" cx="324.26" cy="233.37" r="1.4"/><circle class="cls-2" cx="310.66" cy="234.77" r="1.4"/><rect class="cls-4" x="10.52" y="270.23" width="362.94" height="0.81"/><path class="cls-5" d="M187,50.8h0a15.29,15.29,0,0,1,15.29,15.28V84.91H171.7V66.08A15.28,15.28,0,0,1,187,50.8Z" transform="translate(-6 -14.03)"/><path class="cls-3" d="M157.54,95.21s-15.61-5-18.18-.49-.64,11.27,0,13.84,5.47,32.82,18.34,24.78S157.54,95.21,157.54,95.21Z" transform="translate(-6 -14.03)"/><path class="cls-6" d="M157.54,95.21s-15.61-5-18.18-.49-.64,11.27,0,13.84,5.47,32.82,18.34,24.78S157.54,95.21,157.54,95.21Z" transform="translate(-6 -14.03)"/><path class="cls-7" d="M154.48,105.66H141.29s-6.85-3.22-2.94-8.2S156.74,97,156.74,97Z" transform="translate(-6 -14.03)"/><path class="cls-7" d="M234.61,130.76l12.87,12.87s10.62-1.28,12.87,2.58-15.45,4.18-15.45,4.18l-18.34-18.34Z" transform="translate(-6 -14.03)"/><path class="cls-7" d="M160,166.8l-2.57,24.46s1,13.83-4.83,22.2S141.61,255,141.61,255s-6.76,15.77-.64,16.73,6.11-10.29,6.11-10.29l3.54-12.55s9-16.41,12.23-28c0,0,10-14.8,10-21.88s3.87-32.18,3.87-32.18Z" transform="translate(-6 -14.03)"/><path class="cls-7" d="M179.9,170.34l5.8,29.93s.32,11.9,1.6,16.73c0,0,.65,17.38,2.9,24.46a143.48,143.48,0,0,1,3.86,17.69l-1.61,2.9,1.61,10.3,3.86,5.79,4.19-3.54-1-20s1.93-29.61-.64-36l-1.61-37-.32-11.26Z" transform="translate(-6 -14.03)"/><path class="cls-2" d="M169.93,98.26,158.34,171s15.45-1.61,20.28,2.25,21.88,1.61,21.88,1.61l.85-66.89L195.67,95,176,93.44Z" transform="translate(-6 -14.03)"/><path class="cls-7" d="M179.58,74.13s1.61,14.8,0,16.41,17.38,0,17.38,0-5.15-15.45-4.51-17.38S179.58,74.13,179.58,74.13Z" transform="translate(-6 -14.03)"/><path class="cls-6" d="M179.58,74.13s1.61,14.8,0,16.41,17.38,0,17.38,0-5.15-15.45-4.51-17.38S179.58,74.13,179.58,74.13Z" transform="translate(-6 -14.03)"/><path class="cls-3" d="M187,85.39l-7.4-3.54s-3.86-1.29-3.86.65-2.57,2.25-1.61,4.18,7.4,8.69,30.89,6.76c0,0,4.83-1.61,10.3,2.25,0,0-2.9-7.4-16.73-16.73Z" transform="translate(-6 -14.03)"/><path class="cls-3" d="M175.72,85.07s-3.86,2.9-3.86,3.54-16.73,48.27-16.73,48.27-30.89,32.17-28.32,34.75,3.54,4.5,7.4,5.15c0,0,8.69,14.48,29.93,12.22l15.44-76.9,5.79-12.55s-1.61,52.77,2.9,52.77h5.79s.65,40.22,4.18,40.22,7.08-1.28,6.76-2.89-1-18-1-18,9,4.83,9,1.93-3.22-26.39-3.22-26.39l-1.93-56L200.5,86Z" transform="translate(-6 -14.03)"/><path class="cls-3" d="M173.47,88.93h-1.61a13,13,0,0,0-6.44,1.29L142.9,93.11s6.76.65,8,8.37,2.58,12.55,3.22,12.87-3.54,24.14,3.86,27.35,12.55-2.57,14.48-11.26,8.69-38,8.69-38Z" transform="translate(-6 -14.03)"/><path class="cls-3" d="M209.51,90.54l6.43,5.15a12.78,12.78,0,0,0,4.19,7.72c3.86,3.54,18.66,29.28,18,29.93s-23.17,2.25-21.89,9.33-8,6.76-8,6.76l-8.37-50.52Z" transform="translate(-6 -14.03)"/><path class="cls-7" d="M140.74,105.56,119.39,84.67s-17-5-13.94-8.68S124,79,124,79l19.77,16.14-1.8,10.08a.69.69,0,0,1-.81.56A.66.66,0,0,1,140.74,105.56Z" transform="translate(-6 -14.03)"/><path class="cls-4" d="M138.39,257.87l-4.18,14.48s-3.54,11.35,4.18,12.32,6.12-5.47,6.12-5.47l1-10.16s-6,4.78-6.46-1.52a22.88,22.88,0,0,1,2.41-11.75Z" transform="translate(-6 -14.03)"/><path class="cls-4" d="M195,282.64l-1-4.5h-1.93l-1.61-1.61s1.93-7.08.65-10.3-.65-6.76,2.89-7.08c0,0-2.25,9.66,3.22,14.8,0,0,5,2.92,4.76-.63l.07-4,1.28,5.29s1,5.15,2.58,6.43.64,4.19-3.86,3.54A25,25,0,0,1,195,282.64Z" transform="translate(-6 -14.03)"/><circle class="cls-4" cx="179.53" cy="83.75" r="0.97"/><circle class="cls-7" cx="180.82" cy="53.18" r="11.26"/><path class="cls-5" d="M174.59,67.85l8.69-10.61s9.66,11.58,16.41,11.26L201,61.74l-6.44-6.44-8-1.93L178.78,55l-6.36,6.45Z" transform="translate(-6 -14.03)"/><path class="cls-3" d="M252.91,53.23a8.83,8.83,0,0,0-3.55,16.92,8.15,8.15,0,0,1,.16-2c.17-.71,1.13-4.81,1.13-4.81a3.37,3.37,0,0,1-.28-1.4c0-1.3.75-2.28,1.7-2.28A1.17,1.17,0,0,1,253.26,61a18.53,18.53,0,0,1-.78,3.14,1.38,1.38,0,0,0,1,1.66,1.84,1.84,0,0,0,.41,0c1.67,0,2.8-2.15,2.8-4.7,0-1.94-1.31-3.38-3.68-3.38a4.18,4.18,0,0,0-4.34,4,1.7,1.7,0,0,0,0,.22,2.55,2.55,0,0,0,.59,1.73.43.43,0,0,1,.12.49l-.18.71a.3.3,0,0,1-.35.25.16.16,0,0,1-.09,0,3.4,3.4,0,0,1-1.81-3.37c0-2.51,2.12-5.52,6.31-5.52a5.28,5.28,0,0,1,5.59,5.06c0,3.47-1.92,6.05-4.76,6.05a2.55,2.55,0,0,1-2.16-1.1s-.51,2-.62,2.43a7.61,7.61,0,0,1-.89,1.89,8.83,8.83,0,1,0,2.51-17.3Z" transform="translate(-6 -14.03)"/><path class="cls-3" d="M98.31,15.82a8,8,0,0,1-2.19.61,3.85,3.85,0,0,0,1.68-2.12,7.56,7.56,0,0,1-2.43.93,3.81,3.81,0,0,0-6.6,2.61,3.63,3.63,0,0,0,.1.87,10.78,10.78,0,0,1-7.87-4,3.82,3.82,0,0,0,1.18,5.1,3.74,3.74,0,0,1-1.73-.48v0a3.81,3.81,0,0,0,3.06,3.74,3.77,3.77,0,0,1-1,.14,3.51,3.51,0,0,1-.72-.07,3.82,3.82,0,0,0,3.57,2.65,7.71,7.71,0,0,1-4.75,1.64,7.07,7.07,0,0,1-.91-.06A10.84,10.84,0,0,0,96.42,18.3c0-.17,0-.34,0-.5A7.78,7.78,0,0,0,98.31,15.82Z" transform="translate(-6 -14.03)"/><path class="cls-3" d="M261.17,114.37H247.71a.84.84,0,0,0-.84.84v13.47a.83.83,0,0,0,.84.83h6.73v-6h-1.81v-2.21h1.81v-1.63a2.87,2.87,0,0,1,3.1-3c.84,0,1.74.06,1.95.09v2H258.1c-1,0-1.14.45-1.14,1.11v1.41h2.27l-.3,2.21h-2v6h4.21a.83.83,0,0,0,.84-.83V115.21A.84.84,0,0,0,261.17,114.37Z" transform="translate(-6 -14.03)"/><path class="cls-3" d="M116.13,52.07a3.18,3.18,0,0,1,3.16,3.16v6.3a3.18,3.18,0,0,1-3.16,3.16h-6.3a3.18,3.18,0,0,1-3.16-3.16v-6.3a3.18,3.18,0,0,1,3.16-3.16h6.3m0-1.26h-6.3a4.43,4.43,0,0,0-4.42,4.42v6.3A4.43,4.43,0,0,0,109.83,66h6.3a4.43,4.43,0,0,0,4.42-4.42v-6.3A4.43,4.43,0,0,0,116.13,50.81Z" transform="translate(-6 -14.03)"/><path class="cls-3" d="M117.08,55.23a.95.95,0,1,1,1-.95h0a1,1,0,0,1-1,.95Zm-4.1.63a2.52,2.52,0,1,1-2.52,2.52A2.52,2.52,0,0,1,113,55.86m0-1.27a3.79,3.79,0,1,0,3.78,3.79h0A3.79,3.79,0,0,0,113,54.59Z" transform="translate(-6 -14.03)"/><path class="cls-3" d="M292,83.18H279.35a1.25,1.25,0,0,0-1.3,1.17h0V97a1.34,1.34,0,0,0,1.3,1.29H292A1.25,1.25,0,0,0,293.19,97V84.36a1.16,1.16,0,0,0-1.14-1.18ZM282.75,95.8h-2.17V89.05h2.17Zm-1-7.77h0a1.18,1.18,0,1,1,1.19-1.17A1.18,1.18,0,0,1,281.72,88Zm8.93,7.77H288.5V92.11c0-.88-.31-1.49-1.1-1.49a1.2,1.2,0,0,0-1.11.8,1.59,1.59,0,0,0-.08.53V95.8h-2.16V89.05h2.16V90a2.22,2.22,0,0,1,2-1.09c1.42,0,2.5.93,2.5,3Z" transform="translate(-6 -14.03)"/></svg>