<svg id="Layer_1" data-name="Layer 1" xmlns="http://www.w3.org/2000/svg" viewBox="0 0 291.06 257.9"><defs><style>.cls-1,.cls-2{fill:#6c63ff;}.cls-1,.cls-14,.cls-4{opacity:0.1;}.cls-1,.cls-4,.cls-7{isolation:isolate;}.cls-15,.cls-3{fill:none;stroke-miterlimit:10;}.cls-3{stroke:#565987;}.cls-5{fill:#ffd037;}.cls-6{fill:#a8a8a8;}.cls-7{opacity:0.2;}.cls-8{fill:#65617d;}.cls-9{fill:#3f3d56;}.cls-10{fill:#be6f72;}.cls-11{fill:#fbbebe;}.cls-12{fill:#e3e8f4;}.cls-13{fill:#f86d70;}.cls-15{stroke:#3f3d56;}</style></defs><title>what-8</title><path class="cls-1" d="M186.39,122.78C175,119.1,163,116,150.7,116.33c-18.07.47-35.45,8.89-44,21.34-7.24,10.54-8.21,22.94-11.37,34.67C91.41,186.79,84,200.5,76.13,213.91c-4.24,7.2-8.71,14.56-9.45,22.47-1,11,5.65,22,16.14,29.34s24.47,11.28,38.5,12.2c7.47.48,15.27.11,21.92-2.58,7-2.83,12.18-8,19.24-10.82,6.54-2.6,14.17-2.93,21.51-2.55a119.76,119.76,0,0,1,28,4.8c10.23,3.07,19.74,7.47,30,10.58s21.62,4.86,32.08,2.36c9.83-2.34,17.62-8.12,24.64-14a266.76,266.76,0,0,0,31.48-30.86c6.35-7.37,12.26-15.15,15.09-23.75,5.42-16.46-1.83-35.1-18.06-46.43-13.45-9.4-31.53-13.55-49.25-16.06-16.15-2.33-34.84-2.56-49.68-8.47C214.13,134.52,201.25,127.59,186.39,122.78Z" transform="translate(-56 -23)"/><ellipse class="cls-1" cx="275.4" cy="154.87" rx="7.28" ry="1"/><ellipse class="cls-1" cx="247.51" cy="157.7" rx="7.28" ry="1"/><ellipse class="cls-1" cx="214.67" cy="153.87" rx="7.28" ry="1"/><ellipse class="cls-1" cx="258.67" cy="165.75" rx="5.17" ry="0.71"/><ellipse class="cls-1" cx="229.74" cy="165.03" rx="5.17" ry="0.71"/><path class="cls-2" d="M303.36,180.47s10.21-33.47-1.6-46.87c-8.82-10-18.86-8.82-23.35-7.59a8.33,8.33,0,0,0-5.35,4.45c-1.57,3.39-1.28,8.88,9.79,15.3,18.56,10.74,19.71,25.48,19.71,25.48Z" transform="translate(-56 -23)"/><path class="cls-3" d="M280,130.76s30.1,9.41,23.35,49.71" transform="translate(-56 -23)"/><path class="cls-3" d="M297.58,134.13s-4.14,2.8-2.83,7" transform="translate(-56 -23)"/><path class="cls-3" d="M283,136.62s2.52-2.58,5.62-1.16" transform="translate(-56 -23)"/><path class="cls-3" d="M294.93,149.58s4.44-2.26,5.59.57" transform="translate(-56 -23)"/><path class="cls-3" d="M305.93,154.28s-3.34-.26-3.4,1.33" transform="translate(-56 -23)"/><path class="cls-2" d="M303.77,180.74s-12-24.33-15.24-23.79c-1.57.25-2.28,1.79-2.6,3.33a9.72,9.72,0,0,0,.65,5.92C288.27,170.09,292.83,177.48,303.77,180.74Z" transform="translate(-56 -23)"/><path class="cls-3" d="M288.62,161.56s12.55,18.2,15,19" transform="translate(-56 -23)"/><line class="cls-3" x1="231.47" y1="141.4" x2="234.39" y2="141.4"/><line class="cls-3" x1="234.97" y1="148.06" x2="239.57" y2="148.26"/><line class="cls-3" x1="237.77" y1="142.74" x2="237.27" y2="145.13"/><line class="cls-3" x1="242.65" y1="150.01" x2="242.56" y2="152.19"/><path class="cls-2" d="M303.42,180.74s12-24.33,15.24-23.79c1.57.25,2.28,1.79,2.6,3.33a9.79,9.79,0,0,1-.65,5.92C318.91,170.09,314.35,177.48,303.42,180.74Z" transform="translate(-56 -23)"/><path class="cls-3" d="M318.57,161.56s-12.55,18.2-15,19" transform="translate(-56 -23)"/><line class="cls-3" x1="263.72" y1="141.4" x2="260.79" y2="141.4"/><line class="cls-3" x1="260.21" y1="148.06" x2="255.62" y2="148.26"/><line class="cls-3" x1="257.42" y1="142.74" x2="257.92" y2="145.13"/><line class="cls-3" x1="252.53" y1="150.01" x2="252.63" y2="152.19"/><path class="cls-2" d="M282.89,186.42a2,2,0,0,1-.68-1,.92.92,0,0,1,.47-1,1.35,1.35,0,0,1,1.26.45,1.69,1.69,0,0,0,1.22.59,1.87,1.87,0,0,1-.57-1.75.66.66,0,0,1,.16-.35c.24-.26.68-.15,1,.06a3.64,3.64,0,0,1,1.19,3,6.63,6.63,0,0,0,0-1.26,1.28,1.28,0,0,1,.47-1.11,1.36,1.36,0,0,1,.71-.17,1.47,1.47,0,0,1,1.16.33,1.17,1.17,0,0,1,0,1.43,4.54,4.54,0,0,1-1.2.94,2.7,2.7,0,0,0-.86.82,1,1,0,0,0-.07.15h-2.6A7.19,7.19,0,0,1,282.89,186.42Z" transform="translate(-56 -23)"/><path class="cls-2" d="M328.45,176.62a2,2,0,0,1-.68-1,.91.91,0,0,1,.47-1,1.32,1.32,0,0,1,1.26.44,1.75,1.75,0,0,0,1.23.59,1.84,1.84,0,0,1-.58-1.74.78.78,0,0,1,.16-.36c.24-.25.68-.14,1,.06a3.6,3.6,0,0,1,1.19,3,5.31,5.31,0,0,0,0-1.26,1.27,1.27,0,0,1,.47-1.1,1.38,1.38,0,0,1,.71-.17,1.5,1.5,0,0,1,1.17.32,1.15,1.15,0,0,1-.05,1.42,4.45,4.45,0,0,1-1.2,1,2.7,2.7,0,0,0-.86.82.47.47,0,0,0-.06.15H330A7.48,7.48,0,0,1,328.45,176.62Z" transform="translate(-56 -23)"/><path class="cls-2" d="M313.26,186.42a2.17,2.17,0,0,1-.68-1,.92.92,0,0,1,.48-1c.43-.16.9.14,1.26.45a1.68,1.68,0,0,0,1.22.59,1.88,1.88,0,0,1-.58-1.75.75.75,0,0,1,.16-.35.77.77,0,0,1,1,.06,3.61,3.61,0,0,1,1.18,3,5.9,5.9,0,0,0,0-1.26,1.28,1.28,0,0,1,.47-1.11,1.36,1.36,0,0,1,.71-.17,1.5,1.5,0,0,1,1.17.33,1.17,1.17,0,0,1,0,1.43,4.54,4.54,0,0,1-1.2.94,2.7,2.7,0,0,0-.86.82.47.47,0,0,0-.06.15h-2.61A7.56,7.56,0,0,1,313.26,186.42Z" transform="translate(-56 -23)"/><path class="cls-2" d="M270.2,166.62s-1,1.27.45,3.19,2.6,3.56,2.13,4.76c0,0-2.15-3.58-3.91-3.63S268.27,168.77,270.2,166.62Z" transform="translate(-56 -23)"/><path class="cls-4" d="M270.2,166.62a1.36,1.36,0,0,0-.2.4c-1.71,2-2.62,3.88-1,3.92s3.37,2.78,3.81,3.47a.44.44,0,0,1-.05.15s-2.15-3.57-3.91-3.62S268.27,168.77,270.2,166.62Z" transform="translate(-56 -23)"/><path class="cls-5" d="M268.39,168.24c0,.45.05.81.11.81s.11-.36.11-.81-.06-.24-.12-.24S268.39,167.79,268.39,168.24Z" transform="translate(-56 -23)"/><path class="cls-5" d="M267.76,168.78c.4.21.74.34.77.29s-.26-.28-.66-.49-.24-.06-.27,0S267.37,168.56,267.76,168.78Z" transform="translate(-56 -23)"/><path class="cls-2" d="M275.35,166.62s1,1.27-.45,3.19-2.6,3.56-2.12,4.76c0,0,2.14-3.58,3.9-3.63S277.28,168.77,275.35,166.62Z" transform="translate(-56 -23)"/><path class="cls-4" d="M275.35,166.62a1.36,1.36,0,0,1,.2.4c1.71,2,2.62,3.88,1,3.92s-3.37,2.78-3.81,3.47l.06.15s2.14-3.57,3.9-3.62S277.28,168.77,275.35,166.62Z" transform="translate(-56 -23)"/><path class="cls-5" d="M277.16,168.24c0,.45-.05.81-.11.81s-.11-.36-.11-.81.06-.24.12-.24S277.16,167.79,277.16,168.24Z" transform="translate(-56 -23)"/><path class="cls-5" d="M277.79,168.78c-.4.21-.74.34-.77.29s.26-.28.66-.49.24-.06.27,0S278.18,168.56,277.79,168.78Z" transform="translate(-56 -23)"/><path class="cls-6" d="M276.85,174.4s-2.72-.08-3.54-.67-4.2-1.28-4.41-.34-4.1,4.66-1,4.69,7.15-.48,8-1S276.85,174.4,276.85,174.4Z" transform="translate(-56 -23)"/><path class="cls-7" d="M267.83,177.75c3.08,0,7.15-.48,8-1,.63-.38.87-1.74.94-2.37h.09s-.17,2.2-1,2.7-4.9,1-8,1c-.88,0-1.19-.32-1.17-.79C266.83,177.57,267.17,177.75,267.83,177.75Z" transform="translate(-56 -23)"/><circle class="cls-1" cx="40.62" cy="19.06" r="6.81"/><circle class="cls-1" cx="158.44" cy="8.31" r="6.81"/><circle class="cls-1" cx="266.51" cy="35.22" r="6.81"/><circle class="cls-1" cx="11.42" cy="81.52" r="11.42"/><circle class="cls-1" cx="22.36" cy="137.89" r="11.42"/><circle class="cls-1" cx="236.18" cy="88.17" r="11.42"/><path class="cls-8" d="M197.77,132.55c-.4,0-.81,0-1.21.08a5.45,5.45,0,0,0-1.89.76c-2.87,1.63-5.57,3.87-6.76,6.94a1,1,0,0,0-.09.62,1,1,0,0,0,.34.43l1.11,1a1.23,1.23,0,0,0,1.41.31c3.06-.7,6.32-1.51,8.47-3.8,1-1.09,2-2.58,3.47-2.62a16.26,16.26,0,0,1,1.83.31,1.35,1.35,0,0,0,1.52-.8,1.7,1.7,0,0,0-.1-.89l-.93-3.08c-.25-.84-2.79-.89-3.64-.74C200,131.32,199.14,132.42,197.77,132.55Z" transform="translate(-56 -23)"/><path class="cls-8" d="M208.68,149.91a25.69,25.69,0,0,1-.13,3.17,9,9,0,0,1-.79,2.38,15,15,0,0,1-2.14,3.37,6.56,6.56,0,0,1-2.93,2.21,3.1,3.1,0,0,1-3.37-.89,4.43,4.43,0,0,1-.58-2.9,17.54,17.54,0,0,1,1.61-7.23c.48-1,1.08-1.85,1.57-2.8,1-2,1.61-4.33,3.37-5.7a10.85,10.85,0,0,0,3.49,1c.47.05,1.81.08,2,.68.11.41-.77,1.55-.94,2A13.12,13.12,0,0,0,208.68,149.91Z" transform="translate(-56 -23)"/><path class="cls-9" d="M196.2,104.49a11.2,11.2,0,0,1,.94,2.94c.06.63,0,1.26,0,1.89a12.25,12.25,0,0,0,.43,2.55l1.75,7.18a8.9,8.9,0,0,1,.39,3.27,18,18,0,0,0-.35,2.18,8.36,8.36,0,0,0,.26,1.64,10.13,10.13,0,0,1-.26,5,.74.74,0,0,0-.05.39c0,.2.24.33.42.43a17.88,17.88,0,0,0,6.08,2,59.93,59.93,0,0,0,4-14.28c.44-3,.66-6,1.23-8.94a.76.76,0,0,1,.21-.45c.21-.18.54-.07.79.05a70.5,70.5,0,0,1,9.26,5.36,11.59,11.59,0,0,0,2.14-9.58,19.59,19.59,0,0,0-1.58-4.12,23.13,23.13,0,0,0-2.67-4.49,20.55,20.55,0,0,0-9.29-6.07c-2.15-.78-4.36-1.35-6.56-1.94-1.23-.33-3.3-1.4-4.5-.57s-2.1,3-2.62,4.41a16.15,16.15,0,0,0-1,5.32A14.72,14.72,0,0,0,196.2,104.49Z" transform="translate(-56 -23)"/><path class="cls-9" d="M221.51,113.15c-.65.72-.1,1.87-.23,2.84a3.8,3.8,0,0,1-.46,1.24l-3,5.92a10.78,10.78,0,0,0-1.12,2.83c-.42,2.14.43,4.54-.65,6.42a6.9,6.9,0,0,0-1,1.82,13,13,0,0,0-.05,1.53,9.81,9.81,0,0,1-.57,1.71,11.91,11.91,0,0,0-.29,1.67,9.82,9.82,0,0,1-3.54,6.12,5.63,5.63,0,0,1-3.91,1.33,3.38,3.38,0,0,1-3.08-2.45,3.28,3.28,0,0,0-.37-1.37c-.42-.55-1.3-.57-1.7-1.13l1.55-2.55a6,6,0,0,0,1.06-2.54c.09-1.13-.45-2.26-.26-3.37.17-1,.86-1.76,1.06-2.72a8.14,8.14,0,0,0-.53-3.55c-.69-2.9.08-5.92.84-8.82,1-3.83,2.06-7.72,4.12-11.1C213.44,109.19,217.22,111.32,221.51,113.15Z" transform="translate(-56 -23)"/><path class="cls-2" d="M221.55,53.16a5,5,0,0,1,.07,2.12c-.11,1.57.22,3.15.15,4.75a28.76,28.76,0,0,1-.91,4.67c-1,4.43-.73,9-1.61,13.5-1.08,5.51-3.84,10.64-4.39,16.23-.17,1.78-.15,3.68-1.12,5.18A80.75,80.75,0,0,1,197.45,90c1.11-8.22,2.2-16.48,2.06-24.78a11,11,0,0,1,.2-3A9.13,9.13,0,0,1,200.84,60c1.21-2,2.56-3.88,3.89-5.78a8,8,0,0,1,3.15-3.06,8,8,0,0,1,4.48,0l5.37,1C218.85,52.25,221.07,51.86,221.55,53.16Z" transform="translate(-56 -23)"/><path class="cls-10" d="M178.43,84.67a17.61,17.61,0,0,0-2.4-2c1.12-1.36.9-3.32,1.18-5.07a16.47,16.47,0,0,1,1-3.29c.12-.3.28-.63.59-.71a1,1,0,0,1,.56.09c.94.33,2.92.31,3.65.92s.08,2.3-.26,3.23C182.53,78.47,178.9,85.14,178.43,84.67Z" transform="translate(-56 -23)"/><path class="cls-8" d="M181.17,143.49a6.27,6.27,0,0,1,.91,2.52,2.48,2.48,0,0,1-1,2.34,3.47,3.47,0,0,1-2.76,0,14.35,14.35,0,0,1-8.71-7.87,5.83,5.83,0,0,0-1-1.87,5.53,5.53,0,0,0-1.24-.84,6.68,6.68,0,0,1-3-2.92,3.12,3.12,0,0,1,.87-3.82,3.23,3.23,0,0,1,2.47-.32,9.87,9.87,0,0,1,2.33,1,23.56,23.56,0,0,1,3.78,2.12,23.31,23.31,0,0,1,2.6,2.75,35.93,35.93,0,0,1,2.59,3.31C179.21,140.27,181.39,143.18,181.17,143.49Z" transform="translate(-56 -23)"/><path class="cls-8" d="M158.09,136.88a21.8,21.8,0,0,1-.84,4.67,4.31,4.31,0,0,1-1.3,2.3,4.87,4.87,0,0,1-2,.72,1.76,1.76,0,0,1-.76.05,1.92,1.92,0,0,1-1-.82,13.58,13.58,0,0,1-2.52-4.55,11,11,0,0,1,1.1-7.36,7.39,7.39,0,0,1,1.68-2.45,6.49,6.49,0,0,1,3.09-1.39c1.17-.23,2.59-.73,2.68.68A67.15,67.15,0,0,1,158.09,136.88Z" transform="translate(-56 -23)"/><path class="cls-9" d="M175.51,77.68c2.17,1.12,4.59,2.55,5,5,.28,1.47-.26,3-.17,4.46.08,1.31.63,2.58.56,3.89-.07.62-.18,1.24-.31,1.85a29.43,29.43,0,0,0-.13,3.52c-.1,2.64-1,5.19-1.41,7.8a22.19,22.19,0,0,0-.21,5.64c.1,1.21.31,2.42.31,3.64a15.47,15.47,0,0,1-.22,2.63,26,26,0,0,1-2.52,7.83c-1.51,3-1.3,6.83-1.14,10.18a2.53,2.53,0,0,1-.17,1.36c-.39.72-1.38.82-2.2.75a12,12,0,0,1-7.87-4,2,2,0,0,1-.58-1.07c-.07-.67.47-1.22.87-1.78,1.32-1.89,1-4.45,1.14-6.77a14.8,14.8,0,0,1,1.2-4.9,9.27,9.27,0,0,0,1-2.76,7.08,7.08,0,0,0-.47-2.68l-.95-3a88.07,88.07,0,0,0-5.15-13.69,6.86,6.86,0,0,0-2.92,4.09c-.82,3,.35,6.28-.77,9.14a8.55,8.55,0,0,0-.47,1.22,5,5,0,0,0-.07,1.1,91,91,0,0,0,.56,9.19,2.88,2.88,0,0,0,.38,1.31c.18.27.45.47.65.72a3.44,3.44,0,0,1,.32,2.61l-.63,4.21a1.09,1.09,0,0,1-.21.6,1.2,1.2,0,0,1-.53.29,15.07,15.07,0,0,1-6.19.57,4.14,4.14,0,0,1-1.69-.84c-.05-.63.73-1,.76-1.67a1.46,1.46,0,0,0-.48-1c-1.17-1.32-2.57-2.72-2.56-4.49,0-.46.11-.93.1-1.39,0-1.19-.86-2.2-1.15-3.35-.35-1.41.12-2.88.3-4.32a22.62,22.62,0,0,0-.32-5.86l-1.05-7.13a20.16,20.16,0,0,0-.66-3.27,25.73,25.73,0,0,0-1.39-3.07c-1-2-1.84-4.18-2.67-6.3a5.77,5.77,0,0,1-.48-1.82,4.48,4.48,0,0,1,1.2-2.94,9.22,9.22,0,0,1,5-3,2.15,2.15,0,0,1,1,0,2.53,2.53,0,0,1,.78.41,18.85,18.85,0,0,0,16.65,2,1.37,1.37,0,0,0,1.26,0,15.83,15.83,0,0,0,2.73-1.89A16.27,16.27,0,0,1,175.51,77.68Z" transform="translate(-56 -23)"/><path class="cls-9" d="M110.24,158.56a4,4,0,0,0,.74,1.32c1.14,1.49,2.73,2.68,3.46,4.41.16.38.27.77.41,1.14a7.56,7.56,0,0,0,2.05,3,12.67,12.67,0,0,0,2.26,1.5,9.07,9.07,0,0,0,4.48,1.4,5,5,0,0,0,.94-.11,5.09,5.09,0,0,0,1.41-.52,2.9,2.9,0,0,0,1.69-2.8,2.34,2.34,0,0,0-.21-.63,7.72,7.72,0,0,0-.57-.91,6.83,6.83,0,0,0-1.86-2c-.88-.54-2-.67-2.77-1.33a4.1,4.1,0,0,1-.79-1,12,12,0,0,1-1.58-3.56,5.51,5.51,0,0,0-1.09-2.68,4.48,4.48,0,0,0-2.56-1,4.91,4.91,0,0,0-.94-.09,2.64,2.64,0,0,1-1.34-.06c-.42-.21-.56-.51-1.07-.47a2.18,2.18,0,0,0-1.11.48A3.7,3.7,0,0,0,110.24,158.56Z" transform="translate(-56 -23)"/><path class="cls-11" d="M121.42,160a4.85,4.85,0,0,0,1.35,2.9c.53.46,1.26.74,1.52,1.38a2.24,2.24,0,0,1-.51,2,7.36,7.36,0,0,1-2,1.86,3,3,0,0,1-2.23.54,3.62,3.62,0,0,1-1.59-1,11,11,0,0,1-2.79-3.37c-.63-1.41-.66-3-1.35-4.43a15.17,15.17,0,0,1-1.26-2.39,1.61,1.61,0,0,1,0-1,1.36,1.36,0,0,1,1.24-.73,4.17,4.17,0,0,1,1.48.31,32.63,32.63,0,0,0,4.35,1.22c.59.11,1,.11,1.26.68A6.77,6.77,0,0,1,121.42,160Z" transform="translate(-56 -23)"/><path class="cls-11" d="M125.08,169a3.35,3.35,0,0,0-.49,1.17,2.54,2.54,0,0,0,0,1,5,5,0,0,0,1.4-.52,2.89,2.89,0,0,0,1.69-2.8,2.72,2.72,0,0,0-.2-.63.87.87,0,0,0-.84.26A6.94,6.94,0,0,0,125.08,169Z" transform="translate(-56 -23)"/><path class="cls-9" d="M113.79,145.09a1.52,1.52,0,0,0-.12.94c.15.63.79,1,1.38,1.28l5.54,2.71a12,12,0,0,1,1.12.6,16.36,16.36,0,0,1,2.49,2.14,6.57,6.57,0,0,0,2.77,1.72,4.7,4.7,0,0,0,3.15-.41,6.49,6.49,0,0,0,1.45-1,9.67,9.67,0,0,0,1-1.08,2.38,2.38,0,0,0,.56-1,2.23,2.23,0,0,0-.52-1.62,7.68,7.68,0,0,0-.63-.78c-2.1-2.32-5.54-3.52-8.5-4a24,24,0,0,1-3.43-1,8.11,8.11,0,0,0-3.51-.47A3.49,3.49,0,0,0,113.79,145.09Z" transform="translate(-56 -23)"/><path class="cls-4" d="M113.79,145.09a1.52,1.52,0,0,0-.12.94c.15.63.79,1,1.38,1.28l5.54,2.71a12,12,0,0,1,1.12.6,16.36,16.36,0,0,1,2.49,2.14,6.57,6.57,0,0,0,2.77,1.72,4.7,4.7,0,0,0,3.15-.41,6.49,6.49,0,0,0,1.45-1,9.67,9.67,0,0,0,1-1.08,2.38,2.38,0,0,0,.56-1,2.23,2.23,0,0,0-.52-1.62,7.68,7.68,0,0,0-.63-.78c-2.1-2.32-5.54-3.52-8.5-4a24,24,0,0,1-3.43-1,8.11,8.11,0,0,0-3.51-.47A3.49,3.49,0,0,0,113.79,145.09Z" transform="translate(-56 -23)"/><path class="cls-11" d="M127.65,146.82a6.2,6.2,0,0,1,1,1.6,1.39,1.39,0,0,1-.34,2l-.55.51a2.19,2.19,0,0,1-.57.43,2.34,2.34,0,0,1-1,.14,3.52,3.52,0,0,1-2.13-.44,2.37,2.37,0,0,1-.6-2.76,5.9,5.9,0,0,1,2-2.29C126.14,145.53,127.2,146.34,127.65,146.82Z" transform="translate(-56 -23)"/><path class="cls-11" d="M131,150.07a2.76,2.76,0,0,0,.14,1.56l.41,1.43v0a8.85,8.85,0,0,0,1-1.08,2.38,2.38,0,0,0,.56-1,2.24,2.24,0,0,0-.51-1.62q-.3-.41-.63-.78c-.15.19-.28.38-.39.51A2.72,2.72,0,0,0,131,150.07Z" transform="translate(-56 -23)"/><path class="cls-9" d="M116.55,126.6a23.47,23.47,0,0,0,0,8.4,15.45,15.45,0,0,1-.07,6.39,5.17,5.17,0,0,0-.46,2.33c.27,1.49,2.06,2.07,3.55,2.35a3.61,3.61,0,0,0,1.31.07,3.08,3.08,0,0,0,1.2-.63,13.09,13.09,0,0,0,4.61-6.12,22.72,22.72,0,0,0,.91-5.12,36.11,36.11,0,0,0,.16-8.75c-.13-.85-.32-1.69-.39-2.55a18.43,18.43,0,0,1,.24-4.45A71.84,71.84,0,0,1,130,107.77a14.57,14.57,0,0,1-8.72-1.58c.52.28-.07,4.7-.14,5.32a35.21,35.21,0,0,1-1,5.48C119.31,120.35,117.34,123.26,116.55,126.6Z" transform="translate(-56 -23)"/><path class="cls-4" d="M116.55,126.6a23.47,23.47,0,0,0,0,8.4,15.45,15.45,0,0,1-.07,6.39,5.17,5.17,0,0,0-.46,2.33c.27,1.49,2.06,2.07,3.55,2.35a3.61,3.61,0,0,0,1.31.07,3.08,3.08,0,0,0,1.2-.63,13.09,13.09,0,0,0,4.61-6.12,22.72,22.72,0,0,0,.91-5.12,36.11,36.11,0,0,0,.16-8.75c-.13-.85-.32-1.69-.39-2.55a18.43,18.43,0,0,1,.24-4.45A71.84,71.84,0,0,1,130,107.77a14.57,14.57,0,0,1-8.72-1.58c.52.28-.07,4.7-.14,5.32a35.21,35.21,0,0,1-1,5.48C119.31,120.35,117.34,123.26,116.55,126.6Z" transform="translate(-56 -23)"/><path class="cls-9" d="M132.9,110.55c1.26,3.65,1,7.63.44,11.46s-1.35,7.64-1.12,11.5a12.63,12.63,0,0,1-.1,4.51,9.55,9.55,0,0,1-1,2L121.1,157.41a3.13,3.13,0,0,1-2.52,1.57,7.32,7.32,0,0,1-3.13-.67,5.62,5.62,0,0,1-1.82-1,2.17,2.17,0,0,1-.77-1.85c.45-3,1.13-6.1,1.63-9.13a15.63,15.63,0,0,1,2.19-5.78c.77-1.26,1.73-2.4,2.4-3.71,1.93-3.75,1.26-8.33-.23-12.28s-3.7-7.61-4.88-11.65a13.14,13.14,0,0,1-.59-3.46,9.24,9.24,0,0,1,2.63-6.57,2.3,2.3,0,0,1,.91-.63,2.48,2.48,0,0,1,1.24,0C123.76,103.34,131.05,105.16,132.9,110.55Z" transform="translate(-56 -23)"/><path class="cls-11" d="M223.23,56.05a6.33,6.33,0,0,1-1,4,11.23,11.23,0,0,1-13.64,4.37,21.67,21.67,0,0,1-5.26-3.68,4.65,4.65,0,0,1-1.4-1.63A3.17,3.17,0,0,1,203,55.65,9.06,9.06,0,0,1,206.41,54C210.5,52.74,222.26,48.73,223.23,56.05Z" transform="translate(-56 -23)"/><path class="cls-9" d="M220.84,51.68c3.72,3,9.13,5.84,13.35,8.06,1.43.75,3,1.6,3.54,3.14a6.31,6.31,0,0,1,.09,2.6,17.43,17.43,0,0,1-1,4.92,32.2,32.2,0,0,1-3.18,5c-1.89,2.89-3,6.29-5.33,8.85,1.57,5.23,3.3,10.45,3.86,15.88a.77.77,0,0,1,0,.45.75.75,0,0,1-.25.22L228,103.34a4.51,4.51,0,0,0-1.14,1c-.69.9-.6,2.16-1,3.21a4.18,4.18,0,0,1-2.42,2.21,7.42,7.42,0,0,1-3.34.35,7.83,7.83,0,0,1-4-1.4,16.61,16.61,0,0,1-3.65-5.16,10.23,10.23,0,0,1-.43-3.66,38.25,38.25,0,0,1,.67-7c.18-.92.41-1.82.55-2.74.29-1.86.24-3.76.45-5.62a37.58,37.58,0,0,1,1.4-6.2,30.75,30.75,0,0,0,.82-3.81,41.3,41.3,0,0,1,1.84-6.61L219,64.14c.27-.8.54-1.6.85-2.39a18.13,18.13,0,0,0,1.56-4.45c.22-1.71-1.62-3.73-1-5.33C220.42,51.8,220.7,51.56,220.84,51.68Z" transform="translate(-56 -23)"/><path class="cls-9" d="M236.72,62a3.6,3.6,0,0,1,1.67,2.24,12.72,12.72,0,0,1,.49,6.36,9.75,9.75,0,0,0-.25,1.62,9.92,9.92,0,0,0,.18,1.89c.32,2.41,0,4.86.1,7.29.11,2.73.71,5.62-.44,8.11a11.54,11.54,0,0,1-3.63,4,72.81,72.81,0,0,1-17.37,10,4.58,4.58,0,0,0,.38-4.76,8.91,8.91,0,0,0-3.47-3.55,22.32,22.32,0,0,0,5.21-1.86,45.62,45.62,0,0,0,8.93-6.56,2.71,2.71,0,0,0,.92-1.17c.29-1-.5-1.84-1-2.67-1.64-2.52-1.26-5.81-.57-8.73a22.49,22.49,0,0,1,3.94-8.95A8.82,8.82,0,0,1,236.72,62Z" transform="translate(-56 -23)"/><path class="cls-11" d="M217.19,103.62a4.38,4.38,0,0,1-1.08,1.19,3.57,3.57,0,0,1-3.3-.06,9.75,9.75,0,0,1-2.68-1.7,4.08,4.08,0,0,0-1.18-.89c-.83-.31-2-.08-2.45-.83a.45.45,0,0,1-.07-.28c0-.27.39-.34.66-.36a8.37,8.37,0,0,0,3.65-1.12,3.54,3.54,0,0,1-.9-.95.81.81,0,0,1-.15-.45.8.8,0,0,1,.28-.44,7,7,0,0,1,7.71-1.29,1.61,1.61,0,0,1,.63.47,2.08,2.08,0,0,1,.23.63c.2.89.94,2.21.67,3.1S217.8,102.75,217.19,103.62Z" transform="translate(-56 -23)"/><path class="cls-9" d="M195.72,99.64c3.91-4.52,5.66-10.48,7.29-16.24l1.16-4.09,2.8-9.86a44.9,44.9,0,0,0,1.1-4.4,40.38,40.38,0,0,0,.49-7.77,8.48,8.48,0,0,0-.73-3.13c-.27-.68-.41-1.4-.63-2.11a10.44,10.44,0,0,0-1.26-2.76,2.9,2.9,0,0,0-.57-.68,3.24,3.24,0,0,0-1.29-.53A11.91,11.91,0,0,0,201,47.6a3.81,3.81,0,0,0-2.8,1.2A15,15,0,0,0,197,50.88a7.61,7.61,0,0,0-.51.87,4.38,4.38,0,0,0-.28,1.43q-.25,3-.42,6c-.06.9-.1,1.81-.07,2.72,0,.7.11,1.41.18,2.11l.75,6.88c.17,1.61.05,3.12.19,4.74.36,3.91-.48,7.82-1.35,11.65a20.9,20.9,0,0,1-1.72,5.33c-.78,1.46-1.94,2.94-1.63,4.57a17.15,17.15,0,0,1,.44,1.67,3.1,3.1,0,0,0,.1,1,1.25,1.25,0,0,0,1.34.63A3.12,3.12,0,0,0,195.72,99.64Z" transform="translate(-56 -23)"/><path class="cls-11" d="M196.19,81.53c.12.91,0,1.82.08,2.73a18.73,18.73,0,0,0,.63,3.47c.31,1.26.71,2.67,1.83,3.37a5.51,5.51,0,0,1,.79.5.76.76,0,0,1,.26.84l-.87-.14a.87.87,0,1,1-1.06,1.39.86.86,0,0,1-.14-.13,2.17,2.17,0,0,1-.08.84.69.69,0,0,1-.63.47.91.91,0,0,1-.45-.19l-2.26-1.4a4.1,4.1,0,0,1-1.63-1.57l-1-1.49a3.82,3.82,0,0,1-.52-1c-.36-1.26.67-2.65.13-3.84a5.75,5.75,0,0,0-.56-.83c-1.15-1.57-1.07-3.71-.95-5.67,0-.65.16-1.44.76-1.72a1.55,1.55,0,0,1,1.48.26,5.86,5.86,0,0,0,1.32.83c.31.11.66.12,1,.24s.85.75,1.15,1.11A3.6,3.6,0,0,1,196.19,81.53Z" transform="translate(-56 -23)"/><path class="cls-10" d="M168.6,53.23a6,6,0,0,1-1.11,1.66,2.18,2.18,0,0,1-1.83.63A3.23,3.23,0,0,1,164,54.26a21.69,21.69,0,0,1-3.25-4.55c-1.24-2.56-1.44-5.48-1.62-8.32a4,4,0,0,1,.27-2.14,3.93,3.93,0,0,1,2.25-1.53l4.8-1.79a1.85,1.85,0,0,1,.95-.17c.75.12,1,1,1.23,1.76a11.16,11.16,0,0,0,1.8,3.66c1.08,1.43,3.49,3.37,2.11,5.16A39.7,39.7,0,0,0,168.6,53.23Z" transform="translate(-56 -23)"/><path class="cls-12" d="M174.74,45c2.1,2,2.82,5.06,2.72,7.94s-.91,5.69-1.36,8.54-.55,5.89.69,8.5a22.81,22.81,0,0,1,1.3,2.68,8.47,8.47,0,0,1,.25,2.88,8.18,8.18,0,0,1-.58,3A9.31,9.31,0,0,1,174.39,82c-2.69,2-5.44,3.93-8.6,5a26.66,26.66,0,0,1-6.65,1,21.63,21.63,0,0,1-4.55-.13,12.43,12.43,0,0,1-6.92-3.66,4.13,4.13,0,0,1-.78-1.08,4.59,4.59,0,0,1-.27-1.64q-.12-3.11,0-6.21a27.39,27.39,0,0,1,.81-5.84c.61-2.2,1.65-4.27,2.44-6.42,2.75-7.46,2.47-16,6.3-22.93.82-1.51,2.2-3.09,3.9-2.85a1.35,1.35,0,0,1,.87.39,1.89,1.89,0,0,1,.31,1,28.65,28.65,0,0,0,2.58,9.93c.63,1.2,1.57,3,3,3.35s2.3-1.07,3.08-2A25.46,25.46,0,0,1,174.74,45Z" transform="translate(-56 -23)"/><path class="cls-9" d="M184.81,39.94a6.18,6.18,0,0,1,1.19.83,4.85,4.85,0,0,1,1.29,3.56,28.29,28.29,0,0,1-.51,3.87c-.5,3.46-.07,7,.13,10.51a5.12,5.12,0,0,1-.1,1.7c-.16.53-.47,1-.68,1.51-.6,1.52-.15,3.25-.5,4.84s-1.67,3.24-1.43,5c.1.68.42,1.3.56,2a1.72,1.72,0,0,1-.56,1.83c-.57.36-1.41.1-2.1.3a5.87,5.87,0,0,0-.81.36,4,4,0,0,1-3.37-.21,10.22,10.22,0,0,1-2.73-2.16,11.13,11.13,0,0,1-2.88-4.2c-.77-2.37-.09-5,.75-7.3s1.83-4.73,1.68-7.22A32.19,32.19,0,0,0,174,51a26.44,26.44,0,0,1-.35-5.76,10.34,10.34,0,0,1,.74-4.14A5.69,5.69,0,0,1,178.85,38C181.06,37.74,183,38.86,184.81,39.94Z" transform="translate(-56 -23)"/><path class="cls-4" d="M178.85,70.38a9.92,9.92,0,0,0,.54,3,11.66,11.66,0,0,0,.7-4.12,82.09,82.09,0,0,1,2.52-14c-.82.63-1.29,2.2-1.69,3.15A27.87,27.87,0,0,0,178.85,70.38Z" transform="translate(-56 -23)"/><path class="cls-9" d="M157.62,36.82a38.73,38.73,0,0,0-4.3,1.89A32.4,32.4,0,0,1,148.54,40c-3.71.9-7.43,2.57-9.67,5.67-1.65,2.27-2.33,5.09-3.47,7.67a65.05,65.05,0,0,0-2.9,6.44,24.89,24.89,0,0,0-.58,9.15,18.81,18.81,0,0,0,1.6,7.3c.6,1.18,1.43,2.23,2,3.4.71,1.4,1.09,3,1.69,4.41a7.1,7.1,0,0,0,2.87,3.65l2.3-1.35c3.43-2,6.86-4,10.18-6.19,2.9-1.89,5.82-4.06,7.36-7.17a16,16,0,0,0,1.15-9c-.35-3.05-1.16-6-1.57-9.06a36.67,36.67,0,0,1,.23-11.5c.32-1.71,1.15-3.48,1.33-5.19S158.94,36.48,157.62,36.82Z" transform="translate(-56 -23)"/><path class="cls-11" d="M143.41,86.89c1.76,1.67,4.29,2.15,6.49,3.15a13.94,13.94,0,0,1,4.34,3.15c.68.74,1.33,1.75,1,2.7a3,3,0,0,1-2,1.53,4.48,4.48,0,0,1-3.12.33,12,12,0,0,1-1.59-1c-1.32-.79-3-.79-4.34-1.51-1.91-1-2.86-3.27-4.65-4.48-1-.66-2.34-1.2-2.45-2.38a3,3,0,0,1,.27-1.24c.36-1,1-4.28,2.36-4.19S142.29,86.09,143.41,86.89Z" transform="translate(-56 -23)"/><path class="cls-11" d="M134.19,72.13a14.93,14.93,0,0,0,3.3,5.48c1,1.18,2.09,2.47,2.13,4a4.26,4.26,0,0,1-2.21,3.56,9.49,9.49,0,0,1-4.2,1.08,10.47,10.47,0,0,1-3.48-.25c-2.88-.78-4.88-3.29-7.14-5.23a22.14,22.14,0,0,1-3.89-3.59c-1-1.44-1.46-3.5-.45-5A6.83,6.83,0,0,1,119.51,71a21.37,21.37,0,0,0,4.35-5.22,5.61,5.61,0,0,1,1.69-2.12c1.13-.68,2.57-.37,3.84,0s5.28,1.07,5.55,2.84c.11.72-.79,1.85-.92,2.63A6.89,6.89,0,0,0,134.19,72.13Z" transform="translate(-56 -23)"/><path class="cls-13" d="M141.31,76.08a13.44,13.44,0,0,1,1,2.34c1,3.34-.76,6.78-1.57,10.16-1.05,4.32-.61,8.84-.66,13.29,0,2-.24,4.28-1.7,5.69a5.45,5.45,0,0,0-1.09,1.11,5.63,5.63,0,0,0-.35,1,5.37,5.37,0,0,1-6.64,3.68,5.73,5.73,0,0,1-1.14-.48c-1.19-.66-2.23-1.82-3.6-1.85a10.89,10.89,0,0,0-1.28.14,8.81,8.81,0,0,1-4-.86,2.73,2.73,0,0,1-.84-.45c-.23-.21-.37-.49-.58-.72-.78-.84-2.11-.69-3.23-.93a4.52,4.52,0,0,1-3.43-3.42,9,9,0,0,1,.16-3.3l.84-4.87a44.64,44.64,0,0,0,.74-5.4,22.92,22.92,0,0,0-.53-6.12,48.44,48.44,0,0,1-1.12-4.91,12,12,0,0,1,2.2-8.44,2.64,2.64,0,0,1,1.76-1.26,2.94,2.94,0,0,1,1.68.58q6.81,4,13.72,7.89a16.26,16.26,0,0,0,3.95,1.77c.43.11,1,.07,1.09-.36a.77.77,0,0,0-.12-.47c-.79-1.51-1.93-2.81-2.84-4.25a7.32,7.32,0,0,1-1.34-4.83c.37-2.32,2.52-3.85,4.28-2A29.72,29.72,0,0,1,141.31,76.08Z" transform="translate(-56 -23)"/><path class="cls-11" d="M127.2,105.47c3.7.24,7.47.49,10.89,1.91,1.1.45,2.27,1,3.42.75a4.55,4.55,0,0,0,1.58-.84,35.51,35.51,0,0,0,4-3.43c-.12-.69-1.06-.79-1.76-.78a10.48,10.48,0,0,1-4.9-1.18,8,8,0,0,0-1.57-.73c-1.5-.41-3,.37-4.52.76a17.71,17.71,0,0,1-6.84-.1l-6.13-.9a2.18,2.18,0,0,0-1.67.2,2,2,0,0,0-.59,1.07c-.75,2.52-.39,2.73,2.1,2.89Z" transform="translate(-56 -23)"/><circle class="cls-4" cx="154.89" cy="28.67" r="10.08"/><circle class="cls-11" cx="154.82" cy="28.23" r="10.08"/><path class="cls-9" d="M219.32,38.43a5.41,5.41,0,0,1,2.09,1.87,9.05,9.05,0,0,1,.54,1.77c.55,1.89,2,3.53,2.11,5.5.1,2.15-1.52,4-3.35,5.16a2.45,2.45,0,0,1-1.45.48,4.66,4.66,0,0,1-1.48-.58c-2.07-.92-4.38.25-6.57.78a11.84,11.84,0,0,1-6.87-.4,6.46,6.46,0,0,1-3.07-2.13,3.35,3.35,0,0,1-.37-3.55c.31-.56.84-1.07.8-1.71a9.2,9.2,0,0,0-.31-1.11,2.55,2.55,0,0,1,.53-1.7,24.66,24.66,0,0,1,5.45-6.16,3.9,3.9,0,0,1,2.18-1.06c1.66-.07,3.08,1.16,4.79,1.17A8.93,8.93,0,0,1,219.32,38.43Z" transform="translate(-56 -23)"/><circle class="cls-4" cx="117.72" cy="15.71" r="10.39"/><circle class="cls-10" cx="117.9" cy="15.45" r="10.39"/><path class="cls-9" d="M179.45,44.32a6.93,6.93,0,0,0,4.92.36A6.42,6.42,0,0,0,187,43.59a3.08,3.08,0,0,0,1.3-2.39c0-1.05-.69-2-.78-3.06-.1-1.33.77-2.56.86-3.89a6.82,6.82,0,0,0-1.21-3.69,20.64,20.64,0,0,0-3.94-5.46,7.19,7.19,0,0,0-6.22-2,25.85,25.85,0,0,1-3.19.94,13.3,13.3,0,0,1-2.93-.33,3.34,3.34,0,0,0-2.78.63c-.39.38-.63.91-1.08,1.19a6.36,6.36,0,0,1-.95.35c-1.13.45-1.65,1.74-2.06,2.89l-2.7,7.74a20.8,20.8,0,0,0,3,1.4,3.61,3.61,0,0,1,2.15,2.35c.16.82-.13,1.76.34,2.45a2.13,2.13,0,0,0,2.09.63,7.61,7.61,0,0,1,2.27-.25c1.89.29,2.59,1.44,4.34,0S177.83,43.41,179.45,44.32Z" transform="translate(-56 -23)"/><circle class="cls-4" cx="73.73" cy="38.89" r="9.45"/><circle class="cls-11" cx="74.1" cy="38.38" r="9.45"/><path class="cls-9" d="M137.33,52.14a24.65,24.65,0,0,0-7.47-3.93,9.13,9.13,0,0,0-5.36-.43c-2.37.68-5.55,1.69-7,3.68a10.62,10.62,0,0,0-1.81,3.14c-.7,2.35.3,4.86.23,7.31-.07,2.85-1.59,5.46-3.24,7.79s-2,5.67-3,8.36c-.33.92-.44,2.21.42,2.67s1.67-.11,2.37-.61l4.21-3a3.09,3.09,0,0,1,1.1-.59,3.22,3.22,0,0,1,2.44.85l8.82,6.24a2.7,2.7,0,0,0,0-2.29,8.81,8.81,0,0,1,2.16,1.43,1.8,1.8,0,0,0,2.36,0,1.67,1.67,0,0,0-.46-2.17c-.59-.55-1.36-.88-1.94-1.45-1.14-1.14-1.26-2.93-2-4.37a24,24,0,0,1-1.72-2.92c-.59-1.76.19-3.65,1-5.34.91-2,1.94-4.14,3.87-5.18.66-.36,1.38-.56,2-.89A11,11,0,0,0,138.93,56C139.64,54.52,138.54,53.07,137.33,52.14Z" transform="translate(-56 -23)"/><path class="cls-4" d="M123,83.36c.9.58,1.93,1,2.81,1.55a3.4,3.4,0,0,1,1.69,2.58,4.54,4.54,0,0,1-1.26,2.74L118.6,100.3l3.91,1a10,10,0,0,0-1.11,3,3.27,3.27,0,0,1-2,2.35c-1,.24-1.94-.26-2.91-.2-.73,0-1.41.39-2.13.41a4.41,4.41,0,0,1-2.56-1c-1.73-1.15-3.44-2.81-3.43-4.89A7.33,7.33,0,0,1,108.8,99c1.13-3.68,2.3-7.46,4.64-10.53a32.73,32.73,0,0,1,4.34-4.39,4.09,4.09,0,0,1,1.22-.84c1-.38,2.11.09,3.15.39s2.35.34,3-.55" transform="translate(-56 -23)"/><path class="cls-13" d="M122.7,82.74c.9.57,1.92,1,2.81,1.55a3.44,3.44,0,0,1,1.7,2.58A4.44,4.44,0,0,1,126,89.61l-7.68,10.06,3.91,1a10,10,0,0,0-1.11,3,3.27,3.27,0,0,1-2,2.35c-1,.24-1.94-.26-2.91-.2-.73,0-1.41.39-2.13.41a4.41,4.41,0,0,1-2.56-1c-1.73-1.15-3.44-2.81-3.43-4.89a7.33,7.33,0,0,1,.42-2.06c1.13-3.69,2.3-7.46,4.64-10.53a34.77,34.77,0,0,1,4.34-4.41,4.43,4.43,0,0,1,1.22-.84c1-.38,2.11.09,3.15.4s2.35.34,3-.55" transform="translate(-56 -23)"/><g class="cls-14"><path d="M201.6,48.79a6.46,6.46,0,0,0,3.07,2.13,11.65,11.65,0,0,0,6.86.4c2.21-.53,4.51-1.7,6.58-.78a4.59,4.59,0,0,0,1.48.59,2.5,2.5,0,0,0,1.44-.49,7.44,7.44,0,0,0,3-3.28.82.82,0,0,0,0,.21c.1,2.15-1.52,4-3.35,5.16a2.45,2.45,0,0,1-1.45.48,4.66,4.66,0,0,1-1.48-.58c-2.07-.92-4.38.25-6.57.78a11.84,11.84,0,0,1-6.87-.4,6.46,6.46,0,0,1-3.07-2.13,3.35,3.35,0,0,1-.37-3.55l0-.08A3.76,3.76,0,0,0,201.6,48.79Z" transform="translate(-56 -23)"/><path d="M202,43.53a2.21,2.21,0,0,1-.55,1.31,1.92,1.92,0,0,1-.09-.32,2.48,2.48,0,0,1,.48-1.61A2.27,2.27,0,0,1,202,43.53Z" transform="translate(-56 -23)"/></g><path class="cls-4" d="M164.71,27.78,162,35.52a20.8,20.8,0,0,0,3,1.4,3.61,3.61,0,0,1,2.15,2.35c.16.82-.14,1.76.34,2.45a2.13,2.13,0,0,0,2.09.63,8.32,8.32,0,0,1,2.27-.25c1.89.29,2.59,1.45,4.34,0s2.38.27,4,1.18a6.93,6.93,0,0,0,4.92.36,6.42,6.42,0,0,0,2.58-1.09c.11-.09.22-.18.32-.28a3.74,3.74,0,0,1-1.06,1.31,6.84,6.84,0,0,1-2.58,1.09,7,7,0,0,1-4.92-.36c-1.63-.92-2.29-2.58-4-1.19s-2.45.28-4.34,0a8,8,0,0,0-2.27.26,2.14,2.14,0,0,1-2.08-.63c-.48-.69-.19-1.63-.34-2.46A3.59,3.59,0,0,0,164.25,38a21.43,21.43,0,0,1-3-1.4L164,28.81a6.21,6.21,0,0,1,1.29-2.39A10,10,0,0,0,164.71,27.78Z" transform="translate(-56 -23)"/><g class="cls-14"><path d="M129.79,81.63a1.66,1.66,0,0,0,2-.23,1.71,1.71,0,0,0-.46-2.16c-.59-.56-1.37-.89-1.94-1.46-1.14-1.13-1.26-2.93-2-4.36a24.12,24.12,0,0,1-1.72-2.93c-.59-1.75.18-3.65,1-5.33.91-2,1.94-4.14,3.87-5.19.65-.35,1.38-.56,2-.88a11,11,0,0,0,4.55-4.37c.69-1.42-.28-2.8-1.42-3.73.56.36,1.1.74,1.63,1.15,1.21.94,2.3,2.38,1.57,3.87a11,11,0,0,1-4.55,4.36c-.66.31-1.39.53-2,.88-1.93,1-3,3.18-3.87,5.19-.77,1.69-1.55,3.57-1,5.33a23.26,23.26,0,0,0,1.72,2.92c.73,1.44.83,3.24,2,4.37.57.57,1.35.9,1.94,1.46a1.73,1.73,0,0,1,.46,2.16c-.49.64-1.64.51-2.36,0C130.74,82.39,130.29,82,129.79,81.63Z" transform="translate(-56 -23)"/><path d="M110.69,78.83l4.21-3a3.28,3.28,0,0,1,1.1-.6,3.23,3.23,0,0,1,2.44.86l8.82,6.23a2.7,2.7,0,0,0,0-2.29,8.46,8.46,0,0,1,2.1,1.4,2,2,0,0,0-.31-.12,2.74,2.74,0,0,1,0,2.29l-8.82-6.23a3.22,3.22,0,0,0-2.44-.86,3.42,3.42,0,0,0-1.11.6l-4.2,3c-.7.51-1.61,1-2.37.61a1.39,1.39,0,0,1-.66-1.21A4.4,4.4,0,0,0,110.69,78.83Z" transform="translate(-56 -23)"/></g><path class="cls-12" d="M215.73,99.4s-18,1.45-21.63-1.11l16.51-2.54Z" transform="translate(-56 -23)"/><path class="cls-4" d="M215.73,99.4s-18,1.45-21.63-1.11l16.51-2.54Z" transform="translate(-56 -23)"/><path class="cls-12" d="M215.73,99.4l-5-3.2s-15.08,4.34-19.21,2.55l4.2-5.9,14.94,2.91Z" transform="translate(-56 -23)"/><path class="cls-9" d="M193.31,57A8.84,8.84,0,0,0,192,59.3c-.14.44-.21.91-.34,1.36a10.52,10.52,0,0,1-1.57,3.12c-1.55,2.26-3.49,4.44-3.88,7.15a11.85,11.85,0,0,0,.28,4,10.59,10.59,0,0,0,.74,2.54c.4.87,1,1.63,1.45,2.46a17.79,17.79,0,0,1,1.06,2.55A13.06,13.06,0,0,0,191,80.61a2.46,2.46,0,0,1,1.84-1.21c.87,0,1.59.72,2.46.84a.79.79,0,0,0,.4,0c.32-.15.34-.57.32-.91-.25-2.38-1.61-4.73-1-7,.59-2.13,2.71-3.47,3.82-5.38a12.22,12.22,0,0,0,1.26-4.62,28.41,28.41,0,0,0,.42-5.74c-.06-1-.83-7.08-2.23-6.44-.49.22-.92,1.16-1.22,1.57l-1.26,1.79Z" transform="translate(-56 -23)"/><polygon class="cls-12" points="99.61 73.39 89.48 81.64 76.45 79.31 85.22 72.41 99.61 73.39"/><polygon class="cls-4" points="99.98 72.87 89.85 81.12 76.81 78.79 85.59 71.9 99.98 72.87"/><polygon class="cls-12" points="99.91 72.44 89.78 80.68 76.74 78.35 85.52 71.46 99.91 72.44"/><polygon class="cls-4" points="100.2 71.48 90.06 79.73 77.03 77.4 85.81 70.51 100.2 71.48"/><polygon class="cls-12" points="100.12 71.04 89.99 79.29 76.96 76.96 85.73 70.07 100.12 71.04"/><path class="cls-9" d="M289.4,206.74h0a1.64,1.64,0,0,1,2.18.76,1.67,1.67,0,0,1,.16.58l.56,7.31L289,216l-1.77-5.29Z" transform="translate(-56 -23)"/><path class="cls-9" d="M172.38,157.75l-51.19,26a3.56,3.56,0,0,0-1.55,4.79,3.61,3.61,0,0,0,1.58,1.56l110.24,55.33a13.38,13.38,0,0,0,12.58-.32l46.43-26.18a3.56,3.56,0,0,0-.21-6.3L175.53,157.72A3.56,3.56,0,0,0,172.38,157.75Z" transform="translate(-56 -23)"/><path class="cls-9" d="M120.85,179.21l-1.6,1.19-.13,5.7a2.38,2.38,0,0,0,1.29,2.16L232.53,245.8a1.67,1.67,0,0,0,2.25-.72,1.72,1.72,0,0,0,.19-.77V236Z" transform="translate(-56 -23)"/><path class="cls-12" d="M172.38,151.14l-51.19,26a3.56,3.56,0,0,0,0,6.35L231.46,238.8a13.41,13.41,0,0,0,12.58-.32l46.43-26.18a3.56,3.56,0,0,0,1.33-4.86,3.46,3.46,0,0,0-1.54-1.44L175.53,151.1A3.59,3.59,0,0,0,172.38,151.14Z" transform="translate(-56 -23)"/><polygon class="cls-9" points="126.98 132.86 70.58 161.49 167.51 209.96 225.67 180.44 126.98 132.86"/><ellipse class="cls-9" cx="202.98" cy="197.63" rx="5.95" ry="3.52"/><circle class="cls-9" cx="94.48" cy="142" r="0.55"/><circle class="cls-9" cx="92.83" cy="146.3" r="0.66"/><line class="cls-15" x1="95.25" y1="145.19" x2="101.86" y2="142.11"/><path class="cls-2" d="M191.15,193.3l18.66-10.77a5.67,5.67,0,0,1,7.75,2.07h0a5.69,5.69,0,0,1-2.08,7.75l-18.66,10.77a5.66,5.66,0,0,1-7.74-2.07h0A5.67,5.67,0,0,1,191.15,193.3Z" transform="translate(-56 -23)"/><path class="cls-2" d="M207.84,201.81,226.5,191a5.69,5.69,0,0,1,7.75,2.08h0a5.67,5.67,0,0,1-2.08,7.74l-18.66,10.78a5.67,5.67,0,0,1-7.74-2.08h0A5.66,5.66,0,0,1,207.84,201.81Z" transform="translate(-56 -23)"/><path class="cls-2" d="M176,183.54l18.67-10.77a5.66,5.66,0,0,1,7.74,2.07h0a5.66,5.66,0,0,1-2.08,7.74L181.7,193.36a5.66,5.66,0,0,1-7.74-2.08h0A5.66,5.66,0,0,1,176,183.54Z" transform="translate(-56 -23)"/></svg>