<svg id="Layer_1" data-name="Layer 1" xmlns="http://www.w3.org/2000/svg" xmlns:xlink="http://www.w3.org/1999/xlink" viewBox="0 0 443.44 323"><defs><style>.cls-1{fill:#a4c639;}.cls-2{fill:none;stroke:#a4c639;stroke-linecap:round;stroke-linejoin:round;stroke-width:3px;}.cls-3{fill:#fff;}.cls-4{fill:#474747;}.cls-5{font-size:66px;font-family:Montserrat-ExtraBold, Montserrat;font-weight:800;}.cls-5,.cls-7{fill:#fcfafa;}.cls-6{letter-spacing:-0.01em;}.cls-7{font-size:24px;font-family:Montserrat-Regular, Montserrat;}</style></defs><title>what-2</title><image width="850" height="477" transform="translate(171) scale(0.32)" xlink:href="../../../../../../../Downloads/ios-app%20(1).png"/><path class="cls-1" d="M173,163.67a11.7,11.7,0,0,1,11.71,11.7v50.21a11.71,11.71,0,0,1-23.41,0V175.37a11.7,11.7,0,0,1,11.7-11.7Z" transform="translate(0 23)"/><path class="cls-1" d="M146.23,103.3c0,.45-.07.89-.07,1.35v76.07a14.62,14.62,0,0,0,14.51,14.77H238a14.62,14.62,0,0,0,14.52-14.77V104.65q0-.69-.06-1.35Z" transform="translate(0 23)"/><path class="cls-1" d="M225.76,163.67a11.7,11.7,0,0,1,11.7,11.7v50.21a11.71,11.71,0,0,1-23.41,0V175.37a11.7,11.7,0,0,1,11.71-11.7Zm-98.41-53.6a11.71,11.71,0,0,1,11.71,11.71V172a11.71,11.71,0,0,1-23.41,0V121.78a11.7,11.7,0,0,1,11.7-11.71Zm144,0a11.7,11.7,0,0,1,11.7,11.71V172a11.71,11.71,0,0,1-23.41,0V121.78a11.71,11.71,0,0,1,11.71-11.71ZM146.57,98.3c.33-23.36,20.72-42.52,46.9-45h11.77c26.18,2.52,46.57,21.68,46.89,45Z" transform="translate(0 23)"/><path class="cls-2" d="M150.64,51,163,72.39M248.07,51,235.72,72.39" transform="translate(0 23)"/><path class="cls-3" d="M183.63,77.36a6.06,6.06,0,0,1-12.11,0v0a6.06,6.06,0,0,1,12.11,0Zm45.2,0a6.06,6.06,0,0,1-12.11,0v0a6.06,6.06,0,0,1,12.11,0Z" transform="translate(0 23)"/><image width="2400" height="2410" transform="translate(0 167) scale(0.06)" xlink:href="../../../../../../../Downloads/microsoft-windows-22-logo-png-transparent.png"/><rect class="cls-4" x="70.5" y="154" width="287.5" height="106"/><text class="cls-5" transform="translate(93.81 216.65)">Nati<tspan class="cls-6" x="144.8" y="0">v</tspan><tspan x="184.73" y="0">e</tspan></text><text class="cls-7" transform="translate(132.81 241.49)">Applications</text></svg>