<svg id="Layer_1" data-name="Layer 1" xmlns="http://www.w3.org/2000/svg" viewBox="0 0 375 274.75"><defs><style>.cls-1{fill:#e6e6e6;}.cls-2{fill:#3f3d56;}.cls-3{fill:#fff;}.cls-4{fill:#6c63ff;}.cls-5{fill:#2f2e41;}.cls-6{fill:#fbbebe;}</style></defs><title>what-7</title><polygon class="cls-1" points="197.24 272.42 194.1 272.42 195.15 211.11 196.19 211.11 197.24 272.42"/><path class="cls-1" d="M218.71,176.29l5-7.8a118,118,0,0,0-5.18-12.14L215.31,159l2.59-4c-2.47-4.85-4.41-7.91-4.41-7.91S203.36,163.05,200,180l6.49,10-7.18-5.8a45.35,45.35,0,0,0-.39,5.94c0,20,6.54,36.25,14.6,36.25s14.61-16.23,14.61-36.25a62.58,62.58,0,0,0-3.34-18.71Z" transform="translate(-19 -3.84)"/><polygon class="cls-1" points="117.83 272.42 114.69 272.42 115.74 211.11 116.78 211.11 117.83 272.42"/><path class="cls-1" d="M140.48,176.29l5.05-7.8a118,118,0,0,0-5.18-12.14L137.08,159l2.59-4c-2.47-4.85-4.41-7.91-4.41-7.91s-10.13,16-13.52,32.88l6.49,10-7.18-5.8a47.16,47.16,0,0,0-.4,5.94c0,20,6.54,36.25,14.61,36.25s14.61-16.23,14.61-36.25a62.58,62.58,0,0,0-3.34-18.71Z" transform="translate(-19 -3.84)"/><polygon class="cls-1" points="156.79 272.24 150.52 272.24 152.61 146.12 154.7 146.12 156.79 272.24"/><path class="cls-1" d="M181.24,70.45l10.42-16.1a241.74,241.74,0,0,0-10.69-25l-6.73,5.44,5.33-8.24c-5.08-10-9.08-16.31-9.08-16.31S149.59,43.14,142.61,78L156,98.67l-14.8-12A96.43,96.43,0,0,0,140.37,99c0,41.28,13.48,74.75,30.12,74.75S200.61,140.24,200.61,99c0-12.8-2.9-26.19-6.89-38.58Z" transform="translate(-19 -3.84)"/><circle class="cls-1" cx="126.35" cy="28.91" r="28.91"/><rect class="cls-2" y="272.06" width="375" height="0.95"/><path class="cls-2" d="M356.51,127.33a1.19,1.19,0,0,0,1.2-1.19h0V113.43a1.18,1.18,0,0,0-1.17-1.19,1.16,1.16,0,0,0-.42.07V97.94a4,4,0,0,0-4-4H222.27a4,4,0,0,0-4,4h0V272.3a4,4,0,0,0,4,4H352.14a4,4,0,0,0,4-4V145.13a1.17,1.17,0,0,0,1.51-.7,1.2,1.2,0,0,0,.08-.42V131.3a1.19,1.19,0,0,0-1.17-1.19,1.16,1.16,0,0,0-.42.07v-2.92A1.28,1.28,0,0,0,356.51,127.33Z" transform="translate(-19 -3.84)"/><path class="cls-3" d="M344.2,101.71a4,4,0,0,1,4,4h0V264.55a4,4,0,0,1-4,4h-114a4,4,0,0,1-4-4V105.68a4,4,0,0,1,4-4h114" transform="translate(-19 -3.84)"/><circle class="cls-3" cx="268.21" cy="94.1" r="1.59"/><rect class="cls-4" x="217.75" y="118.71" width="97.62" height="9.7"/><rect class="cls-1" x="217.75" y="141.56" width="97.62" height="3.67"/><rect class="cls-1" x="217.75" y="152.78" width="97.62" height="3.67"/><rect class="cls-1" x="217.75" y="164.14" width="50.44" height="3.67"/><rect class="cls-1" x="217.75" y="175.7" width="97.62" height="3.67"/><rect class="cls-1" x="217.75" y="187.26" width="97.62" height="3.67"/><rect class="cls-1" x="217.75" y="198.81" width="48.75" height="3.67"/><rect class="cls-1" x="217.75" y="210.37" width="97.62" height="3.67"/><rect class="cls-1" x="217.75" y="221.93" width="97.62" height="3.67"/><rect class="cls-4" x="284.66" y="236.11" width="30.83" height="10.14"/><path class="cls-2" d="M132.15,158.44h-.69V135.3A13.45,13.45,0,0,0,118,121.86H68.74A13.45,13.45,0,0,0,55.29,135.3h0V262.82a13.45,13.45,0,0,0,13.45,13.45H118a13.45,13.45,0,0,0,13.45-13.45V174.87h.69Z" transform="translate(-19 -3.84)"/><path class="cls-3" d="M128.45,134.38V262.52a10,10,0,0,1-10,10.05H69a10,10,0,0,1-10-10.05V134.38a9,9,0,0,1,9-9h7a4.9,4.9,0,0,0,.21,4.1,4.78,4.78,0,0,0,3.92,2.38h28.72a4.77,4.77,0,0,0,3.92-2.38,4.86,4.86,0,0,0,.21-4.1h7.4A9,9,0,0,1,128.45,134.38Z" transform="translate(-19 -3.84)"/><path class="cls-5" d="M185.65,99.6s-5.24-1.87-8.6,5.61a147.3,147.3,0,0,1-8.61,15.72l3,.74s.74-5.23,2.61-6l-.74,6.73s22.44,7.86,32.54-.75l-.37-2.61s1.5.37,1.5,2.61l1.12-1.12a20.16,20.16,0,0,0-4.49-5.24c-2.21-2-3-5.7-3.23-8a9.8,9.8,0,0,0-2.24-5.3C195.9,99.39,191.82,96.63,185.65,99.6Z" transform="translate(-19 -3.84)"/><polygon class="cls-6" points="135.89 159.95 140.79 166.18 143.91 162.62 141.24 158.16 135.89 159.95"/><polygon class="cls-6" points="134.11 255.67 132.33 265.02 136.78 267.25 139.9 265.02 139.9 255.67 134.11 255.67"/><polygon class="cls-6" points="165.28 255.67 167.06 265.02 162.61 267.25 159.49 265.02 159.49 255.67 165.28 255.67"/><polygon class="cls-5" points="147.02 171.52 140.79 216.04 131.89 256.56 142.57 257.9 151.03 220.05 161.72 188 160.38 226.29 158.16 257.9 166.17 257.9 171.96 215.16 178.36 183.38 178.19 171.52 147.02 171.52"/><path class="cls-5" d="M154.45,268s-2.23-2.67-3.56-1.33-4.46,6.67-4.46,6.67-7.12,4-1.33,4.9,7.57,0,7.57-.44a6.45,6.45,0,0,1,.89-1.78l2.22.44,3.12-.89s1.34-8.2,0-7.89S154.89,269.31,154.45,268Z" transform="translate(-19 -3.84)"/><path class="cls-5" d="M182.94,268s2.23-2.67,3.56-1.33,4.46,6.67,4.46,6.67,7.12,4,1.33,4.9-7.57,0-7.57-.44a6.45,6.45,0,0,0-.89-1.78l-2.22.44-3.12-.89s-1.34-8.2,0-7.89S182.5,269.31,182.94,268Z" transform="translate(-19 -3.84)"/><circle class="cls-6" cx="168.17" cy="109.86" r="8.9"/><path class="cls-6" d="M193.18,119.26s-.89,7.57-.44,9.35,1.33,4.46,1.33,4.46l-14.24-2.68s4-8.46,3.11-9.79S193.18,119.26,193.18,119.26Z" transform="translate(-19 -3.84)"/><path class="cls-4" d="M194.52,130l-14.69-3.12-8.46,51.65a19.29,19.29,0,0,1,11.57.44c6.24,2.23,14.7,0,14.7,0l-1.79-48.53Z" transform="translate(-19 -3.84)"/><path class="cls-5" d="M182.82,122.74l-5.22,2.76-6.68,1.33-7.12,16.92.89,12s-7.57,13.8-8.46,21.37c0,0,.89,11.58,15.58,11.13l9.8-27.15s4-20.49,0-26.27C181.61,134.85,184.48,124,182.82,122.74Z" transform="translate(-19 -3.84)"/><path class="cls-5" d="M173.59,126.83l-1.44-.24-1.23.24a14.44,14.44,0,0,0-6.68,3.56c-3.56,3.12-15.58,12.92-16.47,15.59a14.92,14.92,0,0,0,.89,9.79,52.84,52.84,0,0,0,4,6.24l1.33,3.11,7.57-2.22s-4.9-9.35-4.45-13.36l8.9-7.12Z" transform="translate(-19 -3.84)"/><path class="cls-5" d="M192.69,124.75l6.73,8.32,3.56,4.45-4.45,15.14-2.23,12.91s5.34,20.48.89,26.71c0,0-2.67,3.12-3.56-.44s-.89-20.48-.89-20.48-3.56-22.27-1.78-28.05S190.86,125.79,192.69,124.75Z" transform="translate(-19 -3.84)"/><path class="cls-6" d="M199,189.16v4.46s-.89,14.69,3.56,12.91,1.34-12.91,1.34-12.91l-.45-4.9Z" transform="translate(-19 -3.84)"/><path class="cls-5" d="M177.25,114.17a26.3,26.3,0,0,0,7.94-8.63s6.21,6.91,10,7.25.34-8.28.34-8.28l-6.9-1.73-6.56.69-5.18,3.45Z" transform="translate(-19 -3.84)"/><polygon class="cls-5" points="180.42 132.34 183.98 133.68 184.42 138.13 186.2 165.29 185.31 185.77 178.63 186.22 176.41 163.51 175.52 138.57 180.42 132.34"/><rect class="cls-4" x="47.57" y="157.81" width="54.12" height="5.38"/><rect class="cls-1" x="47.57" y="170.48" width="54.12" height="2.04"/><rect class="cls-1" x="47.57" y="176.69" width="54.12" height="2.04"/><rect class="cls-1" x="47.57" y="182.99" width="27.96" height="2.04"/><rect class="cls-1" x="47.57" y="189.4" width="54.12" height="2.04"/><rect class="cls-1" x="47.57" y="195.81" width="54.12" height="2.04"/><rect class="cls-1" x="47.57" y="202.21" width="27.03" height="2.04"/><rect class="cls-1" x="47.57" y="208.62" width="54.12" height="2.04"/><rect class="cls-1" x="47.57" y="215.03" width="54.12" height="2.04"/><rect class="cls-4" x="84.66" y="222.89" width="17.09" height="5.62"/></svg>