<svg id="Layer_1" data-name="Layer 1" xmlns="http://www.w3.org/2000/svg" xmlns:xlink="http://www.w3.org/1999/xlink" viewBox="0 0 318.72 261.36"><defs><style>.cls-1{fill:#f2f2f2;}.cls-2{fill:none;stroke:#3f3d56;stroke-miterlimit:10;}.cls-3{fill:#6c63ff;}.cls-4{fill:#fff;}.cls-5{fill:url(#linear-gradient);}.cls-6{fill:#575a89;}.cls-7{fill:#cbceda;}.cls-12,.cls-8{opacity:0.1;}.cls-11,.cls-15,.cls-8{isolation:isolate;}.cls-9{fill:#fbbebe;}.cls-10{fill:#3f3d56;}.cls-11{opacity:0.05;}.cls-13{fill:#57b894;}.cls-14{fill:#656380;}.cls-15{opacity:0.2;}</style><linearGradient id="linear-gradient" x1="422.03" y1="-22.87" x2="422.03" y2="-22.73" gradientTransform="translate(541.49 253.22) rotate(180)" gradientUnits="userSpaceOnUse"><stop offset="0" stop-color="gray" stop-opacity="0.25"/><stop offset="0.54" stop-color="gray" stop-opacity="0.12"/><stop offset="1" stop-color="gray" stop-opacity="0.1"/></linearGradient></defs><title>what-6</title><path class="cls-1" d="M252.57,52.66V251.22a8.92,8.92,0,0,1-8.93,8.91H163a8.92,8.92,0,0,1-8.92-8.91V52.66A8.92,8.92,0,0,1,163,43.74H175.1v1.55a7.34,7.34,0,0,0,7.34,7.34h41a7.34,7.34,0,0,0,7.34-7.34h0V43.74h12.86a8.92,8.92,0,0,1,8.93,8.92Z" transform="translate(-48.78 -26.57)"/><path class="cls-2" d="M264.71,83.72h.8a.75.75,0,0,1,.75.74h0v26.19a.75.75,0,0,1-.75.74h-.8" transform="translate(-48.78 -26.57)"/><path class="cls-2" d="M152.38,71.15h-.58a.48.48,0,0,1-.48-.49V62.53a.48.48,0,0,1,.48-.49h.58" transform="translate(-48.78 -26.57)"/><path class="cls-2" d="M152.29,94.58h-.49a.55.55,0,0,1-.55-.56V79.27a.55.55,0,0,1,.55-.55h.58" transform="translate(-48.78 -26.57)"/><path class="cls-2" d="M152.29,116.12h-.48a.53.53,0,0,1-.53-.53V100.65a.53.53,0,0,1,.53-.53h.48" transform="translate(-48.78 -26.57)"/><rect class="cls-2" x="103.6" y="5.36" width="112.33" height="228.29" rx="11.62"/><rect class="cls-1" x="148.28" y="13.15" width="15.69" height="3.19" rx="0.83"/><circle class="cls-1" cx="168.15" cy="14.75" r="1.81"/><rect class="cls-2" x="148.93" y="12.18" width="15.69" height="3.19" rx="0.83"/><circle class="cls-2" cx="168.8" cy="13.77" r="1.81"/><path class="cls-2" d="M257.77,46.8V245.36a8.91,8.91,0,0,1-8.92,8.91H168.24a8.91,8.91,0,0,1-8.92-8.91V46.8a8.92,8.92,0,0,1,8.92-8.92H180.3v1.55a7.35,7.35,0,0,0,7.35,7.34h41A7.34,7.34,0,0,0,236,39.43h0V37.88h12.86a8.92,8.92,0,0,1,8.92,8.92Z" transform="translate(-48.78 -26.57)"/><rect class="cls-2" x="113.36" y="30.28" width="10.09" height="1.3"/><rect class="cls-2" x="113.36" y="32.56" width="10.09" height="1.3"/><rect class="cls-2" x="113.36" y="34.84" width="10.09" height="1.3"/><path class="cls-2" d="M253.16,60.11h-.3l-.11-.09a2.48,2.48,0,0,0,.58-1.6,2.42,2.42,0,1,0-2.41,2.44,2.57,2.57,0,0,0,1.59-.58l.11.09v.3l1.87,1.87.56-.56Zm-2.24,0a1.69,1.69,0,1,1,1.68-1.69h0a1.68,1.68,0,0,1-1.66,1.69Z" transform="translate(-48.78 -26.57)"/><path class="cls-1" d="M307.82,81.92a12.67,12.67,0,0,1,12.66-12c.38,0,.76,0,1.14,0a16.85,16.85,0,0,1,29.12,0c.32,0,.64,0,1,0a12.68,12.68,0,0,1,12.66,12" transform="translate(-48.78 -26.57)"/><path class="cls-2" d="M310.46,80.94a12.67,12.67,0,0,1,12.66-12c.38,0,.76,0,1.14,0a16.84,16.84,0,0,1,29.12,0c.32,0,.64,0,1,0a12.68,12.68,0,0,1,12.66,12" transform="translate(-48.78 -26.57)"/><path class="cls-1" d="M274,153.85a12.69,12.69,0,0,1,12.66-12c.38,0,.76,0,1.14.06a16.85,16.85,0,0,1,29.12,0c.31,0,.63,0,1,0a12.69,12.69,0,0,1,12.66,12" transform="translate(-48.78 -26.57)"/><path class="cls-2" d="M276.61,152.88a12.67,12.67,0,0,1,12.66-12c.38,0,.76,0,1.14,0a16.85,16.85,0,0,1,29.12,0c.31,0,.63,0,1,0a12.68,12.68,0,0,1,12.66,12" transform="translate(-48.78 -26.57)"/><path class="cls-1" d="M62.07,48.39a12.68,12.68,0,0,1,12.66-12c.39,0,.77,0,1.14,0a16.84,16.84,0,0,1,29.12,0c.32,0,.64,0,1,0a12.67,12.67,0,0,1,12.66,12" transform="translate(-48.78 -26.57)"/><path class="cls-2" d="M64.71,47.42a12.68,12.68,0,0,1,12.66-12c.39,0,.77,0,1.14.05a16.85,16.85,0,0,1,29.12,0c.32,0,.64,0,1,0a12.67,12.67,0,0,1,12.66,12" transform="translate(-48.78 -26.57)"/><rect class="cls-3" x="113.84" y="63.49" width="77.47" height="42.97" rx="4.08"/><rect class="cls-2" x="118.07" y="55.35" width="77.47" height="42.97" rx="4.08"/><path class="cls-4" d="M193.37,113l6.83,7a1.56,1.56,0,0,0,1.15.46h0a1.54,1.54,0,0,0,1.14-.46l6.83-7a1.5,1.5,0,0,0,.07-2.13.46.46,0,0,0-.07-.07,1.67,1.67,0,0,0-2.3,0L203,115V104.13a1.63,1.63,0,0,0-3.26,0V115l-4-4.23a1.69,1.69,0,0,0-2.31,0,1.5,1.5,0,0,0-.07,2.13l.07.07Z" transform="translate(-48.78 -26.57)"/><rect class="cls-3" x="122.31" y="137.05" width="77.47" height="42.97" rx="4.08"/><rect class="cls-2" x="118.07" y="128.91" width="77.47" height="42.97" rx="4.08"/><path class="cls-4" d="M217.8,186.57a1.51,1.51,0,0,0,.08-2.13l-.08-.07a1.67,1.67,0,0,0-2.3,0l-4.05,4.23V177.69a1.63,1.63,0,0,0-3.26,0V188.6l-4.05-4.23a1.69,1.69,0,0,0-2.31,0,1.51,1.51,0,0,0-.07,2.13l.07.07,6.84,7a1.52,1.52,0,0,0,1.14.46h0a1.52,1.52,0,0,0,1.14-.46l6.83-7Z" transform="translate(-48.78 -26.57)"/><path class="cls-5" d="M119.6,276h0l-.27.14Z" transform="translate(-48.78 -26.57)"/><path class="cls-6" d="M80.78,241.84c-2.44,7,.41,18.41,1.73,23.5a70.19,70.19,0,0,1,1.73,11.19,23.51,23.51,0,0,0,9-.2l-2.14-10.48c1.53-6.21,0-22.79,0-22.79a39.47,39.47,0,0,0,3.76-16.18c.31-9.62,2.68-12.73,2.75-12.82h0c4.89,2.54,11.09,29.81,11.09,29.81-.51,6.61.11,16.79,2.14,22.29A27.74,27.74,0,0,1,112.33,277a3.31,3.31,0,0,0,2.76.53c2.91-.47,6.39-3,6.39-3s-1.11-29.71-1.93-30.83,0-7.53,0-7.53l-1.32-10.38s.2-17.6-1.73-20.66c-1.67-2.63-2.06-7.26-2.13-8.48,0-.19,0-.3,0-.3l-2.94-3.53s-28.49-2.13-30.63,0a6.15,6.15,0,0,0-1,3.22,72.58,72.58,0,0,0,.09,12.15s.85,5.59,2.07,11.29a24.54,24.54,0,0,1,0,10.38A31.14,31.14,0,0,1,80.78,241.84Z" transform="translate(-48.78 -26.57)"/><path class="cls-7" d="M82.56,286.45c1.28,1.68,8.75,1,10,.45.77-.32.72-1.79.51-3.29-.14-1-.33-1.94-.41-2.65a24,24,0,0,1,.61-5.55s-1.68,1.78-2.09,0A2,2,0,0,0,89.76,274a3.81,3.81,0,0,0-2.64.17c-1.32.57-3.53,1.79-3.13,3.45.56,2.33-1.43,5.65-1.43,5.65a2.54,2.54,0,0,0-.37.64A2.46,2.46,0,0,0,82.56,286.45Z" transform="translate(-48.78 -26.57)"/><path class="cls-8" d="M82.56,286.45c1.28,1.68,8.75,1,10,.45.77-.32.72-1.79.51-3.29a8.75,8.75,0,0,1-4.45.48,12.22,12.22,0,0,0-1.6,0,37.55,37.55,0,0,1-4.86-.1A2.46,2.46,0,0,0,82.56,286.45Z" transform="translate(-48.78 -26.57)"/><path class="cls-8" d="M108.66,243.87c-.51,6.61.11,16.79,2.14,22.29A27.74,27.74,0,0,1,112.33,277a3.31,3.31,0,0,0,2.76.53c-.61-4.29-3.22-22.78-4.9-37.39A61.17,61.17,0,0,0,99.35,212.1l-1.78,2C102.46,216.6,108.66,243.87,108.66,243.87Z" transform="translate(-48.78 -26.57)"/><path class="cls-9" d="M85.62,136.93l1.24,6.1,6.08,10.23,7.51-3.2s10.2-10.69,3.79-12.21a5.69,5.69,0,0,1-2.13-.95,4.38,4.38,0,0,1-1.66-3.68,11.21,11.21,0,0,1,1-4.38l-13.13-4.12a20.86,20.86,0,0,1,1,5.32c.1,3.57-1.23,5.33-2.32,6.17A4,4,0,0,1,85.62,136.93Z" transform="translate(-48.78 -26.57)"/><path class="cls-8" d="M88.36,124.72a20.86,20.86,0,0,1,1,5.32,9.6,9.6,0,0,0,.76.81,10.38,10.38,0,0,0,10.38,2.37,11.21,11.21,0,0,1,1-4.38Z" transform="translate(-48.78 -26.57)"/><path class="cls-9" d="M86.86,123a10.34,10.34,0,1,0,0-.08Z" transform="translate(-48.78 -26.57)"/><path class="cls-8" d="M85.62,136.93l1.24,6.1,6.08,10.23,7.51-3.2s10.2-10.69,3.79-12.21a5.69,5.69,0,0,1-2.13-.95c1.16,3.18-3.62,9.8-3.62,9.8-.56.82-1.83.3-1.83.3-3.08-.46-8.75-9.31-9.67-10.79A4,4,0,0,1,85.62,136.93Z" transform="translate(-48.78 -26.57)"/><path class="cls-8" d="M79.74,196.11c1.81.41,11.8,2.63,15.59,2.07,4.18-.61,12.29-1,12.29-1s5.16.28,6.75-.45c0-.19,0-.3,0-.3l-2.94-3.53s-28.49-2.13-30.63,0A6.15,6.15,0,0,0,79.74,196.11Z" transform="translate(-48.78 -26.57)"/><path class="cls-10" d="M98.49,147s5.37-7.43,3.34-10.33l9.07,3.72s5.46-.66,7.43,7.48a14.07,14.07,0,0,1,.34,4.14,12.33,12.33,0,0,0,1.49,6.19c2.24,4.47,1.73,14.75-2.85,15.77s-6.2.51-6.2.51.61,18.62,3.25,20.75-6.74,1.63-6.74,1.63-8.11.41-12.29,1-15.87-2.14-15.87-2.14,1.73-7.83,2.34-12.82,2-15.6,2-15.6L73.46,153.26S71.63,144.76,78,141a71.9,71.9,0,0,1,8.82-4.69s6.44,10.49,9.8,11C96.66,147.31,97.93,147.82,98.49,147Z" transform="translate(-48.78 -26.57)"/><path class="cls-8" d="M110.39,150s.1,3.36-.51,4.68-2.84,8.65-2.84,8.65h5.08s-2.74-2.95-2.54-4.37S110.39,150,110.39,150Z" transform="translate(-48.78 -26.57)"/><path class="cls-9" d="M95.33,175.29s11.24-2.75,12.29-5.09,3.93-7.57,3.93-7.57l-1.19-1.6-5.46,4.29s-6.51,5.19-9.57,5.7S95.33,175.29,95.33,175.29Z" transform="translate(-48.78 -26.57)"/><path class="cls-11" d="M95.33,175.29s11.24-2.75,12.29-5.09,3.93-7.57,3.93-7.57l-1.19-1.6-5.46,4.29s-6.51,5.19-9.57,5.7S95.33,175.29,95.33,175.29Z" transform="translate(-48.78 -26.57)"/><path class="cls-9" d="M85.62,162.06v6.1h1a28.47,28.47,0,0,1,13.83,3.58l1.84,1,.49.27,3.16-7.1-3-2.65-.16,0c-.72.07-3.84.33-5.16-.12s-2.82-1.78-6.52-.83c-1.82.46-3.38,2.51-5.15,1.87Z" transform="translate(-48.78 -26.57)"/><path class="cls-8" d="M75.8,151l-2,2.29v5.55s1.73,17.5,7.23,19.43,15.3-1.12,15.3-1.12,2.53-6.71,1.35-7.12-10.48-2.86-10.48-2.86.14-10.27-1.9-13.32c0,0,1.32-9.56-3.26-9.77S75.8,151,75.8,151Z" transform="translate(-48.78 -26.57)"/><path class="cls-10" d="M75.49,151l-2,2.29v5.55s1.73,17.5,7.22,19.43S96,177.12,96,177.12s2.54-6.71,1.35-7.12-10.47-2.86-10.47-2.86S87,156.87,85,153.82c0,0,1.33-9.56-3.25-9.77S75.49,151,75.49,151Z" transform="translate(-48.78 -26.57)"/><path class="cls-8" d="M89.71,127.45a4,4,0,0,1,.23-2,1.51,1.51,0,0,1,1.61-.93c.87.2,1.25,1.33,2.1,1.61a1.66,1.66,0,0,0,1.85-1,4.86,4.86,0,0,0,.35-2.21c0-.85,0-1.7,0-2.55a4.2,4.2,0,0,1,.6-2.65,4.7,4.7,0,0,1,3.49-1.27,3,3,0,0,1,2,.81,2.57,2.57,0,0,0,2.1.74,1.8,1.8,0,0,0,1.46-1.26,0,0,0,0,1,0,0A10.38,10.38,0,0,0,89,129.31a9.86,9.86,0,0,0,1.1,1.23A26.57,26.57,0,0,1,89.71,127.45Z" transform="translate(-48.78 -26.57)"/><path class="cls-10" d="M104,117.76a1.82,1.82,0,0,0,1.46-1.27c.08-.32.06-.67.16-1,.24-.8,1.09-1.22,1.66-1.82a4.08,4.08,0,0,0,.26-4.68,3.36,3.36,0,0,0-3.25-1.95,24.38,24.38,0,0,1-2.37.79,4.91,4.91,0,0,1-2.27-.74,8.59,8.59,0,0,0-5.63-.5,3.32,3.32,0,0,0-1.54.78c-.3.38-.57.76-.83,1.16-1,1.21-2.65,1.45-4.16,1.72s-3.22.87-3.72,2.33a6,6,0,0,0,.18,3,.88.88,0,0,1,0,.62c-.23.39-.83.23-1.27.32-.86.18-1.08,1.29-1.11,2.17s-.07,2-.08,3a3.46,3.46,0,0,0,.09,1.11,3.9,3.9,0,0,0,.86,1.4l3.36,4c1.49,1.79,3.07,3.87,2.77,6.18a1.43,1.43,0,0,0,1.78-1,4.7,4.7,0,0,0-.11-2.29,28.06,28.06,0,0,1-.54-4,4.17,4.17,0,0,1,.24-2,1.53,1.53,0,0,1,1.61-.94c.87.21,1.25,1.34,2.1,1.61a1.66,1.66,0,0,0,1.85-1,4.88,4.88,0,0,0,.35-2.22v-2.55a4.23,4.23,0,0,1,.6-2.65,4.69,4.69,0,0,1,3.49-1.26,3,3,0,0,1,2,.8A2.58,2.58,0,0,0,104,117.76Z" transform="translate(-48.78 -26.57)"/><path class="cls-8" d="M101.69,149.7l-3.18,13.09S96,162.77,101.69,149.7Z" transform="translate(-48.78 -26.57)"/><path class="cls-8" d="M90.81,147.51s4.17,6.83,2.54,13.9l-.78.06S94,158.2,90.81,147.51Z" transform="translate(-48.78 -26.57)"/><path class="cls-8" d="M88.16,186.18s-5.12-1.7-5.49,2.24C82.67,188.42,83.63,185.72,88.16,186.18Z" transform="translate(-48.78 -26.57)"/><path class="cls-8" d="M103,163.59s1,7.12-.82,10a22.29,22.29,0,0,0,9,1.22l.61-11.19Z" transform="translate(-48.78 -26.57)"/><path class="cls-8" d="M102.27,172.76l.49.27,3.16-7.1-3-2.65h-.16v0C102.86,163.63,103.68,169.74,102.27,172.76Z" transform="translate(-48.78 -26.57)"/><path class="cls-10" d="M103,163.28s1,7.13-.82,10a22.51,22.51,0,0,0,9,1.22l3.56-11.2Z" transform="translate(-48.78 -26.57)"/><path class="cls-7" d="M111.11,284.73a2.31,2.31,0,0,0,2,2c2.76.41,9.42-.81,11.1,0,2.14,1,10.58.3,11-.71a1.61,1.61,0,0,0-.15-1.23,3.21,3.21,0,0,0-1.36-1.46,3.71,3.71,0,0,0-.61-.28c-1.59-.53-4.6-1.65-5.41-2.83,0,0-3.74-3.28-4.81-5.05a2.43,2.43,0,0,0-2-1.22c-.89,0-1.88.41-2.29,2.36,0,0-4.88,2.79-6.2.34,0,0-.21,6-1,7.06h0A1.35,1.35,0,0,0,111.11,284.73Z" transform="translate(-48.78 -26.57)"/><path class="cls-8" d="M111.11,284.73a2.31,2.31,0,0,0,2,2c2.76.41,9.42-.81,11.1,0,2.14,1,10.58.3,11-.71a1.61,1.61,0,0,0-.15-1.23,3.21,3.21,0,0,0-1.36-1.46c-1.38.91-4.43,1.8-11.16.75-6.41-1-9.59.3-11.14-.37h0A1.35,1.35,0,0,0,111.11,284.73Z" transform="translate(-48.78 -26.57)"/><g class="cls-12"><path d="M84,115.74v0a9.79,9.79,0,0,1-.31-2.31,14.58,14.58,0,0,0,.31,1.85A1.1,1.1,0,0,1,84,115.74Z" transform="translate(-48.78 -26.57)"/><path d="M89.94,125.26a2.91,2.91,0,0,0-.25,1.16,3.45,3.45,0,0,1,.25-1.62,1.52,1.52,0,0,1,1.61-.93c.87.2,1.25,1.34,2.1,1.61a1.66,1.66,0,0,0,1.85-1,4.86,4.86,0,0,0,.35-2.21c0-.85,0-1.7,0-2.55a4.23,4.23,0,0,1,.6-2.65,4.7,4.7,0,0,1,3.49-1.27,3,3,0,0,1,2,.81,2.58,2.58,0,0,0,2.1.74,1.79,1.79,0,0,0,1.46-1.26c.08-.33.06-.68.16-1,.24-.8,1.09-1.22,1.66-1.83a3.29,3.29,0,0,0,.86-2.15,3.5,3.5,0,0,1-.86,2.61c-.57.61-1.42,1-1.66,1.82-.1.33-.08.68-.16,1a1.79,1.79,0,0,1-1.46,1.26,2.61,2.61,0,0,1-2.1-.74,3,3,0,0,0-2-.81,4.7,4.7,0,0,0-3.49,1.27,4.2,4.2,0,0,0-.6,2.65c0,.85,0,1.7,0,2.55A4.86,4.86,0,0,1,95.5,125a1.68,1.68,0,0,1-1.85,1c-.85-.28-1.23-1.41-2.1-1.61A1.51,1.51,0,0,0,89.94,125.26Z" transform="translate(-48.78 -26.57)"/><path d="M81.58,122.46a3.9,3.9,0,0,0,.86,1.4l3.36,4c1.42,1.69,2.91,3.66,2.8,5.83-.1-2-1.48-3.8-2.8-5.38l-3.36-4a3.9,3.9,0,0,1-.86-1.4,3.54,3.54,0,0,1-.09-1.12A2.5,2.5,0,0,0,81.58,122.46Z" transform="translate(-48.78 -26.57)"/><path d="M90.35,133.05a2.54,2.54,0,0,0,.1-.55,2.87,2.87,0,0,1-.1,1,1.44,1.44,0,0,1-1.78,1c0-.15,0-.3,0-.45A1.44,1.44,0,0,0,90.35,133.05Z" transform="translate(-48.78 -26.57)"/></g><path class="cls-8" d="M123.51,276.09s-1.06,1.87-4.92.22" transform="translate(-48.78 -26.57)"/><path class="cls-8" d="M91.58,276.21s-3.33,3.92-7.52,1.29" transform="translate(-48.78 -26.57)"/><path class="cls-8" d="M81.9,229.93s2.35,1.47,2.43,2.31-1.21-.61-1.21-.61Z" transform="translate(-48.78 -26.57)"/><path class="cls-8" d="M81,241.18a4.86,4.86,0,0,0,2.89,1.13c1.75.08,1.61,2.37.46,1.68A28.77,28.77,0,0,1,81,241.18Z" transform="translate(-48.78 -26.57)"/><path class="cls-8" d="M80.53,242.65s1.13,5.54,2,4.47" transform="translate(-48.78 -26.57)"/><path class="cls-13" d="M53.46,237.07a6.78,6.78,0,1,0,.91-13l.16,3.49-1.65-3a6.79,6.79,0,0,0-3.47,3.82,6.44,6.44,0,0,0-.39,1.83A6.78,6.78,0,0,0,53.46,237.07Z" transform="translate(-48.78 -26.57)"/><path class="cls-2" d="M61.63,277.51c-.59-3,1.94-5.6,4.43-7.31s5.4-3.38,6.25-6.28c1.23-4.17-2.41-8-5.25-11.28a40.69,40.69,0,0,1-5.38-8A10.84,10.84,0,0,1,60.4,241a12.4,12.4,0,0,1,1-5.44q3-8.81,6.38-17.47" transform="translate(-48.78 -26.57)"/><path class="cls-2" d="M53.74,236.17a6.77,6.77,0,1,0,4.63-12.73,6.67,6.67,0,0,0-3.73-.26l.17,3.48-1.65-3a6.7,6.7,0,0,0-3.47,3.81,6.44,6.44,0,0,0-.39,1.83A6.77,6.77,0,0,0,53.74,236.17Z" transform="translate(-48.78 -26.57)"/><path class="cls-13" d="M60.8,216.9a6.76,6.76,0,0,1,4.87-4.3l.56,3.32,1-3.48a6.77,6.77,0,1,1-6.88,6.67,6.65,6.65,0,0,1,.41-2.21Z" transform="translate(-48.78 -26.57)"/><path class="cls-2" d="M61.17,215.7a6.74,6.74,0,0,1,4.88-4.29l.55,3.31,1-3.48a6.78,6.78,0,1,1-6.88,6.67,7,7,0,0,1,.41-2.21Z" transform="translate(-48.78 -26.57)"/><path class="cls-13" d="M65.87,252.71a6.77,6.77,0,0,0,6-12.05l-.8,2.67L70.51,240h0a6.77,6.77,0,1,0-4.63,12.73Z" transform="translate(-48.78 -26.57)"/><path class="cls-2" d="M66.2,251.5a6.77,6.77,0,0,0,6-12.05l-.79,2.67-.57-3.35h0a6.77,6.77,0,1,0-4.64,12.73Z" transform="translate(-48.78 -26.57)"/><path class="cls-13" d="M58.82,264a6.77,6.77,0,1,0,1.31-5.31l3,4.55L59,260.79A6.67,6.67,0,0,0,58.82,264Z" transform="translate(-48.78 -26.57)"/><path class="cls-2" d="M59.1,263.06a6.77,6.77,0,1,0,1.3-5.3l3,4.54-4.12-2.41A6.67,6.67,0,0,0,59.1,263.06Z" transform="translate(-48.78 -26.57)"/><path class="cls-14" d="M52.22,281.52s6-2.34,7.78-3.62,9.19-2.82,9.64-.76,9,10.23,2.24,10.29-15.69,1.11-17.48,0S52.22,281.52,52.22,281.52Z" transform="translate(-48.78 -26.57)"/><path class="cls-15" d="M72,286.71c-6.75.06-15.68,1.11-17.48,0-1.37-.83-1.92-3.82-2.1-5.2h-.2s.38,4.82,2.18,5.92,10.73,0,17.48,0c1.94,0,2.62-.71,2.58-1.74C74.19,286.31,73.45,286.7,72,286.71Z" transform="translate(-48.78 -26.57)"/><line class="cls-2" x1="16.76" y1="260.59" x2="105.3" y2="260.59"/></svg>