<svg id="Layer_1" data-name="Layer 1" xmlns="http://www.w3.org/2000/svg" xmlns:xlink="http://www.w3.org/1999/xlink" viewBox="0 0 345.4 289.45"><defs><style>.cls-1,.cls-3,.cls-8{fill:#6c63ff;}.cls-1,.cls-14{opacity:0.1;}.cls-1,.cls-11,.cls-14,.cls-8{isolation:isolate;}.cls-2{fill:none;stroke:#535461;stroke-miterlimit:10;stroke-width:2px;}.cls-4{fill:url(#linear-gradient);}.cls-5{fill:#535461;}.cls-6{fill:#f1f1f4;}.cls-7{fill:#fff;}.cls-8{opacity:0.2;}.cls-9{fill:url(#linear-gradient-2);}.cls-10{fill:#575988;}.cls-11{opacity:0.05;}.cls-12{fill:#67647e;}.cls-13{fill:#f7c4a7;}.cls-15{fill:#e6e6f0;}.cls-16{fill:#787c9c;}.cls-17{fill:#b96b6b;}</style><linearGradient id="linear-gradient" x1="294.18" y1="-17.15" x2="294.18" y2="244.73" gradientTransform="matrix(1, 0, 0, -1, -119.47, 254.73)" gradientUnits="userSpaceOnUse"><stop offset="0" stop-color="gray" stop-opacity="0.25"/><stop offset="0.54" stop-color="gray" stop-opacity="0.12"/><stop offset="1" stop-color="gray" stop-opacity="0.1"/></linearGradient><linearGradient id="linear-gradient-2" x1="396.83" y1="-25.69" x2="396.83" y2="172.71" xlink:href="#linear-gradient"/></defs><title>what-1</title><path class="cls-1" d="M67,18.68C54,21,39.1,25.15,33.84,37.89c-4.8,11.64.84,24.76,4.63,36.82a125.27,125.27,0,0,1,5.75,36.76c.1,17.54-3.32,36,3.62,52,7.84,18,27.22,28.39,34,46.82,2.85,7.73,3.19,16.19,4.55,24.36a95.74,95.74,0,0,0,23.31,48.44c8,8.8,18.49,16.19,30.06,16.37,8.79.13,17.08-3.85,25.22-7.34a257.11,257.11,0,0,1,29.13-10.46c4.18-1.22,8.48-2.34,12.8-2,8.32.72,15.26,6.83,23.16,9.7,21.41,7.77,43.54-9.1,66.13-10.88,19.36-1.53,38.81,8.21,57.83,4.14,2.81-.6,5.8-1.69,7.27-4.27,2.43-4.29-.58-10.22,1.58-14.67s8-4.9,11.43-8.29,3.77-9.38,2-14.06-5.22-8.4-8.51-12a515.27,515.27,0,0,1-45-57.34c-13.9-20.56-26.91-44.73-23-69.64,1.35-8.57,4.67-16.68,6.18-25.22s.88-18.22-4.64-24.66c-3.3-3.86-7.93-6.08-12.42-8.2-41.89-19.78-86.78-40-132.14-32.54-7.39,1.22-14.7,3.17-22.17,3.44-10.81.39-21-4.45-31.55-2.88C91.1,14.05,79,16.53,67,18.68Z" transform="translate(-32 -10)"/><path class="cls-2" d="M100.14,71.4S85.36,63.28,81,50.85A25.5,25.5,0,0,0,71.14,38a42.39,42.39,0,0,0-6.92-3.74" transform="translate(-32 -10)"/><path class="cls-3" d="M61.42,26.47c1.4,1.41,2.9,8,2.9,8s-6.6-1.55-8-3a3.59,3.59,0,0,1,5.09-5.06Z" transform="translate(-32 -10)"/><path class="cls-3" d="M73.37,30.08c.41,1.94-1.92,8.3-1.92,8.3s-4.7-4.88-5.1-6.83a3.59,3.59,0,0,1,7-1.48Z" transform="translate(-32 -10)"/><path class="cls-3" d="M86.41,43.57c-.62,1.88-5.84,6.2-5.84,6.2s-1.59-6.59-1-8.47a3.6,3.6,0,0,1,6.83,2.27Z" transform="translate(-32 -10)"/><path class="cls-3" d="M94,56c-.3,2-4.72,7.1-4.72,7.1s-2.68-6.22-2.38-8.18a3.59,3.59,0,1,1,7.15.73c0,.12,0,.23,0,.34Z" transform="translate(-32 -10)"/><path class="cls-3" d="M66.38,44c2,0,7.69-3.68,7.69-3.68s-5.79-3.52-7.78-3.5A3.6,3.6,0,1,0,66.38,44Z" transform="translate(-32 -10)"/><path class="cls-3" d="M75.42,58.4c1.88-.62,6.23-5.82,6.23-5.82s-6.58-1.62-8.46-1a3.59,3.59,0,0,0,2.23,6.83Z" transform="translate(-32 -10)"/><path class="cls-3" d="M86.12,71.21c2-.29,7.13-4.67,7.13-4.67S87,63.82,85.09,64.11a3.59,3.59,0,1,0,.73,7.15l.31-.05Z" transform="translate(-32 -10)"/><path class="cls-2" d="M86.84,121s-14.78-8.11-19.17-20.55a25.54,25.54,0,0,0-9.83-12.82,42.39,42.39,0,0,0-6.92-3.74" transform="translate(-32 -10)"/><path class="cls-3" d="M48.12,76.07c1.4,1.4,2.91,8,2.91,8s-6.6-1.55-8-3a3.59,3.59,0,0,1,5.09-5.06Z" transform="translate(-32 -10)"/><path class="cls-3" d="M60.07,79.67c.41,1.94-1.91,8.3-1.91,8.3s-4.7-4.88-5.11-6.82a3.59,3.59,0,0,1,7-1.48Z" transform="translate(-32 -10)"/><path class="cls-3" d="M73.12,93.16c-.63,1.88-5.85,6.2-5.85,6.2s-1.59-6.58-1-8.47a3.59,3.59,0,1,1,6.82,2.27Z" transform="translate(-32 -10)"/><path class="cls-3" d="M80.7,105.59c-.3,2-4.71,7.1-4.71,7.1s-2.68-6.22-2.39-8.18a3.59,3.59,0,1,1,7.15.73c0,.12,0,.23,0,.35Z" transform="translate(-32 -10)"/><path class="cls-3" d="M53.08,93.56c2,0,7.69-3.68,7.69-3.68S55,86.36,53,86.38a3.6,3.6,0,0,0,.08,7.19Z" transform="translate(-32 -10)"/><path class="cls-3" d="M62.12,108c1.88-.62,6.23-5.81,6.23-5.81s-6.58-1.63-8.46-1a3.59,3.59,0,1,0,2,6.91l.26-.08Z" transform="translate(-32 -10)"/><path class="cls-3" d="M72.83,120.8c2-.28,7.13-4.67,7.13-4.67s-6.21-2.72-8.17-2.43a3.59,3.59,0,1,0,.74,7.15l.3,0Z" transform="translate(-32 -10)"/><path class="cls-4" d="M258.18,10H91.23A15.3,15.3,0,0,0,75.92,25.27h0V256.6a15.29,15.29,0,0,0,15.31,15.28h167a15.3,15.3,0,0,0,15.32-15.27h0V25.27A15.29,15.29,0,0,0,258.18,10Z" transform="translate(-32 -10)"/><rect class="cls-5" x="46.28" y="3.14" width="192.88" height="256.38" rx="7.19"/><rect class="cls-6" x="56.08" y="27.39" width="173.28" height="207.88"/><circle class="cls-7" cx="141.93" cy="14.9" r="2.35"/><circle class="cls-7" cx="141.93" cy="246.98" r="7.06"/><rect class="cls-3" x="76.95" y="54.39" width="33.78" height="33.78" rx="4.26"/><rect class="cls-8" x="174.7" y="54.39" width="33.78" height="33.78" rx="4.26"/><rect class="cls-3" x="125.83" y="54.39" width="33.78" height="33.78" rx="4.26"/><rect class="cls-3" x="76.95" y="114.05" width="33.78" height="33.78" rx="4.26"/><rect class="cls-8" x="174.7" y="114.05" width="33.78" height="33.78" rx="4.26"/><rect class="cls-8" x="125.83" y="114.05" width="33.78" height="33.78" rx="4.26"/><rect class="cls-3" x="76.95" y="173.7" width="33.78" height="33.78" rx="4.26"/><rect class="cls-3" x="174.7" y="173.7" width="33.78" height="33.78" rx="4.26"/><rect class="cls-3" x="125.83" y="173.7" width="33.78" height="33.78" rx="4.26"/><path class="cls-9" d="M315.9,109.87a2.67,2.67,0,0,0-.43-1.08,5.93,5.93,0,0,0-.84-.82c-1.7-1.59-.78-4.47-1.44-6.68-.72-2.37-3.23-4.19-5.42-5.39a4.13,4.13,0,0,0-1.13-.46,9.26,9.26,0,0,0-1.49-.12,7.2,7.2,0,0,1-2.28-.52c-1-.42-2-1.08-3-1.43a1.41,1.41,0,0,0-.64-.09c-1.17-.11-1.21,1.33-2.45,2.17a2,2,0,0,0-1,1.47c0,.85.86,1.4,1.63,1.77s.94.3,1.1.3h.06c.1,0,.22.11.52.43A9.77,9.77,0,0,0,291.57,113c0,.23-.07.47-.1.72a25.82,25.82,0,0,1-2.28,7.43c-1,.2-1.61.36-1.61.36a.59.59,0,0,1,0,.14l-.36.27L285.73,123c-3-4.92-6-11-6.13-15.63,0,0-.36.25-1,.63v-3.26l-.2,0,.2-.36,1.4-2.66a7.11,7.11,0,0,0,.83-3.23c.07-4.17-.07-14.45-2.95-16.15-3.64-2.16-4.36,7.16-6.3,11.94-1.44,3.56-.72,8.72-.28,11.11q0,.24.09.45a27.33,27.33,0,0,0-3.44,1.57c.77.3,1.34,2.7,1.65,4.43,0,.18.07.36.1.52a17.24,17.24,0,0,1-2.23.54l6.24,13.63c-1.33,1.55-4.11,4.25-6.24,2.85-2.91-1.91-11.86-1-11.86-1s-5.12-13.58-4.88-17.65l-.72.36v-3.71a2.7,2.7,0,0,1-.52.3l.19-.34.28-.49a7.22,7.22,0,0,0,.92-3c.3-4.18.74-14.91-2.56-16.25C244.23,85.93,243,97.87,243,97.87l.88,10.81v.24c-1.95.17-3.56.17-3.56.17.5.49.65,3.16.72,4.84v.48a4.39,4.39,0,0,1-2.41-.07L245.2,132s.49,4.32,9,6.21c5,1.13,8.46,2.16,10.48,2.84-3.45,8.19-15.45,37.73-11.93,44.92,0,0,1.88-.72,3.81-1.35.44,6.19,1.22,15.57,2.15,21.59a64.57,64.57,0,0,0-2.05,7.34c0,.12,0,.24-.05.36-.72,5.73-6.54,16.72,2.18,26,0,0,6.06,3.59,6.54,7.88.41,3.61,6.81,12.63,8.84,15.41-1.62,2.78-6.2,10.13-10.29,12.05-5.09,2.39-1,5.73,3.87,5s20.84-12.18,20.84-12.18-.11-7.5-1.62-8.05h0l-1.46-3a10.73,10.73,0,0,0,2.36-.65c6.54-2.63,15.5-7.4,15.5-7.4s.18-5.61-2.36-7.67c-1.3-4-7.33-7.62-7.33-7.62s-4.36-11.23-15-14.34a9.79,9.79,0,0,1-1.66-5.2c.7-1.35,1.18-2.2,1.18-2.2l5.51-13.08a17.64,17.64,0,0,0,3.59-4.43l.24-.44c3.32.39,5.93.78,5.93.78l-.24-11.46c-2.2-23.66,4.59-30.58,4.59-30.58s9.7-11.7,10.66-20.06c.89-7.72-5.64-8.11-6.65-8.12a8.66,8.66,0,0,1,.12-3.44l.12.08a1.33,1.33,0,0,0,.72.3H303a1.43,1.43,0,0,0,.67-.21c2.54-1.33,4.51-3.73,7.29-4.43.58-.14,1.19-.21,1.76-.39a4.91,4.91,0,0,0,2.88-2.7A6.48,6.48,0,0,0,315.9,109.87ZM280.32,236.36c.49,1.67,8.24,7.41,8.24,7.41l.3,2.06a75.23,75.23,0,0,1-6.26,5.3l-2.76-5.69s-4.12-13.14-7.75-14.57c-.67-.26-.89-1.08-.8-2.22,2.37,1.73,8.63,6.37,9,7.72Z" transform="translate(-32 -10)"/><path class="cls-10" d="M265.87,139.57s-16.47,38.12-12.47,46.36c0,0,6.59-2.59,7.55-2.12s10.35-49.18,10.35-49.18Z" transform="translate(-32 -10)"/><path class="cls-11" d="M265.87,139.57s-16.47,38.12-12.47,46.36c0,0,6.59-2.59,7.55-2.12s10.35-49.18,10.35-49.18Z" transform="translate(-32 -10)"/><path class="cls-10" d="M274.82,261s-5.65,10.59-10.59,12.93-1,5.65,3.76,4.95,20.24-12,20.24-12-.11-7.39-1.58-7.93S274.82,261,274.82,261Z" transform="translate(-32 -10)"/><path class="cls-10" d="M289.64,243.82s-8,8-11.53,8.71,3.06,5.41,9.41,2.82,15.06-7.29,15.06-7.29.24-7.55-3.76-8.24S289.64,243.82,289.64,243.82Z" transform="translate(-32 -10)"/><path class="cls-12" d="M256.7,178.4s1.64,28.71,3.76,32.7,10.12,16.24,10.12,16.24,9.18,6.59,9.65,8.23,8,7.3,8,7.3l.47,3.29s12.48-.72,11.77-4.94-7.3-8.23-7.3-8.23-4.23-11.07-14.59-14.12c0,0-3.29-4.71-.47-8.47,0,0,7.06-17.65,11.06-19.77s-1.65-14.34-1.65-14.34Z" transform="translate(-32 -10)"/><path class="cls-11" d="M256.7,178.4s1.64,28.71,3.76,32.7,10.12,16.24,10.12,16.24,9.18,6.59,9.65,8.23,8,7.3,8,7.3l.47,3.29s12.48-.72,11.77-4.94-7.3-8.23-7.3-8.23-4.23-11.07-14.59-14.12c0,0-3.29-4.71-.47-8.47,0,0,7.06-17.65,11.06-19.77s-1.65-14.34-1.65-14.34Z" transform="translate(-32 -10)"/><path class="cls-12" d="M279.76,244.52l7.54,15.77c-1.17,4-12.47,2.59-12.47,2.59s-8.71-11.77-9.18-16-6.35-7.76-6.35-7.76c-8.47-9.18-2.83-20-2.12-25.65a2.58,2.58,0,0,1,.05-.36c.63-3.79,4.44-14.69,7.4-22.85,2-5.49,3.61-9.75,3.61-9.75s15.76.72,19.05,6.35c1.51,2.59.83,5.28-.35,7.44a17.64,17.64,0,0,1-3.47,4.36l-5.36,12.91s-9.41,17.2-5.87,18.61S279.76,244.52,279.76,244.52Z" transform="translate(-32 -10)"/><path class="cls-13" d="M251.65,105a7.06,7.06,0,0,1-.89,3l-.27.48-1.32,2.39h-4.24l-.09-1.11L244,99.1s1.17-11.77,5.18-10.12C252.38,90.3,252,100.87,251.65,105Z" transform="translate(-32 -10)"/><path class="cls-14" d="M250.49,108.47l-1.32,2.39h-4.24l-.09-1.11A16.33,16.33,0,0,0,250.49,108.47Z" transform="translate(-32 -10)"/><path class="cls-15" d="M250.81,108.51v5.41l-8.7,2.35s0-.56,0-1.34c-.05-1.66-.2-4.29-.68-4.77C241.4,110.17,248.46,110.17,250.81,108.51Z" transform="translate(-32 -10)"/><path class="cls-14" d="M250.81,111.68v2.24l-8.7,2.35s0-.56,0-1.34A40.49,40.49,0,0,0,250.81,111.68Z" transform="translate(-32 -10)"/><path class="cls-13" d="M301.6,120.61c-1.72,5,.51,7.19.51,7.19s-21.18,1.41-16-2.35c3-2.2,4.36-7.06,4.95-10.71a36.86,36.86,0,0,0,.47-4.57s16.92-.25,13.41,4.47A22.47,22.47,0,0,0,301.6,120.61Z" transform="translate(-32 -10)"/><path class="cls-14" d="M304.94,114.63c-1.72,2.32-2.28,2.66-2.87,4.33a9.61,9.61,0,0,1-1.6.14c-4,0-8-.83-9.41-4.35a37.22,37.22,0,0,0,.47-4.58S308.45,109.91,304.94,114.63Z" transform="translate(-32 -10)"/><circle class="cls-13" cx="268" cy="100.15" r="9.65"/><path class="cls-10" d="M251.52,111.8s-9.18,4.71-11.77,3.53l6.36,17.41s.47,4.24,8.7,6.11a85.57,85.57,0,0,1,12.24,3.53l15.29-18.12-7.76,2.12s-4,5.65-6.83,3.77-11.52-.94-11.52-.94S251.28,115.8,251.52,111.8Z" transform="translate(-32 -10)"/><path class="cls-11" d="M251.52,111.8s-9.18,4.71-11.77,3.53l6.36,17.41s.47,4.24,8.7,6.11a85.57,85.57,0,0,1,12.24,3.53l15.29-18.12-7.76,2.12s-4,5.65-6.83,3.77-11.52-.94-11.52-.94S251.28,115.8,251.52,111.8Z" transform="translate(-32 -10)"/><path class="cls-14" d="M287.29,122.91s12.44-3.56,13.75,3c0,0-5.75-2.8-14,2.16a19.76,19.76,0,0,0-1.79,1.18,36.43,36.43,0,0,0-14.35,21.86l-5.26,23-.47,6.19s-7.55,1.49-8.94-.75-.47-9.66,1.65-12.13,5.4-13.14,5.4-13.14l2.06-6.18a41.23,41.23,0,0,1,8.06-14.14h0l.49-.6a30.85,30.85,0,0,1,11.48-8.58C286.58,124.35,287.45,123.69,287.29,122.91Z" transform="translate(-32 -10)"/><path class="cls-15" d="M287.29,122.44s12.44-3.56,13.75,3c0,0-5.75-2.8-14,2.16a19.76,19.76,0,0,0-1.79,1.18,36.4,36.4,0,0,0-14.35,21.86l-5.26,23-.47,6.19s-7.55,1.49-8.94-.75-.47-9.66,1.65-12.14,5.41-13.13,5.41-13.13l2.06-6.18a41.18,41.18,0,0,1,8.06-14.13h0l.49-.6a30.85,30.85,0,0,1,11.48-8.58C286.58,123.88,287.45,123.22,287.29,122.44Z" transform="translate(-32 -10)"/><path class="cls-14" d="M256,169.88l.11,4.05,3.29-2.12s5.87-21.35,10-27.17c.49-.69.72-1.71,1.18-1.89l16.82-16.23v-3.78s-8.58,6.36-9.29,7.55c-.3.5-4.81,3-7.55,6.83a85.58,85.58,0,0,0-6.47,11.17L258.44,161Z" transform="translate(-32 -10)"/><path class="cls-16" d="M287.41,122.51v3.65l-17.06,16.35c-.46.17-.69,1.19-1.18,1.88-4.14,5.83-10,27.18-10,27.18l-3.3,2.12-.1-4.06,2.46-8.88L263.88,148a84.45,84.45,0,0,1,6.47-11.17c2.71-3.86,7.23-6.33,7.54-6.83.61-1,7.25-5.87,9.07-7.19Z" transform="translate(-32 -10)"/><path class="cls-14" d="M296.78,99.91c-.74-.36-1.58-.91-1.58-1.74a1.88,1.88,0,0,1,1-1.44c1.34-.92,1.24-2.57,2.79-2.06,1,.36,1.93,1,2.94,1.42a6.72,6.72,0,0,0,2.21.51,8.75,8.75,0,0,1,1.44.12,4.26,4.26,0,0,1,1.08.45,9.46,9.46,0,0,1,4.44,5.54c.64,2.19.57,4.77,2.22,6.35a5.63,5.63,0,0,1,.82.8,2.74,2.74,0,0,1,.41,1.07,6.46,6.46,0,0,1-.32,3.91,4.79,4.79,0,0,1-2.81,2.66c-.55.18-1.14.24-1.71.38-2.7.69-4.62,3.06-7.08,4.37a1.37,1.37,0,0,1-.65.2,1.3,1.3,0,0,1-.69-.29,3.69,3.69,0,0,1-1.72-2.91,5.89,5.89,0,0,1,.63-2.09,20.38,20.38,0,0,0,1.18-3.8,1.75,1.75,0,0,0,0-.91c-.18-.57-.81-.84-1.25-1.25a3.16,3.16,0,0,1-.63-3.18,21.13,21.13,0,0,1,1.44-3.09,2.54,2.54,0,0,0,.28-1c0-1.37-1.86-2.12-2.64-3C297.57,99.65,298.24,100.63,296.78,99.91Z" transform="translate(-32 -10)"/><path class="cls-17" d="M297,99.91c-.74-.36-1.58-.91-1.58-1.74a1.85,1.85,0,0,1,1-1.44c1.34-.92,1.24-2.57,2.78-2.06,1,.36,1.94,1,2.95,1.42a6.72,6.72,0,0,0,2.21.51c.48,0,2.05-.72,2.51-.6a4.11,4.11,0,0,1,1.08.45,9.43,9.43,0,0,1,4.44,5.54c.64,2.19.2,4.92,1.84,6.47.28.27-.1,1.08.13,1.38a2.78,2.78,0,0,1,.41,1.08,6.51,6.51,0,0,1-.32,3.9,4.79,4.79,0,0,1-2.81,2.66c-.56.18-1.14.24-1.71.39-2.7.68-4.62,3-7.08,4.36a1.41,1.41,0,0,1-.66.2,1.29,1.29,0,0,1-.69-.29,3.7,3.7,0,0,1-1.71-2.91,5.89,5.89,0,0,1,.63-2.09,20.29,20.29,0,0,0,1.18-3.79,1.91,1.91,0,0,0,0-.92c-.18-.57-.81-.84-1.25-1.24a3.2,3.2,0,0,1-.62-3.19,20.59,20.59,0,0,1,1.44-3.09,2.5,2.5,0,0,0,.28-1c0-1.38-1.86-2.13-2.65-3C297.8,99.65,298.48,100.63,297,99.91Z" transform="translate(-32 -10)"/><path class="cls-14" d="M287,194.31c-4.31-.51-9.75-1-12.13-.61-3.85.64-9.24-2.79-10.21-3.43,2-5.5,3.62-9.75,3.62-9.75s15.76.72,19,6.35C288.8,189.46,288.12,192.15,287,194.31Z" transform="translate(-32 -10)"/><path class="cls-10" d="M307.53,133.45c-.94,8.24-10.35,19.77-10.35,19.77s-6.6,6.83-4.47,30.12l.23,11.29s-13.89-2.11-18.12-1.41-10.35-3.53-10.35-3.53-2.36-40.71,7.77-49.18A61.13,61.13,0,0,1,276.3,135c2.71-3.29,6.41-7,9.86-7.9a6.4,6.4,0,0,1,1.37-.21s10.59-5.89,13.41-1.42C300.94,125.45,308.47,125.22,307.53,133.45Z" transform="translate(-32 -10)"/><path class="cls-14" d="M264.58,177.34s3.77-1.64,10.12-1.17S292.37,171,292.37,171" transform="translate(-32 -10)"/><path class="cls-11" d="M271.41,229.83s.23.72-2.83,1.65-4,1.88-4,1.88" transform="translate(-32 -10)"/><rect class="cls-3" x="213.27" y="59.3" width="33.78" height="33.78" rx="4.26"/><path class="cls-13" d="M280.75,99.72a7.25,7.25,0,0,1-.81,3.19l-1.36,2.61-.94,1.8-5.88.47s-.12-.49-.28-1.29c-.43-2.35-1.13-7.44.28-11,1.88-4.7,2.59-13.88,6.11-11.76C280.68,85.48,280.81,95.61,280.75,99.72Z" transform="translate(-32 -10)"/><path class="cls-14" d="M278.58,105.45v.07l-.94,1.8-5.88.47s-.12-.49-.28-1.29C273.59,105.7,276.35,105,278.58,105.45Z" transform="translate(-32 -10)"/><path class="cls-15" d="M278.58,105.92v4.25l-8.47,4.47s-.1-.77-.27-1.76c-.31-1.7-.87-4.07-1.61-4.36C268.23,108.51,274.35,105,278.58,105.92Z" transform="translate(-32 -10)"/><path class="cls-11" d="M301.5,144.38a10,10,0,0,1-7.62,2.44c-14.9-1.51-15.3-6.78-15.3-6.78L276.3,135c2.71-3.29,6.41-7,9.86-7.9,2.47,4,4.68,6.85,4.68,6.85s11.06-8.48,14.35-.48C307.1,138.11,304.23,142,301.5,144.38Z" transform="translate(-32 -10)"/><path class="cls-14" d="M278.58,108.51v1.66l-8.47,4.47s-.1-.77-.27-1.76A39.83,39.83,0,0,0,278.58,108.51Z" transform="translate(-32 -10)"/><path class="cls-10" d="M279.52,108.51s-6.35,4.47-11.76,5.41l11.06,24.47s.41,5.27,15.3,6.78a10,10,0,0,0,7.61-2.44c2.73-2.41,5.6-6.27,3.68-10.93-3.3-8-14.36.47-14.36.47S279.76,117.45,279.52,108.51Z" transform="translate(-32 -10)"/><rect class="cls-3" x="284.15" y="256.71" width="56.06" height="5.03" rx="0.96"/><rect class="cls-3" x="278.04" y="251.68" width="56.06" height="5.03" rx="0.96"/><rect class="cls-11" x="278.04" y="251.68" width="56.06" height="5.03" rx="0.96"/></svg>