<svg id="Layer_1" data-name="Layer 1" xmlns="http://www.w3.org/2000/svg" xmlns:xlink="http://www.w3.org/1999/xlink" viewBox="0 0 203.82 295.1"><defs><style>.cls-1{fill:#3f3d56;}.cls-2{fill:#e6e8ec;}.cls-3{fill:#fff;}.cls-4{fill:#6c63ff;}.cls-5{fill:#e0e0e0;}.cls-6{fill:#f55f44;}.cls-7{opacity:0.05;}.cls-10,.cls-7{isolation:isolate;}.cls-8{fill:url(#linear-gradient);}.cls-9{fill:#f5f5f5;}.cls-10{opacity:0.15;}</style><linearGradient id="linear-gradient" x1="-585.28" y1="-2388.67" x2="-585.28" y2="-2368.67" gradientTransform="matrix(0, 1, 1, 0, 2545.79, 844.44)" gradientUnits="userSpaceOnUse"><stop offset="0" stop-color="gray" stop-opacity="0.25"/><stop offset="0.54" stop-color="gray" stop-opacity="0.12"/><stop offset="1" stop-color="gray" stop-opacity="0.1"/></linearGradient></defs><title>what-3</title><path class="cls-1" d="M254.41,135.87v21.6a.75.75,0,0,1-.75.75h-.54V270.74a11.74,11.74,0,0,1-11.74,11.74h-70.3a11.74,11.74,0,0,1-11.74-11.74h0V162.17H159a.53.53,0,0,1-.53-.53v-12.3a.53.53,0,0,1,.53-.53h.39v-4.63H159a.56.56,0,0,1-.56-.56V131.5a.56.56,0,0,1,.56-.56h.39v-6.32h-.4a.49.49,0,0,1-.49-.49h0v-6.62a.5.5,0,0,1,.49-.5h.4V103.62a11.74,11.74,0,0,1,11.74-11.74h70.3a11.73,11.73,0,0,1,11.74,11.74v31.49h.54A.76.76,0,0,1,254.41,135.87Z" transform="translate(-103.18 -2.53)"/><rect class="cls-2" x="94.17" y="95.37" width="13.1" height="2.66" rx="0.84"/><circle class="cls-2" cx="110.76" cy="96.7" r="1.51"/><path class="cls-3" d="M247.5,105.94V271.71a7.45,7.45,0,0,1-7.45,7.45h-67.3a7.45,7.45,0,0,1-7.45-7.43V105.94a7.45,7.45,0,0,1,7.45-7.45h10.08v1.29a6.12,6.12,0,0,0,6.13,6.13h34.23a6.13,6.13,0,0,0,6.13-6.13V98.49h10.73a7.44,7.44,0,0,1,7.45,7.44Z" transform="translate(-103.18 -2.53)"/><path class="cls-4" d="M255.5,138.36a52.66,52.66,0,0,0-5.55-1.18A71.84,71.84,0,0,0,231,137c-2.67.3-5.77.48-8.33,1.39,0,0-20,7.13-31.38,1.43s-35.66-1.43-35.66-1.43v4.59c0,1-.15,2.08-.06,3.06a14.8,14.8,0,0,0,1.16,3.31,22.58,22.58,0,0,1,.83,4.57,30.74,30.74,0,0,0,2.54,8.8,21.22,21.22,0,0,0,4.59,6.7c4,3.74,9.21,4,14.4,3.86,3.71-.1,7.66-.68,10.91-2.59,1-.61,1.77-1.78,2.72-2.35,4.65-2.79,7-8.48,8.15-13.56a8.82,8.82,0,0,1,1.35-3.71,4.27,4.27,0,0,1,4.93-1.1l.14.07c2.42,1.15,2.67,3.88,3.19,6.2a20.63,20.63,0,0,0,3.21,7.25,22.05,22.05,0,0,0,13.23,9.06,31.85,31.85,0,0,0,12.64-.19c3.17-.6,6.06-1.77,7.94-4.5,2.34-3.39,3.48-7.83,4.59-11.74.73-2.56,1.4-5.14,2-7.75l1.43-2.85C255.5,144.8,255.76,138.43,255.5,138.36Zm-60.45,19a17.59,17.59,0,0,1-7.52,9.75,19,19,0,0,1-9,2.21,30.33,30.33,0,0,1-7.29-.73,4.46,4.46,0,0,1-1.12-.37,4.18,4.18,0,0,1-1.18-1.08,24.7,24.7,0,0,1-4.57-9.73,70.14,70.14,0,0,1-1.54-10.71,3,3,0,0,1,.13-1.21c.59-1.77,2.78-2.89,4.48-3.49a22.6,22.6,0,0,1,7.36-1,41.26,41.26,0,0,1,15.93,3.08,22.26,22.26,0,0,1,3.92,2,3.59,3.59,0,0,1,.78.67,3.24,3.24,0,0,1,.49,1.33A18.39,18.39,0,0,1,195.05,157.4Zm52.43-10.73c-.62,6.68-1.35,13.5-5.17,19.22a8.32,8.32,0,0,1-1.94,2.19c-1.31,1-3.29.95-4.86,1.12a27.05,27.05,0,0,1-5.76.06,17.16,17.16,0,0,1-8.56-3.16,18.13,18.13,0,0,1-6.34-9.67c-.82-2.94-1.89-8.71,1.22-10.58a36.43,36.43,0,0,1,13.54-4.35,29.72,29.72,0,0,1,11.55.08,11.89,11.89,0,0,1,5.47,2.78,2.92,2.92,0,0,1,.81,1.14.19.19,0,0,0,0,.08A3.06,3.06,0,0,1,247.48,146.67Z" transform="translate(-103.18 -2.53)"/><ellipse class="cls-5" cx="107.63" cy="229.64" rx="9.52" ry="1.43" transform="translate(-249.1 221.46) rotate(-63.61)"/><ellipse class="cls-5" cx="226.59" cy="288.72" rx="9.52" ry="0.97" transform="translate(-235.94 360.85) rotate(-63.61)"/><rect class="cls-6" x="145.97" y="268.01" width="19.04" height="5.71" transform="translate(-255.56 215.77) rotate(-50.45)"/><rect class="cls-7" x="149.41" y="269.45" width="19.04" height="6.43" transform="translate(-246.05 362.44) rotate(-76.77)"/><rect class="cls-6" x="149.76" y="269.89" width="19.04" height="5.71" transform="translate(-245.86 362.84) rotate(-76.77)"/><rect class="cls-8" x="157.12" y="192.75" width="19.99" height="132.82" transform="translate(-242.49 291.14) rotate(-63.61)"/><path class="cls-9" d="M222.37,297.2c-2.33-1.12-120.68-59.88-119-59,6.56-10,8.46-17.06,8.46-17.06l119,59S226.66,287.47,222.37,297.2Z" transform="translate(-103.18 -2.53)"/><rect class="cls-6" x="155.04" y="252.89" width="19.04" height="10" transform="translate(-242.78 288.15) rotate(-63.61)"/><rect class="cls-7" x="159.7" y="91.05" width="20.24" height="11.64" transform="translate(-95.62 203.41) rotate(-63.61)"/><path class="cls-4" d="M159.81,87.15l-6.92,10.38s2.31,10.67,53.34,10.38S261.3,97.53,261.3,97.53l-9.51-13.84L222.67,63.8Z" transform="translate(-103.18 -2.53)"/><path class="cls-10" d="M159.81,87.15l-6.92,10.38s2.31,10.67,53.34,10.38S261.3,97.53,261.3,97.53l-9.51-13.84L222.67,63.8Z" transform="translate(-103.18 -2.53)"/><polygon class="cls-4" points="203.82 46.13 112.99 86.21 2.28 46.13 103.77 0 153.59 22.97 155.37 23.8 203.82 46.13"/><polygon class="cls-10" points="203.82 46.13 112.99 86.21 2.28 46.13 103.77 0 153.59 22.97 155.37 23.8 203.82 46.13"/><polygon class="cls-9" points="157.25 55.74 155.52 55.84 153.59 22.97 155.37 23.8 157.25 55.74"/><path class="cls-4" d="M161,48.52l-8.07,49s58-18.74,108.41,0l-7.5-51.9S186.05,37.27,161,48.52Z" transform="translate(-103.18 -2.53)"/><ellipse class="cls-9" cx="157.11" cy="59.97" rx="8.36" ry="5.77"/></svg>