<svg id="Layer_1" data-name="Layer 1" xmlns="http://www.w3.org/2000/svg" xmlns:xlink="http://www.w3.org/1999/xlink" viewBox="0 0 331.64 247.11"><defs><style>.cls-1,.cls-3{fill:#666;}.cls-2{fill:#fff;}.cls-3{stroke:#666;stroke-miterlimit:10;stroke-width:2px;}.cls-4{fill:#264de4;}.cls-5{fill:#2965f1;}.cls-6{fill:#ebebeb;}</style></defs><title>why-11</title><path class="cls-1" d="M128.87,118.74H128V89.82c0-9.29-8-16.82-18-16.82H44.17c-9.92,0-18,7.53-18,16.82h0V249.3c0,9.28,8,16.81,18,16.81H110c9.92,0,18-7.53,18-16.81v-110h.92Z" transform="translate(-26.21 -19)"/><path class="cls-2" d="M123.93,88.66V248.92c0,6.94-6,12.56-13.42,12.56H44.57c-7.41,0-13.41-5.62-13.41-12.56V88.66c0-6.25,5.41-11.32,12.09-11.32h9.31a5.76,5.76,0,0,0,.28,5.13,6.48,6.48,0,0,0,5.24,3H96.44a6.51,6.51,0,0,0,5.24-3,5.79,5.79,0,0,0,.28-5.13h9.88C118.51,77.34,123.93,82.41,123.93,88.66Z" transform="translate(-26.21 -19)"/><path class="cls-1" d="M120.79,112H94.69A6.69,6.69,0,0,0,88,118.67v17.78a6.69,6.69,0,0,0,6.67,6.67h26.1a6.69,6.69,0,0,0,6.67-6.67V118.67A6.69,6.69,0,0,0,120.79,112Zm1.11,20a6.69,6.69,0,0,1-6.67,6.66h-15A6.69,6.69,0,0,1,93.56,132v-8.89a6.69,6.69,0,0,1,6.67-6.67h15a6.69,6.69,0,0,1,6.67,6.66Z" transform="translate(-26.21 -19)"/><path class="cls-1" d="M27.44,118.67v17.78a6.69,6.69,0,0,0,6.67,6.67h26.1a6.69,6.69,0,0,0,6.66-6.67V118.67A6.69,6.69,0,0,0,60.21,112H34.11A6.69,6.69,0,0,0,27.44,118.67ZM33,123.11a6.69,6.69,0,0,1,6.67-6.67h15a6.7,6.7,0,0,1,6.67,6.67V132a6.69,6.69,0,0,1-6.67,6.67h-15A6.68,6.68,0,0,1,33,132Z" transform="translate(-26.21 -19)"/><path class="cls-1" d="M87,129.8a16.87,16.87,0,0,0-18.45,0c-1.54,1-3.64,1.19-4.9,0L62,128.27c-1.22-1.13-.53-3.88,1.9-5.46a25.27,25.27,0,0,1,27.56,0c2.45,1.58,3.13,4.33,1.9,5.46l-1.55,1.56C90.6,131,88.5,130.78,87,129.8Z" transform="translate(-26.21 -19)"/><path class="cls-3" d="M149.5,204.57l67.25-20a102.79,102.79,0,0,0,44.7,10.17c52.6,0,95.4-39.19,95.4-87.35S314.05,20,261.45,20,166,59.18,166,107.34c0,24.32,11.16,47.65,30.66,64.15Zm67.37-21.48-.25.07-59.57,17.76,41.85-29.34-.67-.56c-19.6-16.28-30.84-39.49-30.84-63.68,0-47.42,42.19-86,94.06-86s94.06,38.58,94.06,86-42.2,86-94.06,86a101.18,101.18,0,0,1-44.34-10.14Z" transform="translate(-26.21 -19)"/><g id="layer1"><g id="g3013"><polygon id="polygon2989" class="cls-4" points="209.84 88.48 206.19 129.35 189.79 133.9 173.44 129.36 169.79 88.48 209.84 88.48"/><polygon id="polygon2991" class="cls-5" points="203.07 126.75 206.19 91.82 189.81 91.82 189.81 130.42 203.07 126.75"/><polygon id="polygon2993" class="cls-6" points="178.15 106.98 178.6 112 189.81 112 189.81 106.98 178.15 106.98"/><polygon id="polygon2995" class="cls-6" points="189.81 96.84 189.8 96.84 177.24 96.84 177.7 101.85 189.81 101.85 189.81 96.84"/><polygon id="polygon2997" class="cls-6" points="189.81 125.22 189.81 120 189.79 120.01 184.21 118.5 183.85 114.5 181.14 114.5 178.82 114.5 179.52 122.38 189.79 125.23 189.81 125.22"/><path id="path2999" d="M205.42,96.37h6.08v2.54H208v2.54h3.54V104h-6.08Z" transform="translate(-26.21 -19)"/><path id="path3001" d="M212.71,96.37h6.07v2.21h-3.53V99h3.53v5.08h-6.07v-2.32h3.53v-.44h-3.53Z" transform="translate(-26.21 -19)"/><path id="path3003" d="M220,96.37h6.07v2.21h-3.53V99h3.53v5.08H220v-2.32h3.53v-.44H220Z" transform="translate(-26.21 -19)"/><polygon id="polygon3005" class="cls-2" points="195.97 112 195.39 118.5 189.8 120.01 189.8 125.22 200.08 122.38 200.15 121.53 201.33 108.33 201.45 106.98 202.36 96.84 189.8 96.84 189.8 101.85 196.86 101.85 196.41 106.98 189.8 106.98 189.8 112 195.97 112"/></g></g><image width="500" height="500" transform="translate(247.79 84) scale(0.11)" xlink:href="../../../../../../../Downloads/js-logo.png"/><image width="512" height="512" transform="translate(199.79 15) scale(0.13)" xlink:href="../../../../../../../Downloads/PgcSR.png"/></svg>