<svg id="Layer_1" data-name="Layer 1" xmlns="http://www.w3.org/2000/svg" xmlns:xlink="http://www.w3.org/1999/xlink" viewBox="0 0 380.7 291"><defs><style>.cls-1{fill:none;}.cls-2{clip-path:url(#clip-path);}.cls-3{fill:url(#linear-gradient);}.cls-4{fill:url(#linear-gradient-2);}.cls-5{fill:url(#linear-gradient-3);}.cls-6{fill:#fff;}.cls-7{clip-path:url(#clip-path-2);}.cls-8{fill:url(#radial-gradient);}.cls-9{clip-path:url(#clip-path-3);}.cls-10{fill:#777bb3;}.cls-11{fill:#646464;}.cls-12{fill:url(#linear-gradient-4);}.cls-13{fill:url(#linear-gradient-5);}.cls-14{opacity:0.44;isolation:isolate;fill:url(#radial-gradient-2);}</style><clipPath id="clip-path" transform="translate(-13.88 -4)"><path class="cls-1" d="M83.07,228.45l-28-16.15a6.44,6.44,0,0,0-5.86,0l-28,16.15a6.5,6.5,0,0,0-2.93,5.07v32.3a6.46,6.46,0,0,0,2.93,5.08l28,16.15a6.5,6.5,0,0,0,5.86,0l28-16.15A6.31,6.31,0,0,0,86,265.82v-32.3A6.64,6.64,0,0,0,83.07,228.45Z"/></clipPath><linearGradient id="linear-gradient" x1="75.35" y1="32.27" x2="96.78" y2="4.84" gradientTransform="matrix(0.9, 0, 0, -0.9, -16.45, 267.38)" gradientUnits="userSpaceOnUse"><stop offset="0" stop-color="#3b009b"/><stop offset="1" stop-color="#390086"/></linearGradient><linearGradient id="linear-gradient-2" x1="42.39" y1="12.57" x2="65.17" y2="-16.59" gradientTransform="matrix(0.9, 0, 0, -0.9, -16.45, 267.38)" gradientUnits="userSpaceOnUse"><stop offset="0" stop-color="#340084"/><stop offset="1" stop-color="#290064"/></linearGradient><linearGradient id="linear-gradient-3" x1="43.35" y1="57.37" x2="66.67" y2="27.53" gradientTransform="matrix(0.9, 0, 0, -0.9, -16.45, 267.38)" gradientUnits="userSpaceOnUse"><stop offset="0" stop-color="#a47ede"/><stop offset="1" stop-color="#9866d3"/></linearGradient><clipPath id="clip-path-2" transform="translate(-13.88 -4)"><path class="cls-1" d="M213.15,30.53c0,10.79,16.63,19.54,37.15,19.54h0c20.52,0,37.15-8.75,37.15-19.54h0C287.45,19.74,270.82,11,250.3,11h0c-20.52,0-37.15,8.75-37.15,19.54"/></clipPath><radialGradient id="radial-gradient" cx="1.04" cy="301.13" r="0.11" gradientTransform="matrix(453.82, 0, 0, -453.82, -235.32, 136675.45)" gradientUnits="userSpaceOnUse"><stop offset="0" stop-color="#aeb2d5"/><stop offset="0.3" stop-color="#aeb2d5"/><stop offset="0.75" stop-color="#484c89"/><stop offset="1" stop-color="#484c89"/></radialGradient><clipPath id="clip-path-3" transform="translate(-13.88 -4)"><rect class="cls-1" x="211.6" y="8.76" width="77.4" height="43.54"/></clipPath><linearGradient id="linear-gradient-4" x1="520.83" y1="45.49" x2="543.43" y2="26.05" gradientTransform="matrix(0.56, 0, 0, -0.57, -8.96, 166.65)" gradientUnits="userSpaceOnUse"><stop offset="0" stop-color="#5a9fd4"/><stop offset="1" stop-color="#306998"/></linearGradient><linearGradient id="linear-gradient-5" x1="552.16" y1="14.28" x2="544.09" y2="25.7" gradientTransform="matrix(0.56, 0, 0, -0.57, -8.96, 166.65)" gradientUnits="userSpaceOnUse"><stop offset="0" stop-color="#ffd43b"/><stop offset="1" stop-color="#ffe873"/></linearGradient><radialGradient id="radial-gradient-2" cx="-68.86" cy="-52.92" r="6.02" gradientTransform="matrix(0, -0.24, -1.05, 0, 240.35, 150.1)" gradientUnits="userSpaceOnUse"><stop offset="0" stop-color="#b8b8b8" stop-opacity="0.5"/><stop offset="1" stop-color="#7f7f7f" stop-opacity="0"/></radialGradient></defs><title>why-4</title><image width="1200" height="2195" transform="translate(135.12 43) scale(0.08)" xlink:href="../../../../../../../Downloads/1200px-Java_programming_language_logo.svg.png"/><image width="2400" height="2705" transform="translate(318.12 0) scale(0.03)" xlink:href="../../../../../../../Downloads/perl-programming-language-logo-png-transparent.png"/><image width="306" height="344" transform="translate(34.12 20) scale(0.27)" xlink:href="../../../../../../../Downloads/306px-ISO_C++_Logo.svg.png"/><g class="cls-2"><rect class="cls-3" x="37.55" y="226.11" width="39.78" height="40.68"/><polygon class="cls-4" points="77.33 268.25 26.14 238.63 0 238.63 0 287.66 77.33 287.66 77.33 268.25"/><polygon class="cls-5" points="0 267.84 77.33 223.1 77.33 205.44 0 205.44 0 267.84"/></g><path id="c" class="cls-6" d="M29.61,249.67c-.13-22,29.37-31.75,42.09-11.28L61.94,244c-5.89-9.74-20.53-6.26-21,5.64.16,11,14.54,16.06,21,5.64L71.7,261C60.49,280.42,30.18,273.42,29.61,249.67Z" transform="translate(-13.88 -4)"/><g id="sharp"><polygon class="cls-6" points="52.93 239.28 54.79 239.28 53.52 251.54 51.63 251.54 52.93 239.28"/><polygon class="cls-6" points="56.91 239.28 58.77 239.28 57.5 251.54 55.61 251.54 56.91 239.28"/><rect class="cls-6" x="50.85" y="242.19" width="9.3" height="1.8"/><rect class="cls-6" x="50.33" y="246.56" width="9.3" height="1.8"/></g><g id="g3438"><g id="g3440"><g class="cls-7"><g id="g3442"><g id="g3448"><g id="g3450"><path id="path3462" class="cls-8" d="M213.15,30.53c0,10.79,16.63,19.54,37.15,19.54h0c20.52,0,37.15-8.75,37.15-19.54h0C287.45,19.74,270.82,11,250.3,11h0c-20.52,0-37.15,8.75-37.15,19.54" transform="translate(-13.88 -4)"/></g></g></g></g></g><g id="g3464"><g class="cls-9"><g id="g3466"><g id="g3472"><path id="path3474" class="cls-10" d="M250.3,48.62c19.72,0,35.7-8.1,35.7-18.09s-16-18.09-35.7-18.09-35.7,8.1-35.7,18.09,16,18.09,35.7,18.09" transform="translate(-13.88 -4)"/></g></g></g></g><g id="g3476"><g class="cls-9"><g id="g3478"><g id="g3484"><path id="path3486" d="M233.33,32.77a5.94,5.94,0,0,0,3.6-.89,4.81,4.81,0,0,0,1.56-3c.25-1.32.15-2.24-.29-2.73s-1.45-.77-2.95-.77h-2.59l-1.43,7.39Zm-8.47,9.11a.4.4,0,0,1-.31-.15.39.39,0,0,1-.09-.33l3.81-19.59a.4.4,0,0,1,.4-.32h8.2c2.58,0,4.5.7,5.7,2.08s1.59,3.33,1.12,5.76a9.48,9.48,0,0,1-1,2.75,9,9,0,0,1-1.82,2.27,7.85,7.85,0,0,1-3,1.79,13.59,13.59,0,0,1-4.11.53h-3.32l-.95,4.88a.4.4,0,0,1-.39.33Z" transform="translate(-13.88 -4)"/></g><g id="g3488"><path id="path3490" class="cls-6" d="M233,25.79h2.25c1.81,0,2.43.39,2.65.63a2.94,2.94,0,0,1,.19,2.38,4.5,4.5,0,0,1-1.41,2.77,5.58,5.58,0,0,1-3.35.8h-1.61Zm3.87-4.71h-8.2a.82.82,0,0,0-.8.65l-3.8,19.59a.78.78,0,0,0,.17.67.81.81,0,0,0,.62.29h4.27a.81.81,0,0,0,.79-.65l.88-4.56h3a14,14,0,0,0,4.23-.54,8.47,8.47,0,0,0,3.14-1.88,9.38,9.38,0,0,0,2.92-5.24c.5-2.57.1-4.62-1.2-6.11s-3.31-2.22-6-2.22m-6.13,12.1h2.59a6.29,6.29,0,0,0,3.85-1,5.12,5.12,0,0,0,1.7-3.24c.28-1.46.16-2.48-.38-3.08s-1.62-.9-3.25-.9h-2.92l-1.59,8.2m6.13-11.29q3.7,0,5.4,1.94t1,5.43a8.7,8.7,0,0,1-.94,2.62,8.48,8.48,0,0,1-1.74,2.17,7.53,7.53,0,0,1-2.84,1.71,13.05,13.05,0,0,1-4,.51h-3.65l-1,5.2h-4.27l3.81-19.58h8.2" transform="translate(-13.88 -4)"/></g><g id="g3492"><path id="path3494" d="M253.47,36.67a.37.37,0,0,1-.31-.15.39.39,0,0,1-.09-.33l1.69-8.67c.16-.82.12-1.41-.11-1.66s-.57-.41-1.83-.41h-3l-2.12,10.89a.41.41,0,0,1-.4.33H243a.39.39,0,0,1-.31-.15.36.36,0,0,1-.08-.33l3.8-19.59a.41.41,0,0,1,.4-.32h4.23a.37.37,0,0,1,.31.15.39.39,0,0,1,.09.33l-.92,4.73h3.28c2.5,0,4.19.44,5.18,1.34s1.32,2.41.94,4.4l-1.78,9.11a.4.4,0,0,1-.39.33Z" transform="translate(-13.88 -4)"/></g><g id="g3496"><path id="path3498" class="cls-6" d="M251.06,15.88h-4.23a.8.8,0,0,0-.79.65l-3.81,19.58a.81.81,0,0,0,.17.67.78.78,0,0,0,.62.29h4.23a.81.81,0,0,0,.8-.65l2-10.57h2.72c1.26,0,1.52.27,1.53.28s.18.47,0,1.32l-1.68,8.66a.8.8,0,0,0,.79,1h4.3a.8.8,0,0,0,.79-.65l1.77-9.11c.42-2.14.06-3.75-1.05-4.77s-2.85-1.46-5.46-1.46H251l.82-4.24a.77.77,0,0,0-.17-.67.78.78,0,0,0-.62-.29m0,.8-1,5.21h3.77q3.56,0,4.91,1.24t.81,4l-1.77,9.12h-4.3l1.68-8.67a2.38,2.38,0,0,0-.21-2,3,3,0,0,0-2.12-.53h-3.39l-2.18,11.22H243l3.81-19.59h4.23" transform="translate(-13.88 -4)"/></g><g id="g3500"><path id="path3502" d="M266.63,32.77a5.94,5.94,0,0,0,3.6-.89,4.81,4.81,0,0,0,1.56-3c.25-1.32.15-2.24-.29-2.73s-1.45-.77-2.95-.77H266l-1.43,7.39Zm-8.47,9.11a.4.4,0,0,1-.31-.15.39.39,0,0,1-.09-.33l3.81-19.59a.4.4,0,0,1,.4-.32h8.2c2.58,0,4.5.7,5.7,2.08s1.59,3.33,1.12,5.76a9.48,9.48,0,0,1-1,2.75,9,9,0,0,1-1.82,2.27,7.85,7.85,0,0,1-3,1.79,13.59,13.59,0,0,1-4.11.53h-3.32l-.95,4.88a.4.4,0,0,1-.39.33Z" transform="translate(-13.88 -4)"/></g><g id="g3504"><path id="path3506" class="cls-6" d="M266.3,25.79h2.25c1.81,0,2.43.39,2.65.63a2.94,2.94,0,0,1,.19,2.38A4.5,4.5,0,0,1,270,31.57a5.58,5.58,0,0,1-3.35.8H265Zm3.87-4.71H262a.82.82,0,0,0-.8.65l-3.8,19.59a.78.78,0,0,0,.17.67.81.81,0,0,0,.62.29h4.27a.81.81,0,0,0,.79-.65l.88-4.56h3a14,14,0,0,0,4.23-.54,8.47,8.47,0,0,0,3.14-1.88,9.67,9.67,0,0,0,1.89-2.38,9.55,9.55,0,0,0,1-2.86c.5-2.57.1-4.62-1.2-6.11s-3.31-2.22-6-2.22M264,33.18h2.59a6.29,6.29,0,0,0,3.85-1,5.12,5.12,0,0,0,1.7-3.24c.28-1.46.16-2.48-.38-3.08s-1.62-.9-3.25-.9h-2.92L264,33.18m6.13-11.29q3.7,0,5.4,1.94t1,5.43a8.7,8.7,0,0,1-.94,2.62,8.48,8.48,0,0,1-1.74,2.17,7.53,7.53,0,0,1-2.84,1.71,13.05,13.05,0,0,1-4,.51h-3.65l-1,5.2h-4.27L262,21.89h8.2" transform="translate(-13.88 -4)"/></g></g></g></g></g><image width="1138" height="1024" transform="translate(288.46 208) scale(0.08)" xlink:href="../../../../../../../Downloads/1138px-Swift_logo.svg.png"/><path id="path46" class="cls-11" d="M321.7,151.66q0-4.51-2.59-4.65a4.92,4.92,0,0,0-2,.33,2.88,2.88,0,0,0-1.05.56v7.2a5.12,5.12,0,0,0,2.93,1C320.79,155.94,321.7,154.48,321.7,151.66Zm2.12.13a6.45,6.45,0,0,1-1.08,3.82,4,4,0,0,1-3.36,1.76,5.87,5.87,0,0,1-3.32-1v6.55l-1.85-.66V147.72a4,4,0,0,1,1.17-1,8,8,0,0,1,4-1l0,0a3.66,3.66,0,0,1,3.32,1.77A7.45,7.45,0,0,1,323.82,151.79Z" transform="translate(-13.88 -4)"/><path id="path48" class="cls-11" d="M335.1,156.09a10.28,10.28,0,0,1-.61,4.27,4.4,4.4,0,0,1-2.37,1.89,9,9,0,0,1-3.06.61l-.3-1.16a14.72,14.72,0,0,0,2.35-.46,3,3,0,0,0,1.84-1.39,6.74,6.74,0,0,0,.41-2.9v-.48a9.54,9.54,0,0,1-4,.85,3.65,3.65,0,0,1-2.4-.85,2.93,2.93,0,0,1-1.17-2.38V146.4l1.85-.63v7.74a2.38,2.38,0,0,0,.8,1.91,3,3,0,0,0,2.07.64,5.2,5.2,0,0,0,2.72-1v-9h1.84Z" transform="translate(-13.88 -4)"/><path id="path50" class="cls-11" d="M342.31,157.27l-.61,0a3.65,3.65,0,0,1-2.44-.75,2.58,2.58,0,0,1-.87-2.06v-7.28h-1.26v-1.16h1.26V143l1.85-.66v3.74h2.07v1.16h-2.07v7.22a1.74,1.74,0,0,0,.56,1.48,2.79,2.79,0,0,0,1.51.4Z" transform="translate(-13.88 -4)"/><path id="path52" class="cls-11" d="M353.49,157.12h-1.84V150a3.38,3.38,0,0,0-.51-1.87,1.84,1.84,0,0,0-1.63-.88,6,6,0,0,0-3.17,1.34v8.54h-1.85v-17l1.85-.59v7.76a6.43,6.43,0,0,1,3.87-1.29,3.08,3.08,0,0,1,2.37,1,3.46,3.46,0,0,1,.91,2.45v7.71Z" transform="translate(-13.88 -4)"/><path id="path54" class="cls-11" d="M363.31,151.37a5.64,5.64,0,0,0-.66-2.87,2.74,2.74,0,0,0-2.43-1.46q-3,.17-3,4.34a7.24,7.24,0,0,0,.63,3.2,2.57,2.57,0,0,0,2.44,1.61C362.29,156.17,363.31,154.57,363.31,151.37Zm2,0a6.56,6.56,0,0,1-1.27,4.13,4.55,4.55,0,0,1-3.84,1.84,4.47,4.47,0,0,1-3.79-1.84,6.67,6.67,0,0,1-1.24-4.13,5.87,5.87,0,0,1,1.34-3.91,4.6,4.6,0,0,1,3.72-1.7,4.69,4.69,0,0,1,3.74,1.7A5.87,5.87,0,0,1,365.33,151.38Z" transform="translate(-13.88 -4)"/><path id="path56" class="cls-11" d="M375.91,157.12h-1.84v-7.53a2.49,2.49,0,0,0-.75-1.93,2.66,2.66,0,0,0-2-.67,4.39,4.39,0,0,0-2.51.86v9.27H367v-9.5a8.42,8.42,0,0,1,5.16-1.85,5.48,5.48,0,0,1,1.24.13,3.6,3.6,0,0,1,1.76.93,2.49,2.49,0,0,1,.76,1.83Z" transform="translate(-13.88 -4)"/><path id="path1948" class="cls-12" d="M296,140.15a16.55,16.55,0,0,0-2.65.23c-2.35.42-2.78,1.29-2.78,2.89v2.12h5.56v.7h-7.65a3.47,3.47,0,0,0-3.47,2.82,10.43,10.43,0,0,0,0,5.65c.4,1.64,1.34,2.82,3,2.82h1.91v-2.54a3.53,3.53,0,0,1,3.47-3.46h5.55a2.8,2.8,0,0,0,2.78-2.82v-5.29a3.1,3.1,0,0,0-2.78-2.89A17.8,17.8,0,0,0,296,140.15Zm-3,1.71a1.06,1.06,0,1,1-1,1.06A1.05,1.05,0,0,1,293,141.86Z" transform="translate(-13.88 -4)"/><path id="path1950" class="cls-13" d="M302.34,146.09v2.47a3.56,3.56,0,0,1-3.47,3.52h-5.55a2.84,2.84,0,0,0-2.78,2.83v5.29c0,1.51,1.31,2.39,2.78,2.82a9.28,9.28,0,0,0,5.55,0c1.4-.4,2.78-1.22,2.78-2.82v-2.12H296.1v-.7h8.33c1.61,0,2.21-1.13,2.78-2.82a9.59,9.59,0,0,0,0-5.65c-.4-1.61-1.17-2.82-2.78-2.82Zm-3.12,13.4a1.06,1.06,0,1,1-1,1.06A1,1,0,0,1,299.22,159.49Z" transform="translate(-13.88 -4)"/><path id="text3004" class="cls-11" d="M379.51,144.4h.32v-2h.77v-.24h-1.86v.24h.77v2m1.38,0h.27v-1.85l.6,1.85h.31l.63-1.84v1.84h.3v-2.27h-.4l-.68,2-.59-2h-.44v2.27" transform="translate(-13.88 -4)"/><path id="path1894" class="cls-14" d="M303.61,166.62c0,.8-3.34,1.45-7.45,1.45s-7.45-.65-7.45-1.45,3.34-1.44,7.45-1.44S303.61,165.82,303.61,166.62Z" transform="translate(-13.88 -4)"/><image width="1024" height="1024" transform="translate(151.12 244) scale(0.04)" xlink:href="../../../../../../../Downloads/1024px-Ruby_logo.svg.png"/><image width="1200" height="734" transform="translate(18.12 141) scale(0.06)" xlink:href="../../../../../../../Downloads/1200px-Node.js_logo.svg.png"/></svg>