<svg id="Layer_1" data-name="Layer 1" xmlns="http://www.w3.org/2000/svg" viewBox="0 0 286 201"><defs><style>.cls-1{fill:#535353;}</style></defs><title>why-8</title><path class="cls-1" d="M289.6,82V40.53h-9.75V32H206.76v8.53H197v60.91h-9.75v9.74h-13.4v9.75H159.25v8.52h-9.74v9.75H130v-9.75h-9.75v-8.52h-9.74V102.65l-7.92-.6L102,157.47h9.75v9.75h8.52v8.53h11v9.74h8.52v9.75h9.75V233h18.27v-8.53H158v-11h9.74v-9.75h8.53v-8.52h11v8.52h8.53V233h18.27v-8.53h-8.52l-1.22-39h9.74v-9.74h9.75v-13.4h9.74v-32.9h9.75v9.75h8.53V120.93H233.56V101.44h37.77V91.69H242.09V82ZM225,55.15h-9.75V45.4H225Z" transform="translate(-53 -32)"/><rect class="cls-1" x="167" y="169" width="119" height="3"/><rect class="cls-1" y="171" width="80" height="3"/><rect class="cls-1" x="244" y="187" width="32" height="3"/><rect class="cls-1" x="43" y="189" width="21" height="3"/></svg>