<svg id="Layer_1" data-name="Layer 1" xmlns="http://www.w3.org/2000/svg" xmlns:xlink="http://www.w3.org/1999/xlink" viewBox="0 0 386.19 196.11"><defs><style>.cls-1,.cls-2,.cls-4{fill:#666;}.cls-1{stroke:#666;stroke-miterlimit:10;stroke-width:2px;}.cls-3{fill:#fff;}.cls-4{font-size:20px;font-family:Montserrat-Bold, Montserrat;font-weight:700;}.cls-5{letter-spacing:0em;}.cls-6{fill:#a4c639;}.cls-7{fill:none;stroke:#a4c639;stroke-linecap:round;stroke-linejoin:round;stroke-width:3px;}.cls-8{fill:#264de4;}.cls-9{fill:#2965f1;}.cls-10{fill:#ebebeb;}</style></defs><title>why-6</title><line class="cls-1" x1="235.74" y1="103.5" x2="337.24" y2="104.5"/><line class="cls-1" x1="337.24" y1="104.5" x2="337.24" y2="84.5"/><line class="cls-1" x1="140.24" y1="101.5" x2="38.74" y2="100.5"/><line class="cls-1" x1="38.74" y1="100.5" x2="38.74" y2="120.5"/><path class="cls-2" d="M253.47,98.46h-.94V69.08c0-9.43-8.17-17.08-18.24-17.08H167.45c-10.08,0-18.24,7.65-18.24,17.08h0V231c0,9.43,8.16,17.07,18.24,17.07h66.84c10.07,0,18.24-7.64,18.24-17.07V119.33h.94Z" transform="translate(-12.76 -52)"/><path class="cls-3" d="M248.44,67.91V230.65c0,7-6.09,12.76-13.62,12.76h-67c-7.52,0-13.62-5.71-13.62-12.76V67.91c0-6.35,5.5-11.5,12.28-11.5H176a5.84,5.84,0,0,0,.29,5.21,6.52,6.52,0,0,0,5.31,3h39a6.55,6.55,0,0,0,5.32-3,5.9,5.9,0,0,0,.29-5.21h10C243,56.41,248.44,61.56,248.44,67.91Z" transform="translate(-12.76 -52)"/><text class="cls-4" transform="translate(152.46 104.94)">Hyb<tspan class="cls-5" x="41.92" y="0">r</tspan><tspan x="50.46" y="0">id</tspan></text><image width="850" height="477" transform="translate(45.24 133) scale(0.09)" xlink:href="../../../../../../../Downloads/ios-app%20(1).png"/><path class="cls-6" d="M30.63,217.13a3.66,3.66,0,0,1,3.65,3.65v15.66a3.65,3.65,0,0,1-7.3,0V220.78a3.65,3.65,0,0,1,3.65-3.65Z" transform="translate(-12.76 -52)"/><path class="cls-6" d="M22.3,198.31a3,3,0,0,0,0,.42v23.72a4.56,4.56,0,0,0,4.53,4.61H50.92a4.56,4.56,0,0,0,4.53-4.61V198.73c0-.14,0-.28,0-.42Z" transform="translate(-12.76 -52)"/><path class="cls-6" d="M47.09,217.13a3.65,3.65,0,0,1,3.65,3.65v15.66a3.65,3.65,0,1,1-7.3,0V220.78a3.66,3.66,0,0,1,3.65-3.65ZM16.41,200.42a3.64,3.64,0,0,1,3.65,3.65v15.66a3.65,3.65,0,1,1-7.3,0V204.07a3.64,3.64,0,0,1,3.65-3.65Zm44.9,0A3.64,3.64,0,0,1,65,204.07v15.66a3.65,3.65,0,1,1-7.3,0V204.07a3.65,3.65,0,0,1,3.65-3.65ZM22.4,196.75c.1-7.29,6.46-13.26,14.63-14.05H40.7c8.16.79,14.52,6.77,14.62,14.05Z" transform="translate(-12.76 -52)"/><path class="cls-7" d="M23.67,182l3.85,6.67M54.05,182l-3.85,6.67" transform="translate(-12.76 -52)"/><path class="cls-3" d="M34,190.22a1.89,1.89,0,0,1-3.78,0h0a1.89,1.89,0,0,1,3.78,0Zm14.09,0a1.89,1.89,0,0,1-3.77,0h0a1.89,1.89,0,0,1,3.77,0Z" transform="translate(-12.76 -52)"/><g id="layer1"><g id="g3013"><polygon id="polygon2989" class="cls-8" points="313.13 30.76 310.87 56.16 300.67 58.99 290.5 56.17 288.24 30.76 313.13 30.76"/><polygon id="polygon2991" class="cls-9" points="308.92 54.55 310.86 32.84 300.69 32.84 300.69 56.83 308.92 54.55"/><polygon id="polygon2993" class="cls-10" points="293.43 42.26 293.71 45.38 300.69 45.38 300.69 42.26 293.43 42.26"/><polygon id="polygon2995" class="cls-10" points="300.69 35.95 300.68 35.95 292.87 35.95 293.15 39.07 300.69 39.07 300.69 35.95"/><polygon id="polygon2997" class="cls-10" points="300.69 53.6 300.69 50.35 300.67 50.36 297.2 49.42 296.98 46.94 295.29 46.94 293.85 46.94 294.29 51.83 300.67 53.6 300.69 53.6"/><path id="path2999" d="M306.86,75.85h3.77v1.58h-2.19V79h2.19v1.58h-3.77Z" transform="translate(-12.76 -52)"/><path id="path3001" d="M311.39,75.85h3.77v1.38H313v.27h2.19v3.16h-3.77V79.22h2.19v-.28h-2.19Z" transform="translate(-12.76 -52)"/><path id="path3003" d="M315.92,75.85h3.77v1.38H317.5v.27h2.19v3.16h-3.77V79.22h2.19v-.28h-2.19Z" transform="translate(-12.76 -52)"/><polygon id="polygon3005" class="cls-3" points="304.51 45.38 304.15 49.42 300.68 50.36 300.68 53.6 307.06 51.83 307.11 51.3 307.84 43.1 307.92 42.26 308.48 35.95 300.68 35.95 300.68 39.07 305.07 39.07 304.78 42.26 300.68 42.26 300.68 45.38 304.51 45.38"/></g></g><image width="500" height="500" transform="translate(352.37 25.16) scale(0.07)" xlink:href="../../../../../../../Downloads/js-logo.png"/><image width="512" height="512" transform="translate(300.96 0) scale(0.13)" xlink:href="../../../../../../../Downloads/PgcSR.png"/></svg>