<svg id="Layer_1" data-name="Layer 1" xmlns="http://www.w3.org/2000/svg" xmlns:xlink="http://www.w3.org/1999/xlink" viewBox="0 0 394.24 141.33"><defs><style>.cls-1{fill:#a4c639;}.cls-2{fill:none;stroke:#a4c639;stroke-linecap:round;stroke-linejoin:round;stroke-width:3px;}.cls-3{fill:#fff;}.cls-4{fill:#666;}.cls-5{font-size:24px;fill:#fc0000;font-family:Montserrat-ExtraBold, Montserrat;font-weight:800;}</style></defs><title>why-10</title><image width="850" height="477" transform="translate(248.24 37) scale(0.17)" xlink:href="../../../../../../../Downloads/ios-app%20(1).png"/><path class="cls-1" d="M38.7,169.77a6.73,6.73,0,0,1,6.73,6.73v28.86a6.73,6.73,0,1,1-13.46,0V176.5a6.73,6.73,0,0,1,6.73-6.73Z" transform="translate(-5.76 -79)"/><path class="cls-1" d="M23.34,135.07c0,.25,0,.51,0,.77v43.73a8.4,8.4,0,0,0,8.34,8.49H76.11a8.4,8.4,0,0,0,8.35-8.49V135.84c0-.26,0-.52,0-.77Z" transform="translate(-5.76 -79)"/><path class="cls-1" d="M69.06,169.77a6.73,6.73,0,0,1,6.73,6.73v28.86a6.73,6.73,0,0,1-13.46,0V176.5a6.73,6.73,0,0,1,6.73-6.73ZM12.49,139a6.73,6.73,0,0,1,6.73,6.73v28.86a6.73,6.73,0,0,1-13.46,0V145.69A6.73,6.73,0,0,1,12.49,139Zm82.78,0a6.73,6.73,0,0,1,6.73,6.73v28.86a6.73,6.73,0,0,1-13.46,0V145.69A6.73,6.73,0,0,1,95.27,139Zm-71.73-6.77c.18-13.43,11.91-24.44,27-25.89h6.76c15.05,1.45,26.77,12.46,27,25.89Z" transform="translate(-5.76 -79)"/><path class="cls-2" d="M25.88,105,33,117.29M81.88,105l-7.1,12.29" transform="translate(-5.76 -79)"/><path class="cls-3" d="M44.84,120.16a3.48,3.48,0,0,1-7,0h0a3.48,3.48,0,0,1,7,0Zm26,0a3.48,3.48,0,0,1-7,0h0a3.48,3.48,0,0,1,7,0Z" transform="translate(-5.76 -79)"/><rect class="cls-4" x="114.24" y="65" width="137.78" height="2"/><polygon class="cls-4" points="252.02 61.51 252.06 69.51 256.24 65.49 252.02 61.51"/><text class="cls-5" transform="translate(255.24 74.76)">X</text><text class="cls-5" transform="translate(98.24 102.76)">X</text><image width="1200" height="2195" transform="translate(169.24) scale(0.03)" xlink:href="../../../../../../../Downloads/1200px-Java_programming_language_logo.svg%20(1).png"/><rect class="cls-4" x="124.22" y="174" width="137.78" height="2" transform="translate(380.46 271) rotate(180)"/><polygon class="cls-4" points="118.46 91.51 118.42 99.51 114.24 95.49 118.46 91.51"/><image width="306" height="344" transform="translate(167.24 97) scale(0.13)" xlink:href="../../../../../../../Downloads/306px-ISO_C++_Logo.svg%20(1).png"/></svg>