<svg id="Layer_1" data-name="Layer 1" xmlns="http://www.w3.org/2000/svg" xmlns:xlink="http://www.w3.org/1999/xlink" viewBox="0 0 331.64 247.11"><defs><style>.cls-1,.cls-3{fill:#666;}.cls-2{fill:#fff;}.cls-3{stroke:#666;stroke-miterlimit:10;stroke-width:2px;}</style></defs><title>why-12</title><path class="cls-1" d="M136.87,126.74H136V97.82c0-9.29-8-16.82-18-16.82H52.17c-9.92,0-18,7.53-18,16.82h0V257.3c0,9.28,8,16.81,18,16.81H118c9.92,0,18-7.53,18-16.81v-110h.92Z" transform="translate(-34.21 -27)"/><path class="cls-2" d="M131.93,96.66V256.92c0,6.94-6,12.56-13.42,12.56H52.57c-7.41,0-13.41-5.62-13.41-12.56V96.66c0-6.25,5.41-11.32,12.09-11.32h9.31a5.76,5.76,0,0,0,.28,5.13,6.48,6.48,0,0,0,5.24,3h38.36a6.51,6.51,0,0,0,5.24-3,5.79,5.79,0,0,0,.28-5.13h9.88C126.51,85.34,131.93,90.41,131.93,96.66Z" transform="translate(-34.21 -27)"/><path class="cls-1" d="M128.79,120h-26.1A6.69,6.69,0,0,0,96,126.67v17.78a6.69,6.69,0,0,0,6.67,6.67h26.1a6.69,6.69,0,0,0,6.67-6.67V126.67A6.69,6.69,0,0,0,128.79,120Zm1.11,20a6.69,6.69,0,0,1-6.67,6.66h-15a6.69,6.69,0,0,1-6.67-6.66v-8.89a6.69,6.69,0,0,1,6.67-6.67h15a6.69,6.69,0,0,1,6.67,6.66Z" transform="translate(-34.21 -27)"/><path class="cls-1" d="M35.44,126.67v17.78a6.69,6.69,0,0,0,6.67,6.67h26.1a6.69,6.69,0,0,0,6.66-6.67V126.67A6.69,6.69,0,0,0,68.21,120H42.11A6.69,6.69,0,0,0,35.44,126.67ZM41,131.11a6.69,6.69,0,0,1,6.67-6.67h15a6.7,6.7,0,0,1,6.67,6.67V140a6.69,6.69,0,0,1-6.67,6.67h-15A6.68,6.68,0,0,1,41,140Z" transform="translate(-34.21 -27)"/><path class="cls-1" d="M95,137.8a16.87,16.87,0,0,0-18.45,0c-1.54,1-3.64,1.19-4.9,0L70,136.27c-1.22-1.13-.53-3.88,1.9-5.46a25.27,25.27,0,0,1,27.56,0c2.45,1.58,3.13,4.33,1.9,5.46l-1.55,1.56C98.6,139,96.5,138.78,95,137.8Z" transform="translate(-34.21 -27)"/><path class="cls-3" d="M157.5,212.57l67.25-20a102.79,102.79,0,0,0,44.7,10.17c52.6,0,95.4-39.19,95.4-87.35S322.05,28,269.45,28,174,67.18,174,115.34c0,24.32,11.16,47.65,30.66,64.15Zm67.37-21.48-.25.07-59.57,17.76,41.85-29.34-.67-.56c-19.6-16.28-30.84-39.49-30.84-63.68,0-47.42,42.19-86,94.06-86s94.06,38.58,94.06,86-42.2,86-94.06,86a101.18,101.18,0,0,1-44.34-10.14Z" transform="translate(-34.21 -27)"/><image width="1200" height="2195" transform="translate(160.79 47) scale(0.04)" xlink:href="../../../../../../../Downloads/1200px-Java_programming_language_logo.svg%20(1).png"/><image width="306" height="344" transform="translate(238.79 56) scale(0.19)" xlink:href="../../../../../../../Downloads/306px-ISO_C++_Logo.svg%20(1).png"/></svg>