<svg id="Layer_1" data-name="Layer 1" xmlns="http://www.w3.org/2000/svg" xmlns:xlink="http://www.w3.org/1999/xlink" viewBox="0 0 259.82 251.11"><defs><style>.cls-1{fill:#3a3a3a;}.cls-2{fill:#fff;}.cls-3{fill:#68a9ea;}.cls-4,.cls-7{opacity:0.39;font-family:Montserrat-SemiBold, Montserrat;font-weight:600;}.cls-4{font-size:16.8px;}.cls-5{fill:#71ea85;}.cls-6{fill:#e8d172;}.cls-7{font-size:18.27px;}</style></defs><title>why-7</title><path class="cls-1" d="M165,130.14h-.88V102.86c0-8.76-7.58-15.86-16.94-15.86H85.15c-9.36,0-16.94,7.1-16.94,15.86h0V253.25c0,8.76,7.58,15.86,16.94,15.86h62.06c9.36,0,16.94-7.1,16.94-15.86V149.52H165Z" transform="translate(-68.21 -23)"/><path class="cls-2" d="M160.36,101.77V252.9c0,6.54-5.66,11.84-12.65,11.84H85.52c-7,0-12.65-5.3-12.65-11.84V101.77c0-5.9,5.11-10.67,11.41-10.67h8.78a5.41,5.41,0,0,0,.26,4.83,6.11,6.11,0,0,0,4.94,2.81h36.18a6.11,6.11,0,0,0,4.94-2.81,5.44,5.44,0,0,0,.27-4.83H149C155.26,91.1,160.36,95.87,160.36,101.77Z" transform="translate(-68.21 -23)"/><image width="1000" height="377" transform="translate(87.79) scale(0.1)" xlink:href="../../../../../../../Downloads/1_U01ubQ9TrE1Zow5pkGHTfw.png"/><rect class="cls-3" x="12.31" y="86.39" width="71.38" height="131.57"/><text class="cls-4" transform="translate(19.75 157.81)">WWW</text><circle cx="50.8" cy="229.86" r="6.3"/><path class="cls-1" d="M328,129.14h-.88V101.86c0-8.76-7.58-15.86-16.94-15.86H248.15c-9.36,0-16.94,7.1-16.94,15.86h0V252.25c0,8.76,7.58,15.86,16.94,15.86h62.06c9.36,0,16.94-7.1,16.94-15.86V148.52H328Z" transform="translate(-68.21 -23)"/><path class="cls-2" d="M323.36,100.77V251.9c0,6.54-5.66,11.84-12.65,11.84H248.52c-7,0-12.65-5.3-12.65-11.84V100.77c0-5.9,5.11-10.67,11.41-10.67h8.78a5.41,5.41,0,0,0,.26,4.83,6.11,6.11,0,0,0,4.94,2.81h36.18a6.11,6.11,0,0,0,4.94-2.81,5.44,5.44,0,0,0,.27-4.83H312C318.26,90.1,323.36,94.87,323.36,100.77Z" transform="translate(-68.21 -23)"/><rect class="cls-5" x="175.31" y="85.39" width="71.38" height="131.57"/><text class="cls-4" transform="translate(182.75 156.81)">WWW</text><circle cx="213.8" cy="228.86" r="6.3"/><path class="cls-1" d="M254.53,122.93h-.95V93.25c0-9.53-8.25-17.25-18.42-17.25H167.63c-10.17,0-18.42,7.72-18.42,17.25h0V256.86c0,9.53,8.25,17.25,18.42,17.25h67.53c10.17,0,18.42-7.72,18.42-17.25V144h.95Z" transform="translate(-68.21 -23)"/><path class="cls-2" d="M249.46,92.07V256.48c0,7.11-6.16,12.88-13.76,12.88H168c-7.6,0-13.76-5.77-13.76-12.88V92.07c0-6.42,5.56-11.61,12.41-11.61h9.55a5.94,5.94,0,0,0,.29,5.26,6.65,6.65,0,0,0,5.37,3h39.36a6.65,6.65,0,0,0,5.37-3,5.94,5.94,0,0,0,.29-5.26h10.13C243.9,80.46,249.46,85.65,249.46,92.07Z" transform="translate(-68.21 -23)"/><rect class="cls-6" x="94.39" y="77.36" width="77.65" height="143.13"/><text class="cls-7" transform="translate(100.49 155.05)">WWW</text><circle cx="136.26" cy="233.43" r="6.85"/></svg>