<svg id="Layer_1" data-name="Layer 1" xmlns="http://www.w3.org/2000/svg" xmlns:xlink="http://www.w3.org/1999/xlink" viewBox="0 0 364.57 196.11"><defs><style>.cls-1,.cls-2,.cls-4{fill:#666;}.cls-1{stroke:#666;stroke-miterlimit:10;stroke-width:2px;}.cls-3{fill:#fff;}.cls-4{font-size:20px;font-family:Montserrat-Bold, Montserrat;font-weight:700;}.cls-5{letter-spacing:-0.01em;}.cls-6{fill:#a4c639;}.cls-7{fill:none;stroke:#a4c639;stroke-linecap:round;stroke-linejoin:round;stroke-width:3px;}</style></defs><title>why-2</title><line class="cls-1" x1="220.74" y1="103.5" x2="322.24" y2="104.5"/><line class="cls-1" x1="322.24" y1="104.5" x2="322.24" y2="84.5"/><line class="cls-1" x1="125.24" y1="101.5" x2="23.74" y2="100.5"/><line class="cls-1" x1="23.74" y1="100.5" x2="23.74" y2="120.5"/><path class="cls-2" d="M256.47,98.46h-.94V69.08c0-9.43-8.17-17.08-18.24-17.08H170.45c-10.08,0-18.24,7.65-18.24,17.08h0V231c0,9.43,8.16,17.07,18.24,17.07h66.84c10.07,0,18.24-7.64,18.24-17.07V119.33h.94Z" transform="translate(-30.76 -52)"/><path class="cls-3" d="M251.44,67.91V230.65c0,7-6.09,12.76-13.62,12.76h-67c-7.52,0-13.62-5.71-13.62-12.76V67.91c0-6.35,5.5-11.5,12.28-11.5H179a5.84,5.84,0,0,0,.29,5.21,6.52,6.52,0,0,0,5.31,3h39a6.55,6.55,0,0,0,5.32-3,5.9,5.9,0,0,0,.29-5.21h10C246,56.41,251.44,61.56,251.44,67.91Z" transform="translate(-30.76 -52)"/><text class="cls-4" transform="translate(140.46 104.94)">Nati<tspan class="cls-5" x="43.22" y="0">v</tspan><tspan x="54.88" y="0">e</tspan></text><image width="850" height="477" transform="translate(271.24 25) scale(0.11)" xlink:href="../../../../../../../Downloads/ios-app%20(1).png"/><path class="cls-6" d="M48.63,217.13a3.66,3.66,0,0,1,3.65,3.65v15.66a3.65,3.65,0,1,1-7.3,0V220.78a3.65,3.65,0,0,1,3.65-3.65Z" transform="translate(-30.76 -52)"/><path class="cls-6" d="M40.3,198.31a3,3,0,0,0,0,.42v23.72a4.56,4.56,0,0,0,4.53,4.61H68.92a4.56,4.56,0,0,0,4.53-4.61V198.73c0-.14,0-.28,0-.42Z" transform="translate(-30.76 -52)"/><path class="cls-6" d="M65.09,217.13a3.65,3.65,0,0,1,3.65,3.65v15.66a3.65,3.65,0,1,1-7.3,0V220.78a3.66,3.66,0,0,1,3.65-3.65ZM34.41,200.42a3.64,3.64,0,0,1,3.65,3.65v15.66a3.65,3.65,0,0,1-7.3,0V204.07a3.64,3.64,0,0,1,3.65-3.65Zm44.9,0A3.64,3.64,0,0,1,83,204.07v15.66a3.65,3.65,0,1,1-7.3,0V204.07a3.65,3.65,0,0,1,3.65-3.65ZM40.4,196.75c.1-7.29,6.46-13.26,14.63-14.05H58.7c8.16.79,14.52,6.77,14.62,14.05Z" transform="translate(-30.76 -52)"/><path class="cls-7" d="M41.67,182l3.85,6.67M72.05,182l-3.85,6.67" transform="translate(-30.76 -52)"/><path class="cls-3" d="M52,190.22a1.89,1.89,0,0,1-3.78,0h0a1.89,1.89,0,0,1,3.78,0Zm14.09,0a1.89,1.89,0,0,1-3.77,0h0a1.89,1.89,0,0,1,3.77,0Z" transform="translate(-30.76 -52)"/></svg>