<svg id="Layer_1" data-name="Layer 1" xmlns="http://www.w3.org/2000/svg" xmlns:xlink="http://www.w3.org/1999/xlink" viewBox="0 0 399 296.44"><defs><style>.cls-1,.cls-2{fill:#6c63ff;}.cls-1,.cls-13,.cls-8{opacity:0.1;}.cls-1,.cls-21,.cls-25,.cls-8{isolation:isolate;}.cls-3{fill:#444053;}.cls-4{fill:#f6f8fb;}.cls-5{fill:url(#linear-gradient);}.cls-6{fill:#d17483;}.cls-7{fill:#dce6f2;}.cls-9{fill:#bdd2e8;}.cls-10{fill:#653c5b;}.cls-11{fill:#ffd6db;}.cls-12{fill:#c8a9b4;}.cls-14{fill:url(#linear-gradient-2);}.cls-15{fill:url(#linear-gradient-3);}.cls-16{fill:url(#linear-gradient-4);}.cls-17{fill:#965d7b;}.cls-18{fill:#e8f4ff;}.cls-19{fill:#ffc1c7;}.cls-20{fill:#575a89;}.cls-21{opacity:0.05;}.cls-22{fill:#ff6584;}.cls-23{fill:#ffd037;}.cls-24{fill:#a8a8a8;}.cls-25{opacity:0.2;}</style><linearGradient id="linear-gradient" x1="340.07" y1="-22.69" x2="340.07" y2="158.48" gradientTransform="matrix(1, 0, 0, -1, -57.62, 254.97)" gradientUnits="userSpaceOnUse"><stop offset="0" stop-color="gray" stop-opacity="0.25"/><stop offset="0.54" stop-color="gray" stop-opacity="0.12"/><stop offset="1" stop-color="gray" stop-opacity="0.1"/></linearGradient><linearGradient id="linear-gradient-2" x1="132.6" y1="-21.69" x2="132.6" y2="159.03" xlink:href="#linear-gradient"/><linearGradient id="linear-gradient-3" x1="131.43" y1="151.55" x2="131.43" y2="151.85" xlink:href="#linear-gradient"/><linearGradient id="linear-gradient-4" x1="130.67" y1="151.88" x2="130.67" y2="152.35" xlink:href="#linear-gradient"/></defs><title>why-5</title><path class="cls-1" d="M221.31,42.76c-23.81-.83-46.48-8.52-68.13-16.92S110.09,8.11,86.84,3.66C71.89.79,54.8.39,42.76,8.4c-11.59,7.72-15.33,21-17.35,33.37C23.9,51.06,23,60.84,27.16,69.54c2.88,6,8,11.12,11.53,16.9C51,106.57,42.3,131.39,29,151c-6.25,9.22-13.51,18-18.34,27.83S3.57,199.93,7.8,210s14.16,17.37,25,22.62c22,10.64,47.82,13.69,73,15.42,55.85,3.82,112,2.16,168,.51,20.72-.62,41.53-1.24,61.92-4.44,11.32-1.78,23-4.61,31.22-11.41,10.44-8.65,13-23.31,6-34.16-11.73-18.2-44.14-22.72-52.35-42.26-4.51-10.75.13-22.73,6.68-32.7,14.07-21.4,37.64-40.17,38.89-64.62.85-16.8-10.49-33.62-28-41.57-18.36-8.32-43.84-7.28-57.38,6.51C266.85,38,242.33,43.49,221.31,42.76Z" transform="translate(-1 -1.78)"/><path class="cls-2" d="M39.23,253.4s7.72-1.24,12.36,4.22c0,0-3.4,2.68-10.72-1Z" transform="translate(-1 -1.78)"/><path class="cls-2" d="M38.4,253.28s-4.93,6.08-2.51,12.82c0,0,4-1.61,4.45-9.8Z" transform="translate(-1 -1.78)"/><path class="cls-2" d="M34,243.3s3.09-5.66,15.45,2.27c0,0-1.65,3.81-7.1,3.5S35.42,246.29,34,243.3Z" transform="translate(-1 -1.78)"/><path class="cls-2" d="M33.18,242.9s-6.42-.74-7,13.94c0,0,4.05.84,7-3.8S34.79,245.79,33.18,242.9Z" transform="translate(-1 -1.78)"/><path class="cls-2" d="M29.46,231.19s3.6-10,16.68-2.88c0,0-3,9.16-15.34,6.28Z" transform="translate(-1 -1.78)"/><path class="cls-2" d="M25.41,216.25s6.8-10.09,18.85-.73c0,0-4.22,9.48-17.82,4.32Z" transform="translate(-1 -1.78)"/><path class="cls-2" d="M24,202s7.93-9.27,19.88,0c0,0-7.52,8.14-19.86,2.37Z" transform="translate(-1 -1.78)"/><path class="cls-2" d="M22.74,188.26s8-9.69,19.47-.52c0,0-9.06,8.55-19.47,2.78Z" transform="translate(-1 -1.78)"/><path class="cls-2" d="M23.46,176s8.46-12.47,19.16-4c0,0-9.06,10.72-19.16,6.39Z" transform="translate(-1 -1.78)"/><path class="cls-2" d="M25.41,161.67s9-12.36,19.37-2.89c0,0-10.61,10.71-19.37,5.15Z" transform="translate(-1 -1.78)"/><path class="cls-2" d="M28.41,148.87s10.61-11.61,19.86-7c0,0-11.05,12.33-20.32,10.07Z" transform="translate(-1 -1.78)"/><path class="cls-2" d="M32.12,136.76s12.26-14.22,19.36-9.47c0,0-9,11-20.23,12.13Z" transform="translate(-1 -1.78)"/><path class="cls-2" d="M37.47,122.67S48.19,111.05,56,114c0,0-9.16,12.05-20,12.36Z" transform="translate(-1 -1.78)"/><path class="cls-2" d="M42.33,109.51s11.84-11.12,17-9.17c0,0-8.54,12.36-17.5,11.64Z" transform="translate(-1 -1.78)"/><path class="cls-2" d="M47.05,97.36S57.25,84.07,62.81,85.1c0,0-6.18,11.84-15.76,13.61Z" transform="translate(-1 -1.78)"/><path class="cls-2" d="M52.2,81s9-10.19,13.87-10.16c0,0-7.11,13.61-14.25,13.48Z" transform="translate(-1 -1.78)"/><path class="cls-2" d="M55.24,70.06l8.7-21.21S64.38,68,54.13,74Z" transform="translate(-1 -1.78)"/><path class="cls-2" d="M58.78,46.66s1.44-17.71.51-19.15c0,0,6.22,14.71-.58,27Z" transform="translate(-1 -1.78)"/><path class="cls-2" d="M29.09,231s-9-5.59-14.87,8.1c0,0,8,5.32,15.93-4.61Z" transform="translate(-1 -1.78)"/><path class="cls-2" d="M25.13,215.69s-11.07-5.06-16.44,9.24c0,0,8.56,5.86,17.45-5.63Z" transform="translate(-1 -1.78)"/><path class="cls-2" d="M23.46,202.89s-7.93-9.27-19.86,0c0,0,7.52,8.14,19.86,2.37Z" transform="translate(-1 -1.78)"/><path class="cls-2" d="M22.47,188.26s-8-9.69-19.47-.52c0,0,9.07,8.55,19.47,2.78Z" transform="translate(-1 -1.78)"/><path class="cls-2" d="M23.46,176.33s-5.63-14-17.88-8c0,0,6.62,12.38,17.39,10.27Z" transform="translate(-1 -1.78)"/><path class="cls-2" d="M26.15,161.6s-5.6-14.21-18-7.62c0,0,7.61,13,17.47,9.81Z" transform="translate(-1 -1.78)"/><path class="cls-2" d="M29.6,148.94s-2.2-15.57-12.48-17c0,0,2.18,16.42,11.11,19.77Z" transform="translate(-1 -1.78)"/><path class="cls-2" d="M32.4,136.76S31.54,118,23,117.35c0,0,.29,14.24,8.42,22.07Z" transform="translate(-1 -1.78)"/><path class="cls-2" d="M38.35,122.14s-2.54-15.6-10.66-17.51c0,0,1,15.11,9.86,21.33Z" transform="translate(-1 -1.78)"/><path class="cls-2" d="M43.28,109.62S43.19,93.37,38.23,91c0,0-3.08,14.72,3.61,20.72Z" transform="translate(-1 -1.78)"/><path class="cls-2" d="M47.43,97.18s-.69-16.74-5.83-19.1c0,0-1.77,13.24,5.06,20.19Z" transform="translate(-1 -1.78)"/><path class="cls-2" d="M52.91,82.32s0-13.61-3.7-16.8c0,0-3.65,14.91,1.79,19.54Z" transform="translate(-1 -1.78)"/><path class="cls-2" d="M54.81,69.39,51.24,46.74S46.38,65.3,55,73.49Z" transform="translate(-1 -1.78)"/><path class="cls-2" d="M55.51,46.88s-9.17-15.23-9-16.92c0,0,1,16,12.5,23.91Z" transform="translate(-1 -1.78)"/><path class="cls-2" d="M56.58,42.38S47.93,20.75,44,19c0,0,12.35,6.28,13.28,22.76Z" transform="translate(-1 -1.78)"/><path class="cls-3" d="M51.78,84.42l-.59-.18c7.3-23.81,9.12-39,5.13-42.79l.42-.45C61,45,59.25,60,51.78,84.42Z" transform="translate(-1 -1.78)"/><path class="cls-3" d="M31.66,140.15l-.87-.31c.77-2.18,1.61-4.39,2.48-6.58C40.9,114.27,47.38,96.6,51.54,83l.76-.37c-4.17,13.61-10.54,31.94-18.16,51C33.27,135.78,32.44,138,31.66,140.15Z" transform="translate(-1 -1.78)"/><path class="cls-3" d="M50.1,271.22c-.12-.13-12-13.46-20.21-36.21a134.2,134.2,0,0,1-8-41.48c-.56-17.7,3.15-37.47,9.52-55.43l.69.81c-14.29,40.3-8.61,74.84-1.08,95.64,8.16,22.54,19.86,35.72,20,35.85Z" transform="translate(-1 -1.78)"/><ellipse class="cls-1" cx="194.88" cy="270.16" rx="164.41" ry="15.12"/><path class="cls-4" d="M124.07,197.31s67,14.92,123.35.42c0,0,6.89,0,2.18,8a12.61,12.61,0,0,1-5.15,4.83c-10.85,5.55-51,21.94-115.31,1A12.61,12.61,0,0,1,120.8,203C120.05,200.28,120.38,197.69,124.07,197.31Z" transform="translate(-1 -1.78)"/><image width="306" height="344" transform="translate(81 45.22) scale(0.69 0.68)" xlink:href="../../../../../../../Downloads/306px-ISO_C++_Logo.svg.png"/><path class="cls-5" d="M339,269.6c-.59-2.34-2-2.38-2-2.38l0-.23-.52-5.79a.3.3,0,0,1-.08.08l0-.74c0-.14,0-.28,0-.41a4.88,4.88,0,0,0,1.77-2.47c-.22-.28-.06-.22-.06-.22s-3.57-3.66-3.21-5.57-2.69-4-2.69-4a27.45,27.45,0,0,1-1.1-4.44c0-1-4.18-7.82-4.18-7.82S323.18,227,320,223.3s-2.95-5.73-2.95-5.73a6.71,6.71,0,0,1-.71-1.25,6.79,6.79,0,0,1-.37-.94,10.84,10.84,0,0,1,1.1-.1s2.65-.46,2.76-1a3.48,3.48,0,0,1,.91-1.63c.5-.54-1.44-10.84-.41-13.5S319,184.27,319,184.27a2.72,2.72,0,0,1,1.17-1.84l1.56-.61h0l.79-.2.1,0,.17,0,.36-.09.11,0,.23-.07.08,0,.37-.11.12,0,.17-.06.14,0,.17-.07.2-.09.11-.06.12-.07.1-.07.14-.11.08-.07.08-.1.05-.07,0,0h0a.8.8,0,0,0-.08-.83,6.09,6.09,0,0,0-1.39-1.43l-.85-1.31a0,0,0,0,1,0,0,.86.86,0,0,1,0-.21,2.37,2.37,0,0,0,0-.84h0v0a2.11,2.11,0,0,0,0-.26v-.11a1.14,1.14,0,0,0,0-.26c0-.08,0-.08,0-.13a1.73,1.73,0,0,0-.05-.24.78.78,0,0,0,0-.14s0-.15-.07-.23l-.05-.15-.09-.22a1.07,1.07,0,0,0-.07-.15,1.76,1.76,0,0,0-.09-.2c0-.07-.06-.11-.08-.16l-.11-.19-.08-.15-.11-.17-.1-.16-.09-.15-.1-.14a1.13,1.13,0,0,1-.1-.13l-.1-.14-.09-.11-.09-.12-.08-.09-.08-.1-.06-.07-.07-.08,0,0-.05-.05,0,0,0,0v-.31a.58.58,0,0,0,0-.18v0a10.92,10.92,0,0,1-.09-1.15h0a3.07,3.07,0,0,1,.26-1.16.57.57,0,0,0,0-.58l0-.08c.26-.49-.23-.91-.83-1.22,0-.9-.37-2.72-3.34-3,0,0-1.74-1.18-.06-3.28s-1-7.5-1-7.5-.85-2.21-.39-3.12-.53-9-.53-9,0-7.49-1.66-10.67-2.78-8.89-4.69-9.74a10.17,10.17,0,0,1-3.42-2.89l-.89.29-.46-.69h0a1,1,0,0,0,.21-.07,2,2,0,0,0,1-.89,1.58,1.58,0,0,0,.16-.35h0a3.84,3.84,0,0,0,.21-1.34,7,7,0,0,1,.05-1.37,5.16,5.16,0,0,1,1.1-1.94,9,9,0,0,0,1.65-4.15,6.27,6.27,0,0,0-1.05-4.29,9.9,9.9,0,0,1-1.27-1.84c-.12-.32-.18-.66-.27-1a4.87,4.87,0,0,0-4.15-3.34c-1.57-.14-3.11.45-4.67.43-1.82,0-3.68-.85-5.38-.22a5.32,5.32,0,0,0-2,1.47,15.88,15.88,0,0,0-1.16,1.44h0c-.21.3-.41.59-.59.9v0q-.29.47-.54,1a.33.33,0,0,0,0,.24.45.45,0,0,0,.22.21,2.78,2.78,0,0,1,.82.47,2.13,2.13,0,0,0,.3.3l-.16.18A9.32,9.32,0,0,0,290.15,116a9,9,0,0,0,1.93,1.17l.19.41a17.43,17.43,0,0,1,.89,2.41l-.8.08a1,1,0,0,1-.95,1,30.34,30.34,0,0,0-3.92,1.2,51,51,0,0,1-7.19,3c-2.7.72-3.9.1-3.9.1s-.31,2-3.37.89-3.46.06-3.46.06a113.9,113.9,0,0,0-14.91.6c-6.27.84-9,.25-9,.25s0,.33-.06.87l-.64-.37c-4.17-2.23-11.86-5.69-13-1.47-1.53,5.86,11.91,8.35,11.91,8.35l1-.11.65-.07c.13,1.63.41,2.94,1,3.09.22.05,6.65,0,8.34.83s5.34-.37,5.34-.37a3.51,3.51,0,0,1,2.35.63c1.42.84,9.12.85,9.12.85s.54.11,2.51.69a16.7,16.7,0,0,0,5.44.08l8.12,1s.58,5.69-.06,7.75-.12,12.24-.12,12.24,1.83,12.38,1.33,13.85c-.4,1.13,3.13-.13,4.74-.76.08.33.19.73.31,1.19,0,0,.06.06.12.08l.13.09c.06.24.12.47.17.69l-.43.12.57.39q.11.34.24.69c.47,1.1-3,3.12-3,3.12s-9.64,5.27-12.53,7.72c0,0-2.26.74-2.44,1.44s-2.21.46-2.21.46-.29.76-.52,1.53a6.84,6.84,0,0,1-1.47,1.94s-2.86.45-3.27,2a30.72,30.72,0,0,0-.66,3.57l-3.22,5.86s-8.77,6.54-9.69,9l-6.21,4.16s-1,2.28-2.84,2.36-4.94,3.31-4.94,3.31.92.37,2.27,1l-.23.36a6.29,6.29,0,0,0-.55,1.5s-4,2.46-7.05,1.43a32.11,32.11,0,0,0-7.48-1.71c-1.86-.09-3.18.34-2.8,1.89.66,2.67,7.3,9.4,10.57,12.6a18.58,18.58,0,0,0,1.65,1.41,15.78,15.78,0,0,0,2.42,1.55,15.1,15.1,0,0,0,1.53.71,12.93,12.93,0,0,0,1.73.56,2.93,2.93,0,0,0,2.8-.37c1.89-1.94,1.1-3.31,1.1-3.31l.21-.16,5.23-3.91,1.19-1,.32-.27a7,7,0,0,1-1.76,3.85,24.55,24.55,0,0,1,4.09-1.91c1.84-.57,3-4,3-4s1-1,2.79-2.86,2.11-6.52,2.11-6.52S274,219,277.74,212.26c0,0,.67-.92,1.84-2.27a6.5,6.5,0,0,0,1.2-3.59,7.56,7.56,0,0,1,1.74-2.32c1.56-1.67,1.36-2.72,1.36-2.72s.74-1,3.47-.82,9.17-3,9.17-3a8,8,0,0,0,.06.82c-.56,1.28-.93,2.18-.93,2.18s5.61,22.37,3.36,25.89c-1.17,1.84,2.05.44,5.42-1.31l.58.66a30.65,30.65,0,0,0,2.54,2.43l.11.09s6.83,10.54,7.91,11.77.37,4.87.37,4.87,1.91,12.71,4.51,14.93a6.34,6.34,0,0,0,1.8.95,4.33,4.33,0,0,0,1.38,2.88s0,4.2-2.23,6a29.39,29.39,0,0,0-4.82,4.84c-.94,1.36-1.23,2.57.13,3,2.35.76,10.6-1.08,14.58-2.05a15.25,15.25,0,0,0,5.43-2.49C338.1,271.93,339.29,270.7,339,269.6Zm-90.55-42.09.68.46-.37.3-.15.12a2.13,2.13,0,0,0,0-.25C248.56,227.94,248.52,227.73,248.47,227.51Z" transform="translate(-1 -1.78)"/><path class="cls-6" d="M249.52,134.92l-4.15.44-1,.11s-13.24-2.47-11.73-8.26c1.08-4.19,8.66-.76,12.78,1.47,1.57.85,2.64,1.52,2.64,1.52Z" transform="translate(-1 -1.78)"/><polygon class="cls-7" points="258.25 231.01 253.72 234.92 252.55 235.92 249.82 236.74 243.08 230.79 248.09 226.8 248.24 226.68 252.29 223.45 258.25 231.01"/><path class="cls-7" d="M331.36,256.58l-6.41.3,1.76,7.83,2.4.83,6.69-.56-.18-4.5a4.07,4.07,0,0,0-4.24-3.9Z" transform="translate(-1 -1.78)"/><path class="cls-8" d="M249.05,228.35a34.8,34.8,0,0,0-4.74-2.72,3.37,3.37,0,0,1,2.21-1.84C248,223.48,248.71,226.29,249.05,228.35Z" transform="translate(-1 -1.78)"/><path class="cls-8" d="M254.71,236.69c.28-3.27-2.47-6.12-5.47-8.23l4-3.23,6,7.56Z" transform="translate(-1 -1.78)"/><path class="cls-9" d="M337.33,257.62c-1.88,6.21-14.81,4.34-17.38,2.13S315.5,245,315.5,245s.71-3.63-.37-4.84-7.8-11.66-7.8-11.66l-.11-.09a30,30,0,0,1-2.51-2.41c-2.07-2.27-2.11-3.37-2.11-3.37a49.29,49.29,0,0,0-3.27-10.12c-1.84-4.31-2.6-10.16-2.87-12.93-.09-1-.12-1.59-.12-1.59s-6.33,3.21-9,3-3.43.82-3.43.82.2,1-1.34,2.69a7.38,7.38,0,0,0-1.71,2.3,6.43,6.43,0,0,1-1.19,3.56c-1.16,1.34-1.83,2.25-1.83,2.25-3.67,6.67-12.7,12.45-12.7,12.45s-.33,4.66-2.1,6.47l-2.75,2.84s-1.13,3.45-2.94,4a24.06,24.06,0,0,0-4.05,1.89c7.45-8.94-11-16-11-16s3.09-3.21,4.88-3.29,2.8-2.34,2.8-2.34l6.12-4.14c.91-2.48,9.57-9,9.57-9l3.17-5.8a32.07,32.07,0,0,1,.65-3.52c.4-1.51,3.23-2,3.23-2a6.66,6.66,0,0,0,1.43-1.93c.23-.75.51-1.51.51-1.51s2,.25,2.18-.46,2.4-1.42,2.4-1.42c2.86-2.46,12.37-7.68,12.37-7.68s3.44-2,3-3.1a6,6,0,0,1-.23-.68v-.06l-.12-.44c-.44-1.69-.91-4.26-.91-4.26S310,163,315.51,165.43c1.6.71,2.54,2.52,3,4.83.78,3.7.42,8.67-.18,12.49a35,35,0,0,1-1,4.65,50,50,0,0,0-1.56,10.44s-.18,11.87-.6,14.79a7.27,7.27,0,0,0,.63,4,6.33,6.33,0,0,0,.71,1.24s-.3,2,2.9,5.69,6.81,12.24,6.81,12.24,4.13,6.72,4.11,7.76a26.29,26.29,0,0,0,1.08,4.41s3,2.05,2.65,3.94,3.17,5.52,3.17,5.52S337.11,257.34,337.33,257.62Z" transform="translate(-1 -1.78)"/><path class="cls-8" d="M294.54,181.16s3.6,1.73,3.9,3.8S294.54,181.16,294.54,181.16Z" transform="translate(-1 -1.78)"/><polygon class="cls-8" points="279.76 191.27 281.73 193.58 280.71 189.39 278.54 189.25 279.76 191.27"/><path class="cls-8" d="M278.47,198c.22.16,2.63,5.57,3.28,5.63S278.47,198,278.47,198Z" transform="translate(-1 -1.78)"/><path class="cls-8" d="M318.38,182.74a37,37,0,0,1-1,4.65,50.34,50.34,0,0,0-1.57,10.44s-.17,11.87-.59,14.79a7.17,7.17,0,0,0,.62,4,11.17,11.17,0,0,0-4.55,1.33c-2,1.27-.83,4.76-.83,4.76s-2.83,1.7-5.74,3.25c-2.07-2.27-2.11-3.37-2.11-3.37a49.46,49.46,0,0,0-3.27-10.13c-1.84-4.3-2.6-10.15-2.86-12.92a57.66,57.66,0,0,1,4.14-8.26c1.3-1.81-.25-7.3-1.33-10.51l-.29-.2h0l-3.56-2.39h0l-1.08-.73-.57-.37.43-.12,24.35-6.68C319.34,174,319,178.93,318.38,182.74Z" transform="translate(-1 -1.78)"/><path class="cls-10" d="M293.8,176.09l1.65,1.1h0l3.55,2.39h0l.3.2c1.08,3.21,2.63,8.7,1.33,10.51-1.88,2.63-5.15,10.61-5.15,10.61s5.52,22.2,3.31,25.69,11.69-4.86,11.69-4.86-1.14-3.49.83-4.76a12.49,12.49,0,0,1,5.27-1.39s2.61-.45,2.73-1a3.38,3.38,0,0,1,.89-1.61c.49-.54-1.42-10.75-.4-13.4s-1.31-14.76-1.31-14.76a2.68,2.68,0,0,1,1.16-1.84,3.32,3.32,0,0,1,1-.45l.21-.06.37-.1h0c1.58-.39,3.31-.73,3.67-1.47l-.36-.56-1.94-3h0a2.37,2.37,0,0,1,.05-.88,1.13,1.13,0,0,1,0-.18h0c.28-1.91-1.91-4.23-1.91-4.23a10,10,0,0,1-.17-1.64v0a4,4,0,0,1,.23-1.72Z" transform="translate(-1 -1.78)"/><path class="cls-8" d="M300,180.32c-.2,0,11.86.39,15.59,5.15C315.59,185.48,315.72,183.75,300,180.32Z" transform="translate(-1 -1.78)"/><path class="cls-8" d="M309.5,188.26s2.41,17.28,1.87,20.3,2.81,1.07,2.81,1.07S317.58,184.53,309.5,188.26Z" transform="translate(-1 -1.78)"/><path class="cls-8" d="M324.88,180.9l-.09-.17c-.81-1.36-2.49-1.65-2.21-3.38h0a1.06,1.06,0,0,1,.05-.23,2.56,2.56,0,0,0,0-.83h0a7.75,7.75,0,0,0-1.93-3.57,11.08,11.08,0,0,1-.16-2.3m0,0a3,3,0,0,1,.26-1.15.51.51,0,0,0,0-.57c-.45-.76-2.44-1.26-2.44-1.26l-13.48,2.14c-1.59.54-3.11,1.1-4.5,1.64-4.16,1.59-7.11,2.91-7.11,2.91l.1.39c.09.37.24.94.42,1.6.05.22,1.17,0,1.24.2l.41.9,3,.83s.24.6.57,1.56a.58.58,0,0,0,.06.17h0l.25,0c5.62.69,13.41,1.79,20.34,3.19Z" transform="translate(-1 -1.78)"/><path class="cls-10" d="M320.81,182.47l-.21.06c-7.25-1.52-15.63-2.7-21.53-3.42h0c-.37-1.06-.63-1.73-.63-1.73L294,176.15l-.12-.43c-.21-.77-.39-1.47-.49-1.88l-.1-.39s2.94-1.32,7.11-2.9c1.39-.54,2.91-1.11,4.5-1.65l13.48-2.13a9,9,0,0,1,1.43.51c.69.32,1.32.77,1,1.32-.55,1.07-.1,3.46-.1,3.46s2.35,2.47,1.89,4.41,1.32,2.19,2.17,3.61S323,181.9,320.81,182.47Z" transform="translate(-1 -1.78)"/><path class="cls-6" d="M308.43,124.18s-17.69,1.42-15.66-.18c1-.8.31-3.17-.64-5.35a40.28,40.28,0,0,0-2.15-4.12s13.44-3.89,12-1.68c-.42.65,0,1.91.74,3.35A54,54,0,0,0,308.43,124.18Z" transform="translate(-1 -1.78)"/><path class="cls-8" d="M302.71,116.21c-.37.44-1.32-.08-1.78.28-1.61,1.26-3.13,2.92-5.33,2.89a9.42,9.42,0,0,1-3.47-.73,39.42,39.42,0,0,0-2.15-4.13s13.44-3.88,12-1.67C301.56,113.51,301.94,114.77,302.71,116.21Z" transform="translate(-1 -1.78)"/><path class="cls-6" d="M305,109.91a9.27,9.27,0,1,1-9.14-9.4h0a9.24,9.24,0,0,1,9.14,9.33Z" transform="translate(-1 -1.78)"/><path class="cls-8" d="M320,168.85a18.61,18.61,0,0,1-4.34-.46c-2.27-.52-4.19,1.52-4.19,1.52s-4.41,1.72-6.42,1.37-10.79,4.28-10.79,4.28l-.37.15c-.22-.77-.39-1.48-.5-1.88l-.09-.39s2.94-1.32,7.11-2.91c1.38-.53,2.91-1.1,4.5-1.64l13.47-2.13a7.91,7.91,0,0,1,1.44.5A3.08,3.08,0,0,1,320,168.85Z" transform="translate(-1 -1.78)"/><path class="cls-8" d="M249.52,134.92l-4.15.44a51.66,51.66,0,0,1,.07-6.7c1.57.85,2.64,1.52,2.64,1.52Z" transform="translate(-1 -1.78)"/><path class="cls-7" d="M305.15,118.49s-2.61.83-4.08,1.41-8.86,1.22-8.86,1.22a1,1,0,0,1-.93,1,30.41,30.41,0,0,0-3.87,1.19,48.55,48.55,0,0,1-7.09,3c-2.68.72-3.85.11-3.85.11s-.3,1.94-3.31.87-3.42.06-3.42.06a110.89,110.89,0,0,0-14.71.6c-6.21.83-8.89.25-8.89.25s-.81,9.75.88,10.2c.21.06,6.56,0,8.22.82s5.27-.36,5.27-.36a3.43,3.43,0,0,1,2.32.63c1.4.83,9,.83,9,.83s.54.12,2.48.69a16.51,16.51,0,0,0,5.36.08l8,1.05s.57,5.64-.06,7.69-.12,12.14-.12,12.14,1.84,12.28,1.32,13.73,5.43-1.06,5.43-1.06S303,170,305,170.31s6.42-1.37,6.42-1.37,1.92-2,4.19-1.51a19.12,19.12,0,0,0,4.33.44s.64-3.08-3.25-3.52c0,0-1.72-1.16-.06-3.25s-1-7.42-1-7.42-.84-2.18-.39-3.1-.52-9-.52-9,0-7.42-1.63-10.59-2.75-8.83-4.63-9.66A10,10,0,0,1,305.15,118.49Z" transform="translate(-1 -1.78)"/><path class="cls-8" d="M295.3,143.38s11.47,5.1,14.56,9.22S295.3,143.38,295.3,143.38Z" transform="translate(-1 -1.78)"/><path class="cls-8" d="M299.84,152.13s13.86,8.06,12.92,10.11S299.84,152.13,299.84,152.13Z" transform="translate(-1 -1.78)"/><path class="cls-8" d="M302.1,160.24s5,2,5.92,3.18S302.1,160.24,302.1,160.24Z" transform="translate(-1 -1.78)"/><path class="cls-8" d="M279.14,128.79s10.6,5.68,8.78,8S279.14,128.79,279.14,128.79Z" transform="translate(-1 -1.78)"/><path class="cls-8" d="M274.91,132.8a42.49,42.49,0,0,1,1.78,4.74C276.73,138.23,273.49,133.37,274.91,132.8Z" transform="translate(-1 -1.78)"/><path class="cls-8" d="M267.81,133.88c0,.22,5.51,3.61,3.24,4.5S267.81,133.88,267.81,133.88Z" transform="translate(-1 -1.78)"/><path class="cls-8" d="M272,202.08c.17.22.74,2.34,2.51,3.29S272,202.08,272,202.08Z" transform="translate(-1 -1.78)"/><path class="cls-8" d="M255.46,218.16c0,1.78-.33,7.47,1.13,8.09S255.46,218.16,255.46,218.16Z" transform="translate(-1 -1.78)"/><path class="cls-8" d="M259.5,223.2s3.33,5.63,2.18,6.59-2.47-1.34-2.47-1.34Z" transform="translate(-1 -1.78)"/><path class="cls-8" d="M318.84,235.45a19,19,0,0,0,4.12.33C325.19,235.71,318.84,235.45,318.84,235.45Z" transform="translate(-1 -1.78)"/><path class="cls-8" d="M317.1,232.71s4.1.77,5.58,0S317.1,232.71,317.1,232.71Z" transform="translate(-1 -1.78)"/><path class="cls-8" d="M315.48,228.35s4.11.33,4.94-1.07S315.48,228.35,315.48,228.35Z" transform="translate(-1 -1.78)"/><path class="cls-8" d="M314.32,226.06s3.95.66,4.61-.26S314.32,226.06,314.32,226.06Z" transform="translate(-1 -1.78)"/><path class="cls-8" d="M310.48,217.77s4.25,2,4.72,3.16S310.48,217.77,310.48,217.77Z" transform="translate(-1 -1.78)"/><path class="cls-8" d="M305,109.91a9.25,9.25,0,0,1-3.57,7.17l-.07-.15c-.4-.86-.51-1.83-.88-2.7a1.35,1.35,0,0,0-.66-.75c-.59-.23-1.18.31-1.58.8s-1,1-1.58.83a1.5,1.5,0,0,1-.73-.78,8,8,0,0,1-1.29-3.53,16.49,16.49,0,0,0,0-1.86,4,4,0,0,0-1.91-2.6,24.18,24.18,0,0,0-3-1.47,4.71,4.71,0,0,1-1.29-.82A9.26,9.26,0,0,1,305,109.91Z" transform="translate(-1 -1.78)"/><path class="cls-10" d="M287.3,102.67c-.22.52.63.47,1,.92a4.22,4.22,0,0,0,1.43,1,24.31,24.31,0,0,1,3,1.47,4,4,0,0,1,1.9,2.6,14.43,14.43,0,0,1,0,1.86,8.26,8.26,0,0,0,1.29,3.53,1.6,1.6,0,0,0,.74.78c.6.21,1.18-.34,1.58-.83s1-1,1.58-.8a1.27,1.27,0,0,1,.65.75c.37.87.48,1.84.89,2.71a2.35,2.35,0,0,0,2.24,1.51,1.92,1.92,0,0,0,1.37-1,3.43,3.43,0,0,0,.37-1.67,6.88,6.88,0,0,1,0-1.36,5.53,5.53,0,0,1,1.07-1.92,8.93,8.93,0,0,0,1.63-4.11,6.33,6.33,0,0,0-1-4.25,9.79,9.79,0,0,1-1.25-1.84c-.12-.31-.18-.65-.27-1a4.82,4.82,0,0,0-4.1-3.31c-1.54-.15-3.06.45-4.6.43-1.8,0-3.65-.85-5.32-.22a5.16,5.16,0,0,0-1.93,1.47,15,15,0,0,0-2.28,3.31" transform="translate(-1 -1.78)"/><path class="cls-11" d="M248.39,241.59l-.22.16s.8,1.37-1.07,3.31c-.88.9-2.74.49-4.47-.2a17,17,0,0,1-5.51-3.64c-3.23-3.17-9.78-9.85-10.43-12.51-.37-1.54.93-2,2.76-1.87a30.48,30.48,0,0,1,7.36,1.69c3,1,7-1.41,7-1.41a5.4,5.4,0,0,1,.54-1.47,3.33,3.33,0,0,1,2.2-1.84c1.44-.29,2.18,2.51,2.52,4.55a2.17,2.17,0,0,0,0,.25c.16,1,.22,1.79.22,1.79,2.55-.17,3.64,3.53,3.5,5.42s.74,1.91.74,1.91Z" transform="translate(-1 -1.78)"/><path class="cls-12" d="M248.17,241.74s.8,1.37-1.07,3.31c-.88.9-2.74.49-4.47-.2a16.83,16.83,0,0,1-5.51-3.65c-3.23-3.16-9.78-9.84-10.43-12.5-.37-1.54.93-2,2.76-1.87.16,1.55.56,3.67,1.53,4.8,1.66,1.92,6.38,8.39,12.29,8.46a9.26,9.26,0,0,1,5.12,1.47Z" transform="translate(-1 -1.78)"/><path class="cls-8" d="M237.48,235.62s5.7-4.36,10.49-2.39C248,233.23,243.75,232.89,237.48,235.62Z" transform="translate(-1 -1.78)"/><path class="cls-8" d="M243.94,234.58a58.34,58.34,0,0,0,6.54,1.72C251.56,236.31,244.87,234.16,243.94,234.58Z" transform="translate(-1 -1.78)"/><path class="cls-8" d="M323.54,247.65s6.55.14,6.76,1.62-2.45,1.4-2.45,1.4Z" transform="translate(-1 -1.78)"/><path class="cls-11" d="M336.24,266.86l0,.24s1.41,0,2,2.36c.27,1.11-.91,2.31-2.25,3.31a14.91,14.91,0,0,1-5.36,2.48c-3.92,1-12.07,2.78-14.38,2-1.35-.44-1.05-1.63-.12-3a27.19,27.19,0,0,1,4.75-4.78c2.17-1.77,2.21-5.94,2.21-5.94s-1.92-1.75-1.22-3.65,6.31,1,6.31,1c1.06-2,4.38-1.1,5.75-.1s1.79.34,1.79.34Z" transform="translate(-1 -1.78)"/><path class="cls-12" d="M336.26,267.1s1.41,0,2,2.36c.27,1.11-.91,2.31-2.25,3.31a14.91,14.91,0,0,1-5.36,2.48c-3.92,1-12.07,2.78-14.38,2-1.35-.44-1.05-1.63-.12-3a8.47,8.47,0,0,0,4.36,1.1c2.23-.36,9.36-.89,12.21-5.33a8.13,8.13,0,0,1,3.53-3.19Z" transform="translate(-1 -1.78)"/><path class="cls-8" d="M326.59,272.34s-.63-6.38,3.12-9.09C329.71,263.25,327.47,266.3,326.59,272.34Z" transform="translate(-1 -1.78)"/><path class="cls-8" d="M328.84,266.94a48.58,48.58,0,0,0,4.38-4.14C333.74,262,329,266,328.84,266.94Z" transform="translate(-1 -1.78)"/><path class="cls-8" d="M320.31,172.1s-5,2.58-8.59,1.56S320.31,172.1,320.31,172.1Z" transform="translate(-1 -1.78)"/><path class="cls-8" d="M322.08,177.28s-.78,1.4-5.66,1.06S322.08,177.28,322.08,177.28Z" transform="translate(-1 -1.78)"/><g class="cls-13"><path d="M306.26,112.48l.21-.28c.15-.22.29-.44.42-.67A8.69,8.69,0,0,0,306.26,112.48Z" transform="translate(-1 -1.78)"/><path d="M304.2,117.27a2.37,2.37,0,0,1-2.24-1.52c-.41-.86-.51-1.84-.89-2.7a1.32,1.32,0,0,0-.65-.76c-.59-.23-1.19.32-1.58.81s-1,1-1.58.82a1.54,1.54,0,0,1-.74-.77,8.13,8.13,0,0,1-1.29-3.53,14.43,14.43,0,0,0,0-1.86,3.92,3.92,0,0,0-1.9-2.6,23.66,23.66,0,0,0-3-1.47,4,4,0,0,1-1.42-1c-.37-.44-1.23-.39-1-.91.17-.34.37-.67.56-1a13.84,13.84,0,0,0-1.14,1.88c-.22.52.63.47,1,.91a4.12,4.12,0,0,0,1.43,1,24.31,24.31,0,0,1,3,1.47,4,4,0,0,1,1.9,2.61,16.49,16.49,0,0,1,0,1.86,8.13,8.13,0,0,0,1.29,3.53,1.54,1.54,0,0,0,.74.77c.6.22,1.18-.33,1.57-.82s1-1,1.59-.81a1.32,1.32,0,0,1,.65.76c.37.87.48,1.84.88,2.7a2.39,2.39,0,0,0,2.25,1.52,2,2,0,0,0,1.37-1,2.52,2.52,0,0,0,.15-.34A1.75,1.75,0,0,1,304.2,117.27Z" transform="translate(-1 -1.78)"/></g><path class="cls-8" d="M292,121.82s4.24-.21,7.06-.11,7-2.18,7-2.18" transform="translate(-1 -1.78)"/><path class="cls-14" d="M116.92,151.29c-.43-2.17-4.44-1.82-7.36-1.26l-.71.15.21-.87-1.37-.57a36.58,36.58,0,0,0-8.41-2.33c-4.22-.63-10.91-2-15-4.62-3.74-2.39-5.24-3.08-6.28-3.72v-.57c0-1.06-.07-2-.15-2.91a11.83,11.83,0,0,0-.46-2.37c-.88-2.9-2.85-3.83-4.82-5.65a18.16,18.16,0,0,0-4.35-3,11.79,11.79,0,0,1,.83-2.79c.06-.13.12-.27.17-.4s0,0,0,0,.12-.28.18-.4A9.09,9.09,0,0,0,74.13,112a9,9,0,0,0-2.66-6.38l-.45-.41.43-.14c.91-.32,1.9-1.21,1.63-2H73a.9.9,0,0,0,0-.16,1.85,1.85,0,0,1-1.11-.41c-.42-.52-.55-1.31-1.33-2a3.41,3.41,0,0,0-.57-.5A5.18,5.18,0,0,0,68,99.18l.17.11.12.09c-1.54-.37-3.28-.31-4.75-.94a7.64,7.64,0,0,1-1-.56l.19.05c-.79-.45-1.5-1-2.32-1.47A6.43,6.43,0,0,0,59,95.94l.37.22a8.56,8.56,0,0,0-6.37,1,14,14,0,0,0-5.06,5.72,24.36,24.36,0,0,0-2.83,12.27c.07,2.06.4,4.2-.37,6.13-.64,1.62-2,2.91-2.78,4.46-3.1,6,2.6,13.8-.89,19.61-1.26,2.1-3.52,3.49-5.06,5.42s-2.09,5.05,0,6.5c1.47,1.05,3.56.71,5.32,1.24a8.46,8.46,0,0,1-2.51,4.74l-.29-.06-.19.19.27.07-.11.1a28.75,28.75,0,0,0,5.89,1,9.39,9.39,0,0,0,5.18-.78,7,7,0,0,0,2-1.73c0,.37,0,.7.05,1a20.09,20.09,0,0,0,.57,4c1.71,6.18-3.67,11-3.67,11a17.82,17.82,0,0,0-1.81,8.64h0a17.78,17.78,0,0,0,1.11,5.29l.15.4c.1.26.2.51.31.74s.31.68.47,1,.21.4.31.58a13.38,13.38,0,0,0,1.18,1.81c.54-.37,1.09-.72,1.63-1v.66c0,2.28-.19,5.15-.19,5.15s-1.71,6.1-1.88,7.85S49,221.82,49,221.82s-2.3,7-6.56,11.27-3.31,16.44-3.31,16.44-3,10.27-2,10.77a1.1,1.1,0,0,0,.51,0v.41c-1.84,1.28-3.24,2.31-3.24,2.31s-.51,8.43-1.19,10.06.85,3.55.85,3.55,15.17-.42,16.49-.5a22,22,0,0,0,4.73-1.63c1.8-.4,7.22-2.51,9.19-4.48a2.79,2.79,0,0,0,.69-.94c.94-2.33-7.54-.58-9.84-.58s-2.56-1.75-3.63-3.09-.29-3.55-.29-3.55l-.22-6.25,1-.41s1.36-5.34,3.58-7.93S61.9,234.86,62,234.36s.17-1.42,1.79-3.68S67,223.6,67,223.6s3.68-11.52,6.48-17.45c1.72-3.62,2.68-10,3.16-14.49.53.15,1,.32,1.56.52,0,0,.79-5,1.1-10.8a60.38,60.38,0,0,0-.07-8.82c-.45-4.78-3.24-14-3.07-22.66.67.44,1.32.85,1.91,1.22,0-.22,0-.43,0-.65,1.51.94,2.6,1.58,2.6,1.58s9,5,17,5.09,9.29,1,9.29,1l.5-2.07.71-.13C111.48,155.3,117.41,153.78,116.92,151.29Z" transform="translate(-1 -1.78)"/><path class="cls-15" d="M74,103.42l-.41-.3a.92.92,0,0,1,.17.29Z" transform="translate(-1 -1.78)"/><path class="cls-16" d="M73.09,103.07h.25l-.23-.17h.06l-.41-.3a.78.78,0,0,1,.16.28H73A.77.77,0,0,1,73.09,103.07Z" transform="translate(-1 -1.78)"/><rect class="cls-17" x="54.21" y="116.39" width="6.56" height="10.24"/><rect class="cls-8" x="54.21" y="116.39" width="6.56" height="10.24"/><rect class="cls-18" x="37.66" y="253.66" width="5.96" height="8.03"/><path class="cls-19" d="M55.94,118.32c1.6.61,3.4,3.85,3.49,6.54,0,1.22-1.39,3.29-1.39,3.29l1.47-.17,2.77-.39c.87-.13,1.77-.28,2.63-.44,2.34-.43,4.26-1,3.73-1.43a1.44,1.44,0,0,1-.25-1.24,12.22,12.22,0,0,1,.81-2.77c.12-.29.24-.57.37-.85.54-1.23,1.06-2.2,1.06-2.2s-5-.37-9.19-.54c-1.43-.07-2.77-.11-3.79-.11h-.4C56,118,55.37,118.1,55.94,118.32Z" transform="translate(-1 -1.78)"/><path class="cls-20" d="M77,187.23s-.73,13.33-3.47,19.21-6.3,17.31-6.3,17.31a35.14,35.14,0,0,1-3.15,7c-1.57,2.24-1.65,3.15-1.74,3.65s-3.89,10.27-6,12.83-3.48,7.87-3.48,7.87-9.44,4-10.43,3.48S44.26,248,44.26,248s-.91-12.09,3.23-16.32,6.38-11.17,6.38-11.17.66-10.77.83-12.51,1.82-7.79,1.82-7.79.49-6.38-.08-7.62S77,187.23,77,187.23Z" transform="translate(-1 -1.78)"/><path class="cls-21" d="M77,187.23s-.73,13.33-3.47,19.21-6.3,17.31-6.3,17.31a35.14,35.14,0,0,1-3.15,7c-1.57,2.24-1.65,3.15-1.74,3.65s-3.89,10.27-6,12.83-3.48,7.87-3.48,7.87-9.44,4-10.43,3.48S44.26,248,44.26,248s-.91-12.09,3.23-16.32,6.38-11.17,6.38-11.17.66-10.77.83-12.51,1.82-7.79,1.82-7.79.49-6.38-.08-7.62S77,187.23,77,187.23Z" transform="translate(-1 -1.78)"/><path class="cls-3" d="M51.71,254.64l.25,7.17s-.73,2.2.29,3.52,1.28,3.06,3.52,3.06,10.48-1.74,9.56.58-8.65,5.3-9.93,5.38-16,.5-16,.5-1.49-1.9-.83-3.52,1.16-10,1.16-10S51.22,252.63,51.71,254.64Z" transform="translate(-1 -1.78)"/><path class="cls-21" d="M51.78,254.58l.24,7.17s-.73,2.2.29,3.51,1.29,3.07,3.52,3.07,10.48-1.74,9.57.58-8.66,5.3-9.93,5.38-16,.5-16,.5-1.47-1.9-.83-3.52,1.15-10,1.15-10S51.28,252.55,51.78,254.58Z" transform="translate(-1 -1.78)"/><path class="cls-20" d="M38.16,260.17c1,.49,10.42-3.5,10.42-3.5s1.33-5.3,3.48-7.87,6-12.34,6-12.83.16-1.41,1.74-3.65a35.76,35.76,0,0,0,3.15-7s3.56-11.43,6.29-17.31c1.9-4.08,2.83-11.77,3.24-16.07.17-1.89.24-3.14.24-3.14s-21.12,4.05-20.54,5.3a8,8,0,0,1,.27,2.51c0,2.26-.19,5.11-.19,5.11s-1.66,6-1.82,7.78S49.66,222,49.66,222s-2.23,7-6.38,11.18-3.23,16.32-3.23,16.32S37.18,259.67,38.16,260.17Z" transform="translate(-1 -1.78)"/><path class="cls-8" d="M60.35,202.94s-4.3-1.16-5.79.16S60.35,202.94,60.35,202.94Z" transform="translate(-1 -1.78)"/><path class="cls-8" d="M60.27,208.4s-6.79-1.47-6.87.66S60.27,208.4,60.27,208.4Z" transform="translate(-1 -1.78)"/><path class="cls-8" d="M57.54,214.37s-2.34,2-3.81,1.32S57.54,214.37,57.54,214.37Z" transform="translate(-1 -1.78)"/><path class="cls-8" d="M51.25,225.13s4.72,1.74,3.64,3.56-1.91,2.08-2.32,1.58S51.25,225.13,51.25,225.13Z" transform="translate(-1 -1.78)"/><path class="cls-3" d="M47.52,256.19l.25,7.16s-.74,2.21.29,3.52,1.28,3.07,3.52,3.07,10.47-1.74,9.56.58-8.65,5.3-9.93,5.38-16,.5-16,.5-1.49-1.91-.82-3.52,1.15-10,1.15-10S47,254.16,47.52,256.19Z" transform="translate(-1 -1.78)"/><path class="cls-8" d="M45.12,265.8s-.21,1.41-4.64,0S45.12,265.8,45.12,265.8Z" transform="translate(-1 -1.78)"/><path class="cls-8" d="M37,266.83s-1,1.37,2.53,2S37,266.83,37,266.83Z" transform="translate(-1 -1.78)"/><path class="cls-8" d="M38,265.75s3.48,3,4.56,3" transform="translate(-1 -1.78)"/><path class="cls-8" d="M57.22,118c1.53,2.79,4.35,2.31,7.91,4.68,1.22.81,2.85-.35,4.07-1,.64-1.6,1.42-3.06,1.42-3.06S61,118,57.22,118Z" transform="translate(-1 -1.78)"/><path class="cls-19" d="M56.11,113a9,9,0,1,0,0-.09Z" transform="translate(-1 -1.78)"/><path class="cls-8" d="M52.24,194.07a8.36,8.36,0,0,1,.28,2.52,30.48,30.48,0,0,1,20-4.67c.17-1.9.24-3.15.24-3.15S51.66,192.83,52.24,194.07Z" transform="translate(-1 -1.78)"/><path class="cls-22" d="M47.51,187.24a18.12,18.12,0,0,0,3.4,9.73c14.35-9.93,27.17-4.38,27.17-4.38s.76-5,1.06-10.72a62.33,62.33,0,0,0-.07-8.75c-.46-5-3.5-15.11-2.92-24.1.26-4,1.79-7.64,1.73-10.69,0-1.05,0-2-.13-2.89a13.36,13.36,0,0,0-.45-2.35c-.85-2.88-2.77-3.8-4.69-5.6a17.31,17.31,0,0,0-4.23-3c-3.11-1.52-6.25-1.52-8.95.38A10.85,10.85,0,0,0,58,126.07a12.75,12.75,0,0,0-1.51,1.84l-.21.32a11.57,11.57,0,0,0-1.11,3.14,124.63,124.63,0,0,0-2,14.25s-1.41,10.89-1,18.13a19.78,19.78,0,0,0,.56,4c1.66,6.13-3.56,10.94-3.56,10.94A17.88,17.88,0,0,0,47.51,187.24Z" transform="translate(-1 -1.78)"/><path class="cls-19" d="M105.08,157s.87-.13,2.11-.37c3.24-.65,9-2.15,8.54-4.62-.42-2.15-4.31-1.81-7.15-1.25a30,30,0,0,0-3,.73Z" transform="translate(-1 -1.78)"/><path class="cls-8" d="M62.19,139.94c1.74,1.32,6,5,9.36,7.54,1.87,1.44,4.47,3.15,6.38,4.37.26-4,.44-7.73.39-10.76-1.3-1.05-1.74-2.42-3.7-4.71-3.48-4-9.69-5.47-9.69-5.47C60.8,130,60.46,138.6,62.19,139.94Z" transform="translate(-1 -1.78)"/><path class="cls-8" d="M105.08,157s.87-.13,2.11-.37l1.39-5.88a30,30,0,0,0-3,.73Z" transform="translate(-1 -1.78)"/><path class="cls-18" d="M64.94,130.25s6.21,1.4,9.69,5.47,2.21,2.2,9.36,6.87c4,2.61,10.5,3.95,14.6,4.58a34.63,34.63,0,0,1,8.17,2.31l1.33.56L106,158.83s-1.33-.91-9-1-16.48-5.06-16.48-5.06-5.63-3.39-9-6-7.62-6.22-9.37-7.54S60.8,129.34,64.94,130.25Z" transform="translate(-1 -1.78)"/><path class="cls-8" d="M55.2,132c1.21.73,2.67.43,4.42-1.73,4.7-5.87,12.5,0,17.68,3.45-.84-2.88-2.76-3.81-4.68-5.61-5.55-5.22-11.77-5.86-16.1.42l-.22.33A11.16,11.16,0,0,0,55.2,132Z" transform="translate(-1 -1.78)"/><path class="cls-22" d="M55.2,131.38c1.21.73,2.67.43,4.42-1.74l.13-.16a6.54,6.54,0,0,1,2.53-1.89,6.39,6.39,0,0,1,2.63-.44c4.15.14,8.88,3.59,12.39,5.94-.84-2.88-2.76-3.8-4.68-5.6a17.5,17.5,0,0,0-4.23-3c-3.11-1.52-6.25-1.52-9,.38A10.22,10.22,0,0,0,58,126.07a12.75,12.75,0,0,0-1.51,1.84,3.62,3.62,0,0,0-.22.32A11.37,11.37,0,0,0,55.2,131.38Z" transform="translate(-1 -1.78)"/><path class="cls-8" d="M47.51,186.58a18.12,18.12,0,0,0,3.4,9.73c14.35-9.93,27.17-4.39,27.17-4.39s.76-5,1.06-10.71c-5.46-.05-21,.08-26.24,2.94A34.32,34.32,0,0,1,47.51,186.58Z" transform="translate(-1 -1.78)"/><path class="cls-18" d="M47.51,187.24a18.12,18.12,0,0,0,3.4,9.73c14.35-9.93,27.17-4.38,27.17-4.38s.76-5,1.06-10.72c-5.46-.05-21,.08-26.24,2.94A33.43,33.43,0,0,1,47.51,187.24Z" transform="translate(-1 -1.78)"/><path class="cls-8" d="M74.05,104.52l-.4-.3a.75.75,0,0,1,.16.29Z" transform="translate(-1 -1.78)"/><path class="cls-8" d="M52.26,163.76a10.9,10.9,0,0,0,1.32-1.64c3.47-5.12,4.18-11.68,2.83-17.66a7.15,7.15,0,0,1-.2-4c.65-1.76,2.71-2.67,3.65-4.31,1.14-2,.35-4.41-.11-6.67a2,2,0,0,0,0-.26c-.09-.41-.15-.83-.2-1.24a17.26,17.26,0,0,1,.77-7.38l.12-.36a11.59,11.59,0,0,1,1-2.13,6.13,6.13,0,0,1,3.6-2.9,3.06,3.06,0,0,0,1.24-.46c.93-.82-.13-2.21-.34-3.41-.26-1.41.84-2.75,2.13-3.44a19.17,19.17,0,0,1,3.53-1.23A9,9,0,0,0,57.62,118h-.4c-1.24,0-1.84.1-1.28.32,1.6.61,2,5,2.08,7.74a13.93,13.93,0,0,0-1.51,1.84l-.21.33a11.44,11.44,0,0,0-1.11,3.14,124.63,124.63,0,0,0-2,14.25S51.82,156.51,52.26,163.76Z" transform="translate(-1 -1.78)"/><path class="cls-17" d="M73,103.89c.67.8-.43,1.87-1.43,2.23a29.47,29.47,0,0,0-4.18,1.45c-1.3.71-2.39,2-2.14,3.44.22,1.2,1.28,2.58.34,3.41a2.88,2.88,0,0,1-1.24.47c-2.33.59-3.82,2.82-4.61,5a17.11,17.11,0,0,0-.7,9c.45,2.33,1.35,4.86.17,6.94-.94,1.64-3,2.55-3.66,4.31a7.07,7.07,0,0,0,.21,4c1.35,6,.64,12.53-2.83,17.65a8,8,0,0,1-2.67,2.67,9,9,0,0,1-5,.78,27.26,27.26,0,0,1-5.73-1,8.47,8.47,0,0,0,2.75-5c-1.71-.53-3.73-.19-5.17-1.23-2-1.44-1.45-4.54,0-6.45s3.68-3.31,4.92-5.38c3.39-5.76-2.15-13.5.86-19.45.78-1.55,2.08-2.82,2.7-4.41.74-1.92.43-4,.35-6.09A24.67,24.67,0,0,1,48.7,104a13.82,13.82,0,0,1,4.91-5.67A7.76,7.76,0,0,1,61,97.81c1,.52,1.84,1.31,2.89,1.77,2,.88,4.55.41,6.32,1.67s1,2.9,3.18,3" transform="translate(-1 -1.78)"/><path class="cls-8" d="M63.93,166.55c-.86.43-2.58,4.32-6.47,7.12S63.93,166.55,63.93,166.55Z" transform="translate(-1 -1.78)"/><path class="cls-8" d="M65.65,158.79s-5,10.35-10.77,11.86S65.65,158.79,65.65,158.79Z" transform="translate(-1 -1.78)"/><path class="cls-8" d="M74.82,183.92s-1.65,5.19-1.32,5.63S74.82,183.92,74.82,183.92Z" transform="translate(-1 -1.78)"/><path class="cls-8" d="M71.62,184.14s-1.66,5.19-1.33,5.63S71.62,184.14,71.62,184.14Z" transform="translate(-1 -1.78)"/><path class="cls-8" d="M68,184s-1.66,5.19-1.33,5.63S68,184,68,184Z" transform="translate(-1 -1.78)"/><path class="cls-8" d="M50.29,188.13s1.06,5.35,1.56,5.57S50.29,188.13,50.29,188.13Z" transform="translate(-1 -1.78)"/><path class="cls-8" d="M56.47,185.81s1.06,5.35,1.57,5.57S56.47,185.81,56.47,185.81Z" transform="translate(-1 -1.78)"/><path class="cls-8" d="M52.94,187.36s1.06,5.34,1.57,5.57S52.94,187.36,52.94,187.36Z" transform="translate(-1 -1.78)"/><path class="cls-8" d="M84.21,145.43c-.28.06.83,2.71-2.32,2.87S84.21,145.43,84.21,145.43Z" transform="translate(-1 -1.78)"/><path class="cls-8" d="M105.35,152.11s-1.21,2.54-3.2,3S105.35,152.11,105.35,152.11Z" transform="translate(-1 -1.78)"/><path class="cls-8" d="M95.8,150.51s2.65,2.76-1,3.37S95.8,150.51,95.8,150.51Z" transform="translate(-1 -1.78)"/><path class="cls-8" d="M74.77,139.91s-5.42-1.66-6.26-.44S74.77,139.91,74.77,139.91Z" transform="translate(-1 -1.78)"/><path class="cls-8" d="M65.29,146.69c-.86.43-2.57,4.31-6.47,7.12S65.29,146.69,65.29,146.69Z" transform="translate(-1 -1.78)"/><g class="cls-13"><path d="M62.07,98.74a27.24,27.24,0,0,1-2.62-1.63,6.29,6.29,0,0,1,1.39.52c.79.41,1.49,1,2.25,1.44A6.07,6.07,0,0,1,62.07,98.74Z" transform="translate(-1 -1.78)"/><path d="M73.23,104H73a1,1,0,0,0-.16-.29Z" transform="translate(-1 -1.78)"/><path d="M40.42,158.37c0,.11-.05.22-.07.34a7,7,0,0,1-3.43-.9A34.45,34.45,0,0,1,40.42,158.37Z" transform="translate(-1 -1.78)"/><path d="M43.4,164.4a9,9,0,0,0,5-.77A8.11,8.11,0,0,0,51.1,161c3.46-5.12,4.17-11.68,2.83-17.66a7.06,7.06,0,0,1-.21-4c.66-1.76,2.72-2.67,3.65-4.31,1.19-2.07.29-4.61-.16-6.93a17.11,17.11,0,0,1,.7-9c.79-2.21,2.27-4.42,4.61-5a2.88,2.88,0,0,0,1.24-.47c.93-.81-.12-2.2-.34-3.4-.25-1.41.84-2.75,2.14-3.45a31.08,31.08,0,0,1,4.17-1.44c.89-.32,1.84-1.2,1.6-2h.23l-.4-.3a.85.85,0,0,1,.17.29c-1.92-.17-1.24-1.71-3-3l-.16-.1a5,5,0,0,1,1.84.77c1.7,1.22,1,2.77,2.94,2.94.26.73-.71,1.63-1.59,2a29.91,29.91,0,0,0-4.18,1.45c-1.29.71-2.38,2-2.13,3.44.21,1.2,1.27,2.57.34,3.41a2.79,2.79,0,0,1-1.24.46c-2.34.6-3.82,2.82-4.61,5a17,17,0,0,0-.71,9c.45,2.32,1.36,4.86.17,6.93-.94,1.64-3,2.55-3.65,4.31a7.06,7.06,0,0,0,.21,4c1.34,6,.63,12.53-2.84,17.66a8.11,8.11,0,0,1-2.67,2.67,9,9,0,0,1-5,.77,27.05,27.05,0,0,1-5.72-1l.19-.19A26.4,26.4,0,0,0,43.4,164.4Z" transform="translate(-1 -1.78)"/></g><path class="cls-2" d="M299.71,25.23s-31-1.87-27.32,19.84a5.26,5.26,0,0,0,2.75,5.57s.06-1.61,3.18-1.06a14.55,14.55,0,0,0,3.36.16A7,7,0,0,0,285.8,48h0s8.7-3.59,12.09-17.82c0,0,2.5-3.1,2.4-3.9l-5.22,2.23s1.78,3.77.36,6.9c0,0-.16-6.76-1.17-6.62-.2,0-2.72,1.31-2.72,1.31s3.08,6.56.74,11.34c0,0,.88-8.09-1.71-10.87l-3.68,2.15s3.59,6.78,1.16,12.32c0,0,.62-8.49-1.93-11.8l-3.33,2.6s3.41,6.72,1.34,11.29c0,0-.27-9.88-2-10.63,0,0-2.91,2.58-3.36,3.63,0,0,2.31,4.85.88,7.42,0,0-.88-6.59-1.6-6.62,0,0-2.91,4.36-3.21,7.35a15.84,15.84,0,0,1,2.5-7.77,8.71,8.71,0,0,0-4.45,2.31s.46-3.09,5.15-3.36c0,0,2.4-3.31,3.05-3.51,0,0-4.69-.39-7.54.87,0,0,2.51-2.91,8.4-1.59l3.31-2.68s-6.18-.85-8.79.09c0,0,3-2.58,9.67-.7l3.59-2.15s-5.27-1.13-8.4-.73c0,0,3.31-1.79,9.44.15l2.58-1.15s-3.86-.76-5-.88-1.19-.43-1.19-.43a13.3,13.3,0,0,1,7.25.81S299.81,25.57,299.71,25.23Z" transform="translate(-1 -1.78)"/><path class="cls-2" d="M267.94,15.58s-14-.85-12.34,9a2.39,2.39,0,0,0,1.24,2.52s0-.74,1.44-.48a6.44,6.44,0,0,0,1.52.08,3.29,3.29,0,0,0,1.84-.77h0s3.93-1.63,5.46-8.06c0,0,1.13-1.4,1.1-1.76l-2.36,1A4.24,4.24,0,0,1,266,20.2s-.08-3.06-.53-3c-.1,0-1.23.59-1.23.59s1.38,3,.34,5.13c0,0,.4-3.66-.78-4.91l-1.66,1s1.62,3.06.52,5.57c0,0,.29-3.84-.87-5.33l-1.5,1.17s1.52,3,.59,5.09c0,0-.12-4.46-.92-4.78a9.07,9.07,0,0,0-1.52,1.64s1.05,2.21.4,3.35c0,0-.4-3-.74-3A10,10,0,0,0,256.67,26a7.19,7.19,0,0,1,1.14-3.51,3.93,3.93,0,0,0-2,1s.21-1.39,2.34-1.51a8.77,8.77,0,0,1,1.38-1.59,8.64,8.64,0,0,0-3.41.39s1.13-1.31,3.79-.73l1.49-1.22a12.71,12.71,0,0,0-4,.05s1.36-1.17,4.37-.32l1.62-1a14.9,14.9,0,0,0-3.8-.33s1.5-.81,4.28.07l1.15-.52s-1.74-.34-2.25-.4-.54-.19-.54-.19a6,6,0,0,1,3.28.37A13.32,13.32,0,0,0,267.94,15.58Z" transform="translate(-1 -1.78)"/><ellipse class="cls-1" cx="389.09" cy="264.83" rx="9.91" ry="1.67"/><ellipse class="cls-1" cx="11.59" cy="292.67" rx="9.91" ry="1.67"/><ellipse class="cls-1" cx="69.09" cy="294.77" rx="9.91" ry="1.67"/><ellipse class="cls-2" cx="367.41" cy="282.77" rx="14.79" ry="2.5"/><path class="cls-2" d="M374.53,280.45a4.38,4.38,0,0,0,1.41-2.12,1.9,1.9,0,0,0-1-2.17c-.9-.35-1.87.28-2.6.91a3.51,3.51,0,0,1-2.54,1.23,3.86,3.86,0,0,0,1.2-3.61,1.57,1.57,0,0,0-.34-.74c-.5-.54-1.41-.3-2,.12-1.91,1.34-2.44,3.94-2.46,6.28a11.7,11.7,0,0,1,0-2.58,2.64,2.64,0,0,0-1-2.28,2.92,2.92,0,0,0-1.47-.37,3,3,0,0,0-2.41.68,2.37,2.37,0,0,0,.1,2.94,9.18,9.18,0,0,0,2.49,2,5.49,5.49,0,0,1,1.77,1.69,1.2,1.2,0,0,1,.13.31h5.4A15.11,15.11,0,0,0,374.53,280.45Z" transform="translate(-1 -1.78)"/><path class="cls-2" d="M17.21,249.61s2,2.64-.93,6.62-5.39,7.36-4.42,9.85c0,0,4.46-7.41,8.1-7.51S21.2,254.07,17.21,249.61Z" transform="translate(-1 -1.78)"/><path class="cls-8" d="M17.21,249.61a3.38,3.38,0,0,1,.41.83c3.54,4.16,5.43,8,2,8.14-3.16.08-7,5.75-7.88,7.18,0,.11.07.22.11.33s4.46-7.41,8.09-7.51S21.2,254.07,17.21,249.61Z" transform="translate(-1 -1.78)"/><path class="cls-23" d="M21,253c0,.93-.1,1.69-.23,1.69s-.23-.74-.23-1.69.13-.49.26-.49S21,252.05,21,253Z" transform="translate(-1 -1.78)"/><path class="cls-23" d="M22.25,254.1c-.81.44-1.53.71-1.59.6s.55-.57,1.37-1,.5-.12.56,0S23.07,253.64,22.25,254.1Z" transform="translate(-1 -1.78)"/><path class="cls-2" d="M6.53,249.61s-2,2.64.94,6.62,5.39,7.36,4.41,9.85c0,0-4.45-7.41-8.09-7.51S2.55,254.07,6.53,249.61Z" transform="translate(-1 -1.78)"/><path class="cls-8" d="M6.53,249.61a3.77,3.77,0,0,0-.41.83c-3.54,4.16-5.42,8-2,8.14,3.17.08,7,5.75,7.88,7.18a2.13,2.13,0,0,1-.11.33s-4.45-7.41-8.09-7.51S2.55,254.07,6.53,249.61Z" transform="translate(-1 -1.78)"/><path class="cls-23" d="M2.78,253c0,.93.1,1.69.23,1.69s.24-.74.24-1.69-.14-.49-.27-.49S2.78,252.05,2.78,253Z" transform="translate(-1 -1.78)"/><path class="cls-23" d="M1.5,254.1c.82.44,1.53.71,1.59.6s-.55-.57-1.37-1-.49-.12-.55,0S.67,253.64,1.5,254.1Z" transform="translate(-1 -1.78)"/><path class="cls-24" d="M3.42,265.74s5.65-.17,7.36-1.38,8.69-2.66,9.11-.7,8.5,9.67,2.11,9.72-14.82-1-16.51-2S3.42,265.74,3.42,265.74Z" transform="translate(-1 -1.78)"/><path class="cls-25" d="M22.1,272.69c-6.38.05-14.82-1-16.52-2-1.29-.79-1.81-3.62-2-4.93H3.41s.37,4.56,2.06,5.6,10.14,2.08,16.52,2c1.84,0,2.48-.67,2.44-1.64C24.19,272.31,23.48,272.68,22.1,272.69Z" transform="translate(-1 -1.78)"/></svg>