<svg id="Layer_1" data-name="Layer 1" xmlns="http://www.w3.org/2000/svg" xmlns:xlink="http://www.w3.org/1999/xlink" viewBox="0 0 380.89 196.41"><defs><style>.cls-1,.cls-6{fill:#5a0fc8;}.cls-2{fill:#fff;}.cls-11,.cls-3{fill:#a4c639;}.cls-4,.cls-9{fill:#e44d26;}.cls-5{fill:none;stroke:#a4c639;stroke-linecap:round;stroke-linejoin:round;stroke-width:3px;}.cls-11,.cls-14,.cls-6,.cls-9{font-size:12px;font-family:Montserrat-Bold, Montserrat;font-weight:700;}.cls-7{letter-spacing:-0.02em;}.cls-8{letter-spacing:-0.04em;}.cls-10{letter-spacing:0em;}.cls-12{letter-spacing:-0.02em;}.cls-13,.cls-14{fill:#666;}.cls-15{letter-spacing:-0.01em;}.cls-16{letter-spacing:-0.01em;}</style></defs><title>why-1</title><path class="cls-1" d="M94.7,137h-.76V113.61c0-7.51-6.56-13.6-14.64-13.6H25.64C17.56,100,11,106.1,11,113.61h0V242.52c0,7.51,6.56,13.59,14.64,13.59H79.3c8.08,0,14.64-6.08,14.64-13.59V153.61h.76Z" transform="translate(-9.53 -59.7)"/><path class="cls-2" d="M90.66,112.68V242.22c0,5.6-4.89,10.15-10.93,10.15H26c-6,0-10.94-4.55-10.94-10.15V112.68c0-5.06,4.42-9.15,9.86-9.15h7.59a4.62,4.62,0,0,0,.23,4.14A5.31,5.31,0,0,0,37,110.08H68.26a5.29,5.29,0,0,0,4.26-2.41,4.62,4.62,0,0,0,.23-4.14h8.06C86.25,103.53,90.66,107.62,90.66,112.68Z" transform="translate(-9.53 -59.7)"/><path class="cls-3" d="M188.3,137h-.74V113.61c0-7.51-6.44-13.6-14.39-13.6H120.43c-7.94,0-14.39,6.09-14.39,13.6h0V242.52c0,7.51,6.45,13.59,14.39,13.59h52.74c8,0,14.39-6.08,14.39-13.59V153.61h.74Z" transform="translate(-9.53 -59.7)"/><path class="cls-2" d="M184.34,112.68V242.22c0,5.6-4.81,10.15-10.75,10.15H120.75c-5.93,0-10.74-4.55-10.74-10.15V112.68a9.42,9.42,0,0,1,9.68-9.15h7.46a4.71,4.71,0,0,0,.23,4.14,5.21,5.21,0,0,0,4.2,2.41h30.74a5.18,5.18,0,0,0,4.19-2.41,4.71,4.71,0,0,0,.23-4.14h7.91A9.43,9.43,0,0,1,184.34,112.68Z" transform="translate(-9.53 -59.7)"/><path class="cls-4" d="M284.15,137h-.75V113.61c0-7.51-6.5-13.6-14.51-13.6H215.68c-8,0-14.51,6.09-14.51,13.6h0V242.52c0,7.51,6.5,13.59,14.51,13.59h53.21c8,0,14.51-6.08,14.51-13.59V153.61h.75Z" transform="translate(-9.53 -59.7)"/><path class="cls-2" d="M280.15,112.68V242.22c0,5.6-4.85,10.15-10.84,10.15H216c-6,0-10.84-4.55-10.84-10.15V112.68c0-5.06,4.37-9.15,9.77-9.15h7.52a4.68,4.68,0,0,0,.23,4.14,5.27,5.27,0,0,0,4.23,2.41h31a5.25,5.25,0,0,0,4.23-2.41,4.68,4.68,0,0,0,.23-4.14h8C275.78,103.53,280.15,107.62,280.15,112.68Z" transform="translate(-9.53 -59.7)"/><image width="1000" height="377" transform="translate(8.95 102.03) scale(0.07)" xlink:href="../../../../../../../Downloads/1_U01ubQ9TrE1Zow5pkGHTfw.png"/><image width="512" height="512" transform="translate(199.79 84.82) scale(0.13)" xlink:href="../../../../../../../Downloads/PgcSR.png"/><path class="cls-3" d="M135.86,185a4.31,4.31,0,0,1,4.3,4.31v18.48a4.31,4.31,0,1,1-8.61,0V189.3a4.31,4.31,0,0,1,4.31-4.31Z" transform="translate(-9.53 -59.7)"/><path class="cls-3" d="M126,162.76a4.19,4.19,0,0,0,0,.5v28a5.38,5.38,0,0,0,5.35,5.44h28.47a5.38,5.38,0,0,0,5.35-5.44v-28c0-.17,0-.33,0-.5Z" transform="translate(-9.53 -59.7)"/><path class="cls-3" d="M155.29,185a4.31,4.31,0,0,1,4.31,4.31v18.48a4.31,4.31,0,1,1-8.61,0V189.3a4.3,4.3,0,0,1,4.3-4.31Zm-36.22-19.73a4.31,4.31,0,0,1,4.31,4.31v18.48a4.31,4.31,0,0,1-8.62,0V169.57a4.31,4.31,0,0,1,4.31-4.31Zm53,0a4.31,4.31,0,0,1,4.31,4.31v18.48a4.31,4.31,0,0,1-8.62,0V169.57a4.31,4.31,0,0,1,4.31-4.31Zm-45.94-4.33c.12-8.61,7.63-15.66,17.27-16.59h4.33c9.64.93,17.14,8,17.26,16.59Z" transform="translate(-9.53 -59.7)"/><path class="cls-5" d="M127.64,143.51l4.55,7.87m31.32-7.87L159,151.38" transform="translate(-9.53 -59.7)"/><path class="cls-2" d="M139.79,153.22a2.23,2.23,0,0,1-4.46,0h0a2.23,2.23,0,0,1,4.46,0Zm16.64,0a2.23,2.23,0,0,1-4.46,0h0a2.23,2.23,0,0,1,4.46,0Z" transform="translate(-9.53 -59.7)"/><text class="cls-6" transform="translate(24.69 30.2)"><tspan class="cls-7">P</tspan><tspan class="cls-8" x="8.57" y="0">W</tspan><tspan x="22.07" y="0">A</tspan></text><text class="cls-9" transform="translate(200.43 29.2)">Hyb<tspan class="cls-10" x="25.15" y="0">r</tspan><tspan x="30.28" y="0">id App</tspan></text><text class="cls-11" transform="translate(101.99 10.2)">Nati<tspan class="cls-12" x="25.93" y="0">v</tspan><tspan x="32.93" y="0">e App</tspan></text><path class="cls-13" d="M379.2,137h-.75V113.61c0-7.51-6.5-13.6-14.52-13.6h-53.2c-8,0-14.52,6.09-14.52,13.6h0V242.52c0,7.51,6.5,13.59,14.52,13.59h53.2c8,0,14.52-6.08,14.52-13.59V153.61h.75Z" transform="translate(-9.53 -59.7)"/><path class="cls-2" d="M375.2,112.68V242.22c0,5.6-4.86,10.15-10.85,10.15h-53.3c-6,0-10.84-4.55-10.84-10.15V112.68c0-5.06,4.37-9.15,9.77-9.15h7.53a4.65,4.65,0,0,0,.23,4.14,5.24,5.24,0,0,0,4.23,2.41h31a5.24,5.24,0,0,0,4.23-2.41,4.65,4.65,0,0,0,.23-4.14h8C370.82,103.53,375.2,107.62,375.2,112.68Z" transform="translate(-9.53 -59.7)"/><text class="cls-14" transform="translate(280.18 10.2)">C<tspan class="cls-15" x="8.8" y="0">r</tspan><tspan x="13.86" y="0">oss plat</tspan><tspan class="cls-16" x="62.38" y="0">f</tspan><tspan x="66.94" y="0">o</tspan><tspan class="cls-10" x="74.8" y="0">r</tspan><tspan x="79.92" y="0">m </tspan><tspan x="33.38" y="14.4">App</tspan></text><image width="800" height="490" transform="translate(276.12 86.31) scale(0.13)" xlink:href="../../../../../../../Downloads/trustcall-cross-platform.png"/></svg>