<svg id="Layer_1" data-name="Layer 1" xmlns="http://www.w3.org/2000/svg" viewBox="0 0 116.12 260.43"><defs><style>.cls-1{fill:#3f3d56;}.cls-2{opacity:0.1;isolation:isolate;}.cls-3{fill:#6c63ff;}</style></defs><title>why-9</title><path class="cls-1" d="M261,72.43V52.76A45.22,45.22,0,0,1,231.79,31h0a8.65,8.65,0,0,1-5.14,1.69H211A64.5,64.5,0,0,0,261,72.43Z" transform="translate(-144.88 -22.22)"/><path class="cls-1" d="M261,51.64V32.74a10.52,10.52,0,0,0-10.52-10.52H235.31V24a8.6,8.6,0,0,1-2.67,6.26A44.22,44.22,0,0,0,261,51.64Z" transform="translate(-144.88 -22.22)"/><path class="cls-1" d="M188.06,32.71H178.3A8.67,8.67,0,0,1,169.63,24V22.22H155.4a10.52,10.52,0,0,0-10.52,10.52h0V266.92a10.5,10.5,0,0,0,10.5,10.52h95.1a11.17,11.17,0,0,0,1.29-.08A10.54,10.54,0,0,0,261,266.92V94.53A86.55,86.55,0,0,1,188.06,32.71Z" transform="translate(-144.88 -22.22)"/><path class="cls-1" d="M209.85,32.71H189.2A85.45,85.45,0,0,0,261,93.43V73.55A65.62,65.62,0,0,1,209.85,32.71Z" transform="translate(-144.88 -22.22)"/><path class="cls-2" d="M179.31,273.82c.26-.26,6.47-6.55,11.74-21.49,4.84-13.7,9.71-37.59,5.5-73.61-8-68.24,33-111.73,33.37-112.16l-1.21-1.16c-.1.1-10.63,11.17-20,30.6a150.39,150.39,0,0,0-13.83,82.91c8,68.12-16.51,93.47-16.76,93.72Z" transform="translate(-144.88 -22.22)"/><circle class="cls-2" cx="97.61" cy="32.28" r="10.92"/><circle class="cls-2" cx="54.6" cy="63.28" r="10.92"/><circle class="cls-2" cx="71.07" cy="94.96" r="10.92"/><circle class="cls-2" cx="182.83" cy="132.44" r="10.92" transform="translate(-122.07 269.48) rotate(-80.78)"/><circle class="cls-2" cx="65.48" cy="153.26" r="10.92"/><path class="cls-2" d="M172.8,282.65s17-23.52-10.05-50.88Z" transform="translate(-144.88 -22.22)"/><path class="cls-2" d="M186,275.36s11.61-26.59,48.92-17.23Z" transform="translate(-144.88 -22.22)"/><rect class="cls-3" x="12.33" y="177.74" width="91.77" height="18.06"/><path class="cls-3" d="M204,95.23a41.73,41.73,0,0,0-8,82.69l.23,0c1.2.23,2.42.4,3.66.52l.23,0c1.2.11,2.42.17,3.65.17H204c1.24,0,2.46-.06,3.66-.16l.23,0c1.24-.12,2.46-.28,3.66-.51l.23,0A41.73,41.73,0,0,0,204,95.23Z" transform="translate(-144.88 -22.22)"/><path class="cls-1" d="M243.91,137a39.94,39.94,0,0,1-32.48,39.23l-.22,0c-1.15.21-2.31.37-3.5.48l-.22,0c-1.15.1-2.32.15-3.5.15h-.22c-1.17,0-2.34-.06-3.5-.17l-.21,0c-1.19-.12-2.35-.28-3.5-.5l-.22,0A39.92,39.92,0,1,1,243.91,137Z" transform="translate(-144.88 -22.22)"/><path class="cls-3" d="M198.35,170.18A1.68,1.68,0,1,1,200,168.5h0A1.68,1.68,0,0,1,198.35,170.18Zm0-3a1.35,1.35,0,1,0,1.35,1.35h0a1.36,1.36,0,0,0-1.35-1.35Z" transform="translate(-144.88 -22.22)"/><rect class="cls-3" x="59.11" y="102.12" width="0.34" height="49.91"/><rect class="cls-3" x="59.11" y="80.72" width="0.34" height="14.72"/><rect class="cls-3" x="41.78" y="106.98" width="0.34" height="49.93"/><rect class="cls-3" x="65.51" y="96.98" width="0.34" height="49.93"/><rect class="cls-3" x="47.5" y="91.43" width="0.34" height="46.35"/><rect class="cls-3" x="53.3" y="78.79" width="0.34" height="64.3"/><rect class="cls-3" x="70.39" y="81.16" width="0.34" height="10.01"/><rect class="cls-3" x="70.39" y="97.85" width="0.34" height="45.76"/><rect class="cls-3" x="76.11" y="90.75" width="0.34" height="5.89"/><rect class="cls-3" x="76.11" y="103.25" width="0.34" height="29.26"/><rect class="cls-3" x="76.11" y="138.5" width="0.34" height="5.11"/><path class="cls-3" d="M192.55,164.81a1.68,1.68,0,1,1,1.68-1.68h0A1.68,1.68,0,0,1,192.55,164.81Z" transform="translate(-144.88 -22.22)"/><path class="cls-3" d="M204,122.4a1.69,1.69,0,1,1,1.69-1.69h0A1.69,1.69,0,0,1,204,122.4Zm0-3a1.35,1.35,0,1,0,1.35,1.34h0A1.34,1.34,0,0,0,204,119.37Z" transform="translate(-144.88 -22.22)"/><path class="cls-3" d="M204.16,103a1.69,1.69,0,1,1,1.68-1.68h0A1.68,1.68,0,0,1,204.16,103Zm0-3a1.35,1.35,0,1,0,1.35,1.35h0A1.35,1.35,0,0,0,204.16,100Z" transform="translate(-144.88 -22.22)"/><path class="cls-3" d="M221.16,159.43a1.69,1.69,0,0,1,0-3.37,1.69,1.69,0,0,1,1.69,1.69h0A1.7,1.7,0,0,1,221.16,159.43Zm0-3a1.35,1.35,0,1,0,1.35,1.35h0A1.34,1.34,0,0,0,221.16,156.4Z" transform="translate(-144.88 -22.22)"/><path class="cls-3" d="M186.82,127a1.69,1.69,0,0,1,0-3.37,1.69,1.69,0,0,1,1.69,1.69h0A1.69,1.69,0,0,1,186.82,127Z" transform="translate(-144.88 -22.22)"/><path class="cls-3" d="M221.16,123.91a1.68,1.68,0,1,1,1.69-1.68h0A1.69,1.69,0,0,1,221.16,123.91Zm0-3a1.35,1.35,0,1,0,1.35,1.35h0A1.35,1.35,0,0,0,221.16,120.88Z" transform="translate(-144.88 -22.22)"/><path class="cls-3" d="M215.44,118.19a1.69,1.69,0,1,1,1.68-1.68h0A1.68,1.68,0,0,1,215.44,118.19Z" transform="translate(-144.88 -22.22)"/></svg>