<svg id="Layer_1" data-name="Layer 1" xmlns="http://www.w3.org/2000/svg" viewBox="0 0 174.99 247"><defs><style>.cls-1{fill:#264de4;}.cls-2{fill:#2965f1;}.cls-3{fill:#ebebeb;}.cls-4{fill:#fff;}</style></defs><title>how-2</title><g id="layer1"><g id="g3013"><polygon id="polygon2989" class="cls-1" points="174.99 48.54 159.05 227.13 87.39 247 15.93 227.16 0 48.54 174.99 48.54"/><polygon id="polygon2991" class="cls-2" points="145.4 215.76 159.02 63.15 87.5 63.15 87.5 231.81 145.4 215.76"/><polygon id="polygon2993" class="cls-3" points="36.51 129.39 38.47 151.3 87.5 151.3 87.5 129.39 36.51 129.39"/><polygon id="polygon2995" class="cls-3" points="87.5 85.05 87.42 85.05 32.56 85.05 34.55 106.96 87.5 106.96 87.5 85.05"/><polygon id="polygon2997" class="cls-3" points="87.5 209.08 87.5 186.29 87.4 186.31 63 179.73 61.44 162.25 49.59 162.25 39.45 162.25 42.52 196.65 87.39 209.11 87.5 209.08"/><path id="path2999" d="M153.52,26h26.53V37.1H164.62V48.19h15.43v11.1H153.52Z" transform="translate(-112.34 -26)"/><path id="path3001" d="M185.36,26h26.53v9.65H196.46v1.93h15.43V59.77H185.36V49.64H200.8V47.71H185.36Z" transform="translate(-112.34 -26)"/><path id="path3003" d="M217.2,26h26.53v9.65H228.3v1.93h15.43V59.77H217.2V49.64h15.44V47.71H217.2Z" transform="translate(-112.34 -26)"/><polygon id="polygon3005" class="cls-4" points="114.4 151.3 111.85 179.71 87.42 186.31 87.42 209.1 132.33 196.65 132.66 192.95 137.81 135.28 138.34 129.39 142.3 85.05 87.42 85.05 87.42 106.96 118.29 106.96 116.3 129.39 87.42 129.39 87.42 151.3 114.4 151.3"/></g></g></svg>