<svg id="Layer_1" data-name="Layer 1" xmlns="http://www.w3.org/2000/svg" xmlns:xlink="http://www.w3.org/1999/xlink" viewBox="0 0 379.44 154.4"><defs><style>.cls-1{fill:#264de4;}.cls-2{fill:#2965f1;}.cls-3{fill:#ebebeb;}.cls-4{fill:#fff;}.cls-5{font-size:96px;font-family:MyriadPro-Regular, Myriad Pro;}.cls-6{fill:lime;}</style></defs><title>what-9</title><g id="layer1"><g id="g3013"><polygon id="polygon2989" class="cls-1" points="48.83 98.5 44.38 148.3 24.4 153.84 4.48 148.31 0.04 98.5 48.83 98.5"/><polygon id="polygon2991" class="cls-2" points="40.58 145.13 44.38 102.58 24.43 102.58 24.43 149.61 40.58 145.13"/><polygon id="polygon2993" class="cls-3" points="10.21 121.05 10.76 127.16 24.43 127.16 24.43 121.05 10.21 121.05"/><polygon id="polygon2995" class="cls-3" points="24.43 108.69 24.41 108.69 9.12 108.69 9.67 114.79 24.43 114.79 24.43 108.69"/><polygon id="polygon2997" class="cls-3" points="24.43 143.27 24.43 136.91 24.41 136.92 17.6 135.08 17.17 130.21 13.86 130.21 11.04 130.21 11.89 139.8 24.41 143.28 24.43 143.27"/><path id="path2999" d="M26.48,157h7.4v3.09h-4.3v3.1h4.3v3.09h-7.4Z" transform="translate(-14.96 -72)"/><path id="path3001" d="M35.36,157h7.4v2.69h-4.3v.54h4.3v6.18h-7.4v-2.82h4.31V163H35.36Z" transform="translate(-14.96 -72)"/><path id="path3003" d="M44.24,157h7.4v2.69H47.33v.54h4.31v6.18h-7.4v-2.82h4.31V163H44.24Z" transform="translate(-14.96 -72)"/><polygon id="polygon3005" class="cls-4" points="31.93 127.16 31.23 135.08 24.41 136.92 24.41 143.28 36.94 139.8 37.03 138.77 38.46 122.69 38.61 121.05 39.71 108.69 24.41 108.69 24.41 114.79 33.02 114.79 32.46 121.05 24.41 121.05 24.41 127.16 31.93 127.16"/></g></g><image width="500" height="500" transform="translate(25.04) scale(0.14)" xlink:href="../../../../../../../Downloads/js-logo.png"/><image width="512" height="512" transform="translate(60.04 84) scale(0.14)" xlink:href="../../../../../../../Downloads/PgcSR.png"/><text class="cls-5" transform="translate(166.59 112.82)">=</text><rect class="cls-6" x="327.01" y="74.41" width="26.47" height="157.43" transform="translate(124.33 -233.26) rotate(33.18)"/><rect class="cls-6" x="269.16" y="154.88" width="26.47" height="77.45" transform="translate(-51.82 245.33) rotate(-55.62)"/><rect class="cls-6" x="77.18" y="86.18" width="8.57" height="50.97" transform="translate(59.44 -98.38) rotate(33.18)"/><rect class="cls-6" x="58.45" y="112.24" width="8.57" height="25.08" transform="translate(-90.64 34.09) rotate(-55.62)"/><rect class="cls-6" x="113.18" y="168.18" width="8.57" height="50.97" transform="translate(110.2 -104.71) rotate(33.18)"/><rect class="cls-6" x="94.45" y="194.24" width="8.57" height="25.08" transform="translate(-142.64 99.49) rotate(-55.62)"/><rect class="cls-6" x="42.18" y="171.18" width="8.57" height="50.97" transform="translate(100.26 -65.36) rotate(33.18)"/><rect class="cls-6" x="23.45" y="197.24" width="8.57" height="25.08" transform="translate(-176.02 42.2) rotate(-55.62)"/></svg>