<svg id="Layer_1" data-name="Layer 1" xmlns="http://www.w3.org/2000/svg" xmlns:xlink="http://www.w3.org/1999/xlink" viewBox="0 0 372.5 265.16"><defs><style>.cls-1,.cls-4{fill:#6c63ff;}.cls-1,.cls-2,.cls-7{opacity:0.1;}.cls-1,.cls-12,.cls-32,.cls-36,.cls-44,.cls-5,.cls-7{isolation:isolate;}.cls-3,.cls-8,.cls-9{fill:none;}.cls-3{stroke:#535461;stroke-width:2px;}.cls-3,.cls-9{stroke-miterlimit:10;}.cls-5{opacity:0.25;}.cls-6{fill:#dea3a2;}.cls-9{stroke:#565987;}.cls-10{fill:#ffd037;}.cls-11{fill:#a8a8a8;}.cls-12,.cls-44{opacity:0.2;}.cls-13{fill:url(#linear-gradient);}.cls-14{fill:url(#linear-gradient-2);}.cls-15{fill:#575a88;}.cls-16{fill:#aac9f5;}.cls-17{fill:#d5838e;}.cls-18{fill:#ffccd0;}.cls-19{fill:#cd828d;}.cls-20{fill:#663d5c;}.cls-21{fill:#f26383;}.cls-22{fill:#ffc1c7;}.cls-23{fill:#ffd6db;}.cls-24{fill:#e4aab4;}.cls-25{fill:#bdd2e8;}.cls-26{fill:#cf6f80;}.cls-27{fill:#575a89;}.cls-28{fill:#512e4e;}.cls-29{fill:#ffceb4;}.cls-30{fill:#f8bda5;}.cls-31{fill:#e8eaf2;}.cls-32{opacity:0.05;}.cls-33{fill:#f1cec8;}.cls-34{fill:#f6e2df;}.cls-35{fill:#fdf9f9;}.cls-36,.cls-43{fill:#42312e;}.cls-36{opacity:0.3;}.cls-37{fill:#ff748e;}.cls-38{fill:#ffedba;}.cls-39,.cls-44{fill:#fff;}.cls-40{fill:#575988;}.cls-41{fill:#b97482;}.cls-42{fill:#d3878a;}.cls-45{fill:#f2dcdc;}</style><linearGradient id="linear-gradient" x1="260.67" y1="-35.69" x2="260.67" y2="157.96" gradientTransform="matrix(1, 0, 0, -1, -37.44, 252.47)" gradientUnits="userSpaceOnUse"><stop offset="0" stop-color="gray" stop-opacity="0.25"/><stop offset="0.54" stop-color="gray" stop-opacity="0.12"/><stop offset="1" stop-color="gray" stop-opacity="0.1"/></linearGradient><linearGradient id="linear-gradient-2" x1="398.6" y1="-2.86" x2="398.6" y2="18.54" xlink:href="#linear-gradient"/></defs><title>what-1</title><path class="cls-1" d="M28.36,163.33c5.82,23.91,18.13,44.58,37.6,54.59,40.45,20.82,131.69,10.08,199.78-2.24A157.51,157.51,0,0,0,354.4,167Z" transform="translate(-19.6 -23)"/><path class="cls-1" d="M385.42,50.81H348.06a3.11,3.11,0,0,1-.2-6.21h6.66a3.11,3.11,0,0,1-.2-6.21h-4.41a3.1,3.1,0,1,1-.2-6.2h19.7a52.48,52.48,0,0,0-15.23-4C301,21.59,282,25.93,275.33,30.4A76.13,76.13,0,0,1,248,41.92c-32.79,6.5-94.14,14.33-149.76-2.51C70.62,31,50.07,45.18,37.76,68.82H391.91a53.91,53.91,0,0,0-4.39-18.77A3.28,3.28,0,0,1,385.42,50.81Z" transform="translate(-19.6 -23)"/><path class="cls-1" d="M252.26,126.22l-.49,0-5.09-.28L198,123.15l-5.26-.29-77.57-4.36-21.74-1.23-3.45-.19-3-.17-61.7-3.47a151.83,151.83,0,0,0,1.45,41.71L78.55,157l4.11.15.73,0L108,158l1.33.05,2.84.1L137,159l3.4.12,11.88.42h.22l1.74.06,5.94.21h0l5.22.19,9.93.35h.21l.89,0,.93,0h.21l15.83.56,4.44.15H198l2.14.08h.55l1.88.07,5.73.2h0l2.15.08,2.77.09h.1l3.8.14,11,.41,3,.1h.33l14.63.52,8.49.3,10.59.4,1.69.06,2.74.1,9.95.35,75.07,2.65a147.88,147.88,0,0,0,22.79-33.42ZM111.11,149.39a3.29,3.29,0,0,1-2.16-.79h0a3.39,3.39,0,0,1-.68-.83,3,3,0,0,1,.14-3.18h0a4.82,4.82,0,0,1,.36-.43,3.26,3.26,0,0,1,2.34-1h6.45a3.11,3.11,0,0,1-.2-6.21h-4.71a3.1,3.1,0,0,1,.3-6.19h37.36a3.1,3.1,0,0,1,.2,6.2h4.41a3.11,3.11,0,1,1,.2,6.21h-6.66a3.11,3.11,0,1,1,.21,6.21h-.21Z" transform="translate(-19.6 -23)"/><path class="cls-1" d="M391.93,69l-257.7,6-28.32.66-72.1,1.69A132.1,132.1,0,0,0,25.24,113H385.65a142,142,0,0,0,5.2-22.66A102.91,102.91,0,0,0,391.93,69Zm-294,27.43H91.48a3.18,3.18,0,0,1,3.23,3.11v.18a3.11,3.11,0,0,1-1.43,2.4,3.37,3.37,0,0,1-1.8.52H54.13a3.11,3.11,0,0,1-.21-6.21h6.67a3.1,3.1,0,1,1-.21-6.2H56a3.11,3.11,0,0,1-.2-6.21H93.33a3.11,3.11,0,1,1,.2,6.21h4.41a3.43,3.43,0,0,1,1.54.37,3.09,3.09,0,0,1,1.69,2.73,3.17,3.17,0,0,1-3.23,3.1Z" transform="translate(-19.6 -23)"/><g class="cls-2"><path class="cls-3" d="M219.89,216.06s9.46-22.39,27.1-30.7a37.5,37.5,0,0,0,17.29-16.13,60.14,60.14,0,0,0,4.33-10.47" transform="translate(-19.6 -23)"/><path class="cls-4" d="M279.7,153.46c-1.84,2.23-11.36,5.47-11.36,5.47s1.14-9.64,3-11.87a5.49,5.49,0,0,1,7.52-.82,5,5,0,0,1,1,7A1.84,1.84,0,0,1,279.7,153.46Z" transform="translate(-19.6 -23)"/><path class="cls-4" d="M276.43,171.07c-2.8.91-12.63-1.34-12.63-1.34s6.42-7.5,9.22-8.41a5.41,5.41,0,0,1,6.78,3.24,5.1,5.1,0,0,1-3.21,6.46Z" transform="translate(-19.6 -23)"/><path class="cls-4" d="M258.72,191.89c-2.9-.58-10.2-7.28-10.2-7.28s9.48-3.36,12.37-2.78a5.17,5.17,0,0,1,4.16,6.08A5.36,5.36,0,0,1,258.72,191.89Z" transform="translate(-19.6 -23)"/><path class="cls-4" d="M241.62,204.74c-3-.1-11.33-5.53-11.33-5.53s8.75-4.86,11.71-4.75a5.15,5.15,0,1,1-.38,10.28Z" transform="translate(-19.6 -23)"/><path class="cls-4" d="M254.65,163.44c.38,2.81,6.78,10.33,6.78,10.33s4.21-8.83,3.84-11.65a5.31,5.31,0,0,0-6-4.44A5.2,5.2,0,0,0,254.65,163.44Z" transform="translate(-19.6 -23)"/><path class="cls-4" d="M234.86,178.7c1.24,2.58,9.68,7.91,9.68,7.91s1.28-9.63,0-12.21a5.44,5.44,0,0,0-7.1-2.52,5.06,5.06,0,0,0-2.71,6.63Z" transform="translate(-19.6 -23)"/><path class="cls-4" d="M217.74,196.08c.76,2.75,8.15,9.37,8.15,9.37s3-9.29,2.18-12a5.37,5.37,0,0,0-6.55-3.64,5.12,5.12,0,0,0-3.82,6.15S217.73,196,217.74,196.08Z" transform="translate(-19.6 -23)"/><path class="cls-5" d="M279.7,153.46c-1.84,2.23-11.36,5.47-11.36,5.47s1.14-9.64,3-11.87a5.49,5.49,0,0,1,7.52-.82,5,5,0,0,1,1,7A1.84,1.84,0,0,1,279.7,153.46Z" transform="translate(-19.6 -23)"/><path class="cls-5" d="M276.43,171.07c-2.8.91-12.63-1.34-12.63-1.34s6.42-7.5,9.22-8.41a5.41,5.41,0,0,1,6.78,3.24,5.1,5.1,0,0,1-3.21,6.46Z" transform="translate(-19.6 -23)"/><path class="cls-5" d="M258.72,191.89c-2.9-.58-10.2-7.28-10.2-7.28s9.48-3.36,12.37-2.78a5.17,5.17,0,0,1,4.16,6.08A5.36,5.36,0,0,1,258.72,191.89Z" transform="translate(-19.6 -23)"/><path class="cls-5" d="M241.62,204.74c-3-.1-11.33-5.53-11.33-5.53s8.75-4.86,11.71-4.75a5.15,5.15,0,1,1-.38,10.28Z" transform="translate(-19.6 -23)"/><path class="cls-5" d="M254.65,163.44c.38,2.81,6.78,10.33,6.78,10.33s4.21-8.83,3.84-11.65a5.31,5.31,0,0,0-6-4.44A5.2,5.2,0,0,0,254.65,163.44Z" transform="translate(-19.6 -23)"/><path class="cls-5" d="M234.86,178.7c1.24,2.58,9.68,7.91,9.68,7.91s1.28-9.63,0-12.21a5.44,5.44,0,0,0-7.1-2.52,5.06,5.06,0,0,0-2.71,6.63Z" transform="translate(-19.6 -23)"/><path class="cls-5" d="M217.74,196.08c.76,2.75,8.15,9.37,8.15,9.37s3-9.29,2.18-12a5.37,5.37,0,0,0-6.55-3.64,5.12,5.12,0,0,0-3.82,6.15S217.73,196,217.74,196.08Z" transform="translate(-19.6 -23)"/></g><g class="cls-2"><path class="cls-3" d="M227,182.16s1.19-24.14,15-37.61a36,36,0,0,0,10.74-20.73,58.78,58.78,0,0,0,.48-11.25" transform="translate(-19.6 -23)"/><path class="cls-4" d="M261.79,104c-1,2.68-8.83,8.78-8.83,8.78s-2.25-9.47-1.28-12.15a5.42,5.42,0,0,1,6.81-3.18,5.1,5.1,0,0,1,3.36,6.38Z" transform="translate(-19.6 -23)"/><path class="cls-4" d="M264.77,121.69c-2.31,1.75-12.38,2.76-12.38,2.76s3.47-9.12,5.8-10.87a5.5,5.5,0,0,1,7.51.89,5,5,0,0,1-.71,7.06Z" transform="translate(-19.6 -23)"/><path class="cls-4" d="M255.26,147c-2.93.38-12.14-3.64-12.14-3.64s7.79-6.19,10.72-6.57a5.31,5.31,0,0,1,6,4.42A5.22,5.22,0,0,1,255.26,147Z" transform="translate(-19.6 -23)"/><path class="cls-4" d="M243.56,164.54c-2.82.85-12.58-1.61-12.58-1.61s6.58-7.36,9.4-8.21a5.4,5.4,0,0,1,6.71,3.37,5.11,5.11,0,0,1-3.37,6.4Z" transform="translate(-19.6 -23)"/><path class="cls-4" d="M241.6,121.43c1.32,2.54,10,7.59,10,7.59s.93-9.67-.4-12.21a5.45,5.45,0,0,0-7.18-2.29,5,5,0,0,0-2.48,6.7A2,2,0,0,0,241.6,121.43Z" transform="translate(-19.6 -23)"/><path class="cls-4" d="M228.2,142.14c2.06,2,11.86,4.38,11.86,4.38s-2.12-9.5-4.18-11.54a5.49,5.49,0,0,0-7.56-.11,5,5,0,0,0-.32,7.07C228.07,142,228.13,142.08,228.2,142.14Z" transform="translate(-19.6 -23)"/><path class="cls-4" d="M218,164c1.66,2.34,10.93,6.24,10.93,6.24s-.43-9.71-2.09-12.05a5.48,5.48,0,0,0-7.44-1.34,5,5,0,0,0-1.54,6.93Z" transform="translate(-19.6 -23)"/></g><path class="cls-6" d="M241,64.44l-9.53,1.84S248.13,64.71,253.1,65s16.18,6.54,16.18,6.54,5.3,1.68,11.56,7.57a50.1,50.1,0,0,1,4.28,4.58c5,6.06,10,14.94,13.12,27.79.33,1.32.62,2.67.9,4.06.55,2.82,1,5.82,1.38,9,.16,1.47.31,3,.42,4.54s.21,3,.27,4.57.11,3,.13,4.54q0,3.12,0,6.42c0,1.47-.1,3-.18,4.49v.18a148.31,148.31,0,0,1-3.65,26.61c-.18.77-.37,1.53-.57,2.27a89.61,89.61,0,0,1-3.31,10.1c-.22.58-.45,1.15-.7,1.7-.54,1.3-1.1,2.53-1.68,3.71-.48,1-1,1.89-1.45,2.78l-.3.54-.73,1.25c-8.57,14.33-19.09,17.83-23.28,18.67-.58.12-1,.19-1.36.23h0l-.48,0c-1,3.77.9,5.3,3.17,5.84a11,11,0,0,0,1.12.2h0a16.73,16.73,0,0,0,4.47-.18s10.22.45,21,.71l2.43.05h0l.9,0c5.55.11,11,.15,14.92,0h0c1.87-.06,3.41-.15,4.48-.29,8.11-1,5.76-6.29,3.27-10.33-2.14-3.49-1.08-9.7,2.43-19.95q.86-2.49,1.89-5.3c3.84-10.41,3.62-26,2.72-39.17-.12-1.74-.25-3.44-.39-5.07-.16-2-.33-3.93-.5-5.73a99.28,99.28,0,0,0-5.61-23.64c-.36-1-.72-2-1.09-2.9a68,68,0,0,0-3.6-7.92c-.29-.53-.56-1-.82-1.39l-.23-.37c-.44-.71-.9-1.52-1.37-2.41-.7-1.3-1.41-2.76-2.12-4.27-1.81-3.86-3.56-8.08-4.72-10.93-.84-2.09-1.37-3.46-1.37-3.46a5.37,5.37,0,0,1,.57-1.6c4.4-8,29.91-12.66,29.91-12.66l12.79.92,25.41,1.83L345.45,65l-4.3-.66s1.24-.13,3.09-.43h0c3.67-.59,9.69-1.84,13-4,2.64-1.73,16.62-2.47,29.16-2.79V53.89l-2.34,1.66-26.95.4L370.19,39.2,352.92,56.86c-2.71.54-7.94,1.77-13.95,3.24-4.13,1-8.64,2.14-13,3.2-10.59,2.65-20,5.07-20,5.07a46.59,46.59,0,0,1,18.37-34l14.79-11.2h-3.84c-10.92,6.52-27.38,19.55-27.38,19.55a147.21,147.21,0,0,1,2.59-19.53h-5c-.06.63-.14,1.26-.23,1.88-2,13.46-3,29.31-3,29.31-1.7,11.51-6.29,1.7-6.29,1.7.41-13.09-4.86-25.3-9.08-32.91h-5.58c2.58,5.25,1.72,9.08,1.72,9.08-8.54-6.36-15.34-8.51-20-9.08a19.53,19.53,0,0,0-5.18,0,9.08,9.08,0,0,0-1.92.45c17.27.78,29.57,13.86,29.57,13.86,1.37.33,4.82,11,6.29,24.61.21,2,.39,4,.5,6.14.4,7-.48,9.86-1.62,10.83a2.08,2.08,0,0,1-2.51,0,5.08,5.08,0,0,1-1-.76c-2.69-4.5-12.91-9.62-22.18-13.54-2-.82-3.89-1.6-5.69-2.31a21.29,21.29,0,0,1-12.72-14.28c-3-11.09-8.73-10.67-8.73-10.67C244.6,42.6,244.21,58,244.21,58l-22.1-4.67c10.51,2.82,27.73,9.38,27.73,9.38l-8.79,1.69Z" transform="translate(-19.6 -23)"/><path class="cls-6" d="M216.34,52.15l5.76,1.22A40.41,40.41,0,0,0,216.34,52.15Z" transform="translate(-19.6 -23)"/><path class="cls-7" d="M282.58,210a17.12,17.12,0,0,1,11.53-1.44c6.66,1.44,16.87.66,17.8.52Z" transform="translate(-19.6 -23)"/><path class="cls-7" d="M303.9,131.67s1.62,25.57-1.26,30.62Z" transform="translate(-19.6 -23)"/><path class="cls-7" d="M309.88,162.29s-2.08,24-3.52,28.63S309.88,162.29,309.88,162.29Z" transform="translate(-19.6 -23)"/><path class="cls-7" d="M311.91,103.4c1.47.55,7.77,13.32,6.5,17.11S311.91,103.4,311.91,103.4Z" transform="translate(-19.6 -23)"/><path class="cls-7" d="M295.92,90.12c.69.31,3.62,7.68,3,9.86S295.92,90.12,295.92,90.12Z" transform="translate(-19.6 -23)"/><path class="cls-7" d="M323.22,133.09c-.73,7.42-1.12,12.29-.66,18.23a70.54,70.54,0,0,1-.2,13.86Z" transform="translate(-19.6 -23)"/><path class="cls-7" d="M244.29,46.6a5.9,5.9,0,0,1,1.23,3.76c0,1.35-.13,2.7,0,4s.76,3.07,2.16,3.26Z" transform="translate(-19.6 -23)"/><path class="cls-8" d="M314.65,39.48a14.76,14.76,0,0,0-2.94,2A5.23,5.23,0,0,0,310,44.56a15.13,15.13,0,0,1-.14,1.51,4.77,4.77,0,0,1-1,1.84,25.87,25.87,0,0,1-2.48,2.75" transform="translate(-19.6 -23)"/><path class="cls-7" d="M306.1,73.64A18.34,18.34,0,0,1,308.47,72a10.33,10.33,0,0,1,2.43-1.07,28.4,28.4,0,0,1,4-.43A5.73,5.73,0,0,0,318.59,69Z" transform="translate(-19.6 -23)"/><path class="cls-7" d="M359.3,57.11a10.64,10.64,0,0,0-4.66.83c-.73.37-1.35.9-2.06,1.3a6.31,6.31,0,0,1-3,.78Z" transform="translate(-19.6 -23)"/><path class="cls-7" d="M337.23,63.67a.89.89,0,0,1,1.14.27c.28.33.44.75.73,1.07a3.3,3.3,0,0,0,2.39.73Z" transform="translate(-19.6 -23)"/><path class="cls-7" d="M328.12,29.86l-1.53.8a28.75,28.75,0,0,0-4.51,2.75Z" transform="translate(-19.6 -23)"/><path class="cls-7" d="M310.64,44.82c-1-.24-1.87.83-2.05,1.85a28.42,28.42,0,0,1-.26,3.08,5.68,5.68,0,0,1-1.5,2.26Z" transform="translate(-19.6 -23)"/><path class="cls-7" d="M293.62,46.68c-.91,2.73,1,5.71.46,8.53-.17.87-.57,1.66-.77,2.52a7.64,7.64,0,0,0,1.85,6.42Z" transform="translate(-19.6 -23)"/><ellipse class="cls-1" cx="78.68" cy="238.07" rx="8.42" ry="1.16"/><ellipse class="cls-1" cx="46.42" cy="241.34" rx="8.42" ry="1.16"/><ellipse class="cls-1" cx="8.42" cy="236.91" rx="8.42" ry="1.16"/><ellipse class="cls-1" cx="59.33" cy="250.65" rx="5.99" ry="0.82"/><ellipse class="cls-1" cx="25.85" cy="249.83" rx="5.99" ry="0.82"/><path class="cls-4" d="M65.83,264.08S77.65,225.36,64,209.85c-10.23-11.59-21.82-10.21-27-8.78a9.61,9.61,0,0,0-6.19,5.15c-1.82,3.92-1.49,10.28,11.33,17.7,21.46,12.43,22.8,29.47,22.8,29.47Z" transform="translate(-19.6 -23)"/><path class="cls-9" d="M38.82,206.56s34.82,10.89,27,57.52" transform="translate(-19.6 -23)"/><path class="cls-9" d="M59.16,210.47s-4.8,3.23-3.27,8.08" transform="translate(-19.6 -23)"/><path class="cls-9" d="M42.31,213.34s2.93-3,6.5-1.32" transform="translate(-19.6 -23)"/><path class="cls-9" d="M56.08,228.34s5.14-2.61,6.47.66" transform="translate(-19.6 -23)"/><path class="cls-9" d="M68.81,233.78s-3.86-.31-3.93,1.54" transform="translate(-19.6 -23)"/><path class="cls-4" d="M66.31,264.39s-13.83-28.14-17.63-27.53c-1.81.3-2.65,2.07-3,3.85a11.35,11.35,0,0,0,.76,6.85C48.38,252.07,53.65,260.62,66.31,264.39Z" transform="translate(-19.6 -23)"/><path class="cls-9" d="M48.78,242.2s14.52,21.06,17.33,22" transform="translate(-19.6 -23)"/><line class="cls-9" x1="27.85" y1="222.49" x2="31.24" y2="222.49"/><line class="cls-9" x1="31.91" y1="230.19" x2="37.22" y2="230.42"/><line class="cls-9" x1="35.14" y1="224.03" x2="34.57" y2="226.8"/><line class="cls-9" x1="40.79" y1="232.45" x2="40.69" y2="234.97"/><path class="cls-4" d="M65.9,264.39s13.83-28.14,17.63-27.53c1.81.3,2.65,2.07,3,3.85a11.35,11.35,0,0,1-.76,6.85C83.83,252.07,78.56,260.62,65.9,264.39Z" transform="translate(-19.6 -23)"/><path class="cls-9" d="M83.43,242.2s-14.52,21.06-17.32,22" transform="translate(-19.6 -23)"/><line class="cls-9" x1="65.17" y1="222.49" x2="61.78" y2="222.49"/><line class="cls-9" x1="61.11" y1="230.19" x2="55.8" y2="230.42"/><line class="cls-9" x1="57.88" y1="224.03" x2="58.46" y2="226.8"/><line class="cls-9" x1="52.23" y1="232.45" x2="52.33" y2="234.97"/><path class="cls-4" d="M42.15,271a2.41,2.41,0,0,1-.79-1.19,1,1,0,0,1,.55-1.21,1.57,1.57,0,0,1,1.46.51,2,2,0,0,0,1.41.69,2.16,2.16,0,0,1-.66-2,.89.89,0,0,1,.18-.41c.28-.3.79-.17,1.13.07a4.22,4.22,0,0,1,1.37,3.5,6.31,6.31,0,0,0,0-1.44,1.49,1.49,0,0,1,.54-1.28,1.62,1.62,0,0,1,.83-.2,1.64,1.64,0,0,1,1.32.39,1.33,1.33,0,0,1,0,1.65,5,5,0,0,1-1.39,1.12,3,3,0,0,0-1,.94l-.08.17H44A8,8,0,0,1,42.15,271Z" transform="translate(-19.6 -23)"/><path class="cls-4" d="M94.86,259.63a2.46,2.46,0,0,1-.79-1.19,1.06,1.06,0,0,1,.55-1.21,1.52,1.52,0,0,1,1.46.51,1.92,1.92,0,0,0,1.41.68,2.15,2.15,0,0,1-.66-2A.83.83,0,0,1,97,256a.88.88,0,0,1,1.12.06,4.2,4.2,0,0,1,1.38,3.51,6.93,6.93,0,0,0,0-1.44,1.48,1.48,0,0,1,.55-1.28,1.56,1.56,0,0,1,.82-.2,1.73,1.73,0,0,1,1.35.38,1.35,1.35,0,0,1-.06,1.66,5,5,0,0,1-1.39,1.11,3.2,3.2,0,0,0-1,.95.87.87,0,0,0-.07.17h-3A8.83,8.83,0,0,1,94.86,259.63Z" transform="translate(-19.6 -23)"/><path class="cls-4" d="M77.29,271a2.41,2.41,0,0,1-.79-1.19,1.06,1.06,0,0,1,.56-1.21c.5-.19,1,.16,1.45.51a2,2,0,0,0,1.41.69,2.16,2.16,0,0,1-.66-2,.91.91,0,0,1,.19-.41c.28-.3.78-.17,1.12.07a4.16,4.16,0,0,1,1.37,3.5,6.31,6.31,0,0,0,0-1.44,1.48,1.48,0,0,1,.55-1.28,1.56,1.56,0,0,1,.82-.2,1.73,1.73,0,0,1,1.35.39,1.34,1.34,0,0,1-.06,1.65,5,5,0,0,1-1.39,1.12,3.17,3.17,0,0,0-1,.94,1.22,1.22,0,0,0-.07.17h-3A8.31,8.31,0,0,1,77.29,271Z" transform="translate(-19.6 -23)"/><path class="cls-4" d="M27.47,248.05s-1.13,1.47.52,3.7,3,4.11,2.46,5.5c0,0-2.49-4.14-4.51-4.2S25.24,250.54,27.47,248.05Z" transform="translate(-19.6 -23)"/><path class="cls-7" d="M27.47,248.05a1.65,1.65,0,0,0-.23.46c-2,2.32-3,4.49-1.13,4.54s3.89,3.22,4.4,4a.64.64,0,0,1-.06.18s-2.49-4.14-4.51-4.2S25.24,250.54,27.47,248.05Z" transform="translate(-19.6 -23)"/><path class="cls-10" d="M25.37,249.93c0,.52.06.94.13.94s.13-.42.13-.94-.07-.27-.14-.27S25.37,249.41,25.37,249.93Z" transform="translate(-19.6 -23)"/><path class="cls-10" d="M24.65,250.55c.46.25.85.4.89.33s-.31-.31-.76-.56-.28-.07-.31,0S24.2,250.3,24.65,250.55Z" transform="translate(-19.6 -23)"/><path class="cls-4" d="M33.43,248.05s1.13,1.47-.52,3.7-3,4.11-2.46,5.49c0,0,2.49-4.14,4.51-4.2S35.67,250.54,33.43,248.05Z" transform="translate(-19.6 -23)"/><path class="cls-7" d="M33.43,248.05a2,2,0,0,1,.23.46c2,2.32,3,4.49,1.13,4.54s-3.89,3.22-4.4,4a1.27,1.27,0,0,0,.06.18s2.49-4.14,4.51-4.2S35.67,250.54,33.43,248.05Z" transform="translate(-19.6 -23)"/><path class="cls-10" d="M35.53,249.93c0,.52-.06.94-.13.94s-.13-.42-.13-.94.07-.27.14-.27S35.53,249.41,35.53,249.93Z" transform="translate(-19.6 -23)"/><path class="cls-10" d="M36.25,250.55c-.46.25-.86.4-.89.33s.31-.31.76-.56.28-.07.31,0S36.7,250.3,36.25,250.55Z" transform="translate(-19.6 -23)"/><path class="cls-11" d="M35.17,257.06s-3.16-.1-4.11-.78-4.85-1.48-5.09-.4-4.74,5.4-1.18,5.43,8.28-.55,9.23-1.13S35.17,257.06,35.17,257.06Z" transform="translate(-19.6 -23)"/><path class="cls-12" d="M24.75,260.94c3.56,0,8.27-.56,9.22-1.14.73-.44,1-2,1.11-2.75h.11S35,259.6,34,260.18s-5.67,1.16-9.23,1.13c-1,0-1.38-.37-1.36-.92C23.57,260.72,24,260.93,24.75,260.94Z" transform="translate(-19.6 -23)"/><path class="cls-13" d="M343.34,173.86c-1.35-1.14-5.38-8.18-6.52-10.19l-.3-.54h0c.42-1.57-2.19-3.84-3-4.47-1.6-1.89-3.9-4.24-5.8-4.8-2.43-.72-4.13.09-6-.22a4.87,4.87,0,0,1-1.29-.42,6.71,6.71,0,0,1-.77-.45,9.6,9.6,0,0,1-1.75-1.68,3.88,3.88,0,0,0,1-.26c1.88-.7,3.74-1.49,5.56-2.35a1.78,1.78,0,0,0,1-.82,5.26,5.26,0,0,1,.15-.53c.17-.37.62-.51,1-.63,1.4-.43,2.92-1.26,3.15-2.7a2.73,2.73,0,0,0,0-.57,2.26,2.26,0,0,1-.26.42c.05-.49,0-1,0-1.47a3,3,0,0,1,.49-1.16,3.87,3.87,0,0,0,0,.48c.54-1.18,1.85-2,2.28-3.3a3.29,3.29,0,0,0,.17-1,3.71,3.71,0,0,1-.29.56c.24-1.43-.39-3.05.35-4.3a1.43,1.43,0,0,1,.16-.24,2.63,2.63,0,0,0,0,.49,1.15,1.15,0,0,1,.12-.25c.35-.59,1-1,1.14-1.69a1.84,1.84,0,0,0,0-.74,3.55,3.55,0,0,1-.23.31,4.08,4.08,0,0,0-.13-.92c-.53-2.27-1.3-4.85-3.43-5.79a6.5,6.5,0,0,1-1.9-.89c-1.19-1.1-.55-3.45-1.91-4.31-.6-.38-1.52-.42-1.75-1.09-.12-.38,0-.82-.09-1.2-.3-.81-1.48-.52-2.35-.49a2.14,2.14,0,0,1-2.26-2.19,6.27,6.27,0,0,0-5.22-.25,6,6,0,0,1-2.67.84c-.45-.05-.87-.24-1.32-.32-1.85-.33-3.44,1.26-5.2,1.92s-4.1.42-5.56,1.73c-1.29,1.15-1.52,3.2-2.88,4.26-.73.56-1.66.77-2.43,1.28s-1.29,1.63-.71,2.34c.74.9,2.63.42,3,1.53.29.89-.81,1.55-1.24,2.38a1.85,1.85,0,0,0,1,2.44,1.6,1.6,0,0,0,.33.11h0v0a12,12,0,0,0,5.71,14.42c.17.29.33.63.52,1a25.34,25.34,0,0,1,2.58,7.71c-1.24-.41-3.85,2-3.85,2a28.83,28.83,0,0,1-4,.73c-2.79.37-2.56,1.46-2.56,1.47l-.17.15c-1.44,1.27-11.23,10-12.8,10.36l.08.33-.4.3-4.85,3.59h0s-3.72.24-7.37.66-8.83,1.53-5.05,5.92a2.06,2.06,0,0,0,.33.33l-14.64-.87a.68.68,0,0,0,.16-.39c0-.33-.38-.66-1-.91l0-.1c1.84-.05,4.14-.14,5.67-.27.39,0,.73-.08,1-.13,2.28-.36-.18-2.1.91-3.47s0-6.5.09-7.6-.73-5.49-1.46-6.4-.82-4.85-.82-4.85-1.73-1.56-2.74-6.87-5-8.05-6.29-8.32-3.19-1.37-3.19-1.66-2.19-.37-3.11-.73a9.47,9.47,0,0,0-2.1-.92h0a4,4,0,0,0,.65-1,2.23,2.23,0,0,1,.79-.88l.2-.08a.78.78,0,0,1,.22,0l.22,0c.27.07.54.3.79.17l.09-.08a.81.81,0,0,0,.14-.33h0c0-.14.05-.28.07-.41v0l0-.43h0a7,7,0,0,1,.38-3l0,0h0a8.19,8.19,0,0,1,2.21-2,5.87,5.87,0,0,0,.46-.41l.16-.17.25-.27c.08-.09.12-.16.19-.24s.11-.16.17-.23l.19-.3a1.28,1.28,0,0,0,.12-.2c0-.07.13-.23.19-.36s0-.1.08-.16.12-.27.17-.4a.65.65,0,0,0,0-.13,4,4,0,0,0,.15-.45v-.08a6.91,6.91,0,0,0,.19-1,6.54,6.54,0,0,0-1.5-4.77c-.85-1-2.06-1.86-2.12-3.16a4.9,4.9,0,0,1,.39-1.77h0a4.13,4.13,0,0,0,.19-.77h0a2,2,0,0,0,0-.35,3.57,3.57,0,0,0-1.32-2.48,8.49,8.49,0,0,0-7.65-2,6.12,6.12,0,0,1-2.14.35,7.3,7.3,0,0,1-2.29-1,5.86,5.86,0,0,0-7.31,2c-.87,1.35-1.21,3.1-2.5,4-.76.56-1.81.81-2.36,1.53h0a1.78,1.78,0,0,0-.17.27,2.16,2.16,0,0,0-.2.91,7.61,7.61,0,0,0,.08,1,4.41,4.41,0,0,0,1.39,2.66h0l.19.2,0,0a4.8,4.8,0,0,1,.37.44l0,0,.11.15a1.07,1.07,0,0,0-.14.16,11,11,0,0,0,1.62,15.36v.35c0,.61-.07,1.26-.13,1.92a1.54,1.54,0,0,0-1.24-.43,1.35,1.35,0,0,0-.63.06,2,2,0,0,1-.35.07,7.2,7.2,0,0,0-1.37-.16,1.55,1.55,0,0,0-1.29.45,13,13,0,0,1-5.59,2,.9.9,0,0,1-.33-.09.89.89,0,0,0-.51,0c-1-.22-3.64,1.65-4.24,2.79s-2.74,4.39-2.74,4.39-1.83,2.2-1.55,3.39a3.1,3.1,0,0,1-1.74,3.11c-1.09.55-3.28,6-3.28,6s-2.38,5-4.84,6.31c-1,.5-1.27,1.66-1.29,2.9-.57,0-1,0-1,0s-7.68,2-10.11.48-11-1.82-11-1.82l-8.7-9.3-.35-.38c1.54-1.31-1.05-2.27-1.05-3.23a1.55,1.55,0,0,0-1-1.34l-.12.13a1.19,1.19,0,0,0-.25-.13,2.49,2.49,0,0,1-.72.61c-.18-.12-.29-.46-.25-1.22a6.84,6.84,0,0,0-1.66-4.06A58,58,0,0,1,158,140.91l.27-.48a10.72,10.72,0,0,0,5.38-14.16,10.6,10.6,0,0,0-1.74-2.69c-.11-.13-.23-.25-.35-.38l.27-.07.35,0c.78,0,1.69.39,2.42.35a1.47,1.47,0,0,0,.68-.13c.8-.4.61-1.46.14-2s-1.49-1.11-1.91-1.85a5.89,5.89,0,0,1-.43-1.41,5.09,5.09,0,0,0-3.09-3.2,6.51,6.51,0,0,0-4.85.11c-.72.33-1.35.76-2.1,1a8.22,8.22,0,0,1-4.9-.19c-.93-.26-1.86-.56-2.8-.77A14.27,14.27,0,0,0,144,111c-.05-.1-.11-.19-.16-.3,1.59-.55,3.66-.45,4.49-1.89a3.2,3.2,0,0,0,1.5-.19,1.09,1.09,0,0,0,.62-1.26,1.27,1.27,0,0,0-.2-.31h0a4.67,4.67,0,0,0-.67-.5,4,4,0,0,1-1.68-3,.09.09,0,0,0,0,.08,2.94,2.94,0,0,1,0-.42c0-.63.2-1.25.16-1.88a2.27,2.27,0,0,0-.17-.77v0a2.79,2.79,0,0,0-2.62-1.78c-.42,0-.82.13-1.24.14-2,.06-3.62-2.17-5.55-1.72a4.89,4.89,0,0,1-1.22.32c-1,0-1.57-1.12-2.5-1.41-.73-.23-1.53.09-2.31,0a5.46,5.46,0,0,1-2-.88c-1.38-.75-3.24-1.09-4.46-.07a3.84,3.84,0,0,1-.86.69,2.45,2.45,0,0,1-1.26.07,11.6,11.6,0,0,0-3.76.26,1.39,1.39,0,0,0-.86.45,2.67,2.67,0,0,0-.27.87c-.37,1.44-2.15,1.93-3.63,2.05a2.11,2.11,0,0,0-1.09.3,1.63,1.63,0,0,0-.28,1.85,8.21,8.21,0,0,1,.72,1.87c.22,1.65-1.58,2.93-1.88,4.59-.42,2.29,2.12,4.55,1.26,6.71-.38,1-1.4,1.7-1.35,2.74s1,1.62,1.65,2.41a6.72,6.72,0,0,1,1.06,2.65c.36,1.43.43,4.14,2,4.83h0l.2.08.26.06-.21.31a34.53,34.53,0,0,1-5.69,6.6l-.2.16a1.49,1.49,0,0,0-.82-.36c-1.09-.12-3.89,1.83-3.89,2.81s-2.57,2.56-5.5,5.36-2.92,16.22-2,18.79a54,54,0,0,1,1.43,6.48,3.6,3.6,0,0,0-1.32,1.94c-1.1,4.63.48,8.29,1.82,8.66s1-1.59,1-1.59c-1.07-2.32-1.27-4.11-.87-5.47.49,3,.87,5.47.87,5.47s3.53,11.22,4.87,14.64,6.09,24.77,6.09,24.77a21.21,21.21,0,0,0,1.45,1.6l1.1,6.08,1.83,3.66H118l-.27,2.61s.24,11-.37,12.63-6,31.48-6,31.48-1.7,10.49-1.58,13.05l4,.85s-.79-2.25.37-6.46,3.4-12.08,3.4-12.08l2.32-10.49.18,7.5s-2.07,9.33-1.66,9.82,3.59.66,3.59.66a44,44,0,0,1,.66-7.74c.58-2.4,7-27.2,8.69-33.5a15.43,15.43,0,0,1,7.14-1.15c8.2.45,12.79,3.45,15.35,6.53-5.88,3.1-10.83,5.67-10.83,5.67l.06.33h0l-.05,0-.13.07-.06,0-.12.07-.09,0-.13.08-.09,0-.17.1-.07,0-.54.33-.06,0-.24.13-.07,0-.25.14-.06,0-.28.17,0,0-.33.18h0l-.33.19,0,0-.3.17-.08.05-.25.14-.11.06-.23.13-.11.06-.25.14-.08,0-.33.19h0l-.32.17-.08,0-.24.12-.1.06-.2.1-.11.06-.2.11-.09,0-.24.12,0,0-.26.13-.06,0-.19.09-.08,0-.15.06-.08,0-.13.05-.07,0-.12,0-.06,0-.14.05c-1.57.47-2.69,4.44-1,7s1.34,7,.45,8.69.22,4.73.45,5.49c.17.58,2.22,1.2,5.46,1.06a23.25,23.25,0,0,0,5.2-.4c5.15-.95,3.24-3,2.69-4.54a15.59,15.59,0,0,1,.11-7.84c.05-.14.1-.29.14-.43,1.21-1.35,3.14-3.56,4.69-5.57.71-.93,2.51-1.75,4.69-2.45,1.75,7.16,5.23,21.35,6,23.62,1,3.05,1.58,10.55,1.58,10.55l4-.36-1.32-19.95-1.44-15.89c1.9-.33,3.37-.54,3.84-.61,2,7.54,3.83,14.73,4.13,16a44.17,44.17,0,0,1,.66,7.75s3.17-.18,3.59-.66-1.65-9.83-1.65-9.83l.38-16.5c4.55-2.13,10.08-4.7,12.52-5.76a80.78,80.78,0,0,0,9.31-5.43l5.63,45.93,3.28.28,1.76-.4,2.26-.52,5.16-41.4c.21.16.4.31.56.45a10.65,10.65,0,0,0,.22,4.08,17.88,17.88,0,0,1,.09,7.59c-.46,1.47-2,3.48,2.19,4.39s7,.1,7.21-.63,1.1-3.67.37-5.3-1-6,.36-8.42.46-6.31-.82-6.77c-.85-.31-2.09-.85-2.84-1.18l-.24-.3a6.25,6.25,0,0,1,2-1.73,3.38,3.38,0,0,0,1.73-3.56,5,5,0,0,0,3.93-2.75c1.15-1.92,2.48-3.84,3.17-5.23.14.88.3,2,.39,2.91.18,2,2.43,20.93,3.47,22.52s.18,7.56.18,7.56h3.35l-.24-9.15s-3.78-26.9-.61-29.65c.55-.48,1.09-1,1.6-1.45l6.25,45.65c0,.34,0,.57,0,.75s0,.33,0,.33-2.68,1.35-.73,2.69a4.91,4.91,0,0,0,1.38.57l.13,1a12.51,12.51,0,0,1-2.12,0c-.43-.18-.43,5.68-.43,5.68s-2.37,4.76-2.68,5.92-2.67,4-2.67,4-3.41,2.5,1.58,3.48a28.88,28.88,0,0,0,10.47-.31s3.64-6.34,4-6,0,3.36,0,3.36l2.13-.55s-.36-4,.49-6.1c.66-1.7-.8-7.05-1.43-9.18l.39,0a11.64,11.64,0,0,0,.73-2.93.69.69,0,0,1,0-.2,29.19,29.19,0,0,1,1.19-4.68c.61-1.95,0-1.71,0-2.93a45.68,45.68,0,0,1,.67-6.27,1.13,1.13,0,0,1,0-.18,2.84,2.84,0,0,0,.89.39c.36,1,.75,2.18,1,3.15-.66.2-1.11.44-1.18.72a13.69,13.69,0,0,0,.12,4.2s.55,6.47-.49,7.45-3.16,2.75-1.76,4.58a2.56,2.56,0,0,0,.48.45,9.74,9.74,0,0,0,4.83,1.32l-.81,12,4,.37s.55-7.51,1.59-10.56c.22-.66.7-2.42,1.29-4.73,1.51-2.26,2.36-3.87,2.36-3.87l1,4.27,3.59-.92s-1.94-3.78-1.7-5.12-1-3.23-2.07-4.75c-.13-.19-.27-.44-.42-.71,1.54-6.25,2.91-11.92,2.91-11.92s1-12.68,18.57-13.67a15.58,15.58,0,0,1,7.14,1.15c1.65,6.29,8.1,31.12,8.69,33.5a44.1,44.1,0,0,1,.66,7.75s3.16-.19,3.59-.67-1.65-9.82-1.65-9.82l.17-7.5,2.32,10.49s2.25,7.87,3.41,12.08.36,6.47.36,6.47l4-.86c.12-2.56-1.59-13-1.59-13s-5.41-29.83-6-31.48-.37-12.63-.37-12.63l-.26-2.55c4.3-3,6.72-19.23,6.72-19.23l4.49-25.1a29.42,29.42,0,0,0,1.78-4v0l.54.61,2.61,6.4c5.17,7.26,10.34,7,10.34,7l0-.05a3.46,3.46,0,0,0,2.65-.7l.05,0C348.82,185.7,344.92,175.21,343.34,173.86ZM252,189c-.3-1.2-.62-2.51-1-3.89l1,0ZM236.4,138.38l-.31.22q-.14-.36-.27-.75A1.73,1.73,0,0,0,236.4,138.38Zm-31.33,53.11a8.06,8.06,0,0,0-1.73,3.31l.39.09-2.82,2.52-1.42-12.2,6.87.29C206,188.52,205.53,190.89,205.07,191.49Zm6.67,25.44s1.42-.33,3.26-.86l-.58,4.4C212.76,218.32,211.74,216.93,211.74,216.93ZM207.8,168.6l0-.12v.12Zm-35.14,30.28c-1.54-.7-12.39-4-16.34-5.24a.8.8,0,0,1-.09-.62c.36-1.22-2.44-4.51-3.53-5.37s-2.56-2.44-1.34-3.41a2.15,2.15,0,0,0,.59-1.11l11.31.49a27.9,27.9,0,0,0,3.31,1s1.93-.25,4.46-.66l22.39,1,2.13,17.32a27.34,27.34,0,0,0-2.34,2.25,17,17,0,0,0-1.69,6.08l-11.68-3.64a1.39,1.39,0,0,0,.06-.19C181,202.72,174.55,199.73,172.66,198.88ZM152.18,180.3c0-.82-.09-1.43-.09-1.43l-.25-2.73c2.2,1.35,4.58,2.84,6.29,4Zm52.74,51.56.24-.16a3.41,3.41,0,0,0,1.66-1.15l2.68,2.32a18.75,18.75,0,0,1-4.12,3Zm46.64-19.07-.43,23.72-3.28-22C248.78,214.07,250.23,213.4,251.56,212.79Zm20.5-32.27s3.53,4.39,6.27,2.92h0c.61.08,5.1-2.34,8-3.94a12.4,12.4,0,0,0,1.39,1.68l1.74-.9.35-.18c.17,1.9.47,5,.71,7.06.37,3-4.7,7.16-4.75,7.2h0s0,.15,0,.39c-.25.22-.4.33-.4.33l.41-.07c0,1,0,2.65-.9,3-1.22.49-1.95.86-4.38.13a45.38,45.38,0,0,0-9-1.49c-4.22-.24-8.75.21-10.92,2.7a3.15,3.15,0,0,0-.22.29l-.11.16-.22.1a.79.79,0,0,0,0,.21c-1.18,2.12-1.51,6-1.44,10.28l-.36.16-.18.08-.14.07-.37.18-.23.11-.29.16-.33.18-.19.11-.42.26-.1.06a5.59,5.59,0,0,0-.47.33l0,0-.17.12.41-27.19,18-.33-.28-2.56-2.78-.17A7.75,7.75,0,0,0,272.06,180.52ZM142.88,248.26l.1-.25a.14.14,0,0,1,0-.06l.1-.22h0l.09.52c-.13.08-.26.16-.4.23a1.8,1.8,0,0,0,.08-.21Zm63.62-2.81a26.85,26.85,0,0,0,4.76-1.32l-2.62,19.65Zm44.86,17.39.74.17v.57l-.78,0Z" transform="translate(-19.6 -23)"/><path class="cls-14" d="M374.87,253.06c0-.71-2.88-1.32-7.12-1.65-1.16-1.92-3-4-3.15-4.86-.25-1.15-3.05-1-5.38-.42,1.47-1.88,3.57-4.09,5.44-4.14s2-1.5.9-3.52a6.42,6.42,0,0,0,1.17-.52c.73-.41.35-.28.3-.38s.23-.39-.5,0a7.51,7.51,0,0,0-1.07.69,6.54,6.54,0,0,0,.11-1.32c0-.84-.07-.45-.19-.45s-.23-.39-.23.45c0,.29,0,.59,0,.89a27.22,27.22,0,0,0-3-3.93h0v0h0a1.05,1.05,0,0,1,.08.13v0s0,0,.05.08v0l.12.26v0l.05.13c.34,1,.58,2.83-1.21,5.25s-3.41,4.66-4,6.52c-.54-1.86-2.14-4.06-4-6.52s-1.55-4.3-1.2-5.25l.05-.13v0a2.17,2.17,0,0,1,.12-.26v0s0-.06,0-.08v0a.57.57,0,0,1,.08-.13h0v0h0a28,28,0,0,0-3,3.93,7.85,7.85,0,0,0,0-.89c0-.84-.11-.45-.23-.45s-.19-.39-.19.45a6.54,6.54,0,0,0,.11,1.32,7,7,0,0,0-1.07-.69c-.73-.4-.44-.11-.5,0s-.43,0,.3.38a6.51,6.51,0,0,0,1.18.52c-1.07,2-1.06,3.46.89,3.52,2.25.06,4.85,3.25,6.25,5.23-1.4.95-5.53,1.18-6.41,1.22h-.17a16.07,16.07,0,0,0,.35,2.17,9.76,9.76,0,0,0,.4,1.3c-1.75.32-2.8.71-2.8,1.13,0,.9,4.58,1.66,10.69,1.83a72.42,72.42,0,0,0,8.06.43,3.24,3.24,0,0,0,.46,0h.07a2.2,2.2,0,0,0,.37-.05h.07l.3-.09,0,0,.24-.11h0a.9.9,0,0,0,.2-.14l0,0a1.07,1.07,0,0,0,.14-.16l0,0C372.32,254.32,374.87,253.73,374.87,253.06Z" transform="translate(-19.6 -23)"/><path class="cls-15" d="M147.14,255.74s.67,3.1-.11,5.08a15.7,15.7,0,0,0-.11,7.81c.55,1.53,2.46,3.58-2.68,4.52s-8.61.1-8.82-.66-1.34-3.76-.44-5.46,1.23-6.12-.45-8.66-.56-6.49,1-7,8.31-4.48,8.31-4.48-2.5,4.34.18,5.3A4.84,4.84,0,0,1,147.14,255.74Z" transform="translate(-19.6 -23)"/><path class="cls-16" d="M203.59,231.66s-10.33,7.16-14.82,9.1-19.43,9-19.43,9-15.06,1.95-17.49,5.1-5.83,6.81-5.83,6.81l-2.67-14.82s29.63-15.31,29.88-16.4,8.74-4.37-16-4.25c-21.72.11-29.72,1.52-31.53-1.48a3.28,3.28,0,0,1-.42-1.56c-.25-5,29.15-27,29.15-27s1.44.75,3.15,1.75a27.08,27.08,0,0,1,5.11,3.6c1.94,2.06,6.68,2.67,6.68,2.67l28.91,9s8.5,2.67,8.74,10.2S203.59,231.66,203.59,231.66Z" transform="translate(-19.6 -23)"/><path class="cls-7" d="M207,223.4c-.24-7.55-8.74-10.19-8.74-10.19l-28.91-9s-4.74-.61-6.68-2.67a27.08,27.08,0,0,0-5.11-3.6c-1.71-1-3.15-1.75-3.15-1.75s-29.4,22-29.15,27a3.28,3.28,0,0,0,.42,1.56c1.81,3,9.81,1.59,31.53,1.48,24.77-.12,16.27,3.16,16,4.25s-29.88,16.4-29.88,16.4l.06.33a75.88,75.88,0,0,1-7.88,4.23c-1.56.47-2.68,4.42-1,7s1.32,6.95.45,8.66.22,4.71.44,5.46,3.69,1.6,8.82.66,3.24-3,2.68-4.52a15.58,15.58,0,0,1,.11-7.81c.05-.14.1-.28.14-.42,1.21-1.33,3.14-3.54,4.68-5.55,2.43-3.15,17.49-5.1,17.49-5.1s14.94-7,19.43-9,14.82-9.1,14.82-9.1S207.24,230.92,207,223.4Zm-63,28.8c-2-.71-1.11-3.32-.53-4.59l.85,4.72-.32-.12Z" transform="translate(-19.6 -23)"/><path class="cls-17" d="M166.06,230.87s8.38,32.06,9.05,34.79a42.83,42.83,0,0,1,.66,7.72s3.16-.18,3.58-.66-1.65-9.78-1.65-9.78l.6-26-8.86-7.47Z" transform="translate(-19.6 -23)"/><rect class="cls-18" x="124.62" y="225.13" width="6.56" height="5.65"/><path class="cls-15" d="M149,255.74s.67,3.1-.11,5.08a15.7,15.7,0,0,0-.11,7.81c.56,1.53,2.46,3.58-2.68,4.52s-8.61.1-8.82-.66-1.34-3.76-.44-5.46,1.23-6.12-.45-8.66-.56-6.49,1-7,8.31-4.48,8.31-4.48-2.5,4.34.18,5.3A4.84,4.84,0,0,1,149,255.74Z" transform="translate(-19.6 -23)"/><path class="cls-15" d="M155.25,193.34S171.1,198.14,173,199s8.32,3.83,7.23,7.83-10,4.44-10,4.44l-13.6-5-5.35-10.81Z" transform="translate(-19.6 -23)"/><path class="cls-19" d="M160.41,137.72s-.78,1.22-1.84,3.08c-.08.15-.18.31-.27.47-2.89,5.16-7.44,14.43-4.54,17.4,4.1,4.19-9.38-2.37-9.38-2.37l-.33-.59-5.51-10a71.19,71.19,0,0,0,6.94-8.21l.12-.18c1.16-1.74,2-3.35,1.78-4.37s1.11-.94,2.94-.29A74.65,74.65,0,0,1,160.41,137.72Z" transform="translate(-19.6 -23)"/><path class="cls-7" d="M160.41,137.72s-.78,1.22-1.84,3.08c-.08.15-.18.31-.27.47a10.64,10.64,0,0,1-12.69-3.56,1.18,1.18,0,0,1-.13-.18l.13-.18c1.16-1.74,1.94-3.35,1.78-4.37s1.11-.94,2.93-.29A74.65,74.65,0,0,1,160.41,137.72Z" transform="translate(-19.6 -23)"/><path class="cls-19" d="M164.88,131.06a10.66,10.66,0,0,1-10.66,10.65h0a11.47,11.47,0,0,1-1.94-.17,10.66,10.66,0,1,1,12.58-10.48Z" transform="translate(-19.6 -23)"/><path class="cls-7" d="M162.2,124a9.88,9.88,0,0,0-1.65,1c-1,.59-2.4.57-3.38,1.14-.81.47-.81,1.46-1.16,2.24-.91,2-4.2,2.56-5.69,4.3a4.84,4.84,0,0,0-.33.46c-.81,1.37-.33,3,.3,4.45a35,35,0,0,0,2,4l.4.68c.81,1.32,1.74,2.78,1.25,4.21-.81,2.32-4.76,2.86-5.92,5.07-.33.67-.39,1.4-.75,2.05a5.54,5.54,0,0,1-3.21,2.15l-5.51-10a70.83,70.83,0,0,0,7.06-8.39A10.66,10.66,0,0,1,162.19,124Z" transform="translate(-19.6 -23)"/><path class="cls-20" d="M165.7,121.74c-.58-.66-1.48-1.1-1.9-1.83a5.91,5.91,0,0,1-.44-1.41,5,5,0,0,0-3.08-3.18,6.53,6.53,0,0,0-4.84.1c-.71.33-1.34.76-2.09,1a8.27,8.27,0,0,1-4.89-.19,17.84,17.84,0,0,0-4.84-1c-1.67,0-3.49.83-3.81,2.22a8.79,8.79,0,0,0-.11,1.14c-.2,1.68-1.74,3-3.41,4s-3.55,1.57-5.1,2.65-2.75,2.74-2.33,4.39a8.36,8.36,0,0,0,1.75,2.76c1.68,2.25,2.35,4.92,3,7.53a5.91,5.91,0,0,1,.23,2.76c-.39,1.64-2.08,2.78-3.19,4.16a8.76,8.76,0,0,0-1.73,6,23.81,23.81,0,0,0,1.35,6.12,7.59,7.59,0,0,0,.94,2.12,9.6,9.6,0,0,0,3.52,2.61,4.07,4.07,0,0,0,1.95.64c1.46,0,2.31-1.41,2.63-2.62a10.68,10.68,0,0,0,.3-3.08,2.28,2.28,0,0,1,.1-1.1,2,2,0,0,1,.85-.81c2.09-1.26,5.26-1.48,6.35-3.45.36-.67.41-1.4.75-2.05,1.15-2.22,5.11-2.75,5.92-5.08.49-1.43-.44-2.89-1.25-4.21a37,37,0,0,1-2.4-4.64c-.61-1.44-1.11-3.08-.3-4.44,1.25-2.12,5-2.54,6-4.76.35-.78.35-1.77,1.16-2.24,1-.56,2.35-.55,3.38-1.13a6.58,6.58,0,0,1,1.94-1.09c1.06-.22,2.53.64,3.44.19A1.32,1.32,0,0,0,165.7,121.74Z" transform="translate(-19.6 -23)"/><path class="cls-7" d="M165.58,121.74c-.57-.66-1.49-1.1-1.91-1.83a6.54,6.54,0,0,1-.43-1.41,5,5,0,0,0-2.78-3,4.7,4.7,0,0,1,1.45,2.19,6,6,0,0,0,.43,1.42c.42.73,1.32,1.17,1.9,1.83s.67,1.6-.14,2-2.37-.4-3.44-.18a6.71,6.71,0,0,0-1.94,1.08c-1,.58-2.39.57-3.37,1.14-.81.47-.81,1.46-1.16,2.23-1,2.22-4.77,2.65-6,4.76-.8,1.36-.3,3,.31,4.44a34,34,0,0,0,2.4,4.64c.81,1.32,1.74,2.78,1.24,4.21-.81,2.32-4.76,2.86-5.91,5.08-.33.66-.4,1.4-.75,2-1.09,2-4.26,2.2-6.35,3.46a2,2,0,0,0-.85.81,2.14,2.14,0,0,0-.1,1.09,10.38,10.38,0,0,1-.31,3.09c-.3,1.22-1.16,2.6-2.63,2.62a4.14,4.14,0,0,1-2-.64c-.29-.16-.59-.31-.88-.48a17.78,17.78,0,0,0,2.22,1.32,4.15,4.15,0,0,0,2,.65c1.46,0,2.32-1.41,2.63-2.63a10,10,0,0,0,.3-3.08,2.17,2.17,0,0,1,.11-1.1,2,2,0,0,1,.84-.81c2.1-1.26,5.26-1.48,6.35-3.45.36-.66.41-1.39.75-2,1.16-2.22,5.11-2.75,5.92-5.08.49-1.42-.44-2.89-1.25-4.21a35.7,35.7,0,0,1-2.4-4.64c-.61-1.43-1.11-3.07-.3-4.44,1.26-2.11,5-2.54,6-4.76.35-.77.35-1.76,1.16-2.23,1-.57,2.35-.56,3.38-1.14a6.34,6.34,0,0,1,1.94-1.08c1.06-.22,2.53.63,3.44.18S166.05,122.28,165.58,121.74Z" transform="translate(-19.6 -23)"/><path class="cls-21" d="M282.48,170.75s1.65,6.95,5.3,10.62l1.46-3.17-1.83-5.79Z" transform="translate(-19.6 -23)"/><path class="cls-7" d="M287.4,172.41l-4.92-1.65s1.65,7,5.3,10.62" transform="translate(-19.6 -23)"/><path class="cls-22" d="M346.91,187.33l-.05,0a3.47,3.47,0,0,1-4.74-.44l-13.9-15.6-.36-.4,7.28-8.39,1.32.86.3.53c1.14,2,5.16,9,6.5,10.15C344.85,175.42,348.74,185.87,346.91,187.33Z" transform="translate(-19.6 -23)"/><path class="cls-23" d="M210.51,232.08s-3.73,3.82-6.29,4.19-4.63,8.56-1.09,9.2,10.38-1.92,11.39-3,4.63-7.56,4.63-7.56Z" transform="translate(-19.6 -23)"/><path class="cls-22" d="M288.8,178.33l-1.82,1c-2.8,1.56-7.91,4.35-8.57,4.26-.91-.12-1.09-8.68-1.09-8.68l4.84-3.58.5-.38,1.46-.54Z" transform="translate(-19.6 -23)"/><path class="cls-7" d="M288.8,178.33l-1.82,1a11.07,11.07,0,0,0-4.82-8l.5-.38,1.46-.54Z" transform="translate(-19.6 -23)"/><path class="cls-4" d="M299.06,168.38l-5.65,10.06-3.91,2-1.74.9a11.17,11.17,0,0,0-5.29-10.63c1.58-.33,11.33-9.07,12.76-10.35l.17-.16,1.33-.18Z" transform="translate(-19.6 -23)"/><path class="cls-24" d="M316.85,222.73l-4.79-3.64,15.66-52,5.53,2.06-4.19,8.26-4.61,25.74S321.72,221.52,316.85,222.73Z" transform="translate(-19.6 -23)"/><path class="cls-22" d="M335.5,161.45,319,161.33s-14.45,4-13.24-1.82c.76-3.64-1.05-8.19-2.51-11.09-.17-.35-.33-.68-.51-1-.63-1.17-1.11-1.9-1.11-1.9s1.72-.28,3.89-.59c1-.14,2.11-.29,3.18-.42h0l1.63-.18c2.13-.21,3.8-.26,3.8.1a7.88,7.88,0,0,0,.87,2.32c.08.17.18.35.27.54a23.5,23.5,0,0,0,2.61,4,9.35,9.35,0,0,0,1.84,1.77,6.53,6.53,0,0,0,.77.46,4.55,4.55,0,0,0,1.28.41c1.85.31,3.54-.49,6,.23C331,155.14,335.5,161.45,335.5,161.45Z" transform="translate(-19.6 -23)"/><path class="cls-24" d="M248.22,202.14s-13.9,7.65-14.76,10.69,2.07,5.46,2.07,5.46.48,2.62.66,4.56,2.43,20.83,3.46,22.41.18,7.53.18,7.53h3.36l-.24-9.11s-3.77-26.78-.61-29.51,5.77-5.83,6.68-5.59S248.22,202.14,248.22,202.14Z" transform="translate(-19.6 -23)"/><path class="cls-25" d="M231.1,191.27S222,208.67,221.81,211s-7.93,12.39-7.93,12.39l9.66,12.2s1.28-3.09,3.46-4.19a3.37,3.37,0,0,0,1.73-3.55,5,5,0,0,0,3.92-2.73c1.65-2.74,3.64-5.47,3.64-6.65s12-13.57,12-13.57l-.91-13.21-2.46-4.2Z" transform="translate(-19.6 -23)"/><path class="cls-7" d="M207.42,192.27l-.08.07c-1.11,1-13.5,12-13.5,12.23s-4.46,7.65,1.1,14,18.31,16.85,18.31,16.85,5.55,4,6.29,4.83,11.75,0,5.19-7.47S212,217,212,217s10.93-2.65,11.66-4.46-14.39-24.6-14.39-24.6Z" transform="translate(-19.6 -23)"/><path class="cls-25" d="M207.05,192.27l-.07.07c-1.11,1-13.5,12-13.5,12.23s-4.46,7.64,1.11,14,18.31,16.85,18.31,16.85,5.55,4,6.29,4.83,11.75,0,5.19-7.47S211.63,217,211.63,217s10.93-2.65,11.66-4.46,15.12-24.14,15.12-24.14l-29.51-.46Z" transform="translate(-19.6 -23)"/><path class="cls-26" d="M238.57,143.26l-1.09,9.94s-11.21,4.46-11.48,4.37-7.47-6.56-6.29-10.84a37.91,37.91,0,0,0,1-7.56c.13-2.43.11-4.28.11-4.28s16.3-5.83,14.85-1.83a7.67,7.67,0,0,0,.22,4.83A22.69,22.69,0,0,0,238.57,143.26Z" transform="translate(-19.6 -23)"/><path class="cls-18" d="M138.91,122.58l0,.06a52.07,52.07,0,0,0-3.08,8.48l-.1.38a21,21,0,0,0-.68,6c.22,4.35,2.43,5.35,2.43,5.35s-33.34-5.46-27.88-6.38a6.45,6.45,0,0,0,2.84-1.5,34.1,34.1,0,0,0,5.67-6.56c.66-.94,1.3-1.9,1.88-2.81a1.88,1.88,0,0,0,.12-.18c2.18-3.39,3.7-6.26,3.7-6.26S146.75,105.28,138.91,122.58Z" transform="translate(-19.6 -23)"/><path class="cls-17" d="M304.1,229.1s8.38,32.06,9,34.79a42.77,42.77,0,0,1,.66,7.72s3.16-.19,3.58-.67-1.65-9.77-1.65-9.77l.6-26-8.86-7.47Z" transform="translate(-19.6 -23)"/><path class="cls-24" d="M309,218.9l8.38.19.61,5.77s-.24,10.92.36,12.58,6,31.33,6,31.33,1.7,10.45,1.58,13l-3.94.85s.78-2.25-.37-6.44-3.4-12-3.4-12l-2.85-12.88s-.49-22.85-18-21.85S278.84,243,278.84,243s-6,24.6-7,27.64-1.58,10.5-1.58,10.5l-4-.36,1.32-19.87L271.3,220l11.41-.79Z" transform="translate(-19.6 -23)"/><path class="cls-17" d="M132.09,234.39s-8.38,32.07-9,34.8a43.13,43.13,0,0,0-.67,7.72s-3.16-.19-3.58-.67,1.63-9.78,1.63-9.78l-.61-26L128.7,233Z" transform="translate(-19.6 -23)"/><path class="cls-24" d="M127.17,224.19l-8.38.18-.61,5.77s.25,10.92-.36,12.58-6,31.33-6,31.33-1.7,10.44-1.58,13l4,.85s-.79-2.25.36-6.43,3.4-12,3.4-12l2.86-12.87s.48-22.85,18-21.85,18.52,13.59,18.52,13.59,6,24.59,7,27.63,1.58,10.51,1.58,10.51l4-.37-1.33-19.86-3.71-40.87-11.42-.79Z" transform="translate(-19.6 -23)"/><path class="cls-7" d="M235.89,137.89q-.15.18-.3.33a10.93,10.93,0,0,1-14.88.95c.12-2.42.1-4.29.1-4.29s16.31-5.83,14.85-1.82A7.68,7.68,0,0,0,235.89,137.89Z" transform="translate(-19.6 -23)"/><path class="cls-26" d="M238.57,130.36a10.93,10.93,0,1,1-10.92-10.93h0a10.87,10.87,0,0,1,10.92,10.81Z" transform="translate(-19.6 -23)"/><path class="cls-16" d="M205.41,231.66s-10.32,7.16-14.82,9.1-19.43,9-19.43,9-15.06,1.95-17.49,5.1-5.83,6.81-5.83,6.81l-2.67-14.82s29.63-15.31,29.88-16.4,8.75-4.37-16-4.25c-21.72.11-29.72,1.52-31.53-1.48a3.28,3.28,0,0,1-.42-1.56c-.24-5,29.15-27,29.15-27s1.44.75,3.15,1.75a26.76,26.76,0,0,1,5.11,3.6c2,2.06,6.68,2.67,6.68,2.67l28.91,9s8.5,2.64,8.75,10.19S205.41,231.66,205.41,231.66Z" transform="translate(-19.6 -23)"/><path class="cls-7" d="M225.09,153.57s-4.28-9.49-5.74-9.49-3.73,49.09-3.73,49.09l22.31.35.92-25.77-4.56-22.85S230.19,153.92,225.09,153.57Z" transform="translate(-19.6 -23)"/><path class="cls-7" d="M225.09,154.3s-4.28-9.49-5.74-9.49-3.73,49.08-3.73,49.08l25.32.39-2.1-25.81-4.55-22.84S230.19,154.65,225.09,154.3Z" transform="translate(-19.6 -23)"/><path class="cls-23" d="M225.09,153.94s-4.28-9.48-5.74-9.48-3.73,49.08-3.73,49.08l25.32.37-2.1-25.8-4.55-22.84S230.19,154.27,225.09,153.94Z" transform="translate(-19.6 -23)"/><path class="cls-7" d="M220.94,141.47a1.78,1.78,0,0,0-1.86-.76c-1.09.37-1.91-.63-3,.37s-5.46,2.37-6.29,1.91-3.73,1.55-4.37,2.73-2.73,4.38-2.73,4.38-1.82,2.18-1.55,3.37a3.07,3.07,0,0,1-1.73,3.09c-1.1.55-3.28,6-3.28,6s-2.37,5-4.83,6.3-.64,6.83-.64,6.83l14.57-.46,3.28-7.47s-1.27,21.85-2.82,23.87a8.07,8.07,0,0,0-1.73,3.28s6,1.27,7.28,2.37,4.63-.28,4.63-.28L219.14,168a54.6,54.6,0,0,0,1.19-8.27C220.33,156.87,220.94,141.47,220.94,141.47Z" transform="translate(-19.6 -23)"/><path class="cls-27" d="M220.57,141.47a1.77,1.77,0,0,0-1.86-.76c-1.09.37-1.91-.63-3,.37s-5.47,2.37-6.29,1.91-3.74,1.55-4.38,2.73-2.73,4.38-2.73,4.38-1.82,2.18-1.55,3.37a3,3,0,0,1-1.73,3.09c-1.09.55-3.27,6-3.27,6s-2.38,5-4.83,6.3-.65,6.82-.65,6.82l14.57-.45,3.31-7.47s-1.27,21.85-2.82,23.87a8.15,8.15,0,0,0-1.74,3.27s6,1.28,7.29,2.37,4.63-.27,4.63-.27L218.8,168a54.59,54.59,0,0,0,1.19-8.28C220,156.86,220.57,141.47,220.57,141.47Z" transform="translate(-19.6 -23)"/><path class="cls-7" d="M200.5,157.29s1.09,3,4.09,2.74S200.5,157.29,200.5,157.29Z" transform="translate(-19.6 -23)"/><path class="cls-7" d="M203.41,152.74a3.92,3.92,0,0,1,2.73,2.09C206.88,156.56,203.41,152.74,203.41,152.74Z" transform="translate(-19.6 -23)"/><path class="cls-7" d="M209.06,149.64c0,.36,1.27,6.74,0,9.38a13.09,13.09,0,0,0-1.09,5.74Z" transform="translate(-19.6 -23)"/><path class="cls-7" d="M236,139.27s.71-.83,1.44-.74a9.33,9.33,0,0,1,2.09.91c.91.36,3.1.45,3.1.72s1.92,1.37,3.19,1.66,5.3,3,6.29,8.28,2.73,6.82,2.73,6.82l-9.66,4.74s7.47,31.7,8.39,34,1,15.76,1,15.76-5.92,2.65-7.47,3.46-.91-7.83-4.1-12.84-6.83-12.3-6.83-12.3l-5.55-15.6s-3.56-20.77-.55-24.6S236.22,140.64,236,139.27Z" transform="translate(-19.6 -23)"/><path class="cls-27" d="M236.3,139.27s.71-.83,1.44-.74a9.38,9.38,0,0,1,2.1.91c.91.36,3.1.45,3.1.72s1.91,1.37,3.18,1.66,5.3,3,6.29,8.28,2.74,6.82,2.74,6.82l-9.65,4.74s7.46,31.7,8.38,34,1,15.76,1,15.76-5.92,2.65-7.47,3.46-.91-7.83-4.1-12.84-6.83-12.3-6.83-12.3l-5.55-15.6s-3.56-20.77-.54-24.59S236.58,140.64,236.3,139.27Z" transform="translate(-19.6 -23)"/><path class="cls-7" d="M256.06,179.15a9.72,9.72,0,0,1-1,.12c-2.91.27-8.64.34-8.64.34s-4.28-8.48-7.93-8.21c0,0,3.37-3.82,4.74-3.37.23.08.37-.09.44-.41.37-1.63-.9-7.24-.9-7.24L241,152.82l10,2.46a27,27,0,0,1,3.74,1.64s.09,3.92.82,4.83,1.55,5.28,1.46,6.38,1,6.19-.1,7.56S258.34,178.79,256.06,179.15Z" transform="translate(-19.6 -23)"/><path class="cls-27" d="M256.43,179.15c-.27,0-.62.09-1,.12-2.91.27-8.64.34-8.64.34s-4.28-8.48-7.93-8.21c0,0,3.37-3.82,4.74-3.37.23.08.37-.09.44-.41.37-1.63-.9-7.24-.9-7.24l-1.73-7.56,10,2.46a26.44,26.44,0,0,1,3.74,1.64s.09,3.92.82,4.83,1.55,5.28,1.46,6.38,1,6.19-.1,7.56S258.71,178.79,256.43,179.15Z" transform="translate(-19.6 -23)"/><path class="cls-7" d="M246.13,159.3s8.38.91,8.75,3S246.13,159.3,246.13,159.3Z" transform="translate(-19.6 -23)"/><path class="cls-23" d="M218.62,238.82a12.54,12.54,0,0,0,.09,4.92,17.58,17.58,0,0,1,.09,7.56c-.45,1.46-2,3.46,2.19,4.38s7,.08,7.2-.64,1.09-3.65.36-5.3-1-5.92.37-8.38.45-6.29-.82-6.74-3.47-1.46-3.47-1.46,2.37,4.28.19,5.19S218.62,238.82,218.62,238.82Z" transform="translate(-19.6 -23)"/><path class="cls-7" d="M238.57,130.36a10.86,10.86,0,0,1-3,7.5s0,0,0-.05a4.74,4.74,0,0,1-.61-2.17,16.83,16.83,0,0,1,.73-2.65,6.93,6.93,0,0,0-.53-3.41c-.27-.81-.79-1.79-1.64-1.7a1.4,1.4,0,0,1-.5.06c-.45-.06-.54-.66-.6-1.11a5,5,0,0,0-4.11-4.32,1.26,1.26,0,0,0-.72,0c-.32.14-.49.48-.78.68-.92.64-2.1-.59-3.22-.49-1,.08-1.54,1.06-1.93,1.93s-.89,1.87-1.82,2.07a.55.55,0,0,1-.45,0c-.29-.21-.09-.66.06-1a2,2,0,0,0-.33-2.17,10.92,10.92,0,0,1,19.47,6.82Z" transform="translate(-19.6 -23)"/><path class="cls-28" d="M219.44,125.34c-.14.33-.34.78-.05,1a.61.61,0,0,0,.44,0c.93-.21,1.43-1.21,1.82-2.08s1-1.85,1.93-1.93c1.13-.09,2.3,1.13,3.23.49.28-.19.46-.54.77-.68a1.36,1.36,0,0,1,.72,0,5.05,5.05,0,0,1,4.12,4.32c.05.45.14,1.05.59,1.12a2.07,2.07,0,0,0,.5-.06c.85-.1,1.37.88,1.64,1.69a7,7,0,0,1,.53,3.41,18.32,18.32,0,0,0-.73,2.65,5.09,5.09,0,0,0,.61,2.17c.31.69.82,1.5,1.58,1.4s1-.73,1.25-1.28.82-1.14,1.42-1c.27.07.55.3.79.16a.55.55,0,0,0,.23-.39c.29-1.28-.13-2.71.49-3.86a7.6,7.6,0,0,1,2.23-2,6.38,6.38,0,0,0,1-9l-.13-.17c-.84-1-2-1.85-2.12-3.14-.05-1,.61-1.89.62-2.88a3.45,3.45,0,0,0-1.32-2.47,8.51,8.51,0,0,0-7.62-2,6,6,0,0,1-2.13.34,7.64,7.64,0,0,1-2.29-1,5.85,5.85,0,0,0-7.28,2c-.87,1.32-1.2,3.09-2.49,4-.85.62-2.06.86-2.53,1.79a3.17,3.17,0,0,0-.11,1.86,4.34,4.34,0,0,0,1.38,2.65C219.3,123.31,220,124.15,219.44,125.34Z" transform="translate(-19.6 -23)"/><polygon class="cls-29" points="189.28 240.6 189.19 258.36 185.91 258.09 173.98 161.07 177.5 160.97 179.99 160.89 189.28 240.6"/><polygon class="cls-30" points="189.19 258.36 185.91 258.09 173.98 161.07 177.5 160.97 177.35 161.53 189.19 258.36"/><polygon class="cls-29" points="205.22 161.26 193.2 257.45 190.95 257.96 189.19 258.36 189.28 240.6 199.85 161.62 200.06 161.6 205.22 161.26"/><polygon class="cls-30" points="190.92 257.91 190.95 257.96 189.19 258.36 189.28 240.6 199.85 161.62 200.06 161.6 202.22 162.07 190.92 257.91"/><polygon class="cls-30" points="232.73 220.47 232.46 226.78 231.73 243.61 220.44 161.16 223.02 160.88 223.81 160.8 232.73 220.47"/><polygon class="cls-29" points="232.73 220.47 232.46 226.78 223.17 161.62 223.02 160.88 223.81 160.8 232.73 220.47"/><polygon class="cls-30" points="235.83 190.86 236.1 231.03 234.58 230.98 231.37 230.85 232.64 160.53 235.09 160.83 236.29 160.98 235.83 190.86"/><polygon class="cls-29" points="235.83 190.86 236.1 231.03 234.58 230.98 235.09 160.83 236.29 160.98 235.83 190.86"/><polygon class="cls-30" points="131.53 160.25 131.71 157.52 147.38 157.61 194.47 156.88 230.82 158.89 253.96 159.34 254.23 161.89 194.75 162.99 131.53 160.25"/><polygon class="cls-29" points="131.71 157.52 178.17 159.53 253.96 159.34 197.3 155.88 131.71 157.52"/><path class="cls-7" d="M138.91,122.58l0,.06a52.07,52.07,0,0,0-3.08,8.48l-.1.38a13.93,13.93,0,0,1-3.9.56c-3.52,0-5.1-3.69-7.56-5.83-1-.84-3.45.59-4.16-.49l-.12-.18a1.88,1.88,0,0,0,.12-.18c2.18-3.4,3.7-6.26,3.7-6.26S146.75,105.28,138.91,122.58Z" transform="translate(-19.6 -23)"/><path class="cls-18" d="M145.84,117.66a14,14,0,1,1-1.46-6.23A14,14,0,0,1,145.84,117.66Z" transform="translate(-19.6 -23)"/><path class="cls-7" d="M137.46,142.81s-33.34-5.47-27.88-6.38a6.56,6.56,0,0,0,2.84-1.5,2.27,2.27,0,0,1,.44.77l6.2-.73s7.89-1.7,11.05.25a25.12,25.12,0,0,0,4.92,2.24C135.25,141.8,137.46,142.81,137.46,142.81Z" transform="translate(-19.6 -23)"/><path class="cls-7" d="M159.37,197.94a1.72,1.72,0,0,1-.6.31c-1.57.49-3.52,7.78-3.52,7.78S135,225.46,127.49,224.71a3.28,3.28,0,0,1-.42-1.56c-.24-5,29.15-27,29.15-27S157.66,196.94,159.37,197.94Z" transform="translate(-19.6 -23)"/><path class="cls-31" d="M212.62,177.5c0,1.84-3.22,3.69-7.2,3.69s-7.19-1.85-7.19-3.69,3.22-3,7.2-3S212.62,175.66,212.62,177.5Z" transform="translate(-19.6 -23)"/><path class="cls-7" d="M212.62,177.5c0,1.84-3.22,3.69-7.2,3.69s-7.19-1.85-7.19-3.69,3.22-3,7.2-3S212.62,175.66,212.62,177.5Z" transform="translate(-19.6 -23)"/><ellipse class="cls-31" cx="185.83" cy="154.5" rx="7.2" ry="3.34"/><ellipse class="cls-32" cx="185.85" cy="154.63" rx="4.3" ry="1.73"/><path class="cls-33" d="M215.39,173.61c-.14-.91-1.34-1.51-2.87-1.54a6.21,6.21,0,0,0-1.22.09c-2.07.33-3.6,1.52-3.42,2.64.14.9,1.32,1.49,2.82,1.54a6.56,6.56,0,0,0,1.26-.09C214,175.93,215.57,174.74,215.39,173.61Zm-3.52,2.07a3.68,3.68,0,0,1-.66.06c-1.2,0-2.16-.41-2.27-1.1s1-1.65,2.45-1.9a4.77,4.77,0,0,1,1.07-.06c1,.07,1.76.49,1.86,1.09C214.45,174.59,213.36,175.44,211.87,175.68Z" transform="translate(-19.6 -23)"/><path class="cls-33" d="M208.88,177.33a.73.73,0,0,1-.17.47,4.3,4.3,0,0,1-3.21,1,4.69,4.69,0,0,1-3.11-.89.87.87,0,0,1-.28-.6c0-.83,1.52-1.5,3.39-1.5S208.88,176.5,208.88,177.33Z" transform="translate(-19.6 -23)"/><path class="cls-7" d="M208.88,177.33a.73.73,0,0,1-.17.47,6.58,6.58,0,0,1-2.88.67H205a6.6,6.6,0,0,1-2.63-.55.85.85,0,0,1-.28-.6c0-.82,1.52-1.49,3.39-1.49S208.88,176.5,208.88,177.33Z" transform="translate(-19.6 -23)"/><path class="cls-7" d="M212.52,172.07a6,6,0,0,1-.05.61,4.77,4.77,0,0,0-1.07.06c-1.49.24-2.59,1.09-2.46,1.9s1.08,1.13,2.28,1.1a6,6,0,0,1-.52.61c-1.51,0-2.68-.64-2.82-1.54-.18-1.13,1.35-2.31,3.42-2.64A6.22,6.22,0,0,1,212.52,172.07Z" transform="translate(-19.6 -23)"/><path class="cls-33" d="M198.47,170.89v.93a6.54,6.54,0,0,0,6.55,6.54h.82a6.54,6.54,0,0,0,6.53-6.54v-.93Z" transform="translate(-19.6 -23)"/><ellipse class="cls-34" cx="185.79" cy="147.68" rx="6.98" ry="1.99"/><ellipse class="cls-7" cx="185.83" cy="147.56" rx="6.62" ry="1.79"/><ellipse class="cls-35" cx="185.85" cy="147.49" rx="6.47" ry="1.79"/><path class="cls-36" d="M200.71,171a.18.18,0,0,1-.18-.18.18.18,0,0,1,.18-.19.18.18,0,0,1,.19.19h0A.19.19,0,0,1,200.71,171Zm0-.3a.11.11,0,0,0-.11.12.11.11,0,0,0,.11.11.11.11,0,0,0,.12-.11.12.12,0,0,0-.12-.12Z" transform="translate(-19.6 -23)"/><path class="cls-36" d="M200.93,170.59a.19.19,0,0,1,0-.37.19.19,0,0,1,.19.18h0A.19.19,0,0,1,200.93,170.59Zm0-.3a.12.12,0,1,0,0,.23.12.12,0,0,0,.12-.11h0A.11.11,0,0,0,200.93,170.29Z" transform="translate(-19.6 -23)"/><path class="cls-36" d="M200.71,170a.18.18,0,0,1-.18-.18.18.18,0,0,1,.18-.19.18.18,0,0,1,.19.19h0A.18.18,0,0,1,200.71,170Zm0-.3a.11.11,0,0,0-.11.12.11.11,0,0,0,.11.11.11.11,0,0,0,.12-.11h0A.12.12,0,0,0,200.71,169.71Z" transform="translate(-19.6 -23)"/><path class="cls-36" d="M202.05,171.36a.19.19,0,1,1,.18-.19h0A.18.18,0,0,1,202.05,171.36Zm0-.3a.11.11,0,0,0-.11.11h0a.11.11,0,1,0,.22,0,0,0,0,0,0,0,0,.1.1,0,0,0-.1-.12Z" transform="translate(-19.6 -23)"/><path class="cls-36" d="M207.41,171a.18.18,0,1,1,.18-.18A.18.18,0,0,1,207.41,171Zm0-.3a.11.11,0,0,0-.11.12.11.11,0,0,0,.11.11h0a.11.11,0,0,0,.12-.11A.12.12,0,0,0,207.41,170.7Z" transform="translate(-19.6 -23)"/><path class="cls-36" d="M208.6,171.47a.18.18,0,0,1,0-.36.19.19,0,0,1,.19.18h0A.19.19,0,0,1,208.6,171.47Zm0-.3a.11.11,0,0,0-.11.12.11.11,0,0,0,.11.11.12.12,0,0,0,0-.24h0Z" transform="translate(-19.6 -23)"/><path class="cls-36" d="M208.64,170.7a.18.18,0,1,1,0-.36.19.19,0,0,1,.19.18h0A.19.19,0,0,1,208.64,170.7Zm0-.3a.12.12,0,0,0,0,.24.12.12,0,0,0,.12-.12h0A.12.12,0,0,0,208.64,170.4Z" transform="translate(-19.6 -23)"/><path class="cls-36" d="M209.21,169.48a.19.19,0,1,1,0-.37.18.18,0,0,1,.18.19h0a.19.19,0,0,1-.18.18Zm0-.3a.12.12,0,0,0-.12.12.12.12,0,0,0,.1.13.11.11,0,0,0,.13-.1v0a.12.12,0,0,0-.11-.13h0Z" transform="translate(-19.6 -23)"/><path class="cls-36" d="M208.93,171.16a.18.18,0,1,1,.18-.18h0A.18.18,0,0,1,208.93,171.16Zm0-.3a.12.12,0,0,0,0,.24.12.12,0,0,0,.12-.12h0a.11.11,0,0,0-.11-.12h0Z" transform="translate(-19.6 -23)"/><path class="cls-36" d="M209.59,170.79a.18.18,0,0,1-.18-.18.19.19,0,0,1,.18-.19.18.18,0,0,1,.18.18h0A.18.18,0,0,1,209.59,170.79Zm0-.3a.13.13,0,0,0-.12.11.12.12,0,0,0,.12.12.13.13,0,0,0,.12-.11h0a.13.13,0,0,0-.12-.11Z" transform="translate(-19.6 -23)"/><path class="cls-36" d="M209.53,171.22a.19.19,0,0,1,0-.37.19.19,0,0,1,.19.18h0a.19.19,0,0,1-.18.19Zm0-.3a.12.12,0,0,0-.14.1.12.12,0,0,0,.1.13h0a.12.12,0,0,0,0-.23Z" transform="translate(-19.6 -23)"/><path class="cls-36" d="M209.32,170.12a.18.18,0,1,1,.18-.18h0A.18.18,0,0,1,209.32,170.12Zm0-.29a.11.11,0,0,0-.11.11.11.11,0,0,0,.11.12.12.12,0,0,0,.12-.12h0a.11.11,0,0,0-.12-.1Z" transform="translate(-19.6 -23)"/><path class="cls-36" d="M210.32,169.89a.18.18,0,1,1,0-.36.18.18,0,0,1,.18.18h0A.18.18,0,0,1,210.32,169.89Zm0-.3a.12.12,0,0,0,0,.24.12.12,0,0,0,.11-.12h0a.12.12,0,0,0-.11-.12Z" transform="translate(-19.6 -23)"/><path class="cls-36" d="M207.41,169.45a.18.18,0,1,1,.18-.18A.18.18,0,0,1,207.41,169.45Zm0-.29a.11.11,0,0,0-.11.11.11.11,0,0,0,.11.12h0a.12.12,0,0,0,.12-.12A.11.11,0,0,0,207.41,169.16Z" transform="translate(-19.6 -23)"/><path class="cls-36" d="M206.72,169.17a.18.18,0,1,1,0-.36.19.19,0,0,1,.19.18h0A.19.19,0,0,1,206.72,169.17Zm0-.29a.11.11,0,0,0-.11.11.11.11,0,0,0,.11.12.12.12,0,0,0,.12-.12h0a.12.12,0,0,0-.1-.13h0Z" transform="translate(-19.6 -23)"/><path class="cls-36" d="M205.21,169.27a.19.19,0,0,1-.19-.18.18.18,0,0,1,.18-.18.19.19,0,0,1,.19.18h0A.18.18,0,0,1,205.21,169.27Zm0-.3a.12.12,0,0,0-.12.12.13.13,0,0,0,.11.12.12.12,0,0,0,.12-.12h0A.13.13,0,0,0,205.21,169Z" transform="translate(-19.6 -23)"/><path class="cls-36" d="M206.5,171.06a.18.18,0,0,1,0-.36.17.17,0,0,1,.18.17h0A.18.18,0,0,1,206.5,171.06Zm0-.3a.11.11,0,0,0-.11.12.11.11,0,0,0,.11.11.11.11,0,0,0,.12-.11A.12.12,0,0,0,206.5,170.76Z" transform="translate(-19.6 -23)"/><path class="cls-36" d="M201.58,171.24a.18.18,0,1,1,.18-.18h0A.18.18,0,0,1,201.58,171.24Zm0-.3a.12.12,0,0,0,0,.24.12.12,0,0,0,.12-.12h0A.12.12,0,0,0,201.58,170.94Z" transform="translate(-19.6 -23)"/><path class="cls-36" d="M202.35,170.83a.19.19,0,0,1-.19-.18.2.2,0,0,1,.19-.19.19.19,0,0,1,.18.19h0A.18.18,0,0,1,202.35,170.83Zm0-.3a.12.12,0,0,0-.12.12.11.11,0,0,0,.12.11.11.11,0,0,0,.11-.11h0a.11.11,0,0,0-.1-.13h0Z" transform="translate(-19.6 -23)"/><path class="cls-36" d="M203,171a.18.18,0,1,1,.18-.18h0A.18.18,0,0,1,203,171Zm0-.29a.11.11,0,0,0-.12.11.12.12,0,0,0,.12.12.11.11,0,0,0,.11-.12.11.11,0,0,0-.11-.11Z" transform="translate(-19.6 -23)"/><path class="cls-36" d="M203.11,170.58a.18.18,0,0,1,0-.36.18.18,0,0,1,.19.18h0A.19.19,0,0,1,203.11,170.58Zm0-.29a.11.11,0,0,0-.11.11.11.11,0,0,0,.11.12.12.12,0,0,0,.12-.12.11.11,0,0,0-.12-.11Z" transform="translate(-19.6 -23)"/><path class="cls-36" d="M203.12,170.17a.19.19,0,0,1-.18-.19.18.18,0,1,1,.36,0h0A.18.18,0,0,1,203.12,170.17Zm0-.3a.12.12,0,0,0-.12.12.11.11,0,0,0,.12.11.11.11,0,0,0,.11-.11h0a.11.11,0,0,0-.11-.11Z" transform="translate(-19.6 -23)"/><path class="cls-36" d="M203.3,171.62a.19.19,0,0,1-.18-.19.18.18,0,0,1,.36,0h0A.19.19,0,0,1,203.3,171.62Zm0-.3a.12.12,0,0,0-.12.11.12.12,0,0,0,.24,0h0A.12.12,0,0,0,203.3,171.32Z" transform="translate(-19.6 -23)"/><path class="cls-36" d="M205.11,171.66a.18.18,0,0,1-.18-.18.17.17,0,0,1,.17-.18.17.17,0,0,1,.19.17h0A.18.18,0,0,1,205.11,171.66Zm0-.3a.12.12,0,0,0-.12.11.12.12,0,0,0,.23,0h0a.11.11,0,0,0-.11-.12Z" transform="translate(-19.6 -23)"/><path class="cls-36" d="M204.88,171.22a.19.19,0,0,1-.18-.19.18.18,0,1,1,.36,0h0A.19.19,0,0,1,204.88,171.22Zm0-.3a.11.11,0,0,0-.11.12.11.11,0,0,0,.11.11A.11.11,0,0,0,205,171h0A.11.11,0,0,0,204.88,170.92Z" transform="translate(-19.6 -23)"/><path class="cls-36" d="M204,171a.18.18,0,1,1,0-.36.17.17,0,0,1,.18.18h0A.18.18,0,0,1,204,171Zm0-.3a.11.11,0,0,0-.11.12.11.11,0,0,0,.11.11.11.11,0,0,0,.12-.11A.12.12,0,0,0,204,170.7Z" transform="translate(-19.6 -23)"/><path class="cls-36" d="M205.92,170.29a.2.2,0,0,1-.19-.19.19.19,0,0,1,.19-.18.18.18,0,0,1,.18.18h0A.19.19,0,0,1,205.92,170.29Zm0-.3a.11.11,0,0,0-.12.11.12.12,0,0,0,.12.12.11.11,0,0,0,.11-.12h0A.11.11,0,0,0,205.92,170Z" transform="translate(-19.6 -23)"/><path class="cls-36" d="M205.09,170.79a.18.18,0,0,1-.18-.18.18.18,0,1,1,.36,0h0A.18.18,0,0,1,205.09,170.79Zm0-.3a.11.11,0,0,0-.11.12.11.11,0,0,0,.11.11.11.11,0,0,0,.12-.11h0a.13.13,0,0,0-.12-.11Z" transform="translate(-19.6 -23)"/><path class="cls-36" d="M206.05,169.76a.18.18,0,1,1,.18-.18h0A.18.18,0,0,1,206.05,169.76Zm0-.3a.12.12,0,0,0,0,.24.12.12,0,0,0,.12-.12h0A.12.12,0,0,0,206.05,169.46Z" transform="translate(-19.6 -23)"/><path class="cls-36" d="M206,169.27a.18.18,0,0,1-.18-.18.18.18,0,1,1,.36,0h0A.18.18,0,0,1,206,169.27Zm0-.3a.11.11,0,0,0-.11.12.11.11,0,0,0,.11.11.11.11,0,0,0,.12-.11h0A.12.12,0,0,0,206,169Z" transform="translate(-19.6 -23)"/><path class="cls-36" d="M205.6,169.78a.19.19,0,0,1-.18-.19.18.18,0,0,1,.36,0h0A.19.19,0,0,1,205.6,169.78Zm0-.3a.11.11,0,0,0-.11.11.11.11,0,0,0,.11.12.12.12,0,0,0,.12-.12h0A.11.11,0,0,0,205.6,169.48Z" transform="translate(-19.6 -23)"/><path class="cls-36" d="M204.67,170.63a.18.18,0,1,1,.18-.18h0a.18.18,0,0,1-.18.18Zm0-.29a.11.11,0,0,0-.14.09.12.12,0,0,0,.1.13h0a.11.11,0,1,0,0-.22Z" transform="translate(-19.6 -23)"/><path class="cls-36" d="M204,170.5a.18.18,0,0,1-.18-.18.19.19,0,0,1,.18-.19.18.18,0,0,1,.18.18h0a.18.18,0,0,1-.17.18Zm0-.3a.12.12,0,0,0,0,.23h0a.12.12,0,0,0,.14-.09.12.12,0,0,0-.1-.14Z" transform="translate(-19.6 -23)"/><path class="cls-36" d="M204.88,169.65a.19.19,0,0,1-.18-.19.18.18,0,0,1,.36,0h0A.19.19,0,0,1,204.88,169.65Zm0-.3a.11.11,0,0,0-.11.11.11.11,0,0,0,.11.12.12.12,0,0,0,.12-.12h0A.11.11,0,0,0,204.88,169.35Z" transform="translate(-19.6 -23)"/><path class="cls-36" d="M203.55,169.84a.12.12,0,0,1,0-.24.12.12,0,0,1,.11.12h0A.12.12,0,0,1,203.55,169.84Zm0-.19a.07.07,0,1,0,0,.14.07.07,0,0,0,0-.14Z" transform="translate(-19.6 -23)"/><path class="cls-36" d="M203.9,170.06a.12.12,0,0,1-.12-.12.11.11,0,0,1,.12-.11.11.11,0,0,1,.11.11h0A.11.11,0,0,1,203.9,170.06Zm0-.19a.07.07,0,1,0,0,.14.07.07,0,1,0,0-.14Z" transform="translate(-19.6 -23)"/><path class="cls-36" d="M205.62,169.13a.12.12,0,0,1-.12-.12.11.11,0,0,1,.12-.11.11.11,0,0,1,.11.11h0A.11.11,0,0,1,205.62,169.13Zm0-.19a.08.08,0,0,0-.08.07.09.09,0,0,0,.08.08.08.08,0,0,0,.07-.08h0A.07.07,0,0,0,205.62,168.94Z" transform="translate(-19.6 -23)"/><path class="cls-36" d="M205.87,171.07A.12.12,0,1,1,206,171h0A.13.13,0,0,1,205.87,171.07Zm0-.19a.07.07,0,1,0,.07.07A.07.07,0,0,0,205.87,170.88Z" transform="translate(-19.6 -23)"/><path class="cls-36" d="M206.17,171.2a.11.11,0,0,1-.11-.11.11.11,0,0,1,.11-.12.12.12,0,0,1,.12.12h0A.11.11,0,0,1,206.17,171.2Zm0-.19a.08.08,0,0,0-.07.08.07.07,0,0,0,.07.07.08.08,0,0,0,.08-.07h0a.09.09,0,0,0-.08-.08Z" transform="translate(-19.6 -23)"/><path class="cls-36" d="M205.8,170.75a.12.12,0,0,1,0-.24.12.12,0,0,1,.12.12h0a.12.12,0,0,1-.12.12Zm0-.19a.07.07,0,0,0,0,.14.07.07,0,1,0,0-.14Z" transform="translate(-19.6 -23)"/><path class="cls-36" d="M208.06,169.67a.11.11,0,0,1-.11-.12.11.11,0,0,1,.11-.11.11.11,0,0,1,.12.11h0A.11.11,0,0,1,208.06,169.67Zm0-.19a.07.07,0,0,0-.07.07h0a.07.07,0,0,0,.07.07.08.08,0,0,0,.08-.07h0a.08.08,0,0,0-.07-.08Z" transform="translate(-19.6 -23)"/><path class="cls-36" d="M208.21,170a.1.1,0,0,1-.12-.11.12.12,0,0,1,.11-.12.12.12,0,0,1,.12.12h0A.11.11,0,0,1,208.21,170Zm0-.18a.07.07,0,1,0,0,.14.07.07,0,0,0,0-.14Z" transform="translate(-19.6 -23)"/><path class="cls-36" d="M208.09,170.24a.12.12,0,0,1-.12-.12.11.11,0,0,1,.11-.11h0a.12.12,0,0,1,.12.11A.12.12,0,0,1,208.09,170.24Zm0-.19a.07.07,0,0,0-.07.07h0a.07.07,0,1,0,.14,0A.07.07,0,0,0,208.09,170.05Z" transform="translate(-19.6 -23)"/><path class="cls-36" d="M207.79,171.08a.12.12,0,0,1-.12-.11.12.12,0,0,1,.24,0h0A.13.13,0,0,1,207.79,171.08Zm0-.19a.08.08,0,0,0-.07.08h0a.07.07,0,0,0,.14,0h0a.08.08,0,0,0-.07-.08Z" transform="translate(-19.6 -23)"/><path class="cls-36" d="M209.62,170.29a.12.12,0,0,1-.12-.11.12.12,0,0,1,.24,0,.12.12,0,0,1-.12.11Zm0-.19a.08.08,0,0,0-.07.08.07.07,0,0,0,.14,0h0a.08.08,0,0,0-.07-.08Z" transform="translate(-19.6 -23)"/><path class="cls-36" d="M206.91,171a.11.11,0,0,1-.12-.11.12.12,0,0,1,.12-.12.11.11,0,0,1,.11.12h0A.11.11,0,0,1,206.91,171Zm0-.18a.07.07,0,1,0,0,.14.07.07,0,0,0,.07-.07h0A.07.07,0,0,0,206.91,170.81Z" transform="translate(-19.6 -23)"/><path class="cls-36" d="M207.86,170.52a.11.11,0,0,1-.11-.12.11.11,0,0,1,.11-.11.11.11,0,0,1,.12.11h0A.12.12,0,0,1,207.86,170.52Zm0-.19a.07.07,0,0,0-.07.07.08.08,0,0,0,.07.08.09.09,0,0,0,.08-.08A.08.08,0,0,0,207.86,170.33Z" transform="translate(-19.6 -23)"/><path class="cls-36" d="M207.48,171.32a.12.12,0,0,1-.12-.12.11.11,0,0,1,.12-.11.11.11,0,0,1,.11.11h0a.11.11,0,0,1-.11.12Zm0-.19a.07.07,0,0,0-.07.07.07.07,0,1,0,.14,0,.07.07,0,0,0-.07-.07Z" transform="translate(-19.6 -23)"/><path class="cls-36" d="M210,170.52a.11.11,0,0,1-.11-.12.11.11,0,0,1,.09-.13.11.11,0,0,1,.13.09s0,0,0,0A.12.12,0,0,1,210,170.52Zm0-.19a.07.07,0,0,0-.09,0,.07.07,0,0,0,.06.09h0a.07.07,0,0,0,.07-.07s0-.07-.07-.07Z" transform="translate(-19.6 -23)"/><path class="cls-36" d="M208.53,169.27a.12.12,0,1,1,0-.23.11.11,0,0,1,.12.11h0A.11.11,0,0,1,208.53,169.27Zm0-.19a.08.08,0,0,0-.07.08.07.07,0,0,0,.14,0A.08.08,0,0,0,208.53,169.08Z" transform="translate(-19.6 -23)"/><path class="cls-36" d="M204.62,169.13a.11.11,0,0,1-.11-.12.11.11,0,0,1,.11-.11.11.11,0,0,1,.12.11h0A.12.12,0,0,1,204.62,169.13Zm0-.19a.07.07,0,0,0-.07.07.08.08,0,0,0,.07.08.09.09,0,0,0,.08-.08h0A.08.08,0,0,0,204.62,168.94Z" transform="translate(-19.6 -23)"/><path class="cls-36" d="M201.33,170.1a.11.11,0,0,1-.11-.11.11.11,0,0,1,.11-.12.12.12,0,0,1,.12.12h0a.11.11,0,0,1-.12.11Zm0-.19a.08.08,0,0,0-.07.08.07.07,0,0,0,.07.07.08.08,0,0,0,.08-.07h0a.09.09,0,0,0-.08-.08Z" transform="translate(-19.6 -23)"/><path class="cls-36" d="M204.2,169.27a.11.11,0,0,1-.11-.11.11.11,0,0,1,.11-.12.12.12,0,0,1,.12.12h0A.11.11,0,0,1,204.2,169.27Zm0-.19a.08.08,0,0,0-.07.08.07.07,0,0,0,.07.07.08.08,0,0,0,.08-.07A.09.09,0,0,0,204.2,169.08Z" transform="translate(-19.6 -23)"/><path class="cls-36" d="M201.63,170.64a.12.12,0,0,1,0-.24.12.12,0,0,1,.12.12h0A.12.12,0,0,1,201.63,170.64Zm0-.19a.07.07,0,1,0,0,.14h0a.07.07,0,1,0,0-.14Z" transform="translate(-19.6 -23)"/><path class="cls-36" d="M202.05,169.94a.12.12,0,0,1-.12-.11.12.12,0,0,1,.12-.12.11.11,0,0,1,.11.11h0A.11.11,0,0,1,202.05,169.94Zm0-.19a.07.07,0,0,0-.07.08.07.07,0,1,0,.14,0A.07.07,0,0,0,202.05,169.75Z" transform="translate(-19.6 -23)"/><path class="cls-36" d="M200,170.42a.12.12,0,0,1-.12-.12.12.12,0,0,1,.24,0h0A.12.12,0,0,1,200,170.42Zm0-.19a.07.07,0,1,0,.07.07h0a.07.07,0,0,0-.07-.07Z" transform="translate(-19.6 -23)"/><path class="cls-36" d="M202.88,171.43a.11.11,0,0,1-.11-.11.11.11,0,0,1,.11-.12.12.12,0,0,1,.12.12A.11.11,0,0,1,202.88,171.43Zm0-.18a.07.07,0,0,0,0,.14.07.07,0,1,0,0-.14Z" transform="translate(-19.6 -23)"/><path class="cls-36" d="M203.72,171.49a.12.12,0,0,1-.12-.12.11.11,0,0,1,.12-.11.11.11,0,0,1,.11.11A.11.11,0,0,1,203.72,171.49Zm0-.19a.08.08,0,0,0-.08.07.09.09,0,0,0,.08.08.08.08,0,0,0,.07-.08A.07.07,0,0,0,203.72,171.3Z" transform="translate(-19.6 -23)"/><circle class="cls-36" cx="180.73" cy="147.76" r="0.09"/><circle class="cls-36" cx="181.39" cy="146.48" r="0.09"/><circle class="cls-36" cx="182.31" cy="147.06" r="0.09"/><circle class="cls-36" cx="181.72" cy="146.23" r="0.09"/><circle class="cls-36" cx="185.07" cy="146.85" r="0.09"/><circle class="cls-36" cx="182.17" cy="146.71" r="0.09"/><circle class="cls-36" cx="181.83" cy="146.67" r="0.09"/><circle class="cls-36" cx="182.49" cy="147.36" r="0.09"/><circle class="cls-36" cx="187.53" cy="146.83" r="0.09"/><circle class="cls-36" cx="188.87" cy="147.09" r="0.09"/><circle class="cls-36" cx="188.5" cy="148.24" r="0.09"/><circle class="cls-36" cx="189.01" cy="147.85" r="0.09"/><circle class="cls-36" cx="187.5" cy="148.33" r="0.09"/><circle class="cls-36" cx="187.16" cy="146.82" r="0.09"/><circle class="cls-36" cx="186.04" cy="148.13" r="0.09"/><circle class="cls-36" cx="188.07" cy="147.12" r="0.09"/><circle class="cls-36" cx="187.08" cy="148.42" r="0.09"/><circle class="cls-36" cx="183.03" cy="148.24" r="0.09"/><circle class="cls-36" cx="188.61" cy="147.42" r="0.09"/><circle class="cls-36" cx="190.72" cy="147.27" r="0.09"/><circle class="cls-36" cx="190.11" cy="146.74" r="0.07"/><circle class="cls-36" cx="188" cy="146.59" r="0.07"/><circle class="cls-36" cx="183.95" cy="147.42" r="0.07"/><circle class="cls-36" cx="189.52" cy="147.24" r="0.07"/><circle class="cls-36" cx="187.57" cy="146.49" r="0.07"/><circle class="cls-36" cx="189.23" cy="146.81" r="0.07"/><circle class="cls-36" cx="188.22" cy="146.13" r="0.07"/><circle class="cls-36" cx="187.5" cy="146.01" r="0.07"/><circle class="cls-36" cx="184.19" cy="146.34" r="0.07"/><circle class="cls-36" cx="184.92" cy="146.42" r="0.07"/><circle class="cls-36" cx="183.08" cy="147.09" r="0.07"/><circle class="cls-36" cx="186.78" cy="147.12" r="0.07"/><circle class="cls-36" cx="187.21" cy="147.22" r="0.07"/><circle class="cls-36" cx="184.77" cy="147.34" r="0.07"/><circle class="cls-36" cx="185.85" cy="147.45" r="0.07"/><circle class="cls-36" cx="184.69" cy="146.63" r="0.07"/><circle class="cls-36" cx="187.13" cy="147.45" r="0.07"/><circle class="cls-36" cx="186.76" cy="147.52" r="0.07"/><circle class="cls-36" cx="181.12" cy="146.49" r="0.07"/><circle class="cls-36" cx="183.35" cy="146.74" r="0.07"/><circle class="cls-36" cx="182.58" cy="146.23" r="0.07"/><circle class="cls-36" cx="182.27" cy="147.45" r="0.07"/><circle class="cls-36" cx="182.64" cy="146.64" r="0.07"/><circle class="cls-36" cx="180.52" cy="146.91" r="0.07"/><circle class="cls-36" cx="189.71" cy="146.64" r="0.07"/><circle class="cls-36" cx="190.47" cy="146.53" r="0.09"/><circle class="cls-36" cx="191.11" cy="147.49" r="0.09"/><circle class="cls-36" cx="190.63" cy="147.01" r="0.09"/><circle class="cls-36" cx="190.84" cy="147.64" r="0.09"/><circle class="cls-36" cx="191.11" cy="147.15" r="0.09"/><circle class="cls-36" cx="190.38" cy="147.06" r="0.09"/><circle class="cls-36" cx="191.4" cy="147.06" r="0.09"/><circle class="cls-36" cx="182.87" cy="146.87" r="0.09"/><circle class="cls-36" cx="184.15" cy="145.99" r="0.09"/><circle class="cls-36" cx="185.73" cy="147.89" r="0.09"/><circle class="cls-36" cx="183.74" cy="145.97" r="0.09"/><circle class="cls-36" cx="183.19" cy="146.05" r="0.09"/><circle class="cls-36" cx="185.63" cy="146.55" r="0.09"/><circle class="cls-36" cx="180.76" cy="147.18" r="0.09"/><circle class="cls-36" cx="181.56" cy="147.99" r="0.09"/><circle class="cls-36" cx="184.61" cy="148.39" r="0.09"/><circle class="cls-36" cx="183.91" cy="147.99" r="0.09"/><circle class="cls-36" cx="186.02" cy="148.48" r="0.09"/><path class="cls-7" d="M203.19,169.26s-3.61.17-1.91,1.32,6.6.51,6.6.51,2.7-.68,1-1.49a8.64,8.64,0,0,0-4.37-.29s-3,.55-.69,1c0,0,2.78.25,2.9-.31s-1.56-.16-1.56-.16.89.2.27.3-1.32-.07-1.32-.25.91-.3,1.18-.29,1.65-.22,2.17.39a.25.25,0,0,1,0,.33l-.06,0a7,7,0,0,1-3.79.3C200.9,170.27,203.19,169.26,203.19,169.26Z" transform="translate(-19.6 -23)"/><path class="cls-37" d="M119.06,135.34s7.89-1.7,11.05.24a25.74,25.74,0,0,0,6.8,2.8s5.83,1.46,7.77,3.53,3.77.72,4.62,3.4a15.7,15.7,0,0,0,3.4,5.22l-1.22,18.1,1,10.45s.48,4.37-.73,5.34.24,2.55,1.32,3.4,3.89,4.13,3.53,5.34,2.91,2.56,2.91,2.56.12,2.06-1.45,2.54-3.51,7.77-3.51,7.77-21.26,20.42-28.31,18.58S114,216.23,114,216.23s-4.73-21.25-6.07-24.66S103,177,103,177s-1.94-12.88-2.91-15.43-1-15.91,1.94-18.7,5.46-4.38,5.46-5.35,2.8-2.92,3.89-2.8a1.94,1.94,0,0,1,1.46,1.33Z" transform="translate(-19.6 -23)"/><path class="cls-18" d="M206.39,176.15c-3.41,6-16.28,4.74-16.28,4.74s-4.49-1-7.28.61-15.92,3.27-15.92,3.27-5-1.09-6.19-2.67c-1.06-1.38-11.13-7.35-13.73-8.87l-.51-.31h0l-.08,0,0,0,10.79-13.58,1.76,1.89,8.68,9.27s8.5.37,10.92,1.83,10.09-.49,10.09-.49,3.76,0,4-.85S209.79,170.2,206.39,176.15Z" transform="translate(-19.6 -23)"/><path class="cls-7" d="M144.38,111.43a3.21,3.21,0,0,0-1.66,1.06c-.63.86-.55,2.05-.8,3.1-.4,1.71-1.74,3.26-1.49,5,.1.62.36,1.3,0,1.8a1.32,1.32,0,0,1-1.53.25h0c-1.35-.54-2.09-1.94-3-3s-2.69-1.9-3.8-1c-.93.79-.76,2.23-.67,3.44s-.26,2.78-1.46,3c-.48.09-1-.08-1.46,0-1.5.35-1.38,2.95-2.85,3.43a3,3,0,0,1-1.6-.13,5.15,5.15,0,0,0-1.36-.12c-1.54,0-3.15.5-4.52.1.71-1,1.39-2,2-3A14,14,0,1,1,143.56,110a14.87,14.87,0,0,1,.83,1.44Z" transform="translate(-19.6 -23)"/><path class="cls-38" d="M124,128a2.94,2.94,0,0,0,1.6.13c1.47-.47,1.35-3.08,2.85-3.43.48-.11,1,.07,1.46,0,1.2-.21,1.54-1.77,1.46-3s-.26-2.64.67-3.44c1.11-.93,2.84-.12,3.8,1s1.69,2.5,3,3a1.34,1.34,0,0,0,1.57-.24c.34-.46.1-1.18,0-1.8-.25-1.74,1.09-3.29,1.49-5,.25-1,.17-2.23.8-3.09,1.35-1.83,4.83-.91,6-2.88a3.11,3.11,0,0,0,1.51-.19,1.08,1.08,0,0,0,.61-1.25c-.14-.37-.53-.57-.86-.79a3.92,3.92,0,0,1-1.69-3.34,17.09,17.09,0,0,0,.17-1.87,2.76,2.76,0,0,0-2.77-2.49c-.41,0-.82.13-1.23.14-2,.06-3.62-2.16-5.54-1.71a5.36,5.36,0,0,1-1.22.32c-1,0-1.56-1.11-2.49-1.41-.73-.23-1.53.1-2.3,0a5.42,5.42,0,0,1-2-.87c-1.39-.75-3.24-1.09-4.45-.08a4.13,4.13,0,0,1-.87.69,2.45,2.45,0,0,1-1.26.08,11.75,11.75,0,0,0-3.74.25,1.37,1.37,0,0,0-.86.45,2.21,2.21,0,0,0-.27.87c-.37,1.43-2.15,1.92-3.62,2a2,2,0,0,0-1.09.3,1.6,1.6,0,0,0-.28,1.84,9.17,9.17,0,0,1,.72,1.86c.21,1.65-1.58,2.92-1.88,4.57-.41,2.28,2.12,4.53,1.26,6.68-.38,1-1.4,1.7-1.35,2.72s1,1.62,1.65,2.41a6.64,6.64,0,0,1,1.06,2.63c.37,1.49.42,4.36,2.16,4.88S122,127.56,124,128Z" transform="translate(-19.6 -23)"/><path class="cls-7" d="M124.52,176.88c2.07,2.67,9.35,9,14.21,10.56S124.52,176.88,124.52,176.88Z" transform="translate(-19.6 -23)"/><path class="cls-7" d="M125.61,190.24c.86.6,4.74,7.89,8.87,8.5S125.61,190.24,125.61,190.24Z" transform="translate(-19.6 -23)"/><path class="cls-7" d="M126.59,183.92c.24.37,9.83,8.75,13.36,9.48s.48-2.92-3.89-4.62A69.89,69.89,0,0,1,126.59,183.92Z" transform="translate(-19.6 -23)"/><path class="cls-7" d="M126.59,201.78s6.43,2.31,10.81,1.7S126.59,201.78,126.59,201.78Z" transform="translate(-19.6 -23)"/><path class="cls-7" d="M134.12,215.74s6.31-4.61,9.48-4.85S134.12,215.74,134.12,215.74Z" transform="translate(-19.6 -23)"/><path class="cls-7" d="M105.69,141.29s15.31,1.7,11.06,2.43S105.69,141.29,105.69,141.29Z" transform="translate(-19.6 -23)"/><path class="cls-7" d="M105.57,149.19s7.29,0,10-1.22S105.57,149.19,105.57,149.19Z" transform="translate(-19.6 -23)"/><path class="cls-7" d="M103.27,164.49c1.32-.37,6.92-12,9.1-8.87S103.27,164.49,103.27,164.49Z" transform="translate(-19.6 -23)"/><path class="cls-7" d="M125.37,161.45s1.95,1.82,8,3.52S125.37,161.45,125.37,161.45Z" transform="translate(-19.6 -23)"/><path class="cls-7" d="M161.32,202.87s3.4,1.82.85,5.71S161.32,202.87,161.32,202.87Z" transform="translate(-19.6 -23)"/><path class="cls-24" d="M125.72,218.42l0-.52C125.83,216.19,125.72,218.42,125.72,218.42Z" transform="translate(-19.6 -23)"/><path class="cls-24" d="M128,228.5l-9.72-1-1.82-3.64-10.08-55.43-.24-1.3,15.42.13.14,1.76,4,48.85c0,.25,0,.57-.08,1C125.37,222.3,128,228.5,128,228.5Z" transform="translate(-19.6 -23)"/><path class="cls-7" d="M315.26,147.3l-.27.19c-1,.7-2.43-1.82-3.64-1.46-1.05.3-1.91,3.52-3,3.52a11.8,11.8,0,0,1-5.06-1.13c-.17-.35-.33-.68-.51-1-.63-1.17-1.11-1.9-1.11-1.9s1.72-.28,3.89-.59c1-.14,2.11-.29,3.18-.42h0l1.63-.18c2.13-.21,3.8-.26,3.8.1a7.88,7.88,0,0,0,.87,2.32C315.07,146.93,315.17,147.11,315.26,147.3Z" transform="translate(-19.6 -23)"/><path class="cls-22" d="M320.2,136.92A11.92,11.92,0,1,1,308.26,125h0a11.91,11.91,0,0,1,11.92,11.86Z" transform="translate(-19.6 -23)"/><path class="cls-39" d="M318,159.66l-3.56.37s.37-3.19,1.92-4.2c1-.66,2.94-1.69,4.11-2.31a4.55,4.55,0,0,0,1.28.41C316.31,157.44,318,159.66,318,159.66Z" transform="translate(-19.6 -23)"/><path class="cls-22" d="M278.17,175.06l-.85-.13s-3.71.25-7.35.67-8.81,1.52-5,5.89,7.23-.79,7.23-.79,3.52,4.37,6.25,2.91S278.17,175.06,278.17,175.06Z" transform="translate(-19.6 -23)"/><path class="cls-22" d="M263.17,244.71s2.32,5.59,2.12,7.17,7.72-1.52,7.72-1.52-1.83-4.25-.85-5.16S263.17,244.71,263.17,244.71Z" transform="translate(-19.6 -23)"/><rect class="cls-22" x="232.64" y="236.77" width="6.29" height="8.02"/><path class="cls-40" d="M264.57,242.47a13.72,13.72,0,0,0-1.4,4.45,43.45,43.45,0,0,0-.66,6.23c0,1.22.6,1,0,2.92a28.69,28.69,0,0,0-1.19,4.66,1.62,1.62,0,0,1,0,.2,11.6,11.6,0,0,1-.73,2.91s-9.23-.6-11.17-1.94.73-2.67.73-2.67v-.33c.2-3.71,2.09-39.49,2.9-43.29a4.72,4.72,0,0,1,1.18-2.2,12.5,12.5,0,0,1,4.16-2.81,19.5,19.5,0,0,1,2.55-.94s.48,2.8,1.12,6.78C263.47,225.52,265.66,240.68,264.57,242.47Z" transform="translate(-19.6 -23)"/><path class="cls-22" d="M262,216.45c-.72,1.3-1.44,2.12-2,1.48a37.91,37.91,0,0,0-5.86-4.51c2.25-2.52,6.71-3.75,6.71-3.75S261.4,212.48,262,216.45Z" transform="translate(-19.6 -23)"/><path class="cls-40" d="M316.35,206.66c-.08,1.35-.25,3-.53,5a15.19,15.19,0,0,1-8.28,11.54s-22.34,0-26.23-1.09a5.9,5.9,0,0,0-4.9.89l-.39.27a8.31,8.31,0,0,0-1.51,1.39s-2.43-9.84-2.43-10.33a21.37,21.37,0,0,1,3.76-7.89c2.44-3,16.76-3.52,17.62-3.64.56-.08,5.78-2.36,9.23-3.88l3-1.34,5.63,1.78.21.07,4.5,1.43S316.64,202.17,316.35,206.66Z" transform="translate(-19.6 -23)"/><path class="cls-7" d="M311.57,199.38c-1.07.44-2.77,1.13-4.74,1.84-4.28,1.55-9.86,3.26-13.11,3a52.77,52.77,0,0,0-12.52.84,22.2,22.2,0,0,0-5.83,3.78c-3,2.67-.37,3.52,1,6.68.55,1.3.42,4.33.08,7.45l-.39.27a8.31,8.31,0,0,0-1.51,1.39s-2.43-9.84-2.43-10.32a21.39,21.39,0,0,1,3.76-7.9c2.44-3,16.76-3.52,17.62-3.64.56-.08,5.78-2.35,9.23-3.88l3-1.34,5.63,1.79Z" transform="translate(-19.6 -23)"/><path class="cls-7" d="M264.57,242.47a13.72,13.72,0,0,0-1.4,4.45,3,3,0,0,1-.66-.45c-1.12-.94-1-2.73-.86-3.87.06-.48.13-.84.13-1,0-.49.48-4.86-.49-6.43s-1.21-7.78-1.21-7.78a130.75,130.75,0,0,1-1.7-16.79,21.06,21.06,0,0,1,2.55-.94s.48,2.8,1.11,6.78C263.47,225.52,265.66,240.68,264.57,242.47Z" transform="translate(-19.6 -23)"/><path class="cls-40" d="M312.42,198.86l-1.06.45c-1.06.44-2.83,1.16-4.89,1.91-4.29,1.55-9.86,3.26-13.12,3a52.66,52.66,0,0,0-12.51.84,22.16,22.16,0,0,0-5.83,3.77c-3,2.67-.36,3.52,1,6.68.56,1.33.41,4.5,0,7.72-.49,4.42-1.38,8.92-1.38,8.92a4.06,4.06,0,0,0-.12,2,62.13,62.13,0,0,1,.24,6.31,3.26,3.26,0,0,0-.52,1.59,2.05,2.05,0,0,0,.4,1.33c1,1.32.24,4.86.24,4.86a15.16,15.16,0,0,1-5.59-.49c-3.53-.86-4.86.12-6.43-1.21-1.12-.95-1-2.74-.87-3.88.07-.48.14-.84.14-1,0-.49.48-4.86-.49-6.43s-1.21-7.78-1.21-7.78-3.87-22.25,0-27.65a3,3,0,0,1,.22-.28c2.17-2.49,6.68-2.94,10.9-2.69a45.88,45.88,0,0,1,9,1.47c2.43.73,3.16.37,4.37-.12.86-.33.93-2,.9-3v-.27a1.66,1.66,0,0,0,0-.39l1.08-.59,4.51-2.44Z" transform="translate(-19.6 -23)"/><path class="cls-7" d="M315,146.76a24.19,24.19,0,0,0,2.88,4.54,1.87,1.87,0,0,1-1.17,0c-.39-.15-.68-.5-1.07-.69-1-.46-2.1.19-3.09-.42a2,2,0,0,1-1-1.86V148c0-1.06-.11-3.17-1.24-3.69a1.72,1.72,0,0,0-1.37,0l-.26.14h0c-.75.44-1.29,1.39-2.15,1.32a1.26,1.26,0,0,1-1-.89,5.93,5.93,0,0,1-.36-1.48,23.61,23.61,0,0,0-1.71-5.61c-.14-.35-.33-.75-.73-.78-.6,0-.75.88-.42,1.39s.91.89,1,1.49c.14,1-1.35,1.58-2.16,1a2.78,2.78,0,0,1-.79-2.75,27.71,27.71,0,0,0,.67-2.94,2.31,2.31,0,0,0-1.36-2.44c-.84-.25-1.73.25-2.61.27a11.92,11.92,0,1,1,18,13.67Z" transform="translate(-19.6 -23)"/><path class="cls-41" d="M309.32,144.4c-.9.33-1.46,1.53-2.42,1.44s-1.26-1.38-1.39-2.37a23.18,23.18,0,0,0-1.72-5.61c-.14-.35-.34-.75-.72-.78-.6-.05-.75.88-.42,1.39s.91.89,1,1.49c.15,1-1.34,1.58-2.15,1a2.78,2.78,0,0,1-.79-2.75c.17-1,.59-1.94.66-2.94a2.3,2.3,0,0,0-1.35-2.44c-1-.29-2,.41-3,.24a1.84,1.84,0,0,1-1.38-2.21,1.42,1.42,0,0,1,.11-.33c.42-.82,1.52-1.49,1.24-2.37-.36-1.1-2.24-.62-3-1.52-.58-.71,0-1.81.7-2.32s1.7-.71,2.42-1.28c1.36-1.05,1.59-3.09,2.88-4.24,1.46-1.32,3.71-1,5.54-1.71s3.35-2.25,5.19-1.91c.45.07.87.26,1.33.31a6,6,0,0,0,2.65-.83,6.26,6.26,0,0,1,5.2.24,2.14,2.14,0,0,0,2.25,2.19c.87,0,2.05-.34,2.35.49.14.37,0,.81.09,1.19.23.66,1.15.71,1.75,1.08,1.35.86.72,3.2,1.9,4.31a6.48,6.48,0,0,0,1.9.88c2.12.94,2.89,3.51,3.42,5.77a2.93,2.93,0,0,1,.09,1.35c-.18.66-.8,1.09-1.14,1.67-.82,1.4,0,3.25-.47,4.78s-2.25,2.4-2.49,4c-.08.53,0,1.08-.06,1.61-.23,1.43-1.74,2.26-3.13,2.69a1.45,1.45,0,0,0-1,.62c-.08.17-.09.36-.16.53a1.7,1.7,0,0,1-1,.82c-1.81.85-3.66,1.64-5.55,2.34a2.33,2.33,0,0,1-1.63.18c-.4-.15-.68-.51-1.07-.69-1-.47-2.1.19-3.09-.42a2.16,2.16,0,0,1-1-2.18C311.92,146.66,311.74,143.47,309.32,144.4Z" transform="translate(-19.6 -23)"/><path class="cls-40" d="M261.32,260.73a1.77,1.77,0,0,1,0,.2,12,12,0,0,1-.72,2.91s-9.23-.6-11.17-1.94.72-2.67.72-2.67v-.33C253.31,259.71,258.81,260.92,261.32,260.73Z" transform="translate(-19.6 -23)"/><path class="cls-7" d="M261.32,260.73a1.77,1.77,0,0,1,0,.2,12,12,0,0,1-.72,2.91s-9.23-.6-11.17-1.94.72-2.67.72-2.67v-.33C253.31,259.71,258.81,260.92,261.32,260.73Z" transform="translate(-19.6 -23)"/><path class="cls-42" d="M259.89,262.93s-10.69.73-11.11.55-.43,5.65-.43,5.65-2.37,4.73-2.67,5.89-2.67,4-2.67,4-3.4,2.49,1.57,3.46a28.75,28.75,0,0,0,10.44-.31s3.65-6.31,4-5.95,0,3.34,0,3.34l2.13-.55s-.37-3.95.48-6.07S259.89,262.93,259.89,262.93Z" transform="translate(-19.6 -23)"/><path class="cls-7" d="M274.89,247.81a14.89,14.89,0,0,1-5.59-.49c-3.53-.85-4.86.13-6.43-1.21-1.12-.94-1-2.73-.87-3.88,1.55-.33,3.94-.83,5.79-1.1a20.69,20.69,0,0,1,6.46.5,2,2,0,0,0,.4,1.32C275.62,244.29,274.89,247.81,274.89,247.81Z" transform="translate(-19.6 -23)"/><path class="cls-40" d="M274.89,248.18a15.16,15.16,0,0,1-5.59-.49c-3.53-.86-4.86.12-6.43-1.22-1.12-.94-1-2.73-.87-3.87,1.55-.33,3.94-.84,5.79-1.11a21,21,0,0,1,6.46.5,2.05,2.05,0,0,0,.4,1.33C275.62,244.66,274.89,248.18,274.89,248.18Z" transform="translate(-19.6 -23)"/><path class="cls-7" d="M274.89,248.18a15.16,15.16,0,0,1-5.59-.49c-3.53-.86-4.86.12-6.43-1.22-1.12-.94-1-2.73-.87-3.87,1.55-.33,3.94-.84,5.79-1.11a21,21,0,0,1,6.46.5,2.05,2.05,0,0,0,.4,1.33C275.62,244.66,274.89,248.18,274.89,248.18Z" transform="translate(-19.6 -23)"/><path class="cls-42" d="M280.11,265.42l-3.58.91-1-4.25s-.9,1.71-2.5,4.08l-.66,1c-1.83,2.61-8,2-10.08.45a2,2,0,0,1-.48-.45c-1.4-1.82.73-3.58,1.76-4.55s.48-7.41.48-7.41a14,14,0,0,1-.12-4.19c.36-1.34,9.54-1.82,9.54-1.82a49.9,49.9,0,0,0,2.91,6.43c1,1.52,2.32,3.4,2.06,4.74S280.11,265.42,280.11,265.42Z" transform="translate(-19.6 -23)"/><path class="cls-22" d="M275.37,202.32c-1.57,2-11.76.49-14.9-2.57a3,3,0,0,1,.22-.28c2.17-2.48,6.68-2.93,10.9-2.69C273.52,198.17,276.61,200.74,275.37,202.32Z" transform="translate(-19.6 -23)"/><path class="cls-7" d="M265.54,203.78s-1.76-2.49-3.34-1.27-2.07-2.13-2.07-2.13.85-.61,2.67.3,3.89,2.49,3.65,2.8S265.54,203.78,265.54,203.78Z" transform="translate(-19.6 -23)"/><path class="cls-40" d="M265.54,203.42s-1.76-2.49-3.34-1.28-2.07-2.12-2.07-2.12.85-.61,2.67.3,3.89,2.49,3.65,2.79S265.54,203.42,265.54,203.42Z" transform="translate(-19.6 -23)"/><path class="cls-7" d="M298.45,203.78s9,4.13,7,5.78S298.45,203.78,298.45,203.78Z" transform="translate(-19.6 -23)"/><path class="cls-7" d="M262.2,232.2s5.71.66,7,1.52a6.36,6.36,0,0,0,3.28,1.15C273.19,234.87,264.75,230.14,262.2,232.2Z" transform="translate(-19.6 -23)"/><path class="cls-7" d="M269.06,228.86s-2.19,1.52.3,2.13S269.06,228.86,269.06,228.86Z" transform="translate(-19.6 -23)"/><path class="cls-7" d="M256.85,249.09s3.22,4,4.37,2.91S256.85,249.09,256.85,249.09Z" transform="translate(-19.6 -23)"/><path class="cls-7" d="M254.79,257a3.91,3.91,0,0,1,2.61,1c1.58,1.1,1.7-.85,1.09-1.65S254.79,257,254.79,257Z" transform="translate(-19.6 -23)"/><path class="cls-7" d="M251.14,167.49c.55.19,3.74,1,4.38,2.92S251.14,167.49,251.14,167.49Z" transform="translate(-19.6 -23)"/><path class="cls-7" d="M121.75,169l-.26-.06s-9.3-2.09-15.07-.52l-.23-1.3,15.42.12Z" transform="translate(-19.6 -23)"/><path class="cls-24" d="M113.47,165s23.32.13,31.46,16.16,10,46.64,10,46.64,1.32,4.38-.61,4.5-2.8-4-2.8-4,.74-3,.13-4.37-8-38.49-8-38.49-.85-11.66-22.1-16.77c0,0-24.9-5.58-18.47,8.39,0,0,.37,1.94-1,1.58s-2.92-4-1.82-8.61S113.47,165,113.47,165Z" transform="translate(-19.6 -23)"/><path class="cls-7" d="M159,161.15l-.07.06c-1.65,1.32-7.77,11.73-11.9,12h-.24l-.27-.32h0a.23.23,0,0,0-.07-.07l10.79-13.58Z" transform="translate(-19.6 -23)"/><path class="cls-7" d="M146.87,148.21l5.46,2.32s2.68,2.67,2.56,5.1,1.32.61,1.32.61a1.51,1.51,0,0,1,1,1.32c0,1,2.67,1.95,1,3.28s-8,12.15-12.15,12a83.94,83.94,0,0,0-7.89-7.89C133.87,161.33,130,142.62,146.87,148.21Z" transform="translate(-19.6 -23)"/><path class="cls-37" d="M147.24,148.21l5.47,2.32s2.67,2.67,2.55,5.1,1.33.61,1.33.61a1.51,1.51,0,0,1,1,1.32c0,1,2.67,1.95,1,3.28s-8,12.15-12.14,12a84,84,0,0,0-7.9-7.89C134.24,161.33,130.36,142.62,147.24,148.21Z" transform="translate(-19.6 -23)"/><path class="cls-7" d="M299.06,168.38l-5.65,10.06-3.91,2c-.09-1.06-.16-1.78-.16-1.78s-2.55-6,4-10.44c5.75-3.94,2.72-7.14,1.89-7.86l.18-.16,1.32-.18Z" transform="translate(-19.6 -23)"/><path class="cls-7" d="M336.77,163.93c-.9,2-8.56,7.36-8.56,7.36v0l-.36-.4,7.28-8.39,1.33.86Z" transform="translate(-19.6 -23)"/><path class="cls-7" d="M316.35,206.66a18,18,0,0,1-3.2.1,47.8,47.8,0,0,0-6.68-5.54c-1.15-.79-2.41-1.6-3.77-2.35-4.79-2.65-10.76-4.74-16.83-3.72l-.41.07.4-.33c.24-.21.63-.56,1-1l4.51-2.45,21,7.41-1.06.45,4.71,1.5S316.64,202.17,316.35,206.66Z" transform="translate(-19.6 -23)"/><path class="cls-4" d="M309.63,158.05s16.27,1.58,23.68.73c0,0,3.64,2.79,3.16,4.62s-8.61,7.52-8.61,7.52-.6,14.22-3.88,17.62-6.21,12.14-4.76,15.06-5.71,2.43-5.71,2.43-13.6-14.21-27.69-11.53c0,0,5.1-4.14,4.74-7.17s-.85-8.63-.85-8.63-2.55-5.95,4-10.44,1.7-8,1.7-8-.25-1.09,2.55-1.45a28.83,28.83,0,0,0,4-.73s2.67-2.43,3.88-1.94S309.63,158.05,309.63,158.05Z" transform="translate(-19.6 -23)"/><path class="cls-7" d="M328.21,169.17S330.15,173,328,175a24.92,24.92,0,0,0-2.28,2.76,82.52,82.52,0,0,0-9.79,17C311.47,205.24,303.74,223,302.58,224c-1.65,1.32-1.76,4.07-.12,4.13s2.61-2.19,2.61-2.19a65.73,65.73,0,0,1,2.67-6.56c1-1.88,11.79-26.54,11.79-26.54s4-10.56,8.5-13c0,0,3.89-6.44,3.22-9.29A1.88,1.88,0,0,0,328.21,169.17Z" transform="translate(-19.6 -23)"/><path class="cls-24" d="M328.21,168.8s1.94,3.83-.18,5.83a24.92,24.92,0,0,0-2.28,2.76,82.52,82.52,0,0,0-9.79,17c-4.49,10.46-12.22,28.23-13.38,29.17-1.65,1.32-1.76,4.07-.12,4.13s2.61-2.19,2.61-2.19a65.73,65.73,0,0,1,2.67-6.56c1-1.88,11.79-26.54,11.79-26.54s4-10.56,8.5-13c0,0,3.89-6.44,3.22-9.29A1.88,1.88,0,0,0,328.21,168.8Z" transform="translate(-19.6 -23)"/><path class="cls-22" d="M344.75,181.61a11,11,0,0,1-.57,6.5s-5.16.25-10.32-7l-3.1-7.59s-3.46-5.89-5.53-5.59-3.64,10.63-8.56,9.66-2.32-13.36,4.19-14.64l2.51-.64a6.06,6.06,0,0,1,5.27,1.12c1.2,1,2.83,2.21,4.79,3.64,1.61,1.18,3.14,2.34,4.42,3.33A18.25,18.25,0,0,1,344.75,181.61Z" transform="translate(-19.6 -23)"/><path class="cls-7" d="M291,181.07a11.47,11.47,0,0,0,6.47,3.64c4,.64,6.29-.64,9.66.73S291,181.07,291,181.07Z" transform="translate(-19.6 -23)"/><path class="cls-7" d="M324.48,175.42s-7.57,6.47-7.29,8.2S324.48,175.42,324.48,175.42Z" transform="translate(-19.6 -23)"/><g class="cls-2"><path d="M303.77,139.61a1.55,1.55,0,0,1-1.8.12,2.57,2.57,0,0,1-.83-2.37,8.34,8.34,0,0,0-.2.83,2.78,2.78,0,0,0,.79,2.75c.81.6,2.3,0,2.16-1A2,2,0,0,0,303.77,139.61Z" transform="translate(-19.6 -23)"/><path d="M301.58,135.43a7.25,7.25,0,0,0,.26-1.39,2.32,2.32,0,0,0-1.36-2.44c-1-.29-2,.41-3,.24a1.84,1.84,0,0,1-1.41-1.5,1.62,1.62,0,0,0-.1.18,1.84,1.84,0,0,0,.94,2.43l.33.11c1,.16,2-.53,3-.25a2.33,2.33,0,0,1,1.35,2.44C301.59,135.31,301.58,135.37,301.58,135.43Z" transform="translate(-19.6 -23)"/><path d="M297.18,128.05a1.24,1.24,0,0,0,.29-1.12c-.36-1.1-2.24-.62-3-1.51a1.07,1.07,0,0,1-.21-.41,1.37,1.37,0,0,0,0,1.62C295,127.5,296.74,127.08,297.18,128.05Z" transform="translate(-19.6 -23)"/><path d="M326.87,145.62a1.52,1.52,0,0,0-1,.63,4.61,4.61,0,0,0-.15.53,1.73,1.73,0,0,1-1,.81q-2.72,1.29-5.54,2.34a2.36,2.36,0,0,1-1.64.19c-.39-.16-.68-.51-1.07-.69-1-.47-2.1.19-3.09-.43a2.15,2.15,0,0,1-1-2.17c0-1.39-.19-4.58-2.61-3.64-.9.33-1.46,1.53-2.42,1.44s-1.26-1.39-1.38-2.38a24.17,24.17,0,0,0-1.72-5.6c-.14-.35-.35-.75-.72-.79-.56,0-.73.75-.49,1.27a.4.4,0,0,1,.24,0c.37,0,.58.43.72.78a23.32,23.32,0,0,1,1.72,5.61c.13,1,.39,2.28,1.39,2.38s1.52-1.1,2.42-1.45c2.42-.93,2.6,2.26,2.61,3.64a2.15,2.15,0,0,0,1,2.18c1,.62,2.1,0,3.1.43.38.17.66.53,1.06.69a2.42,2.42,0,0,0,1.64-.19q2.82-1.05,5.54-2.34a1.82,1.82,0,0,0,1-.82,4.44,4.44,0,0,1,.15-.52,1.46,1.46,0,0,1,1-.63c1.39-.42,2.91-1.25,3.14-2.69a5.44,5.44,0,0,0,0-.57A4.77,4.77,0,0,1,326.87,145.62Z" transform="translate(-19.6 -23)"/><path d="M333,132.59a3,3,0,0,0-.36,1.46,1.92,1.92,0,0,1,.12-.25c.33-.58,1-1,1.14-1.67a2.1,2.1,0,0,0,0-.75C333.68,131.8,333.28,132.16,333,132.59Z" transform="translate(-19.6 -23)"/><path d="M330.07,141.33a2.33,2.33,0,0,0,0,.53c.54-1.17,1.84-2,2.27-3.28a3.38,3.38,0,0,0,.17-1C331.91,138.93,330.3,139.83,330.07,141.33Z" transform="translate(-19.6 -23)"/></g><path class="cls-7" d="M277,259a35,35,0,0,0-3.88,3c-1.58,1.46-5.53,2.67-5.53,2.67Z" transform="translate(-19.6 -23)"/><path class="cls-7" d="M257.52,274.35s-7.47,6.68-8.68,6.56S257.52,274.35,257.52,274.35Z" transform="translate(-19.6 -23)"/><path class="cls-7" d="M273,266.16l-.66,1c-1.83,2.61-8,2-10.08.45C264.14,266.94,270,265.15,273,266.16Z" transform="translate(-19.6 -23)"/><g class="cls-2"><path d="M242.69,116.48a3.86,3.86,0,0,0,.2-.76A5.33,5.33,0,0,0,242.69,116.48Z" transform="translate(-19.6 -23)"/><path d="M219.63,124.55a2.78,2.78,0,0,1,.18-.48c.53-1.19-.15-2-.93-2.84a4.38,4.38,0,0,1-1.39-2.64,8.14,8.14,0,0,1-.08-.85,1.78,1.78,0,0,0-.17.27,3.14,3.14,0,0,0-.11,1.85,4.32,4.32,0,0,0,1.38,2.65A3,3,0,0,1,219.63,124.55Z" transform="translate(-19.6 -23)"/><path d="M240.18,135.32c-.6-.17-1.13.42-1.43,1s-.63,1.2-1.25,1.28-1.26-.71-1.58-1.4a5.49,5.49,0,0,1-.61-2.17,2.45,2.45,0,0,1,0-.27,3.73,3.73,0,0,0,.22,3.71c.32.69.83,1.5,1.58,1.4s1-.73,1.25-1.28.83-1.13,1.43-1c.27.08.54.3.79.17a.58.58,0,0,0,.22-.4,4.23,4.23,0,0,0,.11-.87C240.7,135.61,240.44,135.4,240.18,135.32Z" transform="translate(-19.6 -23)"/><path d="M243.92,129.25a7.39,7.39,0,0,0-2.23,2,2.93,2.93,0,0,0-.33,1.23,7.81,7.81,0,0,1,2.2-1.95,6.5,6.5,0,0,0,2.3-3.9A6.48,6.48,0,0,1,243.92,129.25Z" transform="translate(-19.6 -23)"/><path d="M235.7,132.47a7.32,7.32,0,0,0,.33-1.13,6.85,6.85,0,0,0-.53-3.41c-.27-.81-.79-1.79-1.65-1.69a1.49,1.49,0,0,1-.51.06c-.44-.07-.54-.66-.58-1.11a5,5,0,0,0-4.12-4.3,1.26,1.26,0,0,0-.72,0c-.34.14-.49.49-.78.68-.92.64-2.1-.58-3.22-.49-1,.08-1.54,1.06-1.93,1.93s-.89,1.87-1.83,2.08a.57.57,0,0,1-.44-.06.32.32,0,0,1-.14-.27,1.82,1.82,0,0,1-.17.56c-.14.33-.34.78,0,1a.52.52,0,0,0,.44.05c.93-.2,1.43-1.2,1.82-2.07s1-1.85,1.93-1.93c1.13-.1,2.3,1.13,3.23.49.28-.2.46-.54.77-.68a1.26,1.26,0,0,1,.72,0,5,5,0,0,1,4.15,4.3c.05.45.14,1.05.59,1.12a2.07,2.07,0,0,0,.5-.06c.85-.1,1.37.88,1.64,1.69A7.36,7.36,0,0,1,235.7,132.47Z" transform="translate(-19.6 -23)"/></g><path class="cls-26" d="M241.74,170.69A34.82,34.82,0,0,1,235,172.1c-2.11,0-10.29,0-10.29,0s-21.4-7.15-15,2.65S226.31,179,226.31,179l1.81.41c1,.22,20.36,0,21-.73S241.74,170.69,241.74,170.69Z" transform="translate(-19.6 -23)"/><path class="cls-7" d="M255.05,179.27c-2.91.27-8.64.34-8.64.34s-4.28-8.48-7.93-8.21c0,0,3.37-3.82,4.74-3.37.23.08.37-.09.44-.41,3.57,1.09,10.37,3.75,11,8.43C254.87,177.31,255,178.37,255.05,179.27Z" transform="translate(-19.6 -23)"/><path class="cls-27" d="M255.42,179.27c-2.92.27-8.65.34-8.65.34s-4.28-8.48-7.92-8.21c0,0,3.37-3.82,4.73-3.37.23.08.38-.09.45-.41,3.56,1.09,10.36,3.75,11,8.43C255.24,177.31,255.35,178.37,255.42,179.27Z" transform="translate(-19.6 -23)"/><path class="cls-7" d="M255.42,179.27c-2.92.27-8.65.34-8.65.34s-4.28-8.48-7.92-8.21c0,0,3.37-3.82,4.73-3.37.23.08.38-.09.45-.41,3.56,1.09,10.36,3.75,11,8.43C255.24,177.31,255.35,178.37,255.42,179.27Z" transform="translate(-19.6 -23)"/><path class="cls-7" d="M229.83,203.66s8.2-2,9.47-.91S229.83,203.66,229.83,203.66Z" transform="translate(-19.6 -23)"/><path class="cls-7" d="M206.33,211.49s3.46,2,3.82,3.65S206.33,211.49,206.33,211.49Z" transform="translate(-19.6 -23)"/><g class="cls-2"><path d="M148.08,102.77a3.77,3.77,0,0,0,.2,1.33v-.42a17.05,17.05,0,0,0,.17-1.88,2.48,2.48,0,0,0-.18-.76C148.27,101.63,148.11,102.19,148.08,102.77Z" transform="translate(-19.6 -23)"/><path d="M114.44,102.23c.16.43.4.83.56,1.25,0-.1,0-.2,0-.3a7.45,7.45,0,0,0-.69-1.78A2.34,2.34,0,0,0,114.44,102.23Z" transform="translate(-19.6 -23)"/><path d="M150.82,107.81a1,1,0,0,0-.21-.31,1.25,1.25,0,0,1-.59.65,3.2,3.2,0,0,1-1.5.19c-1.14,2-4.61,1-6,2.88-.64.86-.56,2-.81,3.09-.4,1.72-1.74,3.27-1.48,5,.09.61.36,1.3,0,1.8a1.32,1.32,0,0,1-1.58.24c-1.34-.55-2.08-2-3-3s-2.68-1.9-3.79-1c-.93.78-.77,2.23-.66,3.44s-.25,2.78-1.45,3c-.48.09-1-.09-1.46,0-1.51.35-1.39,3-2.85,3.43a3,3,0,0,1-1.6-.12c-1.94-.46-4.14.51-5.93,0-1-.3-1.44-1.37-1.7-2.51.25,1.43.62,3,1.88,3.42,1.79.54,4-.43,5.93,0a3,3,0,0,0,1.6.12c1.46-.47,1.34-3.08,2.85-3.43.47-.11,1,.07,1.46,0,1.2-.21,1.54-1.77,1.45-3s-.25-2.64.68-3.44c1.11-.93,2.83-.12,3.79,1s1.7,2.49,3,3a1.36,1.36,0,0,0,1.58-.24c.34-.46.09-1.19,0-1.8-.26-1.74,1.08-3.29,1.48-5,.25-1,.16-2.23.81-3.09,1.35-1.83,4.82-.91,6-2.88a3.21,3.21,0,0,0,1.5-.19A1.09,1.09,0,0,0,150.82,107.81Z" transform="translate(-19.6 -23)"/><path d="M115.73,122.19a7,7,0,0,0-1.07-2.62,13.8,13.8,0,0,1-1.46-1.73.89.89,0,0,0,0,.23c0,1,1,1.62,1.65,2.41a6.43,6.43,0,0,1,1.06,2.6C115.84,122.75,115.79,122.45,115.73,122.19Z" transform="translate(-19.6 -23)"/><path d="M114.53,113.24c-.1-1.23-.9-2.48-1.27-3.75C113.37,110.76,114.16,112,114.53,113.24Z" transform="translate(-19.6 -23)"/></g><path class="cls-7" d="M178.27,226.71s10.18-.31,7.75.78-9.3,1-9.3,1Z" transform="translate(-19.6 -23)"/><path class="cls-7" d="M220.17,248.42s4.74-.73,6,.06S220.17,248.42,220.17,248.42Z" transform="translate(-19.6 -23)"/><ellipse class="cls-1" cx="341.61" cy="229.93" rx="13.53" ry="1.86"/><path class="cls-4" d="M362.08,233.87s1.82,2.37-.84,6-4.83,6.6-3.95,8.83c0,0,4-6.64,7.26-6.73S365.66,237.87,362.08,233.87Z" transform="translate(-19.6 -23)"/><path class="cls-7" d="M362.08,233.87a2.62,2.62,0,0,1,.37.75c3.18,3.73,4.87,7.21,1.82,7.3-2.85.08-6.25,5.16-7.07,6.44a2.47,2.47,0,0,0,.1.29s4-6.64,7.25-6.73S365.66,237.87,362.08,233.87Z" transform="translate(-19.6 -23)"/><path class="cls-10" d="M365.45,236.89c0,.84-.09,1.52-.21,1.52s-.2-.67-.2-1.52.11-.44.23-.44S365.45,236.05,365.45,236.89Z" transform="translate(-19.6 -23)"/><path class="cls-10" d="M366.61,237.89c-.73.4-1.37.64-1.43.54s.5-.51,1.23-.91.44-.11.5,0S367.34,237.49,366.61,237.89Z" transform="translate(-19.6 -23)"/><path class="cls-4" d="M352.51,233.87s-1.82,2.37.84,6,4.83,6.6,3.95,8.83c0,0-4-6.64-7.26-6.73S348.93,237.87,352.51,233.87Z" transform="translate(-19.6 -23)"/><path class="cls-7" d="M352.51,233.87a2.91,2.91,0,0,0-.37.75c-3.18,3.73-4.87,7.21-1.82,7.3,2.85.08,6.26,5.16,7.07,6.44a1.42,1.42,0,0,1-.1.29s-4-6.64-7.25-6.73S348.93,237.87,352.51,233.87Z" transform="translate(-19.6 -23)"/><path class="cls-10" d="M349.14,236.89c0,.84.09,1.52.21,1.52s.21-.67.21-1.52-.12-.44-.24-.44S349.14,236.05,349.14,236.89Z" transform="translate(-19.6 -23)"/><path class="cls-10" d="M348,237.89c.73.4,1.37.64,1.43.54s-.49-.51-1.23-.91-.44-.11-.5,0S347.25,237.49,348,237.89Z" transform="translate(-19.6 -23)"/><path class="cls-11" d="M349.72,248.35s5.06-.16,6.59-1.25,7.8-2.39,8.18-.64,7.61,8.68,1.89,8.72-13.3-.89-14.82-1.82S349.72,248.35,349.72,248.35Z" transform="translate(-19.6 -23)"/><path class="cls-12" d="M366.48,254.59c-5.72,0-13.29-.89-14.82-1.82-1.16-.71-1.62-3.25-1.77-4.41h-.17s.33,4.08,1.84,5,9.1,1.87,14.82,1.82c1.65,0,2.22-.6,2.19-1.47C368.34,254.24,367.71,254.56,366.48,254.59Z" transform="translate(-19.6 -23)"/><path class="cls-31" d="M250.82,180.56c0,.93-2.93,2-6.53,2s-6.53-1.09-6.53-2,2.92-1.35,6.53-1.35S250.82,179.62,250.82,180.56Z" transform="translate(-19.6 -23)"/><path class="cls-7" d="M250.82,180.56c0,.93-2.93,2-6.53,2s-6.53-1.09-6.53-2,2.92-1.35,6.53-1.35S250.82,179.62,250.82,180.56Z" transform="translate(-19.6 -23)"/><ellipse class="cls-31" cx="224.69" cy="157.56" rx="6.53" ry="1.69"/><ellipse class="cls-7" cx="224.69" cy="157.56" rx="3.69" ry="0.95"/><path class="cls-33" d="M249.63,178.54a2.86,2.86,0,0,1-2.35,1.49,4,4,0,0,1-1.14-.08l.45-.66a2.54,2.54,0,0,0,.87,0,1.66,1.66,0,0,0,1.14-.85c.48-.84-.12-1-.53-1h-.26l.36-.52.36-.05C249.21,176.88,250.54,177,249.63,178.54Z" transform="translate(-19.6 -23)"/><path class="cls-33" d="M246.75,180.84a8.19,8.19,0,0,1-5,0l0-.25,0-.19,4.92-.06,0,.3Z" transform="translate(-19.6 -23)"/><path class="cls-7" d="M247.46,179.28a4.56,4.56,0,0,1-.18.75,4,4,0,0,1-1.14-.08l.45-.66A2.31,2.31,0,0,0,247.46,179.28Z" transform="translate(-19.6 -23)"/><path class="cls-7" d="M248.53,176.93a.85.85,0,0,1-.14.19l0,0a2.88,2.88,0,0,0-.28.33h-.26l.36-.52Z" transform="translate(-19.6 -23)"/><path class="cls-7" d="M246.73,180.64c-.87.33-4.14.41-5,0l0-.19,4.91-.06Z" transform="translate(-19.6 -23)"/><path class="cls-33" d="M248.3,177.12l0,0a2.7,2.7,0,0,0-.83,1.63c-.15,1.45-.46,1.6-.5,1.66-.25.44-4.64.61-5.3,0a2.56,2.56,0,0,1-.83-2.22c.13-.33-.14-.7-.42-1s-.23-.84.29-1.07a11.38,11.38,0,0,1,3.44-.57,9.59,9.59,0,0,1,3.82.42l.09,0a.82.82,0,0,1,.44.42A.58.58,0,0,1,248.3,177.12Z" transform="translate(-19.6 -23)"/><ellipse class="cls-7" cx="224.63" cy="153.98" rx="3.33" ry="0.54"/><ellipse class="cls-43" cx="224.63" cy="154.04" rx="3.33" ry="0.54"/><path class="cls-44" d="M244.91,176.7s-2.39.05-2.32.64A7.85,7.85,0,0,1,244.91,176.7Z" transform="translate(-19.6 -23)"/><path class="cls-44" d="M245.59,176.85s-1.42,0-1.19.49c0,0,.33,0,.28-.17s.91-.25.91-.25Z" transform="translate(-19.6 -23)"/><path class="cls-34" d="M240.51,176.7s-.09,1,3.64,1,3.72-.72,3.75-1h-.2s0,.82-3.49.8-3.54-.8-3.54-.8Z" transform="translate(-19.6 -23)"/><path class="cls-7" d="M248.46,176.54l-2.26.82a.27.27,0,0,1-.26,0l0,0c-.11-.09-.07-.22.07-.28l2.05-.89A.82.82,0,0,1,248.46,176.54Z" transform="translate(-19.6 -23)"/><path class="cls-31" d="M246,177l5.84-2.54a1,1,0,0,1,.43-.09c.3,0,.71,0,.58.35a.73.73,0,0,1-.44.37l-6.18,2.26a.25.25,0,0,1-.26,0l0,0C245.79,177.16,245.83,177,246,177Z" transform="translate(-19.6 -23)"/><path class="cls-7" d="M246,177l5.84-2.54a1,1,0,0,1,.43-.09c.3,0,.71,0,.58.35a.73.73,0,0,1-.44.37l-6.18,2.26a.25.25,0,0,1-.26,0l0,0C245.79,177.16,245.83,177,246,177Z" transform="translate(-19.6 -23)"/><path class="cls-31" d="M246,176.93l5.84-2.54a1.23,1.23,0,0,1,.43-.1c.3,0,.71,0,.58.36a.73.73,0,0,1-.44.37l-6.18,2.26a.27.27,0,0,1-.26,0l0,0C245.79,177.12,245.83,177,246,176.93Z" transform="translate(-19.6 -23)"/><path class="cls-7" d="M245.64,177s.62-.09.54,0,.27.26.27.26a2.61,2.61,0,0,1-.74,0C245.62,177.25,245.64,177,245.64,177Z" transform="translate(-19.6 -23)"/><path class="cls-43" d="M245.59,177s.63-.09.55,0,.27.26.27.26a3.15,3.15,0,0,1-.75,0C245.57,177.27,245.59,177,245.59,177Z" transform="translate(-19.6 -23)"/><path class="cls-45" d="M244.62,172.57a1.53,1.53,0,0,0-.56.72,1.68,1.68,0,0,0,0,.74,3.07,3.07,0,0,0,.13.5c0,.09.13.2.19.13,0-.23-.07-.46-.06-.69a1.31,1.31,0,0,1,.31-.69,3.51,3.51,0,0,0,.42-.59c0-.1.23-1,0-.85-.05,0-.11.33-.15.41A1.47,1.47,0,0,1,244.62,172.57Z" transform="translate(-19.6 -23)"/><path class="cls-45" d="M244.71,174.07c0,.09.13.15.17.23a.43.43,0,0,1,.05.16.85.85,0,0,1-.17.75.61.61,0,0,0,.42-.39,1.1,1.1,0,0,0,.06-.26v-.25c0-.13,0-.46-.17-.52a.29.29,0,0,0-.35.2S244.71,174,244.71,174.07Z" transform="translate(-19.6 -23)"/><path class="cls-7" d="M240.84,178.05a1.64,1.64,0,0,0,1.07.33,2.88,2.88,0,0,1-1.13-.1Z" transform="translate(-19.6 -23)"/><polygon class="cls-24" points="145.29 203.32 157.54 203.28 153.53 209.68 145.63 213.68 145.29 203.32"/><image width="512" height="512" transform="translate(184.4 70) scale(0.1)" xlink:href="../../../../../../../Downloads/PgcSR.png"/></svg>