<svg id="Layer_1" data-name="Layer 1" xmlns="http://www.w3.org/2000/svg" xmlns:xlink="http://www.w3.org/1999/xlink" viewBox="0 0 313.57 283"><defs><style>.cls-1{fill:none;}.cls-2{fill:#535461;}.cls-15,.cls-3{opacity:0.1;}.cls-117,.cls-121,.cls-122,.cls-13,.cls-29,.cls-3,.cls-4,.cls-40,.cls-5{isolation:isolate;}.cls-4{opacity:0.15;}.cls-117,.cls-5,.cls-6{opacity:0.7;}.cls-5{font-size:13.69px;}.cls-117,.cls-121,.cls-13,.cls-29,.cls-5{font-family:ArialMT, Arial;}.cls-7{fill:url(#linear-gradient);}.cls-8{fill:#fdb797;}.cls-9{fill:#4d8af0;}.cls-10{opacity:0.05;}.cls-11{fill:#f55f44;}.cls-12{fill:#333;}.cls-13{font-size:13.17px;}.cls-101,.cls-121,.cls-13,.cls-40{fill:#fff;}.cls-14{fill:url(#linear-gradient-2);}.cls-16{fill:url(#linear-gradient-3);}.cls-17{fill:url(#linear-gradient-4);}.cls-18{fill:url(#linear-gradient-5);}.cls-19{fill:url(#linear-gradient-6);}.cls-20{fill:url(#linear-gradient-7);}.cls-21{fill:url(#linear-gradient-8);}.cls-22{fill:url(#linear-gradient-9);}.cls-23{fill:url(#linear-gradient-10);}.cls-24{fill:url(#linear-gradient-11);}.cls-25{fill:url(#linear-gradient-12);}.cls-26{fill:url(#linear-gradient-13);}.cls-27{fill:url(#linear-gradient-14);}.cls-28{fill:url(#linear-gradient-15);}.cls-121,.cls-29{font-size:13.57px;}.cls-30{fill:url(#linear-gradient-16);}.cls-31{fill:url(#linear-gradient-17);}.cls-32{fill:url(#linear-gradient-18);}.cls-33{fill:url(#linear-gradient-19);}.cls-34{fill:url(#linear-gradient-20);}.cls-35{fill:url(#linear-gradient-21);}.cls-129,.cls-36{fill:#6c63ff;}.cls-37{fill:#814e4d;}.cls-38{fill:url(#linear-gradient-22);}.cls-39{fill:#fdd835;}.cls-40{opacity:0.2;}.cls-41{fill:url(#linear-gradient-23);}.cls-42{fill:url(#linear-gradient-24);}.cls-43{fill:url(#linear-gradient-25);}.cls-44{fill:url(#linear-gradient-26);}.cls-45{fill:url(#linear-gradient-27);}.cls-46{fill:url(#linear-gradient-28);}.cls-47{fill:url(#linear-gradient-29);}.cls-48{fill:url(#linear-gradient-30);}.cls-49{fill:url(#linear-gradient-31);}.cls-50{fill:url(#linear-gradient-32);}.cls-51{fill:url(#linear-gradient-33);}.cls-52{fill:url(#linear-gradient-34);}.cls-53{fill:url(#linear-gradient-35);}.cls-54{fill:url(#linear-gradient-36);}.cls-55{fill:#fbc02d;}.cls-56{fill:url(#linear-gradient-37);}.cls-57{fill:url(#linear-gradient-38);}.cls-58{fill:url(#linear-gradient-39);}.cls-59{fill:url(#linear-gradient-40);}.cls-60{fill:url(#linear-gradient-41);}.cls-61{fill:url(#linear-gradient-42);}.cls-62{fill:url(#linear-gradient-43);}.cls-63{fill:url(#linear-gradient-44);}.cls-64{fill:url(#linear-gradient-45);}.cls-65{fill:url(#linear-gradient-46);}.cls-66{fill:url(#linear-gradient-47);}.cls-67{fill:url(#linear-gradient-48);}.cls-68{fill:url(#linear-gradient-49);}.cls-69{fill:url(#linear-gradient-50);}.cls-70{fill:url(#linear-gradient-51);}.cls-71{fill:url(#linear-gradient-52);}.cls-72{fill:url(#linear-gradient-53);}.cls-73{fill:url(#linear-gradient-54);}.cls-74{fill:url(#linear-gradient-55);}.cls-75{fill:url(#linear-gradient-56);}.cls-76{fill:url(#linear-gradient-57);}.cls-77{fill:url(#linear-gradient-58);}.cls-78{fill:url(#linear-gradient-59);}.cls-79{fill:url(#linear-gradient-60);}.cls-80{fill:url(#linear-gradient-61);}.cls-81{fill:url(#linear-gradient-62);}.cls-82{fill:url(#linear-gradient-63);}.cls-83{fill:url(#linear-gradient-64);}.cls-84{fill:url(#linear-gradient-65);}.cls-85{fill:url(#linear-gradient-66);}.cls-86{fill:url(#linear-gradient-67);}.cls-87{fill:url(#linear-gradient-68);}.cls-88{fill:url(#linear-gradient-69);}.cls-89{fill:url(#linear-gradient-70);}.cls-90{fill:url(#linear-gradient-71);}.cls-91{fill:url(#linear-gradient-72);}.cls-92{fill:url(#linear-gradient-73);}.cls-93{fill:url(#linear-gradient-74);}.cls-94{fill:url(#linear-gradient-75);}.cls-95{fill:url(#linear-gradient-76);}.cls-96{fill:url(#linear-gradient-77);}.cls-97{fill:url(#linear-gradient-78);}.cls-98{fill:url(#linear-gradient-79);}.cls-99{fill:url(#linear-gradient-80);}.cls-100{fill:url(#linear-gradient-81);}.cls-102{fill:url(#linear-gradient-82);}.cls-103{fill:url(#linear-gradient-83);}.cls-104{fill:url(#linear-gradient-84);}.cls-105{fill:url(#linear-gradient-85);}.cls-106{fill:url(#linear-gradient-86);}.cls-107{fill:url(#linear-gradient-87);}.cls-108{fill:url(#linear-gradient-88);}.cls-109{fill:url(#linear-gradient-89);}.cls-110{fill:url(#linear-gradient-90);}.cls-111{fill:url(#linear-gradient-91);}.cls-112{fill:url(#linear-gradient-92);}.cls-113{fill:url(#linear-gradient-93);}.cls-114{fill:url(#linear-gradient-94);}.cls-115{fill:url(#linear-gradient-95);}.cls-116{fill:url(#linear-gradient-96);}.cls-117{font-size:14.22px;}.cls-118{fill:url(#linear-gradient-97);}.cls-119{fill:#3ad29f;}.cls-120{fill:#ffcf51;}.cls-122{opacity:0.02;}.cls-123{fill:url(#linear-gradient-98);}.cls-124{fill:#f2f2f2;}.cls-125{clip-path:url(#clip-path);}.cls-126{fill:url(#linear-gradient-99);}.cls-127{fill:url(#linear-gradient-100);}.cls-128{fill:url(#linear-gradient-101);}.cls-129{stroke:#fff;stroke-miterlimit:10;}</style><linearGradient id="linear-gradient" x1="289.68" y1="-21.83" x2="289.68" y2="166.65" gradientTransform="matrix(1, 0, 0, -1, -161.21, 248)" gradientUnits="userSpaceOnUse"><stop offset="0" stop-color="gray" stop-opacity="0.25"/><stop offset="0.54" stop-color="gray" stop-opacity="0.12"/><stop offset="1" stop-color="gray" stop-opacity="0.1"/></linearGradient><linearGradient id="linear-gradient-2" x1="201.59" y1="120.45" x2="243.2" y2="120.45" gradientTransform="matrix(1, 0, 0, -1, -52, 294)" xlink:href="#linear-gradient"/><linearGradient id="linear-gradient-3" x1="362.81" y1="76.63" x2="404.42" y2="76.63" xlink:href="#linear-gradient"/><linearGradient id="linear-gradient-4" x1="362.8" y1="98.79" x2="404.42" y2="98.79" xlink:href="#linear-gradient"/><linearGradient id="linear-gradient-5" x1="378.64" y1="127.51" x2="388.59" y2="127.51" xlink:href="#linear-gradient"/><linearGradient id="linear-gradient-6" x1="201.59" y1="65.27" x2="216.52" y2="65.27" gradientTransform="matrix(1, 0, 0, -1, -52, 294)" xlink:href="#linear-gradient"/><linearGradient id="linear-gradient-7" x1="228.28" y1="65.27" x2="243.21" y2="65.27" gradientTransform="matrix(1, 0, 0, -1, -52, 294)" xlink:href="#linear-gradient"/><linearGradient id="linear-gradient-8" x1="378.64" y1="131.36" x2="388.59" y2="131.36" xlink:href="#linear-gradient"/><linearGradient id="linear-gradient-9" x1="200.69" y1="207.75" x2="244.11" y2="207.75" gradientTransform="matrix(1, 0, 0, -1, -52, 294)" xlink:href="#linear-gradient"/><linearGradient id="linear-gradient-10" x1="201.59" y1="202.77" x2="243.21" y2="202.77" gradientTransform="matrix(1, 0, 0, -1, -52, 294)" xlink:href="#linear-gradient"/><linearGradient id="linear-gradient-11" x1="367.76" y1="163.11" x2="404.13" y2="163.11" xlink:href="#linear-gradient"/><linearGradient id="linear-gradient-12" x1="367.76" y1="163.57" x2="404.13" y2="163.57" xlink:href="#linear-gradient"/><linearGradient id="linear-gradient-13" x1="241.17" y1="202.77" x2="244.79" y2="202.77" gradientTransform="matrix(1, 0, 0, -1, -52, 294)" xlink:href="#linear-gradient"/><linearGradient id="linear-gradient-14" x1="200.01" y1="202.77" x2="203.63" y2="202.77" gradientTransform="matrix(1, 0, 0, -1, -52, 294)" xlink:href="#linear-gradient"/><linearGradient id="linear-gradient-15" x1="273.06" y1="229.46" x2="283" y2="229.46" gradientTransform="matrix(1, 0, 0, -1, -52, 294)" xlink:href="#linear-gradient"/><linearGradient id="linear-gradient-16" x1="363.26" y1="136.78" x2="404.15" y2="136.78" xlink:href="#linear-gradient"/><linearGradient id="linear-gradient-17" x1="394.67" y1="141.99" x2="441.05" y2="141.99" xlink:href="#linear-gradient"/><linearGradient id="linear-gradient-18" x1="161.8" y1="229.46" x2="171.74" y2="229.46" gradientTransform="matrix(1, 0, 0, -1, -52, 294)" xlink:href="#linear-gradient"/><linearGradient id="linear-gradient-19" x1="326.17" y1="141.98" x2="372.55" y2="141.98" xlink:href="#linear-gradient"/><linearGradient id="linear-gradient-20" x1="363.71" y1="-39.38" x2="376.83" y2="-39.38" xlink:href="#linear-gradient"/><linearGradient id="linear-gradient-21" x1="390.4" y1="-39.38" x2="403.51" y2="-39.38" xlink:href="#linear-gradient"/><linearGradient id="linear-gradient-22" x1="176.79" y1="123" x2="176.79" y2="125.86" gradientTransform="matrix(1, 0, 0, -1, -52, 294)" xlink:href="#linear-gradient"/><linearGradient id="linear-gradient-23" x1="180.92" y1="123" x2="180.92" y2="125.86" gradientTransform="matrix(1, 0, 0, -1, -52, 294)" xlink:href="#linear-gradient"/><linearGradient id="linear-gradient-24" x1="169.16" y1="123" x2="169.16" y2="125.86" gradientTransform="matrix(1, 0, 0, -1, -52, 294)" xlink:href="#linear-gradient"/><linearGradient id="linear-gradient-25" x1="174.56" y1="126.61" x2="174.56" y2="129.46" gradientTransform="matrix(1, 0, 0, -1, -52, 294)" xlink:href="#linear-gradient"/><linearGradient id="linear-gradient-26" x1="182.98" y1="126.02" x2="182.98" y2="128.88" gradientTransform="matrix(1, 0, 0, -1, -52, 294)" xlink:href="#linear-gradient"/><linearGradient id="linear-gradient-27" x1="180.92" y1="127.29" x2="180.92" y2="130.15" gradientTransform="matrix(1, 0, 0, -1, -52, 294)" xlink:href="#linear-gradient"/><linearGradient id="linear-gradient-28" x1="181.92" y1="124.27" x2="181.92" y2="127.13" gradientTransform="matrix(1, 0, 0, -1, -52, 294)" xlink:href="#linear-gradient"/><linearGradient id="linear-gradient-29" x1="178.21" y1="126.61" x2="178.21" y2="129.46" gradientTransform="matrix(1, 0, 0, -1, -52, 294)" xlink:href="#linear-gradient"/><linearGradient id="linear-gradient-30" x1="178.06" y1="130.63" x2="178.06" y2="133.49" gradientTransform="matrix(1, 0, 0, -1, -52, 294)" xlink:href="#linear-gradient"/><linearGradient id="linear-gradient-31" x1="185.1" y1="128.56" x2="185.1" y2="131.43" gradientTransform="matrix(1, 0, 0, -1, -52, 294)" xlink:href="#linear-gradient"/><linearGradient id="linear-gradient-32" x1="184.41" y1="125.86" x2="184.41" y2="128.72" gradientTransform="matrix(1, 0, 0, -1, -52, 294)" xlink:href="#linear-gradient"/><linearGradient id="linear-gradient-33" x1="187.59" y1="126.39" x2="187.59" y2="129.25" gradientTransform="matrix(1, 0, 0, -1, -52, 294)" xlink:href="#linear-gradient"/><linearGradient id="linear-gradient-34" x1="186.16" y1="125.07" x2="186.16" y2="127.93" gradientTransform="matrix(1, 0, 0, -1, -52, 294)" xlink:href="#linear-gradient"/><linearGradient id="linear-gradient-35" x1="176.63" y1="128.56" x2="176.63" y2="131.43" gradientTransform="matrix(1, 0, 0, -1, -52, 294)" xlink:href="#linear-gradient"/><linearGradient id="linear-gradient-36" x1="174.56" y1="123.16" x2="174.56" y2="126.02" gradientTransform="matrix(1, 0, 0, -1, -52, 294)" xlink:href="#linear-gradient"/><linearGradient id="linear-gradient-37" x1="171.33" y1="123" x2="171.33" y2="125.86" gradientTransform="matrix(1, 0, 0, -1, -52, 294)" xlink:href="#linear-gradient"/><linearGradient id="linear-gradient-38" x1="172.97" y1="123.9" x2="172.97" y2="126.76" gradientTransform="matrix(1, 0, 0, -1, -52, 294)" xlink:href="#linear-gradient"/><linearGradient id="linear-gradient-39" x1="179.97" y1="125.49" x2="179.97" y2="128.35" gradientTransform="matrix(1, 0, 0, -1, -52, 294)" xlink:href="#linear-gradient"/><linearGradient id="linear-gradient-40" x1="179.97" y1="128.88" x2="179.97" y2="131.74" gradientTransform="matrix(1, 0, 0, -1, -52, 294)" xlink:href="#linear-gradient"/><linearGradient id="linear-gradient-41" x1="181.55" y1="126.18" x2="181.55" y2="129.04" gradientTransform="matrix(1, 0, 0, -1, -52, 294)" xlink:href="#linear-gradient"/><linearGradient id="linear-gradient-42" x1="180.12" y1="131.58" x2="180.12" y2="134.45" gradientTransform="matrix(1, 0, 0, -1, -52, 294)" xlink:href="#linear-gradient"/><linearGradient id="linear-gradient-43" x1="180.44" y1="130.15" x2="180.44" y2="133.02" gradientTransform="matrix(1, 0, 0, -1, -52, 294)" xlink:href="#linear-gradient"/><linearGradient id="linear-gradient-44" x1="182.14" y1="129.2" x2="182.14" y2="132.06" gradientTransform="matrix(1, 0, 0, -1, -52, 294)" xlink:href="#linear-gradient"/><linearGradient id="linear-gradient-45" x1="183.89" y1="129.46" x2="183.89" y2="132.33" gradientTransform="matrix(1, 0, 0, -1, -52, 294)" xlink:href="#linear-gradient"/><linearGradient id="linear-gradient-46" x1="183.41" y1="128.04" x2="183.41" y2="130.9" gradientTransform="matrix(1, 0, 0, -1, -52, 294)" xlink:href="#linear-gradient"/><linearGradient id="linear-gradient-47" x1="177.42" y1="129.89" x2="177.42" y2="132.75" gradientTransform="matrix(1, 0, 0, -1, -52, 294)" xlink:href="#linear-gradient"/><linearGradient id="linear-gradient-48" x1="173.29" y1="125.54" x2="173.29" y2="128.41" gradientTransform="matrix(1, 0, 0, -1, -52, 294)" xlink:href="#linear-gradient"/><linearGradient id="linear-gradient-49" x1="175.78" y1="127.93" x2="175.78" y2="130.79" gradientTransform="matrix(1, 0, 0, -1, -52, 294)" xlink:href="#linear-gradient"/><linearGradient id="linear-gradient-50" x1="170.69" y1="123.85" x2="170.69" y2="126.71" gradientTransform="matrix(1, 0, 0, -1, -52, 294)" xlink:href="#linear-gradient"/><linearGradient id="linear-gradient-51" x1="184.41" y1="124.96" x2="184.41" y2="127.82" gradientTransform="matrix(1, 0, 0, -1, -52, 294)" xlink:href="#linear-gradient"/><linearGradient id="linear-gradient-52" x1="178" y1="133.02" x2="178" y2="135.87" gradientTransform="matrix(1, 0, 0, -1, -52, 294)" xlink:href="#linear-gradient"/><linearGradient id="linear-gradient-53" x1="175.41" y1="129.73" x2="175.41" y2="132.59" gradientTransform="matrix(1, 0, 0, -1, -52, 294)" xlink:href="#linear-gradient"/><linearGradient id="linear-gradient-54" x1="173.34" y1="127.29" x2="173.34" y2="130.15" gradientTransform="matrix(1, 0, 0, -1, -52, 294)" xlink:href="#linear-gradient"/><linearGradient id="linear-gradient-55" x1="174.83" y1="124.59" x2="174.83" y2="127.45" gradientTransform="matrix(1, 0, 0, -1, -52, 294)" xlink:href="#linear-gradient"/><linearGradient id="linear-gradient-56" x1="176.84" y1="126.39" x2="176.84" y2="129.25" gradientTransform="matrix(1, 0, 0, -1, -52, 294)" xlink:href="#linear-gradient"/><linearGradient id="linear-gradient-57" x1="177.9" y1="124.59" x2="177.9" y2="127.45" gradientTransform="matrix(1, 0, 0, -1, -52, 294)" xlink:href="#linear-gradient"/><linearGradient id="linear-gradient-58" x1="188.86" y1="123" x2="188.86" y2="125.86" gradientTransform="matrix(1, 0, 0, -1, -52, 294)" xlink:href="#linear-gradient"/><linearGradient id="linear-gradient-59" x1="186.85" y1="123.32" x2="186.85" y2="126.18" gradientTransform="matrix(1, 0, 0, -1, -52, 294)" xlink:href="#linear-gradient"/><linearGradient id="linear-gradient-60" x1="182.98" y1="123.16" x2="182.98" y2="126.02" gradientTransform="matrix(1, 0, 0, -1, -52, 294)" xlink:href="#linear-gradient"/><linearGradient id="linear-gradient-61" x1="178.69" y1="123" x2="178.69" y2="125.86" gradientTransform="matrix(1, 0, 0, -1, -52, 294)" xlink:href="#linear-gradient"/><linearGradient id="linear-gradient-62" x1="178.27" y1="128.72" x2="178.27" y2="131.58" gradientTransform="matrix(1, 0, 0, -1, -52, 294)" xlink:href="#linear-gradient"/><linearGradient id="linear-gradient-63" x1="179.7" y1="126.92" x2="179.7" y2="129.78" gradientTransform="matrix(1, 0, 0, -1, -52, 294)" xlink:href="#linear-gradient"/><linearGradient id="linear-gradient-64" x1="177.31" y1="131.32" x2="177.31" y2="134.18" gradientTransform="matrix(1, 0, 0, -1, -52, 294)" xlink:href="#linear-gradient"/><linearGradient id="linear-gradient-65" x1="178.9" y1="131.16" x2="178.9" y2="134.02" gradientTransform="matrix(1, 0, 0, -1, -52, 294)" xlink:href="#linear-gradient"/><linearGradient id="linear-gradient-66" x1="181.55" y1="130.42" x2="181.55" y2="133.28" gradientTransform="matrix(1, 0, 0, -1, -52, 294)" xlink:href="#linear-gradient"/><linearGradient id="linear-gradient-67" x1="174.4" y1="128.09" x2="174.4" y2="130.95" gradientTransform="matrix(1, 0, 0, -1, -52, 294)" xlink:href="#linear-gradient"/><linearGradient id="linear-gradient-68" x1="175.41" y1="126.23" x2="175.41" y2="129.09" gradientTransform="matrix(1, 0, 0, -1, -52, 294)" xlink:href="#linear-gradient"/><linearGradient id="linear-gradient-69" x1="176.1" y1="124.06" x2="176.1" y2="126.92" gradientTransform="matrix(1, 0, 0, -1, -52, 294)" xlink:href="#linear-gradient"/><linearGradient id="linear-gradient-70" x1="180.12" y1="124.75" x2="180.12" y2="127.61" gradientTransform="matrix(1, 0, 0, -1, -52, 294)" xlink:href="#linear-gradient"/><linearGradient id="linear-gradient-71" x1="184.26" y1="126.02" x2="184.26" y2="128.88" gradientTransform="matrix(1, 0, 0, -1, -52, 294)" xlink:href="#linear-gradient"/><linearGradient id="linear-gradient-72" x1="185.58" y1="127.13" x2="185.58" y2="129.99" gradientTransform="matrix(1, 0, 0, -1, -52, 294)" xlink:href="#linear-gradient"/><linearGradient id="linear-gradient-73" x1="187.64" y1="124.59" x2="187.64" y2="127.45" gradientTransform="matrix(1, 0, 0, -1, -52, 294)" xlink:href="#linear-gradient"/><linearGradient id="linear-gradient-74" x1="180.97" y1="122.84" x2="180.97" y2="125.71" gradientTransform="matrix(1, 0, 0, -1, -52, 294)" xlink:href="#linear-gradient"/><linearGradient id="linear-gradient-75" x1="173.61" y1="123.48" x2="173.61" y2="126.34" gradientTransform="matrix(1, 0, 0, -1, -52, 294)" xlink:href="#linear-gradient"/><linearGradient id="linear-gradient-76" x1="171.54" y1="125.33" x2="171.54" y2="128.19" gradientTransform="matrix(1, 0, 0, -1, -52, 294)" xlink:href="#linear-gradient"/><linearGradient id="linear-gradient-77" x1="174.24" y1="126.23" x2="174.24" y2="129.09" gradientTransform="matrix(1, 0, 0, -1, -52, 294)" xlink:href="#linear-gradient"/><linearGradient id="linear-gradient-78" x1="172.76" y1="128.41" x2="172.76" y2="131.27" gradientTransform="matrix(1, 0, 0, -1, -52, 294)" xlink:href="#linear-gradient"/><linearGradient id="linear-gradient-79" x1="174.03" y1="130.42" x2="174.03" y2="133.28" gradientTransform="matrix(1, 0, 0, -1, -52, 294)" xlink:href="#linear-gradient"/><linearGradient id="linear-gradient-80" x1="185.1" y1="123" x2="185.1" y2="125.86" gradientTransform="matrix(1, 0, 0, -1, -52, 294)" xlink:href="#linear-gradient"/><linearGradient id="linear-gradient-81" x1="179.2" y1="100.8" x2="179.2" y2="124.43" gradientTransform="matrix(1, 0, 0, -1, -52, 294)" xlink:href="#linear-gradient"/><linearGradient id="linear-gradient-82" x1="172.02" y1="126.92" x2="172.02" y2="129.78" gradientTransform="matrix(1, 0, 0, -1, -52, 294)" xlink:href="#linear-gradient"/><linearGradient id="linear-gradient-83" x1="175.62" y1="130.95" x2="175.62" y2="133.81" gradientTransform="matrix(1, 0, 0, -1, -52, 294)" xlink:href="#linear-gradient"/><linearGradient id="linear-gradient-84" x1="170.59" y1="124.75" x2="170.59" y2="127.61" gradientTransform="matrix(1, 0, 0, -1, -52, 294)" xlink:href="#linear-gradient"/><linearGradient id="linear-gradient-85" x1="168.87" y1="134.47" x2="168.87" y2="137.33" gradientTransform="matrix(1, 0, 0, -1, -52, 294)" xlink:href="#linear-gradient"/><linearGradient id="linear-gradient-86" x1="174.89" y1="142.66" x2="174.89" y2="145.53" gradientTransform="matrix(1, 0, 0, -1, -52, 294)" xlink:href="#linear-gradient"/><linearGradient id="linear-gradient-87" x1="180.08" y1="148.89" x2="180.08" y2="151.75" gradientTransform="matrix(1, 0, 0, -1, -52, 294)" xlink:href="#linear-gradient"/><linearGradient id="linear-gradient-88" x1="190.15" y1="135.5" x2="190.15" y2="138.37" gradientTransform="matrix(1, 0, 0, -1, -52, 294)" xlink:href="#linear-gradient"/><linearGradient id="linear-gradient-89" x1="198.13" y1="125.34" x2="198.13" y2="128.2" gradientTransform="matrix(1, 0, 0, -1, -52, 294)" xlink:href="#linear-gradient"/><linearGradient id="linear-gradient-90" x1="168.46" y1="100.54" x2="168.46" y2="103.4" gradientTransform="matrix(1, 0, 0, -1, -52, 294)" xlink:href="#linear-gradient"/><linearGradient id="linear-gradient-91" x1="166.49" y1="103.13" x2="166.49" y2="105.99" gradientTransform="matrix(1, 0, 0, -1, -52, 294)" xlink:href="#linear-gradient"/><linearGradient id="linear-gradient-92" x1="165.24" y1="117.14" x2="165.24" y2="120" gradientTransform="matrix(1, 0, 0, -1, -52, 294)" xlink:href="#linear-gradient"/><linearGradient id="linear-gradient-93" x1="192.22" y1="101.68" x2="192.22" y2="104.54" gradientTransform="matrix(1, 0, 0, -1, -52, 294)" xlink:href="#linear-gradient"/><linearGradient id="linear-gradient-94" x1="194.81" y1="103.34" x2="194.81" y2="106.2" gradientTransform="matrix(1, 0, 0, -1, -52, 294)" xlink:href="#linear-gradient"/><linearGradient id="linear-gradient-95" x1="195.12" y1="101.37" x2="195.12" y2="104.23" gradientTransform="matrix(1, 0, 0, -1, -52, 294)" xlink:href="#linear-gradient"/><linearGradient id="linear-gradient-96" x1="189.73" y1="101.37" x2="189.73" y2="104.23" gradientTransform="matrix(1, 0, 0, -1, -52, 294)" xlink:href="#linear-gradient"/><linearGradient id="linear-gradient-97" x1="454.48" y1="-30.33" x2="454.48" y2="161.36" xlink:href="#linear-gradient"/><linearGradient id="linear-gradient-98" x1="425.6" y1="75.17" x2="425.6" y2="90.74" xlink:href="#linear-gradient"/><clipPath id="clip-path" transform="translate(-52 -8)"><path class="cls-1" d="M269.5,159.36l-.68-1.62-8.9,3.66a1.1,1.1,0,0,0-.68,1V172H261v-9.16Z"/></clipPath><linearGradient id="linear-gradient-99" x1="260.49" y1="101.07" x2="260.49" y2="131.65" gradientTransform="matrix(1, 0, 0, -1, -52, 294)" xlink:href="#linear-gradient"/><linearGradient id="linear-gradient-100" x1="260.45" y1="112.72" x2="260.45" y2="122.46" gradientTransform="matrix(1, 0, 0, -1, -52, 294)" gradientUnits="userSpaceOnUse"><stop offset="0" stop-opacity="0.12"/><stop offset="0.55" stop-opacity="0.09"/><stop offset="1" stop-opacity="0.02"/></linearGradient><linearGradient id="linear-gradient-101" x1="447.2" y1="167.1" x2="447.2" y2="240" xlink:href="#linear-gradient"/></defs><title>what-2</title><path class="cls-2" d="M79.77,133.17h258a9.33,9.33,0,0,1,9.33,9.33v92.56H70.44V142.5a9.33,9.33,0,0,1,9.33-9.33Z" transform="translate(-52 -8)"/><path class="cls-3" d="M59,184.12H81.85a4.41,4.41,0,0,1,4.41,4.4h0v46.54H57.49a2.86,2.86,0,0,1-2.86-2.86V188.52a4.41,4.41,0,0,1,4.41-4.4Z" transform="translate(-52 -8)"/><path class="cls-2" d="M56.41,184.12h22.8a4.4,4.4,0,0,1,4.41,4.4h0v46.54H54.86A2.86,2.86,0,0,1,52,232.2V188.52a4.4,4.4,0,0,1,4.41-4.4Z" transform="translate(-52 -8)"/><path class="cls-3" d="M360.08,235.06H331.31V188.53a4.41,4.41,0,0,1,4.41-4.41h22.81a4.41,4.41,0,0,1,4.41,4.41h0V232.2A2.86,2.86,0,0,1,360.08,235.06Z" transform="translate(-52 -8)"/><path class="cls-2" d="M362.71,235.06H334V188.53a4.4,4.4,0,0,1,4.41-4.41h22.8a4.4,4.4,0,0,1,4.41,4.41h0V232.2a2.86,2.86,0,0,1-2.86,2.86Z" transform="translate(-52 -8)"/><path class="cls-2" d="M90.35,200.37H327.22A6.73,6.73,0,0,1,334,207.1h0v28H83.62v-28a6.73,6.73,0,0,1,6.73-6.73Z" transform="translate(-52 -8)"/><path class="cls-4" d="M90.35,200.37H327.22A6.73,6.73,0,0,1,334,207.1h0v28H83.62v-28a6.73,6.73,0,0,1,6.73-6.73Z" transform="translate(-52 -8)"/><rect class="cls-2" x="13.61" y="227.06" width="9.66" height="10.1"/><rect class="cls-4" x="13.61" y="227.06" width="9.66" height="10.1"/><rect class="cls-3" x="13.61" y="227.06" width="9.66" height="0.44"/><rect class="cls-2" x="290.29" y="227.06" width="9.66" height="10.1"/><rect class="cls-4" x="290.29" y="227.06" width="9.66" height="10.1"/><rect class="cls-3" x="290.29" y="227.06" width="9.66" height="0.44"/><text class="cls-5" transform="translate(72.99 162.53)">1</text><g class="cls-6"><path class="cls-7" d="M153.05,191.54l-1.43-.27,2.84-10.47c4.47-33.56-12.43-36.94-18.77-37.06a22,22,0,0,0-2.23-.67v-4a21,21,0,0,0,15.65-17h.06c1,0,1.82-1.53,1.82-3.42a4.75,4.75,0,0,0-.79-2.83c.07-.71.11-1.44.11-2.19a21.79,21.79,0,0,0-6.75-15.81A14,14,0,0,0,142,93.72c-1.56-2.75-4.15-5.6-3.09-8.58l-6.84.71-.06-4.5c-2.15.38-3,2.86-4.29,4.62-3,4.23-9.15,4.82-13.19,8.12-1.37,1.12-4.47,4.53-3.88,6.77a21.78,21.78,0,0,0-4.17,12.86c0,.74,0,1.47.11,2.2a4.77,4.77,0,0,0-.79,2.82c0,1.89.82,3.42,1.82,3.42h.06a21,21,0,0,0,15.7,17v4a19.12,19.12,0,0,0-2.23.68c-6.34.11-23.24,3.49-18.77,37.05l2.84,10.48-.67.12a7.79,7.79,0,0,0-6.23,9.09h0l11.2,60a2.36,2.36,0,0,0,2.76,1.88h0l2-.35v1.17a6.55,6.55,0,0,0-3.65,5.87v.74h13.22v-.74a6.53,6.53,0,0,0-3.19-5.62v-2.62l1.8-.33a2.36,2.36,0,0,0,1.89-2.75h0l-10.51-56.43H143l-10.52,56.4a2.36,2.36,0,0,0,1.88,2.76h0l1.81.33v2.61a6.57,6.57,0,0,0-3.2,5.63v.74H146.2v-.74a6.55,6.55,0,0,0-3.65-5.88V262l2,.35a2.35,2.35,0,0,0,2.75-1.88h0l11.35-60.79A7,7,0,0,0,153.05,191.54Z" transform="translate(-52 -8)"/></g><rect class="cls-8" x="62.8" y="246.39" width="6.15" height="8.34"/><rect class="cls-8" x="83.88" y="246.39" width="6.15" height="8.34"/><rect class="cls-9" x="56.21" y="177.87" width="40.41" height="14.49"/><g class="cls-10"><rect x="56.21" y="177.87" width="40.41" height="14.49"/></g><path class="cls-3" d="M108.22,188.51s15.07,3.51,20.2,3.51,20.2-3.51,20.2-3.51v-2.2h-40.4Z" transform="translate(-52 -8)"/><path class="cls-11" d="M148.62,188.07s-15.08,3.51-20.2,3.51-20.21-3.51-20.21-3.51V163.91a20.21,20.21,0,0,1,20.21-20.2h0a20.21,20.21,0,0,1,20.2,20.2h0Z" transform="translate(-52 -8)"/><path class="cls-8" d="M123.58,133.61h9.65v11.88a3.93,3.93,0,0,1-3.93,3.93h-1.78a3.93,3.93,0,0,1-3.94-3.93V133.61Z" transform="translate(-52 -8)"/><path class="cls-9" d="M123.1,257.21l-10.61,2a1.86,1.86,0,0,1-2.15-1.48L99.22,198.17a6.09,6.09,0,0,1,4.87-7.11h0l6.43-1.21a1.86,1.86,0,0,1,2.15,1.48l11.89,63.72A1.85,1.85,0,0,1,123.1,257.21Z" transform="translate(-52 -8)"/><path class="cls-9" d="M133.73,257.21l10.62,2a1.85,1.85,0,0,0,2.14-1.48l11.24-60.15a5.49,5.49,0,0,0-4.39-6.4l-7-1.32a1.84,1.84,0,0,0-2.14,1.48l-11.9,63.72A1.85,1.85,0,0,0,133.73,257.21Z" transform="translate(-52 -8)"/><path class="cls-3" d="M123.58,140.93a20.19,20.19,0,0,0,9.65,0v-6.88h-9.65Z" transform="translate(-52 -8)"/><circle class="cls-12" cx="76.42" cy="108.04" r="21.08"/><circle class="cls-8" cx="76.42" cy="112.87" r="20.2"/><path class="cls-12" d="M115.08,97.17c3.88-3.17,9.76-3.74,12.69-7.81,1.22-1.69,2.07-4.07,4.13-4.44l.06,4.33,6.58-.67c-1,2.86,1.47,5.6,3,8.24a13.65,13.65,0,0,1,1.76,6.39c-2.29,1.37-5.12-.13-7.66-.93a28.73,28.73,0,0,0-7.69-.93,16.41,16.41,0,0,0-4,.22,20.16,20.16,0,0,0-3.28,1.21c-1.75.71-7.27,3.49-8.89,1.71C109.94,102.47,113.58,98.41,115.08,97.17Z" transform="translate(-52 -8)"/><path class="cls-3" d="M116.18,110.74a9.15,9.15,0,0,0,3.57,1.08,31.51,31.51,0,0,0,15.33-1.73,7.5,7.5,0,0,0,4.83,4.09,21.65,21.65,0,0,0,6.48.71,2.38,2.38,0,0,0,1.39-.26c1-.66.5-2.15-.06-3.19l-2.82-5.1a15,15,0,0,0-3-4.19,12.33,12.33,0,0,0-5.88-2.52,33.22,33.22,0,0,0-15.07.5C115.72,101.57,109,106.38,116.18,110.74Z" transform="translate(-52 -8)"/><path class="cls-12" d="M116.18,110.31a9.3,9.3,0,0,0,3.57,1.07,31.63,31.63,0,0,0,15.33-1.72,7.52,7.52,0,0,0,4.83,4.08,21.65,21.65,0,0,0,6.48.71,2.38,2.38,0,0,0,1.39-.26c1-.66.5-2.15-.06-3.19l-2.81-5.09a15.42,15.42,0,0,0-3-4.19,12.43,12.43,0,0,0-5.88-2.52,33.23,33.23,0,0,0-15.07.5C115.72,101.13,109,105.94,116.18,110.31Z" transform="translate(-52 -8)"/><ellipse class="cls-8" cx="96.4" cy="112.87" rx="1.76" ry="3.29"/><ellipse class="cls-8" cx="56.43" cy="112.87" rx="1.76" ry="3.29"/><path class="cls-11" d="M123.67,145.06s-25.55-4-20.29,35.53l3.07,11.33,8.79-.36s-5.72-13.17-2.2-22S123.67,145.06,123.67,145.06Z" transform="translate(-52 -8)"/><path class="cls-11" d="M133.17,145.06s25.55-4,20.28,35.54l-3.07,11.33-8.79-.35s5.72-13.18,2.2-22S133.17,145.06,133.17,145.06Z" transform="translate(-52 -8)"/><circle class="cls-8" cx="59.29" cy="185.34" r="4.83"/><circle class="cls-8" cx="94.42" cy="185.34" r="4.83"/><path class="cls-12" d="M116.42,259.2h2.47a5.13,5.13,0,0,1,5.13,5.13v1.89H111.29v-1.89a5.13,5.13,0,0,1,5.13-5.13Z" transform="translate(-52 -8)"/><path class="cls-12" d="M138,259.2h2.46a5.13,5.13,0,0,1,5.13,5.13h0v1.89H132.81v-1.89a5.13,5.13,0,0,1,5.13-5.13Z" transform="translate(-52 -8)"/><text class="cls-13" transform="translate(73.12 162.72)">1</text><path class="cls-3" d="M112.61,166.11s-1.76,9.22,1.32,13.18" transform="translate(-52 -8)"/><path class="cls-3" d="M144.23,166.11s1.75,9.22-1.32,13.18" transform="translate(-52 -8)"/><g class="cls-6"><rect class="cls-14" x="149.59" y="158.17" width="41.61" height="30.75"/><g class="cls-15"><path class="cls-16" d="M201.6,174.31s15.52,1.81,20.8,1.81,20.81-1.81,20.81-1.81v-7.69H201.6Z" transform="translate(-52 -8)"/></g><path class="cls-17" d="M243.21,173.86s-15.53,1.81-20.81,1.81-20.81-1.81-20.81-1.81V143.55a20.81,20.81,0,0,1,20.81-20.8h0a20.81,20.81,0,0,1,20.81,20.8Z" transform="translate(-52 -8)"/><path class="cls-18" d="M223.44,128.63h-2.09a3.93,3.93,0,0,1-3.93-3.93V112.34h10v12.35a3.93,3.93,0,0,1-3.93,3.94Z" transform="translate(-52 -8)"/><rect class="cls-19" x="149.59" y="178.07" width="14.93" height="101.31"/><rect class="cls-20" x="176.28" y="178.07" width="14.93" height="101.31"/><g class="cls-15"><path class="cls-21" d="M217.43,119.89a20.93,20.93,0,0,0,9.95,0V112.8h-9.95Z" transform="translate(-52 -8)"/></g><circle class="cls-22" cx="170.4" cy="86.25" r="21.71"/><circle class="cls-23" cx="170.4" cy="91.23" r="20.81"/><g class="cls-15"><path class="cls-24" d="M209.79,88.8a9.65,9.65,0,0,0,3.68,1.11,32.41,32.41,0,0,0,15.79-1.79,7.73,7.73,0,0,0,5,4.21,23.32,23.32,0,0,0,6.67.74,2.45,2.45,0,0,0,1.43-.28c1-.67.52-2.22-.07-3.28l-2.89-5.25a15.78,15.78,0,0,0-3.07-4.32,12.85,12.85,0,0,0-6.05-2.59,34.06,34.06,0,0,0-15.52.51C209.33,79.35,202.35,84.3,209.79,88.8Z" transform="translate(-52 -8)"/></g><path class="cls-25" d="M209.79,88.34a9.48,9.48,0,0,0,3.68,1.11,32.41,32.41,0,0,0,15.79-1.78,7.72,7.72,0,0,0,5,4.2,22.63,22.63,0,0,0,6.67.74,2.44,2.44,0,0,0,1.43-.27c1-.68.52-2.22-.07-3.28l-2.89-5.26a15.73,15.73,0,0,0-3.07-4.31,13,13,0,0,0-6.05-2.6,34.2,34.2,0,0,0-15.52.52C209.33,78.89,202.35,83.85,209.79,88.34Z" transform="translate(-52 -8)"/><ellipse class="cls-26" cx="190.98" cy="91.23" rx="1.81" ry="3.39"/><ellipse class="cls-27" cx="149.82" cy="91.23" rx="1.81" ry="3.39"/><circle class="cls-28" cx="226.03" cy="64.54" r="4.97"/><text class="cls-29" transform="translate(162.53 141.21)">00</text><path class="cls-30" d="M222.85,107.37s-11.76,4.07-20.8-5c0,0,.71,3,2,6.61a20.8,20.8,0,0,0,38.9-6.47C240.82,103.72,225.37,111.15,222.85,107.37Zm-.45,5.43c-2.25,0-4.07-1.72-4.07-2.71s1.82-.91,4.07-.91,4.07-.09,4.07.91S224.65,112.8,222.4,112.8Z" transform="translate(-52 -8)"/><path class="cls-31" d="M233.46,125.92s24.22-13.58,39.14-53.39l7.24,4.52s-12,50.74-42.06,62.45Z" transform="translate(-52 -8)"/><circle class="cls-32" cx="114.77" cy="64.54" r="4.97"/><path class="cls-33" d="M211.34,125.92s-24.22-13.58-39.14-53.38L165,77.07S177,127.79,207,139.5Z" transform="translate(-52 -8)"/><path class="cls-34" d="M215.62,291H202.5v-2.1a5.14,5.14,0,0,1,5.14-5.14h2.86a5.14,5.14,0,0,1,5.14,5.14h0Z" transform="translate(-52 -8)"/><path class="cls-35" d="M242.3,291H229.19v-2.1a5.13,5.13,0,0,1,5.13-5.14h2.86a5.14,5.14,0,0,1,5.14,5.14h0Z" transform="translate(-52 -8)"/></g><rect class="cls-9" x="150.2" y="158.55" width="40.41" height="29.86"/><path class="cls-3" d="M202.2,174.45s15.07,1.76,20.2,1.76,20.2-1.76,20.2-1.76V167H202.2Z" transform="translate(-52 -8)"/><path class="cls-36" d="M242.6,174s-15.07,1.76-20.2,1.76S202.2,174,202.2,174V144.59a20.2,20.2,0,0,1,20.2-20.2h0a20.2,20.2,0,0,1,20.2,20.2Z" transform="translate(-52 -8)"/><path class="cls-8" d="M217.57,114.29h9.65v11.88a3.93,3.93,0,0,1-3.93,3.93H221.5a3.93,3.93,0,0,1-3.93-3.93h0V114.29Z" transform="translate(-52 -8)"/><rect class="cls-9" x="150.2" y="177.87" width="14.49" height="98.38"/><rect class="cls-9" x="176.11" y="177.87" width="14.49" height="98.38"/><path class="cls-3" d="M217.57,121.61a20.19,20.19,0,0,0,9.65,0v-6.88h-9.65Z" transform="translate(-52 -8)"/><circle class="cls-37" cx="170.4" cy="88.72" r="21.08"/><circle class="cls-8" cx="222.4" cy="101.55" r="20.2" transform="translate(34.54 296.81) rotate(-80.78)"/><path class="cls-3" d="M210.16,91.42a9.13,9.13,0,0,0,3.57,1.07,31.38,31.38,0,0,0,15.33-1.72,7.53,7.53,0,0,0,4.84,4.09,21.87,21.87,0,0,0,6.47.71,2.39,2.39,0,0,0,1.39-.27c1-.66.5-2.14-.06-3.18L238.88,87a15,15,0,0,0-3-4.19A12.33,12.33,0,0,0,230,80.31a33,33,0,0,0-15.07.5C209.7,82.24,203,87.05,210.16,91.42Z" transform="translate(-52 -8)"/><path class="cls-37" d="M210.16,91a9.13,9.13,0,0,0,3.57,1.07,31.38,31.38,0,0,0,15.33-1.72,7.53,7.53,0,0,0,4.84,4.09,21.87,21.87,0,0,0,6.47.71,2.39,2.39,0,0,0,1.39-.27c1-.66.5-2.14-.06-3.18l-2.82-5.1a15,15,0,0,0-3-4.19A12.33,12.33,0,0,0,230,79.87a33,33,0,0,0-15.07.5C209.7,81.81,203,86.62,210.16,91Z" transform="translate(-52 -8)"/><ellipse class="cls-8" cx="190.38" cy="93.55" rx="1.76" ry="3.29"/><ellipse class="cls-8" cx="150.42" cy="93.55" rx="1.76" ry="3.29"/><circle class="cls-8" cx="224.42" cy="67.64" r="4.83"/><text class="cls-13" transform="translate(162.76 142.08)">00</text><path class="cls-37" d="M222.84,109.46s-11.43,4-20.2-4.84c0,0,.71,2.92,1.93,6.44a20.2,20.2,0,0,0,37.77-6.28C240.29,105.91,225.28,113.12,222.84,109.46Zm-.44,5.27c-2.18,0-4-1.67-4-2.64s1.79-.88,4-.88,4-.09,4,.88-1.76,2.64-3.94,2.64Z" transform="translate(-52 -8)"/><path class="cls-36" d="M233.14,127.48s23.53-13.19,38-51.84l7,4.39s-11.64,49.25-40.85,60.61Z" transform="translate(-52 -8)"/><circle class="cls-8" cx="116.38" cy="67.64" r="4.83"/><path class="cls-36" d="M211.65,127.48s-23.52-13.19-38-51.84l-7,4.39s11.64,49.25,40.85,60.61Z" transform="translate(-52 -8)"/><circle class="cls-38" cx="124.79" cy="169.57" r="1.43"/><circle class="cls-39" cx="124.79" cy="169.57" r="1.27"/><path class="cls-40" d="M175.83,177.94a1.28,1.28,0,0,1,1.29-1.26,1.32,1.32,0,0,1,.86.35,1.27,1.27,0,1,0-2.31,1.07,1.26,1.26,0,0,0,.27.38A1.27,1.27,0,0,1,175.83,177.94Z" transform="translate(-52 -8)"/><circle class="cls-41" cx="128.92" cy="169.57" r="1.43"/><circle class="cls-39" cx="128.92" cy="169.57" r="1.27"/><path class="cls-40" d="M180,177.94a1.27,1.27,0,0,1,1.28-1.26,1.3,1.3,0,0,1,.86.35,1.27,1.27,0,0,0-2.31,1.07,1.46,1.46,0,0,0,.27.38A1.26,1.26,0,0,1,180,177.94Z" transform="translate(-52 -8)"/><circle class="cls-42" cx="117.16" cy="169.57" r="1.43"/><circle class="cls-39" cx="117.16" cy="169.57" r="1.27"/><path class="cls-40" d="M168.2,177.94a1.28,1.28,0,0,1,1.29-1.26,1.32,1.32,0,0,1,.86.35,1.27,1.27,0,1,0-2,1.45A1.27,1.27,0,0,1,168.2,177.94Z" transform="translate(-52 -8)"/><circle class="cls-43" cx="122.56" cy="165.96" r="1.43"/><circle class="cls-39" cx="122.56" cy="165.96" r="1.27"/><path class="cls-40" d="M173.61,174.34a1.27,1.27,0,0,1,1.29-1.26,1.25,1.25,0,0,1,.85.35,1.27,1.27,0,0,0-2.31,1.06,1.21,1.21,0,0,0,.28.39A1.14,1.14,0,0,1,173.61,174.34Z" transform="translate(-52 -8)"/><circle class="cls-44" cx="130.98" cy="166.55" r="1.43"/><circle class="cls-39" cx="130.98" cy="166.55" r="1.27"/><path class="cls-40" d="M182,174.92a1.27,1.27,0,0,1,2.14-.91,1.27,1.27,0,1,0-2.3,1.07,1.1,1.1,0,0,0,.27.38A1.27,1.27,0,0,1,182,174.92Z" transform="translate(-52 -8)"/><circle class="cls-45" cx="128.92" cy="165.28" r="1.43"/><circle class="cls-39" cx="128.92" cy="165.28" r="1.27"/><path class="cls-40" d="M180,173.65a1.27,1.27,0,0,1,2.14-.91,1.27,1.27,0,0,0-2.31,1.06,1.36,1.36,0,0,0,.27.39A1.26,1.26,0,0,1,180,173.65Z" transform="translate(-52 -8)"/><circle class="cls-46" cx="129.92" cy="168.29" r="1.43"/><circle class="cls-39" cx="129.92" cy="168.29" r="1.27"/><path class="cls-40" d="M181,176.66a1.27,1.27,0,0,1,2.14-.91,1.26,1.26,0,0,0-1.69-.62,1.26,1.26,0,0,0-.34,2.07A1.27,1.27,0,0,1,181,176.66Z" transform="translate(-52 -8)"/><circle class="cls-47" cx="126.21" cy="165.96" r="1.43"/><circle class="cls-39" cx="126.21" cy="165.96" r="1.27"/><path class="cls-40" d="M177.26,174.34a1.27,1.27,0,0,1,1.29-1.26,1.25,1.25,0,0,1,.86.35,1.27,1.27,0,0,0-2.31,1.06,1.36,1.36,0,0,0,.27.39A1.45,1.45,0,0,1,177.26,174.34Z" transform="translate(-52 -8)"/><circle class="cls-48" cx="126.06" cy="161.94" r="1.43"/><circle class="cls-39" cx="126.06" cy="161.94" r="1.27"/><path class="cls-40" d="M177.1,170.31a1.28,1.28,0,0,1,1.29-1.26,1.3,1.3,0,0,1,.86.35,1.27,1.27,0,1,0-2,1.45A1.41,1.41,0,0,1,177.1,170.31Z" transform="translate(-52 -8)"/><circle class="cls-49" cx="133.1" cy="164.01" r="1.43"/><circle class="cls-39" cx="133.1" cy="164.01" r="1.27"/><path class="cls-40" d="M184.15,172.37a1.27,1.27,0,0,1,2.14-.91,1.26,1.26,0,0,0-1.69-.62,1.26,1.26,0,0,0-.34,2.07A1.24,1.24,0,0,1,184.15,172.37Z" transform="translate(-52 -8)"/><circle class="cls-50" cx="132.41" cy="166.71" r="1.43"/><circle class="cls-39" cx="132.41" cy="166.71" r="1.27"/><path class="cls-40" d="M183.46,175.08a1.27,1.27,0,0,1,2.14-.92,1.27,1.27,0,0,0-2.3,1.07,1.05,1.05,0,0,0,.27.39A1.27,1.27,0,0,1,183.46,175.08Z" transform="translate(-52 -8)"/><circle class="cls-51" cx="135.59" cy="166.18" r="1.43"/><circle class="cls-39" cx="135.59" cy="166.18" r="1.27"/><path class="cls-40" d="M186.63,174.55a1.27,1.27,0,0,1,2.15-.91,1.27,1.27,0,1,0-2,1.45A1.45,1.45,0,0,1,186.63,174.55Z" transform="translate(-52 -8)"/><circle class="cls-52" cx="134.16" cy="167.5" r="1.43"/><circle class="cls-39" cx="134.16" cy="167.5" r="1.27"/><path class="cls-40" d="M185.2,175.87a1.27,1.27,0,0,1,1.29-1.25,1.24,1.24,0,0,1,.86.34A1.27,1.27,0,1,0,185,176a1.46,1.46,0,0,0,.27.38A1.41,1.41,0,0,1,185.2,175.87Z" transform="translate(-52 -8)"/><circle class="cls-53" cx="124.63" cy="164.01" r="1.43"/><circle class="cls-39" cx="124.63" cy="164.01" r="1.27"/><path class="cls-40" d="M175.67,172.37a1.29,1.29,0,0,1,1.29-1.26,1.3,1.3,0,0,1,.86.35,1.27,1.27,0,1,0-2.31,1.07,1.46,1.46,0,0,0,.27.38A1.41,1.41,0,0,1,175.67,172.37Z" transform="translate(-52 -8)"/><circle class="cls-54" cx="122.56" cy="169.41" r="1.43"/><circle class="cls-55" cx="122.56" cy="169.41" r="1.27"/><path class="cls-40" d="M173.61,177.78a1.28,1.28,0,0,1,1.29-1.26,1.3,1.3,0,0,1,.85.35,1.26,1.26,0,0,0-1.69-.62,1.26,1.26,0,0,0-.34,2.07A1.12,1.12,0,0,1,173.61,177.78Z" transform="translate(-52 -8)"/><circle class="cls-56" cx="119.33" cy="169.57" r="1.43"/><circle class="cls-55" cx="119.33" cy="169.57" r="1.27"/><path class="cls-40" d="M170.38,177.94a1.27,1.27,0,0,1,1.28-1.26,1.3,1.3,0,0,1,.86.35,1.27,1.27,0,1,0-2.31,1.07,1.46,1.46,0,0,0,.27.38A1.26,1.26,0,0,1,170.38,177.94Z" transform="translate(-52 -8)"/><circle class="cls-57" cx="120.97" cy="168.67" r="1.43"/><circle class="cls-55" cx="120.97" cy="168.67" r="1.27"/><path class="cls-40" d="M172,177a1.27,1.27,0,0,1,1.29-1.26,1.25,1.25,0,0,1,.85.35,1.26,1.26,0,0,0-1.69-.62,1.26,1.26,0,0,0-.34,2.07A1.14,1.14,0,0,1,172,177Z" transform="translate(-52 -8)"/><circle class="cls-58" cx="127.97" cy="167.08" r="1.43"/><circle class="cls-55" cx="127.97" cy="167.08" r="1.27"/><path class="cls-40" d="M179,175.45a1.27,1.27,0,0,1,2.15-.91,1.27,1.27,0,1,0-2.31,1.07,1.26,1.26,0,0,0,.27.38A1.27,1.27,0,0,1,179,175.45Z" transform="translate(-52 -8)"/><circle class="cls-59" cx="127.97" cy="163.69" r="1.43"/><circle class="cls-55" cx="127.97" cy="163.69" r="1.27"/><path class="cls-40" d="M179,172.06a1.27,1.27,0,0,1,2.15-.91,1.27,1.27,0,0,0-1.69-.62,1.26,1.26,0,0,0-.62,1.68,1.19,1.19,0,0,0,.27.39A1.27,1.27,0,0,1,179,172.06Z" transform="translate(-52 -8)"/><circle class="cls-60" cx="129.55" cy="166.39" r="1.43"/><circle class="cls-55" cx="129.55" cy="166.39" r="1.27"/><path class="cls-40" d="M180.6,174.76a1.27,1.27,0,0,1,2.15-.91,1.27,1.27,0,1,0-2.31,1.07,1.26,1.26,0,0,0,.27.38A1.27,1.27,0,0,1,180.6,174.76Z" transform="translate(-52 -8)"/><circle class="cls-61" cx="128.12" cy="160.98" r="1.43"/><circle class="cls-55" cx="128.12" cy="160.98" r="1.27"/><path class="cls-40" d="M179.17,169.36a1.27,1.27,0,0,1,1.29-1.26,1.29,1.29,0,0,1,.85.34,1.27,1.27,0,1,0-2.31,1.07,1.08,1.08,0,0,0,.28.38A1.08,1.08,0,0,1,179.17,169.36Z" transform="translate(-52 -8)"/><circle class="cls-62" cx="128.44" cy="162.42" r="1.43"/><circle class="cls-55" cx="128.44" cy="162.42" r="1.27"/><path class="cls-40" d="M179.49,170.79a1.27,1.27,0,0,1,1.28-1.26,1.3,1.3,0,0,1,.86.35,1.27,1.27,0,1,0-2.31,1.07,1.46,1.46,0,0,0,.27.38A1.26,1.26,0,0,1,179.49,170.79Z" transform="translate(-52 -8)"/><circle class="cls-63" cx="130.14" cy="163.37" r="1.43"/><circle class="cls-55" cx="130.14" cy="163.37" r="1.27"/><path class="cls-40" d="M181.18,171.74a1.28,1.28,0,0,1,1.29-1.26,1.3,1.3,0,0,1,.86.35A1.27,1.27,0,0,0,181,171.9a1.46,1.46,0,0,0,.27.38A1.45,1.45,0,0,1,181.18,171.74Z" transform="translate(-52 -8)"/><circle class="cls-64" cx="131.89" cy="163.1" r="1.43"/><circle class="cls-55" cx="131.89" cy="163.1" r="1.27"/><path class="cls-40" d="M182.93,171.47a1.28,1.28,0,0,1,2.15-.91,1.29,1.29,0,0,0-1.67-.67,1.27,1.27,0,0,0-.67,1.67,1.12,1.12,0,0,0,.32.45A1.23,1.23,0,0,1,182.93,171.47Z" transform="translate(-52 -8)"/><circle class="cls-65" cx="131.41" cy="164.54" r="1.43"/><circle class="cls-55" cx="131.41" cy="164.54" r="1.27"/><path class="cls-40" d="M182.46,172.91a1.27,1.27,0,0,1,2.14-.91,1.27,1.27,0,0,0-2.31,1.06,1.36,1.36,0,0,0,.27.39A1.26,1.26,0,0,1,182.46,172.91Z" transform="translate(-52 -8)"/><circle class="cls-66" cx="125.42" cy="162.68" r="1.43"/><circle class="cls-55" cx="125.42" cy="162.68" r="1.27"/><path class="cls-40" d="M176.47,171.05a1.26,1.26,0,0,1,1.28-1.25,1.24,1.24,0,0,1,.86.34,1.27,1.27,0,0,0-2.31,1.07,1.46,1.46,0,0,0,.27.38A1.24,1.24,0,0,1,176.47,171.05Z" transform="translate(-52 -8)"/><circle class="cls-67" cx="121.29" cy="167.03" r="1.43"/><circle class="cls-55" cx="121.29" cy="167.03" r="1.27"/><path class="cls-40" d="M172.34,175.39a1.27,1.27,0,0,1,1.29-1.25,1.22,1.22,0,0,1,.85.34,1.27,1.27,0,1,0-2.3,1.07,1.1,1.1,0,0,0,.27.38A1.24,1.24,0,0,1,172.34,175.39Z" transform="translate(-52 -8)"/><circle class="cls-68" cx="123.78" cy="164.64" r="1.43"/><circle class="cls-55" cx="123.78" cy="164.64" r="1.27"/><path class="cls-40" d="M174.84,173a1.29,1.29,0,0,1,1.29-1.26,1.32,1.32,0,0,1,.86.35,1.27,1.27,0,1,0-2.31,1.07,1.26,1.26,0,0,0,.27.38A1.24,1.24,0,0,1,174.84,173Z" transform="translate(-52 -8)"/><circle class="cls-69" cx="118.69" cy="168.72" r="1.43"/><circle class="cls-55" cx="118.69" cy="168.72" r="1.27"/><path class="cls-40" d="M169.74,177.09a1.28,1.28,0,0,1,1.29-1.26,1.3,1.3,0,0,1,.85.35,1.27,1.27,0,1,0-2.31,1.07,1.29,1.29,0,0,0,.28.38A1.12,1.12,0,0,1,169.74,177.09Z" transform="translate(-52 -8)"/><circle class="cls-70" cx="132.41" cy="167.61" r="1.43"/><circle class="cls-55" cx="132.41" cy="167.61" r="1.27"/><path class="cls-40" d="M183.46,176a1.27,1.27,0,0,1,1.29-1.26,1.23,1.23,0,0,1,.85.35,1.27,1.27,0,1,0-2.3,1.06,1.05,1.05,0,0,0,.27.39A1.27,1.27,0,0,1,183.46,176Z" transform="translate(-52 -8)"/><circle class="cls-71" cx="126" cy="159.55" r="1.43"/><circle class="cls-55" cx="126" cy="159.55" r="1.27"/><path class="cls-40" d="M177.05,167.93a1.27,1.27,0,0,1,1.29-1.26,1.23,1.23,0,0,1,.85.35,1.27,1.27,0,1,0-2.3,1.06,1.05,1.05,0,0,0,.27.39A1.27,1.27,0,0,1,177.05,167.93Z" transform="translate(-52 -8)"/><circle class="cls-72" cx="123.41" cy="162.84" r="1.43"/><circle class="cls-55" cx="123.41" cy="162.84" r="1.27"/><path class="cls-40" d="M174.46,171.21a1.27,1.27,0,0,1,1.28-1.26,1.3,1.3,0,0,1,.86.35,1.27,1.27,0,1,0-2.31,1.07,1.46,1.46,0,0,0,.27.38A1.24,1.24,0,0,1,174.46,171.21Z" transform="translate(-52 -8)"/><circle class="cls-73" cx="121.34" cy="165.28" r="1.43"/><circle class="cls-55" cx="121.34" cy="165.28" r="1.27"/><path class="cls-40" d="M172.39,173.65a1.27,1.27,0,0,1,1.29-1.26,1.23,1.23,0,0,1,.85.35,1.27,1.27,0,1,0-2.3,1.06,1.05,1.05,0,0,0,.27.39A1.27,1.27,0,0,1,172.39,173.65Z" transform="translate(-52 -8)"/><circle class="cls-74" cx="122.83" cy="167.98" r="1.43"/><circle class="cls-55" cx="122.83" cy="167.98" r="1.27"/><path class="cls-40" d="M173.87,176.35a1.27,1.27,0,0,1,2.15-.91,1.27,1.27,0,1,0-2,1.45A1.45,1.45,0,0,1,173.87,176.35Z" transform="translate(-52 -8)"/><circle class="cls-75" cx="124.84" cy="166.18" r="1.43"/><circle class="cls-55" cx="124.84" cy="166.18" r="1.27"/><path class="cls-40" d="M175.88,174.55a1.27,1.27,0,0,1,1.29-1.26,1.25,1.25,0,0,1,.86.35,1.27,1.27,0,1,0-2.31,1.07,1.46,1.46,0,0,0,.27.38A1.45,1.45,0,0,1,175.88,174.55Z" transform="translate(-52 -8)"/><circle class="cls-76" cx="125.9" cy="167.98" r="1.43"/><circle class="cls-55" cx="125.9" cy="167.98" r="1.27"/><path class="cls-40" d="M177,176.35a1.27,1.27,0,0,1,2.14-.91,1.27,1.27,0,1,0-2.31,1.07,1.46,1.46,0,0,0,.27.38A1.26,1.26,0,0,1,177,176.35Z" transform="translate(-52 -8)"/><circle class="cls-77" cx="136.86" cy="169.57" r="1.43"/><circle class="cls-55" cx="136.86" cy="169.57" r="1.27"/><path class="cls-40" d="M187.91,177.94a1.28,1.28,0,0,1,1.29-1.26,1.32,1.32,0,0,1,.86.35,1.27,1.27,0,1,0-2.31,1.07,1.26,1.26,0,0,0,.27.38A1.27,1.27,0,0,1,187.91,177.94Z" transform="translate(-52 -8)"/><circle class="cls-78" cx="134.85" cy="169.25" r="1.43"/><circle class="cls-55" cx="134.85" cy="169.25" r="1.27"/><path class="cls-40" d="M185.9,177.62a1.27,1.27,0,0,1,1.28-1.26,1.3,1.3,0,0,1,.86.35,1.27,1.27,0,1,0-2.31,1.07,1.46,1.46,0,0,0,.27.38A1.24,1.24,0,0,1,185.9,177.62Z" transform="translate(-52 -8)"/><circle class="cls-79" cx="130.98" cy="169.41" r="1.43"/><circle class="cls-55" cx="130.98" cy="169.41" r="1.27"/><circle class="cls-55" cx="131.25" cy="167.93" r="1.27"/><path class="cls-40" d="M182,177.78a1.27,1.27,0,0,1,2.14-.91,1.27,1.27,0,1,0-2.3,1.07,1.1,1.1,0,0,0,.27.38A1.24,1.24,0,0,1,182,177.78Z" transform="translate(-52 -8)"/><circle class="cls-80" cx="126.69" cy="169.57" r="1.43"/><circle class="cls-55" cx="126.69" cy="169.57" r="1.27"/><path class="cls-40" d="M177.74,177.94a1.27,1.27,0,0,1,2.14-.91,1.26,1.26,0,0,0-1.69-.62,1.26,1.26,0,0,0-.34,2.07A1.27,1.27,0,0,1,177.74,177.94Z" transform="translate(-52 -8)"/><circle class="cls-81" cx="126.27" cy="163.85" r="1.43"/><circle class="cls-39" cx="126.27" cy="163.85" r="1.27"/><path class="cls-40" d="M177.31,172.22A1.28,1.28,0,0,1,178.6,171a1.25,1.25,0,0,1,.86.35,1.27,1.27,0,1,0-2.31,1.07,1.46,1.46,0,0,0,.27.38A1.45,1.45,0,0,1,177.31,172.22Z" transform="translate(-52 -8)"/><circle class="cls-82" cx="127.7" cy="165.65" r="1.43"/><circle class="cls-39" cx="127.7" cy="165.65" r="1.27"/><path class="cls-40" d="M178.75,174a1.27,1.27,0,0,1,1.28-1.26,1.3,1.3,0,0,1,.86.35,1.27,1.27,0,1,0-2.31,1.07,1.46,1.46,0,0,0,.27.38A1.26,1.26,0,0,1,178.75,174Z" transform="translate(-52 -8)"/><circle class="cls-83" cx="125.31" cy="161.25" r="1.43"/><circle class="cls-39" cx="125.31" cy="161.25" r="1.27"/><path class="cls-40" d="M176.36,169.62a1.28,1.28,0,0,1,1.29-1.26,1.3,1.3,0,0,1,.86.35,1.27,1.27,0,1,0-2.31,1.07,1.46,1.46,0,0,0,.27.38A1.41,1.41,0,0,1,176.36,169.62Z" transform="translate(-52 -8)"/><circle class="cls-84" cx="126.9" cy="161.41" r="1.43"/><circle class="cls-39" cx="126.9" cy="161.41" r="1.27"/><path class="cls-40" d="M178,169.78a1.27,1.27,0,0,1,2.14-.91,1.27,1.27,0,1,0-2.3,1.07,1.1,1.1,0,0,0,.27.38A1.24,1.24,0,0,1,178,169.78Z" transform="translate(-52 -8)"/><circle class="cls-85" cx="129.55" cy="162.15" r="1.43"/><circle class="cls-39" cx="129.55" cy="162.15" r="1.27"/><path class="cls-40" d="M180.6,170.52a1.29,1.29,0,0,1,1.29-1.26,1.32,1.32,0,0,1,.86.35,1.27,1.27,0,1,0-2.31,1.07,1.26,1.26,0,0,0,.27.38A1.24,1.24,0,0,1,180.6,170.52Z" transform="translate(-52 -8)"/><circle class="cls-86" cx="122.4" cy="164.48" r="1.43"/><circle class="cls-39" cx="122.4" cy="164.48" r="1.27"/><path class="cls-40" d="M173.45,172.85a1.27,1.27,0,0,1,1.29-1.25,1.24,1.24,0,0,1,.85.34,1.27,1.27,0,1,0-2.31,1.07,1.29,1.29,0,0,0,.28.38A1.12,1.12,0,0,1,173.45,172.85Z" transform="translate(-52 -8)"/><circle class="cls-87" cx="123.41" cy="166.34" r="1.43"/><circle class="cls-39" cx="123.41" cy="166.34" r="1.27"/><path class="cls-40" d="M174.46,174.71a1.27,1.27,0,0,1,2.14-.91,1.27,1.27,0,1,0-2.31,1.07,1.46,1.46,0,0,0,.27.38A1.26,1.26,0,0,1,174.46,174.71Z" transform="translate(-52 -8)"/><circle class="cls-88" cx="124.1" cy="168.51" r="1.43"/><circle class="cls-39" cx="124.1" cy="168.51" r="1.27"/><path class="cls-40" d="M175.15,176.88a1.27,1.27,0,0,1,1.28-1.26,1.3,1.3,0,0,1,.86.35A1.27,1.27,0,1,0,175,177a1.46,1.46,0,0,0,.27.38A1.24,1.24,0,0,1,175.15,176.88Z" transform="translate(-52 -8)"/><circle class="cls-89" cx="128.12" cy="167.82" r="1.43"/><circle class="cls-39" cx="128.12" cy="167.82" r="1.27"/><path class="cls-40" d="M179.17,176.19a1.28,1.28,0,0,1,1.29-1.26,1.3,1.3,0,0,1,.85.35,1.26,1.26,0,0,0-1.69-.62,1.26,1.26,0,0,0-.34,2.07A1.12,1.12,0,0,1,179.17,176.19Z" transform="translate(-52 -8)"/><circle class="cls-90" cx="132.26" cy="166.55" r="1.43"/><circle class="cls-39" cx="132.26" cy="166.55" r="1.27"/><path class="cls-40" d="M183.3,174.92a1.28,1.28,0,0,1,1.29-1.26,1.32,1.32,0,0,1,.86.35,1.27,1.27,0,1,0-2,1.45A1.45,1.45,0,0,1,183.3,174.92Z" transform="translate(-52 -8)"/><circle class="cls-91" cx="133.58" cy="165.44" r="1.43"/><circle class="cls-39" cx="133.58" cy="165.44" r="1.27"/><circle class="cls-39" cx="130.35" cy="165.33" r="1.27"/><path class="cls-40" d="M184.62,173.8a1.29,1.29,0,0,1,1.29-1.26,1.3,1.3,0,0,1,.86.35,1.27,1.27,0,1,0-2.31,1.07,1.46,1.46,0,0,0,.27.38A1.41,1.41,0,0,1,184.62,173.8Z" transform="translate(-52 -8)"/><circle class="cls-92" cx="135.64" cy="167.98" r="1.43"/><circle class="cls-39" cx="135.64" cy="167.98" r="1.27"/><path class="cls-40" d="M186.69,176.35a1.28,1.28,0,0,1,1.29-1.26,1.25,1.25,0,0,1,.86.35,1.27,1.27,0,1,0-2.31,1.07,1.46,1.46,0,0,0,.27.38A1.45,1.45,0,0,1,186.69,176.35Z" transform="translate(-52 -8)"/><circle class="cls-93" cx="128.97" cy="169.73" r="1.43"/><circle class="cls-39" cx="128.97" cy="169.73" r="1.27"/><path class="cls-40" d="M180,178.09a1.27,1.27,0,0,1,1.29-1.26,1.3,1.3,0,0,1,.85.35,1.26,1.26,0,0,0-1.69-.62,1.26,1.26,0,0,0-.34,2.07A1.14,1.14,0,0,1,180,178.09Z" transform="translate(-52 -8)"/><circle class="cls-94" cx="121.61" cy="169.09" r="1.43"/><circle class="cls-39" cx="121.61" cy="169.09" r="1.27"/><path class="cls-40" d="M172.65,177.46a1.27,1.27,0,0,1,1.29-1.25,1.24,1.24,0,0,1,.86.34,1.27,1.27,0,1,0-2.31,1.07,1.46,1.46,0,0,0,.27.38A1.41,1.41,0,0,1,172.65,177.46Z" transform="translate(-52 -8)"/><circle class="cls-95" cx="119.54" cy="167.24" r="1.43"/><circle class="cls-39" cx="119.54" cy="167.24" r="1.27"/><path class="cls-40" d="M170.59,175.61a1.27,1.27,0,0,1,2.14-.91,1.26,1.26,0,0,0-1.69-.62,1.26,1.26,0,0,0-.34,2.07A1.27,1.27,0,0,1,170.59,175.61Z" transform="translate(-52 -8)"/><circle class="cls-96" cx="122.24" cy="166.34" r="1.43"/><circle class="cls-39" cx="122.24" cy="166.34" r="1.27"/><path class="cls-40" d="M173.29,174.71a1.28,1.28,0,0,1,1.29-1.26,1.23,1.23,0,0,1,.85.35,1.27,1.27,0,1,0-2.35,1,1.29,1.29,0,0,0,.33.47A1.32,1.32,0,0,1,173.29,174.71Z" transform="translate(-52 -8)"/><circle class="cls-97" cx="120.76" cy="164.16" r="1.43"/><circle class="cls-39" cx="120.76" cy="164.16" r="1.27"/><path class="cls-40" d="M171.81,172.54a1.27,1.27,0,0,1,1.28-1.26,1.29,1.29,0,0,1,.86.34,1.27,1.27,0,1,0-2.31,1.07,1.21,1.21,0,0,0,.28.39A1.14,1.14,0,0,1,171.81,172.54Z" transform="translate(-52 -8)"/><circle class="cls-98" cx="122.03" cy="162.15" r="1.43"/><circle class="cls-39" cx="122.03" cy="162.15" r="1.27"/><path class="cls-40" d="M173.08,170.52a1.27,1.27,0,0,1,1.28-1.26,1.3,1.3,0,0,1,.86.35,1.27,1.27,0,1,0-2.31,1.07,1.46,1.46,0,0,0,.27.38A1.24,1.24,0,0,1,173.08,170.52Z" transform="translate(-52 -8)"/><circle class="cls-99" cx="133.1" cy="169.57" r="1.43"/><circle class="cls-39" cx="133.1" cy="169.57" r="1.27"/><path class="cls-40" d="M184.15,177.94a1.27,1.27,0,0,1,2.14-.91,1.26,1.26,0,0,0-1.69-.62,1.26,1.26,0,0,0-.34,2.07A1.27,1.27,0,0,1,184.15,177.94Z" transform="translate(-52 -8)"/><polygon class="cls-100" points="135.08 193.2 119.26 193.2 115.25 169.57 139.14 169.57 135.08 193.2"/><polygon class="cls-101" points="134.85 192.88 119.59 192.88 115.73 169.94 138.77 169.94 134.85 192.88"/><polygon class="cls-36" points="115.73 169.94 119.65 169.94 123.36 192.88 119.54 192.88 115.73 169.94"/><polygon class="cls-36" points="138.77 169.94 134.8 169.94 130.99 192.88 134.85 192.88 138.77 169.94"/><rect class="cls-36" x="125.26" y="169.94" width="3.81" height="22.94"/><circle class="cls-102" cx="120.02" cy="165.65" r="1.43"/><circle class="cls-55" cx="120.02" cy="165.65" r="1.27"/><path class="cls-40" d="M171.06,174a1.28,1.28,0,0,1,1.29-1.26,1.3,1.3,0,0,1,.86.35,1.27,1.27,0,1,0-2.31,1.07,1.46,1.46,0,0,0,.27.38A1.45,1.45,0,0,1,171.06,174Z" transform="translate(-52 -8)"/><circle class="cls-103" cx="123.62" cy="161.62" r="1.43"/><circle class="cls-55" cx="123.62" cy="161.62" r="1.27"/><path class="cls-40" d="M174.67,170a1.27,1.27,0,0,1,1.28-1.26,1.3,1.3,0,0,1,.86.35,1.27,1.27,0,1,0-2.31,1.07,1.46,1.46,0,0,0,.27.38A1.24,1.24,0,0,1,174.67,170Z" transform="translate(-52 -8)"/><circle class="cls-104" cx="118.59" cy="167.82" r="1.43"/><circle class="cls-55" cx="118.59" cy="167.82" r="1.27"/><path class="cls-40" d="M169.64,176.19a1.27,1.27,0,0,1,1.28-1.26,1.3,1.3,0,0,1,.86.35,1.27,1.27,0,1,0-2.31,1.07,1.46,1.46,0,0,0,.27.38A1.24,1.24,0,0,1,169.64,176.19Z" transform="translate(-52 -8)"/><circle class="cls-105" cx="116.87" cy="158.1" r="1.43"/><circle class="cls-55" cx="116.87" cy="158.1" r="1.27"/><path class="cls-40" d="M167.92,166.47a1.27,1.27,0,0,1,2.14-.91,1.27,1.27,0,1,0-2.34,1,1.29,1.29,0,0,0,.33.46A1.26,1.26,0,0,1,167.92,166.47Z" transform="translate(-52 -8)"/><circle class="cls-106" cx="122.89" cy="149.91" r="1.43"/><circle class="cls-55" cx="122.89" cy="149.91" r="1.27"/><path class="cls-40" d="M173.94,158.28a1.27,1.27,0,0,1,1.28-1.26,1.29,1.29,0,0,1,.86.34,1.27,1.27,0,0,0-2.31,1.07,1.19,1.19,0,0,0,.27.38A1.22,1.22,0,0,1,173.94,158.28Z" transform="translate(-52 -8)"/><circle class="cls-107" cx="128.08" cy="143.68" r="1.43"/><circle class="cls-39" cx="128.08" cy="143.68" r="1.27"/><path class="cls-40" d="M179.13,152.05a1.27,1.27,0,0,1,2.14-.91,1.26,1.26,0,0,0-1.69-.62,1.26,1.26,0,0,0-.34,2.07A1.24,1.24,0,0,1,179.13,152.05Z" transform="translate(-52 -8)"/><circle class="cls-108" cx="138.15" cy="157.06" r="1.43"/><circle class="cls-39" cx="138.15" cy="157.06" r="1.27"/><path class="cls-40" d="M189.19,165.44a1.27,1.27,0,0,1,1.29-1.26,1.31,1.31,0,0,1,.86.34,1.29,1.29,0,0,0-1.69-.62,1.27,1.27,0,0,0-.62,1.69,1.19,1.19,0,0,0,.27.39A1.27,1.27,0,0,1,189.19,165.44Z" transform="translate(-52 -8)"/><circle class="cls-109" cx="146.13" cy="167.23" r="1.43"/><circle class="cls-39" cx="146.13" cy="167.23" r="1.27"/><path class="cls-40" d="M197.18,175.59a1.27,1.27,0,0,1,1.29-1.26,1.23,1.23,0,0,1,.85.35,1.27,1.27,0,1,0-2.3,1.06,1.05,1.05,0,0,0,.27.39A1.27,1.27,0,0,1,197.18,175.59Z" transform="translate(-52 -8)"/><circle class="cls-110" cx="116.46" cy="192.03" r="1.43"/><circle class="cls-55" cx="116.46" cy="192.03" r="1.27"/><path class="cls-40" d="M167.51,200.4a1.26,1.26,0,0,1,1.28-1.25,1.24,1.24,0,0,1,.86.34,1.27,1.27,0,1,0-2.31,1.07,1.46,1.46,0,0,0,.27.38A1.24,1.24,0,0,1,167.51,200.4Z" transform="translate(-52 -8)"/><circle class="cls-111" cx="114.49" cy="189.44" r="1.43"/><circle class="cls-39" cx="114.49" cy="189.44" r="1.27"/><path class="cls-40" d="M165.55,197.81a1.28,1.28,0,0,1,1.29-1.26,1.32,1.32,0,0,1,.86.35,1.27,1.27,0,1,0-2.31,1.07,1.26,1.26,0,0,0,.27.38A1.27,1.27,0,0,1,165.55,197.81Z" transform="translate(-52 -8)"/><circle class="cls-112" cx="113.24" cy="175.43" r="1.43"/><circle class="cls-55" cx="113.24" cy="175.43" r="1.27"/><path class="cls-40" d="M164.29,183.81a1.27,1.27,0,0,1,2.14-.92,1.27,1.27,0,1,0-2.3,1.07.94.94,0,0,0,.27.38A1.2,1.2,0,0,1,164.29,183.81Z" transform="translate(-52 -8)"/><circle class="cls-113" cx="140.22" cy="190.89" r="1.43"/><circle class="cls-55" cx="140.22" cy="190.89" r="1.27"/><path class="cls-40" d="M191.28,199.26a1.27,1.27,0,0,1,1.29-1.26,1.3,1.3,0,0,1,.85.35,1.26,1.26,0,0,0-1.69-.62,1.26,1.26,0,0,0-.34,2.07A1.14,1.14,0,0,1,191.28,199.26Z" transform="translate(-52 -8)"/><circle class="cls-114" cx="142.81" cy="189.23" r="1.43"/><circle class="cls-55" cx="142.81" cy="189.23" r="1.27"/><path class="cls-40" d="M193.86,197.6a1.28,1.28,0,0,1,1.28-1.26,1.3,1.3,0,0,1,.86.35,1.27,1.27,0,1,0-2.31,1.07,1.29,1.29,0,0,0,.28.38A1.12,1.12,0,0,1,193.86,197.6Z" transform="translate(-52 -8)"/><circle class="cls-115" cx="143.12" cy="191.2" r="1.43"/><circle class="cls-39" cx="143.12" cy="191.2" r="1.27"/><path class="cls-40" d="M194.17,199.57a1.28,1.28,0,0,1,2.15-.91,1.27,1.27,0,1,0-2.31,1.07,1.26,1.26,0,0,0,.27.38A1.24,1.24,0,0,1,194.17,199.57Z" transform="translate(-52 -8)"/><circle class="cls-116" cx="137.73" cy="191.2" r="1.43"/><circle class="cls-39" cx="137.73" cy="191.2" r="1.27"/><path class="cls-40" d="M188.78,199.57a1.26,1.26,0,0,1,1.28-1.25,1.24,1.24,0,0,1,.86.34,1.27,1.27,0,1,0-2.31,1.07,1.46,1.46,0,0,0,.27.38A1.24,1.24,0,0,1,188.78,199.57Z" transform="translate(-52 -8)"/><text class="cls-117" transform="translate(237.56 168.95)">9</text><g class="cls-6"><path class="cls-118" d="M336.58,146.37a206,206,0,0,0-22.67-16.63,22.68,22.68,0,0,0,.72-3.06h.05c1.05,0,1.9-1.59,1.9-3.57a5,5,0,0,0-.81-2.91c.07-.75.11-1.51.11-2.28a23.22,23.22,0,0,0-.71-5.69,7.87,7.87,0,0,0,.39-2.1,6.48,6.48,0,0,1,.2-1.7,6.7,6.7,0,0,1,.85-1.47,9.23,9.23,0,0,0,.83-8.37,3.63,3.63,0,0,0-2-2.22,2.24,2.24,0,0,1-.71-.3,1.23,1.23,0,0,1-.36-.94c-.06-1.18.28-2.35.32-3.53a3.36,3.36,0,0,0-1.35-3.1,3.86,3.86,0,0,0-2-.36,19.76,19.76,0,0,0-4.39.61c-2.25.59-4.77,1.56-6.75.36a15.24,15.24,0,0,1-1.53-1.23A6.48,6.48,0,0,0,289.87,89c-1,1.32-1.51,3.08-2.91,4-2.55,1.6-6.41-.72-8.76,1.2-1.77,1.43-1.45,4.28-2.86,6.07s-3.3,2.57-3.48,5.19a3.85,3.85,0,0,0,.71,2.71,22.61,22.61,0,0,0-2.21,9.8c0,.77,0,1.53.11,2.28a5,5,0,0,0-.82,2.94c0,2,.85,3.57,1.9,3.57h.05a22.09,22.09,0,0,0,.78,3.21A207.64,207.64,0,0,0,250,146.42c2.37,14.22,21.34,23.22,21.34,23.22V198.1l-3.21.58a7.86,7.86,0,0,0-6.28,9.16l11.69,62.66a2.39,2.39,0,0,0,2.78,1.9l2.12-.4v1.13c-2.24,1.08-3.79,1.58-3.79,4.23v1h13.75v-1c0-2.45-1.33-2.84-3.32-4v-2.63l1.95-.35a2.38,2.38,0,0,0,1.9-2.78L278,209h30.33l-11,58.67a2.37,2.37,0,0,0,1.9,2.77l1.94.36v2.63c-2,1.14-3.32,1.52-3.32,4v1h13.75v-1c0-2.64-1.55-3.16-3.79-4.22V272l2.12.42a2.38,2.38,0,0,0,2.78-1.9l11.84-63.45a7.08,7.08,0,0,0-5.65-8.26h0l-4-.71V168.93l.33.69S334.2,160.58,336.58,146.37Zm-69.07,2.86L280,140.57a21.56,21.56,0,0,0,7.91,3.76v4.1A21.84,21.84,0,0,0,279,153Zm30.83-.8v-4.11a21.69,21.69,0,0,0,8.05-3.87L319,149.22,307.52,153l.2.44A21.77,21.77,0,0,0,298.34,148.43Z" transform="translate(-52 -8)"/></g><rect class="cls-8" x="227.11" y="255.41" width="6.33" height="8.59"/><rect class="cls-8" x="248.82" y="255.41" width="6.33" height="8.59"/><rect class="cls-9" x="220.32" y="184.85" width="41.61" height="14.93"/><g class="cls-10"><rect x="220.32" y="184.85" width="41.61" height="14.93"/></g><path class="cls-3" d="M272.32,195.57s15.53,3.6,20.79,3.6,20.81-3.62,20.81-3.62v-2.26h-41.6Z" transform="translate(-52 -8)"/><path class="cls-119" d="M313.93,195.11s-15.52,3.62-20.82,3.62-20.8-3.62-20.8-3.62V170.23a20.79,20.79,0,0,1,20.8-20.79h0a20.8,20.8,0,0,1,20.82,20.79h0Z" transform="translate(-52 -8)"/><path class="cls-8" d="M288.15,139h10v12.35a3.92,3.92,0,0,1-3.93,3.93h-2.09a3.93,3.93,0,0,1-3.93-3.93V139Z" transform="translate(-52 -8)"/><path class="cls-9" d="M287.71,266.3l-11,2.06a1.85,1.85,0,0,1-2.15-1.47L263,205.34a6.1,6.1,0,0,1,4.87-7.12h0l6.86-1.28a1.86,1.86,0,0,1,2.15,1.48l12.27,65.74A1.85,1.85,0,0,1,287.71,266.3Z" transform="translate(-52 -8)"/><path class="cls-9" d="M298.55,266.3l11,2.06a1.84,1.84,0,0,0,2.14-1.47l11.6-62.15a5.48,5.48,0,0,0-4.38-6.4L311.48,197a1.85,1.85,0,0,0-2.14,1.47l-12.27,65.75A1.83,1.83,0,0,0,298.55,266.3Z" transform="translate(-52 -8)"/><path class="cls-3" d="M288.15,146.57a20.93,20.93,0,0,0,10,0V139.5h-10Z" transform="translate(-52 -8)"/><circle class="cls-120" cx="241.13" cy="112.94" r="21.71"/><circle class="cls-8" cx="241.13" cy="117.92" r="20.81"/><ellipse class="cls-8" cx="261.71" cy="117.92" rx="1.81" ry="3.39"/><ellipse class="cls-8" cx="220.55" cy="117.92" rx="1.81" ry="3.39"/><path class="cls-12" d="M280.62,268.39h2.86a5.14,5.14,0,0,1,5.14,5.13h0v2.12H275.49v-2.11a5.12,5.12,0,0,1,5.12-5.14Z" transform="translate(-52 -8)"/><path class="cls-12" d="M302.79,268.39h2.85a5.14,5.14,0,0,1,5.14,5.13h0v2.12H297.65v-2.11a5.13,5.13,0,0,1,5.12-5.14Z" transform="translate(-52 -8)"/><text class="cls-121" transform="translate(237.74 169.25)">9</text><path class="cls-3" d="M274.13,114.61s-.9,5.88,4.07,2.71,22.16-1.81,27.59,2.71,7.24.91,8.14,0-9.79-16-15.83-17.19C281.82,99.68,274.13,114.61,274.13,114.61Z" transform="translate(-52 -8)"/><path class="cls-120" d="M274.13,114.16s-.9,5.88,4.07,2.71,22.16-1.81,27.59,2.71,7.24.91,8.14,0-9.79-16-15.83-17.19C281.82,99.23,274.13,114.16,274.13,114.16Z" transform="translate(-52 -8)"/><path class="cls-120" d="M276.18,104.06c1.36-1.68,1.07-4.42,2.74-5.78,2.24-1.81,5.91.39,8.35-1.15,1.33-.83,1.82-2.5,2.77-3.76a6.18,6.18,0,0,1,8.41-1.1,16.26,16.26,0,0,0,1.46,1.17c1.9,1.16,4.29.23,6.43-.33a18.47,18.47,0,0,1,4.19-.57,3.64,3.64,0,0,1,1.92.35,3.19,3.19,0,0,1,1.28,3c0,1.13-.35,2.25-.3,3.37a1.19,1.19,0,0,0,.33.9,1.83,1.83,0,0,0,.66.28,3.44,3.44,0,0,1,1.88,2.13,8.78,8.78,0,0,1-.78,8,6.3,6.3,0,0,0-.81,1.4,6,6,0,0,0-.2,1.62c-.1,1.93-.92,4-2.67,4.82-2.25,1-4.8-.4-7-1.51-5.05-2.5-10.75-3.38-16.36-4a64.11,64.11,0,0,0-7.58-.45c-1.88,0-4.43.83-6.23.06a3.19,3.19,0,0,1-1.81-3.45C273,106.51,274.79,105.79,276.18,104.06Z" transform="translate(-52 -8)"/><path class="cls-119" d="M279.69,154.37l-11-3.58,22.16-15.36-6.79-9.5A212.4,212.4,0,0,0,252,148.08c2.26,13.58,20.36,22.16,20.36,22.16Z" transform="translate(-52 -8)"/><path class="cls-119" d="M306.86,154.37l11-3.58-22.15-15.36,6.78-9.5a212.77,212.77,0,0,1,32.12,22.15c-2.27,13.58-20.37,22.16-20.37,22.16Z" transform="translate(-52 -8)"/><path class="cls-3" d="M284.54,126.37s11.3-8.14,14-3.17-7.23,12.66-7.23,12.66Z" transform="translate(-52 -8)"/><path class="cls-8" d="M284.08,125.92s11.31-8.14,14-3.17-7.23,12.67-7.23,12.67Z" transform="translate(-52 -8)"/><path class="cls-122" d="M284.08,125.92s11.31-8.14,14-3.17-7.23,12.67-7.23,12.67Z" transform="translate(-52 -8)"/><path class="cls-3" d="M301.72,126.37s-11.3-8.14-14-3.17,7.24,12.66,7.24,12.66Z" transform="translate(-52 -8)"/><path class="cls-8" d="M302.17,125.92s-11.3-8.14-14-3.17,7.24,12.67,7.24,12.67Z" transform="translate(-52 -8)"/><path class="cls-122" d="M302.17,125.92s-11.3-8.14-14-3.17,7.24,12.67,7.24,12.67Z" transform="translate(-52 -8)"/><g id="f6e51fcf-3a26-4c81-b90c-a65f1d2dd7ad"><path class="cls-123" d="M270,159.41l-.89-2.15-9.51,3.91a1.18,1.18,0,0,0-.72,1.07v10.27l2.75.32V163Z" transform="translate(-52 -8)"/></g><path class="cls-124" d="M269.5,159.36l-.68-1.62-8.9,3.66a1.1,1.1,0,0,0-.68,1V172H261v-9.16Z" transform="translate(-52 -8)"/><g class="cls-125"><rect class="cls-36" x="214.44" y="147.97" width="1.92" height="6.07"/><rect class="cls-36" x="211.4" y="149.25" width="1.92" height="6.07"/><polygon class="cls-36" points="210.37 154.44 209.01 154.84 208.45 148.37 210.37 148.37 210.37 154.44"/><rect class="cls-36" x="205.41" y="155.16" width="6.07" height="1.92"/><rect class="cls-36" x="205.41" y="157.8" width="6.07" height="1.92"/><rect class="cls-36" x="205.41" y="160.43" width="6.07" height="1.92"/></g><polygon class="cls-126" points="219.15 162.35 197.83 162.35 197.83 165.71 199.28 165.71 202.25 192.94 214.99 192.94 217.62 165.55 219.15 165.55 219.15 162.35"/><polygon class="cls-36" points="214.44 192.38 202.7 192.38 199.82 163.63 216.99 163.63 214.44 192.38"/><rect class="cls-36" x="198.62" y="163.15" width="19.65" height="1.92"/><circle class="cls-127" cx="208.45" cy="176.41" r="4.87"/><circle class="cls-101" cx="208.45" cy="176.41" r="4.47"/><g class="cls-6"><path class="cls-128" d="M311.05,45.64a4.79,4.79,0,0,0-4.36-.12l.19-.35a4.79,4.79,0,0,0-1.93-6.5h0a4.79,4.79,0,0,0-6.48,1.95l-1.63,3h0l3.37-6.22a4.34,4.34,0,0,0-1.74-5.88h0l-.8-.43a4.32,4.32,0,0,0-5.88,1.74h0l7.91-14.58a6.92,6.92,0,0,0-2.78-9.38h0l-.53-.29a4.79,4.79,0,0,0-6.5,1.9v0l-12.3,22.66h0l-19.16,35.3,18.65,10.12A18.94,18.94,0,0,0,302.75,71v0l6.86-12.64h0L313,52.13a4.79,4.79,0,0,0-1.94-6.49Z" transform="translate(-52 -8)"/></g><path class="cls-36" d="M280.38,78.94,259.45,67.57h0l18.42-33.95h0l34,18.44h0L300.5,73a14.83,14.83,0,0,1-20.11,6Z" transform="translate(-52 -8)"/><path class="cls-36" d="M308.72,57.83l-8.11-4.4h0l3.66-6.74a3.75,3.75,0,0,1,5.09-1.5l1.51.82a3.75,3.75,0,0,1,1.51,5.08l-3.66,6.74Z" transform="translate(-52 -8)"/><path class="cls-36" d="M302.84,51.15l-8.11-4.4h0L298.39,40a3.75,3.75,0,0,1,5.09-1.5l1.51.82a3.75,3.75,0,0,1,1.51,5.08l-3.66,6.74Z" transform="translate(-52 -8)"/><path class="cls-36" d="M296.21,44.05l-8.11-4.4h0l3.83-7a3.38,3.38,0,0,1,4.6-1.36h0l2.14,1.16A3.39,3.39,0,0,1,300,37h0l-3.83,7Z" transform="translate(-52 -8)"/><path class="cls-36" d="M288.1,39.65,277.67,34h0l12.46-23a3.76,3.76,0,0,1,5.09-1.51l2.36,1.29a5.41,5.41,0,0,1,2.18,7.34L288.1,39.65Z" transform="translate(-52 -8)"/><rect class="cls-129" x="292.1" y="55.89" width="21.96" height="5.27" rx="2.14" transform="translate(55.07 288.99) rotate(-61.51)"/><rect class="cls-129" x="286.45" y="48.82" width="21.96" height="5.27" rx="2.14" transform="translate(58.32 280.32) rotate(-61.51)"/><rect class="cls-129" x="280.23" y="40.95" width="21.96" height="5.27" rx="2.14" transform="translate(62 270.74) rotate(-61.51)"/><rect class="cls-129" x="278.09" y="22.79" width="21.96" height="5.27" rx="2.14" transform="translate(76.83 259.36) rotate(-61.51)"/><path class="cls-129" d="M274.85,68.19s6.83-4.29-.16-12.59l14-7.39s3-6.38-6.32-4.92-8.76,3.24-8.76,3.24" transform="translate(-52 -8)"/><image width="1024" height="1024" transform="translate(27 57) scale(0.1)" xlink:href="../../../../../../../Downloads/wordpress-logo-png-wordpress-round-sticker-1024.png"/><image width="512" height="512" transform="translate(137 48) scale(0.13)" xlink:href="../../../../../../../Downloads/PgcSR.png"/><rect class="cls-101" x="194" y="92" width="88" height="38"/><image width="1200" height="467" transform="translate(197 95) scale(0.07)" xlink:href="../../../../../../../Downloads/1200px-Wix.com_website_logo.svg.png"/></svg>