<svg id="Layer_1" data-name="Layer 1" xmlns="http://www.w3.org/2000/svg" xmlns:xlink="http://www.w3.org/1999/xlink" viewBox="0 0 318.32 241.58"><defs><style>.cls-1,.cls-23{fill:#6c63ff;}.cls-1,.cls-6{opacity:0.1;}.cls-1,.cls-11,.cls-24,.cls-4,.cls-6{isolation:isolate;}.cls-2{fill:#3a3768;}.cls-3{fill:#d48a9b;}.cls-4{opacity:0.05;}.cls-5{fill:#efc6cd;}.cls-7{fill:#fff;}.cls-8{fill:#d3dae1;}.cls-9{fill:url(#linear-gradient);}.cls-10{fill:#585b8a;}.cls-11{opacity:0.2;}.cls-12{fill:#636992;}.cls-13{fill:#ffd6d6;}.cls-14{fill:#dce6f2;}.cls-15{fill:#565988;}.cls-16{fill:#505484;}.cls-17{fill:#575988;}.cls-18{fill:#d28690;}.cls-19{fill:#575989;}.cls-20{fill:#353045;}.cls-21{fill:#f0f3f7;}.cls-22{fill:#663d5c;}.cls-24{opacity:0.3;}.cls-25{opacity:0.15;}.cls-26{fill:#ffd037;}.cls-27{fill:#65617d;}.cls-28{fill:#9d9cb5;}.cls-29{fill:#4b4770;}.cls-30{fill:#d4dfec;}.cls-31{fill:#264de4;}.cls-32{fill:#2965f1;}.cls-33{fill:#ebebeb;}</style><linearGradient id="linear-gradient" x1="248.79" y1="11.09" x2="248.79" y2="181.79" gradientTransform="matrix(1, 0, 0, -1, -54.11, 266.29)" gradientUnits="userSpaceOnUse"><stop offset="0" stop-color="gray" stop-opacity="0.25"/><stop offset="0.54" stop-color="gray" stop-opacity="0.12"/><stop offset="1" stop-color="gray" stop-opacity="0.1"/></linearGradient></defs><title>what-7</title><path class="cls-1" d="M355.27,98.69c-.06.26-.11.51-.17.77a83.2,83.2,0,0,1-9.69,25.12l-.46.78A72.68,72.68,0,0,1,334,139.15a33.51,33.51,0,0,1-7.84,6c-4.21,2.2-9.13,3.09-14,3.82-5,.76-10.12,1.39-15.19,2.08q-2.71.36-5.38.76c-4.9.73-9.77,1.57-14.53,2.68a84.82,84.82,0,0,0-16.94,5.7c-.43.2-.86.4-1.28.62l-1.26.64-1.22.65-.63.35-.61.34c-.61.34-1.2.69-1.8,1h0l-1.17.7c-2.2,1.34-4.35,2.73-6.5,4.13l-1.35.88-2.1,1.36-1.23.79-.91.58c-1.52,1-3.07,1.91-4.66,2.81l-1.14.64a65,65,0,0,1-10,4.53h-.05a46.3,46.3,0,0,1-5.33,1.51c-1,.22-2.08.41-3.14.55a33.67,33.67,0,0,1-8.51.12c-5.56-.64-10.77-2.77-16.33-3.49-11.44-1.46-22.55,3.23-33.31,6.91-2.65.91-5.31,1.75-8,2.54q-2.67.8-5.37,1.51a203.19,203.19,0,0,1-33.74,5.92,95.21,95.21,0,0,1-14.33.31,52.79,52.79,0,0,1-5.37-.58c-6-.93-11.67-2.89-16.21-6.47a31.71,31.71,0,0,1-8.41-10.79,47.24,47.24,0,0,1-4.35-13c-.11-.61-.21-1.23-.29-1.85-.14-1.05-.25-2.12-.32-3.19a45.41,45.41,0,0,1,2-16.86c1.93-6.1,5.13-12,6.55-18.1,0-.26.11-.52.16-.78a27.23,27.23,0,0,0,.43-2.83c.72-7.55-2-14.91-4.21-22.3-.07-.25-.15-.51-.22-.77-.23-.82-.46-1.64-.67-2.46a51.16,51.16,0,0,1-.78-24c.06-.26.12-.52.19-.77A35.2,35.2,0,0,1,71.26,58,52.25,52.25,0,0,1,83.7,47.19C86,45.7,88.35,44.3,90.8,43c1.74-.94,3.54-1.82,5.37-2.65a105.87,105.87,0,0,1,48.08-9.26c.88,0,1.75.09,2.63.15l2.74.22c10.69,1,21.09,3.55,31.42,6.28,3.46.92,6.91,1.86,10.37,2.79l4.6,1.21c7.53,1.95,15.16,3.71,22.9,5q2.68.47,5.37.85a153.78,153.78,0,0,0,18.81,1.59q3.66.07,7.34-.06c1.24,0,2.47-.11,3.71-.2,12.79-.9,25.14-3.92,37.52-6.74,1.79-.4,3.58-.81,5.38-1.2q3.52-.78,7.08-1.49c14.73-2.89,27.86-1.23,41.56,4.75,3.11,1.35,6.22,3,8.13,5.54s2.39,5.67,2.74,8.69c.51,4.29.84,8.65,1,13,0,.26,0,.52,0,.78A116.82,116.82,0,0,1,355.27,98.69Z" transform="translate(-41 -29)"/><path class="cls-1" d="M257.54,124.58h-1v.78h1.09Zm-10.91,0v0c0,.21,0,.42-.08.64v.11h8.33v0l.59-.74Zm-22.35,0V99.46h9.6l-.32-.2-.14-.09-.18-.11-.32-.18-.27-.15-.07,0h-8.3V97.31l-.22.09-.24.11h0l0,0-.15.08-.15.08L223,98l-.14.09-.29.19-1.13.76-.29.17c-.21.13-.42.24-.64.35a2,2,0,0,1-.29.12l-.16.06-.14,0h0a8.16,8.16,0,0,1-1.05.28v24.56H204.5s0,0,0,.08l.24.7h14.14v26.93h.47l.46,0,.73.08.33,0,.37,0h0l.65.08.13,0,.32,0,.44.07h0l1.07-.05h0l.15,0,.18,0V125.36h22.26v-.11c0-.22.06-.43.08-.64v0Zm33.26,0h-1v.78h1.09Zm-11.51,0c0,.26-.07.52-.1.78h9.3l.63-.78Zm-21.75,0V99.46h9.6l-.32-.2-.14-.09-.18-.11-.32-.18-.27-.15-.07,0h-8.3V97.31l-.22.09-.24.11h0l0,0-.15.08-.15.08L223,98l-.14.09-.29.19-1.13.76-.29.17c-.21.13-.42.24-.64.35a2,2,0,0,1-.29.12l-.16.06-.14,0h0a8.16,8.16,0,0,1-1.05.28v24.56H204.5s0,0,0,.08l.24.7h14.14v26.92h.22l.25,0,.46,0,.73.09.33,0,.37,0h0l.65.08.13,0,.32,0,.44.07h0l1.07-.05h0l.15,0,.18,0V125.36h21.67c0-.26.07-.52.11-.78ZM297,72.27h60.49c0-.26,0-.52,0-.78H297V41q-2.7.59-5.38,1.21V71.49H225.87l-.16-.15.25-.22h0l24.47-22q-3.68.15-7.35.07l-18.8,16.89V47.61q-2.7-.39-5.38-.85V65.24L191.41,40.53c-3.45-.93-6.9-1.87-10.37-2.79l37.39,33.6-.17.15H149.63v-40c-.91-.09-1.83-.16-2.74-.22s-1.75-.12-2.63-.15V71.49H96.17V40.37c-1.81.84-3.61,1.72-5.37,2.65V71.49H64.67c-.07.26-.13.52-.19.78H90.8V98.69H65.93c.07.26.15.51.22.77H90.8v25.12H69.93c-.05.26-.11.52-.16.78h21v70.25c1.74.27,3.56.46,5.37.58V125.36h48.08V190q2.72-.72,5.38-1.51V125.36h69.28v56.43a45.4,45.4,0,0,0,5.33-1.5l0,0V125.36h67.38v26.47q2.68-.39,5.38-.75V125.36H345l.46-.78H297V99.46H355.1c.06-.26.11-.51.17-.77H297Zm-200.87,0h48.08V98.69H96.17Zm0,52.31V99.46h48.08v25.12Zm53.46-52.31h69.28V98.69H149.63Zm0,52.31V99.46h69.28v25.12Zm142,0H224.28V99.46h67.38Zm0-25.89H224.28V73l.95-.71h66.43Zm-45,25.89v0c0,.21,0,.42-.08.64v.11h8.33v0l.59-.74Zm10.91,0h-1v.78h1.09Zm-33.26,0V99.46h9.6l-.32-.2-.14-.09-.18-.11-.32-.18-.27-.15-.07,0h-8.3V97.31l-.22.09-.24.11h0l0,0-.15.08-.15.08L223,98l-.14.09-.29.19-1.13.76-.29.17c-.21.13-.42.24-.64.35a2,2,0,0,1-.29.12l-.16.06-.14,0h0a8.16,8.16,0,0,1-1.05.28v24.56H204.5s0,0,0,.08l.24.7h14.14v26.93h.47l.46,0,.73.08.33,0,.37,0h0l.65.08.13,0,.32,0,.44.07h0l1.07-.05h0l.15,0,.18,0V125.36h22.26v-.11c0-.22.06-.43.08-.64v0Z" transform="translate(-41 -29)"/><path class="cls-1" d="M119.29,54.08h.42a.84.84,0,0,1-.51-.68h0c0-.54.8-1,1.78-1h12.46c1,0,1.78.43,1.78,1h0c0,.53-.8,1-1.78,1H133a.86.86,0,0,1,.51.68c0,.46-.59.84-1.36,1h3.59c1,0,1.77.43,1.77,1s-.8,1-1.77,1H123.3c-1,0-1.78-.44-1.78-1s.58-.84,1.36-.95h-3.59c-1,0-1.78-.43-1.78-1S118.31,54.08,119.29,54.08Z" transform="translate(-41 -29)"/><path class="cls-1" d="M254.41,63.34h.42a.84.84,0,0,1-.51-.68h0c0-.53.8-1,1.78-1h12.46c1,0,1.79.44,1.79,1h0c0,.54-.81,1-1.79,1h-.41a.86.86,0,0,1,.51.68c0,.46-.59.85-1.36,1h3.59c1,0,1.77.44,1.77,1s-.79,1-1.77,1H258.42c-1,0-1.78-.44-1.78-1s.58-.84,1.36-.94h-3.59c-1,0-1.78-.44-1.78-1S253.43,63.34,254.41,63.34Z" transform="translate(-41 -29)"/><path class="cls-1" d="M100.15,103h.42a.84.84,0,0,1-.51-.68h0c0-.53.8-1,1.78-1h12.47c1,0,1.78.44,1.78,1h0c0,.54-.8,1-1.78,1h-.42a.81.81,0,0,1,.51.67c0,.46-.58.85-1.36,1h3.59c1,0,1.78.44,1.78,1s-.8,1-1.78,1H104.17c-1,0-1.78-.44-1.78-1s.59-.84,1.37-.94h-3.61c-1,0-1.78-.44-1.78-1S99.19,103,100.15,103Z" transform="translate(-41 -29)"/><ellipse class="cls-1" cx="273.84" cy="194.4" rx="18.94" ry="62.33" transform="translate(-12.46 394.77) rotate(-78.45)"/><path class="cls-2" d="M266.8,141.22s3.31-16.28,16-14.77c0,0,8.75.6,10.55,6.33v12.65Z" transform="translate(-41 -29)"/><polygon class="cls-3" points="295.11 118.25 182.4 108.9 167.94 111.92 168.84 132.1 169.83 132.22 170.95 162.54 281.55 182.43 293.3 172.49 293.3 139.62 294.81 138.74 295.11 118.25"/><polygon class="cls-4" points="295.26 118.25 294.96 138.74 282.75 144.46 282.6 123.06 295.26 118.25"/><polygon class="cls-4" points="293.3 139.64 293.45 171.89 281.7 181.83 282.45 144.46 293.3 139.64"/><polygon class="cls-4" points="169.98 133.43 282.54 147.17 282.6 144.56 169.89 132.41 169.98 133.43"/><polygon class="cls-4" points="293.3 140.82 293.3 139.64 282.15 144.56 282.15 147.17 293.3 140.82"/><polygon class="cls-5" points="167.79 111.92 182.25 108.9 294.96 118.25 282.3 123.06 167.79 111.92"/><polygon class="cls-6" points="282.95 118.83 288.48 119.19 279.32 121.93 274.65 121.59 282.95 118.83"/><polygon class="cls-7" points="282.95 118.58 288.48 118.94 279.32 121.69 274.65 121.35 282.95 118.58"/><path class="cls-8" d="M323.29,148.2c.22-.09.45.09.68.13s.27,0,.41,0,.54.21.8.12" transform="translate(-41 -29)"/><path class="cls-8" d="M323,148.37c.22-.09.45.08.69.13s.27,0,.4,0,.54.22.8.13" transform="translate(-41 -29)"/><path class="cls-8" d="M322.35,148.7c.21-.09.45.08.68.13s.27,0,.4,0,.55.22.8.13" transform="translate(-41 -29)"/><polygon class="cls-6" points="259.04 116.1 264.57 116.47 255.41 119.21 250.74 118.87 259.04 116.1"/><polygon class="cls-7" points="259.04 115.86 264.57 116.22 255.41 118.97 250.74 118.63 259.04 115.86"/><path class="cls-8" d="M299.38,145.48c.22-.09.45.09.68.13s.28,0,.41,0,.54.21.8.12" transform="translate(-41 -29)"/><path class="cls-8" d="M299.1,145.65c.21-.09.45.08.68.13s.27,0,.4,0,.54.22.8.13" transform="translate(-41 -29)"/><path class="cls-8" d="M298.44,146c.22-.09.45.08.68.13s.27,0,.41,0,.54.22.79.13" transform="translate(-41 -29)"/><polygon class="cls-6" points="270.51 117.46 276.05 117.83 266.88 120.57 262.21 120.23 270.51 117.46"/><polygon class="cls-7" points="270.51 117.22 276.05 117.59 266.88 120.33 262.21 119.99 270.51 117.22"/><path class="cls-8" d="M310.85,146.85c.22-.1.45.08.68.12s.27,0,.41,0,.54.22.8.12" transform="translate(-41 -29)"/><path class="cls-8" d="M310.56,147c.22-.09.46.08.69.13s.27,0,.4,0,.54.22.8.13" transform="translate(-41 -29)"/><path class="cls-8" d="M309.91,147.34c.21-.09.45.08.68.13s.27,0,.41,0,.53.22.79.13" transform="translate(-41 -29)"/><ellipse class="cls-1" cx="145.29" cy="218.58" rx="59.03" ry="12.15"/><path class="cls-9" d="M250.94,148.07a39.43,39.43,0,0,0-3.13-10.82l.19-1.86s0-.94,0-2.34a10.68,10.68,0,0,1,.34-2.58,5.32,5.32,0,0,0-.76-3.79c-.13-.19.06-3.74-1.09-5.48s-8.8-5-8.8-5-.41-.86-1-1.87l.06-.1A11.29,11.29,0,0,0,235,111.9c-.47-.5-.93-.79-1.29-.65a10.59,10.59,0,0,1-.34-1.48l.23.06a2.39,2.39,0,0,0,1,0,2.81,2.81,0,0,0,1.58-1.4c2-3,3.68-6.29,4-9.85a6.33,6.33,0,0,0-.1-2.17,7,7,0,0,0-.68-1.59A12.49,12.49,0,0,0,237.45,92a11,11,0,0,0-5.17-2.83,17.87,17.87,0,0,0-6.67-.5c-.59.07-1.17.16-1.75.2a18.28,18.28,0,0,1-2.22,0l-3.82-.22,0-.06-.63,0a1.6,1.6,0,0,0,.31,1.55,2.75,2.75,0,0,1,.65,1.51,3.18,3.18,0,0,1-.74,1.46,1.4,1.4,0,0,0-.24,1.52,1.29,1.29,0,0,0,.16.17,1.9,1.9,0,0,0,1.4.37h.09a9.51,9.51,0,0,0-1.94,5.75,9.67,9.67,0,0,0,5.28,8.57c.05.19.11.38.16.58a17.64,17.64,0,0,1,.61,6.3l-.06.15,0-.15s-4.49,3-5.83,3.85a8.53,8.53,0,0,0-2.74,4.29c-.06.75-2.17,12-2.17,12a27.75,27.75,0,0,0-1.05,3.47l-2.69,2.36s-5.54.5-7.14.13l0,.31a24.16,24.16,0,0,0-4.31-.59,4.54,4.54,0,0,0-2.33.32l-.06,0,0,0a9.51,9.51,0,0,0-2.45.69l-.26.11,0-.38-6-.31-3.07-.62s-1.08-.87-1.72-.74-2-.75-2-.75a4.73,4.73,0,0,0-1-.61c-.1-.71-.17-1.14-.17-1.14s-2.38-9.45-4.16-15a12.81,12.81,0,0,0-3.93-6.33l-.75-1.3a5.71,5.71,0,0,0-1.55-2.25c0-.07-.07-.11-.09-.11a.32.32,0,0,0-.17,0,18.66,18.66,0,0,1,0-8.35,9.22,9.22,0,0,0,3.37-7.1v-.25a9.15,9.15,0,0,0-2.17-5.92l-.1-.11.08-.06a1.58,1.58,0,0,0,.55-1.51,10.56,10.56,0,0,0-.79-1.53,8.84,8.84,0,0,1-.33-1.25,3.73,3.73,0,0,0-.92-1.6l0,.12a5.56,5.56,0,0,0-4.88-1.64c-1.32.21-2.54.82-3.86,1-1,.14-1.91,0-2.87.15a7.56,7.56,0,0,0-2.54.73,1.41,1.41,0,0,0-.54.4,2.4,2.4,0,0,0-.27.75c-.32,1.18-1.35,2-2.09,3a7,7,0,0,0-1.41,3.88,3,3,0,0,0,.1,1.07c.07.21.16.4.21.61a4.22,4.22,0,0,1-.35,1.92,3.7,3.7,0,0,0,.21,2.43c1.15,2.58,4.93,3.44,5.72,6.14a7.27,7.27,0,0,0,1.89.58c0,.27.1.54.13.82l0,0a5.71,5.71,0,0,0-1.28,2.91l-.12.1c-.42.35-1.84,1.5-3.13,2.39-1.53,1.06-4.08,4.6-5.87,5.66s-3.25,7.58-2.87,10,2,9,1.34,11.45,1,13.49,1,13.49a17,17,0,0,1,3.12.93l0,.48-.1,1.46s-2.89,10.45-1.78,18.5-.51,8.87-.51,8.87.34,3.56-.51,4.81a10.3,10.3,0,0,0-1,4s-.09,6.14.08,7.87.26,4.9-.34,5.64-1.7,5.64-1.61,7.13-2.13,4.9-.94,9.29-3.5,4.48-3.5,4.48.6,6.7,1.87,8.62l.19.28-.1.35c-.48,1.75-1.14,4.51-.68,5.18.68,1,1,.82,1,.82l.25,4.48s5.11,4.32,9,4.15,3.14-4.15,3.14-4.15l-3.33-8.64-.11-.29,3.7-7s1-3.06,1.28-4.14,1.63-4.9,1.63-4.9,3.5-8.3,3.58-9.29.34-6.39,1-7.47a68.73,68.73,0,0,0,2.55-7.29l0,0a2.48,2.48,0,0,1,.64,2.45,19.45,19.45,0,0,0-.17,4.81,32.9,32.9,0,0,1-.51,4.15c-.34,1.41-.43,12.93.17,15.67a45.24,45.24,0,0,1,.44,7.84c-.4,1.65-.75,3.69-.1,3.93,1.11.42,6.72.34,6.72.34s2.38-.83,5.61,2.07,13.18-.83,13.18-.83,3.06-.83-3-3.23c-4.21-1.68-6.93-2.79-8.71-4l.12-.24s-2.46-2.33-.42-6.47a17.94,17.94,0,0,0,1.95-7.63l.34-13.93-1-18.5-.79-19.41.14-.05c.14,3.57.83,12.07,4.48,10.42,4.59-2.07.68-7.46.68-7.46l-2.06-4,.62-.21-2.31-7.45a17.06,17.06,0,0,1-.09-4.4,16.84,16.84,0,0,0-.05-2.56,45.37,45.37,0,0,1,6.43-1c.61.15,4,.17,5.39.18a10.51,10.51,0,0,0-.8.69l5.49,3.69s1.86-1,2.25-2.1a2.36,2.36,0,0,0,1-.55c.06,1.28.4,2.66,1.58,2.69a2.08,2.08,0,0,0,.85-.17l9-1.78-.77,4.81.54,1c-.27,4.06-.59,8.37-.86,12.15l-.12.83.06,0c-.43,5.83-.77,10.24-.77,10.24A5.38,5.38,0,0,1,210.7,178l.06,8.65s.45,13.68.45,15.55.06,6,.06,6,1,5.1,1.53,6.78,1,9.33,1,9.33,1.34,2.11.77,2.92,2.23,2.54,2.23,2.54-1.79,2.43-1.92,4.05c0,.18.17.38.5.58a2.85,2.85,0,0,1-.33.25,5.77,5.77,0,0,1-3.86.78c-5-.43-8.49,4.17-5.43,5.1S218,241.67,218,241.67s2.78-1.73,5-.95c0,1.82,0,3.5.07,3.72l0,0a20.17,20.17,0,0,1-6.22,4c-3.5,1.18-4.27,6,.25,6.59s11.16-.74,11.16-.74,3.45-2.55,6.06-3.11,4.85-1.81,4.41-3.3c-.3-.95-1.05-3.45-1.55-5.13l-.09-.29c.08-.18.16-.36.23-.54,0,0-1.34-7-.25-8.71s.51-19.16.51-19.16-1.85-4.41-.9-7.09-1.53-6.47-1.53-6.47.28-7.6,1-11.84c0-.18.07-.36.1-.53a24,24,0,0,0,3.56-1.37s.64-9.58,1-11.76c0-.2.09-.53.15-1l.29-1.53h0l.35-1.75h0l1.16-6,2.11-2.72,5.42-5.54S251.58,153.6,250.94,148.07Zm-83.63-34.21,0,0a.19.19,0,0,1,0-.07Zm53.58,6.79-.21.46.76-.77-1,1.17.35-.74Zm-5.18,10.7c-.2.53-.42,1.11-.64,1.71l.41-1.23Z" transform="translate(-41 -29)"/><path class="cls-10" d="M199,148.79s-.72,4.76,1.42,4.82,3.58-3.67,3.58-3.67l-.88-3Z" transform="translate(-41 -29)"/><path class="cls-11" d="M199,148.79s-.72,4.76,1.42,4.82,3.58-3.67,3.58-3.67l-.88-3Z" transform="translate(-41 -29)"/><path class="cls-12" d="M151,251.72c-3.82.17-8.79-4.14-8.79-4.14l-.25-4.47s-.33.16-1-.83c-.45-.67.19-3.44.66-5.18.23-.85.42-1.45.42-1.45l8.36,2.23.4,1.06,3.25,8.64S154.79,251.56,151,251.72Z" transform="translate(-41 -29)"/><path class="cls-12" d="M189.42,239.05s-9.69,3.73-12.82.83-5.47-2.08-5.47-2.08-5.47.09-6.55-.33c-.64-.24-.29-2.31.1-4,.27-1.14.56-2.09.56-2.09s9.53-3.23,11-1.24a7.35,7.35,0,0,0,1.59,1.51c1.73,1.25,4.42,2.38,8.69,4.12C192.41,238.22,189.42,239.05,189.42,239.05Z" transform="translate(-41 -29)"/><path class="cls-13" d="M180.72,163.3l2.65,5.31s3.82,5.39-.66,7.46-4.39-11.94-4.39-11.94Z" transform="translate(-41 -29)"/><path class="cls-14" d="M169.62,117.31s2.9,1.33,4.64,6.88,4.06,15,4.06,15,1.58,10.69,1.33,13.34a17,17,0,0,0,.08,4.39l2.24,7.46L177.49,166l-6.88-26.35Z" transform="translate(-41 -29)"/><path class="cls-4" d="M169.62,117.31s2.9,1.33,4.64,6.88,4.06,15,4.06,15,1.58,10.69,1.33,13.34a17,17,0,0,0,.08,4.39l2.24,7.46L177.49,166l-6.88-26.35Z" transform="translate(-41 -29)"/><path class="cls-6" d="M150.39,237.89l.4,1.06-.49.93c-1.9.83-6.63.17-6.63.17s-.87-1.11-2.07-2.94c.23-.85.42-1.46.42-1.46Z" transform="translate(-41 -29)"/><path class="cls-6" d="M178.16,232.09c-2.42,5.47-10.64,3.44-12.92,2.75-.38-.11-.58-.19-.58-.19s0-.44,0-1.14c.26-1.14.56-2.09.56-2.09s9.52-3.23,11-1.24a7.13,7.13,0,0,0,1.59,1.51A2.87,2.87,0,0,0,178.16,232.09Z" transform="translate(-41 -29)"/><path class="cls-15" d="M177.74,225.13c-2,4.14.42,6.46.42,6.46-2.42,5.47-10.64,3.44-12.92,2.76l-.58-.19a50.79,50.79,0,0,0-.42-8.46c-.58-2.73-.5-14.25-.16-15.66a33.19,33.19,0,0,0,.49-4.14,20,20,0,0,1,.17-4.81,2.5,2.5,0,0,0-.62-2.44l0,0a70,70,0,0,1-2.49,7.28c-.67,1.08-.91,6.47-1,7.46s-3.48,9.29-3.48,9.29-1.32,3.81-1.57,4.88-1.24,4.15-1.24,4.15l-4,7.71c-1.9.83-6.63.16-6.63.16s-.91-1.16-2.15-3.06-1.82-8.62-1.82-8.62,4.55-.08,3.39-4.47,1-7.8.91-9.29,1-6.38,1.58-7.12.49-3.9.33-5.64-.08-7.87-.08-7.87a10.46,10.46,0,0,1,1-4c.83-1.24.5-4.81.5-4.81s1.57-.82.5-8.86,1.74-18.48,1.74-18.48l.1-1.46.15-2.36s23.7-1.49,25.61.33a6.13,6.13,0,0,1,1.21,1.73A17.62,17.62,0,0,1,178,160l1,25.11,1,18.48-.33,13.92A18.59,18.59,0,0,1,177.74,225.13Z" transform="translate(-41 -29)"/><path class="cls-6" d="M170.71,175.57l-2.49,53.86-3,4.91-.58-.18a50.79,50.79,0,0,0-.42-8.46c-.58-2.73-.5-14.25-.16-15.66a33.49,33.49,0,0,0,.49-4.15,19.9,19.9,0,0,1,.17-4.8,2.49,2.49,0,0,0-.62-2.44l0-.29Z" transform="translate(-41 -29)"/><path class="cls-6" d="M143.93,233.41s6.46-2.57,7.46-1.75-7.62,2.07-7.62,2.07Z" transform="translate(-41 -29)"/><path class="cls-6" d="M175.83,226.62c-.24.08-6.54,2.33-6,4.72S175.83,226.62,175.83,226.62Z" transform="translate(-41 -29)"/><path class="cls-13" d="M156.15,104s2.12,5.09,1,7.7,12,7.09,12,7.09-3.85-10-.12-15.54S156.15,104,156.15,104Z" transform="translate(-41 -29)"/><path class="cls-16" d="M233.28,251.56c-2.55.56-5.9,3.11-5.9,3.11s-6.46,1.36-10.88.74-3.66-5.41-.25-6.59a19.84,19.84,0,0,0,6.07-4c.56-.52.89-.88.89-.88l12.37-2.48.48,1.64c.5,1.68,1.23,4.18,1.51,5.13C238,249.76,235.83,251,233.28,251.56Z" transform="translate(-41 -29)"/><path class="cls-16" d="M230.11,242s-5.22.56-7.39-.69-5.29.75-5.29.75-9-.19-11.93-1.12.43-5.54,5.28-5.1a5.47,5.47,0,0,0,3.77-.78,3.88,3.88,0,0,0,1.64-2.46l10.5.62,1.46,3.72Z" transform="translate(-41 -29)"/><path class="cls-6" d="M228.31,238.63s-12.2-2-13.76-3.58a3.88,3.88,0,0,0,1.64-2.46l10.5.62,1.46,3.72Z" transform="translate(-41 -29)"/><path class="cls-17" d="M210.22,168.84l.13,18.21s.43,13.67.43,15.54.06,6,.06,6,.94,5.1,1.5,6.78,1,9.33,1,9.33,1.31,2.11.75,2.91,2.17,2.55,2.17,2.55-1.75,2.43-1.86,4,13.92,3.91,13.92,3.91l-5.47-56.06-4.35-14Z" transform="translate(-41 -29)"/><path class="cls-6" d="M210.22,168.84l.13,18.21s.43,13.67.43,15.54.06,6,.06,6,.94,5.1,1.5,6.78,1,9.33,1,9.33,1.31,2.11.75,2.91,2.17,2.55,2.17,2.55-1.75,2.43-1.86,4,13.92,3.91,13.92,3.91l-5.47-56.06-4.35-14Z" transform="translate(-41 -29)"/><path class="cls-6" d="M236.06,243.14c-4.06,9.68-13.72,2.21-13.72,2.21s0-.19,0-.51c.56-.52.89-.88.89-.88l12.37-2.48Z" transform="translate(-41 -29)"/><path class="cls-17" d="M236.2,242.3c-4,10.2-13.86,2.55-13.86,2.55s-.31-5.29.32-7.71-.69-9.7-.69-9.7-.75-6.46-1.43-7.95a14.23,14.23,0,0,1-.62-4.72,9,9,0,0,0-.31-3.61,24.41,24.41,0,0,1-.88-4.72,49.78,49.78,0,0,0-.56-7.52l-1.92-9.62-3.48-19.71,1.08-.18L233.34,166s3.67,18.66,2.42,20.57a8.12,8.12,0,0,0-.7,2.52c-.71,4.24-1,11.84-1,11.84s2.42,3.79,1.49,6.46.87,7.09.87,7.09.56,17.4-.5,19.14S236.2,242.3,236.2,242.3Z" transform="translate(-41 -29)"/><path class="cls-18" d="M234.34,115.08s-17.65,12.43-13.68,6.21c2.15-3.35,1.75-7.61.91-10.83a25.06,25.06,0,0,0-1.75-4.75s15-6.38,13-.66a10.82,10.82,0,0,0-.58,4.15A11.05,11.05,0,0,0,234.34,115.08Z" transform="translate(-41 -29)"/><path class="cls-18" d="M202.56,143.54s-7.46-2.15-8.7,0,.37,6.75,2.62,7.5,7.42-2.53,7.42-2.53Z" transform="translate(-41 -29)"/><path class="cls-10" d="M211.1,139.88,208,142.74s-5.41.49-7,.12c0,0,1.43,9.57-.63,10.75L213,151.06Z" transform="translate(-41 -29)"/><path class="cls-6" d="M211.1,139.88,208,142.74s-5.41.49-7,.12c0,0,1.43,9.57-.63,10.75L213,151.06Z" transform="translate(-41 -29)"/><path class="cls-6" d="M171.19,98.79a9.32,9.32,0,0,1-9.33,9.33c-4.78-2.3-9.33-4.17-9.33-9.33a9.33,9.33,0,1,1,18.65-.73c0,.24,0,.49,0,.73Z" transform="translate(-41 -29)"/><path class="cls-13" d="M171.19,98.54a9.3,9.3,0,1,1-2.11-5.9A9.3,9.3,0,0,1,171.19,98.54Z" transform="translate(-41 -29)"/><path class="cls-6" d="M176.63,155.59a19.79,19.79,0,0,1-2.89,1.5s-4.72-.68-5.4.12-6.71,1.12-6.71,1.12-9.2-.43-10.57-1.61a5.75,5.75,0,0,0-1.39-.83l.15-2.36s23.7-1.49,25.61.33A6.31,6.31,0,0,1,176.63,155.59Z" transform="translate(-41 -29)"/><path class="cls-14" d="M177.78,153.92c-.18,1.06-4,2.67-4,2.67s-4.72-.68-5.4.13-6.71,1.12-6.71,1.12-9.2-.44-10.57-1.62-4.41-1.75-4.41-1.75-1.55-11.06-.93-13.49-.93-9.07-1.31-11.43,1.06-8.89,2.8-10,4.23-4.6,5.72-5.65c1.25-.89,2.64-2,3-2.39l.12-.1a5.86,5.86,0,0,1,1.24-2.91c1-1,10.13,6.27,10.13,6.27s.06.56.68-.49c.14-.24,1.35,1.5,1.56,2.23,0,0,5,8.71,5.28,10.5s1.62,7.64,1.86,9.07c.07.37.17,1.66.3,3.39,0,.33,0,.69.07,1.07.18,2.86.38,6.51.5,9.28,0,.31,0,.62,0,.91A27.39,27.39,0,0,1,177.78,153.92Z" transform="translate(-41 -29)"/><path class="cls-6" d="M146.22,131.48s3.42,4.17,4.54,4.17S146.22,131.48,146.22,131.48Z" transform="translate(-41 -29)"/><path class="cls-6" d="M153.42,140.43s-5.6,6.09-4.85,7.21S153.42,140.43,153.42,140.43Z" transform="translate(-41 -29)"/><path class="cls-6" d="M149.32,152.55s6.41-7,6.7-9.44Z" transform="translate(-41 -29)"/><path class="cls-6" d="M157.4,153.05s7.39-3.92,8-7S157.4,153.05,157.4,153.05Z" transform="translate(-41 -29)"/><path class="cls-6" d="M166.78,115.26l-1,2.49,1.7.81,1.68,4.69s4.63,9.26,4.45,14.08a84.74,84.74,0,0,0,.84,12l2.67-.49-1.26-14.17a20.63,20.63,0,0,0-1.63-6.36c-2.13-4.89-6.1-13.91-6.36-13.91s-.1.13-.1.13Z" transform="translate(-41 -29)"/><path class="cls-19" d="M167,115l-1,2.49,1.71.81,1.68,4.69s4.63,9.26,4.44,14.08a86.37,86.37,0,0,0,.84,12l2.68-.49-1.26-14.17a20.63,20.63,0,0,0-1.63-6.36c-2.13-4.89-6.1-13.9-6.35-13.9s-.11.12-.11.12Z" transform="translate(-41 -29)"/><path class="cls-13" d="M197.3,151.54c-1.3-.1-4.42-1.68-5.66-2.33l-.53-.29.07-4.82a7.68,7.68,0,0,1,.95-.48c1.65-.72,5.05-1.71,6.75,1.46C201.18,149.32,198.94,151.65,197.3,151.54Z" transform="translate(-41 -29)"/><path class="cls-6" d="M169.08,92.64a1.16,1.16,0,0,1-.43.18c-1.08.24-2.31-.69-3.24-.09a2.28,2.28,0,0,0-.77,1.79c-.14,1.17-.27,2.33-.4,3.48a4.52,4.52,0,0,1-.26,1.2,3,3,0,0,1-2.86,1.52,1.68,1.68,0,0,1-1.23-.41c-.2-.2-.31-.49-.53-.67-1.46-1.23-1.9,1.77-1.52,2.62.62,1.39,2.82,2.73,1.89,4.5a1.69,1.69,0,0,1-.67.68,9.33,9.33,0,1,1,10-14.8Z" transform="translate(-41 -29)"/><path class="cls-20" d="M159.11,99.62c.22.19.33.47.53.68a1.73,1.73,0,0,0,1.23.41,3,3,0,0,0,2.86-1.53A4.09,4.09,0,0,0,164,98l.4-3.48a2.32,2.32,0,0,1,.77-1.8c.93-.58,2.16.33,3.24.1A1.6,1.6,0,0,0,169.57,91a12.89,12.89,0,0,0-.77-1.53,8.68,8.68,0,0,1-.32-1.24c-.61-2.26-3.26-3.53-5.57-3.15-1.28.21-2.48.82-3.76,1-.92.13-1.86,0-2.79.14a7.11,7.11,0,0,0-2.48.73,1.41,1.41,0,0,0-.53.4,2.16,2.16,0,0,0-.26.75c-.31,1.16-1.32,2-2,3A7.16,7.16,0,0,0,149.67,95a2.94,2.94,0,0,0,.1,1.06c.06.21.15.4.2.61a4.34,4.34,0,0,1-.34,1.92,3.83,3.83,0,0,0,.2,2.43c1.12,2.57,4.81,3.43,5.57,6.13a6.15,6.15,0,0,0,2.17.59,2.1,2.1,0,0,0,1.92-1c.92-1.75-1.28-3.11-1.9-4.49C157.21,101.39,157.64,98.4,159.11,99.62Z" transform="translate(-41 -29)"/><path class="cls-6" d="M232.85,105.05a10.45,10.45,0,0,0-.58,4.15c-.45.38-.94-.76-1.46-.46-1.42.82-3.07,2.77-4.83,2.77a9.56,9.56,0,0,1-4.39-1.05,25.76,25.76,0,0,0-1.75-4.75S234.84,99.33,232.85,105.05Z" transform="translate(-41 -29)"/><path class="cls-18" d="M235.67,101.32a9.7,9.7,0,1,1-9.7-9.7,9.7,9.7,0,0,1,9.7,9.7Z" transform="translate(-41 -29)"/><path class="cls-21" d="M235.25,117.23s-1.82,2-2.07,2.15-5.54,22.45-5.63,22.71-6.31,20.39-6.31,20.39l-9.94,4.89.83-24.62,7.29-20.3s2.4-2.73,3.15-3.73,10-7,10-7l1.58,3.27Z" transform="translate(-41 -29)"/><path class="cls-6" d="M233.94,115.53l-11.44,8.19-.18-4.5c.74-1,10-7,10-7Z" transform="translate(-41 -29)"/><path class="cls-21" d="M234.18,115l-11.43,8.19-.18-4.5c.75-1,10-7,10-7Z" transform="translate(-41 -29)"/><path class="cls-10" d="M222.19,116.72l.38,2-2.56,2.6,2.05-4.57s-4.38,3-5.69,3.86a8.31,8.31,0,0,0-2.67,4.29c0,.74-2.12,12-2.12,12s-1.55,4.16-1.11,5.35-2.37,38.41-2.37,38.41a5.53,5.53,0,0,1,3.74-2.87l-1-22s1.22-14.64,1.28-14.82l2.83-8.68Z" transform="translate(-41 -29)"/><path class="cls-6" d="M222.82,119l-.2,4.08s-2.76,8.74-3.69,10.16-3.76,9.95-3.76,9.95L213.57,158l-2.73,1.25-1.35-2.48,2.24-14.29s4.22-12.05,4.85-13.3l3.11-6.57Z" transform="translate(-41 -29)"/><path class="cls-22" d="M222.57,118.72l-.19,4.09s-2.77,8.73-3.7,10.16-3.76,9.94-3.76,9.94l-1.59,14.79-2.73,1.24-1.37-2.48,2.24-14.29s4.22-12,4.84-13.3l3.14-6.55Z" transform="translate(-41 -29)"/><path class="cls-18" d="M190.34,149.88l5.34,3.7s3.77-2.11,1.58-3.48a9.77,9.77,0,0,0-4.85-1.58C191.7,148.52,190.34,149.88,190.34,149.88Z" transform="translate(-41 -29)"/><path class="cls-18" d="M194.33,143a.84.84,0,0,0-.39.7c0,1.14.13,4.14,1.08,2.78,1.17-1.65.95-3.14,2.73-2.07a10.4,10.4,0,0,1,2.86,2.63l-.49-3.57S196.45,141.71,194.33,143Z" transform="translate(-41 -29)"/><path class="cls-6" d="M235.77,186.55a7.85,7.85,0,0,0-.7,2.52,21.08,21.08,0,0,1-18.88-3.64,97,97,0,0,1-2.36-9.94,33,33,0,0,1,0-6.1L233.35,166S237,184.62,235.77,186.55Z" transform="translate(-41 -29)"/><path class="cls-10" d="M247,130.92a19.45,19.45,0,0,0-.3,4.91L242.17,157s-2.18,16.28-2.55,18.45-1,11.75-1,11.75a21,21,0,0,1-22.45-2.24,92,92,0,0,1-2.36-9.94c-.63-3.69,1.21-18.48,2.08-25.05.26-1.94.43-3.17.43-3.17l3.26-12.12s4-10.22,5.51-13.21,7.48-9.68,7.48-9.68c.75-.47,1.94,1.2,2.82,2.72.67,1.15,1.17,2.21,1.17,2.21s7.45,3.23,8.57,5,.93,5.28,1.06,5.47S247.45,129.31,247,130.92Z" transform="translate(-41 -29)"/><path class="cls-6" d="M229.37,123.4s.56,3.3-.88,4.29-11.69,21.24-12.33,22.5c.26-1.95.43-3.17.43-3.17l3.26-12.12s4-10.22,5.51-13.21,7.49-9.68,7.49-9.68c.74-.47,1.93,1.2,2.81,2.71C234.33,117.49,231.55,122.72,229.37,123.4Z" transform="translate(-41 -29)"/><path class="cls-10" d="M229.12,123.16s.56,3.29-.87,4.28-11.7,21.24-12.35,22.5c.26-1.94.44-3.17.44-3.17l3.26-12.12s4-10.22,5.5-13.21,7.49-9.68,7.49-9.68c.74-.47,1.93,1.2,2.82,2.72C234.08,117.24,231.3,122.47,229.12,123.16Z" transform="translate(-41 -29)"/><polygon class="cls-23" points="202.91 123.93 199.4 142.18 199.4 142.18 199.07 143.93 199.07 143.93 198.31 147.85 195.09 147.17 193.59 146.85 172.81 142.45 171.28 142.13 167.79 141.39 168.48 136.86 168.76 134.98 171.28 118.27 202.91 123.93"/><path class="cls-18" d="M224.52,167.84s-8.27,3-6.46,6.53,13.36-2.74,13.36-2.74Z" transform="translate(-41 -29)"/><path class="cls-6" d="M230.42,193.26c0,.25.31,3.42,1.56,4.54S230.42,193.26,230.42,193.26Z" transform="translate(-41 -29)"/><path class="cls-6" d="M222.1,204.51s1.49,4.1,7.39,5.78S222.1,204.51,222.1,204.51Z" transform="translate(-41 -29)"/><path class="cls-6" d="M235.67,101.32a9.71,9.71,0,0,1-4.87,8.41,5.15,5.15,0,0,1-1.45-1.22,1.84,1.84,0,0,1-.5-1.82c.2-.5.74-.81.87-1.32a1.88,1.88,0,0,0,0-.94c-.11-.48-.21-1-.32-1.44s-.25-.89-.65-1-.75.24-1.07.49a3.29,3.29,0,0,1-3.2.53c-.94-.5-.68-2.19-.83-3.1a.56.56,0,0,0-.2-.42.86.86,0,0,0-.42,0,1.23,1.23,0,0,1-1.06-.94,8.41,8.41,0,0,1-.17-1.5,1.66,1.66,0,0,0-.67-1.3,2.09,2.09,0,0,0-1.1-.18l-1.83,0a9.7,9.7,0,0,1,17.49,5.75Z" transform="translate(-41 -29)"/><path class="cls-22" d="M227.9,102.49c.32-.25.67-.58,1.07-.48s.56.58.65,1l.31,1.44a1.87,1.87,0,0,1,0,.94c-.15.51-.68.82-.89,1.32a1.89,1.89,0,0,0,.5,1.82,5.24,5.24,0,0,0,3,1.79,2.29,2.29,0,0,0,.94,0,2.77,2.77,0,0,0,1.53-1.39A22.67,22.67,0,0,0,239,99.08a6.32,6.32,0,0,0-.1-2.17,7.41,7.41,0,0,0-.66-1.59,12.85,12.85,0,0,0-1.88-2.84,10.58,10.58,0,0,0-5-2.82,17,17,0,0,0-6.5-.51c-.59.06-1.15.16-1.72.2a17.31,17.31,0,0,1-2.16,0l-4.29-.25a1.64,1.64,0,0,0,.29,1.55,2.84,2.84,0,0,1,.63,1.51,3.15,3.15,0,0,1-.72,1.45,1.42,1.42,0,0,0-.23,1.53c.3.45.92.48,1.45.48l2.17,0a2.21,2.21,0,0,1,1.1.19A1.71,1.71,0,0,1,222,97a8.3,8.3,0,0,0,.17,1.5,1.21,1.21,0,0,0,1.05.94.75.75,0,0,1,.42,0,.55.55,0,0,1,.21.41c.15.91-.13,2.6.82,3.1A3.33,3.33,0,0,0,227.9,102.49Z" transform="translate(-41 -29)"/><path class="cls-6" d="M240.23,121.65a4.74,4.74,0,0,0-5,3.19c-1.17,3.32-3.11,9.31-2.63,11.68.69,3.35,1.5,8.95,1.5,8.95s3.54,2,1.75,4.1a11.51,11.51,0,0,0-2.3,5,5.2,5.2,0,0,0-2.8,3.11c-.5,2.11-3.85,5-3.85,5l-5,5s8.33,8.45,10,8.88l5.16-6,6.09-8.08L248.4,157s1.24-2.92.62-8.46A40.3,40.3,0,0,0,246,137.69l.19-1.87S246.73,122.45,240.23,121.65Z" transform="translate(-41 -29)"/><path class="cls-10" d="M240.72,121.65a4.74,4.74,0,0,0-5,3.19c-1.17,3.32-3.11,9.31-2.62,11.68.68,3.35,1.49,8.95,1.49,8.95s3.54,2,1.74,4.1a11.57,11.57,0,0,0-2.29,5,5.2,5.2,0,0,0-2.8,3.11c-.5,2.11-3.85,5-3.85,5l-5,5s8.33,8.45,10,8.88l5.16-6,6.07-8.08,5.28-5.54s1.25-2.92.63-8.46a40.73,40.73,0,0,0-3-10.81l.19-1.87S247.23,122.45,240.72,121.65Z" transform="translate(-41 -29)"/><path class="cls-6" d="M235.52,140.56s5.28,6.46,7.52,5S235.52,140.56,235.52,140.56Z" transform="translate(-41 -29)"/><path class="cls-6" d="M237.51,135.59c.56.18,5.16,6.58,7.52,5.83S237.51,135.59,237.51,135.59Z" transform="translate(-41 -29)"/><path class="cls-6" d="M238.81,146.58a3.47,3.47,0,0,0,4.11,3.17C246.71,149.25,238.81,146.58,238.81,146.58Z" transform="translate(-41 -29)"/><polygon class="cls-6" points="181.06 88 179.01 92.57 181.57 89.97 181.06 88"/><polygon class="cls-21" points="181.06 87.75 179.01 92.32 181.57 89.72 181.06 87.75"/><polygon class="cls-24" points="172.81 142.45 171.28 142.13 168.48 136.86 168.76 134.98 172.81 142.45"/><polygon class="cls-24" points="199.4 142.18 199.07 143.93 199.07 143.93 195.09 147.17 193.59 146.85 199.4 142.18"/><path class="cls-6" d="M177.74,150.79c-.77.13-1.51.24-2.19.33-3.79.5-12.81-4-12.81-4s-11-9.2-14.17-17.9,3.79-10,3.79-10c2.63-1.49,8.33,2.67,9.14,3.36a5.18,5.18,0,0,1,1.43,3.54c-.07,1.12,1.86,2.55,1.86,2.55s3.3,5.71,4.11,6.34a3.27,3.27,0,0,1,1.24,2.23c.25,1.06,2.42,1.93,3.35,1.87s2,.31,2,.81.92.59,1.67.66C177.42,143.78,177.64,148,177.74,150.79Z" transform="translate(-41 -29)"/><path class="cls-6" d="M177.71,149.88l-1.67.25c-3.79.5-12.8-4-12.8-4s-11-9.2-14.17-17.9,3.79-10,3.79-10c2.62-1.5,8.33,2.67,9.13,3.35a5.21,5.21,0,0,1,1.44,3.54c-.07,1.12,1.86,2.55,1.86,2.55s3.29,5.72,4.1,6.34a3.25,3.25,0,0,1,1.25,2.24c.25,1.06,2.42,1.92,3.35,1.86s2,.32,2,.81c0,.29.52.49,1.1.58,0,.34,0,.7.07,1.07C177.39,143.46,177.59,147.12,177.71,149.88Z" transform="translate(-41 -29)"/><path class="cls-6" d="M192.13,143.62l-.24,5.59h-.25l-.53-.29.07-4.82A7.68,7.68,0,0,1,192.13,143.62Z" transform="translate(-41 -29)"/><path class="cls-14" d="M152.36,118.74s-7,1.31-3.79,10,14.17,17.9,14.17,17.9,9,4.47,12.81,4,9.56-1.81,10.31-1.62,5.78.19,5.78.19l.25-5.83-5.83-.32-3-.62s-1.06-.87-1.68-.74-1.93-.75-1.93-.75a3.67,3.67,0,0,0-1.75-.81c-.75,0-2.17-.18-2.17-.68s-1.12-.87-2-.81-3.12-.8-3.38-1.87a3.29,3.29,0,0,0-1.24-2.24c-.81-.62-4.11-6.34-4.11-6.34s-1.92-1.43-1.86-2.55a5.2,5.2,0,0,0-1.43-3.54C160.68,121.41,155,117.25,152.36,118.74Z" transform="translate(-41 -29)"/><path class="cls-6" d="M170.26,138.75s-2.67,2.68-2,3.17Z" transform="translate(-41 -29)"/><path class="cls-6" d="M173.12,140.87s-3.48,2.67-2.55,2.86S173.12,140.87,173.12,140.87Z" transform="translate(-41 -29)"/><path class="cls-6" d="M167.21,144.83c.5.25,7.9,4.67,10.69,4.6Z" transform="translate(-41 -29)"/><path class="cls-6" d="M167.71,115.32s-1.3,4.29-1.8,4.29-6.95-5.31-9.69-7.54l.12-.1a5.91,5.91,0,0,1,1.24-2.92C158.58,108.06,167.71,115.32,167.71,115.32Z" transform="translate(-41 -29)"/><path class="cls-14" d="M167.46,114.83s-1.3,4.29-1.8,4.29-6.95-5.32-9.69-7.55l.12-.1a5.91,5.91,0,0,1,1.24-2.92C158.33,107.57,167.46,114.83,167.46,114.83Z" transform="translate(-41 -29)"/><g class="cls-25"><path d="M149.86,101h0c.88,2,3.29,3,4.68,4.55C153.71,103.57,151.28,102.61,149.86,101Z" transform="translate(-41 -29)"/><path d="M158.78,105.57a2.11,2.11,0,0,1-1.92,1,5.39,5.39,0,0,1-1.92-.49,3.81,3.81,0,0,1,.5,1.06,6.08,6.08,0,0,0,2.17.58,2.07,2.07,0,0,0,1.91-1c.56-1.07,0-2-.7-2.84A1.86,1.86,0,0,1,158.78,105.57Z" transform="translate(-41 -29)"/><path d="M169.6,91a10.84,10.84,0,0,0-.77-1.52,9.17,9.17,0,0,1-.32-1.25,3.91,3.91,0,0,0-.9-1.6,3.26,3.26,0,0,1,.15.44,9.21,9.21,0,0,0,.33,1.25,10.43,10.43,0,0,1,.77,1.53,1.58,1.58,0,0,1-1.17,1.82c-1.08.24-2.31-.69-3.24-.09a2.35,2.35,0,0,0-.77,1.79c-.13,1.17-.26,2.33-.4,3.48A4.14,4.14,0,0,1,163,98a3,3,0,0,1-2.86,1.52,1.68,1.68,0,0,1-1.23-.41c-.17-.23-.35-.46-.54-.67-1.46-1.23-1.9,1.77-1.51,2.62a4.86,4.86,0,0,0,.71,1.07c-.32-1,.13-3.73,1.55-2.54a6.78,6.78,0,0,1,.53.67,1.72,1.72,0,0,0,1.23.41,3,3,0,0,0,2.86-1.52A4.16,4.16,0,0,0,164,98c.13-1.17.26-2.33.4-3.48a2.28,2.28,0,0,1,.77-1.79c.93-.6,2.16.33,3.24.09A1.59,1.59,0,0,0,169.6,91Z" transform="translate(-41 -29)"/></g><path class="cls-6" d="M234.15,109.58a2.13,2.13,0,0,1-.94,0,5.2,5.2,0,0,1-3-1.79,1.89,1.89,0,0,1-.5-1.82c.21-.49.75-.8.88-1.32a2,2,0,0,0-.05-.94l-.32-1.43c-.09-.41-.24-.89-.65-1s-.74.24-1.06.49a3.33,3.33,0,0,1-3.21.52c-.93-.5-.67-2.19-.82-3.1a.55.55,0,0,0-.21-.41.75.75,0,0,0-.42,0,1.22,1.22,0,0,1-1.06-.94,8.3,8.3,0,0,1-.16-1.5A1.69,1.69,0,0,0,222,95a2.18,2.18,0,0,0-1.1-.19l-2.16,0c-.53,0-1.17,0-1.46-.48a1.46,1.46,0,0,1,.23-1.52,3,3,0,0,0,.72-1.46,2.69,2.69,0,0,0-.63-1.51,2.46,2.46,0,0,1-.36-.83l-.62,0a1.66,1.66,0,0,0,.29,1.56,2.84,2.84,0,0,1,.63,1.5,3.23,3.23,0,0,1-.72,1.46,1.42,1.42,0,0,0-.23,1.52,1.61,1.61,0,0,0,1.46.48l2.16,0a2.08,2.08,0,0,1,1.1.19,1.68,1.68,0,0,1,.67,1.3,8.51,8.51,0,0,0,.17,1.5,1.21,1.21,0,0,0,1.06.93,1,1,0,0,1,.42,0,.54.54,0,0,1,.2.41c.16.91-.12,2.6.83,3.11a3.3,3.3,0,0,0,3.21-.53c.31-.25.67-.58,1.06-.49s.56.59.65,1l.32,1.44a2,2,0,0,1,.05.94c-.15.51-.69.82-.89,1.31a1.88,1.88,0,0,0,.49,1.83,5.36,5.36,0,0,0,3,1.79,2.29,2.29,0,0,0,.94,0,2.18,2.18,0,0,0,1.21-.92A1.75,1.75,0,0,1,234.15,109.58Z" transform="translate(-41 -29)"/><ellipse class="cls-1" cx="59.39" cy="208.26" rx="7.05" ry="1.08"/><ellipse class="cls-1" cx="305.44" cy="180.14" rx="7.05" ry="1.08"/><ellipse class="cls-1" cx="233.6" cy="223.72" rx="20.41" ry="3.13"/><ellipse class="cls-1" cx="291.61" cy="210.46" rx="15.92" ry="2.44"/><ellipse class="cls-1" cx="288.99" cy="234.8" rx="27" ry="4.14"/><ellipse class="cls-1" cx="29.23" cy="238.45" rx="20.41" ry="3.13"/><path class="cls-23" d="M100.71,202.81s.8,1-.37,2.62-2.13,2.92-1.75,3.89c0,0,1.75-2.91,3.21-3S102.29,204.57,100.71,202.81Z" transform="translate(-41 -29)"/><path class="cls-6" d="M100.71,202.81a1.26,1.26,0,0,1,.16.33c1.4,1.64,2.14,3.17.8,3.2s-2.75,2.28-3.11,2.84a.5.5,0,0,0,0,.13s1.75-2.91,3.21-3S102.29,204.57,100.71,202.81Z" transform="translate(-41 -29)"/><path class="cls-26" d="M102.2,204.14c0,.37,0,.66-.1.66s-.09-.29-.09-.66,0-.19.1-.19S102.2,203.77,102.2,204.14Z" transform="translate(-41 -29)"/><path class="cls-26" d="M102.7,204.58c-.32.17-.6.29-.62.24s.21-.23.54-.4.19,0,.21,0S103,204.4,102.7,204.58Z" transform="translate(-41 -29)"/><path class="cls-23" d="M96.49,202.81s-.8,1,.37,2.62,2.13,2.92,1.75,3.89c0,0-1.75-2.91-3.19-3S94.91,204.57,96.49,202.81Z" transform="translate(-41 -29)"/><path class="cls-6" d="M96.49,202.81a1.26,1.26,0,0,0-.16.33c-1.4,1.64-2.14,3.17-.8,3.2s2.75,2.28,3.11,2.84a.5.5,0,0,1,0,.13s-1.75-2.91-3.19-3S94.91,204.57,96.49,202.81Z" transform="translate(-41 -29)"/><path class="cls-26" d="M95,204.14c0,.37,0,.66.09.66s.09-.29.09-.66,0-.19-.1-.19S95,203.77,95,204.14Z" transform="translate(-41 -29)"/><path class="cls-26" d="M94.5,204.58c.32.17.6.29.63.24s-.22-.23-.54-.4-.2,0-.22,0S94.17,204.4,94.5,204.58Z" transform="translate(-41 -29)"/><ellipse class="cls-1" cx="57.6" cy="187.03" rx="8.35" ry="1.28"/><path class="cls-27" d="M102.9,207.91l0,.33-.06.46,0,.19-.06.46,0,.2-.06.46-.64,5.24c0,.47-.82.83-1.75.83H97c-.92,0-1.69-.36-1.75-.83L94.56,210l-.06-.46,0-.2-.06-.46,0-.19-.06-.46,0-.33c0-.26.38-.48.91-.48H102C102.52,207.43,102.93,207.65,102.9,207.91Z" transform="translate(-41 -29)"/><polygon class="cls-28" points="61.86 179.24 61.8 179.7 53.4 179.7 53.34 179.24 61.86 179.24"/><polygon class="cls-28" points="61.78 179.89 61.72 180.35 53.48 180.35 53.42 179.89 61.78 179.89"/><polygon class="cls-28" points="61.7 180.54 61.64 181.01 53.56 181.01 53.5 180.54 61.7 180.54"/><path class="cls-23" d="M340.89,198.77s-1,4.64,3.43,5.19l.28-.51S341.16,200.21,340.89,198.77Z" transform="translate(-41 -29)"/><path class="cls-23" d="M346,203.41l-1,.22-.11,0s-2.75-2.23-2.71-7.22a12.13,12.13,0,0,0,1.31,2.08A12.47,12.47,0,0,1,346,203.41Z" transform="translate(-41 -29)"/><path class="cls-23" d="M346.36,203.89a.69.69,0,0,1-.56.07c-2.65-.62-1.75-9.25-1.75-9.25s.29,1.17.92,2.59C346,199.78,347.21,203.26,346.36,203.89Z" transform="translate(-41 -29)"/><path class="cls-23" d="M352.23,198.77s.17,4.64-4.26,5.19l-.28-.52S352,200.21,352.23,198.77Z" transform="translate(-41 -29)"/><path class="cls-23" d="M351,196.44a8.59,8.59,0,0,1-3.54,7.22l-.11,0-1-.22a12.61,12.61,0,0,1,2.54-4.9A10.55,10.55,0,0,1,351,196.44Z" transform="translate(-41 -29)"/><path class="cls-23" d="M347.3,203.44a1.63,1.63,0,0,1-.59.45h0l-.21.07c-.65.15-.88-.32-.84-1.11a20.44,20.44,0,0,1,1.75-5.73,6.9,6.9,0,0,1,1.66-2.4S349,201.43,347.3,203.44Z" transform="translate(-41 -29)"/><path class="cls-23" d="M346.56,191.69s-3,10.49-.41,12.06S347.21,192.61,346.56,191.69Z" transform="translate(-41 -29)"/><path class="cls-6" d="M340.89,198.77s-1,4.64,3.43,5.19l.28-.51S341.16,200.21,340.89,198.77Z" transform="translate(-41 -29)"/><path class="cls-6" d="M346,203.41l-1,.22-.11,0s-2.75-2.23-2.71-7.22a12.13,12.13,0,0,0,1.31,2.08A12.47,12.47,0,0,1,346,203.41Z" transform="translate(-41 -29)"/><path class="cls-6" d="M346.36,203.89a.69.69,0,0,1-.56.07c-2.65-.62-1.75-9.25-1.75-9.25s.29,1.17.92,2.59C346,199.78,347.21,203.26,346.36,203.89Z" transform="translate(-41 -29)"/><path class="cls-6" d="M352.23,198.77s.17,4.64-4.26,5.19l-.28-.52S352,200.21,352.23,198.77Z" transform="translate(-41 -29)"/><path class="cls-6" d="M351,196.44a8.59,8.59,0,0,1-3.54,7.22l-.11,0-1-.22a12.61,12.61,0,0,1,2.54-4.9A10.55,10.55,0,0,1,351,196.44Z" transform="translate(-41 -29)"/><path class="cls-6" d="M347.3,203.44a1.63,1.63,0,0,1-.59.45h0l-.21.07c-.65.15-.88-.32-.84-1.11a20.44,20.44,0,0,1,1.75-5.73,6.9,6.9,0,0,1,1.66-2.4S349,201.43,347.3,203.44Z" transform="translate(-41 -29)"/><path class="cls-6" d="M346.56,191.69s-3,10.49-.41,12.06S347.21,192.61,346.56,191.69Z" transform="translate(-41 -29)"/><path class="cls-23" d="M340.89,198.77s-.59,4.64,3.84,5.19l.28-.51S341.16,200.21,340.89,198.77Z" transform="translate(-41 -29)"/><path class="cls-23" d="M346.42,203.41l-1,.22-.1,0a8.84,8.84,0,0,1-3.14-7.21s.81.87,1.72,2.08A12.27,12.27,0,0,1,346.42,203.41Z" transform="translate(-41 -29)"/><path class="cls-6" d="M346.42,203.41l-1,.22c-1-.86-1.37-3.1-1.51-5.12A12.47,12.47,0,0,1,346.42,203.41Z" transform="translate(-41 -29)"/><path class="cls-23" d="M346.77,203.89a.69.69,0,0,1-.56.07c-2.64-.62-2.16-9.25-2.16-9.25a11.87,11.87,0,0,1,1.33,2.59C346.45,199.78,347.62,203.26,346.77,203.89Z" transform="translate(-41 -29)"/><path class="cls-23" d="M352.23,198.77s.58,4.64-3.85,5.19l-.27-.51S352,200.21,352.23,198.77Z" transform="translate(-41 -29)"/><path class="cls-23" d="M351,196.44a8.86,8.86,0,0,1-3.13,7.22l-.1,0-1-.22a12.61,12.61,0,0,1,2.54-4.9C350.15,197.31,351,196.44,351,196.44Z" transform="translate(-41 -29)"/><path class="cls-6" d="M349.23,198.51c-.13,1.88-.48,4-1.31,4.92l-.19.2-1-.22A12.47,12.47,0,0,1,349.23,198.51Z" transform="translate(-41 -29)"/><path class="cls-23" d="M347.71,203.44a1.69,1.69,0,0,1-.58.45h0l-.22.07c-.65.15-.88-.32-.84-1.11a20.44,20.44,0,0,1,1.75-5.73,10.79,10.79,0,0,1,1.25-2.4S349.44,201.43,347.71,203.44Z" transform="translate(-41 -29)"/><path class="cls-6" d="M346.77,203.89a.71.71,0,0,1-.42-.14c-1.25-.77-1.27-3.68-1-6.45C346.45,199.78,347.62,203.26,346.77,203.89Z" transform="translate(-41 -29)"/><path class="cls-6" d="M347.71,203.44c-.14.31-.34.47-.58.45h0a.8.8,0,0,1-.36-.14,1.88,1.88,0,0,1-.7-.9,20.44,20.44,0,0,1,1.75-5.73C348.1,199.67,348.2,202.38,347.71,203.44Z" transform="translate(-41 -29)"/><path class="cls-23" d="M346.56,191.69s-2.55,10.49,0,12.06S347.21,192.61,346.56,191.69Z" transform="translate(-41 -29)"/><polygon class="cls-29" points="310.44 174.24 299.85 174.24 299.85 175.99 301.47 175.99 301.51 176.2 302.15 179.6 308.31 179.6 308.96 176.2 308.99 175.99 310.44 175.99 310.44 174.24"/><polygon class="cls-6" points="310.44 174.24 299.85 174.24 299.85 175.99 301.47 175.99 301.51 176.2 302.15 179.6 308.31 179.6 308.96 176.2 308.99 175.99 310.44 175.99 310.44 174.24"/><polygon class="cls-29" points="309.55 175.27 309.37 176.2 308.72 179.6 302.56 179.6 301.92 176.2 301.74 175.27 309.55 175.27"/><polygon class="cls-6" points="309.55 175.27 309.37 176.2 301.92 176.2 301.74 175.27 309.55 175.27"/><rect class="cls-29" x="300.26" y="174.24" width="10.59" height="1.75"/><path class="cls-23" d="M81.64,233.22a5.05,5.05,0,0,0-.66,1.26,2.84,2.84,0,0,0-.13.35.9.9,0,0,0-.23-.08,3,3,0,0,0-1-.09c0-.14,0-.29,0-.43.05-1.54-.13-3.68-1.6-2.77s-.4,2.33.5,3.27l.24.23c-.83.58-1,2-1.13,3.39a7.86,7.86,0,0,1-2.16,3.89l-.22.25a3,3,0,0,0-2.35-.61c0-.12-.07-.25-.11-.39-.65-2.36-2-6.45-3.74-7.34l.23-.29c.74-1,1.56-2.39.34-2.75s-1.33,1.23-1.26,2.43c0,.15,0,.3,0,.43a1.8,1.8,0,0,0-1.28.63l-.18-.23c-1-1.16-2.81-3-3.36-1.62s1.08,3,2.21,4l.07.06c-.76,3.06,2.54,5.56,4.32,6.65l.23.14c-2.45,2.89-4,8.3-4,8.3l6.85,1.23s4.55-3.93,4-7.61h0c4.55-.91,5.58-5.76,4.87-8.64l.09,0a5.22,5.22,0,0,0,2.1-1.59A1.69,1.69,0,0,0,81.64,233.22Z" transform="translate(-41 -29)"/><path class="cls-6" d="M81.64,233.22a5.05,5.05,0,0,0-.66,1.26,2.84,2.84,0,0,0-.13.35.9.9,0,0,0-.23-.08,3,3,0,0,0-1-.09c0-.14,0-.29,0-.43.05-1.54-.13-3.68-1.6-2.77s-.4,2.33.5,3.27l.24.23c-.83.58-1,2-1.13,3.39a7.86,7.86,0,0,1-2.16,3.89l-.22.25a3,3,0,0,0-2.35-.61c0-.12-.07-.25-.11-.39-.65-2.36-2-6.45-3.74-7.34l.23-.29c.74-1,1.56-2.39.34-2.75s-1.33,1.23-1.26,2.43c0,.15,0,.3,0,.43a1.8,1.8,0,0,0-1.28.63l-.18-.23c-1-1.16-2.81-3-3.36-1.62s1.08,3,2.21,4l.07.06c-.76,3.06,2.54,5.56,4.32,6.65l.23.14c-2.45,2.89-4,8.3-4,8.3l6.85,1.23s4.55-3.93,4-7.61h0c4.55-.91,5.58-5.76,4.87-8.64l.09,0a5.22,5.22,0,0,0,2.1-1.59A1.69,1.69,0,0,0,81.64,233.22Z" transform="translate(-41 -29)"/><path class="cls-23" d="M68,235.22l-.8,2.33s-.45-.32-1-.81c-1.13-1-2.73-2.68-2.21-4s2.36.45,3.35,1.62C67.72,234.84,68,235.22,68,235.22Z" transform="translate(-41 -29)"/><path class="cls-23" d="M69.68,233.86a9.73,9.73,0,0,1-.78.92,10.29,10.29,0,0,1-.14-1.23c-.07-1.21.06-2.8,1.26-2.44S70.42,232.9,69.68,233.86Z" transform="translate(-41 -29)"/><path class="cls-23" d="M80,234.23c0,.77-.1,1.39-.1,1.39a9.35,9.35,0,0,1-1-.89c-.91-.94-1.91-2.4-.51-3.27S80.07,232.69,80,234.23Z" transform="translate(-41 -29)"/><path class="cls-23" d="M84.76,235.24a5.05,5.05,0,0,1-2.1,1.59,6,6,0,0,1-.71.26l-1-1.33a8.6,8.6,0,0,1,.4-1.28,5.05,5.05,0,0,1,.66-1.26A1.69,1.69,0,0,1,84.76,235.24Z" transform="translate(-41 -29)"/><path class="cls-6" d="M67.32,234.37c.4.47.67.83.67.83l-.8,2.33a11.43,11.43,0,0,1-1-.81,4.5,4.5,0,0,1,.9-2.06A3.36,3.36,0,0,0,67.32,234.37Z" transform="translate(-41 -29)"/><path class="cls-6" d="M69.68,233.86a9.73,9.73,0,0,1-.78.92,10.29,10.29,0,0,1-.14-1.23A1.54,1.54,0,0,1,69.68,233.86Z" transform="translate(-41 -29)"/><path class="cls-23" d="M73.62,243.18l-2,.87a11.61,11.61,0,0,1-1.06-.6c-2.1-1.29-6.31-4.53-3.5-8.36s5.18,3,6.12,6.4C73.47,242.51,73.62,243.18,73.62,243.18Z" transform="translate(-41 -29)"/><path class="cls-6" d="M78.92,234.73a1.66,1.66,0,0,1,1.1-.5c0,.77-.1,1.39-.1,1.39A10.44,10.44,0,0,1,78.92,234.73Z" transform="translate(-41 -29)"/><path class="cls-6" d="M82.66,236.83a5.89,5.89,0,0,1-.7.26L81,235.76a9.91,9.91,0,0,1,.39-1.28A3.45,3.45,0,0,1,82.66,236.83Z" transform="translate(-41 -29)"/><path class="cls-23" d="M77.7,245.5l-.33.06c-6.69,1-2.21-2.59-2.21-2.59s.3-.29.71-.73A7.89,7.89,0,0,0,78,238.35c.21-2.17.46-4.2,3-3.6S84,244.23,77.7,245.5Z" transform="translate(-41 -29)"/><rect class="cls-30" x="23.81" y="233.15" width="12.77" height="3.36"/><rect class="cls-30" x="21.78" y="222.23" width="16.69" height="11.72"/><rect class="cls-6" x="23.81" y="233.15" width="12.77" height="3.36"/><rect class="cls-6" x="21.78" y="222.23" width="16.69" height="11.72"/><rect class="cls-30" x="24.65" y="233.15" width="12.77" height="3.36"/><path class="cls-6" d="M73.19,241.49c.29,1,.43,1.69.43,1.69l-2,.87a11.61,11.61,0,0,1-1.06-.6A5.09,5.09,0,0,1,73.19,241.49Z" transform="translate(-41 -29)"/><path class="cls-6" d="M77.7,245.5l-.33.06c-6.69,1-2.21-2.59-2.21-2.59s.3-.29.71-.73A4.39,4.39,0,0,1,77.7,245.5Z" transform="translate(-41 -29)"/><path class="cls-23" d="M66.84,251.89s3.74-13.41,9-9.27-2.14,10.5-2.14,10.5Z" transform="translate(-41 -29)"/><circle class="cls-6" cx="27.72" cy="208.2" r="0.42"/><circle class="cls-6" cx="27.69" cy="210.16" r="0.42"/><circle class="cls-6" cx="39.87" cy="208.58" r="0.42"/><circle class="cls-6" cx="30.07" cy="218.63" r="0.42"/><circle class="cls-6" cx="38.99" cy="211.84" r="0.42"/><circle class="cls-6" cx="34.65" cy="216.18" r="0.42"/><circle class="cls-6" cx="29.16" cy="209.04" r="0.42"/><circle class="cls-6" cx="38.71" cy="209.84" r="0.42"/><circle class="cls-6" cx="37.28" cy="213.09" r="0.42"/><circle class="cls-6" cx="32.87" cy="218.31" r="0.42"/><circle class="cls-6" cx="31.96" cy="216.25" r="0.42"/><circle class="cls-6" cx="29.79" cy="211.59" r="0.42"/><rect class="cls-6" x="24.65" y="233.15" width="12.77" height="1.23"/><rect class="cls-30" x="22.62" y="222.23" width="16.69" height="11.72"/><circle class="cls-6" cx="33.43" cy="220.2" r="0.42"/><circle class="cls-6" cx="30.91" cy="220.72" r="0.42"/><circle class="cls-1" cx="14.58" cy="15.16" r="3.05"/><circle class="cls-1" cx="307.47" cy="111.11" r="4.08"/><circle class="cls-1" cx="315.34" cy="102.36" r="2.98"/><circle class="cls-1" cx="19.83" cy="4.08" r="4.08"/><circle class="cls-1" cx="4.08" cy="22.74" r="4.08"/><g id="layer1"><g id="g3013"><polygon id="polygon2989" class="cls-31" points="198.47 60.73 196.15 81.82 185.72 84.17 175.32 81.82 173 60.73 198.47 60.73"/><polygon id="polygon2991" class="cls-32" points="194.17 80.48 196.15 62.46 185.74 62.46 185.74 82.37 194.17 80.48"/><polygon id="polygon2993" class="cls-33" points="178.31 70.28 178.6 72.87 185.74 72.87 185.74 70.28 178.31 70.28"/><polygon id="polygon2995" class="cls-33" points="185.74 65.04 185.73 65.04 177.74 65.04 178.03 67.63 185.74 67.63 185.74 65.04"/><polygon id="polygon2997" class="cls-33" points="185.74 79.69 185.74 77 185.72 77 182.17 76.22 181.94 74.16 180.22 74.16 178.74 74.16 179.19 78.22 185.72 79.69 185.74 79.69"/><path id="path2999" d="M220,84h3.87v1.31h-2.25v1.31h2.25v1.31H220Z" transform="translate(-41 -29)"/><path id="path3001" d="M224.63,84h3.86v1.14h-2.25v.23h2.25V88h-3.86v-1.2h2.25v-.23h-2.25Z" transform="translate(-41 -29)"/><path id="path3003" d="M229.26,84h3.87v1.14h-2.25v.23h2.25V88h-3.87v-1.2h2.25v-.23h-2.25Z" transform="translate(-41 -29)"/><polygon id="polygon3005" class="cls-7" points="189.65 72.87 189.28 76.22 185.73 77 185.73 79.69 192.26 78.22 192.31 77.78 193.06 70.97 193.14 70.28 193.71 65.04 185.73 65.04 185.73 67.63 190.22 67.63 189.93 70.28 185.73 70.28 185.73 72.87 189.65 72.87"/></g></g><image width="500" height="500" transform="translate(98 45) scale(0.09 0.07)" xlink:href="../../../../../../../Downloads/js-logo.png"/><image width="512" height="512" transform="translate(138 105) scale(0.06 0.04)" xlink:href="../../../../../../../Downloads/PgcSR.png"/></svg>