<svg id="Layer_1" data-name="Layer 1" xmlns="http://www.w3.org/2000/svg" viewBox="0 0 528 254.88"><defs><style>.cls-1,.cls-8{fill:#3f3d56;}.cls-2{fill:#6c63ff;}.cls-3{fill:#d0cde1;}.cls-4{fill:#ffb8b8;}.cls-5{fill:#2f2e41;}.cls-6{fill:#575a89;}.cls-7{opacity:0.2;isolation:isolate;}.cls-8{font-size:34px;font-family:Montserrat-Black, Montserrat;font-weight:800;}.cls-9{letter-spacing:-0.01em;}.cls-10{letter-spacing:-0.04em;}.cls-11{letter-spacing:-0.02em;}.cls-12{letter-spacing:-0.01em;}</style></defs><title>what-5</title><rect class="cls-1" x="199.24" y="75.6" width="114.2" height="202.45" transform="translate(10.43 313.43) rotate(-74.21)"/><circle class="cls-2" cx="171.84" cy="36.99" r="1.61"/><circle class="cls-2" cx="176.8" cy="38.39" r="1.61"/><circle class="cls-2" cx="181.77" cy="39.8" r="1.61"/><path class="cls-2" d="M277.86,164.06a18.86,18.86,0,0,0-7.88.19,18.58,18.58,0,0,0,.56-7.95,18.69,18.69,0,0,0-7,4.54,18.65,18.65,0,0,0-3.61-7.56,18.88,18.88,0,0,0-3.69,7.07,18.88,18.88,0,0,0-6.61-4.28s-1.18,6,1.65,10.88c2.52,4.36,7.36,6.41,8.39,6.8l0,0h0l.16.06.05-.32.06-.07v.09l-.12.3.17,0v0h0c1.09.2,6.28,1,10.71-1.4C275.73,169.77,277.86,164.06,277.86,164.06Z" transform="translate(-6 -61.94)"/><circle class="cls-2" cx="262.2" cy="82.66" r="4.19"/><rect class="cls-2" x="256.03" y="117.11" width="2.85" height="131.01" transform="translate(5.67 318.72) rotate(-74.21)"/><rect class="cls-2" x="199.25" y="183.07" width="22.59" height="22.59" transform="translate(-39.78 282.12) rotate(-74.21)"/><rect class="cls-2" x="239.61" y="194.48" width="22.59" height="22.59" transform="translate(-21.38 329.27) rotate(-74.21)"/><rect class="cls-2" x="279.98" y="205.9" width="22.59" height="22.59" transform="translate(-2.98 376.42) rotate(-74.21)"/><rect class="cls-2" x="205.01" y="202.12" width="1.94" height="16.78" transform="matrix(0.27, -0.96, 0.96, 0.27, -58.64, 289.48)"/><rect class="cls-2" x="245.37" y="213.53" width="1.94" height="16.78" transform="matrix(0.27, -0.96, 0.96, 0.27, -40.24, 336.63)"/><rect class="cls-2" x="285.74" y="224.95" width="1.94" height="16.78" transform="translate(-21.84 383.78) rotate(-74.21)"/><ellipse class="cls-3" cx="110.11" cy="180.82" rx="107.98" ry="3.99"/><ellipse class="cls-3" cx="301.95" cy="226.06" rx="84.03" ry="3.99"/><polygon class="cls-4" points="31.19 169.25 30.37 178.56 36.94 178.01 36.94 170.07 31.19 169.25"/><polygon class="cls-4" points="25.17 169.25 25.99 178.56 19.43 178.01 19.43 170.07 25.17 169.25"/><path class="cls-5" d="M48.41,159.79s2.19,13.13,2.19,15-.82,14.23-2.19,16.69-1.64,3.56-1.09,4.66.27.82,0,1.64-.83.54,0,1.64a2.89,2.89,0,0,1,0,3.28c-.55.82,1.09,23-1.1,24.63s-2.74,7.11-2.74,7.11l-7.11-.82v-6s-1.64-4.38-.55-7.11,1.65-17.24,1.65-17.24a5.32,5.32,0,0,1,0-2.19,1.22,1.22,0,0,0-.55-1.64c-.55-.27-.82-1.37-.82-1.37l-.82-20L32,197.82s3.29,26.81,0,30.37v6.29H24.88L26,227.64s-2.19-6.29-1.09-7.66-3.28-23.26-2.74-24.08.28-1.09,0-1.64-1.09-1.09-.82-1.64a3.06,3.06,0,0,0,0-1.64s-5.2-25.72-2.73-28.18S48.41,159.79,48.41,159.79Z" transform="translate(-6 -61.94)"/><path class="cls-5" d="M38,236.94s.55-2.62,4.93-1.72A11.82,11.82,0,0,1,44,238.59c0,1.09,1.1,8.48,1.1,8.48s4.37,7.39-1.1,7.39-7.39-1.92-7.66-3.84.27-2.46-.82-3.28-1.64-.82-1.37-1.91.82-6.57.82-6.57.28-4.1,1.78-3l1.51,1.09" transform="translate(-6 -61.94)"/><path class="cls-5" d="M30.35,236.94s-.55-2.62-4.92-1.72a11.74,11.74,0,0,0-1.1,3.37c0,1.09-1.09,8.48-1.09,8.48s-4.38,7.39,1.09,7.39,7.39-1.92,7.66-3.84-.27-2.46.82-3.28,1.65-.82,1.37-1.91-.82-6.57-.82-6.57-.27-4.1-1.78-3l-1.5,1.09" transform="translate(-6 -61.94)"/><circle class="cls-4" cx="32.29" cy="40.11" r="7.39"/><path class="cls-4" d="M32.27,103.15s-3,11.76-3.56,12,12.59,1.36,12.59,1.36-3.29-10.12,0-11.76Z" transform="translate(-6 -61.94)"/><path class="cls-3" d="M30.34,110.32h0l-9,6.23,1.64,49s12-1.37,14.78-1.09S49.23,162,49.23,162L45.4,116a3.79,3.79,0,0,0-3.51-3.45l-1.64-.12s-1.64,4.06-6.58,2A5.79,5.79,0,0,1,30.34,110.32Z" transform="translate(-6 -61.94)"/><path class="cls-6" d="M30.56,109.87l-11.15,5.32-2.19,31.46S12.84,165.53,16.4,171A13.81,13.81,0,0,0,26,177s7.94-31.46,5.75-42.13S30.56,109.87,30.56,109.87Z" transform="translate(-6 -61.94)"/><path class="cls-4" d="M9.56,157.32v4.11s-1.64,9,3.55,8.75,2.74-9.85,2.74-9.85l-1.64-3Z" transform="translate(-6 -61.94)"/><path class="cls-4" d="M57.71,165.53l-.54,4.65s2.73,9.31-2.47,9.58-1.42-9.52-1.42-9.52L55,165Z" transform="translate(-6 -61.94)"/><path class="cls-6" d="M40.09,111.42h0a32.22,32.22,0,0,1,13.47,7l0,0-3.83,20.25-.55,7.38S59.35,182.22,47.59,177c0,0-10.12-31.46-8.76-46S40.09,111.42,40.09,111.42Z" transform="translate(-6 -61.94)"/><path class="cls-6" d="M50.05,118.2c.28-.28,3.56.38,3.56.38s6,21.23,6,24.79.82,23.8.82,23.8l-7.22.73-5.85-28.13Z" transform="translate(-6 -61.94)"/><path class="cls-6" d="M21.32,115.19H19.41s-5.48,2.19-5.75,4.65S6,147.2,6,147.2l1.92,12.59,7.11-1.1,1.37-13.95,7.11-15.33Z" transform="translate(-6 -61.94)"/><path class="cls-5" d="M36.85,104.12l.28-2c.07-.46.34-1.06.79-.94s1.21.43,1.35.33c.52-.36,1.3.28,1.85,0,.23-.13.38-.43.65-.45a.72.72,0,0,1,.47.22,3.19,3.19,0,0,0,1.23.66,1.32,1.32,0,0,0,1.29-.35.66.66,0,0,1,.22-.22.53.53,0,0,1,.33,0l1.4.38A5.35,5.35,0,0,0,46,97.32a8.76,8.76,0,0,0-2-2c-.87-.66-1.76-1.28-2.68-1.86A8.7,8.7,0,0,0,38,92.05a3.48,3.48,0,0,0-3.24,1.07,2,2,0,0,1-.75-1A.76.76,0,0,0,34,93.19a.47.47,0,0,0,.1.1l-1.18-.76c-.33.35.31,1,0,1.37a.64.64,0,0,1-.32.21,5.39,5.39,0,0,0-1.73,1.09,6.6,6.6,0,0,0-1.37,2.52c-.7,2-1.21,4.33-.21,6.23.11.21,1.61,3.75,1.81,3.89.67.47.24-.66.72,0s.31-1.47.87-1a1.39,1.39,0,0,0,1.53.06c.23-.16.16-1.06,0-1.88a1,1,0,0,1,.81-1.11.92.92,0,0,1,.37,0A4.36,4.36,0,0,0,36.85,104.12Z" transform="translate(-6 -61.94)"/><polygon class="cls-7" points="44.74 81.01 47.74 105.91 45.83 105.91 44.74 81.01"/><polygon class="cls-7" points="13 71.44 11.47 81.01 14.37 71.44 13.54 71.44 13 71.44"/><text class="cls-8" transform="translate(61.98 28.9)"><tspan class="cls-9">J</tspan><tspan class="cls-10" x="19.01" y="0">AV</tspan><tspan x="70.41" y="0">ASCRI</tspan><tspan class="cls-11" x="182.68" y="0">P</tspan><tspan x="207.09" y="0">T</tspan></text><text class="cls-8" transform="translate(75.98 174.9)">HTML</text><text class="cls-8" transform="translate(290.98 221.9)"><tspan class="cls-12">C</tspan><tspan x="24.96" y="0">SS</tspan></text></svg>