<svg id="Layer_1" data-name="Layer 1" xmlns="http://www.w3.org/2000/svg" xmlns:xlink="http://www.w3.org/1999/xlink" viewBox="0 0 417 257.09"><defs><style>.cls-1{fill:#264de4;}.cls-2{fill:#2965f1;}.cls-3{fill:#ebebeb;}.cls-4{fill:#fff;}.cls-5{font-size:96px;font-family:MyriadPro-Regular, Myriad Pro;}.cls-6{font-size:187px;}.cls-6,.cls-7{fill:red;font-family:Montserrat-Black, Montserrat;font-weight:800;}.cls-7{font-size:80px;stroke:#fff;stroke-miterlimit:10;stroke-width:3px;}</style></defs><title>what-8</title><g id="layer1"><g id="g3013"><polygon id="polygon2989" class="cls-1" points="48.8 107.3 44.35 157.1 24.37 162.63 4.44 157.1 0 107.3 48.8 107.3"/><polygon id="polygon2991" class="cls-2" points="40.54 153.93 44.34 111.37 24.4 111.37 24.4 158.4 40.54 153.93"/><polygon id="polygon2993" class="cls-3" points="10.18 129.84 10.73 135.95 24.4 135.95 24.4 129.84 10.18 129.84"/><polygon id="polygon2995" class="cls-3" points="24.4 117.48 24.38 117.48 9.08 117.48 9.63 123.59 24.4 123.59 24.4 117.48"/><polygon id="polygon2997" class="cls-3" points="24.4 152.06 24.4 145.71 24.37 145.71 17.57 143.88 17.13 139 13.83 139 11 139 11.86 148.6 24.37 152.07 24.4 152.06"/><path id="path2999" d="M25.48,150h7.4v3.09h-4.3v3.1h4.3v3.09h-7.4Z" transform="translate(-14 -56.21)"/><path id="path3001" d="M34.36,150h7.4v2.69h-4.3v.54h4.3v6.18h-7.4v-2.82h4.31V156H34.36Z" transform="translate(-14 -56.21)"/><path id="path3003" d="M43.24,150h7.4v2.69H46.33v.54h4.31v6.18h-7.4v-2.82h4.31V156H43.24Z" transform="translate(-14 -56.21)"/><polygon id="polygon3005" class="cls-4" points="31.9 135.95 31.19 143.87 24.38 145.71 24.38 152.07 36.9 148.6 36.99 147.56 38.43 131.48 38.58 129.84 39.68 117.48 24.38 117.48 24.38 123.59 32.98 123.59 32.43 129.84 24.38 129.84 24.38 135.95 31.9 135.95"/></g></g><image width="500" height="500" transform="translate(25 8.79) scale(0.14)" xlink:href="../../../../../../../Downloads/js-logo.png"/><image width="512" height="512" transform="translate(60 92.79) scale(0.14)" xlink:href="../../../../../../../Downloads/PgcSR.png"/><text class="cls-5" transform="translate(158.55 119.61)">=</text><text class="cls-6" transform="translate(229.49 158.95)">X</text><text class="cls-7" transform="translate(65.49 159.56)">X</text></svg>