<svg id="Layer_1" data-name="Layer 1" xmlns="http://www.w3.org/2000/svg" viewBox="0 0 342.84 232"><defs><style>.cls-1{fill:#f2f2f2;}.cls-2,.cls-8{fill:#fff;}.cls-3{fill:#2f2e41;}.cls-4{fill:#ffb8b8;}.cls-5{fill:#ccc;}.cls-6{fill:#3f3d56;}.cls-7{fill:#6c63ff;}.cls-8{font-size:12px;font-family:Montserrat-Bold, Montserrat;font-weight:700;}.cls-9{letter-spacing:0.01em;}.cls-10{letter-spacing:-0.01em;}.cls-11{letter-spacing:-0.01em;}.cls-12{letter-spacing:-0.01em;}.cls-13{letter-spacing:0.01em;}.cls-14{letter-spacing:0.01em;}</style></defs><title>what-6</title><path class="cls-1" d="M328.6,110.17c-.36.3-.72.58-1.09.86H236.62c-.68-.28-1.35-.56-2-.86a107,107,0,0,1-26.51-16.5A109.21,109.21,0,0,1,194.37,80.2c-4.93-6.07-9.47-12.67-11.58-20.2S181.31,43.84,186,37.6a20.21,20.21,0,0,1,5.29-4.85c.34-.21.68-.42,1-.61a26.37,26.37,0,0,1,19.13-2.3c9.11,2.35,16.68,8.92,22.07,16.62S242.45,63,245.9,71.75c3.51-15.61,14.12-29.59,28.46-36.7s32.14-7,46.17.68a46.45,46.45,0,0,1,11.8,9.3c.34.36.67.73,1,1.11A46.53,46.53,0,0,1,344.8,74.67,44.73,44.73,0,0,1,328.6,110.17Z" transform="translate(-15 -29)"/><path class="cls-2" d="M240.25,111H239c0-.29,0-.57-.06-.86a96.29,96.29,0,0,0-2.81-16.6A102.24,102.24,0,0,0,219.67,59.1a98,98,0,0,0-28.06-25.91.61.61,0,0,1-.3-.44.65.65,0,0,1,.95-.67l.08.06a97.41,97.41,0,0,1,17.19,13.33,103.3,103.3,0,0,1,22.16,31.77,100,100,0,0,1,8.49,32.93C240.21,110.46,240.23,110.75,240.25,111Z" transform="translate(-15 -29)"/><path class="cls-2" d="M333.33,46.14h0c-.94.17-1.89.35-2.82.54a128,128,0,0,0-22.42,6.81,132.49,132.49,0,0,0-20.78,10.71,134.31,134.31,0,0,0-18.62,14.18,131.64,131.64,0,0,0-15.85,17.19,127.72,127.72,0,0,0-9.69,14.59l-.48.86h-1.47c.16-.29.31-.57.48-.86a127.48,127.48,0,0,1,12-17.71,133.4,133.4,0,0,1,16.41-17,135.79,135.79,0,0,1,19-13.83,133.43,133.43,0,0,1,21.22-10.35,126.64,126.64,0,0,1,22-6.22l.63-.12C333.76,44.77,334.1,46,333.33,46.14Z" transform="translate(-15 -29)"/><path class="cls-3" d="M99.7,113.58c2.29-4.32,2.67-9.94-.18-13.91a13.7,13.7,0,0,0-7.1-4.79,37.69,37.69,0,0,0-8.6-1.34,28.73,28.73,0,0,0-8.59.27,10.35,10.35,0,0,0-6.89,4.76c-2.3,4.28-.2,9.77-1.9,14.33-1.55,4.18-6,6.62-10.33,7.61s-8.89.88-13.24,1.86-8.79,3.39-10.37,7.56a11.63,11.63,0,0,0,.93,9.35,24.08,24.08,0,0,0,6.38,7.19c3.74,3,8.12,5.62,12.92,5.88,5.06.28,10-2.13,13.66-5.66s6.12-8.08,8.11-12.75c1.25-3,2.44-6.14,5-8.14A17.4,17.4,0,0,1,86,123.07l2.59-.68a17.75,17.75,0,0,0,11.09-8.68Z" transform="translate(-15 -29)"/><polygon class="cls-4" points="64.31 226.52 59.05 226.52 56.55 206.26 64.31 206.26 64.31 226.52"/><path class="cls-3" d="M70.3,254H80.43v6.38H63.92A6.38,6.38,0,0,1,70.3,254Z" transform="translate(-15 -29)"/><polygon class="cls-4" points="108.01 226.52 102.76 226.52 100.26 206.26 108.01 206.26 108.01 226.52"/><path class="cls-3" d="M114,254h10.13v6.38H107.63A6.38,6.38,0,0,1,114,254Z" transform="translate(-15 -29)"/><path class="cls-3" d="M89.4,239.42h-.22l-21.37-2.29A2,2,0,0,1,66,234.91a2.34,2.34,0,0,1,0-.26l18.93-72a2,2,0,0,1,1.51-1.5l17.56-4.89a2,2,0,0,1,2,.64c11.28,12.73,19.79,40.95,26.23,76.52a2,2,0,0,1-1.62,2.33l-.1,0L113,238a2,2,0,0,1-2.22-1.55l-8.52-38a1.56,1.56,0,0,0-1.87-1.19,1.6,1.6,0,0,0-1.19,1.22L91.37,237.8A2,2,0,0,1,89.4,239.42Z" transform="translate(-15 -29)"/><circle class="cls-4" cx="71.15" cy="83.94" r="10.52"/><path class="cls-5" d="M85.86,162.88a2,2,0,0,1-1.94-1.49l-6.33-23.78a7.19,7.19,0,0,1,4.33-8.56,29.86,29.86,0,0,1,14.43-2.19h0c4,.47,8.9,24,8.57,24.54l1.57,4.72a2,2,0,0,1-1.27,2.54l-.2.06L86.3,162.84A2.18,2.18,0,0,1,85.86,162.88Z" transform="translate(-15 -29)"/><path class="cls-4" d="M91.53,187.21A3.26,3.26,0,0,0,89,183.39a2.76,2.76,0,0,0-.57-.06l-3.65-11L81,177.06l4,9.72a3.27,3.27,0,0,0,6.49.43Z" transform="translate(-15 -29)"/><path class="cls-4" d="M138.43,160.77a3.25,3.25,0,0,0-4.39-1.4,3.12,3.12,0,0,0-.49.31l-9.66-6.4v6l9.18,5.15a3.28,3.28,0,0,0,5.37-3.68Z" transform="translate(-15 -29)"/><path class="cls-5" d="M83.89,182.13A2,2,0,0,1,82,180.75l-8.55-18.09a10.49,10.49,0,0,1-.53-3.29l2.57-23.51a5.16,5.16,0,0,1,10.29-.62l-3.93,26.83,6.28,16.47a2,2,0,0,1-1.06,2.24l-2.27,1.13A2,2,0,0,1,83.89,182.13Z" transform="translate(-15 -29)"/><path class="cls-5" d="M129.56,163.15a2,2,0,0,1-.91-.22l-17-8.59a10.51,10.51,0,0,1-2.69-2l-16.6-16.65A5.17,5.17,0,0,1,99.2,128l18,20,14.26,9a2,2,0,0,1,.82,2.34l-.8,2.4a2,2,0,0,1-1.9,1.37Z" transform="translate(-15 -29)"/><path class="cls-3" d="M74.18,107.5a12.3,12.3,0,0,0,7.24,4.55,12.78,12.78,0,0,0,8.6-1.23,23.71,23.71,0,0,0,5.47-4.56,3.64,3.64,0,0,0,1.4-2.48c0-1.49-1.85-2.31-3.39-2.63a24.15,24.15,0,0,0-15,1.68c-2.09,1-4.27,2.73-3.95,4.92" transform="translate(-15 -29)"/><path class="cls-6" d="M350.55,110.17H144c-4,0-7.28,5-7.29,11.27V244.73C136.75,251,140,256,144,256H350.55c4,0,7.28-5.05,7.29-11.27V121.44C357.83,115.22,354.57,110.18,350.55,110.17ZM357,244.73c0,5.49-2.88,9.94-6.43,9.94H144c-3.55,0-6.43-4.45-6.43-9.94V121.44c0-5.49,2.88-9.93,6.43-9.94H350.55c3.55,0,6.43,4.45,6.43,9.94Z" transform="translate(-15 -29)"/><path class="cls-6" d="M181.52,182.16a24.85,24.85,0,1,1,24.86-24.85A24.86,24.86,0,0,1,181.52,182.16Zm0-48.85a24,24,0,1,0,24,24A24,24,0,0,0,181.52,133.31Z" transform="translate(-15 -29)"/><path class="cls-7" d="M345.35,141.45H222.44a6.66,6.66,0,0,0-6.64,6.39,2.35,2.35,0,0,0,0,.26,6.66,6.66,0,0,0,6.65,6.66H345.35a6.66,6.66,0,0,0,0-13.31Z" transform="translate(-15 -29)"/><path class="cls-7" d="M345.35,167.53H222.44a6.65,6.65,0,0,0-6.64,6.39,2.17,2.17,0,0,0,0,.26,6.66,6.66,0,0,0,6.65,6.65H345.35a6.65,6.65,0,0,0,0-13.3Z" transform="translate(-15 -29)"/><path class="cls-7" d="M178.75,168.17a3.23,3.23,0,0,1-1.92-.64l0,0L169.55,162a3.22,3.22,0,1,1,3.91-5.11h0l4.7,3.59L189.24,146a3.22,3.22,0,0,1,4.51-.6h0l-.06.09.07-.09a3.23,3.23,0,0,1,.59,4.51l-13,17A3.25,3.25,0,0,1,178.75,168.17Z" transform="translate(-15 -29)"/><path class="cls-6" d="M178.68,261H15.43a.43.43,0,1,1,0-.86H178.68a.43.43,0,0,1,0,.86Z" transform="translate(-15 -29)"/><path class="cls-2" d="M307.76,90.87a84.72,84.72,0,0,0-26.92.61,86.85,86.85,0,0,0-25.36,8.86,83.91,83.91,0,0,0-12.65,8.36c-.65.52.27,1.42.91.91a83.08,83.08,0,0,1,23-13,85.54,85.54,0,0,1,25.74-5.23,82.44,82.44,0,0,1,14.9.68.66.66,0,0,0,.79-.45A.64.64,0,0,0,307.76,90.87Z" transform="translate(-15 -29)"/><path class="cls-7" d="M345.35,193.6H222.44A6.65,6.65,0,0,0,215.8,200a2.35,2.35,0,0,0,0,.26,6.65,6.65,0,0,0,6.65,6.65H345.35a6.65,6.65,0,0,0,0-13.3Z" transform="translate(-15 -29)"/><text class="cls-8" transform="translate(211.06 122.5)">Stru<tspan class="cls-9" x="26.29" y="0">c</tspan><tspan x="33.48" y="0">tu</tspan><tspan class="cls-10" x="46.94" y="0">r</tspan><tspan x="52.01" y="0">e</tspan></text><text class="cls-8" transform="translate(211.06 148.5)">S<tspan class="cls-11" x="7.66" y="0">t</tspan><tspan x="12.76" y="0">yle</tspan></text><text class="cls-8" transform="translate(211.06 174.5)"><tspan class="cls-12">F</tspan><tspan x="7.5" y="0">u</tspan><tspan class="cls-13" x="15.74" y="0">n</tspan><tspan class="cls-14" x="24.11" y="0">c</tspan><tspan x="31.3" y="0">tionali</tspan><tspan class="cls-11" x="70.91" y="0">t</tspan><tspan x="76.01" y="0">y</tspan></text></svg>