<svg id="Layer_1" data-name="Layer 1" xmlns="http://www.w3.org/2000/svg" viewBox="0 0 299.51 256.19"><defs><style>.cls-1{fill:#e6e6e6;}.cls-2{fill:#fff;}.cls-3{fill:#6c63ff;}.cls-15,.cls-4{font-size:16px;}.cls-4{font-family:Montserrat-ExtraBold, Montserrat;font-weight:800;}.cls-5{letter-spacing:0em;}.cls-6{letter-spacing:-0.02em;}.cls-7{letter-spacing:-0.02em;}.cls-8{font-size:10px;font-family:Montserrat-Regular, Montserrat;font-weight:400;}.cls-9{letter-spacing:-0.01em;}.cls-10{letter-spacing:0em;}.cls-11{letter-spacing:-0.01em;}.cls-12{letter-spacing:-0.01em;}.cls-13{letter-spacing:0em;}.cls-14{letter-spacing:-0.01em;}.cls-16,.cls-17{font-size:17px;}.cls-16{letter-spacing:-0.01em;}.cls-18{letter-spacing:-0.02em;}.cls-19{letter-spacing:-0.02em;}.cls-20{letter-spacing:-0.05em;}.cls-21{fill:#2f2e41;}.cls-22{fill:#ffb8b8;}.cls-23{fill:#3f3d56;}.cls-24{opacity:0.3;isolation:isolate;}</style></defs><title>why-9</title><rect class="cls-1" x="0.11" y="0.15" width="265.3" height="169.91"/><rect class="cls-2" x="7.7" y="21.46" width="250.13" height="138.55"/><rect class="cls-3" width="265.3" height="11.27"/><circle class="cls-2" cx="8.38" cy="5.76" r="2.09"/><circle class="cls-2" cx="16.3" cy="5.76" r="2.09"/><circle class="cls-2" cx="24.23" cy="5.76" r="2.09"/><text class="cls-4" transform="translate(7.28 44.49)">My fi<tspan class="cls-5" x="42.62" y="0">r</tspan><tspan x="49.7" y="0">st </tspan><tspan class="cls-6" x="70.25" y="0">w</tspan><tspan x="85.31" y="0">ebsi</tspan><tspan class="cls-7" x="120.46" y="0">t</tspan><tspan x="127.36" y="0">e</tspan><tspan class="cls-8"><tspan x="0" y="34.8">This is </tspan><tspan class="cls-9" x="32.91" y="34.8">m</tspan><tspan x="43.42" y="34.8">y fi</tspan><tspan class="cls-10" x="58.34" y="34.8">r</tspan><tspan x="62.31" y="34.8">st </tspan><tspan class="cls-11" x="73.88" y="34.8">e</tspan><tspan class="cls-12" x="79.82" y="34.8">v</tspan><tspan x="85.09" y="34.8">er </tspan><tspan class="cls-13" x="97.76" y="34.8">p</tspan><tspan x="104.51" y="34.8">a</tspan><tspan class="cls-14" x="110.41" y="34.8">r</tspan><tspan x="114.33" y="34.8" xml:space="preserve">a      </tspan><tspan class="cls-15" x="135.95" y="34.8">g</tspan><tspan class="cls-16" x="146.93" y="34.8">r</tspan><tspan class="cls-17" x="153.59" y="34.8">aph on</tspan><tspan class="cls-9" x="0" y="55.2">m</tspan><tspan x="10.51" y="55.2">y fi</tspan><tspan class="cls-10" x="25.43" y="55.2">r</tspan><tspan x="29.4" y="55.2">st </tspan><tspan class="cls-11" x="40.97" y="55.2">e</tspan><tspan class="cls-12" x="46.91" y="55.2">v</tspan><tspan x="52.18" y="55.2">er </tspan><tspan class="cls-18" x="64.85" y="55.2">w</tspan><tspan x="73.49" y="55.2">ebsi</tspan><tspan class="cls-19" x="93.89" y="55.2">t</tspan><tspan x="97.76" y="55.2">e, </tspan><tspan class="cls-20" x="108.54" y="55.2">W</tspan><tspan x="119.1" y="55.2">o</tspan><tspan class="cls-17" x="125.37" y="55.2">ooooooo!</tspan></tspan></text><path class="cls-21" d="M308.53,135.16c-4.24-7.22-12.63-7.56-12.63-7.56s-8.17-1.06-13.42,10c-4.88,10.26-11.63,20.16-1.08,22.56l1.9-6,1.18,6.43a42.42,42.42,0,0,0,4.51.07c11.3-.36,22.05.11,21.71-4C310.24,151.22,312.61,142.11,308.53,135.16Z" transform="translate(-35 -44)"/><path class="cls-22" d="M268.32,173.74l-3.7,9.48-18.55,17.3s-11.12,8.24-6.18,10.71,9.48-9.06,9.48-9.06l19.78-11.95,4.12-13.6Z" transform="translate(-35 -44)"/><polygon class="cls-22" points="239.5 234.81 243.21 244.29 248.57 244.29 244.04 233.16 239.5 234.81"/><polygon class="cls-22" points="255.57 238.93 259.28 248.41 264.64 248.41 260.11 237.28 255.57 238.93"/><path class="cls-21" d="M290.16,284.58l7-1.65-9.07-36.67,3-28.22h.08s5.15-20,1-25.34-24.72-3.29-24.72-3.29-7.83,7.83-7.42,25.54,0,33,2.89,40,11.12,25.55,11.12,25.55l6.6-.83-7-30.49-1.12-26.5c.89,10.62,2.69,30.76,3.59,32.27C277.39,257,290.16,284.58,290.16,284.58Z" transform="translate(-35 -44)"/><path class="cls-22" d="M311.18,182.39l2.88,10.3,12.77,23.08s11.13,9.89,6.6,11.12-11.54-9.06-11.54-9.06l-14.42-20.19-3.71-14.84Z" transform="translate(-35 -44)"/><circle class="cls-22" cx="261.34" cy="98.84" r="10.3"/><path class="cls-22" d="M291,148.19,288.51,156l-4.12,9.07,15.25-6.18s-.82-6.6,0-8.25Z" transform="translate(-35 -44)"/><path class="cls-3" d="M308.7,164.67l-9.47-7.82-10.72,4.53.42-6.69-11.43,3.65-1.76.57-2.47,12.77s-1.65,1.23-3.3,8.24a60.1,60.1,0,0,1-4.12,12s17.72-7,26.37,2.47a1.92,1.92,0,0,0,.83-2.06c-.42-1.24,3.7-7.42,3.7-7.42s0,1.24,1.65-1.23,2.89-2.89,2.89-2.89Z" transform="translate(-35 -44)"/><path class="cls-3" d="M278.21,160.14l-1.8-1.45s-1.49-.61-2.73,1.45S266.26,175,266.26,175l7.42,3.7Z" transform="translate(-35 -44)"/><path class="cls-3" d="M302.94,164.26l5.76.41s3.3,1.65,3.3,4.12.82,15.66.82,15.66l-9.06,2.89-3.71-11.54Z" transform="translate(-35 -44)"/><path class="cls-21" d="M277,286.84l-7,2.89s-8.24.41-7,4.53,13.6,1.24,13.6,1.24,11.13.41,11.13-2.47-1.65-6.19-3.3-6.19Z" transform="translate(-35 -44)"/><path class="cls-21" d="M292.68,290.55l-7,2.89s-8.25.41-7,4.53,13.6,1.24,13.6,1.24,11.12.41,11.12-2.48-1.65-6.18-3.29-6.18Z" transform="translate(-35 -44)"/><polygon class="cls-21" points="271.65 90.46 263.37 86.09 251.92 87.88 249.56 98.42 255.45 98.2 257.1 94.32 257.1 98.13 259.81 98.03 261.39 91.86 262.38 98.42 272.05 98.22 271.65 90.46"/><path class="cls-23" d="M254.23,84.42a55.64,55.64,0,1,0,3.15,82.17l68.24,57.58a5.13,5.13,0,1,0,6.62-7.83h0L264,158.75A55.66,55.66,0,0,0,254.23,84.42Zm-4.4,68.79a41.68,41.68,0,1,1-5-58.74h0A41.69,41.69,0,0,1,249.83,153.21Z" transform="translate(-35 -44)"/><path class="cls-24" d="M191.09,158.18a41.68,41.68,0,0,1-7.07-56q-1.2,1.2-2.31,2.52a41.68,41.68,0,1,0,63.71,53.76q1.11-1.32,2.1-2.7A41.7,41.7,0,0,1,191.09,158.18Z" transform="translate(-35 -44)"/></svg>