<svg id="Layer_1" data-name="Layer 1" xmlns="http://www.w3.org/2000/svg" viewBox="0 0 370.87 231.98"><defs><style>.cls-1,.cls-7,.cls-8{fill:#6c63ff;}.cls-2{fill:#3f3d56;}.cls-3{fill:#2f2e41;}.cls-4,.cls-6{fill:#f7f7f7;}.cls-4{stroke:#050707;stroke-width:0.5px;}.cls-4,.cls-5,.cls-6{stroke-miterlimit:10;}.cls-5{fill:#fff;stroke:#020b0c;}.cls-6{stroke:#010202;stroke-width:0.2px;}.cls-7{font-size:72.44px;}.cls-7,.cls-8{font-family:Montserrat-Bold, Montserrat;font-weight:700;}.cls-8{font-size:59.35px;}.cls-9{fill:#4141d8;}</style></defs><title>why-7</title><path class="cls-1" d="M384.87,97.44V98c0,1.36-.05,2.71-.12,4.06a90.44,90.44,0,0,1-180.57,1.18c-.12-1.91-.18-3.84-.18-5.78a90,90,0,0,1,16.63-52.28q1.31-1.84,2.71-3.62c.64-.83,1.31-1.63,2-2.43a90.44,90.44,0,0,1,126-12c1.09.88,2.16,1.79,3.21,2.72.84.74,1.66,1.5,2.47,2.28a90.2,90.2,0,0,1,27.53,57.68Q384.87,93.6,384.87,97.44Z" transform="translate(-14 -7)"/><path class="cls-2" d="M223.34,41.54l.12.07c.48.4-.12,1.17-.05,1.81.09.81,1.17,1,2,1.07s1.85.74,1.46,1.47c-2.05.7-4.13,0-6.23-.8A90,90,0,0,0,204,97.44c0,1.94.06,3.87.18,5.78a2.77,2.77,0,0,0,.56.3,11.82,11.82,0,0,1,1.9.52c.45.27.75.73,1.2,1,1.28.7,3.07-.65,4.27.19a10.7,10.7,0,0,1,.88.9c1.11,1,2.93.31,4.21,1a5.1,5.1,0,0,1,1.69,2.22c1.1,2.1,2.88,4.15,5.24,4.32a13.86,13.86,0,0,1,2.23.07c.72.17,1.44.8,1.32,1.53-.2,1.26.42,2.64.25,3.9-.3,2.31-3.57,3.32-3.84,5.63a12.75,12.75,0,0,1-.09,1.51c-.15.61-.6,1.1-.76,1.7-.31,1.14.51,2.28,1.4,3a8.28,8.28,0,0,1,2.46,2.51c.52,1.13.27,2.46.43,3.69.37,2.7,2.7,4.7,5.1,6a5.33,5.33,0,0,1,2,1.46c.62.89.56,2.06.77,3.13.5,2.6,2.69,4.75,2.75,7.4.05,1.89-1,3.6-1.63,5.38a12.55,12.55,0,0,0-.56,5.8,90.33,90.33,0,0,0,11.16,8.09,3.19,3.19,0,0,0,.46-1,2,2,0,0,0-1-2.12,4.92,4.92,0,0,0,1.77-1.13,1.74,1.74,0,0,0,.32-2c1.08.14,2.37.21,3.08-.62a2.76,2.76,0,0,0,.31-2.51,10.36,10.36,0,0,1-.62-2.54,46.06,46.06,0,0,0,7.52-.26,4.87,4.87,0,0,0-2.29-2.86,4,4,0,0,0,2.52-2.64,6.64,6.64,0,0,0,0-3.4,1.3,1.3,0,0,1,.86-1.75l5.61-3.22a3.66,3.66,0,0,0,.9-.66,2.7,2.7,0,0,0,.2-2.59,12.19,12.19,0,0,1-.9-2.56c-.35-2.69,2.53-4.62,3.5-7.16a10.7,10.7,0,0,0,.53-3.13c.08-1.14.09-2.46-.78-3.2s-2.16-.54-3-1.2-1.08-1.77-2-2.25-1.8-.16-2.69-.37c-1.56-.37-2.54-2.17-4.14-2.33-.9-.1-1.92.34-2.66-.18s-.68-1.4-.8-2.19a6.1,6.1,0,0,0-4.92-4.93,6.89,6.89,0,0,1-2.73-.6c-.8-.52-1.17-1.49-1.8-2.21a7.52,7.52,0,0,0-4.1-1.91l-6.09-1.43c-1.08-.26-2.47-.39-3,.56a4.51,4.51,0,0,0-.36,1.13,3.53,3.53,0,0,1-3.31,2.49,3.87,3.87,0,0,0-2.3-1.78,15.41,15.41,0,0,1-1.87-.45,2.62,2.62,0,0,1-1.2-3.5s.05-.09.07-.13a3.26,3.26,0,0,0-.56-3.92,5.3,5.3,0,0,0-3.92-1.07c-.36-.79.25-1.68.9-2.26s1.45-1.14,1.59-2c.23-1.35-1.5-2.38-2.81-2a4.93,4.93,0,0,0-2.7,2.93,8.49,8.49,0,0,1-1.09,2.09,2.12,2.12,0,0,1-2.06.85c-1.09-.28-1.5-1.56-1.74-2.65a17.37,17.37,0,0,1-.58-4.43,5.79,5.79,0,0,1,1.68-4c1.79-1.65,4.54-1.49,7-1.22a1.77,1.77,0,0,1,.18-2.34,2.69,2.69,0,0,1,2.42-.59,3.32,3.32,0,0,1,1.86,1.11,16.79,16.79,0,0,1,1.4,2.93c.53,1,1.69,1.76,2.65,1.25a2.22,2.22,0,0,0,.75-2.5,9.78,9.78,0,0,1-.57-2.74c.14-1.78,2-2.86,3.63-3.59S233.72,82,234,80.23a3.13,3.13,0,0,1,.2-1,1.93,1.93,0,0,1,.73-.69c4.75-3.14,9.59-6.33,15-8,.29-.09.32,0,.61-.06.4-.23.13-.88-.26-1.14s-.9-.46-1-.91.13-.67.18-1a1.25,1.25,0,0,0-1.64-1.26c-.44-.58.42-1.25,1.12-1.45a31.14,31.14,0,0,1,6.43-1,1.09,1.09,0,0,1,.73.12.86.86,0,0,1,.06,1.19,6.85,6.85,0,0,1-1,.89,2.69,2.69,0,0,0-.7,2.71,6.22,6.22,0,0,0,3.63,1c1.25-.21,2.37-1.62,1.78-2.75s-2.21-1.29-2.49-2.44c-.33-1.35,1.58-2.55,1.15-3.86-.19-.58-.77-.92-1.21-1.34a3.62,3.62,0,0,1-.79-4,4.6,4.6,0,0,1-4-1.26c-.95-1-1.72-2.49-3.08-2.44s-2.33,1.49-3.5,1c-.29-.11-.59-.33-.86-.2a.68.68,0,0,0-.33.53c-.3,1.42.21,3-.56,4.27s-2.79,1.52-3.82,2.72c-.55.66-.76,1.54-1.27,2.23s-1.59,1.13-2.21.52a3,3,0,0,0-.82-3.69,7.84,7.84,0,0,0-1.82-.88,10.7,10.7,0,0,1-2-1.13,2,2,0,0,1-.74-.8,1.79,1.79,0,0,1,0-1.27,5.17,5.17,0,0,1,4.11-3.41c.81-.11,1.76-.07,2.3-.69.29-.33.43-.83.85-1a1.3,1.3,0,0,1,.78.09l3,1.07a2,2,0,0,0,1.08.18.73.73,0,0,0,.64-.77c-.1-.5-.88-.74-.8-1.25a.73.73,0,0,1,.25-.43,10.87,10.87,0,0,1,8.62-3.4c.38.63-.22,1.37-.73,1.91s-.91,1.5-.3,1.91a1.64,1.64,0,0,0,.81.19,7,7,0,0,1,2.15.65c1,.45,2.09,1,3.1,1.5a3.84,3.84,0,0,1,.07-2,1.35,1.35,0,0,1,1.6-.87c.6.23.91,1,1.56,1.11.85.1,1.19-1.17.83-2s-1.07-1.44-1.12-2.31c-.05-.57.17-1.29-.29-1.64a1.18,1.18,0,0,0-.54-.2L248,41.33c-.69-.13-1.68,0-1.71.66,0,.4.33.79.18,1.14s-.71.35-1.1.49a1.48,1.48,0,0,0-.86,1.58,4.27,4.27,0,0,0,.72,1.78c-.76-.32-1.89-.37-2.65-.69a10.08,10.08,0,0,0-.66-2.55.91.91,0,0,0-1-.77l-.15,0-3,.45a1.2,1.2,0,0,0-.68.27c-.39.41,0,1.07,0,1.64a1.53,1.53,0,0,1-1.19,1.32,4.31,4.31,0,0,1-1.89,0L229.73,46a6.86,6.86,0,0,0,3.17-2.12c.55-.65.84-1.87,0-2.18a2,2,0,0,0-.73,0c-1.9,0-3.39-1.57-5.16-2.24a5,5,0,0,0-1.74-.32Z" transform="translate(-14 -7)"/><path class="cls-2" d="M384.75,102a2.24,2.24,0,0,1-1.88.89c-1.93-.17-2.74-2.94-4.65-3.26a.78.78,0,0,0-.5,0c-.29.16-.33.54-.35.86a10.61,10.61,0,0,0,.47,4.7c.91,2.14,3.25,3.94,2.76,6.21-2.65-1.23-4-4.2-4.65-7s-.72-5.84-1.84-8.53c-.86,1.09-2.64.19-3.42-1s-1.19-2.34-1.9-3.44a4.23,4.23,0,0,0-3.12-2.14c-1.37-.07-2.56.88-3.61,1.77a8.25,8.25,0,0,0-2.24,2.5c-.74,1.47-.55,3.21-.58,4.85a7.38,7.38,0,0,1-1.63,5c-1.21,1.3-3.44,1.76-4.78.58a5.41,5.41,0,0,1-1.33-2.41,116.9,116.9,0,0,1-3.62-12.9c-.22,1-1.1,2.28-1.94,1.7a1.94,1.94,0,0,1-.44-.58c-1.56-2.64-4.45-4.23-7.37-5.18s-6-1.39-8.87-2.44a23.31,23.31,0,0,1-4.61-2.29,3.62,3.62,0,0,0-.22,3.7,3,3,0,0,0,3.33,1.4c.64-.21,1.19-.65,1.82-.88a1.41,1.41,0,0,1,1.76.51c.28.58-.13,1.29.07,1.91.3.92,1.71,1,2.2,1.85a1.71,1.71,0,0,1-.46,2,8.38,8.38,0,0,1-1.85,1.14c-2.07,1.15-3.54,3.11-5.35,4.64s-4.36,2.65-6.52,1.67c.52-2.6-2.58-4.51-3.15-7.1-.19-.86-.09-1.76-.36-2.59a8.44,8.44,0,0,0-2.33-2.94,11.58,11.58,0,0,1-3.17-8.4,11.43,11.43,0,0,0,0-3.2,2.41,2.41,0,0,0-2.18-2c-2.44.11-5.52.3-6.8-1.79a1.92,1.92,0,0,1,0-2.41,2.31,2.31,0,0,1,1.76-.3c1.84.18,3.67.37,5.51.54a6.1,6.1,0,0,0,3.79-.44c1.1-.67,1.58-2.46.56-3.25-.75-.58-2.09-.55-2.31-1.47s.67-1.63.21-2.28c-.33-.45-1.06-.33-1.51,0a10.48,10.48,0,0,1-1.28,1.12c-.88.45-1.92,0-2.87-.28s-2.21-.32-2.67.56.45,2.27-.06,3.25c-.67,1.3-2.95.56-3.9,1.68-1.08,1.28.74,3.2.38,4.84a3,3,0,0,1-3-.17,2.85,2.85,0,0,1-1.24-2.68c.08-.74.47-1.49.21-2.19a2.56,2.56,0,0,0-1.3-1.19l-5.35-3c-.5.93.13,2.06.92,2.76a9.62,9.62,0,0,1,2.28,2.12,2.79,2.79,0,0,1-1.05,3.68.62.62,0,0,1-.53.09.74.74,0,0,1-.35-.46c-.94-2.42-2.36-4.8-4.62-6.06s-5.53-1-7,1.12c-.35.51-.59,1.08-.89,1.62-1.63,2.84-5.14,4.18-8.41,4.09a1.64,1.64,0,0,1-.92-.21c-.53-.37-.5-1.14-.42-1.78.11-.91.22-1.81.34-2.71a2.16,2.16,0,0,1,.6-1.48c.61-.48,1.48-.18,2.25-.19a2.85,2.85,0,0,0,2.59-2,3.21,3.21,0,0,0-.89-3.2c-.35-.33-.83-.75-.64-1.2a1,1,0,0,1,.69-.47c1.39-.4,2.86-.5,4.22-1a4.41,4.41,0,0,0,3-2.86c.1-.43.14-.95.53-1.17a1.79,1.79,0,0,1,.61-.12,3,3,0,0,0,2.57-3.12,2,2,0,0,1,2.2.37,6.12,6.12,0,0,0,2,1.34c1.43.39,2.82-.88,4.3-.89a5.54,5.54,0,0,0,1.86,0c.6-.22,1-.81,1.41-1.25s1.26-.7,1.69-.23c-.13-.89-.24-1.78-.37-2.66a5.26,5.26,0,0,0,4.27-.78L296,44a1,1,0,0,1-.43-.23c-.34-.36,0-.93.27-1.34.65-1,.77-2.62-.32-3.12a2.66,2.66,0,0,0-2.29.47l-3.39,1.88c-.11.65.68,1,1.17,1.45a2,2,0,0,1-1.28,3.43,2.44,2.44,0,0,1,.43,2.07l-2.28.17a1,1,0,0,1-.74-.15c-.24-.22-.21-.6-.27-.92a2,2,0,0,0-1.67-1.46,5.92,5.92,0,0,0-2.33.22,1.41,1.41,0,0,1-1,0,1,1,0,0,1-.39-.5,2.55,2.55,0,0,1,.51-2.47,13.23,13.23,0,0,1,1.95-1.79,11.34,11.34,0,0,0,3.37-5.23c1.26-.53,2.56-1.24,3.82-1.77a11.67,11.67,0,0,1,6.27-1.22l4.25.08a10.26,10.26,0,0,1,3.73.54,3.48,3.48,0,0,1,2.27,2.77.88.88,0,0,1-.28.79,1,1,0,0,1-.54.12c-1.17,0-1.67.33-2.84.37a4.82,4.82,0,0,0,2.66,1.78c1.91.24,3.28-1.73,4.16-3.45A1.68,1.68,0,0,0,312.5,38a3.51,3.51,0,0,0,1.32-.52,26.12,26.12,0,0,1,12.34-3.19,1.32,1.32,0,0,1,1-1.46c.88-.17,1.67.58,2.1,1.37a7.3,7.3,0,0,0,1.35,2.29c.68.59,2,.56,2.24-.29s-.6-1.52-1.31-2-1.45-1.37-1-2.08a62.71,62.71,0,0,1,11-1.77,4.69,4.69,0,0,0,1.85-.32,1.44,1.44,0,0,0,.86-1.52,4.19,4.19,0,0,1-4.37-1.64c3.81-.32,7.79-.6,11.45.26l3.21,2.72c-.61.63-1.42,1.23-1,1.86a1.36,1.36,0,0,0,1.13.39l2.32,0a90.2,90.2,0,0,1,27.53,57.68c-1.29,0-2.48,1.59-2.31,3,.2,1.65,1.39,3,2.25,4.41.14.23.26.47.38.72Z" transform="translate(-14 -7)"/><path class="cls-3" d="M251.17,151.07a6.43,6.43,0,0,1,5.76-6.4c-.22,0-.44,0-.67,0a6.43,6.43,0,1,0,0,12.86h0a4.92,4.92,0,0,0,.67,0A6.43,6.43,0,0,1,251.17,151.07Z" transform="translate(-14 -7)"/><path class="cls-1" d="M64.05,213.72V162.41c12.08,0,29.94-3.44,39.13,6.05a23.33,23.33,0,0,1,6.31,15.89c.06,4.51-1.2,9.21-4.34,12.45-4.47,4.6-10.89,4.9-16.88,4.86-1,0-12.14,0-12.14,0v21.13H64.05Z" transform="translate(-14 -7)"/><path class="cls-4" d="M76.13,189.57v-17.1H88.2s8,1,8,9.05-8,8-8,8Z" transform="translate(-14 -7)"/><circle class="cls-5" cx="63.64" cy="151.89" r="5.53"/><circle class="cls-5" cx="81.75" cy="151.89" r="5.53"/><circle cx="82.25" cy="152.39" r="1.01"/><circle cx="64.14" cy="152.39" r="1.01"/><rect class="cls-6" x="62.13" y="179.56" width="4.02" height="3.02"/><rect class="cls-6" x="66.15" y="179.56" width="4.02" height="3.02"/><rect class="cls-6" x="70.18" y="179.56" width="4.02" height="3.02"/><polygon class="cls-6" points="74.2 182.57 74.2 179.56 77.22 179.56 77.22 181.99 76.47 182.23 75.71 182.4 75 182.51 74.48 182.55 74.2 182.57"/><polygon class="cls-6" points="77.22 179.56 80.72 179.56 80.43 179.91 80.05 180.3 79.59 180.7 78.85 181.22 78.11 181.63 77.56 181.87 77.17 182.01 77.22 179.56"/><rect class="cls-6" x="62.13" y="165.47" width="3.92" height="3.02"/><rect class="cls-6" x="69.97" y="165.47" width="3.92" height="3.02"/><polygon class="cls-6" points="73.89 165.47 73.89 168.49 76.83 168.49 76.83 166.05 76.1 165.81 75.36 165.64 74.67 165.53 74.16 165.49 73.89 165.47"/><polygon class="cls-6" points="76.83 168.49 80.24 168.49 79.95 168.13 79.58 167.74 79.14 167.34 78.42 166.82 77.69 166.42 77.16 166.18 76.78 166.03 76.83 168.49"/><text class="cls-7" transform="translate(0 212.71)">&lt;</text><text class="cls-8" transform="translate(121.23 215.53)">/&gt;</text><polygon class="cls-9" points="98.05 164.37 111.88 154 115.34 162.64 99.78 167.82 98.05 164.37"/><polygon class="cls-9" points="101.51 173.01 117.06 171.28 117.06 179.92 101.51 178.19 101.51 173.01"/><polygon class="cls-9" points="101.51 186.83 115.34 195.47 111.88 200.66 99.78 192.02 101.51 186.83"/></svg>