<svg id="Layer_1" data-name="Layer 1" xmlns="http://www.w3.org/2000/svg" viewBox="0 0 354 231"><defs><style>.cls-1{fill:#0b92bf;}.cls-2,.cls-27{fill:#fff;}.cls-3{font-size:16px;font-family:MyriadPro-Regular, Myriad Pro;}.cls-3,.cls-5{fill:#f7f7f7;}.cls-4{fill:none;stroke:#fff;stroke-miterlimit:10;}.cls-6{font-size:13px;fill:#060b0c;}.cls-27,.cls-32,.cls-6{font-family:Montserrat-SemiBold, Montserrat;font-weight:600;}.cls-7{letter-spacing:0em;}.cls-8{letter-spacing:0.01em;}.cls-9{letter-spacing:-0.01em;}.cls-10{letter-spacing:0em;}.cls-11{letter-spacing:2.49em;}.cls-12{letter-spacing:-0.02em;}.cls-13{letter-spacing:-0.02em;}.cls-14{letter-spacing:0em;}.cls-15{letter-spacing:-0.02em;}.cls-16{letter-spacing:0em;}.cls-17{letter-spacing:-0.06em;}.cls-18{letter-spacing:-0.01em;}.cls-19{letter-spacing:0.03em;}.cls-20{letter-spacing:0.03em;}.cls-21{letter-spacing:-0.01em;}.cls-22{letter-spacing:0.03em;}.cls-23{letter-spacing:-0.02em;}.cls-24{letter-spacing:-0.01em;}.cls-25{letter-spacing:-0.05em;}.cls-26{letter-spacing:-0.06em;}.cls-27{font-size:11px;}.cls-28{letter-spacing:0.01em;}.cls-29{letter-spacing:-0.02em;}.cls-30{letter-spacing:0em;}.cls-31{fill:#ddd;}.cls-32{font-size:9px;}.cls-33{letter-spacing:-0.01em;}.cls-34{letter-spacing:-0.02em;}.cls-35{letter-spacing:0em;}</style></defs><title>why-5</title><rect class="cls-1" width="354" height="231" rx="12.8"/><rect class="cls-2" x="7" y="21" width="339" height="198" rx="10.54"/><text class="cls-3" transform="translate(331.36 13.97)">x</text><rect class="cls-4" x="309.5" y="6.5" width="7" height="7"/><rect class="cls-5" x="284" y="9.26" width="10" height="1.5"/><text class="cls-6" transform="translate(13.38 74.67)"><tspan xml:space="preserve">&lt;div id =  “</tspan><tspan class="cls-7" x="68.51" y="0">h</tspan><tspan x="77.48" y="0">ell</tspan><tspan class="cls-8" x="93.08" y="0">o</tspan><tspan class="cls-9" x="101.59" y="0">-w</tspan><tspan x="118.15" y="0">o</tspan><tspan class="cls-10" x="126.54" y="0">r</tspan><tspan x="131.93" y="0">ld”&gt;</tspan><tspan class="cls-11" x="0" y="36.6">	</tspan><tspan x="36" y="36.6">&lt;</tspan><tspan class="cls-12" x="43.67" y="36.6">h</tspan><tspan x="52.31" y="36.6">1&gt; Hello </tspan><tspan class="cls-13" x="106.63" y="36.6">w</tspan><tspan x="118.38" y="36.6">o</tspan><tspan class="cls-14" x="126.76" y="36.6">r</tspan><tspan x="132.16" y="36.6">ld &lt;/</tspan><tspan class="cls-15" x="160.93" y="36.6">h</tspan><tspan x="169.57" y="36.6">1&gt;</tspan><tspan class="cls-11" x="0" y="57.6">	</tspan><tspan x="36" y="57.6">&lt;p&gt; My fi</tspan><tspan class="cls-16" x="96.96" y="57.6">r</tspan><tspan x="102.38" y="57.6">st app &lt;</tspan><tspan class="cls-17" x="155.16" y="57.6">/</tspan><tspan x="159.13" y="57.6">p&gt;</tspan><tspan class="cls-11" x="0" y="78.6">	</tspan><tspan x="36" y="78.6">&lt;i</tspan><tspan class="cls-7" x="47.43" y="78.6">m</tspan><tspan x="61.18" y="78.6">g s</tspan><tspan class="cls-18" x="80.49" y="78.6">r</tspan><tspan x="85.82" y="78.6">c = </tspan><tspan class="cls-19" x="108.21" y="78.6">“</tspan><tspan x="114.53" y="78.6">im</tspan><tspan class="cls-7" x="131.98" y="78.6">a</tspan><tspan x="139.93" y="78.6">ge” a</tspan><tspan class="cls-20" x="174.45" y="78.6">l</tspan><tspan x="178.54" y="78.6">t = </tspan><tspan class="cls-21" x="198.9" y="78.6">“</tspan><tspan x="204.72" y="78.6">a</tspan><tspan class="cls-22" x="212.62" y="78.6">l</tspan><tspan class="cls-23" x="216.71" y="78.6">t</tspan><tspan x="221.99" y="78.6">e</tspan><tspan class="cls-14" x="230.07" y="78.6">r</tspan><tspan x="235.47" y="78.6">nati</tspan><tspan class="cls-13" x="261.53" y="78.6">v</tspan><tspan x="268.85" y="78.6">e </tspan><tspan class="cls-23" x="280.53" y="78.6">t</tspan><tspan class="cls-24" x="285.8" y="78.6">e</tspan><tspan x="293.69" y="78.6">xt</tspan><tspan class="cls-25" x="306.66" y="78.6">”</tspan><tspan x="311.93" y="78.6">/&gt;</tspan><tspan x="0" y="109.8">&lt;</tspan><tspan class="cls-26" x="7.67" y="109.8">/</tspan><tspan x="11.65" y="109.8">div&gt;</tspan></text><text class="cls-27" transform="translate(16.02 13.95)">Hell<tspan class="cls-28" x="22.11" y="0">o</tspan><tspan class="cls-29" x="29.31" y="0">-w</tspan><tspan x="43.33" y="0">o</tspan><tspan class="cls-30" x="50.42" y="0">r</tspan><tspan x="54.99" y="0">ld.html</tspan></text><rect class="cls-31" x="7" y="21" width="339" height="21.08" rx="10.54"/><text class="cls-32" transform="translate(17.32 33.57)"><tspan class="cls-33">F</tspan><tspan x="5.64" y="0" xml:space="preserve">ile   </tspan><tspan class="cls-34" x="23.9" y="0">F</tspan><tspan x="29.49" y="0">o</tspan><tspan class="cls-35" x="35.3" y="0">r</tspan><tspan x="39.03" y="0" xml:space="preserve">mat   </tspan><tspan class="cls-33" x="65.24" y="0">V</tspan><tspan x="71.71" y="0">i</tspan><tspan class="cls-33" x="74.31" y="0">e</tspan><tspan x="79.82" y="0" xml:space="preserve">w   Run   Help</tspan></text></svg>