<svg id="Layer_1" data-name="Layer 1" xmlns="http://www.w3.org/2000/svg" viewBox="0 0 355.59 179"><defs><style>.cls-1{fill:#2ab5e3;}.cls-2{fill:#fff;}.cls-10,.cls-3,.cls-7,.cls-8,.cls-9{isolation:isolate;}.cls-3{font-size:16.07px;font-family:ArialMT, Arial;}.cls-3,.cls-5{fill:#f7f7f7;}.cls-4{fill:none;stroke:#fff;stroke-miterlimit:10;}.cls-6{fill:#ddd;}.cls-10,.cls-8,.cls-9{font-size:9.04px;font-family:Montserrat-SemiBold, Montserrat;font-weight:600;}.cls-8{letter-spacing:-0.01em;}.cls-10{letter-spacing:-0.02em;}.cls-11{font-size:17.68px;}.cls-11,.cls-22{font-family:Montserrat-Medium, Montserrat;font-weight:500;}.cls-12{letter-spacing:-0.01em;}.cls-13{letter-spacing:-0.01em;}.cls-14{letter-spacing:-0.01em;}.cls-15{letter-spacing:0em;}.cls-16{letter-spacing:-0.02em;}.cls-17{letter-spacing:0em;}.cls-18{letter-spacing:-0.02em;}.cls-19{letter-spacing:0.01em;}.cls-20{letter-spacing:-0.01em;}.cls-21{letter-spacing:-0.01em;}.cls-22{font-size:12px;}.cls-23{letter-spacing:-0.01em;}.cls-24{letter-spacing:-0.01em;}</style></defs><title>why-16</title><path class="cls-1" d="M34.86,60H364.73c7.1,0,12.86,4.44,12.86,9.92V229.08c0,5.48-5.76,9.92-12.86,9.92H34.86c-7.1,0-12.86-4.44-12.86-9.92V69.92C22,64.44,27.76,60,34.86,60Z" transform="translate(-22 -60)"/><path class="cls-2" d="M39.62,81.09H359c5.84,0,10.58,3.5,10.58,7.82V220.13c0,4.32-4.74,7.82-10.58,7.82H39.62c-5.85,0-10.59-3.5-10.59-7.82V88.91C29,84.59,33.77,81.09,39.62,81.09Z" transform="translate(-22 -60)"/><text class="cls-3" transform="translate(332.85 14.03)">x</text><rect class="cls-4" x="310.89" y="6.53" width="7.03" height="7.03"/><rect class="cls-5" x="285.27" y="9.3" width="10.04" height="1.51"/><path class="cls-6" d="M39.62,81.09H359a10.59,10.59,0,0,1,10.58,10.59h0A10.59,10.59,0,0,1,359,102.27H39.62A10.59,10.59,0,0,1,29,91.68h0A10.59,10.59,0,0,1,39.62,81.09Z" transform="translate(-22 -60)"/><g class="cls-7"><text class="cls-8" transform="translate(15.19 33.72)">F</text><text class="cls-9" transform="translate(20.85 33.72)"><tspan xml:space="preserve">ile   </tspan></text><text class="cls-10" transform="translate(39.2 33.72)">F</text><text class="cls-9" transform="translate(44.81 33.72)">o</text><text class="cls-9" transform="translate(50.65 33.72)">r</text><text class="cls-9" transform="translate(54.39 33.72)"><tspan xml:space="preserve">mat   </tspan></text><text class="cls-8" transform="translate(80.72 33.72)">V</text><text class="cls-9" transform="translate(87.22 33.72)">i</text><text class="cls-8" transform="translate(89.83 33.72)">e</text><text class="cls-9" transform="translate(95.37 33.72)"><tspan xml:space="preserve">w   Run   Help</tspan></text></g><text class="cls-11" transform="translate(15.38 67.89)">p {<tspan x="0" y="21.21" xml:space="preserve">    </tspan><tspan class="cls-12" x="19.02" y="21.21">f</tspan><tspan x="25.12" y="21.21">on</tspan><tspan class="cls-13" x="48.39" y="21.21">t</tspan><tspan x="55.53" y="21.21">-si</tspan><tspan class="cls-14" x="76.09" y="21.21">z</tspan><tspan x="85.16" y="21.21">e: </tspan><tspan class="cls-15" x="104.75" y="21.21">2</tspan><tspan x="114.84" y="21.21">0</tspan><tspan class="cls-16" x="126.63" y="21.21">p</tspan><tspan class="cls-13" x="138.37" y="21.21">x</tspan><tspan x="147.95" y="21.21">;</tspan><tspan x="0" y="42.43" xml:space="preserve">    </tspan><tspan class="cls-12" x="19.02" y="42.43">c</tspan><tspan x="28.98" y="42.43">olo</tspan><tspan class="cls-17" x="56.36" y="42.43">r</tspan><tspan x="63.66" y="42.43">: whi</tspan><tspan class="cls-18" x="105.29" y="42.43">t</tspan><tspan x="112.29" y="42.43">e;</tspan><tspan x="0" y="63.64" xml:space="preserve">    </tspan><tspan class="cls-12" x="19.02" y="63.64">f</tspan><tspan x="25.12" y="63.64">on</tspan><tspan class="cls-13" x="48.39" y="63.64">t</tspan><tspan x="55.53" y="63.64">-</tspan><tspan class="cls-13" x="62.3" y="63.64">f</tspan><tspan x="68.36" y="63.64">amil</tspan><tspan class="cls-19" x="107.49" y="63.64">y</tspan><tspan x="117.49" y="63.64">: ti</tspan><tspan class="cls-17" x="138.51" y="63.64">m</tspan><tspan x="157.25" y="63.64">es-</tspan><tspan class="cls-17" x="183.7" y="63.64">n</tspan><tspan class="cls-13" x="195.79" y="63.64">e</tspan><tspan class="cls-20" x="206.43" y="63.64">w</tspan><tspan x="222.1" y="63.64">-</tspan><tspan class="cls-21" x="228.87" y="63.64">r</tspan><tspan x="235.9" y="63.64">oman;</tspan><tspan x="0" y="84.86">}</tspan></text><text class="cls-22" transform="translate(13.31 12.77)">s<tspan class="cls-23" x="6.01" y="0">t</tspan><tspan x="10.86" y="0">yles</tspan><tspan class="cls-24" x="34.27" y="0">.</tspan><tspan x="36.85" y="0">css</tspan></text></svg>