<svg id="Layer_1" data-name="Layer 1" xmlns="http://www.w3.org/2000/svg" viewBox="0 0 400 300.5"><defs><style>.cls-1{fill:#e1e3ea;}.cls-2{fill:#2ab5e3;}.cls-3{font-size:16px;font-family:Montserrat-Medium, Montserrat;font-weight:500;}.cls-4{letter-spacing:0.03em;}.cls-5{letter-spacing:0.01em;}.cls-6{letter-spacing:-0.02em;}.cls-7{letter-spacing:-0.01em;}.cls-8{letter-spacing:0em;}.cls-9{letter-spacing:-0.02em;}.cls-10{letter-spacing:-0.02em;}.cls-11{letter-spacing:-0.07em;}.cls-12{font-size:15px;fill:#4dc158;stroke:#a05512;stroke-miterlimit:10;stroke-width:0.5px;font-family:Montserrat-ExtraBoldItalic, Montserrat;font-style:italic;}.cls-12,.cls-26,.cls-30{font-weight:800;}.cls-13{letter-spacing:-0.01em;}.cls-14{letter-spacing:-0.01em;}.cls-15{letter-spacing:-0.01em;}.cls-16{letter-spacing:-0.02em;}.cls-17{letter-spacing:0.01em;}.cls-18{letter-spacing:-0.02em;}.cls-19{letter-spacing:-0.02em;}.cls-20{letter-spacing:0.01em;}.cls-21{letter-spacing:-0.01em;}.cls-22{letter-spacing:-0.01em;}.cls-23{letter-spacing:-0.02em;}.cls-24{letter-spacing:-0.01em;}.cls-25{letter-spacing:-0.06em;}.cls-26,.cls-30{font-size:20px;font-family:Montserrat-Black, Montserrat;}.cls-26{fill:#545454;}.cls-27{letter-spacing:0em;}.cls-28{letter-spacing:-0.01em;}.cls-29{letter-spacing:-0.01em;}.cls-30{fill:#fff;}.cls-31{letter-spacing:-0.01em;}.cls-32{letter-spacing:-0.01em;}</style></defs><title>why-17</title><rect class="cls-1" x="0.5" width="399.5" height="150"/><rect class="cls-2" y="149.5" width="400" height="151"/><text class="cls-3" transform="translate(5.86 123.06)">&lt;p id = <tspan class="cls-4" x="57.82" y="0">“</tspan><tspan x="64.96" y="0">plain</tspan><tspan class="cls-5" x="105.26" y="0">-</tspan><tspan class="cls-6" x="111.55" y="0">t</tspan><tspan class="cls-7" x="117.89" y="0">e</tspan><tspan x="127.44" y="0">xt”&gt; This is so</tspan><tspan class="cls-8" x="235.2" y="0">m</tspan><tspan x="252.16" y="0">e plain </tspan><tspan class="cls-9" x="310.86" y="0">t</tspan><tspan class="cls-10" x="317.19" y="0">e</tspan><tspan x="326.75" y="0">xt &lt;</tspan><tspan class="cls-11" x="355.82" y="0">/</tspan><tspan x="360.38" y="0">p&gt;</tspan></text><text class="cls-12" transform="translate(1.86 270.32)">&lt;p id = <tspan class="cls-13" x="56.94" y="0">“</tspan><tspan x="65.01" y="0">c</tspan><tspan class="cls-14" x="74.04" y="0">r</tspan><tspan x="80.58" y="0">a</tspan><tspan class="cls-15" x="91" y="0">z</tspan><tspan class="cls-16" x="99.19" y="0">y</tspan><tspan class="cls-17" x="108.22" y="0">-</tspan><tspan class="cls-18" x="114.19" y="0">t</tspan><tspan class="cls-19" x="120.66" y="0">e</tspan><tspan x="130" y="0">xt”&gt; This is so</tspan><tspan class="cls-20" x="240.31" y="0">m</tspan><tspan x="256.11" y="0">e c</tspan><tspan class="cls-21" x="279.07" y="0">r</tspan><tspan x="285.61" y="0">a</tspan><tspan class="cls-22" x="296.04" y="0">z</tspan><tspan x="304.23" y="0">y </tspan><tspan class="cls-23" x="317.89" y="0">t</tspan><tspan class="cls-24" x="324.36" y="0">e</tspan><tspan x="333.7" y="0">xt &lt;</tspan><tspan class="cls-25" x="363.19" y="0">/</tspan><tspan x="368.49" y="0">p&gt;</tspan></text><text class="cls-26" transform="translate(145.36 35.14)">Be<tspan class="cls-27" x="28.52" y="0">f</tspan><tspan x="36.94" y="0">o</tspan><tspan class="cls-28" x="50.5" y="0">r</tspan><tspan x="59.52" y="0">e </tspan><tspan class="cls-29" x="78.58" y="0">C</tspan><tspan x="93.26" y="0">SS</tspan></text><text class="cls-30" transform="translate(153.67 186.14)">Af<tspan class="cls-31" x="24.64" y="0">t</tspan><tspan x="33.54" y="0">er </tspan><tspan class="cls-32" x="61.72" y="0">C</tspan><tspan x="76.4" y="0">SS</tspan></text></svg>