<svg id="Layer_1" data-name="Layer 1" xmlns="http://www.w3.org/2000/svg" xmlns:xlink="http://www.w3.org/1999/xlink" viewBox="0 0 398 295"><defs><style>.cls-1{fill:#5c5c77;}.cls-2{fill:#3f3d56;}.cls-3{fill:#6c63ff;}.cls-4{fill:#e0e0e0;}.cls-5{fill:#edefed;}.cls-6{fill:#f2f2f2;}.cls-7{fill:#ff6584;}.cls-8{fill:#264de4;}.cls-9{fill:#2965f1;}.cls-10{fill:#ebebeb;}.cls-11{fill:#fff;}.cls-12{fill:none;stroke:#000;stroke-miterlimit:10;}</style></defs><title>why-21</title><ellipse class="cls-1" cx="202.12" cy="225.01" rx="147.96" ry="8.99"/><path class="cls-2" d="M63.2,220.2c3.39,6.09,10.6,8.71,10.6,8.71s1.7-7.26-1.7-13.36-10.59-8.7-10.59-8.7S59.81,214.11,63.2,220.2Z" transform="translate(-3 -4)"/><path class="cls-3" d="M65.53,218.2c6.13,3.57,8.49,10.65,8.49,10.65s-7.57,1.31-13.7-2.26-8.48-10.66-8.48-10.66S59.41,214.63,65.53,218.2Z" transform="translate(-3 -4)"/><rect class="cls-4" x="78.72" y="54.13" width="242.44" height="7.47"/><polygon class="cls-3" points="321.16 222.77 78.72 222.77 78.72 172.39 105.48 150.11 321.16 134.28 321.16 222.77"/><ellipse class="cls-3" cx="85.2" cy="57.75" rx="2" ry="1.93"/><ellipse class="cls-3" cx="91.69" cy="57.75" rx="2" ry="1.93"/><ellipse class="cls-3" cx="98.18" cy="57.75" rx="2" ry="1.93"/><polygon class="cls-5" points="78.72 172.28 321.16 134.03 321.16 61.6 78.72 61.6 78.72 172.28"/><path class="cls-2" d="M297,192.37q-9.82-1.62-18.89-2.77l2.39-4.49c-.8-.27-4.34,2.3-4.34,2.3l3.13-13c-4.05.48-6.11,13.77-6.11,13.77l-4.53-4.5,2.2,5.06A431.92,431.92,0,0,0,223,185.8l2-3.84c-.8-.27-4.34,2.3-4.34,2.3l3.13-13c-4,.47-6.11,13.76-6.11,13.76l-4.53-4.49,2.32,5.35q-13.8.22-27.54,1.81C190,181.69,197,176,197,176c-5.37,1.54-8.18,4.13-9.65,6.54a101.72,101.72,0,0,1,6.26-36.23s-11.09,23.37-9.68,39.06l.17,2.78A115.41,115.41,0,0,0,170,190.82Z" transform="translate(-3 -4)"/><rect class="cls-2" x="96.21" y="104.09" width="67.7" height="2.64"/><rect class="cls-2" x="96.21" y="109.9" width="67.7" height="2.64"/><rect class="cls-2" x="96.21" y="115.72" width="22.93" height="2.64"/><ellipse class="cls-6" cx="192.21" cy="217.76" rx="2.66" ry="2.58"/><ellipse class="cls-6" cx="199.94" cy="218.02" rx="2.66" ry="2.58"/><ellipse class="cls-6" cx="207.66" cy="218.27" rx="2.66" ry="2.58"/><ellipse class="cls-2" cx="199.96" cy="218.02" rx="2.13" ry="2.06"/><ellipse class="cls-7" cx="276" cy="66.9" rx="24.67" ry="23.89"/><path class="cls-3" d="M296.17,99.67c4.86,32.1-13.15,46.1-37.45,49.55l-1.69.22c-1.13.13-2.25.24-3.37.32-22.16,1.61-41-7.75-45.5-37.6-4.68-30.89,30.19-75.65,32.81-79h0l.15-.19S291.32,67.58,296.17,99.67Z" transform="translate(-3 -4)"/><path class="cls-2" d="M256.37,144.53l12.8-24.06-12.48,26.46.34,2.51c-1.13.13-2.25.24-3.37.32l-3.12-32.35,0-.25,0,0-.3-3.06L230.37,92.12l19.55,19.65.14.64L247.7,88,230.06,64.9l17.16,18.78L241,33.19l0-.17,0,.17,5.77,39.69,11.41-17.67-11,21.1,2.92,21.77,9.73-22.67-9.29,25.87,1.62,12.11,14.3-31.67-13.73,35.89Z" transform="translate(-3 -4)"/><g id="layer1"><g id="g3013"><polygon id="polygon2989" class="cls-8" points="387.98 15.53 382.88 72.66 359.95 79.01 337.09 72.67 332 15.53 387.98 15.53"/><polygon id="polygon2991" class="cls-9" points="378.51 69.02 382.87 20.2 359.99 20.2 359.99 74.15 378.51 69.02"/><polygon id="polygon2993" class="cls-10" points="343.68 41.39 344.31 48.4 359.99 48.4 359.99 41.39 343.68 41.39"/><polygon id="polygon2995" class="cls-10" points="359.99 27.21 359.96 27.21 342.42 27.21 343.05 34.22 359.99 34.22 359.99 27.21"/><polygon id="polygon2997" class="cls-10" points="359.99 66.88 359.99 59.59 359.96 59.6 352.15 57.49 351.65 51.9 347.86 51.9 344.62 51.9 345.6 62.91 359.96 66.89 359.99 66.88"/><path id="path2999" d="M348.17,4h8.49V7.55h-4.94V11.1h4.94v3.55h-8.49Z" transform="translate(-3 -4)"/><path id="path3001" d="M358.36,4h8.49V7.09h-4.94V7.7h4.94v7.1h-8.49V11.56h4.94v-.62h-4.94Z" transform="translate(-3 -4)"/><path id="path3003" d="M368.54,4H377V7.09h-4.94V7.7H377v7.1h-8.49V11.56h4.94v-.62h-4.94Z" transform="translate(-3 -4)"/><polygon id="polygon3005" class="cls-11" points="368.59 48.4 367.78 57.49 359.96 59.6 359.96 66.89 374.33 62.91 374.44 61.72 376.08 43.27 376.25 41.39 377.52 27.21 359.96 27.21 359.96 34.22 369.84 34.22 369.2 41.39 359.96 41.39 359.96 48.4 368.59 48.4"/></g></g><image width="500" height="500" transform="translate(321 218) scale(0.15)" xlink:href="../../../../../../../Downloads/js-logo.png"/><image width="512" height="512" transform="translate(0 20) scale(0.14)" xlink:href="../../../../../../../Downloads/PgcSR.png"/><line class="cls-12" x1="61.5" y1="83.5" x2="94" y2="107"/><line class="cls-12" x1="334" y1="76" x2="298" y2="104"/><line class="cls-12" x1="217" y1="222" x2="328" y2="258"/></svg>