<svg id="Layer_1" data-name="Layer 1" xmlns="http://www.w3.org/2000/svg" xmlns:xlink="http://www.w3.org/1999/xlink" viewBox="0 0 361.39 245.1"><defs><style>.cls-1{fill:#264de4;}.cls-2{fill:#2965f1;}.cls-3{fill:#ebebeb;}.cls-4{fill:#fff;}.cls-5{fill:none;stroke:#000;stroke-miterlimit:10;}.cls-6{fill:#e6e6e6;}.cls-7{fill:#6c63ff;}</style></defs><title>why-2</title><g id="layer1"><g id="g3013"><polygon id="polygon2989" class="cls-1" points="53.88 195.33 49.88 240.12 31.91 245.1 13.99 240.12 10 195.33 53.88 195.33"/><polygon id="polygon2991" class="cls-2" points="46.46 237.26 49.88 198.99 31.94 198.99 31.94 241.29 46.46 237.26"/><polygon id="polygon2993" class="cls-3" points="19.16 215.6 19.65 221.1 31.94 221.1 31.94 215.6 19.16 215.6"/><polygon id="polygon2995" class="cls-3" points="31.94 204.49 31.92 204.49 18.17 204.49 18.66 209.98 31.94 209.98 31.94 204.49"/><polygon id="polygon2997" class="cls-3" points="31.94 235.59 31.94 229.87 31.92 229.88 25.8 228.23 25.41 223.85 22.43 223.85 19.89 223.85 20.66 232.47 31.92 235.59 31.94 235.59"/><path id="path2999" d="M49.33,210.16H56v2.78H52.11v2.78H56v2.78H49.33Z" transform="translate(-29 -27)"/><path id="path3001" d="M57.31,210.16H64v2.42H60.09v.48H64v5.57H57.31v-2.54h3.87v-.49H57.31Z" transform="translate(-29 -27)"/><path id="path3003" d="M65.3,210.16H72v2.42H68.08v.48H72v5.57H65.3v-2.54h3.87v-.49H65.3Z" transform="translate(-29 -27)"/><polygon id="polygon3005" class="cls-4" points="38.69 221.1 38.05 228.22 31.92 229.88 31.92 235.59 43.18 232.47 43.27 231.54 44.56 217.08 44.69 215.6 45.68 204.49 31.92 204.49 31.92 209.98 39.66 209.98 39.16 215.6 31.92 215.6 31.92 221.1 38.69 221.1"/></g></g><image width="500" height="500" transform="translate(2 88) scale(0.12)" xlink:href="../../../../../../../Downloads/js-logo.png"/><image width="512" height="512" transform="scale(0.13)" xlink:href="../../../../../../../Downloads/PgcSR.png"/><line class="cls-5" x1="166" y1="116" x2="69.5" y2="42.5"/><line class="cls-5" x1="166.53" y1="115.94" x2="73.5" y2="195.5"/><line class="cls-5" x1="165.03" y1="116.07" x2="78.5" y2="116.5"/><rect class="cls-6" x="149.09" y="49.12" width="212.3" height="135.97"/><rect class="cls-4" x="155.16" y="66.17" width="200.16" height="110.87"/><rect class="cls-7" x="149" y="49" width="212.3" height="9.02"/><circle class="cls-4" cx="155.7" cy="53.61" r="1.67"/><circle class="cls-4" cx="162.05" cy="53.61" r="1.67"/><circle class="cls-4" cx="168.39" cy="53.61" r="1.67"/><rect class="cls-6" x="173.35" y="77.68" width="51.43" height="87.86"/><rect class="cls-7" x="233.66" y="77.68" width="42.86" height="24.19"/><rect class="cls-6" x="233.66" y="108.6" width="42.86" height="26.02"/><rect class="cls-6" x="233.66" y="141.36" width="42.86" height="24.19"/><rect class="cls-6" x="285.7" y="77.68" width="51.43" height="38.29"/><rect class="cls-7" x="285.7" y="127.25" width="51.43" height="38.29"/></svg>