<svg id="Layer_1" data-name="Layer 1" xmlns="http://www.w3.org/2000/svg" viewBox="0 0 172.87 244.01"><defs><style>.cls-1{fill:#264de4;}.cls-2{fill:#2965f1;}.cls-3{fill:#ebebeb;}.cls-4{fill:#fff;}</style></defs><title>why-15</title><g id="layer1"><g id="g3013"><polygon id="polygon2989" class="cls-1" points="172.87 47.95 157.12 224.38 86.33 244.01 15.73 224.41 0 47.95 172.87 47.95"/><polygon id="polygon2991" class="cls-2" points="143.64 213.15 157.1 62.38 86.44 62.38 86.44 229.01 143.64 213.15"/><polygon id="polygon2993" class="cls-3" points="36.07 127.83 38.01 149.47 86.44 149.47 86.44 127.83 36.07 127.83"/><polygon id="polygon2995" class="cls-3" points="86.44 84.02 86.36 84.02 32.17 84.02 34.14 105.67 86.44 105.67 86.44 84.02"/><polygon id="polygon2997" class="cls-3" points="86.44 206.55 86.44 184.03 86.34 184.06 62.24 177.55 60.7 160.29 48.99 160.29 38.97 160.29 42.01 194.27 86.34 206.58 86.44 206.55"/><path id="path2999" d="M154.68,28H180.9V39H165.65v11H180.9v11H154.68Z" transform="translate(-114 -28)"/><path id="path3001" d="M186.14,28h26.21v9.53H197.1v1.91h15.25V61.36H186.14v-10h15.25v-1.9H186.14Z" transform="translate(-114 -28)"/><path id="path3003" d="M217.59,28h26.22v9.53H228.56v1.91h15.25V61.36H217.59v-10h15.25v-1.9H217.59Z" transform="translate(-114 -28)"/><polygon id="polygon3005" class="cls-4" points="113.01 149.47 110.5 177.54 86.36 184.05 86.36 206.57 130.73 194.27 131.06 190.62 136.14 133.64 136.67 127.83 140.57 84.02 86.36 84.02 86.36 105.67 116.86 105.67 114.89 127.83 86.36 127.83 86.36 149.47 113.01 149.47"/></g></g></svg>