<svg id="Layer_1" data-name="Layer 1" xmlns="http://www.w3.org/2000/svg" viewBox="0 0 350.51 263.53"><defs><style>.cls-1{font-size:36px;fill:#2ab5e3;font-family:Montserrat-Bold, Montserrat;font-weight:700;}.cls-2{letter-spacing:0.72em;}.cls-3{letter-spacing:-0.01em;}.cls-4{letter-spacing:0.01em;}.cls-5{letter-spacing:0.01em;}.cls-6{letter-spacing:0em;}.cls-7{letter-spacing:-0.01em;}.cls-8{letter-spacing:0em;}.cls-9{letter-spacing:0em;}.cls-10{letter-spacing:0em;}.cls-11{letter-spacing:-0.02em;}.cls-12{letter-spacing:-0.01em;}</style></defs><title>why-19</title><text class="cls-1" transform="translate(0 30.6)">p {<tspan class="cls-2" x="0" y="43.2">	</tspan><tspan class="cls-3" x="36" y="43.2">c</tspan><tspan x="57.02" y="43.2">olo</tspan><tspan class="cls-4" x="115.02" y="43.2">r</tspan><tspan x="130.75" y="43.2">: bl</tspan><tspan class="cls-5" x="186.05" y="43.2">a</tspan><tspan class="cls-6" x="208.47" y="43.2">c</tspan><tspan x="229.6" y="43.2">k;</tspan><tspan class="cls-2" x="0" y="86.4">	</tspan><tspan class="cls-3" x="36" y="86.4">f</tspan><tspan x="49.68" y="86.4">on</tspan><tspan class="cls-7" x="98.14" y="86.4">t</tspan><tspan x="113.44" y="86.4">-</tspan><tspan class="cls-7" x="127.33" y="86.4">f</tspan><tspan x="140.9" y="86.4">amil</tspan><tspan class="cls-8" x="222.55" y="86.4">y</tspan><tspan x="244.22" y="86.4">: </tspan><tspan x="0" y="129.6">a</tspan><tspan class="cls-9" x="22.21" y="129.6">r</tspan><tspan x="37.58" y="129.6">ial;</tspan><tspan class="cls-2" x="0" y="172.8">	</tspan><tspan class="cls-3" x="36" y="172.8">f</tspan><tspan x="49.68" y="172.8">on</tspan><tspan class="cls-7" x="98.14" y="172.8">t</tspan><tspan x="113.44" y="172.8">-si</tspan><tspan class="cls-3" x="157.28" y="172.8">z</tspan><tspan x="176.58" y="172.8">e: </tspan><tspan class="cls-10" x="218.91" y="172.8">2</tspan><tspan x="240.08" y="172.8">0</tspan><tspan class="cls-11" x="264.53" y="172.8">p</tspan><tspan class="cls-12" x="288.75" y="172.8">x</tspan><tspan x="309.81" y="172.8">;</tspan><tspan x="0" y="216">}</tspan></text></svg>