<svg id="Layer_1" data-name="Layer 1" xmlns="http://www.w3.org/2000/svg" viewBox="0 0 375 211.47"><defs><style>.cls-1{fill:none;stroke:#3f3d56;stroke-miterlimit:10;}.cls-2{fill:#6c63ff;}.cls-3{fill:#f2f2f2;}.cls-10,.cls-4{font-size:16px;fill:#474747;font-family:Montserrat-SemiBold, Montserrat;font-weight:600;}.cls-10,.cls-5{letter-spacing:-0.01em;}.cls-6{letter-spacing:0em;}.cls-7{letter-spacing:-0.02em;}.cls-8{letter-spacing:-0.01em;}.cls-9{letter-spacing:-0.05em;}.cls-11{letter-spacing:-0.02em;}</style></defs><title>why-20</title><circle class="cls-1" cx="344.69" cy="31.58" r="14.61"/><path class="cls-2" d="M387.45,48.11l-3.53-3.55a1.88,1.88,0,0,0-2.65,0v0l-22.17,22-9.37-9.45a1.87,1.87,0,0,0-2.64,0h0l-3.57,3.53a1.89,1.89,0,0,0,0,2.67L357.73,77.6a1.88,1.88,0,0,0,2.66,0l27.05-26.84a1.89,1.89,0,0,0,0-2.66Z" transform="translate(-13 -44)"/><rect class="cls-3" y="24.28" width="264.82" height="30.18" rx="14.87"/><rect class="cls-3" x="0.33" y="76.61" width="264.82" height="30.18" rx="14.87"/><rect class="cls-3" x="0.66" y="128.95" width="264.82" height="30.18" rx="14.87"/><rect class="cls-3" x="0.99" y="181.29" width="264.82" height="30.18" rx="14.87"/><rect class="cls-1" x="8.28" y="16.49" width="264.82" height="30.18" rx="14.87"/><rect class="cls-1" x="8.61" y="68.83" width="264.82" height="30.18" rx="14.87"/><rect class="cls-1" x="8.94" y="121.16" width="264.82" height="30.18" rx="14.87"/><rect class="cls-1" x="9.27" y="173.5" width="264.82" height="30.18" rx="14.87"/><circle class="cls-1" cx="344.69" cy="84.16" r="14.61"/><circle class="cls-1" cx="344.69" cy="136.74" r="14.61"/><circle class="cls-1" cx="344.69" cy="189.32" r="14.61"/><path class="cls-2" d="M387.45,101.18l-3.53-3.55a1.88,1.88,0,0,0-2.65,0h0l-22.17,22-9.37-9.44a1.86,1.86,0,0,0-2.64,0h0l-3.57,3.53a1.88,1.88,0,0,0,0,2.66l14.24,14.35a1.9,1.9,0,0,0,2.66,0l27.05-26.85a1.88,1.88,0,0,0,0-2.65Z" transform="translate(-13 -44)"/><path class="cls-2" d="M387.45,207.31l-3.53-3.55a1.88,1.88,0,0,0-2.65,0h0l-22.17,22-9.37-9.45a1.86,1.86,0,0,0-2.64,0h0l-3.57,3.53a1.88,1.88,0,0,0,0,2.66l14.24,14.35a1.89,1.89,0,0,0,2.66,0L387.44,210a1.88,1.88,0,0,0,0-2.65Z" transform="translate(-13 -44)"/><path class="cls-2" d="M385.45,154.18l-3.53-3.55a1.88,1.88,0,0,0-2.65,0h0l-22.17,22-9.37-9.44a1.86,1.86,0,0,0-2.64,0h0l-3.57,3.53a1.88,1.88,0,0,0,0,2.66l14.24,14.35a1.9,1.9,0,0,0,2.66,0l27.05-26.85a1.88,1.88,0,0,0,0-2.65Z" transform="translate(-13 -44)"/><text class="cls-4" transform="translate(27 33.08)"><tspan class="cls-5">F</tspan><tspan class="cls-6" x="9.95" y="0">ont </tspan><tspan class="cls-7" x="42.43" y="0">F</tspan><tspan x="52.35" y="0">amily</tspan></text><text class="cls-4" transform="translate(27 87.08)"><tspan class="cls-5">F</tspan><tspan class="cls-6" x="9.95" y="0">ont Si</tspan><tspan class="cls-8" x="57.12" y="0">z</tspan><tspan x="65.5" y="0">e</tspan></text><text class="cls-4" transform="translate(23 139.08)"><tspan class="cls-5">F</tspan><tspan class="cls-6" x="9.95" y="0">ont </tspan><tspan class="cls-9" x="42.43" y="0">W</tspan><tspan x="59.86" y="0">eight</tspan></text><text class="cls-10" transform="translate(21 191.08)">F<tspan class="cls-6" x="9.95" y="0">ont </tspan><tspan class="cls-11" x="42.43" y="0">C</tspan><tspan class="cls-6" x="53.74" y="0">olour</tspan></text></svg>