<svg id="Layer_1" data-name="Layer 1" xmlns="http://www.w3.org/2000/svg" xmlns:xlink="http://www.w3.org/1999/xlink" viewBox="0 0 399.5 300.5"><defs><style>.cls-1{fill:#2ab5e3;}.cls-2{fill:#0b92bf;}.cls-10,.cls-3,.cls-8,.cls-9{fill:#fff;}.cls-10,.cls-13,.cls-14,.cls-15,.cls-16,.cls-4,.cls-7,.cls-8,.cls-9{isolation:isolate;}.cls-4{font-size:7.27px;font-family:ArialMT, Arial;}.cls-4,.cls-6{fill:#f7f7f7;}.cls-5{fill:none;stroke:#fff;stroke-miterlimit:10;}.cls-10,.cls-8,.cls-9{font-size:5px;}.cls-10,.cls-13,.cls-14,.cls-15,.cls-16,.cls-8,.cls-9{font-family:Montserrat-SemiBold, Montserrat;font-weight:600;}.cls-9{letter-spacing:0.01em;}.cls-10{letter-spacing:-0.03em;}.cls-11{letter-spacing:-0.02em;}.cls-12{fill:#ddd;}.cls-13,.cls-14,.cls-15,.cls-16{font-size:4.09px;}.cls-13{letter-spacing:-0.01em;}.cls-15{letter-spacing:-0.02em;}.cls-16{letter-spacing:-0.01em;}.cls-17{letter-spacing:0.01em;}.cls-18{font-size:8px;}.cls-18,.cls-25{font-family:Montserrat-Medium, Montserrat;font-weight:500;}.cls-19{letter-spacing:0em;}.cls-20{letter-spacing:0.01em;}.cls-21{letter-spacing:0.02em;}.cls-22{letter-spacing:-0.01em;}.cls-23{letter-spacing:0.03em;}.cls-24{letter-spacing:-0.01em;}.cls-25{font-size:6px;}.cls-26{letter-spacing:0em;}.cls-27{letter-spacing:-0.01em;}.cls-28{letter-spacing:-0.01em;}.cls-29{letter-spacing:-0.01em;}.cls-30{letter-spacing:0em;}.cls-31{letter-spacing:-0.01em;}.cls-32{letter-spacing:0.01em;}.cls-33{letter-spacing:-0.01em;}.cls-34{letter-spacing:0.01em;}.cls-35{letter-spacing:-0.07em;}.cls-36{letter-spacing:0.01em;}.cls-37{letter-spacing:0.01em;}.cls-38{letter-spacing:0.03em;}.cls-39{letter-spacing:-0.01em;}</style></defs><title>why-12</title><rect id="BACK_1" class="cls-1" y="0.5" width="197.5" height="300"/><rect id="BACK_2" class="cls-2" x="197.5" width="202" height="300"/><image width="512" height="512" transform="translate(49.5 14) scale(0.18)" xlink:href="../../../../../../../Downloads/PgcSR.png"/><image width="500" height="500" transform="translate(243.5 10) scale(0.18)" xlink:href="../../../../../../../Downloads/js-logo.png"/><path class="cls-2" d="M24.82,127H174.09c3.21,0,5.82,3.87,5.82,8.64V274.36c0,4.77-2.61,8.64-5.82,8.64H24.82c-3.22,0-5.82-3.87-5.82-8.64V135.64C19,130.87,21.6,127,24.82,127Z" transform="translate(-0.5)"/><path class="cls-3" d="M27,136.55H171.48c2.65,0,4.79,3.37,4.79,7.53V270.47c0,4.16-2.14,7.53-4.79,7.53H27c-2.64,0-4.79-3.37-4.79-7.53V144.08C22.18,139.92,24.33,136.55,27,136.55Z" transform="translate(-0.5)"/><text class="cls-4" transform="translate(169.12 133.35)">x</text><rect class="cls-5" x="159.18" y="129.95" width="3.18" height="3.18"/><rect class="cls-6" x="147.59" y="131.21" width="4.55" height="0.68"/><g class="cls-7"><text class="cls-8" transform="translate(25.78 133.34)">Hell</text><text class="cls-9" transform="translate(35.83 133.34)">o</text><text class="cls-10" transform="translate(39.1 133.34)">-<tspan class="cls-11" x="1.75" y="0">w</tspan></text><text class="cls-8" transform="translate(45.48 133.34)">o</text><text class="cls-8" transform="translate(48.7 133.34)">r</text><text class="cls-8" transform="translate(50.78 133.34)">ld.html</text></g><path class="cls-12" d="M27,136.55H171.48a4.78,4.78,0,0,1,4.79,4.79h0a4.79,4.79,0,0,1-4.79,4.79H27a4.8,4.8,0,0,1-4.79-4.79h0A4.79,4.79,0,0,1,27,136.55Z" transform="translate(-0.5)"/><g class="cls-7"><text class="cls-13" transform="translate(26.37 142.26)">F</text><text class="cls-14" transform="translate(28.94 142.26)"><tspan xml:space="preserve">ile   </tspan></text><text class="cls-15" transform="translate(37.24 142.26)">F</text><text class="cls-14" transform="translate(39.78 142.26)">o</text><text class="cls-14" transform="translate(42.42 142.26)">r</text><text class="cls-14" transform="translate(44.11 142.26)"><tspan xml:space="preserve">mat   </tspan></text><text class="cls-13" transform="translate(56.03 142.26)">V</text><text class="cls-14" transform="translate(58.97 142.26)">i</text><text class="cls-16" transform="translate(60.15 142.26)">e</text><text class="cls-14" transform="translate(62.65 142.26)"><tspan xml:space="preserve">w   Run   Help</tspan></text></g><path class="cls-1" d="M224.82,106H374.09c3.21,0,5.82,2,5.82,4.49v72c0,2.48-2.61,4.49-5.82,4.49H224.82c-3.22,0-5.82-2-5.82-4.49v-72C219,108,221.6,106,224.82,106Z" transform="translate(-0.5)"/><path class="cls-3" d="M227,115.55H371.48c2.65,0,4.79,1.58,4.79,3.53v59.38c0,2-2.14,3.54-4.79,3.54H227c-2.64,0-4.79-1.58-4.79-3.54V119.08C222.18,117.13,224.33,115.55,227,115.55Z" transform="translate(-0.5)"/><text class="cls-4" transform="translate(369.12 112.35)">x</text><rect class="cls-5" x="359.18" y="108.95" width="3.18" height="3.18"/><rect class="cls-6" x="347.59" y="110.21" width="4.55" height="0.68"/><g class="cls-7"><text class="cls-8" transform="translate(225.78 112.34)">Hell</text><text class="cls-9" transform="translate(235.83 112.34)">o</text><text class="cls-10" transform="translate(239.1 112.34)">-<tspan class="cls-11" x="1.75" y="0">w</tspan></text><text class="cls-8" transform="translate(245.48 112.34)">o</text><text class="cls-8" transform="translate(248.7 112.34)">r</text><text class="cls-8" transform="translate(250.78 112.34)">ld<tspan class="cls-17" x="4.88" y="0">.</tspan><tspan x="6.15" y="0">js</tspan></text></g><path class="cls-12" d="M227,115.55H371.48a4.78,4.78,0,0,1,4.79,4.79h0a4.79,4.79,0,0,1-4.79,4.79H227a4.8,4.8,0,0,1-4.79-4.79h0A4.79,4.79,0,0,1,227,115.55Z" transform="translate(-0.5)"/><g class="cls-7"><text class="cls-13" transform="translate(225.37 121.26)">F</text><text class="cls-14" transform="translate(227.94 121.26)"><tspan xml:space="preserve">ile   </tspan></text><text class="cls-15" transform="translate(236.24 121.26)">F</text><text class="cls-14" transform="translate(238.78 121.26)">o</text><text class="cls-14" transform="translate(241.42 121.26)">r</text><text class="cls-14" transform="translate(243.11 121.26)"><tspan xml:space="preserve">mat   </tspan></text><text class="cls-13" transform="translate(255.03 121.26)">V</text><text class="cls-14" transform="translate(257.97 121.26)">i</text><text class="cls-16" transform="translate(259.15 121.26)">e</text><text class="cls-14" transform="translate(261.65 121.26)"><tspan xml:space="preserve">w   Run   Help</tspan></text></g><text class="cls-18" transform="translate(225.46 136.72)">fu<tspan class="cls-19" x="8.24" y="0">n</tspan><tspan class="cls-20" x="13.71" y="0">c</tspan><tspan x="18.34" y="0">tion ale</tspan><tspan class="cls-21" x="48.47" y="0">r</tspan><tspan x="51.88" y="0">tUse</tspan><tspan class="cls-22" x="70.42" y="0">r</tspan><tspan x="73.6" y="0">() {</tspan><tspan x="0" y="9.6" xml:space="preserve">      ale</tspan><tspan class="cls-21" x="24.83" y="9.6">r</tspan><tspan x="28.23" y="9.6">t(”Hello use</tspan><tspan class="cls-23" x="74.97" y="9.6">r</tspan><tspan x="78.52" y="9.6">”);</tspan><tspan x="0" y="19.2">}</tspan><tspan x="0" y="38.4">ale</tspan><tspan class="cls-21" x="11.91" y="38.4">r</tspan><tspan x="15.31" y="38.4">tUse</tspan><tspan class="cls-24" x="33.86" y="38.4">r</tspan><tspan x="37.04" y="38.4">();</tspan></text><path class="cls-1" d="M224.82,192H374.09a5.85,5.85,0,0,1,5.82,5.87v94.26a5.85,5.85,0,0,1-5.82,5.87H224.82a5.84,5.84,0,0,1-5.82-5.87V197.87A5.84,5.84,0,0,1,224.82,192Z" transform="translate(-0.5)"/><path class="cls-3" d="M227,201.55H371.48a4.88,4.88,0,0,1,4.79,5V290a4.88,4.88,0,0,1-4.79,5H227a4.89,4.89,0,0,1-4.79-5V206.52A4.88,4.88,0,0,1,227,201.55Z" transform="translate(-0.5)"/><text class="cls-4" transform="translate(369.12 198.35)">x</text><rect class="cls-5" x="359.18" y="194.95" width="3.18" height="3.18"/><rect class="cls-6" x="347.59" y="196.21" width="4.55" height="0.68"/><g class="cls-7"><text class="cls-8" transform="translate(225.78 198.34)">Hell</text><text class="cls-9" transform="translate(235.83 198.34)">o</text><text class="cls-10" transform="translate(239.1 198.34)">-<tspan class="cls-11" x="1.75" y="0">w</tspan></text><text class="cls-8" transform="translate(245.48 198.34)">o</text><text class="cls-8" transform="translate(248.7 198.34)">r</text><text class="cls-8" transform="translate(250.78 198.34)">ld.html</text></g><path class="cls-12" d="M227,201.55H371.48a4.78,4.78,0,0,1,4.79,4.79h0a4.79,4.79,0,0,1-4.79,4.79H227a4.8,4.8,0,0,1-4.79-4.79h0A4.79,4.79,0,0,1,227,201.55Z" transform="translate(-0.5)"/><g class="cls-7"><text class="cls-13" transform="translate(225.37 207.26)">F</text><text class="cls-14" transform="translate(227.94 207.26)"><tspan xml:space="preserve">ile   </tspan></text><text class="cls-15" transform="translate(236.24 207.26)">F</text><text class="cls-14" transform="translate(238.78 207.26)">o</text><text class="cls-14" transform="translate(241.42 207.26)">r</text><text class="cls-14" transform="translate(243.11 207.26)"><tspan xml:space="preserve">mat   </tspan></text><text class="cls-13" transform="translate(255.03 207.26)">V</text><text class="cls-14" transform="translate(257.97 207.26)">i</text><text class="cls-16" transform="translate(259.15 207.26)">e</text><text class="cls-14" transform="translate(261.65 207.26)"><tspan xml:space="preserve">w   Run   Help</tspan></text></g><text class="cls-25" transform="translate(225.46 230.24)">&lt;html la<tspan class="cls-26" x="24.95" y="0">n</tspan><tspan x="29.06" y="0">g = </tspan><tspan class="cls-27" x="39.92" y="0">“</tspan><tspan x="42.34" y="0">e</tspan><tspan class="cls-28" x="46.01" y="0">n</tspan><tspan x="50.06" y="0">”&gt;</tspan><tspan x="0" y="7.2" xml:space="preserve">    &lt;</tspan><tspan class="cls-26" x="9.95" y="7.2">h</tspan><tspan class="cls-29" x="14.05" y="7.2">e</tspan><tspan class="cls-30" x="17.63" y="7.2">a</tspan><tspan x="21.24" y="7.2">d&gt;</tspan><tspan x="0" y="14.4" xml:space="preserve">    &lt;/</tspan><tspan class="cls-26" x="12.06" y="14.4">h</tspan><tspan class="cls-29" x="16.17" y="14.4">e</tspan><tspan class="cls-30" x="19.75" y="14.4">a</tspan><tspan x="23.35" y="14.4">d&gt;</tspan><tspan x="0" y="21.6" xml:space="preserve">    &lt;body&gt;</tspan><tspan x="0" y="28.8" xml:space="preserve">        &lt;sc</tspan><tspan class="cls-28" x="22.84" y="28.8">r</tspan><tspan x="25.26" y="28.8">ipt s</tspan><tspan class="cls-31" x="38.13" y="28.8">r</tspan><tspan x="40.51" y="28.8">c = “</tspan><tspan class="cls-30" x="53.16" y="28.8">h</tspan><tspan x="57.26" y="28.8">ell</tspan><tspan class="cls-32" x="64.28" y="28.8">o</tspan><tspan class="cls-33" x="68.15" y="28.8">-</tspan><tspan class="cls-29" x="70.37" y="28.8">w</tspan><tspan x="75.67" y="28.8">o</tspan><tspan class="cls-28" x="79.48" y="28.8">r</tspan><tspan x="81.9" y="28.8">ld</tspan><tspan class="cls-34" x="87.67" y="28.8">.</tspan><tspan x="89.09" y="28.8">js”&gt;&lt;</tspan><tspan class="cls-35" x="103.28" y="28.8">/</tspan><tspan x="104.99" y="28.8">sc</tspan><tspan class="cls-28" x="111.42" y="28.8">r</tspan><tspan x="113.84" y="28.8">ipt&gt;</tspan><tspan x="0" y="36" xml:space="preserve">    &lt;/body&gt;</tspan><tspan x="0" y="43.2">&lt;/html&gt;</tspan></text><text class="cls-25" transform="translate(26.46 155.24)">&lt;html la<tspan class="cls-26" x="24.95" y="0">n</tspan><tspan x="29.06" y="0">g = </tspan><tspan class="cls-27" x="39.92" y="0">“</tspan><tspan x="42.34" y="0">e</tspan><tspan class="cls-28" x="46.01" y="0">n</tspan><tspan x="50.06" y="0">”&gt;</tspan><tspan x="0" y="7.2" xml:space="preserve">    &lt;</tspan><tspan class="cls-26" x="9.95" y="7.2">h</tspan><tspan class="cls-29" x="14.05" y="7.2">e</tspan><tspan class="cls-30" x="17.63" y="7.2">a</tspan><tspan x="21.24" y="7.2">d&gt;</tspan><tspan x="0" y="14.4" xml:space="preserve">    &lt;/</tspan><tspan class="cls-26" x="12.06" y="14.4">h</tspan><tspan class="cls-29" x="16.17" y="14.4">e</tspan><tspan class="cls-30" x="19.75" y="14.4">a</tspan><tspan x="23.35" y="14.4">d&gt;</tspan><tspan x="0" y="21.6" xml:space="preserve">    &lt;body&gt;</tspan><tspan x="0" y="28.8" xml:space="preserve">        &lt;sc</tspan><tspan class="cls-28" x="22.84" y="28.8">r</tspan><tspan x="25.26" y="28.8">ipt&gt;</tspan><tspan x="0" y="43.2" xml:space="preserve">            fu</tspan><tspan class="cls-26" x="25.55" y="43.2">n</tspan><tspan class="cls-36" x="29.65" y="43.2">c</tspan><tspan x="33.12" y="43.2">tion ale</tspan><tspan class="cls-37" x="55.72" y="43.2">r</tspan><tspan x="58.27" y="43.2">tUse</tspan><tspan class="cls-27" x="72.18" y="43.2">r</tspan><tspan x="74.57" y="43.2">() {</tspan><tspan x="0" y="50.4" xml:space="preserve">               ale</tspan><tspan class="cls-37" x="33.15" y="50.4">r</tspan><tspan x="35.7" y="50.4">t(”Hello use</tspan><tspan class="cls-38" x="70.75" y="50.4">r</tspan><tspan x="73.41" y="50.4">”);</tspan><tspan x="0" y="57.6" xml:space="preserve">            }</tspan><tspan x="0" y="64.8" xml:space="preserve">            ale</tspan><tspan class="cls-37" x="28.3" y="64.8">r</tspan><tspan x="30.85" y="64.8">tUse</tspan><tspan class="cls-31" x="44.76" y="64.8">r</tspan><tspan x="47.15" y="64.8">(); </tspan><tspan x="0" y="79.2" xml:space="preserve">        &lt;</tspan><tspan class="cls-35" x="16.41" y="79.2">/</tspan><tspan x="18.12" y="79.2">sc</tspan><tspan class="cls-39" x="24.55" y="79.2">r</tspan><tspan x="26.97" y="79.2">ipt&gt;</tspan><tspan x="0" y="86.4" xml:space="preserve">    &lt;/body&gt;</tspan><tspan x="0" y="93.6">&lt;/html&gt;</tspan></text></svg>