<svg id="Layer_1" data-name="Layer 1" xmlns="http://www.w3.org/2000/svg" viewBox="0 0 388 264.15"><defs><style>.cls-1{fill:#3f3d56;}.cls-2{fill:#6c63ff;}.cls-3{fill:#ffb8b8;}.cls-4{fill:#585868;}</style></defs><title>why-13</title><rect class="cls-1" width="374.33" height="201.36"/><rect class="cls-2" x="67.67" y="28.39" width="3.3" height="5.28"/><rect class="cls-2" x="78.89" y="27.07" width="3.3" height="5.28"/><rect class="cls-2" x="84.84" y="27.07" width="3.3" height="5.28"/><rect class="cls-2" x="84.84" y="42.91" width="3.3" height="5.28"/><rect class="cls-2" x="91.44" y="34.99" width="3.3" height="5.28"/><rect class="cls-2" x="91.44" y="43.57" width="3.3" height="5.28"/><rect class="cls-2" x="84.84" y="60.08" width="3.3" height="5.28"/><rect class="cls-2" x="91.44" y="68.66" width="3.3" height="5.28"/><rect class="cls-2" x="84.84" y="101.01" width="3.3" height="5.28"/><rect class="cls-2" x="78.89" y="68.66" width="3.3" height="5.28"/><rect class="cls-2" x="67.67" y="36.97" width="3.3" height="5.28"/><rect class="cls-2" x="67.67" y="119.5" width="3.3" height="5.28"/><rect class="cls-2" x="67.67" y="136.66" width="3.3" height="5.28"/><rect class="cls-2" x="67.67" y="145.24" width="3.3" height="5.28"/><rect class="cls-2" x="66.35" y="46.21" width="4.62" height="0.66"/><rect class="cls-2" x="84.18" y="54.14" width="4.62" height="0.66"/><rect class="cls-2" x="66.35" y="88.47" width="4.62" height="0.66"/><rect class="cls-2" x="66.35" y="95.73" width="4.62" height="0.66"/><rect class="cls-2" x="84.18" y="137.98" width="4.62" height="0.66"/><rect class="cls-2" x="78.89" y="153.83" width="4.62" height="0.66"/><polygon class="cls-2" points="67.67 52.16 67.67 53.48 68.99 53.48 68.99 56.12 67.67 56.12 67.67 57.44 70.97 57.44 70.97 52.16 67.67 52.16"/><polygon class="cls-2" points="78.89 42.91 78.89 44.23 80.22 44.23 80.22 46.87 78.89 46.87 78.89 48.2 82.19 48.2 82.19 42.91 78.89 42.91"/><polygon class="cls-2" points="91.44 51.5 91.44 52.82 92.76 52.82 92.76 55.46 91.44 55.46 91.44 56.78 94.74 56.78 94.74 51.5 91.44 51.5"/><polygon class="cls-2" points="91.44 77.24 91.44 78.56 92.76 78.56 92.76 81.2 91.44 81.2 91.44 82.53 94.74 82.53 94.74 77.24 91.44 77.24"/><polygon class="cls-2" points="91.44 85.83 91.44 87.15 92.76 87.15 92.76 89.79 91.44 89.79 91.44 91.11 94.74 91.11 94.74 85.83 91.44 85.83"/><polygon class="cls-2" points="91.44 59.42 91.44 60.74 92.76 60.74 92.76 63.38 91.44 63.38 91.44 64.7 94.74 64.7 94.74 59.42 91.44 59.42"/><polygon class="cls-2" points="84.84 34.99 84.84 36.31 86.16 36.31 86.16 38.95 84.84 38.95 84.84 40.27 88.14 40.27 88.14 34.99 84.84 34.99"/><rect class="cls-2" x="84.84" y="77.24" width="3.3" height="5.28"/><rect class="cls-2" x="84.84" y="93.09" width="3.3" height="5.28"/><polygon class="cls-2" points="84.84 85.17 84.84 86.49 86.16 86.49 86.16 89.13 84.84 89.13 84.84 90.45 88.14 90.45 88.14 85.17 84.84 85.17"/><polygon class="cls-2" points="78.89 51.5 78.89 52.82 80.22 52.82 80.22 55.46 78.89 55.46 78.89 56.78 82.19 56.78 82.19 51.5 78.89 51.5"/><polygon class="cls-2" points="78.89 60.08 78.89 61.4 80.22 61.4 80.22 64.04 78.89 64.04 78.89 65.36 82.19 65.36 82.19 60.08 78.89 60.08"/><rect class="cls-2" x="78.89" y="85.83" width="3.3" height="5.28"/><polygon class="cls-2" points="78.89 77.24 78.89 78.56 80.22 78.56 80.22 81.2 78.89 81.2 78.89 82.53 82.19 82.53 82.19 77.24 78.89 77.24"/><rect class="cls-2" x="78.89" y="102.99" width="3.3" height="5.28"/><polygon class="cls-2" points="78.89 94.41 78.89 95.73 80.22 95.73 80.22 98.37 78.89 98.37 78.89 99.69 82.19 99.69 82.19 94.41 78.89 94.41"/><rect class="cls-2" x="78.89" y="120.16" width="3.3" height="5.28"/><rect class="cls-2" x="84.84" y="118.84" width="3.3" height="5.28"/><polygon class="cls-2" points="78.89 111.57 78.89 112.89 80.22 112.89 80.22 115.53 78.89 115.53 78.89 116.86 82.19 116.86 82.19 111.57 78.89 111.57"/><polygon class="cls-2" points="91.44 111.57 91.44 112.89 92.76 112.89 92.76 115.53 91.44 115.53 91.44 116.86 94.74 116.86 94.74 111.57 91.44 111.57"/><rect class="cls-2" x="125.11" y="34.99" width="3.3" height="5.28"/><rect class="cls-2" x="125.11" y="43.57" width="3.3" height="5.28"/><rect class="cls-2" x="125.11" y="68.66" width="3.3" height="5.28"/><polygon class="cls-2" points="125.11 51.5 125.11 52.82 126.43 52.82 126.43 55.46 125.11 55.46 125.11 56.78 128.41 56.78 128.41 51.5 125.11 51.5"/><polygon class="cls-2" points="125.11 77.24 125.11 78.56 126.43 78.56 126.43 81.2 125.11 81.2 125.11 82.53 128.41 82.53 128.41 77.24 125.11 77.24"/><polygon class="cls-2" points="125.11 85.83 125.11 87.15 126.43 87.15 126.43 89.79 125.11 89.79 125.11 91.11 128.41 91.11 128.41 85.83 125.11 85.83"/><polygon class="cls-2" points="125.11 59.42 125.11 60.74 126.43 60.74 126.43 63.38 125.11 63.38 125.11 64.7 128.41 64.7 128.41 59.42 125.11 59.42"/><polygon class="cls-2" points="125.11 111.57 125.11 112.89 126.43 112.89 126.43 115.53 125.11 115.53 125.11 116.86 128.41 116.86 128.41 111.57 125.11 111.57"/><rect class="cls-2" x="78.89" y="137.32" width="3.3" height="5.28"/><rect class="cls-2" x="84.84" y="127.42" width="3.3" height="5.28"/><rect class="cls-2" x="78.89" y="159.77" width="3.3" height="5.28"/><rect class="cls-2" x="84.84" y="143.92" width="3.3" height="5.28"/><polygon class="cls-2" points="78.89 128.74 78.89 130.06 80.22 130.06 80.22 132.7 78.89 132.7 78.89 134.02 82.19 134.02 82.19 128.74 78.89 128.74"/><polygon class="cls-2" points="78.89 169.01 78.89 170.33 80.22 170.33 80.22 172.97 78.89 172.97 78.89 174.29 82.19 174.29 82.19 169.01 78.89 169.01"/><rect class="cls-2" x="115.21" y="27.07" width="3.3" height="5.28"/><rect class="cls-2" x="115.21" y="68.66" width="3.3" height="5.28"/><rect class="cls-2" x="115.21" y="153.83" width="4.62" height="0.66"/><polygon class="cls-2" points="115.2 42.91 115.2 44.23 116.53 44.23 116.53 46.87 115.2 46.87 115.2 48.2 118.51 48.2 118.51 42.91 115.2 42.91"/><polygon class="cls-2" points="115.2 51.5 115.2 52.82 116.53 52.82 116.53 55.46 115.2 55.46 115.2 56.78 118.51 56.78 118.51 51.5 115.2 51.5"/><polygon class="cls-2" points="115.2 60.08 115.2 61.4 116.53 61.4 116.53 64.04 115.2 64.04 115.2 65.36 118.51 65.36 118.51 60.08 115.2 60.08"/><rect class="cls-2" x="115.21" y="85.83" width="3.3" height="5.28"/><polygon class="cls-2" points="115.2 77.24 115.2 78.56 116.53 78.56 116.53 81.2 115.2 81.2 115.2 82.53 118.51 82.53 118.51 77.24 115.2 77.24"/><rect class="cls-2" x="115.21" y="102.99" width="3.3" height="5.28"/><polygon class="cls-2" points="115.2 94.41 115.2 95.73 116.53 95.73 116.53 98.37 115.2 98.37 115.2 99.69 118.51 99.69 118.51 94.41 115.2 94.41"/><rect class="cls-2" x="115.21" y="120.16" width="3.3" height="5.28"/><polygon class="cls-2" points="115.2 111.57 115.2 112.89 116.53 112.89 116.53 115.53 115.2 115.53 115.2 116.86 118.51 116.86 118.51 111.57 115.2 111.57"/><rect class="cls-2" x="115.21" y="137.32" width="3.3" height="5.28"/><rect class="cls-2" x="115.21" y="159.77" width="3.3" height="5.28"/><polygon class="cls-2" points="115.2 128.74 115.2 130.06 116.53 130.06 116.53 132.7 115.2 132.7 115.2 134.02 118.51 134.02 118.51 128.74 115.2 128.74"/><polygon class="cls-2" points="115.2 169.01 115.2 170.33 116.53 170.33 116.53 172.97 115.2 172.97 115.2 174.29 118.51 174.29 118.51 169.01 115.2 169.01"/><rect class="cls-2" x="131.05" y="27.07" width="3.3" height="5.28"/><rect class="cls-2" x="131.05" y="68.66" width="3.3" height="5.28"/><rect class="cls-2" x="131.05" y="153.83" width="4.62" height="0.66"/><polygon class="cls-2" points="131.05 42.91 131.05 44.23 132.37 44.23 132.37 46.87 131.05 46.87 131.05 48.2 134.35 48.2 134.35 42.91 131.05 42.91"/><polygon class="cls-2" points="131.05 51.5 131.05 52.82 132.37 52.82 132.37 55.46 131.05 55.46 131.05 56.78 134.35 56.78 134.35 51.5 131.05 51.5"/><polygon class="cls-2" points="131.05 60.08 131.05 61.4 132.37 61.4 132.37 64.04 131.05 64.04 131.05 65.36 134.35 65.36 134.35 60.08 131.05 60.08"/><rect class="cls-2" x="131.05" y="85.83" width="3.3" height="5.28"/><polygon class="cls-2" points="131.05 77.24 131.05 78.56 132.37 78.56 132.37 81.2 131.05 81.2 131.05 82.53 134.35 82.53 134.35 77.24 131.05 77.24"/><rect class="cls-2" x="131.05" y="102.99" width="3.3" height="5.28"/><polygon class="cls-2" points="131.05 94.41 131.05 95.73 132.37 95.73 132.37 98.37 131.05 98.37 131.05 99.69 134.35 99.69 134.35 94.41 131.05 94.41"/><rect class="cls-2" x="131.05" y="120.16" width="3.3" height="5.28"/><polygon class="cls-2" points="131.05 111.57 131.05 112.89 132.37 112.89 132.37 115.53 131.05 115.53 131.05 116.86 134.35 116.86 134.35 111.57 131.05 111.57"/><rect class="cls-2" x="131.05" y="137.32" width="3.3" height="5.28"/><rect class="cls-2" x="131.05" y="159.77" width="3.3" height="5.28"/><polygon class="cls-2" points="131.05 128.74 131.05 130.06 132.37 130.06 132.37 132.7 131.05 132.7 131.05 134.02 134.35 134.02 134.35 128.74 131.05 128.74"/><polygon class="cls-2" points="131.05 169.01 131.05 170.33 132.37 170.33 132.37 172.97 131.05 172.97 131.05 174.29 134.35 174.29 134.35 169.01 131.05 169.01"/><polygon class="cls-2" points="84.84 159.77 84.84 161.09 86.16 161.09 86.16 163.73 84.84 163.73 84.84 165.05 88.14 165.05 88.14 159.77 84.84 159.77"/><polygon class="cls-2" points="84.84 168.35 84.84 169.67 86.16 169.67 86.16 172.31 84.84 172.31 84.84 173.63 88.14 173.63 88.14 168.35 84.84 168.35"/><polygon class="cls-2" points="67.67 68.66 67.67 69.98 68.99 69.98 68.99 72.62 67.67 72.62 67.67 73.94 70.97 73.94 70.97 68.66 67.67 68.66"/><polygon class="cls-2" points="67.67 102.33 67.67 103.65 68.99 103.65 68.99 106.29 67.67 106.29 67.67 107.61 70.97 107.61 70.97 102.33 67.67 102.33"/><polygon class="cls-2" points="67.67 110.91 67.67 112.23 68.99 112.23 68.99 114.88 67.67 114.88 67.67 116.2 70.97 116.2 70.97 110.91 67.67 110.91"/><polygon class="cls-2" points="67.67 128.08 67.67 129.4 68.99 129.4 68.99 132.04 67.67 132.04 67.67 133.36 70.97 133.36 70.97 128.08 67.67 128.08"/><polygon class="cls-2" points="67.67 152.51 67.67 153.83 68.99 153.83 68.99 156.47 67.67 156.47 67.67 157.79 70.97 157.79 70.97 152.51 67.67 152.51"/><polygon class="cls-2" points="67.67 159.77 67.67 161.09 68.99 161.09 68.99 163.73 67.67 163.73 67.67 165.05 70.97 165.05 70.97 159.77 67.67 159.77"/><rect class="cls-2" x="102" y="28.39" width="3.3" height="5.28"/><rect class="cls-2" x="102" y="36.97" width="3.3" height="5.28"/><rect class="cls-2" x="100.68" y="46.21" width="4.62" height="0.66"/><rect class="cls-2" x="100.68" y="88.47" width="4.62" height="0.66"/><rect class="cls-2" x="100.68" y="95.73" width="4.62" height="0.66"/><polygon class="cls-2" points="102 52.16 102 53.48 103.32 53.48 103.32 56.12 102 56.12 102 57.44 105.3 57.44 105.3 52.16 102 52.16"/><polygon class="cls-2" points="102 68.66 102 69.98 103.32 69.98 103.32 72.62 102 72.62 102 73.94 105.3 73.94 105.3 68.66 102 68.66"/><polygon class="cls-2" points="102 102.33 102 103.65 103.32 103.65 103.32 106.29 102 106.29 102 107.61 105.3 107.61 105.3 102.33 102 102.33"/><rect class="cls-2" x="139.63" y="85.83" width="3.3" height="5.28"/><rect class="cls-2" x="139.63" y="94.41" width="3.3" height="5.28"/><rect class="cls-2" x="138.31" y="103.65" width="4.62" height="0.66"/><rect class="cls-2" x="138.31" y="145.9" width="4.62" height="0.66"/><rect class="cls-2" x="138.31" y="153.17" width="4.62" height="0.66"/><polygon class="cls-2" points="139.63 109.59 139.63 110.91 140.95 110.91 140.95 113.56 139.63 113.56 139.63 114.88 142.93 114.88 142.93 109.59 139.63 109.59"/><polygon class="cls-2" points="139.63 126.1 139.63 127.42 140.95 127.42 140.95 130.06 139.63 130.06 139.63 131.38 142.93 131.38 142.93 126.1 139.63 126.1"/><polygon class="cls-2" points="139.63 159.77 139.63 161.09 140.95 161.09 140.95 163.73 139.63 163.73 139.63 165.05 142.93 165.05 142.93 159.77 139.63 159.77"/><rect class="cls-2" x="150.2" y="28.39" width="3.3" height="5.28"/><rect class="cls-2" x="161.42" y="27.07" width="3.3" height="5.28"/><rect class="cls-2" x="167.36" y="27.07" width="3.3" height="5.28"/><rect class="cls-2" x="167.36" y="42.91" width="3.3" height="5.28"/><rect class="cls-2" x="173.96" y="34.99" width="3.3" height="5.28"/><rect class="cls-2" x="173.96" y="43.57" width="3.3" height="5.28"/><rect class="cls-2" x="167.36" y="60.08" width="3.3" height="5.28"/><rect class="cls-2" x="173.96" y="68.66" width="3.3" height="5.28"/><rect class="cls-2" x="167.36" y="101.01" width="3.3" height="5.28"/><rect class="cls-2" x="161.42" y="68.66" width="3.3" height="5.28"/><rect class="cls-2" x="150.2" y="36.97" width="3.3" height="5.28"/><rect class="cls-2" x="150.2" y="119.5" width="3.3" height="5.28"/><rect class="cls-2" x="150.2" y="136.66" width="3.3" height="5.28"/><rect class="cls-2" x="150.2" y="145.24" width="3.3" height="5.28"/><rect class="cls-2" x="148.88" y="46.21" width="4.62" height="0.66"/><rect class="cls-2" x="166.7" y="54.14" width="4.62" height="0.66"/><rect class="cls-2" x="148.88" y="88.47" width="4.62" height="0.66"/><rect class="cls-2" x="148.88" y="95.73" width="4.62" height="0.66"/><rect class="cls-2" x="166.7" y="137.98" width="4.62" height="0.66"/><rect class="cls-2" x="161.42" y="153.83" width="4.62" height="0.66"/><polygon class="cls-2" points="150.2 52.16 150.2 53.48 151.52 53.48 151.52 56.12 150.2 56.12 150.2 57.44 153.5 57.44 153.5 52.16 150.2 52.16"/><polygon class="cls-2" points="161.42 42.91 161.42 44.23 162.74 44.23 162.74 46.87 161.42 46.87 161.42 48.2 164.72 48.2 164.72 42.91 161.42 42.91"/><polygon class="cls-2" points="173.96 51.5 173.96 52.82 175.28 52.82 175.28 55.46 173.96 55.46 173.96 56.78 177.26 56.78 177.26 51.5 173.96 51.5"/><polygon class="cls-2" points="173.96 77.24 173.96 78.56 175.28 78.56 175.28 81.2 173.96 81.2 173.96 82.53 177.26 82.53 177.26 77.24 173.96 77.24"/><polygon class="cls-2" points="173.96 85.83 173.96 87.15 175.28 87.15 175.28 89.79 173.96 89.79 173.96 91.11 177.26 91.11 177.26 85.83 173.96 85.83"/><polygon class="cls-2" points="173.96 59.42 173.96 60.74 175.28 60.74 175.28 63.38 173.96 63.38 173.96 64.7 177.26 64.7 177.26 59.42 173.96 59.42"/><polygon class="cls-2" points="167.36 34.99 167.36 36.31 168.68 36.31 168.68 38.95 167.36 38.95 167.36 40.27 170.66 40.27 170.66 34.99 167.36 34.99"/><rect class="cls-2" x="167.36" y="77.24" width="3.3" height="5.28"/><rect class="cls-2" x="167.36" y="93.09" width="3.3" height="5.28"/><polygon class="cls-2" points="167.36 85.17 167.36 86.49 168.68 86.49 168.68 89.13 167.36 89.13 167.36 90.45 170.66 90.45 170.66 85.17 167.36 85.17"/><polygon class="cls-2" points="161.42 51.5 161.42 52.82 162.74 52.82 162.74 55.46 161.42 55.46 161.42 56.78 164.72 56.78 164.72 51.5 161.42 51.5"/><polygon class="cls-2" points="161.42 60.08 161.42 61.4 162.74 61.4 162.74 64.04 161.42 64.04 161.42 65.36 164.72 65.36 164.72 60.08 161.42 60.08"/><rect class="cls-2" x="161.42" y="85.83" width="3.3" height="5.28"/><polygon class="cls-2" points="161.42 77.24 161.42 78.56 162.74 78.56 162.74 81.2 161.42 81.2 161.42 82.53 164.72 82.53 164.72 77.24 161.42 77.24"/><rect class="cls-2" x="161.42" y="102.99" width="3.3" height="5.28"/><polygon class="cls-2" points="161.42 94.41 161.42 95.73 162.74 95.73 162.74 98.37 161.42 98.37 161.42 99.69 164.72 99.69 164.72 94.41 161.42 94.41"/><rect class="cls-2" x="161.42" y="120.16" width="3.3" height="5.28"/><rect class="cls-2" x="167.36" y="118.84" width="3.3" height="5.28"/><polygon class="cls-2" points="161.42 111.57 161.42 112.89 162.74 112.89 162.74 115.53 161.42 115.53 161.42 116.86 164.72 116.86 164.72 111.57 161.42 111.57"/><polygon class="cls-2" points="173.96 111.57 173.96 112.89 175.28 112.89 175.28 115.53 173.96 115.53 173.96 116.86 177.26 116.86 177.26 111.57 173.96 111.57"/><rect class="cls-2" x="207.63" y="34.99" width="3.3" height="5.28"/><rect class="cls-2" x="207.63" y="43.57" width="3.3" height="5.28"/><rect class="cls-2" x="207.63" y="68.66" width="3.3" height="5.28"/><polygon class="cls-2" points="207.63 51.5 207.63 52.82 208.95 52.82 208.95 55.46 207.63 55.46 207.63 56.78 210.94 56.78 210.94 51.5 207.63 51.5"/><polygon class="cls-2" points="207.63 77.24 207.63 78.56 208.95 78.56 208.95 81.2 207.63 81.2 207.63 82.53 210.94 82.53 210.94 77.24 207.63 77.24"/><polygon class="cls-2" points="207.63 85.83 207.63 87.15 208.95 87.15 208.95 89.79 207.63 89.79 207.63 91.11 210.94 91.11 210.94 85.83 207.63 85.83"/><polygon class="cls-2" points="207.63 59.42 207.63 60.74 208.95 60.74 208.95 63.38 207.63 63.38 207.63 64.7 210.94 64.7 210.94 59.42 207.63 59.42"/><polygon class="cls-2" points="207.63 111.57 207.63 112.89 208.95 112.89 208.95 115.53 207.63 115.53 207.63 116.86 210.94 116.86 210.94 111.57 207.63 111.57"/><rect class="cls-2" x="161.42" y="137.32" width="3.3" height="5.28"/><rect class="cls-2" x="167.36" y="127.42" width="3.3" height="5.28"/><rect class="cls-2" x="161.42" y="159.77" width="3.3" height="5.28"/><rect class="cls-2" x="167.36" y="143.92" width="3.3" height="5.28"/><polygon class="cls-2" points="161.42 128.74 161.42 130.06 162.74 130.06 162.74 132.7 161.42 132.7 161.42 134.02 164.72 134.02 164.72 128.74 161.42 128.74"/><polygon class="cls-2" points="161.42 169.01 161.42 170.33 162.74 170.33 162.74 172.97 161.42 172.97 161.42 174.29 164.72 174.29 164.72 169.01 161.42 169.01"/><rect class="cls-2" x="197.73" y="27.07" width="3.3" height="5.28"/><rect class="cls-2" x="197.73" y="68.66" width="3.3" height="5.28"/><rect class="cls-2" x="197.73" y="153.83" width="4.62" height="0.66"/><polygon class="cls-2" points="197.73 42.91 197.73 44.23 199.05 44.23 199.05 46.87 197.73 46.87 197.73 48.2 201.03 48.2 201.03 42.91 197.73 42.91"/><polygon class="cls-2" points="197.73 51.5 197.73 52.82 199.05 52.82 199.05 55.46 197.73 55.46 197.73 56.78 201.03 56.78 201.03 51.5 197.73 51.5"/><polygon class="cls-2" points="197.73 60.08 197.73 61.4 199.05 61.4 199.05 64.04 197.73 64.04 197.73 65.36 201.03 65.36 201.03 60.08 197.73 60.08"/><rect class="cls-2" x="197.73" y="85.83" width="3.3" height="5.28"/><polygon class="cls-2" points="197.73 77.24 197.73 78.56 199.05 78.56 199.05 81.2 197.73 81.2 197.73 82.53 201.03 82.53 201.03 77.24 197.73 77.24"/><rect class="cls-2" x="197.73" y="102.99" width="3.3" height="5.28"/><polygon class="cls-2" points="197.73 94.41 197.73 95.73 199.05 95.73 199.05 98.37 197.73 98.37 197.73 99.69 201.03 99.69 201.03 94.41 197.73 94.41"/><rect class="cls-2" x="197.73" y="120.16" width="3.3" height="5.28"/><polygon class="cls-2" points="197.73 111.57 197.73 112.89 199.05 112.89 199.05 115.53 197.73 115.53 197.73 116.86 201.03 116.86 201.03 111.57 197.73 111.57"/><rect class="cls-2" x="197.73" y="137.32" width="3.3" height="5.28"/><rect class="cls-2" x="197.73" y="159.77" width="3.3" height="5.28"/><polygon class="cls-2" points="197.73 128.74 197.73 130.06 199.05 130.06 199.05 132.7 197.73 132.7 197.73 134.02 201.03 134.02 201.03 128.74 197.73 128.74"/><polygon class="cls-2" points="197.73 169.01 197.73 170.33 199.05 170.33 199.05 172.97 197.73 172.97 197.73 174.29 201.03 174.29 201.03 169.01 197.73 169.01"/><rect class="cls-2" x="213.58" y="27.07" width="3.3" height="5.28"/><rect class="cls-2" x="213.58" y="68.66" width="3.3" height="5.28"/><rect class="cls-2" x="213.58" y="153.83" width="4.62" height="0.66"/><polygon class="cls-2" points="213.57 42.91 213.57 44.23 214.9 44.23 214.9 46.87 213.57 46.87 213.57 48.2 216.88 48.2 216.88 42.91 213.57 42.91"/><polygon class="cls-2" points="213.57 51.5 213.57 52.82 214.9 52.82 214.9 55.46 213.57 55.46 213.57 56.78 216.88 56.78 216.88 51.5 213.57 51.5"/><polygon class="cls-2" points="213.57 60.08 213.57 61.4 214.9 61.4 214.9 64.04 213.57 64.04 213.57 65.36 216.88 65.36 216.88 60.08 213.57 60.08"/><rect class="cls-2" x="213.58" y="85.83" width="3.3" height="5.28"/><polygon class="cls-2" points="213.57 77.24 213.57 78.56 214.9 78.56 214.9 81.2 213.57 81.2 213.57 82.53 216.88 82.53 216.88 77.24 213.57 77.24"/><rect class="cls-2" x="213.58" y="102.99" width="3.3" height="5.28"/><polygon class="cls-2" points="213.57 94.41 213.57 95.73 214.9 95.73 214.9 98.37 213.57 98.37 213.57 99.69 216.88 99.69 216.88 94.41 213.57 94.41"/><rect class="cls-2" x="213.58" y="120.16" width="3.3" height="5.28"/><polygon class="cls-2" points="213.57 111.57 213.57 112.89 214.9 112.89 214.9 115.53 213.57 115.53 213.57 116.86 216.88 116.86 216.88 111.57 213.57 111.57"/><rect class="cls-2" x="213.58" y="137.32" width="3.3" height="5.28"/><rect class="cls-2" x="213.58" y="159.77" width="3.3" height="5.28"/><polygon class="cls-2" points="213.57 128.74 213.57 130.06 214.9 130.06 214.9 132.7 213.57 132.7 213.57 134.02 216.88 134.02 216.88 128.74 213.57 128.74"/><polygon class="cls-2" points="213.57 169.01 213.57 170.33 214.9 170.33 214.9 172.97 213.57 172.97 213.57 174.29 216.88 174.29 216.88 169.01 213.57 169.01"/><polygon class="cls-2" points="167.36 159.77 167.36 161.09 168.68 161.09 168.68 163.73 167.36 163.73 167.36 165.05 170.66 165.05 170.66 159.77 167.36 159.77"/><polygon class="cls-2" points="167.36 168.35 167.36 169.67 168.68 169.67 168.68 172.31 167.36 172.31 167.36 173.63 170.66 173.63 170.66 168.35 167.36 168.35"/><polygon class="cls-2" points="150.2 68.66 150.2 69.98 151.52 69.98 151.52 72.62 150.2 72.62 150.2 73.94 153.5 73.94 153.5 68.66 150.2 68.66"/><polygon class="cls-2" points="150.2 102.33 150.2 103.65 151.52 103.65 151.52 106.29 150.2 106.29 150.2 107.61 153.5 107.61 153.5 102.33 150.2 102.33"/><polygon class="cls-2" points="150.2 110.91 150.2 112.23 151.52 112.23 151.52 114.88 150.2 114.88 150.2 116.2 153.5 116.2 153.5 110.91 150.2 110.91"/><polygon class="cls-2" points="150.2 128.08 150.2 129.4 151.52 129.4 151.52 132.04 150.2 132.04 150.2 133.36 153.5 133.36 153.5 128.08 150.2 128.08"/><polygon class="cls-2" points="150.2 152.51 150.2 153.83 151.52 153.83 151.52 156.47 150.2 156.47 150.2 157.79 153.5 157.79 153.5 152.51 150.2 152.51"/><polygon class="cls-2" points="150.2 159.77 150.2 161.09 151.52 161.09 151.52 163.73 150.2 163.73 150.2 165.05 153.5 165.05 153.5 159.77 150.2 159.77"/><rect class="cls-2" x="184.53" y="28.39" width="3.3" height="5.28"/><rect class="cls-2" x="184.53" y="36.97" width="3.3" height="5.28"/><rect class="cls-2" x="183.21" y="46.21" width="4.62" height="0.66"/><rect class="cls-2" x="183.21" y="88.47" width="4.62" height="0.66"/><rect class="cls-2" x="183.21" y="95.73" width="4.62" height="0.66"/><polygon class="cls-2" points="184.53 52.16 184.53 53.48 185.85 53.48 185.85 56.12 184.53 56.12 184.53 57.44 187.83 57.44 187.83 52.16 184.53 52.16"/><polygon class="cls-2" points="184.53 68.66 184.53 69.98 185.85 69.98 185.85 72.62 184.53 72.62 184.53 73.94 187.83 73.94 187.83 68.66 184.53 68.66"/><polygon class="cls-2" points="184.53 102.33 184.53 103.65 185.85 103.65 185.85 106.29 184.53 106.29 184.53 107.61 187.83 107.61 187.83 102.33 184.53 102.33"/><rect class="cls-2" x="222.16" y="85.83" width="3.3" height="5.28"/><rect class="cls-2" x="222.16" y="94.41" width="3.3" height="5.28"/><rect class="cls-2" x="220.84" y="103.65" width="4.62" height="0.66"/><rect class="cls-2" x="220.84" y="145.9" width="4.62" height="0.66"/><rect class="cls-2" x="220.84" y="153.17" width="4.62" height="0.66"/><polygon class="cls-2" points="222.16 109.59 222.16 110.91 223.48 110.91 223.48 113.56 222.16 113.56 222.16 114.88 225.46 114.88 225.46 109.59 222.16 109.59"/><polygon class="cls-2" points="222.16 126.1 222.16 127.42 223.48 127.42 223.48 130.06 222.16 130.06 222.16 131.38 225.46 131.38 225.46 126.1 222.16 126.1"/><polygon class="cls-2" points="222.16 159.77 222.16 161.09 223.48 161.09 223.48 163.73 222.16 163.73 222.16 165.05 225.46 165.05 225.46 159.77 222.16 159.77"/><rect class="cls-2" x="232.72" y="28.39" width="3.3" height="5.28"/><rect class="cls-2" x="243.94" y="27.07" width="3.3" height="5.28"/><rect class="cls-2" x="249.89" y="27.07" width="3.3" height="5.28"/><rect class="cls-2" x="249.89" y="42.91" width="3.3" height="5.28"/><rect class="cls-2" x="256.49" y="34.99" width="3.3" height="5.28"/><rect class="cls-2" x="256.49" y="43.57" width="3.3" height="5.28"/><rect class="cls-2" x="249.89" y="60.08" width="3.3" height="5.28"/><rect class="cls-2" x="256.49" y="68.66" width="3.3" height="5.28"/><rect class="cls-2" x="249.89" y="101.01" width="3.3" height="5.28"/><rect class="cls-2" x="243.94" y="68.66" width="3.3" height="5.28"/><rect class="cls-2" x="232.72" y="36.97" width="3.3" height="5.28"/><rect class="cls-2" x="232.72" y="119.5" width="3.3" height="5.28"/><rect class="cls-2" x="232.72" y="136.66" width="3.3" height="5.28"/><rect class="cls-2" x="232.72" y="145.24" width="3.3" height="5.28"/><rect class="cls-2" x="231.4" y="46.21" width="4.62" height="0.66"/><rect class="cls-2" x="249.23" y="54.14" width="4.62" height="0.66"/><rect class="cls-2" x="231.4" y="88.47" width="4.62" height="0.66"/><rect class="cls-2" x="231.4" y="95.73" width="4.62" height="0.66"/><rect class="cls-2" x="249.23" y="137.98" width="4.62" height="0.66"/><rect class="cls-2" x="243.94" y="153.83" width="4.62" height="0.66"/><polygon class="cls-2" points="232.72 52.16 232.72 53.48 234.04 53.48 234.04 56.12 232.72 56.12 232.72 57.44 236.02 57.44 236.02 52.16 232.72 52.16"/><polygon class="cls-2" points="243.94 42.91 243.94 44.23 245.26 44.23 245.26 46.87 243.94 46.87 243.94 48.2 247.25 48.2 247.25 42.91 243.94 42.91"/><polygon class="cls-2" points="256.49 51.5 256.49 52.82 257.81 52.82 257.81 55.46 256.49 55.46 256.49 56.78 259.79 56.78 259.79 51.5 256.49 51.5"/><polygon class="cls-2" points="256.49 77.24 256.49 78.56 257.81 78.56 257.81 81.2 256.49 81.2 256.49 82.53 259.79 82.53 259.79 77.24 256.49 77.24"/><polygon class="cls-2" points="256.49 85.83 256.49 87.15 257.81 87.15 257.81 89.79 256.49 89.79 256.49 91.11 259.79 91.11 259.79 85.83 256.49 85.83"/><polygon class="cls-2" points="256.49 59.42 256.49 60.74 257.81 60.74 257.81 63.38 256.49 63.38 256.49 64.7 259.79 64.7 259.79 59.42 256.49 59.42"/><polygon class="cls-2" points="249.89 34.99 249.89 36.31 251.21 36.31 251.21 38.95 249.89 38.95 249.89 40.27 253.19 40.27 253.19 34.99 249.89 34.99"/><rect class="cls-2" x="249.89" y="77.24" width="3.3" height="5.28"/><rect class="cls-2" x="249.89" y="93.09" width="3.3" height="5.28"/><polygon class="cls-2" points="249.89 85.17 249.89 86.49 251.21 86.49 251.21 89.13 249.89 89.13 249.89 90.45 253.19 90.45 253.19 85.17 249.89 85.17"/><polygon class="cls-2" points="243.94 51.5 243.94 52.82 245.26 52.82 245.26 55.46 243.94 55.46 243.94 56.78 247.25 56.78 247.25 51.5 243.94 51.5"/><polygon class="cls-2" points="243.94 60.08 243.94 61.4 245.26 61.4 245.26 64.04 243.94 64.04 243.94 65.36 247.25 65.36 247.25 60.08 243.94 60.08"/><rect class="cls-2" x="243.94" y="85.83" width="3.3" height="5.28"/><polygon class="cls-2" points="243.94 77.24 243.94 78.56 245.26 78.56 245.26 81.2 243.94 81.2 243.94 82.53 247.25 82.53 247.25 77.24 243.94 77.24"/><rect class="cls-2" x="243.94" y="102.99" width="3.3" height="5.28"/><polygon class="cls-2" points="243.94 94.41 243.94 95.73 245.26 95.73 245.26 98.37 243.94 98.37 243.94 99.69 247.25 99.69 247.25 94.41 243.94 94.41"/><rect class="cls-2" x="243.94" y="120.16" width="3.3" height="5.28"/><rect class="cls-2" x="249.89" y="118.84" width="3.3" height="5.28"/><polygon class="cls-2" points="243.94 111.57 243.94 112.89 245.26 112.89 245.26 115.53 243.94 115.53 243.94 116.86 247.25 116.86 247.25 111.57 243.94 111.57"/><polygon class="cls-2" points="256.49 111.57 256.49 112.89 257.81 112.89 257.81 115.53 256.49 115.53 256.49 116.86 259.79 116.86 259.79 111.57 256.49 111.57"/><rect class="cls-2" x="290.16" y="34.99" width="3.3" height="5.28"/><rect class="cls-2" x="290.16" y="43.57" width="3.3" height="5.28"/><rect class="cls-2" x="290.16" y="68.66" width="3.3" height="5.28"/><polygon class="cls-2" points="290.16 51.5 290.16 52.82 291.48 52.82 291.48 55.46 290.16 55.46 290.16 56.78 293.46 56.78 293.46 51.5 290.16 51.5"/><polygon class="cls-2" points="290.16 77.24 290.16 78.56 291.48 78.56 291.48 81.2 290.16 81.2 290.16 82.53 293.46 82.53 293.46 77.24 290.16 77.24"/><polygon class="cls-2" points="290.16 85.83 290.16 87.15 291.48 87.15 291.48 89.79 290.16 89.79 290.16 91.11 293.46 91.11 293.46 85.83 290.16 85.83"/><polygon class="cls-2" points="290.16 59.42 290.16 60.74 291.48 60.74 291.48 63.38 290.16 63.38 290.16 64.7 293.46 64.7 293.46 59.42 290.16 59.42"/><polygon class="cls-2" points="290.16 111.57 290.16 112.89 291.48 112.89 291.48 115.53 290.16 115.53 290.16 116.86 293.46 116.86 293.46 111.57 290.16 111.57"/><rect class="cls-2" x="243.94" y="137.32" width="3.3" height="5.28"/><rect class="cls-2" x="249.89" y="127.42" width="3.3" height="5.28"/><rect class="cls-2" x="243.94" y="159.77" width="3.3" height="5.28"/><rect class="cls-2" x="249.89" y="143.92" width="3.3" height="5.28"/><polygon class="cls-2" points="243.94 128.74 243.94 130.06 245.26 130.06 245.26 132.7 243.94 132.7 243.94 134.02 247.25 134.02 247.25 128.74 243.94 128.74"/><polygon class="cls-2" points="243.94 169.01 243.94 170.33 245.26 170.33 245.26 172.97 243.94 172.97 243.94 174.29 247.25 174.29 247.25 169.01 243.94 169.01"/><rect class="cls-2" x="280.26" y="27.07" width="3.3" height="5.28"/><rect class="cls-2" x="280.26" y="68.66" width="3.3" height="5.28"/><rect class="cls-2" x="280.26" y="153.83" width="4.62" height="0.66"/><polygon class="cls-2" points="280.26 42.91 280.26 44.23 281.58 44.23 281.58 46.87 280.26 46.87 280.26 48.2 283.56 48.2 283.56 42.91 280.26 42.91"/><polygon class="cls-2" points="280.26 51.5 280.26 52.82 281.58 52.82 281.58 55.46 280.26 55.46 280.26 56.78 283.56 56.78 283.56 51.5 280.26 51.5"/><polygon class="cls-2" points="280.26 60.08 280.26 61.4 281.58 61.4 281.58 64.04 280.26 64.04 280.26 65.36 283.56 65.36 283.56 60.08 280.26 60.08"/><rect class="cls-2" x="280.26" y="85.83" width="3.3" height="5.28"/><polygon class="cls-2" points="280.26 77.24 280.26 78.56 281.58 78.56 281.58 81.2 280.26 81.2 280.26 82.53 283.56 82.53 283.56 77.24 280.26 77.24"/><rect class="cls-2" x="280.26" y="102.99" width="3.3" height="5.28"/><polygon class="cls-2" points="280.26 94.41 280.26 95.73 281.58 95.73 281.58 98.37 280.26 98.37 280.26 99.69 283.56 99.69 283.56 94.41 280.26 94.41"/><rect class="cls-2" x="280.26" y="120.16" width="3.3" height="5.28"/><polygon class="cls-2" points="280.26 111.57 280.26 112.89 281.58 112.89 281.58 115.53 280.26 115.53 280.26 116.86 283.56 116.86 283.56 111.57 280.26 111.57"/><rect class="cls-2" x="280.26" y="137.32" width="3.3" height="5.28"/><rect class="cls-2" x="280.26" y="159.77" width="3.3" height="5.28"/><polygon class="cls-2" points="280.26 128.74 280.26 130.06 281.58 130.06 281.58 132.7 280.26 132.7 280.26 134.02 283.56 134.02 283.56 128.74 280.26 128.74"/><polygon class="cls-2" points="280.26 169.01 280.26 170.33 281.58 170.33 281.58 172.97 280.26 172.97 280.26 174.29 283.56 174.29 283.56 169.01 280.26 169.01"/><rect class="cls-2" x="296.1" y="27.07" width="3.3" height="5.28"/><rect class="cls-2" x="296.1" y="68.66" width="3.3" height="5.28"/><rect class="cls-2" x="296.1" y="153.83" width="4.62" height="0.66"/><polygon class="cls-2" points="296.1 42.91 296.1 44.23 297.42 44.23 297.42 46.87 296.1 46.87 296.1 48.2 299.4 48.2 299.4 42.91 296.1 42.91"/><polygon class="cls-2" points="296.1 51.5 296.1 52.82 297.42 52.82 297.42 55.46 296.1 55.46 296.1 56.78 299.4 56.78 299.4 51.5 296.1 51.5"/><polygon class="cls-2" points="296.1 60.08 296.1 61.4 297.42 61.4 297.42 64.04 296.1 64.04 296.1 65.36 299.4 65.36 299.4 60.08 296.1 60.08"/><rect class="cls-2" x="296.1" y="85.83" width="3.3" height="5.28"/><polygon class="cls-2" points="296.1 77.24 296.1 78.56 297.42 78.56 297.42 81.2 296.1 81.2 296.1 82.53 299.4 82.53 299.4 77.24 296.1 77.24"/><rect class="cls-2" x="296.1" y="102.99" width="3.3" height="5.28"/><polygon class="cls-2" points="296.1 94.41 296.1 95.73 297.42 95.73 297.42 98.37 296.1 98.37 296.1 99.69 299.4 99.69 299.4 94.41 296.1 94.41"/><rect class="cls-2" x="296.1" y="120.16" width="3.3" height="5.28"/><polygon class="cls-2" points="296.1 111.57 296.1 112.89 297.42 112.89 297.42 115.53 296.1 115.53 296.1 116.86 299.4 116.86 299.4 111.57 296.1 111.57"/><rect class="cls-2" x="296.1" y="137.32" width="3.3" height="5.28"/><rect class="cls-2" x="296.1" y="159.77" width="3.3" height="5.28"/><polygon class="cls-2" points="296.1 128.74 296.1 130.06 297.42 130.06 297.42 132.7 296.1 132.7 296.1 134.02 299.4 134.02 299.4 128.74 296.1 128.74"/><polygon class="cls-2" points="296.1 169.01 296.1 170.33 297.42 170.33 297.42 172.97 296.1 172.97 296.1 174.29 299.4 174.29 299.4 169.01 296.1 169.01"/><polygon class="cls-2" points="249.89 159.77 249.89 161.09 251.21 161.09 251.21 163.73 249.89 163.73 249.89 165.05 253.19 165.05 253.19 159.77 249.89 159.77"/><polygon class="cls-2" points="249.89 168.35 249.89 169.67 251.21 169.67 251.21 172.31 249.89 172.31 249.89 173.63 253.19 173.63 253.19 168.35 249.89 168.35"/><polygon class="cls-2" points="232.72 68.66 232.72 69.98 234.04 69.98 234.04 72.62 232.72 72.62 232.72 73.94 236.02 73.94 236.02 68.66 232.72 68.66"/><polygon class="cls-2" points="232.72 102.33 232.72 103.65 234.04 103.65 234.04 106.29 232.72 106.29 232.72 107.61 236.02 107.61 236.02 102.33 232.72 102.33"/><polygon class="cls-2" points="232.72 110.91 232.72 112.23 234.04 112.23 234.04 114.88 232.72 114.88 232.72 116.2 236.02 116.2 236.02 110.91 232.72 110.91"/><polygon class="cls-2" points="232.72 128.08 232.72 129.4 234.04 129.4 234.04 132.04 232.72 132.04 232.72 133.36 236.02 133.36 236.02 128.08 232.72 128.08"/><polygon class="cls-2" points="232.72 152.51 232.72 153.83 234.04 153.83 234.04 156.47 232.72 156.47 232.72 157.79 236.02 157.79 236.02 152.51 232.72 152.51"/><polygon class="cls-2" points="232.72 159.77 232.72 161.09 234.04 161.09 234.04 163.73 232.72 163.73 232.72 165.05 236.02 165.05 236.02 159.77 232.72 159.77"/><rect class="cls-2" x="267.05" y="28.39" width="3.3" height="5.28"/><rect class="cls-2" x="267.05" y="36.97" width="3.3" height="5.28"/><rect class="cls-2" x="265.73" y="46.21" width="4.62" height="0.66"/><rect class="cls-2" x="265.73" y="88.47" width="4.62" height="0.66"/><rect class="cls-2" x="265.73" y="95.73" width="4.62" height="0.66"/><polygon class="cls-2" points="267.05 52.16 267.05 53.48 268.37 53.48 268.37 56.12 267.05 56.12 267.05 57.44 270.35 57.44 270.35 52.16 267.05 52.16"/><polygon class="cls-2" points="267.05 68.66 267.05 69.98 268.37 69.98 268.37 72.62 267.05 72.62 267.05 73.94 270.35 73.94 270.35 68.66 267.05 68.66"/><polygon class="cls-2" points="267.05 102.33 267.05 103.65 268.37 103.65 268.37 106.29 267.05 106.29 267.05 107.61 270.35 107.61 270.35 102.33 267.05 102.33"/><rect class="cls-2" x="304.68" y="85.83" width="3.3" height="5.28"/><rect class="cls-2" x="304.68" y="94.41" width="3.3" height="5.28"/><rect class="cls-2" x="303.36" y="103.65" width="4.62" height="0.66"/><rect class="cls-2" x="303.36" y="145.9" width="4.62" height="0.66"/><rect class="cls-2" x="303.36" y="153.17" width="4.62" height="0.66"/><polygon class="cls-2" points="304.68 109.59 304.68 110.91 306 110.91 306 113.56 304.68 113.56 304.68 114.88 307.98 114.88 307.98 109.59 304.68 109.59"/><polygon class="cls-2" points="304.68 126.1 304.68 127.42 306 127.42 306 130.06 304.68 130.06 304.68 131.38 307.98 131.38 307.98 126.1 304.68 126.1"/><polygon class="cls-2" points="304.68 159.77 304.68 161.09 306 161.09 306 163.73 304.68 163.73 304.68 165.05 307.98 165.05 307.98 159.77 304.68 159.77"/><rect class="cls-1" x="204.92" y="97.04" width="0.86" height="20.11"/><path class="cls-3" d="M306.91,219.64a5.21,5.21,0,0,0,2.35-7,5.62,5.62,0,0,0-.48-.78l12.15-59-11.34-.15L301.15,211a5.24,5.24,0,0,0,5.76,8.67Z" transform="translate(-12 -36.32)"/><path class="cls-3" d="M362.16,216.58a5.21,5.21,0,0,0,.25-7.37,5.09,5.09,0,0,0-.69-.62l-5.22-60-10.91,3.1,8.57,58.25a5.24,5.24,0,0,0,8,6.67Z" transform="translate(-12 -36.32)"/><polygon class="cls-3" points="315.16 257.69 309.2 257.69 306.37 234.72 315.16 234.72 315.16 257.69"/><path class="cls-4" d="M317,292.3h11.48v7.23H309.72A7.23,7.23,0,0,1,317,292.3Z" transform="translate(-12 -36.32)"/><polygon class="cls-3" points="341.86 257.69 335.91 257.69 333.08 234.72 341.86 234.72 341.86 257.69"/><path class="cls-4" d="M343.66,292.3h11.48v7.23H336.43a7.23,7.23,0,0,1,7.23-7.23Z" transform="translate(-12 -36.32)"/><circle class="cls-3" cx="316.7" cy="81.7" r="11.93"/><path class="cls-4" d="M345.46,279.51a2.1,2.1,0,0,1-2-1.69l-8.06-41.71a1.63,1.63,0,0,0-3.22.12l-4.51,40.64a2.07,2.07,0,0,1-2,1.85l-6.77.31a2.1,2.1,0,0,1-2.19-2l-2.6-62.77a2.09,2.09,0,0,1,.74-1.67l1.5-1.28a2.06,2.06,0,0,1,1.36-.5h35.09a2.08,2.08,0,0,1,2.09,2.09v64.2a2.07,2.07,0,0,1-2,2.09l-7.31.32Z" transform="translate(-12 -36.32)"/><path class="cls-2" d="M327.49,219.94c-5.67,0-10.68-1.51-13.2-5.92a2.2,2.2,0,0,1-.29-1.2l3.18-48.5a1.64,1.64,0,0,0-.33-1.09L308,151.55a2.09,2.09,0,0,1,.39-2.93h0L321.7,138.5a1.63,1.63,0,0,0,.58-.85l.39-1.36a2.08,2.08,0,0,1,1.93-1.51l9.8-.38a2.12,2.12,0,0,1,1.71.78l1.05,1.31a1.56,1.56,0,0,0,.48.4L354,146a2.11,2.11,0,0,1,1.08,1.81v.05c-3.82,15.93-3.6,36.07.68,63.37a2.1,2.1,0,0,1-1.26,2C351,214.68,338.07,219.94,327.49,219.94Z" transform="translate(-12 -36.32)"/><path class="cls-2" d="M317.51,169.91h-11.1a2.09,2.09,0,0,1-2.09-2.08v-.13c.17-2.82.49-8.2.82-12.44.47-6.11,6.45-9.11,6.51-9.14l.12-.06,4,2.57,3.76,18.78a2.09,2.09,0,0,1-1.64,2.46,1.84,1.84,0,0,1-.41,0Z" transform="translate(-12 -36.32)"/><path class="cls-2" d="M347.93,168.88a2.11,2.11,0,0,1-2.09-2.11c0-.07,0-.14,0-.21l2.05-18.85,3.95-2.9H352a8.21,8.21,0,0,1,6.15,5.26c1.34,3.36,3.4,9.57,4.5,13a2.08,2.08,0,0,1-1.34,2.63l-.15,0-12.68,3.09A2.14,2.14,0,0,1,347.93,168.88Z" transform="translate(-12 -36.32)"/><path class="cls-4" d="M329,130c2.55-4-.63-15.15-7.57-15.44-1.6-.06-2.22-2.39-2.76-3.9a6,6,0,0,1,.78-5.24,9.92,9.92,0,0,1,4.21-3.4,14.62,14.62,0,1,1,12.21,26.57,14.86,14.86,0,0,1-4,1.18Z" transform="translate(-12 -36.32)"/><path class="cls-1" d="M399.51,300.46H279.09a.47.47,0,0,1-.48-.48.48.48,0,0,1,.48-.49H399.51a.49.49,0,0,1,.49.49A.48.48,0,0,1,399.51,300.46Z" transform="translate(-12 -36.32)"/></svg>