<svg id="Layer_1" data-name="Layer 1" xmlns="http://www.w3.org/2000/svg" xmlns:xlink="http://www.w3.org/1999/xlink" viewBox="0 0 362 255"><defs><style>.cls-1{fill:#264de4;}.cls-2{fill:#2965f1;}.cls-3{fill:#ebebeb;}.cls-4{fill:#fff;}</style></defs><title>why-1</title><g id="layer1"><g id="g3013"><polygon id="polygon2989" class="cls-1" points="92 113.67 83.62 207.57 45.94 218.01 8.37 207.58 0 113.67 92 113.67"/><polygon id="polygon2991" class="cls-2" points="76.44 201.59 83.61 121.35 46 121.35 46 210.03 76.44 201.59"/><polygon id="polygon2993" class="cls-3" points="19.19 156.18 20.23 167.7 46 167.7 46 156.18 19.19 156.18"/><polygon id="polygon2995" class="cls-3" points="46 132.87 45.96 132.87 17.12 132.87 18.17 144.39 46 144.39 46 132.87"/><polygon id="polygon2997" class="cls-3" points="46 198.08 46 186.09 45.95 186.11 33.12 182.64 32.3 173.46 26.07 173.46 20.74 173.46 22.35 191.54 45.95 198.09 46 198.08"/><path id="path2999" d="M40.65,111.15h14V117H46.49v5.83H54.6v5.83h-14Z" transform="translate(-19 -23)"/><path id="path3001" d="M57.39,111.15h14v5.08H63.22v1h8.12v11.67h-14v-5.33h8.12v-1H57.39Z" transform="translate(-19 -23)"/><path id="path3003" d="M74.13,111.15h14v5.08H80v1h8.12v11.67h-14v-5.33h8.12v-1H74.13Z" transform="translate(-19 -23)"/><polygon id="polygon3005" class="cls-4" points="60.14 167.7 58.81 182.64 45.96 186.1 45.96 198.09 69.57 191.54 69.75 189.59 72.45 159.27 72.73 156.18 74.81 132.87 45.96 132.87 45.96 144.39 62.19 144.39 61.14 156.18 45.96 156.18 45.96 167.7 60.14 167.7"/></g></g><image width="500" height="500" transform="translate(237 93) scale(0.25)" xlink:href="../../../../../../../Downloads/js-logo.png"/><image width="512" height="512" transform="translate(47) scale(0.5)" xlink:href="../../../../../../../Downloads/PgcSR.png"/></svg>