<svg id="Layer_1" data-name="Layer 1" xmlns="http://www.w3.org/2000/svg" xmlns:xlink="http://www.w3.org/1999/xlink" viewBox="0 0 265.34 139.58"><defs><style>.cls-1{fill:none;}.cls-2{clip-path:url(#clip-path);}.cls-3{fill:url(#radial-gradient);}.cls-4{clip-path:url(#clip-path-2);}.cls-5{fill:#777bb3;}.cls-6{fill:#fff;}</style><clipPath id="clip-path" transform="translate(-67.13 -79.77)"><path class="cls-1" d="M67.13,149.56c0,38.55,59.4,69.79,132.67,69.79h0c73.27,0,132.67-31.24,132.67-69.79h0c0-38.54-59.4-69.79-132.67-69.79h0c-73.27,0-132.67,31.25-132.67,69.79"/></clipPath><radialGradient id="radial-gradient" cx="0.84" cy="300.94" r="0.38" gradientTransform="matrix(453.82, 0, 0, -453.82, -235.32, 136675.45)" gradientUnits="userSpaceOnUse"><stop offset="0" stop-color="#aeb2d5"/><stop offset="0.3" stop-color="#aeb2d5"/><stop offset="0.75" stop-color="#484c89"/><stop offset="1" stop-color="#484c89"/></radialGradient><clipPath id="clip-path-2" transform="translate(-67.13 -79.77)"><rect class="cls-1" x="61.6" y="71.82" width="276.4" height="155.48"/></clipPath></defs><title>how-4</title><g id="g3438"><g id="g3440"><g class="cls-2"><g id="g3442"><g id="g3448"><g id="g3450"><path id="path3462" class="cls-3" d="M67.13,149.56c0,38.55,59.4,69.79,132.67,69.79h0c73.27,0,132.67-31.24,132.67-69.79h0c0-38.54-59.4-69.79-132.67-69.79h0c-73.27,0-132.67,31.25-132.67,69.79" transform="translate(-67.13 -79.77)"/></g></g></g></g></g><g id="g3464"><g class="cls-4"><g id="g3466"><g id="g3472"><path id="path3474" class="cls-5" d="M199.8,214.17c70.41,0,127.49-28.93,127.49-64.61S270.21,85,199.8,85,72.31,113.88,72.31,149.56s57.08,64.61,127.49,64.61" transform="translate(-67.13 -79.77)"/></g></g></g></g><g id="g3476"><g class="cls-4"><g id="g3478"><g id="g3484"><path id="path3486" d="M139.21,157.57c5.79,0,10.11-1.07,12.85-3.17s4.57-5.69,5.55-10.73c.91-4.7.57-8-1-9.76s-5.17-2.73-10.51-2.73h-9.25l-5.13,26.39ZM109,190.08a1.43,1.43,0,0,1-1.11-.52,1.39,1.39,0,0,1-.3-1.19l13.59-69.94a1.44,1.44,0,0,1,1.41-1.17h29.3c9.21,0,16.06,2.5,20.37,7.44s5.67,11.88,4,20.59a31.87,31.87,0,0,1-10,17.92,28.54,28.54,0,0,1-10.67,6.39,48.39,48.39,0,0,1-14.66,1.89H129l-3.39,17.43a1.45,1.45,0,0,1-1.42,1.16Z" transform="translate(-67.13 -79.77)"/></g><g id="g3488"><path id="path3490" class="cls-6" d="M138,132.62h8.06c6.44,0,8.68,1.41,9.44,2.25,1.26,1.4,1.5,4.35.69,8.53-.91,4.68-2.6,8-5,9.86s-6.51,2.87-12,2.87h-5.77Zm13.83-16.8h-29.3a2.87,2.87,0,0,0-2.82,2.33l-13.6,69.94a2.88,2.88,0,0,0,.61,2.38,2.85,2.85,0,0,0,2.22,1.05h15.23a2.88,2.88,0,0,0,2.83-2.33l3.16-16.26h10.68a49.59,49.59,0,0,0,15.1-2,29.89,29.89,0,0,0,11.21-6.71,33.23,33.23,0,0,0,10.44-18.69c1.78-9.17.33-16.51-4.31-21.82s-11.81-7.93-21.45-7.93M129.94,159h9.27q9.21,0,13.72-3.47T159,144q1.51-7.8-1.37-11t-11.58-3.21H135.63L129.94,159m21.9-40.31q13.22,0,19.28,6.94T174.77,145a30.46,30.46,0,0,1-9.57,17.13,26.85,26.85,0,0,1-10.14,6.08,46.71,46.71,0,0,1-14.21,1.82h-13l-3.62,18.59H109l13.59-69.94h29.3" transform="translate(-67.13 -79.77)"/></g><g id="g3492"><path id="path3494" d="M211.12,171.49a1.46,1.46,0,0,1-1.42-1.72l6-30.94c.57-3,.43-5.06-.4-6-.51-.55-2-1.46-6.53-1.46H197.9l-7.56,38.9a1.45,1.45,0,0,1-1.42,1.17H173.81a1.46,1.46,0,0,1-1.42-1.72L186,99.83a1.44,1.44,0,0,1,1.41-1.16h15.12a1.43,1.43,0,0,1,1.41,1.71l-3.28,16.88h11.72c8.93,0,15,1.58,18.51,4.82s4.71,8.58,3.33,15.7l-6.32,32.54a1.45,1.45,0,0,1-1.42,1.17Z" transform="translate(-67.13 -79.77)"/></g><g id="g3496"><path id="path3498" class="cls-6" d="M202.52,97.23H187.4a2.89,2.89,0,0,0-2.83,2.33L171,169.5a2.89,2.89,0,0,0,2.83,3.43h15.11a2.88,2.88,0,0,0,2.83-2.33l7.33-37.74h9.71c4.49,0,5.44,1,5.47,1,.28.29.64,1.65,0,4.69l-6,30.95a2.88,2.88,0,0,0,2.83,3.43h15.35a2.88,2.88,0,0,0,2.83-2.33l6.32-32.55c1.49-7.64.22-13.37-3.77-17-3.8-3.5-10.18-5.2-19.48-5.2h-10l2.94-15.16a2.88,2.88,0,0,0-2.82-3.43m0,2.88L198.9,118.7h13.47q12.7,0,17.53,4.44t2.9,14.36l-6.33,32.55H211.12l6-31q1-5.28-.76-7.2T208.79,130H196.71l-7.79,40.07H173.81l13.59-69.94h15.12" transform="translate(-67.13 -79.77)"/></g><g id="g3500"><path id="path3502" d="M258.13,157.57c5.79,0,10.11-1.07,12.84-3.17s4.58-5.69,5.56-10.73c.91-4.7.56-8-1-9.76s-5.17-2.73-10.5-2.73h-9.25l-5.13,26.39Zm-30.26,32.51a1.44,1.44,0,0,1-1.42-1.71l13.6-69.94a1.44,1.44,0,0,1,1.41-1.17h29.3c9.21,0,16.06,2.5,20.37,7.44s5.66,11.88,4,20.59a31.81,31.81,0,0,1-10,17.92,28.38,28.38,0,0,1-10.67,6.39,48.32,48.32,0,0,1-14.65,1.89H247.9l-3.38,17.43a1.46,1.46,0,0,1-1.42,1.16Z" transform="translate(-67.13 -79.77)"/></g><g id="g3504"><path id="path3506" class="cls-6" d="M256.92,132.62H265c6.44,0,8.68,1.41,9.44,2.25,1.26,1.4,1.49,4.35.68,8.53-.91,4.68-2.6,8-5,9.86s-6.51,2.87-12,2.87h-5.78Zm13.84-16.8h-29.3a2.89,2.89,0,0,0-2.83,2.33L225,188.09a2.88,2.88,0,0,0,2.83,3.43H243.1a2.88,2.88,0,0,0,2.83-2.33l3.16-16.26h10.68a49.64,49.64,0,0,0,15.1-2,29.89,29.89,0,0,0,11.21-6.71,33.29,33.29,0,0,0,10.43-18.69c1.79-9.17.34-16.51-4.3-21.82s-11.81-7.93-21.45-7.93M248.86,159h9.27q9.21,0,13.72-3.47T277.94,144q1.51-7.8-1.38-11T265,129.74H254.55L248.86,159m21.9-40.31q13.22,0,19.28,6.94T293.69,145a30.46,30.46,0,0,1-9.57,17.13A26.85,26.85,0,0,1,274,168.23a46.75,46.75,0,0,1-14.21,1.82h-13l-3.62,18.59H227.87l13.59-69.94h29.3" transform="translate(-67.13 -79.77)"/></g></g></g></g></g></svg>