<svg id="Layer_1" data-name="Layer 1" xmlns="http://www.w3.org/2000/svg" viewBox="0 0 181 255.48"><defs><style>.cls-1{fill:#264de4;}.cls-2{fill:#2965f1;}.cls-3{fill:#ebebeb;}.cls-4{fill:#fff;}</style></defs><title>how-2</title><g id="layer1"><g id="g3013"><polygon id="polygon2989" class="cls-1" points="181 50.21 164.51 234.93 90.39 255.48 16.47 234.96 0 50.21 181 50.21"/><polygon id="polygon2991" class="cls-2" points="150.39 223.17 164.49 65.31 90.5 65.31 90.5 239.78 150.39 223.17"/><polygon id="polygon2993" class="cls-3" points="37.76 133.84 39.79 156.5 90.5 156.5 90.5 133.84 37.76 133.84"/><polygon id="polygon2995" class="cls-3" points="90.5 87.97 90.42 87.97 33.68 87.97 35.74 110.63 90.5 110.63 90.5 87.97"/><polygon id="polygon2997" class="cls-3" points="90.5 216.26 90.5 192.69 90.4 192.71 65.17 185.9 63.55 167.83 51.29 167.83 40.8 167.83 43.98 203.41 90.4 216.29 90.5 216.26"/><path id="path2999" d="M160.6,28.12H188V39.59h-16V51.07h16V62.55H160.6Z" transform="translate(-118 -28.12)"/><path id="path3001" d="M193.53,28.12H221v10H205v2h16v23H193.53V52.57h16v-2h-16Z" transform="translate(-118 -28.12)"/><path id="path3003" d="M226.46,28.12h27.45v10h-16v2h16v23H226.46V52.57h16v-2h-16Z" transform="translate(-118 -28.12)"/><polygon id="polygon3005" class="cls-4" points="118.32 156.5 115.69 185.88 90.42 192.71 90.42 216.28 136.87 203.41 137.22 199.58 142.54 139.92 143.09 133.84 147.18 87.97 90.42 87.97 90.42 110.63 122.35 110.63 120.29 133.84 90.42 133.84 90.42 156.5 118.32 156.5"/></g></g></svg>