<svg id="Layer_1" data-name="Layer 1" xmlns="http://www.w3.org/2000/svg" viewBox="0 0 380.4 265.4"><defs><style>.cls-1,.cls-3{fill:#6c63ff;}.cls-1{opacity:0.18;isolation:isolate;}.cls-2{fill:#3f3d56;}.cls-4{fill:#2f2e41;}</style></defs><title>what-11</title><path class="cls-1" d="M127.05,80.43c12.91-8.27,33.17-10,51.61-9.3,57.93,2.07,110.21,22.19,155.44,45,16.37,8.25,32.49,17.13,43.12,28.48,21.64,23.1,15.22,55.1-14.86,74.13-10.24,6.47-22.65,11.46-35.39,15.83-22.65,7.83-47.08,14.11-72.79,15.92-18.33,1.27-36.89.23-55.12-1.55-50.91-5-100.89-15.94-142.78-34.77C37.9,205.87,20.59,195.62,13,182.28s-2.73-30.24,16-38.14c7.76-3.26,17-4.74,26.12-6.12,13.36-2,26.95-4.05,39-8.19,12.46-4.29,27.22-12.56,24.75-22C116.28,97.63,114.16,88.7,127.05,80.43Z" transform="translate(-9.6 -26)"/><path class="cls-2" d="M136.72,111.78a21.45,21.45,0,0,1,7.44-3.88c7.59-2.17,15.44-.07,23,2a85.23,85.23,0,0,0,12.52,2.7,30.86,30.86,0,0,0,18-3,21.36,21.36,0,0,0,11.07-14.1,16.53,16.53,0,0,0,.3-2.21l-1.7,1c-6,3.56-14.43,6.89-20.53,2.53a10.61,10.61,0,0,1-4.17-7.68,11.84,11.84,0,0,1,3-9.16,11.25,11.25,0,0,1,1.14-1,13.91,13.91,0,0,1,16.28-.24,16.68,16.68,0,0,1,6.52,13.7,119.57,119.57,0,0,0,10.26-7.2l.29.37a122.69,122.69,0,0,1-10.57,7.39,17.59,17.59,0,0,1-.32,2.6A21.87,21.87,0,0,1,198,110,31.37,31.37,0,0,1,179.66,113a86.92,86.92,0,0,1-12.59-2.71c-7.88-2.11-15.32-4.1-22.78-2a21.37,21.37,0,0,0-7.4,37.29l-.29.36a21.72,21.72,0,0,1,.12-34.22Zm72.44-19.12a16.23,16.23,0,0,0-6.32-13.61c-5.15-3.67-12.7-3.12-16.81,1.22a11.3,11.3,0,0,0-2.83,8.79,10.11,10.11,0,0,0,4,7.35c5.9,4.22,14.14.94,20-2.55.66-.39,1.31-.79,2-1.2Z" transform="translate(-9.6 -26)"/><path class="cls-2" d="M215.8,88.1H322c20.12,0,36.44-11.47,36.44-31.59h0C358.47,36.39,342.15,28,322,28H288.68c-40.25,0-72.88,19.86-72.88,60.1Z" transform="translate(-9.6 -26)"/><path class="cls-3" d="M316.1,83.23H227.69V83c0-15.81,6.16-28.83,17.81-37.66,10.76-8.16,25.6-12.47,42.91-12.47H316.1c8.83,0,16.27,1.94,21.52,5.62,5.94,4.15,9,10.31,9,18.28s-3.09,14.78-8.95,19.56C332.18,80.78,324.54,83.23,316.1,83.23Zm-87.94-.47H316.1c17.95,0,30-10.44,30-26,0-14.89-10.94-23.43-30-23.43H288.41C259.35,33.34,228.29,46.33,228.16,82.76Z" transform="translate(-9.6 -26)"/><rect class="cls-3" x="251.28" y="22.41" width="12.55" height="3.02"/><rect class="cls-3" x="316.52" y="16.35" width="3.1" height="2.12"/><rect class="cls-3" x="322.72" y="16.35" width="3.1" height="2.12"/><rect class="cls-3" x="268.24" y="22.41" width="29.97" height="3.02"/><rect class="cls-3" x="235.48" y="41.93" width="12.55" height="3.02"/><rect class="cls-3" x="287.06" y="41.93" width="4.41" height="3.02"/><rect class="cls-3" x="311.61" y="30.07" width="3.1" height="2.12"/><rect class="cls-3" x="252.44" y="41.93" width="29.97" height="3.02"/><rect class="cls-3" x="287.29" y="29.15" width="12.55" height="3.02"/><rect class="cls-3" x="317.5" y="21.09" width="8.82" height="2.12"/><rect class="cls-3" x="329.42" y="21.09" width="3.1" height="2.12"/><rect class="cls-3" x="235.48" y="29.15" width="4.41" height="3.02"/><rect class="cls-3" x="244.31" y="29.15" width="4.41" height="3.02"/><rect class="cls-3" x="253.14" y="29.15" width="29.97" height="3.02"/><rect class="cls-3" x="261.27" y="35.65" width="12.55" height="3.02"/><rect class="cls-3" x="244.31" y="35.65" width="12.55" height="3.02"/><rect class="cls-3" x="235.48" y="35.65" width="4.41" height="3.02"/><rect class="cls-3" x="329.42" y="25.66" width="3.1" height="2.12"/><rect class="cls-3" x="323.21" y="25.66" width="3.1" height="2.12"/><rect class="cls-3" x="278" y="35.65" width="29.97" height="3.02"/><rect class="cls-4" x="36.37" y="107.84" width="93.67" height="125.86"/><rect class="cls-2" x="20.27" y="104" width="125.86" height="49.96"/><rect class="cls-2" x="20.27" y="159.72" width="125.86" height="49.96"/><rect class="cls-2" x="20.27" y="215.44" width="125.86" height="49.96"/><rect class="cls-3" x="20.27" y="125.18" width="125.86" height="7.69"/><rect class="cls-3" x="20.27" y="180.9" width="125.86" height="7.69"/><rect class="cls-3" x="20.27" y="236.63" width="125.86" height="7.69"/><circle class="cls-3" cx="121.63" cy="111.21" r="2.88"/><circle class="cls-3" cx="131.72" cy="111.21" r="2.88"/><circle class="cls-3" cx="141.81" cy="111.21" r="2.88"/><circle class="cls-3" cx="121.63" cy="165.97" r="2.88"/><circle class="cls-3" cx="131.72" cy="165.97" r="2.88"/><circle class="cls-3" cx="141.81" cy="165.97" r="2.88"/><circle class="cls-3" cx="121.63" cy="220.73" r="2.88"/><circle class="cls-3" cx="131.72" cy="220.73" r="2.88"/><circle class="cls-3" cx="141.81" cy="220.73" r="2.88"/><circle class="cls-1" cx="19.9" cy="57.5" r="11.5"/><circle class="cls-1" cx="104.4" cy="7" r="7"/><circle class="cls-1" cx="367.4" cy="251" r="7"/><circle class="cls-1" cx="195.9" cy="247.5" r="3.5"/></svg>