<svg id="Layer_1" data-name="Layer 1" xmlns="http://www.w3.org/2000/svg" viewBox="0 0 394 295"><defs><style>.cls-1{fill:none;stroke:#000;stroke-miterlimit:10;stroke-width:2px;}.cls-2{fill:#0b92bf;}.cls-3{fill:#2ab5e3;}.cls-4,.cls-5,.cls-6,.cls-7{isolation:isolate;}.cls-5,.cls-6,.cls-7{font-size:21px;fill:#fdffff;font-family:Montserrat-ExtraBold, Montserrat;font-weight:800;}.cls-6{letter-spacing:-0.01em;}.cls-7{letter-spacing:-0.04em;}</style></defs><title>what-3</title><line class="cls-1" x1="116.5" y1="157.5" x2="146" y2="129"/><line class="cls-1" x1="150.5" y1="220.5" x2="245" y2="221"/><line class="cls-1" x1="252" y1="123" x2="284" y2="155"/><circle class="cls-2" cx="319.5" cy="220.5" r="74.5"/><path class="cls-3" d="M325.5,293A74.49,74.49,0,0,1,251,218.52v0C251,177.35,366.65,293,325.5,293Z" transform="translate(-2 -3)"/><circle class="cls-2" cx="197.5" cy="74.5" r="74.5"/><path class="cls-3" d="M203.5,147A74.49,74.49,0,0,1,129,72.52v0C129,31.35,244.65,147,203.5,147Z" transform="translate(-2 -3)"/><circle class="cls-2" cx="74.5" cy="219.5" r="74.5"/><path class="cls-3" d="M80.5,292A74.49,74.49,0,0,1,6,217.52v0C6,176.35,121.65,292,80.5,292Z" transform="translate(-2 -3)"/><g class="cls-4"><text class="cls-5" transform="translate(263.62 225.79)">B</text><text class="cls-6" transform="translate(279.77 225.79)">A</text><text class="cls-5" transform="translate(296.06 225.79)">C</text><text class="cls-7" transform="translate(311.56 225.79)">K</text><text class="cls-5" transform="translate(326.56 225.79)">-END</text></g><g class="cls-4"><text class="cls-5" transform="translate(132.62 78.79)">FRON</text><text class="cls-7" transform="translate(196.33 78.79)">T</text><text class="cls-5" transform="translate(208.87 78.79)">-END</text></g><text class="cls-5" transform="translate(32.62 227.79)">DESIGN</text></svg>