<svg id="Layer_1" data-name="Layer 1" xmlns="http://www.w3.org/2000/svg" viewBox="0 0 471.28 260.29"><defs><style>.cls-1{fill:#2f2e41;}.cls-2{fill:#3f3d56;}.cls-3{fill:#6c63ff;}.cls-4{font-size:30px;fill:#383838;font-family:Montserrat-ExtraBold, Montserrat;font-weight:800;}.cls-5{letter-spacing:-0.02em;}.cls-6{letter-spacing:-0.01em;}.cls-7{letter-spacing:-0.04em;}</style></defs><title>what-4</title><rect class="cls-1" x="133.24" y="55.07" width="122" height="163.92"/><rect class="cls-2" x="112.28" y="50.07" width="163.92" height="65.07"/><rect class="cls-2" x="112.28" y="122.65" width="163.92" height="65.07"/><rect class="cls-2" x="112.28" y="195.22" width="163.92" height="65.07"/><rect class="cls-3" x="112.28" y="77.66" width="163.92" height="10.01"/><rect class="cls-3" x="112.28" y="150.23" width="163.92" height="10.01"/><rect class="cls-3" x="112.28" y="222.81" width="163.92" height="10.01"/><circle class="cls-3" cx="244.29" cy="59.45" r="3.75"/><circle class="cls-3" cx="257.43" cy="59.45" r="3.75"/><circle class="cls-3" cx="270.57" cy="59.45" r="3.75"/><circle class="cls-3" cx="244.29" cy="130.78" r="3.75"/><circle class="cls-3" cx="257.43" cy="130.78" r="3.75"/><circle class="cls-3" cx="270.57" cy="130.78" r="3.75"/><circle class="cls-3" cx="244.29" cy="202.1" r="3.75"/><circle class="cls-3" cx="257.43" cy="202.1" r="3.75"/><circle class="cls-3" cx="270.57" cy="202.1" r="3.75"/><text class="cls-4" transform="translate(0 25.5)">THE SER<tspan class="cls-5" x="133.89" y="0">V</tspan><tspan x="156.42" y="0">ER (B</tspan><tspan class="cls-6" x="241.65" y="0">A</tspan><tspan x="264.93" y="0">C</tspan><tspan class="cls-7" x="287.07" y="0">K</tspan><tspan x="308.49" y="0">-END</tspan></text></svg>