<svg id="Layer_1" data-name="Layer 1" xmlns="http://www.w3.org/2000/svg" viewBox="0 0 349.06 259.41"><defs><style>.cls-1,.cls-5,.cls-6,.cls-7{fill:#e6e6e6;}.cls-2{fill:#fff;}.cls-10,.cls-3,.cls-8,.cls-9{fill:#3f3d56;}.cls-11,.cls-12,.cls-13,.cls-4{fill:#6c63ff;}.cls-11,.cls-5,.cls-8{opacity:0.8;}.cls-10,.cls-11,.cls-12,.cls-13,.cls-5,.cls-6,.cls-7,.cls-8,.cls-9{isolation:isolate;}.cls-12,.cls-6,.cls-9{opacity:0.4;}.cls-10,.cls-13,.cls-7{opacity:0.6;}.cls-14{fill:#ffb8b8;}.cls-15{fill:#2f2e41;}.cls-16{fill:#ffb9b9;}</style></defs><title>what-8</title><path class="cls-1" d="M41.94,41A1.94,1.94,0,0,0,40,42.94v112a1.94,1.94,0,0,0,1.94,1.94h222a1.94,1.94,0,0,0,1.94-1.94v-112A1.94,1.94,0,0,0,263.91,41Z" transform="translate(-40 -41)"/><path class="cls-2" d="M45.05,44.11a1.94,1.94,0,0,0-1.94,1.94V151.79a1.94,1.94,0,0,0,1.94,1.94H260.8a1.94,1.94,0,0,0,1.94-1.94V46.05a1.94,1.94,0,0,0-1.94-1.94Z" transform="translate(-40 -41)"/><path class="cls-3" d="M109.78,112.14H63.91a2.72,2.72,0,0,1-2.72-2.72V63.55a2.71,2.71,0,0,1,2.72-2.72h45.87a2.72,2.72,0,0,1,2.72,2.72v45.87A2.72,2.72,0,0,1,109.78,112.14ZM63.91,61.6A2,2,0,0,0,62,63.55v45.87a1.94,1.94,0,0,0,1.95,1.94h45.87a1.94,1.94,0,0,0,1.94-1.94V63.55a1.94,1.94,0,0,0-1.94-1.95Z" transform="translate(-40 -41)"/><path class="cls-1" d="M175.86,112.14H130a2.72,2.72,0,0,1-2.72-2.72V63.55A2.72,2.72,0,0,1,130,60.83h45.87a2.72,2.72,0,0,1,2.72,2.72v45.87A2.72,2.72,0,0,1,175.86,112.14ZM130,61.6a1.94,1.94,0,0,0-1.94,1.95v45.87a1.94,1.94,0,0,0,1.94,1.94h45.87a1.94,1.94,0,0,0,1.94-1.94V63.55a1.94,1.94,0,0,0-1.94-1.95Z" transform="translate(-40 -41)"/><path class="cls-1" d="M133.49,65.1A1.94,1.94,0,0,0,131.55,67v38.88a1.94,1.94,0,0,0,1.94,1.94h38.87a1.94,1.94,0,0,0,1.95-1.94V67a1.94,1.94,0,0,0-1.95-1.94Z" transform="translate(-40 -41)"/><path class="cls-3" d="M67.6,65.1A1.94,1.94,0,0,0,65.66,67v38.88a1.94,1.94,0,0,0,1.94,1.94h38.87a1.94,1.94,0,0,0,2-1.94V67a1.94,1.94,0,0,0-2-1.94Z" transform="translate(-40 -41)"/><path class="cls-4" d="M199.38,65.1A1.94,1.94,0,0,0,197.44,67v38.88a1.94,1.94,0,0,0,1.94,1.94h38.87a2,2,0,0,0,1.95-1.94V67a2,2,0,0,0-1.95-1.94Z" transform="translate(-40 -41)"/><path class="cls-4" d="M242,112.14H196.08a2.73,2.73,0,0,1-2.73-2.72V63.55a2.72,2.72,0,0,1,2.73-2.72H242a2.72,2.72,0,0,1,2.72,2.72v45.87A2.73,2.73,0,0,1,242,112.14ZM196.08,61.6a2,2,0,0,0-2,1.95v45.87a1.94,1.94,0,0,0,2,1.94H242a1.94,1.94,0,0,0,1.94-1.94V63.55A1.94,1.94,0,0,0,242,61.6Z" transform="translate(-40 -41)"/><circle class="cls-5" cx="94.46" cy="85.91" r="6.61"/><circle class="cls-6" cx="131.78" cy="85.91" r="6.61"/><circle class="cls-7" cx="113.12" cy="85.91" r="6.61"/><circle class="cls-8" cx="28.38" cy="85.91" r="6.61"/><circle class="cls-9" cx="65.7" cy="85.91" r="6.61"/><circle class="cls-10" cx="47.04" cy="85.91" r="6.61"/><circle class="cls-11" cx="160.55" cy="85.91" r="6.61"/><circle class="cls-12" cx="197.86" cy="85.91" r="6.61"/><circle class="cls-13" cx="179.2" cy="85.91" r="6.61"/><polygon class="cls-2" points="174.85 58.03 165.54 46.05 170.96 41.83 175.37 47.51 190.28 31.77 195.26 36.49 174.85 58.03"/><path class="cls-3" d="M302.36,172.12a1.31,1.31,0,0,0-1.64-.16l-10,6.53a1.33,1.33,0,0,0-.39,1.83.91.91,0,0,0,.18.21L316,205.93a1.31,1.31,0,0,0,1.86,0l0,0,8.36-8.65a1.32,1.32,0,0,0,0-1.86Z" transform="translate(-40 -41)"/><path class="cls-2" d="M292.66,179.19l1-.66a1,1,0,0,0,.38,1.35,1,1,0,0,0,1.05,0l6.71-4.62a1,1,0,0,0,.26-1.37,1.06,1.06,0,0,0-.52-.39l.54-.34a.36.36,0,0,1,.45,0l22.59,22.21a.36.36,0,0,1,0,.51h0l-8.2,8a.36.36,0,0,1-.5,0L292.6,179.75a.36.36,0,0,1,0-.51Z" transform="translate(-40 -41)"/><polygon class="cls-4" points="278.75 149.47 271.81 156 255.32 139.71 263.69 134.27 278.75 149.47"/><path class="cls-1" d="M296,184.73a.25.25,0,0,0,0-.34L294.52,183a.24.24,0,0,0-.34.34l1.45,1.44A.25.25,0,0,0,296,184.73Z" transform="translate(-40 -41)"/><path class="cls-1" d="M298.39,186.82,297,185.38a.24.24,0,1,0-.34.34l1.45,1.44a.22.22,0,0,0,.33,0A.23.23,0,0,0,298.39,186.82Z" transform="translate(-40 -41)"/><circle class="cls-4" cx="278.59" cy="155.08" r="1.62"/><path class="cls-14" d="M365.52,199.39l-1.25,6.09a5,5,0,0,0,6.61,5.76h0a5,5,0,0,0,3.15-6.18l-1.68-5.67L387.54,155H374.63Z" transform="translate(-40 -41)"/><circle class="cls-14" cx="311.85" cy="58.14" r="11.77"/><path class="cls-14" d="M350,120l15.57-1.9c-3.57-4.48-4.92-9.16-3.8-14l-14.05,1.52Z" transform="translate(-40 -41)"/><path class="cls-4" d="M330.58,185.72l36.84-8.35c7.87-6.12,13-18.27,16.94-33A22.47,22.47,0,0,0,371.9,117.9c-.25-.11-.49-.21-.74-.3l-8.3-3.27-13.67,1.14-4.88,1.33a5.53,5.53,0,0,0-4,4.51C333.74,145.37,329.42,167.69,330.58,185.72Z" transform="translate(-40 -41)"/><polygon class="cls-4" points="332.73 121.18 349.06 121.18 343.75 89.28 332.73 90.42 332.73 121.18"/><path class="cls-15" d="M317.67,300.41h9.87l20.7-72.72,8,72.72H367.8l4.55-116.59c-1.73-8.94-1.7-19.6-.76-31.13,8.15-5.71,5.17-19.24,6.07-32.84a.52.52,0,0,0-.12-.36l-5.25-2.73a.51.51,0,0,0-.72-.05.52.52,0,0,0-.18.43c-.13,9.5,2.43,20.81-1.69,28.33-4.49-15.32-10.33-28.19-21.7-31.06a1.3,1.3,0,0,0-.65,0l-2.12.61a1.26,1.26,0,0,0-.86,1.56,1.22,1.22,0,0,0,.56.72c10.4,6.43,17.12,17.19,17.55,35.38-8.09,11.45-16,18.23-30.17,26.57a5.29,5.29,0,0,0-2.57,4Z" transform="translate(-40 -41)"/><path class="cls-15" d="M353.37,109.84l8.35-1.59,5-8.48a11.28,11.28,0,0,0-1.32-13.21h0a11.26,11.26,0,0,0-10-3.65l-10.82,1.54a7.14,7.14,0,0,0-6.06,8.09v0l7.29,1.24Z" transform="translate(-40 -41)"/><path class="cls-16" d="M312.55,185.42,305,188a5.32,5.32,0,0,0-1.54,9.21h0a5.31,5.31,0,0,0,6.16.29l6.86-4.41,23.42-23.8,3.63-28A21.28,21.28,0,0,0,336,122.22h0l-7.63,42.61Z" transform="translate(-40 -41)"/><path class="cls-4" d="M328.68,156.48h16.71L345,116.61h0a19.26,19.26,0,0,0-14.55,17.48Z" transform="translate(-40 -41)"/><ellipse class="cls-14" cx="308.41" cy="59.74" rx="2.07" ry="2.48"/></svg>