<svg id="Layer_1" data-name="Layer 1" xmlns="http://www.w3.org/2000/svg" xmlns:xlink="http://www.w3.org/1999/xlink" viewBox="0 0 338.01 260.16"><defs><style>.cls-1,.cls-10{fill:#6c63ff;}.cls-1,.cls-11,.cls-5{opacity:0.1;}.cls-1,.cls-5{isolation:isolate;}.cls-2{fill:#d6d6e3;}.cls-3{fill:#aebee1;}.cls-4{fill:#535461;}.cls-6{fill:#e3edf9;}.cls-7{fill:url(#linear-gradient);}.cls-8{fill:#f8b9bf;}.cls-9{fill:#d9dfe8;}.cls-12{fill:#68739d;}.cls-13{fill:#6394e2;}.cls-14{fill:#b96b6b;}.cls-15{fill:none;stroke:#535461;stroke-miterlimit:10;stroke-width:2px;}.cls-16{fill:url(#linear-gradient-2);}.cls-17{fill:#fa595f;}.cls-18{fill:#f37291;}.cls-19{fill:#96a2d0;}</style><linearGradient id="linear-gradient" x1="313.22" y1="-3.81" x2="313.22" y2="151.47" gradientTransform="matrix(1, 0.09, 0.09, -1, -21.66, 198.55)" gradientUnits="userSpaceOnUse"><stop offset="0" stop-color="gray" stop-opacity="0.25"/><stop offset="0.54" stop-color="gray" stop-opacity="0.12"/><stop offset="1" stop-color="gray" stop-opacity="0.1"/></linearGradient><linearGradient id="linear-gradient-2" x1="159.1" y1="53.88" x2="159.1" y2="208.17" gradientTransform="matrix(1, 0, 0, -1, -39.7, 283.26)" xlink:href="#linear-gradient"/></defs><title>what-9</title><path class="cls-1" d="M348.7,168.63c-12.45,18.73-9.3,44.77-3,65.4,2.11,6.9,4.5,14.2,3.08,21.83-1.73,9.33-8.8,16.52-16.05,20.54-13.21,7.34-28.54,6.74-39.92-1.56-9.83-7.18-16.51-19.42-26.54-26.24-16.77-11.38-39.16-5.3-58.49,4.48-13.68,6.91-28.7,15.73-41.66,10.2-9.12-3.89-15-14.37-18-25.69-1.42-5.46-2.35-11.41-5.37-15.62a19.89,19.89,0,0,0-6.72-5.62c-22.84-12.89-53-3.36-75.06-17.86-14.91-9.77-23.78-29.42-27.1-50.28s-1.68-43,.54-64.87C36,67.82,38.23,51.23,46.89,38.79A39.82,39.82,0,0,1,84,21.62C97.08,23.19,108.6,31,118.62,40.44c12.53,11.76,23.94,26.68,39.85,30.76C169.3,74,181,71.37,192.35,70c19-2.28,37.9-1,56.63.49,17.94,1.44,36,3.13,52.84,9.28,11.92,4.35,21.21,13,32.39,18.78,7.28,3.75,15.4,4.41,22.22,9.35,8.41,6.07,15.84,17.09,12.92,30.71C366.57,151.58,355.31,158.67,348.7,168.63Z" transform="translate(-31.99 -21.36)"/><rect class="cls-1" x="265.67" y="77.34" width="12.33" height="18.67"/><rect class="cls-1" x="266.87" y="79.16" width="9.94" height="15.04"/><rect class="cls-1" x="240.64" y="64.37" width="18.94" height="18.67"/><rect class="cls-1" x="242.48" y="66.19" width="15.26" height="15.04"/><rect class="cls-1" x="19.49" y="36.59" width="57.9" height="1.54"/><rect class="cls-1" x="19.49" y="44.13" width="57.9" height="1.54"/><rect class="cls-2" x="117.16" y="136.53" width="5.91" height="66.1"/><path class="cls-3" d="M327.84,164.82v-61a6.41,6.41,0,0,1,6.41-6.41h0a6.41,6.41,0,0,1,6.4,6.41v73.79a6.41,6.41,0,0,1-6.41,6.41h-39.7a6.41,6.41,0,0,1-6.41-6.41h0a6.41,6.41,0,0,1,6.41-6.41h26.89A6.41,6.41,0,0,0,327.84,164.82Z" transform="translate(-31.99 -21.36)"/><path class="cls-4" d="M327.84,164.82v-61a6.41,6.41,0,0,1,6.41-6.41h0a6.41,6.41,0,0,1,6.4,6.41v73.79a6.41,6.41,0,0,1-6.41,6.41h-39.7a6.41,6.41,0,0,1-6.41-6.41h0a6.41,6.41,0,0,1,6.41-6.41h26.89A6.41,6.41,0,0,0,327.84,164.82Z" transform="translate(-31.99 -21.36)"/><path class="cls-2" d="M288.14,177.3a6.42,6.42,0,0,1,6.4-6.07h26.89a6.41,6.41,0,0,0,6.41-6.41h0v-61a6.42,6.42,0,0,1,6.1-6.41V177.3Z" transform="translate(-31.99 -21.36)"/><path class="cls-3" d="M90.06,166.88v-61a6.41,6.41,0,0,0-6.4-6.41h0a6.41,6.41,0,0,0-6.41,6.41V179.7a6.42,6.42,0,0,0,6.4,6.42h39.71a6.41,6.41,0,0,0,6.41-6.41h0a6.41,6.41,0,0,0-6.41-6.41H96.47a6.4,6.4,0,0,1-6.41-6.4Z" transform="translate(-31.99 -21.36)"/><path class="cls-4" d="M90.06,166.88v-61a6.41,6.41,0,0,0-6.4-6.41h0a6.41,6.41,0,0,0-6.41,6.41V179.7a6.42,6.42,0,0,0,6.4,6.42h39.71a6.41,6.41,0,0,0,6.41-6.41h0a6.41,6.41,0,0,0-6.41-6.41H96.47a6.4,6.4,0,0,1-6.41-6.4Z" transform="translate(-31.99 -21.36)"/><path class="cls-2" d="M129.76,179.35a6.41,6.41,0,0,0-6.4-6.06H96.47a6.41,6.41,0,0,1-6.41-6.41h0v-61A6.41,6.41,0,0,0,84,99.51v79.84Z" transform="translate(-31.99 -21.36)"/><rect class="cls-2" x="234.18" y="136.53" width="5.91" height="67.64"/><rect class="cls-5" x="117.16" y="136.53" width="5.91" height="4.89"/><rect class="cls-5" x="234.18" y="136.53" width="5.91" height="4.89"/><path class="cls-5" d="M170.28,117.63c-.09,1-.21,2.1-.36,3.17h-.83v-3.17Z" transform="translate(-31.99 -21.36)"/><path class="cls-4" d="M194.52,150.53a1.83,1.83,0,0,1-1.71,1.95H174.75V150.6h15a.94.94,0,0,0,.72-1.41l-13.62-27.71a1.19,1.19,0,0,0-1-.68h-6.74v-3.17h8.51a.85.85,0,0,1,.74.48L194,148.27A5.21,5.21,0,0,1,194.52,150.53Z" transform="translate(-31.99 -21.36)"/><path class="cls-4" d="M161.36,145.51l-.24.41-2.32-1.54,7.16-55h1.84s.08.25.2.74C169.24,94.83,175.29,121.77,161.36,145.51Z" transform="translate(-31.99 -21.36)"/><path class="cls-5" d="M168,90.08l-6.64,55.43-.24.41-2.32-1.54,7.16-55h1.84Z" transform="translate(-31.99 -21.36)"/><rect class="cls-2" x="133.73" y="115.19" width="57.09" height="4.37" transform="translate(-5.56 243.18) rotate(-83.17)"/><path class="cls-6" d="M141.83,150.55a.53.53,0,0,1-.52.52h-.77a.52.52,0,0,1-.52-.52v-.06a.51.51,0,0,1,.51-.45h.77a.51.51,0,0,1,.5.39A.53.53,0,0,1,141.83,150.55Z" transform="translate(-31.99 -21.36)"/><path class="cls-6" d="M144.14,150.55a.52.52,0,0,1-.52.52h-.77a.51.51,0,0,1-.51-.52.34.34,0,0,1,0-.14.42.42,0,0,1,.13-.22.48.48,0,0,1,.36-.15h.77a.52.52,0,0,1,.47.3A.54.54,0,0,1,144.14,150.55Z" transform="translate(-31.99 -21.36)"/><path class="cls-6" d="M146.2,150.55a.52.52,0,0,1-.52.52h-.77a.52.52,0,0,1-.52-.52.5.5,0,0,1,.05-.21.52.52,0,0,1,.47-.3h.77a.5.5,0,0,1,.51.51h0Z" transform="translate(-31.99 -21.36)"/><path class="cls-6" d="M148.51,150.55a.51.51,0,0,1-.51.52h-.77a.52.52,0,0,1-.52-.52.5.5,0,0,1,.09-.29l.06-.07a.51.51,0,0,1,.37-.15H148a.51.51,0,0,1,.37.16A.52.52,0,0,1,148.51,150.55Z" transform="translate(-31.99 -21.36)"/><path class="cls-5" d="M141.81,150.43a.5.5,0,0,1,0,.12.53.53,0,0,1-.52.52h-.77a.52.52,0,0,1-.52-.52v-.06Z" transform="translate(-31.99 -21.36)"/><path class="cls-5" d="M144.1,150.35a.65.65,0,0,1,0,.2.51.51,0,0,1-.52.51h-.77a.51.51,0,0,1-.51-.51.32.32,0,0,1,0-.14Z" transform="translate(-31.99 -21.36)"/><path class="cls-5" d="M146.12,150.28a.5.5,0,0,1,.08.27.51.51,0,0,1-.52.51h-.77a.51.51,0,0,1-.51-.51.54.54,0,0,1,0-.22Z" transform="translate(-31.99 -21.36)"/><path class="cls-5" d="M148.51,150.55a.51.51,0,0,1-.51.52h-.77a.52.52,0,0,1-.52-.52.5.5,0,0,1,.09-.29l1.57-.06A.52.52,0,0,1,148.51,150.55Z" transform="translate(-31.99 -21.36)"/><path class="cls-2" d="M153.14,152.61H138.23v-.68a1.15,1.15,0,0,1,1.12-1.16l12-.41a1.76,1.76,0,0,1,1.83,1.71v.54Z" transform="translate(-31.99 -21.36)"/><path class="cls-4" d="M226.73,150.53a1.82,1.82,0,0,0,1.71,1.95H246.5V150.6h-15a1,1,0,0,1-.73-1.41l13.63-27.71a1.18,1.18,0,0,1,1-.68h6.74v-3.17h-8.5a.86.86,0,0,0-.73.48l-15.61,30.16A5,5,0,0,0,226.73,150.53Z" transform="translate(-31.99 -21.36)"/><path class="cls-4" d="M259.89,145.51l.24.41,2.32-1.54-7.16-55h-1.84s-.08.25-.2.74C252,94.83,245.94,121.77,259.89,145.51Z" transform="translate(-31.99 -21.36)"/><path class="cls-5" d="M253.25,90.08l6.63,55.43.25.41,2.31-1.54-7.15-55h-1.84S253.37,89.6,253.25,90.08Z" transform="translate(-31.99 -21.36)"/><rect class="cls-2" x="256.79" y="88.82" width="4.37" height="57.09" transform="translate(-44.11 10.28) rotate(-6.83)"/><path class="cls-6" d="M279.42,150.55a.51.51,0,0,0,.51.52h.78a.51.51,0,0,0,.51-.52h0a.06.06,0,0,0,0-.06.51.51,0,0,0-.51-.45h-.77a.52.52,0,0,0-.5.39A.5.5,0,0,0,279.42,150.55Z" transform="translate(-31.99 -21.36)"/><path class="cls-6" d="M277.11,150.55a.51.51,0,0,0,.51.52h.77a.52.52,0,0,0,.52-.52h0a.68.68,0,0,0,0-.14.5.5,0,0,0-.13-.22.51.51,0,0,0-.36-.15h-.79a.52.52,0,0,0-.47.3A.39.39,0,0,0,277.11,150.55Z" transform="translate(-31.99 -21.36)"/><path class="cls-6" d="M275.05,150.55a.51.51,0,0,0,.51.52h.78a.51.51,0,0,0,.51-.52h0a.49.49,0,0,0,0-.21.53.53,0,0,0-.47-.3h-.77a.5.5,0,0,0-.52.51Z" transform="translate(-31.99 -21.36)"/><path class="cls-6" d="M272.73,150.55a.52.52,0,0,0,.52.52H274a.52.52,0,0,0,.52-.52.51.51,0,0,0-.1-.29l-.06-.07A.48.48,0,0,0,274,150h-.77a.55.55,0,0,0-.38.16A.52.52,0,0,0,272.73,150.55Z" transform="translate(-31.99 -21.36)"/><path class="cls-5" d="M279.43,150.43a.49.49,0,0,0,0,.12.51.51,0,0,0,.51.52h.78a.51.51,0,0,0,.51-.52h0a.06.06,0,0,0,0-.06Z" transform="translate(-31.99 -21.36)"/><path class="cls-5" d="M277.15,150.35a.45.45,0,0,0,0,.2.51.51,0,0,0,.51.51h.77a.51.51,0,0,0,.52-.51h0a.59.59,0,0,0,0-.14Z" transform="translate(-31.99 -21.36)"/><path class="cls-5" d="M275.12,150.28a.5.5,0,0,0-.07.27.51.51,0,0,0,.51.51h.77a.51.51,0,0,0,.52-.51h0a.42.42,0,0,0-.05-.22Z" transform="translate(-31.99 -21.36)"/><path class="cls-5" d="M272.73,150.55a.52.52,0,0,0,.52.52H274a.52.52,0,0,0,.52-.52.51.51,0,0,0-.1-.29l-1.57-.06A.52.52,0,0,0,272.73,150.55Z" transform="translate(-31.99 -21.36)"/><path class="cls-2" d="M268.11,152.61H283v-.68a1.16,1.16,0,0,0-1.12-1.16l-12-.41a1.78,1.78,0,0,0-1.84,1.71v.54Z" transform="translate(-31.99 -21.36)"/><path class="cls-7" d="M330.54,160.79c6.95-11.81,4.43-35.61,4.71-36.07s-.71-11.61-7.1-14.35c-1.16-2.29-2.29-4.87-2.29-4.87a2,2,0,0,1-.37.28l-.15-.42c-.08-.24-.16-.48-.23-.73a3.41,3.41,0,0,0,.55.14,2.29,2.29,0,0,0,1.46-.13,1.57,1.57,0,0,0,.41-.32,3.14,3.14,0,0,0,1-1.51l1.86-4.46a33.85,33.85,0,0,0,2.13-6.17,17.31,17.31,0,0,0-.74-9.61,6.15,6.15,0,0,0-2.08-3c-2.08-1.4-5-.43-7.33-1.25-.78-.28-1.48-.73-2.26-1a7,7,0,0,0-5.19.47,23.92,23.92,0,0,0-4.34,3c-.7.53-1.81,1.08-2.63,1.81a2.63,2.63,0,0,0-1.29,2.36c.13,1.13,1.32,1.81,2.43,2.07l.56.11a10.86,10.86,0,0,0,4.64,18,26.13,26.13,0,0,1,1.46,3.29c.06.16.11.32.16.47a19,19,0,0,0-3.54,1.19c-.87.72.95,7,.95,7-.46.59-.93,1.26-1.41,2a42.42,42.42,0,0,0-6.69,18.27c-.3,2.39-.69,4.83-1.19,7.15l-21.61-4.34-.05.54-.52-.13h0l-1.62-.4-.06.36-.25-.12c-4-1.88-10.79-4.29-15.38-1.8-4.84,2.6,5.61,6.06,12.31,7.91a10.88,10.88,0,0,0-6,1.89c-4.86,3.64,8.89,5.54,15.38,6.21l.26,0v.14l2.25.21.53,0,.05.81s3.22.52,7.53,1.16a131.76,131.76,0,0,1-15.2,2.58,11.12,11.12,0,0,0-9.48,8,7,7,0,0,0-.11,3.83c1.26,4.39-.28,36.63-.62,43.57l-7.95,4.58s-12.37,1.5-4.13,4.4a16.17,16.17,0,0,0,2.27.61c-1.09.7-1,1.61,2.21,2.73,8.24,2.89,27.4-.12,27.4-.12s-.42-3.4-1.1-6.22h.21s-2-7.36,1-11.07-.51-32-.51-32,5.26-2.18,21-2.32c12.67,3.25,18.85-8.39,18.76-14.41A1.78,1.78,0,0,1,330.54,160.79Z" transform="translate(-31.99 -21.36)"/><path class="cls-8" d="M283.72,142.5l-1.34,5.42s-1.21-.27-3-.73c-6.13-1.59-19.06-5.4-13.88-8.19,4.47-2.42,11-.07,15,1.76,1.43.67,2.5,1.28,3,1.56Z" transform="translate(-31.99 -21.36)"/><path class="cls-5" d="M283.34,144l-1,3.92s-1.21-.27-3-.74l1.09-6.43c1.43.68,2.5,1.28,3,1.56Z" transform="translate(-31.99 -21.36)"/><polygon class="cls-9" points="251.35 126.96 247.6 126.04 248.77 119.17 251.76 119.91 251.35 126.96"/><polygon class="cls-5" points="251.35 126.96 249.73 126.56 250.34 119.56 251.76 119.91 251.35 126.96"/><path class="cls-10" d="M319.49,119.89s-7.19-4.16-10.39,7.76-3.5,17.42-3.5,17.42l-22.72-4.54-.72,8.29s24.29,7.85,27.35,7.28,13-17.2,13-17.2S331.49,126,319.49,119.89Z" transform="translate(-31.99 -21.36)"/><g class="cls-11"><path d="M283.72,142.5l-1.34,5.42s-1.21-.27-3-.73c-6.13-1.59-19.06-5.4-13.88-8.19,4.47-2.42,11-.07,15,1.76,1.43.67,2.5,1.28,3,1.56Z" transform="translate(-31.99 -21.36)"/><path class="cls-5" d="M283.34,144l-1,3.92s-1.21-.27-3-.74l1.09-6.43c1.43.68,2.5,1.28,3,1.56Z" transform="translate(-31.99 -21.36)"/><polygon points="251.35 126.96 247.6 126.04 248.77 119.17 251.76 119.91 251.35 126.96"/><polygon class="cls-5" points="251.35 126.96 249.73 126.56 250.34 119.56 251.76 119.91 251.35 126.96"/><path d="M319.49,120.19S312.3,116,309.1,128s-3.5,17.42-3.5,17.42l-22.72-4.54-.72,8.29s24.29,7.85,27.35,7.28,13-17.2,13-17.2S331.49,126.32,319.49,120.19Z" transform="translate(-31.99 -21.36)"/></g><path class="cls-12" d="M273.73,212.27l-9.27,5.35s-12,1.47-4,4.27,26.61-.12,26.61-.12-1-8.36-2.47-9.53S273.73,212.27,273.73,212.27Z" transform="translate(-31.99 -21.36)"/><path class="cls-13" d="M309.88,152.34a64.74,64.74,0,0,1-12.81,4.5,129.83,129.83,0,0,1-15,2.55,10.8,10.8,0,0,0-9.2,7.73,6.89,6.89,0,0,0-.11,3.74c1.37,4.77-.67,43.59-.67,43.59l14.09,1.3s-1.92-7.15,1-10.75S286.7,174,286.7,174s5.11-2.11,20.36-2.25c14.13,3.62,19.95-11.84,17.77-16.17S309.88,152.34,309.88,152.34Z" transform="translate(-31.99 -21.36)"/><g class="cls-11"><path d="M273.73,212.27l-9.27,5.35s-12,1.47-4,4.27,26.61-.12,26.61-.12-1-8.36-2.47-9.53S273.73,212.27,273.73,212.27Z" transform="translate(-31.99 -21.36)"/><path d="M309.88,152.34a64.74,64.74,0,0,1-12.81,4.5,129.83,129.83,0,0,1-15,2.55,10.8,10.8,0,0,0-9.2,7.73,6.89,6.89,0,0,0-.11,3.74c1.37,4.77-.67,43.59-.67,43.59l14.09,1.3s-1.92-7.15,1-10.75S286.7,174,286.7,174s5.11-2.11,20.36-2.25c14.13,3.62,19.95-11.84,17.77-16.17S309.88,152.34,309.88,152.34Z" transform="translate(-31.99 -21.36)"/></g><path class="cls-12" d="M278.08,215.52l-9.27,5.34s-12,1.46-4,4.27,26.61-.12,26.61-.12-1-8.36-2.47-9.53S278.08,215.52,278.08,215.52Z" transform="translate(-31.99 -21.36)"/><path class="cls-13" d="M311.39,175c-15.25.14-20.35,2.25-20.35,2.25s3.4,27.45.49,31-1,10.75-1,10.75l-14.08-1.3s0-.46.06-1.28c.34-6.74,1.82-38,.6-42.31a6.85,6.85,0,0,1,.11-3.73,10.78,10.78,0,0,1,9.2-7.74,124,124,0,0,0,15-2.56l.24-.06a64.59,64.59,0,0,0,12.58-4.43s12.76-1.15,14.94,3.18a5,5,0,0,1,.44,2.19C329.7,166.8,323.7,178.11,311.39,175Z" transform="translate(-31.99 -21.36)"/><path class="cls-8" d="M290.15,149.26l-.52,5.58s-1.24-.09-3.08-.28c-6.3-.65-19.65-2.49-14.93-6,4.06-3,10.92-1.72,15.05-.48,1.51.45,2.67.88,3.18,1.09Z" transform="translate(-31.99 -21.36)"/><path class="cls-8" d="M327.61,112.78s-1.89,1.48-4.19,3.1c-2.53.57-5.47,1.05-7.59,1.35a12,12,0,0,0-.55-7.5,28.23,28.23,0,0,0-3.79-7l12.77-4c-1,2.54-.55,5.43.3,8A26.43,26.43,0,0,0,327.61,112.78Z" transform="translate(-31.99 -21.36)"/><path class="cls-5" d="M290,150.83l-.37,4s-1.24-.09-3.08-.28l.12-6.52c1.51.45,2.67.89,3.18,1.1Z" transform="translate(-31.99 -21.36)"/><polygon class="cls-9" points="258.65 133.72 254.81 133.36 254.94 126.4 258.01 126.69 258.65 133.72"/><path class="cls-5" d="M327.61,112.78s-1.89,1.48-4.19,3.1c-2.53.57-5.47,1.05-7.59,1.35a12,12,0,0,0-.55-7.5c3.12-.91,7.58-2.08,9.28-3A26.37,26.37,0,0,0,327.61,112.78Z" transform="translate(-31.99 -21.36)"/><path class="cls-9" d="M325.06,106.86s2.14,4.85,3.48,7-15.63,4.22-15.63,4.22-1.76-6.1-.92-6.8S323.64,108.28,325.06,106.86Z" transform="translate(-31.99 -21.36)"/><path class="cls-5" d="M329.62,161a15.45,15.45,0,0,1-2.64,3.43c-7.5,7.12-19.79-.31-25.34-4.37a64.59,64.59,0,0,0,12.58-4.43s12.76-1.15,14.94,3.18A5.19,5.19,0,0,1,329.62,161Z" transform="translate(-31.99 -21.36)"/><path class="cls-10" d="M327,163.87c-8.52,8.09-23.22-2.63-27.18-5.79-.65-.51-1-.83-1-.83,1.57-1.46,2.95-4.57,4-8.37a73.51,73.51,0,0,0,2.2-11.09A41.19,41.19,0,0,1,311.55,120c.46-.69.9-1.34,1.36-1.91a28.05,28.05,0,0,1,8.63-6.69C333,108.1,334.49,125,334.19,125.52S336.93,154.45,327,163.87Z" transform="translate(-31.99 -21.36)"/><path class="cls-5" d="M328.13,140.72s-7.34,17.92-10.27,18.94c-1.68.58-10.66-.52-18-1.57-.65-.52-1-.83-1-.83,1.57-1.47,2.95-4.58,4-8.38l9.49.46s-.53-5.48.87-17.75,9.11-9.23,9.11-9.23C335.11,126.64,328.13,140.72,328.13,140.72Z" transform="translate(-31.99 -21.36)"/><polygon class="cls-5" points="258.65 133.72 256.99 133.57 256.55 126.55 258.01 126.69 258.65 133.72"/><path class="cls-10" d="M322.15,121.57s-7.72-3-9.12,9.23-.86,17.75-.86,17.75L289,147.44l.52,8.31s25.19,4.14,28.13,3.12,10.27-18.94,10.27-18.94S334.92,125.85,322.15,121.57Z" transform="translate(-31.99 -21.36)"/><path class="cls-5" d="M322.67,103.41c-.34-1.83,1.58-1.81,2.26-3.53l-12.76,4a27.23,27.23,0,0,1,2.36,3.76,10.25,10.25,0,0,0,2,.39C319.61,108.3,320.56,105.31,322.67,103.41Z" transform="translate(-31.99 -21.36)"/><circle class="cls-8" cx="316.85" cy="96.41" r="10.54" transform="translate(159.7 381.69) rotate(-84.72)"/><path class="cls-5" d="M306.44,86.89c.13,1.1,1.29,1.76,2.37,2a10.36,10.36,0,0,1,3.19.84c1.51.93,1.91,3,1.72,4.76-.1,1-.25,2.23.57,2.81a2.08,2.08,0,0,0,.84.31,8.11,8.11,0,0,0,2.6.09,3.67,3.67,0,0,1,1.51,0,2.28,2.28,0,0,1,1.41,1.86c.16.81.07,1.65.19,2.46a5.09,5.09,0,0,0,4,4.14,2.23,2.23,0,0,0,1.42-.12,2.82,2.82,0,0,0,1.11-1.55l1.81-4.33a32.91,32.91,0,0,0,2.07-6,16.77,16.77,0,0,0-.72-9.33,6,6,0,0,0-2-3c-2-1.37-4.83-.43-7.12-1.21-.75-.26-1.43-.71-2.19-1a6.76,6.76,0,0,0-5,.46A23.54,23.54,0,0,0,310,83.07C308.76,84,306.22,85,306.44,86.89Z" transform="translate(-31.99 -21.36)"/><path class="cls-14" d="M306.72,86.66c.13,1.09,1.29,1.76,2.37,2a10.44,10.44,0,0,1,3.19.84c1.5.92,1.91,3,1.72,4.76-.1,1-.26,2.23.56,2.81a2.17,2.17,0,0,0,.85.3,7.56,7.56,0,0,0,2.6.09,3.67,3.67,0,0,1,1.51,0,2.27,2.27,0,0,1,1.41,1.86c.15.81.07,1.65.19,2.46a5.09,5.09,0,0,0,4,4.14,2.24,2.24,0,0,0,1.42-.12,2.9,2.9,0,0,0,1.11-1.55l1.81-4.33a34.5,34.5,0,0,0,2.07-6,17,17,0,0,0-.72-9.33,6,6,0,0,0-2-3c-2-1.36-4.82-.42-7.11-1.2-.76-.26-1.44-.71-2.19-1a6.79,6.79,0,0,0-5.05.46,23.82,23.82,0,0,0-4.22,2.94C309,83.77,306.5,84.76,306.72,86.66Z" transform="translate(-31.99 -21.36)"/><path class="cls-5" d="M315.46,128.31s-4,15.65-8,17.09-2.24,1.86-2.24,1.86" transform="translate(-31.99 -21.36)"/><rect class="cls-2" x="279.28" y="164.26" width="4.38" height="28.77"/><rect class="cls-5" x="279.28" y="164.26" width="4.38" height="2.13"/><path class="cls-2" d="M302.51,185.46v.61a1.42,1.42,0,0,0,1.42,1.41H323a1.41,1.41,0,0,0,1.41-1.41h0v-.61a1.41,1.41,0,0,0-1.41-1.41H303.93a1.42,1.42,0,0,0-1.42,1.41Z" transform="translate(-31.99 -21.36)"/><path class="cls-5" d="M302.84,184.57h21.24a1.41,1.41,0,0,0-1.09-.52H303.93A1.41,1.41,0,0,0,302.84,184.57Z" transform="translate(-31.99 -21.36)"/><rect class="cls-2" x="263.49" y="191.46" width="35.96" height="3.44" rx="1.66"/><circle class="cls-4" cx="297.41" cy="197.09" r="2.19"/><circle class="cls-4" cx="265.52" cy="197.09" r="2.19"/><circle class="cls-4" cx="281.47" cy="197.09" r="2.19"/><rect class="cls-2" x="276.82" y="128.93" width="34.39" height="5.31" rx="2.56"/><path class="cls-5" d="M315.65,212.82s-1.72,1.69-4.38,0" transform="translate(-31.99 -21.36)"/><path class="cls-5" d="M343.2,153v.42A2.19,2.19,0,0,1,341,155.6H311a2.19,2.19,0,0,1-2.19-2.19V153Z" transform="translate(-31.99 -21.36)"/><rect class="cls-2" x="248.07" y="136.53" width="5.91" height="75.36"/><rect class="cls-5" x="248.07" y="136.53" width="5.91" height="4.89"/><rect class="cls-2" x="70.26" y="166.32" width="4.38" height="28.77"/><rect class="cls-5" x="70.26" y="166.32" width="4.38" height="2.13"/><path class="cls-2" d="M115.39,187.52v.61a1.42,1.42,0,0,1-1.42,1.41H94.91a1.41,1.41,0,0,1-1.41-1.41h0v-.61a1.42,1.42,0,0,1,1.41-1.4H114a1.43,1.43,0,0,1,1.42,1.42h0Z" transform="translate(-31.99 -21.36)"/><path class="cls-5" d="M115.06,186.62H93.82a1.42,1.42,0,0,1,1.09-.5H114A1.42,1.42,0,0,1,115.06,186.62Z" transform="translate(-31.99 -21.36)"/><rect class="cls-2" x="54.47" y="193.52" width="35.96" height="3.44" rx="1.66"/><circle class="cls-4" cx="56.51" cy="199.15" r="2.19"/><circle class="cls-4" cx="88.4" cy="199.15" r="2.19"/><circle class="cls-4" cx="72.45" cy="199.15" r="2.19"/><path class="cls-5" d="M102.26,214.87s1.72,1.7,4.37,0" transform="translate(-31.99 -21.36)"/><path class="cls-15" d="M213.91,128.28s-4.91-8.93-3.12-16.69a15.38,15.38,0,0,0-.86-9.72,26.24,26.24,0,0,0-2.3-4.15" transform="translate(-31.99 -21.36)"/><path class="cls-10" d="M208.72,92.83c.26,1.17-1.11,5-1.11,5s-2.87-2.92-3.13-4.09a2.17,2.17,0,1,1,4.15-1.26,2,2,0,0,1,.08.33Z" transform="translate(-31.99 -21.36)"/><path class="cls-10" d="M213.65,98.54c-.42,1.12-3.67,3.62-3.67,3.62s-.82-4-.39-5.13a2.17,2.17,0,1,1,4.12,1.34l-.06.17Z" transform="translate(-31.99 -21.36)"/><path class="cls-10" d="M215.93,109.64c-.93.76-5,1.27-5,1.27s1.32-3.87,2.25-4.63a2.17,2.17,0,0,1,2.77,3.34Z" transform="translate(-31.99 -21.36)"/><path class="cls-10" d="M215.76,118.43c-.79.91-4.7,2.09-4.7,2.09s.64-4,1.43-4.94a2.17,2.17,0,0,1,3.36,2.75l-.09.1Z" transform="translate(-31.99 -21.36)"/><path class="cls-10" d="M205.58,103.35c1,.63,5.11.61,5.11.61s-1.81-3.67-2.83-4.3a2.17,2.17,0,0,0-2.38,3.62l.1.06Z" transform="translate(-31.99 -21.36)"/><path class="cls-10" d="M205.52,113.64c1.16.3,5.06-.94,5.06-.94s-2.82-3-4-3.26a2.17,2.17,0,0,0-1.07,4.2Z" transform="translate(-31.99 -21.36)"/><path class="cls-10" d="M206.83,123.64c1.09.49,5.15-.07,5.15-.07s-2.29-3.4-3.38-3.89a2.17,2.17,0,1,0-1.77,4Z" transform="translate(-31.99 -21.36)"/><path class="cls-10" d="M208.72,92.83c.26,1.17-1.11,5-1.11,5s-2.87-2.92-3.13-4.09a2.17,2.17,0,1,1,4.15-1.26,2,2,0,0,1,.08.33Z" transform="translate(-31.99 -21.36)"/><path class="cls-10" d="M213.65,98.54c-.42,1.12-3.67,3.62-3.67,3.62s-.82-4-.39-5.13a2.17,2.17,0,1,1,4.12,1.34l-.06.17Z" transform="translate(-31.99 -21.36)"/><path class="cls-10" d="M215.93,109.64c-.93.76-5,1.27-5,1.27s1.32-3.87,2.25-4.63a2.17,2.17,0,0,1,2.77,3.34Z" transform="translate(-31.99 -21.36)"/><path class="cls-10" d="M215.76,118.43c-.79.91-4.7,2.09-4.7,2.09s.64-4,1.43-4.94a2.17,2.17,0,0,1,3.36,2.75l-.09.1Z" transform="translate(-31.99 -21.36)"/><path class="cls-10" d="M205.58,103.35c1,.63,5.11.61,5.11.61s-1.81-3.67-2.83-4.3a2.17,2.17,0,0,0-2.38,3.62l.1.06Z" transform="translate(-31.99 -21.36)"/><path class="cls-10" d="M205.52,113.64c1.16.3,5.06-.94,5.06-.94s-2.82-3-4-3.26a2.17,2.17,0,0,0-1.07,4.2Z" transform="translate(-31.99 -21.36)"/><path class="cls-10" d="M206.83,123.64c1.09.49,5.15-.07,5.15-.07s-2.29-3.4-3.38-3.89a2.17,2.17,0,1,0-1.77,4Z" transform="translate(-31.99 -21.36)"/><path class="cls-10" d="M211.91,153h0a5.17,5.17,0,0,1-5.17-5.17c0-.11,0-.22,0-.32l1.45-22.9h7.43l1.44,22.9a5.17,5.17,0,0,1-4.83,5.48Z" transform="translate(-31.99 -21.36)"/><rect class="cls-1" x="25.22" y="19.13" width="4.22" height="17.49"/><rect class="cls-1" x="30.65" y="19.13" width="4.22" height="17.49"/><rect class="cls-1" x="36.08" y="19.13" width="4.22" height="17.49"/><rect class="cls-1" x="41.51" y="19.13" width="4.22" height="17.49"/><rect class="cls-1" x="52.36" y="19.13" width="4.22" height="17.49"/><rect class="cls-1" x="57.79" y="19.13" width="4.22" height="17.49"/><rect class="cls-1" x="25.22" y="22.45" width="4.22" height="0.9"/><rect class="cls-1" x="25.22" y="33.31" width="4.22" height="0.9"/><rect class="cls-1" x="30.65" y="22.45" width="4.22" height="0.9"/><rect class="cls-1" x="30.65" y="33.31" width="4.22" height="0.9"/><rect class="cls-1" x="36.08" y="22.45" width="4.22" height="0.9"/><rect class="cls-1" x="36.08" y="33.31" width="4.22" height="0.9"/><rect class="cls-1" x="41.51" y="22.45" width="4.22" height="0.9"/><rect class="cls-1" x="41.51" y="33.31" width="4.22" height="0.9"/><rect class="cls-1" x="46.93" y="22.45" width="4.22" height="0.9"/><rect class="cls-1" x="46.93" y="33.31" width="4.22" height="0.9"/><rect class="cls-1" x="52.36" y="22.45" width="4.22" height="0.9"/><rect class="cls-1" x="52.36" y="33.31" width="4.22" height="0.9"/><rect class="cls-1" x="57.79" y="22.45" width="4.22" height="0.9"/><rect class="cls-1" x="57.79" y="33.31" width="4.22" height="0.9"/><rect class="cls-1" x="46.93" y="19.13" width="4.22" height="17.49"/><rect class="cls-1" x="97.63" y="40.48" width="4.22" height="17.49" transform="translate(-43.45 25.1) rotate(-24.84)"/><rect class="cls-1" x="95.54" y="44.26" width="4.22" height="0.9" transform="translate(-41.74 23.8) rotate(-24.84)"/><rect class="cls-1" x="100.1" y="54.12" width="4.22" height="0.9" transform="translate(-45.46 26.63) rotate(-24.84)"/><path class="cls-16" d="M149.37,220.87,141.71,216c0-6.88-.15-38.85,1.28-43.13a7,7,0,0,0,.06-3.8,11,11,0,0,0-9-8.31,130.67,130.67,0,0,1-14.93-3.21c4.29-.45,7.5-.83,7.5-.83l.09-.79,2.76-.13v-.12l.26,0c6.44-.38,20.13-1.66,15.48-5.47a10.76,10.76,0,0,0-5.87-2.14c6.71-1.53,17.21-4.5,12.53-7.29-4.45-2.65-11.26-.57-15.32,1.12l-.25.11,0-.36-1.63.32h0l-.51.1,0-.53L111.29,145a78.44,78.44,0,0,0-.93-7.79c.51-3.39,2.88-8.34,2-11-1-3.09-5-4.1-6.64-6.88-.44-.73-.87-1.41-1.3-2a21.18,21.18,0,0,0-3.22-3.47,14.87,14.87,0,0,1,1.19-5.21,23.71,23.71,0,0,1,1.59-3.19,10.74,10.74,0,0,0,8-12.37c1.45.62,3.2.68,4.1-.52l-.43-.17a1.49,1.49,0,0,0,.12-.14,8.17,8.17,0,0,1-2.49-1.33,2.52,2.52,0,0,1-.44-.64c-.42-.85-.37-1.86-.77-2.72a3.12,3.12,0,0,0-.78-1,5.41,5.41,0,0,0-2.55-1.46,29.93,29.93,0,0,1-3.28-.9,11.07,11.07,0,0,0-11.8-3.32l-.37.13a4.92,4.92,0,0,0-9.6-2.17A4.91,4.91,0,0,1,85,75.9l-.24.2a4.93,4.93,0,0,0-.21,7h0l.09.08a4.71,4.71,0,0,0,1.23,1.08,4.92,4.92,0,0,1-3.25-4v.3a4.93,4.93,0,0,0,5.2,4.63h0l.13,0-.07.1a11.06,11.06,0,0,0,1,13.71,4.91,4.91,0,0,0,.79,1.27,3.06,3.06,0,0,0,.36.36A4.66,4.66,0,0,0,93.26,102a8.3,8.3,0,0,0,.64.69,17.42,17.42,0,0,1-.78,2.48,25.5,25.5,0,0,1-2.39,4.61c-6.51,1.85-7.09,12.92-6.85,13.34S82.91,141,87.73,162c-.2,6,3.3,15.92,15.72,13.3,15.54.83,20.63,3.21,20.63,3.21s-1.47,27,.63,30.95c1.32,2.47.39,6.08-.6,8.64a9.11,9.11,0,0,0-.87,2c-.3.64-.52,1-.52,1h.21c-.8,2.77-1.36,6.11-1.36,6.11s18.83,3.82,27.11,1.32c3.22-1,3.35-1.87,2.31-2.61a15.84,15.84,0,0,0,2.27-.5C161.55,222.92,149.37,220.87,149.37,220.87Z" transform="translate(-31.99 -21.36)"/><path class="cls-17" d="M108.4,92.62A10.86,10.86,0,1,1,97.54,81.76,10.86,10.86,0,0,1,108.4,92.62Z" transform="translate(-31.99 -21.36)"/><path class="cls-8" d="M132.86,143.63l1.1,5.5s1.22-.22,3-.61c6.2-1.31,19.28-4.55,14.21-7.57-4.35-2.6-11-.55-15,1.1-1.46.61-2.56,1.17-3.05,1.43Z" transform="translate(-31.99 -21.36)"/><path class="cls-5" d="M133.17,145.18l.79,3.95s1.22-.22,3-.61l-.8-6.47c-1.46.61-2.56,1.17-3.05,1.43Z" transform="translate(-31.99 -21.36)"/><polygon class="cls-9" points="100.98 128.11 104.77 127.36 103.91 120.44 100.88 121.05 100.98 128.11"/><polygon class="cls-5" points="100.98 128.11 102.61 127.78 102.32 120.77 100.88 121.05 100.98 128.11"/><path class="cls-10" d="M98.11,119.46s7.37-3.83,10,8.22,2.72,17.55,2.72,17.55l22.9-3.53.35,8.32s-24.61,6.76-27.64,6.06-12.2-17.75-12.2-17.75S85.86,125.07,98.11,119.46Z" transform="translate(-31.99 -21.36)"/><g class="cls-11"><path d="M132.86,143.63l1.1,5.5s1.22-.22,3-.61c6.2-1.31,19.28-4.55,14.21-7.57-4.35-2.6-11-.55-15,1.1-1.46.61-2.56,1.17-3.05,1.43Z" transform="translate(-31.99 -21.36)"/><path class="cls-5" d="M133.17,145.18l.79,3.95s1.22-.22,3-.61l-.8-6.47c-1.46.61-2.56,1.17-3.05,1.43Z" transform="translate(-31.99 -21.36)"/><polygon points="100.98 128.11 104.77 127.36 103.91 120.44 100.88 121.05 100.98 128.11"/><polygon class="cls-5" points="100.98 128.11 102.61 127.78 102.32 120.77 100.88 121.05 100.98 128.11"/><path d="M98.72,120.07s7.36-3.84,10,8.22,2.71,17.55,2.71,17.55l22.9-3.54.36,8.32s-24.62,6.77-27.64,6.06-12.21-17.75-12.21-17.75S86.46,125.67,98.72,120.07Z" transform="translate(-31.99 -21.36)"/></g><path class="cls-18" d="M139.77,213.78l9,5.74s11.94,2,3.82,4.45-26.59-1.3-26.59-1.3,1.41-8.31,2.9-9.41S139.77,213.78,139.77,213.78Z" transform="translate(-31.99 -21.36)"/><path class="cls-19" d="M106.29,152.31a64,64,0,0,0,12.6,5.06,126,126,0,0,0,14.84,3.21,10.82,10.82,0,0,1,8.86,8.14,7,7,0,0,1-.06,3.73C141,177.16,141.27,216,141.27,216l-14.12.68s2.23-7.06-.52-10.79,1.86-31,1.86-31-5-2.33-20.24-3.14c-14.28,3-19.41-12.72-17-16.95S106.29,152.31,106.29,152.31Z" transform="translate(-31.99 -21.36)"/><g class="cls-11"><path d="M139.77,213.78l9,5.74s11.94,2,3.82,4.45-26.59-1.3-26.59-1.3,1.41-8.31,2.9-9.41S139.77,213.78,139.77,213.78Z" transform="translate(-31.99 -21.36)"/><path d="M106.29,152.31a64,64,0,0,0,12.6,5.06,126,126,0,0,0,14.84,3.21,10.82,10.82,0,0,1,8.86,8.14,7,7,0,0,1-.06,3.73C141,177.16,141.27,216,141.27,216l-14.12.68s2.23-7.06-.52-10.79,1.86-31,1.86-31-5-2.33-20.24-3.14c-14.28,3-19.41-12.72-17-16.95S106.29,152.31,106.29,152.31Z" transform="translate(-31.99 -21.36)"/></g><path class="cls-18" d="M135.27,216.83l9,5.73s11.94,2,3.82,4.46-26.59-1.3-26.59-1.3,1.41-8.31,2.9-9.41S135.27,216.83,135.27,216.83Z" transform="translate(-31.99 -21.36)"/><path class="cls-19" d="M103.76,174.83C119,175.64,124,178,124,178s-1.44,26.49.6,30.34c2.19,4.09-1.95,11.43-1.95,11.43l14.13-.68V217.8c0-6.75-.15-38.1,1.26-42.3a6.85,6.85,0,0,0,.05-3.73,10.79,10.79,0,0,0-8.85-8.14,125.69,125.69,0,0,1-14.85-3.21l-.23-.07a63.87,63.87,0,0,1-12.37-5s-9.4-.65-11.76,3.58c-.3.55-1.6,1.63-1.65,2.5C88,167.28,91.34,177.45,103.76,174.83Z" transform="translate(-31.99 -21.36)"/><path class="cls-8" d="M126.14,150.11l.26,5.6s1.25,0,3.1-.15c6.32-.38,19.74-1.62,15.18-5.37-3.92-3.22-10.83-2.19-15-1.14-1.54.38-2.72.77-3.23.95Z" transform="translate(-31.99 -21.36)"/><path class="cls-8" d="M90.3,112s1.81,1.56,4,3.28c2.51.69,5.43,1.29,7.52,1.69a12,12,0,0,1,.89-7.47,27.77,27.77,0,0,1,4.09-6.79L94.27,98.17c.89,2.58.3,5.46-.66,7.92A25.87,25.87,0,0,1,90.3,112Z" transform="translate(-31.99 -21.36)"/><path class="cls-5" d="M126.21,151.69l.19,4s1.25,0,3.1-.15l.17-6.52c-1.54.39-2.72.78-3.23,1Z" transform="translate(-31.99 -21.36)"/><polygon class="cls-9" points="93.39 134.54 97.24 134.36 97.42 127.39 94.34 127.54 93.39 134.54"/><path class="cls-10" d="M88.65,163.07c8.14,8.47,23.33-1.59,27.41-4.57.67-.49,1-.79,1-.79-1.51-1.53-3.92-3-4.85-6.8A84,84,0,0,1,110.46,139c-.25-3.18,3-9.24,2.09-12.26s-4.86-4-6.51-6.75c-.43-.72-.86-1.39-1.28-2a28.19,28.19,0,0,0-8.32-7.07c-11.27-3.84-12.15,12.25-11.87,12.75S83.56,141.92,88.65,163.07Z" transform="translate(-31.99 -21.36)"/><path class="cls-5" d="M88.57,139.9s6.54,18.23,9.42,19.37c1.66.66,10.67-.05,18.07-.77.67-.49,1-.79,1-.79-1.51-1.53-2.74-4.7-3.66-8.54l-9.5,0s.77-5.43-.08-17.76-8.7-9.62-8.7-9.62C82.21,125.53,88.57,139.9,88.57,139.9Z" transform="translate(-31.99 -21.36)"/><polygon class="cls-5" points="93.39 134.54 95.05 134.46 95.8 127.47 94.34 127.54 93.39 134.54"/><path class="cls-10" d="M95.38,121s7.84-2.69,8.7,9.63.09,17.76.09,17.76l23.18-.09-.89,8.29s-25.34,3-28.24,1.87-9.43-19.37-9.43-19.37S82.43,124.75,95.38,121Z" transform="translate(-31.99 -21.36)"/><path class="cls-5" d="M95.67,102.87c.42-1.81-1.51-1.86-2.11-3.62l12.58,4.53a28.6,28.6,0,0,0-2.53,3.65,10,10,0,0,1-2,.3C98.51,107.88,97.69,104.86,95.67,102.87Z" transform="translate(-31.99 -21.36)"/><circle class="cls-8" cx="69.79" cy="74.79" r="10.54"/><path class="cls-5" d="M96.33,128.86s3.34,15.8,7.28,17.41,2.15,2,2.15,2" transform="translate(-31.99 -21.36)"/><path class="cls-5" d="M110.08,137.78s-2.79.87-6-3.29" transform="translate(-31.99 -21.36)"/><circle class="cls-17" cx="57.1" cy="60.1" r="4.83"/><path class="cls-17" d="M85.7,84a4.84,4.84,0,0,1,0-6.61l-.23.2a4.83,4.83,0,1,0,6.62,7h0l.2-.21A4.83,4.83,0,0,1,85.7,84Z" transform="translate(-31.99 -21.36)"/><path class="cls-17" d="M88.46,85.83a4.83,4.83,0,0,1-5.08-4.22v.3A4.82,4.82,0,1,0,93,81.3c0-.1,0-.19,0-.3A4.82,4.82,0,0,1,88.46,85.83Z" transform="translate(-31.99 -21.36)"/><path class="cls-5" d="M105.67,85.65a21,21,0,0,0,3.62,1.06,4.53,4.53,0,0,1,3,2.13c.38.84.34,1.83.75,2.66.58,1.21,1.93,1.76,3.18,2.24-1.07,1.43-3.36,1-4.86.07s-2.78-2.42-4.53-2.79a4.25,4.25,0,0,0-4.46,2,10.45,10.45,0,0,0-.88,2.74A10.31,10.31,0,0,1,97.54,102c-2.12,1.39-5.26,1.38-6.92-.52a8.53,8.53,0,0,1-1.57-4.06,8,8,0,0,1-.23-2.06c.09-1.73,1.24-3.21,2.41-4.49,1.37-1.51,2.83-3,4.29-4.39,1.26-1.25,2.72-3.35,4.62-3.5C102.33,82.82,103.87,84.78,105.67,85.65Z" transform="translate(-31.99 -21.36)"/><path class="cls-17" d="M105.37,85.35A21,21,0,0,0,109,86.41a4.49,4.49,0,0,1,3,2.13c.39.84.35,1.83.75,2.66.59,1.21,1.94,1.76,3.18,2.24-1.06,1.43-3.36,1-4.85.07s-2.79-2.42-4.53-2.8a4.25,4.25,0,0,0-4.46,2,10.45,10.45,0,0,0-.88,2.74,10.27,10.27,0,0,1-3.93,6.28c-2.11,1.39-5.25,1.38-6.91-.52a8.52,8.52,0,0,1-1.57-4.07,8.33,8.33,0,0,1-.24-2c.1-1.73,1.25-3.21,2.42-4.49,1.37-1.51,2.83-3,4.29-4.4,1.26-1.24,2.71-3.34,4.61-3.49C102,82.52,103.57,84.47,105.37,85.35Z" transform="translate(-31.99 -21.36)"/><rect class="cls-2" x="42.71" y="130.98" width="34.39" height="5.31" rx="2.56"/><path class="cls-5" d="M74.7,155.05v.42a2.19,2.19,0,0,0,2.19,2.19h30a2.19,2.19,0,0,0,2.18-2.19v-.42Z" transform="translate(-31.99 -21.36)"/><rect class="cls-2" x="103.28" y="136.53" width="5.91" height="75.36"/><rect class="cls-5" x="103.28" y="136.53" width="5.91" height="4.89"/><rect class="cls-2" x="100.45" y="131.12" width="156.37" height="9.77"/></svg>