<svg id="Layer_1" data-name="Layer 1" xmlns="http://www.w3.org/2000/svg" xmlns:xlink="http://www.w3.org/1999/xlink" viewBox="0 0 319 233.87"><defs><style>.cls-1,.cls-5{fill:#6c63ff;}.cls-1,.cls-10,.cls-2{opacity:0.1;}.cls-1,.cls-16,.cls-19,.cls-2,.cls-9{isolation:isolate;}.cls-3{fill:#f5f5fb;}.cls-4{fill:#f7f7fd;}.cls-6{fill:none;stroke:#565987;stroke-miterlimit:10;}.cls-7{fill:#ffd037;}.cls-8{fill:#a8a8a8;}.cls-9{opacity:0.2;}.cls-11{fill:url(#linear-gradient);}.cls-12{fill:#db8b8b;}.cls-13{fill:#c17174;}.cls-14{fill:#474463;}.cls-15{fill:#ff748e;}.cls-16{opacity:0.05;}.cls-17{fill:#464353;}.cls-18{fill:#fc6681;}.cls-19{fill:#3acc6c;opacity:0.7;}</style><linearGradient id="linear-gradient" x1="2427.58" y1="27.09" x2="2427.58" y2="112.49" gradientTransform="translate(2695.76 238.91) rotate(180)" gradientUnits="userSpaceOnUse"><stop offset="0" stop-color="gray" stop-opacity="0.25"/><stop offset="0.54" stop-color="gray" stop-opacity="0.12"/><stop offset="1" stop-color="gray" stop-opacity="0.1"/></linearGradient></defs><title>what-10</title><path class="cls-1" d="M150.05,186.36c10.55-4.15,27.11-5,42.19-4.67,47.35,1,90.09,11.13,127.06,22.54,13.39,4.13,26.57,8.58,35.25,14.27,17.69,11.57,12.44,27.61-12.15,37.15-8.37,3.25-18.51,5.74-28.92,7.94a361.77,361.77,0,0,1-59.51,8,442.19,442.19,0,0,1-45.05-.77c-41.63-2.5-82.48-8-116.73-17.43-15-4.13-29.17-9.27-35.36-16s-2.23-15.15,13.11-19.11c6.35-1.64,13.93-2.38,21.35-3.07,10.93-1,22-2,31.9-4.11,10.18-2.14,22.25-6.29,20.23-11C141.25,195,139.51,190.5,150.05,186.36Z" transform="translate(-46 -37.97)"/><path class="cls-2" d="M198.13,47.08,197,113.87s41.68,0,77.14,11.52l.7-67.5S217.94,44.32,198.13,47.08Z" transform="translate(-46 -37.97)"/><path class="cls-3" d="M197.53,46.17,196.38,113s41.68,0,77.14,11.52L274.21,57S217.33,43.41,197.53,46.17Z" transform="translate(-46 -37.97)"/><path class="cls-2" d="M180.38,47l1.15,66.79s-41.68,0-77.14,11.51l-.7-67.47S160.57,44.27,180.38,47Z" transform="translate(-46 -37.97)"/><path class="cls-3" d="M181,46.12l1.16,66.79s-41.69,0-77.15,11.52L104.3,57S161.18,43.36,181,46.12Z" transform="translate(-46 -37.97)"/><path class="cls-2" d="M284.88,67.42v66.09s13.6-1.61,42.14,33.62L329.56,101S299.85,69,284.88,67.42Z" transform="translate(-46 -37.97)"/><path class="cls-3" d="M284.27,66.81V132.9s13.6-1.61,42.14,33.63l2.54-66.1S299.24,68.43,284.27,66.81Z" transform="translate(-46 -37.97)"/><path class="cls-2" d="M94.37,69.38v66.09s-13.6-1.61-42.14,33.63L49.7,103S79.4,71,94.37,69.38Z" transform="translate(-46 -37.97)"/><path class="cls-3" d="M95,68.47v66.1S81.38,133,52.84,168.19L50.3,102.1S80,70.09,95,68.47Z" transform="translate(-46 -37.97)"/><path class="cls-4" d="M247.9,179.92c0,2.25-14.3,15.26-46.84,15.26s-50.17-12.55-50.17-14.81,18.23,3.33,50.77,3.33S247.9,177.67,247.9,179.92Z" transform="translate(-46 -37.97)"/><ellipse class="cls-1" cx="95.53" cy="110.46" rx="3.46" ry="0.47"/><ellipse class="cls-1" cx="82.27" cy="111.81" rx="3.46" ry="0.47"/><ellipse class="cls-1" cx="66.65" cy="109.99" rx="3.46" ry="0.47"/><ellipse class="cls-1" cx="87.58" cy="115.64" rx="2.46" ry="0.34"/><ellipse class="cls-1" cx="73.81" cy="115.3" rx="2.46" ry="0.34"/><path class="cls-5" d="M128.2,149.67s4.85-15.91-.76-22.29c-4.2-4.77-9-4.21-11.1-3.6a3.94,3.94,0,0,0-2.54,2.11c-.75,1.61-.61,4.23,4.66,7.28,8.82,5.11,9.37,12.12,9.37,12.12Z" transform="translate(-46 -37.97)"/><path class="cls-6" d="M117.09,126s14.32,4.48,11.11,23.64" transform="translate(-46 -37.97)"/><path class="cls-6" d="M125.45,127.64s-2,1.32-1.34,3.32" transform="translate(-46 -37.97)"/><path class="cls-6" d="M118.53,128.82a2.48,2.48,0,0,1,2.67-.55" transform="translate(-46 -37.97)"/><path class="cls-6" d="M124.2,135s2.12-1.07,2.67.27" transform="translate(-46 -37.97)"/><path class="cls-6" d="M129.42,137.22s-1.59-.13-1.62.63" transform="translate(-46 -37.97)"/><path class="cls-5" d="M128.39,149.8s-5.68-11.57-7.25-11.31c-.74.12-1.08.85-1.24,1.58a4.71,4.71,0,0,0,.3,2.82A12.53,12.53,0,0,0,128.39,149.8Z" transform="translate(-46 -37.97)"/><path class="cls-6" d="M121.18,140.68s6,8.66,7.12,9" transform="translate(-46 -37.97)"/><line class="cls-6" x1="74.64" y1="104.06" x2="76.03" y2="104.06"/><line class="cls-6" x1="76.31" y1="107.22" x2="78.49" y2="107.32"/><line class="cls-6" x1="77.64" y1="104.69" x2="77.4" y2="105.83"/><line class="cls-6" x1="79.96" y1="108.15" x2="79.92" y2="109.19"/><path class="cls-5" d="M128.23,149.8s5.68-11.57,7.25-11.31c.74.12,1.08.85,1.24,1.58a4.78,4.78,0,0,1-.3,2.82A12.53,12.53,0,0,1,128.23,149.8Z" transform="translate(-46 -37.97)"/><path class="cls-6" d="M135.43,140.68s-6,8.66-7.12,9" transform="translate(-46 -37.97)"/><line class="cls-6" x1="89.98" y1="104.06" x2="88.59" y2="104.06"/><line class="cls-6" x1="88.31" y1="107.22" x2="86.13" y2="107.32"/><line class="cls-6" x1="86.98" y1="104.69" x2="87.22" y2="105.83"/><line class="cls-6" x1="84.66" y1="108.15" x2="84.7" y2="109.19"/><path class="cls-5" d="M118.46,152.5a.92.92,0,0,1-.32-.49.42.42,0,0,1,.22-.49.65.65,0,0,1,.61.21.79.79,0,0,0,.58.28.9.9,0,0,1-.28-.83.53.53,0,0,1,.08-.17.36.36,0,0,1,.46,0,1.73,1.73,0,0,1,.57,1.44,3.11,3.11,0,0,0,0-.61.59.59,0,0,1,.22-.52.57.57,0,0,1,.34-.08.72.72,0,0,1,.55.15.56.56,0,0,1,0,.68,2.1,2.1,0,0,1-.57.46,1.27,1.27,0,0,0-.41.39l0,.07h-1.24A3.53,3.53,0,0,1,118.46,152.5Z" transform="translate(-46 -37.97)"/><path class="cls-5" d="M140.13,147.84a.88.88,0,0,1-.32-.48.43.43,0,0,1,.22-.5.62.62,0,0,1,.61.21.79.79,0,0,0,.58.28.9.9,0,0,1-.28-.83.38.38,0,0,1,.08-.17.36.36,0,0,1,.46,0,1.73,1.73,0,0,1,.57,1.44,3,3,0,0,0,0-.6.6.6,0,0,1,.22-.53.77.77,0,0,1,.34-.08.68.68,0,0,1,.55.16.56.56,0,0,1,0,.68,2.27,2.27,0,0,1-.57.45,1.27,1.27,0,0,0-.41.39l0,.07h-1.24A3.53,3.53,0,0,1,140.13,147.84Z" transform="translate(-46 -37.97)"/><path class="cls-5" d="M132.91,152.5a.94.94,0,0,1-.33-.49.44.44,0,0,1,.23-.49.63.63,0,0,1,.6.21.82.82,0,0,0,.58.28.89.89,0,0,1-.27-.83.38.38,0,0,1,.08-.17c.11-.12.32-.07.46,0a1.73,1.73,0,0,1,.57,1.44,3.11,3.11,0,0,0,0-.61.59.59,0,0,1,.22-.52.91.91,0,0,1,.89.07.56.56,0,0,1,0,.68,2.1,2.1,0,0,1-.57.46,1.38,1.38,0,0,0-.41.39l0,.07h-1.24A3.53,3.53,0,0,1,132.91,152.5Z" transform="translate(-46 -37.97)"/><path class="cls-5" d="M112.42,143.09s-.47.6.21,1.51,1.24,1.69,1,2.26c0,0-1-1.7-1.85-1.73S111.51,144.11,112.42,143.09Z" transform="translate(-46 -37.97)"/><path class="cls-2" d="M112.42,143.09a.57.57,0,0,0-.1.19c-.81.95-1.24,1.84-.46,1.86s1.6,1.32,1.81,1.65c0,0,0,.05,0,.08s-1-1.7-1.86-1.73S111.51,144.11,112.42,143.09Z" transform="translate(-46 -37.97)"/><path class="cls-7" d="M111.56,143.86c0,.21,0,.38.06.38s0-.17,0-.38,0-.12-.06-.12S111.56,143.65,111.56,143.86Z" transform="translate(-46 -37.97)"/><path class="cls-7" d="M111.27,144.11c.18.11.35.17.36.14s-.12-.13-.3-.23-.11,0-.13,0S111.08,144,111.27,144.11Z" transform="translate(-46 -37.97)"/><path class="cls-5" d="M114.88,143.09s.46.6-.22,1.51-1.23,1.69-1,2.26c0,0,1-1.7,1.86-1.73S115.79,144.11,114.88,143.09Z" transform="translate(-46 -37.97)"/><path class="cls-2" d="M114.88,143.09a.56.56,0,0,1,.09.19c.81.95,1.24,1.84.47,1.86s-1.6,1.32-1.82,1.65l0,.08s1-1.7,1.85-1.73S115.79,144.11,114.88,143.09Z" transform="translate(-46 -37.97)"/><path class="cls-7" d="M115.74,143.86c0,.21,0,.38,0,.38s-.06-.17-.06-.38,0-.12.06-.12S115.74,143.65,115.74,143.86Z" transform="translate(-46 -37.97)"/><path class="cls-7" d="M116,144.11c-.18.11-.35.17-.36.14s.12-.13.3-.23.12,0,.13,0S116.22,144,116,144.11Z" transform="translate(-46 -37.97)"/><path class="cls-8" d="M115.59,146.79a4.73,4.73,0,0,1-1.69-.32c-.39-.28-2-.6-2.09-.17s-2,2.23-.49,2.24a12.38,12.38,0,0,0,3.8-.47C115.51,147.84,115.59,146.79,115.59,146.79Z" transform="translate(-46 -37.97)"/><path class="cls-9" d="M111.3,148.38a13.11,13.11,0,0,0,3.79-.46c.31-.19.42-.84.46-1.13h0s-.08,1-.47,1.28a12.38,12.38,0,0,1-3.8.47c-.42,0-.56-.16-.55-.38C110.82,148.3,111,148.38,111.3,148.38Z" transform="translate(-46 -37.97)"/><ellipse class="cls-1" cx="58.98" cy="150.02" rx="10.49" ry="1.55"/><ellipse class="cls-1" cx="88.29" cy="162.86" rx="10.49" ry="1.55"/><ellipse class="cls-1" cx="45.18" cy="177.46" rx="10.49" ry="1.55"/><ellipse class="cls-1" cx="267.51" cy="209.55" rx="10.49" ry="1.55"/><ellipse class="cls-1" cx="148.42" cy="173.87" rx="6.95" ry="0.78"/><ellipse class="cls-1" cx="247.85" cy="133.98" rx="6.95" ry="0.78"/><ellipse class="cls-1" cx="193.75" cy="192.91" rx="6.95" ry="0.78"/><ellipse class="cls-1" cx="133.77" cy="187.79" rx="6.95" ry="0.78"/><ellipse class="cls-1" cx="77.57" cy="185.77" rx="6.95" ry="0.78"/><ellipse class="cls-1" cx="62.93" cy="199.69" rx="6.95" ry="0.78"/><g class="cls-10"><ellipse cx="153.77" cy="72.38" rx="45.97" ry="20.52"/><path d="M246.54,117.69c-2,10.7-22.13,19.1-46.63,19.1-24.71,0-44.95-8.55-46.68-19.38h-.17v17.44c8.08,8.44,26,14.31,46.74,14.31s38.66-5.87,46.74-14.31Z" transform="translate(-46 -37.97)"/><path d="M246.54,138.91c-2,10.69-22.13,19.09-46.63,19.09-24.71,0-44.95-8.54-46.68-19.37h-.17v17.43c8.08,8.45,26,14.32,46.74,14.32s38.66-5.87,46.74-14.32Z" transform="translate(-46 -37.97)"/><path d="M246.54,162.24c-2,10.7-22.13,19.1-46.63,19.1-24.71,0-44.95-8.55-46.68-19.38h-.17v18.81a2.84,2.84,0,0,0,.93,2.13c8.46,7.77,25.8,10.81,45.81,10.81s37.34-3,45.81-10.81a2.88,2.88,0,0,0,.93-2.13Z" transform="translate(-46 -37.97)"/></g><ellipse class="cls-5" cx="153.77" cy="71.17" rx="45.97" ry="20.52"/><path class="cls-5" d="M246.54,116.48c-2,10.7-22.13,19.1-46.63,19.1-24.71,0-44.95-8.55-46.68-19.38h-.17v17.44c8.08,8.44,26,14.31,46.74,14.31s38.66-5.87,46.74-14.31Z" transform="translate(-46 -37.97)"/><path class="cls-5" d="M246.54,137.7c-2,10.69-22.13,19.09-46.63,19.09-24.71,0-44.95-8.54-46.68-19.37h-.17v17.43c8.08,8.45,26,14.32,46.74,14.32s38.66-5.87,46.74-14.32Z" transform="translate(-46 -37.97)"/><path class="cls-5" d="M246.54,161c-2,10.7-22.13,19.1-46.63,19.1-24.71,0-44.95-8.54-46.68-19.38h-.17v18.81a2.84,2.84,0,0,0,.93,2.13c8.46,7.77,25.8,10.82,45.81,10.82s37.34-3,45.81-10.82a2.88,2.88,0,0,0,.93-2.13Z" transform="translate(-46 -37.97)"/><ellipse class="cls-1" cx="221.54" cy="172.64" rx="17.23" ry="3.1"/><path class="cls-11" d="M257.87,171.11a3.55,3.55,0,0,0,3.95-.26v2.45c.12,1.68,2.2,7.81,2.2,7.81l1.46,5a39.13,39.13,0,0,1,1.61,11,10.55,10.55,0,0,0,.47,3.45c.78,2.12-.3,4.84-.78,5.84a22.72,22.72,0,0,1-2.41.68l-.22.07v0a10,10,0,0,1-3.18.76.85.85,0,0,0-.6,1.48,4.52,4.52,0,0,1-1.46.2c-1-.12-1.47,1.56.36,2s12.23,0,12.23,0a1.48,1.48,0,0,0,.78-1.63l1.3,0s1.83-.84,0-3.12l-.1.07-.39-1.16v-1.55s2.32-11.18,1.59-12.49-1.13-8.06-1.13-8.06l.26-7.32a17.29,17.29,0,0,0,1.17-5.19,10.81,10.81,0,0,0,.47-2.46c0-.39.06-.8.07-1.23a8.17,8.17,0,0,0-.45-2.77,28.09,28.09,0,0,1,2.78-3.48,3.57,3.57,0,0,0,1.1-3.12l-.61-4.08L276.87,147a5.3,5.3,0,0,0-.67-3.67c.11-.63.21-1.25.28-1.88a23.81,23.81,0,0,0-.43-8.16,5.57,5.57,0,0,0-1.15-2.6c-.74-.8-1.95-1.29-2.23-2.34a5.57,5.57,0,0,0-.17-.79c-.26-.68-1.11-.93-1.85-1a10.09,10.09,0,0,0-4.51.24,5.45,5.45,0,0,0-2.61,2.43,2.06,2.06,0,0,0-.31,1.49,2.36,2.36,0,0,0,.21.52,4.65,4.65,0,0,0,2.7,6c0,.09.06.19.08.27a3.82,3.82,0,0,1,.12.66c0,.42-.05.85-.07,1.27l0,.18a29.49,29.49,0,0,0-3.07,1.56c.73,1.08-.13,5.65-.13,5.65-1.83,1.08-3.66,3.84-1.71,6.72a7.18,7.18,0,0,1,.86,6l-.31,4.7h0l-.06.94h0l0,.36h.05v.38A5.75,5.75,0,0,0,259,168a7.16,7.16,0,0,1-1.28,1.57,1,1,0,0,0-.1,1.33A1.09,1.09,0,0,0,257.87,171.11Zm14.76-12.48a4.57,4.57,0,0,1,.43-2.36h.87a5.67,5.67,0,0,0,.1.57C274.28,157.91,273.29,158.41,272.63,158.63Z" transform="translate(-46 -37.97)"/><path class="cls-12" d="M272.87,205.17l.47,1.42-1.53,1.52-5.06,1.2-3.64-.36.23-1.29h0a1.55,1.55,0,0,1,1.16-1.14c1.51-.35,4.36-1.16,5-2.27Z" transform="translate(-46 -37.97)"/><path class="cls-2" d="M272.87,205.17l.47,1.42-1.53,1.52-5.06,1.2-3.64-.36.23-1.29h0a1.55,1.55,0,0,1,1.16-1.14c1.51-.35,4.36-1.16,5-2.27Z" transform="translate(-46 -37.97)"/><path class="cls-13" d="M264.28,208.59l.71-.94-.71-1.09a9.41,9.41,0,0,1-3.06.73c-.94-.12-1.41,1.53.36,2s11.76,0,11.76,0,1.77-.82,0-3.06l-1.53,1.18s-2.59,1.41-3.88,1.18Z" transform="translate(-46 -37.97)"/><path class="cls-12" d="M261.11,210.59l3.65.35,5.06-1.18,1.52-1.53-.12-.37-.17-.52-.18-.52-3.42-.94a2.07,2.07,0,0,1-.69.69,14.52,14.52,0,0,1-4.26,1.58l-.15,0a1.42,1.42,0,0,0-.6.36,1.54,1.54,0,0,0-.42.73Z" transform="translate(-46 -37.97)"/><path class="cls-2" d="M261.11,210.59l3.65.35,5.06-1.18,1.52-1.53-.12-.37-1.4,1.08s-2.59,1.41-3.89,1.18h-3.65l.71-.94-.64-1a1.48,1.48,0,0,0-.6.36,1.54,1.54,0,0,0-.42.73Z" transform="translate(-46 -37.97)"/><path class="cls-13" d="M262.28,210.23l.71-.94-.71-1.09a9.35,9.35,0,0,1-3.06.74c-.94-.12-1.41,1.53.36,2s11.76,0,11.76,0,1.77-.82,0-3.06l-1.53,1.18s-2.59,1.41-3.88,1.17Z" transform="translate(-46 -37.97)"/><path class="cls-12" d="M265.22,142s5.65.61,4.84-1.76a4.1,4.1,0,0,1-.18-2.08,5.81,5.81,0,0,1,1-2.39l-5.3.82a6.54,6.54,0,0,1,.72,1.7A3.47,3.47,0,0,1,265.22,142Z" transform="translate(-46 -37.97)"/><path class="cls-14" d="M274.87,168.81s-.12,5.06-1.29,7.53l-.24,7.18s.35,6.59,1.06,7.88-1.53,12.24-1.53,12.24v1.88s-3.77,1.41-4.83-.24l1-14-.47-19.41Z" transform="translate(-46 -37.97)"/><path class="cls-2" d="M274.87,168.81s-.12,5.06-1.29,7.53l-.24,7.18s.35,6.59,1.06,7.88-1.53,12.24-1.53,12.24v1.88s-3.77,1.41-4.83-.24l1-14-.47-19.41Z" transform="translate(-46 -37.97)"/><path class="cls-15" d="M277.22,152.58l.71,1.88.6,4a3.54,3.54,0,0,1-1.06,3.06,34.14,34.14,0,0,0-3.29,4.36L272,159.17s2.23-.35,1.88-1.88a21.42,21.42,0,0,1-.24-4.35Z" transform="translate(-46 -37.97)"/><path class="cls-16" d="M277.25,152.55l.7,1.89.61,4a3.54,3.54,0,0,1-1.06,3.06,33.57,33.57,0,0,0-3.29,4.35L272,159.14s2.24-.36,1.89-1.89a21.42,21.42,0,0,1-.24-4.35Z" transform="translate(-46 -37.97)"/><path class="cls-2" d="M266.77,206.59c1.51,2.37,3.86,1,4.27.76l-.17-.52-3.42-1A2.1,2.1,0,0,1,266.77,206.59Z" transform="translate(-46 -37.97)"/><path class="cls-14" d="M262.05,173.41c.11,1.64,2.11,7.64,2.11,7.64l1.41,4.94a39.44,39.44,0,0,1,1.55,10.74,10.79,10.79,0,0,0,.45,3.39c.95,2.59-.94,6.11-.94,6.11,1.65,3,4.47.94,4.47.94v-1.88s2.24-10.23,1.65-12.23a48.7,48.7,0,0,1-.82-7.42v-9.76a11.12,11.12,0,0,0,3.23-7c0-.38,0-.79.06-1.21.1-2.65-1.72-5.76-2.42-6.87l-.27-.42-10.39,4.12h0v1.3Z" transform="translate(-46 -37.97)"/><path class="cls-2" d="M265.58,136.58a6.51,6.51,0,0,1,.71,1.7,4.63,4.63,0,0,0,3.58-.13,5.81,5.81,0,0,1,1-2.39Z" transform="translate(-46 -37.97)"/><circle class="cls-12" cx="221.93" cy="95.78" r="4.59"/><path class="cls-2" d="M262.05,165.76h.05c4.93,1,11.12-4.13,11.12-4.13a5.8,5.8,0,0,1-.42-.87c-.17-.27-.28-.42-.28-.42l-10.39,4.12,0,.41Z" transform="translate(-46 -37.97)"/><path class="cls-15" d="M263.34,141.87s6.59-4,8.71-2.35l2.94,3.77s1.88.58,1.53,4.36l1.41,6.83-4.23,1.05a4.64,4.64,0,0,0-.47,5.77s-6.23,5.18-11.18,4.12l.35-5.53a7.16,7.16,0,0,0-.82-5.88,4.59,4.59,0,0,1,1.65-6.59S264.05,142.93,263.34,141.87Z" transform="translate(-46 -37.97)"/><path class="cls-12" d="M263,165.88a6.09,6.09,0,0,0-3.65,2.35,7.31,7.31,0,0,1-1.23,1.54.92.92,0,0,0-.06,1.31.91.91,0,0,0,.21.18c.93.56,2.45.9,4.37-.68C265.94,167.88,263,165.88,263,165.88Z" transform="translate(-46 -37.97)"/><path class="cls-2" d="M266.64,144.11s2.35-.24,2.94,5.88,1.53,7.53,1.53,7.53.58,3.18-.83,5.06-4.12,5.89-4.12,5.89-2.94.82-3.53-2.12l3.65-6.82a4.9,4.9,0,0,0-.82-4C264.05,153.88,263,142.93,266.64,144.11Z" transform="translate(-46 -37.97)"/><path class="cls-15" d="M266.4,143.76s2.35-.24,2.94,5.88,1.53,7.53,1.53,7.53.6,3.18-.82,5.06-4.11,5.88-4.11,5.88-2.94.82-3.53-2.11l3.65-6.83a4.9,4.9,0,0,0-.82-4C263.82,153.52,262.75,142.58,266.4,143.76Z" transform="translate(-46 -37.97)"/><path class="cls-2" d="M264.46,148.17s-.24,3.65.82,5.65,1.06,4.59,0,6" transform="translate(-46 -37.97)"/><path class="cls-2" d="M263.87,143.7s.94-.94,3.65-1.06a7.8,7.8,0,0,0,3.88-.94" transform="translate(-46 -37.97)"/><path class="cls-2" d="M270.41,127.83c.72.08,1.54.33,1.79,1a7.25,7.25,0,0,1,.17.78c.26,1,1.42,1.51,2.14,2.29a5.6,5.6,0,0,1,1.11,2.55,24.1,24.1,0,0,1,.41,8c-.23,1.95-.7,3.87-.83,5.83a9.26,9.26,0,0,0,1.18,5.67,14.56,14.56,0,0,1,1.4,2.11,4.08,4.08,0,0,1-2.48.66c-1,0-2,0-3,0a3.28,3.28,0,0,1-1.54-.32,2.41,2.41,0,0,1-.81-.87,6.23,6.23,0,0,1-.7-3.3c0-1.14.21-2.28.23-3.42A3,3,0,0,0,269,147a5.57,5.57,0,0,0-1-.9,6.25,6.25,0,0,1-1.74-4.6c0-1.68.24-3.36.1-5-.06-.66-.31-1.44-.95-1.57a4.25,4.25,0,0,1-.61-.08c-.51-.2-.46-.93-.6-1.46s-.68-1.07-.82-1.67c-.34-1.43,1.47-3.13,2.66-3.63A9.49,9.49,0,0,1,270.41,127.83Z" transform="translate(-46 -37.97)"/><path class="cls-17" d="M270.53,127.59a2,2,0,0,1,1.79,1,6.6,6.6,0,0,1,.17.77c.26,1,1.42,1.51,2.13,2.29a5.55,5.55,0,0,1,1.12,2.55,24.18,24.18,0,0,1,.41,8c-.23,1.95-.7,3.87-.83,5.84a9.22,9.22,0,0,0,1.18,5.66,13.34,13.34,0,0,1,1.39,2.12,4,4,0,0,1-2.47.65c-1,0-2,0-3,0a3.06,3.06,0,0,1-1.54-.32,2.26,2.26,0,0,1-.81-.87,6.14,6.14,0,0,1-.7-3.3c0-1.14.2-2.27.23-3.41a3,3,0,0,0-.4-1.79,5.35,5.35,0,0,0-1-.91,6.24,6.24,0,0,1-1.73-4.59c0-1.68.24-3.37.09-5,0-.66-.3-1.45-.94-1.57a4.07,4.07,0,0,1-.61-.08c-.51-.2-.46-.93-.6-1.47s-.68-1.06-.83-1.67c-.34-1.42,1.48-3.12,2.67-3.62A9.35,9.35,0,0,1,270.53,127.59Z" transform="translate(-46 -37.97)"/><path class="cls-8" d="M84.7,211.08s3.24-.1,4.21-.8,5-1.52,5.22-.41,4.87,5.54,1.21,5.57-8.49-.57-9.47-1.16S84.7,211.08,84.7,211.08Z" transform="translate(-46 -37.97)"/><path class="cls-9" d="M95.41,215.05c-3.66,0-8.5-.57-9.47-1.16-.74-.46-1-2.08-1.13-2.83H84.7s.2,2.62,1.17,3.21,5.82,1.19,9.47,1.16c1.06,0,1.42-.38,1.4-.94C96.59,214.84,96.19,215.05,95.41,215.05Z" transform="translate(-46 -37.97)"/><path class="cls-8" d="M290.47,168.57a8.14,8.14,0,0,0,2.9-.55c.67-.48,3.42-1,3.58-.28s3.34,3.81.83,3.83-5.83-.4-6.5-.8S290.47,168.57,290.47,168.57Z" transform="translate(-46 -37.97)"/><path class="cls-9" d="M297.83,171.3c-2.51,0-5.83-.39-6.5-.8-.51-.3-.71-1.42-.78-1.93h-.08s.15,1.79.81,2.2,4,.81,6.5.79c.73,0,1-.26,1-.64C298.64,171.15,298.37,171.3,297.83,171.3Z" transform="translate(-46 -37.97)"/><circle class="cls-1" cx="9.46" cy="6.54" r="6.54"/><circle class="cls-1" cx="290.52" cy="25.27" r="6.54"/><circle class="cls-1" cx="4.84" cy="32.09" r="4.84"/><circle class="cls-1" cx="53.8" cy="4.89" r="4.84"/><circle class="cls-1" cx="252.05" cy="5.49" r="4.84"/><path class="cls-18" d="M314.86,233.33s1.21,1.58-.56,4-3.23,4.41-2.64,5.9c0,0,2.67-4.44,4.84-4.5S317.25,236,314.86,233.33Z" transform="translate(-46 -37.97)"/><path class="cls-2" d="M314.86,233.33a1.8,1.8,0,0,1,.25.5c2.11,2.49,3.25,4.81,1.2,4.87-1.89.05-4.17,3.45-4.72,4.31a1.46,1.46,0,0,0,.07.19s2.67-4.44,4.84-4.5S317.25,236,314.86,233.33Z" transform="translate(-46 -37.97)"/><path class="cls-7" d="M317.11,235.35c0,.55-.06,1-.14,1s-.14-.46-.14-1,.08-.3.16-.3S317.11,234.79,317.11,235.35Z" transform="translate(-46 -37.97)"/><path class="cls-7" d="M317.88,236c-.49.27-.9.43-.95.36s.33-.34.82-.6.3-.07.33,0S318.37,235.75,317.88,236Z" transform="translate(-46 -37.97)"/><path class="cls-18" d="M308.47,233.33s-1.21,1.58.56,4,3.22,4.41,2.63,5.9c0,0-2.67-4.44-4.83-4.5S306.08,236,308.47,233.33Z" transform="translate(-46 -37.97)"/><path class="cls-2" d="M308.47,233.33a1.8,1.8,0,0,0-.25.5c-2.12,2.49-3.25,4.81-1.21,4.87s4.18,3.45,4.72,4.31l-.06.19s-2.68-4.44-4.84-4.5S306.08,236,308.47,233.33Z" transform="translate(-46 -37.97)"/><path class="cls-7" d="M306.21,235.35c0,.55.07,1,.15,1s.14-.46.14-1-.08-.3-.16-.3S306.21,234.79,306.21,235.35Z" transform="translate(-46 -37.97)"/><path class="cls-7" d="M305.44,236c.49.27.91.43,1,.36s-.33-.34-.82-.6-.31-.07-.34,0S305,235.75,305.44,236Z" transform="translate(-46 -37.97)"/><path class="cls-8" d="M306.6,243s3.39-.1,4.4-.83,5.21-1.59,5.47-.43,5.08,5.8,1.26,5.83-8.88-.61-9.9-1.21S306.6,243,306.6,243Z" transform="translate(-46 -37.97)"/><path class="cls-9" d="M317.8,247.15c-3.82,0-8.88-.6-9.9-1.21-.77-.47-1.08-2.16-1.19-2.95h-.11s.22,2.72,1.23,3.35,6.08,1.25,9.9,1.21c1.1,0,1.48-.4,1.46-1C319,246.93,318.62,247.15,317.8,247.15Z" transform="translate(-46 -37.97)"/><path class="cls-19" d="M141.64,76A6.35,6.35,0,1,0,148,82.39,6.35,6.35,0,0,0,141.64,76Zm0,1.23a5.14,5.14,0,1,1-5.14,5.14,5.14,5.14,0,0,1,5.14-5.14m3.59,3.34-.58-.58a.3.3,0,0,0-.42,0h0l-3.63,3.59-1.53-1.55a.3.3,0,0,0-.42,0h0l-.58.58a.3.3,0,0,0,0,.43h0l2.32,2.35a.31.31,0,0,0,.43,0h0L145.23,81a.31.31,0,0,0,0-.43Z" transform="translate(-46 -37.97)"/><path class="cls-19" d="M71.38,108.18A6.34,6.34,0,1,0,79,112.94a6.34,6.34,0,0,0-7.62-4.76Zm.28,1.21a5.13,5.13,0,1,1-3.84,6.17v0a5.13,5.13,0,0,1,3.85-6.14m4.25,2.44-.7-.44a.3.3,0,0,0-.42.08h0l-2.72,4.32-1.84-1.16a.29.29,0,0,0-.42.08h0l-.44.7a.29.29,0,0,0,.09.41h0l2.8,1.76a.3.3,0,0,0,.42-.08h0L76,112.25a.31.31,0,0,0-.09-.42h0Z" transform="translate(-46 -37.97)"/><path class="cls-19" d="M234.14,77a6.35,6.35,0,1,0,6.34,6.35h0A6.34,6.34,0,0,0,234.14,77Zm0,1.23A5.14,5.14,0,1,1,229,83.33a5.14,5.14,0,0,1,5.14-5.14m3.59,3.34-.58-.58a.3.3,0,0,0-.42,0h0l-3.63,3.59L231.56,83a.3.3,0,0,0-.43,0h0l-.57.58a.3.3,0,0,0,0,.43h0l2.32,2.34a.3.3,0,0,0,.43,0h0L237.73,82a.29.29,0,0,0,0-.42h0Z" transform="translate(-46 -37.97)"/><path class="cls-19" d="M307,108.31a6.34,6.34,0,1,0,5.84,6.82,6.35,6.35,0,0,0-5.84-6.82Zm-.09,1.22a5.14,5.14,0,1,1-5.51,4.74v0a5.12,5.12,0,0,1,5.5-4.72h0m3.32,3.61-.53-.63a.31.31,0,0,0-.43,0h0l-3.89,3.3-1.41-1.66a.3.3,0,0,0-.43,0h0l-.62.53a.29.29,0,0,0,0,.42h0l2.14,2.52a.31.31,0,0,0,.43,0h0l4.75-4a.3.3,0,0,0,.05-.42Z" transform="translate(-46 -37.97)"/></svg>