<svg id="Layer_1" data-name="Layer 1" xmlns="http://www.w3.org/2000/svg" viewBox="0 0 341 141.73"><defs><style>.cls-1{fill:#ffb9b9;}.cls-2{fill:#2f2e41;}.cls-3{opacity:0.1;isolation:isolate;}.cls-4{fill:#575a89;}.cls-5{fill:#2ab5e3;}.cls-6{fill:#3f3d56;}.cls-7{fill:#f2f2f2;}</style></defs><title>what-1</title><polygon class="cls-1" points="24.44 123.02 16.63 122.5 19.23 134.22 28.09 130.58 24.44 123.02"/><polygon class="cls-2" points="96.11 101.13 77.87 83.4 67.45 91.48 46.86 116.24 49.2 119.89 74.22 102.95 91.16 125.1 107.32 117.02 96.11 101.13"/><polygon class="cls-3" points="96.11 101.13 77.87 83.4 67.45 91.48 46.86 116.24 49.2 119.89 74.22 102.95 91.16 125.1 107.32 117.02 96.11 101.13"/><path class="cls-1" d="M117.68,199l-2.35,1.82-19-6.51-4.43-1.83L83,194.32s0-7.3,8.34-7l8.6,2.09,10.16.78Z" transform="translate(-20 -86.16)"/><polygon class="cls-2" points="114.62 132.14 108.89 135.79 102.11 135.79 70.57 124.06 24.44 132.4 23.14 122.5 65.36 103.99 102.37 116.24 114.62 132.14"/><path class="cls-1" d="M97.61,171.9l-3.91.79-.85-1a5.26,5.26,0,0,1-.71-5.78h0l10.94-14.34s3.13-7,8.08-4.17S107,155,107,155l-5.47,8.6L102,168Z" transform="translate(-20 -86.16)"/><circle class="cls-1" cx="102.37" cy="58.64" r="10.16"/><path class="cls-1" d="M117.81,152.23l4.69,11.2,11.21-4.69s-3.65-8.86-3.65-9.12S117.81,152.23,117.81,152.23Z" transform="translate(-20 -86.16)"/><path class="cls-4" d="M148.67,185.38a58.6,58.6,0,0,1-2.86,18.06l-.77,2.34-3.64,16.68-3.91,1-2.87-3.65-5.73-4.17-4.17-6.78-3.58-6L120,201.09l-3.9-19.54-14.86-8.34-5-.79,1-2.86,4.43-6,4.43-.52,1.3-1,1,.52,4.17-2.34,1.3.52,7.62.71,4.63-1,6.66-3.58,2.72.45,9.38,7.82A58.32,58.32,0,0,1,148.67,185.38Z" transform="translate(-20 -86.16)"/><path class="cls-2" d="M39,213.21s2.34-4,1.35-4.42-5.17-2.3-5.17-2.3l-6.14-2S20.2,191.28,20,202.73s6.46,14.21,6.46,14.21,5.92,12.76,9.28,10.72,6.72-8.94,6.72-8.94S36.4,215.47,39,213.21Z" transform="translate(-20 -86.16)"/><polygon class="cls-3" points="125.83 96.95 115.92 103.47 101.14 116.8 100.03 114.94 96.9 99.3 97.68 99.3 105.76 84.44 125.83 96.95"/><polygon class="cls-4" points="105.76 82.88 97.68 97.74 94.81 97.74 92.99 102.95 88.82 103.99 100.03 116.24 115.92 101.91 125.83 95.39 105.76 82.88"/><path class="cls-2" d="M114.46,137.24l-1.1.42a1.54,1.54,0,0,1-.41-2.13l0,0-2-.09a15.35,15.35,0,0,1,21.51-3.06,15,15,0,0,1,1.43,1.21c.09-.32,1.1.3,1.51.93.14-.52,1.09,2,1.42,3.77.16-.6.75.36.23,1.27.33,0,.48.8.23,1.27.36-.17.3.84-.1,1.52.52,0-4.07,7.08-5.93,11.25-.54-2.48-1.15-5.1-2.89-6.94-.29-.32-.62-.6-.94-.89l-1.75-1.54c-2-1.8-3.88-4-6.6-4.69-1.86-.46-3-.56-2-2.66-.92.38-1.77,1-2.7,1.31C114.35,137.86,114.48,137.53,114.46,137.24Z" transform="translate(-20 -86.16)"/><circle class="cls-1" cx="107.45" cy="59.82" r="1.82"/><rect class="cls-5" x="56.21" y="18.81" width="8.82" height="8.82"/><path class="cls-6" d="M90.39,108.75H79.68V98H90.39Zm-10.25-.47h9.78V98.5H80.14Z" transform="translate(-20 -86.16)"/><rect class="cls-5" x="35.76" y="133.27" width="8.82" height="8.82" transform="translate(-56.26 -69.83) rotate(-15.94)"/><path class="cls-6" d="M43.46,146.9l-2.94-10.3,10.3-2.94L53.76,144Zm-2.37-10,2.69,9.4,9.4-2.68-2.68-9.41Z" transform="translate(-20 -86.16)"/><rect class="cls-5" x="38.81" y="90.56" width="8.82" height="8.82" transform="translate(-75.68 -24.45) rotate(-46.94)"/><path class="cls-6" d="M37,102.54l7.32-7.83L52.15,102l-7.31,7.82Zm7.34-7.17-6.68,7.15,7.15,6.67,6.67-7.14Z" transform="translate(-20 -86.16)"/><path class="cls-6" d="M343.29,87.84h-82V86.16H224.17v1.68h-82.3a5.56,5.56,0,0,0-5.55,5.55h0V205.62a5.55,5.55,0,0,0,5.55,5.54H343.29a5.55,5.55,0,0,0,5.55-5.54V93.39a5.56,5.56,0,0,0-5.55-5.55Z" transform="translate(-20 -86.16)"/><rect class="cls-5" x="123.76" y="11.49" width="197.65" height="111.49"/><circle class="cls-5" cx="222.41" cy="6.42" r="2.03"/><polygon class="cls-3" points="264.88 122.98 123.76 122.98 123.76 11.49 264.88 122.98"/><circle class="cls-7" cx="154.68" cy="95.64" r="19"/><path class="cls-6" d="M178.91,196.07a23.63,23.63,0,1,1,23.63-23.63A23.63,23.63,0,0,1,178.91,196.07Zm0-46.95a23.32,23.32,0,1,0,23.33,23.32,23.32,23.32,0,0,0-23.33-23.32Z" transform="translate(-20 -86.16)"/><rect class="cls-6" x="268.53" y="71.62" width="18.46" height="3.86"/><rect class="cls-6" x="246.21" y="41.58" width="63.1" height="1.65"/><rect class="cls-6" x="246.21" y="46.82" width="63.1" height="1.65"/><rect class="cls-6" x="246.21" y="52.05" width="63.1" height="1.65"/><rect class="cls-6" x="246.21" y="57.29" width="63.1" height="1.65"/><rect class="cls-6" x="246.21" y="62.52" width="63.1" height="1.65"/><rect class="cls-7" x="301.6" y="13.75" width="7.72" height="7.72"/><path class="cls-6" d="M332.89,111.2h-9.37v-9.37h9.37Zm-9-.4h8.56v-8.56h-8.56Z" transform="translate(-20 -86.16)"/><path class="cls-6" d="M354.39,207.11H335.1v-1.39a.29.29,0,0,0-.28-.28h-6.61a.29.29,0,0,0-.28.28h0v1.39H323.8v-1.39a.28.28,0,0,0-.28-.28h-6.61a.28.28,0,0,0-.27.28h0v1.39H312.5v-1.39a.28.28,0,0,0-.27-.28h-6.62a.28.28,0,0,0-.27.28h0v1.39H301.2v-1.39a.28.28,0,0,0-.27-.28h-6.61a.28.28,0,0,0-.28.28h0v1.39h-4.13v-1.39a.29.29,0,0,0-.28-.28H283a.29.29,0,0,0-.28.28h0v1.39h-4.13v-1.39a.29.29,0,0,0-.28-.28h-6.61a.29.29,0,0,0-.28.28h0v1.39h-4.13v-1.39a.28.28,0,0,0-.28-.28h-51.8a.29.29,0,0,0-.28.28h0v1.39h-4.13v-1.39a.28.28,0,0,0-.27-.28h-6.62a.28.28,0,0,0-.27.28h0v1.39h-4.14v-1.39a.28.28,0,0,0-.27-.28h-6.62a.28.28,0,0,0-.27.28h0v1.39h-4.13v-1.39a.29.29,0,0,0-.28-.28h-6.61a.28.28,0,0,0-.28.28h0v1.39h-4.13v-1.39a.29.29,0,0,0-.28-.28H170a.29.29,0,0,0-.28.28h0v1.39h-4.13v-1.39a.28.28,0,0,0-.28-.28h-6.61a.28.28,0,0,0-.27.28h0v1.39h-4.14v-1.39a.28.28,0,0,0-.27-.28h-6.62a.28.28,0,0,0-.27.28h0v1.39H134.49a6.61,6.61,0,0,0-6.61,6.61v3a6.62,6.62,0,0,0,6.61,6.62h219.9a6.62,6.62,0,0,0,6.61-6.62v-3A6.61,6.61,0,0,0,354.39,207.11Z" transform="translate(-20 -86.16)"/></svg>