<svg id="Layer_1" data-name="Layer 1" xmlns="http://www.w3.org/2000/svg" xmlns:xlink="http://www.w3.org/1999/xlink" viewBox="0 0 316 220.23"><defs><style>.cls-1,.cls-10,.cls-3{fill:#6c63ff;}.cls-1,.cls-18,.cls-6{opacity:0.1;}.cls-1,.cls-10,.cls-4,.cls-6{isolation:isolate;}.cls-2{fill:none;stroke:#535461;stroke-miterlimit:10;stroke-width:2px;}.cls-4{opacity:0.25;}.cls-5{fill:#c8cad7;}.cls-7{fill:#474157;}.cls-8{fill:#ededf4;}.cls-9{fill:#fff;}.cls-10{opacity:0.2;}.cls-11{fill:#d4dfec;}.cls-12{fill:url(#linear-gradient);}.cls-13{fill:#a1616a;}.cls-14{fill:#fa595f;}.cls-15{fill:#605d82;}.cls-16{fill:#5a5773;}.cls-17{fill:#4a4347;}</style><linearGradient id="linear-gradient" x1="285.64" y1="-8.7" x2="285.64" y2="107.76" gradientTransform="matrix(1, 0, 0, -1, -35, 251.6)" gradientUnits="userSpaceOnUse"><stop offset="0" stop-color="gray" stop-opacity="0.25"/><stop offset="0.54" stop-color="gray" stop-opacity="0.12"/><stop offset="1" stop-color="gray" stop-opacity="0.1"/></linearGradient></defs><title>what-7</title><path class="cls-1" d="M350.89,95.57a64.68,64.68,0,0,0-12.54-16.88l-173.9-1.45,143.18-17a94.1,94.1,0,0,0-29.05-4.87C264.8,46,247.08,40.3,227.76,40.3a91.32,91.32,0,0,0-46.44,12.29A93.15,93.15,0,0,0,144.09,45C105.45,45,73.26,67.62,66,97.63Z" transform="translate(-41 -40.3)"/><path class="cls-1" d="M357,120.73A55,55,0,0,0,351.58,97L50.19,123.73a58.49,58.49,0,0,0-7.06,15.08l93.33,11.76L41,159.15c2.87,34,37.31,60.78,79.39,60.78,21.17,0,40.42-6.8,54.68-17.88,14.3,11.29,33.72,18.23,55.13,18.23,31.76,0,59.18-15.29,71.94-37.39,25.61-6.87,45.51-24.13,52.32-45.71l-118-15.47H357Z" transform="translate(-41 -40.3)"/><path class="cls-2" d="M120.26,195s-12.93-18.65-10.73-36.25a34.43,34.43,0,0,0-4.14-21.34,57.86,57.86,0,0,0-6.08-8.66" transform="translate(-41 -40.3)"/><path class="cls-3" d="M100.63,117.61c.84,2.53-1.32,11.4-1.32,11.4s-7-5.83-7.86-8.36a4.84,4.84,0,0,1,9.18-3Z" transform="translate(-41 -40.3)"/><path class="cls-3" d="M112.85,129.13c-.67,2.58-7.3,8.85-7.3,8.85s-2.72-8.7-2-11.28a4.83,4.83,0,0,1,9.38,2.3l0,.13Z" transform="translate(-41 -40.3)"/><path class="cls-3" d="M120.45,153.21c-1.88,1.89-10.77,4-10.77,4s2-8.89,3.92-10.78a4.83,4.83,0,0,1,6.84,6.82Z" transform="translate(-41 -40.3)"/><path class="cls-3" d="M122.1,172.74c-1.54,2.18-9.95,5.72-9.95,5.72s.51-9.11,2-11.29a4.83,4.83,0,0,1,7.9,5.57Z" transform="translate(-41 -40.3)"/><path class="cls-3" d="M96.09,141.66c2.4,1.16,11.47.19,11.47.19s-4.86-7.72-7.28-8.89a4.83,4.83,0,0,0-4.19,8.7Z" transform="translate(-41 -40.3)"/><path class="cls-3" d="M98.3,164.46c2.64.39,11-3.25,11-3.25s-6.94-5.92-9.57-6.31a4.83,4.83,0,1,0-1.42,9.56Z" transform="translate(-41 -40.3)"/><path class="cls-3" d="M103.5,186.32c2.53.84,11.39-1.34,11.39-1.34s-5.84-7-8.39-7.83a4.83,4.83,0,0,0-3,9.18Z" transform="translate(-41 -40.3)"/><path class="cls-4" d="M100.63,117.61c.84,2.53-1.32,11.4-1.32,11.4s-7-5.83-7.86-8.36a4.84,4.84,0,0,1,9.18-3Z" transform="translate(-41 -40.3)"/><path class="cls-4" d="M112.85,129.13c-.67,2.58-7.3,8.85-7.3,8.85s-2.72-8.7-2-11.28a4.83,4.83,0,0,1,9.38,2.3l0,.13Z" transform="translate(-41 -40.3)"/><path class="cls-4" d="M120.45,153.21c-1.88,1.89-10.77,4-10.77,4s2-8.89,3.92-10.78a4.83,4.83,0,0,1,6.84,6.82Z" transform="translate(-41 -40.3)"/><path class="cls-4" d="M122.1,172.74c-1.54,2.18-9.95,5.72-9.95,5.72s.51-9.11,2-11.29a4.83,4.83,0,0,1,7.9,5.57Z" transform="translate(-41 -40.3)"/><path class="cls-4" d="M96.09,141.66c2.4,1.16,11.47.19,11.47.19s-4.86-7.72-7.28-8.89a4.83,4.83,0,0,0-4.19,8.7Z" transform="translate(-41 -40.3)"/><path class="cls-4" d="M98.3,164.46c2.64.39,11-3.25,11-3.25s-6.94-5.92-9.57-6.31a4.83,4.83,0,1,0-1.42,9.56Z" transform="translate(-41 -40.3)"/><path class="cls-4" d="M103.5,186.32c2.53.84,11.39-1.34,11.39-1.34s-5.84-7-8.39-7.83a4.83,4.83,0,0,0-3,9.18Z" transform="translate(-41 -40.3)"/><path class="cls-2" d="M120.18,194.21s-19.37-11.81-24.5-28.8a34.42,34.42,0,0,0-12.43-17.84,57.39,57.39,0,0,0-9.06-5.44" transform="translate(-41 -40.3)"/><path class="cls-3" d="M70.89,131.46c1.79,2,3.41,10.94,3.41,10.94s-8.77-2.48-10.56-4.45a4.83,4.83,0,0,1,7.15-6.49Z" transform="translate(-41 -40.3)"/><path class="cls-3" d="M86.73,137c.43,2.64-3.07,11.05-3.07,11.05s-6-6.85-6.46-9.49A4.83,4.83,0,0,1,86.73,137Z" transform="translate(-41 -40.3)"/><path class="cls-3" d="M103.44,156c-1,2.49-8.24,8-8.24,8s-1.73-8.95-.78-11.44a4.83,4.83,0,1,1,9,3.46Z" transform="translate(-41 -40.3)"/><path class="cls-3" d="M112.87,173.14c-.52,2.62-6.78,9.26-6.78,9.26s-3.22-8.54-2.7-11.15a4.83,4.83,0,0,1,9.48,1.89Z" transform="translate(-41 -40.3)"/><path class="cls-3" d="M76.48,155.28c2.67.09,10.56-4.48,10.56-4.48s-7.56-5.09-10.23-5.18a4.83,4.83,0,1,0-.33,9.65Z" transform="translate(-41 -40.3)"/><path class="cls-3" d="M87.75,175.22c2.57-.71,8.74-7.43,8.74-7.43s-8.74-2.6-11.31-1.88a4.83,4.83,0,0,0,2.47,9.34l.11,0Z" transform="translate(-41 -40.3)"/><path class="cls-3" d="M101.36,193.1c2.66-.28,9.87-5.84,9.87-5.84s-8.18-4-10.83-3.77a4.83,4.83,0,1,0,1,9.61Z" transform="translate(-41 -40.3)"/><ellipse class="cls-1" cx="158.2" cy="205.28" rx="50.06" ry="2.97"/><path class="cls-5" d="M222.21,240.36v1.79h-53v-1.46a17.43,17.43,0,0,0,1.2-32.19h51.48a17.44,17.44,0,0,0,.35,31.86Z" transform="translate(-41 -40.3)"/><path class="cls-6" d="M221.86,208.5a17.5,17.5,0,0,0-9.64,11.56H180a17.45,17.45,0,0,0-9.64-11.56Z" transform="translate(-41 -40.3)"/><path class="cls-5" d="M108.45,199.37v10.07c0,5.56,4.07,10.06,9.09,10.06h156c5,0,9.09-4.5,9.09-10.06V199.37Z" transform="translate(-41 -40.3)"/><path class="cls-6" d="M222.21,240.36v1.79h-53v-1.46a17.43,17.43,0,0,0,4.09-2.17H219A17,17,0,0,0,222.21,240.36Z" transform="translate(-41 -40.3)"/><path class="cls-5" d="M154.32,239.08h82.77a2.66,2.66,0,0,1,2.66,2.66h0a2.66,2.66,0,0,1-2.66,2.65H154.32a2.66,2.66,0,0,1-2.66-2.65h0A2.66,2.66,0,0,1,154.32,239.08Z" transform="translate(-41 -40.3)"/><path class="cls-7" d="M282.67,89.05A9.09,9.09,0,0,0,273.58,80h-156a9.09,9.09,0,0,0-9.09,9.09h0V201.33H282.67Z" transform="translate(-41 -40.3)"/><rect class="cls-8" x="72.21" y="48.33" width="164.71" height="105.43" rx="4.47"/><circle class="cls-9" cx="154.56" cy="43.99" r="2.1"/><circle class="cls-9" cx="154.56" cy="169.55" r="5.17"/><path class="cls-5" d="M277.92,93.1H113.21a4.47,4.47,0,0,1,4.47-4.47H273.44A4.47,4.47,0,0,1,277.92,93.1Z" transform="translate(-41 -40.3)"/><circle class="cls-8" cx="76.68" cy="50.57" r="1.12"/><circle class="cls-8" cx="80.04" cy="50.57" r="1.12"/><circle class="cls-8" cx="83.39" cy="50.57" r="1.12"/><rect class="cls-3" x="78.36" y="56.58" width="42.23" height="2.52"/><rect class="cls-3" x="78.36" y="130.12" width="42.23" height="2.52"/><rect class="cls-10" x="78.36" y="135.72" width="78.3" height="2.52"/><rect class="cls-10" x="78.36" y="139.36" width="78.3" height="2.52"/><rect class="cls-10" x="78.36" y="142.99" width="78.3" height="2.52"/><rect class="cls-10" x="78.36" y="63.29" width="77.74" height="42.23"/><rect class="cls-10" x="79.2" y="109.43" width="18.18" height="16.78"/><rect class="cls-10" x="137.92" y="109.43" width="18.18" height="16.78"/><rect class="cls-10" x="108.14" y="109.43" width="18.18" height="16.78"/><rect class="cls-10" x="172.7" y="75.57" width="53.5" height="39.38"/><rect class="cls-8" x="178.33" y="83.56" width="42.23" height="2.52"/><rect class="cls-8" x="178.33" y="88.78" width="42.23" height="2.52"/><rect class="cls-8" x="178.33" y="94.01" width="42.23" height="2.52"/><rect class="cls-8" x="178.33" y="99.22" width="42.23" height="2.52"/><rect class="cls-8" x="178.33" y="104.44" width="42.23" height="2.52"/><rect class="cls-3" x="179.22" y="119.43" width="40.46" height="7.08"/><rect class="cls-3" x="177.06" y="143.03" width="27.13" height="4.75"/><ellipse class="cls-1" cx="235.98" cy="205.23" rx="4.79" ry="0.49"/><path class="cls-3" d="M116.06,243.77s-10.43,5.39-5,11.75a2,2,0,0,0,2,1.28s-.29-.54.84-1a5.73,5.73,0,0,0,1.12-.6,2.67,2.67,0,0,0,1-1.35h0s2.13-2.85.48-8.14a5.4,5.4,0,0,0,0-1.73l-1.28,1.71a3.55,3.55,0,0,1,1.46,2.17s-1.37-2.17-1.67-1.92c0,.05-.62,1-.62,1s2.27,1.54,2.44,3.54c0,0-1.28-2.8-2.67-3.2l-.78,1.41s2.49,1.51,2.77,3.78c0,0-1.44-2.88-2.91-3.46l-.59,1.49s2.4,1.52,2.62,3.41c0,0-2-3.16-2.72-3.08a7.59,7.59,0,0,0-.4,1.84s1.7,1.11,1.73,2.23c0,0-1.56-2-1.8-1.84a8.05,8.05,0,0,0,.38,3,6,6,0,0,1-.7-3,3.37,3.37,0,0,0-1,1.63s-.45-1.09,1-2.09a7.73,7.73,0,0,1,.31-1.74,7.15,7.15,0,0,0-2.29,1.75s.25-1.44,2.43-2.15l.56-1.51a10.13,10.13,0,0,0-2.84,1.74s.48-1.43,3-2.1l.75-1.4a12,12,0,0,0-2.87,1.4,4.9,4.9,0,0,1,3.1-1.79l.61-.87s-1.4.5-1.79.68-.47.09-.47.09a5.1,5.1,0,0,1,2.51-1.14A12.42,12.42,0,0,0,116.06,243.77Z" transform="translate(-41 -40.3)"/><ellipse class="cls-1" cx="47.34" cy="204.47" rx="6.13" ry="0.62"/><path class="cls-3" d="M90.5,234.54s-8,4.13-3.87,9a1.55,1.55,0,0,0,1.52,1s-.23-.41.63-.74a4.19,4.19,0,0,0,.86-.46,2.05,2.05,0,0,0,.78-1h0s1.63-2.19.36-6.23c0,0,.17-1.15,0-1.34l-1,1.34A2.68,2.68,0,0,1,91,237.72s-1-1.66-1.27-1.47c-.05,0-.48.73-.48.73a4.48,4.48,0,0,1,1.87,2.71s-1-2.15-2-2.45l-.6,1.08a4.7,4.7,0,0,1,2.11,2.89s-1.1-2.2-2.23-2.65l-.45,1.14s1.84,1.17,2,2.62c0,0-1.54-2.42-2.09-2.35a6.29,6.29,0,0,0-.3,1.4s1.3.87,1.32,1.72c0,0-1.2-1.51-1.38-1.4a6.3,6.3,0,0,0,.29,2.31,4.64,4.64,0,0,1-.53-2.31,2.66,2.66,0,0,0-.77,1.23s-.34-.84.8-1.6a5.73,5.73,0,0,1,.23-1.32,5.42,5.42,0,0,0-1.74,1.33s.19-1.1,1.85-1.64l.42-1.16a7.78,7.78,0,0,0-2.18,1.33s.37-1.09,2.31-1.61l.58-1.07a9.37,9.37,0,0,0-2.2,1.07,3.73,3.73,0,0,1,2.37-1.37l.47-.67s-1.07.39-1.37.53-.36.06-.36.06a3.92,3.92,0,0,1,1.92-.87A11.62,11.62,0,0,0,90.5,234.54Z" transform="translate(-41 -40.3)"/><path class="cls-3" d="M279.19,237.45s-6.25,3.24-3,7a1.21,1.21,0,0,0,1.19.76s-.18-.32.49-.57a4,4,0,0,0,.68-.36,1.62,1.62,0,0,0,.6-.81h0s1.28-1.71.28-4.87c0,0,.13-.9,0-1l-.75,1a2.14,2.14,0,0,1,.87,1.3s-.82-1.3-1-1.15-.38.56-.38.56a3.48,3.48,0,0,1,1.46,2.12s-.76-1.68-1.59-1.92l-.45.87a3.64,3.64,0,0,1,1.65,2.26s-.86-1.73-1.74-2.07l-.35.89s1.43.91,1.57,2c0,0-1.2-1.89-1.63-1.83a4.5,4.5,0,0,0-.24,1.1s1,.67,1,1.34c0,0-.93-1.18-1.08-1.1a4.91,4.91,0,0,0,.23,1.8,3.66,3.66,0,0,1-.41-1.8,1.94,1.94,0,0,0-.6,1s-.28-.65.62-1.25a4.73,4.73,0,0,1,.18-1,4.31,4.31,0,0,0-1.36,1s.15-.85,1.45-1.28l.33-.9a6.48,6.48,0,0,0-1.71,1s.28-.84,1.81-1.26l.45-.84a7.62,7.62,0,0,0-1.72.84,2.92,2.92,0,0,1,1.86-1.06l.36-.52s-.84.3-1.07.4-.28.06-.28.06a3,3,0,0,1,1.5-.69A7.83,7.83,0,0,0,279.19,237.45Z" transform="translate(-41 -40.3)"/><path class="cls-3" d="M312.11,232a4.77,4.77,0,0,0-.64,1.2c0,.1-.07.22-.11.34a1,1,0,0,0-.23-.08,3.3,3.3,0,0,0-1-.09c0-.13,0-.26,0-.41,0-1.47-.14-3.53-1.54-2.65s-.39,2.23.48,3.13c.07.08.15.15.22.22-.79.56-.94,1.88-1.07,3.25a7.57,7.57,0,0,1-2.07,3.73l-.22.24a2.87,2.87,0,0,0-2.24-.58c0-.12-.07-.24-.11-.38-.62-2.26-1.92-6.18-3.58-7l.22-.27c.7-.93,1.49-2.29.32-2.64s-1.27,1.18-1.21,2.33a1.73,1.73,0,0,0,0,.41,1.75,1.75,0,0,0-1.23.6l-.18-.21c-.95-1.12-2.7-2.9-3.22-1.56s1,2.88,2.12,3.83l.07,0c-.73,2.94,2.43,5.34,4.14,6.39l.22.13c-2.35,2.77-3.8,8-3.8,8l6.58,1.18s4.36-3.77,3.8-7.3h0c4.36-.88,5.35-5.52,4.67-8.28l.08,0a5,5,0,0,0,2-1.53A1.62,1.62,0,0,0,312.11,232Z" transform="translate(-41 -40.3)"/><path class="cls-6" d="M312.11,232a4.77,4.77,0,0,0-.64,1.2c0,.1-.07.22-.11.34a1,1,0,0,0-.23-.08,3.3,3.3,0,0,0-1-.09c0-.13,0-.26,0-.41,0-1.47-.14-3.53-1.54-2.65s-.39,2.23.48,3.13c.07.08.15.15.22.22-.79.56-.94,1.88-1.07,3.25a7.57,7.57,0,0,1-2.07,3.73l-.22.24a2.87,2.87,0,0,0-2.24-.58c0-.12-.07-.24-.11-.38-.62-2.26-1.92-6.18-3.58-7l.22-.27c.7-.93,1.49-2.29.32-2.64s-1.27,1.18-1.21,2.33a1.73,1.73,0,0,0,0,.41,1.75,1.75,0,0,0-1.23.6l-.18-.21c-.95-1.12-2.7-2.9-3.22-1.56s1,2.88,2.12,3.83l.07,0c-.73,2.94,2.43,5.34,4.14,6.39l.22.13c-2.35,2.77-3.8,8-3.8,8l6.58,1.18s4.36-3.77,3.8-7.3h0c4.36-.88,5.35-5.52,4.67-8.28l.08,0a5,5,0,0,0,2-1.53A1.62,1.62,0,0,0,312.11,232Z" transform="translate(-41 -40.3)"/><path class="cls-3" d="M299,233.92l-.77,2.23s-.43-.3-1-.77c-1.08-.95-2.61-2.57-2.12-3.83s2.27.43,3.22,1.56C298.76,233.57,299,233.92,299,233.92Z" transform="translate(-41 -40.3)"/><path class="cls-3" d="M300.64,232.63a8.94,8.94,0,0,1-.75.88,11.52,11.52,0,0,1-.14-1.18c-.06-1.15.06-2.68,1.21-2.34S301.35,231.71,300.64,232.63Z" transform="translate(-41 -40.3)"/><path class="cls-3" d="M310.56,233c0,.75-.1,1.34-.1,1.34a9.81,9.81,0,0,1-1-.86c-.87-.9-1.83-2.3-.48-3.13S310.6,231.51,310.56,233Z" transform="translate(-41 -40.3)"/><path class="cls-3" d="M315.1,234a4.9,4.9,0,0,1-2,1.52,5.4,5.4,0,0,1-.67.25l-.91-1.27a10.42,10.42,0,0,1,.37-1.24,4.94,4.94,0,0,1,.64-1.2A1.62,1.62,0,0,1,315.1,234Z" transform="translate(-41 -40.3)"/><path class="cls-6" d="M298.38,233.12c.38.45.64.8.64.8l-.77,2.23s-.43-.3-1-.77a4.42,4.42,0,0,1,.87-2A3.11,3.11,0,0,1,298.38,233.12Z" transform="translate(-41 -40.3)"/><path class="cls-6" d="M300.64,232.63a8.94,8.94,0,0,1-.75.88,11.52,11.52,0,0,1-.14-1.18A1.51,1.51,0,0,1,300.64,232.63Z" transform="translate(-41 -40.3)"/><path class="cls-3" d="M304.43,241.57l-1.92.84s-.42-.21-1-.58c-2-1.24-6.05-4.35-3.35-8s5,2.91,5.87,6.13C304.28,240.91,304.43,241.57,304.43,241.57Z" transform="translate(-41 -40.3)"/><path class="cls-6" d="M309.5,233.46a1.58,1.58,0,0,1,1.06-.48c0,.75-.1,1.34-.1,1.34A9.81,9.81,0,0,1,309.5,233.46Z" transform="translate(-41 -40.3)"/><path class="cls-6" d="M313.1,235.48a6.22,6.22,0,0,1-.68.25l-.91-1.27a10.42,10.42,0,0,1,.37-1.24A3.34,3.34,0,0,1,313.1,235.48Z" transform="translate(-41 -40.3)"/><path class="cls-3" d="M308.34,243.79a1.65,1.65,0,0,1-.32.06c-6.41,1-2.12-2.48-2.12-2.48s.28-.27.69-.71a7.44,7.44,0,0,0,2.06-3.72c.21-2.08.44-4,2.89-3.46S314.4,242.58,308.34,243.79Z" transform="translate(-41 -40.3)"/><rect class="cls-11" x="253.02" y="208.99" width="16.01" height="11.24"/><rect class="cls-6" x="253.02" y="208.99" width="16.01" height="11.24"/><path class="cls-6" d="M304,240c.28,1,.42,1.62.42,1.62l-1.91.84s-.42-.21-1-.58A4.88,4.88,0,0,1,304,240Z" transform="translate(-41 -40.3)"/><path class="cls-6" d="M308.34,243.79a1.65,1.65,0,0,1-.32.06c-6.41,1-2.12-2.48-2.12-2.48s.28-.27.69-.71A4.28,4.28,0,0,1,308.34,243.79Z" transform="translate(-41 -40.3)"/><path class="cls-3" d="M297.91,249.92s3.59-12.86,8.63-8.89-2.05,10.06-2.05,10.06Z" transform="translate(-41 -40.3)"/><circle class="cls-6" cx="258.72" cy="195.53" r="0.4"/><circle class="cls-6" cx="258.69" cy="197.41" r="0.4"/><circle class="cls-6" cx="270.37" cy="195.9" r="0.4"/><circle class="cls-6" cx="260.97" cy="205.53" r="0.4"/><circle class="cls-6" cx="269.53" cy="199.02" r="0.4"/><circle class="cls-6" cx="265.37" cy="203.18" r="0.4"/><circle class="cls-6" cx="260.1" cy="196.34" r="0.4"/><circle class="cls-6" cx="269.26" cy="197.11" r="0.4"/><circle class="cls-6" cx="267.88" cy="200.23" r="0.4"/><circle class="cls-6" cx="263.66" cy="205.23" r="0.4"/><circle class="cls-6" cx="262.78" cy="203.25" r="0.4"/><circle class="cls-6" cx="260.7" cy="198.79" r="0.4"/><rect class="cls-11" x="253.82" y="208.99" width="16.01" height="11.24"/><circle class="cls-6" cx="264.19" cy="207.04" r="0.4"/><circle class="cls-6" cx="261.78" cy="207.54" r="0.4"/><path class="cls-12" d="M275.14,200.74a2,2,0,0,1-.52-1.4c0-.13,0-.26,0-.38a1.44,1.44,0,0,0,.39-.35c.66-.94-.92-4.35-.92-4.35a5.41,5.41,0,0,0,0-3.31,7.3,7.3,0,0,0-.89-1.83s-2.07-4.25-1.76-4.75-.52-4.48-1.12-5.28c-.26-.34-.53-.67-.82-1a5.76,5.76,0,0,0-.77-3.07,25.75,25.75,0,0,1-1.83-5.09,31,31,0,0,0-1.84-4.76,5.26,5.26,0,0,0-1.12-1.14c.12-.56.4-1.3-.4-5.69-.32-1.8.19-2.87.6-4.66s.33-3.84-.95-5.18-3.26-1.6-4.84-2.52c-1.4-.81-2.65-2.18-4.28-2.15a4.41,4.41,0,0,0-2.3.66c-1.91.77-4.06.54-6,1.18-1.74.58-4,2.48-3.43,4.5a2.18,2.18,0,0,0,.64,1.2,1.47,1.47,0,0,0,1.36.24.2.2,0,0,1,0,.1,4.61,4.61,0,0,0-.07.84,5.52,5.52,0,0,0,5.57,5.43c0,.07,0,.13.05.2l.12.54-.44.58a5.77,5.77,0,0,0-.84,1.49c-1.61.33-4.32.87-4.75,1.57-.56.94-2.86,5.59-2.61,7.71,0,.11,0,.28,0,.44a27.8,27.8,0,0,0-1.62,3.31c-.2.79-.66,3.76-1.53,4.45s-2.65,2.91-2.4,3.35-2.4,1-2.4,1-1.78.69-1.68,1.24c0,.16-.09.32-.28.47-2-.67-4.61-1.12-6.62-.1-2.8,1.42,2.11,2.39,5,2.82l1.24.17c0,.09.12.18.35.26l.78.28.11-.37c1,.35,3.62,1.42,3.62,1.42s2.3.37,3-1a11.72,11.72,0,0,1,1.87-2.24l-.09.3-1.94,6.39s-3.06,4.75-2.91,5.78a9.06,9.06,0,0,1-1.22,3.91c-.26.26-2.8,7.76-4.14,8.25s-3.11,2.23-2.51,2.77,3.07,2.32,4.19,1.73,3.08.5,3.08.5a7.35,7.35,0,0,1,3.88.48c0,.2.05.41.07.63A25,25,0,0,0,240,221c.51,1.08,1,3,.56,3.75s.36,14.88,1.12,17.3A22.34,22.34,0,0,1,243,249q-.14,1.81-.15,3.63v.2a.38.38,0,0,1-.06.16v.11a9.85,9.85,0,0,0-.45,1.29s-1.32,3.31-.87,4.18a.69.69,0,0,0,.21.24,6,6,0,0,0,2.79.64l0,.84h.75s0-.84.07-1.88a5.29,5.29,0,0,0,.33-1.84,7.24,7.24,0,0,1,.67-3.18s0-.09,0-.23h0a6.35,6.35,0,0,0,.05-.87,3.13,3.13,0,0,0-.28-1.48,3.38,3.38,0,0,1,.05-.9,47.2,47.2,0,0,0-.3-5.93l.86-9.54s.52-7.36.31-9.29a6.18,6.18,0,0,1,0-1.55,51.51,51.51,0,0,0,.56-6.32v-.6a13,13,0,0,0,5,.12s.73,0,1.71,0c0,.2.05.4.08.59a10.51,10.51,0,0,0,.51,2.35c.5,1.09,1,3,.55,3.76s.36,14.87,1.12,17.29a22.45,22.45,0,0,1,1.28,6.94c-.08,1.21-.13,2.42-.14,3.64v.22l-.07.16c0,.06,0,.08,0,.11a9.85,9.85,0,0,0-.42,1.3s-1.32,3.31-.88,4.17a1,1,0,0,0,.21.25,6.18,6.18,0,0,0,2.8.64l0,.83H260s0-.83.07-1.88a5,5,0,0,0,.32-1.84,7.56,7.56,0,0,1,.66-3.18,5.72,5.72,0,0,0,.08-1.09,3.08,3.08,0,0,0-.29-1.49,3.89,3.89,0,0,1,.05-.9,47.2,47.2,0,0,0-.3-5.93l.87-9.54s.51-7.36.3-9.29a6.11,6.11,0,0,1,0-1.54,48.47,48.47,0,0,0,.56-6v-.61c.18-.22.56-.4,1.59-.75,1.79-.59,5.36-3.56,6.79-3.75s2.71-1.14,2.3-1.88-2.65-1.24-2.45-2.37-1.38-1.83-2.09-3.71-3.83-3.36-3.88-4.75-2.94-5.67-2.94-5.67-2.91-4.84-3.55-7.79a1.06,1.06,0,0,0,0-.19h0a5.2,5.2,0,0,1-.11-.67.58.58,0,0,1,0-.19h0v-.13l.06,0,.17-.09-.06,0a6.06,6.06,0,0,0,.93-.76,4.2,4.2,0,0,0,1.06-1.48,7.38,7.38,0,0,0,.42-2L261,179c.35,1.47.87,3.59,1,4.06a40.91,40.91,0,0,1,1.84,6.14,20.65,20.65,0,0,0,2.24,5.78s2.6,3.41,4.59,3.56.87.69,1.18.79l.08,0,0,.4.09,1.16s2,8.3,4.34,7.12S275.9,201.28,275.14,200.74Z" transform="translate(-41 -40.3)"/><path class="cls-13" d="M275.41,208.1c-2.21,1.18-4.17-7.06-4.17-7.06l-.09-1.15L271,197.7l2.7.35a8.3,8.3,0,0,0,0,1.41,2,2,0,0,0,.51,1.38C274.92,201.38,277.62,206.93,275.41,208.1Z" transform="translate(-41 -40.3)"/><path class="cls-13" d="M247.69,211v6.36a52.86,52.86,0,0,1-.56,6.29,6,6,0,0,0,0,1.53c.2,1.92-.28,9.23-.28,9.23l-.84,9.47a46.83,46.83,0,0,1,.28,5.87,3.89,3.89,0,0,0-.05.9c0,.84.17,1.92.22,2.24v.1l0,0-4.1,3.13c.65-.6.82-2,.82-3.27v-.42c0-1.2,0-2.4.14-3.61A23.35,23.35,0,0,0,242,241.9c-.74-2.4-1.48-16.43-1.08-17.17s-.05-2.65-.54-3.73a25.78,25.78,0,0,1-.74-4.63c-.11-1-.17-1.79-.17-1.79Z" transform="translate(-41 -40.3)"/><path class="cls-13" d="M262,209.69v6.68a49.78,49.78,0,0,1-.54,6,6.53,6.53,0,0,0,0,1.53c.19,1.92-.28,9.23-.28,9.23l-.84,9.47a48.76,48.76,0,0,1,.29,5.88,3.77,3.77,0,0,0-.05.89c0,.84.18,1.93.22,2.24a.17.17,0,0,0,0,.09l0,0h0l-4.11,3.13c.63-.61.8-2,.79-3.25v-.42c0-1.2.06-2.4.14-3.61a22.91,22.91,0,0,0-1.23-6.88c-.74-2.41-1.47-16.44-1.08-17.18s0-2.65-.54-3.73a11.87,11.87,0,0,1-.49-2.33c-.26-1.87-.44-4.09-.44-4.09Z" transform="translate(-41 -40.3)"/><path class="cls-6" d="M254.3,156.29l0,.06a5.4,5.4,0,0,1-3.74,2.24,4.62,4.62,0,0,1-.65,0c0-.07,0-.14-.05-.2-.32-1.4-.66-2.52-.66-2.52s.36-.53.9-1.2c1.45-1.84,4.12-4.74,3.91-.86a6.75,6.75,0,0,0,.28,2.32A.38.38,0,0,1,254.3,156.29Z" transform="translate(-41 -40.3)"/><path class="cls-13" d="M255.26,153a5.39,5.39,0,0,1-4.74,5.35,4.87,4.87,0,0,1-.66,0h0a5.4,5.4,0,1,1,5.44-5.39Z" transform="translate(-41 -40.3)"/><path class="cls-13" d="M260.49,168.75l-5.23,4.48s-5.71-8.15-5-9.82a5.63,5.63,0,0,0,.05-2.48c-.08-.56-.19-1.18-.31-1.76,0-.18-.07-.36-.11-.54s0-.13-.05-.2c-.32-1.39-.66-2.51-.66-2.51s.36-.53.9-1.21c1.45-1.83,4.12-4.73,3.91-.85a6.75,6.75,0,0,0,.28,2.32.65.65,0,0,0,0,.13,12.09,12.09,0,0,0,4,5.25,15.51,15.51,0,0,0,1.81,1.28Z" transform="translate(-41 -40.3)"/><path class="cls-6" d="M239.49,214.58l8.2-3.63v6.36a2.35,2.35,0,0,1-.53-.25,5,5,0,0,0-3.78-.22,4.29,4.29,0,0,1-3.49-.35l-.22-.12C239.55,215.36,239.49,214.58,239.49,214.58Z" transform="translate(-41 -40.3)"/><path class="cls-6" d="M262,209.69v6.68a3.17,3.17,0,0,0-.28.62c-.29.68-2.3.93-4.07.64a24,24,0,0,0-3.39-.21c-.26-1.87-.44-4.09-.44-4.09Z" transform="translate(-41 -40.3)"/><path class="cls-14" d="M270,211.3c-1.37.19-4.81,3.14-6.52,3.73s-1.52.68-1.82,1.37-2.31.93-4.07.64a36.88,36.88,0,0,0-5.11-.2s-3.71.64-5.34-.37a5,5,0,0,0-3.78-.22,4.31,4.31,0,0,1-3.49-.34,6.7,6.7,0,0,0-4-.64s-1.87-1.08-2.94-.49-3.44-1.18-4-1.72,1.12-2.25,2.41-2.75,3.73-7.95,4-8.19a9.08,9.08,0,0,0,1.18-3.88c-.15-1,2.79-5.74,2.79-5.74l1.87-6.34.56-1.95,0-1.17c0-.53,0-1.2,0-2,.05-3.13.1-7.77,0-9.87q0-.5-.06-.78c-.24-2.11,2-6.71,2.5-7.66.41-.69,3-1.22,4.57-1.55a8.22,8.22,0,0,0,1.09-.26,1,1,0,0,1,.43,0,58,58,0,0,1,5.79,1c-.39,11.83.39,9.77.39,9.77,1.28-1,.49-9.67.49-9.67.64.29,1.29-.45,1.29-.45l2.49,1a23.34,23.34,0,0,1,2.19,1.48,6.69,6.69,0,0,1,1.54,1.51,31.07,31.07,0,0,1,1.77,4.71l-.89,1.4c-.77,1.24-1.95,3.14-3.17,5.07L260,180.19c-1,1.53-1.75,2.78-2.08,3.28a1.49,1.49,0,0,0-.15.4,2.36,2.36,0,0,0,0,.28,4.53,4.53,0,0,0,.12,1.16c.62,2.93,3.41,7.73,3.41,7.73s2.8,4.27,2.85,5.64,3,2.85,3.73,4.72,2.2,2.55,2,3.68,2,1.61,2.35,2.35S271.39,211.1,270,211.3Z" transform="translate(-41 -40.3)"/><path class="cls-6" d="M273.69,199.46a4.22,4.22,0,0,1-2.54.43L271,197.7l2.7.35A8.3,8.3,0,0,0,273.69,199.46Z" transform="translate(-41 -40.3)"/><path class="cls-14" d="M264.22,168.85l2,1.42a26.38,26.38,0,0,0,1.76,5.06,5.89,5.89,0,0,1,.74,3,10.47,10.47,0,0,1,.78,1c.59.79,1.37,4.73,1.08,5.24s1.7,4.72,1.7,4.72a6.71,6.71,0,0,1,.85,1.82,5.6,5.6,0,0,1,0,3.29s1.53,3.38.89,4.31-2.7.84-3,.74.79-.64-1.12-.79-4.41-3.53-4.41-3.53a20.75,20.75,0,0,1-2.16-5.74,42.74,42.74,0,0,0-1.77-6.08c-.24-.74-1.32-5.5-1.32-5.5Z" transform="translate(-41 -40.3)"/><path class="cls-6" d="M249.16,168.85s-.15,11.39-1.52,13.64Z" transform="translate(-41 -40.3)"/><path class="cls-6" d="M257.11,172.87s-1.28,11.39-2.28,12S257.11,172.87,257.11,172.87Z" transform="translate(-41 -40.3)"/><path class="cls-6" d="M255.26,171.26S255,182,253.33,183.05,255.26,171.26,255.26,171.26Z" transform="translate(-41 -40.3)"/><path class="cls-6" d="M241.16,191.57s-2,5.94-1.8,8.39S241.16,191.57,241.16,191.57Z" transform="translate(-41 -40.3)"/><path class="cls-6" d="M257.87,185.7c-2.66.6-9.85,1.67-16.17-2.27,0-.52,0-1.2,0-2,2.4,1.32,9.14,4.75,12.57,3.79l3.48-1A3.63,3.63,0,0,0,257.87,185.7Z" transform="translate(-41 -40.3)"/><path class="cls-6" d="M257.87,185.12c-2.66.59-9.85,1.66-16.17-2.27,0-.53,0-1.21,0-2,2.4,1.32,9.14,4.75,12.57,3.79,1.71-.48,2.8-.8,3.48-1A3.68,3.68,0,0,0,257.87,185.12Z" transform="translate(-41 -40.3)"/><path class="cls-15" d="M257.87,185.32c-2.66.6-9.85,1.67-16.17-2.26,0-.53,0-1.2,0-2,2.4,1.32,9.14,4.75,12.57,3.79l3.48-1A3.62,3.62,0,0,0,257.87,185.32Z" transform="translate(-41 -40.3)"/><path class="cls-6" d="M257.87,185.32c-2.66.6-9.85,1.67-16.17-2.26,0-.53,0-1.2,0-2,2.4,1.32,9.14,4.75,12.57,3.79l3.48-1A3.62,3.62,0,0,0,257.87,185.32Z" transform="translate(-41 -40.3)"/><path class="cls-6" d="M246.43,252.85a.22.22,0,0,1,0,.12l-4.1,3.13c.66-.6.82-2,.82-3.27v-.42a8,8,0,0,1,1.52-2.42,1.24,1.24,0,0,1,1.39.32v.09a1,1,0,0,1,.15.21A4,4,0,0,1,246.43,252.85Z" transform="translate(-41 -40.3)"/><path class="cls-6" d="M246.11,251.26,243,253.39s0-.25,0-.62a8.49,8.49,0,0,1,1.59-2.58,1.27,1.27,0,0,1,1.4.31C246.07,251,246.11,251.26,246.11,251.26Z" transform="translate(-41 -40.3)"/><path class="cls-16" d="M246.41,253.17a7.83,7.83,0,0,0-.64,3.16,4.83,4.83,0,0,1-.66,2.55,2.11,2.11,0,0,1-.21.31s-2.15,0-2.91-.64a.68.68,0,0,1-.2-.24c-.43-.86.83-4.14.83-4.14a9.14,9.14,0,0,1,2-3.89C247.06,249.64,246.41,253.17,246.41,253.17Z" transform="translate(-41 -40.3)"/><path class="cls-6" d="M260.71,251.6l0,.12h0l-4.08,3.1c.63-.61.8-2,.79-3.25v-.42a8.24,8.24,0,0,1,1.52-2.42,1.3,1.3,0,0,1,1.41.31v.1a1,1,0,0,1,.14.21A4.07,4.07,0,0,1,260.71,251.6Z" transform="translate(-41 -40.3)"/><path class="cls-6" d="M260.39,250l-3.1,2.13,0-.62a8.3,8.3,0,0,1,1.59-2.58,1.27,1.27,0,0,1,1.41.31A7.61,7.61,0,0,0,260.39,250Z" transform="translate(-41 -40.3)"/><path class="cls-16" d="M260.69,251.91a7.68,7.68,0,0,0-.65,3.16,4.83,4.83,0,0,1-.65,2.55,3.46,3.46,0,0,1-.22.31s-2.15,0-2.9-.64a.78.78,0,0,1-.2-.24c-.43-.86.84-4.15.84-4.15a9.1,9.1,0,0,1,2-3.89C261.33,248.39,260.69,251.91,260.69,251.91Z" transform="translate(-41 -40.3)"/><path class="cls-6" d="M265.52,173.22a3.45,3.45,0,0,1-2.13,3.3c-.4.12-.81.15-1.21.23a3.62,3.62,0,0,0-.56.17,3,3,0,0,0-1.46,2.31c-.06.31-.1.64-.14,1a7.38,7.38,0,0,1-.38,1.81,4.65,4.65,0,0,1-1.89,2.15,12.29,12.29,0,0,1-3.13,1.31,7,7,0,0,0,.84-5.85c-.18-.57-.56-1.21-1.17-1.2s-.81.44-1.16.76c-1.73,1.56-4.45.86-6.64.08a14.14,14.14,0,0,0,2.64-15.49,5.76,5.76,0,0,1-.48-1.25,2.61,2.61,0,0,1,.12-1.3,5.74,5.74,0,0,1,.8-1.48c.13-.19.28-.38.42-.57s.38-.51.54-.78a4.17,4.17,0,0,0,.56-1.21,2.06,2.06,0,0,0-1-2.48l0,0a3.28,3.28,0,0,1-2-1.23c-.46-.54-.72-1.4-1.52-1.56a4.59,4.59,0,0,0-1.93.32,5.4,5.4,0,1,1,9.73,4,12,12,0,0,0,4,5.38l2.49,1a24.87,24.87,0,0,1,2.2,1.48,31.57,31.57,0,0,0,1.58,5.12,18.49,18.49,0,0,1,.84,2.51A6.15,6.15,0,0,1,265.52,173.22Z" transform="translate(-41 -40.3)"/><path class="cls-17" d="M250.2,154.48a2,2,0,0,1,1.07,2.49,8.48,8.48,0,0,1-1.51,2.57,3.81,3.81,0,0,0-.92,2.77,5,5,0,0,0,.48,1.25,14.15,14.15,0,0,1-2.64,15.49c2.19.79,4.91,1.48,6.64-.08.35-.32.69-.74,1.16-.75s1,.62,1.17,1.2a7,7,0,0,1-.84,5.84c2-.59,4.24-1.5,5-3.46a15.76,15.76,0,0,0,.52-2.77,3,3,0,0,1,1.46-2.3,14.51,14.51,0,0,1,1.76-.4,3.48,3.48,0,0,0,2.14-3.31,10.74,10.74,0,0,0-1-4.05c-2.79-7.27-.16-1.44-1.7-10.19-.31-1.79.18-2.86.58-4.63a5.75,5.75,0,0,0-.92-5.15c-1.22-1.34-3.13-1.58-4.65-2.49-1.36-.81-2.54-2.16-4.12-2.14-1.15,0-1.14.21-2.21.66-1.83.77-3.9.53-5.76,1.17-1.68.58-3.81,2.46-3.3,4.48.68,2.71,2.56.71,4,1,.79.17,1,1,1.52,1.56A3.38,3.38,0,0,0,250.2,154.48Z" transform="translate(-41 -40.3)"/><path class="cls-13" d="M232.56,187.53s-.8-.08-1.86-.25c-2.8-.42-7.53-1.4-4.84-2.79,2.47-1.3,5.87-.2,7.86.68a17.21,17.21,0,0,1,1.66.84Z" transform="translate(-41 -40.3)"/><path class="cls-6" d="M247.44,170.47a74.55,74.55,0,0,1-1.91,7.85c-.64,1.42-1.68,5.15-1.68,5.15s-1.51,1.37-2.75,2.69l.56-1.95,0-1.17c0-.53,0-1.2,0-2,.05-3.13.1-7.77,0-9.87l.18-.33,1-1.58a35.85,35.85,0,0,1,2.55-5.54C246.37,162.53,247.44,170.47,247.44,170.47Z" transform="translate(-41 -40.3)"/><path class="cls-6" d="M233.34,186.68s-.14.56-.39,1.31c-.3-.12-.55-.22-.74-.28-.84-.28.15-.63-.1-1.37s-.6-.43-1.05-.61a13,13,0,0,1,.95-1.14Z" transform="translate(-41 -40.3)"/><path class="cls-14" d="M242.73,169.29l-1,1.58a29.13,29.13,0,0,0-1.56,3.27c-.21.77-.63,3.74-1.47,4.43s-2.55,2.89-2.31,3.33-2.3,1-2.3,1-1.72.69-1.62,1.23-1.43,1-.89,1.37,1,0,1.28.74-.74,1.08.1,1.38,3.58,1.44,3.58,1.44,2.21.37,2.84-1,4.28-4.61,4.28-4.61a51.73,51.73,0,0,1,1.67-5.15,72.6,72.6,0,0,0,1.92-7.85s-1-7.95-2-6.71A38.45,38.45,0,0,0,242.73,169.29Z" transform="translate(-41 -40.3)"/><path class="cls-6" d="M239.93,182s-4.86.64-2.25,1.72,3.48,0,3.48,0Z" transform="translate(-41 -40.3)"/><path class="cls-6" d="M233.9,184.85s2.84-.59,3.58,0S233.9,184.85,233.9,184.85Z" transform="translate(-41 -40.3)"/><path class="cls-6" d="M233.6,186.32s.2-.49,1.18,0S233.6,186.32,233.6,186.32Z" transform="translate(-41 -40.3)"/><path class="cls-6" d="M265.72,191s.29,4.47,1.5,4.62S265.72,191,265.72,191Z" transform="translate(-41 -40.3)"/><path class="cls-6" d="M268.3,180.88a1.4,1.4,0,0,1-1.08,1.61C265.94,182.74,268.3,180.88,268.3,180.88Z" transform="translate(-41 -40.3)"/><path class="cls-6" d="M253.77,194.19s-.07,13.8,2.75,15.5Z" transform="translate(-41 -40.3)"/><path class="cls-6" d="M257.5,194.78s-.05,13.8,2.74,15.5Z" transform="translate(-41 -40.3)"/><path class="cls-6" d="M242.55,224.67a10.16,10.16,0,0,1,1.91,0C245.53,224.75,242.55,224.67,242.55,224.67Z" transform="translate(-41 -40.3)"/><path class="cls-6" d="M242.55,225.63a10.16,10.16,0,0,1,1.91,0C245.53,225.73,242.55,225.63,242.55,225.63Z" transform="translate(-41 -40.3)"/><path class="cls-6" d="M257.1,223.54a10.26,10.26,0,0,1,1.92,0C260.08,223.64,257.1,223.54,257.1,223.54Z" transform="translate(-41 -40.3)"/><path class="cls-6" d="M257.43,224.31a10.16,10.16,0,0,1,1.91,0C260.41,224.41,257.43,224.31,257.43,224.31Z" transform="translate(-41 -40.3)"/><g class="cls-18"><path d="M247.71,178.57a14.13,14.13,0,0,0,2.64-15.49,5.76,5.76,0,0,1-.48-1.25,3.83,3.83,0,0,1,.92-2.78,8.35,8.35,0,0,0,1.52-2.56,2,2,0,0,0-1.07-2.49,3.26,3.26,0,0,1-2-1.24c-.47-.54-.73-1.4-1.52-1.55-1.47-.31-3.36,1.68-4-1-.39-1.51.74-3,2-3.82-1.63.67-3.51,2.46-3,4.35.68,2.71,2.56.72,4,1,.8.16,1.06,1,1.53,1.55a3.21,3.21,0,0,0,2,1.23,2,2,0,0,1,1.07,2.5,8.32,8.32,0,0,1-1.51,2.56,3.83,3.83,0,0,0-.92,2.78,5.06,5.06,0,0,0,.48,1.24,14.15,14.15,0,0,1-2.64,15.49c2.11.76,4.7,1.43,6.43.09C251.52,179.76,249.45,179.19,247.71,178.57Z" transform="translate(-41 -40.3)"/><path d="M262.85,176.25a1.79,1.79,0,0,0-.56.38c.44-.11.91-.12,1.34-.26a2.28,2.28,0,0,0,.91-.51A10.39,10.39,0,0,0,262.85,176.25Z" transform="translate(-41 -40.3)"/><path d="M258,184a15.29,15.29,0,0,1-2.12.77,7.06,7.06,0,0,0,.84-5.85c-.18-.55-.56-1.21-1.17-1.19a1.48,1.48,0,0,0-.93.53c.56,0,.95.64,1.12,1.19a7,7,0,0,1-.84,5.85A12.27,12.27,0,0,0,258,184Z" transform="translate(-41 -40.3)"/></g></svg>