<svg id="Layer_1" data-name="Layer 1" xmlns="http://www.w3.org/2000/svg" xmlns:xlink="http://www.w3.org/1999/xlink" viewBox="0 0 307.68 256.51"><defs><style>.cls-1{fill:none;}.cls-2{opacity:0.5;}.cls-3{fill:url(#linear-gradient);}.cls-4{fill:#f2f2f2;}.cls-5{fill:#e0e0e0;}.cls-12,.cls-20,.cls-6{fill:#6c63ff;}.cls-18,.cls-6{opacity:0.7;}.cls-12,.cls-16,.cls-18,.cls-28,.cls-6{isolation:isolate;}.cls-7{fill:url(#linear-gradient-2);}.cls-8{fill:#f5f5f5;}.cls-9{fill:url(#linear-gradient-3);}.cls-10{fill:#fff;}.cls-11{clip-path:url(#clip-path);}.cls-12,.cls-16{opacity:0.4;}.cls-13{fill:url(#linear-gradient-4);}.cls-14{fill:url(#linear-gradient-5);}.cls-15{clip-path:url(#clip-path-2);}.cls-16{fill:#bdbdbd;}.cls-17{fill:url(#linear-gradient-6);}.cls-18,.cls-21{fill:#3ad29f;}.cls-19{fill:url(#linear-gradient-7);}.cls-22{fill:#f55f44;}.cls-23{fill:#fdd835;}.cls-24{fill:#0b92bf;}.cls-25{fill:url(#linear-gradient-8);}.cls-26{fill:url(#linear-gradient-9);}.cls-27{fill:url(#linear-gradient-10);}.cls-28{opacity:0.2;}</style><linearGradient id="linear-gradient" x1="179.29" y1="39.66" x2="179.29" y2="251.17" gradientTransform="matrix(1, 0, 0, -1, -46, 280)" gradientUnits="userSpaceOnUse"><stop offset="0" stop-color="gray" stop-opacity="0.25"/><stop offset="0.54" stop-color="gray" stop-opacity="0.12"/><stop offset="1" stop-color="gray" stop-opacity="0.1"/></linearGradient><linearGradient id="linear-gradient-2" x1="142.81" y1="153.2" x2="142.81" y2="209.77" xlink:href="#linear-gradient"/><linearGradient id="linear-gradient-3" x1="142.81" y1="170.01" x2="142.81" y2="205.26" xlink:href="#linear-gradient"/><clipPath id="clip-path" transform="translate(-46 -22)"><rect class="cls-1" x="117.57" y="97.15" width="50.47" height="34.02"/></clipPath><linearGradient id="linear-gradient-4" x1="142.81" y1="80.65" x2="142.81" y2="137.22" xlink:href="#linear-gradient"/><linearGradient id="linear-gradient-5" x1="142.81" y1="97.46" x2="142.81" y2="132.71" xlink:href="#linear-gradient"/><clipPath id="clip-path-2" transform="translate(-46 -22)"><rect class="cls-1" x="117.57" y="169.7" width="50.47" height="34.02"/></clipPath><linearGradient id="linear-gradient-6" x1="326.11" y1="-61.68" x2="326.11" y2="149.82" gradientTransform="matrix(0, 1, 1, 0, 177.43, -166.66)" xlink:href="#linear-gradient"/><linearGradient id="linear-gradient-7" x1="325.9" y1="7.58" x2="325.9" y2="63.33" gradientTransform="matrix(0, 1, 1, 0, 184.17, -158.05)" xlink:href="#linear-gradient"/><linearGradient id="linear-gradient-8" x1="259.69" y1="27.31" x2="259.69" y2="78.6" xlink:href="#linear-gradient"/><linearGradient id="linear-gradient-9" x1="400.54" y1="9.49" x2="400.54" y2="44.58" gradientTransform="matrix(1, 0, 0, -1, -140.93, 234.77)" xlink:href="#linear-gradient"/><linearGradient id="linear-gradient-10" x1="400.55" y1="-24.18" x2="400.55" y2="-3.82" gradientTransform="matrix(1, 0, 0, -1, -140.93, 234.77)" xlink:href="#linear-gradient"/></defs><title>what-5</title><g class="cls-2"><rect class="cls-3" x="54.59" y="28.83" width="157.4" height="211.51"/></g><rect class="cls-4" x="56.64" y="31.7" width="152.48" height="204.13"/><rect class="cls-5" x="68.53" y="40.31" width="52.47" height="1.64"/><rect class="cls-6" x="68.53" y="47.69" width="52.47" height="1.64"/><rect class="cls-5" x="128.78" y="40.31" width="52.47" height="1.64"/><rect class="cls-5" x="136.98" y="87.04" width="52.47" height="1.64"/><rect class="cls-5" x="138.21" y="91.55" width="52.47" height="1.64"/><rect class="cls-5" x="140.67" y="96.05" width="52.47" height="1.64"/><rect class="cls-5" x="136.98" y="159.59" width="52.47" height="1.64"/><rect class="cls-5" x="138.21" y="164.1" width="52.47" height="1.64"/><rect class="cls-5" x="140.67" y="168.61" width="52.47" height="1.64"/><g class="cls-2"><rect class="cls-7" x="68.94" y="70.23" width="55.75" height="56.56"/></g><rect class="cls-8" x="69.29" y="71.46" width="54.87" height="54.1"/><g class="cls-2"><rect class="cls-9" x="71.22" y="74.74" width="51.17" height="35.25"/></g><rect class="cls-10" x="71.57" y="75.15" width="50.47" height="34.02"/><g class="cls-11"><polygon class="cls-12" points="67.3 107.94 80.01 88.27 85.33 96.87 96.81 84.99 106.65 96.87 115.26 79.25 137.39 114.5 65.66 112.04 67.3 107.94"/><circle class="cls-12" cx="77.13" cy="80.07" r="3.69"/></g><g class="cls-2"><rect class="cls-13" x="68.94" y="142.78" width="55.75" height="56.56"/></g><rect class="cls-8" x="69.29" y="144.01" width="54.87" height="54.1"/><g class="cls-2"><rect class="cls-14" x="71.22" y="147.29" width="51.17" height="35.25"/></g><rect id="b429ac3a-f8a8-4171-bcce-5b6c002c0714" class="cls-10" x="71.57" y="147.7" width="50.47" height="34.02"/><g class="cls-15"><polygon class="cls-16" points="67.3 180.49 80.01 160.82 85.33 169.43 96.81 157.54 106.65 169.43 115.26 151.8 137.39 187.05 65.66 184.59 67.3 180.49"/><circle class="cls-16" cx="77.13" cy="152.62" r="3.69"/></g><g class="cls-2"><rect class="cls-17" x="115.75" y="80.75" width="211.51" height="157.4" transform="translate(-24.06 323.62) rotate(-78.76)"/></g><rect class="cls-10" x="119.2" y="82.32" width="204.13" height="152.48" transform="translate(-23.39 322.67) rotate(-78.76)"/><rect class="cls-5" x="227.5" y="12.24" width="1.64" height="108.21" transform="translate(72.74 255.35) rotate(-78.76)"/><rect class="cls-5" x="197.3" y="164.21" width="1.64" height="108.21" transform="translate(-100.63 348.08) rotate(-78.76)"/><rect class="cls-5" x="183.4" y="183.36" width="1.64" height="83.62" transform="translate(-118.54 339.96) rotate(-78.76)"/><rect class="cls-6" x="155.83" y="213.73" width="1.64" height="31.15" transform="translate(-144.79 316.25) rotate(-78.76)"/><rect class="cls-6" x="199.13" y="43.27" width="1.64" height="54.1" transform="translate(46 230.73) rotate(-78.76)"/><rect class="cls-5" x="218.6" y="35.03" width="1.64" height="97.56" transform="translate(48.45 260.68) rotate(-78.76)"/><rect class="cls-18" x="180.58" y="73.97" width="1.64" height="23.77" transform="translate(15.82 225.04) rotate(-78.76)"/><rect class="cls-5" x="220.15" y="49.23" width="1.64" height="108.21" transform="matrix(0.19, -0.98, 0.98, 0.19, 30.54, 277.92)"/><g class="cls-2"><rect class="cls-19" x="191.75" y="119.28" width="55.75" height="97.14" transform="matrix(0.19, -0.98, 0.98, 0.19, -33.82, 328.54)"/></g><rect class="cls-10" x="192.42" y="119.69" width="54.52" height="95.92" transform="translate(-33.57 328.44) rotate(-78.76)"/><rect class="cls-5" x="218.31" y="58.48" width="1.64" height="108.21" transform="translate(19.99 283.56) rotate(-78.76)"/><rect class="cls-20" x="168.44" y="155.47" width="39.76" height="11.89" transform="translate(-52.71 292.66) rotate(-78.76)"/><rect class="cls-21" x="194.63" y="166.06" width="26.64" height="11.89" transform="translate(-47.29 320.44) rotate(-78.76)"/><rect class="cls-22" x="220.48" y="176.24" width="14.35" height="11.89" transform="translate(-41.41 347.96) rotate(-78.76)"/><rect class="cls-23" x="235.45" y="173.16" width="29.1" height="11.89" transform="translate(-20.4 367.4) rotate(-78.76)"/><rect class="cls-24" x="14.54" y="212" width="2.65" height="15"/><rect class="cls-24" x="8.37" y="218.18" width="15" height="2.65"/><path class="cls-20" d="M233.17,24.77a1.49,1.49,0,0,1-.84-1.82.51.51,0,0,0,0-.17h0a.75.75,0,0,0-.73-.78.77.77,0,0,0-.61.28h0a1.09,1.09,0,0,0-.08.15,1.51,1.51,0,0,1-1.82.84l-.17,0h0a.75.75,0,0,0-.5,1.34h0l.15.09a1.5,1.5,0,0,1,.84,1.82.94.94,0,0,0,0,.16h0a.75.75,0,0,0,.73.78.73.73,0,0,0,.61-.28h0a.67.67,0,0,0,.09-.14,1.49,1.49,0,0,1,1.82-.84.45.45,0,0,0,.16,0h0a.75.75,0,0,0,.5-1.34h0Z" transform="translate(-46 -22)"/><path class="cls-20" d="M94.73,59.57a1.49,1.49,0,0,1-.84-1.82.51.51,0,0,0,0-.17h0a.75.75,0,0,0-1.34-.5h0a.53.53,0,0,0-.08.15,1.5,1.5,0,0,1-1.82.83l-.17,0h0a.75.75,0,0,0-.5,1.34h0l.15.09A1.5,1.5,0,0,1,91,61.27a1.36,1.36,0,0,0,0,.17h0a.75.75,0,0,0,.73.78.73.73,0,0,0,.61-.28h0a.54.54,0,0,0,.09-.15A1.49,1.49,0,0,1,94.21,61l.16,0h0a.75.75,0,0,0,.78-.73.74.74,0,0,0-.28-.61h0Z" transform="translate(-46 -22)"/><path class="cls-20" d="M83.77,161.8a1.51,1.51,0,0,1-.84-1.82.51.51,0,0,0,0-.17h0a.74.74,0,0,0-.72-.78.77.77,0,0,0-.62.28h0a.71.71,0,0,0-.08.15,1.5,1.5,0,0,1-1.82.83l-.17,0h0a.76.76,0,0,0-.78.73.75.75,0,0,0,.28.61h0l.15.09a1.5,1.5,0,0,1,.84,1.82.94.94,0,0,0,0,.16h0a.76.76,0,0,0,.73.78.71.71,0,0,0,.61-.28h0a.38.38,0,0,0,.09-.15,1.49,1.49,0,0,1,1.82-.83.86.86,0,0,0,.17,0h0a.76.76,0,0,0,.78-.73.8.8,0,0,0-.28-.61h0Z" transform="translate(-46 -22)"/><circle class="cls-24" cx="113.21" cy="9.57" r="2.46"/><circle class="cls-20" cx="2.46" cy="106.36" r="2.46"/><circle class="cls-20" cx="289.46" cy="40.31" r="2.46"/><circle class="cls-20" cx="275.52" cy="113.68" r="2.46"/><circle class="cls-24" cx="18.63" cy="42.64" r="2.46"/><circle class="cls-24" cx="285.95" cy="216.91" r="2.46"/><circle class="cls-24" cx="305.22" cy="144.4" r="2.46"/><rect class="cls-25" x="182.44" y="201.4" width="62.49" height="51.3"/><path class="cls-26" d="M241.34,213.58a18.28,18.28,0,0,1,36.56,0v11.7H283v-11.7a23.4,23.4,0,0,0-46.79,0h0v11.7h5.11Z" transform="translate(-46 -22)"/><path class="cls-8" d="M242.07,213.33a17.55,17.55,0,0,1,35.1,0h0v11.24h4.91V213.33a22.47,22.47,0,0,0-44.93,0v11.24h4.92Z" transform="translate(-46 -22)"/><rect class="cls-20" x="183.08" y="201.87" width="61.07" height="49.84"/><rect class="cls-8" x="183.08" y="201.87" width="61.07" height="49.84"/><rect class="cls-20" x="183.08" y="211.69" width="61.07" height="30.18"/><path class="cls-27" d="M264.09,243.08a4.48,4.48,0,1,0-7.73,3.06v9.56a3.26,3.26,0,0,0,6.51,0v-9.55A4.4,4.4,0,0,0,264.09,243.08Z" transform="translate(-46 -22)"/><path class="cls-28" d="M263.48,243.87a3.86,3.86,0,0,0-7.72,0,3.82,3.82,0,0,0,1.05,2.66v8.23a2.81,2.81,0,1,0,5.61,0v-8.23A3.85,3.85,0,0,0,263.48,243.87Z" transform="translate(-46 -22)"/></svg>