<svg id="Layer_1" data-name="Layer 1" xmlns="http://www.w3.org/2000/svg" viewBox="0 0 344.56 285.37"><defs><style>.cls-1{fill:#cacacc;}.cls-2{fill:#a0616a;}.cls-3{fill:#2f2e41;}.cls-4{fill:#505060;}.cls-5{fill:#6c63ff;}.cls-6{fill:#fff;}.cls-7{fill:#e6e6e6;}</style></defs><title>what-2</title><path class="cls-1" d="M305.57,278.38c0,23.72-47,16.43-104.62,16.48S97,302.28,97,278.56s47-28.92,104.6-29S305.55,254.66,305.57,278.38Z" transform="translate(-12 -10.84)"/><polygon class="cls-2" points="253.2 235.51 245.67 235.51 242.09 206.47 253.2 206.47 253.2 235.51"/><path class="cls-3" d="M251.46,244.2h15.36v9.14H243.15v-.84A8.31,8.31,0,0,1,251.46,244.2Z" transform="translate(-12 -10.84)"/><polygon class="cls-2" points="308.55 278.38 301.02 278.38 297.44 249.34 308.55 249.34 308.55 278.38"/><path class="cls-3" d="M306.81,287.06h15.35v9.15H298.5v-.84A8.31,8.31,0,0,1,306.81,287.06Z" transform="translate(-12 -10.84)"/><path class="cls-2" d="M355.28,202.93a5.59,5.59,0,0,0-.76-7.88,5.82,5.82,0,0,0-.81-.56l-17.49-71.24L325,128.06,345.84,197a5.63,5.63,0,0,0,9.44,6Z" transform="translate(-12 -10.84)"/><path class="cls-4" d="M297,195.54l11.82,88.65,14.7-3s-2.16-64.56,5.19-72.35-9.46-21.41-9.46-21.41Z" transform="translate(-12 -10.84)"/><path class="cls-4" d="M301.92,171.13l-5.43,8.14s-41.78-17.37-41.78,10.31-2.39,46.45-3.25,47.75,10,4.66,15.19,3.79c0,0,6.4-44.61,6-47.2,0,0,41,20.09,48.77,18.36S331,204.43,332.3,201s-.54-30.93-.54-30.93l-25.94-7.92Z" transform="translate(-12 -10.84)"/><path class="cls-5" d="M333,103.08s-16.08,1.86-16.7,1.86-.93-4-.93-4L301.1,120.4s-7,56.54-5.15,55.61,36.09,4.4,36.4,1.93-.31-14.85.61-15.47,16.09-39,16.09-39-1.55-8-6.81-10.83S333,103.08,333,103.08Z" transform="translate(-12 -10.84)"/><path class="cls-5" d="M344.1,118.24l4.95,5.26s7.35,60.42,3.33,62.28-11.94,1.63-11.94,1.63l-7.78-28.65Z" transform="translate(-12 -10.84)"/><circle class="cls-2" cx="305.51" cy="74.18" r="14.24"/><path class="cls-3" d="M314.17,87.24c-.2-3-3.92-3.06-6.88-3.09s-6.5.08-8.18-2.36a5.54,5.54,0,0,1,0-5.58,16,16,0,0,1,3.9-4.34c3.82-3.3,7.76-6.58,12.35-8.7s10-3,14.72-1.27c5.84,2.09,13.74,12.82,14.42,19A22.35,22.35,0,0,1,338.58,98c-4.15,4.61-13.66,2.75-19.64,4.39,3.63-5.15,1.24-14.51-4.59-16.91Z" transform="translate(-12 -10.84)"/><path class="cls-2" d="M323.68,63.22A6.17,6.17,0,0,0,315.39,66a6.29,6.29,0,0,0-.41,1L290.53,79l7.39,8.45,21.64-12.6a6.21,6.21,0,0,0,4.12-11.63Z" transform="translate(-12 -10.84)"/><path class="cls-5" d="M308.21,136l-2.08-1.23s-29.41-30.9-26.53-43.09S309.93,68,311,68.28s.82,8.89,4.11,11.66c0,0-20,12.43-21.25,13.53S313,111.58,313,111.58l3.22,13.63Z" transform="translate(-12 -10.84)"/><rect id="e1abf0e4-070b-4c82-8a12-ebedd4e3db02" class="cls-1" x="0.11" y="0.14" width="250.89" height="160.68"/><rect id="ace8bea0-82e8-49b8-a50c-1e1cb532084f" class="cls-6" x="8.1" y="20.3" width="236.54" height="131.02"/><rect id="b540f353-e277-4512-bc56-a133cea2858b" class="cls-5" width="250.89" height="10.66"/><circle id="b2b285b5-c1c3-4b12-9710-2898c7239781" class="cls-6" cx="7.92" cy="5.45" r="1.98"/><circle id="a5a428bb-42a2-4f57-9e6c-9979c01a2490" class="cls-6" cx="15.42" cy="5.45" r="1.98"/><circle id="a9929a25-14ce-4464-bac9-4165f1e3fae6" class="cls-6" cx="22.92" cy="5.45" r="1.98"/><path id="b4a2d72b-abc3-4d2f-a2b8-a2aff6897b26" class="cls-5" d="M61.49,49.5,45.84,65,61.49,80.4,65,76.88,53.18,65.05,65.11,53.11Z" transform="translate(-12 -10.84)"/><path id="b5120d89-6cbe-4bfa-9a1b-cf9b07deff91" class="cls-5" d="M74.31,49.5,90,65,74.31,80.4l-3.52-3.52L82.62,65.05,70.69,53.11Z" transform="translate(-12 -10.84)"/><path id="a31271bd-8e2f-469b-8cee-8b6db3f92f99" class="cls-1" d="M124.92,53.37c-1.28,0-2.32.74-2.32,1.65s1,1.64,2.32,1.64H234.15c1.28,0,2.32-.73,2.32-1.64s-1-1.65-2.32-1.65Z" transform="translate(-12 -10.84)"/><path id="bf577952-0fd5-43e0-be6b-ea1966b51a93" class="cls-1" d="M233.06,143.43H49.31c-1.88,0-3.4-1.08-3.41-2.42V108.58c0-1.34,1.53-2.42,3.41-2.42H233.06c1.88,0,3.4,1.08,3.41,2.42V141C236.46,142.35,234.94,143.43,233.06,143.43ZM49.31,107.12c-1.13,0-2,.65-2,1.46V141c0,.8.91,1.45,2,1.45H233.06c1.13,0,2-.65,2-1.45V108.58c0-.8-.91-1.45-2-1.46Z" transform="translate(-12 -10.84)"/><circle id="f7f4957b-eaa8-456b-bf02-bacf7de3ef80" class="cls-7" cx="56.23" cy="113.94" r="8.22"/><path id="fb0f055d-da6e-47f2-bb6d-7ff26d7b746a" class="cls-5" d="M91.42,118.2a1.65,1.65,0,0,0,0,3.29h77.5a1.65,1.65,0,0,0,0-3.29Z" transform="translate(-12 -10.84)"/><path id="bfcde504-8c45-4d21-843b-87b1f7e22ce0" class="cls-5" d="M91.42,128.07a1.64,1.64,0,1,0,0,3.28h33.35a1.64,1.64,0,0,0,0-3.28Z" transform="translate(-12 -10.84)"/><path id="a66699ea-75f1-4575-b6d5-52b0b1f8e30c" class="cls-1" d="M124.12,63.22a1.65,1.65,0,0,0,0,3.29h71.59a1.65,1.65,0,0,0,0-3.29Z" transform="translate(-12 -10.84)"/><path id="bbc4ca7b-25d4-4c7e-b3d4-0411f69bd48f" class="cls-1" d="M124.59,73.07a1.67,1.67,0,1,0,0,3.29h93.84a1.67,1.67,0,1,0,0-3.29Z" transform="translate(-12 -10.84)"/></svg>