<svg id="Layer_1" data-name="Layer 1" xmlns="http://www.w3.org/2000/svg" viewBox="0 0 235.7 209.71"><defs><style>.cls-1{fill:#e6e6e6;}.cls-2{fill:#3f3d56;}.cls-3{fill:#2ab5e3;}.cls-4{fill:#fff;}.cls-5{fill:#e8e8e8;}.cls-6{font-size:11px;fill:#4f4f4f;font-family:Montserrat-SemiBold, Montserrat;font-weight:600;}.cls-7{letter-spacing:-0.02em;}.cls-8{letter-spacing:-0.02em;}.cls-9{letter-spacing:-0.02em;}.cls-10{letter-spacing:-0.01em;}.cls-11{fill:none;stroke:#2ab5e3;stroke-miterlimit:10;}</style></defs><title>why-6</title><polygon class="cls-1" points="146.88 206.74 88.33 206.74 90.31 180.93 144.89 180.93 146.88 206.74"/><rect class="cls-1" x="85.35" y="203.76" width="65.5" height="5.95"/><path class="cls-2" d="M310.05,65.7H86.25a6,6,0,0,0-6,6h0V208.12H316V71.66a6,6,0,0,0-5.95-6Z" transform="translate(-80.3 -51)"/><path class="cls-1" d="M80.3,208.12v22.33a6,6,0,0,0,6,6h223.8a6,6,0,0,0,5.95-6h0V208.12Z" transform="translate(-80.3 -51)"/><rect class="cls-1" x="11.91" y="27.11" width="212.38" height="119.09"/><circle class="cls-2" cx="118.1" cy="171.01" r="5.95"/><rect class="cls-3" x="17.4" y="34.85" width="200.77" height="100.02"/><rect class="cls-4" x="61.7" width="109" height="135"/><rect class="cls-3" x="61.7" width="109" height="21"/><rect class="cls-5" x="71.7" y="35" width="88" height="14"/><rect class="cls-3" x="145.7" y="35" width="14" height="14"/><rect class="cls-4" x="114.7" y="8.1" width="52.43" height="5.9" rx="2.95"/><circle class="cls-4" cx="70.62" cy="11.13" r="2.89"/><circle class="cls-4" cx="79.62" cy="11.13" r="2.89"/><circle class="cls-4" cx="88.62" cy="11.13" r="2.89"/><text class="cls-6" transform="translate(109.64 70.8)"><tspan class="cls-7">.</tspan><tspan class="cls-8" x="2.46" y="0">C</tspan><tspan x="10.3" y="0">OM</tspan></text><text class="cls-6" transform="translate(109.64 86.8)"><tspan class="cls-7">.</tspan><tspan class="cls-8" x="2.46" y="0">C</tspan><tspan class="cls-9" x="10.3" y="0">O</tspan><tspan class="cls-10" x="19.34" y="0">.</tspan><tspan x="21.93" y="0">UK</tspan></text><text class="cls-6" transform="translate(109.64 102.8)">.NET</text><text class="cls-6" transform="translate(109.64 118.8)"><tspan class="cls-7">.</tspan><tspan x="2.46" y="0">ORG</tspan></text><rect class="cls-11" x="92.2" y="77.5" width="9" height="9"/><rect class="cls-11" x="92.2" y="94.5" width="9" height="9"/><rect class="cls-11" x="92.2" y="109.5" width="9" height="9"/><rect class="cls-11" x="92.2" y="61.5" width="9" height="9"/></svg>