<svg id="Layer_1" data-name="Layer 1" xmlns="http://www.w3.org/2000/svg" viewBox="0 0 318.74 199"><defs><style>.cls-1{fill:#f2f2f2;}.cls-2{fill:#2f2e41;}.cls-10,.cls-3,.cls-9{fill:#2ab5e3;}.cls-4{fill:#a8a8a8;}.cls-5{opacity:0.2;}.cls-10,.cls-5,.cls-7,.cls-9{isolation:isolate;}.cls-6{fill:#3f3d56;}.cls-7{opacity:0.1;}.cls-8{fill:none;stroke:#2f2e41;stroke-miterlimit:10;stroke-width:2px;}.cls-9{opacity:0.4;}.cls-10{opacity:0.8;}.cls-11{fill:#fff;}</style></defs><title>why-7</title><circle class="cls-1" cx="83.3" cy="60.64" r="60.64"/><path class="cls-2" d="M41,64.56c0,22.06,13.84,39.92,31,39.92" transform="translate(-41 -50)"/><path class="cls-3" d="M72,104.48c0-22.31,15.44-40.37,34.53-40.37" transform="translate(-41 -50)"/><path class="cls-3" d="M52.21,66.56c0,21,8.83,37.92,19.74,37.92" transform="translate(-41 -50)"/><path class="cls-2" d="M72,104.48C72,76,89.8,52.9,111.86,52.9" transform="translate(-41 -50)"/><path class="cls-4" d="M65.44,104.76s4.38-.14,5.71-1.08,6.75-2.07,7.08-.56,6.59,7.52,1.64,7.56S68.35,109.91,67,109.1,65.44,104.76,65.44,104.76Z" transform="translate(-41 -50)"/><path class="cls-5" d="M80,110.15c-5,0-11.52-.77-12.84-1.57-1-.62-1.4-2.81-1.54-3.83h-.14s.27,3.54,1.59,4.34,7.88,1.62,12.84,1.58c1.43,0,1.92-.52,1.89-1.28C81.57,109.86,81,110.14,80,110.15Z" transform="translate(-41 -50)"/><ellipse class="cls-6" cx="56.54" cy="120.85" rx="53.24" ry="7.24"/><ellipse class="cls-7" cx="56.54" cy="120.85" rx="44.7" ry="6.08"/><ellipse class="cls-6" cx="238.18" cy="188.04" rx="80.57" ry="10.96"/><ellipse class="cls-6" cx="88.43" cy="183.77" rx="48.4" ry="6.58"/><path class="cls-8" d="M172.7,228.22c25.62,6.55,74.88-8.54,80.28-25.62" transform="translate(-41 -50)"/><path class="cls-8" d="M129.14,123.74s37-10.25,39.29,22.77-30.46,42.42-4.84,49" transform="translate(-41 -50)"/><path class="cls-8" d="M162.94,195.4c4.82-1.26,9.16.73,10.78,5.59,2.74,8.21-1,14.79-3.42,22.27-.83,2.63.06,4.08,2.71,5" transform="translate(-41 -50)"/><path class="cls-2" d="M262.69,210.35l-2.24,14.32s-11,5.86-3.28,6,44.34,0,44.34,0,7.07,0-4.14-6.21l-2.25-15Z" transform="translate(-41 -50)"/><path class="cls-7" d="M255.61,230.55a30.17,30.17,0,0,1,4.84-3.2L262.69,213l32.43,0,2.25,14.12a28.75,28.75,0,0,1,5.18,3.41c1.44-.33,3-1.55-5.18-6.09l-2.25-15-32.43.86-2.24,14.32S251.17,229.6,255.61,230.55Z" transform="translate(-41 -50)"/><rect class="cls-2" x="164.68" y="60.55" width="146.12" height="101.78" rx="5.14"/><rect class="cls-6" x="169.59" y="65.99" width="136.29" height="76.25"/><circle class="cls-1" cx="237.74" cy="63.57" r="0.86"/><path class="cls-2" d="M351.79,198.27v8.93a5.12,5.12,0,0,1-5.13,5.13H210.81a5.13,5.13,0,0,1-5.13-5.13h0v-8.93Z" transform="translate(-41 -50)"/><polygon class="cls-2" points="275.86 190.02 275.86 191.75 183.05 191.75 183.05 190.37 183.18 190.02 185.46 183.81 273.96 183.81 275.86 190.02"/><path class="cls-2" d="M352.58,238.33c-.17.73-.81,1.49-2.25,2.21-5.18,2.59-15.7-.69-15.7-.69s-8.11-1.38-8.11-5a7.45,7.45,0,0,1,.71-.43c2.18-1.15,9.39-4,22.18.12a5.35,5.35,0,0,1,2.44,1.6A2.57,2.57,0,0,1,352.58,238.33Z" transform="translate(-41 -50)"/><path class="cls-7" d="M352.58,238.33c-6.34,2.43-12,2.61-17.78-1.41a12.79,12.79,0,0,0-7.57-2.5c2.18-1.15,9.39-4,22.18.12a5.35,5.35,0,0,1,2.44,1.6A2.57,2.57,0,0,1,352.58,238.33Z" transform="translate(-41 -50)"/><ellipse class="cls-1" cx="303.64" cy="186.23" rx="2.24" ry="0.69"/><circle class="cls-1" cx="237.74" cy="155.35" r="3.28"/><polygon class="cls-7" points="275.86 190.02 275.86 191.75 183.05 191.75 183.05 190.37 183.18 190.02 275.86 190.02"/><rect class="cls-2" x="30.92" y="45.27" width="59.22" height="68.9"/><rect class="cls-6" x="24.94" y="38.43" width="71.17" height="24.48"/><rect class="cls-6" x="24.94" y="67.47" width="71.17" height="24.48"/><rect class="cls-6" x="24.94" y="96.51" width="71.17" height="24.48"/><rect class="cls-9" x="77.33" y="42.7" width="4.56" height="4.56"/><rect class="cls-10" x="83.87" y="42.7" width="4.56" height="4.56"/><rect class="cls-3" x="90.42" y="42.7" width="4.56" height="4.56"/><rect class="cls-9" x="77.33" y="71.46" width="4.56" height="4.56"/><rect class="cls-10" x="83.87" y="71.46" width="4.56" height="4.56"/><rect class="cls-3" x="90.42" y="71.46" width="4.56" height="4.56"/><rect class="cls-9" x="77.33" y="100.21" width="4.56" height="4.56"/><rect class="cls-10" x="83.87" y="100.21" width="4.56" height="4.56"/><rect class="cls-3" x="90.42" y="100.21" width="4.56" height="4.56"/><circle class="cls-2" cx="90.14" cy="153.16" r="22.49"/><rect class="cls-2" x="79.89" y="170.82" width="6.83" height="12.24"/><rect class="cls-2" x="93.55" y="170.82" width="6.83" height="12.24"/><ellipse class="cls-2" cx="85.58" cy="183.2" rx="5.69" ry="2.14"/><ellipse class="cls-2" cx="99.25" cy="182.91" rx="5.69" ry="2.14"/><circle class="cls-11" cx="90.71" cy="147.47" r="7.69"/><circle class="cls-6" cx="90.71" cy="147.47" r="2.56"/><path class="cls-3" d="M109.32,182.25c-1.82-8.13,4-16.35,13-18.36s17.72,3,19.54,11.1-4.14,11.13-13.11,13.14S111.14,190.38,109.32,182.25Z" transform="translate(-41 -50)"/><ellipse class="cls-2" cx="150.84" cy="195.43" rx="11.25" ry="3.53" transform="matrix(0.92, -0.39, 0.39, 0.92, -105.73, 25.12)"/><ellipse class="cls-2" cx="108.71" cy="210.52" rx="11.25" ry="3.53" transform="translate(-115.07 9.76) rotate(-23.17)"/><path class="cls-11" d="M144.23,209.71c0,2.2-5.67,6.55-12,6.55S120,212.2,120,210s6-1.71,12.24-1.71S144.23,207.51,144.23,209.71Z" transform="translate(-41 -50)"/></svg>