<svg id="Layer_1" data-name="Layer 1" xmlns="http://www.w3.org/2000/svg" xmlns:xlink="http://www.w3.org/1999/xlink" viewBox="0 0 305 261"><defs><style>.cls-1{fill:#2ab5e3;}.cls-2{fill:#fff;}</style></defs><title>why-5</title><rect class="cls-1" x="50.5" y="23" width="216.5" height="216.5" rx="36.24"/><image width="1004" height="979" transform="translate(58 33) scale(0.2)" xlink:href="../../../../../../../Downloads/photoshop.png"/><circle class="cls-1" cx="28.19" cy="232.22" r="28.19"/><circle class="cls-1" cx="82.19" cy="222.13" r="25.81"/><circle class="cls-1" cx="64.38" cy="218.57" r="27"/><circle class="cls-1" cx="45.99" cy="209.67" r="24.63"/><circle class="cls-1" cx="22.25" cy="205.52" r="18.1"/><circle class="cls-1" cx="59.04" cy="245.27" r="15.73"/><circle class="cls-2" cx="30.05" cy="231.42" r="25.05"/><circle class="cls-2" cx="78.05" cy="222.45" r="22.95"/><circle class="cls-2" cx="62.23" cy="219.29" r="24"/><circle class="cls-2" cx="45.88" cy="211.37" r="21.89"/><circle class="cls-2" cx="24.78" cy="207.68" r="16.09"/><circle class="cls-2" cx="57.48" cy="243.02" r="13.98"/><ellipse class="cls-1" cx="242.36" cy="47.95" rx="45.36" ry="13.39"/><circle class="cls-1" cx="201.76" cy="47.95" r="23.76"/><ellipse class="cls-1" cx="278.22" cy="41.04" rx="26.78" ry="13.39"/><ellipse class="cls-1" cx="254.89" cy="57.88" rx="32.83" ry="13.82"/><ellipse class="cls-1" cx="242.8" cy="30.67" rx="20.73" ry="17.71"/><ellipse class="cls-1" cx="235.45" cy="25.92" rx="33.26" ry="25.92"/><ellipse class="cls-1" cx="228.97" cy="63.07" rx="10.37" ry="16.41"/><ellipse class="cls-2" cx="240.28" cy="47.42" rx="41.07" ry="12.13"/><circle class="cls-2" cx="203.51" cy="47.42" r="21.51"/><ellipse class="cls-2" cx="272.75" cy="41.16" rx="24.25" ry="12.13"/><ellipse class="cls-2" cx="251.63" cy="56.41" rx="29.73" ry="12.52"/><ellipse class="cls-2" cx="240.67" cy="31.77" rx="18.78" ry="16.04"/><ellipse class="cls-2" cx="234.02" cy="27.47" rx="30.12" ry="23.47"/><ellipse class="cls-2" cx="228.16" cy="61.11" rx="9.39" ry="14.86"/></svg>