<svg id="Layer_1" data-name="Layer 1" xmlns="http://www.w3.org/2000/svg" viewBox="0 0 335 179.24"><defs><style>.cls-1{opacity:0.1;isolation:isolate;}.cls-2{fill:#0b92bf;}.cls-3{fill:#e6e6e6;}.cls-4{fill:#3f3d56;}.cls-5{fill:#fff;}</style></defs><title>why-3</title><path class="cls-1" d="M164.91,247.24h13.77V233.48H164.91ZM234,233.48H220.24v13.76H234Zm-41.42,13.76h13.76V233.48H192.58Z" transform="translate(-35 -68)"/><polygon class="cls-1" points="287.38 101.06 316.96 71.57 287.38 42.08 296.4 33.09 335 71.57 296.4 110.05 287.38 101.06 287.38 101.06"/><polygon class="cls-2" points="287.38 95.35 316.96 65.86 287.38 36.37 296.4 27.38 335 65.86 296.4 104.34 287.38 95.35 287.38 95.35"/><path class="cls-2" d="M164.91,240.7h13.77V226.94H164.91ZM234,226.94H220.24V240.7H234ZM192.58,240.7h13.76V226.94H192.58Z" transform="translate(-35 -68)"/><polygon class="cls-1" points="47.62 97.76 18.01 68.27 47.59 38.78 38.57 29.8 0 68.27 38.6 106.75 47.62 97.76"/><polygon class="cls-2" points="47.62 92.05 18.01 62.56 47.59 33.07 38.57 24.08 0 62.56 38.6 101.04 47.62 92.05"/><rect class="cls-3" x="32.1" y="143.63" width="265.98" height="1.14"/><polygon class="cls-3" points="186.53 141.85 143.28 141.85 144.75 122.79 185.07 122.79 186.53 141.85"/><rect class="cls-3" x="141.08" y="139.65" width="48.38" height="4.4"/><path class="cls-4" d="M282.75,68H117.44a4.4,4.4,0,0,0-4.4,4.4h0V173.2H287.15V72.4a4.4,4.4,0,0,0-4.4-4.4Z" transform="translate(-35 -68)"/><path class="cls-3" d="M113,173.2v16.49a4.4,4.4,0,0,0,4.4,4.4H282.75a4.4,4.4,0,0,0,4.4-4.4h0V173.2Z" transform="translate(-35 -68)"/><rect class="cls-3" x="86.83" y="9.16" width="156.88" height="87.97"/><circle class="cls-4" cx="165.27" cy="115.46" r="4.4"/><circle class="cls-5" cx="91.73" cy="12.04" r="0.83"/><circle class="cls-5" cx="94.89" cy="12.04" r="0.83"/><circle class="cls-5" cx="98.06" cy="12.04" r="0.83"/><rect class="cls-5" x="90.89" y="14.88" width="148.3" height="73.88"/><path class="cls-3" d="M135.75,94.12a.52.52,0,0,0-.52.52v26.5a.52.52,0,0,0,.52.53h30.61a.52.52,0,0,0,.52-.53V94.64a.52.52,0,0,0-.52-.52Z" transform="translate(-35 -68)"/><path class="cls-3" d="M184.89,94.2a.52.52,0,0,0-.52.53v26.41a.52.52,0,0,0,.52.53H215.4a.52.52,0,0,0,.52-.53V94.73a.52.52,0,0,0-.52-.53Z" transform="translate(-35 -68)"/><path class="cls-3" d="M233.51,93.93a.52.52,0,0,0-.52.52v26.69a.52.52,0,0,0,.52.53h30.83a.52.52,0,0,0,.52-.53V94.45a.52.52,0,0,0-.52-.52Z" transform="translate(-35 -68)"/><path class="cls-3" d="M136.31,134.78a1.09,1.09,0,0,0,0,2.17h28.78a1.08,1.08,0,0,0,1.08-1.08,1.1,1.1,0,0,0-1.08-1.09Z" transform="translate(-35 -68)"/><path class="cls-2" d="M136.31,139.94a1.09,1.09,0,0,0,0,2.17h13a1.09,1.09,0,0,0,0-2.17Z" transform="translate(-35 -68)"/><path class="cls-3" d="M186,134.78a1.09,1.09,0,0,0-1.08,1.09A1.08,1.08,0,0,0,186,137h28.77a1.07,1.07,0,0,0,1.08-1.08,1.09,1.09,0,0,0-1.08-1.09Z" transform="translate(-35 -68)"/><path class="cls-2" d="M186,139.94a1.09,1.09,0,0,0,0,2.17h13a1.09,1.09,0,1,0,0-2.17Z" transform="translate(-35 -68)"/><path class="cls-3" d="M234.4,134.78a1.09,1.09,0,0,0,0,2.17h28.78a1.08,1.08,0,0,0,1.08-1.08,1.1,1.1,0,0,0-1.08-1.09Z" transform="translate(-35 -68)"/><path class="cls-3" d="M136.31,129.46a1.09,1.09,0,0,0,0,2.17h28.78a1.09,1.09,0,0,0,0-2.17Z" transform="translate(-35 -68)"/><path class="cls-3" d="M186,129.46a1.09,1.09,0,0,0,0,2.17h28.77a1.09,1.09,0,0,0,0-2.17Z" transform="translate(-35 -68)"/><path class="cls-3" d="M234.4,129.46a1.09,1.09,0,0,0,0,2.17h28.78a1.09,1.09,0,0,0,0-2.17Z" transform="translate(-35 -68)"/><path class="cls-2" d="M234.4,139.94a1.09,1.09,0,0,0,0,2.17h13a1.09,1.09,0,0,0,0-2.17Z" transform="translate(-35 -68)"/></svg>