<svg id="Layer_1" data-name="Layer 1" xmlns="http://www.w3.org/2000/svg" viewBox="0 0 400 300"><defs><style>.cls-1{fill:#0b92bf;}.cls-2{fill:#2ab5e3;}.cls-3{fill:#fff;}.cls-4{font-size:21px;fill:#fdffff;font-family:Montserrat-ExtraBold, Montserrat;font-weight:800;}.cls-5{letter-spacing:-0.04em;}.cls-6{letter-spacing:-0.01em;}.cls-7{fill:#2f2e41;}.cls-8{fill:#3f3d56;}.cls-9{fill:#1d1de2;}.cls-10{fill:#e6e8ec;}.cls-11{fill:#e6e6e6;}</style></defs><title>why-2</title><rect class="cls-1" width="200" height="300"/><rect class="cls-2" x="200" width="200" height="300"/><rect class="cls-3" x="196" width="8" height="300"/><text class="cls-4" transform="translate(31.62 42.79)">FRON<tspan class="cls-5" x="63.71" y="0">T</tspan><tspan x="76.25" y="0">-END</tspan></text><text class="cls-4" transform="translate(241.62 42.79)">B<tspan class="cls-6" x="16.15" y="0">A</tspan><tspan x="32.44" y="0">C</tspan><tspan class="cls-5" x="47.94" y="0">K</tspan><tspan x="62.94" y="0">-END</tspan></text><rect class="cls-7" x="250.83" y="92.02" width="97.97" height="131.63"/><rect class="cls-8" x="234" y="88" width="131.63" height="52.25"/><rect class="cls-8" x="234" y="146.28" width="131.63" height="52.25"/><rect class="cls-8" x="234" y="204.56" width="131.63" height="52.25"/><rect class="cls-9" x="234" y="110.15" width="131.63" height="8.04"/><rect class="cls-9" x="234" y="168.43" width="131.63" height="8.04"/><rect class="cls-9" x="234" y="226.71" width="131.63" height="8.04"/><circle class="cls-9" cx="340.01" cy="95.54" r="3.01"/><circle class="cls-9" cx="350.56" cy="95.54" r="3.01"/><circle class="cls-9" cx="340.01" cy="152.81" r="3.01"/><circle class="cls-9" cx="350.56" cy="152.81" r="3.01"/><circle class="cls-9" cx="340.01" cy="210.08" r="3.01"/><circle class="cls-9" cx="350.56" cy="210.08" r="3.01"/><path class="cls-8" d="M145,125.85v19.71a.69.69,0,0,1-.69.68h-.49V248.87a10.7,10.7,0,0,1-10.7,10.71H69a10.71,10.71,0,0,1-10.71-10.71h0v-99h-.35a.48.48,0,0,1-.49-.48V138.15a.49.49,0,0,1,.49-.49h.35v-4.22h-.35a.51.51,0,0,1-.51-.51V121.87a.51.51,0,0,1,.51-.51h.35V115.6h-.36a.45.45,0,0,1-.45-.45h0v-6a.45.45,0,0,1,.45-.45h.36V96.44A10.72,10.72,0,0,1,69,85.73h64.13a10.71,10.71,0,0,1,10.7,10.71v28.73h.49A.69.69,0,0,1,145,125.85Z" transform="translate(0 0)"/><rect class="cls-10" x="92.96" y="91.22" width="11.95" height="2.43" rx="0.76"/><circle class="cls-10" cx="108.09" cy="92.44" r="1.38"/><path class="cls-3" d="M138.7,98.56v151.2a6.8,6.8,0,0,1-6.8,6.79H70.52a6.78,6.78,0,0,1-6.8-6.77V98.56a6.79,6.79,0,0,1,6.8-6.8H79.7v1.18a5.6,5.6,0,0,0,5.6,5.6h31.22a5.6,5.6,0,0,0,5.59-5.6V91.76h9.79a6.8,6.8,0,0,1,6.8,6.79Z" transform="translate(0 0)"/><rect class="cls-11" x="70.14" y="191.3" width="62.39" height="8.1"/><rect class="cls-11" x="70.14" y="205.7" width="62.39" height="8.1"/><rect class="cls-11" x="70.14" y="220.1" width="62.39" height="8.1"/><circle class="cls-9" cx="125.63" cy="113.02" r="6"/><rect class="cls-11" x="70.01" y="133.11" width="62.39" height="41.39"/><path class="cls-8" d="M94.86,156.39c1.82,6.73,8.06,10.9,8.06,10.9s3.29-6.75,1.46-13.48-8.06-10.9-8.06-10.9S93,149.65,94.86,156.39Z" transform="translate(0 0)"/><path class="cls-9" d="M97.54,154.94c5,4.87,5.6,12.35,5.6,12.35s-7.49-.41-12.49-5.28S85,149.66,85,149.66,92.54,150.07,97.54,154.94Z" transform="translate(0 0)"/><path class="cls-8" d="M111.43,156.39c-1.82,6.73-8.06,10.9-8.06,10.9s-3.29-6.75-1.47-13.48,8.07-10.9,8.07-10.9S113.25,149.65,111.43,156.39Z" transform="translate(0 0)"/><path class="cls-9" d="M108.75,154.94c-5,4.87-5.61,12.35-5.61,12.35s7.5-.41,12.5-5.28,5.61-12.35,5.61-12.35S113.75,150.07,108.75,154.94Z" transform="translate(0 0)"/></svg>