<svg id="Layer_1" data-name="Layer 1" xmlns="http://www.w3.org/2000/svg" viewBox="0 0 308.92 181.77"><defs><style>.cls-1{fill:#3f3d56;}.cls-2{fill:#2ab5e3;}.cls-3{fill:#2f2e41;}.cls-4{fill:#fff;}.cls-5{fill:#d0cde1;}.cls-6{fill:#f2f2f2;}.cls-7{fill:#e6e6e6;}</style></defs><title>why-4</title><path class="cls-1" d="M334.49,58.89H225.88V56.65H176.63v2.24H67.57a7.35,7.35,0,0,0-7.35,7.34h0V215a7.35,7.35,0,0,0,7.35,7.34H334.49a7.35,7.35,0,0,0,7.35-7.34h0V66.23a7.35,7.35,0,0,0-7.35-7.34Z" transform="translate(-49.03 -56.65)"/><rect class="cls-2" x="21.04" y="15.22" width="261.91" height="147.75"/><circle class="cls-2" cx="151.77" cy="8.51" r="2.69"/><path class="cls-1" d="M317,90.68H304.54V78.26H317Zm-11.87-.54h11.33V78.8H305.08Z" transform="translate(-49.03 -56.65)"/><path class="cls-1" d="M349.19,216.93H323.63v-1.84a.37.37,0,0,0-.37-.37H314.5a.37.37,0,0,0-.36.37h0v1.84h-5.48v-1.84a.38.38,0,0,0-.37-.37h-8.76a.38.38,0,0,0-.37.37h0v1.84h-5.47v-1.84a.38.38,0,0,0-.37-.37h-8.76a.38.38,0,0,0-.37.37h0v1.84h-5.48v-1.84a.37.37,0,0,0-.36-.37h-8.76a.37.37,0,0,0-.37.37h0v1.84h-5.48v-1.84a.37.37,0,0,0-.36-.37h-8.77a.37.37,0,0,0-.36.37h0v1.84h-5.48v-1.84a.37.37,0,0,0-.36-.37h-8.77a.37.37,0,0,0-.36.37h0v1.84H233.8v-1.84a.37.37,0,0,0-.36-.37H164.79a.37.37,0,0,0-.37.37h0v1.84h-5.48v-1.84a.37.37,0,0,0-.36-.37h-8.76a.37.37,0,0,0-.37.37h0v1.84H144v-1.84a.37.37,0,0,0-.36-.37h-8.77a.37.37,0,0,0-.36.37h0v1.84H129v-1.84a.37.37,0,0,0-.36-.37h-8.77a.37.37,0,0,0-.36.37h0v1.84H114v-1.84a.37.37,0,0,0-.37-.37H104.9a.37.37,0,0,0-.36.37h0v1.84H99.06v-1.84a.38.38,0,0,0-.37-.37H89.93a.38.38,0,0,0-.37.37h0v1.84H84.09v-1.84a.38.38,0,0,0-.37-.37H75a.38.38,0,0,0-.37.37h0v1.84H57.8A8.77,8.77,0,0,0,49,225.69h0v4a8.77,8.77,0,0,0,8.77,8.76H349.19a8.76,8.76,0,0,0,8.76-8.76v-4A8.76,8.76,0,0,0,349.19,216.93Z" transform="translate(-49.03 -56.65)"/><circle class="cls-3" cx="153.47" cy="108.89" r="36.02"/><polygon class="cls-3" points="139.56 158.22 128.79 156.28 132.28 133.79 143.05 135.74 139.56 158.22"/><rect class="cls-3" x="196.69" y="199.49" width="19.61" height="10.94" transform="translate(-81 314.99) rotate(-79.74)"/><ellipse class="cls-3" cx="208.39" cy="214.83" rx="3.42" ry="9.12" transform="translate(-92.46 319.94) rotate(-78.59)"/><ellipse class="cls-3" cx="185.86" cy="214.85" rx="3.42" ry="9.12" transform="matrix(0.13, -0.99, 0.99, 0.13, -100.58, 314.24)"/><circle class="cls-4" cx="156" cy="100.08" r="12.31"/><circle class="cls-1" cx="161.06" cy="95.67" r="4.1"/><path class="cls-4" d="M174.09,126.35c-.54-13.33,10.95-24.63,25.67-25.23s27.09,9.73,27.64,23.07-9.7,16.36-24.42,17S174.63,139.69,174.09,126.35Z" transform="translate(-49.03 -56.65)"/><ellipse class="cls-3" cx="235.77" cy="158.98" rx="18.01" ry="5.65" transform="translate(-78.59 0.05) rotate(-12.91)"/><ellipse class="cls-3" cx="165.06" cy="170.74" rx="18.01" ry="5.65" transform="translate(-83.01 -15.46) rotate(-12.91)"/><path class="cls-4" d="M192.61,179.74a8.21,8.21,0,0,0,16.16,2.92c.8-4.46-2.65-6-7.11-6.84S193.42,175.28,192.61,179.74Z" transform="translate(-49.03 -56.65)"/><rect class="cls-5" x="28.48" y="21.48" width="38.76" height="36.87"/><rect class="cls-4" x="32.89" y="25.88" width="29.95" height="22.91"/><rect class="cls-6" x="32.86" y="51.49" width="16.29" height="0.86"/><rect class="cls-6" x="32.86" y="54.06" width="16.29" height="0.86"/><circle class="cls-1" cx="38.21" cy="37.34" r="3.43"/><circle class="cls-2" cx="47.86" cy="37.34" r="3.43"/><circle class="cls-7" cx="57.51" cy="37.34" r="3.43"/><circle class="cls-1" cx="47.86" cy="23.62" r="1.72"/><rect class="cls-2" x="61.46" y="127.06" width="16.05" height="16.05"/><rect class="cls-5" x="41.65" y="93.58" width="59.23" height="56.34"/><rect class="cls-4" x="48.38" y="100.31" width="45.77" height="35"/><path class="cls-1" d="M113.63,166.72V186.2h19.49V166.72Zm18.64,18.64H114.48V167.57h17.79Z" transform="translate(-49.03 -56.65)"/><rect class="cls-6" x="48.34" y="138.78" width="24.9" height="1.31"/><circle class="cls-1" cx="71.27" cy="96.85" r="2.62"/><rect class="cls-5" x="198.87" y="97.71" width="59.23" height="56.34"/><rect class="cls-4" x="205.6" y="104.44" width="45.77" height="35"/><rect class="cls-1" x="223.56" y="131.84" width="9.85" height="2.92"/><rect class="cls-1" x="211.66" y="109.12" width="33.65" height="1.25"/><rect class="cls-1" x="211.66" y="113.08" width="33.65" height="1.25"/><rect class="cls-1" x="211.66" y="117.04" width="33.65" height="1.25"/><rect class="cls-1" x="211.66" y="121" width="33.65" height="1.25"/><rect class="cls-1" x="211.66" y="124.96" width="33.65" height="1.25"/><rect class="cls-6" x="205.56" y="142.91" width="24.9" height="1.31"/><rect class="cls-6" x="205.56" y="146.19" width="34.72" height="1.31"/><circle class="cls-1" cx="228.49" cy="100.98" r="2.62"/></svg>