<svg id="Layer_1" data-name="Layer 1" xmlns="http://www.w3.org/2000/svg" viewBox="0 0 400 300"><defs><style>.cls-1{fill:none;stroke:#000;stroke-miterlimit:10;stroke-width:2px;}.cls-2{fill:#0b92bf;}.cls-3{fill:#2ab5e3;}.cls-4{font-size:21px;fill:#fdffff;font-family:Montserrat-ExtraBold, Montserrat;font-weight:800;}.cls-5{letter-spacing:-0.01em;}.cls-6{letter-spacing:-0.04em;}</style></defs><title>why-1</title><line class="cls-1" x1="119.5" y1="159.5" x2="149" y2="131"/><line class="cls-1" x1="153.5" y1="222.5" x2="248" y2="223"/><line class="cls-1" x1="255" y1="125" x2="287" y2="157"/><circle class="cls-2" cx="322.5" cy="222.5" r="74.5"/><path class="cls-3" d="M326.5,292A74.49,74.49,0,0,1,252,217.5C252,176.35,367.65,292,326.5,292Z"/><circle class="cls-2" cx="200.5" cy="76.5" r="74.5"/><path class="cls-3" d="M204.5,146A74.49,74.49,0,0,1,130,71.5C130,30.35,245.65,146,204.5,146Z"/><circle class="cls-2" cx="77.5" cy="221.5" r="74.5"/><path class="cls-3" d="M81.5,291A74.49,74.49,0,0,1,7,216.5C7,175.35,122.65,291,81.5,291Z"/><text class="cls-4" transform="translate(266.62 227.79)">B<tspan class="cls-5" x="16.15" y="0">A</tspan><tspan x="32.44" y="0">C</tspan><tspan class="cls-6" x="47.94" y="0">K</tspan><tspan x="62.94" y="0">-END</tspan></text><text class="cls-4" transform="translate(135.62 80.79)">FRON<tspan class="cls-6" x="63.71" y="0">T</tspan><tspan x="76.25" y="0">-END</tspan></text><text class="cls-4" transform="translate(35.62 229.79)">DESIGN</text></svg>