<svg id="Layer_1" data-name="Layer 1" xmlns="http://www.w3.org/2000/svg" xmlns:xlink="http://www.w3.org/1999/xlink" viewBox="0 0 349.84 186.18"><defs><style>.cls-1,.cls-3{fill:#6c63ff;}.cls-1,.cls-2,.cls-7{opacity:0.1;}.cls-1,.cls-6,.cls-7{isolation:isolate;}.cls-4{fill:#3f3d56;}.cls-5{fill:#65617d;}.cls-6{opacity:0.2;}.cls-8{fill:#d4dfec;}.cls-9{fill:#fbbebe;}.cls-10{fill:url(#linear-gradient);}.cls-11{fill:none;stroke:#6c63ff;stroke-miterlimit:10;stroke-width:2px;}</style><linearGradient id="linear-gradient" x1="291.53" y1="-116.53" x2="291.53" y2="10.28" gradientTransform="matrix(1, 0, 0, -1, -79.34, 129.09)" gradientUnits="userSpaceOnUse"><stop offset="0" stop-color="gray" stop-opacity="0.25"/><stop offset="0.54" stop-color="gray" stop-opacity="0.12"/><stop offset="1" stop-color="gray" stop-opacity="0.1"/></linearGradient></defs><title>how-1</title><path class="cls-1" d="M361,207.21l-1.17,2.49c-.6,1.27-1.2,2.52-1.79,3.74l-.78,1.6c-2.89,5.9-5.59,11.12-7.88,15.42a24.59,24.59,0,0,1-21.44,13L277,244h-.53l-4.37.05-3.74,0-11.45.13h-.47l-5.83.06h-.18l-36,.39-32.09.33-3.73,0-23.18.26h0l-15,.16h-.16L92.75,246l-14.22.16a29.64,29.64,0,0,1-9-1.29,29,29,0,0,1-13.13-8.31,67.14,67.14,0,0,1-13.55-23.1c-.43-1.23-.83-2.48-1.21-3.74-10.35-35,2.27-80.14,25-110.35q1.42-1.89,2.9-3.69l0,0A92.88,92.88,0,0,1,92.74,74.8c14.78-9,31.16-11.59,47.27-4A105.66,105.66,0,0,0,178.7,81.07c1.25.08,2.49.14,3.73.18,28.3.89,54.83-9.31,86-15.89l3.74-.77c22.21-4.42,46.86-6.75,76.17-1.85a64.26,64.26,0,0,1,9,2.15c1.29.42,2.54.86,3.74,1.34,14,5.7,21.62,16.21,24.86,29.39.31,1.22.57,2.47.8,3.73C392.44,131.05,375.61,176,361,207.21Z" transform="translate(-38.01 -60)"/><g class="cls-2"><path class="cls-3" d="M92.74,74.8V246l-14.22.15a29.32,29.32,0,0,1-9-1.28V95.63h0A92.49,92.49,0,0,1,92.74,74.8Z" transform="translate(-38.01 -60)"/><path class="cls-3" d="M386.71,99.35H66.65q1.42-1.89,2.9-3.69v0H385.92C386.22,96.85,386.49,98.09,386.71,99.35Z" transform="translate(-38.01 -60)"/><path class="cls-3" d="M361,66.24V209.7h-1.17c-.6,1.27-1.2,2.51-1.79,3.73L357.3,215V64.88C358.59,65.3,359.84,65.75,361,66.24Z" transform="translate(-38.01 -60)"/><path class="cls-3" d="M272.14,64.58V244.07l-3.74,0V65.35C269.64,65.08,270.88,64.83,272.14,64.58Z" transform="translate(-38.01 -60)"/><path class="cls-3" d="M182.43,81.24V245.05l-3.73,0v-164C180,81.14,181.19,81.18,182.43,81.24Z" transform="translate(-38.01 -60)"/><path class="cls-3" d="M359.87,209.7c-.6,1.27-1.2,2.52-1.79,3.74H42.88c-.43-1.23-.83-2.48-1.21-3.74Z" transform="translate(-38.01 -60)"/></g><rect class="cls-4" x="71.09" y="89.3" width="6.38" height="19.37"/><rect class="cls-4" x="242.88" y="88.29" width="6.38" height="20.49"/><polygon class="cls-5" points="289.97 179.28 289.97 183.65 238.93 184.12 238.39 184.13 218.99 184.31 218.53 184.31 212.63 184.36 212.46 184.36 176.51 184.69 117.51 185.24 117.46 185.24 102.46 185.38 102.3 185.39 35.64 186 35.64 180.96 51.32 171.55 82.76 171.29 83.44 171.29 83.66 171.28 84.33 171.27 99.43 171.15 100.1 171.15 100.32 171.14 100.99 171.14 105.83 171.1 105.96 171.09 117.9 171 118 171 211.2 170.21 213.48 170.19 213.71 170.19 215.45 170.18 228.1 170.07 228.77 170.06 229.39 170.05 229.71 170.05 233.65 170.02 234.43 170.01 235.47 170.01 238.75 169.98 243.94 169.93 244.62 169.93 245.79 169.92 246 169.92 271.11 169.7 289.97 179.28"/><polygon class="cls-6" points="289.97 179.28 289.97 183.65 238.93 184.12 238.39 184.13 218.99 184.31 218.53 184.31 212.63 184.36 212.46 184.36 176.51 184.69 117.51 185.24 117.46 185.24 102.46 185.38 102.3 185.39 35.64 186 35.64 180.96 51.32 171.55 82.76 171.29 83.44 171.29 83.66 171.28 84.33 171.27 99.43 171.15 100.1 171.15 100.32 171.14 100.99 171.14 105.83 171.1 105.96 171.09 117.9 171 118 171 211.2 170.21 213.48 170.19 213.71 170.19 215.45 170.18 228.1 170.07 228.77 170.06 229.39 170.05 229.71 170.05 233.65 170.02 234.43 170.01 235.47 170.01 238.75 169.98 243.94 169.93 244.62 169.93 245.79 169.92 246 169.92 271.11 169.7 289.97 179.28"/><path class="cls-4" d="M137.49,222.48v8.23a2.1,2.1,0,0,1-2,2.07l-11.72.24a1.89,1.89,0,0,1-.91-.19,2,2,0,0,1-1.2-1.87v-8.48Z" transform="translate(-38.01 -60)"/><path class="cls-7" d="M137.49,222.48v8.23a2.1,2.1,0,0,1-2,2.07l-11.72.24a1.89,1.89,0,0,1-.91-.19,2,2,0,0,1-1.2-1.87v-8.48Z" transform="translate(-38.01 -60)"/><path class="cls-4" d="M138.16,222.48v8.23a2.05,2.05,0,0,1-1.18,1.86,2,2,0,0,1-.84.21l-11.72.24a1.94,1.94,0,0,1-.91-.19,2,2,0,0,1-1.2-1.87v-8.48Z" transform="translate(-38.01 -60)"/><rect class="cls-4" x="228.77" y="162.48" width="15.85" height="10.58"/><rect class="cls-7" x="228.77" y="162.48" width="15.85" height="10.58"/><rect class="cls-4" x="228.1" y="162.48" width="15.85" height="10.58"/><polygon class="cls-7" points="77.47 89.3 77.47 91.22 71.09 91.06 71.09 89.3 77.47 89.3"/><path class="cls-5" d="M157.5,95.06l-7.67,55.1a1.44,1.44,0,0,1-1.47,1.25l-61.42-1.59-1.16,0a1.44,1.44,0,0,1-1.41-1.48.86.86,0,0,1,0-.16L93,90.47a1.45,1.45,0,0,1,1.53-1.22l61.63,4.17A1.44,1.44,0,0,1,157.51,95S157.5,95,157.5,95.06Z" transform="translate(-38.01 -60)"/><polygon class="cls-3" points="59.1 33.3 52.61 84.15 109.05 85.94 115.99 36.88 59.1 33.3"/><rect class="cls-5" x="129.21" y="32.52" width="68.76" height="58.23" rx="1.79"/><rect class="cls-3" x="132.46" y="36.44" width="62.49" height="48.49"/><polygon class="cls-7" points="249.26 88.29 249.26 89.56 242.88 89.69 242.88 88.29 249.26 88.29"/><path class="cls-5" d="M316.08,147.21a1,1,0,0,1-1,1.1h0l-62.89,1.3a1,1,0,0,1-1.06-.94l-5.4-56.2a1,1,0,0,1,.93-1.13h0l62.42-3.1.67,0a1,1,0,0,1,1.08.94Z" transform="translate(-38.01 -60)"/><polygon class="cls-3" points="211.3 34.65 268.3 31.84 273.12 82.91 216.56 84.26 211.3 34.65"/><path class="cls-7" d="M316.08,147.21a1,1,0,0,1-1,1.1h0l-5.95-60.08.67,0a1,1,0,0,1,1.08.94Z" transform="translate(-38.01 -60)"/><path class="cls-7" d="M94.53,89.25l-7.59,60.57-1.16,0a1.44,1.44,0,0,1-1.41-1.48.86.86,0,0,1,0-.16L93,90.47A1.45,1.45,0,0,1,94.53,89.25Z" transform="translate(-38.01 -60)"/><rect class="cls-7" x="71.09" y="102.93" width="6.38" height="5.74"/><polygon class="cls-7" points="100.15 162.48 100.15 164.15 84.3 164.57 84.3 162.48 100.15 162.48"/><path class="cls-5" d="M166.13,164.93v56.51a1.35,1.35,0,0,1-1.29,1.33l-64.39,1.71h0a1.34,1.34,0,0,1-1.33-1.32V164.93a1.33,1.33,0,0,1,1.33-1.32H164.8A1.33,1.33,0,0,1,166.13,164.93Z" transform="translate(-38.01 -60)"/><path class="cls-7" d="M100.45,163.61v60.87h0a1.34,1.34,0,0,1-1.33-1.32V164.93a1.33,1.33,0,0,1,1.33-1.32Z" transform="translate(-38.01 -60)"/><polygon class="cls-8" points="65.38 107.21 125.01 107.21 125.01 157.02 65.38 158.37 65.38 107.21"/><rect class="cls-7" x="242.88" y="102.93" width="6.38" height="5.85"/><polygon class="cls-7" points="243.94 162.48 243.94 164.63 228.1 164.21 228.1 162.48 243.94 162.48"/><path class="cls-5" d="M302.87,164.93v58.23a1.34,1.34,0,0,1-1.34,1.32h0l-64.41-1.71a1.35,1.35,0,0,1-1.29-1.33V164.93a1.33,1.33,0,0,1,1.33-1.32h64.37A1.34,1.34,0,0,1,302.87,164.93Z" transform="translate(-38.01 -60)"/><path class="cls-7" d="M302.87,164.93v58.23a1.34,1.34,0,0,1-1.34,1.32h0V163.61h0A1.34,1.34,0,0,1,302.87,164.93Z" transform="translate(-38.01 -60)"/><polygon class="cls-8" points="260.58 107.21 200.94 107.21 200.94 157.02 260.58 158.37 260.58 107.21"/><path class="cls-5" d="M234.16,164.93v56.51a1.33,1.33,0,0,1-1.29,1.33l-64.39,1.71h0a1.34,1.34,0,0,1-1.34-1.32V164.93a1.33,1.33,0,0,1,1.32-1.32h64.38A1.32,1.32,0,0,1,234.16,164.93Z" transform="translate(-38.01 -60)"/><polygon class="cls-8" points="133.41 107.21 193.05 107.21 193.05 157.02 133.41 158.37 133.41 107.21"/><polygon class="cls-7" points="289.97 179.28 289.97 183.65 238.93 184.12 238.39 184.13 218.99 184.31 218.53 184.31 212.63 184.36 212.46 184.36 176.51 184.69 117.51 185.24 117.46 185.24 102.46 185.38 102.3 185.39 35.64 186 35.64 180.96 103.68 180.51 103.84 180.51 117.61 180.42 117.68 180.42 212.78 179.79 212.88 179.79 212.94 179.79 213.1 179.79 214.71 179.78 215.2 179.78 240.22 179.61 241.7 179.6 242.03 179.6 289.97 179.28"/><circle class="cls-9" cx="163.7" cy="91.43" r="17.25"/><path class="cls-10" d="M140.28,245.51a.53.53,0,0,1,0-.12c.34-1.21.93-3.25,1.38-4.88.06-.2.11-.4.16-.59.5-1.83,1.46-6.14,2-8.82.19-.95.34-1.68.37-2a57.25,57.25,0,0,1,2.22-5.79c.8-2,1.68-4.11,2.32-5.91a21.34,21.34,0,0,0,1-3.31,1.75,1.75,0,0,0,0-.72,4.65,4.65,0,0,1-.16-1.17h0c-.08-2.09.54-5.38,1.5-6.76,1.18-1.68,2-7.95,2-7.95s1.74.25,2-1.18a2.59,2.59,0,0,0,0-.48,2.4,2.4,0,0,0,0-.37c-.3-2.09,4.94-4.33,7.89-4.81a8.61,8.61,0,0,1,1-.09,9.41,9.41,0,0,0,2.1-.48l1-.34c1.23-.42,2.71-1,4.28-1.57,5.9-2.29,13-5.38,13-5.38.05-.24.11-.46.18-.69a9.3,9.3,0,0,1,5.49-6.36h0V175c0-1.16-.05-2.35-.1-3.54,0-.23,0-.47,0-.7v-.38c0-.23,0-.47,0-.7l-.06,0a5.33,5.33,0,0,1-1.31-1.41,4.68,4.68,0,0,1-.48-1,30.48,30.48,0,0,1-.8-3.61l-.06-.25a29.74,29.74,0,0,0-1.34-3.55c-.75-1.82-1.32-3.7-1.89-5.59-.34-1.15-.69-2.31-1-3.46l-.53-1.76c-.1-.34-.2-.67-.28-1h0a3.55,3.55,0,0,1-.09-.47h0a3.54,3.54,0,0,1,.08-1.55,9,9,0,0,1,.45-1,2.6,2.6,0,0,0,.16-.47h0l0-.11a2.09,2.09,0,0,0,0-.36,5.82,5.82,0,0,0-.18-1.31h0s0-.06,0-.09a8.69,8.69,0,0,1-.12-1,9.53,9.53,0,0,1,1.16-5.23l.06-.12a10.18,10.18,0,0,1,.62-.94h0c.11-.14.21-.27.34-.41a1.2,1.2,0,0,1-1.68-.23,1.18,1.18,0,0,1-.19-.25l-.07-.15s0-.09,0-.13a2.77,2.77,0,0,1,.72-2.37,6.23,6.23,0,0,1,1.92-1.58h0l.14-.07a5.31,5.31,0,0,1,.89-.35h0l.54-.15-1.24-.12-.51,0a4.88,4.88,0,0,1,4.37-3.67h.36a3.07,3.07,0,0,1,.53,0,1.51,1.51,0,0,1-.89-1.46,4.86,4.86,0,0,0,3.09,1h.13a10,10,0,0,1-.12-1.1h0a12.51,12.51,0,0,1,0-1.5,2.83,2.83,0,0,0,2.28.76l-.7-1a3.24,3.24,0,0,0,2.2.69l.17,0a3.14,3.14,0,0,0,.4-.08h0a1.44,1.44,0,0,1-.18-.25l0,0a3.77,3.77,0,0,1-.34-.7c0-.1-.06-.2-.08-.3h0a3,3,0,0,1,.15-1.83c1.09.91,2.28,2.15,3.7,1.21s1.47-2.65,3.69-2.48a3.44,3.44,0,0,1,2.83,2.06,2.26,2.26,0,0,1,2.58-.59,2.29,2.29,0,0,1,1.3,2.31,4.64,4.64,0,0,1,2.8-.11,1.64,1.64,0,0,1,1,2.24l0,.07c-.41.53-1.32.82-1.23,1.5l.14.1.44.31h0q2.56,1.86,5,3.9a4,4,0,0,1,1.77,2.63,2.69,2.69,0,0,1-.08.8h0c0,.26-.12.52-.18.78a6.66,6.66,0,0,0-.12,2h0l.09.59c.52,2.59,2.6,4.74,2.8,7.39V145a8.1,8.1,0,0,1,0,.85,18.14,18.14,0,0,1-1.51,4.7c0,.09-.07.19-.11.28a47.79,47.79,0,0,0-2.35,9.46,32.24,32.24,0,0,1-.67,3.39,9.05,9.05,0,0,1-1.71,3.51,5.67,5.67,0,0,1-1.13,1,5.86,5.86,0,0,1-.89.48v0c0,.2.07.41.1.61a3.43,3.43,0,0,1,.06.34h0v0c.28,1.59.61,3.14.95,4.62l.17.74c4.23,1.53,4.73,4.66,4.76,5.86a3.84,3.84,0,0,1,0,.48s6.38.17,8.9,2a7.28,7.28,0,0,0,1.52.78,30.28,30.28,0,0,0,3.11,1c.54.14,1.1.28,1.68.41,1,.23,2.07.46,3.11.67,2.75.56,5.34,1,6.65,1.35,3.14.79,10.31,7.66,10.31,7.66s.84,6.94,1.67,7.95a30.13,30.13,0,0,1,2.36,4.57l5.55,9.88,2.36,4.15h1.51a2.58,2.58,0,0,1,1.08.71c.4.35.84.8,1.23,1.2l.64.69.41.45s2.44.06,3.1,2a15,15,0,0,1,6.14.84,4.42,4.42,0,0,1,.68.36,2.92,2.92,0,0,1,1.38,1.9,2,2,0,0,1,.06.49V231c-.12,2.54-1.77,4.66-3.3,6.08l.11.19-.15.34c0,.06-.06.13-.09.21h0c-.2.43-.52,1.06-.93,1.81a21.47,21.47,0,0,1-3.22,4.42l-.09.1-19.4.18-.06-.07-3.76-4.49-1.87-2.23-.06-.07-.06.54-.18,1.78-.43,4.3,0,.22v0l-.05.5,0-.5h-.1l-35.95.34-59,.65v.28h-.05v-.28l-15,.16Z" transform="translate(-38.01 -60)"/><path class="cls-9" d="M219,186.7s-33.43,4-30.24,0c1.16-1.45,1.48-5.78,1.42-10.7,0-1.49-.08-3-.16-4.58-.37-7.39-1.26-14.62-1.26-14.62S218,143,214.59,154c-1.34,4.41-.9,10.6.12,16.42.3,1.7.65,3.36,1,4.94A115.43,115.43,0,0,0,219,186.7Z" transform="translate(-38.01 -60)"/><path class="cls-7" d="M219,186.7s-33.43,4-30.24,0c1.16-1.45,1.48-5.78,1.42-10.7,5.09-2.17,11.58-.55,11.58-.55,6.82-1.36,11.2-1.1,14-.14A115.43,115.43,0,0,0,219,186.7Z" transform="translate(-38.01 -60)"/><path class="cls-3" d="M155.51,245.62v-.28l59-.64,36-.34h.1l0,.5.05-.5h.06v-.05l.46-4.52.18-1.71.05-.54,0-.44,2.07-6.93,2.08-6.91,1.75-5.83,2.66-8.89a29.89,29.89,0,0,0-2.35-4.54c-.84-1-1.68-7.89-1.68-7.89s-7.17-6.83-10.3-7.62c-1.32-.34-3.91-.78-6.66-1.34-1-.21-2.09-.43-3.11-.68-.58-.13-1.14-.26-1.68-.4a30.23,30.23,0,0,1-3.11-1,7.16,7.16,0,0,1-1.51-.77c-2.47-1.81-8.66-2-8.9-2h0v0a2.94,2.94,0,0,0,0-.42,2.8,2.8,0,0,0,0-.48.44.44,0,0,0,0-.16c0-.12,0-.25-.07-.39a.85.85,0,0,0,0-.17,6.14,6.14,0,0,0-.42-1.18l-.08-.16a7.48,7.48,0,0,0-.57-.89s-.09-.11-.14-.17a7,7,0,0,0-.92-.89l-.28-.21-.17-.12-.3-.19-.28-.17q-.36-.19-.78-.39l-.28-.11-.37-.14h0l-.25-.1c-.19-.07-.38-.12-.59-.18l-.31-.08-.34-.08-.33-.07c-.34-.06-.7-.13-1.08-.17l-.38,0-.39,0-.41,0-.58,0-.67,0a41.4,41.4,0,0,0-8.81.94,24.4,24.4,0,0,0-6.14-.57h-.29l-.34,0h-.21l-.44,0a3.15,3.15,0,0,0-.43.05l-.44.06-.22,0-.68.12-.22.06c-.29.06-.58.14-.87.22l-.43.14-.22.08-.21.07-.22.09-.25.1-.37.17a1,1,0,0,0-.21.1l-.2.1a9.31,9.31,0,0,0-2.09,1.48l-.17.16-.17.17-.16.18a7.6,7.6,0,0,0-.62.76L186,180a8.71,8.71,0,0,0-.58,1l-.12.25a9.83,9.83,0,0,0-.67,1.76c-.07.22-.12.45-.18.67s-7.11,3.14-13,5.41c-1.57.61-3,1.15-4.28,1.57l-1,.33a8.91,8.91,0,0,1-2.1.49,5.75,5.75,0,0,0-1,.09c-2.71.44-7.36,2.35-7.86,4.27a1.23,1.23,0,0,0,0,.47v0c.34,2.35-2,2-2,2s-.84,6.22-2,7.9a13.18,13.18,0,0,0-1.5,5.94h0a6.31,6.31,0,0,0,.14,1.89v.05a8.13,8.13,0,0,1-.73,3.26c-.6,1.73-1.46,3.88-2.3,5.91a69.14,69.14,0,0,0-2.51,6.45c0,.28-.12.76-.24,1.39-.49,2.56-1.58,7.44-2.11,9.41-.4,1.47-1,3.49-1.38,4.87a.56.56,0,0,1,0,.12l15.06-.15v.28h0Z" transform="translate(-38.01 -60)"/><path class="cls-7" d="M161,206s19.15,9.91,26,8.74Z" transform="translate(-38.01 -60)"/><path class="cls-7" d="M200,202s18.65,6,24.86,6.89S200,202,200,202Z" transform="translate(-38.01 -60)"/><path class="cls-7" d="M220.66,182.53c-9.74,1.79-28.09,1.41-36,1.14,2.9-10.42,17.07-6.88,17.07-6.88C219.26,173.29,220.61,180.56,220.66,182.53Z" transform="translate(-38.01 -60)"/><path class="cls-3" d="M220.66,181.86c-9.74,1.79-28.09,1.41-36,1.13,2.9-10.41,17.07-6.87,17.07-6.87C219.26,172.62,220.61,179.88,220.66,181.86Z" transform="translate(-38.01 -60)"/><path class="cls-9" d="M272.38,227.78s11.48-1.77,11.7,3.27-5.85,8.56-5.85,8.56Z" transform="translate(-38.01 -60)"/><path class="cls-7" d="M214.71,170.37c-.49.22-1,.41-1.51.58a54.07,54.07,0,0,1-11.09,3A18.11,18.11,0,0,1,191,172.07a10.82,10.82,0,0,1-1-.65c-.37-7.39-1.26-14.62-1.26-14.62S217.93,143,214.57,154C213.24,158.36,213.69,164.55,214.71,170.37Z" transform="translate(-38.01 -60)"/><path class="cls-4" d="M197,124.47a3.15,3.15,0,0,1-2.79-.59l.7,1a2.84,2.84,0,0,1-2.28-.75,10.78,10.78,0,0,0,.11,2.6,4.86,4.86,0,0,1-3.22-1,1.49,1.49,0,0,0,.89,1.45,4.83,4.83,0,0,0-5.24,3.6l1.75.16a6.21,6.21,0,0,0-3.5,2.14,2.73,2.73,0,0,0-.72,2.35c.24.82,1.37,1.35,2,.76a9.4,9.4,0,0,0-2,7.66,5,5,0,0,1,.16,1.77,14,14,0,0,1-.64,1.57,5.11,5.11,0,0,0,.28,3l1.58,5.18c.57,1.87,1.14,3.74,1.89,5.55a29.6,29.6,0,0,1,1.34,3.54c.42,1.62.44,3.4,1.34,4.82A6.62,6.62,0,0,0,191,171.4a18.17,18.17,0,0,0,11.14,1.85,54.23,54.23,0,0,0,11.07-3,10.17,10.17,0,0,0,2.29-1c2.51-1.64,3.06-5,3.53-7.94a45.21,45.21,0,0,1,2.45-9.68c.73-1.84,1.68-3.71,1.52-5.69-.21-2.62-2.28-4.75-2.8-7.33a6.38,6.38,0,0,1,0-2.61,5.62,5.62,0,0,0,.26-1.58,4,4,0,0,0-1.77-2.61q-2.72-2.27-5.6-4.28c-.1-.67.82-1,1.23-1.49.58-.75,0-1.94-.91-2.29a4.63,4.63,0,0,0-2.8.11,2.21,2.21,0,0,0-3.88-1.72,3.44,3.44,0,0,0-2.83-2c-2.23-.17-2.27,1.53-3.7,2.47s-2.6-.3-3.69-1.2A3.11,3.11,0,0,0,197,124.47Z" transform="translate(-38.01 -60)"/><path class="cls-3" d="M280.89,237.86s-.3.71-.85,1.74a23,23,0,0,1-3,4.42l-.09.1h-.55l-19.4.18h-.46l-.06-.07-3.76-4.46-1.42-1.69-.06-.07-.12-.14-.06-.08-.09-.1-2.76-3.28,1-4.19,1.72-7.08,0-.17.34-1.35.23-1,.8-3.29,2.75-11.3,4.87,2.51,5.13,9.08,2.76,4.87h1.51c.29,0,.94.55,1.6,1.18l.68.68c.59.61,1.07,1.14,1.07,1.14s2.45.06,3.1,2a1.52,1.52,0,0,1,.09.28,13.44,13.44,0,0,0,.85,2.21c.43.94,1,2,1.53,3.08,1,2,2.06,3.84,2.45,4.52l0,.08Z" transform="translate(-38.01 -60)"/><path class="cls-7" d="M252,222.69l0,.48v0l-.06.77-.45,6.22-.54,7.49-.15,2.11-.34,4.52v.06l-36,.33-59,.64v.28h-.05v-.37l.15-4.83.29-9.43.25-8,0-.79a3.53,3.53,0,0,1,3.64-3.43H160c1.59.13,3.65.3,6.11.47l1,.08c14.22,1,40.5,2.26,67,.67l1.68-.11c4.12-.25,8.23-.59,12.29-1a3.53,3.53,0,0,1,3.89,3.15,3.2,3.2,0,0,1,0,.62Z" transform="translate(-38.01 -60)"/><path class="cls-4" d="M155.51,245.62v-.28l59-.64,36-.34h.1v-.05l.34-4.52.14-2,.55-7.59.44-6V224a3.28,3.28,0,0,0,0-.83v0a3.5,3.5,0,0,0-.67-1.56,3.55,3.55,0,0,0-3.17-1.34c-4.06.42-8.17.75-12.29,1l-1.68.1c-26.52,1.58-52.8.3-67-.67l-1-.07c-2.46-.18-4.52-.34-6.11-.48a3.55,3.55,0,0,0-3.77,2.87,2.51,2.51,0,0,0-.06.55L156,231l-.32,9.44-.14,4.82v.36Z" transform="translate(-38.01 -60)"/><path class="cls-7" d="M252.13,225l-.41,5.15-.62,7.68-.15,1.92-.34,4.3,0,.22v.06h0l-.05.49,0-.49h-.1l-35.95.33-59,.64v-.09l.16-4.83L156,231l.22-6.26a2.13,2.13,0,0,1,1-1.77,2.18,2.18,0,0,1,1.27-.3l2.59.2c1.64.12,3.67.26,6,.41,4.37.28,9.85.57,16.13.81,17.47.68,41.06.9,63.46-1.06l3.07-.28A2.07,2.07,0,0,1,251,223a1.75,1.75,0,0,1,.29.18,2.09,2.09,0,0,1,.67.83,1.19,1.19,0,0,1,.08.2A2.16,2.16,0,0,1,252.13,225Z" transform="translate(-38.01 -60)"/><path class="cls-7" d="M138.16,229.64v1.07a2.05,2.05,0,0,1-1.18,1.86l-13.47.26a2,2,0,0,1-1.2-1.87v-1Z" transform="translate(-38.01 -60)"/><polygon class="cls-4" points="100.32 173.21 82.76 173.54 82.76 170.63 100.32 170.29 100.32 173.21"/><polygon class="cls-7" points="100.32 173.21 82.76 173.54 82.76 170.63 100.32 170.29 100.32 173.21"/><polygon class="cls-4" points="100.99 173.21 83.44 173.54 83.44 170.63 100.99 170.29 100.99 173.21"/><g class="cls-2"><path d="M197.12,123.37a3.18,3.18,0,0,1-.63-1.46,3,3,0,0,0,.14,1.55A4.21,4.21,0,0,0,197.12,123.37Z" transform="translate(-38.01 -60)"/><path d="M192.85,125.6c-.06-.41-.1-.83-.12-1.24v1.24Z" transform="translate(-38.01 -60)"/><path d="M220.23,136.81a5.31,5.31,0,0,1,.13-.89,6,6,0,0,0,.26-1.57,1.49,1.49,0,0,0-.05-.36c-.06.31-.15.62-.21.92A6.41,6.41,0,0,0,220.23,136.81Z" transform="translate(-38.01 -60)"/><path d="M213.25,126.43l.36.27a7.81,7.81,0,0,0,.87-.75,1.24,1.24,0,0,0,.12-1.22.88.88,0,0,1-.12.21C214.06,125.47,213.15,125.76,213.25,126.43Z" transform="translate(-38.01 -60)"/><path d="M185.64,129.66a4.2,4.2,0,0,0-.29.77,5.9,5.9,0,0,1,1.68-.64Z" transform="translate(-38.01 -60)"/><path d="M190.27,126a4.31,4.31,0,0,1-.63-.42,1.33,1.33,0,0,0,0,.4A4,4,0,0,1,190.27,126Z" transform="translate(-38.01 -60)"/><path d="M223.12,145.8a17.63,17.63,0,0,1-1.51,4.75,45.06,45.06,0,0,0-2.45,9.68c-.47,3-1,6.3-3.53,7.94a10.17,10.17,0,0,1-2.29,1,53.58,53.58,0,0,1-11.09,3,18.11,18.11,0,0,1-11.14-1.84,6.86,6.86,0,0,1-2.41-2.13c-.9-1.42-.92-3.2-1.35-4.83a26.4,26.4,0,0,0-1.34-3.53c-.74-1.81-1.31-3.7-1.88-5.55s-1-3.46-1.58-5.19a9.68,9.68,0,0,1-.38-1.59,6,6,0,0,0,.38,2.6c.53,1.73,1,3.46,1.58,5.18.57,1.87,1.14,3.75,1.88,5.56a25.89,25.89,0,0,1,1.34,3.53c.43,1.63.44,3.41,1.35,4.83a6.86,6.86,0,0,0,2.41,2.13,18.12,18.12,0,0,0,11.14,1.84,54.12,54.12,0,0,0,11.09-3,10.14,10.14,0,0,0,2.29-1c2.51-1.64,3.06-5,3.53-8a45.36,45.36,0,0,1,2.45-9.68c.73-1.84,1.68-3.71,1.52-5.69C223.13,145.84,223.12,145.82,223.12,145.8Z" transform="translate(-38.01 -60)"/><path d="M182.91,144.5v0a4.59,4.59,0,0,0-.16-1.77,10.49,10.49,0,0,1-.13-1.11,9.41,9.41,0,0,0,.13,2.12C182.81,144,182.87,144.24,182.91,144.5Z" transform="translate(-38.01 -60)"/><path d="M183.93,136.28a9.52,9.52,0,0,1,.88-1.23c-.61.59-1.75.06-2-.75a1.92,1.92,0,0,0,0,1A1.46,1.46,0,0,0,183.93,136.28Z" transform="translate(-38.01 -60)"/></g><path class="cls-7" d="M267.85,222.48a14.69,14.69,0,0,1,0,7.23C266.78,233.07,267.85,222.48,267.85,222.48Z" transform="translate(-38.01 -60)"/><path class="cls-7" d="M272.38,226.43s.45,4.9-.56,5.77S272.38,226.43,272.38,226.43Z" transform="translate(-38.01 -60)"/><line class="cls-11" x1="66.85" y1="115.18" x2="100.99" y2="114.84"/><line class="cls-11" x1="66.85" y1="119.37" x2="100.99" y2="119.04"/><line class="cls-11" x1="66.85" y1="123.56" x2="100.99" y2="123.23"/></svg>