<svg id="Layer_1" data-name="Layer 1" xmlns="http://www.w3.org/2000/svg" xmlns:xlink="http://www.w3.org/1999/xlink" viewBox="0 0 352.47 232.7"><defs><style>.cls-1,.cls-10{fill:#6c63ff;}.cls-1,.cls-11,.cls-16,.cls-9{opacity:0.1;}.cls-1,.cls-11,.cls-16,.cls-8{isolation:isolate;}.cls-2{fill:url(#linear-gradient);}.cls-3{fill:#3a3768;}.cls-4{fill:#3f3d56;}.cls-5{fill:#f86d70;}.cls-6{fill:#a1616a;}.cls-7{fill:#ee8e9e;}.cls-20,.cls-8{opacity:0.05;}.cls-12{fill:#efb7b9;}.cls-13{fill:#4c4981;}.cls-14{fill:#444053;}.cls-15{fill:#925978;}.cls-16{fill:#fff;}.cls-17{fill:none;stroke:#444053;stroke-miterlimit:10;}.cls-18{fill:url(#linear-gradient-2);}.cls-19{fill:#2d293d;}.cls-21{fill:#ffcdd3;}.cls-22{fill:#dce6f2;}</style><linearGradient id="linear-gradient" x1="1476.09" y1="22.61" x2="1525.04" y2="22.61" gradientTransform="translate(1813.6 214.89) rotate(180)" gradientUnits="userSpaceOnUse"><stop offset="0" stop-color="gray" stop-opacity="0.25"/><stop offset="0.54" stop-color="gray" stop-opacity="0.12"/><stop offset="1" stop-color="gray" stop-opacity="0.1"/></linearGradient><linearGradient id="linear-gradient-2" x1="240.66" y1="23.54" x2="240.66" y2="133.91" gradientTransform="matrix(-1, -0.04, 0.04, -1, 434.04, 236.22)" xlink:href="#linear-gradient"/></defs><title>how-5</title><circle class="cls-1" cx="316.03" cy="118.99" r="6.94"/><circle class="cls-1" cx="340.84" cy="88.07" r="11.62"/><circle class="cls-1" cx="146" cy="8.91" r="6.94"/><circle class="cls-1" cx="225.56" cy="16.88" r="6.94"/><circle class="cls-1" cx="11.62" cy="104.6" r="11.62"/><path class="cls-1" d="M220,72.37c-20.75-.77-40.51-8-59.39-15.85S123,39.93,102.79,35.76c-13-2.69-27.92-3.07-38.42,4.44C54.25,47.43,51,59.88,49.24,71.44c-1.32,8.71-2.1,17.87,1.52,26,2.51,5.66,7,10.41,10.06,15.82,10.73,18.85,3.14,42.1-8.49,60.5-5.45,8.63-11.78,16.87-16,26.06s-6.16,19.72-2.49,29.09,12.35,16.27,21.77,21.17c19.14,10,41.69,12.82,63.69,14.43,48.68,3.57,97.63,2,146.44.47,18.06-.57,36.21-1.15,54-4.17,9.87-1.66,20.06-4.31,27.22-10.69,9.1-8.11,11.35-21.83,5.25-32-10.22-17-38.47-21.28-45.63-39.58-3.93-10.07.11-21.28,5.82-30.62,12.26-20,32.82-37.61,33.9-60.51C347,71.72,337.15,56,321.88,48.51c-16-7.8-38.22-6.82-50,6.09C259.69,68,238.32,73.05,220,72.37Z" transform="translate(-25 -34)"/><path class="cls-2" d="M288.56,160.86A1.87,1.87,0,0,0,289,162a6.24,6.24,0,0,0,1.7,1.45v1.74s5.13,4.29,6.19,5.91a17.4,17.4,0,0,0,3.5,4.27,3.09,3.09,0,0,0,1.3.69h.09a1.38,1.38,0,0,1-.5.32,1.19,1.19,0,0,0,1.34,1h.06a2.22,2.22,0,0,0,.69-.34l2-1.32a5.47,5.47,0,0,0,.95-.71c.38-.38.64-.85,1-1.25.65-.66,1.56-1.06,2-1.86a9.15,9.15,0,0,0,.5-1.64c.11-.36.28-.7.39-1.06a5.13,5.13,0,0,0,.13-.66l.22.18c.16-.11.46.16.39.34s-.24.3-.3.47c-.13.42.38.72.59,1.09a2.92,2.92,0,0,1,.12,1.29c0,.42.22.94.28,1.41.15,1.12-.4,2.3,0,3.35a1.07,1.07,0,0,0-1,.81,3.14,3.14,0,0,0,0,1.43,2,2,0,0,0-1,1.79.44.44,0,0,1,0,.32.52.52,0,0,1-.19.11,1.8,1.8,0,0,0-1.11,1.68,1.1,1.1,0,0,1,0,.36,1,1,0,0,1-.27.27,2.1,2.1,0,0,0-.78,1.63,1.2,1.2,0,0,0,.55,1.07h0a5.79,5.79,0,0,0-1.93,3.65,15.42,15.42,0,0,0,.25,3.78h.12v.1a1.72,1.72,0,0,0,.18.54,7.84,7.84,0,0,1,.69,2.81,2.44,2.44,0,0,0,.1.71,3.46,3.46,0,0,0,.36.62,6.5,6.5,0,0,1,.67,2.34,18.05,18.05,0,0,0,.82,3.07c.49,1.36,1.15,2.75.92,4.17a4.46,4.46,0,0,0-.12,1,3,3,0,0,0,.4,1.08c.16.32.32.66.45,1a.82.82,0,0,0,.2.54c0,.11.07.22.1.32s.05.17.08.26a3.13,3.13,0,0,1,.1.44l0,.33v.32a.8.8,0,0,1-.15.29l-.09.09-.07.09a.47.47,0,0,0-.09.12h0a.59.59,0,0,0,0,.37.42.42,0,0,0,0,.15c.08.34.16.69.25,1,0,.11,0,.21.08.32l.21.81v0l.05.18.19.66c0,.13.07.26.11.39l.14.48c.11.37.22.74.34,1.11a116.7,116.7,0,0,1,3.12,11.41,1.31,1.31,0,0,0,.46.69,2.94,2.94,0,0,0,.8.43c.08.56.26,1.26.28,1.6a7.9,7.9,0,0,1-.28,3.33.26.26,0,0,0-.25.08,7.74,7.74,0,0,0-.73.78l-1.51,1.6a3.36,3.36,0,0,0-.34.41,1.5,1.5,0,0,0-.14,1.19,1.61,1.61,0,0,0,.77.91,2,2,0,0,1,.25.14.64.64,0,0,0,.15.13.59.59,0,0,0,.32.06,11.36,11.36,0,0,0,2.52-.43,2,2,0,0,0,1-.49,1.83,1.83,0,0,0,.36-.69l.3-.84a9.21,9.21,0,0,0,.46-1.55,3.21,3.21,0,0,0-.08-1.6.29.29,0,0,0-.08.13c.08-.47.15-.94.22-1.4l.06-.43c.1,1.25-.09,2.51,0,3.76a4.1,4.1,0,0,0-.12.7,4.23,4.23,0,0,0,1.48,3.08,1.15,1.15,0,0,0,1,.27,6.5,6.5,0,0,0,2-.38,2.47,2.47,0,0,0,1.44-1.36,3.35,3.35,0,0,0,.15-1,4,4,0,0,0-.1-1,7.71,7.71,0,0,0-.52-1.22,11.4,11.4,0,0,1-.6-1.79l-.28-1c-.08-.29-.16-.58-.26-.86a1.35,1.35,0,0,0-.35-.68c-.12-.09-.19-.1-.25,0v-.1c.05-.4.07-.8.08-1.19a5,5,0,0,0-.92-1.74,3.21,3.21,0,0,1-.36-.92,1.29,1.29,0,0,1-.05-.21.94.94,0,0,1,.18-.12l.57.32c-.5-3.78-.23-7.75-1.7-11.27-.64-1.53-1.88-3.13-1.74-4.78a1.36,1.36,0,0,1,.15-2.15c.25-.13.55-.19.72-.42a1.28,1.28,0,0,0,.17-.42,66.13,66.13,0,0,1,3.16-9.5c.29-.68.59-1.35.88-2l1-2.26,1.21-2.75a3.86,3.86,0,0,0,.44-2.92,2.4,2.4,0,0,1-.39-1.11,6.34,6.34,0,0,1,.23-.74,1.82,1.82,0,0,0-.06-.8c-.08-.34-.17-.69-.26-1a5,5,0,0,1,.77.15c.16-.26-.09-.56-.24-.83a2.86,2.86,0,0,1-.28-1.14l-.32-3.24a6,6,0,0,1,0-1.34c.07-.48.25-.93.34-1.41a21.24,21.24,0,0,0,.06-2.77,12.44,12.44,0,0,1,.43-2.41c0-.12.05-.23.08-.35a1.85,1.85,0,0,0,.46.08h.4l.18,0h0l.19-.07c-.08-.16-.15-.32-.22-.49s-.05-.14-.08-.2l-.11-.29c0-.1-.06-.18-.09-.26l-.07-.22c0-.08-.06-.21-.09-.33l-.09-.32,0-.1a2.4,2.4,0,0,0,.53.37c.64,1.1,1.22,2.24,1.76,3.39a1.1,1.1,0,0,0,.16-.41,3.25,3.25,0,0,0,.23.29,3.45,3.45,0,0,0,.75.55,2.12,2.12,0,0,0,.88.32,1.65,1.65,0,0,0,1.13-.49,7.62,7.62,0,0,0,1.84-3.21,24.29,24.29,0,0,0,1.37-4.72,39.69,39.69,0,0,1,.65-5.24c-.45-.89-.73-1.87-1.23-2.72a12.14,12.14,0,0,1-.85-1.59,5.51,5.51,0,0,1-.15-3.67.53.53,0,0,0-.59,0,1.23,1.23,0,0,0-.35.52,4.54,4.54,0,0,0-.35,2.15.81.81,0,0,1-.06.53.66.66,0,0,1-.57.24,5,5,0,0,1-1.32-.24,12,12,0,0,0-3.68-.36,3.22,3.22,0,0,0-.32-.32l-.14-.11-.14-.11-.07-.06-.14-.12a.89.89,0,0,1-.32-.56v-.16a1,1,0,0,1,.08-.23l.07-.14,0-.07a.1.1,0,0,1,0-.07c0-.09.07-.18.1-.27a2.86,2.86,0,0,0,.07-.28l0-.29V154a3.61,3.61,0,0,0-.12-.57c0-.14-.1-.28-.16-.41a4.11,4.11,0,0,0-.27-.51,6.22,6.22,0,0,0-.69-.93l-.19-.22-.19-.22c-.2-.22-.38-.45-.56-.68a3.2,3.2,0,0,1-.32-.57l-.06-.21a1.76,1.76,0,0,1-.06-.4v-.13c0-.18,0-.36,0-.53s.07-.51.1-.76.05-.34.07-.51a2.3,2.3,0,0,1,0-.26c0-.17,0-.34.05-.51a4.92,4.92,0,0,0-.08-1.48,3,3,0,0,0-.15-.48,2.68,2.68,0,0,0-.32-.57A4.18,4.18,0,0,0,323,142.7a7.82,7.82,0,0,0-1.64-.52l-.66-.13a9.33,9.33,0,0,0-9,3.21,12.34,12.34,0,0,0-2.43,4.75,6.76,6.76,0,0,0,.77,5.19c.41.64,1,1.18,1.32,1.84s.48,1.14.81,1.67a4,4,0,0,0,1.78,1.5l-.14.12a4.76,4.76,0,0,0-1,0c-.34.06-.67.19-1,.23s-.86,0-1.29,0a4,4,0,0,0-2,1.17A3.53,3.53,0,0,0,307,164v0l-.47.64a2.34,2.34,0,0,0-.3.47,8.35,8.35,0,0,0-.19,1.43,3,3,0,0,1-.37.86,18.44,18.44,0,0,1-1.6,2.39,3.92,3.92,0,0,1-1,1,1.82,1.82,0,0,1-1,.29,6.7,6.7,0,0,1-1.52-1,10.22,10.22,0,0,1-1.34-1.67c-.76-1.1,1.6,2.19.84,1.08l-6.84-11.4a8.84,8.84,0,0,1-.27-1.62c0-.21-.09-.49-.3-.49a.36.36,0,0,0-.24.11,1.41,1.41,0,0,0-.45,1.19,1.61,1.61,0,0,0-1.05.19.59.59,0,0,0-.14.83v.11a.46.46,0,0,0-.24.48,1.6,1.6,0,0,0-1.12.05c-.34.19-.47.74-.14,1A1,1,0,0,0,288.56,160.86Zm42.87,1.64a5.26,5.26,0,0,0,.6.15,10.22,10.22,0,0,1,1.86.64,1,1,0,0,1,.48.37,1.08,1.08,0,0,1-.06.91l-.84,2.28c-.14.36-.27.72-.44,1.06-.06.14-.14.28-.21.41a2,2,0,0,0-.08-.22,20.91,20.91,0,0,1-.61-2.13c-.14-.62-.26-1.25-.35-1.87a9.52,9.52,0,0,0-.36-1.6Zm-.89-1.79.06,0a.91.91,0,0,1,.23.15.38.38,0,0,1,0,.33ZM329,158.5l1,.15a1.29,1.29,0,0,1,.69.23.47.47,0,0,1,.09.65l-.22.15a.62.62,0,0,0-.24.66,9.22,9.22,0,0,0-.58-.9,4,4,0,0,0-.68-.69A2.33,2.33,0,0,0,329,158.5Zm-9.74,72.9h.38a3.46,3.46,0,0,0-.06.91Z" transform="translate(-25 -34)"/><path class="cls-3" d="M320.62,142.74c1.76.28,3.72,1,4.39,2.61.51,1.24.11,2.64,0,4a2.91,2.91,0,0,0,0,1.06,3.76,3.76,0,0,0,.93,1.46,7.52,7.52,0,0,1,1.34,1.87,2.76,2.76,0,0,1,.09,2.25,1.56,1.56,0,0,0-.22.59c0,.45.45.74.8,1,1.33,1.09,1.27,3.08,1.29,4.8a24.24,24.24,0,0,0,2.29,10.15,3.1,3.1,0,0,1-3.47-.45,12.21,12.21,0,0,0,.79,2.27c-1.12.54-2.46-.35-3-1.46a25.22,25.22,0,0,1-1-3.57c-.38-1.17-1.12-2.21-1.44-3.39a2.05,2.05,0,0,0-1.1-1.74,6.83,6.83,0,0,1-2.49-3.37,13.09,13.09,0,0,1-4.17.48,4.57,4.57,0,0,1-3.55-2c-.32-.53-.5-1.13-.8-1.67s-.92-1.2-1.33-1.84a6.83,6.83,0,0,1-.77-5.18,12.41,12.41,0,0,1,2.43-4.75A9.38,9.38,0,0,1,320.62,142.74Z" transform="translate(-25 -34)"/><path class="cls-4" d="M320.62,142.74c1.76.28,3.72,1,4.39,2.61.51,1.24.11,2.64,0,4a2.91,2.91,0,0,0,0,1.06,3.76,3.76,0,0,0,.93,1.46,7.52,7.52,0,0,1,1.34,1.87,2.76,2.76,0,0,1,.09,2.25,1.56,1.56,0,0,0-.22.59c0,.45.45.74.8,1,1.33,1.09,1.27,3.08,1.29,4.8a24.24,24.24,0,0,0,2.29,10.15,3.1,3.1,0,0,1-3.47-.45,12.21,12.21,0,0,0,.79,2.27c-1.12.54-2.46-.35-3-1.46a25.22,25.22,0,0,1-1-3.57c-.38-1.17-1.12-2.21-1.44-3.39a2.05,2.05,0,0,0-1.1-1.74,6.83,6.83,0,0,1-2.49-3.37,13.09,13.09,0,0,1-4.17.48,4.57,4.57,0,0,1-3.55-2c-.32-.53-.5-1.13-.8-1.67s-.92-1.2-1.33-1.84a6.83,6.83,0,0,1-.77-5.18,12.41,12.41,0,0,1,2.43-4.75A9.38,9.38,0,0,1,320.62,142.74Z" transform="translate(-25 -34)"/><path class="cls-5" d="M331.72,164.72c.1.64.22,1.26.36,1.89a17.65,17.65,0,0,0,.61,2.12,2.12,2.12,0,0,1,.19,1,1.55,1.55,0,0,1-.24.58c-.8,1.43-1.88,2.81-2,4.45a2.35,2.35,0,0,1-.22,1.18,44,44,0,0,0-2.05-3.91,12.07,12.07,0,0,1-1.88-4.19,7.82,7.82,0,0,1,0-2.16,4.58,4.58,0,0,1,.78-2.26c.52-.7,2-1.74,2.93-1.53C331.35,162.12,331.58,163.83,331.72,164.72Z" transform="translate(-25 -34)"/><path class="cls-6" d="M303.38,172.42a9.69,9.69,0,0,1-3-1.66,9.91,9.91,0,0,1-1.34-1.67l-2.47-3.57a6.48,6.48,0,0,1-1.32-2.76,9.14,9.14,0,0,1-2.47-5.61c0-.22-.08-.49-.29-.49a.34.34,0,0,0-.25.11,1.39,1.39,0,0,0-.44,1.19,1.66,1.66,0,0,0-1,.18c-.29.21-.37.73-.05.91a.45.45,0,0,0-.32.51,1.58,1.58,0,0,0-1.13.06c-.32.18-.46.74-.14,1a1,1,0,0,0-.64.94,1.86,1.86,0,0,0,.43,1.1c1,1.29,2.63,1.79,3.73,2.94a9.1,9.1,0,0,1,1,1.28l3.19,4.86a17.58,17.58,0,0,0,3.5,4.26,3.15,3.15,0,0,0,1.3.69,1.41,1.41,0,0,0,1.37-.38,2.2,2.2,0,0,0,.4-1.36C303.47,174.09,303.33,173.24,303.38,172.42Z" transform="translate(-25 -34)"/><path class="cls-4" d="M314.07,239.82a2.72,2.72,0,0,0-.34.42,1.44,1.44,0,0,0-.15,1.18,1.66,1.66,0,0,0,.77.92.89.89,0,0,1,.25.14,1.58,1.58,0,0,0,.15.12.52.52,0,0,0,.32.07,12,12,0,0,0,2.52-.43,2,2,0,0,0,1-.49,1.9,1.9,0,0,0,.36-.69l.3-.84a9.21,9.21,0,0,0,.46-1.55,3.22,3.22,0,0,0-.08-1.6.52.52,0,0,0-.11.32,3.55,3.55,0,0,1-.65,1.55,1.31,1.31,0,0,1-.25.32,1.58,1.58,0,0,1-.75.32,8.55,8.55,0,0,1-1.6.21.42.42,0,0,1-.22,0,.39.39,0,0,1-.18-.22,1,1,0,0,1,0-.65c.14-.4.54-.67.73-1s-.05-.6-.34-.36a7.83,7.83,0,0,0-.74.78Z" transform="translate(-25 -34)"/><path class="cls-7" d="M316.83,234.05a6.35,6.35,0,0,1-.59,3.92,14.18,14.18,0,0,1-.92,1.13,1.34,1.34,0,0,0-.32.68,1,1,0,0,0,.9,1,2.91,2.91,0,0,0,1.46-.21,3.39,3.39,0,0,0,1.23-.58,3.56,3.56,0,0,0,.94-2.27l.29-1.92a5.48,5.48,0,0,0,.11-1.4,6,6,0,0,0-.37-1.51l-.5-1.44a.48.48,0,0,0-.59-.43c-.47,0-1.66.19-1.89.69S316.8,233.55,316.83,234.05Z" transform="translate(-25 -34)"/><path class="cls-8" d="M316.83,234.05a6.35,6.35,0,0,1-.59,3.92,14.18,14.18,0,0,1-.92,1.13,1.34,1.34,0,0,0-.32.68,1,1,0,0,0,.9,1,2.91,2.91,0,0,0,1.46-.21,3.39,3.39,0,0,0,1.23-.58,3.56,3.56,0,0,0,.94-2.27l.29-1.92a5.48,5.48,0,0,0,.11-1.4,6,6,0,0,0-.37-1.51l-.5-1.44a.48.48,0,0,0-.59-.43c-.47,0-1.66.19-1.89.69S316.8,233.55,316.83,234.05Z" transform="translate(-25 -34)"/><path class="cls-4" d="M306.26,194.24v0a1.72,1.72,0,0,0,.18.54,7.85,7.85,0,0,1,.7,2.81,2.13,2.13,0,0,0,.09.71,3.85,3.85,0,0,0,.36.62,6.45,6.45,0,0,1,.67,2.34,18.92,18.92,0,0,0,.82,3.06c.49,1.36,1.15,2.75.93,4.17a4,4,0,0,0-.13,1,3,3,0,0,0,.4,1.08,9,9,0,0,1,.45,1c.13.34.27.74.38,1.11a1.54,1.54,0,0,1-.08,1.38,1.42,1.42,0,0,0-.25.3.77.77,0,0,0,0,.52c.18.73.36,1.46.56,2.19.15.57.32,1.14.48,1.71,1.24,4.15,2.64,8.25,3.47,12.5.12.62.9,1.05,1.51,1.19a2,2,0,0,0,1.74-.47l.12-.12a3.61,3.61,0,0,0,.68-2.68c-.21-4.38-2.42-8.38-3.47-12.63a25.63,25.63,0,0,1-.68-4.69c-.24-5.28-.34-10.86,1.15-15.93.32-1.05.68-2.24.12-3.2a3.07,3.07,0,0,0-1.65-1.21,10.66,10.66,0,0,0-8.24.21v.32a3.3,3.3,0,0,1-.16,1.46A1.76,1.76,0,0,0,306.26,194.24Z" transform="translate(-25 -34)"/><path class="cls-4" d="M324.34,235.41l.28,1a11.36,11.36,0,0,0,.59,1.79,7.65,7.65,0,0,1,.53,1.21,3.63,3.63,0,0,1,.09,1,3.29,3.29,0,0,1-.14,1,2.47,2.47,0,0,1-1.44,1.36,6.87,6.87,0,0,1-2,.38,1.57,1.57,0,0,1-.53,0,1.67,1.67,0,0,1-.51-.27,4.21,4.21,0,0,1-1.48-3.08,3.56,3.56,0,0,1,.15-.79c.07-.09.77.3.47.65s.86.23,1.52.19a5,5,0,0,0,.86-.14l1.07-.23c.35-.07.75-.19.87-.53s-.14-.73-.35-1.06a6.9,6.9,0,0,1-.84-2.94c0-.2-.27-1.5.24-1.09a1.33,1.33,0,0,1,.36.67C324.18,234.84,324.26,235.12,324.34,235.41Z" transform="translate(-25 -34)"/><path class="cls-8" d="M311,214.13a1.47,1.47,0,0,0,.09-1.37c-.06-.17-.11-.34-.16-.51l4.19-1.42c0,.38,0,.75.05,1.13a23.8,23.8,0,0,0,.68,4.68c1.05,4.25,3.25,8.25,3.47,12.63a3.55,3.55,0,0,1-.8,2.81,2,2,0,0,1-1.74.46c-.61-.13-1.39-.57-1.51-1.18-.83-4.25-2.25-8.36-3.47-12.51-.38-1.28-.73-2.58-1-3.9a.74.74,0,0,1,0-.51A1.5,1.5,0,0,1,311,214.13Z" transform="translate(-25 -34)"/><path class="cls-7" d="M322.63,230.8a5.22,5.22,0,0,1,.92,1.74,9.64,9.64,0,0,1-.08,1.19,4,4,0,0,0,.18,1c.41,1.47.88,2.93,1.41,4.37a1.08,1.08,0,0,1,.11.59,1,1,0,0,1-.69.69,7.24,7.24,0,0,1-3.21.35,1.58,1.58,0,0,1-.9-.21,1.54,1.54,0,0,1-.51-1.26c-.08-1.36.15-2.73,0-4.09-.05-.49-.16-1-.24-1.47a4.31,4.31,0,0,1,.07-2,4.61,4.61,0,0,1,.76-1.28,4,4,0,0,1,1.07-1.06c.13-.08.49-.33.62-.17s0,.27.05.37a3.07,3.07,0,0,0,.07.42A3.62,3.62,0,0,0,322.63,230.8Z" transform="translate(-25 -34)"/><path class="cls-8" d="M314.56,196a1.12,1.12,0,0,1,.08,1c-.14.58-.37,1.13-.56,1.7a23.47,23.47,0,0,0-.72,3.09,9.09,9.09,0,0,0-.4,3,21.09,21.09,0,0,0-2.24,7c-.09.62,1.3,1.44,1.28,2.07-.05,1.25-1.05,1.35-.32,2.36,0,0-.28,1.17-.24,1.22.3.36.69.64,1,1a7.46,7.46,0,0,1,1.06,1.55c1.92,3.46,4.68,7.38,3.83,11.23a.68.68,0,0,0,.36.69,2,2,0,0,0,.81.19h.13a3.64,3.64,0,0,0,.69-2.69c-.22-4.37-2.42-8.38-3.47-12.63a24.57,24.57,0,0,1-.68-4.68c-.25-5.28-.34-10.86,1.15-15.93.32-1.06.68-2.25.12-3.21a3.16,3.16,0,0,0-1.65-1.21,10.62,10.62,0,0,0-8.24.22v.32a3.24,3.24,0,0,1-.16,1.45,1.79,1.79,0,0,0-.17.64s-.08-.85-.08-.83c1.72.24,3.51,1.36,5.23,1.6a11.72,11.72,0,0,1,2.61.58A1.09,1.09,0,0,1,314.56,196Z" transform="translate(-25 -34)"/><path class="cls-4" d="M326.43,186.6c.23.73.44,1.47.61,2.22a1.77,1.77,0,0,1,.06.79,6.34,6.34,0,0,0-.23.74,2.5,2.5,0,0,0,.38,1.11,3.78,3.78,0,0,1-.43,2.91l-1.21,2.75-1,2.25c-.29.67-.59,1.34-.87,2a65,65,0,0,0-3.17,9.5,1,1,0,0,1-.17.41c-.17.23-.47.29-.72.43a1.34,1.34,0,0,0-.39,1.86,1.32,1.32,0,0,0,.25.28c-.15,1.66,1.09,3.25,1.73,4.78,1.47,3.53,1.2,7.48,1.71,11.25l-.57-.32c-.55.25-.53,1-.83,1.55-.44.79-1.52.9-2.42.84a1.88,1.88,0,0,1-.81-.18.69.69,0,0,1-.36-.7c.85-3.84-1.93-7.77-3.83-11.22a7.87,7.87,0,0,0-1.06-1.55c-.32-.34-.71-.64-1-1a5.38,5.38,0,0,1-.89-3.76,21,21,0,0,1,2.39-8.88,9.06,9.06,0,0,1,.4-2.95,23.1,23.1,0,0,1,.72-3.09c.19-.57.42-1.13.56-1.71a1.12,1.12,0,0,0-.08-1,1.15,1.15,0,0,0-.54-.35A11.7,11.7,0,0,0,312,195l-5.9-.85a15,15,0,0,1-.25-3.78,5.81,5.81,0,0,1,4.17-4.86.91.91,0,0,1,.77,0A30.62,30.62,0,0,1,326.43,186.6Z" transform="translate(-25 -34)"/><path class="cls-6" d="M321.08,154.73a2.86,2.86,0,0,0,.25,1.68,2.8,2.8,0,0,0,.67.74,5,5,0,0,0,1.95,1,2.12,2.12,0,0,1,1.16.51c.41.5.14,1.26-.22,1.8a4.53,4.53,0,0,1-2.54,2.11c-.87.24-1.8.09-2.69.25-.64.11-1.25.38-1.88.53a5.56,5.56,0,0,1-5.13-1.43,7.37,7.37,0,0,0,2.41-2.59,3.65,3.65,0,0,0,.18-2.46c-.23-.81-.74-1.61-.57-2.42a2.54,2.54,0,0,1,1.76-1.66,12.14,12.14,0,0,1,2.22-.45c.42-.06,3.06-.64,3.21-.35s-.45,1.12-.52,1.34A5,5,0,0,0,321.08,154.73Z" transform="translate(-25 -34)"/><path class="cls-8" d="M321.08,154.73a2.86,2.86,0,0,0,.25,1.68,2.8,2.8,0,0,0,.67.74,5,5,0,0,0,1.95,1,2.12,2.12,0,0,1,1.16.51c.41.5.14,1.26-.22,1.8a4.53,4.53,0,0,1-2.54,2.11c-.87.24-1.8.09-2.69.25-.64.11-1.25.38-1.88.53a5.56,5.56,0,0,1-5.13-1.43,7.37,7.37,0,0,0,2.41-2.59,3.65,3.65,0,0,0,.18-2.46c-.23-.81-.74-1.61-.57-2.42a2.54,2.54,0,0,1,1.76-1.66,12.14,12.14,0,0,1,2.22-.45c.42-.06,3.06-.64,3.21-.35s-.45,1.12-.52,1.34A5,5,0,0,0,321.08,154.73Z" transform="translate(-25 -34)"/><circle class="cls-6" cx="292.76" cy="117.3" r="5.35"/><path class="cls-5" d="M320.58,160.14l-3.62.61a13,13,0,0,1-2.71.28,7.52,7.52,0,0,0-1.5,0c-.34.05-.67.19-1,.23s-.85,0-1.28,0a4.06,4.06,0,0,0-2,1.16,3.53,3.53,0,0,0-1.51,2.25.58.58,0,0,0,0,.32.9.9,0,0,0,.27.28,8.63,8.63,0,0,1,1.52,2.09,8.09,8.09,0,0,0,1.8,1.94c.16-.1.46.16.39.34s-.24.3-.3.48c-.13.41.38.71.59,1.09a3,3,0,0,1,.13,1.28c0,.43.21.94.28,1.42.14,1.11-.41,2.29,0,3.34a1.06,1.06,0,0,0-1.05.81,3.29,3.29,0,0,0,0,1.43,2,2,0,0,0-1,1.78.32.32,0,0,1-.18.42h-.05a1.83,1.83,0,0,0-1.11,1.68,1,1,0,0,1,0,.35.78.78,0,0,1-.27.27,2.08,2.08,0,0,0-.77,1.64,1.16,1.16,0,0,0,.55,1.07,9.72,9.72,0,0,0,2.43.72,19.13,19.13,0,0,0,2.36.42c.74.06,1.48.08,2.21.07l4.86,0c1.36,0,2.73,0,4.09-.1a11.26,11.26,0,0,1,3.8.09c.15-.26-.09-.56-.24-.83A2.63,2.63,0,0,1,327,186l-.31-3.23a5.47,5.47,0,0,1,0-1.34c.06-.48.24-.93.34-1.41a21.13,21.13,0,0,0,0-2.76,12.3,12.3,0,0,1,.43-2.41l1-4a15.14,15.14,0,0,1,.47-2q1.11-2.85,2.33-5.65a.58.58,0,0,0,0-.5l-.8-1.44a10.05,10.05,0,0,0-.74-1.17,4.65,4.65,0,0,0-2.71-1.67,4.85,4.85,0,0,0-3.15.47c-.37.2-.72.45-1.1.64A4.52,4.52,0,0,1,320.58,160.14Z" transform="translate(-25 -34)"/><path class="cls-5" d="M307.71,163.67l-1.27,1.69a2.39,2.39,0,0,0-.29.46,7.46,7.46,0,0,0-.19,1.43,3.11,3.11,0,0,1-.37.86,19.91,19.91,0,0,1-1.6,2.39,4.69,4.69,0,0,1-1,1,1.65,1.65,0,0,1-1.35.23.92.92,0,0,1,.45.4,5,5,0,0,1,.32,3.13,3.16,3.16,0,0,1-.36,1,1.53,1.53,0,0,1-.8.7,1.19,1.19,0,0,0,1.34,1h.06a2.25,2.25,0,0,0,.69-.35l2-1.31a5.47,5.47,0,0,0,.95-.71c.37-.38.64-.86,1-1.25.64-.66,1.55-1.06,2-1.86a8.18,8.18,0,0,0,.49-1.64c.12-.36.28-.7.39-1.06a4.68,4.68,0,0,0-.42-3.38A14.21,14.21,0,0,0,307.71,163.67Z" transform="translate(-25 -34)"/><path class="cls-3" d="M312.47,148.25a7.17,7.17,0,0,1,1.88-2,6.42,6.42,0,0,1,3.4-1.44,3.65,3.65,0,0,1,1.53.25c0-1.51.4-2.51,1.34-2.36,1.76.28,3.72,1,4.39,2.61.51,1.24.11,2.64,0,4a2.91,2.91,0,0,0,0,1.06,3.76,3.76,0,0,0,.93,1.46,7.52,7.52,0,0,1,1.34,1.87,2.76,2.76,0,0,1,.09,2.25,1.56,1.56,0,0,0-.22.59c0,.45.45.74.8,1,1.33,1.09,1.27,3.08,1.29,4.8a24.24,24.24,0,0,0,2.29,10.15,3.1,3.1,0,0,1-3.47-.45,12.21,12.21,0,0,0,.79,2.27c-1.12.54-2.46-.35-3-1.46a25.22,25.22,0,0,1-1-3.57c-.38-1.17-1.12-2.21-1.44-3.39a2.05,2.05,0,0,0-1.1-1.74c-1.15-.82.54-7.09.09-8.43-.67.14-1.9-3.09-2.6-6.38a3.42,3.42,0,0,1-1.52.16,1.71,1.71,0,0,0-.55,0,1.29,1.29,0,0,0-.47.19,11.25,11.25,0,0,1-1.62.83,9.1,9.1,0,0,1-3.68.32A3.66,3.66,0,0,1,312.47,148.25Z" transform="translate(-25 -34)"/><path class="cls-4" d="M312.47,148.25a7.17,7.17,0,0,1,1.88-2,6.42,6.42,0,0,1,3.4-1.44,3.65,3.65,0,0,1,1.53.25c0-1.51.4-2.51,1.34-2.36,1.76.28,3.72,1,4.39,2.61.51,1.24.11,2.64,0,4a2.91,2.91,0,0,0,0,1.06,3.76,3.76,0,0,0,.93,1.46,7.52,7.52,0,0,1,1.34,1.87,2.76,2.76,0,0,1,.09,2.25,1.56,1.56,0,0,0-.22.59c0,.45.45.74.8,1,1.33,1.09,1.27,3.08,1.29,4.8a24.24,24.24,0,0,0,2.29,10.15,3.1,3.1,0,0,1-3.47-.45,12.21,12.21,0,0,0,.79,2.27c-1.12.54-2.46-.35-3-1.46a25.22,25.22,0,0,1-1-3.57c-.38-1.17-1.12-2.21-1.44-3.39a2.05,2.05,0,0,0-1.1-1.74c-1.15-.82.54-7.09.09-8.43-.67.14-1.9-3.09-2.6-6.38a3.42,3.42,0,0,1-1.52.16,1.71,1.71,0,0,0-.55,0,1.29,1.29,0,0,0-.47.19,11.25,11.25,0,0,1-1.62.83,9.1,9.1,0,0,1-3.68.32A3.66,3.66,0,0,1,312.47,148.25Z" transform="translate(-25 -34)"/><g class="cls-9"><path d="M330.92,172.55a24.39,24.39,0,0,1-2.3-10.14c0-1.72.05-3.71-1.28-4.81-.35-.3-.83-.58-.81-1a1.75,1.75,0,0,1,.22-.59,2.72,2.72,0,0,0-.09-2.25,7.52,7.52,0,0,0-1.34-1.87,3.76,3.76,0,0,1-.93-1.46,3.43,3.43,0,0,1,0-1.06c.13-1.34.53-2.75,0-4-.64-1.61-2.5-2.29-4.22-2.58a.9.9,0,0,1,.46,0c1.76.28,3.72,1,4.39,2.61.51,1.24.12,2.65,0,4a3.15,3.15,0,0,0,0,1.06,3.76,3.76,0,0,0,.93,1.46,7.52,7.52,0,0,1,1.34,1.87,2.72,2.72,0,0,1,.09,2.25,1.75,1.75,0,0,0-.22.59c0,.46.46.74.81,1,1.32,1.09,1.26,3.08,1.28,4.81a24.39,24.39,0,0,0,2.3,10.14,3,3,0,0,1-1.7.32A2.71,2.71,0,0,0,330.92,172.55Z" transform="translate(-25 -34)"/><path d="M328.24,174.37a12.21,12.21,0,0,1-.79-2.27,2.71,2.71,0,0,0,.76.5,12,12,0,0,0,.64,1.77,1.66,1.66,0,0,1-1,.13A1.57,1.57,0,0,0,328.24,174.37Z" transform="translate(-25 -34)"/><path d="M318.65,145.1a3.61,3.61,0,0,0-1-.24h.12a3.86,3.86,0,0,1,.9.07Z" transform="translate(-25 -34)"/><path d="M315,150.55a11.25,11.25,0,0,0,1.62-.83,1.29,1.29,0,0,1,.47-.19,1.39,1.39,0,0,1,.5,0,1.5,1.5,0,0,0-.34.16,11.25,11.25,0,0,1-1.62.83,7.39,7.39,0,0,1-2.72.36A6.51,6.51,0,0,0,315,150.55Z" transform="translate(-25 -34)"/><path d="M319.17,149.4l0,.14a3.55,3.55,0,0,1-.8,0A4.08,4.08,0,0,0,319.17,149.4Z" transform="translate(-25 -34)"/></g><path class="cls-6" d="M330.31,174.23a2,2,0,0,0,.53,1.56,3.31,3.31,0,0,0,.74.55,1.92,1.92,0,0,0,.88.32,1.67,1.67,0,0,0,1.14-.49,7.57,7.57,0,0,0,1.82-3.19,23.47,23.47,0,0,0,1.39-4.72,39.68,39.68,0,0,1,.64-5.24c-.44-.88-.73-1.86-1.23-2.71a13.46,13.46,0,0,1-.85-1.59,5.48,5.48,0,0,1-.15-3.66.5.5,0,0,0-.58,0,1.26,1.26,0,0,0-.35.51,4.56,4.56,0,0,0-.35,2.16.93.93,0,0,1-.06.52.68.68,0,0,1-.58.24,5,5,0,0,1-1.32-.24,12.37,12.37,0,0,0-4.07-.33,1.84,1.84,0,0,0-.79.19.74.74,0,0,0-.41.66l3.25.48a1.4,1.4,0,0,1,.69.24.46.46,0,0,1,.09.64,1.64,1.64,0,0,1-.22.14.68.68,0,0,0-.11.95.8.8,0,0,0,.13.13.57.57,0,0,1,.23.15c.13.18,0,.41-.1.64a.78.78,0,0,0,.39.81,2.91,2.91,0,0,0,.9.31,9.29,9.29,0,0,1,1.86.64,1,1,0,0,1,.49.36,1.11,1.11,0,0,1-.06.91l-.85,2.28a10.86,10.86,0,0,1-.43,1.07c-.21.44-.48.86-.7,1.31a11.89,11.89,0,0,0-.53,1.28C331.31,172.3,330.46,173,330.31,174.23Z" transform="translate(-25 -34)"/><path class="cls-10" d="M190.28,86V193.52a35.52,35.52,0,0,0-11.11-1.72c-16,0-29,11.32-29,27.31s13,27.18,29,27.18,29.06-11.77,29.06-28.86V142.75h84.33v50.77a35.46,35.46,0,0,0-11.1-1.72c-16,0-29,11.32-29,27.31s13,27.18,29,27.18,29.06-11.77,29.06-28.86V86Zm102.29,40.09H208.23V103.92h84.34Z" transform="translate(-25 -34)"/><path class="cls-10" d="M105,74.1v72.18a27.31,27.31,0,1,0,13.66,23.6V101.45H146V74.1Z" transform="translate(-25 -34)"/><path class="cls-10" d="M97.66,243.27a17.19,17.19,0,0,0-5-1.78,24,24,0,0,0,3.76-.84c3.26-1,4.9-2.42,3.67-3.1s-4.88-.39-8.14.64a12.89,12.89,0,0,0-3.13,1.39,6.33,6.33,0,0,0-2.68-2.33c-2.89-1.6-6.79-2.4-8.7-1.79s-1.1,2.38,1.8,4a17.47,17.47,0,0,0,4.49,1.67,27.18,27.18,0,0,0-3.1.55c-3.54.85-5.6,2.14-4.58,2.89s4.72.64,8.27-.21A15.82,15.82,0,0,0,88,243a6.07,6.07,0,0,0,2.73,2.44c2.89,1.6,6.8,2.39,8.7,1.79S100.55,244.86,97.66,243.27Z" transform="translate(-25 -34)"/><path class="cls-10" d="M118.09,219.83a8.39,8.39,0,0,0-2.43-.86,11.65,11.65,0,0,0,1.82-.41c1.58-.5,2.38-1.17,1.78-1.5s-2.37-.19-4,.32a6.28,6.28,0,0,0-1.52.67,3.07,3.07,0,0,0-1.3-1.13,6.69,6.69,0,0,0-4.23-.87c-.92.29-.53,1.16.88,1.93a8.39,8.39,0,0,0,2.18.8,13.12,13.12,0,0,0-1.5.27c-1.72.41-2.72,1-2.23,1.4s2.3.32,4-.1a7.8,7.8,0,0,0,1.81-.64,2.89,2.89,0,0,0,1.32,1.18,6.69,6.69,0,0,0,4.23.87C119.89,221.47,119.5,220.6,118.09,219.83Z" transform="translate(-25 -34)"/><path class="cls-10" d="M63.13,196.07a5.45,5.45,0,0,0-1.53-.53,7.64,7.64,0,0,0,1.15-.26c1-.32,1.49-.74,1.11-.94a4.21,4.21,0,0,0-2.47.2,3.42,3.42,0,0,0-1,.42,1.88,1.88,0,0,0-.82-.71A4.19,4.19,0,0,0,57,193.7c-.58.19-.32.73.55,1.21a5.51,5.51,0,0,0,1.37.51,6,6,0,0,0-.94.17c-1.08.25-1.71.64-1.4.87a4.44,4.44,0,0,0,2.52-.06,5.07,5.07,0,0,0,1.13-.4,1.76,1.76,0,0,0,.83.74,4.12,4.12,0,0,0,2.64.54C64.25,197.1,64,196.56,63.13,196.07Z" transform="translate(-25 -34)"/><path class="cls-11" d="M141.86,74.1V97H114.47v68.43a27.34,27.34,0,0,1-44.31,21.45,27.35,27.35,0,0,0,48.8-17V101.45h27.39V74.1Z" transform="translate(-25 -34)"/><path class="cls-12" d="M64.59,80l.09.7,3,.43s.25-.19.65-.44a9.13,9.13,0,0,1,3-1.37c1.58-.33,6.63-2.59,5-2.73s-1.45.19-1.45.19a2.69,2.69,0,0,0-3.65-.16,25,25,0,0,1-5.89,3.1Z" transform="translate(-25 -34)"/><path class="cls-4" d="M76.7,72a5.16,5.16,0,0,1,1.45-.37,1.79,1.79,0,0,1,1.38.46c.2.2.32.46.51.67.93,1,2.72.25,3.83,1A3.7,3.7,0,0,1,85,75.94c.24.8.69,1.68,1.5,1.85a4.65,4.65,0,0,0,1.18-.05,1.19,1.19,0,0,1,1.07.39c.38.58-.14,1.54.4,2s1.38-.15,1.73.36a.77.77,0,0,1-.12.83,5.37,5.37,0,0,0-.56.7,1.06,1.06,0,0,0,.44,1.43,1.13,1.13,0,0,0,.6.11c.35,0,.72-.23,1-.06a.73.73,0,0,1,.32.57,1.5,1.5,0,0,1-1.34,1.57A3.31,3.31,0,0,1,89.59,85a2.1,2.1,0,0,0-1.69-.28,3,3,0,0,0-.68.48,7.36,7.36,0,0,1-2.09,1.24,2.57,2.57,0,0,1-2.08.09c-.73-.37-1.1-1.26-1.86-1.54s-1.64.24-2.37.67-1.71.8-2.37.27-.49-1.73-.92-2.53a2.58,2.58,0,0,0-.7-.77c-.49-.37-1-.66-1.53-1a2.51,2.51,0,0,1-1-1.46,3,3,0,0,1,.6-2.09,5.87,5.87,0,0,0,1-2c.1-.55,0-1.11.12-1.65a2.05,2.05,0,0,1,1.33-1.4c.35-.12.42-.09.6-.4A1.31,1.31,0,0,1,76.7,72Z" transform="translate(-25 -34)"/><g class="cls-9"><path d="M88.85,78.35a2.88,2.88,0,0,1,.05,1A2.64,2.64,0,0,1,88.85,78.35Z" transform="translate(-25 -34)"/><path d="M90.22,82a.89.89,0,0,0-.11.35,1.09,1.09,0,0,1,0-.9,4.69,4.69,0,0,1,.56-.69,1.26,1.26,0,0,0,.16-.33l0,0a.74.74,0,0,1-.11.83A5.46,5.46,0,0,0,90.22,82Z" transform="translate(-25 -34)"/><path d="M73.23,81.17c.49.37,1,.64,1.53,1a2.42,2.42,0,0,1,.7.76c.43.81.21,2,.93,2.53s1.64.18,2.37-.26,1.56-1,2.36-.67S82.26,85.73,83,86.1A2.63,2.63,0,0,0,85.07,86a7.7,7.7,0,0,0,2.08-1.24,2.47,2.47,0,0,1,.68-.48,2.12,2.12,0,0,1,1.7.27,3.16,3.16,0,0,0,1.65.55,1.49,1.49,0,0,0,1.33-1.31.89.89,0,0,1,.07.28,1.49,1.49,0,0,1-1.33,1.58,3.45,3.45,0,0,1-1.65-.55,2.12,2.12,0,0,0-1.7-.28,3.22,3.22,0,0,0-.68.48,7.7,7.7,0,0,1-2.08,1.24,2.59,2.59,0,0,1-2.09.09c-.72-.37-1.09-1.26-1.86-1.54s-1.63.24-2.36.67-1.71.8-2.37.26-.5-1.72-.93-2.53a2.42,2.42,0,0,0-.7-.76c-.48-.37-1-.66-1.53-1a2.56,2.56,0,0,1-1-1.47,1.58,1.58,0,0,1,0-.38A2.73,2.73,0,0,0,73.23,81.17Z" transform="translate(-25 -34)"/></g><path class="cls-13" d="M74.53,97.82l-1.1.24a1.89,1.89,0,0,0,2.76.61C77.86,97.5,74.53,97.82,74.53,97.82Z" transform="translate(-25 -34)"/><path class="cls-11" d="M74.53,97.82l-1.1.24a1.89,1.89,0,0,0,2.76.61C77.86,97.5,74.53,97.82,74.53,97.82Z" transform="translate(-25 -34)"/><path class="cls-12" d="M98.4,114.42s1.53.78,2.95,1.7a8,8,0,0,1,2.3,1.9c.76,1.29,4.44,2.68,4.44,2.68l3.64,2.77a5.29,5.29,0,0,1,2,1.8l.17.23,1.46-.19.77-1s.19-2.2-1.33-2.18a2,2,0,0,1-.85-.22,17.87,17.87,0,0,1-3.92-3s-3.89-4.85-5-5a2.22,2.22,0,0,1-.37-.09,12.11,12.11,0,0,1-2.88-1.94Z" transform="translate(-25 -34)"/><path class="cls-12" d="M83.33,128.45a35.34,35.34,0,0,0,2.72,7.72,12.18,12.18,0,0,1,1.08,3.46l.21,1.6a1.56,1.56,0,0,0,.23.62,3.45,3.45,0,0,0,.2.32l2.93-.9s-.17-.67-.43-1.45a6.53,6.53,0,0,0-1-2.1c-.72-.7-.82-3.18-.82-3.18s-.6-4.76-.78-5.36a8.25,8.25,0,0,1-.32-1.76c0-.32,0-.69-.06-1.1a22,22,0,0,0-.46-3.53l-3.41.62-.09,3.82A2.52,2.52,0,0,0,83.33,128.45Z" transform="translate(-25 -34)"/><path class="cls-11" d="M113.77,125.27l.17.23,1.46-.19.77-1s.19-2.2-1.33-2.18a2,2,0,0,1-.85-.22c-.13.66.61,1.21.61,1.21s.32.23.24,1.26A1,1,0,0,1,113.77,125.27Z" transform="translate(-25 -34)"/><path class="cls-14" d="M113.61,125.41c.1.35,1,.88,1.66,1.2l.61.3c.15.08.93-.79,1-1.48a13,13,0,0,1,2-2.86,8,8,0,0,0,.69-2.71c.07-1-.33-1-.79-.81a3.09,3.09,0,0,0-.88.69,2.36,2.36,0,0,1-1.14.59,5.53,5.53,0,0,0-1.64.7c-.44.29-.88.64-1,1-.17.68.61,1.26.61,1.26s.32.22.23,1.26S113.6,125.38,113.61,125.41Z" transform="translate(-25 -34)"/><path class="cls-11" d="M115.27,126.61l.61.3c.15.08.93-.79,1-1.48a13,13,0,0,1,2-2.86,8,8,0,0,0,.69-2.71c.07-1-.33-1-.79-.81a11,11,0,0,1-.64,3C117.66,122.92,115.78,125.83,115.27,126.61Z" transform="translate(-25 -34)"/><path class="cls-11" d="M87.6,141.79l0,.06a3.45,3.45,0,0,0,.2.32l2.93-.9s-.17-.68-.43-1.45c-1.15-.32-2.82,1.7-2.82,1.7Z" transform="translate(-25 -34)"/><path class="cls-14" d="M87.4,144a11.93,11.93,0,0,0,3.53.73c.83-.1.87-.49.81-1.28q0-.39-.06-.9c-.05-1.41-.62-1.69-.62-1.69-.93-2.44-3.61.83-3.61.83l.14.27a2.91,2.91,0,0,0-.27,1.33A3.36,3.36,0,0,0,87.4,144Z" transform="translate(-25 -34)"/><path class="cls-11" d="M87.4,144a11.93,11.93,0,0,0,3.53.73c.83-.1.87-.49.81-1.28a2.6,2.6,0,0,1-2,.57,7.86,7.86,0,0,1-2.43-.73A3.36,3.36,0,0,0,87.4,144Z" transform="translate(-25 -34)"/><path class="cls-12" d="M75.29,84.71l1,4.17.2.86,1.76.22,1.82.23,2-.71a6.67,6.67,0,0,0,.09-3.3A2.06,2.06,0,0,0,81.2,85a2.88,2.88,0,0,1-.39-.3,1.65,1.65,0,0,1-.32-.46,2.14,2.14,0,0,1-.17-.66,4.7,4.7,0,0,1,.62-2.36s-4.21-1.43-3.88-.5c.22.6-.38,1.64-.82,2.3-.24.36-.44.6-.44.6Z" transform="translate(-25 -34)"/><circle class="cls-11" cx="54.08" cy="45.45" r="3.65"/><circle class="cls-12" cx="54.06" cy="45.32" r="3.65"/><path class="cls-5" d="M75.55,98.58a8.69,8.69,0,0,0,1,2.07l5.1,1.25,3.64-3.81v0c-.11-.36-1.5-4.85-.5-6s.64-4.4.64-4.4-1.82-2.09-2.18-2.59-2.73-.91-2.73-.91c.12.16.22.32.32.46a4.77,4.77,0,0,1,.58,1.23,1.88,1.88,0,0,1,0,1.34,1.4,1.4,0,0,0-.13.34c-.39,1.74-2.21,1.5-2.93,1.33l-.3-.09-1.74.06-1.09,0s.5,8.59.38,9.27A1.33,1.33,0,0,0,75.55,98.58Z" transform="translate(-25 -34)"/><path class="cls-15" d="M75.17,89.36l3.16-.42h-.06L78,88.86l-1.74,0-1.09,0S75.16,89.09,75.17,89.36Z" transform="translate(-25 -34)"/><polygon class="cls-15" points="53.72 67.2 55.09 67.53 57.24 67.25 57.8 66.67 53.72 67.2"/><polygon class="cls-15" points="56 67.76 56.62 67.91 56.87 67.64 56 67.76"/><path class="cls-11" d="M75.55,98.58c.82.09,1.57.13,1.57.13l4.19-.16V94.17a6.14,6.14,0,0,0-1.69-1.12c-.73-.25-1.6-1-1.43-3.07a2.33,2.33,0,0,1,0-.37,4,4,0,0,0,0-.69,3.65,3.65,0,0,0-1.16-2.7l-.06,0L76.36,83h-.14c-.24.36-.44.61-.44.61l-.5,1.1,1,4.17-1.09,0s.5,8.59.38,9.27A1.07,1.07,0,0,0,75.55,98.58Z" transform="translate(-25 -34)"/><path class="cls-14" d="M77,98.74l4.2-.16V94.2a6.14,6.14,0,0,0-1.69-1.12c-.78-.27-1.7-1.12-1.4-3.44A3.83,3.83,0,0,0,77,86.23l-.07,0L76.23,83a1.49,1.49,0,0,0-1.08.62,3.19,3.19,0,0,1-.26.38.64.64,0,0,1-.84.25c-.44-.2-2.35-1-2.77-.22s-.51,5.49-.51,5.49a3.6,3.6,0,0,1,1.24,2c.29,1.34.77,1.38.77,1.38l.53,3.84s.48.84.12,1.3" transform="translate(-25 -34)"/><path class="cls-14" d="M74.89,84l.72,2.14,1.37.12-.07-.06L76.23,83a1.46,1.46,0,0,0-1.08.62A4.06,4.06,0,0,1,74.89,84Z" transform="translate(-25 -34)"/><path class="cls-11" d="M64.59,80l.09.7,3,.43s.25-.19.65-.44c-.32-.08-1.83-.4-2.62-.64-.29-.09-.48-.17-.49-.22s0-.06.07-.1Z" transform="translate(-25 -34)"/><path class="cls-14" d="M61,84.56s3.43,2.61,5.56,3a14.6,14.6,0,0,1,4.17,1.92l1.28-4.94L71.27,84a2.75,2.75,0,0,1-1.75.39c-.81-.2-1.7-.33-1.7-.33a12.78,12.78,0,0,0-2.18-.59c-.58,0-.34-.8.23-1.2a1.41,1.41,0,0,1,.24-.13.76.76,0,0,0,1,.22,2.35,2.35,0,0,0,.56-.53h0a7.63,7.63,0,0,0,.64-1s-1.79-.39-2.68-.66c-.29-.09-.49-.17-.49-.22,0-.21,1.6-.85,1.6-.85s-1.39-.68-1.95-.19c0,0,.36.28.07.55s-3.85,3-3.85,3S59.22,83.39,61,84.56Z" transform="translate(-25 -34)"/><path class="cls-11" d="M64,82l1.9.28a1.49,1.49,0,0,1,.24-.14.75.75,0,0,0,1,.22,2.34,2.34,0,0,0,.56-.53h0a8.57,8.57,0,0,0,.52-.81s-1.79-.38-2.68-.66Z" transform="translate(-25 -34)"/><path class="cls-14" d="M64.1,81.88l2,.29a.75.75,0,0,0,1,.22,4.64,4.64,0,0,0,1.2-1.5s-1.79-.38-2.68-.66Z" transform="translate(-25 -34)"/><path class="cls-11" d="M101.77,111.88l-3.37,2.55s1.53.79,2.95,1.7c1.24-.84,2.41-1.6,3.3-2.31A12.43,12.43,0,0,1,101.77,111.88Z" transform="translate(-25 -34)"/><path class="cls-11" d="M83.33,128.45a11.11,11.11,0,0,0,2.47-.59,15.5,15.5,0,0,0,1.55-.44c0-.32,0-.69-.06-1.1a22,22,0,0,0-.46-3.53l-3.41.62-.09,3.82A2.52,2.52,0,0,0,83.33,128.45Z" transform="translate(-25 -34)"/><path class="cls-14" d="M77.24,113c.69,1,2.57,5.34,2.57,5.34a18.39,18.39,0,0,0,1.43,2.2c.75.94,1.26,3,1.83,4.74s-.17,1.37-.09,2.25,3.29-.26,3.29-.26,6.56-1.44,8.57-5.45,10-7.64,11.62-9.89-.46-1.33-.38-2.55a3.45,3.45,0,0,0-.84-2.24s-3-.86-3.51-1.45a21.41,21.41,0,0,0-2.9-2.08,15.57,15.57,0,0,1-2.57-1.33,16.79,16.79,0,0,0-3.81-1.6c-.82-.2-1.63-1.38-1.63-1.38s-.51.07-1.26-.66-3.92-1.36-3.92-1.36c-5.39,4-9.12,3.42-9.12,3.42l-.09.75C73.56,105.15,76.56,111.94,77.24,113Z" transform="translate(-25 -34)"/><path class="cls-11" d="M76.43,101.4s4.67,1.54,9.22-4.14c-5.4,3.95-9.13,3.4-9.13,3.4Z" transform="translate(-25 -34)"/><path class="cls-11" d="M84.46,104.06s6.26,9,6.65,9.37S84.79,103.94,84.46,104.06Z" transform="translate(-25 -34)"/><path class="cls-11" d="M81.56,103.36s4.34,6.74,4.26,7.65C85.82,111,81.63,104.53,81.56,103.36Z" transform="translate(-25 -34)"/><path class="cls-11" d="M79,105.21s.8,3.77-.41,5.91Z" transform="translate(-25 -34)"/><path class="cls-11" d="M77.37,105.43a17.29,17.29,0,0,1-.42,3.93Z" transform="translate(-25 -34)"/><polygon class="cls-11" points="63 68.52 68.76 70.78 66.65 71.06 63 68.52"/><path class="cls-11" d="M76.65,77.3c.29.19.53.49.87.54a1.33,1.33,0,0,0,.71-.17,2.59,2.59,0,0,1,1.82-.25c.85.28,1.31,1.25,2.16,1.54a1.44,1.44,0,0,0,1.26-.14,1.5,1.5,0,0,0,.64-.91,1.9,1.9,0,0,0-.64-1.78,3.89,3.89,0,0,0-1.79-.81,17.69,17.69,0,0,0-5.19-.12.71.71,0,0,0-.4.11,2.43,2.43,0,0,0-.62,1.51C75.6,77.25,76.6,76.93,76.65,77.3Z" transform="translate(-25 -34)"/><path class="cls-4" d="M76.64,77.16c.28.19.52.5.87.54a1.32,1.32,0,0,0,.7-.17A2.6,2.6,0,0,1,80,77.28c.85.28,1.31,1.26,2.16,1.54a1.46,1.46,0,0,0,.8.05,1.83,1.83,0,0,0,.46-.18,1.51,1.51,0,0,0,.66-.92A1.93,1.93,0,0,0,83.45,76a4.06,4.06,0,0,0-1.79-.81,18,18,0,0,0-5.18-.12.87.87,0,0,0-.41.11,2.36,2.36,0,0,0-.61,1.51C75.58,77.13,76.59,76.79,76.64,77.16Z" transform="translate(-25 -34)"/><path class="cls-12" d="M98.94,79.85l.55,2.22.72-.43,3.89-2.34s2.94-.11,3.17-2.48-3.27,0-3.46.16a7.79,7.79,0,0,1-.61.5l-3.62,2Z" transform="translate(-25 -34)"/><path class="cls-11" d="M98.94,79.85l.55,2.22.72-.43a5.34,5.34,0,0,0-.64-2.15Z" transform="translate(-25 -34)"/><path class="cls-11" d="M79.76,94.42l.79,4.65,4.69-1c-.11-.35-1.5-4.84-.5-6s.65-4.4.65-4.4-1.82-2.09-2.19-2.6-2.73-.9-2.73-.9a2,2,0,0,1-.17-.66,2.05,2.05,0,0,0-.18.49,1.87,1.87,0,0,0,1.25,1.86l.25.11.47.16.08,0A2.61,2.61,0,0,1,84,87.58,3.42,3.42,0,0,1,84.69,90C84.54,91.44,79.76,94.42,79.76,94.42Z" transform="translate(-25 -34)"/><path class="cls-14" d="M80,94.38l.8,4.65,5.3-1.11a9.47,9.47,0,0,0-.53-2.46,13,13,0,0,1-.3-3.49c2.25-2.42,1.07-4.39,1.07-4.39S93,86.51,93.07,86.3a19.45,19.45,0,0,1,2.31-1.38,12.35,12.35,0,0,0,2.71-1,2.57,2.57,0,0,1,.39-.35l.13-.09L98.79,85h.08a2.35,2.35,0,0,0,1-.41c.54-.42-.15-5-.68-5.15a.51.51,0,0,0-.3,0,3.33,3.33,0,0,0-1.14.62l-.09.07,0,0a22.5,22.5,0,0,0-3.58,1.71c-.59.54-5.24,1.22-5.24,1.22s-2.08.49-2.35.19-3.44-.78-3.71-.32-1,.39-1,.39c-.53-.61-.89-.37-1.11,0a2.44,2.44,0,0,0-.28.67,2,2,0,0,0,1.5,2l.54.19a2.59,2.59,0,0,1,1.84,1.35A3.44,3.44,0,0,1,85,90C84.82,91.41,80,94.38,80,94.38Z" transform="translate(-25 -34)"/><path class="cls-11" d="M98.94,79.5a.32.32,0,0,1,.17,0c.53.16,1.22,4.73.67,5.15a2.23,2.23,0,0,1-.92.4h-.08l-.18-1.53-.13.09v-.07a4,4,0,0,0-.75-3.38Z" transform="translate(-25 -34)"/><path class="cls-14" d="M98.6,83.54l.17,1.52a2.16,2.16,0,0,0,1.14-.43c.54-.42-.15-5-.68-5.15s-1.15.39-1.44.61A4,4,0,0,1,98.6,83.54Z" transform="translate(-25 -34)"/><path class="cls-14" d="M81.9,86l.76-.71-2-1.93a2.44,2.44,0,0,0-.28.67A2,2,0,0,0,81.9,86Z" transform="translate(-25 -34)"/><path class="cls-11" d="M76.6,76.89c.29.19.53.5.87.54a1.28,1.28,0,0,0,.71-.18A2.58,2.58,0,0,1,80,77c.84.28,1.31,1.25,2.15,1.54a1.59,1.59,0,0,0,.81,0,1.47,1.47,0,0,0,1.11-1.1,1.12,1.12,0,0,0,0-.41,1.56,1.56,0,0,1,0,.68,1.51,1.51,0,0,1-.66.92,1.7,1.7,0,0,1-.46.18,1.46,1.46,0,0,1-.8-.05c-.85-.28-1.31-1.26-2.16-1.54a2.6,2.6,0,0,0-1.82.25,1.32,1.32,0,0,1-.7.17c-.35,0-.59-.35-.87-.54,0-.37-1.06,0-1.18-.48a.67.67,0,0,1,0-.2C75.66,76.82,76.55,76.54,76.6,76.89Z" transform="translate(-25 -34)"/><path class="cls-11" d="M79.7,87.38s-.42,1.18.12,1.58c0,0-.59-1.56-.93-1.52" transform="translate(-25 -34)"/><path class="cls-12" d="M105.82,75.89s-2.71,2.35-.75,2.72S105.82,75.89,105.82,75.89Z" transform="translate(-25 -34)"/><g class="cls-9"><path d="M288.4,140.82H204.07v74.7c0,17.07-13.07,28.85-29.06,28.85a32,32,0,0,1-11.17-2,31.4,31.4,0,0,0,15.34,3.88c16,0,29.06-11.78,29.06-28.86V142.75H288.4Z" transform="translate(-25 -34)"/><polygon points="179.06 90.12 183.23 90.12 183.23 69.91 263.4 69.91 263.4 67.99 179.06 67.99 179.06 90.12"/><path d="M306.35,86V215.51c0,17.08-13.06,28.86-29.05,28.86a32.25,32.25,0,0,1-11.17-2,31.22,31.22,0,0,0,15.33,3.88c16,0,29.06-11.77,29.06-28.86V86Z" transform="translate(-25 -34)"/></g><path class="cls-10" d="M210.93,56.41c2.06,4.27,5.45,9.13,9.27,7.28s6.69-9.73,4.62-14-6.86-6.23-10.7-4.38S208.85,52.14,210.93,56.41Z" transform="translate(-25 -34)"/><path class="cls-10" d="M219.11,66.39s.75-.12.46-.74a.6.6,0,0,0-.09-.15,2.13,2.13,0,0,1-.28-.8,3,3,0,0,1,0-1l-2-.13s.79.67.7,1a.2.2,0,0,1-.1.12.31.31,0,0,1-.13.06l-.15,0c-.54.19-.32.45-.32.45C217.27,66.16,219.11,66.39,219.11,66.39Z" transform="translate(-25 -34)"/><path class="cls-14" d="M217.8,64.72l1.44.2a1.43,1.43,0,0,1,0-.22c-.37,0-.94-.06-1.3-.1A.2.2,0,0,1,217.8,64.72Z" transform="translate(-25 -34)"/><path class="cls-10" d="M219.11,66.39s.75-.12.46-.74a2.36,2.36,0,0,1-.88,0,1.93,1.93,0,0,1-1.17-.86c-.54.19-.32.45-.32.45C217.27,66.16,219.11,66.39,219.11,66.39Z" transform="translate(-25 -34)"/><path class="cls-11" d="M219.11,66.39s.75-.12.46-.74a2.36,2.36,0,0,1-.88,0,1.93,1.93,0,0,1-1.17-.86c-.54.19-.32.45-.32.45C217.27,66.16,219.11,66.39,219.11,66.39Z" transform="translate(-25 -34)"/><path class="cls-16" d="M218,45.75S220.3,45.48,221,47a2,2,0,0,0-.82,0,1.23,1.23,0,0,1-.53.11A3.11,3.11,0,0,0,218,45.75Z" transform="translate(-25 -34)"/><path class="cls-10" d="M220.47,76.66a.8.8,0,0,0,.13-.13,1.51,1.51,0,0,1,.49-.38l.2-.11a2.94,2.94,0,0,1,.64-.19,1.73,1.73,0,0,1,.32,0L222,74.44v0l-.12-.6a5,5,0,0,1-.29.5c-.15.23-.32.44-.51.44a.25.25,0,0,1-.15-.05l-.09-.12-.08-.13c-.32-.47-.53-.18-.53-.18-.36.13-.51.57-.57,1a.62.62,0,0,1,0,.19,5.79,5.79,0,0,0,0,.93S220,77.1,220.47,76.66Z" transform="translate(-25 -34)"/><path class="cls-14" d="M221.11,76.15l.21-.11c-.07-.3-.16-.74-.22-1.1v-.07a.23.23,0,0,0,0-.11.27.27,0,0,1-.15-.05l0,.21V75Z" transform="translate(-25 -34)"/><path class="cls-10" d="M220.47,76.66a2.51,2.51,0,0,1-.27-.84,2.33,2.33,0,0,1,.06-.53,1.31,1.31,0,0,1,.05-.15,1.58,1.58,0,0,1,.41-.68c-.32-.47-.53-.18-.53-.18-.36.13-.51.57-.57,1a.62.62,0,0,1,0,.19,5.79,5.79,0,0,0,0,.93S220,77.1,220.47,76.66Z" transform="translate(-25 -34)"/><path class="cls-11" d="M220.47,76.66a2.51,2.51,0,0,1-.27-.84,2.33,2.33,0,0,1,.06-.53,1.31,1.31,0,0,1,.05-.15,1.58,1.58,0,0,1,.41-.68c-.32-.47-.53-.18-.53-.18-.36.13-.51.57-.57,1a.62.62,0,0,1,0,.19,5.79,5.79,0,0,0,0,.93S220,77.1,220.47,76.66Z" transform="translate(-25 -34)"/><path class="cls-10" d="M206.6,63.46a23.33,23.33,0,0,0,5.63,2.76,6.89,6.89,0,0,0,4,.22,3.71,3.71,0,0,0,1.36-.79,3.85,3.85,0,0,0,.69-.82c1.36-2.12,1.33-5.85.26-9.08a10,10,0,0,0-3.63-5.28c-4-2.56-9.1-1.73-11.4,1.86S202.61,60.9,206.6,63.46Z" transform="translate(-25 -34)"/><path class="cls-11" d="M206.6,63.46a23.33,23.33,0,0,0,5.63,2.76,6.89,6.89,0,0,0,4,.22,3.71,3.71,0,0,0,1.36-.79,3.85,3.85,0,0,0,.69-.82c1.36-2.12,1.33-5.85.26-9.08a10,10,0,0,0-3.63-5.28c-4-2.56-9.1-1.73-11.4,1.86S202.61,60.9,206.6,63.46Z" transform="translate(-25 -34)"/><path class="cls-10" d="M216.6,67.76c.51.72,2.2-.05,2.2-.05s.57-.49,0-.87l-.16-.09a1.82,1.82,0,0,1-.51-.36l-.15-.16a3.41,3.41,0,0,1-.36-.57c-.05-.1-.09-.2-.13-.3l-1.81,1a4.75,4.75,0,0,1,.57.14c.26.08.52.21.57.37a.22.22,0,0,1,0,.16.47.47,0,0,1-.09.12l-.11.11C216.26,67.65,216.6,67.76,216.6,67.76Z" transform="translate(-25 -34)"/><path class="cls-14" d="M216.81,67l1.32-.58-.15-.17c-.32.18-.83.44-1.16.6A.2.2,0,0,1,216.81,67Z" transform="translate(-25 -34)"/><path class="cls-10" d="M216.6,67.76c.51.72,2.2-.05,2.2-.05s.57-.49,0-.87a2.17,2.17,0,0,1-.74.49,1.92,1.92,0,0,1-1.45-.12C216.26,67.65,216.6,67.76,216.6,67.76Z" transform="translate(-25 -34)"/><path class="cls-11" d="M216.6,67.76c.51.72,2.2-.05,2.2-.05s.57-.49,0-.87a2.17,2.17,0,0,1-.74.49,1.92,1.92,0,0,1-1.45-.12C216.26,67.65,216.6,67.76,216.6,67.76Z" transform="translate(-25 -34)"/><path class="cls-16" d="M207.09,50.68s1.8-1.42,3.14-.47a1.82,1.82,0,0,0-.67.47,1.06,1.06,0,0,1-.4.36A3,3,0,0,0,207.09,50.68Z" transform="translate(-25 -34)"/><g class="cls-9"><path d="M226.42,65.63l-.41-2a5,5,0,0,1-.29.5,3.53,3.53,0,0,0,.38,1.53Z" transform="translate(-25 -34)"/><path d="M224.64,66.48a.8.8,0,0,0,.13-.13,1.87,1.87,0,0,1,.49-.39l.2-.1a2.78,2.78,0,0,1,.64-.19l.32,0-.42-2a4.91,4.91,0,0,1-.28.5c-.15.22-.34.44-.52.45a.35.35,0,0,1-.14-.06l-.1-.1-.08-.14c-.32-.46-.53-.17-.53-.17-.82.3-.56,2.13-.56,2.13S224.12,66.92,224.64,66.48Z" transform="translate(-25 -34)"/><path d="M225.26,66l.2-.1c-.08-.35-.19-.92-.25-1.28a.2.2,0,0,1-.15-.06Z" transform="translate(-25 -34)"/><path d="M224.64,66.48a2.51,2.51,0,0,1-.27-.84,2,2,0,0,1,.52-1.37c-.32-.46-.53-.17-.53-.17-.82.3-.56,2.13-.56,2.13S224.12,66.92,224.64,66.48Z" transform="translate(-25 -34)"/><path class="cls-11" d="M224.64,66.48a2.51,2.51,0,0,1-.27-.84,2,2,0,0,1,.52-1.37c-.32-.46-.53-.17-.53-.17-.82.3-.56,2.13-.56,2.13S224.12,66.92,224.64,66.48Z" transform="translate(-25 -34)"/></g><path class="cls-10" d="M224.38,66.08a.53.53,0,0,0,.13-.13,1.79,1.79,0,0,1,.48-.38l.21-.1a2.78,2.78,0,0,1,.64-.19,1.65,1.65,0,0,1,.32,0l-.42-2a3.7,3.7,0,0,1-.29.51c-.15.22-.32.44-.51.44a.2.2,0,0,1-.14-.06.52.52,0,0,1-.1-.11.64.64,0,0,0-.08-.14c-.32-.46-.52-.17-.52-.17-.83.3-.56,2.13-.56,2.13S223.86,66.53,224.38,66.08Z" transform="translate(-25 -34)"/><path class="cls-14" d="M225,65.57l.21-.1c-.09-.35-.19-.92-.26-1.29a.19.19,0,0,1-.14-.05Z" transform="translate(-25 -34)"/><path class="cls-10" d="M224.38,66.08a2.08,2.08,0,0,1-.27-.84,1.93,1.93,0,0,1,.53-1.36c-.32-.46-.53-.17-.53-.17-.82.3-.55,2.13-.55,2.13S223.86,66.53,224.38,66.08Z" transform="translate(-25 -34)"/><path class="cls-11" d="M224.38,66.08a2.08,2.08,0,0,1-.27-.84,1.93,1.93,0,0,1,.53-1.36c-.32-.46-.53-.17-.53-.17-.82.3-.55,2.13-.55,2.13S223.86,66.53,224.38,66.08Z" transform="translate(-25 -34)"/><g class="cls-9"><path d="M222.72,60.26a3.68,3.68,0,0,0,1.48.55,1.59,1.59,0,0,1,.15-.29l-1.89-.79A5.2,5.2,0,0,1,222.72,60.26Z" transform="translate(-25 -34)"/><path d="M223.36,63s.75.13.67-.55a.57.57,0,0,0,0-.18,1.84,1.84,0,0,1-.05-.62,1.7,1.7,0,0,1,0-.22,2.83,2.83,0,0,1,.35-.93l-1.89-.78a5.12,5.12,0,0,1,.27.52c.1.25.17.53.07.67a.27.27,0,0,1-.12.09h-.31c-.57,0-.44.32-.44.32C221.69,62.21,223.36,63,223.36,63Z" transform="translate(-25 -34)"/><path d="M222.65,61l1.29.64a.83.83,0,0,1,0-.22c-.34-.13-.87-.37-1.2-.51A.22.22,0,0,1,222.65,61Z" transform="translate(-25 -34)"/><path d="M223.36,63s.75.13.67-.55a2.27,2.27,0,0,1-.84-.25,2,2,0,0,1-.84-1.19c-.56,0-.43.32-.43.32C221.69,62.21,223.36,63,223.36,63Z" transform="translate(-25 -34)"/><path class="cls-11" d="M223.36,63s.75.13.67-.55a2.27,2.27,0,0,1-.84-.25,2,2,0,0,1-.84-1.19c-.56,0-.43.32-.43.32C221.69,62.21,223.36,63,223.36,63Z" transform="translate(-25 -34)"/></g><path class="cls-10" d="M223.22,62.82s.75.13.68-.55a1.16,1.16,0,0,0,0-.18,1.84,1.84,0,0,1,0-.62.83.83,0,0,1,0-.22,2.8,2.8,0,0,1,.2-.64l.15-.29-1.88-.78a4.16,4.16,0,0,1,.25.52c.11.25.18.53.08.67a.2.2,0,0,1-.13.09h-.31c-.56,0-.43.32-.43.32C221.56,62,223.22,62.82,223.22,62.82Z" transform="translate(-25 -34)"/><path class="cls-14" d="M222.52,60.82l1.28.65a1.85,1.85,0,0,1,0-.23c-.34-.13-.87-.36-1.2-.51A.22.22,0,0,1,222.52,60.82Z" transform="translate(-25 -34)"/><path class="cls-10" d="M223.22,62.82s.75.13.68-.55a2.26,2.26,0,0,1-.85-.25,2,2,0,0,1-.84-1.19c-.56,0-.43.32-.43.32C221.56,62,223.22,62.82,223.22,62.82Z" transform="translate(-25 -34)"/><path class="cls-11" d="M223.22,62.82s.75.13.68-.55a2.26,2.26,0,0,1-.85-.25,2,2,0,0,1-.84-1.19c-.56,0-.43.32-.43.32C221.56,62,223.22,62.82,223.22,62.82Z" transform="translate(-25 -34)"/><path class="cls-10" d="M215.82,71.6a3.6,3.6,0,0,1,.29-.5c.16-.22.34-.43.52-.43a.19.19,0,0,1,.14,0,.34.34,0,0,1,.09.12L217,71c.32.46.52.17.52.17.83-.29.58-2.12.58-2.12s-.32-.69-.84-.26a1.59,1.59,0,0,0-.13.13,2,2,0,0,1-.69.48,2.94,2.94,0,0,1-.64.19,1.73,1.73,0,0,1-.32,0Z" transform="translate(-25 -34)"/><path class="cls-14" d="M216.62,70.67a.2.2,0,0,1,.15,0l-.18-1.44-.2.1C216.47,69.74,216.57,70.3,216.62,70.67Z" transform="translate(-25 -34)"/><path class="cls-10" d="M217,71c.32.46.52.17.52.17.83-.29.58-2.12.58-2.12s-.32-.69-.84-.26a2.27,2.27,0,0,1,.26.85A2,2,0,0,1,217,71Z" transform="translate(-25 -34)"/><path class="cls-11" d="M217,71c.32.46.52.17.52.17.83-.29.58-2.12.58-2.12s-.32-.69-.84-.26a2.27,2.27,0,0,1,.26.85A2,2,0,0,1,217,71Z" transform="translate(-25 -34)"/><path class="cls-11" d="M215.14,74.3a6.37,6.37,0,0,0,1-3.2c.15-.23.34-.44.51-.44a.2.2,0,0,1,.15.06.31.31,0,0,1,.09.11l.08.14c.32.47.53.18.53.18.83-.29.58-2.13.58-2.13s-.33-.69-.84-.25l-.13.12a2.12,2.12,0,0,1-.69.49,3.58,3.58,0,0,1-.64.18,4.09,4.09,0,0,0-.6-.89,7.18,7.18,0,0,0-2.85-1.88C212.74,69.63,213.57,72.62,215.14,74.3Z" transform="translate(-25 -34)"/><path class="cls-11" d="M219.64,75.29c.23,0,.46-.09.68-.15a4.57,4.57,0,0,0,.62-.22l.13,0q.26-.11.51-.24l.4-.21a14.49,14.49,0,0,0,5.86-7.12,9.24,9.24,0,0,0,.58-2.44,6.57,6.57,0,0,0,0-1.33,9.46,9.46,0,0,0-1.19-3.59,4,4,0,0,0-.22-.34,7.65,7.65,0,0,0-7.16-3.67,7.77,7.77,0,0,0,2.75,4.13c.1.25.18.53.08.67a.2.2,0,0,1-.13.09h-.31c-.56,0-.43.32-.43.32-.22.85,1.44,1.66,1.44,1.66s.75.12.68-.55a1.16,1.16,0,0,0,0-.18,1.61,1.61,0,0,1,0-.62.83.83,0,0,1,0-.22,2.8,2.8,0,0,1,.2-.64,4.79,4.79,0,0,0,1.07,0,5.72,5.72,0,0,0,1.47-.4l-.19.32a6.28,6.28,0,0,0-1,3.21c-.15.22-.32.44-.51.44a.2.2,0,0,1-.15-.06L224.7,64l-.08-.14c-.32-.46-.53-.17-.53-.17-.82.3-.56,2.13-.56,2.13s.33.69.84.24a.74.74,0,0,0,.13-.12,1.69,1.69,0,0,1,.49-.39,1.24,1.24,0,0,1,.2-.1,2.78,2.78,0,0,1,.64-.19,4.09,4.09,0,0,0,.6.89l.13.14-.05,0a25.32,25.32,0,0,0-2.84,3,11.88,11.88,0,0,0-.73,1c-.16.25-.31.49-.44.73a6.26,6.26,0,0,0-.95,3.2c-.14.23-.32.44-.51.44a.24.24,0,0,1-.14,0,.27.27,0,0,1-.09-.12l-.09-.13c-.32-.47-.52-.18-.52-.18A1.2,1.2,0,0,0,219.64,75.29Z" transform="translate(-25 -34)"/><g class="cls-9"><path d="M223.29,59.25a1.09,1.09,0,0,0,.54.07,2,2,0,0,1,.79.22c-.13-1.64-2.37-2.11-2.37-2.11A3,3,0,0,1,223.29,59.25Z" transform="translate(-25 -34)"/><path d="M212.09,65.23c0,.32.09.67.14,1a7,7,0,0,0,4,.21c.26.08.52.2.56.37a.19.19,0,0,1,0,.15.36.36,0,0,1-.08.12l-.11.12c-.36.44,0,.55,0,.55.51.72,2.2-.05,2.2-.05s.57-.49,0-.87l-.16-.09a1.82,1.82,0,0,1-.51-.36l-.15-.16a3.41,3.41,0,0,1-.36-.57,3.85,3.85,0,0,0,.69-.82c1.36-2.12,1.33-5.85.26-9.07C214.41,56.36,211.52,60.58,212.09,65.23Z" transform="translate(-25 -34)"/><path d="M216,74.55a3.59,3.59,0,0,0,1.48.55c0-.1.1-.19.15-.29l-1.89-.76A3.4,3.4,0,0,1,216,74.55Z" transform="translate(-25 -34)"/><path d="M216.62,77.31s.75.13.68-.55a.57.57,0,0,0,0-.18,1.84,1.84,0,0,1-.05-.62l0-.22a3,3,0,0,1,.21-.64,1.59,1.59,0,0,1,.15-.29l-1.89-.76a4.89,4.89,0,0,1,.26.51c.1.26.17.54.07.68a.22.22,0,0,1-.12.09.38.38,0,0,1-.15,0,.43.43,0,0,0-.16,0c-.57,0-.44.32-.44.32C215,76.5,216.62,77.31,216.62,77.31Z" transform="translate(-25 -34)"/><path d="M215.93,75.33l1.28.64a.78.78,0,0,1,0-.22c-.34-.13-.87-.37-1.2-.52A.26.26,0,0,1,215.93,75.33Z" transform="translate(-25 -34)"/><path d="M216.62,77.31s.75.13.68-.55a2.37,2.37,0,0,1-.85-.25,1.92,1.92,0,0,1-.83-1.19c-.57,0-.44.32-.44.32C215,76.5,216.62,77.31,216.62,77.31Z" transform="translate(-25 -34)"/><path class="cls-11" d="M216.62,77.31s.75.13.68-.55a2.37,2.37,0,0,1-.85-.25,1.92,1.92,0,0,1-.83-1.19c-.57,0-.44.32-.44.32C215,76.5,216.62,77.31,216.62,77.31Z" transform="translate(-25 -34)"/><path class="cls-11" d="M223.29,59.25a1.09,1.09,0,0,0,.54.07,2,2,0,0,1,.79.22c-.13-1.64-2.37-2.11-2.37-2.11A3,3,0,0,1,223.29,59.25Z" transform="translate(-25 -34)"/></g><path class="cls-10" d="M212.55,65.49c.58,4.71,2.21,10.4,6.44,9.88s9.46-7.06,8.88-11.77-4.49-8.11-8.71-7.59S212,60.78,212.55,65.49Z" transform="translate(-25 -34)"/><path class="cls-10" d="M217.08,77.57s.75.13.68-.55l0-.18a1.62,1.62,0,0,1,0-.62,1.66,1.66,0,0,1,0-.22,3.1,3.1,0,0,1,.36-.93l-1.89-.78s.53.89.32,1.2a.2.2,0,0,1-.13.08.33.33,0,0,1-.14,0h-.16c-.57,0-.44.33-.44.33C215.42,76.77,217.08,77.57,217.08,77.57Z" transform="translate(-25 -34)"/><path class="cls-14" d="M216.38,75.58l1.29.64a1.66,1.66,0,0,1,0-.22c-.34-.13-.87-.37-1.2-.52A.23.23,0,0,1,216.38,75.58Z" transform="translate(-25 -34)"/><path class="cls-10" d="M217.08,77.57s.75.13.68-.55a2.14,2.14,0,0,1-.85-.25,1.92,1.92,0,0,1-.83-1.19c-.57,0-.44.32-.44.32C215.42,76.77,217.08,77.57,217.08,77.57Z" transform="translate(-25 -34)"/><path class="cls-11" d="M217.08,77.57s.75.13.68-.55a2.14,2.14,0,0,1-.85-.25,1.92,1.92,0,0,1-.83-1.19c-.57,0-.44.32-.44.32C215.42,76.77,217.08,77.57,217.08,77.57Z" transform="translate(-25 -34)"/><path class="cls-16" d="M222.72,57.69s2.24.48,2.36,2.12a1.8,1.8,0,0,0-.79-.22,1.2,1.2,0,0,1-.53-.07A3.11,3.11,0,0,0,222.72,57.69Z" transform="translate(-25 -34)"/><path class="cls-17" d="M217.2,76a1.37,1.37,0,0,1,1.25,1.48,1.77,1.77,0,0,1,0,.2c-.28.95-1.44,1.25-2.2,1.88A3.86,3.86,0,0,0,215,82.18a6.49,6.49,0,0,0,1.85,5.1c.68.67,1.5,1.18,2.17,1.86A10.9,10.9,0,0,1,220.9,92a6.66,6.66,0,0,1,.83,2.4,5.69,5.69,0,0,1-1.38,3.73,25.4,25.4,0,0,0-2.41,3.26,6.9,6.9,0,0,0-.4,5.38.72.72,0,0,0,.23.36.27.27,0,0,0,.36,0s0,0,0,0" transform="translate(-25 -34)"/><path class="cls-17" d="M221.14,75.76a.66.66,0,0,1,0,.82,1,1,0,0,1-.78.36c-.37,0-.77-.11-1.07.1a.93.93,0,0,0-.32.7,3.44,3.44,0,0,1-.08.78,1.55,1.55,0,0,1-.35.57,1.64,1.64,0,0,1-.64.46c-.53.21-1.15,0-1.7.2a2.37,2.37,0,0,0-1.33,1.73,4.92,4.92,0,0,0-.15,2.69,8.87,8.87,0,0,0,.72,1.64,3.74,3.74,0,0,1,.48,1.72A1.58,1.58,0,0,1,215,89" transform="translate(-25 -34)"/><path class="cls-17" d="M220.23,96.46c-.86,1.15-1.18,3-2.6,3.26a3.22,3.22,0,0,1-2.1-.59,15,15,0,0,0-4.81-2A5.22,5.22,0,0,0,206,98.59a35,35,0,0,0-1.77,3.1,6.4,6.4,0,0,1-3.59,2.36,14.89,14.89,0,0,1-4.36.37,2.41,2.41,0,0,1-1.54-.42,3.77,3.77,0,0,1-.64-1,4.26,4.26,0,0,0-3.42-1.89,9,9,0,0,0-3.95.83,4.15,4.15,0,0,1-2,.5,3.59,3.59,0,0,1-2.27-1.62,31.85,31.85,0,0,1-3.89-6.33" transform="translate(-25 -34)"/><path class="cls-18" d="M168.5,199.56c.34-1.25.56-2.35.56-2.35a4.82,4.82,0,0,1,.65-2.37v-.35h0l.1-2.53a8.91,8.91,0,0,0-.59-1.35c-.43-.81.15-3.71.15-3.71s1.84-4,1.53-6.66,3.91-11.44,3.91-11.44a11.74,11.74,0,0,0-.26-2.57,2.33,2.33,0,0,1,0-.53v0a19.81,19.81,0,0,1,1.6-4.89l.06-6.14a18.05,18.05,0,0,1,.87-8.46c.56-1.68.93-3,1.17-4.06,0-.12.05-.23.08-.34-2.89-.56-5.11-1-5.11-1s2-7,3.15-8.19,2.24-5.05,2.24-5.05.79-5-.11-6.46a9.53,9.53,0,0,1-.93-4s-2.13-1.67-2.38-2.39a11.65,11.65,0,0,1-.61-3.16c0-.84.32-1.58.26-2s.72-2.09.39-2.9a2.06,2.06,0,0,1-.12-.78v0h0a10.3,10.3,0,0,1,.27-2.06,6,6,0,0,1,2.21-1.08l.06-.19.14-.49.22-.12v-.18l0-.72-.28-1.62c-.57-2.83,3.2-3.11,3.2-3.11a2,2,0,0,1,1.1-.88c.76-.24,0,4.22-.4,4.48A18.5,18.5,0,0,0,180.1,102h0l-.08.11a1,1,0,0,1,.17.19l-.18,1,0,.15a3.88,3.88,0,0,1,.56,1,2.18,2.18,0,0,0-.61,1.57,4.81,4.81,0,0,1-.3,1.92s.55-.54,1-.4l1.81.6s1,.22.89.44.64,1.21.64,1.21l2.81-2.41.09-.23a6,6,0,0,0,.28-1.11,5.12,5.12,0,0,1-.85-.32,1.94,1.94,0,0,1-.73-.5,2.79,2.79,0,0,1-.39-1.18,17.12,17.12,0,0,0-.92-2.27,7.33,7.33,0,0,1-.38-4,2.68,2.68,0,0,1,.46-1.15c.46-.59,1.28-.81,1.87-1.27s1-1.18,1.69-1.52a3.29,3.29,0,0,1,2.06-.1,11.2,11.2,0,0,1,3.77,1.54,1.9,1.9,0,0,0,1.26.47,1.72,1.72,0,0,0,1-.64v0l0,0a4.7,4.7,0,0,1,.34,2,1.67,1.67,0,0,1,0,.32v.12a.14.14,0,0,0,0,.09h0a.33.33,0,0,0,0,.14,1.14,1.14,0,0,0,.23.38,2.2,2.2,0,0,1,.21.32.45.45,0,0,0,0-.11,1.6,1.6,0,0,1,.25.86.88.88,0,0,1-.23.6,3,3,0,0,1-.45.34,5.13,5.13,0,0,1-2.67,5.25c0,.07-.07.15-.1.23a6.38,6.38,0,0,0-.6,2.92.86.86,0,0,0,0,.22.44.44,0,0,1,.09.11h0s4.45.22,5.54-.69,2.57,2.42,2.57,2.42,1.58.37,1.92.08,2.19,0,2.19,0a4,4,0,0,1,2.83-.9,8.17,8.17,0,0,1,2.08-1.06h.05a2.17,2.17,0,0,1,1-.09,21.06,21.06,0,0,0,2.94-2.67c.67-1,3.85-4.44,3.87-4.45l0-.18.05-.52a1.24,1.24,0,0,0,.27,0l.08-.18a9.3,9.3,0,0,1,.7-1.46s0-.66-.17-.83a11.19,11.19,0,0,1,.19-2.6s2.15-4.53,3.78-1c0,0,3.26,2.36.35,4.85,0,0-1.14.49-1.31.92-.12.27-.53,1-.8,1.54l-.12.23,0,0-.06.43,0,.17c.52.32.87.64.77.85a5,5,0,0,0-.36,1.18s-4.07,4.71-4.65,6.77c0,0-10.64,5.77-14.08,6.09l.47,3.12s.11,1.86,0,2.52.27,3.68.27,3.68.42,4.44.9,5.08.29,3.28.29,3.28a21.79,21.79,0,0,0,.54,3.78,9.64,9.64,0,0,1,0,3.77s1.58,4-2.47,1.18c0,0-2-.2-4.38-.37v.23c0,.31,0,.65,0,1-.06,2.28-.17,5.41-.36,7.78-.34,4.19-1.94,12.45-1.94,12.45l-.16,4.16a5.38,5.38,0,0,1,.07,1.2,7.68,7.68,0,0,1-1.28,4.13l-.49,2.76a11,11,0,0,0-.88,2.88,2.45,2.45,0,0,0,0,.27,2.07,2.07,0,0,1,0,.43,23.68,23.68,0,0,1-.88,4.26s-.16,3-.64,3.2.45,1.78.71,2.25c0,0,0-.06,0-.09l0,.1a2,2,0,0,1,.11.77,1.1,1.1,0,0,1-.55,1.06c-.88.49-1.36.92-.64,1.12.28.08.58.11.8.2,0,0,0-.07,0-.1a.49.49,0,0,1,.28.55,2.18,2.18,0,0,1-.32,1,10.7,10.7,0,0,1-1.32,2.2l-.35,0a1.76,1.76,0,0,0,.19.39,1.5,1.5,0,0,0,.5.47,1.47,1.47,0,0,0,.61.24,1.76,1.76,0,0,1,1.29.68,1.35,1.35,0,0,1-.24,2.09l-3.31,1s-5.64.51-5.3-.74.57-2.34.57-2.34a5.08,5.08,0,0,1,.56-2.19,1.77,1.77,0,0,1,.21-.32l-.2,0s-.3-2.79-.83-3.34c-.12-.13-.14-.23-.11-.3s.09-.24.28-.28a.36.36,0,0,0,0,.11,3.27,3.27,0,0,1,.54,0s.24-1.45-.32-2a.57.57,0,0,1-.1-.44,2.9,2.9,0,0,1,.09-.59l0,0a21.32,21.32,0,0,1,1.44-3.38,4.1,4.1,0,0,0-.25-1.86c-.34-.55.32-7.2.32-7.2a22.6,22.6,0,0,1,.46-4.72,5.44,5.44,0,0,0-.38-3.29v-.12l.07-.5v0c.13-.85.36-2.39.52-3.1.22-1,.18-5.87.18-5.87l-.74-2.11-1.61,3.52-1.72,4.69a4.1,4.1,0,0,0-.87,2v.15a1.71,1.71,0,0,1,0,.32,2.77,2.77,0,0,1-.54,1.69s-.49,2.24-1.16,2.78a2.52,2.52,0,0,0-.7,1.65,29.15,29.15,0,0,1-1.28,3.8,6,6,0,0,0-.41,2.21h0v.12s-.15,1.17-.18,2.15v.32a3.55,3.55,0,0,0,.06.8v-.12a8.31,8.31,0,0,1,.16,2.05,5.31,5.31,0,0,1-1,3.35c-1.29,1.36-2.06,1.16-2.06,1.16s.53,1.79,1.24,2.17l.08.05a.18.18,0,0,1,0-.1.84.84,0,0,1,.19.66,4.67,4.67,0,0,1-1,2.59,1.53,1.53,0,0,1-.64.34l.12.07.24.13a1.21,1.21,0,0,0,.37.11,1.73,1.73,0,0,1,1.28.68,1.34,1.34,0,0,1-.23,2.09l-3.31,1S168.15,200.8,168.5,199.56Z" transform="translate(-25 -34)"/><path class="cls-19" d="M189.86,202.47l3.2-1a1.39,1.39,0,0,0,.24-2.09,1.67,1.67,0,0,0-1.23-.67,1.53,1.53,0,0,1-.59-.24A1.41,1.41,0,0,1,191,198a2.31,2.31,0,0,1-.32-1.23s-3.43-1.15-4.42-.17a2.9,2.9,0,0,0-.44.6,5.18,5.18,0,0,0-.53,2.22s-.21,1.09-.55,2.34S189.86,202.47,189.86,202.47Z" transform="translate(-25 -34)"/><path class="cls-19" d="M174.45,200.32l3.21-1a1.37,1.37,0,0,0,.24-2.08,1.64,1.64,0,0,0-1.23-.68,1.37,1.37,0,0,1-.36-.11l-.24-.13a2,2,0,0,1-.81-1.7s-3.43-1.15-4.42-.17a2.94,2.94,0,0,0-.35.44,5.08,5.08,0,0,0-.62,2.38s-.22,1.1-.55,2.34S174.45,200.32,174.45,200.32Z" transform="translate(-25 -34)"/><path class="cls-11" d="M186.25,196.58a2.9,2.9,0,0,0-.44.6h0l5.18.8a2.32,2.32,0,0,1-.32-1.24S187.24,195.6,186.25,196.58Z" transform="translate(-25 -34)"/><path class="cls-11" d="M170.51,194.87l0,1c.76,1.36,4.68,1.22,5.84.6l-.24-.13a2,2,0,0,1-.81-1.69s-3.43-1.15-4.42-.17A2.34,2.34,0,0,0,170.51,194.87Z" transform="translate(-25 -34)"/><path class="cls-4" d="M170.05,190.65a8,8,0,0,1,.57,1.35l-.14,3.48c.83,1.5,5.45,1.19,6.09.41s1.4-2.82.7-3.2-1.2-2.17-1.2-2.17.75.2,2-1.16,1-4.52.82-5.28a15.25,15.25,0,0,1,.12-3.27,6.69,6.69,0,0,1,.4-2.33,28.1,28.1,0,0,0,1.26-3.8,2.59,2.59,0,0,1,.68-1.65c.64-.56,1.12-2.79,1.12-2.79a2.88,2.88,0,0,0,.52-1.88,3.86,3.86,0,0,1,.84-2.27l1.68-4.71,1.55-3.53.71,2.13s0,4.87-.19,5.88-.58,3.69-.58,3.69a5.5,5.5,0,0,1,.36,3.29,22.28,22.28,0,0,0-.45,4.71s-.64,6.66-.32,7.2a4.57,4.57,0,0,1,.24,1.87s-2,3.82-1.41,4.37.32,2,.32,2-1.23-.05-.72.51.82,3.33.82,3.33l5.32.82a11,11,0,0,0,1.28-2.2c.77-1.61-.07-1.47-.78-1.67s-.24-.64.62-1.13.42-1.71.42-1.71-1.2-2.21-.75-2.37.62-3.21.62-3.21,1-3.59.83-4.57.84-3.29.84-3.29l.41-2.77a7.61,7.61,0,0,0,1.18-5.21l.16-4.29s1.56-8.25,1.9-12.44c.21-2.69.32-6.36.37-8.65,0-1.28,0-2.13,0-2.13l-19-2.72a16,16,0,0,1-.46,2.82c-.23,1-.59,2.38-1.13,4.06a18.61,18.61,0,0,0-.86,8.46l-.06,6.15s-1.84,4-1.54,5.47a11.59,11.59,0,0,1,.26,2.56s-4.1,8.82-3.81,11.44-1.49,6.67-1.49,6.67S169.64,189.83,170.05,190.65Z" transform="translate(-25 -34)"/><path class="cls-8" d="M181.85,168.06l-5.78-1S179.23,170.54,181.85,168.06Z" transform="translate(-25 -34)"/><path class="cls-11" d="M177.13,161.41s-.28,2.05,1,2.87C178.08,164.28,175.84,163.83,177.13,161.41Z" transform="translate(-25 -34)"/><path class="cls-11" d="M177.73,154.89s4.71,4.18,6.48,3.92S177.73,154.89,177.73,154.89Z" transform="translate(-25 -34)"/><path class="cls-11" d="M189,170.21s3.66,1,3.71,2.46S189,170.21,189,170.21Z" transform="translate(-25 -34)"/><path class="cls-8" d="M187.44,188.6s5.18,1.17,3.67,1.77a25.39,25.39,0,0,1-3.94,1S185.49,191.44,187.44,188.6Z" transform="translate(-25 -34)"/><g class="cls-20"><path d="M192.14,191.47a1,1,0,0,0,.5-.74l.05.1s.44,1.2-.42,1.7l-.28.17a4.68,4.68,0,0,1-.48-.11C190.81,192.39,191.29,192,192.14,191.47Z" transform="translate(-25 -34)"/><path d="M185.43,190.85c-.13-.13-.11-.47,0-.91a2.48,2.48,0,0,1,.24,1.29A.89.89,0,0,0,185.43,190.85Z" transform="translate(-25 -34)"/><path d="M187.08,168.91a6.07,6.07,0,0,1,.29,1.64,5.8,5.8,0,0,0-.36-1.14S187,169.22,187.08,168.91Z" transform="translate(-25 -34)"/><path d="M175.24,166.13a1.94,1.94,0,0,1,0-.48c0,.32.08.64.11.91C175.29,166.42,175.26,166.28,175.24,166.13Z" transform="translate(-25 -34)"/><path d="M186.6,184.62a2.76,2.76,0,0,1-.09-1,3.32,3.32,0,0,1,.21,1.25A1.23,1.23,0,0,0,186.6,184.62Z" transform="translate(-25 -34)"/><path d="M185.2,192.91a18,18,0,0,1,.51,2.73l5.31.83a11.93,11.93,0,0,0,1.29-2.21c.06-.14.12-.27.16-.39.32.16.43.5,0,1.45a10.79,10.79,0,0,1-1.28,2.21l-5.32-.82s-.29-2.8-.8-3.35C184.78,193.09,185,193,185.2,192.91Z" transform="translate(-25 -34)"/><path d="M192.55,185.25s-.16,3-.61,3.2h0c-.2-.51-.32-1-.13-1.07.45-.16.61-3.2.61-3.2s1-3.59.84-4.57.83-3.29.83-3.29l.42-2.77a7.67,7.67,0,0,0,1.17-5.22l.17-4.28s1.55-8.26,1.89-12.44c.22-2.69.32-6.36.38-8.65,0-.41,0-.78,0-1.09l.15,0s0,.86,0,2.14c-.05,2.29-.16,6-.37,8.64-.34,4.19-1.9,12.45-1.9,12.45l-.16,4.28a7.63,7.63,0,0,1-1.18,5.22l-.41,2.77s-1,2.31-.84,3.29S192.55,185.25,192.55,185.25Z" transform="translate(-25 -34)"/><path d="M176.44,194.71a5.25,5.25,0,0,0,.93-2.07c.52.52-.18,2.4-.8,3.14s-5.26,1.08-6.09-.41l0-.84C171.67,195.75,175.82,195.44,176.44,194.71Z" transform="translate(-25 -34)"/><path d="M169.92,189.46a10.12,10.12,0,0,1,.57,1.35l0,.62a8.66,8.66,0,0,0-.41-.9,2.58,2.58,0,0,1-.15-1.1Z" transform="translate(-25 -34)"/><path d="M176.33,190.4a9.58,9.58,0,0,1-.39-1.06s.74.2,2-1.16c.91-1,1-2.94,1-4.21.19.76.43,3.9-.82,5.27A3.09,3.09,0,0,1,176.33,190.4Z" transform="translate(-25 -34)"/><path d="M179,180.7a22.89,22.89,0,0,0-.18,2.61c0-.17-.06-.32-.08-.41a15.79,15.79,0,0,1,.13-3.27,6.46,6.46,0,0,1,.4-2.33,29.81,29.81,0,0,0,1.25-3.8,2.59,2.59,0,0,1,.68-1.65c.64-.55,1.13-2.79,1.13-2.79a2.93,2.93,0,0,0,.51-1.88,3.86,3.86,0,0,1,.84-2.27l1.69-4.71,1.55-3.53.71,2.11v.67l-.58-1.71-1.54,3.52L183.84,166a3.82,3.82,0,0,0-.84,2.26,2.89,2.89,0,0,1-.52,1.89s-.48,2.24-1.12,2.78a2.61,2.61,0,0,0-.68,1.66,28.57,28.57,0,0,1-1.26,3.8A6.77,6.77,0,0,0,179,180.7Z" transform="translate(-25 -34)"/></g><path class="cls-21" d="M178.43,99.29l.27,1.63,0,.71,0,.53,1.83.26.23-.37h0a15.85,15.85,0,0,1,1.52-2.25c.35-.27,1.13-4.73.39-4.49a1.92,1.92,0,0,0-1.06.9S177.89,96.46,178.43,99.29Z" transform="translate(-25 -34)"/><path class="cls-11" d="M178.62,102.16l1.83.26.23-.37h0a1.62,1.62,0,0,0-2-.42Z" transform="translate(-25 -34)"/><path class="cls-22" d="M178.12,103l2.41.64.07-.36.17-1a1.68,1.68,0,0,0-2.33-.43h0l-.14.5Z" transform="translate(-25 -34)"/><path class="cls-21" d="M217.62,101l2.55,1.49.25-.48c.27-.51.66-1.28.78-1.55.17-.42,1.28-.92,1.28-.92,2.81-2.49-.32-4.85-.32-4.85-1.58-3.51-3.67,1-3.67,1a11.8,11.8,0,0,0-.18,2.6c.18.17.16.83.16.83a9.19,9.19,0,0,0-.68,1.46A3.33,3.33,0,0,0,217.62,101Z" transform="translate(-25 -34)"/><path class="cls-11" d="M217.62,101l2.55,1.49.25-.48c-.35-.32-1.6-1.42-2-1.39a3.11,3.11,0,0,1-.61,0C217.67,100.83,217.62,101,217.62,101Z" transform="translate(-25 -34)"/><path class="cls-22" d="M217.33,101.75l2.86,1.55.08-.64.06-.43s-1.63-1.52-2.13-1.48a2.75,2.75,0,0,1-.76,0l-.06.52Z" transform="translate(-25 -34)"/><path class="cls-21" d="M185.09,110.28s12.65,1.92,10.31,1.06a3.2,3.2,0,0,1-2.35-2.85,6.64,6.64,0,0,1,.59-2.92,12.88,12.88,0,0,1,1.22-2.25s-9.51-5.72-7.75-.78a7.65,7.65,0,0,1,.46,2.32,6.32,6.32,0,0,1-.34,2.32A7,7,0,0,1,185.09,110.28Z" transform="translate(-25 -34)"/><path class="cls-11" d="M187.12,102.52a7.73,7.73,0,0,1,.47,2.33c.88.8,1.89.79,3.17.84,1,0,2.08.32,2.89-.13a12.44,12.44,0,0,1,1.22-2.24S185.35,97.59,187.12,102.52Z" transform="translate(-25 -34)"/><circle class="cls-21" cx="191.11" cy="100.77" r="5.26" transform="translate(36.03 239.28) rotate(-80.78)"/><path class="cls-11" d="M185.09,110.28s12.65,1.92,10.31,1.06a3.2,3.2,0,0,1-2.35-2.85,6.9,6.9,0,0,0-2.66-1.55,3.85,3.85,0,0,0-2.3-.13,3.41,3.41,0,0,0-.86.36A6.93,6.93,0,0,1,185.09,110.28Z" transform="translate(-25 -34)"/><path class="cls-11" d="M178.12,103l2.41.64.07-.36a2.16,2.16,0,0,0-2.31-.89Z" transform="translate(-25 -34)"/><path class="cls-11" d="M217.33,101.75l2.86,1.55.08-.64a20.8,20.8,0,0,0-2.88-1.42Z" transform="translate(-25 -34)"/><path class="cls-11" d="M178.83,142.11c4.89,1,11.86,2.25,13,1.95a32.81,32.81,0,0,1,6.44.09c0-1.29,0-2.14,0-2.14l-19-2.72A15.78,15.78,0,0,1,178.83,142.11Z" transform="translate(-25 -34)"/><path class="cls-4" d="M174,140.77s16.1,3.4,17.86,2.94,10.67.46,10.67.46c3.91,2.84,2.39-1.2,2.39-1.2a9.76,9.76,0,0,0,0-3.75,23,23,0,0,1-.52-3.79s.19-2.64-.27-3.28-.86-5.07-.86-5.07-.32-3-.26-3.69,0-2.52,0-2.52l-.45-3.11c3.33-.32,13.64-6.11,13.64-6.11.56-2.06,4.51-6.78,4.51-6.78a4.56,4.56,0,0,1,.35-1.18c.29-.69-3.63-2.24-3.63-2.24s-3.1,3.51-3.75,4.45a20.31,20.31,0,0,1-2.85,2.68,2.23,2.23,0,0,0-1,.09h-.05a7.7,7.7,0,0,0-2,1.06,3.88,3.88,0,0,0-2.73.91s-1.8-.32-2.12,0-1.86-.07-1.86-.07-1.42-3.33-2.47-2.42-5.36.71-5.36.71a6.39,6.39,0,0,0-2.79-1.71,3.84,3.84,0,0,0-2.3-.12,3,3,0,0,0-.92.4l-2.72,2.46s-.71-1-.62-1.22-.86-.43-.86-.43l-1.75-.59c-.46-.16-.95.35-1,.4a5.27,5.27,0,0,0,.3-1.93,2.23,2.23,0,0,1,.59-1.57c-1.4-3.84-5-.81-5-.81a7.31,7.31,0,0,0-.16,2.87c.33.81-.45,2.46-.38,2.9s-.22,1.19-.25,2a12,12,0,0,0,.59,3.16c.23.72,2.29,2.39,2.29,2.39a10,10,0,0,0,.91,4c.87,1.49.11,6.46.11,6.46s-1,3.85-2.19,5.05S174,140.77,174,140.77Z" transform="translate(-25 -34)"/><path class="cls-11" d="M198.71,112.61s.54-1.44,1-1.55a10.42,10.42,0,0,0,1.3-.53l-.26-.55s-1.68.39-2,.87A3.71,3.71,0,0,0,198.71,112.61Z" transform="translate(-25 -34)"/><path class="cls-11" d="M207.71,109.73c.07.44,4,1,4,1l-1.92-2.08h-.05A8.19,8.19,0,0,0,207.71,109.73Z" transform="translate(-25 -34)"/><path class="cls-11" d="M198.23,124.58s-10.4,12.14-17.85,4.58C180.39,129.16,192.53,131.29,198.23,124.58Z" transform="translate(-25 -34)"/><path class="cls-11" d="M200.94,118.28a19,19,0,0,1-2.46,3.86,15.45,15.45,0,0,1-3.76,3.36S200.81,119.09,200.94,118.28Z" transform="translate(-25 -34)"/><path class="cls-11" d="M203.16,111.43s-1.16,4.25-3.78,5.61Z" transform="translate(-25 -34)"/><path class="cls-11" d="M204.66,111.92c0-.08.76,3.43-3.5,5.19C201.16,117.11,203,116.57,204.66,111.92Z" transform="translate(-25 -34)"/><path class="cls-11" d="M178.76,108a31.79,31.79,0,0,0-2.72,1.89S177.5,107.9,178.76,108Z" transform="translate(-25 -34)"/><path class="cls-4" d="M192.35,105.59a1.12,1.12,0,0,1-.44.7,1,1,0,0,1-.5.09,10.37,10.37,0,0,1-4.73-.64,1.76,1.76,0,0,1-.7-.51,2.88,2.88,0,0,1-.38-1.17,18.37,18.37,0,0,0-.88-2.27,7.45,7.45,0,0,1-.37-4,2.76,2.76,0,0,1,.45-1.16c.44-.59,1.23-.8,1.81-1.26s1-1.19,1.64-1.53a3,3,0,0,1,2-.1,10.6,10.6,0,0,1,3.65,1.54,1.86,1.86,0,0,0,1.22.46,1.64,1.64,0,0,0,.93-.66,4.91,4.91,0,0,1,.32,2.31,1,1,0,0,0,0,.34,1,1,0,0,0,.23.37c.38.48.6,1.22.19,1.66-.17.2-.44.3-.61.5-.32.36-.24.89-.25,1.37a.55.55,0,0,1-.77.59,1.81,1.81,0,0,0-.69-.1,1.21,1.21,0,0,0-.62.44A7.83,7.83,0,0,0,192.35,105.59Z" transform="translate(-25 -34)"/><g class="cls-9"><path d="M185.81,104.83a1.7,1.7,0,0,0,.71.5,10.8,10.8,0,0,0,4.73.65,1.18,1.18,0,0,0,.5-.1,1.07,1.07,0,0,0,.44-.69,8.32,8.32,0,0,1,1.46-3.06,1.15,1.15,0,0,1,.62-.44,1.81,1.81,0,0,1,.69.1.71.71,0,0,0,.64-.14.67.67,0,0,0,.13-.46,2.08,2.08,0,0,1,.24-1.36c.18-.2.44-.3.62-.5a1,1,0,0,0,.14-1,1.2,1.2,0,0,1,0,1.41c-.18.2-.45.3-.62.5-.32.35-.23.89-.24,1.36a.72.72,0,0,1-.14.47.7.7,0,0,1-.64.12,2,2,0,0,0-.69-.09,1.15,1.15,0,0,0-.62.44,8.26,8.26,0,0,0-1.46,3.06,1.06,1.06,0,0,1-.43.69,1.09,1.09,0,0,1-.5.1,10.54,10.54,0,0,1-4.74-.65,1.74,1.74,0,0,1-.7-.5,1.4,1.4,0,0,1-.22-.44Z" transform="translate(-25 -34)"/><path d="M196.34,97.57a.76.76,0,0,1-.15-.28,1,1,0,0,1,0-.34A4.79,4.79,0,0,0,196,95l0,0a4.94,4.94,0,0,1,.31,2.31A1.22,1.22,0,0,0,196.34,97.57Z" transform="translate(-25 -34)"/></g><path class="cls-11" d="M193.17,108.82s-6.6.61-7.16-.4" transform="translate(-25 -34)"/><path class="cls-11" d="M180.51,105.61s-3.65-.14-4.49,1.2" transform="translate(-25 -34)"/></svg>