<svg id="Layer_1" data-name="Layer 1" xmlns="http://www.w3.org/2000/svg" xmlns:xlink="http://www.w3.org/1999/xlink" viewBox="0 0 343.37 244.98"><defs><style>.cls-1,.cls-121,.cls-122,.cls-123,.cls-124,.cls-6{fill:#6c63ff;}.cls-1,.cls-104,.cls-105,.cls-108,.cls-117,.cls-67,.cls-9{opacity:0.1;}.cls-1,.cls-104,.cls-105,.cls-108,.cls-112,.cls-117,.cls-118,.cls-119,.cls-121,.cls-122,.cls-123,.cls-124,.cls-67{isolation:isolate;}.cls-2{fill:url(#linear-gradient);}.cls-3{fill:#f6f7f9;}.cls-4{fill:#534d72;}.cls-119,.cls-5{opacity:0.2;}.cls-7{fill:url(#linear-gradient-2);}.cls-8{fill:url(#linear-gradient-3);}.cls-10{fill:url(#linear-gradient-4);}.cls-11{fill:url(#linear-gradient-6);}.cls-12{fill:url(#linear-gradient-7);}.cls-13{fill:url(#linear-gradient-8);}.cls-14{fill:url(#linear-gradient-9);}.cls-15{fill:url(#linear-gradient-10);}.cls-16{fill:url(#linear-gradient-11);}.cls-17{fill:url(#linear-gradient-12);}.cls-18{fill:url(#linear-gradient-13);}.cls-19{fill:url(#linear-gradient-14);}.cls-20{fill:url(#linear-gradient-15);}.cls-21{fill:url(#linear-gradient-16);}.cls-22{fill:url(#linear-gradient-17);}.cls-23{fill:url(#linear-gradient-18);}.cls-24{fill:url(#linear-gradient-19);}.cls-25{fill:url(#linear-gradient-20);}.cls-26{fill:url(#linear-gradient-21);}.cls-112,.cls-27{opacity:0.03;}.cls-28{fill:url(#linear-gradient-23);}.cls-29{fill:url(#linear-gradient-24);}.cls-30{fill:url(#linear-gradient-26);}.cls-31{fill:url(#linear-gradient-27);}.cls-32{fill:url(#linear-gradient-28);}.cls-33{fill:url(#linear-gradient-29);}.cls-34{fill:url(#linear-gradient-30);}.cls-35{fill:url(#linear-gradient-31);}.cls-36{fill:url(#linear-gradient-32);}.cls-37{fill:url(#linear-gradient-33);}.cls-38{fill:url(#linear-gradient-34);}.cls-39{fill:url(#linear-gradient-35);}.cls-40{fill:url(#linear-gradient-36);}.cls-41{fill:url(#linear-gradient-37);}.cls-42{fill:url(#linear-gradient-38);}.cls-43{fill:url(#linear-gradient-39);}.cls-44{fill:url(#linear-gradient-40);}.cls-45{fill:url(#linear-gradient-41);}.cls-46{fill:url(#linear-gradient-42);}.cls-47{fill:url(#linear-gradient-44);}.cls-48{fill:url(#linear-gradient-45);}.cls-49{fill:url(#linear-gradient-46);}.cls-50{fill:url(#linear-gradient-47);}.cls-51{fill:url(#linear-gradient-48);}.cls-52{fill:url(#linear-gradient-49);}.cls-53{fill:url(#linear-gradient-50);}.cls-54{fill:url(#linear-gradient-51);}.cls-55{fill:url(#linear-gradient-52);}.cls-56{fill:url(#linear-gradient-53);}.cls-57{fill:url(#linear-gradient-54);}.cls-58{fill:url(#linear-gradient-55);}.cls-59{fill:url(#linear-gradient-56);}.cls-60{fill:url(#linear-gradient-57);}.cls-61{fill:url(#linear-gradient-58);}.cls-62{fill:url(#linear-gradient-59);}.cls-63{fill:url(#linear-gradient-60);}.cls-64{fill:url(#linear-gradient-61);}.cls-65{fill:url(#linear-gradient-62);}.cls-66{fill:url(#linear-gradient-63);}.cls-67{fill:url(#linear-gradient-64);}.cls-68{fill:url(#linear-gradient-65);}.cls-69{fill:url(#linear-gradient-66);}.cls-70{fill:url(#linear-gradient-67);}.cls-71{fill:url(#linear-gradient-68);}.cls-72{fill:url(#linear-gradient-69);}.cls-73{fill:url(#linear-gradient-70);}.cls-74{fill:url(#linear-gradient-71);}.cls-75{fill:url(#linear-gradient-72);}.cls-76{fill:url(#linear-gradient-73);}.cls-77{fill:url(#linear-gradient-74);}.cls-78{fill:url(#linear-gradient-75);}.cls-79{fill:url(#linear-gradient-76);}.cls-80{fill:url(#linear-gradient-77);}.cls-81{fill:url(#linear-gradient-78);}.cls-82{fill:url(#linear-gradient-79);}.cls-83{fill:url(#linear-gradient-80);}.cls-84{fill:url(#linear-gradient-81);}.cls-85{fill:url(#linear-gradient-82);}.cls-86{fill:url(#linear-gradient-83);}.cls-87{fill:url(#linear-gradient-84);}.cls-88{fill:url(#linear-gradient-85);}.cls-89{fill:url(#linear-gradient-86);}.cls-90{fill:url(#linear-gradient-87);}.cls-91{fill:url(#linear-gradient-88);}.cls-92{fill:url(#linear-gradient-89);}.cls-93{fill:url(#linear-gradient-90);}.cls-94{fill:url(#linear-gradient-91);}.cls-95{fill:url(#linear-gradient-92);}.cls-96{fill:url(#linear-gradient-93);}.cls-97{fill:url(#linear-gradient-94);}.cls-98{fill:url(#linear-gradient-95);}.cls-99{fill:url(#linear-gradient-96);}.cls-100{fill:url(#linear-gradient-97);}.cls-101{fill:url(#linear-gradient-98);}.cls-102{fill:url(#linear-gradient-99);}.cls-103{fill:url(#linear-gradient-100);}.cls-104{fill:url(#linear-gradient-101);}.cls-105{fill:url(#linear-gradient-102);}.cls-106{fill:#9d9cb5;}.cls-107{fill:#e4e3f9;}.cls-109,.cls-117{fill:none;}.cls-110{fill:#535461;}.cls-111{fill:#5e52ad;}.cls-113{fill:#784d55;}.cls-114{fill:#f8bdc5;}.cls-115{fill:#eb6475;}.cls-116{fill:#ffc075;}.cls-117{stroke:#000;stroke-miterlimit:10;}.cls-118{fill:#fff;}.cls-118,.cls-121{opacity:0.5;}.cls-120{fill:#a8a8a8;}.cls-122{opacity:0.8;}.cls-123{opacity:0.95;}.cls-124{opacity:0.6;}</style><linearGradient id="linear-gradient" x1="150.02" y1="115.73" x2="150.02" y2="273.43" gradientTransform="matrix(1, 0, 0, -1, -25.99, 276)" gradientUnits="userSpaceOnUse"><stop offset="0" stop-color="gray" stop-opacity="0.25"/><stop offset="0.54" stop-color="gray" stop-opacity="0.12"/><stop offset="1" stop-color="gray" stop-opacity="0.1"/></linearGradient><linearGradient id="linear-gradient-2" x1="207.39" y1="115.95" x2="207.39" y2="115.97" gradientTransform="matrix(1, 0, 0, -1, -21.14, 264.99)" xlink:href="#linear-gradient"/><linearGradient id="linear-gradient-3" x1="208.96" y1="98.35" x2="208.96" y2="115.95" gradientTransform="matrix(1, 0, 0, -1, -21.14, 264.99)" xlink:href="#linear-gradient"/><linearGradient id="linear-gradient-4" x1="208.85" y1="100.12" x2="208.85" y2="101.39" gradientTransform="matrix(1, 0, 0, -1, -21.14, 264.99)" xlink:href="#linear-gradient"/><linearGradient id="linear-gradient-6" x1="210.9" y1="112.39" x2="210.9" y2="114.28" gradientTransform="matrix(1, 0, 0, -1, -21.14, 264.99)" xlink:href="#linear-gradient"/><linearGradient id="linear-gradient-7" x1="211.11" y1="111.58" x2="211.11" y2="112.98" gradientTransform="matrix(1, 0, 0, -1, -21.14, 264.99)" xlink:href="#linear-gradient"/><linearGradient id="linear-gradient-8" x1="210.21" y1="110.08" x2="210.21" y2="111.82" gradientTransform="matrix(1, 0, 0, -1, -21.14, 264.99)" xlink:href="#linear-gradient"/><linearGradient id="linear-gradient-9" x1="209.84" y1="108.55" x2="209.84" y2="109.87" gradientTransform="matrix(1, 0, 0, -1, -21.14, 264.99)" xlink:href="#linear-gradient"/><linearGradient id="linear-gradient-10" x1="209.31" y1="106.98" x2="209.31" y2="109.16" gradientTransform="matrix(1, 0, 0, -1, -21.14, 264.99)" xlink:href="#linear-gradient"/><linearGradient id="linear-gradient-11" x1="209.02" y1="106.49" x2="209.02" y2="107.96" gradientTransform="matrix(1, 0, 0, -1, -21.14, 264.99)" xlink:href="#linear-gradient"/><linearGradient id="linear-gradient-12" x1="209.67" y1="105.66" x2="209.67" y2="106.84" gradientTransform="matrix(1, 0, 0, -1, -21.14, 264.99)" xlink:href="#linear-gradient"/><linearGradient id="linear-gradient-13" x1="208.43" y1="102.91" x2="208.43" y2="105.22" gradientTransform="matrix(1, 0, 0, -1, -21.14, 264.99)" xlink:href="#linear-gradient"/><linearGradient id="linear-gradient-14" x1="209.25" y1="103.53" x2="209.25" y2="104.45" gradientTransform="matrix(1, 0, 0, -1, -21.14, 264.99)" xlink:href="#linear-gradient"/><linearGradient id="linear-gradient-15" x1="208.11" y1="101.07" x2="208.11" y2="103.84" gradientTransform="matrix(1, 0, 0, -1, -21.14, 264.99)" xlink:href="#linear-gradient"/><linearGradient id="linear-gradient-16" x1="208.19" y1="99.2" x2="208.19" y2="102.55" gradientTransform="matrix(1, 0, 0, -1, -21.14, 264.99)" xlink:href="#linear-gradient"/><linearGradient id="linear-gradient-17" x1="215.76" y1="99.23" x2="215.76" y2="113.03" gradientTransform="matrix(1, 0, 0, -1, -21.14, 264.99)" xlink:href="#linear-gradient"/><linearGradient id="linear-gradient-18" x1="229.85" y1="98.28" x2="229.85" y2="113.31" gradientTransform="matrix(1, 0, 0, -1, -21.14, 264.99)" xlink:href="#linear-gradient"/><linearGradient id="linear-gradient-19" x1="217.02" y1="98.55" x2="217.02" y2="113.31" gradientTransform="matrix(1, 0, 0, -1, -21.14, 264.99)" xlink:href="#linear-gradient"/><linearGradient id="linear-gradient-20" x1="205.87" y1="98.36" x2="205.87" y2="115.95" gradientTransform="matrix(1, 0, 0, -1, -21.14, 264.99)" xlink:href="#linear-gradient"/><linearGradient id="linear-gradient-21" x1="271.32" y1="9.71" x2="271.32" y2="48.51" gradientTransform="matrix(1, 0, 0, -1, -21.14, 264.99)" xlink:href="#linear-gradient"/><linearGradient id="linear-gradient-23" x1="295.38" y1="14.49" x2="295.38" y2="76.03" gradientTransform="matrix(1, 0, 0, -1, -21.14, 264.99)" xlink:href="#linear-gradient"/><linearGradient id="linear-gradient-24" x1="256.44" y1="138.68" x2="256.44" y2="161.85" xlink:href="#linear-gradient"/><linearGradient id="linear-gradient-26" x1="246.49" y1="55.47" x2="246.49" y2="81.9" gradientTransform="matrix(1, 0, 0, -1, -21.14, 264.99)" xlink:href="#linear-gradient"/><linearGradient id="linear-gradient-27" x1="273.39" y1="74.04" x2="273.39" y2="117.86" gradientTransform="matrix(1, 0, 0, -1, -21.14, 264.99)" xlink:href="#linear-gradient"/><linearGradient id="linear-gradient-28" x1="275.03" y1="107.83" x2="275.03" y2="117.86" gradientTransform="matrix(1, 0, 0, -1, -21.14, 264.99)" xlink:href="#linear-gradient"/><linearGradient id="linear-gradient-29" x1="254.28" y1="145.43" x2="254.28" y2="169.48" xlink:href="#linear-gradient"/><linearGradient id="linear-gradient-30" x1="273.39" y1="74.04" x2="273.39" y2="105.42" gradientTransform="matrix(1, 0, 0, -1, -21.14, 264.99)" xlink:href="#linear-gradient"/><linearGradient id="linear-gradient-31" x1="272.83" y1="44.22" x2="272.83" y2="104.45" gradientTransform="matrix(1, 0, 0, -1, -21.14, 264.99)" xlink:href="#linear-gradient"/><linearGradient id="linear-gradient-32" x1="272.83" y1="44.82" x2="272.83" y2="105.04" gradientTransform="matrix(1, 0, 0, -1, -21.14, 264.99)" xlink:href="#linear-gradient"/><linearGradient id="linear-gradient-33" x1="246.49" y1="74.79" x2="246.49" y2="81.9" gradientTransform="matrix(1, 0, 0, -1, -21.14, 264.99)" xlink:href="#linear-gradient"/><linearGradient id="linear-gradient-34" x1="246.89" y1="75.38" x2="246.89" y2="95.41" gradientTransform="matrix(1, 0, 0, -1, -21.14, 264.99)" xlink:href="#linear-gradient"/><linearGradient id="linear-gradient-35" x1="240.99" y1="54.52" x2="240.99" y2="104.44" gradientTransform="matrix(1, 0, 0, -1, -21.14, 264.99)" xlink:href="#linear-gradient"/><linearGradient id="linear-gradient-36" x1="270.97" y1="46" x2="270.97" y2="57.47" xlink:href="#linear-gradient"/><linearGradient id="linear-gradient-37" x1="268.24" y1="47.08" x2="268.24" y2="57.47" xlink:href="#linear-gradient"/><linearGradient id="linear-gradient-38" x1="245.27" y1="54.52" x2="245.27" y2="58.34" gradientTransform="matrix(1, 0, 0, -1, -21.14, 264.99)" xlink:href="#linear-gradient"/><linearGradient id="linear-gradient-39" x1="263.34" y1="9.46" x2="263.34" y2="57.75" gradientTransform="matrix(1, 0, 0, -1, -21.14, 264.99)" xlink:href="#linear-gradient"/><linearGradient id="linear-gradient-40" x1="259.48" y1="13.83" x2="259.48" y2="54.03" gradientTransform="matrix(1, 0, 0, -1, -21.14, 264.99)" xlink:href="#linear-gradient"/><linearGradient id="linear-gradient-41" x1="258.88" y1="13.23" x2="258.88" y2="53.43" gradientTransform="matrix(1, 0, 0, -1, -21.14, 264.99)" xlink:href="#linear-gradient"/><linearGradient id="linear-gradient-42" x1="258.87" y1="13.83" x2="258.87" y2="54.03" gradientTransform="matrix(1, 0, 0, -1, -21.14, 264.99)" xlink:href="#linear-gradient"/><linearGradient id="linear-gradient-44" x1="245.22" y1="20.93" x2="245.22" y2="31.81" gradientTransform="matrix(1, 0, 0, -1, -21.14, 264.99)" xlink:href="#linear-gradient"/><linearGradient id="linear-gradient-45" x1="261.58" y1="54.32" x2="261.58" y2="66.12" xlink:href="#linear-gradient"/><linearGradient id="linear-gradient-46" x1="281.83" y1="17.31" x2="281.83" y2="24.9" gradientTransform="matrix(1, 0, 0, -1, -21.14, 264.99)" xlink:href="#linear-gradient"/><linearGradient id="linear-gradient-47" x1="279.68" y1="2.8" x2="279.68" y2="24.59" gradientTransform="matrix(1, 0, 0, -1, -21.14, 264.99)" xlink:href="#linear-gradient"/><linearGradient id="linear-gradient-48" x1="279.67" y1="2.8" x2="279.67" y2="11.45" gradientTransform="matrix(1, 0, 0, -1, -21.14, 264.99)" xlink:href="#linear-gradient"/><linearGradient id="linear-gradient-49" x1="256.53" y1="56.67" x2="256.53" y2="57.47" xlink:href="#linear-gradient"/><linearGradient id="linear-gradient-50" x1="257.35" y1="53.52" x2="257.35" y2="54.32" xlink:href="#linear-gradient"/><linearGradient id="linear-gradient-51" x1="257.13" y1="54.69" x2="257.13" y2="55.49" xlink:href="#linear-gradient"/><linearGradient id="linear-gradient-52" x1="257.35" y1="51.94" x2="257.35" y2="52.74" xlink:href="#linear-gradient"/><linearGradient id="linear-gradient-53" x1="255.39" y1="50.31" x2="255.39" y2="51.11" xlink:href="#linear-gradient"/><linearGradient id="linear-gradient-54" x1="296.71" y1="9" x2="296.71" y2="20.22" gradientTransform="matrix(1, 0, 0, -1, -21.14, 264.99)" xlink:href="#linear-gradient"/><linearGradient id="linear-gradient-55" x1="309.93" y1="8.43" x2="309.93" y2="24.43" gradientTransform="matrix(1, 0, 0, -1, -21.14, 264.99)" xlink:href="#linear-gradient"/><linearGradient id="linear-gradient-56" x1="309.93" y1="13.24" x2="309.93" y2="24" gradientTransform="matrix(1, 0, 0, -1, -21.14, 264.99)" xlink:href="#linear-gradient"/><linearGradient id="linear-gradient-57" x1="298.55" y1="23.46" x2="298.55" y2="68.48" gradientTransform="matrix(1, 0, 0, -1, -21.14, 264.99)" xlink:href="#linear-gradient"/><linearGradient id="linear-gradient-58" x1="299.46" y1="15.71" x2="299.46" y2="68.48" gradientTransform="matrix(1, 0, 0, -1, -21.14, 264.99)" xlink:href="#linear-gradient"/><linearGradient id="linear-gradient-59" x1="283.15" y1="24" x2="283.15" y2="29.11" gradientTransform="matrix(1, 0, 0, -1, -21.14, 264.99)" xlink:href="#linear-gradient"/><linearGradient id="linear-gradient-60" x1="299.16" y1="15.71" x2="299.16" y2="71.21" gradientTransform="matrix(1, 0, 0, -1, -21.14, 264.99)" xlink:href="#linear-gradient"/><linearGradient id="linear-gradient-61" x1="269.04" y1="56.75" x2="269.04" y2="60.56" gradientTransform="matrix(1, 0, 0, -1, -21.14, 264.99)" xlink:href="#linear-gradient"/><linearGradient id="linear-gradient-62" x1="267.47" y1="53.23" x2="267.47" y2="54.89" gradientTransform="matrix(1, 0, 0, -1, -21.14, 264.99)" xlink:href="#linear-gradient"/><linearGradient id="linear-gradient-63" x1="256.33" y1="92.66" x2="256.33" y2="100.45" gradientTransform="matrix(1, 0, 0, -1, -21.14, 264.99)" xlink:href="#linear-gradient"/><linearGradient id="linear-gradient-64" x1="250.86" y1="90.34" x2="250.86" y2="97.89" gradientTransform="matrix(1, 0, 0, -1, -21.14, 264.99)" xlink:href="#linear-gradient"/><linearGradient id="linear-gradient-65" x1="262.96" y1="20.45" x2="262.96" y2="34.41" gradientTransform="matrix(1, 0, 0, -1, -21.14, 264.99)" xlink:href="#linear-gradient"/><linearGradient id="linear-gradient-66" x1="291.83" y1="55.49" x2="291.83" y2="56.29" xlink:href="#linear-gradient"/><linearGradient id="linear-gradient-67" x1="293.45" y1="47.13" x2="293.45" y2="47.93" xlink:href="#linear-gradient"/><linearGradient id="linear-gradient-68" x1="305.03" y1="35.89" x2="305.03" y2="54.02" gradientTransform="matrix(1, 0, 0, -1, -21.14, 264.99)" xlink:href="#linear-gradient"/><linearGradient id="linear-gradient-69" x1="303.58" y1="49.53" x2="303.58" y2="60.93" gradientTransform="matrix(1, 0, 0, -1, -21.14, 264.99)" xlink:href="#linear-gradient"/><linearGradient id="linear-gradient-70" x1="292.46" y1="26.21" x2="292.46" y2="30.32" gradientTransform="matrix(1, 0, 0, -1, -21.14, 264.99)" xlink:href="#linear-gradient"/><linearGradient id="linear-gradient-71" x1="282.48" y1="53.52" x2="282.48" y2="54.32" xlink:href="#linear-gradient"/><linearGradient id="linear-gradient-72" x1="276.96" y1="54.29" x2="276.96" y2="55.09" xlink:href="#linear-gradient"/><linearGradient id="linear-gradient-73" x1="287.34" y1="53.67" x2="287.34" y2="54.47" xlink:href="#linear-gradient"/><linearGradient id="linear-gradient-74" x1="288.79" y1="47.53" x2="288.79" y2="48.33" xlink:href="#linear-gradient"/><linearGradient id="linear-gradient-75" x1="289.77" y1="54.47" x2="289.77" y2="55.28" xlink:href="#linear-gradient"/><linearGradient id="linear-gradient-76" x1="291.06" y1="47.53" x2="291.06" y2="48.33" xlink:href="#linear-gradient"/><linearGradient id="linear-gradient-77" x1="284.81" y1="53.27" x2="284.81" y2="54.07" xlink:href="#linear-gradient"/><linearGradient id="linear-gradient-78" x1="285.87" y1="47.13" x2="285.87" y2="47.93" xlink:href="#linear-gradient"/><linearGradient id="linear-gradient-79" x1="280.03" y1="53.67" x2="280.03" y2="54.47" xlink:href="#linear-gradient"/><linearGradient id="linear-gradient-80" x1="280.06" y1="34.11" x2="280.06" y2="51.58" gradientTransform="matrix(1, 0, 0, -1, -21.14, 264.99)" xlink:href="#linear-gradient"/><linearGradient id="linear-gradient-81" x1="282.46" y1="34.42" x2="282.46" y2="75.38" gradientTransform="matrix(1, 0, 0, -1, -21.14, 264.99)" xlink:href="#linear-gradient"/><linearGradient id="linear-gradient-82" x1="293.02" y1="71.11" x2="293.02" y2="75.38" gradientTransform="matrix(1, 0, 0, -1, -21.14, 264.99)" xlink:href="#linear-gradient"/><linearGradient id="linear-gradient-83" x1="293.82" y1="71.71" x2="293.82" y2="81.9" gradientTransform="matrix(1, 0, 0, -1, -21.14, 264.99)" xlink:href="#linear-gradient"/><linearGradient id="linear-gradient-84" x1="263.06" y1="78.68" x2="263.06" y2="104.35" gradientTransform="matrix(1, 0, 0, -1, -21.14, 264.99)" xlink:href="#linear-gradient"/><linearGradient id="linear-gradient-85" x1="292.4" y1="77.63" x2="292.4" y2="105.04" gradientTransform="matrix(1, 0, 0, -1, -21.14, 264.99)" xlink:href="#linear-gradient"/><linearGradient id="linear-gradient-86" x1="279.22" y1="76.39" x2="279.22" y2="140.46" gradientTransform="matrix(1, 0, 0, -1, -21.14, 264.99)" xlink:href="#linear-gradient"/><linearGradient id="linear-gradient-87" x1="297.71" y1="123.2" x2="297.71" y2="127.33" gradientTransform="matrix(1, 0, 0, -1, -21.14, 264.99)" xlink:href="#linear-gradient"/><linearGradient id="linear-gradient-88" x1="268.4" y1="116.27" x2="268.4" y2="125.91" gradientTransform="matrix(1, 0, 0, -1, -21.14, 264.99)" xlink:href="#linear-gradient"/><linearGradient id="linear-gradient-89" x1="254.73" y1="108.29" x2="254.73" y2="122.33" gradientTransform="matrix(1, 0, 0, -1, -21.14, 264.99)" xlink:href="#linear-gradient"/><linearGradient id="linear-gradient-90" x1="267.07" y1="91.89" x2="267.07" y2="95.96" gradientTransform="matrix(1, 0, 0, -1, -21.14, 264.99)" xlink:href="#linear-gradient"/><linearGradient id="linear-gradient-91" x1="266.14" y1="104.21" x2="266.14" y2="111.68" gradientTransform="matrix(1, 0, 0, -1, -21.14, 264.99)" xlink:href="#linear-gradient"/><linearGradient id="linear-gradient-92" x1="293.04" y1="76.4" x2="293.04" y2="87.17" gradientTransform="matrix(1, 0, 0, -1, -21.14, 264.99)" xlink:href="#linear-gradient"/><linearGradient id="linear-gradient-93" x1="303.52" y1="83.8" x2="303.52" y2="105.79" gradientTransform="matrix(1, 0, 0, -1, -21.14, 264.99)" xlink:href="#linear-gradient"/><linearGradient id="linear-gradient-94" x1="281.58" y1="94.51" x2="281.58" y2="102.48" gradientTransform="matrix(1, 0, 0, -1, -21.14, 264.99)" xlink:href="#linear-gradient"/><linearGradient id="linear-gradient-95" x1="263.06" y1="79.28" x2="263.06" y2="98.97" gradientTransform="matrix(1, 0, 0, -1, -21.14, 264.99)" xlink:href="#linear-gradient"/><linearGradient id="linear-gradient-96" x1="277.67" y1="113.91" x2="277.67" y2="131.56" gradientTransform="matrix(1, 0, 0, -1, -21.14, 264.99)" xlink:href="#linear-gradient"/><linearGradient id="linear-gradient-97" x1="271.86" y1="60.33" x2="271.86" y2="77.62" gradientTransform="matrix(1, 0, 0, -1, -21.14, 264.99)" xlink:href="#linear-gradient"/><linearGradient id="linear-gradient-98" x1="271.55" y1="60.93" x2="271.55" y2="78.22" gradientTransform="matrix(1, 0, 0, -1, -21.14, 264.99)" xlink:href="#linear-gradient"/><linearGradient id="linear-gradient-99" x1="249.73" y1="64.4" x2="249.73" y2="74.38" gradientTransform="matrix(1, 0, 0, -1, -21.14, 264.99)" xlink:href="#linear-gradient"/><linearGradient id="linear-gradient-100" x1="273.19" y1="80.02" x2="273.19" y2="86.07" gradientTransform="matrix(1, 0, 0, -1, -21.14, 264.99)" xlink:href="#linear-gradient"/><linearGradient id="linear-gradient-101" x1="281.8" y1="17.96" x2="281.8" y2="21.9" gradientTransform="matrix(1, 0, 0, -1, -21.14, 264.99)" xlink:href="#linear-gradient"/><linearGradient id="linear-gradient-102" x1="300.41" y1="9.22" x2="300.41" y2="16.42" gradientTransform="matrix(1, 0, 0, -1, -21.14, 264.99)" xlink:href="#linear-gradient"/></defs><title>how-2</title><ellipse class="cls-1" cx="233.96" cy="227.92" rx="58.03" ry="7.87"/><ellipse class="cls-1" cx="305.21" cy="210.85" rx="24.46" ry="3.32"/><ellipse class="cls-1" cx="312.4" cy="243.54" rx="10.61" ry="1.44"/><ellipse class="cls-1" cx="127.1" cy="224.12" rx="24.46" ry="3.32"/><ellipse class="cls-1" cx="84.64" cy="209.39" rx="24.46" ry="3.32"/><path class="cls-1" d="M237.46,52.2c-14.74,9.24-33.85,8.64-50.59,3.84s-32.13-13.37-48.45-19.45a172,172,0,0,0-42.56-9.94c-20.8-2.13-44,.47-58.51,15.4C21.2,58.68,22.45,88.68,39.9,103.94c8.88,7.77,20.5,11.57,30.64,17.64s19.52,16.13,18.66,27.84c-.8,10.83-10.08,19.14-19.7,24.36-7.44,4-16.59,8.43-17.49,16.78-.86,8.08,6.82,14.41,14.18,18a88.83,88.83,0,0,0,77.41-.3C152.12,204,160,198.36,168.89,195c23.46-8.71,49.32.06,74.16,3.26a165.16,165.16,0,0,0,63.07-4.1c12.3-3.27,24.65-8.23,33.29-17.5,6.23-6.68,10.12-15.14,13.76-23.5q5.83-13.33,11.21-26.91c2.16-5.42,4.28-11,4.83-16.75,1-10.51-3.24-20.9-9-29.77a90.09,90.09,0,0,0-132.76-20" transform="translate(-25.99 -26)"/><polygon class="cls-2" points="32.48 2.57 32.48 8.69 32.48 160.26 215.59 160.26 215.59 8.69 215.59 2.57 32.48 2.57"/><rect class="cls-3" x="33.8" y="3.95" width="180.47" height="6.01"/><rect class="cls-4" x="33.8" y="3.95" width="180.47" height="6.01"/><rect class="cls-3" x="33.8" y="9.96" width="180.47" height="148.92"/><ellipse class="cls-3" cx="37.69" cy="6.96" rx="1.35" ry="1.02"/><ellipse class="cls-3" cx="41.35" cy="6.96" rx="1.35" ry="1.02"/><ellipse class="cls-3" cx="45.02" cy="6.96" rx="1.35" ry="1.02"/><g class="cls-5"><rect class="cls-6" x="76.5" y="19.14" width="95.07" height="2.81"/></g><rect class="cls-6" x="158.94" y="19.14" width="12.63" height="2.81"/><path class="cls-7" d="M186.25,149Z" transform="translate(-25.99 -26)"/><path class="cls-8" d="M181.48,164.85l-1.38.93c0-.65,2.44-3.26,2.44-3.26-.63-.36-2.87,1.39-2.87,1.39.26-1.14,2.24-2.53,2.24-2.53a8.13,8.13,0,0,0-1.7.69,10.74,10.74,0,0,1,2.56-2.58c-.26-.16-1.76.49-1.83.52a17.66,17.66,0,0,0,2.37-1.87,18.52,18.52,0,0,0-2.12.34c-.15-.67,3-3.83,3-3.83s.39-.55.25-.4a12.55,12.55,0,0,1-1.59.64c0-1,3-2.51,3-2.51l-1.37-.06.89-1s-1.45,1.12-1.48.8,1.33-1.59,1.62-1.78a2.68,2.68,0,0,1,1.19,0s-.4-1.13-.47-1.3c.22.18,3.29,1.49,3.29,1.49l.27.05a18.14,18.14,0,0,1,3,.74,13.86,13.86,0,0,0,2.64.66l.59.11-2.16,13.67h-.59c-.36,0-.71,0-1.06,0-.55-.05-1.1-.13-1.64-.23l-3.65-.69c-.69-.14-1.25-.25-1.53-.32-1.1-.25-2.47.6-2.79.6a13.49,13.49,0,0,0-2.2,1.57A9.47,9.47,0,0,1,181.48,164.85Z" transform="translate(-25.99 -26)"/><g class="cls-9"><path class="cls-10" d="M181.47,164.82s2.16-.87,2.87-1.15,9.25.33,9.62.36v.05c-.09,0-8.88-.64-9.59-.36l-2.87,1.15Z" transform="translate(-25.99 -26)"/></g><path class="cls-7" d="M186.25,149Z" transform="translate(-25.99 -26)"/><g class="cls-9"><path class="cls-11" d="M183.88,152.13a17.54,17.54,0,0,1,1.82-1.28,3.8,3.8,0,0,1,2.13.06,4.22,4.22,0,0,0,.62.1,27,27,0,0,1,2.84.69s2.54.59,2.86.58a9.18,9.18,0,0,1,1.48.27v0a9.18,9.18,0,0,0-1.48-.27c-.33,0-2.77-.55-2.88-.58s-2.41-.68-2.82-.68a6.37,6.37,0,0,1-.63-.1,3.79,3.79,0,0,0-2.1-.07,17.32,17.32,0,0,0-1.81,1.27Z" transform="translate(-25.99 -26)"/></g><g class="cls-9"><path class="cls-12" d="M184.38,152.28a9,9,0,0,1,3-.23c.23.09,3.12.37,3.26.36l4.95,1v0c-1.67-.32-4.85-.94-4.93-.94s-3-.27-3.29-.37a9.53,9.53,0,0,0-2.9.22Z" transform="translate(-25.99 -26)"/></g><g class="cls-9"><path class="cls-13" d="M182.79,154.88c.77-1.32,5.14-1.71,5.18-1.71.47,0,7.12,1.22,7.39,1.27v.06c-.07,0-6.91-1.32-7.37-1.27-1.22.1-4.51.6-5.14,1.68Z" transform="translate(-25.99 -26)"/></g><g class="cls-9"><path class="cls-14" d="M182.49,156.41c1.23-1.39,5.15-1.29,5.19-1.29.29,0,6.95,1,7.23,1v.05c-.07,0-6.94-1-7.23-1,0,0-3.92-.1-5.14,1.26Z" transform="translate(-25.99 -26)"/></g><g class="cls-9"><path class="cls-15" d="M181.32,157.94c.47-.86,1.77-1.48,3.86-1.84a22.59,22.59,0,0,1,3.08-.27l6.78.77v.06l-6.78-.77c-.06,0-5.87,0-6.91,2.12l0,0Z" transform="translate(-25.99 -26)"/></g><g class="cls-9"><path class="cls-16" d="M181.16,158.46c.65-.71,3.19-1.27,4.41-1.42s8.7,1.06,9,1.11v0c-.08,0-7.88-1.24-9-1.1s-3.74.71-4.37,1.4Z" transform="translate(-25.99 -26)"/></g><g class="cls-9"><path class="cls-17" d="M182.64,158.73l2.87-.48a7.94,7.94,0,0,1,2.23,0l3.18.41,3.49.66v.05l-3.5-.66-3.18-.39a7.45,7.45,0,0,0-2.21,0l-2.87.48Z" transform="translate(-25.99 -26)"/></g><g class="cls-9"><path class="cls-18" d="M180.24,161.92c.6-1.1,3.24-1.65,4.68-1.95l.7-.15c.81-.23,8.45.54,8.78.57v.05c-.08,0-8-.8-8.76-.57l-.7.15c-1.38.3-4.27.89-4.7,2.06l-.05,0Z" transform="translate(-25.99 -26)"/></g><g class="cls-9"><path class="cls-19" d="M181.84,161.4s1.46-.46,1.78-.61,4.11-.25,4.27-.25l6.48.41V161l-6.48-.4s-3.92.09-4.25.24-1.73.59-1.79.62Z" transform="translate(-25.99 -26)"/></g><g class="cls-9"><path class="cls-20" d="M179.65,163.89c1.42-2,6.86-2.78,7.34-2.74l7.31.47v0L187,161.2c-.48,0-5.88.74-7.29,2.72Z" transform="translate(-25.99 -26)"/></g><g class="cls-9"><path class="cls-21" d="M180.24,165.36c1.29-2.4,6.82-2.94,7.33-2.92l6.46.3v0l-6.46-.3c-.54,0-6.62.58-7.44,3.3l-.06,0A2.09,2.09,0,0,1,180.24,165.36Z" transform="translate(-25.99 -26)"/></g><g class="cls-9"><path class="cls-22" d="M193.23,165.76l2.18-13.8.6.11-2.19,13.69Z" transform="translate(-25.99 -26)"/></g><path class="cls-23" d="M193.34,166.06l2.28-14.38,2.8.89,2.05.65s1.43-.29,1.88.75-1,4.08-.29,4.74,6.64,1.19,6.64,1.19,8.63,2.3,9.53,2.43,5.84,3,5.84,3c.27.68-3,.71-3.79.91s-7.81-1.13-8.27-1.54-7-2.18-7-2.18a4.78,4.78,0,0,0-3.48-.64,16.55,16.55,0,0,1-1,4.16,1.13,1.13,0,0,1-1.19.64l-3.2-.25Z" transform="translate(-25.99 -26)"/><g class="cls-9"><path class="cls-24" d="M193.34,166.06l2.28-14.38,2.8.89c-.45,1.39-3.12,10.16-2.35,13.87Z" transform="translate(-25.99 -26)"/></g><path class="cls-25" d="M181.48,164.85l-1.38.93c0-.65,2.44-3.26,2.44-3.26-.63-.36-2.87,1.39-2.87,1.39.26-1.14,2.24-2.53,2.24-2.53a8.13,8.13,0,0,0-1.7.69,10.74,10.74,0,0,1,2.56-2.58c-.26-.16-1.76.49-1.83.52a17.66,17.66,0,0,0,2.37-1.87,18.52,18.52,0,0,0-2.12.34c-.15-.67,3-3.83,3-3.83s.39-.55.25-.4a12.55,12.55,0,0,1-1.59.64c0-1,3-2.51,3-2.51l-1.37-.06.89-1s-1.45,1.12-1.48.8,1.33-1.59,1.62-1.78a2.68,2.68,0,0,1,1.19,0s-.4-1.13-.47-1.3c.22.18,3.29,1.49,3.29,1.49l.27.05c-.3.22-.57.43-.75.59a2.14,2.14,0,0,0-.66.8,1.67,1.67,0,0,0,.2,1.34c.23.4.55.75.77,1.16a.8.8,0,0,1,.13.58,1.06,1.06,0,0,1-.39.45,7.52,7.52,0,0,0-2.47,3.41.83.83,0,0,0-.07.41,1.24,1.24,0,0,0,.24.52,1.87,1.87,0,0,1-.24,2.16c-.24.27-.59.5-.61.86a1.16,1.16,0,0,0,.18.57l.72,1.37c-.69-.14-1.25-.25-1.52-.32-1.1-.25-2.48.6-2.79.6a13.18,13.18,0,0,0-2.21,1.57A11.54,11.54,0,0,1,181.48,164.85Z" transform="translate(-25.99 -26)"/><path class="cls-26" d="M228,245.6l1.31,5.26s29.5,9.54,39.07.6-1.05-26.34-1.05-26.34l-6.48-6.65-17.09-2h-6Z" transform="translate(-25.99 -26)"/><g class="cls-27"><path class="cls-26" d="M228,245.6l1.31,5.26s29.5,9.54,39.07.6-1.05-26.34-1.05-26.34l-6.48-6.65-17.09-2h-6Z" transform="translate(-25.99 -26)"/></g><path class="cls-28" d="M299.68,207.24l-2.83,3.24L287,228l-3.34,6.16s-2.52,3.14-2.27,4.45,1,11.05-7.53,11.84S247,231.39,247,231.39l.75-.5,16.44-11.12,5.9-6.35,1.58-1.7s7.69-10.33,7.48-11.92,7.69-11.13,12.24-10.83,8,.29,9.6,6.06S299.68,207.24,299.68,207.24Z" transform="translate(-25.99 -26)"/><rect class="cls-29" x="214.87" y="114.15" width="31.17" height="23.18"/><g class="cls-9"><rect class="cls-29" x="214.87" y="114.15" width="31.17" height="23.18"/></g><path class="cls-30" d="M232.34,188.42c0,.42,0,1-.1,1.66-.23,2.55-.81,6.23-.81,6.23s-1.21,6.47-.91,7-.29,4.84-.71,5.79-2.83,0-2.83,0L219,188l-.45-1.17-.17-.46.18-.7.65-2.56S232.34,186.36,232.34,188.42Z" transform="translate(-25.99 -26)"/><path class="cls-31" d="M268.94,167.53v3.34l-2.43,11.66-5.25,6.93L249.63,191l-11.12-4.3s-7.38-11.7,1.21-18.29a16.24,16.24,0,0,0,4.93-6.15,20,20,0,0,0,1.7-7.91,17.83,17.83,0,0,0-.26-3.5s18.2-8.25,15.27,0a9.13,9.13,0,0,0-.41,4.43,13.69,13.69,0,0,0,1.45,4.35A28.37,28.37,0,0,0,268.94,167.53Z" transform="translate(-25.99 -26)"/><g class="cls-9"><path class="cls-32" d="M261.36,150.79a9.13,9.13,0,0,0-.41,4.43,12.4,12.4,0,0,1-14.6-.93,17.89,17.89,0,0,0-.26-3.5S264.29,142.56,261.36,150.79Z" transform="translate(-25.99 -26)"/></g><ellipse class="cls-33" cx="228.29" cy="118.54" rx="12.23" ry="12.02"/><g class="cls-9"><path class="cls-34" d="M268.94,167.53v3.34l-2.43,11.66-5.25,6.93L249.63,191l-11.12-4.3s-7.38-11.7,1.21-18.29a16.24,16.24,0,0,0,4.93-6.15c-6.72,25.28,7.6,24,7.6,24,13.1,0,10.46-24,10.15-26.61A28.33,28.33,0,0,0,268.94,167.53Z" transform="translate(-25.99 -26)"/></g><g class="cls-9"><path class="cls-35" d="M280.06,178.82c-.5,1.69-1.72,7.85-1.72,7.85s-.34.13-.89.38c-2.07.95-7.21,3.56-7.59,6.82,0,0,0,.1,0,.15-.3,4.17-4.05,13-6,17s.91,8.25.91,8.25l-3.86.89a31.36,31.36,0,0,1-9.88-.39c-4.53-1.1-3.94,1.78-6.77.8s-12.14-1.69-13.65-2.59-2.83-8.84-2-9.83S232,186.19,232,186.19s-10.21-9.34-10-15.41,7.58-6.35,7.58-6.35,2.84-1,5.25-2c.46-.19.91-.4,1.32-.59,2-.94,6.49-.53,8.31-.32l.76.1c-.26.89-.49,1.77-.71,2.6-4.12,16.28.72,21.15,4.42,22.58a8.26,8.26,0,0,0,3.37.57c4.64,0,7.31-3,8.8-7,3-8,1.31-19.8,1.31-19.8a121,121,0,0,1,15.47,7.55C283.9,171.87,280.57,177.13,280.06,178.82Z" transform="translate(-25.99 -26)"/></g><path class="cls-36" d="M280.06,178.23c-.5,1.69-1.72,7.85-1.72,7.85s-.34.13-.89.37c-2.07,1-7.21,3.56-7.59,6.83,0,0,0,.09,0,.14-.3,4.17-4.05,13-6,17s.91,8.25.91,8.25l-3.86.89a31.21,31.21,0,0,1-9.88-.38c-4.53-1.1-3.94,1.78-6.77.79s-12.14-1.69-13.65-2.58-2.83-8.84-2-9.84S232,185.59,232,185.59s-10.21-9.34-10-15.4,7.58-6.36,7.58-6.36,2.84-1,5.25-2c.46-.2.91-.4,1.32-.6,2-.94,6.49-.53,8.31-.31l.76.1c-.26.89-.49,1.76-.71,2.59-4.12,16.28.72,21.15,4.42,22.59a8.43,8.43,0,0,0,3.37.57c4.64,0,7.31-3,8.8-7,3-8,1.31-19.79,1.31-19.79a121,121,0,0,1,15.47,7.55C283.9,171.28,280.57,176.54,280.06,178.23Z" transform="translate(-25.99 -26)"/><g class="cls-9"><path class="cls-37" d="M232.34,188.42v1.78l-.1-.13c-4.27-5.31-11.18-3-13.26-2.09-.4.17-.62.28-.62.28s.12-.68.18-1.45a7.49,7.49,0,0,0,0-1.16l.65-2.56S232.34,186.36,232.34,188.42Z" transform="translate(-25.99 -26)"/></g><path class="cls-38" d="M225.06,169.58,222.43,173s-4.45,10.63-4,11.43,0,3.28,0,3.28,8.93-4.56,14,1.94v-3.33s.51-1.39.71-1.78a20.08,20.08,0,0,0,0-3.48Z" transform="translate(-25.99 -26)"/><path class="cls-39" d="M229.81,209.13a1.15,1.15,0,0,1-.1.33c-1.29,2.88-11-1.32-11-1.32l-.21-1c-.51-2.58-1.72-9.21-1.07-10.48.81-1.59.89-6.56.89-6.56,2.71-4.77,1.34-14.41,1.34-14.41,1.21-2.07-.7-4-.7-4s-16.79-9.74-5.26-11,13.75,12.42,12.84,13.91.71,13.59.71,13.59l1.61,9.37S230.51,205.62,229.81,209.13Z" transform="translate(-25.99 -26)"/><polygon class="cls-40" points="252.45 230 249.44 229.85 237.77 229.28 237.76 228.92 237.51 222.99 246.37 218.53 246.38 218.53 246.5 218.61 246.72 218.76 246.97 218.94 252.03 222.49 252.45 230"/><g class="cls-9"><polygon class="cls-41" points="247 218.9 246.97 218.94 237.76 228.92 237.51 222.99 246.37 218.53 246.5 218.61 247 218.9"/></g><g class="cls-9"><path class="cls-42" d="M229.71,209.46c-1.29,2.88-11-1.32-11-1.32l-.21-1a7.75,7.75,0,0,1,5.09-.05A25,25,0,0,1,229.71,209.46Z" transform="translate(-25.99 -26)"/></g><path class="cls-43" d="M229.31,250.86s-5.66-2.78-6-4.27a35.09,35.09,0,0,0-2.63-7.16c-.7-1-5-7.75-6.06-10.63s-4.05-11-1.82-14.11,3.54-9,10.82-7.05,8.69,4.67,8.69,4.67l.8,1.69s17.6,16.08,17.91,16.58,9.7,7.46,9.7,7.46l11.63,6.86-9.81,10.63s-12.43-4.77-12.84-6.75-3.82-3.78-3.82-3.78l-4.67-1.78Z" transform="translate(-25.99 -26)"/><g class="cls-9"><path class="cls-44" d="M217.48,227.11s2.12,2.08,2.12,2.89,2.93,2.18,2.93,2.18,23.26,14.2,26,14.16l4.86,4.82,6.85-13.94-8.58-6.64-17.9-15.79s-3.33-2.18-5.15-2.48-11.12-4.47-11.93,3.58S217.48,227.11,217.48,227.11Z" transform="translate(-25.99 -26)"/></g><g class="cls-9"><path class="cls-45" d="M216.87,227.71s2.13,2.08,2.13,2.88,2.92,2.19,2.92,2.19,23.26,14.2,26,14.15l4.86,4.83,6.85-13.94-8.56-6.64-17.91-15.79s-3.32-2.19-5.14-2.49-11.12-4.46-11.93,3.58S216.87,227.71,216.87,227.71Z" transform="translate(-25.99 -26)"/></g><path class="cls-46" d="M216.87,227.11S219,229.19,219,230s2.92,2.18,2.92,2.18,23.26,14.2,26,14.16l4.86,4.82,6.85-13.94-8.56-6.64-17.91-15.79s-3.32-2.18-5.14-2.48-11.14-4.47-11.95,3.58S216.87,227.11,216.87,227.11Z" transform="translate(-25.99 -26)"/><path class="cls-46" d="M216.87,227.11S219,229.19,219,230s2.92,2.18,2.92,2.18,23.26,14.2,26,14.16l4.86,4.82,6.85-13.94-8.56-6.64-17.91-15.79s-3.32-2.18-5.14-2.48-11.14-4.47-11.95,3.58S216.87,227.11,216.87,227.11Z" transform="translate(-25.99 -26)"/><g class="cls-9"><path class="cls-47" d="M219.1,233.18s6.11,9.95,9.42,10.83S219.1,233.18,219.1,233.18Z" transform="translate(-25.99 -26)"/></g><polygon class="cls-48" points="240.63 209.88 239.71 214.99 238.87 219.67 238.51 221.68 230.55 219.2 231.36 214.84 231.4 214.59 231.93 211.75 240.63 209.88"/><g class="cls-9"><path class="cls-49" d="M264.86,245.67l-.37,2-8-2.48.82-4.37c1.16-1.48,4.23-.29,4.23-.29,4.25-.5,2.81,4.37,2.81,4.37A1.63,1.63,0,0,1,264.86,245.67Z" transform="translate(-25.99 -26)"/></g><path class="cls-50" d="M265.71,262.19c-2.12-1.88-9.81-2.77-12.34-2.77s-1.51-.8-1.51-.8l-1.68-1.18c-1.14-.82-.61-2.74-.17-3.88.21-.53.4-.89.4-.89a37.64,37.64,0,0,1,1.27-6.07c.63-1.39,5.24-3.5,5.24-3.5-.39-4.18,4.66-2.27,4.66-2.27,4.25-.49,2.81,4.38,2.81,4.38.81.59,1,3.77.81,4.87s.71,4.57.71,4.57.85,3.14,1.37,5c.1.35.18.66.25.89C267.93,261.89,265.71,262.19,265.71,262.19Z" transform="translate(-25.99 -26)"/><g class="cls-9"><path class="cls-51" d="M265.71,262.19c-2.12-1.88-9.81-2.77-12.34-2.77s-1.51-.8-1.51-.8l-1.68-1.18c-1.14-.82-.61-2.74-.17-3.88l2.26,2s-.64.49,0,.49h2.65s8.49,1.78,12.35,3.59c.1.36.18.66.25.89C267.93,261.89,265.71,262.19,265.71,262.19Z" transform="translate(-25.99 -26)"/></g><g class="cls-9"><ellipse class="cls-52" cx="230.55" cy="218.93" rx="0.41" ry="0.4"/></g><g class="cls-9"><ellipse class="cls-53" cx="231.36" cy="222.08" rx="0.41" ry="0.4"/></g><g class="cls-9"><ellipse class="cls-54" cx="231.14" cy="220.91" rx="0.41" ry="0.4"/></g><g class="cls-9"><ellipse class="cls-55" cx="231.36" cy="223.66" rx="0.41" ry="0.4"/></g><g class="cls-9"><ellipse class="cls-56" cx="229.4" cy="225.29" rx="0.41" ry="0.4"/></g><g class="cls-9"><path class="cls-57" d="M278.43,256l-3-.13a1.1,1.1,0,0,1,0-.57s2.2-2.07-1.44-6c0,0,.21-.93,1.05-.69,0,0-2-3.31-2.3-3.65a.21.21,0,0,1,0-.16l.24.17L278,248.5Z" transform="translate(-25.99 -26)"/></g><path class="cls-58" d="M304.25,248.49a6.57,6.57,0,0,1-2.2,5.06h0a22.34,22.34,0,0,1-9.35,1.66c-4.13-.16-9.37-.14-11.14.78,0,0-6.1,1.68-5.49-.71,0,0,2.19-2.07-1.45-6,0,0,.21-.92,1.06-.69,0,0-2-3.3-2.3-3.64-.17-.18.29-1.48.72-2.61.13-.34.25-.65.37-.93l.34-.82c.07,0,.43.25.95.53a14.06,14.06,0,0,0,4,1.45c2.2.34,4.1,1,7.59,0s5-2.49,9.74-.76S304.15,245.3,304.25,248.49Z" transform="translate(-25.99 -26)"/><g class="cls-9"><path class="cls-59" d="M304.25,248.49a6.31,6.31,0,0,1-.78,3.26c-.84-3.51-1.93-5.67-5.59-8.38-4-3-10.23.26-10.23.26s-5,.22-8.72.22a8.11,8.11,0,0,1-4.85-1.53,5.37,5.37,0,0,1-.76-.66l1.13-.26,1.29-.3a14.06,14.06,0,0,0,4,1.45c2.2.34,4.1,1,7.59,0s5-2.48,9.74-.76S304.15,245.3,304.25,248.49Z" transform="translate(-25.99 -26)"/></g><g class="cls-9"><path class="cls-60" d="M282.59,196.51s-2.73,4.07-2.63,5.27-2.22,3.57-2.22,3.57-2.53,2.67-2.53,3.78-4.65,10.59-4.65,10.59-6.15,5.71-7.48,6.6-4.55,7-5.86,7.75-1.29,6.52-1.29,6.52l9.27-9.52s10.31,10.26,10.92,10.46,2.43-8.35,2.43-8.35,5.66-5.34,7.28-6.79S293.69,215,293.69,215s5.69-10.48,5.18-13.55S293.56,200.24,282.59,196.51Z" transform="translate(-25.99 -26)"/></g><g class="cls-9"><path class="cls-61" d="M283.5,196.51s-2.73,4.07-2.63,5.27-2.22,3.57-2.22,3.57-2.53,2.67-2.53,3.78-4.65,10.59-4.65,10.59-6.17,5.71-7.48,6.6-4.55,7-5.87,7.75-1.28,6.52-1.28,6.52,10.65-6.82,14.63,8.69h0l3.64-5.21s1.32-2.74,1.92-2.54,2.43-8.35,2.43-8.35,5.66-5.34,7.28-6.79S294.6,215,294.6,215s5.69-10.48,5.18-13.55S293.36,199.21,283.5,196.51Z" transform="translate(-25.99 -26)"/></g><g class="cls-9"><path class="cls-62" d="M266.62,235.88,265.7,241c-3.13-2.14-6.57-1.16-8.31-.4l.53-2.84Z" transform="translate(-25.99 -26)"/></g><path class="cls-63" d="M283.2,196.51s-2.73,4.07-2.63,5.27-2.23,3.57-2.23,3.57-2.52,2.67-2.52,3.78-4.65,10.59-4.65,10.59-6.17,5.71-7.49,6.6-4.55,7-5.86,7.75-1.29,6.52-1.29,6.52,10.66-6.82,14.64,8.69h0l3.64-5.21s1.31-2.74,1.92-2.54,2.42-8.35,2.42-8.35,5.67-5.34,7.28-6.79S294.3,215,294.3,215s5.7-10.48,5.18-13.55S294.32,189.26,283.2,196.51Z" transform="translate(-25.99 -26)"/><g class="cls-9"><path class="cls-64" d="M236.18,206.45s15-5.57,23.43,1.78Z" transform="translate(-25.99 -26)"/></g><g class="cls-9"><path class="cls-65" d="M237.73,210.1s12,2,16.55,1.61S237.73,210.1,237.73,210.1Z" transform="translate(-25.99 -26)"/></g><g class="cls-9"><path class="cls-66" d="M234.26,164.54s-.94,6.14,1.3,7.63S234.26,164.54,234.26,164.54Z" transform="translate(-25.99 -26)"/></g><path class="cls-67" d="M228,167.1s3.13,5,3.44,7.55" transform="translate(-25.99 -26)"/><g class="cls-9"><path class="cls-68" d="M236.59,230.58S247.91,239,247,242.81s-.67,0-.67,0Z" transform="translate(-25.99 -26)"/></g><g class="cls-9"><ellipse class="cls-69" cx="265.84" cy="220.11" rx="0.41" ry="0.4"/></g><g class="cls-9"><ellipse class="cls-70" cx="267.46" cy="228.47" rx="0.41" ry="0.4"/></g><g class="cls-9"><path class="cls-71" d="M287.75,211s-7.35,7-7.32,10.38-.4,7.75-.4,7.75l2.45-8.93Z" transform="translate(-25.99 -26)"/></g><g class="cls-9"><path class="cls-72" d="M288.38,204.06s-12.91,10.24-11.81,11.33S288.38,204.06,288.38,204.06Z" transform="translate(-25.99 -26)"/></g><g class="cls-9"><path class="cls-73" d="M268.38,234.67s6.21,2.83,5.86,4S268.38,234.67,268.38,234.67Z" transform="translate(-25.99 -26)"/></g><g class="cls-9"><ellipse class="cls-74" cx="256.5" cy="222.08" rx="0.41" ry="0.4"/></g><g class="cls-9"><ellipse class="cls-75" cx="250.97" cy="221.31" rx="0.41" ry="0.4"/></g><g class="cls-9"><ellipse class="cls-76" cx="261.36" cy="221.93" rx="0.41" ry="0.4"/></g><g class="cls-9"><ellipse class="cls-77" cx="262.8" cy="228.07" rx="0.41" ry="0.4"/></g><g class="cls-9"><ellipse class="cls-78" cx="263.78" cy="221.13" rx="0.41" ry="0.4"/></g><g class="cls-9"><ellipse class="cls-79" cx="265.07" cy="228.07" rx="0.41" ry="0.4"/></g><g class="cls-9"><ellipse class="cls-80" cx="258.82" cy="222.33" rx="0.41" ry="0.4"/></g><g class="cls-9"><ellipse class="cls-81" cx="259.88" cy="228.47" rx="0.41" ry="0.4"/></g><g class="cls-9"><ellipse class="cls-82" cx="254.04" cy="221.93" rx="0.41" ry="0.4"/></g><g class="cls-9"><path class="cls-83" d="M270.09,213.41c-.1.54-.14.89-.14.89s-5.66,8.84-9.6,10c0,0-8.94,6.47-12.6,6.54l16.44-11.12Z" transform="translate(-25.99 -26)"/></g><path class="cls-84" d="M276.73,189.61l-.63,3-.11.56c-.47,2.45-2.43,12.24-4,14.23-1.81,2.29-2.32,6.56-2.32,6.56S264,222.83,260,224c0,0-15.36,11.12-14.05,4.37S256.2,219,256.2,219a15.51,15.51,0,0,0,1.21-2.78c0-.5,2.63-3.58,2.63-3.58s2.33-4.18,2.43-5.07,4.15-17.29,4.15-17.29l2.4-.15Z" transform="translate(-25.99 -26)"/><g class="cls-9"><path class="cls-85" d="M276.73,189.61l-.63,3-.11.56c-3.08.55-8.19,1.24-8.9-.07-.32-.59.56-1.74,1.93-3Z" transform="translate(-25.99 -26)"/></g><path class="cls-86" d="M278.35,192.14a50,50,0,0,1-8.48,1.14h-.49c-1.15-.05-2-.26-2.29-.74s.59-1.78,2-3.1a64.84,64.84,0,0,1,6.37-5c1.11-.79,1.86-1.3,1.86-1.3l1,3s-.12.53-.24,1.28C277.85,189,277.56,191.66,278.35,192.14Z" transform="translate(-25.99 -26)"/><g class="cls-9"><path class="cls-87" d="M246.85,178.72c1,2.38,2,4.74,3.08,7.1a4.7,4.7,0,0,1-1.09.38c-1.86.39-3.94-.37-5.77-1.14-2.72-1.15-5.69-2.52-6.92-5.18-.91-2-.67-4.23-1-6.35-.3-1.84-1.06-3.6-1.19-5.45-.16-2.11.47-4.17.83-6.25.47-.2.92-.4,1.33-.6,2-.94,6.49-.53,8.3-.31a7,7,0,0,0-.1,1.29,7.33,7.33,0,0,0,.16,1.4c.45,2.26,1.72,4.41,1.73,6.73,0,1.44-.49,2.85-.45,4.29A11.47,11.47,0,0,0,246.85,178.72Z" transform="translate(-25.99 -26)"/></g><g class="cls-9"><path class="cls-88" d="M280.06,178.23c-.5,1.69-1.72,7.85-1.72,7.85s-.11.53-.23,1.28c-.22-.3-.44-.59-.65-.89s-.3-.4-.43-.59a5.89,5.89,0,0,0-1.58-1.49A2.79,2.79,0,0,0,274,184a6,6,0,0,0-2.37.86c-3.06,1.49-7.32,1.35-9.33-1.37a6.74,6.74,0,0,1-1.19-3.73c3-8,1.31-19.79,1.31-19.79a121,121,0,0,1,15.47,7.55C283.92,171.28,280.57,176.54,280.06,178.23Z" transform="translate(-25.99 -26)"/></g><path class="cls-89" d="M249.33,136.89c-.38,1.14,0,2.37-.11,3.58-.27,2.81-3.14,4.77-3.79,7.53-.5,2.1.38,4.29.3,6.45-.11,2.44-1.48,4.72-1.45,7.17,0,2.79,1.88,5.34,1.89,8.12,0,1.44-.49,2.86-.45,4.3a11.79,11.79,0,0,0,1.14,4.09q1.5,3.56,3.08,7.09c-2.11,1.08-4.66.16-6.85-.76-2.73-1.15-5.69-2.52-6.93-5.17-.9-2-.67-4.23-1-6.36-.3-1.84-1.06-3.59-1.19-5.45-.16-2.16.51-4.28.86-6.41a22.25,22.25,0,0,0-.69-10.16,53.3,53.3,0,0,1-1.82-5.71,7,7,0,0,1,1-5.71c1.37-1.69,3.7-2.3,5.42-3.65a11.38,11.38,0,0,0,3.54-5.83c.57-1.88,1.07-4.06,2.82-5a4.67,4.67,0,0,1,2.3-.47c2.67.06,5.15,1.56,7.83,1.72a26,26,0,0,0,4.56-.42,17.07,17.07,0,0,1,10.92,2.22,12.33,12.33,0,0,1,5.9,9.08c.2,2.23-.29,4.47-.08,6.7a10.63,10.63,0,0,0,3,6.36,22.49,22.49,0,0,1,3.18,3.22,8.63,8.63,0,0,1,1.12,3.41c1.3,9.1-3.83,18.1-3,27.25.14,1.46.59,3.13,2,3.72-.69,1-2.33,1-3.36.3a11.29,11.29,0,0,1-2.41-2.82,4.06,4.06,0,0,0-3.07-1.89,6.22,6.22,0,0,0-2.38.86c-3.06,1.49-7.32,1.35-9.33-1.37-1.52-2-1.32-4.85-.91-7.35s.92-5.19-.12-7.51c-.77-1.74-2.41-3.3-2.14-5.18.22-1.44,1.49-2.46,2.42-3.58a11.77,11.77,0,0,0,2.37-7.81,35.8,35.8,0,0,0-1.48-8.17c-.59-2.18-1.18-4.43-2.65-6.17a5.82,5.82,0,0,0-5.72-2.05c-.89.15-1.73-.23-2.67,0A2.93,2.93,0,0,0,249.33,136.89Z" transform="translate(-25.99 -26)"/><g class="cls-9"><path class="cls-90" d="M276.5,141.79c.05-1.38.2-2.76.14-4.13C276.59,139,276.43,140.42,276.5,141.79Z" transform="translate(-25.99 -26)"/><path class="cls-91" d="M245.31,148.72q0-.37.12-.72c.65-2.76,3.52-4.72,3.79-7.53a8.05,8.05,0,0,0,0-1.39c-.32,2.76-3.12,4.71-3.77,7.42A7.5,7.5,0,0,0,245.31,148.72Z" transform="translate(-25.99 -26)"/><path class="cls-92" d="M235.06,156.7a22.51,22.51,0,0,0-1-7.29,52.43,52.43,0,0,1-1.82-5.7c-.06-.35-.11-.7-.14-1.05a9.41,9.41,0,0,0,.14,2.54,55.66,55.66,0,0,0,1.82,5.71A21.94,21.94,0,0,1,235.06,156.7Z" transform="translate(-25.99 -26)"/><path class="cls-93" d="M245.75,173.11c.11-1.12.41-2.23.41-3.36,0-.24,0-.48,0-.71a29.93,29.93,0,0,0-.4,3.51A5.46,5.46,0,0,0,245.75,173.11Z" transform="translate(-25.99 -26)"/><path class="cls-94" d="M244.31,160.78c.23-2.13,1.3-4.17,1.4-6.33a8.68,8.68,0,0,0,0-1.14c-.22,2.31-1.45,4.49-1.42,6.82C244.27,160.36,244.29,160.56,244.31,160.78Z" transform="translate(-25.99 -26)"/><path class="cls-95" d="M281.79,187a3,3,0,0,1-2.37-.42,11.72,11.72,0,0,1-2.41-2.82,4.06,4.06,0,0,0-3.07-1.88,6.11,6.11,0,0,0-2.37.86c-3.07,1.48-7.33,1.35-9.34-1.37a6.65,6.65,0,0,1-1.19-3.56,7.53,7.53,0,0,0,1.19,5.05c2,2.72,6.27,2.86,9.34,1.37a5.81,5.81,0,0,1,2.37-.86,4,4,0,0,1,3.07,1.88,11.72,11.72,0,0,0,2.41,2.82c1,.7,2.67.75,3.36-.3A2.49,2.49,0,0,1,281.79,187Z" transform="translate(-25.99 -26)"/><path class="cls-96" d="M280.75,181.19c.22-7.37,3.48-14.66,3.26-22C283.78,166.52,280.52,173.82,280.75,181.19Z" transform="translate(-25.99 -26)"/><path class="cls-97" d="M261.81,170.48a8.38,8.38,0,0,0-.6-4c-.61-1.37-1.74-2.62-2.07-4,0,.11-.05.21-.07.32-.27,1.88,1.36,3.44,2.14,5.18A7,7,0,0,1,261.81,170.48Z" transform="translate(-25.99 -26)"/><path class="cls-98" d="M243.07,183c-2.72-1.15-5.69-2.52-6.92-5.18-.91-2-.67-4.22-1-6.35-.3-1.83-1-3.56-1.19-5.42a8.9,8.9,0,0,0,0,1.46c.14,1.86.89,3.61,1.19,5.45.35,2.13.11,4.39,1,6.36,1.23,2.67,4.2,4,6.92,5.17,2.19.92,4.75,1.84,6.86.76l-.56-1.26C247.38,184.65,245.07,183.82,243.07,183Z" transform="translate(-25.99 -26)"/><path class="cls-99" d="M259.74,137.1a15.35,15.35,0,0,1,2.65,6.17,36.86,36.86,0,0,1,1.48,7.81c0-.38,0-.75,0-1.13a35.7,35.7,0,0,0-1.48-8.17c-.59-2.18-1.19-4.43-2.65-6.17a5.84,5.84,0,0,0-5.72-2.06c-.89.16-1.74-.22-2.67,0a2.91,2.91,0,0,0-2,1.81,5.45,5.45,0,0,0-.14,2.09,3.9,3.9,0,0,1,.14-.59,2.93,2.93,0,0,1,2-1.81c.92-.26,1.78.12,2.67,0A5.83,5.83,0,0,1,259.74,137.1Z" transform="translate(-25.99 -26)"/></g><g class="cls-9"><path class="cls-100" d="M268.68,187.37s4.71,12.32-6.21,17.29c0,0-19.57-2.17-25.58-.59s-6.19-11.73-3.45-12.53S268.68,187.37,268.68,187.37Z" transform="translate(-25.99 -26)"/></g><path class="cls-101" d="M268.38,186.77s4.71,12.33-6.21,17.29c0,0-19.58-2.17-25.58-.59s-6.19-11.73-3.45-12.52S268.38,186.77,268.38,186.77Z" transform="translate(-25.99 -26)"/><g class="cls-9"><path class="cls-102" d="M227.71,190.61l1.72,10S229.86,193.06,227.71,190.61Z" transform="translate(-25.99 -26)"/></g><g class="cls-9"><path class="cls-103" d="M252.25,178.92s-.39,4.47-.57,5.87S253,179.34,252.25,178.92Z" transform="translate(-25.99 -26)"/></g><path class="cls-104" d="M256.92,243.1s4.16,7.23,7.47,2.11" transform="translate(-25.99 -26)"/><path class="cls-105" d="M275.66,248.57s10.1,5.16,6.42,7.2" transform="translate(-25.99 -26)"/><path class="cls-106" d="M187.76,149.61Z" transform="translate(-25.99 -26)"/><path class="cls-107" d="M183.1,165.34l-1.36.93c0-.65,2.39-3.25,2.39-3.25-.62-.35-2.81,1.38-2.81,1.38.26-1.13,2.2-2.51,2.2-2.51a7.64,7.64,0,0,0-1.67.68,10.84,10.84,0,0,1,2.5-2.56c-.25-.17-1.72.48-1.78.51s2.53-1.8,2.31-1.86a17.37,17.37,0,0,0-2.08.34c-.14-.66,2.91-3.81,2.91-3.81s.38-.54.24-.4a12.49,12.49,0,0,1-1.55.65c0-1,3-2.51,3-2.51l-1.35-.05.89-1s-1.42,1.11-1.44.8,1.3-1.59,1.59-1.78,1.17,0,1.17,0-.38-1.13-.46-1.29c.21.18,3.22,1.47,3.22,1.47l.26.05a17.37,17.37,0,0,1,2.89.74,13.36,13.36,0,0,0,2.58.65l.59.12-2.14,13.62h-.59c-.34,0-.69,0-1-.06-.54-.05-1.07-.13-1.61-.23-1.07-.2-2.48-.47-3.56-.69-.67-.13-1.22-.25-1.48-.31-1.08-.25-2.42.59-2.73.59a12.89,12.89,0,0,0-2.15,1.57A8.49,8.49,0,0,1,183.1,165.34Z" transform="translate(-25.99 -26)"/><path class="cls-108" d="M183.09,165.31s2.11-.87,2.81-1.14,9,.33,9.4.35v.06c-.09,0-8.68-.64-9.38-.36s-2.78,1.14-2.8,1.14Z" transform="translate(-25.99 -26)"/><path class="cls-109" d="M187.76,149.61Z" transform="translate(-25.99 -26)"/><path class="cls-108" d="M185.44,152.69a17,17,0,0,1,1.78-1.28,3.63,3.63,0,0,1,2.08.06,3.83,3.83,0,0,0,.59.1,25,25,0,0,1,2.78.69s2.49.59,2.8.57a9.15,9.15,0,0,1,1.46.27v.05a11.59,11.59,0,0,0-1.45-.27c-.32,0-2.7-.54-2.81-.57s-2.37-.68-2.77-.68a4.31,4.31,0,0,1-.61-.1,3.71,3.71,0,0,0-2-.07,16.94,16.94,0,0,0-1.78,1.27Z" transform="translate(-25.99 -26)"/><path class="cls-108" d="M185.94,152.84a8.83,8.83,0,0,1,2.89-.24c.23.09,3,.37,3.2.37l4.83.94V154L192,153s-3-.26-3.22-.37a9.12,9.12,0,0,0-2.83.23Z" transform="translate(-25.99 -26)"/><path class="cls-108" d="M184.37,155.42c.76-1.31,5-1.7,5.07-1.7.46,0,6.95,1.21,7.23,1.27v0c-.07,0-6.76-1.3-7.21-1.27-1.19.11-4.41.61-5,1.68Z" transform="translate(-25.99 -26)"/><path class="cls-108" d="M184.09,156.94c1.2-1.38,5-1.28,5.06-1.28.3,0,6.8,1,7.08,1v.06c-.07,0-6.79-1-7.07-1,0,0-3.83-.1-5,1.26Z" transform="translate(-25.99 -26)"/><path class="cls-108" d="M182.94,158.47c.46-.86,1.73-1.48,3.78-1.83a20.28,20.28,0,0,1,3-.27l6.63.77v.05l-6.63-.77s-5.74.05-6.75,2.11l0,0Z" transform="translate(-25.99 -26)"/><path class="cls-108" d="M182.78,159c.64-.7,3.12-1.26,4.31-1.41s8.51,1.06,8.83,1.11v0c-.07,0-7.71-1.24-8.82-1.1s-3.65.71-4.27,1.39Z" transform="translate(-25.99 -26)"/><path class="cls-108" d="M184.23,159.25l2.81-.47a7.18,7.18,0,0,1,2.17,0l3.13.4,3.42.66v0l-3.42-.65-3.11-.41a7.44,7.44,0,0,0-2.16,0l-2.8.47Z" transform="translate(-25.99 -26)"/><path class="cls-108" d="M181.89,162.43c.59-1.1,3.16-1.64,4.57-1.94a5.88,5.88,0,0,0,.68-.16c.8-.22,8.27.54,8.59.57V161c-.08,0-7.78-.8-8.57-.57l-.68.15c-1.35.3-4.17.89-4.59,2.05l-.06,0Z" transform="translate(-25.99 -26)"/><path class="cls-108" d="M183.44,161.91s1.43-.46,1.75-.61,4-.24,4.17-.25l6.33.4v.05l-6.32-.39s-3.83.09-4.15.24-1.7.59-1.76.61Z" transform="translate(-25.99 -26)"/><path class="cls-108" d="M181.3,164.39c1.39-2,6.71-2.77,7.19-2.74l7.14.47v.06l-7.15-.47c-.47,0-5.75.73-7.12,2.71Z" transform="translate(-25.99 -26)"/><path class="cls-108" d="M181.88,165.85c1.26-2.39,6.67-2.93,7.17-2.91l6.31.3v0l-6.31-.29c-.53,0-6.47.56-7.28,3.26h-.05A2.05,2.05,0,0,1,181.88,165.85Z" transform="translate(-25.99 -26)"/><path class="cls-108" d="M194.57,166.25l2.14-13.73.59.11-2.14,13.62Z" transform="translate(-25.99 -26)"/><path class="cls-110" d="M194.71,166.54l2.23-14.3,2.73.89,2,.65s1.4-.3,1.85.74-1,4.06-.3,4.71,6.5,1.19,6.5,1.19,8.42,2.28,9.31,2.41,5.7,3,5.7,3c.27.67-3,.7-3.7.9a35.41,35.41,0,0,1-8.1-1.52c-.45-.41-6.88-2.18-6.88-2.18a4.62,4.62,0,0,0-3.41-.63,16.22,16.22,0,0,1-1,4.12,1.09,1.09,0,0,1-1.16.64l-3.1-.25Z" transform="translate(-25.99 -26)"/><path class="cls-108" d="M194.71,166.54l2.23-14.3,2.73.89c-.42,1.38-3.06,10.08-2.29,13.79Z" transform="translate(-25.99 -26)"/><path class="cls-6" d="M183.1,165.34l-1.36.93c0-.65,2.39-3.25,2.39-3.25-.62-.35-2.81,1.38-2.81,1.38.26-1.13,2.2-2.51,2.2-2.51a7.17,7.17,0,0,0-1.67.68,10.64,10.64,0,0,1,2.5-2.56c-.25-.17-1.72.48-1.78.51s2.53-1.8,2.31-1.86a17.37,17.37,0,0,0-2.08.34c-.14-.66,2.91-3.81,2.91-3.81s.38-.54.24-.4a12.27,12.27,0,0,1-1.55.64c0-1,3-2.5,3-2.5l-1.34-.05.89-1s-1.43,1.11-1.44.8,1.3-1.59,1.58-1.78,1.17,0,1.17,0-.38-1.13-.46-1.29c.22.18,3.22,1.47,3.22,1.47l.26.05c-.27.22-.55.43-.73.59a2.16,2.16,0,0,0-.64.8,1.61,1.61,0,0,0,.2,1.33c.22.4.53.76.75,1.16a.77.77,0,0,1,.12.57.94.94,0,0,1-.38.45,7.44,7.44,0,0,0-2.41,3.39,1,1,0,0,0-.08.42,1.59,1.59,0,0,0,.24.51,1.89,1.89,0,0,1-.23,2.15c-.24.26-.58.5-.59.85a1.06,1.06,0,0,0,.17.57l.71,1.36c-.68-.13-1.22-.25-1.49-.31-1.07-.25-2.42.59-2.72.59a13,13,0,0,0-2.16,1.57A8.92,8.92,0,0,1,183.1,165.34Z" transform="translate(-25.99 -26)"/><path class="cls-111" d="M228.58,245.68l1.28,5.24s28.85,9.49,38.2.59-1-26.2-1-26.2l-6.33-6.62-16.71-2h-5.93Z" transform="translate(-25.99 -26)"/><path class="cls-112" d="M228.58,245.68l1.28,5.24s28.85,9.49,38.2.59-1-26.2-1-26.2l-6.33-6.62-16.71-2h-5.93Z" transform="translate(-25.99 -26)"/><path class="cls-111" d="M298.67,207.51l-2.77,3.21-9.59,17.46-3.26,6.13s-2.46,3.12-2.22,4.42.94,11-7.37,11.79-26.3-19-26.3-19l.74-.51L264,220l5.78-6.31,1.54-1.69s7.51-10.28,7.32-11.87,7.51-11.07,12-10.77,7.81.3,9.39,6S298.67,207.51,298.67,207.51Z" transform="translate(-25.99 -26)"/><rect class="cls-113" x="215.17" y="114.76" width="30.47" height="23.06"/><rect class="cls-108" x="215.17" y="114.76" width="30.47" height="23.06"/><path class="cls-114" d="M232.83,188.79c0,.42,0,1-.1,1.65-.23,2.54-.79,6.21-.79,6.21s-1.19,6.44-.89,7-.3,4.82-.69,5.77-2.77,0-2.77,0l-7.83-21-.43-1.16-.17-.46.17-.7.64-2.54S232.83,186.75,232.83,188.79Z" transform="translate(-25.99 -26)"/><path class="cls-114" d="M268.62,168v3.32l-2.38,11.61-5.14,6.89-11.36,1.48-10.88-4.26s-7.22-11.65,1.19-18.21a16.12,16.12,0,0,0,4.81-6.13,19.91,19.91,0,0,0,1.66-7.87,17.68,17.68,0,0,0-.25-3.48s17.8-8.2,14.93,0a9.31,9.31,0,0,0-.4,4.41,13.78,13.78,0,0,0,1.42,4.33A28.24,28.24,0,0,0,268.62,168Z" transform="translate(-25.99 -26)"/><path class="cls-108" d="M261.2,151.35a9.31,9.31,0,0,0-.4,4.41,12,12,0,0,1-14.28-.92,17.72,17.72,0,0,0-.25-3.49S264.07,143.15,261.2,151.35Z" transform="translate(-25.99 -26)"/><circle class="cls-114" cx="228.29" cy="119.14" r="11.96"/><path class="cls-108" d="M268.62,168v3.32l-2.38,11.61-5.14,6.89-11.36,1.48-10.88-4.26s-7.22-11.65,1.19-18.21a16.12,16.12,0,0,0,4.81-6.13c-6.57,25.17,7.44,23.86,7.44,23.86,12.81,0,10.23-23.91,9.92-26.47A28.24,28.24,0,0,0,268.62,168Z" transform="translate(-25.99 -26)"/><path class="cls-108" d="M279.49,179.24c-.49,1.69-1.68,7.81-1.68,7.81s-.33.13-.87.38c-2,.94-7.05,3.56-7.41,6.8v.14c-.3,4.15-3.95,12.95-5.83,16.91s.89,8.2.89,8.2l-3.76.89a30.84,30.84,0,0,1-9.69-.39c-4.45-1.09-3.85,1.78-6.62.79s-11.87-1.68-13.35-2.57-2.77-8.8-2-9.79,3.27-21.85,3.27-21.85-10-9.29-9.79-15.32,7.41-6.33,7.41-6.33,2.78-1,5.13-2c.46-.2.89-.4,1.3-.6,2-.93,6.35-.52,8.11-.31l.74.1q-.37,1.33-.69,2.58c-4,16.2.7,21,4.32,22.47a7.88,7.88,0,0,0,3.33.57c4.54,0,7.15-3,8.6-7,2.89-7.91,1.29-19.69,1.29-19.69a117.85,117.85,0,0,1,15.12,7.51C283.26,172.32,280,177.56,279.49,179.24Z" transform="translate(-25.99 -26)"/><path class="cls-115" d="M279.49,178.65c-.49,1.68-1.68,7.81-1.68,7.81s-.33.13-.87.38c-2,.94-7.05,3.56-7.41,6.79v.15c-.3,4.15-3.95,12.95-5.83,16.9s.89,8.21.89,8.21l-3.76.89a30.66,30.66,0,0,1-9.69-.4c-4.45-1.09-3.85,1.78-6.62.79s-11.87-1.68-13.35-2.57-2.77-8.79-2-9.78S232.46,186,232.46,186s-10-9.3-9.79-15.33,7.41-6.32,7.41-6.32,2.78-1,5.13-2c.46-.19.89-.39,1.3-.59,2-.94,6.35-.53,8.11-.31l.74.1q-.37,1.33-.69,2.58c-4,16.2.7,21,4.32,22.47a8,8,0,0,0,3.33.57c4.54,0,7.15-3,8.6-7,2.89-7.91,1.29-19.69,1.29-19.69A117.85,117.85,0,0,1,277.33,168C283.26,171.73,280,177,279.49,178.65Z" transform="translate(-25.99 -26)"/><path class="cls-108" d="M232.83,188.79v1.78l-.1-.12c-4.17-5.29-10.93-3-13-2.08-.38.17-.59.28-.59.28s.11-.68.17-1.44a7.49,7.49,0,0,0,0-1.16l.64-2.54S232.83,186.75,232.83,188.79Z" transform="translate(-25.99 -26)"/><path class="cls-115" d="M225.71,170.05l-2.58,3.36s-4.34,10.57-3.94,11.36,0,3.26,0,3.26,8.73-4.53,13.67,1.94v-3.31s.49-1.39.69-1.78a19.85,19.85,0,0,0,0-3.46Z" transform="translate(-25.99 -26)"/><path class="cls-114" d="M230.36,209.4c0,.11-.06.22-.1.33-1.27,2.86-10.71-1.32-10.71-1.32s-.08-.4-.2-1c-.5-2.57-1.69-9.16-1-10.43.79-1.58.86-6.52.86-6.52,2.65-4.75,1.31-14.34,1.31-14.34,1.19-2.08-.69-4-.69-4s-16.41-9.69-5.14-11,13.44,12.36,12.55,13.84.7,13.54.7,13.54l1.58,9.32S231,205.9,230.36,209.4Z" transform="translate(-25.99 -26)"/><polygon class="cls-114" points="251.91 230.03 248.98 229.88 237.56 229.32 237.55 228.96 237.31 223.06 245.97 218.62 245.98 218.62 246.09 218.7 246.31 218.85 246.56 219.02 251.51 222.56 251.91 230.03"/><polygon class="cls-108" points="246.59 218.99 246.56 219.02 237.55 228.96 237.31 223.06 245.97 218.62 246.09 218.7 246.59 218.99"/><path class="cls-108" d="M230.26,209.73c-1.27,2.86-10.71-1.32-10.71-1.32s-.08-.4-.2-1a7.55,7.55,0,0,1,5-.05A24.1,24.1,0,0,1,230.26,209.73Z" transform="translate(-25.99 -26)"/><path class="cls-111" d="M229.86,250.92s-5.53-2.77-5.83-4.26a35.88,35.88,0,0,0-2.57-7.12c-.7-1-4.94-7.71-5.93-10.57s-4-11-1.78-14,3.46-9,10.58-7,8.5,4.64,8.5,4.64l.78,1.69s17.2,16,17.5,16.5,9.49,7.41,9.49,7.41L272,245l-9.58,10.59s-12.16-4.75-12.56-6.72-3.73-3.76-3.73-3.76l-4.57-1.78Z" transform="translate(-25.99 -26)"/><path class="cls-108" d="M218.3,227.29s2.07,2.08,2.07,2.87,2.87,2.17,2.87,2.17,22.74,14.13,25.41,14.09l4.74,4.8,6.7-13.89-8.39-6.59L234.2,215s-3.26-2.17-5-2.47-10.87-4.45-11.66,3.56S218.3,227.29,218.3,227.29Z" transform="translate(-25.99 -26)"/><path class="cls-108" d="M217.7,227.89s2.08,2.07,2.08,2.86,2.86,2.18,2.86,2.18,22.74,14.12,25.41,14.08l4.75,4.8,6.7-13.88-8.39-6.6-17.5-15.71s-3.26-2.18-5-2.47-10.88-4.45-11.67,3.55S217.7,227.89,217.7,227.89Z" transform="translate(-25.99 -26)"/><path class="cls-111" d="M217.7,227.29s2.08,2.08,2.08,2.87,2.86,2.17,2.86,2.17,22.74,14.13,25.41,14.09l4.75,4.8,6.7-13.89-8.39-6.59L233.61,215s-3.26-2.17-5-2.47-10.88-4.45-11.67,3.56S217.7,227.29,217.7,227.29Z" transform="translate(-25.99 -26)"/><path class="cls-111" d="M217.7,227.29s2.08,2.08,2.08,2.87,2.86,2.17,2.86,2.17,22.74,14.13,25.41,14.09l4.75,4.8,6.7-13.89-8.39-6.59L233.61,215s-3.26-2.17-5-2.47-10.88-4.45-11.67,3.56S217.7,227.29,217.7,227.29Z" transform="translate(-25.99 -26)"/><path class="cls-108" d="M219.88,233.32s6,9.9,9.21,10.78S219.88,233.32,219.88,233.32Z" transform="translate(-25.99 -26)"/><polygon class="cls-114" points="240.36 210.02 239.46 215.09 238.63 219.75 238.28 221.76 230.5 219.29 231.29 214.94 231.34 214.7 231.85 211.87 240.36 210.02"/><path class="cls-108" d="M264.62,245.75l-.35,2-7.79-2.47.81-4.35c1.14-1.46,4.13-.3,4.13-.3,4.16-.49,2.76,4.36,2.76,4.36A1.55,1.55,0,0,1,264.62,245.75Z" transform="translate(-25.99 -26)"/><path class="cls-116" d="M265.45,262.19c-2.07-1.88-9.59-2.77-12.06-2.77s-1.48-.79-1.48-.79l-1.63-1.18c-1.12-.81-.6-2.73-.17-3.86a8.63,8.63,0,0,1,.39-.89,37.18,37.18,0,0,1,1.24-6c.62-1.39,5.13-3.48,5.13-3.48-.39-4.15,4.54-2.25,4.54-2.25,4.15-.5,2.76,4.35,2.76,4.35.79.59,1,3.75.79,4.84s.69,4.54.69,4.54.83,3.13,1.34,5c.1.35.18.65.24.89C267.63,261.9,265.45,262.19,265.45,262.19Z" transform="translate(-25.99 -26)"/><path class="cls-108" d="M265.45,262.19c-2.07-1.88-9.59-2.77-12.06-2.77s-1.48-.79-1.48-.79l-1.63-1.18c-1.12-.81-.6-2.73-.17-3.86l2.21,2s-.63.49,0,.49h2.6s8.3,1.76,12.07,3.56c.1.35.18.66.25.89C267.63,261.9,265.45,262.19,265.45,262.19Z" transform="translate(-25.99 -26)"/><circle class="cls-108" cx="230.5" cy="219.01" r="0.4"/><circle class="cls-108" cx="231.29" cy="222.15" r="0.4"/><circle class="cls-108" cx="231.08" cy="220.99" r="0.4"/><circle class="cls-108" cx="231.29" cy="223.72" r="0.4"/><circle class="cls-108" cx="229.38" cy="225.35" r="0.4"/><path class="cls-108" d="M277.9,256l-2.94-.15a1.06,1.06,0,0,1,0-.56s2.15-2.06-1.41-6c0,0,.21-.92,1-.69,0,0-1.95-3.28-2.25-3.62a.21.21,0,0,1,0-.16l.24.17,4.95,3.53Z" transform="translate(-25.99 -26)"/><path class="cls-116" d="M303.15,248.55a6.42,6.42,0,0,1-.78,3.24,6.25,6.25,0,0,1-1.39,1.8h0a21.52,21.52,0,0,1-9.14,1.64c-4-.15-9.17-.14-10.89.78,0,0-6,1.67-5.38-.7,0,0,2.15-2.06-1.41-6,0,0,.21-.92,1-.69,0,0-1.95-3.28-2.25-3.62a6.94,6.94,0,0,1,.71-2.6c.12-.33.25-.65.36-.92.19-.48.34-.82.34-.82s.41.25.92.52a13.61,13.61,0,0,0,3.9,1.45c2.15.33,4,1,7.41,0s4.9-2.47,9.53-.75S303,245.38,303.15,248.55Z" transform="translate(-25.99 -26)"/><path class="cls-108" d="M303.15,248.55a6.42,6.42,0,0,1-.78,3.24,12.58,12.58,0,0,0-5.47-8.33c-3.92-3-10,.26-10,.26s-4.93.22-8.53.22a7.88,7.88,0,0,1-4.75-1.53,5.2,5.2,0,0,1-.74-.66l1.1-.26,1.27-.29a13.73,13.73,0,0,0,3.89,1.44c2.15.34,4,1,7.42,0s4.89-2.47,9.52-.75S303,245.38,303.15,248.55Z" transform="translate(-25.99 -26)"/><path class="cls-108" d="M282,196.84s-2.67,4-2.57,5.24-2.17,3.56-2.17,3.56-2.47,2.66-2.47,3.75-4.55,10.54-4.55,10.54-6,5.67-7.32,6.56-4.45,6.92-5.73,7.72-1.26,6.48-1.26,6.48L265,231.2s10.08,10.21,10.68,10.41S278,233.3,278,233.3s5.54-5.31,7.12-6.76,7.69-11.3,7.69-11.3,5.56-10.41,5.06-13.47S292.69,200.55,282,196.84Z" transform="translate(-25.99 -26)"/><path class="cls-108" d="M282.85,196.84s-2.67,4-2.57,5.24-2.17,3.56-2.17,3.56-2.47,2.66-2.47,3.75-4.55,10.54-4.55,10.54-6,5.67-7.32,6.56-4.45,6.92-5.73,7.72-1.26,6.48-1.26,6.48,10.42-6.78,14.31,8.64h0l3.56-5.18s1.28-2.73,1.88-2.53,2.37-8.3,2.37-8.3,5.54-5.32,7.12-6.76,7.69-11.3,7.69-11.3,5.56-10.42,5.06-13.48S292.49,199.5,282.85,196.84Z" transform="translate(-25.99 -26)"/><path class="cls-108" d="M266.34,236l-.89,5.07c-3.06-2.12-6.41-1.15-8.12-.39l.52-2.83Z" transform="translate(-25.99 -26)"/><path class="cls-111" d="M282.56,196.84s-2.67,4-2.57,5.24-2.18,3.56-2.18,3.56-2.47,2.66-2.47,3.75-4.55,10.54-4.55,10.54-6,5.67-7.31,6.56-4.45,6.92-5.74,7.72-1.26,6.48-1.26,6.48,10.42-6.78,14.31,8.64h0l3.56-5.18s1.29-2.73,1.88-2.53,2.37-8.3,2.37-8.3,5.54-5.32,7.12-6.76,7.69-11.3,7.69-11.3,5.56-10.42,5.06-13.48S293.43,189.63,282.56,196.84Z" transform="translate(-25.99 -26)"/><path class="cls-108" d="M236.58,206.73s14.67-5.54,22.93,1.78Z" transform="translate(-25.99 -26)"/><path class="cls-108" d="M238.1,210.36s11.73,2,16.18,1.61S238.1,210.36,238.1,210.36Z" transform="translate(-25.99 -26)"/><path class="cls-108" d="M234.71,165s-.93,6.1,1.27,7.58S234.71,165,234.71,165Z" transform="translate(-25.99 -26)"/><path class="cls-108" d="M228.58,167.58s3.07,4.94,3.36,7.51" transform="translate(-25.99 -26)"/><path class="cls-108" d="M237,230.74s11.07,8.31,10.18,12.16-.65,0-.65,0Z" transform="translate(-25.99 -26)"/><circle class="cls-108" cx="265.01" cy="220.19" r="0.4"/><circle class="cls-108" cx="266.59" cy="228.51" r="0.4"/><path class="cls-108" d="M287,211.22s-7.18,7-7.16,10.34-.39,7.71-.39,7.71l2.4-8.9Z" transform="translate(-25.99 -26)"/><path class="cls-108" d="M287.62,204.35S275,214.54,276.06,215.62,287.62,204.35,287.62,204.35Z" transform="translate(-25.99 -26)"/><path class="cls-108" d="M268.06,234.8s6.08,2.82,5.74,3.93S268.06,234.8,268.06,234.8Z" transform="translate(-25.99 -26)"/><circle class="cls-108" cx="255.87" cy="222.15" r="0.4"/><circle class="cls-108" cx="250.47" cy="221.39" r="0.4"/><circle class="cls-108" cx="260.62" cy="222" r="0.4"/><circle class="cls-108" cx="262.03" cy="228.11" r="0.4"/><circle class="cls-108" cx="263" cy="221.2" r="0.4"/><circle class="cls-108" cx="264.26" cy="228.11" r="0.4"/><circle class="cls-108" cx="258.14" cy="222.39" r="0.4"/><circle class="cls-108" cx="259.18" cy="228.51" r="0.4"/><circle class="cls-108" cx="253.47" cy="222" r="0.4"/><path class="cls-108" d="M269.75,213.66c-.1.54-.14.88-.14.88s-5.54,8.8-9.39,10c0,0-8.74,6.44-12.32,6.53L264,220Z" transform="translate(-25.99 -26)"/><path class="cls-114" d="M276.23,190l-.61,3-.11.56c-.46,2.44-2.37,12.18-3.93,14.17-1.78,2.27-2.27,6.52-2.27,6.52s-5.54,8.8-9.39,10c0,0-15,11.07-13.74,4.35s10-9.39,10-9.39a15.5,15.5,0,0,0,1.19-2.77c0-.5,2.57-3.56,2.57-3.56s2.27-4.15,2.37-5,4-17.21,4-17.21l2.34-.15Z" transform="translate(-25.99 -26)"/><path class="cls-108" d="M276.23,190l-.61,3-.11.56c-3,.55-8,1.23-8.71-.07-.31-.59.55-1.73,1.88-3Z" transform="translate(-25.99 -26)"/><path class="cls-115" d="M277.81,192.49a47.74,47.74,0,0,1-8.3,1.14H269c-1.13,0-2-.25-2.24-.73s.57-1.78,1.94-3.08a66.42,66.42,0,0,1,6.23-5c1.09-.78,1.83-1.29,1.83-1.29l1,3s-.11.53-.23,1.28C277.33,189.36,277,192,277.81,192.49Z" transform="translate(-25.99 -26)"/><path class="cls-108" d="M247,179.14q1.46,3.57,3,7.06a4,4,0,0,1-1.06.38c-1.82.39-3.85-.37-5.63-1.13-2.67-1.15-5.57-2.51-6.78-5.15-.88-2-.65-4.21-1-6.33-.29-1.82-1-3.57-1.18-5.42-.16-2.09.46-4.15.81-6.23.46-.19.89-.39,1.3-.59,2-.94,6.34-.53,8.1-.31a7.8,7.8,0,0,0-.1,1.28,7.33,7.33,0,0,0,.16,1.4c.44,2.25,1.68,4.38,1.69,6.69,0,1.43-.48,2.84-.44,4.27A11.66,11.66,0,0,0,247,179.14Z" transform="translate(-25.99 -26)"/><path class="cls-108" d="M279.49,178.65c-.49,1.68-1.68,7.81-1.68,7.81s-.11.53-.23,1.28c-.22-.3-.42-.6-.64-.89s-.27-.4-.42-.6a5.64,5.64,0,0,0-1.54-1.46,2.71,2.71,0,0,0-1.46-.41,5.88,5.88,0,0,0-2.32.85c-3,1.49-7.16,1.35-9.13-1.36a6.7,6.7,0,0,1-1.16-3.71c2.89-7.91,1.28-19.69,1.28-19.69A117.69,117.69,0,0,1,277.32,168C283.25,171.74,280,177,279.49,178.65Z" transform="translate(-25.99 -26)"/><path class="cls-113" d="M249.44,137.52c-.37,1.13,0,2.37-.11,3.56-.26,2.8-3.06,4.74-3.7,7.49-.49,2.1.37,4.27.27,6.42-.11,2.43-1.44,4.7-1.41,7.12,0,2.78,1.84,5.31,1.85,8.08,0,1.44-.48,2.84-.44,4.28a11.65,11.65,0,0,0,1.12,4.07q1.46,3.56,3,7.05c-2.07,1.08-4.56.17-6.7-.75-2.67-1.15-5.56-2.51-6.77-5.15-.89-1.95-.65-4.21-1-6.32-.3-1.83-1-3.58-1.19-5.43-.16-2.14.5-4.25.84-6.38a22.56,22.56,0,0,0-.66-10.1,54.88,54.88,0,0,1-1.78-5.68,7,7,0,0,1,1-5.68c1.34-1.68,3.61-2.29,5.3-3.64a11.35,11.35,0,0,0,3.46-5.8c.55-1.86,1.05-4,2.76-5a4.38,4.38,0,0,1,2.25-.48c2.62.07,5,1.56,7.65,1.72a24.75,24.75,0,0,0,4.45-.43,16.51,16.51,0,0,1,10.68,2.21,12.31,12.31,0,0,1,5.77,9.05c.2,2.21-.29,4.45-.08,6.65a10.63,10.63,0,0,0,2.92,6.35A21.78,21.78,0,0,1,282,154a8.51,8.51,0,0,1,1.1,3.4c1.28,9-3.74,18-2.9,27.1.13,1.46.59,3.12,1.92,3.71-.67,1-2.28,1-3.28.29a11.25,11.25,0,0,1-2.36-2.8,3.94,3.94,0,0,0-3-1.88,5.89,5.89,0,0,0-2.32.86c-3,1.48-7.16,1.35-9.13-1.36-1.48-2-1.29-4.83-.89-7.33s.91-5.15-.11-7.46c-.76-1.74-2.37-3.29-2.09-5.16.21-1.43,1.45-2.44,2.37-3.56a11.86,11.86,0,0,0,2.33-7.76,35.34,35.34,0,0,0-1.46-8.13,15.54,15.54,0,0,0-2.59-6.14A5.65,5.65,0,0,0,254,135.7c-.88.16-1.7-.22-2.61,0A2.87,2.87,0,0,0,249.44,137.52Z" transform="translate(-25.99 -26)"/><g class="cls-9"><path d="M276,142.4c.06-1.37.21-2.75.14-4.11C276.09,139.66,275.94,141,276,142.4Z" transform="translate(-25.99 -26)"/><path d="M245.51,149.29a4.51,4.51,0,0,1,.12-.72c.64-2.74,3.44-4.69,3.7-7.49a8,8,0,0,0,0-1.38c-.32,2.75-3.06,4.68-3.69,7.39A7.06,7.06,0,0,0,245.51,149.29Z" transform="translate(-25.99 -26)"/><path d="M235.49,157.23a22.53,22.53,0,0,0-1-7.25,54,54,0,0,1-1.78-5.67,9.59,9.59,0,0,1-.14-1,9.27,9.27,0,0,0,.14,2.52,50.42,50.42,0,0,0,1.78,5.68A23,23,0,0,1,235.49,157.23Z" transform="translate(-25.99 -26)"/><path d="M245.94,173.55c.11-1.11.4-2.22.4-3.34a5.65,5.65,0,0,0-.05-.71,27.55,27.55,0,0,0-.39,3.5A5.09,5.09,0,0,0,245.94,173.55Z" transform="translate(-25.99 -26)"/><path d="M244.54,161.29c.22-2.12,1.27-4.15,1.37-6.29a11,11,0,0,0,0-1.15c-.21,2.31-1.41,4.48-1.39,6.79A4.62,4.62,0,0,0,244.54,161.29Z" transform="translate(-25.99 -26)"/><path d="M281.19,187.39a2.82,2.82,0,0,1-2.31-.42,11.44,11.44,0,0,1-2.36-2.8,3.91,3.91,0,0,0-3-1.87,5.73,5.73,0,0,0-2.32.85c-3,1.48-7.16,1.35-9.13-1.36a6.68,6.68,0,0,1-1.15-3.54,7.63,7.63,0,0,0,1.15,5c2,2.71,6.13,2.85,9.13,1.36a5.82,5.82,0,0,1,2.32-.85,3.91,3.91,0,0,1,3,1.87,11.68,11.68,0,0,0,2.36,2.81c1,.69,2.62.74,3.28-.3A2.43,2.43,0,0,1,281.19,187.39Z" transform="translate(-25.99 -26)"/><path d="M280.16,181.59c.21-7.32,3.4-14.58,3.18-21.87C283.13,167,279.94,174.26,280.16,181.59Z" transform="translate(-25.99 -26)"/><path d="M261.64,170.94a8.42,8.42,0,0,0-.57-3.94c-.59-1.36-1.7-2.61-2-4,0,.1-.05.2-.06.3-.27,1.86,1.33,3.42,2.09,5.15A7.24,7.24,0,0,1,261.64,170.94Z" transform="translate(-25.99 -26)"/><path d="M243.32,183.37c-2.67-1.14-5.56-2.51-6.77-5.15-.89-1.95-.65-4.21-1-6.32-.3-1.82-1-3.56-1.17-5.39a11.69,11.69,0,0,0,0,1.45c.14,1.84.89,3.59,1.19,5.42.34,2.12.11,4.37,1,6.32,1.2,2.65,4.1,4,6.77,5.15,2.14.92,4.64,1.83,6.7.76l-.54-1.25C247.53,185,245.28,184.21,243.32,183.37Z" transform="translate(-25.99 -26)"/><path d="M259.62,137.73a15.69,15.69,0,0,1,2.59,6.14,36.93,36.93,0,0,1,1.44,7.77c0-.37,0-.75,0-1.12a35.34,35.34,0,0,0-1.46-8.13,15.69,15.69,0,0,0-2.59-6.14,5.66,5.66,0,0,0-5.6-2.05c-.87.16-1.69-.22-2.6,0a2.89,2.89,0,0,0-2,1.79,5.61,5.61,0,0,0-.13,2.08,3,3,0,0,1,.13-.59,2.9,2.9,0,0,1,2-1.8c.91-.26,1.73.12,2.6,0A5.66,5.66,0,0,1,259.62,137.73Z" transform="translate(-25.99 -26)"/></g><path class="cls-108" d="M268.36,187.75S273,200,262.29,205c0,0-19.12-2.16-25-.6s-6.05-11.66-3.37-12.45S268.36,187.75,268.36,187.75Z" transform="translate(-25.99 -26)"/><path class="cls-115" d="M268.06,187.15s4.61,12.26-6.07,17.2c0,0-19.12-2.16-25-.59s-6-11.66-3.37-12.46S268.06,187.15,268.06,187.15Z" transform="translate(-25.99 -26)"/><path class="cls-108" d="M228.3,191l1.68,9.94S230.4,193.41,228.3,191Z" transform="translate(-25.99 -26)"/><path class="cls-108" d="M252.3,179.34s-.38,4.45-.56,5.83S253,179.74,252.3,179.34Z" transform="translate(-25.99 -26)"/><path class="cls-117" d="M256.87,243.19s4.06,7.19,7.3,2.1" transform="translate(-25.99 -26)"/><path class="cls-117" d="M275.18,248.63s9.88,5.15,6.28,7.18" transform="translate(-25.99 -26)"/><path class="cls-4" d="M170.31,212.85c-.12.43-.67.78-1.46,1.05-3,1.08-9.68,1.21-9.68,1.21l-12.53-.3-6.19-.89a25.1,25.1,0,0,1-2.95-1c-.74-.32-1.36-.68-1.48-1a43.92,43.92,0,0,1,18.39-3.09C164,209.51,170.9,210.8,170.31,212.85Z" transform="translate(-25.99 -26)"/><path class="cls-108" d="M170.31,212.85c-.12.43-.67.78-1.46,1.05-3,1.08-9.68,1.21-9.68,1.21l-12.53-.3-6.19-.89a25.1,25.1,0,0,1-2.95-1c-.74-.32-1.36-.68-1.48-1a43.92,43.92,0,0,1,18.39-3.09C164,209.51,170.9,210.8,170.31,212.85Z" transform="translate(-25.99 -26)"/><path class="cls-4" d="M170.12,213.79l-.37,7.82-.16,3.51L169,236.68l-.15,3.18-.41,8.47c-9.63,4.78-30.33,0-30.33,0l-.32-8.47-.16-4.16h0l-.4-10.59-.16-4.33-.28-7.45C148.47,217.18,170.12,213.79,170.12,213.79Z" transform="translate(-25.99 -26)"/><path class="cls-108" d="M169.75,221.61l-.16,3.51H137.26l-.17-4.33C141.27,222.1,158.74,227,169.75,221.61Z" transform="translate(-25.99 -26)"/><path class="cls-108" d="M169,236.69l-.15,3.17H137.83l-.16-4.15C142.55,237.19,158.45,241.36,169,236.69Z" transform="translate(-25.99 -26)"/><ellipse class="cls-108" cx="127.49" cy="198.07" rx="7.79" ry="3.3"/><ellipse class="cls-6" cx="127.49" cy="197.88" rx="7.79" ry="3.3"/><ellipse class="cls-108" cx="128.33" cy="187.82" rx="11.71" ry="1.48"/><ellipse class="cls-6" cx="128.4" cy="187.94" rx="11.71" ry="1.48"/><path class="cls-108" d="M170.31,213c-.12.42-.67.77-1.46,1.05-2.06-5.42-15.37-4-15.37-4-9.59-.59-14.59,2.08-16,3-.74-.33-1.36-.69-1.48-1a44,44,0,0,1,18.39-3.08C164,209.66,170.9,210.92,170.31,213Z" transform="translate(-25.99 -26)"/><path class="cls-4" d="M170.31,212.85c-.12.43-.67.78-1.46,1.05-2.06-5.42-15.37-4-15.37-4-9.59-.59-14.59,2.08-16,3-.74-.33-1.36-.68-1.48-1a44,44,0,0,1,18.39-3.08C164,209.53,170.9,210.8,170.31,212.85Z" transform="translate(-25.99 -26)"/><path class="cls-108" d="M138.09,246.61s-2.05.95-.13,2.52,14.66,2.57,17.88,2c0,0,11.67-.63,13.2-2.3,0,0,0-1.12-.53-1.16,0,0-4.51,2-14.47,1.82S137.59,248.62,138.09,246.61Z" transform="translate(-25.99 -26)"/><path class="cls-4" d="M138.09,246.73s-2.05,1-.13,2.52,14.66,2.59,17.88,2c0,0,11.67-.63,13.2-2.3,0,0,0-1.13-.53-1.16,0,0-4.51,2-14.47,1.82S137.59,248.74,138.09,246.73Z" transform="translate(-25.99 -26)"/><path class="cls-4" d="M137.71,236.68c-1.23-.35-6-2.25-3.62-10.38,0,0,2.58-8.72,4.15-10.8,0,0-.27-.49-.65,0a30.23,30.23,0,0,0-1.55,3.37s-5,9.47-2.48,14.91a6.76,6.76,0,0,0,4.11,3.56" transform="translate(-25.99 -26)"/><path class="cls-108" d="M136,212s-.16,1.39.83,1.89,28.94,4.09,33.28.89c0,0,.63-2,0-1.89S145.07,217.18,136,212Z" transform="translate(-25.99 -26)"/><path class="cls-4" d="M136,211.9s-.16,1.38.83,1.89,28.94,4.09,33.28.89c0,0,.63-2,0-1.89S145.07,217.06,136,211.9Z" transform="translate(-25.99 -26)"/><circle class="cls-108" cx="112.24" cy="189.72" r="1.43"/><circle class="cls-4" cx="112.04" cy="189.5" r="1.43"/><path class="cls-4" d="M101,212.68c.07.25.4.47.89.63a25.62,25.62,0,0,0,5.85.73l7.58-.17,3.75-.53a16.31,16.31,0,0,0,1.78-.62c.44-.2.82-.42.9-.62a26.58,26.58,0,0,0-11.11-1.86C104.85,210.67,100.64,211.43,101,212.68Z" transform="translate(-25.99 -26)"/><path class="cls-108" d="M101,212.68c.07.25.4.47.89.63a25.62,25.62,0,0,0,5.85.73l7.58-.17,3.75-.53a16.31,16.31,0,0,0,1.78-.62c.44-.2.82-.42.9-.62a26.58,26.58,0,0,0-11.11-1.86C104.85,210.67,100.64,211.43,101,212.68Z" transform="translate(-25.99 -26)"/><path class="cls-4" d="M101.11,213.24l.22,4.73.1,2.12.34,7,.09,1.93.24,5.12c5.82,2.89,18.35,0,18.35,0l.19-5.12.1-2.51h0l.24-6.41.1-2.62.17-4.5C114.21,215.3,101.11,213.24,101.11,213.24Z" transform="translate(-25.99 -26)"/><path class="cls-108" d="M101.33,218l.1,2.12H121l.1-2.61C118.56,218.27,108,221.25,101.33,218Z" transform="translate(-25.99 -26)"/><path class="cls-108" d="M101.77,227.09l.09,1.92h18.78l.1-2.51C117.79,227.38,108.17,229.92,101.77,227.09Z" transform="translate(-25.99 -26)"/><ellipse class="cls-108" cx="85.19" cy="193.46" rx="4.72" ry="1.99"/><ellipse class="cls-6" cx="85.19" cy="193.35" rx="4.72" ry="1.99"/><ellipse class="cls-118" cx="85.19" cy="193.35" rx="4.72" ry="1.99"/><ellipse class="cls-108" cx="84.68" cy="187.26" rx="7.08" ry="0.9"/><ellipse class="cls-6" cx="84.64" cy="187.34" rx="7.08" ry="0.9"/><ellipse class="cls-118" cx="84.68" cy="187.35" rx="7.08" ry="0.9"/><path class="cls-108" d="M101,212.75c.07.26.4.47.89.64,1.24-3.28,9.3-2.39,9.3-2.39,5.8-.36,8.83,1.26,9.66,1.78.44-.2.82-.42.9-.62a26.68,26.68,0,0,0-11.11-1.87C104.85,210.73,100.64,211.51,101,212.75Z" transform="translate(-25.99 -26)"/><path class="cls-4" d="M101,212.68c.07.25.4.47.89.63,1.24-3.28,9.3-2.39,9.3-2.39,5.8-.35,8.83,1.26,9.66,1.78a2,2,0,0,0,.9-.61,26.5,26.5,0,0,0-11.11-1.87C104.85,210.66,100.64,211.43,101,212.68Z" transform="translate(-25.99 -26)"/><path class="cls-108" d="M120.49,233.1s1.24.57.07,1.52-8.87,1.56-10.81,1.19c0,0-7.06-.38-8-1.39,0,0,0-.69.31-.71,0,0,2.73,1.21,8.76,1.11S120.79,234.31,120.49,233.1Z" transform="translate(-25.99 -26)"/><path class="cls-4" d="M120.49,233.17s1.24.57.07,1.53-8.87,1.56-10.81,1.2c0,0-7.06-.39-8-1.39,0,0,0-.69.31-.71,0,0,2.73,1.21,8.76,1.11S120.79,234.39,120.49,233.17Z" transform="translate(-25.99 -26)"/><path class="cls-4" d="M120.71,227.09c.75-.21,3.64-1.36,2.19-6.28,0,0-1.56-5.27-2.51-6.53,0,0,.17-.29.4,0a19.47,19.47,0,0,1,.93,2s3,5.73,1.51,9a4.14,4.14,0,0,1-2.49,2.15" transform="translate(-25.99 -26)"/><path class="cls-108" d="M121.75,212.18s.09.84-.51,1.14-17.49,2.47-20.13.53c0,0-.38-1.19,0-1.14S116.26,215.3,121.75,212.18Z" transform="translate(-25.99 -26)"/><path class="cls-4" d="M121.75,212.1s.09.84-.51,1.14-17.49,2.48-20.13.54c0,0-.38-1.19,0-1.15S116.26,215.22,121.75,212.1Z" transform="translate(-25.99 -26)"/><circle class="cls-108" cx="94.41" cy="188.41" r="0.87"/><circle class="cls-4" cx="94.54" cy="188.28" r="0.87"/><path class="cls-4" d="M317.64,213.79c.07.26.4.46.89.64a26,26,0,0,0,5.85.72L332,215l3.74-.53a13.93,13.93,0,0,0,1.78-.63c.45-.19.83-.41.89-.61a26.63,26.63,0,0,0-11.11-1.87C321.48,211.78,317.28,212.55,317.64,213.79Z" transform="translate(-25.99 -26)"/><path class="cls-108" d="M317.64,213.79c.07.26.4.46.89.64a26,26,0,0,0,5.85.72L332,215l3.74-.53a13.93,13.93,0,0,0,1.78-.63c.45-.19.83-.41.89-.61a26.63,26.63,0,0,0-11.11-1.87C321.48,211.78,317.28,212.55,317.64,213.79Z" transform="translate(-25.99 -26)"/><path class="cls-4" d="M317.75,214.35l.23,4.75.1,2.12.33,7,.09,1.92.24,5.12c5.83,2.89,18.35,0,18.35,0l.2-5.12.09-2.51h0l.24-6.41.1-2.62.17-4.5C330.84,216.41,317.75,214.35,317.75,214.35Z" transform="translate(-25.99 -26)"/><path class="cls-108" d="M318,219.08l.1,2.12h19.54l.1-2.62C335.21,219.38,324.64,222.36,318,219.08Z" transform="translate(-25.99 -26)"/><path class="cls-108" d="M318.41,228.21l.09,1.91h18.79l.09-2.5C334.43,228.51,324.81,231,318.41,228.21Z" transform="translate(-25.99 -26)"/><ellipse class="cls-108" cx="301.83" cy="194.57" rx="4.72" ry="1.99"/><ellipse class="cls-6" cx="301.83" cy="194.46" rx="4.72" ry="1.99"/><ellipse class="cls-119" cx="301.83" cy="194.46" rx="4.72" ry="1.99"/><ellipse class="cls-108" cx="301.32" cy="188.37" rx="7.08" ry="0.9"/><ellipse class="cls-6" cx="301.28" cy="188.45" rx="7.08" ry="0.9"/><ellipse class="cls-119" cx="301.59" cy="188.37" rx="7.08" ry="0.9"/><path class="cls-108" d="M317.64,213.87c.07.25.4.46.89.63,1.24-3.28,9.29-2.39,9.29-2.39,5.81-.35,8.83,1.26,9.66,1.78.45-.2.83-.42.89-.62a26.53,26.53,0,0,0-11.11-1.86C321.48,211.85,317.28,212.62,317.64,213.87Z" transform="translate(-25.99 -26)"/><path class="cls-4" d="M317.64,213.79c.07.26.4.46.89.64,1.24-3.28,9.29-2.4,9.29-2.4,5.81-.35,8.83,1.26,9.66,1.78.45-.2.83-.41.89-.61a26.45,26.45,0,0,0-11.11-1.87C321.48,211.77,317.28,212.55,317.64,213.79Z" transform="translate(-25.99 -26)"/><path class="cls-106" d="M324.74,212.85Z" transform="translate(-25.99 -26)"/><path class="cls-107" d="M330.76,217.64l.16.75c-.3-.11-1-1.61-1-1.61-.26.21.11,1.47.11,1.47a3.08,3.08,0,0,1-.71-1.4,3.93,3.93,0,0,0,0,.84,4.87,4.87,0,0,1-.67-1.53c-.11.08-.09.83-.09.87a6.57,6.57,0,0,0-.4-1.33,6.09,6.09,0,0,0-.22,1c-.32-.06-1.15-1.93-1.15-1.93s-.16-.27-.13-.18a5.21,5.21,0,0,1,0,.79c-.42-.18-.57-1.73-.57-1.73l-.25.57-.27-.55s.23.81.09.77a2.92,2.92,0,0,1-.49-1c0-.16.19-.52.19-.52l-.64,0c.12-.06,1.19-1.13,1.19-1.13a.46.46,0,0,1,.07-.11,8.2,8.2,0,0,1,.83-1.13,6.57,6.57,0,0,0,.73-1l.15-.24,5.57,3.31-.11.26c-.06.15-.13.3-.2.44s-.25.44-.38.66l-.93,1.43-.4.59c-.29.42-.17,1.15-.22,1.29a5.81,5.81,0,0,0,.29,1.21A5.39,5.39,0,0,1,330.76,217.64Z" transform="translate(-25.99 -26)"/><path class="cls-108" d="M330.74,217.64v-1.42a40.71,40.71,0,0,1,1.81-4h0s-1.8,3.66-1.8,4v1.42Z" transform="translate(-25.99 -26)"/><path class="cls-109" d="M324.74,212.85Z" transform="translate(-25.99 -26)"/><path class="cls-108" d="M325.67,214.4a8.9,8.9,0,0,1-.24-1,1.67,1.67,0,0,1,.39-.89,1.28,1.28,0,0,0,.15-.25,12.09,12.09,0,0,1,.79-1.09s.69-1,.74-1.11a3.25,3.25,0,0,1,.37-.59h0a3.92,3.92,0,0,0-.37.59c0,.14-.71,1.08-.74,1.12s-.71.91-.79,1.08a1.28,1.28,0,0,1-.15.25,1.8,1.8,0,0,0-.39.89q.1.5.24,1Z" transform="translate(-25.99 -26)"/><path class="cls-108" d="M325.83,214.21a3.93,3.93,0,0,1,.4-1.3c.08-.08.7-1.26.72-1.32s1-1.48,1.26-1.94h0L327,211.58s-.63,1.24-.72,1.34a4.37,4.37,0,0,0-.4,1.27Z" transform="translate(-25.99 -26)"/><path class="cls-108" d="M326.67,215.35c-.44-.56.15-2.49.15-2.51.06-.2,1.75-2.8,1.82-2.91h0s-1.75,2.71-1.81,2.91c-.17.54-.51,2-.16,2.48Z" transform="translate(-25.99 -26)"/><path class="cls-108" d="M327.28,215.74c-.38-.77.33-2.41.34-2.43s1.62-2.78,1.69-2.89h0s-1.63,2.77-1.69,2.89-.71,1.65-.33,2.4Z" transform="translate(-25.99 -26)"/><path class="cls-108" d="M327.74,216.5a2.43,2.43,0,0,1-.13-2,10.65,10.65,0,0,1,.41-1.36l1.49-2.74h0L328,213.18s-1,2.5-.26,3.31l0,0Z" transform="translate(-25.99 -26)"/><path class="cls-108" d="M327.94,216.66a4.61,4.61,0,0,1,.14-2.12,39.15,39.15,0,0,1,2-3.64h0s-1.88,3.13-2,3.64a4.65,4.65,0,0,0-.15,2.1Z" transform="translate(-25.99 -26)"/><path class="cls-108" d="M328.31,216.08l.3-1.3a3.27,3.27,0,0,1,.36-1l.72-1.28.89-1.37h0l-.89,1.37-.72,1.28a3.65,3.65,0,0,0-.36,1l-.3,1.3Z" transform="translate(-25.99 -26)"/><path class="cls-108" d="M329.28,217.65c-.38-.44-.16-1.66,0-2.33l.05-.32a38.53,38.53,0,0,1,1.76-3.63h0s-1.71,3.24-1.75,3.63a2.31,2.31,0,0,1-.06.32c-.11.64-.34,2,.09,2.35l0,0Z" transform="translate(-25.99 -26)"/><path class="cls-108" d="M329.33,216.89s.05-.7,0-.87q.27-.95.63-1.86l1.28-2.67h0L330,214.16s-.63,1.68-.62,1.85,0,.84,0,.87Z" transform="translate(-25.99 -26)"/><path class="cls-108" d="M330,218.25c-.62-.95,0-3.4.07-3.6s1.44-3,1.46-3h0s-1.36,2.82-1.45,3-.7,2.63-.08,3.56Z" transform="translate(-25.99 -26)"/><path class="cls-108" d="M330.77,218.26c-.82-1-.11-3.41,0-3.63l1.23-2.69h0l-1.24,2.7c-.1.22-.89,2.91.15,3.73v0A.76.76,0,0,1,330.77,218.26Z" transform="translate(-25.99 -26)"/><path class="cls-108" d="M333.16,212.82l-5.58-3.34.15-.24,5.54,3.31Z" transform="translate(-25.99 -26)"/><path class="cls-110" d="M333.31,212.81l-5.82-3.48.87-1,.63-.75s.12-.66.65-.67,1.59,1.13,2,1a13,13,0,0,0,1.66-2.62s2.47-3.26,2.68-3.62a22.67,22.67,0,0,1,2.31-2c.34,0-.22,1.42-.26,1.78a17.38,17.38,0,0,1-2.07,3.26c-.25.14-2.16,2.61-2.16,2.61a2.2,2.2,0,0,0-.87,1.37,7.38,7.38,0,0,1,1.62,1.16.53.53,0,0,1,.07.61l-.66,1.32Z" transform="translate(-25.99 -26)"/><path class="cls-108" d="M333.31,212.81l-5.82-3.48.87-1c.52.43,3.85,3.1,5.59,3.42Z" transform="translate(-25.99 -26)"/><path class="cls-6" d="M330.76,217.64l.16.75c-.3-.11-1-1.61-1-1.61-.26.21.11,1.47.11,1.47a3.08,3.08,0,0,1-.71-1.4,3.36,3.36,0,0,0,0,.84,4.87,4.87,0,0,1-.67-1.53c-.12.08-.09.83-.09.87a6.57,6.57,0,0,0-.4-1.33,6.09,6.09,0,0,0-.22,1c-.32-.06-1.15-1.93-1.15-1.93s-.16-.27-.13-.18a5.21,5.21,0,0,1,0,.79c-.42-.18-.57-1.73-.57-1.73l-.25.57-.27-.55s.23.81.09.77a2.92,2.92,0,0,1-.49-1c0-.16.19-.52.19-.52l-.64,0c.12-.06,1.19-1.13,1.19-1.13l.07-.11c.05.16.09.32.13.42a1,1,0,0,0,.23.42.79.79,0,0,0,.61.15c.22,0,.43-.1.64-.13a.37.37,0,0,1,.27.05.47.47,0,0,1,.13.25,3.47,3.47,0,0,0,1.05,1.64.32.32,0,0,0,.17.1.57.57,0,0,0,.26,0,.89.89,0,0,1,.89.48c.07.15.11.33.26.41a.54.54,0,0,0,.28,0l.72-.07-.4.6c-.3.42-.17,1.15-.23,1.29a6.47,6.47,0,0,0,.3,1.21A5.19,5.19,0,0,1,330.76,217.64Z" transform="translate(-25.99 -26)"/><path class="cls-119" d="M330.79,217.64l.16.75c-.28-.11-1-1.61-1-1.61-.27.21.1,1.47.1,1.47a3,3,0,0,1-.7-1.4,3.36,3.36,0,0,0,0,.84,5,5,0,0,1-.68-1.53c-.12.08-.09.83-.09.87a6.57,6.57,0,0,0-.4-1.33,7.45,7.45,0,0,0-.22,1c-.31-.06-1.14-1.93-1.14-1.93s-.18-.27-.14-.18a5.21,5.21,0,0,1,0,.79c-.42-.18-.57-1.73-.57-1.73l-.25.57-.27-.55s.23.81.09.77a2.92,2.92,0,0,1-.49-1c0-.16.19-.52.19-.52l-.64,0c.11-.06,1.19-1.13,1.19-1.13l.07-.11c.05.16.09.32.13.42a1,1,0,0,0,.23.42.79.79,0,0,0,.61.15c.22,0,.42-.1.64-.13a.37.37,0,0,1,.27.05.47.47,0,0,1,.13.25,3.47,3.47,0,0,0,1.05,1.64.44.44,0,0,0,.16.1.61.61,0,0,0,.27,0,.89.89,0,0,1,.89.48c.07.15.11.33.26.41a.54.54,0,0,0,.28,0l.72-.07-.4.6c-.3.42-.17,1.15-.23,1.29a6.47,6.47,0,0,0,.3,1.21A5.19,5.19,0,0,1,330.79,217.64Z" transform="translate(-25.99 -26)"/><path class="cls-108" d="M337.13,234.21s1.24.57.08,1.52-8.87,1.56-10.82,1.19c0,0-7.06-.38-8-1.39,0,0,0-.68.32-.7,0,0,2.73,1.2,8.75,1.1S337.43,235.42,337.13,234.21Z" transform="translate(-25.99 -26)"/><rect class="cls-4" x="297.47" y="189.02" width="9.64" height="3.38"/><path class="cls-4" d="M337.13,234.28s1.24.58.08,1.53-8.87,1.56-10.82,1.18c0,0-7.06-.38-8-1.39,0,0,0-.68.32-.7,0,0,2.73,1.21,8.75,1.1S337.43,235.5,337.13,234.28Z" transform="translate(-25.99 -26)"/><path class="cls-4" d="M337.37,228.2c.75-.21,3.64-1.36,2.19-6.28,0,0-1.56-5.28-2.51-6.53,0,0,.16-.29.4,0a19.47,19.47,0,0,1,.93,2s3,5.73,1.5,9a4.15,4.15,0,0,1-2.48,2.16" transform="translate(-25.99 -26)"/><path class="cls-108" d="M338.39,213.29s.09.84-.51,1.14-17.5,2.47-20.13.53c0,0-.38-1.18,0-1.14S332.92,216.41,338.39,213.29Z" transform="translate(-25.99 -26)"/><path class="cls-4" d="M338.39,213.21s.09.84-.51,1.15-17.5,2.47-20.13.53c0,0-.38-1.19,0-1.15S332.92,216.33,338.39,213.21Z" transform="translate(-25.99 -26)"/><circle class="cls-108" cx="311.06" cy="189.52" r="0.87"/><circle class="cls-4" cx="311.18" cy="189.39" r="0.87"/><ellipse class="cls-1" cx="34.53" cy="229.5" rx="7.99" ry="1.35"/><path class="cls-6" d="M345.23,267.68a3.42,3.42,0,0,0,1.13-1.71,1.53,1.53,0,0,0-.79-1.75c-.73-.28-1.51.23-2.1.74a2.8,2.8,0,0,1-2,1,3.1,3.1,0,0,0,1-2.91,1.22,1.22,0,0,0-.27-.59c-.4-.43-1.14-.25-1.62.1-1.54,1.08-2,3.18-2,5.06a9,9,0,0,1,0-2.08,2.13,2.13,0,0,0-.78-1.84,2.39,2.39,0,0,0-1.19-.3,2.49,2.49,0,0,0-1.94.55,1.91,1.91,0,0,0,.08,2.38,7.62,7.62,0,0,0,2,1.6,4.49,4.49,0,0,1,1.44,1.37,1.09,1.09,0,0,1,.1.25h4.35A12,12,0,0,0,345.23,267.68Z" transform="translate(-25.99 -26)"/><path class="cls-120" d="M55.16,249.23s4.55-.14,5.93-1.12,7-2.14,7.35-.58,6.84,7.8,1.7,7.84-12-.8-13.32-1.63S55.16,249.23,55.16,249.23Z" transform="translate(-25.99 -26)"/><path class="cls-119" d="M70.23,254.83c-5.15,0-12-.8-13.32-1.64-1-.63-1.46-2.91-1.6-4h-.15s.29,3.68,1.66,4.51,8.17,1.68,13.32,1.64c1.48,0,2-.54,2-1.33C71.9,254.52,71.33,254.82,70.23,254.83Z" transform="translate(-25.99 -26)"/><path class="cls-121" d="M99.39,140.35a14.24,14.24,0,0,1,.72,6.08c-.45,2.82.16.84.53,2.06a33.6,33.6,0,0,1,.38,5.41V151s-.14-4.37,0-5.67S99.39,140.35,99.39,140.35Z" transform="translate(-25.99 -26)"/><path class="cls-121" d="M110.21,135.49a14.17,14.17,0,0,1,.73,6.08c-.45,2.82.16.84.53,2.06a33.6,33.6,0,0,1,.38,5.41v-2.87s-.14-4.38,0-5.67S110.21,135.49,110.21,135.49Z" transform="translate(-25.99 -26)"/><path class="cls-118" d="M105.3,102.92s2.35,3.26,1.46,6.08-1.48,4.38-.74,5.6a5.62,5.62,0,0,0,2.54,1.87V113.6a38.71,38.71,0,0,1,0-5.68C108.84,106.62,105.3,102.92,105.3,102.92Z" transform="translate(-25.99 -26)"/><path class="cls-118" d="M160.52,99.88s-.41,4-3,5.51-4,2.29-4.28,3.69a5.6,5.6,0,0,0,.65,3.08l1.91-2.15a39.15,39.15,0,0,1,3.77-4.23C160.68,105,160.52,99.88,160.52,99.88Z" transform="translate(-25.99 -26)"/><path class="cls-6" d="M183.26,171.67a8.5,8.5,0,0,0-.33,1.25,1.25,1.25,0,0,0,.41,1.16.47.47,0,0,0,.33.09c.23,0,.29-.36.29-.6,0-.47,0-.95,0-1.43a3.42,3.42,0,0,0-.12-1,1.1,1.1,0,0,0-.48-.69C183.22,170.74,183.36,171.31,183.26,171.67Z" transform="translate(-25.99 -26)"/><path class="cls-6" d="M188.52,174.59a8,8,0,0,0-.34,1.25,1.22,1.22,0,0,0,.42,1.16.37.37,0,0,0,.32.09c.24-.05.3-.35.3-.59,0-.48,0-.95,0-1.43a4,4,0,0,0-.12-1,1.12,1.12,0,0,0-.49-.68C188.48,173.67,188.61,174.24,188.52,174.59Z" transform="translate(-25.99 -26)"/><path class="cls-6" d="M186,170.77a4.61,4.61,0,0,0,.15-.53.52.52,0,0,0-.18-.48.15.15,0,0,0-.14,0c-.1,0-.12.15-.13.25v.59a1.4,1.4,0,0,0,.06.41.4.4,0,0,0,.2.29C186,171.15,186,170.92,186,170.77Z" transform="translate(-25.99 -26)"/><path class="cls-6" d="M214.34,114.12a3.18,3.18,0,0,0,.14-.53.48.48,0,0,0-.17-.48.18.18,0,0,0-.14,0c-.1,0-.13.15-.13.25v.59a1.92,1.92,0,0,0,.05.41.47.47,0,0,0,.21.29C214.36,114.5,214.3,114.27,214.34,114.12Z" transform="translate(-25.99 -26)"/><ellipse class="cls-6" cx="162.72" cy="217.35" rx="2.23" ry="0.36"/><ellipse class="cls-6" cx="164.58" cy="217.56" rx="2.23" ry="0.36"/><ellipse class="cls-6" cx="165.36" cy="216.67" rx="2.23" ry="0.36"/><ellipse class="cls-6" cx="166.82" cy="217.71" rx="2.23" ry="0.36"/><polygon class="cls-121" points="88.99 74.52 89.29 76.14 89.87 73.86 88.99 74.52"/><path class="cls-121" d="M112.73,81.19l3.37,17.75,1.45-5.68h-.18l2.47-13.7c-1.67.32-3.3.68-4.91,1.07l.52,4.73-1.21-4.56Z" transform="translate(-25.99 -26)"/><path class="cls-122" d="M208.87,102.68l-.42,2.4.42,2.4c.58-.79,1.11-1.59,1.6-2.4C210,104.27,209.45,103.47,208.87,102.68Z" transform="translate(-25.99 -26)"/><polygon class="cls-121" points="85.05 79.08 85.09 80.78 87.63 82.65 88.54 79.08 87.63 75.51 85.09 77.37 85.05 79.08"/><polygon class="cls-121" points="89.29 82.02 88.99 83.64 89.87 84.3 89.29 82.02"/><path class="cls-121" d="M86.16,110.68l-1.41-4.11-2,7.57c.59.52,3.83,1,4.46,1.53C87.64,114,85.56,112.22,86.16,110.68Z" transform="translate(-25.99 -26)"/><path class="cls-121" d="M106,112.43l1.61-7.35,2.21-15c-1.48.52-4.21-2-5.63-1.41l-1.58,4.43-2.46-7.62c-1.19.5-5.39,6.89-6.51,7.42l1.9,12.22,3,12.76c1.12.54.49,6.38,1.66,6.87l2.47-7.61-1.31,8.09C102.77,125.77,104.55,111.92,106,112.43Z" transform="translate(-25.99 -26)"/><path class="cls-121" d="M119.84,130.58l-2.47-13.69h.18l-1.45-5.68L112.73,129c.49.14,1,.27,1.51.39l1.21-4.56-.52,4.73C116.54,129.9,118.17,130.26,119.84,130.58Z" transform="translate(-25.99 -26)"/><path class="cls-121" d="M84.54,94.49c-.64.5-1.25,1-1.85,1.53l2,7.56,1.42-4.1C85.56,97.93,85,96.19,84.54,94.49Z" transform="translate(-25.99 -26)"/><path class="cls-121" d="M81.25,97.33l-1,15.25c.08.08,1.2.41,1.29.48l2.73-8-2.73-8Z" transform="translate(-25.99 -26)"/><path class="cls-122" d="M96,117.85,90.53,83c-1.21.65-2.38,1.32-3.52,2,.74,5.11,4.75,19,2.52,19.29-1,.12-2.09-1.63-3.08-4l-1.3,4.82,1.3,4.82c1-2.42,2.06-4.17,3.08-4.06,2.24.24-1,3.12-1.7,8.23C89,114.76,94.77,117.2,96,117.85Z" transform="translate(-25.99 -26)"/><path class="cls-121" d="M121,130.79c2.14.4,4.33.73,6.56,1L126,119.65l-.22,4.22-.27-8.12-.15-1.19-.64,5.86-1.43-2.3,1.72-6.47-.41-3.2-.77-.57.35-2.8-.35-2.8.78-.57.4-3.21L123.28,92l1.44-2.3.64,5.87.15-1.18.27-8.13.22,4.22,2.69-2C127,89.89,134.58,100,121,79.37l-.6,13.69-2.29.17-2.24,11.86L118.07,117l2.29.16Z" transform="translate(-25.99 -26)"/><path class="cls-121" d="M190.76,86.21c-.63-.3-1.27-.57-1.92-.84l-1.91,4.21,4.42.78Z" transform="translate(-25.99 -26)"/><path class="cls-121" d="M180.37,108.24c-.64-.26.66-16.29,0-16.54l2.45-2.18-.91,14.06Z" transform="translate(-25.99 -26)"/><path class="cls-123" d="M79.45,106.14l.76-1.06-.55-6.17a36.05,36.05,0,0,0-4.77,6.17C76.19,107.22,77.58,104.18,79.45,106.14Z" transform="translate(-25.99 -26)"/><path class="cls-121" d="M188.08,119.39c.82-.44,5.25,1.32,6,.86l2.51-15.17-1.05-11.3c-.79-.47-4-.35-4.78-.79L189,101.44l-1.36-9.74-2.25,13.38-1.56,10.62,5.17-7Z" transform="translate(-25.99 -26)"/><path class="cls-121" d="M177.69,127.49l-6.28-21.91-1.58,4.49,1.45-5-1.43-5,1.57,4.49,6.29-21.91c-1.15-.37-2.31-.72-3.49-1V93.27l-3.48-7.16c-1.88-.49-2.61-.15-4.57-.55h0l-1.28,4.57q-2-.36-4-.66l.72-4.09-1.78,3.93-2-.27,4,15.3.69-3-.58,3.72.58,3.72-.69-8.3-4,26q1,7.88,2-.27l1.78-6.74L160.9,126c1.34,5.13,2.67-.43,4-.67l1.28-.77.48.43c2-.41,3.9,4.49,5.78,4l1.78-12.14v11.65C175.39,128.21,176.55,127.85,177.69,127.49Z" transform="translate(-25.99 -26)"/><path class="cls-121" d="M171.58,113.74l-2.43-8.47-.6,1.74.55-1.93-.55-1.93.6,1.73,2.43-8.46c-.45-.14-.89-.28-1.35-.4v4.5l-.69-4.69c-.73-.2-1.48-.37-2.24-.52l-.17,2.23-.5-2.38-1.54-.25.28,2.54-.69-2.6-.79-.11,1.55,10,.26-1.15-.22,1.44.22,1.44-.26-1.15-1.55,10,.79-.1.69-2.61-.28,2.55,1.54-.26.5-2.37.18,2.23c.76-.16,1.51-.33,2.24-.52l.69-4.67v4.5C170.69,114,171.14,113.88,171.58,113.74Z" transform="translate(-25.99 -26)"/><path class="cls-121" d="M197.12,95.46l-.45,9.35.08-.52-.06.79.06.79-.08-.52,0,11c1.65-1,5.72-3.77,7.18-4.89l-5.67,4.69,1.05-11.08,2.39-5L200.19,94C198.73,92.88,198.77,96.48,197.12,95.46Z" transform="translate(-25.99 -26)"/><path class="cls-124" d="M134.39,128.15c.33-.06,10.12,4.5,10.45,4.43l.91-27.5-3.13-15.82c-1.39-.3-4.45-2.12-5.85-2.41l1,4.24.46,4.25L137.3,92l-2.5,5.24.51,4.68-1-3.7-2.67,5.6-.16,1.28.16,1.28,2.67,5.59,1-3.69-.51,4.68,2.49,5.24.89-3.36-.46,4.25Z" transform="translate(-25.99 -26)"/><polygon class="cls-121" points="83.42 79.56 83.45 79.08 83.42 78.6 82.77 79.08 83.42 79.56"/><path class="cls-121" d="M178.77,105.08l-1.23-16.5L180,89l.4-5.44-1.1-.38-7.69,21.89L179.26,127l1.1-.39-.4-5.44-2.43.43Z" transform="translate(-25.99 -26)"/><path class="cls-121" d="M154.5,127.53l4.14-22.45-5-13.94c-1-.13-2-.24-3.07-.33l.55-6.79-1.34,6.73q-1.16-.09-2.31-.15l-.61,14.49.48,21.88c.78,0,1.67,5.56,2.44,5.5l1.34-6.31,3,5.63C155.15,131.7,153.48,127.66,154.5,127.53Z" transform="translate(-25.99 -26)"/><polygon class="cls-6" points="70 68.75 73.4 79.58 77.67 73.88 79.31 71.1 76.5 81.48 74.66 86.16 70 75.51 70 68.75"/></svg>