<svg id="Layer_1" data-name="Layer 1" xmlns="http://www.w3.org/2000/svg" viewBox="0 0 299.52 235"><defs><style>.cls-1{fill:#f2f2f2;}.cls-2{fill:#3f3d56;}.cls-3{fill:#6c63ff;}.cls-4{fill:#2f2e41;}.cls-5{fill:#9f616a;}.cls-6{fill:#d0cde1;}.cls-7{opacity:0.1;isolation:isolate;}.cls-8,.cls-9{fill:none;stroke-miterlimit:10;}.cls-8{stroke:#6c63ff;stroke-width:4px;}.cls-9{stroke:#3f3d56;stroke-width:2px;}</style></defs><title>how-6</title><path class="cls-1" d="M143.47,76.05,108,105.49A16.08,16.08,0,0,1,84.2,127.14c-.33-.37-.65-.75-1-1.15L51.43,152.38l51,61.51,92-76.33Z" transform="translate(-46 -18)"/><path class="cls-1" d="M345.52,165.17c0,36.36-21.61,49.06-48.27,49.06S249,201.53,249,165.17s48.28-82.6,48.28-82.6S345.52,128.82,345.52,165.17Z" transform="translate(-46 -18)"/><polygon class="cls-2" points="249.49 190.66 249.98 160.24 270.56 122.59 250.06 155.46 250.28 141.78 264.46 114.55 250.34 138.16 250.34 138.16 250.74 113.56 265.93 91.87 250.8 109.69 251.05 64.57 249.48 124.3 249.61 121.83 234.17 98.2 249.37 126.56 247.93 154.04 247.88 153.31 230.09 128.44 247.83 155.89 247.65 159.33 247.62 159.38 247.63 159.66 243.98 229.38 248.86 229.38 249.44 193.37 267.14 165.99 249.49 190.66"/><ellipse class="cls-2" cx="209.25" cy="229.97" rx="67.48" ry="5.03"/><rect class="cls-2" x="204.81" width="10.65" height="231.45"/><path class="cls-3" d="M316.66,239.71c0,6.65-4,9-8.83,9h-.34c-.23,0-.45,0-.67,0-4.4-.31-7.82-2.75-7.82-8.94,0-6.4,8.18-14.47,8.79-15.07h0l0,0S316.66,233.06,316.66,239.71Z" transform="translate(-46 -18)"/><path class="cls-2" d="M307.5,247.67l3.23-4.51-3.23,5v.52c-.23,0-.45,0-.67,0l.35-6.65V242h0l0-.63-3.24-5,3.25,4.55V241l.26-5-2.78-5.18,2.82,4.3.27-10.42v0l0,8.22,2.76-3.26-2.78,4-.07,4.5,2.58-4.32-2.59,5,0,2.5,3.75-6-3.76,6.88Z" transform="translate(-46 -18)"/><path class="cls-4" d="M238.15,234.74l-1.89-1.41s-1.25,7,.15,8,6.62,2.79,6.62,4.89,11.86,4.88,12.21,1.74a6.91,6.91,0,0,0-1-4.88s-5.59-5.58-6.28-6.63-2.44-3.14-2.44-3.14Z" transform="translate(-46 -18)"/><path class="cls-4" d="M266.05,147.89s-.05.3-.14.87-.2,1.2-.34,2.07c-1.46,8.94-5.73,35.25-5.44,36.12.34,1.05,2.79,4.88,0,5.93a2.14,2.14,0,0,0-.87,1,19.78,19.78,0,0,0-1.48,3.48,153.51,153.51,0,0,0-4.47,17.9c-.45,2.35-.76,4.24-.85,5.23a3.18,3.18,0,0,0,0,.69c.35,1.4-2.09,6.28-3.14,7.68s-2.79,2.79-2.44,4.18-8.72,5.23-9.77,2.79a45.81,45.81,0,0,1-1.39-4.53c-.35-.7-.7-5.58,1-6.28s.69-12.91,2.44-15.35c.58-.81,1.47-3.56,2.4-6.87.37-1.3.74-2.68,1.1-4.07,1.47-5.67,2.78-11.38,2.78-11.38l-.35-40.81,19.18-2.44.49,1.09,1,2.15Z" transform="translate(-46 -18)"/><path class="cls-4" d="M267.1,214.85s2.79-2.79,4.19,0,2.79,13.61,5.23,16.05,5.58,14.65,2.09,15.35-7.32-1.05-7.67-3.14-7.68-12.91-7.68-14,4.89-4.89,4.89-4.89Z" transform="translate(-46 -18)"/><path class="cls-4" d="M224.2,128.7s4.53,40.81,5.58,44.65,6.63,18.48,8.37,20.93,12.91,22.32,14.3,23.37,4.19,3.83,4.19,3.83,5.23,5.23,5.93,6.28,6.62-2.09,7-4.19-.35-5.58-.7-7,.7-3.49-.34-4.54-6.28-6.27-6.28-8.72-9.07-16.74-12.56-19.88-2.79-8.37-2.79-8.37V153.82l19.18-5.93s-1-16.74-3.48-16.74S228,125.56,224.2,128.7Z" transform="translate(-46 -18)"/><circle class="cls-5" cx="206.45" cy="40.95" r="11.51"/><path class="cls-5" d="M248.61,68s-1.39,5.24-3.13,6.63S250,82,250,82l11.86.69L264,76s-3.83-7.68-2.79-12.56S248.61,68,248.61,68Z" transform="translate(-46 -18)"/><path class="cls-2" d="M243.73,73.94s3.14.35,3.84,1.4,5.58,4.18,9.42,3.49,6.27-1.75,7-1.4,2.09,7.68,2.09,7.68l-3.83,11.16.7,30.69,1,8.37s2.09-2.79-6.28-1.05-19.18-1.39-22.67-1.74-9.42-1.39-9.76-3.49,1-9.76,1-9.76l5.58-23.37,3.49-12.56Z" transform="translate(-46 -18)"/><path class="cls-6" d="M247,72.37s-2.95-1.57-4-.17-14.3,3.49-14.3,4.53-2.79,29.3-2.09,31.74-1.39,5.24-1.39,5.24l-2.45,10.46s-6.62,19.88-3.83,20.58,5.23,0,6.28,0,.69-13.26,3.48-16.74,6.63-12.21,7.33-14,9.42-25.81,9.07-28.6S247,72.37,247,72.37Z" transform="translate(-46 -18)"/><path class="cls-6" d="M261.52,73.94s2.79,0,3.14.7a38.53,38.53,0,0,0,5.23,6.28c1.4,1,6.28,5.58,6.28,6.63s-10.12,8.72-10.12,8.72-4.18,20.58-2.09,27.55,5.23,23.72,3.84,24.76-4.54,1.4-4.54,0-2.09-16.39-3.83-19.53-7-23-4.89-28.6S261.52,73.94,261.52,73.94Z" transform="translate(-46 -18)"/><path class="cls-5" d="M215.48,108.47s-.35,10.82,3.49,16.4a66.84,66.84,0,0,1,6.28,11.86s6.27-1.75,7.32-3.84,7.67-.35,7.67-1-8-4.18-8.72-4.88-3.13-.7-4.53-2.09-1.74-4.54-1.74-4.54l-1.4-9.07Z" transform="translate(-46 -18)"/><path class="cls-4" d="M244.52,51.85a6.71,6.71,0,0,1-2.58-.59,3.46,3.46,0,0,1-.88-5.12,6.51,6.51,0,0,1,1.23-1l2.65-1.8a13,13,0,0,1,3.74-2,11.64,11.64,0,0,1,3.82-.22,25.64,25.64,0,0,1,7.33,1.33,12.3,12.3,0,0,1,5.93,4.34c2.25,3.25,2.28,7.63,1,11.38s-3.58,7-5.9,10.22l-1.2-5.86a2.17,2.17,0,0,0-.68-1.41c-1.08-.76-2.4.81-3.72.8a2.21,2.21,0,0,1-1.89-1.49,8.8,8.8,0,0,1-.42-2.51c-.15-1.79-.78-4.29-2.48-5.28S246.3,52,244.52,51.85Z" transform="translate(-46 -18)"/><path class="cls-7" d="M245.17,148.17s1.18,34.07,1.88,35.12,0-35.23,0-35.23Z" transform="translate(-46 -18)"/><path class="cls-6" d="M231.52,76.73h-2.79s-11.85,16-10.46,17.1,0,3.83,0,3.83l-2.79,5.23S212,106,213,106.73s2.44,3.49,2.44,3.49,7-1,9.07,3.14l4.52-5.71Z" transform="translate(-46 -18)"/><path class="cls-5" d="M263.26,106.73s-7.67.35-16.39-5.23l-8.72-3.84s-7.67-11.86-8.37-9.76,1.05,6.27,1.05,6.27S220.3,99,220,99.69s5.91-1,5.91-1-1,6.63,4.89,7,7.67-1,7.67-1,25.11,20.92,29.3,14.3S263.26,106.73,263.26,106.73Z" transform="translate(-46 -18)"/><path class="cls-6" d="M272.33,86.15l3.84,1.4V98l1.39,2.09s-.34,4.19-1.39,5.24-3.14.69-2.44,3.13a13.22,13.22,0,0,1,.35,4.89s-6.28,8-6.63,7-5.23-14-5.93-14,7-20.23,7-20.23Z" transform="translate(-46 -18)"/><path class="cls-4" d="M226.47,139s-3.61-3.48-1.81-3.66,8.09-3.66,9.13-1.92S226.47,139,226.47,139Z" transform="translate(-46 -18)"/><path class="cls-2" d="M171.41,241.46a67.48,67.48,0,1,0-115.86,0Z" transform="translate(-46 -18)"/><circle class="cls-3" cx="67.48" cy="184.39" r="6.51"/><circle class="cls-3" cx="15.69" cy="195.04" r="3.26"/><circle class="cls-3" cx="17.6" cy="166.85" r="3.26"/><circle class="cls-3" cx="33.76" cy="143.66" r="3.26"/><circle class="cls-3" cx="59.55" cy="132.11" r="3.26"/><circle class="cls-3" cx="87.61" cy="135.49" r="3.26"/><circle class="cls-3" cx="109.92" cy="152.84" r="3.26"/><circle class="cls-3" cx="120.11" cy="179.21" r="3.26"/><circle class="cls-3" cx="115.26" cy="207.05" r="3.26"/><line class="cls-8" x1="67.48" y1="184.39" x2="100.93" y2="158.94"/><circle class="cls-9" cx="98.42" cy="58.71" r="4.37"/><circle class="cls-2" cx="123.28" cy="109.61" r="4.37"/><circle class="cls-1" cx="49.79" cy="98.01" r="12.66"/></svg>