<svg id="Layer_1" data-name="Layer 1" xmlns="http://www.w3.org/2000/svg" viewBox="0 0 382.45 206.38"><defs><style>.cls-1,.cls-2,.cls-3,.cls-4,.cls-5{fill:#6c63ff;}.cls-1,.cls-12,.cls-14{opacity:0.1;}.cls-1,.cls-11,.cls-12,.cls-14,.cls-2,.cls-4,.cls-5{isolation:isolate;}.cls-2{opacity:0.2;}.cls-4{opacity:0.7;}.cls-5{opacity:0.4;}.cls-6{fill:#767d9f;}.cls-7{fill:#ae6e79;}.cls-8{fill:#4c4981;}.cls-9{fill:#504f60;}.cls-10{fill:#9c9ca1;}.cls-11{opacity:0.05;}.cls-13{fill:#fff;}.cls-14{stroke:#4c4981;stroke-miterlimit:10;}.cls-15{fill:#444053;}</style></defs><title>how-3</title><path class="cls-1" d="M391.44,171.45A60.42,60.42,0,0,1,389.15,188a59.75,59.75,0,0,1-6.44,14.8c0,16.75-11.3,31.23-27.71,38.11a55.84,55.84,0,0,1-21.64,4.28H81.6a69.89,69.89,0,0,1-36.15-9.81,61.72,61.72,0,0,1-8.3-6c-11.37-9.77-18.42-23.27-18.42-38.18a60,60,0,0,1,34.08-91c1-.28,2.08-.53,3.13-.75a58.32,58.32,0,0,1,8.53-1.17c1-.07,2.08-.1,3.13-.11h.57c1.16,0,2.31,0,3.45.11l.37-.64c.46-.77.93-1.52,1.41-2.28q1.3-2,2.73-4c1-1.4,2.05-2.78,3.13-4.14l.28-.33c.61-.77,1.24-1.53,1.88-2.28q3-3.51,6.36-6.8C111.88,54.21,149.65,39,192.11,39c33,0,63.23,9.21,86.36,24.43a58.19,58.19,0,0,1,28.73-7.55c32.67,0,59.17,26.86,59.17,60a60,60,0,0,1-.33,6.28A60.16,60.16,0,0,1,391.44,171.45Z" transform="translate(-9 -39)"/><path class="cls-2" d="M87.78,77.83v6.8H81.43Q84.42,81.12,87.78,77.83Z" transform="translate(-9 -39)"/><rect class="cls-2" x="81.91" y="37.1" width="8.53" height="8.53"/><rect class="cls-2" x="93.57" y="37.1" width="8.53" height="8.53"/><rect class="cls-2" x="105.22" y="37.1" width="8.53" height="8.53"/><rect class="cls-2" x="116.88" y="37.1" width="8.53" height="8.53"/><rect class="cls-2" x="128.53" y="37.1" width="8.53" height="8.53"/><rect class="cls-3" x="140.19" y="37.1" width="8.53" height="8.53"/><rect class="cls-2" x="151.84" y="37.1" width="8.53" height="8.53"/><rect class="cls-2" x="163.5" y="37.1" width="8.53" height="8.53"/><rect class="cls-2" x="175.16" y="37.1" width="8.53" height="8.53"/><rect class="cls-3" x="186.81" y="37.1" width="8.53" height="8.53"/><rect class="cls-2" x="198.47" y="37.1" width="8.53" height="8.53"/><rect class="cls-2" x="210.12" y="37.1" width="8.53" height="8.53"/><rect class="cls-2" x="221.78" y="37.1" width="8.53" height="8.53"/><rect class="cls-2" x="233.44" y="37.1" width="8.53" height="8.53"/><rect class="cls-2" x="245.09" y="37.1" width="8.53" height="8.53"/><rect class="cls-2" x="256.75" y="37.1" width="8.53" height="8.53"/><rect class="cls-3" x="268.4" y="37.1" width="8.53" height="8.53"/><rect class="cls-3" x="280.06" y="37.1" width="8.53" height="8.53"/><rect class="cls-2" x="291.72" y="37.1" width="8.53" height="8.53"/><rect class="cls-2" x="303.37" y="37.1" width="8.53" height="8.53"/><rect class="cls-3" x="315.03" y="37.1" width="8.53" height="8.53"/><rect class="cls-3" x="326.68" y="37.1" width="8.53" height="8.53"/><path class="cls-3" d="M76.13,91.39v4H73.39C74.26,94.05,75.17,92.71,76.13,91.39Z" transform="translate(-9 -39)"/><rect class="cls-2" x="70.25" y="47.9" width="8.53" height="8.53"/><rect class="cls-3" x="81.91" y="47.9" width="8.53" height="8.53"/><rect class="cls-2" x="93.57" y="47.9" width="8.53" height="8.53"/><rect class="cls-4" x="105.22" y="47.9" width="8.53" height="8.53"/><rect class="cls-2" x="116.88" y="47.9" width="8.53" height="8.53"/><rect class="cls-5" x="128.53" y="47.9" width="8.53" height="8.53"/><rect class="cls-3" x="140.19" y="47.9" width="8.53" height="8.53"/><rect class="cls-5" x="151.84" y="47.9" width="8.53" height="8.53"/><rect class="cls-2" x="163.5" y="47.9" width="8.53" height="8.53"/><rect class="cls-5" x="175.16" y="47.9" width="8.53" height="8.53"/><rect class="cls-3" x="186.81" y="47.9" width="8.53" height="8.53"/><rect class="cls-5" x="198.47" y="47.9" width="8.53" height="8.53"/><rect class="cls-5" x="210.12" y="47.9" width="8.53" height="8.53"/><rect class="cls-2" x="221.78" y="47.9" width="8.53" height="8.53"/><rect class="cls-5" x="233.44" y="47.9" width="8.53" height="8.53"/><rect class="cls-5" x="245.09" y="47.9" width="8.53" height="8.53"/><rect class="cls-2" x="256.75" y="47.9" width="8.53" height="8.53"/><rect class="cls-2" x="268.4" y="47.9" width="8.53" height="8.53"/><rect class="cls-5" x="280.06" y="47.9" width="8.53" height="8.53"/><rect class="cls-2" x="291.72" y="47.9" width="8.53" height="8.53"/><rect class="cls-3" x="303.37" y="47.9" width="8.53" height="8.53"/><rect class="cls-3" x="315.03" y="47.9" width="8.53" height="8.53"/><rect class="cls-3" x="326.68" y="47.9" width="8.53" height="8.53"/><path class="cls-2" d="M52.81,100.27v6H44.29v-2.92A60,60,0,0,1,52.81,100.27Z" transform="translate(-9 -39)"/><polygon class="cls-2" points="55.47 59.35 55.47 67.23 46.94 67.23 46.94 60.52 55.47 59.35"/><rect class="cls-3" x="58.6" y="58.71" width="8.53" height="8.53"/><rect class="cls-4" x="70.25" y="58.71" width="8.53" height="8.53"/><rect class="cls-3" x="81.91" y="58.71" width="8.53" height="8.53"/><rect class="cls-4" x="93.57" y="58.71" width="8.53" height="8.53"/><rect class="cls-4" x="105.22" y="58.71" width="8.53" height="8.53"/><rect class="cls-2" x="116.88" y="58.71" width="8.53" height="8.53"/><rect class="cls-5" x="128.53" y="58.71" width="8.53" height="8.53"/><rect class="cls-5" x="140.19" y="58.71" width="8.53" height="8.53"/><rect class="cls-3" x="151.84" y="58.71" width="8.53" height="8.53"/><rect class="cls-2" x="163.5" y="58.71" width="8.53" height="8.53"/><rect class="cls-5" x="175.16" y="58.71" width="8.53" height="8.53"/><rect class="cls-3" x="186.81" y="58.71" width="8.53" height="8.53"/><rect class="cls-2" x="198.47" y="58.71" width="8.53" height="8.53"/><rect class="cls-5" x="210.12" y="58.71" width="8.53" height="8.53"/><rect class="cls-2" x="221.78" y="58.71" width="8.53" height="8.53"/><rect class="cls-3" x="233.44" y="58.71" width="8.53" height="8.53"/><rect class="cls-2" x="245.09" y="58.71" width="8.53" height="8.53"/><rect class="cls-4" x="256.75" y="58.71" width="8.53" height="8.53"/><rect class="cls-4" x="268.4" y="58.71" width="8.53" height="8.53"/><rect class="cls-5" x="280.06" y="58.71" width="8.53" height="8.53"/><rect class="cls-2" x="291.72" y="58.71" width="8.53" height="8.53"/><rect class="cls-3" x="303.37" y="58.71" width="8.53" height="8.53"/><rect class="cls-3" x="315.03" y="58.71" width="8.53" height="8.53"/><rect class="cls-3" x="326.68" y="58.71" width="8.53" height="8.53"/><rect class="cls-2" x="35.29" y="69.51" width="8.53" height="8.53"/><rect class="cls-2" x="46.94" y="69.51" width="8.53" height="8.53"/><rect class="cls-2" x="58.6" y="69.51" width="8.53" height="8.53"/><rect class="cls-2" x="70.25" y="69.51" width="8.53" height="8.53"/><rect class="cls-3" x="81.91" y="69.51" width="8.53" height="8.53"/><rect class="cls-4" x="93.57" y="69.51" width="8.53" height="8.53"/><rect class="cls-4" x="105.22" y="69.51" width="8.53" height="8.53"/><rect class="cls-2" x="116.88" y="69.51" width="8.53" height="8.53"/><rect class="cls-2" x="128.53" y="69.51" width="8.53" height="8.53"/><rect class="cls-5" x="140.19" y="69.51" width="8.53" height="8.53"/><rect class="cls-5" x="151.84" y="69.51" width="8.53" height="8.53"/><rect class="cls-3" x="163.5" y="69.51" width="8.53" height="8.53"/><rect class="cls-2" x="175.16" y="69.51" width="8.53" height="8.53"/><rect class="cls-5" x="186.81" y="69.51" width="8.53" height="8.53"/><rect class="cls-5" x="198.47" y="69.51" width="8.53" height="8.53"/><rect class="cls-5" x="210.12" y="69.51" width="8.53" height="8.53"/><rect class="cls-5" x="221.78" y="69.51" width="8.53" height="8.53"/><rect class="cls-2" x="233.44" y="69.51" width="8.53" height="8.53"/><rect class="cls-2" x="245.09" y="69.51" width="8.53" height="8.53"/><rect class="cls-2" x="256.75" y="69.51" width="8.53" height="8.53"/><rect class="cls-2" x="268.4" y="69.51" width="8.53" height="8.53"/><rect class="cls-4" x="280.06" y="69.51" width="8.53" height="8.53"/><rect class="cls-4" x="291.72" y="69.51" width="8.53" height="8.53"/><rect class="cls-5" x="303.37" y="69.51" width="8.53" height="8.53"/><rect class="cls-2" x="315.03" y="69.51" width="8.53" height="8.53"/><rect class="cls-3" x="326.68" y="69.51" width="8.53" height="8.53"/><rect class="cls-2" x="35.29" y="80.31" width="8.53" height="8.53"/><rect class="cls-2" x="46.94" y="80.31" width="8.53" height="8.53"/><rect class="cls-5" x="58.6" y="80.31" width="8.53" height="8.53"/><rect class="cls-2" x="70.25" y="80.31" width="8.53" height="8.53"/><rect class="cls-2" x="81.91" y="80.31" width="8.53" height="8.53"/><rect class="cls-4" x="93.57" y="80.31" width="8.53" height="8.53"/><rect class="cls-4" x="105.22" y="80.31" width="8.53" height="8.53"/><rect class="cls-2" x="116.88" y="80.31" width="8.53" height="8.53"/><rect class="cls-2" x="128.53" y="80.31" width="8.53" height="8.53"/><rect class="cls-5" x="140.19" y="80.31" width="8.53" height="8.53"/><rect class="cls-3" x="151.84" y="80.31" width="8.53" height="8.53"/><rect class="cls-2" x="163.5" y="80.31" width="8.53" height="8.53"/><rect class="cls-3" x="175.16" y="80.31" width="8.53" height="8.53"/><rect class="cls-3" x="186.81" y="80.31" width="8.53" height="8.53"/><rect class="cls-3" x="198.47" y="80.31" width="8.53" height="8.53"/><rect class="cls-2" x="210.12" y="80.31" width="8.53" height="8.53"/><rect class="cls-3" x="221.78" y="80.31" width="8.53" height="8.53"/><rect class="cls-2" x="233.44" y="80.31" width="8.53" height="8.53"/><rect class="cls-2" x="245.09" y="80.31" width="8.53" height="8.53"/><rect class="cls-2" x="256.75" y="80.31" width="8.53" height="8.53"/><rect class="cls-2" x="268.4" y="80.31" width="8.53" height="8.53"/><rect class="cls-2" x="280.06" y="80.31" width="8.53" height="8.53"/><rect class="cls-4" x="291.72" y="80.31" width="8.53" height="8.53"/><rect class="cls-2" x="303.37" y="80.31" width="8.53" height="8.53"/><rect class="cls-2" x="315.03" y="80.31" width="8.53" height="8.53"/><rect class="cls-3" x="326.68" y="80.31" width="8.53" height="8.53"/><rect class="cls-2" x="35.29" y="91.11" width="8.53" height="8.53"/><rect class="cls-2" x="46.94" y="91.11" width="8.53" height="8.53"/><rect class="cls-2" x="58.6" y="91.11" width="8.53" height="8.53"/><rect class="cls-5" x="70.25" y="91.11" width="8.53" height="8.53"/><rect class="cls-2" x="81.91" y="91.11" width="8.53" height="8.53"/><rect class="cls-2" x="93.57" y="91.11" width="8.53" height="8.53"/><rect class="cls-4" x="105.22" y="91.11" width="8.53" height="8.53"/><rect class="cls-2" x="116.88" y="91.11" width="8.53" height="8.53"/><rect class="cls-2" x="128.53" y="91.11" width="8.53" height="8.53"/><rect class="cls-2" x="140.19" y="91.11" width="8.53" height="8.53"/><rect class="cls-3" x="151.84" y="91.11" width="8.53" height="8.53"/><rect class="cls-2" x="163.5" y="91.11" width="8.53" height="8.53"/><rect class="cls-3" x="175.16" y="91.11" width="8.53" height="8.53"/><rect class="cls-3" x="186.81" y="91.11" width="8.53" height="8.53"/><rect class="cls-2" x="198.47" y="91.11" width="8.53" height="8.53"/><rect class="cls-2" x="210.12" y="91.11" width="8.53" height="8.53"/><rect class="cls-2" x="221.78" y="91.11" width="8.53" height="8.53"/><rect class="cls-2" x="233.44" y="91.11" width="8.53" height="8.53"/><rect class="cls-2" x="245.09" y="91.11" width="8.53" height="8.53"/><rect class="cls-2" x="256.75" y="91.11" width="8.53" height="8.53"/><rect class="cls-2" x="268.4" y="91.11" width="8.53" height="8.53"/><rect class="cls-2" x="280.06" y="91.11" width="8.53" height="8.53"/><rect class="cls-2" x="291.72" y="91.11" width="8.53" height="8.53"/><rect class="cls-2" x="303.37" y="91.11" width="8.53" height="8.53"/><rect class="cls-5" x="315.03" y="91.11" width="8.53" height="8.53"/><rect class="cls-3" x="326.68" y="91.11" width="8.53" height="8.53"/><rect class="cls-4" x="35.29" y="101.92" width="8.53" height="8.53"/><rect class="cls-4" x="46.94" y="101.92" width="8.53" height="8.53"/><rect class="cls-4" x="58.6" y="101.92" width="8.53" height="8.53"/><rect class="cls-4" x="70.25" y="101.92" width="8.53" height="8.53"/><rect class="cls-4" x="81.91" y="101.92" width="8.53" height="8.53"/><rect class="cls-2" x="93.57" y="101.92" width="8.53" height="8.53"/><rect class="cls-2" x="105.22" y="101.92" width="8.53" height="8.53"/><rect class="cls-2" x="116.88" y="101.92" width="8.53" height="8.53"/><rect class="cls-2" x="128.53" y="101.92" width="8.53" height="8.53"/><rect class="cls-2" x="140.19" y="101.92" width="8.53" height="8.53"/><rect class="cls-2" x="151.84" y="101.92" width="8.53" height="8.53"/><rect class="cls-3" x="163.5" y="101.92" width="8.53" height="8.53"/><rect class="cls-2" x="175.16" y="101.92" width="8.53" height="8.53"/><rect class="cls-2" x="186.81" y="101.92" width="8.53" height="8.53"/><rect class="cls-2" x="198.47" y="101.92" width="8.53" height="8.53"/><rect class="cls-3" x="210.12" y="101.92" width="8.53" height="8.53"/><rect class="cls-2" x="221.78" y="101.92" width="8.53" height="8.53"/><rect class="cls-2" x="233.44" y="101.92" width="8.53" height="8.53"/><rect class="cls-2" x="245.09" y="101.92" width="8.53" height="8.53"/><rect class="cls-2" x="256.75" y="101.92" width="8.53" height="8.53"/><rect class="cls-2" x="268.4" y="101.92" width="8.53" height="8.53"/><rect class="cls-2" x="280.06" y="101.92" width="8.53" height="8.53"/><rect class="cls-2" x="291.72" y="101.92" width="8.53" height="8.53"/><rect class="cls-2" x="303.37" y="101.92" width="8.53" height="8.53"/><rect class="cls-2" x="315.03" y="101.92" width="8.53" height="8.53"/><rect class="cls-3" x="326.68" y="101.92" width="8.53" height="8.53"/><circle class="cls-6" cx="245.55" cy="121.64" r="11.66"/><path class="cls-7" d="M254,145.81q1.74,7.6,3,15.34a9.06,9.06,0,0,1-.09,4.6,16.06,16.06,0,0,1-2.16,3.2,4.09,4.09,0,0,0-.85,3.62,4.19,4.19,0,0,0,3,2.21c3.59,1,7.43.27,11-.78a18.11,18.11,0,0,0,4.62-1.91,17.46,17.46,0,0,0,3.9-3.68c5.22-6.33,8.64-13.92,11.85-21.47a13.1,13.1,0,0,1-11.07-4.46c-1.31-1.55-2.28-3.71-1.54-5.6-2.17,1.19-4.76,1.27-7.1,2.09a25,25,0,0,0-4.18,2.06q-2.4,1.38-4.78,2.82C257.75,144.94,256.05,145.91,254,145.81Z" transform="translate(-9 -39)"/><path class="cls-6" d="M278.33,154.56c-2,4-4.7,7.8-8.5,10.16s-8.9,3-12.7.67c-1.87-1.14-3.29-2.88-4.92-4.35s-3.68-2.71-5.88-2.52c-2.42.21-4.31,2.1-5.93,3.91a46.19,46.19,0,0,0-6.58,8.86c-3.35,6.25-4.14,13.56-4,20.65s1.17,14.14,1.2,21.22c0,8.72-1.45,17.37-2.94,26,13.74-1.69,27.49,2,41.26,3.41a255.61,255.61,0,0,0,26.55.86,8,8,0,0,0,4.52-.91,6.15,6.15,0,0,0,1.87-2.21,21.36,21.36,0,0,0,2-7.38,149.73,149.73,0,0,0,.92-19.42c.06-15.71.11-31.48-1.88-47.07a44.27,44.27,0,0,0-2.59-11.27,17.65,17.65,0,0,0-7.23-8.81c-2.16-1.24-7.15-3.39-9.69-2.14C281,145.57,279.7,151.9,278.33,154.56Z" transform="translate(-9 -39)"/><path class="cls-8" d="M279.35,198.93c-.52-9.7-2.63-20,1.86-28.65,1.1-2.11-2.86-4.75-1.63-6.79a31.08,31.08,0,0,0,3.36-8,6.1,6.1,0,0,0,.22-3c-.45-1.77-2.2-2.82-3.68-3.9-1.64-1.19-2.48-4.82-3-6.78s4.2.4,6.11-.3c2.64-1,6-.36,8.63.62a14.43,14.43,0,0,0,4.63.63,60.48,60.48,0,0,0,9.13-.22,23.25,23.25,0,0,1,4.08-.35c3.48.2,6.5,2.58,8.56,5.4s3.37,6.09,5.06,9.14c1.41,2.54,3.09,4.94,4.29,7.58a47.6,47.6,0,0,1,2.4,7.36l1.71,6.41a8.35,8.35,0,0,1,.42,2.85,7.9,7.9,0,0,1-1,2.89,54.68,54.68,0,0,1-6.24,9.53c-3.61,4.42-8,8.41-10.13,13.71a33.79,33.79,0,0,0-1.72,6.44A235.71,235.71,0,0,0,308.75,240a57.84,57.84,0,0,0-12.21-4.08,59.48,59.48,0,0,0-6.35-1c-1.87-.19-4.28.18-6.06-.33-3-.85-3.3-5.88-3.75-8.51a77.31,77.31,0,0,1-.89-12.71C279.45,208.54,279.6,203.73,279.35,198.93Z" transform="translate(-9 -39)"/><path class="cls-8" d="M214,180.8c1.4,8,3,16.07,6,23.61l-.23.2c-.27.24-.55.45-.84.67a11.06,11.06,0,0,0-2,1.52,2.87,2.87,0,0,0-.5.82,1.84,1.84,0,0,0,0,1.49c-1.6.71-3.45.49-5.24.43a6.88,6.88,0,0,0-4.27.84c-1.72,1.18-2.23,3.46-2.51,5.52-.1.76-.19,1.51-.27,2.27s-.13,1.4-.17,2.11a63.24,63.24,0,0,0-.06,7c0,.43,0,.86.07,1.28-5.47-.13-10.44-3-15.15-5.74A8.37,8.37,0,0,1,186,220.5a5.28,5.28,0,0,1-.77-3.44,4.4,4.4,0,0,1,0-.51,13.78,13.78,0,0,1,.77-2.9,35.77,35.77,0,0,1,6.41-10.92c1.2-1.39,2.55-2.76,3.11-4.52.24-.76.33-1.58.58-2.34,1.11-3.3,5.11-4.86,6.48-8.07.34-.76.49-1.6.91-2.34a5.82,5.82,0,0,1,1.42-1.59l.74-.59q3.53-2.76,6.79-5.84l1.21-1.15A19.53,19.53,0,0,0,214,180.8Z" transform="translate(-9 -39)"/><path class="cls-8" d="M247.69,157.07c-.48.51-1,1-1.51,1.46l-.14.12-.54.51a12.86,12.86,0,0,0-2.52,2.93l-.06.1c-1.71,3.05-1.07,6.81-.6,10.27a87.48,87.48,0,0,1,.79,13c-.08,6-.79,12-.81,18,0,1.36,0,2.72.09,4.09.1,2.21.27,4.43.47,6.64.22,2.43.48,4.85.72,7.27q.3,2.82.53,5.62.12,1.45.21,2.91c.07,1.14.13,2.28.16,3.41h0c0,.72,0,1.44,0,2.16v1.23q0,1.17-.06,2.34c-.05,1-.11,2-.21,3a4.87,4.87,0,0,1-1.05,3.06l-.15.13-1.08-.13a110.61,110.61,0,0,0-22.5-.4c.16-1.13.31-2.26.46-3.39.07-.54.13-1.08.2-1.62l.21-1.84.21-2c.18-1.72.33-3.44.46-5.17q.28-3.78.44-7.56c.05-1.21.09-2.41.11-3.62q.06-2.25.06-4.5c0-1.46,0-2.92,0-4.38q0-.72-.06-1.44a9.17,9.17,0,0,0-.18-1.28,15.87,15.87,0,0,0-1-2.83l-.21-.52-.12-.28a24.89,24.89,0,0,0,4.62-6.27c2.13-3.64,4.32-7.44,4.68-11.64s-1.73-8.93-5.75-10.22a27.53,27.53,0,0,0-3.38-.62,14.74,14.74,0,0,1-4.51-1.38c-.67.69-1.34,1.36-2,2a7.58,7.58,0,0,1,.73-2.92l.47,0a1.27,1.27,0,0,1-.05-.34,1.78,1.78,0,0,1,.78-1.21c1.57-1.33,4-1.63,5-3.44a22.54,22.54,0,0,0,.82-2.44c1-2.25,3.71-3.08,5.37-4.88s2.08-4.34,3.42-6.35a9.58,9.58,0,0,1,4-3.34c.13-.06.27-.13.41-.18a23,23,0,0,1,8.94-1.45,19,19,0,0,1,5.43.59,1.89,1.89,0,0,1,.62.38C251.16,152.41,248.81,155.88,247.69,157.07Z" transform="translate(-9 -39)"/><path class="cls-8" d="M214.5,173.16a20.37,20.37,0,0,1,15.63,1.63A14.73,14.73,0,0,1,236,180.4c2,3.61,1.9,8,1.76,12.08a14.7,14.7,0,0,1-1.07,6.05,12.25,12.25,0,0,1-5.06,4.82,14.1,14.1,0,0,1-4.12,1.78,17.57,17.57,0,0,1-6.84-.33c-2.47-.46-5.11-1-6.81-2.84a11.45,11.45,0,0,1-2.1-3.79l-2.34-5.84c-1.35-3.38-1.81-6.2,0-9.49.81-1.5,1.8-2.9,2.61-4.41C212.43,177.66,213.87,173.36,214.5,173.16Z" transform="translate(-9 -39)"/><path class="cls-9" d="M355,231v10a56,56,0,0,1-21.64,4.28H243.21l-.15.13-1.08-.13H81.6a69.8,69.8,0,0,1-36.15-9.82V220.15l77.13-8.9h.06l44.92,3.8,11.62,1,6,.52,12.49,1.06,6.43.54,9.36.8,1.32.11,6.75.57,9.15.75,12.87,1.09,21.46,1.82,15.09,1.28,24.79,2.11,4.71.39.51,0,.44,0,6.22.53,6.84.58.79.07Z" transform="translate(-9 -39)"/><polygon class="cls-10" points="255.41 191.58 158.75 175.09 155 194.04 199.31 199.34 212.95 201.05 250.48 193.66 255.41 191.58"/><path class="cls-10" d="M214.37,239.1,262.8,230a1.68,1.68,0,0,1,2,1.33,1.66,1.66,0,0,1,0,.32h0a1.67,1.67,0,0,1-1.37,1.64l-47.29,8.86Z" transform="translate(-9 -39)"/><path class="cls-7" d="M235.38,210.48a12.61,12.61,0,0,0,4.39-1c1.68-.83,3-2.27,4.52-3.32a13.45,13.45,0,0,1,11.86-1.31,19.11,19.11,0,0,1,9.44,7.65c1.51,2.29,2.65,5.22,1.58,7.74a10.17,10.17,0,0,1-1.38,2.16L263,226a9.38,9.38,0,0,1-1.89,2,7.92,7.92,0,0,1-3.61,1.25c-3.4.5-6.85.22-10.27.44-5.87.4-11.61,2.29-17.5,2.22a51.66,51.66,0,0,1-10-1.4l-14.63-3c-2.55-.52-5.43-1.28-6.63-3.59a8.56,8.56,0,0,1-.7-3.41c-.17-3.22,0-6.81,2.23-9.13s5.42-2.87,7.93-4.48c3.07-2,4.08-1.34,7.32.15A40.25,40.25,0,0,0,235.38,210.48Z" transform="translate(-9 -39)"/><path class="cls-11" d="M235.38,210.48a12.61,12.61,0,0,0,4.39-1c1.68-.83,3-2.27,4.52-3.32a13.45,13.45,0,0,1,11.86-1.31,19.11,19.11,0,0,1,9.44,7.65c1.51,2.29,2.65,5.22,1.58,7.74a10.17,10.17,0,0,1-1.38,2.16L263,226a9.38,9.38,0,0,1-1.89,2,7.92,7.92,0,0,1-3.61,1.25c-3.4.5-6.85.22-10.27.44-5.87.4-11.61,2.29-17.5,2.22a51.66,51.66,0,0,1-10-1.4l-14.63-3c-2.55-.52-5.43-1.28-6.63-3.59a8.56,8.56,0,0,1-.7-3.41c-.17-3.22,0-6.81,2.23-9.13s5.42-2.87,7.93-4.48c3.07-2,4.08-1.34,7.32.15A40.25,40.25,0,0,0,235.38,210.48Z" transform="translate(-9 -39)"/><path class="cls-7" d="M294.14,205.89A86.66,86.66,0,0,1,281.61,210c-7.21,1.59-14.75,1.34-21.9,3.15-3.78,1-7.53,2.52-11.41,2.2a34.24,34.24,0,0,1-5.1-1.07c-9.49-2.34-20.27-1.58-28,4.44a35,35,0,0,0-6.75,7.35,4.91,4.91,0,0,0,1.17,6.85,5.5,5.5,0,0,0,.81.47,28.9,28.9,0,0,0,9.49,2.53,57,57,0,0,0,13.16-.86c6.48-.92,13-1.84,19.42-2.87,2.32-.37,4.64-.76,7-1.05,16.79-2.12,33.89.46,50.72-1.32a15.32,15.32,0,0,0,5-1.14c3.92-1.83,5.86-6.68,5.05-10.94s-3.93-7.8-7.69-10c-3.15-1.83-6.54-2.57-10.05-3.35C299.26,203.69,297.28,204.69,294.14,205.89Z" transform="translate(-9 -39)"/><path class="cls-12" d="M330.16,180.43c1.85,2.43,2.24,5.68,2,8.72s-.92,6-1,9.1c-.14,4.19.87,8.36.69,12.53a35.94,35.94,0,0,1-1.63,8.58c-1,3.31-2.36,6.86-5.41,8.45-4.05,2.11-12.55.92-16.81,2.57.38-2.41,4.1-5.91,4.49-8.33a15.45,15.45,0,0,0,.25-5.07,11.24,11.24,0,0,0-3.11-5.61,16.46,16.46,0,0,0-8.85-5c-3.39-.62-11.7-.11-14.41,2-.34-2.21,5.88-4.34,8.07-4.82,1.09-.25,2.34-.11,3.21-.8,1.67-1.31.46-3.92.54-6,.06-1.67,1-3.2,1.23-4.87.34-2.68-1.41-5.4-.72-8a20.2,20.2,0,0,1,1.21-2.74c1.19-2.83.67-6.05,0-9.05-.39-1.89-.78-4,.27-5.62s3.74,3.84,5.51,3.6c5.84-.82,11.12-5.15,15.84-1.61,2.4,1.81,2.72,3.68,3.68,6.26S328.6,178.4,330.16,180.43Z" transform="translate(-9 -39)"/><path class="cls-8" d="M331.16,180.43c1.85,2.43,2.25,5.68,2,8.72s-.93,6-1,9.1c-.15,4.19.86,8.36.69,12.53a35.94,35.94,0,0,1-1.63,8.58c-1,3.31-2.37,6.86-5.42,8.45-4.05,2.11-12.55.92-16.81,2.57.39-2.41,4.1-5.91,4.49-8.33a15.45,15.45,0,0,0,.25-5.07,11.24,11.24,0,0,0-3.11-5.61,16.39,16.39,0,0,0-8.85-5c-3.39-.62-11.7-.11-14.41,2-.34-2.21,5.88-4.34,8.07-4.82,1.09-.25,2.34-.11,3.21-.8,1.67-1.31.46-3.92.54-6,.06-1.67,1-3.2,1.24-4.87.33-2.68-1.41-5.4-.73-8a21.52,21.52,0,0,1,1.21-2.74c1.19-2.83.67-6.05,0-9.05-.4-1.89-.78-4,.27-5.62s2.87-2.07,4.64-2.32a22.88,22.88,0,0,1,16.71,4.31c2.41,1.81,2.72,3.68,3.68,6.26S329.6,178.4,331.16,180.43Z" transform="translate(-9 -39)"/><path class="cls-10" d="M110,164.59l18.18,67.18a4.2,4.2,0,0,0,3.64,3.08l81.81,7.86a4.2,4.2,0,0,0,4.48-5.18l-19.91-81a4.19,4.19,0,0,0-4.38-3.18l-80.1,6a4.19,4.19,0,0,0-3.85,4.51A4,4,0,0,0,110,164.59Z" transform="translate(-9 -39)"/><ellipse class="cls-13" cx="263.14" cy="129.59" rx="8.99" ry="9.11"/><path class="cls-13" d="M279.52,152s1.89,5.64-3.7,8l-.71,1.25,3.5,3.46s4.32-7.88,3.85-10.68C282.46,154,281.79,151.17,279.52,152Z" transform="translate(-9 -39)"/><circle class="cls-3" cx="264.17" cy="130.03" r="8.67"/><path class="cls-3" d="M282.5,155.29,281.13,153l-2-.28c.43-7.48-1.51-9.71-1.51-9.71l-.45-.05-2-.19-3.7-3.84v-1.09c5.2.62,8.07,3.09,9.62,6C283.85,148.91,282.5,155.29,282.5,155.29Z" transform="translate(-9 -39)"/><path class="cls-14" d="M277.17,141.59V143l-2-.19-3.7-3.84S277.23,140.22,277.17,141.59Z" transform="translate(-9 -39)"/><path class="cls-14" d="M282.5,155.29,281.13,153v-9.17C283.85,148.91,282.5,155.29,282.5,155.29Z" transform="translate(-9 -39)"/><ellipse class="cls-13" cx="252.74" cy="164.97" rx="4.82" ry="8.8" transform="translate(-57.62 109.47) rotate(-30)"/><path class="cls-3" d="M254.05,164.24c2.43,4.21,5.41,7,3.1,8.36s-9,.66-11.46-3.55-.22-10,2.09-11.36S251.61,160,254.05,164.24Z" transform="translate(-9 -39)"/><path class="cls-12" d="M275.68,133.92c0,13.45-9.2,26.41-22.65,26.41a24.36,24.36,0,0,1,0-48.71C266.48,111.63,275.68,120.46,275.68,133.92Z" transform="translate(-9 -39)"/><circle class="cls-7" cx="244.03" cy="96.32" r="24.35"/><path class="cls-15" d="M250.89,124.53c2.9,1.06,4.62,4.06,7.22,5.73,3.67,2.34,8.46,1.73,12.66.57,2.34-.63,4.79-1.41,7.09-.71a2,2,0,0,0,1.08.16c.5-.15.75-.7.91-1.19,2.85-8.5,1.57-18.11-2.73-26a16.67,16.67,0,0,0-4.27-5.39A17.71,17.71,0,0,0,268,95.28a48.05,48.05,0,0,0-9.66-2.39,6.1,6.1,0,0,0-1.76,0,7.29,7.29,0,0,0-2.25,1,22.94,22.94,0,0,1-10,2.71c-4.68.18-10-.93-13.64,2.08-4.34,3.6-3.26,10.62-6.08,15.51-1.86,3.23-5.46,5.58-6,9.26a8.52,8.52,0,0,0,.21,3.37,13.71,13.71,0,0,0,12.7,10.15,4.88,4.88,0,0,0,2.6-.53,6,6,0,0,0,1.36-1.3C239.28,130.5,243.66,121.86,250.89,124.53Z" transform="translate(-9 -39)"/><path class="cls-12" d="M279.85,126.62c-.16.5-.41,1-.91,1.19a2,2,0,0,1-1.08-.15c-2.3-.71-4.76.07-7.09.71-4.2,1.16-9,1.77-12.66-.58-2.6-1.67-4.32-4.68-7.22-5.73-7.23-2.67-11.61,6-15.45,10.51a5.59,5.59,0,0,1-1.36,1.3,4.79,4.79,0,0,1-2.6.53,13.73,13.73,0,0,1-12.7-10.15c-.08-.33-.14-.67-.19-1a.15.15,0,0,1,0,.09,8.47,8.47,0,0,0,.21,3.36,13.7,13.7,0,0,0,12.7,10.15,4.79,4.79,0,0,0,2.6-.53,5.59,5.59,0,0,0,1.36-1.3c3.84-4.53,8.22-13.17,15.45-10.51,2.9,1.07,4.62,4.06,7.22,5.73,3.68,2.34,8.46,1.74,12.66.58,2.34-.64,4.79-1.42,7.09-.71a2.1,2.1,0,0,0,1.08.16c.5-.15.75-.7.91-1.2a30.11,30.11,0,0,0,1.5-10.78A29.56,29.56,0,0,1,279.85,126.62Z" transform="translate(-9 -39)"/></svg>