<svg id="Layer_1" data-name="Layer 1" xmlns="http://www.w3.org/2000/svg" viewBox="0 0 334 218.3"><defs><style>.cls-1{fill:#e6e6e6;}.cls-2{fill:#3f3d56;}.cls-3{fill:#6c63ff;}.cls-4{fill:#fff;}.cls-5{fill:#ffb8b8;}.cls-6{fill:#2f2e41;}.cls-7{fill:#9f616a;}</style></defs><title>how-4</title><ellipse class="cls-1" cx="45.33" cy="212.85" rx="45.33" ry="5.27"/><ellipse class="cls-1" cx="288.67" cy="213.03" rx="45.33" ry="5.27"/><path class="cls-1" d="M312,158.42H82.34A2.43,2.43,0,0,1,79.91,156V43.77a2.44,2.44,0,0,1,2.43-2.43H312a2.45,2.45,0,0,1,2.43,2.43V156A2.43,2.43,0,0,1,312,158.42ZM82.34,42.32a1.47,1.47,0,0,0-1.46,1.45V156a1.47,1.47,0,0,0,1.46,1.46H312a1.45,1.45,0,0,0,1.45-1.46V43.77A1.45,1.45,0,0,0,312,42.32Z" transform="translate(-33 -41.34)"/><circle class="cls-2" cx="156.08" cy="44.99" r="3.77"/><circle class="cls-3" cx="156.08" cy="44.99" r="2.42"/><circle class="cls-2" cx="172.23" cy="44.99" r="3.77"/><circle class="cls-3" cx="172.23" cy="44.99" r="2.42"/><path class="cls-2" d="M188.65,86.6a7.25,7.25,0,0,0-7.24,6.57l-.75,7.73a6.59,6.59,0,0,0,5.93,7.21c.21,0,.43,0,.64,0h19.85a6.6,6.6,0,0,0,6.6-6.6c0-.21,0-.43,0-.64l-.75-7.73a7.27,7.27,0,0,0-7.25-6.57Z" transform="translate(-33 -41.34)"/><path class="cls-4" d="M199.17,97.53a3.51,3.51,0,0,1,4.91-.73,3.52,3.52,0,1,0-4.92.72Z" transform="translate(-33 -41.34)"/><path class="cls-4" d="M191,98.2a3.51,3.51,0,0,1,4.91-.72,3.52,3.52,0,1,0-4.92.72Z" transform="translate(-33 -41.34)"/><circle class="cls-2" cx="160.29" cy="53.35" r="1.3"/><circle class="cls-2" cx="168.68" cy="52.36" r="1.3"/><circle class="cls-3" cx="164.24" cy="57.91" r="1.35"/><path class="cls-4" d="M191.87,101.41a3,3,0,0,0,2.95,2.69h5.38a3,3,0,0,0,3-2.69Z" transform="translate(-33 -41.34)"/><path class="cls-1" d="M113.78,90.24a3.77,3.77,0,0,1-7.53,0h0c0-2.08,1.68-10.77,3.76-10.77S113.78,88.16,113.78,90.24Z" transform="translate(-33 -41.34)"/><path class="cls-4" d="M112.44,90.24a2.43,2.43,0,0,1-4.85,0c0-1.34,1.09-9.42,2.42-9.42S112.44,88.9,112.44,90.24Z" transform="translate(-33 -41.34)"/><path class="cls-1" d="M122.4,90.24a3.77,3.77,0,0,0,7.54,0h0c0-2.08-1.69-11.58-3.77-11.58S122.4,88.16,122.4,90.24Z" transform="translate(-33 -41.34)"/><path class="cls-4" d="M123.74,90.24a2.43,2.43,0,0,0,4.85,0c0-1.34-1.08-10.23-2.42-10.23S123.74,88.9,123.74,90.24Z" transform="translate(-33 -41.34)"/><path class="cls-1" d="M109.59,90.51a7.24,7.24,0,0,0-7.24,6.57l-.75,7.72a6.59,6.59,0,0,0,5.93,7.21,4.49,4.49,0,0,0,.64,0H128a6.61,6.61,0,0,0,6.61-6.61c0-.21,0-.43,0-.64l-.76-7.72a7.24,7.24,0,0,0-7.24-6.57Z" transform="translate(-33 -41.34)"/><path class="cls-4" d="M120.1,101.43a3.51,3.51,0,0,1,4.91-.73,3.52,3.52,0,1,0-4.92.72Z" transform="translate(-33 -41.34)"/><path class="cls-4" d="M111.9,102.11a3.51,3.51,0,0,1,4.91-.73,3.52,3.52,0,1,0-4.92.72Z" transform="translate(-33 -41.34)"/><circle class="cls-1" cx="81.22" cy="59.4" r="1.3"/><circle class="cls-1" cx="89.88" cy="58.69" r="1.3"/><circle class="cls-4" cx="85.17" cy="61.82" r="1.35"/><path class="cls-4" d="M121,104.14a1.7,1.7,0,0,1,1.44.11c.49.2,1,.43,1.48.59a5.8,5.8,0,0,0,3,.26,3.37,3.37,0,0,0,2.9-3.84c-.11-.5-.89-.29-.78.22a2.3,2.3,0,0,1-.73,2.09,3.39,3.39,0,0,1-2.37.81,6.9,6.9,0,0,1-2.75-.7,2.82,2.82,0,0,0-2.55-.23C120.12,103.69,120.53,104.38,121,104.14Z" transform="translate(-33 -41.34)"/><path class="cls-4" d="M115.87,103.45a2.78,2.78,0,0,0-2.49.2,7.05,7.05,0,0,1-2.81.73,3.44,3.44,0,0,1-2.34-.78,2.29,2.29,0,0,1-.76-2.12c.11-.51-.67-.73-.78-.22a3.37,3.37,0,0,0,2.9,3.84,5.85,5.85,0,0,0,3-.26c.5-.16,1-.39,1.47-.59a1.7,1.7,0,0,1,1.44-.11c.46.24.87-.45.41-.69Z" transform="translate(-33 -41.34)"/><ellipse class="cls-4" cx="85.49" cy="65.45" rx="2.15" ry="1.08"/><circle class="cls-2" cx="229.62" cy="48.26" r="7.6"/><circle class="cls-3" cx="229.62" cy="48.26" r="4.89"/><circle class="cls-2" cx="256.81" cy="48.26" r="7.6"/><circle class="cls-3" cx="256.81" cy="48.26" r="4.89"/><path class="cls-2" d="M267.85,87.18h-.35a7,7,0,0,0-6.34,8.75l.15.62c.55,2.19.93,4.41,1.3,6.64a6.59,6.59,0,0,0,6.51,5.52h14.46a6.59,6.59,0,0,0,6.56-5.86,46.64,46.64,0,0,1,1.17-6l.24-.95a7,7,0,0,0-6.35-8.75H267.85Z" transform="translate(-33 -41.34)"/><path class="cls-4" d="M278.36,98.1a3.52,3.52,0,0,1,4.92-.73,3.52,3.52,0,1,0-4.93.72Z" transform="translate(-33 -41.34)"/><path class="cls-4" d="M270.16,98.77a3.52,3.52,0,0,1,4.91-.72,3.52,3.52,0,1,0-4.92.72Z" transform="translate(-33 -41.34)"/><circle class="cls-2" cx="238.14" cy="53.92" r="1.3"/><circle class="cls-2" cx="246.53" cy="53.47" r="1.3"/><path class="cls-3" d="M277.78,99.83a1.35,1.35,0,0,1-2.69,0,1.32,1.32,0,0,1,.32-.87c.25-.29.53.6.94.6s.89-.88,1.14-.57A1.34,1.34,0,0,1,277.78,99.83Z" transform="translate(-33 -41.34)"/><path class="cls-4" d="M273.47,101.71h6.47a3.23,3.23,0,0,1-3.23,3.23h0a3.23,3.23,0,0,1-3.24-3.23Z" transform="translate(-33 -41.34)"/><ellipse class="cls-3" cx="242.41" cy="44.49" rx="1.75" ry="2.96"/><ellipse class="cls-3" cx="278.1" cy="86.37" rx="2.96" ry="1.75" transform="translate(14.85 223.3) rotate(-55)"/><path class="cls-1" d="M140.84,122.27H95.34a2.44,2.44,0,0,1-2.43-2.43v-49a2.44,2.44,0,0,1,2.43-2.43h45.5a2.43,2.43,0,0,1,2.43,2.43v49A2.43,2.43,0,0,1,140.84,122.27ZM95.34,69.41a1.45,1.45,0,0,0-1.45,1.46v49a1.46,1.46,0,0,0,1.45,1.46h45.5a1.46,1.46,0,0,0,1.45-1.46v-49a1.45,1.45,0,0,0-1.45-1.46Z" transform="translate(-33 -41.34)"/><path class="cls-1" d="M219.9,122.27H174.41a2.43,2.43,0,0,1-2.43-2.43v-49a2.43,2.43,0,0,1,2.43-2.43H219.9a2.43,2.43,0,0,1,2.43,2.43v49A2.43,2.43,0,0,1,219.9,122.27ZM174.41,69.41A1.46,1.46,0,0,0,173,70.87v49a1.46,1.46,0,0,0,1.46,1.46H219.9a1.46,1.46,0,0,0,1.46-1.46v-49a1.46,1.46,0,0,0-1.46-1.46Z" transform="translate(-33 -41.34)"/><path class="cls-1" d="M299,122.27H253.47a2.43,2.43,0,0,1-2.43-2.43v-49a2.43,2.43,0,0,1,2.43-2.43H299a2.43,2.43,0,0,1,2.43,2.43v49A2.43,2.43,0,0,1,299,122.27ZM253.47,69.41A1.46,1.46,0,0,0,252,70.87v49a1.47,1.47,0,0,0,1.46,1.46H299a1.46,1.46,0,0,0,1.46-1.46v-49A1.46,1.46,0,0,0,299,69.41Z" transform="translate(-33 -41.34)"/><path class="cls-2" d="M265,127.82a.35.35,0,0,0-.35.35V131a.35.35,0,0,0,.35.35h22.49a.35.35,0,0,0,.35-.35v-2.81a.34.34,0,0,0-.35-.35Z" transform="translate(-33 -41.34)"/><path class="cls-3" d="M185.91,127.82a.35.35,0,0,0-.35.35V131a.35.35,0,0,0,.35.35H208.4a.35.35,0,0,0,.35-.35v-2.81a.35.35,0,0,0-.35-.35Z" transform="translate(-33 -41.34)"/><path class="cls-1" d="M106.85,127.82a.35.35,0,0,0-.36.35V131a.36.36,0,0,0,.36.35h22.49a.35.35,0,0,0,.35-.35v-2.81a.35.35,0,0,0-.35-.35Z" transform="translate(-33 -41.34)"/><path class="cls-5" d="M95.2,174.08l-1.06,4.56s.35,10.54-2.46,9.49-2.11-10.19-2.11-10.19L92,173.37Z" transform="translate(-33 -41.34)"/><circle class="cls-5" cx="46.56" cy="75.63" r="7.03"/><path class="cls-5" d="M74.11,118.91l-.7,10.19,8.79,1.05s0-8.43.7-9.49S74.11,118.91,74.11,118.91Z" transform="translate(-33 -41.34)"/><path class="cls-1" d="M93.6,132.18l-11.39-4.81s-5.44-4.19-8.62-1.09l-1.43,2.05s-12.65,4.93-12.65,8.8l4.94,19.32s-2.8,10.89,1.42,11.59l22.84,2.09a7.89,7.89,0,0,0,.34-8.78l1-11.6Z" transform="translate(-33 -41.34)"/><path class="cls-1" d="M85.86,132.54l7.74-.36s2.46.7,4.22,7.37,2.12,17.57,2.12,17.57l-4.2,19.68-5.27-.7,2.09-19L89,144.48Z" transform="translate(-33 -41.34)"/><path class="cls-1" d="M63.73,134.66l-3.81,1.19s-3.21,4.79-3.21,7.25-1.39,21.09-1.39,21.09l9.15,15.1,2.81-7.38-5.64-9.49,4.56-11.6Z" transform="translate(-33 -41.34)"/><path class="cls-6" d="M89.75,169.33l-25.26-2.22S62,183,62.34,189.36s.7,16.16.7,16.16l-2.81,42.87,10.9-1.4,1.4-35.49,4.57-19.33,5.27,24.6,3.51,31.62,9.49-1L92.21,209S95,174.6,89.75,169.33Z" transform="translate(-33 -41.34)"/><path class="cls-6" d="M93.26,245.58l3.17,1.06s6.67-1.76,4.92,2.81-6.68,3.86-6.68,3.86-6,4.57-8.43,1.06l1.4-7.38Z" transform="translate(-33 -41.34)"/><path class="cls-6" d="M67.61,245.58l3.16,1.06s6.68-1.76,4.92,2.81S69,253.31,69,253.31s-6,4.57-8.44,1.06L62,247Z" transform="translate(-33 -41.34)"/><path class="cls-6" d="M74.11,123.12s-7.38-5.27-3.51-11.59c2.68-4.39,8.24-4,11.39-3.42a5.3,5.3,0,0,1,3.89,3.07c.53,1.23.53,2.46-1.58,2.46-4.21,0-2.1,3.16-2.1,3.16s-2.82.7-2.11,3.16S74.11,123.12,74.11,123.12Z" transform="translate(-33 -41.34)"/><path class="cls-6" d="M326.7,246.54s-7.79.6-7,3.4,7,2.4,7,2.4,4.8-.4,7.4.4,5.59,0,5.79-1.4-1.4-2.4-1.4-2.4l-1-2Z" transform="translate(-33 -41.34)"/><path class="cls-7" d="M306.22,184.1l-.8,3.2s-3.59,7.39.8,7.39,2.8-6.79,2.8-6.79l.4-3.2Z" transform="translate(-33 -41.34)"/><path class="cls-7" d="M344.79,181.5l.79,3.2s3.6,7.39-.79,7.39-2.8-6.79-2.8-6.79l-.4-3.2Z" transform="translate(-33 -41.34)"/><circle class="cls-7" cx="291.01" cy="77.22" r="8.59"/><path class="cls-7" d="M321.41,125.15s1,4.6.4,6.8,12.39-.4,12.39-.4-4.6-7.59-4.4-7.79Z" transform="translate(-33 -41.34)"/><path class="cls-1" d="M323.38,130.24s-3.59-1-4.79.21-8.19,4.6-8.19,4.6l4.82,29.37L336,159.8,339.57,132s-5.67-3.32-6.63-2.66S323.38,130.24,323.38,130.24Z" transform="translate(-33 -41.34)"/><path class="cls-1" d="M312,135.25l-1-.52s-3.64.72-3.43,3.52,1,18.38,1,18.38l-3.17,28.18,5.79,1L317,162.22Z" transform="translate(-33 -41.34)"/><path class="cls-1" d="M339,132.63l1-.52s3.64.71,3.44,3.51-1,18.38-1,18.38l3.22,28.17-5.8,1L334,159.61Z" transform="translate(-33 -41.34)"/><path class="cls-6" d="M315.41,161.52l-.8,12.19L312,198.09l3.79,50.55L329,249l-4-48.16,4-16.58,13.06-.48s.93-19.1-6.47-25.1Z" transform="translate(-33 -41.34)"/><polygon class="cls-6" points="296.8 140.16 294.7 184.22 294 206.5 305.79 207.69 308.77 142.18 304.19 137.56 296.8 140.16"/><path class="cls-6" d="M327.8,107.17s-7.79-1-10,2.8c0,0-.6,2.8-2.6,3.8s.4,4.39,1,5.39,2.2,6.79.4,8.19,3.2,5.4,3.2,5.4,2.4,3.19.4,5.59,2.6,3.2,2.6,3.2-1,6.79.8,5c0,0,.79,15.39,8.39,5.8s10.79-14.19,7.59-18a5.9,5.9,0,0,1-.8-7.2s1-2-1.2-5S335.39,107.17,327.8,107.17Z" transform="translate(-33 -41.34)"/><path class="cls-6" d="M316.51,247.74s-7.79.6-7,3.4,7,2.39,7,2.39,4.8-.4,7.4.4,5.59,0,5.79-1.39-1.4-2.4-1.4-2.4l-1-2Z" transform="translate(-33 -41.34)"/><polygon class="cls-3" points="195.1 42.06 183.69 35.19 187.02 48.08 189.03 43.38 192.38 47.88 193.37 47.13 190.02 42.64 195.1 42.06"/><polygon class="cls-2" points="210.52 42.06 221.93 35.19 218.6 48.08 216.59 43.38 213.24 47.88 212.25 47.13 215.6 42.64 210.52 42.06"/></svg>