<svg id="Layer_1" data-name="Layer 1" xmlns="http://www.w3.org/2000/svg" xmlns:xlink="http://www.w3.org/1999/xlink" viewBox="0 0 365.01 277.33"><defs><style>.cls-1{opacity:0.9;}.cls-2,.cls-7{fill:#6c63ff;}.cls-10,.cls-15,.cls-2,.cls-4{opacity:0.1;}.cls-10,.cls-2,.cls-23,.cls-4,.cls-9{isolation:isolate;}.cls-3{fill:#3f3d56;}.cls-5{fill:#fbbebe;}.cls-6{fill:#65617d;}.cls-8{fill:#b2b1bb;}.cls-14,.cls-9{opacity:0.2;}.cls-10{fill:#ccc;}.cls-11{fill:#464353;}.cls-12{fill:#333f4f;}.cls-13{fill:#2d394a;stroke:#40868e;stroke-miterlimit:10;}.cls-16{fill:url(#linear-gradient);}.cls-17{fill:#a1616a;}.cls-18{fill:#ff748e;}.cls-19{fill:#5e5a6b;}.cls-20{fill:#9f9eff;}.cls-21{fill:url(#linear-gradient-2);}.cls-22{fill:#514e7f;}.cls-23{opacity:0.15;}.cls-24{fill:#945b79;}.cls-25{fill:#ffc1c7;}.cls-26{fill:#ff6584;}</style><linearGradient id="linear-gradient" x1="731.32" y1="127.71" x2="731.32" y2="264.43" gradientTransform="translate(814.72 277.9) rotate(180)" gradientUnits="userSpaceOnUse"><stop offset="0" stop-color="gray" stop-opacity="0.25"/><stop offset="0.54" stop-color="gray" stop-opacity="0.12"/><stop offset="1" stop-color="gray" stop-opacity="0.1"/></linearGradient><linearGradient id="linear-gradient-2" x1="198.23" y1="-12.85" x2="198.23" y2="168.3" gradientTransform="matrix(1, 0, 0, -1, -39.48, 277.9)" xlink:href="#linear-gradient"/></defs><title>what-4</title><g class="cls-1"><path class="cls-2" d="M375.58,144.59v.06a1.35,1.35,0,0,1,0,.28c-.12.77-.26,1.54-.43,2.31a44.79,44.79,0,0,1-6.81,15.22l-.38.54c-.25.36-.5.7-.76,1.05s-.35.48-.54.72a50.33,50.33,0,0,1-4.08,4.67c-.8.81-1.63,1.58-2.45,2.32l-.37.33c-.45.39-.9.77-1.37,1.13l-.6.48-.35.27-.25.19-.69.5-.16.11c-.54.39-1.09.77-1.65,1.13A39.18,39.18,0,0,1,351,178c-.59.3-1.17.58-1.76.84s-1.44.61-2.17.88l-.59.21q-.84.28-1.68.54l-.29.08-.14,0h0l-.35.09a43.81,43.81,0,0,1-5.09,1.07l-.28,0-.14,0c-2.18.33-4.35.49-6.52.6a83.13,83.13,0,0,1-8.93,0l-.82-.06h-.14c-.57,0-1.13-.09-1.69-.15l-1-.11-1.48-.2h0l-.47-.08c-.43-.06-.85-.14-1.27-.22l-.43-.08-.65-.13-.13,0a41.48,41.48,0,0,1-4-1.07l-.3-.1c-.95-.31-1.88-.67-2.8-1.06-.68-.29-1.34-.6-2-.93-.94-.48-1.85-1-2.74-1.53-1.24-.77-2.45-1.59-3.61-2.47-1.54-1.14-3-2.37-4.45-3.65l-.29-.26-.54-.49a88,88,0,0,1-18.28-23.23q-.74-1.4-1.44-2.82l-.42-.89,0-.07-.22-.45c-.58-1.27-1.14-2.56-1.66-3.87l-.23-.59-.37-1-.14-.4c-.45-1.22-.87-2.45-1.26-3.7-.07-.21-.13-.42-.2-.65-.21-.67-.4-1.36-.59-2s-.32-1.27-.49-1.92a2.82,2.82,0,0,1-.07-.31,39.07,39.07,0,0,1-.54-17.46q.14-.61.3-1.23a17.91,17.91,0,0,1,.54-1.82c0-.15.09-.29.14-.43l.06-.16a.25.25,0,0,1,0-.11.64.64,0,0,0,0-.07c.11-.3.23-.59.35-.9s.25-.6.39-.9h0l0,0a.31.31,0,0,1,.05-.12c.11-.23.22-.46.32-.69l.12-.24,0-.11.2-.37A29,29,0,0,1,274,98.47a25.28,25.28,0,0,1,2.15-2.36,23.33,23.33,0,0,1,3.77-3l.63-.38a15.43,15.43,0,0,1,5.65-2,19.25,19.25,0,0,1,7.37.62l.24,0,1.19.3c1.38.35,2.76.71,4.16,1s2.61.54,3.95.71a28,28,0,0,0,4.09.23c.2,0,.41,0,.61,0A22.21,22.21,0,0,0,315.15,92a14.12,14.12,0,0,0,4.77-3.15,9.9,9.9,0,0,0,.73-.85h0a9.5,9.5,0,0,0,1-1.62c.09-.18.18-.35.26-.52h0l.1-.19h0l.5-1h0s0-.07.05-.1c.24-.47.48-.93.73-1.37A26.25,26.25,0,0,1,326.86,78h0a14.63,14.63,0,0,1,5.22-3.76c.33-.14.66-.27,1-.4a14.78,14.78,0,0,1,4.71-.84h.56a16.7,16.7,0,0,1,4.7.83h0a24.11,24.11,0,0,1,6.45,3.34,43.76,43.76,0,0,1,8.08,7.42c.19.22.38.45.56.68a55.8,55.8,0,0,1,5.4,8c4.71,8.34,7.8,18.11,10,28.06l.11.47c.05.24.11.47.15.7.11.49.21,1,.31,1.45s.15.71.22,1.06h0c.05.26.11.52.16.78l.09.48a78.66,78.66,0,0,1,1.18,8.06,1.51,1.51,0,0,0,0,.3A44,44,0,0,1,375.58,144.59Z" transform="translate(-10.99 -13.47)"/><path class="cls-3" d="M351.85,171c-.36-.09-1,.33-1.77,1-.38.33-.81.74-1.27,1.18l-.22.21-.1.09c-.61.59-1.28,1.24-2,1.9-.44.41-.9.82-1.37,1.23s-1,2-1.15,4a43.78,43.78,0,0,1-5.09,1.06l-.28,0-.15,0c-.1-.61-.17-1-.17-1s-2.93-2.44-2.08-5.49c.49-1.76,5.3-5,9.31-7.52l1.43-.86.3-.18.54-.33,1.33-.78,1.84-1,.09-.06S352.77,171.28,351.85,171Z" transform="translate(-10.99 -13.47)"/><path class="cls-4" d="M351.85,171c-.36-.09-1,.33-1.77,1-.38.33-.81.74-1.27,1.18l-.22.21-.1.09c-.61.59-1.28,1.24-2,1.9-.44.41-.9.82-1.37,1.23s-1,2-1.15,4a43.78,43.78,0,0,1-5.09,1.06l-.28,0-.15,0c-.1-.61-.17-1-.17-1s-2.93-2.44-2.08-5.49c.49-1.76,5.3-5,9.31-7.52l1.43-.86.3-.18.54-.33,1.33-.78,1.84-1,.09-.06S352.77,171.28,351.85,171Z" transform="translate(-10.99 -13.47)"/><path class="cls-3" d="M351.15,167.37,349.62,169c-.39.41-.85.88-1.33,1.4l-.05,0-.25.26-1.85,2c-3.33,3.56-7.09,7.73-7.09,8.39a2.27,2.27,0,0,1-.16.73l-.28,0-.15,0c-2.18.33-4.35.49-6.51.6a83.31,83.31,0,0,1-8.94,0l-.81-.06h-.15q-.84-.06-1.68-.15l-1-.11,1.18-1.67c.8-1.15,1.59-2.33,2.25-3.41l.11-.18a20.43,20.43,0,0,0,1-1.8,4.63,4.63,0,0,0,.53-1.5,8.55,8.55,0,0,1,.58-1.86c1.44-3.65,5.19-11.08,7.29-15.17l.19-.37.18-.35c.68-1.3,1.11-2.14,1.11-2.14l5.13-1.38.32-.09,1.14-.3.43-.12,2.43-.65h0l.09,0,2.55-.69.85-.23,1-.25,2.48,4.21.72,10.53Z" transform="translate(-10.99 -13.47)"/><path class="cls-4" d="M316.17,181.57c-1-1.3-1.59-2.1-1.59-2.1s1.42-.35,3.28-.87c.95-.27,2-.58,3.05-.92.65-.22,1.3-.45,1.92-.68l.92-.36c1.34-.57,2.36-1.15,2.56-1.66a1.09,1.09,0,0,0-.05-.62,17.2,17.2,0,0,0-1.2-2.71c-.17-.33-.36-.68-.56-1.05-.65-1.19-1.43-2.55-2.28-4-.71-1.2-1.48-2.46-2.25-3.71s-1.38-2.22-2.06-3.29l-.06-.1c-3.11-4.91-5.89-9.12-6-9.28h0L310,154.63l-.08.07-3,2.68-.07.07-3.09,2.75-2.39,2.15-3,2.71a23.25,23.25,0,0,0-2,1.95,21,21,0,0,0-1.31,3.52c1.44,1.28,2.91,2.51,4.45,3.66,1.16.87,2.37,1.69,3.61,2.45.89.55,1.81,1.06,2.74,1.54.65.32,1.32.64,2,.93.92.39,1.85.74,2.8,1.06l.3.1a40.73,40.73,0,0,0,4,1.07l.13,0,.65.14Z" transform="translate(-10.99 -13.47)"/><path class="cls-3" d="M341.16,150.69l-.29.45c-.12.19-.27.43-.46.71s-.44.7-.72,1.12l-.2.33c-.48.73-1,1.6-1.63,2.55l-.22.35-.24.36c-3.9,6.12-9.68,15.19-11.13,17.81-.12.2-.23.41-.33.62-.18.46-1,1-2.17,1.48l-.82.35c-.63.25-1.32.5-2,.74-1,.34-2.08.65-3,.94-2,.59-3.66,1-3.66,1s.56.76,1.52,2l-.65-.13-.13,0c-1.37-.3-2.7-.65-4-1.07l-.3-.1c-.95-.32-1.89-.67-2.8-1.06-.68-.29-1.35-.61-2-.94-.93-.47-1.85-1-2.74-1.53-1.24-.76-2.45-1.58-3.61-2.46-1.53-1.14-3-2.37-4.44-3.65l-.3-.27A23.59,23.59,0,0,1,296,167a26.7,26.7,0,0,1,2.35-2.25c.86-.79,1.9-1.73,3-2.71l2.4-2.15,2.82-2.52.08-.07,2.93-2.6.07-.07,1.84-4.4h.37l6.66.11h1.05l2.09,0,2.49,0,2.89.05,11.35.17h.37l2.15,0Z" transform="translate(-10.99 -13.47)"/><path class="cls-5" d="M341.34,105.33l-1.1,10s-11.27,4.49-11.55,4.4-7.51-6.6-6.32-10.91a39.05,39.05,0,0,0,1-7.6c.12-2.45.1-4.31.1-4.31s16.41-5.87,14.94-1.84a7.7,7.7,0,0,0,.23,4.86A22.67,22.67,0,0,0,341.34,105.33Z" transform="translate(-10.99 -13.47)"/><path class="cls-4" d="M338.64,99.92q-.15.18-.3.33a11,11,0,0,1-15,1c.12-2.43.1-4.31.1-4.31S339.87,91,338.4,95.05A7.8,7.8,0,0,0,338.64,99.92Z" transform="translate(-10.99 -13.47)"/><path class="cls-5" d="M341.34,92.35a10.93,10.93,0,1,1,0-.14Z" transform="translate(-10.99 -13.47)"/><path class="cls-4" d="M327.78,115.7s-4.31-9.54-5.78-9.54-3.75,49.37-3.75,49.37l22.46.36.92-25.93-4.58-23S332.91,116.05,327.78,115.7Z" transform="translate(-10.99 -13.47)"/><path class="cls-4" d="M327.78,116.43s-4.31-9.54-5.78-9.54-3.75,49.38-3.75,49.38l25.47.38-2.1-26-4.59-23S332.91,116.79,327.78,116.43Z" transform="translate(-10.99 -13.47)"/><path class="cls-6" d="M327.78,116.07s-4.31-9.55-5.78-9.55-3.75,49.38-3.75,49.38l25.47.38-2.1-26-4.59-23S332.91,116.42,327.78,116.07Z" transform="translate(-10.99 -13.47)"/><path class="cls-4" d="M323.6,103.52a1.78,1.78,0,0,0-1.87-.75c-1.1.36-1.92-.66-3,.36s-5.5,2.38-6.33,1.93-3.75,1.55-4.4,2.75-2.75,4.4-2.75,4.4-1.83,2.19-1.55,3.38a3.12,3.12,0,0,1-1.75,3.12c-1.09.55-3.29,6.05-3.29,6.05s.59,7.35-1.89,8.63-.65,6.88-.65,6.88l11.69-2.77L311.1,130s-1.28,22-2.84,24a8,8,0,0,0-1.74,3.3s6,1.28,7.33,2.38,4.67-.27,4.67-.27l3.3-29.24a55.14,55.14,0,0,0,1.19-8.34C323,119,323.6,103.52,323.6,103.52Z" transform="translate(-10.99 -13.47)"/><path class="cls-7" d="M323.23,103.52a1.78,1.78,0,0,0-1.87-.75c-1.1.36-1.92-.66-3,.36s-5.5,2.38-6.33,1.93-3.75,1.55-4.39,2.75-2.75,4.4-2.75,4.4-1.84,2.19-1.56,3.38a3.11,3.11,0,0,1-1.74,3.12c-1.09.55-3.3,6.05-3.3,6.05s.59,7.35-1.88,8.63a2.61,2.61,0,0,0-1.15,1.93,5.76,5.76,0,0,0,5.9,6.76l6.29-2.6,3.3-9.49s-1.28,22-2.84,24a8.14,8.14,0,0,0-1.74,3.29s6.05,1.29,7.34,2.38,4.67-.27,4.67-.27l3.3-29.24a55.16,55.16,0,0,0,1.19-8.33C322.65,119,323.23,103.52,323.23,103.52Z" transform="translate(-10.99 -13.47)"/><path class="cls-4" d="M303,119.44s1.11,3,4.13,2.75S303,119.44,303,119.44Z" transform="translate(-10.99 -13.47)"/><path class="cls-4" d="M306,114.86a4,4,0,0,1,2.75,2.11C309.45,118.71,306,114.86,306,114.86Z" transform="translate(-10.99 -13.47)"/><path class="cls-4" d="M311.65,111.76c0,.36,1.28,6.78,0,9.44a13.32,13.32,0,0,0-1.1,5.77Z" transform="translate(-10.99 -13.47)"/><path class="cls-4" d="M338.71,101.32s.72-.85,1.46-.75a10.14,10.14,0,0,1,2.11.91c.91.37,3.11.46,3.11.74s1.93,1.37,3.21,1.64,5.31,3,6.32,8.35,2.75,6.87,2.75,6.87L348,123.84s7.51,31.89,8.43,34.19,1,15.85,1,15.85-6,2.66-7.52,3.49-.92-7.89-4.12-12.93-6.88-12.37-6.88-12.37l-5.59-15.67s-3.58-20.89-.55-24.75S339,102.69,338.71,101.32Z" transform="translate(-10.99 -13.47)"/><path class="cls-7" d="M357.74,173.69v.19l-.35.16-.25.11-2.49,1.13c-1.37.62-2.87,1.3-3.82,1.78-.24.11-.44.22-.6.3a.32.32,0,0,1-.37,0c-.49-.32-.71-2-1.06-4.13-.14-.89-.3-1.87-.52-2.87,0-.16-.07-.33-.1-.47a24.44,24.44,0,0,0-.93-3.13,13.18,13.18,0,0,0-1.15-2.32c-.42-.65-.85-1.36-1.27-2.08-1.15-1.92-2.28-4-3.23-5.74l-.2-.37c-.24-.45-.47-.87-.67-1.27-.43-.82-.79-1.51-1-2l-.42-.81a.36.36,0,0,0,0-.09l-.5-1.41-1-2.73-1.14-3.19-.53-1.5-.39-1.09-.13-.35-1.92-5.4s-.14-.79-.33-2.08a117.77,117.77,0,0,1-1.43-15.73,29,29,0,0,1,.22-4c0-.14,0-.28.07-.42s.05-.3.08-.44a5.32,5.32,0,0,1,.84-2.13c3-3.84,6.25-9,6-10.33l.06-.07a3.23,3.23,0,0,1,.45-.38,1.84,1.84,0,0,1,.65-.3h.29a10.82,10.82,0,0,1,2.11.92c.91.37,3.11.46,3.11.74s1.93,1.37,3.21,1.65,5.32,3,6.32,8.33c1,5.13,2.63,6.76,2.75,6.87h0l-.36.18L352.13,122l-1.18.57-2.66,1.31L350,131a.85.85,0,0,0,0,.17c0,.13.06.26.1.38.72,3.06,1.6,6.71,2.47,10.31h0l.07.32.26,1,.24,1,.12.52c.24,1,.49,2,.72,2.93l1,4c.84,3.38,1.5,5.85,1.73,6.43a27.79,27.79,0,0,1,.71,5.86C357.68,168,357.73,172.7,357.74,173.69Z" transform="translate(-10.99 -13.47)"/><path class="cls-4" d="M358.94,141.44l-1,.12c-2.93.27-8.7.33-8.7.33s-4.3-8.53-8-8.25c0,0,3.39-3.85,4.77-3.39.22.07.37-.09.44-.42.36-1.63-.9-7.28-.9-7.28l-1.74-7.61,10.09,2.48a26.71,26.71,0,0,1,3.76,1.65s.09,3.94.82,4.85,1.56,5.32,1.47,6.42,1,6.23-.09,7.61S361.23,141.06,358.94,141.44Z" transform="translate(-10.99 -13.47)"/><path class="cls-7" d="M359.3,141.44l-1,.12c-2.93.27-8.7.33-8.7.33s-4.31-8.53-8-8.25c0,0,3.39-3.85,4.76-3.39.23.07.38-.09.44-.42.37-1.63-.9-7.28-.9-7.28l-1.74-7.61,10.1,2.48a27,27,0,0,1,3.75,1.65s.1,3.94.83,4.85,1.55,5.32,1.46,6.42,1,6.23-.09,7.61S361.59,141.06,359.3,141.44Z" transform="translate(-10.99 -13.47)"/><path class="cls-4" d="M349,121.46s8.43.92,8.79,3S349,121.46,349,121.46Z" transform="translate(-10.99 -13.47)"/><path class="cls-4" d="M341.34,92.35a10.89,10.89,0,0,1-3,7.54.05.05,0,0,1,0,0,4.62,4.62,0,0,1-.61-2.18,18.57,18.57,0,0,1,.73-2.67,6.92,6.92,0,0,0-.53-3.43c-.27-.81-.8-1.8-1.65-1.7a2.07,2.07,0,0,1-.5.06c-.46-.07-.55-.65-.6-1.12A5.07,5.07,0,0,0,331,84.45a1.29,1.29,0,0,0-.73,0c-.33.14-.49.49-.77.68-.94.66-2.12-.59-3.26-.49-1,.08-1.55,1.06-1.95,2s-.9,1.88-1.84,2.09a.56.56,0,0,1-.44,0c-.3-.22-.09-.65.06-1a2,2,0,0,0-.35-2.19,11,11,0,0,1,19.59,6.87Z" transform="translate(-10.99 -13.47)"/><path class="cls-8" d="M305.84,178.18c-.93-.48-1.85-1-2.74-1.54-1.24-.76-2.45-1.58-3.61-2.46l-1.12-9.11,0-.3-2.13-17.35-.13-1,3.54-.1,2.51-.08.17,1.48,1.43,12.22,0,.29Z" transform="translate(-10.99 -13.47)"/><path class="cls-4" d="M303.1,176.64c-1.24-.76-2.45-1.59-3.61-2.46l-1.12-9.12,0-.3-2.13-17.35-.13-1,3.54-.11-.15.57.09.71,1.77,14.49,0,.3Z" transform="translate(-10.99 -13.47)"/><path class="cls-8" d="M327.5,146.57l-.19,1.55-.3,2.36-.65,5.18,0,.36-.05.37-1.78,14.21-.55,4.42-.18,1.45,0,.17-.71,5.77-.82-.06h-.14c-.57,0-1.13-.09-1.69-.15l-1-.11-1.48-.2h0l-.47-.07.45-3.22v-.11L320,162.91l.88-6.6.05-.37.05-.36.69-5.19.3-2.17.17-1.28.21,0Z" transform="translate(-10.99 -13.47)"/><path class="cls-9" d="M324.48,147.4l-.09.77-.27,2.26-.61,5.19,0,.36-.06.38-1.21,10.27-1.3,10.93v.13l-.33,2.73-.21,1.78-1-.11-1.48-.2h0l-.48-.08.47-3.21v-.11L320,162.91l.88-6.6.05-.37.05-.36.69-5.19.3-2.17.17-1.28.21,0Z" transform="translate(-10.99 -13.47)"/><path class="cls-6" d="M350.83,177.06l.14.95c-.59.3-1.17.57-1.76.83s-1.44.62-2.17.88l-.54-4.29-.36-2.8-.62-4.83-.59-4.66-.1-.78-1.44-11.31-.26-2-.07-.65-.08-.59-.17-1.35h.12l2.47-.27.8-.08.25,1.65.35,2.36,2.32,15.53.5,3.31.46,3.09.72,4.83Z" transform="translate(-10.99 -13.47)"/><path class="cls-10" d="M350.83,177.06l.14.95c-.59.3-1.17.57-1.76.83s-1.44.62-2.17.88l-.54-4.29-.36-2.8-.62-4.83-.59-4.66-.1-.78-1.44-11.31-.26-2-.07-.65-.08-.59-.17-1.35h.12l2.47-.27.8-.08.25,1.65.35,2.36,2.32,15.53.5,3.31.46,3.09.72,4.83Z" transform="translate(-10.99 -13.47)"/><path class="cls-8" d="M351,178c-.59.3-1.17.57-1.76.83l-.37-3.23-.25-2.17-.35-3-.06-.52-.39-3.45L346,150.36l-.3-2.58-.09-.84-.16-.75.8-.08.25,1.66.35,2.36,2.32,15.53.5,3.3.46,3.09.72,4.84,0,.17Z" transform="translate(-10.99 -13.47)"/><path class="cls-6" d="M358.75,146.29l0,1.25-.39,25.68-.6.47v.19l-.35.16-.25.11c-.23.17-.46.32-.69.5l-.16.12c-.54.39-1.09.76-1.65,1.12v-.78L355,153l0-1.36.06-4,0-1.77,2.47.31Z" transform="translate(-10.99 -13.47)"/><path class="cls-10" d="M358.75,146.29l0,1.25-.39,25.68-.6.47v.19l-.35.16-.25.11c-.23.17-.46.32-.69.5l-.16.12c-.54.39-1.09.76-1.65,1.12v-.78L355,153l0-1.36.06-4,0-1.77,2.47.31Z" transform="translate(-10.99 -13.47)"/><path class="cls-8" d="M358.75,146.29l0,1.25-.39,25.68-.6.47v.19l-.35.16V174l.05-10.09.1-16.32v-1.41Z" transform="translate(-10.99 -13.47)"/><path class="cls-6" d="M375.58,144.64v0a1.37,1.37,0,0,1-.05.28c-.12.77-.26,1.54-.43,2.32l-16.36.29-1.19,0-2.49,0-1,0h-.37l-7.2.14h-.79l-2.61.05H343l-2,0-3.23.06h-.36l-10.1.19-2.93,0-2.46.05-2.14,0H318.6l-1.63,0-7.41-.32-.37,0-6.89-.29-2.74-.12-3.35-.15L276,146.49q-.75-1.38-1.44-2.82c-.15-.29-.29-.58-.43-.88l20.63-.32h0l12.69-.2h0l2.4,0h.37l6.51-.1,2.23.13h0l1.12.06.37,0,4.45.25h0l10.81.59.37,0,5.06.28,1.52.09h0l10.09.55.37,0h.08Z" transform="translate(-10.99 -13.47)"/><path class="cls-8" d="M375.58,144.64v0a1.37,1.37,0,0,1-.05.28c-.12.77-.26,1.54-.43,2.32l-16.36.29-1.19,0-2.49,0-1,0h-.37l-7.2.14h-.79l-2.61.05H343l-2,0-3.23.06h-.36l-10.1.19-2.93,0-2.46.05-2.14,0H318.6l-1.63,0-7.41-.32h-.37l-6.89-.3-2.75-.12-3.35-.14-20.26-.88c-.49-.93-1-1.86-1.44-2.82l-.42-.88,20.62-.33h0l12.7-.19h0l2.4,0h.37l6.51-.1,2.23.12h0l1.12.07.37,0,4.45.24h0l10.81.6.37,0,5.05.28,1.53.08h0l10.1.56.37,0h.08Z" transform="translate(-10.99 -13.47)"/><path class="cls-4" d="M375.58,144.64v0l-22.28.06h-.36l-10.15,0h-6.53l-16.08,0h-1.39l-8.88,0h-.36l-9.26,0-25.79-1.12c-.15-.29-.29-.58-.43-.88l20.63-.33h0l12.69-.19h0l2.4,0h.37l6.51-.1,2.23.13H319l1.12.06.36,0,4.45.25h0l10.81.59.37,0,5.06.28,1.52.09h0l10.09.55.37,0h.08Z" transform="translate(-10.99 -13.47)"/><path class="cls-4" d="M354,129.71c.55.18,3.75,1,4.4,2.93S354,129.71,354,129.71Z" transform="translate(-10.99 -13.47)"/><path class="cls-5" d="M344.53,132.92a35.22,35.22,0,0,1-6.78,1.42c-2.11,0-10.36-.05-10.36-.05s-21.54-7.19-15.07,2.66S329,141.3,329,141.3l1.84.42c1,.23,20.48,0,21.12-.74S344.53,132.92,344.53,132.92Z" transform="translate(-10.99 -13.47)"/><path class="cls-4" d="M357.92,141.56c-2.93.27-8.69.33-8.69.33s-4.31-8.53-8-8.25c0,0,3.39-3.85,4.77-3.39.23.07.37-.09.44-.42,3.58,1.09,10.42,3.78,11.11,8.48C357.74,139.58,357.86,140.65,357.92,141.56Z" transform="translate(-10.99 -13.47)"/><path class="cls-11" d="M358.29,141.56c-2.93.27-8.7.33-8.7.33s-4.31-8.53-8-8.25c0,0,3.39-3.85,4.76-3.39.23.07.38-.09.44-.42,3.59,1.09,10.42,3.78,11.11,8.48C358.11,139.58,358.22,140.65,358.29,141.56Z" transform="translate(-10.99 -13.47)"/><path class="cls-4" d="M357.92,141.56c-2.93.27-8.69.33-8.69.33s-4.31-8.53-8-8.25c0,0,3.39-3.85,4.77-3.39.23.07.37-.09.44-.42,3.58,1.09,10.42,3.78,11.11,8.48C357.74,139.59,357.86,140.66,357.92,141.56Z" transform="translate(-10.99 -13.47)"/><path class="cls-4" d="M332.54,166.09s8.25-2,9.53-.92S332.54,166.09,332.54,166.09Z" transform="translate(-10.99 -13.47)"/><path class="cls-4" d="M308.9,174s3.48,2,3.85,3.67S308.9,174,308.9,174Z" transform="translate(-10.99 -13.47)"/><path class="cls-12" d="M294.16,105.57v36.11c0,.63.32.71.87,1a12.09,12.09,0,0,0,11.77,0c.56-.29.9-.39.9-1V105.79S300.81,108.57,294.16,105.57Z" transform="translate(-10.99 -13.47)"/><ellipse class="cls-13" cx="289.93" cy="92.07" rx="6.77" ry="1.44"/><g class="cls-14"><circle cx="283.78" cy="107.09" r="0.15"/><circle cx="284.55" cy="107.31" r="0.15"/><circle cx="285.5" cy="107.61" r="0.15"/><circle cx="287.21" cy="107.98" r="0.15"/><circle cx="289.01" cy="108.19" r="0.15"/><circle cx="290.88" cy="108.28" r="0.15"/><circle cx="293.55" cy="107.91" r="0.15"/><circle cx="292.67" cy="108.13" r="0.15"/><circle cx="295.21" cy="107.61" r="0.15"/><circle cx="294.41" cy="107.76" r="0.15"/><circle cx="296.09" cy="107.31" r="0.15"/><circle cx="286.37" cy="107.83" r="0.15"/><circle cx="288.14" cy="108.13" r="0.15"/><circle cx="290.05" cy="108.28" r="0.15"/><circle cx="291.79" cy="108.28" r="0.15"/></g><g class="cls-14"><circle cx="283.78" cy="107.84" r="0.15"/><circle cx="284.55" cy="108.05" r="0.15"/><circle cx="285.5" cy="108.36" r="0.15"/><circle cx="287.21" cy="108.72" r="0.15"/><circle cx="289.01" cy="108.94" r="0.15"/><circle cx="290.88" cy="109.03" r="0.15"/><circle cx="293.55" cy="108.66" r="0.15"/><circle cx="292.67" cy="108.88" r="0.15"/><circle cx="295.21" cy="108.36" r="0.15"/><circle cx="294.41" cy="108.51" r="0.15"/><circle cx="296.09" cy="108.05" r="0.15"/><circle cx="286.37" cy="108.57" r="0.15"/><circle cx="288.14" cy="108.88" r="0.15"/><circle cx="290.05" cy="109.03" r="0.15"/><circle cx="291.79" cy="109.03" r="0.15"/></g><g class="cls-14"><circle cx="283.78" cy="108.58" r="0.15"/><circle cx="284.55" cy="108.8" r="0.15"/><circle cx="285.5" cy="109.11" r="0.15"/><circle cx="287.21" cy="109.47" r="0.15"/><circle cx="289.01" cy="109.69" r="0.15"/><circle cx="290.88" cy="109.78" r="0.15"/><circle cx="293.55" cy="109.41" r="0.15"/><circle cx="292.67" cy="109.62" r="0.15"/><circle cx="295.21" cy="109.11" r="0.15"/><circle cx="294.41" cy="109.26" r="0.15"/><circle cx="296.09" cy="108.8" r="0.15"/><circle cx="286.37" cy="109.32" r="0.15"/><circle cx="288.14" cy="109.62" r="0.15"/><circle cx="290.05" cy="109.78" r="0.15"/><circle cx="291.79" cy="109.78" r="0.15"/></g><g class="cls-14"><circle cx="283.78" cy="109.33" r="0.15"/><circle cx="284.55" cy="109.55" r="0.15"/><circle cx="285.5" cy="109.85" r="0.15"/><circle cx="287.21" cy="110.22" r="0.15"/><circle cx="289.01" cy="110.44" r="0.15"/><circle cx="290.88" cy="110.52" r="0.15"/><circle cx="293.55" cy="110.15" r="0.15"/><circle cx="292.67" cy="110.37" r="0.15"/><circle cx="295.21" cy="109.85" r="0.15"/><circle cx="294.41" cy="110" r="0.15"/><circle cx="296.09" cy="109.55" r="0.15"/><circle cx="286.37" cy="110.07" r="0.15"/><circle cx="288.14" cy="110.37" r="0.15"/><circle cx="290.05" cy="110.52" r="0.15"/><circle cx="291.79" cy="110.52" r="0.15"/></g><g class="cls-14"><circle cx="283.78" cy="110.08" r="0.15"/><circle cx="284.55" cy="110.29" r="0.15"/><circle cx="285.5" cy="110.6" r="0.15"/><circle cx="287.21" cy="110.97" r="0.15"/><circle cx="289.01" cy="111.19" r="0.15"/><circle cx="290.88" cy="111.27" r="0.15"/><circle cx="293.55" cy="110.9" r="0.15"/><circle cx="292.67" cy="111.12" r="0.15"/><circle cx="295.21" cy="110.6" r="0.15"/><circle cx="294.41" cy="110.75" r="0.15"/><circle cx="296.09" cy="110.29" r="0.15"/><circle cx="286.37" cy="110.82" r="0.15"/><circle cx="288.14" cy="111.12" r="0.15"/><circle cx="290.05" cy="111.27" r="0.15"/><circle cx="291.79" cy="111.27" r="0.15"/></g><g class="cls-14"><circle cx="283.78" cy="110.83" r="0.15"/><circle cx="284.55" cy="111.04" r="0.15"/><circle cx="285.5" cy="111.35" r="0.15"/><circle cx="287.21" cy="111.71" r="0.15"/><circle cx="289.01" cy="111.93" r="0.15"/><circle cx="290.88" cy="112.02" r="0.15"/><circle cx="293.55" cy="111.65" r="0.15"/><circle cx="292.67" cy="111.87" r="0.15"/><circle cx="295.21" cy="111.35" r="0.15"/><circle cx="294.41" cy="111.5" r="0.15"/><circle cx="296.09" cy="111.04" r="0.15"/><circle cx="286.37" cy="111.56" r="0.15"/><circle cx="288.14" cy="111.87" r="0.15"/><circle cx="290.05" cy="112.02" r="0.15"/><circle cx="291.79" cy="112.02" r="0.15"/></g><g class="cls-14"><circle cx="283.78" cy="111.57" r="0.15"/><circle cx="284.55" cy="111.79" r="0.15"/><circle cx="285.5" cy="112.09" r="0.15"/><circle cx="287.21" cy="112.46" r="0.15"/><circle cx="289.01" cy="112.68" r="0.15"/><circle cx="290.88" cy="112.77" r="0.15"/><circle cx="293.55" cy="112.4" r="0.15"/><circle cx="292.67" cy="112.61" r="0.15"/><circle cx="295.21" cy="112.09" r="0.15"/><circle cx="294.41" cy="112.24" r="0.15"/><circle cx="296.09" cy="111.79" r="0.15"/><circle cx="286.37" cy="112.31" r="0.15"/><circle cx="288.14" cy="112.61" r="0.15"/><circle cx="290.05" cy="112.77" r="0.15"/><circle cx="291.79" cy="112.77" r="0.15"/></g><g class="cls-14"><circle cx="283.78" cy="112.32" r="0.15"/><circle cx="284.55" cy="112.54" r="0.15"/><circle cx="285.5" cy="112.84" r="0.15"/><circle cx="287.21" cy="113.21" r="0.15"/><circle cx="289.01" cy="113.43" r="0.15"/><circle cx="290.88" cy="113.51" r="0.15"/><circle cx="293.55" cy="113.15" r="0.15"/><circle cx="292.67" cy="113.36" r="0.15"/><circle cx="295.21" cy="112.84" r="0.15"/><circle cx="294.41" cy="112.99" r="0.15"/><circle cx="296.09" cy="112.54" r="0.15"/><circle cx="286.37" cy="113.06" r="0.15"/><circle cx="288.14" cy="113.36" r="0.15"/><circle cx="290.05" cy="113.51" r="0.15"/><circle cx="291.79" cy="113.51" r="0.15"/></g><g class="cls-14"><circle cx="283.78" cy="113.07" r="0.15"/><circle cx="284.55" cy="113.29" r="0.15"/><circle cx="285.5" cy="113.59" r="0.15"/><circle cx="287.21" cy="113.96" r="0.15"/><circle cx="289.01" cy="114.18" r="0.15"/><circle cx="290.88" cy="114.26" r="0.15"/><circle cx="293.55" cy="113.89" r="0.15"/><circle cx="292.67" cy="114.11" r="0.15"/><circle cx="295.21" cy="113.59" r="0.15"/><circle cx="294.41" cy="113.74" r="0.15"/><circle cx="296.09" cy="113.29" r="0.15"/><circle cx="286.37" cy="113.8" r="0.15"/><circle cx="288.14" cy="114.11" r="0.15"/><circle cx="290.05" cy="114.26" r="0.15"/><circle cx="291.79" cy="114.26" r="0.15"/></g><g class="cls-14"><circle cx="283.78" cy="113.82" r="0.15"/><circle cx="284.55" cy="114.03" r="0.15"/><circle cx="285.5" cy="114.33" r="0.15"/><circle cx="287.21" cy="114.7" r="0.15"/><circle cx="289.01" cy="114.92" r="0.15"/><circle cx="290.88" cy="115.01" r="0.15"/><circle cx="293.55" cy="114.64" r="0.15"/><circle cx="292.67" cy="114.86" r="0.15"/><circle cx="295.21" cy="114.33" r="0.15"/><circle cx="294.41" cy="114.49" r="0.15"/><circle cx="296.09" cy="114.03" r="0.15"/><circle cx="286.37" cy="114.55" r="0.15"/><circle cx="288.14" cy="114.86" r="0.15"/><circle cx="290.05" cy="115.01" r="0.15"/><circle cx="291.79" cy="115.01" r="0.15"/></g><g class="cls-14"><circle cx="283.78" cy="114.56" r="0.15"/><circle cx="284.55" cy="114.78" r="0.15"/><circle cx="285.5" cy="115.08" r="0.15"/><circle cx="287.21" cy="115.45" r="0.15"/><circle cx="289.01" cy="115.67" r="0.15"/><circle cx="290.88" cy="115.75" r="0.15"/><circle cx="293.55" cy="115.39" r="0.15"/><circle cx="292.67" cy="115.6" r="0.15"/><circle cx="295.21" cy="115.08" r="0.15"/><circle cx="294.41" cy="115.24" r="0.15"/><circle cx="296.09" cy="114.78" r="0.15"/><circle cx="286.37" cy="115.3" r="0.15"/><circle cx="288.14" cy="115.6" r="0.15"/><circle cx="290.05" cy="115.75" r="0.15"/><circle cx="291.79" cy="115.75" r="0.15"/></g><g class="cls-14"><circle cx="283.78" cy="115.31" r="0.15"/><circle cx="284.55" cy="115.53" r="0.15"/><circle cx="285.5" cy="115.83" r="0.15"/><circle cx="287.21" cy="116.2" r="0.15"/><circle cx="289.01" cy="116.42" r="0.15"/><circle cx="290.88" cy="116.5" r="0.15"/><circle cx="293.55" cy="116.14" r="0.15"/><circle cx="292.67" cy="116.35" r="0.15"/><circle cx="295.21" cy="115.83" r="0.15"/><circle cx="294.41" cy="115.98" r="0.15"/><circle cx="296.09" cy="115.53" r="0.15"/><circle cx="286.37" cy="116.05" r="0.15"/><circle cx="288.14" cy="116.35" r="0.15"/><circle cx="290.05" cy="116.5" r="0.15"/><circle cx="291.79" cy="116.5" r="0.15"/></g><g class="cls-14"><circle cx="283.78" cy="116.06" r="0.15"/><circle cx="284.55" cy="116.28" r="0.15"/><circle cx="285.5" cy="116.58" r="0.15"/><circle cx="287.21" cy="116.95" r="0.15"/><circle cx="289.01" cy="117.16" r="0.15"/><circle cx="290.88" cy="117.25" r="0.15"/><circle cx="293.55" cy="116.88" r="0.15"/><circle cx="292.67" cy="117.1" r="0.15"/><circle cx="295.21" cy="116.58" r="0.15"/><circle cx="294.41" cy="116.73" r="0.15"/><circle cx="296.09" cy="116.28" r="0.15"/><circle cx="286.37" cy="116.79" r="0.15"/><circle cx="288.14" cy="117.1" r="0.15"/><circle cx="290.05" cy="117.25" r="0.15"/><circle cx="291.79" cy="117.25" r="0.15"/></g><g class="cls-14"><circle cx="283.78" cy="116.81" r="0.15"/><circle cx="284.55" cy="117.02" r="0.15"/><circle cx="285.5" cy="117.33" r="0.15"/><circle cx="287.21" cy="117.69" r="0.15"/><circle cx="289.01" cy="117.91" r="0.15"/><circle cx="290.88" cy="118" r="0.15"/><circle cx="293.55" cy="117.63" r="0.15"/><circle cx="292.67" cy="117.84" r="0.15"/><circle cx="295.21" cy="117.33" r="0.15"/><circle cx="294.41" cy="117.48" r="0.15"/><circle cx="296.09" cy="117.02" r="0.15"/><circle cx="286.37" cy="117.54" r="0.15"/><circle cx="288.14" cy="117.84" r="0.15"/><circle cx="290.05" cy="118" r="0.15"/><circle cx="291.79" cy="118" r="0.15"/></g><g class="cls-14"><circle cx="283.78" cy="117.55" r="0.15"/><circle cx="284.55" cy="117.77" r="0.15"/><circle cx="285.5" cy="118.07" r="0.15"/><circle cx="287.21" cy="118.44" r="0.15"/><circle cx="289.01" cy="118.66" r="0.15"/><circle cx="290.88" cy="118.75" r="0.15"/><circle cx="293.55" cy="118.38" r="0.15"/><circle cx="292.67" cy="118.59" r="0.15"/><circle cx="295.21" cy="118.07" r="0.15"/><circle cx="294.41" cy="118.23" r="0.15"/><circle cx="296.09" cy="117.77" r="0.15"/><circle cx="286.37" cy="118.29" r="0.15"/><circle cx="288.14" cy="118.59" r="0.15"/><circle cx="290.05" cy="118.75" r="0.15"/><circle cx="291.79" cy="118.75" r="0.15"/></g><g class="cls-14"><circle cx="283.78" cy="118.3" r="0.15"/><circle cx="284.55" cy="118.52" r="0.15"/><circle cx="285.5" cy="118.82" r="0.15"/><circle cx="287.21" cy="119.19" r="0.15"/><circle cx="289.01" cy="119.41" r="0.15"/><circle cx="290.88" cy="119.49" r="0.15"/><circle cx="293.55" cy="119.12" r="0.15"/><circle cx="292.67" cy="119.34" r="0.15"/><circle cx="295.21" cy="118.82" r="0.15"/><circle cx="294.41" cy="118.97" r="0.15"/><circle cx="296.09" cy="118.52" r="0.15"/><circle cx="286.37" cy="119.04" r="0.15"/><circle cx="288.14" cy="119.34" r="0.15"/><circle cx="290.05" cy="119.49" r="0.15"/><circle cx="291.79" cy="119.49" r="0.15"/></g><g class="cls-14"><circle cx="283.78" cy="119.05" r="0.15"/><circle cx="284.55" cy="119.26" r="0.15"/><circle cx="285.5" cy="119.57" r="0.15"/><circle cx="287.21" cy="119.93" r="0.15"/><circle cx="289.01" cy="120.15" r="0.15"/><circle cx="290.88" cy="120.24" r="0.15"/><circle cx="293.55" cy="119.87" r="0.15"/><circle cx="292.67" cy="120.09" r="0.15"/><circle cx="295.21" cy="119.57" r="0.15"/><circle cx="294.41" cy="119.72" r="0.15"/><circle cx="296.09" cy="119.26" r="0.15"/><circle cx="286.37" cy="119.79" r="0.15"/><circle cx="288.14" cy="120.09" r="0.15"/><circle cx="290.05" cy="120.24" r="0.15"/><circle cx="291.79" cy="120.24" r="0.15"/></g><g class="cls-14"><circle cx="283.78" cy="119.79" r="0.15"/><circle cx="284.55" cy="120.01" r="0.15"/><circle cx="285.5" cy="120.32" r="0.15"/><circle cx="287.21" cy="120.68" r="0.15"/><circle cx="289.01" cy="120.9" r="0.15"/><circle cx="290.88" cy="120.99" r="0.15"/><circle cx="293.55" cy="120.62" r="0.15"/><circle cx="292.67" cy="120.84" r="0.15"/><circle cx="295.21" cy="120.32" r="0.15"/><circle cx="294.41" cy="120.47" r="0.15"/><circle cx="296.09" cy="120.01" r="0.15"/><circle cx="286.37" cy="120.53" r="0.15"/><circle cx="288.14" cy="120.84" r="0.15"/><circle cx="290.05" cy="120.99" r="0.15"/><circle cx="291.79" cy="120.99" r="0.15"/></g><g class="cls-14"><circle cx="283.78" cy="120.54" r="0.15"/><circle cx="284.55" cy="120.76" r="0.15"/><circle cx="285.5" cy="121.06" r="0.15"/><circle cx="287.21" cy="121.43" r="0.15"/><circle cx="289.01" cy="121.65" r="0.15"/><circle cx="290.88" cy="121.74" r="0.15"/><circle cx="293.55" cy="121.37" r="0.15"/><circle cx="292.67" cy="121.58" r="0.15"/><circle cx="295.21" cy="121.06" r="0.15"/><circle cx="294.41" cy="121.21" r="0.15"/><circle cx="296.09" cy="120.76" r="0.15"/><circle cx="286.37" cy="121.28" r="0.15"/><circle cx="288.14" cy="121.58" r="0.15"/><circle cx="290.05" cy="121.74" r="0.15"/><circle cx="291.79" cy="121.74" r="0.15"/></g><g class="cls-14"><circle cx="283.78" cy="121.29" r="0.15"/><circle cx="284.55" cy="121.51" r="0.15"/><circle cx="285.5" cy="121.81" r="0.15"/><circle cx="287.21" cy="122.18" r="0.15"/><circle cx="289.01" cy="122.4" r="0.15"/><circle cx="290.88" cy="122.48" r="0.15"/><circle cx="293.55" cy="122.11" r="0.15"/><circle cx="292.67" cy="122.33" r="0.15"/><circle cx="295.21" cy="121.81" r="0.15"/><circle cx="294.41" cy="121.96" r="0.15"/><circle cx="296.09" cy="121.51" r="0.15"/><circle cx="286.37" cy="122.03" r="0.15"/><circle cx="288.14" cy="122.33" r="0.15"/><circle cx="290.05" cy="122.48" r="0.15"/><circle cx="291.79" cy="122.48" r="0.15"/></g><g class="cls-14"><circle cx="283.78" cy="122.04" r="0.15"/><circle cx="284.55" cy="122.25" r="0.15"/><circle cx="285.5" cy="122.56" r="0.15"/><circle cx="287.21" cy="122.93" r="0.15"/><circle cx="289.01" cy="123.15" r="0.15"/><circle cx="290.88" cy="123.23" r="0.15"/><circle cx="293.55" cy="122.86" r="0.15"/><circle cx="292.67" cy="123.08" r="0.15"/><circle cx="295.21" cy="122.56" r="0.15"/><circle cx="294.41" cy="122.71" r="0.15"/><circle cx="296.09" cy="122.25" r="0.15"/><circle cx="286.37" cy="122.77" r="0.15"/><circle cx="288.14" cy="123.08" r="0.15"/><circle cx="290.05" cy="123.23" r="0.15"/><circle cx="291.79" cy="123.23" r="0.15"/></g><g class="cls-14"><circle cx="283.78" cy="122.79" r="0.15"/><circle cx="284.55" cy="123" r="0.15"/><circle cx="285.5" cy="123.3" r="0.15"/><circle cx="287.21" cy="123.67" r="0.15"/><circle cx="289.01" cy="123.89" r="0.15"/><circle cx="290.88" cy="123.98" r="0.15"/><circle cx="293.55" cy="123.61" r="0.15"/><circle cx="292.67" cy="123.83" r="0.15"/><circle cx="295.21" cy="123.3" r="0.15"/><circle cx="294.41" cy="123.46" r="0.15"/><circle cx="296.09" cy="123" r="0.15"/><circle cx="286.37" cy="123.52" r="0.15"/><circle cx="288.14" cy="123.83" r="0.15"/><circle cx="290.05" cy="123.98" r="0.15"/><circle cx="291.79" cy="123.98" r="0.15"/></g><g class="cls-14"><circle cx="283.78" cy="123.53" r="0.15"/><circle cx="284.55" cy="123.75" r="0.15"/><circle cx="285.5" cy="124.05" r="0.15"/><circle cx="287.21" cy="124.42" r="0.15"/><circle cx="289.01" cy="124.64" r="0.15"/><circle cx="290.88" cy="124.72" r="0.15"/><circle cx="293.55" cy="124.36" r="0.15"/><circle cx="292.67" cy="124.57" r="0.15"/><circle cx="295.21" cy="124.05" r="0.15"/><circle cx="294.41" cy="124.2" r="0.15"/><circle cx="296.09" cy="123.75" r="0.15"/><circle cx="286.37" cy="124.27" r="0.15"/><circle cx="288.14" cy="124.57" r="0.15"/><circle cx="290.05" cy="124.72" r="0.15"/><circle cx="291.79" cy="124.72" r="0.15"/></g><g class="cls-14"><circle cx="283.78" cy="124.28" r="0.15"/><circle cx="284.55" cy="124.5" r="0.15"/><circle cx="285.5" cy="124.8" r="0.15"/><circle cx="287.21" cy="125.17" r="0.15"/><circle cx="289.01" cy="125.39" r="0.15"/><circle cx="290.88" cy="125.47" r="0.15"/><circle cx="293.55" cy="125.1" r="0.15"/><circle cx="292.67" cy="125.32" r="0.15"/><circle cx="295.21" cy="124.8" r="0.15"/><circle cx="294.41" cy="124.95" r="0.15"/><circle cx="296.09" cy="124.5" r="0.15"/><circle cx="286.37" cy="125.02" r="0.15"/><circle cx="288.14" cy="125.32" r="0.15"/><circle cx="290.05" cy="125.47" r="0.15"/><circle cx="291.79" cy="125.47" r="0.15"/></g><path class="cls-3" d="M318.93,87.27s4.45-1.67,5.94,1.77l.41.11.94.24c2.36-3.53,8.57,0,8.57,0l8.73,3.86-.33.54-8.74-3.05s-1.16,3.58-2.68,4.44-4-.48-4-.48c-1.53-.61-1.65-3.31-1.63-4.61l-1.32-.27c-.09,1.31-.57,3.82-2.93,4.1a2.79,2.79,0,0,1-3.43-2.45S318.4,87.87,318.93,87.27Z" transform="translate(-10.99 -13.47)"/><path class="cls-11" d="M322.11,87.3c-.15.33-.35.79-.06,1a.55.55,0,0,0,.45,0c.94-.2,1.43-1.21,1.83-2.09s1-1.86,1.95-2c1.13-.09,2.31,1.14,3.26.49.28-.19.46-.54.78-.68a1.26,1.26,0,0,1,.72-.05,5.07,5.07,0,0,1,4.14,4.35c.05.45.15,1,.6,1.12a2.07,2.07,0,0,0,.5-.06c.86-.1,1.38.88,1.65,1.7a6.92,6.92,0,0,1,.53,3.43,18.57,18.57,0,0,0-.73,2.67,5,5,0,0,0,.61,2.18c.32.69.83,1.51,1.59,1.41s1-.74,1.26-1.3.83-1.14,1.43-1c.27.08.55.31.8.17a.63.63,0,0,0,.23-.4c.29-1.28-.13-2.72.49-3.88a7.58,7.58,0,0,1,2.24-2,6.41,6.41,0,0,0,1-9l-.14-.18c-.84-1-2.06-1.86-2.13-3.16-.05-1,.62-1.9.63-2.89a3.6,3.6,0,0,0-1.31-2.49,8.54,8.54,0,0,0-7.67-2,6.17,6.17,0,0,1-2.15.35,7.35,7.35,0,0,1-2.3-1A5.87,5.87,0,0,0,325,74c-.87,1.35-1.21,3.12-2.5,4.07-.86.62-2.07.85-2.55,1.79a3.21,3.21,0,0,0-.11,1.87,4.36,4.36,0,0,0,1.39,2.67C322,85.26,322.63,86.11,322.11,87.3Z" transform="translate(-10.99 -13.47)"/><g class="cls-15"><path d="M345.49,78.39a5,5,0,0,0,.19-.76A4.69,4.69,0,0,0,345.49,78.39Z" transform="translate(-10.99 -13.47)"/><path d="M322.28,86.51a2.92,2.92,0,0,1,.19-.49c.52-1.19-.15-2-.94-2.85a4.39,4.39,0,0,1-1.4-2.67,6,6,0,0,1-.07-.85,2.11,2.11,0,0,0-.18.27,3.18,3.18,0,0,0-.11,1.86,4.35,4.35,0,0,0,1.39,2.67A3,3,0,0,1,322.28,86.51Z" transform="translate(-10.99 -13.47)"/><path d="M343,97.34c-.61-.17-1.14.42-1.44,1s-.65,1.21-1.26,1.3-1.27-.71-1.59-1.41a4.87,4.87,0,0,1-.61-2.18.83.83,0,0,1,0-.27,5,5,0,0,0-.39,1.56,4.9,4.9,0,0,0,.61,2.18c.32.69.83,1.5,1.59,1.41s1-.74,1.26-1.31.83-1.14,1.43-1c.27.08.55.3.79.16a.52.52,0,0,0,.23-.39,4.32,4.32,0,0,0,.11-.88C343.48,97.63,343.22,97.43,343,97.34Z" transform="translate(-10.99 -13.47)"/><path d="M346.72,91.24a7.65,7.65,0,0,0-2.25,2,3.12,3.12,0,0,0-.32,1.24,7.87,7.87,0,0,1,2.21-2,6.51,6.51,0,0,0,2.32-3.9A6.56,6.56,0,0,1,346.72,91.24Z" transform="translate(-10.99 -13.47)"/><path d="M338.45,94.47a7.06,7.06,0,0,0,.35-1.13,6.93,6.93,0,0,0-.54-3.43c-.27-.82-.79-1.8-1.62-1.7a2.22,2.22,0,0,1-.51.06c-.45-.07-.55-.65-.59-1.12a5.09,5.09,0,0,0-4.15-4.35,1.3,1.3,0,0,0-.73,0c-.32.14-.49.49-.77.68-.93.65-2.12-.58-3.26-.49-.95.08-1.54,1.06-1.95,2s-.89,1.88-1.83,2.08a.55.55,0,0,1-.45,0,.35.35,0,0,1-.14-.27,2.26,2.26,0,0,1-.17.56c-.14.32-.35.78,0,1a.56.56,0,0,0,.44.06c.94-.21,1.44-1.21,1.83-2.09s1-1.86,2-2c1.13-.09,2.31,1.14,3.25.5.29-.2.46-.54.78-.69a1.26,1.26,0,0,1,.72,0,5.07,5.07,0,0,1,4.15,4.34c.05.46.14,1,.59,1.12a2.22,2.22,0,0,0,.51-.06c.85-.1,1.37.89,1.65,1.7A7.6,7.6,0,0,1,338.45,94.47Z" transform="translate(-10.99 -13.47)"/></g></g><g class="cls-1"><path class="cls-2" d="M11,80.79c0,.31,0,.61,0,.92a64.3,64.3,0,0,0,1.14,9.88c1.87,9.7,5.77,19.41,10.38,28.65.07.15.15.3.22.44l.33.65c.21.45.44.89.67,1.33l.51,1h0l.37.71.24.43a81.32,81.32,0,0,0,4.18,7.09l.18.25a43.81,43.81,0,0,0,6.62,7.82,39.32,39.32,0,0,0,16,8.65l.61.17,1.19.29c.27.07.55.13.82.18a43.42,43.42,0,0,0,5.79.84c1,.08,2.11.12,3.16.12h.46a36.09,36.09,0,0,0,3.89-.23l.19,0a33.73,33.73,0,0,0,10.14-2.73c.52-.23,1-.47,1.52-.73l.25-.13.12-.07h0a41.53,41.53,0,0,0,4.78-3c1.77-1.27,3.44-2.65,5.06-4.07a77.59,77.59,0,0,0,6.84-6.73l.1-.11c.92-1,1.79-2.1,2.62-3.19v0c.58-.76,1.14-1.54,1.67-2.33a1,1,0,0,0,.08-.11c.77-1.16,1.5-2.35,2.16-3.58l.15-.28c.47-.9.9-1.81,1.3-2.74a55.34,55.34,0,0,0,3.8-16.59A98.32,98.32,0,0,0,106,68.75c-.41-1.56-.86-3.1-1.36-4.64-.07-.21-.13-.42-.2-.62s-.23-.65-.33-1c0-.14-.09-.28-.14-.42q-.66-1.87-1.41-3.72l-.27-.66c-.27-.65-.56-1.33-.85-2s-.55-1.22-.85-1.83c0-.09-.09-.19-.14-.29A39.89,39.89,0,0,0,90,39.67c-.32-.26-.65-.51-1-.75-.49-.37-1-.72-1.52-1.05l-.37-.24L87,37.55l-.1-.06-.06,0A9.16,9.16,0,0,0,86,37l-.83-.44h0L85,36.51l-.65-.32-.23-.11-.09,0-.37-.16a25.41,25.41,0,0,0-5.19-1.55,24.75,24.75,0,0,0-3-.37,19.72,19.72,0,0,0-4.54.25l-.67.13a13.67,13.67,0,0,0-5.26,2.28,19.24,19.24,0,0,0-4.81,5.53l-.13.21c-.22.35-.44.7-.65,1.05-.75,1.21-1.51,2.44-2.3,3.64s-1.51,2.21-2.34,3.26a27.47,27.47,0,0,1-2.74,3,5.92,5.92,0,0,1-.45.41,20.39,20.39,0,0,1-6.15,3.77,11.48,11.48,0,0,1-6.36.66h0a8.3,8.3,0,0,1-1.75-.56c-1.07-.47-2.1-.92-3.13-1.33a23.09,23.09,0,0,0-5.7-1.63h0a12.7,12.7,0,0,0-6,.65c-.33.12-.64.25-1,.39a13.65,13.65,0,0,0-3.85,2.57l-.39.39c-2.85,2.91-4.42,6.94-5.27,10.88A49.35,49.35,0,0,0,11,80.79Z" transform="translate(-10.99 -13.47)"/><path class="cls-16" d="M52.52,147.84l-.66.75.61.17,1.19.29c.27.07.55.13.82.18a43.42,43.42,0,0,0,5.79.84c1,.08,2.11.12,3.16.12a4.83,4.83,0,0,0,.53-.94,20.5,20.5,0,0,1,3.91-4.51c0,.29-.06.46-.06.46v.11l0,4.65.19,0a34,34,0,0,0,10.14-2.73c.52-.23,1-.48,1.51-.74l.26-.13.12-.06c.23-1.12.43-2.2.6-3.06l0-.12.06-.32c0-.1,0-.2.06-.29s0-.14,0-.2c.11-.59.18-.94.18-.94a4.52,4.52,0,0,1,.06-.53h0a4.61,4.61,0,0,1,1.26-2.64,2.51,2.51,0,0,0,.6-1.05h0a9.19,9.19,0,0,0,.25-3.21c0-.22,0-.35,0-.35a4.88,4.88,0,0,0,2-2.67,7.37,7.37,0,0,0,.36-1.3c.53-2.86,2.17-8.9,2.37-9.64h0l0-.07.11-.31s0,0,0-.07l0-.07h0c.73-2,3.58-10.19,3.35-15.61a46.18,46.18,0,0,1,.37-9.47l.74-13.54v-.15l0-.79v-.22l.29.22L93,80l.06.06v-.15l.18.15s.32-5.26.29-8.23a9,9,0,0,0,0-.94c2.2-.75,5.54-2,5.74-2.61a10.76,10.76,0,0,1,2.46-2.57l.59-.49.3-.25.71-.57a.63.63,0,0,1-.23-.08l.38-.19c.32-.17.65-.38,1-.62A17.74,17.74,0,0,0,109,59.31a3.59,3.59,0,0,0,.78-2.5,1.17,1.17,0,0,0-.06-.2l4.5-6.47.53-.76a1.24,1.24,0,0,0-.11-1.54l0,0,0,0-.19-.13,0,0a.65.65,0,0,0-.84.18l-.08.12-4.34,6.22-.77,1.11c-1.69-.51-4.15.93-6.1,2.39-.7.53-1.34,1.06-1.84,1.51l-.33.29c-.15-.32-.24-.55-.24-.55-.09,1-3.73,2.57-4.57,3.13a3,3,0,0,1-1.27.43c.12-3.91-2.91-8-2.91-8L85.28,47h0l-.36-.46-1.16-1.47a7.27,7.27,0,0,1-.1-1.4A9.13,9.13,0,0,1,84,41.43l.12-.35a6.53,6.53,0,0,1,.41-1c.06-.12.12-.25.19-.37h0c-.13.45-.26.91-.35,1.36,0,.12,0,.24-.07.37l0,.15a5.62,5.62,0,0,0,0,.58v.09c.06.78.63,3.63,1.42,3.5a.46.46,0,0,0,.42-.2,2.52,2.52,0,0,0,.24-.33c.05-.09.09-.18.13-.27a3,3,0,0,0,.14-.39,8,8,0,0,0,.18-2.28,6.37,6.37,0,0,1-.12,1.06,23.27,23.27,0,0,0-.05-2.4v-.88h0a3.39,3.39,0,0,1,0-.45h.09v0h.09A9.45,9.45,0,0,0,89,39a10,10,0,0,0,2.36-1.43,2.32,2.32,0,0,0,.46-.07A2.43,2.43,0,0,0,93,36.83l.07-.07a1.66,1.66,0,0,1-.28,1.49l0,0h0a2.69,2.69,0,0,0,2.12-1.63l0-.09a6,6,0,0,0,.29-2.9A17.89,17.89,0,0,1,95,30.75c0-.23,0-.47.06-.71V30a5.34,5.34,0,0,0,0-.8v-.05a2,2,0,0,0-.08-.43h0a.72.72,0,0,0,.54-.28l.06,0a1,1,0,0,0,.19-.22,2,2,0,0,0,.18-.32,5.57,5.57,0,0,0,.22-.8,12.18,12.18,0,0,0,.38-3.35,9.58,9.58,0,0,1-.12,1,4.51,4.51,0,0,0-.94-3.5,6.76,6.76,0,0,0-2.21-1.4,1.62,1.62,0,0,1-.71-.5,2.17,2.17,0,0,1-.22-.9c-.28-1.89-2.06-3.2-3.83-4-2.28-1-5-1.42-7.22-.24a23.14,23.14,0,0,0-2.86,2.2c-1.22.92-2.61,1.57-3.91,2.38A7.93,7.93,0,0,0,71.4,22a8.74,8.74,0,0,0-.35,4.56c.08.8.19,1.59.23,2.37v.19a12.29,12.29,0,0,1-1,5.25,10.35,10.35,0,0,1-3.37,4.29,3.93,3.93,0,0,0-1,.82,1,1,0,0,0-.08,1.18,1.6,1.6,0,0,0,.27.25,1.48,1.48,0,0,1,.3.26,1,1,0,0,1,.17.28,1.71,1.71,0,0,1,0,1,.15.15,0,0,1,0,.09l0,.16a9.27,9.27,0,0,1-2.52,4.26c.05.39.52.54.91.59h0a21.18,21.18,0,0,0,3.08.23h.44a3,3,0,0,0-.14.36h0c-.11.28-.22.59-.33.91h0a9.9,9.9,0,0,0-.71,4.2c.38,2.18,1.51,12.15.94,13.89s.88,14.52.88,14.52,0,.2.12.54.24,1.09.42,1.9a.26.26,0,0,1,0,.1c-.88,2.06-1.87,4.33-2.37,5.24-.67,1.24-.68,5.81.4,10A14.76,14.76,0,0,0,70.31,105s1.23,1.74,1.13,2.6a.47.47,0,0,1-.06.21,2.76,2.76,0,0,0,0,1.75,1.91,1.91,0,0,0,.09.31v.32l.54,12a31.38,31.38,0,0,1-.26,3.76c-1.5,1.86-3.82,4.56-4.91,5-1.69.69-14.27,15.95-14.27,15.95a5.26,5.26,0,0,0,.3.48Z" transform="translate(-10.99 -13.47)"/><path class="cls-17" d="M102.91,65.23a3.13,3.13,0,0,1-1.21.46c-1.57,0-2.87-4.21-2.87-4.21s.45-.45,1.16-1.09c2.11-1.87,6.53-5.33,8.61-3.4C110.92,59.17,105.61,63.77,102.91,65.23Z" transform="translate(-10.99 -13.47)"/><path class="cls-17" d="M54.47,149.23a43.42,43.42,0,0,0,5.79.84c-.83-1.45-6.19-3.18-6.19-3.18l-.73.84-.34.41-.53.62,1.19.29C53.92,149.12,54.2,149.18,54.47,149.23Z" transform="translate(-10.99 -13.47)"/><path class="cls-4" d="M102.91,65.23a3.13,3.13,0,0,1-1.21.46c-1.57,0-2.87-4.21-2.87-4.21s.45-.45,1.16-1.09C100.5,61.55,101.92,64.66,102.91,65.23Z" transform="translate(-10.99 -13.47)"/><path class="cls-18" d="M92.82,63.7A3.9,3.9,0,0,0,95,63.24c.82-.56,4.39-2.08,4.48-3.1,0,0,2.13,5.18,3.33,5.37,0,0-3.7,2.91-4,3.84s-7.49,3.19-7.49,3.19Z" transform="translate(-10.99 -13.47)"/><path class="cls-19" d="M92.82,63.7A3.9,3.9,0,0,0,95,63.24c.82-.56,4.39-2.08,4.48-3.1,0,0,2.13,5.18,3.33,5.37,0,0-3.7,2.91-4,3.84s-7.49,3.19-7.49,3.19Z" transform="translate(-10.99 -13.47)"/><path class="cls-4" d="M53,148.14c.16.25.38.56.65.91.28.07.55.13.83.18a43.28,43.28,0,0,0,5.78.84c-.82-1.45-6.18-3.18-6.18-3.18l-.73.84Z" transform="translate(-10.99 -13.47)"/><path class="cls-19" d="M53.05,147.25a4.38,4.38,0,0,0,.29.47,13.8,13.8,0,0,0,1.13,1.51,45.1,45.1,0,0,0,5.79.83c1.05.08,2.11.12,3.16.12h.46a4.9,4.9,0,0,0,.32-.65,19.17,19.17,0,0,1,3.59-4.23c.07-.08.16-.16.24-.24,2.37-2.3,4.94-4.48,4.94-4.48l.24-15.85s-.56.75-1.36,1.75c-1.47,1.84-3.75,4.53-4.82,5C65.38,132.14,53.05,147.25,53.05,147.25Z" transform="translate(-10.99 -13.47)"/><path class="cls-4" d="M53.05,147.25a4.38,4.38,0,0,0,.29.47,13.8,13.8,0,0,0,1.13,1.51,45.1,45.1,0,0,0,5.79.83c1.05.08,2.11.12,3.16.12h.46a4.9,4.9,0,0,0,.32-.65,19.17,19.17,0,0,1,3.59-4.23c.07-.08.16-.16.24-.24,2.37-2.3,4.94-4.48,4.94-4.48l.24-15.85s-.56.75-1.36,1.75c-1.47,1.84-3.75,4.53-4.82,5C65.38,132.14,53.05,147.25,53.05,147.25Z" transform="translate(-10.99 -13.47)"/><path class="cls-4" d="M59.51,145a20.26,20.26,0,0,0,4.12,0C66.08,144.76,64.24,146.24,59.51,145Z" transform="translate(-10.99 -13.47)"/><path class="cls-4" d="M58.4,146.57s3.24,1.84,4.49.92S61.68,148.38,58.4,146.57Z" transform="translate(-10.99 -13.47)"/><path class="cls-19" d="M71.44,107.61a1.25,1.25,0,0,1,0,.91,2.08,2.08,0,0,0-.13,1,4.22,4.22,0,0,0,.1.62,3.46,3.46,0,0,0,.1.36l.55,12.22a31.17,31.17,0,0,1-.26,3.73,9.19,9.19,0,0,1-1,3.42c-1.11,1.7-2.55,12.77-2.85,15.16l0,.45,0,4.41a34,34,0,0,0,10.14-2.73c.52-.23,1-.48,1.52-.74l.25-.13.12-.06h0c.23-1.15.43-2.23.59-3.05l0-.12.06-.33.06-.29c0-.09,0-.13,0-.19l.11-.58a5.55,5.55,0,0,1,.12-.9h0a4.5,4.5,0,0,1,1.17-2.24,2.79,2.79,0,0,0,.7-1.44h0a10.88,10.88,0,0,0,.09-3.12l.18-.12a5.48,5.48,0,0,0,1.94-3,7.68,7.68,0,0,0,.19-.83c.56-3,2.35-9.62,2.35-9.62s.07-.18.18-.5h0c0-.11.09-.24.14-.38s0,0,0-.07l0-.07h0c.94-2.68,3.28-9.93,3.08-14.88a45.26,45.26,0,0,1,.37-9.37l.77-14.33v-.36l.07-1.35-7.09-.21h-.42l-1.68-.05h-.24l-2.28-.07-1,0-1.83,0H77l-1.42,0-4.13,2.4-.42,1-.19.47c-.08.16-.14.34-.22.54l-.59,1.4-.21.5c-.87,2.08-1.86,4.38-2.37,5.3-.62,1.15-.65,5.21.21,9.12a15.62,15.62,0,0,0,2.74,6.37A9.42,9.42,0,0,1,71.44,107.61Z" transform="translate(-10.99 -13.47)"/><path class="cls-4" d="M76.07,140.55s2.53,2,3.58,2S76.07,140.55,76.07,140.55Z" transform="translate(-10.99 -13.47)"/><path class="cls-17" d="M91.29,57.06v4.07L88.6,60l-2.67-1.16L80.1,53.08A44,44,0,0,1,73,47.35c-1.41-1.56-2.12-3-.88-3.8a7.78,7.78,0,0,0,1.61-1.42A26.46,26.46,0,0,0,77,37.38a1.28,1.28,0,0,0,.11-.2c1.2-2.21,2-4.09,2-4.09a25,25,0,0,1,5.55,2.61c.18.12.34.24.5.37,1.22,1,1.82,2.15.7,3.3a9,9,0,0,0-.79,1h0a6.44,6.44,0,0,0-.5.78c-.07.12-.13.24-.19.36a8.41,8.41,0,0,0-.74,4.94Z" transform="translate(-10.99 -13.47)"/><path class="cls-11" d="M90.8,28c.14.24.32.45.46.7a3.36,3.36,0,0,1,.21,1.73,9.76,9.76,0,0,0,.18,2.75,13,13,0,0,1,.57,2.43,6.36,6.36,0,0,1-1.16,3.29,2.37,2.37,0,0,0,1.69-.79,1.61,1.61,0,0,1-.32,1.52,2.64,2.64,0,0,0,2.16-1.7,5.92,5.92,0,0,0,.28-2.86,20.1,20.1,0,0,1-.21-2.9,11.86,11.86,0,0,0,.09-1.58,5.92,5.92,0,0,0-1.36-2.8l-1.25-1.72a.93.93,0,0,0-.35-.33C90.61,25.22,90.47,27.4,90.8,28Z" transform="translate(-10.99 -13.47)"/><path class="cls-4" d="M85.83,39.37a8.12,8.12,0,0,0-.79,1h0a6.44,6.44,0,0,0-.5.78c-.07.12-.13.24-.19.36a9.66,9.66,0,0,1-7.27-3.94L77,37.36a2.12,2.12,0,0,0,.11-.21c1.2-2.2,2-4.08,2-4.08a24.77,24.77,0,0,1,5.55,2.6c.18.12.34.25.5.38C86.35,37.07,87,38.22,85.83,39.37Z" transform="translate(-10.99 -13.47)"/><path class="cls-17" d="M94.62,31.39a9.72,9.72,0,0,1-8,9.56,11.52,11.52,0,0,1-1.76.16h-.37a9.7,9.7,0,0,1-4.81-1.48,9.86,9.86,0,0,1-2.65-2.46,9.71,9.71,0,1,1,17.55-5.78Z" transform="translate(-10.99 -13.47)"/><path class="cls-4" d="M86.17,55.41s4.89,2.76,3.64.43L83.43,46.4h0l7.25,9.31s4.62,6.35,2.09,10.75c0,0-.37,3.64.06,4.5S92.71,81,92.71,81,91,79.41,90.06,79.71s-7.47.87-7.47.87Z" transform="translate(-10.99 -13.47)"/><path class="cls-4" d="M92.28,79.1l-.09,1.7c-.59-.43-1.4-.9-2-.72-.92.31-7.46.86-7.46.86l.3-2.12Z" transform="translate(-10.99 -13.47)"/><path class="cls-11" d="M86.36,55.41s4.88,2.76,3.64.43L83.61,46.4h0l7.25,9.31s4.63,6.35,2.1,10.75c0,0-.37,3.64.06,4.5S92.9,81,92.9,81s-1.73-1.61-2.66-1.31-7.44.86-7.44.86Z" transform="translate(-10.99 -13.47)"/><path class="cls-4" d="M89,60.14a33.52,33.52,0,0,1-1.5,6.49s-.86,8.76-2,11.36-.62,6.16-1.24,12.76a8.28,8.28,0,0,1-2,5.11,7.52,7.52,0,0,1-6,2.08c-.16,0-.31,0-.46,0-3.08-.33-6-15.18-6-15.18s-1.42-12.64-.87-14.37-.55-11.6-.92-13.76c-.23-1.36.47-3.6,1-5.06.32-.84.58-1.42.58-1.42a14.8,14.8,0,0,1,2.78-5,2.52,2.52,0,0,1,1.83-.77,4.51,4.51,0,0,1,2.28.72l.08,0S87.74,54.54,88.78,57.19A7.4,7.4,0,0,1,89,60.14Z" transform="translate(-10.99 -13.47)"/><path class="cls-19" d="M88.6,60a33.49,33.49,0,0,1-1.5,6.5s-.87,8.76-2,11.35S84.51,84,83.89,90.57a8.3,8.3,0,0,1-2,5.11,7.55,7.55,0,0,1-6,2.08l-.45,0c-3.09-.3-6-15.17-6-15.17s-1.42-12.65-.86-14.38-.56-11.59-.93-13.75c-.23-1.37.47-3.61,1-5.06.33-.84.58-1.42.58-1.42a15.1,15.1,0,0,1,2.78-5.06,2.56,2.56,0,0,1,1.83-.77,4.61,4.61,0,0,1,2.28.72l.08.05S87.34,54.36,88.39,57A6.64,6.64,0,0,1,88.6,60Z" transform="translate(-10.99 -13.47)"/><path class="cls-4" d="M76,105.11s-2.54,2.28-3.42,2.18S76,105.11,76,105.11Z" transform="translate(-10.99 -13.47)"/><path class="cls-4" d="M76.7,107.29a35.83,35.83,0,0,1-3.48,1.43C72.42,108.9,75.67,107,76.7,107.29Z" transform="translate(-10.99 -13.47)"/><path class="cls-4" d="M87.08,73.23s4,0,4.58,1.3S88.38,72.72,87.08,73.23Z" transform="translate(-10.99 -13.47)"/><path class="cls-4" d="M86.53,75.41a14.59,14.59,0,0,1,4,1.39C91.43,77.54,86.53,75.41,86.53,75.41Z" transform="translate(-10.99 -13.47)"/><path class="cls-4" d="M81.39,67.87S81,80.4,79.66,82,81.39,67.87,81.39,67.87Z" transform="translate(-10.99 -13.47)"/><path class="cls-4" d="M78,103.31s-2.54,11.07,2.57,11.75,3.54-12.59,3.54-12.59Z" transform="translate(-10.99 -13.47)"/><path class="cls-17" d="M77.78,103.12s-2.54,11.07,2.57,11.75,3.54-12.58,3.54-12.58Z" transform="translate(-10.99 -13.47)"/><path class="cls-4" d="M94.55,30.32a4.32,4.32,0,0,1-.36-.67c-.68-1.42-2.42-.73-3.71,0l-.68.88A5.32,5.32,0,0,0,89,31.69a9.65,9.65,0,0,0-.33,1.08c-.18.62-.44,1.22-.67,1.83A21.28,21.28,0,0,0,86.65,41a11.52,11.52,0,0,1-1.76.16h0v0c.07-.24.12-.49.17-.74h0a12.79,12.79,0,0,0,.1-4.23V36c0-.33-.11-.63-.14-1-.11.22-.23.44-.35.65-.77,1.46-1.58,2.88-3,3.51a6.61,6.61,0,0,1-1.86.42,10.62,10.62,0,0,0-2.31.38,1.64,1.64,0,0,0-.68.41,2,2,0,0,0-.32,1A8.61,8.61,0,0,1,76,42.84a12.34,12.34,0,0,1-3,4.49l-.33.33a6.13,6.13,0,0,1-2,1.38,5.88,5.88,0,0,1-2.12.33c.33-.84.59-1.42.59-1.42a15,15,0,0,1,2.77-5.06,2.6,2.6,0,0,1,1.83-.77,26.14,26.14,0,0,0,3.31-5,9.72,9.72,0,1,1,17.47-6.84Z" transform="translate(-10.99 -13.47)"/><path class="cls-11" d="M95.17,22.74A6.44,6.44,0,0,0,93,21.36a1.63,1.63,0,0,1-.7-.51,2.13,2.13,0,0,1-.22-.89c-.27-1.87-2-3.17-3.76-3.94-2.23-1-4.92-1.4-7.07-.23A23.48,23.48,0,0,0,78.45,18c-1.19.91-2.57,1.55-3.84,2.35a7.6,7.6,0,0,0-3.09,3.19c-.94,2.12-.24,4.55-.12,6.87A11.28,11.28,0,0,1,67.15,40a3.83,3.83,0,0,0-.93.82A1,1,0,0,0,66.14,42a5.37,5.37,0,0,0,.56.51A1.65,1.65,0,0,1,66.83,44a9.13,9.13,0,0,1-2.47,4.24c0,.38.52.53.89.58a20.36,20.36,0,0,0,3,.22,5,5,0,0,0,4.23-1.7,11.53,11.53,0,0,0,3.73-6.23,2.08,2.08,0,0,1,.32-1,1.52,1.52,0,0,1,.68-.4c1.34-.47,2.86-.24,4.16-.8,1.69-.74,2.51-2.51,3.4-4.17,0,.32.09.63.14.94a12.79,12.79,0,0,1-.25,5.08,10.84,10.84,0,0,0-.57,2.85c0,.71.75,4.47,1.71,3.35s.61-3.62.61-5a21.47,21.47,0,0,1,1.41-7.65c.23-.61.49-1.2.67-1.83a9.65,9.65,0,0,1,.33-1.08,5.62,5.62,0,0,1,.78-1.2l.69-.89c1.28-.67,3-1.37,3.71.05.26.54.4,1.14,1.07.61a2.53,2.53,0,0,0,.65-1.39C96.17,26.54,96.52,24.23,95.17,22.74Z" transform="translate(-10.99 -13.47)"/><path class="cls-4" d="M82.15,56.7c-.27-6.64-9.56-8-11.73-1.73,0,0,0,.08,0,.13-1.42,4.25-.8,15-.8,15s.18,7.24.86,9.64S73,89.09,73,90.19s1.78,5.37,2.52,5.68,1.13,2.71,1.3,3.14.74,6,.74,6,7-.43,7.09-1.54S83.14,97,83.14,97a12.59,12.59,0,0,1-1.39-4c-.15-1.79-1.14-2.6-1-3.82s-.55-1.85-.55-2.65a19.79,19.79,0,0,0-.56-3s-1.17-.92-1-2S77,78.17,77.53,77.37a8.21,8.21,0,0,0,.62-2.78s.62-8.88,1-11.29,3-6.29,3-6.29S82.16,56.9,82.15,56.7Z" transform="translate(-10.99 -13.47)"/><path class="cls-4" d="M81.87,95.68a7.55,7.55,0,0,1-6,2.08c-.22-.84-.55-1.88-1-2.07-.75-.31-2.52-4.56-2.52-5.68s-1.91-8-2.6-10.42S68.83,70,68.83,70s-.62-10.77.8-15a.5.5,0,0,1,0-.13c2.17-6.28,11.47-4.91,11.72,1.74v.3s-2.53,3.89-3,6.29-1.05,11.29-1.05,11.29a8.47,8.47,0,0,1-.62,2.78c-.49.8,1.36,3,1.18,4.13a2.52,2.52,0,0,0,1,2,19.59,19.59,0,0,1,.56,3c0,.8.74,1.42.55,2.65s.81,2,1,3.83A10,10,0,0,0,81.87,95.68Z" transform="translate(-10.99 -13.47)"/><path class="cls-19" d="M81.78,56.52c-.26-6.65-9.56-8-11.72-1.74a.5.5,0,0,1,0,.13c-1.42,4.26-.8,15-.8,15s.18,7.23.86,9.64S72.69,88.9,72.69,90s1.77,5.36,2.52,5.67,1.12,2.71,1.3,3.15.74,6,.74,6,7-.43,7.09-1.54S82.8,96.8,82.8,96.8a12.59,12.59,0,0,1-1.39-4c-.16-1.79-1.14-2.59-1-3.83s-.55-1.85-.55-2.65a19.59,19.59,0,0,0-.56-3,2.52,2.52,0,0,1-1-2c.2-1.11-1.66-3.33-1.17-4.13a8.21,8.21,0,0,0,.62-2.78s.62-8.88,1-11.28,3-6.3,3-6.3A1.26,1.26,0,0,1,81.78,56.52Z" transform="translate(-10.99 -13.47)"/><path class="cls-4" d="M70.33,73.6c.19-.18,3.7-4.07,4.81-2.68S70.33,73.6,70.33,73.6Z" transform="translate(-10.99 -13.47)"/><path class="cls-4" d="M70.66,76.61c.13-.14,3.51-.28,4.35-2.17S70.66,76.61,70.66,76.61Z" transform="translate(-10.99 -13.47)"/><g class="cls-15"><path d="M66.81,42.5a.94.94,0,0,1,.19.32,1.48,1.48,0,0,0-.19-1.26,6.66,6.66,0,0,1-.56-.5l0-.05a1,1,0,0,0,0,1C66.4,42.2,66.64,42.31,66.81,42.5Z" transform="translate(-10.99 -13.47)"/><path d="M71.52,30.51V29.46c-.07-1.26-.3-2.55-.35-3.81-.08,1.54.27,3.16.35,4.73A.56.56,0,0,0,71.52,30.51Z" transform="translate(-10.99 -13.47)"/><path d="M85.94,46c-.86,1-1.53-1.89-1.68-3a3,3,0,0,0,0,.6c0,.71.74,4.48,1.71,3.35a4.94,4.94,0,0,0,.67-3.25A3.83,3.83,0,0,1,85.94,46Z" transform="translate(-10.99 -13.47)"/><path d="M85,35.61a11.83,11.83,0,0,1,.14,1.46A12.84,12.84,0,0,0,85,34.68c-.05-.32-.1-.62-.13-.94-.89,1.66-1.72,3.44-3.4,4.17-1.3.56-2.83.32-4.17.8a1.38,1.38,0,0,0-.67.41,2,2,0,0,0-.33,1,11.34,11.34,0,0,1-3.73,6.23,5,5,0,0,1-4.23,1.7,19,19,0,0,1-3-.22,2.37,2.37,0,0,1-.46-.11,6.14,6.14,0,0,1-.43.45c0,.38.51.53.89.59a20.22,20.22,0,0,0,3,.22,5,5,0,0,0,4.23-1.7,11.41,11.41,0,0,0,3.73-6.23,2,2,0,0,1,.33-1,1.54,1.54,0,0,1,.67-.41c1.34-.46,2.87-.23,4.17-.8,1.68-.73,2.51-2.5,3.4-4.17C84.94,35,85,35.3,85,35.61Z" transform="translate(-10.99 -13.47)"/><path d="M95.84,27.57A2.36,2.36,0,0,1,95.2,29c-.67.52-.81-.07-1.07-.62-.68-1.41-2.43-.72-3.71,0l-.69.88a5.62,5.62,0,0,0-.78,1.2,7.9,7.9,0,0,0-.32,1.08c-.18.63-.44,1.22-.67,1.83A21.52,21.52,0,0,0,86.54,41v.38A21.56,21.56,0,0,1,88,34.23c.23-.61.5-1.21.67-1.83A9.65,9.65,0,0,1,89,31.32a5.32,5.32,0,0,1,.78-1.21l.69-.88c1.27-.68,3-1.37,3.7.05.26.54.4,1.14,1.08.61a2.41,2.41,0,0,0,.63-1.39,12,12,0,0,0,.38-3.32A14.68,14.68,0,0,1,95.84,27.57Z" transform="translate(-10.99 -13.47)"/></g><path class="cls-11" d="M104.25,62.59l.2.13a.75.75,0,0,1-.2-1h0l8.57-12.44a.76.76,0,0,1,1.06-.2l-.18-.13a1.22,1.22,0,0,1,.32,1.7h0L106,62.27a1.23,1.23,0,0,1-1.71.32Z" transform="translate(-10.99 -13.47)"/><path class="cls-20" d="M113.73,48.91l.19.13h0l-9.44,13.7h0l-.19-.13a.57.57,0,0,1-.15-.79l8.8-12.77A.56.56,0,0,1,113.73,48.91Z" transform="translate(-10.99 -13.47)"/><rect class="cls-11" x="111.64" y="51.28" width="1.36" height="0.15" rx="0.06" transform="translate(-4.69 101.25) rotate(-55.44)"/></g><path class="cls-21" d="M276.1,260.77l-2.6-8.29s-2.18-5.88-1.83-9a18.76,18.76,0,0,0-.73-6.6l2.14-11.15s.12-1.21.11-2.82c0-2.67-.38-6.41-2.23-7.38-2.95-1.56-9-14.75-10.28-14.75s-5.35-.85-5.35-2.28v-.2a.3.3,0,0,0,0-.11l0-.06-.06-.13v0a3.66,3.66,0,0,0-.59-.77c5.51-1.05,11-2.2,16.45-3.55h-.2l.2,0a19.43,19.43,0,0,1-2.16-.15l-.16,0a21,21,0,0,1-17.18-15.31c-2.18-8.79,1.62-18,1.45-27A31,31,0,0,0,248.09,135c-.41-.65-.86-1.28-1.32-1.89a12.37,12.37,0,0,0,5.72-16.54,12.25,12.25,0,0,0-1-1.64c-.14-.2-.29-.39-.44-.59a12.4,12.4,0,0,1-2,15.35,12.29,12.29,0,1,0-21.54-11.86l-.12.22c-.26-.12-.53-.24-.79-.34a12.3,12.3,0,0,1,10.79-8.06l-.73,0a12.28,12.28,0,0,0-11.33,7.57,19,19,0,0,0-11.31-1,12.15,12.15,0,0,0-2,.72l.16-.14a9.44,9.44,0,0,0-2.56,1.63A30.67,30.67,0,0,0,206.7,122a15.42,15.42,0,0,1-3.43,3.12l.32-.17a16.42,16.42,0,0,1-15.28,2,19,19,0,0,0-4.23-1.53,6.41,6.41,0,0,0-3.35.49l.14-.11a8.66,8.66,0,0,0-3.52,2.64,17.09,17.09,0,0,0-3,7.06,23.28,23.28,0,0,0-.65,5.45,10.61,10.61,0,0,0,2,6.46c2.18,2.82,5.15,3.58,8.25,4.09-.09.32-.18.62-.26.94a28,28,0,0,0,19.33,33.75l.6,1,.2,0c1.44,2.44,3,5.18,4.48,7.81l.24.42L205.69,197h0a16.75,16.75,0,0,0-3.53,2.32,2.33,2.33,0,0,0-.66.92c-.42,1.42-2.67,5.1-4.23,6.09s-2.82,5.81-2.67,8.36-.85,2.28-3.39,2.42,0,3.82,0,3.82l.07.25c-.12.2-.25.42-.4.65-.65,1-1.51,2.11-2.13,2.05-1.13-.11-1.84,2.66-1.76,3.08s-2,3.82-2.75,4.18-4.09,1-3.17,4.2l-4,4.09-3.26,3.12s-4.65-2.62-12.19,5.54a6.8,6.8,0,0,1,2.5.23l-.21.11c-2,.94-5.43,2.54-8,3.58l-13.54.42v-10.1s-1.2-2.83-2.6,0l-.36,10.2-29.43,1,5.51-5.86h0l.07-.07a4.83,4.83,0,0,0,1.09-4.78l-23-72.34h0l-.16-.51a4,4,0,0,0-3.24-2.72l-32-4.32-.22,0-2.94.8a2.88,2.88,0,0,0-2,3.53l0,.05c.75,2.61,2,6.86,3.58,12.2H52.28l3.38,29.2,2.07,11.23c.52,2.87,1.14,5.72,1.84,8.55,1.7,6.84,5.05,21.42,5.13,29.88L40,285.22v5.48H198l0,.05h77s-.85-1.49,1-3.62.92-10.56.92-10.56-1-1.34.23-4.32S276.1,260.77,276.1,260.77ZM79.71,254.41l-4.2.13L71.6,229.13C74.5,238.41,77.3,247.25,79.71,254.41Zm108.16,15.44-2.73-5.56a3.08,3.08,0,0,0,1.77-.47c1.76-1.28,2.81-4.25,2.81-4.25l4.73-5.62.39-.47a19.74,19.74,0,0,0,3,5.8c2.25,2.56,2.54,9.92,3.23,12.62s.15,1.56,0,3.12a4.28,4.28,0,0,0,.09,1.13C198,272.81,193.61,269.77,187.87,269.85Z" transform="translate(-10.99 -13.47)"/><polygon class="cls-22" points="30.55 271.85 58.34 241.73 168.72 238.18 187.99 277.27 30.55 277.27 30.55 271.85"/><polygon class="cls-9" points="30.55 271.85 58.34 241.73 168.72 238.18 187.99 277.27 30.55 277.27 30.55 271.85"/><path class="cls-22" d="M185.33,282.81v1a2,2,0,0,1-2,2H124c-1.12,0,0-2.24,0-2.24L123.29,269a2.45,2.45,0,0,1,1.83-2.47,7.86,7.86,0,0,1,5.58.51l36.75-.94a12.4,12.4,0,0,1,2.28.11,10,10,0,0,1,6.74,4l8.44,11.46A2,2,0,0,1,185.33,282.81Z" transform="translate(-10.99 -13.47)"/><path class="cls-4" d="M185.33,283.85h0a2,2,0,0,1-2,2H124c-1.12,0,0-2.24,0-2.24a17.78,17.78,0,0,1,8.14-1.3l43.31-.94s5.11.12,8.11.44A2,2,0,0,1,185.33,283.85Z" transform="translate(-10.99 -13.47)"/><polygon class="cls-7" points="157.49 255.1 120.26 255.1 121.29 266.43 164.41 265.68 157.49 255.1"/><path class="cls-22" d="M105.35,276.53v3.93l-39,1.58s-8.92-.61-10-6.09a5,5,0,0,1,0-1.72c.39-2.31,2.37-6.34,11.1-8.2l10.74-1.11h24S105.26,268,105.35,276.53Z" transform="translate(-10.99 -13.47)"/><path class="cls-4" d="M105.35,276.65v3.81l-39,1.58s-8.92-.61-10-6.09a5,5,0,0,1,0-1.72s5.39,5.1,12.7,4.35l34.33-1.5A18.86,18.86,0,0,0,105.35,276.65Z" transform="translate(-10.99 -13.47)"/><ellipse class="cls-4" cx="75.41" cy="270.64" rx="11.99" ry="2.06" transform="translate(-24.82 -9.23) rotate(-2.95)"/><path class="cls-22" d="M79.21,269.67l-6.31,3.12-6.71-1.59,0-10.94c.42-8-3.26-24-5.08-31.22q-1-4.2-1.84-8.47l-2.06-11.12-3.36-28.89h8l4.7,6.73Z" transform="translate(-10.99 -13.47)"/><path class="cls-22" d="M79.21,269.67l-6.31,3.12-4-23.37c.08-4-4.91-22.89-5.24-23.67-4-9.49-7.39-45.18-7.39-45.18h5.57l4.7,6.72Z" transform="translate(-10.99 -13.47)"/><path class="cls-23" d="M79.21,269.67l-6.31,3.12-4-23.37c.08-4-4.91-22.89-5.24-23.67-4-9.49-7.39-45.18-7.39-45.18h5.57l4.7,6.72Z" transform="translate(-10.99 -13.47)"/><path class="cls-22" d="M116.83,248,95.34,270.64l-2.52.18-3.07.22A3.48,3.48,0,0,1,86.34,269C79.83,254.34,59,183.49,54.63,168.48A2.84,2.84,0,0,1,56.56,165h.06l2.93-.79.22,0,31.31,4.2a4.77,4.77,0,0,1,3.9,3.28l22.92,71.61A4.78,4.78,0,0,1,116.83,248Z" transform="translate(-10.99 -13.47)"/><path class="cls-4" d="M116.83,248,95.34,270.64l-2.52.18-3.07.22A3.48,3.48,0,0,1,86.34,269C79.83,254.34,59,183.49,54.63,168.48A2.84,2.84,0,0,1,56.56,165h.06l2.93-.79.22,0,31.31,4.2a4.77,4.77,0,0,1,3.9,3.28l22.92,71.61A4.78,4.78,0,0,1,116.83,248Z" transform="translate(-10.99 -13.47)"/><path class="cls-22" d="M116.76,248.07,95.34,270.65l-2.52.17L60.69,167.94a9.8,9.8,0,0,1-.91-3.76l31.83,4.27a3.94,3.94,0,0,1,3.23,2.7l23,72A5,5,0,0,1,116.76,248.07Z" transform="translate(-10.99 -13.47)"/><path class="cls-7" d="M115.19,244.27a5,5,0,0,1-.87,1.08L93.24,265,64.48,169.62l27.62,2.73a4.84,4.84,0,0,1,4.16,3.43l19.4,64.61A4.88,4.88,0,0,1,115.19,244.27Z" transform="translate(-10.99 -13.47)"/><path class="cls-4" d="M115.19,244.27,92.1,172.35a4.84,4.84,0,0,1,4.16,3.43l19.4,64.61A4.88,4.88,0,0,1,115.19,244.27Z" transform="translate(-10.99 -13.47)"/><circle class="cls-24" cx="228.01" cy="112.04" r="12.23"/><path class="cls-24" d="M226.65,123.7a12.23,12.23,0,0,1,11.49-12.21l-.72,0a12.23,12.23,0,1,0-.4,24.45,2.67,2.67,0,0,0,.4,0c.24,0,.48,0,.72,0A12.22,12.22,0,0,1,226.65,123.7Z" transform="translate(-10.99 -13.47)"/><path class="cls-4" d="M228.23,125.51a12.22,12.22,0,0,1,11.5-12.2l-.73,0a12.23,12.23,0,0,0,0,24.45c.25,0,.49,0,.73,0A12.23,12.23,0,0,1,228.23,125.51Z" transform="translate(-10.99 -13.47)"/><path class="cls-25" d="M176.07,262.6a32.75,32.75,0,0,1-3.52,1.6c-3.15,1.24-7.94,2.66-12.4,2.12-7.51-.92-12,1.54-12,1.54l-1.68-12.49s5.53-1.63,7.78-2c1.69-.33,7.78-3.13,10.7-4.51,1-.45,1.58-.75,1.58-.75h5.62Z" transform="translate(-10.99 -13.47)"/><path class="cls-4" d="M176.07,262.6a32.75,32.75,0,0,1-3.52,1.6c-.38-11.12-4.65-14.42-7.6-15.37,1-.45,1.58-.75,1.58-.75h5.62Z" transform="translate(-10.99 -13.47)"/><path class="cls-26" d="M196.84,225.28v27.35l-1.47,1.74-4.7,5.56a10.59,10.59,0,0,1-2.81,4.21c-1.76,1.28-5.76-.42-5.76-.42L181,265.54s-2.52.5-3.72,0-4.14,1.41-4.14,1.41c.43-20.07-10.45-18.45-10.45-18.45,7.51-8.07,12.14-5.47,12.14-5.47l3.23-3.09,4-4.05c-.91-3.14,2.39-3.81,3.16-4.16s2.81-3.72,2.74-4.14.63-3.16,1.75-3.05c.62.06,1.48-1,2.13-2,.51-.8.89-1.52.89-1.52Z" transform="translate(-10.99 -13.47)"/><path class="cls-26" d="M206.55,197.94l8.27-4.24-.47,5,1.63,5s-1.49,3.86-1.68,4.28-3.74,9.22-3.74,9.22l-2.85-3.6Z" transform="translate(-10.99 -13.47)"/><polyline class="cls-4" points="196.72 200.06 195.56 184.47 203.83 180.24"/><path class="cls-25" d="M242.09,193.29s-2.75,4-6.52,9c-8.75,11.72-23,29.3-20.83,16.54.07-.41.12-.83.17-1.25-.53.36-1.76.05-3.09-.59l-.09,0a14.9,14.9,0,0,1-1.9-1.1l-.2-.14c-1.48-1-2.67-2.24-2.61-3.07,1.06-18.31,5.32-9.58,6.52-7.55a1.19,1.19,0,0,0,.27.39,4.22,4.22,0,0,0-.18-.45,86.53,86.53,0,0,0-4.28-8.44v0l-.24-.44c-1.52-2.71-3.17-5.56-4.66-8.05l-.4-.67c-2.34-3.94-4.17-6.87-4.17-6.87s10.65-9.74,19.63-15.66c7.49-5,13.83-7.23,11.8,1.07a24.93,24.93,0,0,0,.28,13.67l.14.42a22.71,22.71,0,0,0,.83,2.12,26.11,26.11,0,0,0,1.46,2.77A26.79,26.79,0,0,0,242.09,193.29Z" transform="translate(-10.99 -13.47)"/><path class="cls-23" d="M225.53,178.5c-5.05,5.49-6.12,10.75-14.17,10.75a28,28,0,0,1-6.94-.88c-2.53-4.27-4.56-7.54-4.56-7.54s35.89-32.82,31.43-14.59C229.93,171.74,224.22,174.63,225.53,178.5Z" transform="translate(-10.99 -13.47)"/><path class="cls-25" d="M239,160.74a27.65,27.65,0,1,1-27.64-27.64h0A27.52,27.52,0,0,1,239,160.49Z" transform="translate(-10.99 -13.47)"/><path class="cls-4" d="M210.73,208.58s.49,7.86,5.47,7.23,1.19,16.69,1.19,16.69l-5.53,5.05-6,1.84s-5.26-1.54-5.19-1.83,2.1-16.69,2.1-16.69l3.09-8.77Z" transform="translate(-10.99 -13.47)"/><path class="cls-22" d="M210.73,209.14s.49,7.86,5.47,7.23,1.19,16.7,1.19,16.7l-5.53,5.05-6,1.82s-5.26-1.54-5.19-1.82,2.11-16.7,2.11-16.7l3.08-8.77Z" transform="translate(-10.99 -13.47)"/><path class="cls-4" d="M196.84,225.28v27.35l-1.47,1.74c-1.51-4-2.67-9.47-2-14.37.92-6.49-.92-14.8-1.6-17.49.52-.79.9-1.52.9-1.52Z" transform="translate(-10.99 -13.47)"/><path class="cls-4" d="M211.36,210a16.13,16.13,0,0,1-1.19,4.48c-.18.43-.37.85-.55,1.24-1.48-1-2.67-2.24-2.61-3.07,1.06-18.31,5.32-9.58,6.52-7.55C212.94,205.53,211.63,206.83,211.36,210Z" transform="translate(-10.99 -13.47)"/><path class="cls-4" d="M213.62,205a96.38,96.38,0,0,0-4.54-8.91l.25-.12,4.46,8.91A1,1,0,0,0,213.62,205Z" transform="translate(-10.99 -13.47)"/><path class="cls-4" d="M242.09,193.29s-30.45,43.77-27.35,25.53c.07-.41.12-.83.17-1.25-.54.37-1.81,0-3.18-.63.21-1.22.32-2.05.32-2.05l3.37-9.54s2-7.57,1.69-9.11l.09-.06L234,184.93h0A26.88,26.88,0,0,0,242.09,193.29Z" transform="translate(-10.99 -13.47)"/><path class="cls-26" d="M273.66,226.4l-2.39,12.34-7.16,52.05H202s1.12-9.12,1.12-10.52-1.26-3.51-1.12-5,.68-.43,0-3.09-1-10-3.21-12.49S192.85,247.85,194,240s-1.82-18.38-1.82-18.38-2.53-3.65,0-3.79,3.51.13,3.37-2.39,1.12-7.29,2.66-8.27,3.79-4.63,4.21-6a2.35,2.35,0,0,1,.65-.91,19,19,0,0,1,3.83-2.45l2.46-1.23v0l4.45,8.88s-2.08,1-2.43,5.08a16.13,16.13,0,0,1-1.19,4.48c-.11.28-.23.55-.35.82-.36.79-.73,1.5-1,2.06h0c-.46.83-.79,1.34-.79,1.34s-.12.95-.31,2.28h0a73.93,73.93,0,0,1-1.38,8.08c-.32.92-1,2.5-1.33,3.91a5.4,5.4,0,0,0-.24,2.24.53.53,0,0,0,0,.12c.42,1.3,2.52-4.3,2.52-4.3s1.55-4.77,2.25-4.77c.54,0,1.75-6.73,2.28-9.84.16-.93.25-1.53.25-1.53l3.37-9.54s.47-1.8.91-3.82a21.85,21.85,0,0,0,.77-5.3l.1-.06L234,185.46h0l.25-.17h0c-.12,0-.46-.21-1.11-1.73-.16-.39-.35-.86-.55-1.44,0,0,5.36-2.15,7.27-.57a1.72,1.72,0,0,1,.32.34,1.09,1.09,0,0,1,.14.23c1.27,2.61,1.83,4.56,3.09,6.25a5.37,5.37,0,0,0,.44.51c1.53,1.6,4.56,3.47,4,4s4.21,2.93,4.21,2.93,2.79,1.59,3.67,2.93a1.39,1.39,0,0,1,.26.71c0,1.4,4.07,2.24,5.33,2.24s7.3,13.05,10.24,14.59S273.66,226.4,273.66,226.4Z" transform="translate(-10.99 -13.47)"/><g class="cls-15"><path d="M210.71,205.47s-2.09,1-2.44,5.07a15.47,15.47,0,0,1-1.19,4.48,31.65,31.65,0,0,1-1.38,2.88h0c-.46.83-.79,1.34-.79,1.34s-.12.95-.3,2.28h0a75.6,75.6,0,0,1-1.39,8.1c-.32.92-1,2.5-1.33,3.91a5.37,5.37,0,0,0-.24,2.23.61.61,0,0,0,0,.13c.42,1.3,2.52-4.3,2.52-4.3s1.55-4.77,2.25-4.77c.2,0,.49-.93.81-2.26.16-1.07.32-2.13.43-3h0c.18-1.34.3-2.28.3-2.28s.19-.29.48-.78c.3-1.72.5-3,.5-3l3.37-9.53s.25-1,.55-2.25l-3.58-7.12-2.45,1.23h0Z" transform="translate(-10.99 -13.47)"/><path d="M271.55,216.3c-2.93-1.55-9-14.6-10.24-14.6s-5.33-.84-5.33-2.24-3.93-3.65-3.93-3.65-4.77-2.38-4.21-2.93-2.52-2.38-4.05-4c-.15-.16-.3-.33-.44-.51-1.26-1.69-1.82-3.65-3.09-6.24a1.16,1.16,0,0,0-.14-.24,1.72,1.72,0,0,0-.32-.34c-.86-.71-2.41-.65-3.86-.4a2.27,2.27,0,0,1,.77.4,2.13,2.13,0,0,1,.33.34,1.88,1.88,0,0,1,.14.24c1.26,2.6,1.82,4.55,3.08,6.24a5.35,5.35,0,0,0,.45.5c1.53,1.6,4.56,3.47,4,4S249,195.8,249,195.8s3.92,2.24,3.92,3.65,4.07,2.24,5.34,2.24,7.29,13.05,10.24,14.59,2.1,10.1,2.1,10.1l-2.39,12.36L261,290.79h3.09l7.16-52.05,2.39-12.35S274.5,217.84,271.55,216.3Z" transform="translate(-10.99 -13.47)"/></g><path class="cls-25" d="M149,255.63s-17.84-5.17-19.11,2.76,7.3,12.49,12.77,12.35,7.86-5.34,7.86-5.34Z" transform="translate(-10.99 -13.47)"/><path class="cls-25" d="M238.51,280s-4,2.87-12.49,2.87a119.49,119.49,0,0,0-18.38,1.83S195,255,169.69,280.41c0,0-4.56,5.9,19.08,6.52,0,0,8.35-.28,10.17,3.85h47.21l6.46-4.83Z" transform="translate(-10.99 -13.47)"/><path class="cls-22" d="M143.52,242.81s-1.19-2.8-2.6,0l-.77,21.75,1.68,5.13,1.68-4.56Z" transform="translate(-10.99 -13.47)"/><path class="cls-4" d="M240.12,181.9a24.17,24.17,0,0,0-5.92,3.4c-.15,0-.65-.32-1.66-3.17C232.53,182.13,238.59,179.7,240.12,181.9Z" transform="translate(-10.99 -13.47)"/><path class="cls-26" d="M213.79,205.47s-2.08,1-2.43,5.07a16.13,16.13,0,0,1-1.19,4.48l-1.37,2.88h0l-1.09,3.63h0l.11,7.38L205,233.53l-.24,2.23-.73,6.91-3.79-1.82s1.56-11.14,2.73-13.4,2.74-14.21,2.74-14.21-.07-4.38.49-5.15-1-.64-1.12-2.25a32,32,0,0,0-2-5.61,18.46,18.46,0,0,1,3.83-2.46l2.46-1.22Z" transform="translate(-10.99 -13.47)"/><path class="cls-4" d="M213.79,205.47s-2.08,1-2.43,5.07a16.13,16.13,0,0,1-1.19,4.48l-1.37,2.88h0l-1.09,3.63h0l.11,7.38L205,233.53l-.24,2.23-.73,6.91-3.79-1.82s1.56-11.14,2.73-13.4,2.74-14.21,2.74-14.21-.07-4.38.49-5.15-1-.64-1.12-2.25a32,32,0,0,0-2-5.61,18.46,18.46,0,0,1,3.83-2.46l2.46-1.22Z" transform="translate(-10.99 -13.47)"/><path class="cls-4" d="M243.79,189.45c-3.13,2.56-11.54,9.82-12.51,14.76-1.19,6.08-4.77,5.49-4.77,5.49C222,200,219,197.63,217.2,197.3L234,186h0l.25-.17h0c-.12,0-.46-.2-1.11-1.73l6.72-2a1.72,1.72,0,0,1,.32.34,1.09,1.09,0,0,1,.14.23c1.27,2.61,1.83,4.56,3.09,6.25C243.49,189.12,243.64,189.29,243.79,189.45Z" transform="translate(-10.99 -13.47)"/><path class="cls-26" d="M243.79,188.89c-3.13,2.56-11.54,9.82-12.51,14.76-1.19,6.08-4.77,5.49-4.77,5.49-4.47-9.69-7.54-12.08-9.31-12.4L234,185.49h0l.25-.18h0c-.12,0-.46-.2-1.11-1.73l6.72-2a2.05,2.05,0,0,1,.32.34,1.16,1.16,0,0,1,.14.24c1.27,2.6,1.83,4.55,3.09,6.24A5.15,5.15,0,0,0,243.79,188.89Z" transform="translate(-10.99 -13.47)"/><path class="cls-4" d="M224.83,238c.21-.06,11.14-6.25,9.89-1.55S224.83,238,224.83,238Z" transform="translate(-10.99 -13.47)"/><path class="cls-4" d="M177.54,244s5.75,8.95,7.79,8.67S177.54,244,177.54,244Z" transform="translate(-10.99 -13.47)"/><path class="cls-4" d="M184.71,240.64s.35,7,3.37,7.44S184.71,240.64,184.71,240.64Z" transform="translate(-10.99 -13.47)"/><path class="cls-4" d="M216.62,263s7.14,11.88,5.75,16Z" transform="translate(-10.99 -13.47)"/><path class="cls-4" d="M224.9,264.35s9.66,12.7,8,13.75S224.9,264.35,224.9,264.35Z" transform="translate(-10.99 -13.47)"/><path class="cls-4" d="M203.17,244s-1,9,2.74,11.66Z" transform="translate(-10.99 -13.47)"/><path class="cls-4" d="M246.51,203.81S230,216.65,232.62,230s5.2,14.31,5.2,14.31,1,5.33,2.81,7.58,1.54,3.71,1.54,3.71,1.69-.77,2.25,3.09a12.5,12.5,0,0,0,3.5,6.59s1,3.09-1.54,4.77-1.95,3.51-1.95,3.51l-10.25,6,11.41,11.29h29.47s-.84-1.47,1-3.58.91-10.45.91-10.45-1-1.34.23-4.28-1.07-11.37-1.07-11.37l-2.61-8.21s-2.17-5.82-1.82-8.94a18.47,18.47,0,0,0-.72-6.53l-5.65-17.85S265.59,201.78,246.51,203.81Z" transform="translate(-10.99 -13.47)"/><path class="cls-26" d="M247.07,203.81S230.51,216.65,233.18,230s5.19,14.31,5.19,14.31,1,5.33,2.81,7.58,1.54,3.71,1.54,3.71,1.68-.77,2.25,3.09a12.5,12.5,0,0,0,3.5,6.59s1,3.09-1.54,4.77-2,3.51-2,3.51l-10.24,6,11.44,11.29h29.46s-.84-1.47,1-3.58.91-10.45.91-10.45-1-1.34.23-4.28-1.08-11.37-1.08-11.37l-2.6-8.21s-2.18-5.82-1.82-8.94a18.36,18.36,0,0,0-.73-6.53l-5.65-17.85S266.15,201.78,247.07,203.81Z" transform="translate(-10.99 -13.47)"/><path class="cls-4" d="M252.61,212.86s11.79,4,14.94,6S262.92,211,252.61,212.86Z" transform="translate(-10.99 -13.47)"/><path class="cls-4" d="M258.78,273.54s16.77,2.11,15.79,5.41S258.78,273.54,258.78,273.54Z" transform="translate(-10.99 -13.47)"/><path class="cls-4" d="M255.5,277.12s12.26,3.93,10.09,7.16S255.5,277.12,255.5,277.12Z" transform="translate(-10.99 -13.47)"/><path class="cls-4" d="M255.72,198.75c-6.69,1.3-13.42,2.42-20.15,3.53l-1.75.29a66.71,66.71,0,0,1-11.17,1.2,11.43,11.43,0,0,1-5.33-1,5.67,5.67,0,0,1-1-.65,4.75,4.75,0,0,1-1.94-3.67c0-2.63,2.51-4.45,4.65-6,3.14-2.22,6.24-5,7.45-8.59a9.53,9.53,0,0,0,.47-2c.36-3-.74-6-1.91-8.79-1.28-3-3-6.32-5.59-8.17a7.62,7.62,0,0,0-3.52-1.42c-3.93-.52-7.65,2.28-11.61,2.12-3.22-.14-6-2.2-7.9-4.64-1.41-1.77-2.3-4.14-4.42-5.19-2.3-1.14-4.91-1.41-7.47-1.79a27.64,27.64,0,1,1,47,25.68c0,.14.08.28.13.41a20.31,20.31,0,0,0,.84,2.12s5.36-2.15,7.27-.57a1.72,1.72,0,0,1,.32.34,1.09,1.09,0,0,1,.14.23c1.27,2.61,1.83,4.56,3.09,6.25a5.37,5.37,0,0,0,.44.51c1.53,1.6,4.56,3.47,4.05,4s4.21,2.93,4.21,2.93S254.84,197.41,255.72,198.75Z" transform="translate(-10.99 -13.47)"/><path class="cls-24" d="M176.62,148.94c-2.5-3.22-2.23-7.77-1.31-11.73a17.11,17.11,0,0,1,3-7,7.66,7.66,0,0,1,6.7-3,18.83,18.83,0,0,1,4.24,1.51,16.39,16.39,0,0,0,18.3-4.85,31.22,31.22,0,0,1,2.88-3.59,10.3,10.3,0,0,1,4.42-2.23c7.08-1.78,14.37,1.73,20.42,5.81,5.16,3.47,10.07,7.53,13.46,12.75a30.64,30.64,0,0,1,4.89,16c.17,9-3.62,18.05-1.45,26.77a20.76,20.76,0,0,0,19.42,15.3c-12.19,3-24.58,5-37,7.08a65.79,65.79,0,0,1-11.17,1.2,11.5,11.5,0,0,1-5.33-1,5.16,5.16,0,0,1-2.93-4.32c0-2.63,2.51-4.44,4.65-6,3.72-2.64,7.38-6.12,7.92-10.65.35-3-.74-6-1.91-8.79-1.79-4.26-4.52-9-9.1-9.6-3.93-.52-7.66,2.28-11.62,2.12-3.22-.14-5.95-2.21-7.89-4.64-1.41-1.77-2.3-4.14-4.42-5.19C187.62,152.26,180.71,154.21,176.62,148.94Z" transform="translate(-10.99 -13.47)"/><path class="cls-24" d="M248.27,132.54a12.21,12.21,0,0,0,3.47-16.4l.44.58A12.23,12.23,0,0,1,232.3,131c-.07-.11-.15-.21-.22-.31s-.27-.41-.39-.62A12.22,12.22,0,0,0,248.27,132.54Z" transform="translate(-10.99 -13.47)"/><g class="cls-15"><path d="M209.53,122.65a31.11,31.11,0,0,1,2.88-3.58c.19-.17.38-.33.58-.48a9.09,9.09,0,0,0-2.54,1.6,29.3,29.3,0,0,0-2.88,3.58,14.88,14.88,0,0,1-3.42,3.11A15.32,15.32,0,0,0,209.53,122.65Z" transform="translate(-10.99 -13.47)"/><path d="M236.63,200.55a66.71,66.71,0,0,1-11.17,1.2,11.4,11.4,0,0,1-5.33-1,5.11,5.11,0,0,1-2.92-4.32c0-2.62,2.51-4.44,4.66-6,3.72-2.63,7.38-6.12,7.91-10.64.36-3-.74-6-1.91-8.79-1.79-4.27-4.51-9-9.1-9.6-3.93-.53-7.65,2.28-11.61,2.11-3.22-.13-5.95-2.2-7.89-4.63-1.42-1.78-2.31-4.15-4.43-5.2-5.26-2.6-12.17-.65-16.28-5.93-2.49-3.22-2.22-7.77-1.3-11.72a17,17,0,0,1,3-7,8.63,8.63,0,0,1,1.53-1.49,8.77,8.77,0,0,0-3.5,2.61,16.79,16.79,0,0,0-3,7c-.92,4-1.19,8.52,1.31,11.72,4.09,5.28,11,3.32,16.28,5.94,2.12,1,3,3.42,4.42,5.21,1.95,2.42,4.67,4.5,7.89,4.63,4,.17,7.69-2.64,11.62-2.12,4.58.61,7.31,5.34,9.09,9.61,1.18,2.79,2.28,5.77,1.92,8.79-.54,4.52-4.2,8-7.92,10.64-2.14,1.52-4.64,3.34-4.66,6a5.14,5.14,0,0,0,2.94,4.32,11.53,11.53,0,0,0,5.33,1,66.6,66.6,0,0,0,11.17-1.2c12.37-2.05,24.76-4.09,36.95-7.08a19.6,19.6,0,0,1-2.16-.15C258.62,196.92,247.62,198.73,236.63,200.55Z" transform="translate(-10.99 -13.47)"/></g><ellipse class="cls-25" cx="133.73" cy="245.97" rx="5.34" ry="2.92"/></svg>