<svg id="Layer_1" data-name="Layer 1" xmlns="http://www.w3.org/2000/svg" viewBox="0 0 280.51 268.71"><defs><style>.cls-1{fill:#f2f2f2;}.cls-2{fill:#3f3d56;}.cls-3{opacity:0.1;isolation:isolate;}.cls-4{fill:#2f2e41;}.cls-5{fill:#fb503b;}.cls-6{fill:#ffb9b9;}.cls-7{fill:#d0cde1;}.cls-8{fill:#6c63ff;}.cls-9{fill:#4dba87;}.cls-10{fill:#435466;}</style></defs><title>what-2</title><path class="cls-1" d="M307.56,118.56C293,61.15,242.51,19.71,183.3,18.05c-31.31-.88-64.25,9.5-88.23,45.83C52.2,128.83,97.7,173.71,129.43,195a198,198,0,0,1,41,36.88c21.43,25.43,62.66,57,111.76,7.51C317.81,203.55,317.28,156.8,307.56,118.56Z" transform="translate(-67 -18)"/><path class="cls-2" d="M347.18,246.41c0,14.09-61.49,40.3-139,40.3S67,262.13,67,248s63.77-12.35,141.23-12.35S347.18,232.32,347.18,246.41Z" transform="translate(-67 -18)"/><path class="cls-3" d="M347.18,246.41c0,14.09-61.49,40.3-139,40.3S67,262.13,67,248s63.77-12.35,141.23-12.35S347.18,232.32,347.18,246.41Z" transform="translate(-67 -18)"/><ellipse class="cls-2" cx="140.25" cy="229.87" rx="140.25" ry="25.52"/><polygon class="cls-4" points="193.35 143.09 193.35 211.33 204.77 229.94 205.63 231.35 250.67 231.35 251.58 143.09 193.35 143.09"/><polygon class="cls-3" points="193.35 143.09 193.35 211.33 204.77 229.94 205.47 143.09 193.35 143.09"/><polygon class="cls-4" points="84.62 141.28 84.62 209.51 73.21 228.12 72.34 229.53 27.3 229.53 26.39 141.28 84.62 141.28"/><polygon class="cls-3" points="84.62 141.28 84.62 209.51 73.21 228.12 72.51 141.28 84.62 141.28"/><polygon class="cls-4" points="265.23 139.91 265.23 144 20.48 144 20.48 138.09 43.22 126.26 245.22 126.26 265.23 139.91"/><polygon class="cls-3" points="265.23 139.91 265.23 144 20.48 144 20.48 138.09 265.23 139.91"/><polygon class="cls-3" points="55.51 160.38 44.59 160.38 40.04 157.2 60.51 157.2 55.51 160.38"/><polygon class="cls-3" points="55.51 173.57 44.59 173.57 40.04 170.39 60.51 170.39 55.51 173.57"/><polygon class="cls-3" points="55.51 192.23 44.59 192.23 40.04 189.04 60.51 189.04 55.51 192.23"/><polygon class="cls-3" points="55.51 210.88 44.59 210.88 40.04 207.69 60.51 207.69 55.51 210.88"/><polygon class="cls-3" points="222.47 162.2 233.39 162.2 237.94 159.02 217.46 159.02 222.47 162.2"/><polygon class="cls-3" points="222.47 175.4 233.39 175.4 237.94 172.21 217.46 172.21 222.47 175.4"/><polygon class="cls-3" points="222.47 194.05 233.39 194.05 237.94 190.86 217.46 190.86 222.47 194.05"/><polygon class="cls-3" points="222.47 212.7 233.39 212.7 237.94 209.51 217.46 209.51 222.47 212.7"/><path class="cls-2" d="M240.09,132.88l-1.52,9.69s-7.47,4-2.22,4.08,30,0,30,0,4.79,0-2.8-4.2L262,132.29Z" transform="translate(-67 -18)"/><path class="cls-3" d="M235.3,146.55a20.39,20.39,0,0,1,3.27-2.17l1.52-9.69,21.94,0,1.52,9.55a20.46,20.46,0,0,1,3.51,2.31c1-.22,2-1-3.51-4.12L262,132.29l-21.94.59-1.52,9.69S232.29,145.9,235.3,146.55Z" transform="translate(-67 -18)"/><rect class="cls-2" x="134.51" y="47.35" width="98.87" height="68.87" rx="3.48"/><rect class="cls-1" x="137.84" y="51.03" width="92.22" height="51.59"/><circle class="cls-1" cx="183.94" cy="49.39" r="0.58"/><path class="cls-2" d="M300.38,124.71v6a3.48,3.48,0,0,1-3.48,3.48H205a3.48,3.48,0,0,1-3.48-3.48h0v-6Z" transform="translate(-67 -18)"/><circle class="cls-1" cx="183.94" cy="111.49" r="2.22"/><polygon class="cls-2" points="180.49 134.96 180.49 136.12 117.69 136.12 117.69 135.19 117.77 134.96 119.32 130.75 179.2 130.75 180.49 134.96"/><path class="cls-2" d="M271.66,151.81c-.12.49-.55,1-1.53,1.5-3.5,1.75-10.62-.47-10.62-.47s-5.49-.94-5.49-3.39a4.76,4.76,0,0,1,.49-.28c1.47-.78,6.35-2.7,15,.08a3.61,3.61,0,0,1,1.64,1.08A1.73,1.73,0,0,1,271.66,151.81Z" transform="translate(-67 -18)"/><path class="cls-3" d="M271.66,151.81c-4.29,1.64-8.11,1.77-12-1a8.6,8.6,0,0,0-5.12-1.68c1.47-.78,6.35-2.7,15,.08a3.61,3.61,0,0,1,1.64,1.08A1.73,1.73,0,0,1,271.66,151.81Z" transform="translate(-67 -18)"/><ellipse class="cls-1" cx="199.28" cy="132.39" rx="1.52" ry="0.47"/><polygon class="cls-3" points="180.49 134.96 180.49 136.12 117.69 136.12 117.69 135.19 117.77 134.96 180.49 134.96"/><path class="cls-5" d="M283.38,93.39c-.5-.49-6.86-8.5-7.93-9.82s-1.65-1.08-2.4-1-8.75,1.48-9.66,1.56-1.48.5-.91,1.33,5.78,8.17,6.94,9.91l-21.06,5-16.68-28c-.66-1-.82-1.32-2.31-1.24s-13.13,1.07-14,1.07-1.73.42-.91,2.4,14,30.39,14.37,31.21a2.83,2.83,0,0,0,3.55,1.65c2.32-.57,10.24-2.64,14.62-3.79,2.31,4.12,6.94,12.55,7.85,13.79,1.15,1.65,2,1.32,3.71.82,1.41-.41,21.64-7.68,22.55-8.09s1.48-.66.82-1.57c-.49-.66-5.78-7.84-8.59-11.56,1.9-.5,8.76-2.31,9.5-2.56s1-.66.5-1.16Zm-38.24,7.85c-.25.08-12.06,2.89-12.63,3.05s-.66.09-.66-.16c-.17-.25-14-29-14.29-29.32s-.17-.66,0-.66,11.15-1,11.48-1,.33.08.49.33l15.69,27.09c.33.41.17.58-.08.66Zm33.2,6.19c.16.33.41.5-.25.66s-19.9,6.77-20.31,6.94-.66.25-1.16-.5S249.85,103,249.85,103l20.56-5.37c.5-.16.66-.24,1,.25s6.77,9.33,6.94,9.58Zm1.32-14.53c-.5.08-8,2-8,2l-6.19-8.42c-.17-.25-.33-.5.08-.58s7.43-1.32,7.76-1.41.58-.16,1,.42,5.7,7.26,5.95,7.51-.08.42-.58.5Z" transform="translate(-67 -18)"/><circle class="cls-6" cx="128.27" cy="50.67" r="12.43"/><path class="cls-6" d="M186.11,74.89V94.52H206.4s-2.62-16.36-1.31-21.27Z" transform="translate(-67 -18)"/><path class="cls-7" d="M226.35,101.39s-19.3-9.49-19.3-10.14-2-4.91-3.27-4.91-12.43-3.6-18.65,1.63l-.65,4.26-23.88,15.7,6.54,23.88s4.25,4.58,2.94,7.85,1,20,1,20L222.43,158V135.74a51.51,51.51,0,0,1,2.61-6.87c1-1.64,0-6.55,0-6.55l7.86-9.81S231.91,103.35,226.35,101.39Z" transform="translate(-67 -18)"/><path class="cls-3" d="M161.41,115.94l1.48-8s-8.51,37-7.53,41.22,8.18,10.8,9.16,11.12,10.14-28.13,10.14-28.13Z" transform="translate(-67 -18)"/><path class="cls-7" d="M166.16,107l-5.56,1s-8.51,37-7.53,41.22,8.18,10.8,9.16,11.12,10.14-28.13,10.14-28.13Z" transform="translate(-67 -18)"/><path class="cls-3" d="M228.15,117.91l2.78-5.4s3.93,37,1.31,40.57-13,4.94-13,4.94l-.12-26.86Z" transform="translate(-67 -18)"/><path class="cls-7" d="M228.64,108.26l4.26,4.25s3.92,37,1.3,40.57-13,4.94-13,4.94l-.11-26.86Z" transform="translate(-67 -18)"/><path class="cls-2" d="M165.18,164.53s-9.49-3.6-11.13,3.27S158,205.42,158,205.42s3.6,23.23,5.89,23.88,12.43,1,14.06-2-4.9-33-4.9-33l37.95-.66s-2.29,26.17-3.6,28.46-1.31,10.15,0,10.15,15.7-.66,16.68-2.62,6.55-46.13,6.55-46.13,4.58-15.37-.66-14.39S165.18,164.53,165.18,164.53Z" transform="translate(-67 -18)"/><path class="cls-4" d="M221.12,228.32s3.27-2.29,4.9,0,2.3,4.91-4.9,8.83-12.76,2.95-12.76,2.29V230Z" transform="translate(-67 -18)"/><path class="cls-4" d="M164.52,227.34s-3.27-2.29-4.91,0-2.29,4.91,4.91,8.83,12.76,3,12.76,2.29V229Z" transform="translate(-67 -18)"/><path class="cls-4" d="M195.35,53a10.32,10.32,0,0,0-3.65.52,14.35,14.35,0,0,0-2.6,1.37l-5.49,3.42a2.57,2.57,0,0,0-1.55,2.39l-.68,5.14a6.62,6.62,0,0,0,.25,3.85,10.36,10.36,0,0,0,2.16,2.43,8.82,8.82,0,0,1,2.35,4.57c.4,2.15.15,4.73,1.84,6.1a5.78,5.78,0,0,0,3.35.95,50.3,50.3,0,0,0,9.66-.37,3,3,0,0,0,2.73-1.93c1.23-2.09,2.49-4.31,2.48-6.73,0-1.2-.31-2.48.26-3.53a14,14,0,0,1,1-1.28,7.16,7.16,0,0,0,1-3.51c.37-3.9,0-6.87-2.9-9.62A14.85,14.85,0,0,0,195.35,53Z" transform="translate(-67 -18)"/><polygon class="cls-4" points="97.82 185.18 86.9 240.68 92.36 240.68 102.82 186.09 97.82 185.18"/><polygon class="cls-4" points="132.85 189.72 139.67 253.42 144.22 253.42 140.13 187.91 132.85 189.72"/><polygon class="cls-4" points="151.5 187.91 161.05 230.21 165.6 230.21 156.5 187 151.5 187.91"/><polygon class="cls-4" points="115.1 187.91 113.74 221.57 117.38 221.57 120.11 187.91 115.1 187.91"/><path class="cls-8" d="M157.08,197.26s-7.28-48.68,13.2-50,49.58,0,49.58,0,16.84-1.37,11.83,50c0,0,4.55,15-36.39,13.65S157.08,197.26,157.08,197.26Z" transform="translate(-67 -18)"/><path class="cls-8" d="M343.61,217.14c0,8.49-5.05,11.45-11.27,11.45s-11.27-3-11.27-11.45,11.27-19.29,11.27-19.29S343.61,208.65,343.61,217.14Z" transform="translate(-67 -18)"/><polygon class="cls-2" points="265.04 202.19 269.85 193.4 265.06 201.07 265.11 197.88 268.42 191.52 265.13 197.04 265.22 191.29 268.76 186.23 265.23 190.39 265.29 179.85 264.94 193.2 261.35 187.71 264.9 194.33 264.56 200.74 264.55 200.57 260.4 194.77 264.54 201.18 264.5 201.98 264.49 201.99 264.49 202.06 263.64 210.62 264.78 210.62 264.92 209.93 269.05 203.53 264.93 209.29 265.04 202.19"/><polygon class="cls-4" points="272.54 229.01 259.1 229.01 255.63 209.38 275.25 209.38 272.54 229.01"/><rect class="cls-2" x="47.13" y="96.31" width="27.95" height="32.77"/><rect class="cls-1" x="51.47" y="101.39" width="19.28" height="22.6"/><path class="cls-9" d="M130,124.19l-2,3.4-2-3.4h-6.51l8.47,14.69,8.48-14.69Z" transform="translate(-67 -18)"/><path class="cls-10" d="M130,124.19l-2,3.4-2-3.4H123l5.08,8.81,5.09-8.81Z" transform="translate(-67 -18)"/></svg>