<svg id="Layer_1" data-name="Layer 1" xmlns="http://www.w3.org/2000/svg" xmlns:xlink="http://www.w3.org/1999/xlink" viewBox="0 0 311 238.96"><defs><style>.cls-1,.cls-4,.cls-9{fill:#6c63ff;}.cls-1,.cls-2,.cls-5,.cls-8{opacity:0.1;}.cls-1,.cls-10,.cls-11,.cls-12,.cls-5,.cls-8,.cls-9{isolation:isolate;}.cls-3{fill:#3f3d56;}.cls-6{fill:#d0d2d5;}.cls-7{fill:#fff;}.cls-8{fill:#444053;}.cls-9{opacity:0.3;}.cls-10{fill:#fa5959;}.cls-10,.cls-11,.cls-12{opacity:0.8;}.cls-11{fill:#fed253;}.cls-12{fill:#8ccf4d;}.cls-13{fill:url(#linear-gradient);}.cls-14{fill:#2f2e41;}.cls-15{fill:#454b69;}.cls-16{fill:#fbbebe;}</style><linearGradient id="linear-gradient" x1="340.91" y1="-3.29" x2="340.91" y2="96.57" gradientTransform="matrix(1, -0.04, -0.04, -1, -96.76, 274.36)" gradientUnits="userSpaceOnUse"><stop offset="0" stop-color="gray" stop-opacity="0.25"/><stop offset="0.54" stop-color="gray" stop-opacity="0.12"/><stop offset="1" stop-color="gray" stop-opacity="0.1"/></linearGradient></defs><title>what-11</title><ellipse class="cls-1" cx="142.51" cy="200.97" rx="129.24" ry="10.04"/><g class="cls-2"><path class="cls-3" d="M318,174.64c-.78-2.35-3.91-3.43-7-2.41a7.6,7.6,0,0,0-1.28.55l-.61-.14a6.8,6.8,0,0,0,.19-2.06,7.46,7.46,0,0,0,3.31-6.53,7.48,7.48,0,0,0,3.31-6.53,7.19,7.19,0,0,0,2.5-2.83c1.49-2.95.87-6.27-1.38-7.41s-5.29.33-6.78,3.28a7.21,7.21,0,0,0-.8,3.7,7.48,7.48,0,0,0-3.3,6.53,7.46,7.46,0,0,0-3.31,6.52,7.52,7.52,0,0,0-3.31,6.54,7.12,7.12,0,0,0-2.5,2.83,7.64,7.64,0,0,0-.64,1.75A6.17,6.17,0,0,0,295,177a7.77,7.77,0,0,0-.3-1.37c-1-3.09-3.74-5-6.08-4.21s-3.43,3.9-2.41,7a7,7,0,0,0,2.3,3.37,8.18,8.18,0,0,0,.3,1.37,6.68,6.68,0,0,0,3.09,3.87,7,7,0,0,0-.25,1.19,7.7,7.7,0,0,0-2.3,4.53,7.74,7.74,0,0,0-2.29,4.54,7.53,7.53,0,0,0-1.52,2.07c-1.49,3-.88,6.27,1.38,7.41s5.29-.33,6.78-3.28a7.41,7.41,0,0,0,.76-2.46,7.63,7.63,0,0,0,2.29-4.54,7.7,7.7,0,0,0,2.3-4.53,7.7,7.7,0,0,0,2.26-4.54,7.64,7.64,0,0,0,2.3-4.54,7.48,7.48,0,0,0,1-1.22,7.06,7.06,0,0,0,3.73-.23,7.4,7.4,0,0,0,1.29-.56,7,7,0,0,0,4.08-.14C316.85,179.71,318.75,177,318,174.64Z" transform="translate(-61 -30.85)"/><g class="cls-2"><path d="M312.52,165.39a5.63,5.63,0,0,1-1,.84,6.93,6.93,0,0,1-.34,2.56,8.54,8.54,0,0,0,.64-1A7.29,7.29,0,0,0,312.52,165.39Z" transform="translate(-61 -30.85)"/><path d="M315.83,158.86a6,6,0,0,1-1.05.84,6.93,6.93,0,0,1-.34,2.56,7.45,7.45,0,0,0,.64-1A7.57,7.57,0,0,0,315.83,158.86Z" transform="translate(-61 -30.85)"/><path d="M308.34,156.43a6.71,6.71,0,0,1,.05-1.34,7.53,7.53,0,0,0-1.45,2,8.44,8.44,0,0,0-.47,1.13A7.24,7.24,0,0,1,308.34,156.43Z" transform="translate(-61 -30.85)"/><path d="M287.38,195.94a6.64,6.64,0,0,1,.89-1,6.33,6.33,0,0,1,.27-1.22,7.32,7.32,0,0,0-.7,1.13A7.64,7.64,0,0,0,287.38,195.94Z" transform="translate(-61 -30.85)"/><path d="M289.67,191.41a6.21,6.21,0,0,1,.9-1,6.8,6.8,0,0,1,.25-1.19h0a7.59,7.59,0,0,0-.67,1.09A7.86,7.86,0,0,0,289.67,191.41Z" transform="translate(-61 -30.85)"/><path d="M309.22,171.92a6.89,6.89,0,0,1-1,.83,6.87,6.87,0,0,1-.2,2.07,4.15,4.15,0,0,1,.61.14,7.4,7.4,0,0,1,1.29-.56c3.09-1,6.22.07,7,2.41a3.55,3.55,0,0,1,.1,1.83,4.17,4.17,0,0,0,1-4c-.77-2.34-3.9-3.42-7-2.41a7.4,7.4,0,0,0-1.29.56,4,4,0,0,0-.6-.14C309.14,172.4,309.19,172.16,309.22,171.92Z" transform="translate(-61 -30.85)"/><path d="M286.24,198.22a8.75,8.75,0,0,0-.69,1.13,8,8,0,0,0-.47,1.14,8.17,8.17,0,0,1,.91-1A7.45,7.45,0,0,1,286.24,198.22Z" transform="translate(-61 -30.85)"/><path d="M305,163a6.68,6.68,0,0,1,.05-1.34,7.53,7.53,0,0,0-1.45,2,6.53,6.53,0,0,0-.46,1.13A6.89,6.89,0,0,1,305,163Z" transform="translate(-61 -30.85)"/><path d="M300.25,189.59a6.76,6.76,0,0,1-.31,1.33,8.54,8.54,0,0,0,.64-1,9.19,9.19,0,0,0,.5-1.22A8.11,8.11,0,0,1,300.25,189.59Z" transform="translate(-61 -30.85)"/><path d="M295.66,198.66a7.53,7.53,0,0,1-.3,1.33,8,8,0,0,0,.64-1.05,7.47,7.47,0,0,0,.49-1.21A7.27,7.27,0,0,1,295.66,198.66Z" transform="translate(-61 -30.85)"/><path d="M298,194.12a7.56,7.56,0,0,1-.31,1.33,7.78,7.78,0,0,0,.65-1,7.52,7.52,0,0,0,.5-1.21A8.09,8.09,0,0,1,298,194.12Z" transform="translate(-61 -30.85)"/><path d="M302.54,185.06a7.42,7.42,0,0,1-.3,1.32,7.38,7.38,0,0,0,.63-1,7.84,7.84,0,0,0,.5-1.24A7.52,7.52,0,0,1,302.54,185.06Z" transform="translate(-61 -30.85)"/><path d="M287.53,173.59c2.35-.77,5.07,1.11,6.08,4.2a8.18,8.18,0,0,1,.3,1.37,6.35,6.35,0,0,1,1.35,1.44,8,8,0,0,1,.64-1.75c.1-.2.22-.4.34-.6A6.39,6.39,0,0,0,295,177a7.77,7.77,0,0,0-.3-1.37c-1-3.1-3.74-5-6.09-4.21a4.19,4.19,0,0,0-2.62,3.17A3.63,3.63,0,0,1,287.53,173.59Z" transform="translate(-61 -30.85)"/><path d="M298.41,176a7.52,7.52,0,0,1,.06-1.34,7.56,7.56,0,0,0-1.46,2,7.43,7.43,0,0,0-.46,1.13A7.19,7.19,0,0,1,298.41,176Z" transform="translate(-61 -30.85)"/><path d="M301.72,169.49a6.65,6.65,0,0,1,0-1.34,7.37,7.37,0,0,0-1.45,2,7.47,7.47,0,0,0-.47,1.13A6.92,6.92,0,0,1,301.72,169.49Z" transform="translate(-61 -30.85)"/><path d="M293.37,203.19a7.85,7.85,0,0,1-.3,1.34,8,8,0,0,0,1.13-2.28A7.44,7.44,0,0,1,293.37,203.19Z" transform="translate(-61 -30.85)"/></g><path class="cls-3" d="M322.48,144.46a7.14,7.14,0,0,0,2.51-2.83c1.49-2.95.87-6.27-1.38-7.41s-5.29.33-6.79,3.28a7.21,7.21,0,0,0-.79,3.71,7.48,7.48,0,0,0-3.3,6.53,7.14,7.14,0,0,0-2.51,2.83,9.08,9.08,0,0,0-.46,1.12,6.38,6.38,0,0,1,3.28-2.43,3.72,3.72,0,0,0,4.69,2.4l0,0a6.33,6.33,0,0,1,0,4.08,8.42,8.42,0,0,0,.64-1,7.2,7.2,0,0,0,.79-3.7,7.46,7.46,0,0,0,3.31-6.53Z" transform="translate(-61 -30.85)"/><path class="cls-4" d="M358.78,102.61a22.07,22.07,0,0,0,2.65-1.47L351.6,94l11.56,6a22,22,0,0,0,8.21-15.3l-19.64.2,19.68-3.29a21.9,21.9,0,0,0-43.69,3,22.19,22.19,0,0,0,.33,2.58,21.69,21.69,0,0,0-4,2.43l10.26,14.27L322,91.29a21.91,21.91,0,0,0-6.13,19.95,21.89,21.89,0,1,0,30.73,15.54,21.9,21.9,0,0,0,12.22-24.17Z" transform="translate(-61 -30.85)"/><path class="cls-5" d="M317.76,97a21.86,21.86,0,0,0-1.93,14.2,21.89,21.89,0,1,0,30.73,15.54C350.86,124.79,318.87,94.84,317.76,97Z" transform="translate(-61 -30.85)"/><circle class="cls-4" cx="281.44" cy="31.24" r="3.25"/><circle class="cls-4" cx="300.43" cy="33.32" r="3.25"/><circle class="cls-4" cx="307.75" cy="62.53" r="3.25"/><circle class="cls-4" cx="297.87" cy="77.12" r="3.25"/><circle class="cls-4" cx="284.36" cy="107.42" r="3.25"/><circle class="cls-5" cx="284.36" cy="107.42" r="3.25"/><circle class="cls-4" cx="254.34" cy="73.1" r="3.25"/><circle class="cls-5" cx="254.34" cy="73.1" r="3.25"/><path class="cls-5" d="M311.88,157.42c-2.17-1.09-2.82-4.18-1.56-7l-.19.35c-1.49,2.95-.87,6.27,1.38,7.41s5.29-.33,6.78-3.28c.06-.12.12-.25.17-.37C316.92,157.21,314,158.52,311.88,157.42Z" transform="translate(-61 -30.85)"/><path class="cls-5" d="M308.67,163.77c-2.16-1.09-2.82-4.18-1.56-7l-.19.36c-1.49,2.95-.88,6.27,1.38,7.41s5.29-.33,6.78-3.28l.18-.37C313.7,163.56,310.83,164.86,308.67,163.77Z" transform="translate(-61 -30.85)"/><path class="cls-5" d="M305.45,170.12c-2.15-1.09-2.81-4.19-1.55-7l-.19.36c-1.49,2.95-.87,6.26,1.38,7.4s5.29-.32,6.78-3.27c.06-.13.12-.25.17-.37C310.5,169.91,307.62,171.21,305.45,170.12Z" transform="translate(-61 -30.85)"/><path class="cls-5" d="M302.26,176.48c-2.17-1.09-2.82-4.18-1.56-7a3.9,3.9,0,0,0-.19.35c-1.49,2.95-.88,6.27,1.38,7.41s5.29-.33,6.78-3.28c.06-.12.12-.25.17-.37C307.29,176.25,304.41,177.56,302.26,176.48Z" transform="translate(-61 -30.85)"/><path class="cls-5" d="M299,182.81c-2.16-1.09-2.81-4.18-1.55-7a3,3,0,0,0-.19.36c-1.49,3-.88,6.26,1.38,7.4s5.29-.33,6.78-3.28c.06-.12.12-.24.17-.37C304.08,182.6,301.19,183.91,299,182.81Z" transform="translate(-61 -30.85)"/><path class="cls-5" d="M295.82,189.16c-2.16-1.09-2.81-4.18-1.55-7l-.19.35c-1.49,3-.88,6.27,1.38,7.41s5.27-.33,6.8-3.28c.06-.12.11-.24.17-.37C300.86,189,298,190.26,295.82,189.16Z" transform="translate(-61 -30.85)"/><path class="cls-5" d="M292.61,195.51c-2.16-1.09-2.81-4.18-1.55-7-.07.12-.13.24-.19.36-1.49,2.95-.88,6.27,1.38,7.41s5.29-.33,6.78-3.28c.06-.12.12-.25.17-.37C297.65,195.3,294.77,196.6,292.61,195.51Z" transform="translate(-61 -30.85)"/><path class="cls-5" d="M289.4,201.86c-2.16-1.09-2.81-4.18-1.55-7-.07.12-.13.24-.19.36-1.49,2.95-.88,6.27,1.38,7.41s5.29-.33,6.78-3.28c.06-.13.12-.25.17-.37C294.44,201.65,291.56,202.94,289.4,201.86Z" transform="translate(-61 -30.85)"/><path class="cls-5" d="M287.29,206c-2.16-1.09-2.81-4.18-1.55-7l-.19.36c-1.49,3-.88,6.27,1.38,7.41s5.29-.33,6.78-3.28c.06-.12.12-.25.17-.37C292.33,205.82,289.45,207.12,287.29,206Z" transform="translate(-61 -30.85)"/><path class="cls-4" d="M345.31,177.78a11.2,11.2,0,0,0,.61-3,1.63,1.63,0,0,0,0-3.25l-.24,0a11.35,11.35,0,0,0-6-7.7,1.61,1.61,0,0,0-.72-2.18,1.63,1.63,0,0,0-2.18.72,1.69,1.69,0,0,0-.15.43,11.41,11.41,0,0,0-10,3,11.51,11.51,0,0,0-3-.09l-1.31,6-.08-5.77a11.38,11.38,0,0,0,4.87,22.23,10.37,10.37,0,0,0,1.21-.34,1.66,1.66,0,0,0,.68.66,1.62,1.62,0,0,0,2.23-2.09,11.22,11.22,0,0,0,1.46-1.2,11.36,11.36,0,0,0,11.95-6l-6.12-1Z" transform="translate(-61 -30.85)"/><g class="cls-2"><path d="M335.85,180.69c-2.27-3-3.65-6.52-5.25-9.92a41.42,41.42,0,0,0-2.15-4.06l-1.2-1.4-.61.54a11.44,11.44,0,0,0-3-.09l-1.32,6-.08-5.78a11.38,11.38,0,0,0,4.87,22.23,12,12,0,0,0,1.21-.33,1.63,1.63,0,0,0,2.91-1.44,10.4,10.4,0,0,0,1.46-1.19,11.41,11.41,0,0,0,6.83-1A15.9,15.9,0,0,1,335.85,180.69Z" transform="translate(-61 -30.85)"/></g><path class="cls-4" d="M295.78,167.86a1.62,1.62,0,0,0-.72-2.19,1.66,1.66,0,0,0-.73-.17,11.36,11.36,0,0,0-3.56-6.34,11.19,11.19,0,0,0,.33-3.55l-6-1,5.8-.37a11.11,11.11,0,0,0-.43-1.6A1.75,1.75,0,0,0,291,152a1.62,1.62,0,0,0-2-2.26,11.38,11.38,0,0,0-20.31,9.4,1.62,1.62,0,0,0-.09,2.94,1.65,1.65,0,0,0,1.34.06,11.36,11.36,0,0,0,2.15,2.63,11.43,11.43,0,0,0,.53,7.23l8-2.08-7.14,3.75a11.38,11.38,0,0,0,21-4.94A1.62,1.62,0,0,0,295.78,167.86Z" transform="translate(-61 -30.85)"/><path class="cls-5" d="M295.78,167.86a1.62,1.62,0,0,0-.72-2.19,1.66,1.66,0,0,0-.73-.17,11.36,11.36,0,0,0-3.56-6.34c.05-.19.09-.38.13-.57a4.88,4.88,0,0,0-.59.52c-1.08,1.19-1.63,2.78-2.7,4a7.79,7.79,0,0,1-5,2.35A19.45,19.45,0,0,1,277,165a16.75,16.75,0,0,0-4.66-.51,3.11,3.11,0,0,0-.44.06l.27.26a11.42,11.42,0,0,0,.53,7.23l8-2.08-7.14,3.75a11.38,11.38,0,0,0,21-4.94A1.62,1.62,0,0,0,295.78,167.86Z" transform="translate(-61 -30.85)"/></g><g class="cls-2"><path class="cls-3" d="M88.21,186.31c.39-1.18,2-1.72,3.53-1.21a3.36,3.36,0,0,1,.65.28l.3-.07a3.32,3.32,0,0,1-.1-1A3.81,3.81,0,0,1,90.93,181a3.7,3.7,0,0,1-1.26-1.43,3.52,3.52,0,0,1-.4-1.86A3.62,3.62,0,0,1,88,176.26c-.75-1.48-.45-3.15.69-3.73s2.67.17,3.42,1.65a3.56,3.56,0,0,1,.4,1.86,3.8,3.8,0,0,1,1.67,3.29,3.76,3.76,0,0,1,1.66,3.29,3.76,3.76,0,0,1,1.66,3.29,3.62,3.62,0,0,1,1.26,1.43,4,4,0,0,1,.31.88,3.62,3.62,0,0,1,.68-.73,3.44,3.44,0,0,1,.16-.69c.51-1.55,1.88-2.5,3.06-2.12s1.73,2,1.22,3.52a3.52,3.52,0,0,1-1.16,1.7,3.44,3.44,0,0,1-.16.69,3.38,3.38,0,0,1-1.55,1.95,4.13,4.13,0,0,1,.13.61,4,4,0,0,1,.77,1,3.64,3.64,0,0,1,.38,1.24,3.75,3.75,0,0,1,.77,1,3.9,3.9,0,0,1,.39,1.24,4.18,4.18,0,0,1,.77,1c.75,1.48.44,3.16-.7,3.73s-2.66-.17-3.41-1.65a3.9,3.9,0,0,1-.39-1.24,3.87,3.87,0,0,1-1.15-2.29A3.83,3.83,0,0,1,97.73,195a4,4,0,0,1-.77-1,3.64,3.64,0,0,1-.38-1.24,3.74,3.74,0,0,1-.77-1.05,3.9,3.9,0,0,1-.39-1.24,3.42,3.42,0,0,1-.52-.61,3.64,3.64,0,0,1-1.88-.11,5.3,5.3,0,0,1-.65-.28,3.5,3.5,0,0,1-2.05-.08C88.78,188.87,87.83,187.5,88.21,186.31Z" transform="translate(-61 -30.85)"/><g class="cls-2"><path d="M91,181.65a3.06,3.06,0,0,0,.53.42,3.3,3.3,0,0,0,.17,1.29,3.46,3.46,0,0,1-.32-.52A3.77,3.77,0,0,1,91,181.65Z" transform="translate(-61 -30.85)"/><path d="M89.3,178.37a3.06,3.06,0,0,0,.53.42,3.33,3.33,0,0,0,.17,1.29A3.84,3.84,0,0,1,89.3,178.37Z" transform="translate(-61 -30.85)"/><path d="M93.08,177.14a3.76,3.76,0,0,0,0-.67,3.57,3.57,0,0,1,.73,1,4.17,4.17,0,0,1,.24.58A3.69,3.69,0,0,0,93.08,177.14Z" transform="translate(-61 -30.85)"/><path d="M103.63,197.05a3.73,3.73,0,0,0-.45-.52,3.36,3.36,0,0,0-.14-.61,3.36,3.36,0,0,1,.35.57A3.93,3.93,0,0,1,103.63,197.05Z" transform="translate(-61 -30.85)"/><path d="M102.46,194.76a3.57,3.57,0,0,0-.45-.51,3.14,3.14,0,0,0-.12-.61h0a4,4,0,0,1,.57,1.12Z" transform="translate(-61 -30.85)"/><path d="M92.63,185a3,3,0,0,0,.52.42,3.34,3.34,0,0,0,.1,1,1.63,1.63,0,0,0-.3.07,3.19,3.19,0,0,0-.66-.28c-1.55-.52-3.13,0-3.52,1.21a1.88,1.88,0,0,0,0,.91,2.08,2.08,0,0,1-.5-2c.39-1.18,2-1.72,3.52-1.21a3.11,3.11,0,0,1,.65.28l.3-.07A2.25,2.25,0,0,1,92.63,185Z" transform="translate(-61 -30.85)"/><path d="M104.2,198.2a3.52,3.52,0,0,1,.35.56,4.12,4.12,0,0,1,.23.58,2.8,2.8,0,0,0-.45-.52A3.25,3.25,0,0,0,104.2,198.2Z" transform="translate(-61 -30.85)"/><path d="M94.74,180.44a3.84,3.84,0,0,0,0-.68,3.89,3.89,0,0,1,.73,1,3.57,3.57,0,0,1,.23.57A3.22,3.22,0,0,0,94.74,180.44Z" transform="translate(-61 -30.85)"/><path d="M97.14,193.85a4,4,0,0,0,.15.67,4.12,4.12,0,0,1-.57-1.15A4.81,4.81,0,0,0,97.14,193.85Z" transform="translate(-61 -30.85)"/><path d="M99.45,198.41a3,3,0,0,0,.16.67,3.51,3.51,0,0,1-.33-.52A4.6,4.6,0,0,1,99,198,4.58,4.58,0,0,0,99.45,198.41Z" transform="translate(-61 -30.85)"/><path d="M98.3,196.13a3.82,3.82,0,0,0,.15.67,3.55,3.55,0,0,1-.32-.53,3.46,3.46,0,0,1-.25-.6A3.64,3.64,0,0,0,98.3,196.13Z" transform="translate(-61 -30.85)"/><path d="M96,191.56a3.82,3.82,0,0,0,.15.67,4,4,0,0,1-.31-.52,4.6,4.6,0,0,1-.25-.61A3.55,3.55,0,0,0,96,191.56Z" transform="translate(-61 -30.85)"/><path d="M103.55,185.78c-1.18-.38-2.55.56-3.06,2.13a3.44,3.44,0,0,0-.16.69,3.37,3.37,0,0,0-.68.73,3.86,3.86,0,0,0-.32-.88,3.07,3.07,0,0,0-.17-.31,3.36,3.36,0,0,1,.61-.64,4.26,4.26,0,0,1,.15-.69c.52-1.55,1.89-2.5,3.07-2.13a2.13,2.13,0,0,1,1.32,1.6A1.87,1.87,0,0,0,103.55,185.78Z" transform="translate(-61 -30.85)"/><path d="M98.07,187a3.76,3.76,0,0,0,0-.67,3.57,3.57,0,0,1,.73,1,4.62,4.62,0,0,1,.24.57A3.83,3.83,0,0,0,98.07,187Z" transform="translate(-61 -30.85)"/><path d="M96.4,183.72a3,3,0,0,0,0-.67,3.78,3.78,0,0,1,.73,1,4.53,4.53,0,0,1,.23.57A3.51,3.51,0,0,0,96.4,183.72Z" transform="translate(-61 -30.85)"/><path d="M100.61,200.7a3.82,3.82,0,0,0,.15.67,3.55,3.55,0,0,1-.32-.53,3.26,3.26,0,0,1-.25-.61A4.69,4.69,0,0,0,100.61,200.7Z" transform="translate(-61 -30.85)"/></g><path class="cls-3" d="M85.94,171.11a3.6,3.6,0,0,1-1.26-1.42c-.75-1.49-.44-3.16.7-3.74s2.66.17,3.41,1.66a3.63,3.63,0,0,1,.41,1.86,3.76,3.76,0,0,1,1.66,3.29,3.6,3.6,0,0,1,1.26,1.42,4.53,4.53,0,0,1,.23.57,3.2,3.2,0,0,0-1.65-1.22,1.87,1.87,0,0,1-2.35,1.23h0a3.13,3.13,0,0,0,0,2.05,3.35,3.35,0,0,1-.3-.52,3.63,3.63,0,0,1-.41-1.86A3.76,3.76,0,0,1,86,171.13Z" transform="translate(-61 -30.85)"/><path class="cls-4" d="M67.66,150a13.41,13.41,0,0,1-1.34-.74l5-3.62-5.82,3a11,11,0,0,1-4.14-7.7l9.9.1L61.3,139.4a11,11,0,1,1,22,1.24,11.47,11.47,0,0,1-.2,1.56,10.72,10.72,0,0,1,2,1.22L80,150.6l6.21-6.28a11,11,0,0,1,3.09,10.05,11,11,0,1,1-15.48,7.82A11,11,0,0,1,67.66,150Z" transform="translate(-61 -30.85)"/><path class="cls-5" d="M88.32,147.22a11,11,0,0,1,1,7.16,11,11,0,1,1-15.48,7.83C71.65,161.2,87.77,146.12,88.32,147.22Z" transform="translate(-61 -30.85)"/><circle class="cls-4" cx="14.89" cy="98.76" r="1.64"/><circle class="cls-4" cx="5.32" cy="99.82" r="1.64"/><circle class="cls-4" cx="1.64" cy="114.53" r="1.64"/><circle class="cls-4" cx="6.62" cy="121.88" r="1.64"/><circle class="cls-4" cx="13.42" cy="137.14" r="1.64"/><circle class="cls-5" cx="13.42" cy="137.14" r="1.64"/><circle class="cls-4" cx="28.54" cy="119.86" r="1.64"/><circle class="cls-5" cx="28.54" cy="119.86" r="1.64"/><path class="cls-5" d="M91.29,177.64c1.09-.55,1.42-2.11.78-3.54l.1.17c.75,1.49.44,3.16-.7,3.74s-2.66-.17-3.41-1.66a1.51,1.51,0,0,1-.09-.18C88.75,177.53,90.2,178.19,91.29,177.64Z" transform="translate(-61 -30.85)"/><path class="cls-5" d="M92.9,180.84c1.09-.55,1.42-2.11.79-3.55l.09.18c.76,1.49.45,3.16-.69,3.74s-2.67-.17-3.42-1.66a1.42,1.42,0,0,1-.08-.18C90.37,180.74,91.82,181.39,92.9,180.84Z" transform="translate(-61 -30.85)"/><path class="cls-5" d="M94.52,184c1.09-.55,1.42-2.11.78-3.55a1.62,1.62,0,0,1,.1.18c.75,1.49.44,3.16-.69,3.73s-2.67-.16-3.42-1.65l-.09-.19C92,183.93,93.43,184.59,94.52,184Z" transform="translate(-61 -30.85)"/><path class="cls-5" d="M96.14,187.24c1.09-.55,1.42-2.11.78-3.55l.1.18c.75,1.49.44,3.16-.7,3.73s-2.66-.16-3.41-1.65l-.09-.19C93.6,187.13,95.05,187.79,96.14,187.24Z" transform="translate(-61 -30.85)"/><path class="cls-5" d="M97.76,190.43c1.08-.55,1.41-2.11.78-3.54a1.62,1.62,0,0,0,.1.18c.75,1.49.44,3.15-.7,3.73s-2.67-.17-3.42-1.65c0-.07,0-.13-.08-.19C95.22,190.33,96.67,191,97.76,190.43Z" transform="translate(-61 -30.85)"/><path class="cls-5" d="M99.37,193.63c1.09-.55,1.42-2.11.79-3.55l.09.18c.75,1.49.44,3.16-.69,3.74s-2.67-.17-3.42-1.66l-.09-.18C96.83,193.51,98.29,194.18,99.37,193.63Z" transform="translate(-61 -30.85)"/><path class="cls-5" d="M101,196.83c1.09-.55,1.42-2.11.78-3.55a1.62,1.62,0,0,1,.1.18c.75,1.49.44,3.16-.7,3.73s-2.66-.16-3.41-1.65l-.09-.18C98.45,196.72,99.9,197.38,101,196.83Z" transform="translate(-61 -30.85)"/><path class="cls-5" d="M102.61,200c1.09-.55,1.42-2.11.78-3.55a1.62,1.62,0,0,0,.1.18c.75,1.49.44,3.16-.7,3.73s-2.66-.16-3.41-1.65a1.11,1.11,0,0,1-.09-.19C100.07,199.92,101.52,200.58,102.61,200Z" transform="translate(-61 -30.85)"/><path class="cls-5" d="M103.68,202.13c1.09-.55,1.42-2.11.78-3.55l.1.18c.75,1.49.44,3.16-.69,3.73s-2.67-.16-3.42-1.65l-.09-.18C101.13,202,102.58,202.68,103.68,202.13Z" transform="translate(-61 -30.85)"/><path class="cls-4" d="M74.44,187.9a6,6,0,0,1-.3-1.5.82.82,0,1,1,0-1.64h.11a5.75,5.75,0,0,1,3-3.88.82.82,0,0,1,1.46-.74h0a.65.65,0,0,1,.08.22,5.76,5.76,0,0,1,5,1.52,6,6,0,0,1,1.52,0l.67,3V182a5.73,5.73,0,1,1-2.58,11.17L83,193a.8.8,0,0,1-.35.33.81.81,0,0,1-1.1-.36.8.8,0,0,1,0-.69,5.36,5.36,0,0,1-.73-.61,5.75,5.75,0,0,1-6-3l3.09-.52Z" transform="translate(-61 -30.85)"/><g class="cls-2"><path d="M79.21,189.36a27.36,27.36,0,0,0,2.64-5,21.09,21.09,0,0,1,1.09-2.05l.61-.7.3.26a5.94,5.94,0,0,1,1.52,0l.66,3V182a5.73,5.73,0,1,1-2.58,11.17L83,193a.8.8,0,0,1-.35.33.81.81,0,0,1-1.1-.36.8.8,0,0,1,0-.69,5.36,5.36,0,0,1-.73-.61,5.73,5.73,0,0,1-3.44-.51A7.94,7.94,0,0,0,79.21,189.36Z" transform="translate(-61 -30.85)"/></g><path class="cls-4" d="M99.4,182.9a.81.81,0,0,1,.35-1.1h0a.78.78,0,0,1,.37-.09,5.72,5.72,0,0,1,1.79-3.19,5.7,5.7,0,0,1-.17-1.79l3-.51-2.92-.18a4.4,4.4,0,0,1,.22-.81.74.74,0,0,1-.27-.31.82.82,0,0,1,.36-1.1.86.86,0,0,1,.65,0,5.65,5.65,0,0,1,2.08-1.8,5.72,5.72,0,0,1,8.14,6.54.81.81,0,0,1,.43,1.07.8.8,0,0,1-.38.41.82.82,0,0,1-.67,0,5.77,5.77,0,0,1-1.09,1.32,5.79,5.79,0,0,1-.26,3.65l-4-1.06,3.59,1.89a5.73,5.73,0,0,1-10-.46,5.79,5.79,0,0,1-.59-2A.79.79,0,0,1,99.4,182.9Z" transform="translate(-61 -30.85)"/><path class="cls-5" d="M99.4,182.9a.81.81,0,0,1,.35-1.1h0a.78.78,0,0,1,.37-.09,5.72,5.72,0,0,1,1.79-3.19,1.5,1.5,0,0,1-.06-.29,3.73,3.73,0,0,1,.3.26c.54.61.82,1.4,1.36,2a3.92,3.92,0,0,0,2.53,1.18,9.69,9.69,0,0,0,2.84-.22,8.12,8.12,0,0,1,2.35-.26l.22,0-.14.13a5.79,5.79,0,0,1-.26,3.65l-4-1.06,3.59,1.89a5.73,5.73,0,0,1-10-.46,5.79,5.79,0,0,1-.59-2A.79.79,0,0,1,99.4,182.9Z" transform="translate(-61 -30.85)"/></g><path class="cls-1" d="M166.32,46.63a6.16,6.16,0,0,0-3.57.39,5.23,5.23,0,0,1-4.28,0,6,6,0,0,0-5.05.1,3,3,0,0,1-1.45.36c-2,0-3.74-2-4.09-4.77a4.12,4.12,0,0,0,1-1.1A6.14,6.14,0,0,1,154,38.44a6.07,6.07,0,0,1,5.11,3.13,4,4,0,0,0,3.4,1.87h0C164.21,43.43,165.62,44.74,166.32,46.63Z" transform="translate(-61 -30.85)"/><path class="cls-1" d="M172.53,38.12l-3.3,2.09,2-3.65a3.32,3.32,0,0,0-2-.71h-.05a3.21,3.21,0,0,1-.69-.05l-1.12.71.48-.87a4,4,0,0,1-2-1.47l-2,1.25,1.27-2.3a5.87,5.87,0,0,0-4.49-2.27A6.13,6.13,0,0,0,155.53,34a3.83,3.83,0,0,1-3.4,1.82H152c-2.3,0-4.16,2.61-4.16,5.83s1.86,5.82,4.16,5.82a3.05,3.05,0,0,0,1.45-.36,6,6,0,0,1,5-.1,5.26,5.26,0,0,0,4.29,0,6.06,6.06,0,0,1,5,.1,3.08,3.08,0,0,0,1.43.35c2.31,0,4.17-2.6,4.17-5.82A7.32,7.32,0,0,0,172.53,38.12Z" transform="translate(-61 -30.85)"/><path class="cls-1" d="M97.6,88.76a8.83,8.83,0,0,0-5.1.56,7.52,7.52,0,0,1-6.13,0,8.59,8.59,0,0,0-7.2.14A4.41,4.41,0,0,1,77.1,90c-2.92,0-5.35-2.94-5.85-6.82a5.71,5.71,0,0,0,1.45-1.57A8.81,8.81,0,0,1,80.05,77a8.71,8.71,0,0,1,7.29,4.48,5.63,5.63,0,0,0,4.87,2.66h.08C94.59,84.18,96.6,86,97.6,88.76Z" transform="translate(-61 -30.85)"/><path class="cls-1" d="M106.48,76.58l-4.72,3,2.86-5.21a4.62,4.62,0,0,0-2.85-1h-.08a6.46,6.46,0,0,1-1-.07l-1.59,1,.69-1.25A5.66,5.66,0,0,1,97,70.93l-2.87,1.83L96,69.44a8.4,8.4,0,0,0-6.42-3.24,8.79,8.79,0,0,0-7.34,4.53,5.51,5.51,0,0,1-4.86,2.62h-.16c-3.29,0-6,3.72-6,8.32s2.67,8.32,6,8.32a4.41,4.41,0,0,0,2.07-.52,8.59,8.59,0,0,1,7.2-.14,7.52,7.52,0,0,0,6.13,0,8.56,8.56,0,0,1,7.14.13,4.41,4.41,0,0,0,2.05.51c3.28,0,5.95-3.73,5.95-8.32A10.63,10.63,0,0,0,106.48,76.58Z" transform="translate(-61 -30.85)"/><path class="cls-1" d="M288.46,58.49a6.16,6.16,0,0,1,3.57.39,5.23,5.23,0,0,0,4.28,0,6,6,0,0,1,5,.1,3.08,3.08,0,0,0,1.45.36c2.05,0,3.75-2.05,4.1-4.77a4,4,0,0,1-1-1.1,5.74,5.74,0,0,0-10.26,0,4,4,0,0,1-3.4,1.87h-.05C290.55,55.29,289.14,56.6,288.46,58.49Z" transform="translate(-61 -30.85)"/><path class="cls-1" d="M282.23,50l3.3,2.09-2-3.65a3.29,3.29,0,0,1,2-.71h.06a4,4,0,0,0,.68-.06l1.12.72-.48-.88a4.07,4.07,0,0,0,2-1.46l2,1.27L289.61,45a5.87,5.87,0,0,1,4.49-2.27,6.13,6.13,0,0,1,5.14,3.17,3.82,3.82,0,0,0,3.4,1.83h.11c2.3,0,4.16,2.6,4.16,5.83s-1.86,5.82-4.16,5.82A3.14,3.14,0,0,1,301.3,59a6,6,0,0,0-5-.1,5.26,5.26,0,0,1-4.29,0,6,6,0,0,0-5,.1,3.08,3.08,0,0,1-1.43.35c-2.3,0-4.17-2.61-4.17-5.82A7.35,7.35,0,0,1,282.23,50Z" transform="translate(-61 -30.85)"/><ellipse class="cls-1" cx="187.21" cy="230.16" rx="34.97" ry="6.08"/><polygon class="cls-6" points="168.91 201.28 114.72 200.58 114.88 199.19 117.5 176.26 165.09 176.26 168.59 199.19 168.86 200.93 168.91 201.28"/><polygon class="cls-5" points="168.86 200.93 141.82 200.93 114.72 200.58 114.88 199.19 168.59 199.19 168.86 200.93"/><rect class="cls-6" x="105.69" y="199.54" width="71.9" height="1.74"/><path class="cls-3" d="M307.19,69.42a4.52,4.52,0,0,0-4.5-4.54H101.89a4.52,4.52,0,0,0-4.5,4.54h0V191.14h209.8Z" transform="translate(-61 -30.85)"/><path class="cls-6" d="M97.39,189.92v14.26a4.51,4.51,0,0,0,4.5,4.5h200.8a4.5,4.5,0,0,0,4.5-4.5V189.92Z" transform="translate(-61 -30.85)"/><rect class="cls-7" x="45.08" y="41.66" width="193.48" height="109.42"/><path class="cls-4" d="M203.34,203.27a4.66,4.66,0,0,0,3.68-1.79h0a4,4,0,0,0,.37-.54l-2.58-.43h2.79a4.65,4.65,0,0,0,.08-3.71L204,198.75l3.45-2.53a4.69,4.69,0,1,0-8.11,4.71,4.1,4.1,0,0,0,.36.53h0A4.69,4.69,0,0,0,203.34,203.27Z" transform="translate(-61 -30.85)"/><polygon class="cls-5" points="147.03 177.83 168.64 199.54 165.32 177.83 147.03 177.83"/><rect class="cls-8" x="44.92" y="41.68" width="193.69" height="6.39"/><rect class="cls-9" x="112.17" y="42.79" width="58.36" height="3.89" rx="0.18"/><path class="cls-3" d="M229.8,76h-.15l-.05,0a1.15,1.15,0,1,0-.12.12l.06,0v.14l.89.89.26-.26Zm-1.07,0a.79.79,0,0,1-.81-.8.81.81,0,0,1,1.61,0h0a.79.79,0,0,1-.79.8Z" transform="translate(-61 -30.85)"/><circle class="cls-10" cx="48.41" cy="44.87" r="1.17"/><circle class="cls-11" cx="51.63" cy="44.87" r="1.17"/><circle class="cls-12" cx="54.85" cy="44.87" r="1.17"/><path class="cls-4" d="M213.06,119.46a13,13,0,0,0-21.56,0,11.63,11.63,0,0,0,19,3.84A11.42,11.42,0,0,0,213.06,119.46Z" transform="translate(-61 -30.85)"/><path class="cls-4" d="M190.1,121.53a3.6,3.6,0,0,1-.54-.31,2.2,2.2,0,0,1-.59-.76,2.18,2.18,0,1,0-3.56.53,2.24,2.24,0,0,0,.51.41,1.54,1.54,0,0,1,.58.61,4.42,4.42,0,0,0,1,1.33,8.88,8.88,0,0,0,1.39,1,20.17,20.17,0,0,0-1.14,5.95,8.27,8.27,0,0,0-2.32.37,3.72,3.72,0,0,0-1.07.54l-.27,0a2.19,2.19,0,1,0,2.05,3,1.41,1.41,0,0,1,1.13-.92,5.25,5.25,0,0,1,.56,0,19.59,19.59,0,0,0,2.6,8.11,6.41,6.41,0,0,0-2.42,3.3,1.09,1.09,0,0,0-.17.13,1.84,1.84,0,0,0-.25.23,2.18,2.18,0,1,0,3.66.72,1.45,1.45,0,0,1,.36-1.55,6.53,6.53,0,0,1,.51-.44c2.47,2.88,5.4,4.72,9.07,4.94V129.06A13.45,13.45,0,0,1,190.1,121.53Zm30.35,9.64-.26,0a4,4,0,0,0-1.07-.53,8,8,0,0,0-2.32-.38,20.7,20.7,0,0,0-1.14-5.94,8.4,8.4,0,0,0,1.38-1,4.48,4.48,0,0,0,1.05-1.39,1.31,1.31,0,0,1,.54-.53h0a2.18,2.18,0,1,0-3-1,2.2,2.2,0,0,1-.59.76,5.3,5.3,0,0,1-.54.39,13.36,13.36,0,0,1-11.09,7.45v19.56c3.65-.22,6.6-2.08,9.06-4.95a4.55,4.55,0,0,1,.49.42,1.48,1.48,0,0,1,.39,1.59A2.18,2.18,0,1,0,217,145a1.88,1.88,0,0,0-.25-.24l-.18-.12a6.23,6.23,0,0,0-2.43-3.3,19.59,19.59,0,0,0,2.6-8.11,4.89,4.89,0,0,1,.54,0,1.49,1.49,0,0,1,1.17.91,2.18,2.18,0,0,0,4.21-.66,2.23,2.23,0,0,0-2.1-2.33Z" transform="translate(-61 -30.85)"/><path class="cls-13" d="M268.09,257.47a3.1,3.1,0,0,0-.66-.74,8.65,8.65,0,0,1-2.27-4.9,52,52,0,0,0-1-5.42,19.32,19.32,0,0,0-1.07-2.63,7.72,7.72,0,0,0-1.25-2.38.81.81,0,0,0-.38-.19,4.54,4.54,0,0,0-1.1-1.47,10.94,10.94,0,0,1-2.51-2.43,5.59,5.59,0,0,0-.59-1c-.39-.43-1-.61-1.37-1.06a3,3,0,0,1-.31-2.19A2.11,2.11,0,0,0,255,231c-.39-.24-.89-.21-1.3-.43a1.88,1.88,0,0,1-.83-1.75c0-.68.22-1.35.28-2,.17-2.18-1.27-4.35-.71-6.46a13.76,13.76,0,0,1,1-2.24,4,4,0,0,0,.31-.77,10.77,10.77,0,0,0,3,.72c-1.68-3.76-1.25-8.13-2-12.17l.1-.13a6.31,6.31,0,0,0,1.28-3.61c0-1.5-.7-2.91-1-4.38-.27-1.25-.26-2.56-.61-3.79a11,11,0,0,0-1-2.19c-.38-.7-.77-1.4-1.19-2.08l-1.17-3.87a18.56,18.56,0,0,0-2.18-5.21c-.39-.57-.5-1.73-1.1-2.08a2.73,2.73,0,0,0-1.59-.28,3,3,0,0,1-1.69-2.09,2.07,2.07,0,0,1,.06-.61h.11c1.33-.12,2-1.3,2.71-2.33,1.12-1.68.69-3.94,0-5.84a4,4,0,0,0-.91-1.61c-1-.91-2.53-.71-3.78-1.15-.43-.15-.82-.37-1.25-.48a3.74,3.74,0,0,0-2.48.47,24.84,24.84,0,0,1-2.29,1.19c-.8.3-1.79.54-2,1.37a1.58,1.58,0,0,0,.07.83,3,3,0,0,0,.94,1.35,5.42,5.42,0,0,0,3.3,7.55,12.86,12.86,0,0,1,.65,1.14,3.76,3.76,0,0,1,.53,2.21,6.15,6.15,0,0,0-.61.74,14.33,14.33,0,0,0-1.82,4.07,41,41,0,0,0-1.47,5.56,39.83,39.83,0,0,0-2.19,4.74,11,11,0,0,1-2.85-.38l-2.57-.58a5.9,5.9,0,0,1-2.52-1c-.37-.3-.66-.71-1-1s-1.13-.65-1.55-.4l-.21.16c-.37-.76-.73-1.52-1.17-2.26a4.32,4.32,0,0,0-2.75-2.18,2.86,2.86,0,0,0-2.07.48,1.68,1.68,0,0,0-.61,2.22,3.49,3.49,0,0,0,.43.43,10,10,0,0,1,.94,1.3,6.65,6.65,0,0,0,4.1,2.67l-.11.3a4.89,4.89,0,0,0-.56,2.06l11.42,3.9a7,7,0,0,0,2.3.51,3.56,3.56,0,0,0,.91-.12v.61c0,4-.61,8-.73,12a3.13,3.13,0,0,0,.46,2.09,2.35,2.35,0,0,0,2.24.61,3.9,3.9,0,0,0,.57-.13,21.43,21.43,0,0,1,.58,3.08l.75,5.43a7.88,7.88,0,0,1,.12,1.68,11.71,11.71,0,0,1-1.25,3.59,4.28,4.28,0,0,0-.13,3.69c.2.34.48.63.65,1a4,4,0,0,1,.31,1.73c.05,1.64.09,3.28.13,4.92a.51.51,0,0,0-.38.08c-.63.49-.56,2.83-.61,3.56,0,1.22,0,2.46-.07,3.69a21.42,21.42,0,0,1-.79,4.89,3.09,3.09,0,0,1-.7,1.4,2.91,2.91,0,0,1-1.23.64,14.07,14.07,0,0,1-4.69.64,4.72,4.72,0,0,0-1.91.16,1.32,1.32,0,0,0-.86,1.52,1.93,1.93,0,0,0,1.26.95,19.43,19.43,0,0,1,3.34,1.54,9.21,9.21,0,0,0,1.3.73,7.39,7.39,0,0,0,1.33.33l5.39.93c1.1.19,2.43.3,3.14-.61a2.75,2.75,0,0,0,.41-1.79,23.66,23.66,0,0,1-.11-3.67,11.94,11.94,0,0,1,.56-2.11l1.62-4.78a25.2,25.2,0,0,0,1.3-4.89,1.82,1.82,0,0,0-.4-1.68,1,1,0,0,0-.4-.21c0-1.47-.21-2.94-.13-4.4l.09-1.1a5.28,5.28,0,0,1,.75.89c.52.81.72,1.89,1.51,2.43s1.67.44,2.15,1.11a3.09,3.09,0,0,1,.34.82,5.65,5.65,0,0,0,1.22,1.93,9.42,9.42,0,0,0,.75,1.93c.44,1,.89,1.89,1.33,2.83a32,32,0,0,0,1.53,3,8.53,8.53,0,0,1,1,2,4.53,4.53,0,0,1-1.37,4.26,11.93,11.93,0,0,1-4,2.33,1.3,1.3,0,0,0-.41.24.79.79,0,0,0-.18.53,1.71,1.71,0,0,0,1.24,1.52,4.57,4.57,0,0,0,2.08.08,30.76,30.76,0,0,0,11.19-3.31,3.86,3.86,0,0,0,1.34-1A1.56,1.56,0,0,0,268.09,257.47Z" transform="translate(-61 -30.85)"/><path class="cls-14" d="M251.67,189.27c.64,1,1.25,2,1.82,3.06a10.86,10.86,0,0,1,1,2.18c.36,1.22.35,2.52.61,3.76.31,1.46,1,2.85,1,4.35a6.27,6.27,0,0,1-1.29,3.57,16.72,16.72,0,0,1-2.68,2.77,57.06,57.06,0,0,1-3.79-18.61,6.6,6.6,0,0,1,.28-2.62c.2-.52,1.15-1.93,1.76-1.38.22.21.28,1.13.42,1.43A9.78,9.78,0,0,0,251.67,189.27Z" transform="translate(-61 -30.85)"/><path class="cls-5" d="M251.67,189.27c.64,1,1.25,2,1.82,3.06a10.86,10.86,0,0,1,1,2.18c.36,1.22.35,2.52.61,3.76.31,1.46,1,2.85,1,4.35a6.27,6.27,0,0,1-1.29,3.57,16.72,16.72,0,0,1-2.68,2.77,57.06,57.06,0,0,1-3.79-18.61,6.6,6.6,0,0,1,.28-2.62c.2-.52,1.15-1.93,1.76-1.38.22.21.28,1.13.42,1.43A9.78,9.78,0,0,0,251.67,189.27Z" transform="translate(-61 -30.85)"/><path class="cls-6" d="M171.49,147.78c-2.4,2.41-2.69,3.47-4.14,3.94s-6.64,3.17-5,6.15l4.39,2.91.13.08.67,2L160.9,174.7s-11-5-12,2.4-.39,9.43-.68,13.38.1,5.1-.87,5.1S146,193,146,193l-.17-.34c-1.43-3-11.15-24.83,4.42-39.85,0,0,7.21-.48,9-8.75,1.2-5.72,5.39-5.22,8.17-4.06a9.24,9.24,0,0,1,2.5,1.47,12.23,12.23,0,0,1,1.8,2.13C172.44,144.83,172.87,146.4,171.49,147.78Z" transform="translate(-61 -30.85)"/><path class="cls-5" d="M166.87,160.86l.67,2L160.9,174.7s-11-5-12,2.4-.39,9.43-.68,13.38.1,5.1-.87,5.1S146,193,146,193l-.17-.34c-.48-3.7-2.93-25.33,5.95-24.18,0,0,7.21,3.37,8.37,2,.91-1.07,5-7.19,6.61-9.7Z" transform="translate(-61 -30.85)"/><path class="cls-5" d="M171.65,143.56l-4.4,5s-5.1,6.83-6.15,6.54a5.25,5.25,0,0,0-1-.12,1.87,1.87,0,0,1-1.72-2,1.81,1.81,0,0,1,.51-1.14c1.74-1.83,4.94-5.29,5.15-6.06a53.2,53.2,0,0,1,3.27-5.79,9,9,0,0,1,2.5,1.47A12.22,12.22,0,0,1,171.65,143.56Z" transform="translate(-61 -30.85)"/><path class="cls-15" d="M295.89,215.36c-.75,1.49-4.56,7.07-6.23,9.52l-.78,1.15s-.31,2-5.29-.49S161.5,173.63,161.5,173.63l-.8-2.39,5.78-8.65,128.35,49.59S296.85,213.43,295.89,215.36Z" transform="translate(-61 -30.85)"/><path class="cls-5" d="M289.66,224.88l-.78,1.15s-.31,2-5.29-.49S161.5,173.63,161.5,173.63l-.8-2.39Z" transform="translate(-61 -30.85)"/><path class="cls-16" d="M219,192.6a4.28,4.28,0,0,0-3.43.67,2.86,2.86,0,0,0-1,1.88c-.08.84.41,1.84,1.26,1.9a4.17,4.17,0,0,0,.61,0,8.54,8.54,0,0,1,1.59.14,6.52,6.52,0,0,0,5.54-2.24c.73-.91-.23-1.31-1.08-1.49C221.34,193.17,220.19,192.79,219,192.6Z" transform="translate(-61 -30.85)"/><path class="cls-3" d="M239.36,220.06l.75,5.36a7.88,7.88,0,0,1,.12,1.68,11.73,11.73,0,0,1-1.25,3.56,4.19,4.19,0,0,0-.13,3.65c.2.33.47.62.65,1a4,4,0,0,1,.31,1.71l.2,7.61a48.79,48.79,0,0,0,7.05,0,.5.5,0,0,0,.26-.08.47.47,0,0,0,.09-.28c.1-1.78-.21-3.56-.11-5.34,0-.65.13-1.3.14-2,0-2.65-1.27-5.24-.88-7.86a19.36,19.36,0,0,1,.49-2c1.25-4.56,1-9.35.71-14.06a.37.37,0,0,0-.06-.21.28.28,0,0,0-.17-.09,8.64,8.64,0,0,0-7.84,1.49c-.33.27-1.16.52-1.38.84s.09.89.27,1.36A17.36,17.36,0,0,1,239.36,220.06Z" transform="translate(-61 -30.85)"/><path class="cls-5" d="M239.36,220.06l.75,5.36a7.88,7.88,0,0,1,.12,1.68,11.73,11.73,0,0,1-1.25,3.56,4.19,4.19,0,0,0-.13,3.65c.2.33.47.62.65,1a4,4,0,0,1,.31,1.71l.2,7.61a48.79,48.79,0,0,0,7.05,0,.5.5,0,0,0,.26-.08.47.47,0,0,0,.09-.28c.1-1.78-.21-3.56-.11-5.34,0-.65.13-1.3.14-2,0-2.65-1.27-5.24-.88-7.86a19.36,19.36,0,0,1,.49-2c1.25-4.56,1-9.35.71-14.06a.37.37,0,0,0-.06-.21.28.28,0,0,0-.17-.09,8.64,8.64,0,0,0-7.84,1.49c-.33.27-1.16.52-1.38.84s.09.89.27,1.36A17.36,17.36,0,0,1,239.36,220.06Z" transform="translate(-61 -30.85)"/><path class="cls-3" d="M253.46,218.45a13.24,13.24,0,0,0-1.05,2.22c-.55,2.09.88,4.26.71,6.4-.05.68-.26,1.34-.28,2a1.88,1.88,0,0,0,.84,1.74c.4.21.91.19,1.29.43a2.07,2.07,0,0,1,.65,2,3,3,0,0,0,.31,2.17c.36.45,1,.63,1.37,1a4.74,4.74,0,0,1,.58,1,11.89,11.89,0,0,0,2.52,2.43c.87.8,1.6,2,1.21,3.07a3.35,3.35,0,0,1-1.86,1.68,19.31,19.31,0,0,1-4.43,1.57,1.1,1.1,0,0,1-.51,0,1,1,0,0,1-.44-.31,8.12,8.12,0,0,1-2.24-3,2.9,2.9,0,0,0-.34-.81c-.47-.67-1.47-.65-2.15-1.1s-1-1.61-1.5-2.42-1.27-1.28-1.82-2c-.93-1.18-1.16-2.76-1.83-4.1-.28-.58-.64-1.11-.87-1.71a9.6,9.6,0,0,1-.41-2.2c-.43-3.55-1.52-7.13-.84-10.64.15-.77.39-1.52.49-2.32.16-1.38-.1-2.79.1-4.16a1.16,1.16,0,0,1,.46-.89,1.18,1.18,0,0,1,.52-.1,34.87,34.87,0,0,1,5.41.12,3.33,3.33,0,0,1,2.48,1,5.38,5.38,0,0,1,.59,2.27,5.67,5.67,0,0,0,1.18,2.22A2.11,2.11,0,0,1,253.46,218.45Z" transform="translate(-61 -30.85)"/><path class="cls-14" d="M246.44,243.16a2.18,2.18,0,0,1,1.39.27,1.81,1.81,0,0,1,.39,1.67,24.5,24.5,0,0,1-1.3,4.87l-1.62,4.74a11.61,11.61,0,0,0-.56,2.1,23.48,23.48,0,0,0,.11,3.65,2.87,2.87,0,0,1-.42,1.77c-.68.88-2,.78-3.13.61l-5.38-.92a6.23,6.23,0,0,1-1.34-.32,9.69,9.69,0,0,1-1.29-.73,19.34,19.34,0,0,0-3.34-1.52,1.94,1.94,0,0,1-1.26-.93,1.34,1.34,0,0,1,.86-1.53,4.72,4.72,0,0,1,1.91-.16,14.23,14.23,0,0,0,4.68-.63,2.94,2.94,0,0,0,1.24-.64,3,3,0,0,0,.71-1.43,21.76,21.76,0,0,0,.82-4.87c.06-1.21,0-2.43.07-3.65,0-.72,0-3,.59-3.53s2.47.65,3.12.8A15.26,15.26,0,0,0,246.44,243.16Z" transform="translate(-61 -30.85)"/><path class="cls-14" d="M264.19,246.54a53.51,53.51,0,0,1,.94,5.38,8.71,8.71,0,0,0,2.28,4.86,3.28,3.28,0,0,1,.66.73,1.55,1.55,0,0,1-.23,1.59,4,4,0,0,1-1.34,1,30.85,30.85,0,0,1-11.19,3.28,4.71,4.71,0,0,1-2.08-.07,1.71,1.71,0,0,1-1.23-1.52.79.79,0,0,1,.18-.53,1.14,1.14,0,0,1,.41-.24,12,12,0,0,0,4-2.32,4.43,4.43,0,0,0,1.38-4.21,7.91,7.91,0,0,0-1-2c-.55-1-1.06-1.94-1.52-2.95l-1.33-2.81a7.23,7.23,0,0,1-.86-2.57,12.19,12.19,0,0,0,4.93-.79,7.62,7.62,0,0,0,2-1.22c.52-.43,1-1.23,1.69-.67s.91,1.72,1.24,2.36A18.69,18.69,0,0,1,264.19,246.54Z" transform="translate(-61 -30.85)"/><path class="cls-16" d="M244.58,176.84c.13,1.17,1.26,1.94,2.34,2.4l-6.83,2.18a3.09,3.09,0,0,0-.35-2.73,16.33,16.33,0,0,0-1.22-1.95c-.07-.1-.14-.21-.09-.32a.29.29,0,0,1,.19-.15,17,17,0,0,1,4.39-1.51c.44-.06,1.28-.24,1.61.21S244.51,176.31,244.58,176.84Z" transform="translate(-61 -30.85)"/><path class="cls-5" d="M244.58,176.84c.13,1.17,1.26,1.94,2.34,2.4l-6.83,2.18a3.09,3.09,0,0,0-.35-2.73,16.33,16.33,0,0,0-1.22-1.95c-.07-.1-.14-.21-.09-.32a.29.29,0,0,1,.19-.15,17,17,0,0,1,4.39-1.51c.44-.06,1.28-.24,1.61.21S244.51,176.31,244.58,176.84Z" transform="translate(-61 -30.85)"/><circle class="cls-16" cx="179.61" cy="141.58" r="5.36"/><path class="cls-14" d="M236,216.53a2.37,2.37,0,0,0,2.24.6c1.87-.3,3.4-1.68,5.23-2.17,2.24-.61,4.62.17,6.74,1.13s4.22,2.13,6.54,2.29c-2.09-4.67-.9-10.29-2.9-15a12,12,0,0,1-1.28-3.51c-.14-1.55.63-3,.75-4.58a11,11,0,0,0-.7-4c-.49-1.61-1-3.21-1.46-4.82a18.2,18.2,0,0,0-2.18-5.17c-.39-.57-.51-1.72-1.1-2.06-1.3-.76-3.28.19-4.69.24a4.89,4.89,0,0,0-3.52,2.19,14,14,0,0,0-1.82,4,38.82,38.82,0,0,0-1.63,6.45c0,.33-.08.66-.11,1-.31,3.12.14,6.27.16,9.4v0c0,4-.61,7.94-.72,11.92A3.14,3.14,0,0,0,236,216.53Z" transform="translate(-61 -30.85)"/><path class="cls-5" d="M236.24,202.52a6.91,6.91,0,0,0,2.81-1.69,11.16,11.16,0,0,0,1.87-2.13,15,15,0,0,0,1.61-3.36,39.34,39.34,0,0,0,2.13-9.82,3.75,3.75,0,0,0-.44-2.61,2.2,2.2,0,0,0-2.66-.65,4.39,4.39,0,0,0-1.62,1.74,22.68,22.68,0,0,0-2.26,4.2c-.25.67-.43,1.35-.66,2a17.32,17.32,0,0,1-.84,1.93c0,.33-.08.65-.11,1C235.79,196.25,236.22,199.38,236.24,202.52Z" transform="translate(-61 -30.85)"/><path class="cls-14" d="M244.2,182.32a3.77,3.77,0,0,1,.45,2.61,39.79,39.79,0,0,1-2.13,9.82,14.84,14.84,0,0,1-1.61,3.39,11.85,11.85,0,0,1-1.87,2.13,5.87,5.87,0,0,1-3.69,1.8,7,7,0,0,1-2.3-.51l-11.42-3.88a4.54,4.54,0,0,1,.56-2l.61-1.8a2.28,2.28,0,0,1,.82-1.31c.46-.27,1.18.1,1.55.4s.67.7,1,1a5.76,5.76,0,0,0,2.52,1l2.56.57a10.22,10.22,0,0,0,2.86.38c.71-2.18,2.07-4.1,2.84-6.27.24-.66.42-1.34.66-2a22.46,22.46,0,0,1,2.27-4.2,4.43,4.43,0,0,1,1.61-1.74A2.21,2.21,0,0,1,244.2,182.32Z" transform="translate(-61 -30.85)"/><path class="cls-14" d="M242.31,173.64a2.73,2.73,0,0,0-.32-1,.83.83,0,0,0-.91-.4c-.54.16-.71,1-1.27,1-.38,0-.65-.37-.77-.72a2.21,2.21,0,0,0-.47-1,1.73,1.73,0,0,0-.66-.3,4.42,4.42,0,0,1-3.07-2.46,1.44,1.44,0,0,1-.07-.82c.2-.82,1.22-1.07,2-1.36a24.78,24.78,0,0,0,2.28-1.19,3.8,3.8,0,0,1,2.48-.46c.43.14.84.29,1.25.47,1.26.44,2.8.23,3.78,1.14a3.93,3.93,0,0,1,.91,1.6c.68,1.89,1.11,4.13,0,5.79-.69,1-1.37,2.2-2.7,2.32C243.18,176.37,242.56,175,242.31,173.64Z" transform="translate(-61 -30.85)"/><g class="cls-2"><path d="M239.94,171.89a2.23,2.23,0,0,0-.47-1,1.74,1.74,0,0,0-.66-.31,4.4,4.4,0,0,1-3.07-2.46,1.43,1.43,0,0,1-.07-.82,1,1,0,0,1,.16-.36,1.58,1.58,0,0,0-1.05,1,1.53,1.53,0,0,0,.07.82,4.44,4.44,0,0,0,3.07,2.46,1.84,1.84,0,0,1,.67.3,2.26,2.26,0,0,1,.46,1c.12.36.39.74.77.72s.56-.36.8-.65C240.29,172.57,240.05,172.23,239.94,171.89Z" transform="translate(-61 -30.85)"/><path d="M245.63,175.59c-1.56.14-2.18-1.28-2.43-2.59a2.82,2.82,0,0,0-.31-1,.85.85,0,0,0-.91-.4,1.65,1.65,0,0,0-.67.61.94.94,0,0,1,.69.43,2.73,2.73,0,0,1,.32,1c.24,1.31.86,2.74,2.43,2.59a2.53,2.53,0,0,0,1.61-.83A2.64,2.64,0,0,1,245.63,175.59Z" transform="translate(-61 -30.85)"/></g><ellipse class="cls-4" cx="247.26" cy="199.42" rx="9.82" ry="1.89"/><ellipse class="cls-3" cx="247.1" cy="198.62" rx="1.14" ry="1.5"/><ellipse class="cls-3" cx="247.1" cy="196.79" rx="1.14" ry="1.5"/><ellipse class="cls-3" cx="247.1" cy="194.96" rx="1.14" ry="1.5"/><ellipse class="cls-3" cx="247.1" cy="193.13" rx="1.14" ry="1.5"/><ellipse class="cls-3" cx="247.1" cy="191.3" rx="1.14" ry="1.5"/><ellipse class="cls-3" cx="247.1" cy="189.47" rx="1.14" ry="1.5"/><ellipse class="cls-3" cx="247.1" cy="187.64" rx="1.14" ry="1.5"/><path class="cls-4" d="M312.38,206a5.31,5.31,0,0,0,.42-.63l-3-.49,3.25,0a5.46,5.46,0,0,0,.1-4.34l-4.36,2.27,4-3a5.47,5.47,0,1,0-9.46,5.5,5.39,5.39,0,0,0,.43.63,5,5,0,0,0-.63,1l3.9,2-4.16-1.4a5.45,5.45,0,0,0,.89,5.13,5.47,5.47,0,1,0,8.6,0,5.45,5.45,0,0,0,0-6.77Z" transform="translate(-61 -30.85)"/><path class="cls-5" d="M302.6,209.36a5.39,5.39,0,0,0,1.18,3.38,5.47,5.47,0,1,0,8.6,0C313.11,211.81,302.6,208.74,302.6,209.36Z" transform="translate(-61 -30.85)"/><ellipse class="cls-4" cx="45.13" cy="236.24" rx="14.14" ry="2.72"/><ellipse class="cls-3" cx="44.9" cy="235.09" rx="1.65" ry="2.16"/><ellipse class="cls-3" cx="44.9" cy="232.45" rx="1.65" ry="2.16"/><ellipse class="cls-3" cx="44.9" cy="229.82" rx="1.65" ry="2.16"/><ellipse class="cls-3" cx="44.9" cy="227.19" rx="1.65" ry="2.16"/><ellipse class="cls-3" cx="44.9" cy="224.55" rx="1.65" ry="2.16"/><ellipse class="cls-3" cx="44.9" cy="221.92" rx="1.65" ry="2.16"/><ellipse class="cls-3" cx="44.9" cy="219.28" rx="1.65" ry="2.16"/><path class="cls-4" d="M112.06,232.11a9.62,9.62,0,0,0,.61-.91l-4.33-.71,4.68,0a7.94,7.94,0,0,0,.15-6.25l-6.27,3.27,5.78-4.26A7.89,7.89,0,0,0,99,231.16a8.64,8.64,0,0,0,.64.94,8.32,8.32,0,0,0-.91,1.44l5.62,2.92-6-2a7.85,7.85,0,0,0,1.29,7.41,7.89,7.89,0,1,0,12.4,0,7.89,7.89,0,0,0,0-9.75Z" transform="translate(-61 -30.85)"/><path class="cls-5" d="M98,237a7.85,7.85,0,0,0,1.68,4.86,7.89,7.89,0,1,0,12.4,0C113.11,240.52,98,236.1,98,237Z" transform="translate(-61 -30.85)"/></svg>