<svg id="Layer_1" data-name="Layer 1" xmlns="http://www.w3.org/2000/svg" viewBox="0 0 365.32 259.6"><defs><style>.cls-1{fill:#e6e6e6;}.cls-2{fill:#fff;}.cls-3{fill:#6c63ff;}.cls-4{fill:#7f77ff;}.cls-5{fill:#3f3d56;}.cls-6{fill:#a0616a;}.cls-7{fill:#2f2e41;}.cls-8{fill:#cfcce0;}.cls-9{opacity:0.2;isolation:isolate;}</style></defs><title>what-7</title><ellipse class="cls-1" cx="31.05" cy="255.88" rx="31.03" ry="3.72"/><rect class="cls-1" x="81.03" y="0.16" width="284.29" height="182.07"/><rect class="cls-2" x="89.16" y="23" width="268.03" height="148.46"/><rect class="cls-3" x="80.91" width="284.29" height="12.08"/><circle class="cls-2" cx="89.89" cy="6.17" r="2.24"/><circle class="cls-2" cx="98.38" cy="6.17" r="2.24"/><circle class="cls-2" cx="106.88" cy="6.17" r="2.24"/><path class="cls-4" d="M269.49,81.38a2.09,2.09,0,0,0-.08.51Z" transform="translate(-28 -21)"/><path class="cls-4" d="M235.21,97.06c0-.37-.08-.53-.14-.55C235.11,96.86,235.15,97.14,235.21,97.06Z" transform="translate(-28 -21)"/><path class="cls-4" d="M234.52,104.94c0,.16,0,.31-.05.49A.75.75,0,0,1,234.52,104.94Z" transform="translate(-28 -21)"/><path class="cls-4" d="M269.41,81.89l-.21,1.3C269.42,83.29,269.36,82.52,269.41,81.89Z" transform="translate(-28 -21)"/><path class="cls-4" d="M281.23,69.69h.4a1.75,1.75,0,0,0,.33-.28Z" transform="translate(-28 -21)"/><path class="cls-4" d="M296.83,70.37a.46.46,0,0,1,.36-.38,2.86,2.86,0,0,0-.36-.41C296.64,69.56,296.84,70.13,296.83,70.37Z" transform="translate(-28 -21)"/><path class="cls-4" d="M313.15,59.25l.14,0Z" transform="translate(-28 -21)"/><path class="cls-4" d="M312.82,59.31l.33-.06A3.23,3.23,0,0,0,312.82,59.31Z" transform="translate(-28 -21)"/><path class="cls-4" d="M268.74,71a.18.18,0,0,0-.2.09C268.61,71.17,268.68,71.12,268.74,71Z" transform="translate(-28 -21)"/><path class="cls-4" d="M333,59.89l0,.26a.87.87,0,0,0,.32.06Z" transform="translate(-28 -21)"/><path class="cls-4" d="M233.26,114.5s0,0,0,0,0,0,0,0l-.11,0h-.06l.17,0A0,0,0,0,1,233.26,114.5Z" transform="translate(-28 -21)"/><path class="cls-4" d="M187.77,177.07c-1.59-.51,2.59-.65.19-1.21C188.19,176.08,185.79,176.74,187.77,177.07Z" transform="translate(-28 -21)"/><path class="cls-4" d="M200.5,121.83a1,1,0,0,1-.25.36C200.37,121.92,200.44,121.84,200.5,121.83Z" transform="translate(-28 -21)"/><path class="cls-4" d="M224.08,115.68a3.5,3.5,0,0,1-.65-.07Z" transform="translate(-28 -21)"/><path class="cls-4" d="M192.06,123.84a1.52,1.52,0,0,0-.67,0l.15.07A.92.92,0,0,1,192.06,123.84Z" transform="translate(-28 -21)"/><path class="cls-4" d="M192.06,123.84l.29,0Z" transform="translate(-28 -21)"/><path class="cls-4" d="M178.14,123.89l.26.11.45,0Z" transform="translate(-28 -21)"/><path class="cls-4" d="M189.93,124.27s0,0,0,0Z" transform="translate(-28 -21)"/><path class="cls-4" d="M330.72,176.25l-.28,0Z" transform="translate(-28 -21)"/><path class="cls-4" d="M334.55,163.21h0S334.55,163.22,334.55,163.21Z" transform="translate(-28 -21)"/><path class="cls-4" d="M222.87,116.05a3.31,3.31,0,0,0,.42-.12C223.58,116,223.18,116,222.87,116.05Z" transform="translate(-28 -21)"/><path class="cls-4" d="M334.14,113.42l.07-.34C334.18,113.2,334.16,113.31,334.14,113.42Z" transform="translate(-28 -21)"/><path class="cls-3" d="M334.87,156.45a.72.72,0,0,1,.18-.25l.06.2a3.68,3.68,0,0,0-.09-1.24,12.85,12.85,0,0,0,.16-1.63c.43-.23.23-2.31.25-3.31-.56.08-.47-1.21-.93,0,0-.07.05.28.08.89a3,3,0,0,0,.06.43l-.06-.07c0,.66,0,1.52,0,2.5a4.1,4.1,0,0,1-.21-2.74c-.37-.51-.74-1.08-.92-1.4.8-1.37,1.22-4,1.71-4.39-.32-3.07-.21-7.23-1.28-9.16-.14-.87.31-1,.48-1.33a7.15,7.15,0,0,0,.24,1.38c-.27-1.74-.1-5.17-.85-5.58.33-2.2.69,1.23.56-1.79l.23.41c1.17-5.84-1.79-9.53-.44-15.91-.06.24-.11.38-.19.44.67-7.51-.64-15.47.43-22.88.22-2.11-.26-2.34-.62-3.62l.61-.46-.7-2.2c-.52-3.11,1.49-5.39.52-9.34l-.41.51c.08-1.42-.25-4.49.23-4.25a1,1,0,0,1-.21-1l.32,0-.55-3.49c.23-2.69,1.26.43,1.33-3.51-.13-1.47-.93-4.17-1.15-3.62,0,.59-.2,1.51-.52,1.55l-.16-1.34-.18,0v-.21h-.58a.92.92,0,0,0-.76,0H317.07l.16-.16-.48.16H314.7c.07-.12.26-.22.66-.27-1.48-.42-1.31.3-2.59-.17-.14-.07-.08-.11.06-.14l-1.46.25c.29-.18-.24-.6.65-.48-2.6-.48-4.2.63-5.18,0l.22,0c-2.7.21-1.56.45-1.95.86h-1.69l-.34-.28-.45-.38a3.07,3.07,0,0,0-.51-.38,4.72,4.72,0,0,0-.37.61c-.42,0-1.28-.07-1.24-.32-.74.22-.59.28-.41.35s.43.12.13.33a7.13,7.13,0,0,0-1.45-.2c0,.89,0,2,0,2.81s-.12,1.42-.52,1.6c.47.64.36-1.72.69.19-1.06.54.18,2.24-.31,3.84-.54-.46-.25-2-.74-.4a1.4,1.4,0,0,1,.33.58,1.78,1.78,0,0,1,0,.65,5.71,5.71,0,0,1-.33,1.14,1.8,1.8,0,0,0-.73,0c.24.36-.3.44-1.11.46h-1.63c-.6,0-1.22,0-1.8.08.15-.24-4.37-.4-6.52-.66l.06-.13c-.42.75-2.65.6-4.27.76.06-.45.35-.62,1.24-.82h-1.53a3.83,3.83,0,0,1-1.82.44l.38-.55c-1,0-2,.18-3.13.29-.55.06-1.11.1-1.71.11l-.91,0-.46,0-.54-.06c-.05.13.14.29.27.45a5.17,5.17,0,0,1,.42.51.36.36,0,0,1,0,.35h-1.42c0-.16.1-.3.4-.37a3.09,3.09,0,0,1-1.28.09,11.52,11.52,0,0,1,1.12-.47c-1.54-.21-.63.39-1.71.35-.22-.4-1-.29-1.12-.6a7.34,7.34,0,0,0,1.56,0c-.8-.05-1.75-.14-2.63-.27a3.38,3.38,0,0,1-.34,1.12c.22,0,.53.4.58,1.44,0,1.33-.1,1.54-.25,1.62s-.16,0-.23.15a.8.8,0,0,0-.11.23,2.14,2.14,0,0,0-.09.34c.27.49,0,1.79.59,1.82,0,.6-.29.71-.45.94.26,1.05.08,4.9.71,3.72l0-.27,0,.17a15.88,15.88,0,0,1,.19,3.16c0,.88-.1,1.71-.19,2.45-.59,0-1.14-.1-1.65-.12-.26,0-.51,0-.76,0h-.49l-.51,0v-.2c-2,.23-4.54.13-6,.57-.6,0-1.42-.37-1.16-.6a11,11,0,0,1-4,0c1.57-.35-.54-.31,1.61-.26-2-.17-2.49-.49-4.66.06.74-.52-1.52-.64-2.49-.5l1.42.37a24.86,24.86,0,0,1-3,0l.52-.67a15.45,15.45,0,0,0-5.68.21,16.71,16.71,0,0,1-2.54.27h-.31l-.39,0c-.3,0-.61,0-.92-.07a19.39,19.39,0,0,1-2-.36c-.73.23.24.31,1.13.41s1.75.2,1.12.47a33.58,33.58,0,0,1-4-.51,15.45,15.45,0,0,0-.54,2.69c-.05.53-.07,1-.07,1.44,0,.21,0,.41,0,.59s0,.21,0,.26l0,.14a4.5,4.5,0,0,0,.33,1,4.75,4.75,0,0,1,.4,2.63c.24-.35.88-.68,1.11,1.36,0,1.13-.4,1.75-.71,1.81s-.34-.11-.43-.42a1.14,1.14,0,0,1-.06-.25c0-.46.06-.67.14-.66-.09-.61-.19-1.42-.45-.66l.24.24a7.62,7.62,0,0,0-.16,1c-.1,1.09-.17,2.35-.46,1.91.2,1.23.35.8.47,0-.26,2.19,0,3.54-.19,5.91.13-.4.41-.78.41-.38-.3,3.7.46,1.63.56,4.13-.37,1.43-.87-.5-.57,2-.24,1.54-.63.33-.83-.28a8.66,8.66,0,0,1,0,3.17l0,.2a.77.77,0,0,0,0,.15l0,.08s0,0,0,0l0,0a.69.69,0,0,1-.13.11l-.16.11a1.15,1.15,0,0,0-.14-.17.26.26,0,0,1,.06.21l.16.09a1.75,1.75,0,0,0,.32.12c-.08.12-.08.24-.24.09l-.05,0a3,3,0,0,0,.5.57c.21.21.46.44.22.65a2.64,2.64,0,0,0-1,0h-.25a2.45,2.45,0,0,1-.38,0,.71.71,0,0,1-.51-.29c.38,0,.65,0,.85,0a.29.29,0,0,0,.18,0c.06,0,0-.15,0-.24s-.09-.35,0-.45h-.06l-.1,0-.48,0c-.1-.08.1-.14.3-.17a5.6,5.6,0,0,0-.59-.1,2.86,2.86,0,0,0-1,0c-.74.17-.58.81-2.66.8.37-.36-.69-.68-1.17-.6,1.19,0,.57.6-.52.87-1.9-.28-2.06.21-3,.17l1.13.14c-.38.36-1.33.31-2.65.42,0-.09.07-.14.21-.17-1.36.21-3-.73-4.78-.38h-.05c-.95-.25-.1-.67-.93-.84-2.29.47-2.48-.49-4.88-.11.69.49.81.37-.89.84l4-.34-2.54.7c1.2,0,2.52-.31,3.24-.22-1.21.39-1.09.27-.51.67-1.64-.72-3.24.42-5.13-.06l.06-1.2a11.05,11.05,0,0,0-3.63,0l-.46.06-.23,0h-.15l-.19,0-1.53.11c-1,.07-2.06.12-3.25.11,0,.54,0,1.09,0,1.67l.19-1.53.15,0a.16.16,0,0,1-.08.06,7.34,7.34,0,0,1,.17,2.29v.21h0c0,.38,0,.77,0,1.17,0,.23,0,.46,0,.69s0,.22,0,.33l0,.16v.11c-.4-.12-.54.63-.79,1.14.07,0,.11.15.13.4s0,.23.07.39a2,2,0,0,0,.57,1.11.83.83,0,0,1-.21.16,6.73,6.73,0,0,1-.73-.32,1.16,1.16,0,0,0-.73.09l-.16.08a.28.28,0,0,1-.13,0l-.17,0-.64.21a6.92,6.92,0,0,1-3.08.53c.86-.43-.44-.71,1.48-1-1,0-1.82-.08-1.83.2a.76.76,0,0,0-.33,0c-.48,0-1.25.19-2,.27a3.49,3.49,0,0,1-1,0,.79.79,0,0,1-.22-.06l-.13.06a1.88,1.88,0,0,1-1.48.49.1.1,0,0,1,0-.14h0c-.21.17-1.57.26-.7.67a12.26,12.26,0,0,0-4.73-.57c-2.28,0-4.61.2-6.07-.41l-3.31.19-1.66.06-.78,0h-.81c.08-.06.08-.11.13-.14a.54.54,0,0,1,.31,0l-.21,0-.27,0-.47,0c-.25,0-.5,0-.74,0a2.17,2.17,0,0,0-.86.27,2.38,2.38,0,0,1-1.47.55,7.08,7.08,0,0,1-.06,1.3c-.16.35-.26.43-.33.32a2.4,2.4,0,0,1-.12-.75c0-.64,0-1.37-.14-.83-.66-.29-.61,1.26-.5,3,.06,1,.13,1.41.14,2a4.42,4.42,0,0,1-.23,1.66l-.08-.48c-.45,1.53.5,3.73.41,6.23,0,0-.12-.12-.2,0,.67,1.71.89,4.94,1.07,7.34-.51-.75-.27-1.09-.79-.63.07,1.08.84-.32,1,1.83-.27.7-.52,2.25-1.08,2.46l0-2c-.72,1,0,2.62-.1,3.69l-.31-.13c.1,3.1.89,3.15.83,6.49L168,156c.79,1.83-.44,1.53.15,3.35l-.8.56c.19,1.2.77,4.21.92,6.37-.59-1.22-.89-3.75-1.25-5.31,0,1.19.06,4.05.46,4.68a4.2,4.2,0,0,1-.15-1.57,14.86,14.86,0,0,1,.92,5.77c-.51-.13-.73.48-.83,1.43a1.37,1.37,0,0,1,0,.19c0,.09,0,.18,0,.27l0,.59c0,.4,0,.83,0,1.27,0,.89,0,1.83-.06,2.74a14.65,14.65,0,0,1,4.53.61l.33,0,.2,0,.4,0,.79-.07c.52,0,1.05,0,1.58,0,1.05,0,2.12,0,3.21.1,2.17.12,4.43.31,6.88.26-1.74-1.2,1.43,0,1.13-1.27a4.3,4.3,0,0,1,1.67,0l-.16,0,.17.05h0l3.46.74c.82.36-1.09.27-1,.55,2.5.1,1.05.52,2.7.85-.34-.44.87-.63,2.3-.46l-2-.57c3.49-.66,3,1,6.54.38l-1.11.39c1.81-.23,6.66,0,8.44-1,.32.14.74.48-.06.57,4.32.15,9.62-1.06,13-.45l-.32.3c.8-.08,1.4-.56,2.41-.26-.05.12-.33.3,0,.32a9.83,9.83,0,0,1,3.21-.35l-.92.34a20.22,20.22,0,0,0,6.44-.53,26.54,26.54,0,0,1,3.56-.51c0,.89,3.31,1.18,5,1.32l-.06.13a44.6,44.6,0,0,0,5.89-.29c1.5-.17,2.95-.38,4.49-.55h0l.29,0,1.09-.11.34,0,.77-.07a15.43,15.43,0,0,0,3.94.56c3.16.16,7.14,0,10.14.39-.69-.16.12-.7.92-.78,1,.17,2.71-.53,2.78.06a.28.28,0,0,1,0,.13h-.37c.8.8,3,.59,4.69.61l.28-1.07c4.46,1.55,11.7-.57,14.13.82,1.08-.27,2.41-.26,3.48-.53l-.06.57a76.79,76.79,0,0,0,8.17.08l-.76.41c2.09,0,2.63-1.65,4.55-1.68l.58.85c3.63,0,7.3.74,10.89,0-.06.12-.16.37-.75.4,1.65,0,6.29.55,6-.48.4.58,3.81-.05,5.66-.37l-.3.56c.83-.36,1.25-.59,1.76-.75a6.77,6.77,0,0,1,.89-.21l.62-.08,1-.08c.7.07.81.38,0,.34a5.3,5.3,0,0,0,1.82-.08,5.4,5.4,0,0,1,1.55-.25,9.82,9.82,0,0,1,.07-1.21c.12.46.24,1,.36,1.49a14.89,14.89,0,0,0-.11-2.59c-.1-.52-.25-.9-.46-1.62a2.91,2.91,0,0,1,0-.31c0-.1,0-.2,0-.31s0-.37,0-.57a8.13,8.13,0,0,1,.12-1.2,2.64,2.64,0,0,1,.6-1.58,3.08,3.08,0,0,1-.58-2.39c.19-.14.31.26.37.46.38-3.14-.65-4.67-.1-6.83a.47.47,0,0,0,.33-.36c0,2.29,0,4.16-.07,4.31.51,0,.6-2,1.32-.41C335.47,161.18,334.62,158.42,334.87,156.45Zm.45-4.18c.08.67,0,.9-.15,1,0-.32,0-.69-.06-1.17L335,152A.77.77,0,0,1,335.32,152.27ZM312.2,59.8a.82.82,0,0,1,.19.09h-.86l.67-.09Z" transform="translate(-28 -21)"/><path class="cls-4" d="M233.52,114.71a.14.14,0,0,1-.1.05Z" transform="translate(-28 -21)"/><path class="cls-4" d="M222.77,116.07l.1,0Z" transform="translate(-28 -21)"/><path class="cls-4" d="M334.58,151.07a1.26,1.26,0,0,1,0-.27,2.67,2.67,0,0,0-.13.4l.18.23Z" transform="translate(-28 -21)"/><path class="cls-4" d="M269.49,81.38a.46.46,0,0,1,.08-.19c0,.06-.05.06-.07.1Z" transform="translate(-28 -21)"/><path class="cls-4" d="M297.73,59.21c.18,0,.39.26.35,2.2L298.2,59l.89,0c-.72-.22-1.91-.52-.26-.57l-1.31-.15C297.39,59.49,297.55,59.21,297.73,59.21Z" transform="translate(-28 -21)"/><path class="cls-4" d="M297.76,69.09c-.05-.45-.13-.46-.21-.41s-.17.18-.23.12C297.52,69.34,297.57,69.6,297.76,69.09Z" transform="translate(-28 -21)"/><path class="cls-4" d="M258.42,86.27l.14-.51C257.48,85.83,258.55,86,258.42,86.27Z" transform="translate(-28 -21)"/><polygon class="cls-4" points="211.77 64.34 211.86 64.33 212.02 64.32 212.69 64.26 213.16 64.19 212.26 64.28 211.81 64.33 211.07 64.38 211.63 64.35 211.77 64.34"/><path class="cls-4" d="M180.67,123.38l.32.64C181.72,123.91,181.88,123.19,180.67,123.38Z" transform="translate(-28 -21)"/><path class="cls-4" d="M167.37,156a3,3,0,0,0-.21,2.38A23.79,23.79,0,0,0,167.37,156Z" transform="translate(-28 -21)"/><polygon class="cls-4" points="248.06 156.45 249.66 156.27 248.91 156.24 248.06 156.45"/><path class="cls-2" d="M283.92,125.29a61.34,61.34,0,0,1-2,14.51c-4.9,18.11-18.3,31.28-25.52,37.3a15.43,15.43,0,0,1-3.94-.56l-.77.07-.34,0-1.09.11-.29,0h0a92.34,92.34,0,0,1-5-18.91h0a67.94,67.94,0,0,1,1.18-27.74,60.37,60.37,0,0,1,4.65-11.89c9.39-18.22,25.63-29.08,25.63-29.08S284.4,105.64,283.92,125.29Z" transform="translate(-28 -21)"/><path class="cls-2" d="M234.52,104.94c0,.16,0,.31-.05.49A.75.75,0,0,1,234.52,104.94Z" transform="translate(-28 -21)"/><path class="cls-2" d="M222.87,116.05a3.31,3.31,0,0,0,.42-.12C223.58,116,223.18,116,222.87,116.05Z" transform="translate(-28 -21)"/><path class="cls-2" d="M223.43,115.61l.65.07A3.5,3.5,0,0,1,223.43,115.61Z" transform="translate(-28 -21)"/><path class="cls-2" d="M233.14,114.55h-.06l.17,0a0,0,0,0,1,0,0s0,0,0,0,0,0,0,0Z" transform="translate(-28 -21)"/><path class="cls-2" d="M233.52,114.71a.14.14,0,0,1-.1.05Z" transform="translate(-28 -21)"/><path class="cls-2" d="M256.59,157.84v0a91.46,91.46,0,0,1-4.94,18.74l-.34,0-1.09.11-.29,0h0c-1.54.17-3,.38-4.49.55-7.15-5.91-20.84-19.19-25.8-37.54a60.83,60.83,0,0,1-2-14.51,73.27,73.27,0,0,1,.4-9.6c1.79-.35,3.42.59,4.78.38-.14,0-.24.08-.21.17,1.32-.11,2.27-.06,2.65-.42l-1.13-.14c1,0,1.15-.45,3-.17,1.09-.27,1.71-.86.52-.87.48-.08,1.54.24,1.17.6,2.08,0,1.92-.63,2.66-.8h1a5.6,5.6,0,0,1,.59.1c-.2,0-.4.09-.3.17l.48,0,.1,0h.06c-.12.1-.1.28,0,.45s.08.19,0,.24a.29.29,0,0,1-.18,0c-.2,0-.47,0-.85,0a.71.71,0,0,0,.51.29,2.45,2.45,0,0,0,.38,0h.25a2.64,2.64,0,0,1,1,0c.24-.21,0-.44-.22-.65a3,3,0,0,1-.5-.57l.05,0c.16.15.16,0,.24-.09a1.75,1.75,0,0,1-.32-.12h.29v-.65l0-.2a8.66,8.66,0,0,0,0-3.17c.2.61.59,1.82.83.28-.3-2.51.2-.58.57-2-.1-2.5-.86-.43-.56-4.13,0-.4-.28,0-.41.38.22-2.37-.07-3.72.19-5.91-.12.82-.27,1.25-.47,0,.29.44.36-.82.46-1.91l.29.28.43.42a81.23,81.23,0,0,1,15.33,20.4h0a60.08,60.08,0,0,1,4.66,11.88A68,68,0,0,1,256.59,157.84Z" transform="translate(-28 -21)"/><path class="cls-5" d="M200.5,121.83a1,1,0,0,1-.25.36C200.37,121.92,200.44,121.84,200.5,121.83Z" transform="translate(-28 -21)"/><path class="cls-5" d="M189.93,124.27s0,0,0,0Z" transform="translate(-28 -21)"/><path class="cls-5" d="M250.22,176.75l-.29,0h0c-1.54.17-3,.38-4.49.55a44.6,44.6,0,0,1-5.89.29l.06-.13c-1.65-.14-5-.43-5-1.32a26.54,26.54,0,0,0-3.56.51c-8.74-2.84-18.92-7.66-27.25-15.76-11.74-11.43-17-26.69-19.36-36.52a12.18,12.18,0,0,1,4.72.57c-.86-.41.5-.5.71-.67a.11.11,0,0,0,0,.15h0a1.88,1.88,0,0,0,1.48-.49h3.33v-.27a.76.76,0,0,1,.33,0c0-.28.87-.21,1.83-.2-1.92.31-.62.59-1.48,1a6.92,6.92,0,0,0,3.08-.53l.64-.21.17,0a.28.28,0,0,0,.13,0l.16-.08a1.16,1.16,0,0,1,.73-.09,6.73,6.73,0,0,0,.73.32.83.83,0,0,0,.21-.16,2,2,0,0,1-.57-1.11c0-.16,0-.28-.07-.39s-.06-.42-.13-.4c.25-.51.39-1.26.79-1.14v-.11l0-.16c0-.11,0-.22,0-.33s0-.46,0-.69c0-.4,0-.79,0-1.17a79,79,0,0,1,16.33,7.06,61.15,61.15,0,0,1,12.09,9.07,68,68,0,0,1,15.24,23.51h0A91,91,0,0,1,250.22,176.75Z" transform="translate(-28 -21)"/><path class="cls-5" d="M269.81,176.89h0Z" transform="translate(-28 -21)"/><path class="cls-5" d="M318.75,114.55s-2.3,28.1-21.07,46.38c-8.4,8.18-18.69,13-27.48,15.84-.07-.59-1.78.11-2.78-.06-.8.08-1.61.62-.92.78-3-.36-7-.23-10.14-.39a15.43,15.43,0,0,1-3.94-.56l-.77.07-.34,0a92.33,92.33,0,0,1,5.28-18.8,68.1,68.1,0,0,1,15.24-23.47,61.2,61.2,0,0,1,12.09-9.08A87.22,87.22,0,0,1,318.75,114.55Z" transform="translate(-28 -21)"/><path class="cls-6" d="M54.6,98.34S49,109.59,40.28,112.15s21,0,21,0-1.54-8.19.51-9.21S54.6,98.34,54.6,98.34Z" transform="translate(-28 -21)"/><path class="cls-7" d="M45.51,79c-.3-2.67,1.15-5,3.26-5.27h.07a3,3,0,0,0-.79,0c-2.11.24-3.57,2.6-3.26,5.26s2.22,4.59,4.29,4.4C47.3,83.12,45.78,81.33,45.51,79Z" transform="translate(-28 -21)"/><path class="cls-7" d="M47.4,82.62c-2.54-.87-4-3.19-3.37-5.2a.14.14,0,0,1,0-.06,3.61,3.61,0,0,0-.35.71c-.68,2,.83,4.33,3.37,5.19s5.1-.05,5.81-2C51.89,82.75,49.62,83.37,47.4,82.62Z" transform="translate(-28 -21)"/><path class="cls-6" d="M29.81,131.92l.75,21.67,11.77,27.63S39.26,195.55,45.4,195s.51-14.32.51-14.32l-5.63-29.16-1-24.05Z" transform="translate(-28 -21)"/><circle class="cls-6" cx="34.79" cy="73.76" r="11.26"/><path class="cls-8" d="M72,114.2l-11.09-4.43s-2.21.33-8.35.85a38.77,38.77,0,0,1-8.87,0s-13.13,4.58-12.62,7.14,6.14,43,8.7,40.93a15.33,15.33,0,0,1,4.09-2.56L72,153.59Z" transform="translate(-28 -21)"/><path class="cls-8" d="M33.12,116.76H31.45s-1.92,1-1.92,4.09S28,133.13,28,133.13h8.19Z" transform="translate(-28 -21)"/><path class="cls-7" d="M48.21,121.62l-6.18-10a1.4,1.4,0,0,0-1.36-.65l-1.61.2a1.39,1.39,0,0,0-1.21,1.56,1.08,1.08,0,0,0,0,.19l3.17,11.76s5,20.76.2,31.86l-.2,5s-4.61,15.35-3.58,27.12,1.53,22,1.53,22-2.56,7.67-1.53,10.23a6,6,0,0,1,0,3.12,103.69,103.69,0,0,0-1.61,22.53l.07,2.49s-3.58,3.07-.51,3.58,12.79,1.54,12.79,1.54,2-3.59,1-4.1l3.07-16.88s5.12-7.16,4.61-11.77c0,0,1.53-7.67,0-11.25l.51-22.52,2,27.12L56.4,248.5s-4.1,3.07-1.54,4.09,18.42,6.14,18.42,3.58a5.18,5.18,0,0,0-1-3.58l6.65-69.07-3.58-28.65s-24-2.05-22-29.16c0,0,5.88-12.22,11.69-14.53a.32.32,0,0,0,.19-.42.33.33,0,0,0-.22-.21l-2.36-.67a.31.31,0,0,0-.19,0C61.41,110.23,52.54,113.43,48.21,121.62Z" transform="translate(-28 -21)"/><path class="cls-7" d="M60,252.08l-.09.73a33.91,33.91,0,0,1-4.47,13.28c-1.14,2-2,4.19-1.58,5.94,1,4.1.51,5.63.51,5.63h8.18v-1.53l4.57,1.24a5.08,5.08,0,0,0,3.11-.09,2.8,2.8,0,0,0,2.05-2.69,4.92,4.92,0,0,0-2.12-3.42,15.19,15.19,0,0,1-5-7.62l-.06-.21,3.07-11.26Z" transform="translate(-28 -21)"/><path class="cls-7" d="M38.74,252.34l-.08.73a33.81,33.81,0,0,1-4.47,13.27c-1.15,2-2,4.19-1.59,6,1,4.09.52,5.63.52,5.63H41.3v-1.54l4.57,1.25a5.08,5.08,0,0,0,3.11-.1,2.78,2.78,0,0,0,2-2.68,5,5,0,0,0-2.11-3.43,15.12,15.12,0,0,1-5-7.62l-.06-.21,3.07-11.25Z" transform="translate(-28 -21)"/><path class="cls-7" d="M65.06,96.65S73.13,92,76.25,91.71a5.12,5.12,0,0,0-.07-4s-.48-6.32-8.37-6.07c0,0-9.31-5-12.44-3s-10.09,12-7.15,17.85c0,0-3.4,1.71-3.56.79S42,98.84,45.31,101c0,0-4.67,4.72-.13,7.68,0,0-.21-4.19,2.42-5.46s.33.07.33.07-4.51,5.64,2.22,7.84c0,0-2.51-2.86,0-5.33,0,0-.78,5.77,3.87,6.38,0,0-2.4-3.43-1.14-4.67,0,0,.54,4.26,3.17,4.77l2,.38.66-3.43s-1.87,4.38,2.51,4.64c0,0-2.12-6.64.69-10.54S65.06,96.65,65.06,96.65Z" transform="translate(-28 -21)"/><ellipse class="cls-7" cx="49.49" cy="79.92" rx="4.86" ry="3.84" transform="translate(-72.1 50.12) rotate(-52.86)"/><path class="cls-3" d="M53.67,79.67A5.87,5.87,0,0,0,50,84.17a5.79,5.79,0,0,0,2.55-1.93A5.88,5.88,0,0,0,53.67,79.67Z" transform="translate(-28 -21)"/><path class="cls-8" d="M92.73,177.13l-.65-.86,4.72-3.54a4,4,0,0,0,1.56-3.67L96,150.19A7.86,7.86,0,0,1,99.1,143l5.14-3.85a4.59,4.59,0,0,1,6.43.92l1.19,1.59-.87.65-1.19-1.59a3.51,3.51,0,0,0-4.91-.7l-5.14,3.85a6.75,6.75,0,0,0-2.65,6.24l2.33,18.87a5.07,5.07,0,0,1-2,4.67Z" transform="translate(-28 -21)"/><polygon class="cls-8" points="66.41 157.73 70.26 152.67 68.96 150.93 63.19 153.44 38.02 170.83 42.47 176.78 66.41 157.73"/><rect class="cls-1" x="117.14" y="136.34" width="12.08" height="43.58" rx="3" transform="translate(-98.22 84.46) rotate(-36.85)"/><path class="cls-9" d="M139.28,169.55l-.7-.93-.14-.19a3,3,0,0,1-.6,4.21h0L133,176.28a3,3,0,0,1-4.2-.61l.14.19.69.93a3,3,0,0,0,4.21.6l4.86-3.64A3,3,0,0,0,139.28,169.55Z" transform="translate(-28 -21)"/><path class="cls-4" d="M124.87,149.7s-.08-.08-.08-.06S124.86,149.7,124.87,149.7Z" transform="translate(-28 -21)"/><path class="cls-4" d="M124.11,148.49a.12.12,0,0,0,0-.07Z" transform="translate(-28 -21)"/><path class="cls-4" d="M129.6,156.11s0,.11.1.2Z" transform="translate(-28 -21)"/><path class="cls-4" d="M132,159.17l0,.05.07,0Z" transform="translate(-28 -21)"/><path class="cls-4" d="M133.48,161.41a.18.18,0,0,1,.14.06.12.12,0,0,0,0-.07C133.64,161.35,133.53,161.4,133.48,161.41Z" transform="translate(-28 -21)"/><path class="cls-4" d="M138.14,167.88l0,0,0,.05Z" transform="translate(-28 -21)"/><path class="cls-4" d="M122.63,146.26h0C122.69,146.32,122.66,146.29,122.63,146.26Z" transform="translate(-28 -21)"/><path class="cls-4" d="M109,150.71c-.08-.28.37.27.22-.12C109.19,150.64,108.84,150.4,109,150.71Z" transform="translate(-28 -21)"/><path class="cls-4" d="M119,141.53a.19.19,0,0,0,0,.08S119,141.58,119,141.53Z" transform="translate(-28 -21)"/><path class="cls-4" d="M117.09,140.16a.8.8,0,0,0-.17.15h0A.38.38,0,0,1,117.09,140.16Z" transform="translate(-28 -21)"/><path class="cls-4" d="M115.2,141.94h0l0-.06Z" transform="translate(-28 -21)"/><path class="cls-3" d="M138.25,168c-.07.07-.19.18-.25.14l.11-.2,0,0,0,0-1.6-2.14h0l-.07,0-.21-.27s.06,0,.11.05c-.08-.25-.18-.14-.24-.37,0,0,0,0,0,0l-.18-.17s.07-.1.14,0c-.19-.41-.53-.49-.53-.7l0,0c-.31-.34-.24-.15-.34-.15l-.17-.23,0-.3-.14,0c0-.05-.1-.16,0-.17-.21-.14,0,.06-.17,0-.09-.31-.55-.63-.43-.81-.14,0,.12.28-.13.06.12-.21-.25-.28-.34-.56.14,0,.25.25.16,0-.25,0-.29-.45-.46-.62-.12.08-.35-.37-.63-.65a7.78,7.78,0,0,0-.55-1h0c-.17,0-.37-.29-.56-.49.08,0,.14,0,.26.07l-.15-.21a.46.46,0,0,1-.26-.19h.13a5.09,5.09,0,0,1-.73-.88c-.07,0-.06.23-.15.25l-.14-.18a.12.12,0,0,1,.13,0,.4.4,0,0,1-.16-.16l.19.09c-.08-.19-.12,0-.21-.17.06-.05,0-.13,0-.15s0,.13.12.16a1.06,1.06,0,0,1-.19-.45s-.08.07-.17,0c-.21-.27,0-.16-.08-.34-.1,0-.18-.24-.28-.18a.17.17,0,0,1,0-.18c-.15-.11-.51-.65-.5-.41l0,0,0,0a16.67,16.67,0,0,1-1.06-1.44l0,0a7.14,7.14,0,0,0-.7-.75c-.06-.08-.09-.23,0-.23a1.33,1.33,0,0,1-.41-.53c.21.17,0-.11.2.19-.18-.3-.17-.4-.48-.63.16,0,0-.28-.17-.39l.08.23a3.79,3.79,0,0,1-.3-.4l.16,0c-.28-.66-1-.84-1.08-1.43-.18-.09.18.34,0,.28a3.89,3.89,0,0,1-.28-.74c-.21-.4-.41-.21-.65-.61,0,.08-.07.2-.32-.05s-.07-.44.08-.3.06.1.05.11.17.17.14,0H125c-.06-.16-.33-.51-.2-.48-.19-.16-.13,0,0,.13-.19-.37-.39-.52-.6-.89,0,.07,0,.16,0,.1-.33-.53-.24-.16-.51-.49-.09-.23.19,0-.12-.34-.11-.24.08-.12.17-.06a2.34,2.34,0,0,1-.5-.81l.15.14a1.21,1.21,0,0,1-.21-.24v.15c-.06-.11-.12-.19-.09-.21s-.07.17-.29,0c0-.16-.33-.36-.26-.48.26.43.07-.12.34.2a1.08,1.08,0,0,1-.18-.24s0,0,.06,0c-.2-.46-.25-.09-.55-.49.1,0,0-.18,0-.23.12.16,0,.15-.19,0-.15-.29-.25-.25-.34-.39l.09.17c-.09,0-.18-.14-.34-.3,0-.05.16.13.13.06-.25-.13-.23-.53-.51-.76-.05-.15.11-.09,0-.22-.31-.26-.17-.4-.48-.68,0,.15,0,.16-.22,0l.45.49-.37-.26c.12.16.3.3.36.41-.18-.11-.15-.11-.16,0,0-.3-.4-.38-.51-.7l.2-.14c-.2-.44-.61-.6-.93-1.14l.08.19c-.12,0-.24-.3-.39-.44.08,0,0-.15,0-.25s-.27-.37-.43-.32l-.08-.29c-.25-.4-.58-.38-.9-.86.06,0,.06,0,.07-.09s0-.05.22.13c-.16-.21-.3-.42-.31-.34a.16.16,0,0,0,0-.07l0,0s0,0,0,0l-.17.21a1,1,0,0,1-.33.33.8.8,0,0,1-.2.37s0,0,0,0-.18.25,0,.21c-.54.16-1,1-1.47,1.09-.24.25-.54.55-.78.76,0,0,0,0,0-.06-.39.23-.06.35-.5.61-.28.06.16-.22,0-.16-.23-.16-.44.41-.8.5l.05-.06c-.26.09-.43.47-.77.71,0,0,0,0,0,0a3.76,3.76,0,0,1-.87.91c.05-.16.12-.15,0-.19-.14.11.14.11-.14.34-.13,0-.37.13-.46.06l.27-.2c-.22,0-.35.25-.52.33l0-.07c-.41.31-.33.45-.81.74H110c-.18.31-.27.06-.47.33l-.16-.1a8,8,0,0,1-.83.71,5.07,5.07,0,0,1,.64-.67,2.24,2.24,0,0,0-.63.48c.07-.06.13-.14.21-.16a2,2,0,0,1-.75.64c0-.17-.38,0-.8.2l-.16.07-.08,0s-.07,0,0,.05l.19.28a1.41,1.41,0,0,1,.2.45l.26.3.17.21a5.09,5.09,0,0,1,.31.45c.2.31.4.63.66,1,0-.38.15.19.32,0,.13.14.17.2.17.22l0,0,0,0h0l.23.55c0,.16-.16-.11-.19-.06.24.35,0,.21.13.47,0-.1.19,0,.31.25l-.11-.34c.46.39.14.54.6.93l-.18-.1c.22.22.68.9,1,1,0,.06,0,.16-.1.06a19.8,19.8,0,0,1,1.39,1.7h-.08c.09.09.23.12.28.29,0,0-.08,0,0,0a1.29,1.29,0,0,1,.38.39l-.15-.09c.36.62.79.78,1.18,1.23-.14.11.15.59.29.83h0a16.23,16.23,0,0,0,1.49,1.61,16.27,16.27,0,0,0,1.27,2c0-.11.12-.07.22,0s.4.32.25.4l0-.06c0,.21.21.48.38.71l.2-.09c.2.8,1.28,1.51,1.3,2,.15.12.29.3.44.41l-.1.06a12.75,12.75,0,0,0,.81,1.12l-.14-.06c.21.29.54.16.74.41l-.08.18A7.28,7.28,0,0,0,122,168s-.08,0-.15-.05c.17.24.58,1,.71.74-.12.1.37.51.62.74l-.12,0a1.25,1.25,0,0,1,.59.4c0,.09,0,.12-.08,0,.14.28.23.12.41.46l-.15-.07a.65.65,0,0,0,.38.31c.15.13.34.5.28.6a.44.44,0,0,1,.34.25s-.08,0-.11,0c.26.47.58.55.71.91a.1.1,0,0,0,0,.09,7,7,0,0,1-.42-.59c-.09.06.1.35-.18.22a2.83,2.83,0,0,1,.81.73v.06l0,0a.51.51,0,0,0,.13.16c0,.08.09.16.14.24s.2.34.3.48c.08-.08.2.1.15-.12,0,0,0,0-.1-.1l0-.06h0l-.26-.34a.65.65,0,0,1,.32.35,1.3,1.3,0,0,1,.29.08c0,.28.21.69.16.8.19.19.38.42.57.63a2.76,2.76,0,0,0,.3.29,1.12,1.12,0,0,0,.33.24.37.37,0,0,1,.11.19c0,.06,0,0,.07.07l-.09,0-.06-.07a.48.48,0,0,0-.11-.09c.08.05.14.25.3.13l.41-.17a1.38,1.38,0,0,0,.27-.14c.06,0,.1-.08.1-.12.38-.08-.15.21.33,0l0,.07c1-.16,1.36-1,2.48-1.26-.07,0-.11,0-.14,0a27.43,27.43,0,0,0,3.25-2.17c.31-.2.27-.3.38-.5l.15,0,.18-.35c.3-.45.87-.43,1.19-1.06h-.12c.18-.16.47-.6.52-.51a.13.13,0,0,1,.08-.15l0,0c.11-.17.2-.35.3-.52.32-.33.16.22.59-.3C138.19,168.39,138.34,167.93,138.25,168ZM136,165.05v0L136,165Zm-10,8.33H126c-.08-.08-.09-.12-.08-.15l.13.15Z" transform="translate(-28 -21)"/><path class="cls-4" d="M126.2,173.46l0,0a.25.25,0,0,1,0-.07h-.06Z" transform="translate(-28 -21)"/><path class="cls-4" d="M129.74,156.39v0Z" transform="translate(-28 -21)"/><path class="cls-4" d="M135,163.23c-.22-.53,0,.15-.34-.32l.23.37C134.87,163.19,134.86,163.07,135,163.23Z" transform="translate(-28 -21)"/><path class="cls-4" d="M134,161.73c-.12-.09-.15-.12-.08.05S133.93,161.74,134,161.73Z" transform="translate(-28 -21)"/><path class="cls-4" d="M128,153.89l.1,0C128,153.71,128,153.87,128,153.89Z" transform="translate(-28 -21)"/><polygon class="cls-4" points="98.4 130.42 98.19 130.2 98.34 130.37 98.4 130.42"/><path class="cls-4" d="M115.45,141.58l.13.06C115.65,141.54,115.57,141.41,115.45,141.58Z" transform="translate(-28 -21)"/><path class="cls-4" d="M109.57,146.19a2,2,0,0,0,.36-.17A.43.43,0,0,0,109.57,146.19Z" transform="translate(-28 -21)"/><polygon class="cls-4" points="89.88 141.7 90.07 141.89 90 141.79 89.88 141.7"/><path class="cls-6" d="M65.11,130.39l.75,21.67,11.77,27.62S74.56,194,80.7,193.5s.51-14.33.51-14.33L75.58,150l-1-24Z" transform="translate(-28 -21)"/><polygon class="cls-8" points="41.44 94.22 41.72 92.29 44 93.2 51.16 104.45 36.33 112.13 41.44 94.22"/></svg>