<svg id="Layer_1" data-name="Layer 1" xmlns="http://www.w3.org/2000/svg" viewBox="0 0 277.35 233"><defs><style>.cls-1{fill:#6c63ff;}.cls-2{opacity:0.2;isolation:isolate;}.cls-3{fill:#3f3d56;}.cls-4{fill:#ccc;}.cls-5{fill:#9f616a;}.cls-6{fill:#2f2e41;}.cls-7{fill:#e6e6e6;}.cls-8{fill:#ffb9b9;}</style></defs><title>what-10</title><polygon class="cls-1" points="134.57 57.67 134.56 57.75 134.53 57.98 131.18 82.04 110.65 89.57 110.33 89.42 98.83 83.96 92.89 61.16 92.48 59.59 92.6 59.54 118.03 49.99 134.56 57.66 134.57 57.67"/><polygon class="cls-1" points="110.33 89.42 98.83 83.96 92.48 59.59 92.6 59.54 109.17 66.53 110.33 89.42"/><polygon class="cls-2" points="110.61 89.14 101.87 72.39 102.99 67.64 97.7 61.41 97.25 61.79 102.35 67.79 98.54 83.89 99.12 84.03 101.66 73.27 110.09 89.42 110.61 89.14"/><polygon class="cls-3" points="134.57 57.97 134.53 57.98 109.17 66.83 92.89 61.16 92.48 59.59 92.6 59.54 118.03 49.99 134.56 57.66 134.56 57.75 134.57 57.97"/><polygon class="cls-1" points="109.61 67.27 104.44 63.28 105.63 58.85 120.39 53.53 130.44 54.13 134.43 57.52 134.72 58.41 109.61 67.27"/><polygon class="cls-1" points="92.78 59.59 104.44 59.15 110.76 57 120.62 53.53 122.46 50.88 117.86 50.05 92.78 59.59"/><rect class="cls-4" x="177.99" y="97.89" width="6.45" height="0.59" transform="translate(-90.43 23.55) rotate(-19.34)"/><polygon class="cls-5" points="35.89 20.29 33.04 34.55 46.34 44.53 52.52 26 35.89 20.29"/><circle class="cls-5" cx="46.58" cy="20.53" r="12.83"/><path class="cls-6" d="M86.91,159.78C87,163.92,105,210,102.5,216c-4,4-12.44,25.51-16.06,31.24-.48,0-2.86,7.13-2.86,7.13s5.71,9,11.89,5.23c7.77-18.28,27.23-28.47,27.57-52.29.94,7.53,3.71,55.82,3.71,55.82s-.53.23,11.44,1.38c1.86-28,9.46-75.72-7.55-105.69C125.42,156.45,86.91,159.78,86.91,159.78Z" transform="translate(-68.14 -42)"/><path class="cls-6" d="M126.75,262.19c-.55,1.07-4.54,10.94-.91,11.93a14.59,14.59,0,0,0,8.24-.46s7.32,2.29,11.8-.62c2.09-2.09,1.61-4,.62-5.37a5.81,5.81,0,0,0-4.32-2.33c-2.28-.16-3-.58-3.26-1.62C138.54,262.19,126.75,262.19,126.75,262.19Z" transform="translate(-68.14 -42)"/><path class="cls-6" d="M87.64,253.58s-10.22,3.23-8.07,7A14.23,14.23,0,0,0,85.45,266s2.13,8.78,8,8.78c3,0,4-1.68,4.23-3.36a5.8,5.8,0,0,0-1.41-4.7c-1.49-1.72-1.7-2.53-1.15-3.45C96,261.92,87.64,253.58,87.64,253.58Z" transform="translate(-68.14 -42)"/><path class="cls-7" d="M133,161.17s-1.9,3.8-9.51,2.37-37.55,0-37.55,0,1.66-34-2.14-54.43A34,34,0,0,1,95,77l4.76-4.76c4.75-.47,14.79,14.28,14.79,14.28,3.3.56,6.39,14.6,9,27.89.16.76.3,1.51.45,2.26,1.21,6.2,2.9,13.09,3.91,19.28l.21,1.31A226.09,226.09,0,0,0,133,161.17Z" transform="translate(-68.14 -42)"/><path class="cls-6" d="M99.71,54.54s-2.4-5.28,3.84-7.68c0,0,5.27-8.64,15.83-2.88,0,0,7.2,2.88,7.2,10.56s2.4,9.12,2.4,9.12-3.57-3.67-4.53-6.55-8.43-3.53-11.31-.65-10.07,2.4-10.07,2.4l.48,10.56s-2.4-6.24-3.36-6.24S98.27,54.54,99.71,54.54Z" transform="translate(-68.14 -42)"/><path class="cls-2" d="M127.92,136c-11.34-6.16-29.71-19.68-35.63-27C84.48,99.36,93,92,93,92c9.66-6.1,21.21,14.81,21.21,14.81l9.35,7.59c.16.76.3,1.51.45,2.26C125.22,122.9,126.91,129.79,127.92,136Z" transform="translate(-68.14 -42)"/><path class="cls-5" d="M161.77,128.88s16.86,6.85,19.63-.85-13.31-7.56-13.31-7.56l-6.31.9Z" transform="translate(-68.14 -42)"/><path class="cls-7" d="M90.84,88.91s-8.52,7.32-.71,17,43.67,30.21,43.67,30.21l23.37-6.32,6.61,1.21L165,118.54l-9.74.95-24.73-5.26-15.77-12.8S100.49,82.81,90.84,88.91Z" transform="translate(-68.14 -42)"/><polygon class="cls-2" points="53.72 135.16 55.21 169.97 51.44 135.16 53.72 135.16"/><path class="cls-8" d="M282.73,152.25l-13.53,3.14a4.13,4.13,0,0,1-4.92-3h0a4.12,4.12,0,0,1,2.94-5,4.36,4.36,0,0,1,.95-.14l13.07-.3Z" transform="translate(-68.14 -42)"/><path class="cls-3" d="M281.29,154.24l-3-9,18-6.15L291.52,97h0c8.6,1.57,12.7,8.33,12.31,17.07l2.33,28.73Z" transform="translate(-68.14 -42)"/><path class="cls-6" d="M293.73,87.7h29.43V73.07a15,15,0,0,0-4.31-10.56,14.48,14.48,0,0,0-10.41-4.38,14.73,14.73,0,0,0-14.7,14.55c0,.13,0,.26,0,.39Z" transform="translate(-68.14 -42)"/><path class="cls-6" d="M335.46,259.65l-9.41-1.08-11.25-76-23.28,76.32-10.18.31,11.56-93.9-1.69-21.43,28.83-9.1C340.46,149,340,199.37,335.46,259.65Z" transform="translate(-68.14 -42)"/><circle class="cls-8" cx="237.72" cy="31.7" r="11.1"/><path class="cls-8" d="M317,93.75l-18.81,4.93c3.16-6.1,4.18-11.79,2.46-17l13.26-2.16A19.37,19.37,0,0,0,317,93.75Z" transform="translate(-68.14 -42)"/><path class="cls-3" d="M323.28,138.92c-10.55,6.71-22.84,14.42-31.92,6.94l-4.32-21c-3.43-3.06-1.91-12.49,2.73-25.93a5.94,5.94,0,0,1,3.69-3.68l7.15-2.46c3.17,2.67,8.37,1.08,14.5-2.47l7.09,1.85,3.08,23.13C320.83,122,321.61,130.88,323.28,138.92Z" transform="translate(-68.14 -42)"/><path class="cls-8" d="M314.49,147.94,301,151.07a4.12,4.12,0,0,1-4.92-3h0a4.12,4.12,0,0,1,2.95-5,3.75,3.75,0,0,1,.95-.13l13.06-.31Z" transform="translate(-68.14 -42)"/><path class="cls-6" d="M333.82,274.18c-1.58.72-2.9-3.74-4.23-2.43-3.73,3.66-12.67,2.84-12.67,2.84a2.33,2.33,0,0,1-1.5-2.93l0-.11h0a2.32,2.32,0,0,1,1.62-1.44l4-1,6.23-10.95,6.78-.86.17.28a17.49,17.49,0,0,1,1.87,14.31C335.52,273.7,334.75,273.76,333.82,274.18Z" transform="translate(-68.14 -42)"/><path class="cls-6" d="M289.11,274.18c-1.58.72-2.9-3.74-4.24-2.43-3.72,3.66-12.66,2.84-12.66,2.84a2.34,2.34,0,0,1-1.51-2.93.49.49,0,0,1,0-.11h0a2.31,2.31,0,0,1,1.61-1.44l4-1,6.22-10.95,6.78-.86.18.28a17.52,17.52,0,0,1,1.87,14.31C290.81,273.7,290,273.76,289.11,274.18Z" transform="translate(-68.14 -42)"/><path class="cls-6" d="M318.87,64.44l-2.8,8.9-24.17-.43a14.95,14.95,0,0,1,27-8.47Z" transform="translate(-68.14 -42)"/><path class="cls-3" d="M313.05,149.92l-3-9,18-6.15-6.81-43h0a17.52,17.52,0,0,1,14.35,18l2.33,28.72Z" transform="translate(-68.14 -42)"/><rect class="cls-3" y="232.08" width="277.35" height="0.92"/></svg>