<svg id="Layer_1" data-name="Layer 1" xmlns="http://www.w3.org/2000/svg" xmlns:xlink="http://www.w3.org/1999/xlink" viewBox="0 0 371 220.53"><defs><style>.cls-1,.cls-10,.cls-8,.cls-9{fill:none;}.cls-1{stroke:#535461;}.cls-1,.cls-8,.cls-9{stroke-miterlimit:10;stroke-width:2px;}.cls-2{fill:#6c63ff;}.cls-3{fill:#fc6681;}.cls-4{fill:url(#linear-gradient);}.cls-5{fill:#535461;}.cls-6,.cls-8{opacity:0.1;isolation:isolate;}.cls-7{fill:#e2e2ec;}.cls-8{stroke:#000;}.cls-9{stroke:#e2e2ec;}</style><linearGradient id="linear-gradient" x1="322.43" y1="5.29" x2="322.43" y2="225.81" gradientTransform="matrix(1, 0, 0, -1, -111.66, 272.15)" gradientUnits="userSpaceOnUse"><stop offset="0" stop-color="gray" stop-opacity="0.25"/><stop offset="0.54" stop-color="gray" stop-opacity="0.12"/><stop offset="1" stop-color="gray" stop-opacity="0.1"/></linearGradient></defs><title>what-1</title><path class="cls-1" d="M70.63,259.19S40.32,209,48.83,164a88.85,88.85,0,0,0-7.21-55.73,149.27,149.27,0,0,0-14.27-23.3" transform="translate(-8 -46.34)"/><path class="cls-2" d="M32.56,56.52c1.75,6.67-5.25,29.17-5.25,29.17S10.17,69.52,8.41,62.85A12.49,12.49,0,0,1,32.56,56.5h0Z" transform="translate(-8 -46.34)"/><path class="cls-2" d="M62.21,88.21C60.06,94.76,42,109.85,42,109.85S36.34,87,38.5,80.41a12.48,12.48,0,1,1,23.82,7.47c0,.11-.07.22-.11.33Z" transform="translate(-8 -46.34)"/><path class="cls-2" d="M77.9,151.55C72.74,156.09,49.49,160,49.49,160s6.72-22.59,11.88-27.15a12.48,12.48,0,0,1,16.53,18.7Z" transform="translate(-8 -46.34)"/><path class="cls-2" d="M79,202.15c-4.32,5.37-26.57,13.13-26.57,13.13s2.8-23.4,7.12-28.77A12.48,12.48,0,0,1,79,202.15Z" transform="translate(-8 -46.34)"/><path class="cls-2" d="M16.94,117.79c6,3.39,29.53,2.35,29.53,2.35S35.2,99.45,29.21,96.07a12.48,12.48,0,0,0-12.82,21.42l.55.31Z" transform="translate(-8 -46.34)"/><path class="cls-2" d="M19,177c6.74,1.44,28.9-6.59,28.9-6.59S30.93,154,24.17,152.53A12.48,12.48,0,0,0,19,177Z" transform="translate(-8 -46.34)"/><path class="cls-2" d="M28.81,234.18c6.4,2.56,29.6-1.62,29.6-1.62s-13.93-19-20.33-21.56a12.48,12.48,0,0,0-9.26,23.16Z" transform="translate(-8 -46.34)"/><path class="cls-2" d="M32.56,56.52c1.75,6.67-5.25,29.17-5.25,29.17S10.17,69.52,8.41,62.85A12.49,12.49,0,0,1,32.56,56.5h0Z" transform="translate(-8 -46.34)"/><path class="cls-2" d="M62.21,88.21C60.06,94.76,42,109.85,42,109.85S36.34,87,38.5,80.41a12.48,12.48,0,1,1,23.82,7.47c0,.11-.07.22-.11.33Z" transform="translate(-8 -46.34)"/><path class="cls-3" d="M77.9,151.55C72.74,156.09,49.49,160,49.49,160s6.72-22.59,11.88-27.15a12.48,12.48,0,0,1,16.53,18.7Z" transform="translate(-8 -46.34)"/><path class="cls-3" d="M79,202.15c-4.32,5.37-26.57,13.13-26.57,13.13s2.8-23.4,7.12-28.77A12.48,12.48,0,0,1,79,202.15Z" transform="translate(-8 -46.34)"/><path class="cls-2" d="M16.94,117.79c6,3.39,29.53,2.35,29.53,2.35S35.2,99.45,29.21,96.07a12.48,12.48,0,0,0-12.82,21.42l.55.31Z" transform="translate(-8 -46.34)"/><path class="cls-2" d="M19,177c6.74,1.44,28.9-6.59,28.9-6.59S30.93,154,24.17,152.53A12.48,12.48,0,0,0,19,177Z" transform="translate(-8 -46.34)"/><path class="cls-2" d="M28.81,234.18c6.4,2.56,29.6-1.62,29.6-1.62s-13.93-19-20.33-21.56a12.48,12.48,0,0,0-9.26,23.16Z" transform="translate(-8 -46.34)"/><path class="cls-4" d="M378.87,202.91s-4.4-86.39-22.46-117c0,0-13.25-24.2-24.33-31.26V51.89c-18.07-12.5-40.3,0-40.3,0v1.24L287.15,57l-20.86-.07a10.06,10.06,0,0,0-7.75-3.64H163.35a10.05,10.05,0,0,0-7.4,3.25H134.28a13.82,13.82,0,0,0-4.63-3V51.89c-18.07-12.5-40.3,0-40.3,0v3.36A5.84,5.84,0,0,0,88,56.53S69.66,68.79,65.49,84.09c0,0-22.47,67.4-22.94,120.21s19.92,60.23,30.58,61.62,29.64-.46,48.17-47.24l7.88-27.33s1.39-16.22,18.07-6,31.5-5.56,31.5-5.56h62.54s20.83,12.95,39.84,2.74c0,0,7.41-9.73,14.36,23.17,0,0,21.31,67.63,54.2,60.68S378.87,202.91,378.87,202.91Z" transform="translate(-8 -46.34)"/><path class="cls-5" d="M91.72,58.94v-5s21.8-12.26,39.51,0v4.54Z" transform="translate(-8 -46.34)"/><path class="cls-5" d="M290.2,58.94v-5s21.81-12.26,39.52,0v4.54Z" transform="translate(-8 -46.34)"/><path class="cls-6" d="M91.72,58.94v-5s21.8-12.26,39.51,0v4.54Z" transform="translate(-8 -46.34)"/><path class="cls-6" d="M290.2,58.94v-5s21.81-12.26,39.52,0v4.54Z" transform="translate(-8 -46.34)"/><path class="cls-5" d="M157.12,58.48H135.77s-5.45-6.36-23.61-5.9-21.81,5.9-21.81,5.9-17.94,12-22,27c0,0-22,66.08-22.48,117.86s19.53,59.05,30,60.41,29.07-.45,47.24-46.33l7.72-26.8s1.36-15.89,17.71-5.9,30.89-5.45,30.89-5.45H240.7S261.14,192,279.76,182c0,0,7.26-9.54,14.08,22.71,0,0,20.89,66.31,53.14,59.5S375.6,202,375.6,202s-4.32-84.71-22-114.69c0,0-17-31.11-28.39-32.47,0,0-24.53-4.54-34.07-.46l-5.45,4.55Z" transform="translate(-8 -46.34)"/><circle class="cls-7" cx="99.61" cy="56.66" r="39.52"/><circle class="cls-7" cx="305.82" cy="56.66" r="39.52"/><path class="cls-5" d="M114.5,94.18l-5.27,4.66a2.45,2.45,0,0,1-3.23,0l-5.28-4.66a2.43,2.43,0,0,1-.82-1.82V79.54a2.44,2.44,0,0,1,2.44-2.44H112.9a2.44,2.44,0,0,1,2.44,2.44h0V92.36A2.41,2.41,0,0,1,114.5,94.18Z" transform="translate(-8 -46.34)"/><path class="cls-5" d="M114.5,111.8l-5.27-4.66a2.45,2.45,0,0,0-3.23,0l-5.28,4.66a2.44,2.44,0,0,0-.82,1.82v12.81a2.42,2.42,0,0,0,2.43,2.44H112.9a2.42,2.42,0,0,0,2.44-2.43h0v-12.8A2.42,2.42,0,0,0,114.5,111.8Z" transform="translate(-8 -46.34)"/><path class="cls-5" d="M98.81,109.89l4.66-5.28a2.45,2.45,0,0,0,0-3.23L98.81,96.1A2.43,2.43,0,0,0,97,95.28H84.18a2.44,2.44,0,0,0-2.44,2.44v10.56a2.44,2.44,0,0,0,2.44,2.44H97A2.44,2.44,0,0,0,98.81,109.89Z" transform="translate(-8 -46.34)"/><path class="cls-5" d="M116.43,109.89l-4.66-5.28a2.45,2.45,0,0,1,0-3.23l4.66-5.28a2.49,2.49,0,0,1,1.82-.83h12.81a2.44,2.44,0,0,1,2.44,2.44h0v10.56a2.43,2.43,0,0,1-2.43,2.44H118.26A2.41,2.41,0,0,1,116.43,109.89Z" transform="translate(-8 -46.34)"/><polygon class="cls-1" points="92.8 27.59 106.43 27.59 99.61 21.68 92.8 27.59"/><polygon class="cls-1" points="92.8 85.73 106.43 85.73 99.61 91.63 92.8 85.73"/><polygon class="cls-1" points="70.54 49.84 70.54 63.47 64.64 56.66 70.54 49.84"/><polygon class="cls-1" points="128.68 49.84 128.68 63.47 134.59 56.66 128.68 49.84"/><circle class="cls-7" cx="153.21" cy="99.81" r="28.62"/><circle class="cls-5" cx="152.3" cy="95.27" r="19.08"/><circle class="cls-7" cx="252.23" cy="99.81" r="28.62"/><circle class="cls-5" cx="251.32" cy="95.27" r="19.08"/><circle class="cls-8" cx="152.3" cy="95.27" r="12.72"/><circle class="cls-8" cx="251.32" cy="95.27" r="12.72"/><circle class="cls-7" cx="203.63" cy="102.99" r="8.18"/><circle class="cls-7" cx="191.13" cy="75.7" r="1.79"/><circle class="cls-7" cx="197.82" cy="75.7" r="1.79"/><circle class="cls-7" cx="196.93" cy="84.17" r="1.79"/><circle class="cls-7" cx="203.17" cy="84.36" r="1.82"/><circle class="cls-7" cx="209.41" cy="84.17" r="1.79"/><circle class="cls-7" cx="194.25" cy="80.16" r="1.79"/><circle class="cls-7" cx="199.99" cy="80.28" r="1.82"/><circle class="cls-7" cx="205.9" cy="80.28" r="1.82"/><circle class="cls-7" cx="212.08" cy="80.16" r="1.79"/><circle class="cls-7" cx="203.17" cy="75.73" r="1.82"/><circle class="cls-7" cx="209.53" cy="75.73" r="1.82"/><circle class="cls-7" cx="214.76" cy="75.7" r="1.79"/><rect class="cls-7" x="131.86" y="15.32" width="9.99" height="17.26" rx="3.86"/><rect class="cls-7" x="264.49" y="15.32" width="9.99" height="17.26" rx="3.86"/><circle class="cls-5" cx="306.28" cy="32.58" r="10.9"/><circle class="cls-5" cx="283.11" cy="55.75" r="10.9"/><circle class="cls-5" cx="330.35" cy="54.39" r="10.9"/><circle class="cls-5" cx="308.09" cy="78.46" r="10.9"/><rect class="cls-7" x="146.4" y="8.97" width="113.1" height="60.41" rx="9.88"/><polygon class="cls-9" points="299.69 37.13 306.05 26.23 312.86 37.13 299.69 37.13"/><rect class="cls-9" x="277.44" y="50.75" width="11.36" height="9.99"/><circle class="cls-9" cx="330.35" cy="54.39" r="6.36"/><line class="cls-9" x1="302.87" y1="73.35" x2="313.09" y2="83.57"/><line class="cls-9" x1="313.32" y1="73.35" x2="302.87" y2="83.34"/><path class="cls-2" d="M153,261.31a7.77,7.77,0,0,0,3.05-3.76,3.18,3.18,0,0,0-2.13-3.82c-2-.61-4.05.49-5.64,1.61s-3.4,2.39-5.47,2.16a6.13,6.13,0,0,0,2.58-6.36,2.58,2.58,0,0,0-.72-1.3c-1.09-1-3.06-.54-4.36.21-4.14,2.37-5.29,7-5.31,11.08-.42-1.49-.07-3-.08-4.57a4.34,4.34,0,0,0-2.1-4,7.68,7.68,0,0,0-3.21-.61c-1.86-.06-3.93.09-5.2,1.21-1.58,1.36-1.17,3.69.2,5.21s3.47,2.47,5.39,3.52a11.29,11.29,0,0,1,3.84,3,2.81,2.81,0,0,1,.29.54h11.66A33.93,33.93,0,0,0,153,261.31Z" transform="translate(-8 -46.34)"/><path class="cls-10" d="M362,145.51" transform="translate(-8 -46.34)"/></svg>