<svg id="Layer_1" data-name="Layer 1" xmlns="http://www.w3.org/2000/svg" xmlns:xlink="http://www.w3.org/1999/xlink" viewBox="0 0 316.2 263.98"><defs><style>.cls-1,.cls-3{fill:#6c63ff;}.cls-1,.cls-15,.cls-7{opacity:0.1;}.cls-1,.cls-4,.cls-7{isolation:isolate;}.cls-2{fill:none;stroke:#535461;stroke-miterlimit:10;stroke-width:2px;}.cls-4{opacity:0.25;}.cls-5{fill:#b77b7f;}.cls-6{fill:#dda2a6;}.cls-8{fill:#fff;}.cls-9{fill:url(#linear-gradient);}.cls-10{fill:#67647e;}.cls-11{fill:#444053;}.cls-12{fill:#efb7b9;}.cls-13{fill:#a36468;}.cls-14{fill:#e3787d;}.cls-16{fill:#ffd037;}.cls-17{fill:#65617d;}.cls-18{fill:#9d9cb5;}</style><linearGradient id="linear-gradient" x1="283.7" y1="-11.97" x2="283.7" y2="205.18" gradientTransform="matrix(1, 0, 0, -1, -100.52, 268.99)" gradientUnits="userSpaceOnUse"><stop offset="0" stop-color="gray" stop-opacity="0.25"/><stop offset="0.54" stop-color="gray" stop-opacity="0.12"/><stop offset="1" stop-color="gray" stop-opacity="0.1"/></linearGradient></defs><title>what-9</title><path class="cls-1" d="M159.5,29.39c9.25-8.23,23.76-9.92,37-9.26,41.5,2.06,79,22.09,111.35,44.75,11.73,8.2,23.28,17,30.89,28.34,15.51,23,10.9,54.85-10.65,73.8-7.33,6.44-16.22,11.39-25.34,15.76-16.23,7.79-33.74,14-52.15,15.83-13.13,1.27-26.43.24-39.48-1.53-36.48-5-72.27-15.9-102.29-34.61-13.16-8.21-25.57-18.41-31-31.69s-2-30.11,11.49-38c5.55-3.25,12.2-4.72,18.71-6.1,9.57-2,19.3-4,28-8.15,8.92-4.26,19.49-12.5,17.72-21.94C151.79,46.51,150.27,37.62,159.5,29.39Z" transform="translate(-57 -20)"/><path class="cls-2" d="M273.81,231.72s7.93-14.05,19.87-18.09a24.43,24.43,0,0,0,12.38-9.27,41,41,0,0,0,3.66-6.57" transform="translate(-57 -20)"/><path class="cls-3" d="M317.23,195.19c-1.36,1.33-7.7,2.69-7.7,2.69s1.55-6.29,2.92-7.61a3.43,3.43,0,0,1,4.78,4.92Z" transform="translate(-57 -20)"/><path class="cls-3" d="M313.64,206.59c-1.86.37-7.91-1.93-7.91-1.93s4.73-4.43,6.59-4.81a3.44,3.44,0,0,1,1.34,6.74h0Z" transform="translate(-57 -20)"/><path class="cls-3" d="M300.59,218.91c-1.8-.63-5.87-5.66-5.87-5.66s6.33-1.45,8.12-.83a3.44,3.44,0,0,1-2.11,6.54l-.14-.05Z" transform="translate(-57 -20)"/><path class="cls-3" d="M288.61,226c-1.87-.31-6.74-4.59-6.74-4.59s6-2.49,7.85-2.18a3.43,3.43,0,1,1-1.05,6.78Z" transform="translate(-57 -20)"/><path class="cls-3" d="M300.43,199.74c0,1.9,3.43,7.4,3.43,7.4s3.44-5.5,3.44-7.4a3.44,3.44,0,0,0-6.87,0Z" transform="translate(-57 -20)"/><path class="cls-3" d="M286.53,208.22c.57,1.81,5.49,6,5.49,6s1.63-6.27,1.06-8.08a3.43,3.43,0,1,0-6.55,2.05Z" transform="translate(-57 -20)"/><path class="cls-3" d="M274.15,218.32c.25,1.88,4.39,6.87,4.39,6.87s2.67-5.91,2.41-7.79a3.43,3.43,0,1,0-6.8.92Z" transform="translate(-57 -20)"/><path class="cls-4" d="M317.23,195.19c-1.36,1.33-7.7,2.69-7.7,2.69s1.55-6.29,2.92-7.61a3.43,3.43,0,0,1,4.78,4.92Z" transform="translate(-57 -20)"/><path class="cls-4" d="M313.64,206.59c-1.86.37-7.91-1.93-7.91-1.93s4.73-4.43,6.59-4.81a3.44,3.44,0,0,1,1.34,6.74h0Z" transform="translate(-57 -20)"/><path class="cls-4" d="M300.59,218.91c-1.8-.63-5.87-5.66-5.87-5.66s6.33-1.45,8.12-.83a3.44,3.44,0,0,1-2.11,6.54l-.14-.05Z" transform="translate(-57 -20)"/><path class="cls-4" d="M288.61,226c-1.87-.31-6.74-4.59-6.74-4.59s6-2.49,7.85-2.18a3.43,3.43,0,1,1-1.05,6.78Z" transform="translate(-57 -20)"/><path class="cls-4" d="M300.43,199.74c0,1.9,3.43,7.4,3.43,7.4s3.44-5.5,3.44-7.4a3.44,3.44,0,0,0-6.87,0Z" transform="translate(-57 -20)"/><path class="cls-4" d="M286.53,208.22c.57,1.81,5.49,6,5.49,6s1.63-6.27,1.06-8.08a3.43,3.43,0,1,0-6.55,2.05Z" transform="translate(-57 -20)"/><path class="cls-4" d="M274.15,218.32c.25,1.88,4.39,6.87,4.39,6.87s2.67-5.91,2.41-7.79a3.43,3.43,0,1,0-6.8.92Z" transform="translate(-57 -20)"/><path class="cls-2" d="M274.26,231.44s1.56-16.06,10.84-24.6a24.5,24.5,0,0,0,7.57-13.49,40.91,40.91,0,0,0,.67-7.49" transform="translate(-57 -20)"/><path class="cls-3" d="M299.16,180.45c-.71,1.76-6,5.58-6,5.58s-1.13-6.39-.42-8.14a3.43,3.43,0,1,1,6.43,2.4Z" transform="translate(-57 -20)"/><path class="cls-3" d="M300.5,192.32c-1.55,1.09-8,1.45-8,1.45s2.53-6,4.07-7.07a3.44,3.44,0,1,1,4,5.62Z" transform="translate(-57 -20)"/><path class="cls-3" d="M293.55,208.88c-1.89.16-7.66-2.8-7.66-2.8s5.2-3.88,7.08-4.05a3.44,3.44,0,0,1,.57,6.85Z" transform="translate(-57 -20)"/><path class="cls-3" d="M285.48,220.23c-1.84.47-8-1.47-8-1.47s4.46-4.71,6.3-5.18a3.43,3.43,0,0,1,1.85,6.61l-.13,0Z" transform="translate(-57 -20)"/><path class="cls-3" d="M285.64,191.41c.77,1.74,6.14,5.38,6.14,5.38s.91-6.42.14-8.15a3.43,3.43,0,0,0-6.28,2.78Z" transform="translate(-57 -20)"/><path class="cls-3" d="M276.37,204.8c1.25,1.43,7.46,3.3,7.46,3.3s-1.05-6.4-2.3-7.83a3.44,3.44,0,1,0-5.24,4.45l.08.08Z" transform="translate(-57 -20)"/><path class="cls-3" d="M269.14,219.05c1,1.62,6.8,4.51,6.8,4.51s.05-6.48-.95-8.1a3.43,3.43,0,1,0-5.85,3.59Z" transform="translate(-57 -20)"/><ellipse class="cls-1" cx="118.44" cy="257.67" rx="37.63" ry="6.31"/><ellipse class="cls-1" cx="192.5" cy="209.25" rx="37.63" ry="6.31"/><polygon class="cls-5" points="195 125.99 194.96 127.22 192.82 202.72 189.23 202.72 190.99 127.22 191.03 125.8 195 125.99"/><polygon class="cls-6" points="215.82 189.95 213.12 189.94 173.1 189.85 170.97 189.85 172.1 186.35 215.53 186.35 215.82 189.95"/><polygon class="cls-7" points="195 125.99 194.96 127.22 190.99 127.22 191.03 125.8 195 125.99"/><rect class="cls-5" x="189.84" y="124.14" width="6.67" height="2.51"/><polygon class="cls-7" points="173.46 186.35 173.1 189.85 170.97 189.85 172.1 186.35 173.46 186.35"/><polygon class="cls-6" points="179.2 124.1 179.09 125.19 170.21 212.75 166.14 212.56 175.5 125.19 175.6 124.19 179.2 124.1"/><polygon class="cls-7" points="215.82 189.95 213.12 189.94 212.76 186.35 215.53 186.35 215.82 189.95"/><polygon class="cls-6" points="220.07 212.56 216 212.75 207.13 125.19 207.02 124.1 210.61 124.19 210.71 125.19 220.07 212.56"/><rect class="cls-8" x="147.69" y="37.76" width="89.69" height="86"/><path class="cls-6" d="M251.29,29V49.77h-3.5V29a1.75,1.75,0,0,1,3.5-.15Z" transform="translate(-57 -20)"/><rect class="cls-7" x="190.79" y="27.88" width="3.5" height="1.89"/><path class="cls-6" d="M252.66,49.3v6.85h-6.22V49.3a.85.85,0,0,1,.84-.86h4.54A.86.86,0,0,1,252.66,49.3Z" transform="translate(-57 -20)"/><circle class="cls-7" cx="192.54" cy="32.8" r="1.32"/><circle class="cls-5" cx="192.54" cy="32.51" r="1.32"/><rect class="cls-7" x="189.42" y="35.3" width="6.25" height="0.85"/><rect class="cls-7" x="186.86" y="36.44" width="11.35" height="1.89"/><rect class="cls-6" x="186.86" y="35.87" width="11.35" height="1.89"/><path class="cls-7" d="M226.57,141.55h47.69a2.05,2.05,0,0,1,2.05,2.06v.45h-51.8v-.45A2.06,2.06,0,0,1,226.57,141.55Z" transform="translate(-57 -20)"/><polygon class="cls-7" points="175.6 124.19 179.2 124.1 179.09 125.19 175.5 125.19 175.6 124.19"/><rect class="cls-7" x="189.84" y="124.14" width="6.67" height="1.04"/><polygon class="cls-7" points="210.71 125.19 207.13 125.19 207.02 124.1 210.61 124.19 210.71 125.19"/><path class="cls-6" d="M226.57,142.11h47.69a2.05,2.05,0,0,1,2.05,2.06v.45h-51.8v-.45A2.06,2.06,0,0,1,226.57,142.11Z" transform="translate(-57 -20)"/><path class="cls-9" d="M216.12,102.18c-.72-.38-8.55-6.29-8.55-6.29l-12.63-8-.19-.52c3.47-3.93,2.71-9.64-.82-13.66-4.27-4.86-23.58-15.35-29.4-6.38a9.84,9.84,0,0,0-1.05,4.09,17,17,0,0,1-4.61,9.06c-1.94,2-4.48,3.93-5.59,6.25,0,0,0-.06,0-.09a6,6,0,0,0-.58,1.58C152.11,91,154,93.75,155,96.5a14.92,14.92,0,0,1,.73,2.87c0-.19.05-.39.07-.58a18.13,18.13,0,0,1,.25,4.23c-7,1.42-7,13.42-7,13.42a41.49,41.49,0,0,0-.72,6.48c.15,1.72.14,5.44.14,6.33s-.86,6.49-.95,7.16v0c-.12.73-1.44,4.27,1.74,5.06a6.61,6.61,0,0,0,.7.15c.13,2.86.38,8.86.16,10.2,0,0,1.16,8.06,2.12,10.1a22,22,0,0,0,2.12,3.43,3.85,3.85,0,0,1-.49,1.39c-.49.71-.24,1.28.58,1.53,0,.25-.06.52-.09.83-.35,3.11-.88,9.29,0,12.42a31.24,31.24,0,0,1,1.3,5.72,4.14,4.14,0,0,0,.51,2c.5.72,1.44,7.37,1.44,8.45s2.45,10.72,1.73,13a13.83,13.83,0,0,0-.15,5.51s-.43,5.65-1,6.87-.72,20.81.07,25.88,1.3,9.3,1.3,9.3-.5,4.65-.07,5.29,1.22,4.51.65,4.72-.87,1.79-.87,1.79c.31.46.64.91,1,1.34a5.3,5.3,0,0,1-.65-.28c.23.32.57.77,1,1.27l-.4,5.14a.88.88,0,0,0,.64.91,7.25,7.25,0,0,0,7.16-2c3.6-3.64,4.82-3.14,5.47-5.36q.11-.36.18-.69a2.33,2.33,0,0,0-3.31-2.6,17.07,17.07,0,0,0,.24-4.35,64.27,64.27,0,0,1-.29-7.5l-.5-26s.93-5.15,2-7.15.95-9,.95-9l1.23-23,1.15-11.23s1.15-3.86,2.59.43c0,0-.79,8.65-.43,10.73s.86,12.16.5,14.37-1.94,14.38-1,17.45,2.11,6.8,1.88,8-.95,27.6-.95,27.6,1.95,5.07.51,6.73-.07,8.23-.07,8.23.17.12.47.29l0,.55-.45,5.91a.86.86,0,0,0,.63.91,7.24,7.24,0,0,0,7.16-2c3.6-3.65,4.83-3.15,5.47-5.37.07-.24.13-.47.19-.69a2.34,2.34,0,0,0-3.77-2.31l-.09.07a1.86,1.86,0,0,1-.28.21.55.55,0,0,1-.14.09c.36-1.63.88-4.43.63-5.74-.36-1.93.36-7.79.36-7.79s2.09-7,2.16-9.81l.57-22.31s-.07-9.09.22-11.3,2.6-21.39,4.9-27.11c1.77-4.38,2.56-15.56,2.09-21.23,0-.28-.05-.55-.08-.8a8.35,8.35,0,0,0,3.11-5.55s-2.6-5-5.1-7.06a9.58,9.58,0,0,1-2.94-7.24,3.78,3.78,0,0,0-.87-2.58s-1.15-3.71-1.92-4.09a1.09,1.09,0,0,1-.17-.13c-.52-.56-.12-2.16-.12-2.16v-.05a13.39,13.39,0,0,0,.48-3.39,22.13,22.13,0,0,1,.09-3.81s1.83-5.44,1.54-9.73a3.36,3.36,0,0,1,3.75-3.91l12.46-.13H210a9.56,9.56,0,0,0,1.36-1.41c2.38-.28,7.18-1.18,7.72-3.8C219.82,106.09,216.84,102.56,216.12,102.18Zm-57.74,39.68.09-2.18.49.42a3.42,3.42,0,0,1,0,1.74,1.86,1.86,0,0,1-1.08,1.21l-.17.09-.12-1.23Zm45.2-38.3a13.19,13.19,0,0,0-3.22-.19,7.15,7.15,0,0,1-2.4-.76c-.32-.62-2.07-1-3.62-1.19-1.19-2.92-2.85-5.77-3.08-8.81,0-.11,0-.22,0-.33l.18.31s7.25,4.63,8.07,6c.63,1.06,3.68,3.42,5.09,4.47a1.4,1.4,0,0,1-.77.52A.4.4,0,0,1,203.58,103.56Z" transform="translate(-57 -20)"/><path class="cls-10" d="M191.6,272.66c0,.22-.11.45-.18.68-.63,2.22-1.84,1.71-5.38,5.33a7.11,7.11,0,0,1-7,2,.86.86,0,0,1-.63-.9l.44-5.87.22-2.82s5.64,1.58,8.52-.43l.28-.21.06-.07a2.31,2.31,0,0,1,3.72,2.29Z" transform="translate(-57 -20)"/><path class="cls-10" d="M173.88,270.44c-.06.22-.12.45-.19.69-.63,2.21-1.84,1.7-5.38,5.32a7.1,7.1,0,0,1-7.05,2,.87.87,0,0,1-.63-.9l.45-5.87.21-2.82s5.65,1.58,8.52-.43a1.86,1.86,0,0,0,.28-.21l.06-.06a2.31,2.31,0,0,1,3.73,2.28Z" transform="translate(-57 -20)"/><path class="cls-7" d="M168,271.32l.23,3.05c-3.24,3.24-7.1-1.58-8.23-3.16C163,272.74,168,271.32,168,271.32Z" transform="translate(-57 -20)"/><path class="cls-7" d="M187.09,272.56l.43-.28c-3,4.5-7.36,2.43-8.73,1.62l.21-2.82s5.65,1.58,8.52-.43C187.3,271.75,187.09,272.56,187.09,272.56Z" transform="translate(-57 -20)"/><path class="cls-11" d="M196.11,187.34c-2.27,5.68-4.54,24.69-4.83,26.91s-.21,11.21-.21,11.21l-.57,22.12c-.07,2.77-2.13,9.73-2.13,9.73s-.71,5.81-.36,7.73-.92,7-.92,7l.43-.28c-3.55,5.38-9.16,1.35-9.16,1.35s-1.34-6.53.08-8.16-.5-6.67-.5-6.67.71-26.19.92-27.39S178,226,177,222.9s.56-15.11.92-17.31-.14-12.21-.5-14.27.43-10.64.43-10.64c-1.42-4.26-2.56-.43-2.56-.43l-1.13,11.14L173,214.24s.14,7-.92,8.94-2,7.1-2,7.1l.5,25.83a65.18,65.18,0,0,0,.28,7.45c.36,2.06-.78,7.38-.78,7.38-4,9.36-10.35-.79-10.35-.79s.28-1.56.85-1.77-.21-4.05-.63-4.69.07-5.25.07-5.25-.5-4.18-1.27-9.22-.57-24.48-.07-25.69.92-6.81.92-6.81a14,14,0,0,1,.14-5.47c.71-2.27-1.7-11.84-1.7-12.91s-.92-7.66-1.42-8.37a4.24,4.24,0,0,1-.49-2,31.68,31.68,0,0,0-1.27-5.68c-.88-3.1-.36-9.23,0-12.32.13-1.14.23-1.87.23-1.87s40.7-6.6,42.32-5.11c.38.35.64,1.56.79,3.28C198.64,171.9,197.84,183,196.11,187.34Z" transform="translate(-57 -20)"/><path class="cls-7" d="M180.71,219.25a38,38,0,0,0,6.33.05C188.68,219,180.71,219.25,180.71,219.25Z" transform="translate(-57 -20)"/><path class="cls-7" d="M181,221.9s6.21,1.09,6.52.52S181,221.9,181,221.9Z" transform="translate(-57 -20)"/><path class="cls-7" d="M162.07,220.76a17.29,17.29,0,0,1,5,1C168.79,222.52,162.07,220.76,162.07,220.76Z" transform="translate(-57 -20)"/><path class="cls-12" d="M150.38,141.2s.52,9.88.24,11.63c0,0,1.13,8,2.08,10a29.42,29.42,0,0,0,3,4.59l2.79-19.62-.66-6.73Z" transform="translate(-57 -20)"/><circle class="cls-12" cx="122.71" cy="65.23" r="10.93"/><path class="cls-12" d="M174,90.34s-3.41,6.67-6.82,9.79,20.44,6.67,21,6.67S184,92.61,184.82,90.9,174,90.34,174,90.34Z" transform="translate(-57 -20)"/><path class="cls-7" d="M198.16,166.28a6.84,6.84,0,0,1-1.75,1c-4.35,1.7-9.08,4.07-12.3,3.12s-10,0-10,0-13.72-1.13-16.46-.47a5.28,5.28,0,0,1-2.84.07c.12-1.14.23-1.87.23-1.87s40.74-6.6,42.36-5.11C197.76,163.35,198,164.56,198.16,166.28Z" transform="translate(-57 -20)"/><path class="cls-13" d="M201.14,160s-.38,4.74-4.73,6.44-9.08,4.07-12.3,3.12-10,0-10,0-13.72-1.13-16.46-.47-4.16-.19-3.31-1.42.76-5.3.76-7-.95-8.61-.1-9.84,1.61-6,3.31-6.72a1.88,1.88,0,0,0,1.07-1.2,3.38,3.38,0,0,0,0-1.73l-.68-.59c-1-.9-2.7-2.56-2.15-3.1.75-.76,0-5.68,0-5.68s-1.8-3.79-1.14-5.2-5.77-8.9-5.77-8.9,0-12.86,7.76-13.43c0,0,5.49.19,6.15-2.27s5-3.88,5-3.88l9.94,2.18s8.79,1.9,10.4.75,2.85,1.52,2.85,1.52,5.49.28,6.05,1.42-1.79,12.2-1.79,12.2a3.31,3.31,0,0,0-3.69,3.88c.28,4.26-1.53,9.65-1.53,9.65a22.63,22.63,0,0,0-.1,3.78,12.81,12.81,0,0,1-.46,3.36v0s-.4,1.58.12,2.15a.48.48,0,0,0,.16.12c.76.38,1.9,4.07,1.9,4.07a3.72,3.72,0,0,1,.85,2.55,9.59,9.59,0,0,0,2.94,7.19C198.6,155.06,201.14,160,201.14,160Z" transform="translate(-57 -20)"/><path class="cls-13" d="M158.94,138.06v.41l-.17,4.43s-5.82.47-9-.32-1.83-4.3-1.71-5a0,0,0,0,0,0,0c.1-.67,1-6.2,1-7.1s0-4.59-.14-6.29a41.93,41.93,0,0,1,.7-6.45l.61-.75,6.67,2.55Z" transform="translate(-57 -20)"/><path class="cls-7" d="M158.93,138.47l-.17,4.44s-5.82.47-9-.32-1.84-4.31-1.71-5Z" transform="translate(-57 -20)"/><path class="cls-7" d="M159.35,142.88a3.38,3.38,0,0,0,0-1.73l-.68-.59c5-.7,24.85-3.42,31.54-3.72v0s-.4,1.58.11,2.15Z" transform="translate(-57 -20)"/><path class="cls-7" d="M190.92,146.29s1.23,7-3.35,9.42A21.11,21.11,0,0,0,190.92,146.29Z" transform="translate(-57 -20)"/><path class="cls-7" d="M160.88,155.91s11.08-1.9,13.25-.43S160.88,155.91,160.88,155.91Z" transform="translate(-57 -20)"/><path class="cls-7" d="M187.09,112.81s-1.7,7-.42,8.61S187.09,112.81,187.09,112.81Z" transform="translate(-57 -20)"/><path class="cls-7" d="M155,107.09a6.89,6.89,0,0,1,.61,5.3C154.69,115.08,155,107.09,155,107.09Z" transform="translate(-57 -20)"/><path class="cls-7" d="M151.79,129.89s2,1.18,1.33,3S151.79,129.89,151.79,129.89Z" transform="translate(-57 -20)"/><path class="cls-7" d="M151.61,124.5s1.85,1,2.08,2.46S151.61,124.5,151.61,124.5Z" transform="translate(-57 -20)"/><path class="cls-7" d="M179,181.07s11.59,1.19,13.9-1.56C192.86,179.53,182.41,181.6,179,181.07Z" transform="translate(-57 -20)"/><path class="cls-7" d="M158.94,180.41s12.45,2.94,14.91.62C173.85,181,163.15,181.83,158.94,180.41Z" transform="translate(-57 -20)"/><path class="cls-7" d="M179.85,184.91s5.21,0,7.62.14S179.85,184.91,179.85,184.91Z" transform="translate(-57 -20)"/><path class="cls-7" d="M159.8,187.13s2.55,2.88,5.44,2.36S159.8,187.13,159.8,187.13Z" transform="translate(-57 -20)"/><path class="cls-14" d="M164.81,69a9.77,9.77,0,0,0-1,4.06,16.91,16.91,0,0,1-4.53,9c-2.27,2.41-5.39,4.6-6,7.54s1.33,5.49,2.32,8.23c2.61,7.18-1,14.72-2.1,22.13-.29,2,.06,4.67,2.58,5.35a13.11,13.11,0,0,1,2.4.53,2.89,2.89,0,0,1,1.42,2.25,34.72,34.72,0,0,1,.65,9.27c-.11,1.74-.24,3.74,1.41,4.94a8.34,8.34,0,0,0,2.72,1.09c2.59.7,5.94,1.26,7.69-.38.74-.69,1-1.65,1.93-2.2,1.37-.81,3.31-.26,5-.18a9.15,9.15,0,0,0,8.19-4.4c1.39-2.5,1.26-5.38.76-8.08s-1.41-5.38-1.48-8.12a4.77,4.77,0,0,1,.61-2.76c1.05-1.63,3.51-2.37,5.18-3.65,3.15-2.41,3.14-6.35,2-9.65s-3.2-6.46-3.45-9.87a3.8,3.8,0,0,1,.46-2.38,10.17,10.17,0,0,1,1.9-1.79c4.59-3.87,4.05-10.23.26-14.59C189.56,70.46,170.54,60.06,164.81,69Z" transform="translate(-57 -20)"/><g class="cls-15"><path d="M156.17,100.75a18.07,18.07,0,0,0-.72-8.53c-.5-1.37-1.23-2.73-1.76-4.11a6.35,6.35,0,0,0-.57,1.58c-.55,2.8,1.34,5.49,2.33,8.23A15.46,15.46,0,0,1,156.17,100.75Z" transform="translate(-57 -20)"/><path d="M160.4,131.75a34.75,34.75,0,0,0-.65-9.27,2.91,2.91,0,0,0-1.42-2.25,14,14,0,0,0-2.4-.53,3.23,3.23,0,0,1-2.21-1.83c-.15.72-.28,1.44-.38,2.16-.3,2,.06,4.67,2.58,5.35a13.11,13.11,0,0,1,2.4.53,2.89,2.89,0,0,1,1.42,2.25,36.14,36.14,0,0,1,.61,4.28C160.37,132.2,160.38,132,160.4,131.75Z" transform="translate(-57 -20)"/><path d="M187.38,130.62a9.13,9.13,0,0,1-8.2,4.41c-1.72-.09-3.67-.64-5,.18-.92.54-1.2,1.51-1.93,2.19-1.75,1.64-5.1,1.08-7.69.38a8.27,8.27,0,0,1-2.73-1.09,3.43,3.43,0,0,1-1.34-2.18c0,1,0,2-.06,2.92-.12,1.74-.24,3.74,1.4,4.94a8.49,8.49,0,0,0,2.73,1.09c2.59.7,5.94,1.26,7.69-.38.73-.69,1-1.66,1.93-2.22,1.36-.81,3.31-.26,5-.17a9.17,9.17,0,0,0,8.2-4.41c1.34-2.41,1.28-5.15.81-7.76A8.38,8.38,0,0,1,187.38,130.62Z" transform="translate(-57 -20)"/><path d="M193.37,84.34a9,9,0,0,0-1.9,1.79,3.8,3.8,0,0,0-.46,2.38,12.58,12.58,0,0,0,.65,3A12.55,12.55,0,0,1,193.39,90a9.18,9.18,0,0,0,2.84-9.88A9,9,0,0,1,193.37,84.34Z" transform="translate(-57 -20)"/><path d="M192.45,108c-1.67,1.28-4.13,2-5.18,3.65a4.73,4.73,0,0,0-.61,2.76,19.08,19.08,0,0,0,.4,3.29,2.71,2.71,0,0,1,.21-.37c1-1.63,3.51-2.37,5.18-3.65,2.87-2.2,3.11-5.67,2.27-8.77A6.54,6.54,0,0,1,192.45,108Z" transform="translate(-57 -20)"/></g><path class="cls-12" d="M209.66,114.75s8.18-.42,8.89-3.88-2.22-7-2.93-7.33-8.43-6.25-8.43-6.25l-12.44-7.94s-6-17.09-7.28-10.55S191.3,94,191.3,94s7.14,4.59,7.94,6,5.73,5,5.73,5Z" transform="translate(-57 -20)"/><path class="cls-13" d="M214.06,109.17c-1.94,4.92-4.45,6.86-4.45,6.86h-1.4l-12.27.13-1.41-3.87,2-8.37,1.23,0a7.14,7.14,0,0,0,2.37.75,13.18,13.18,0,0,1,3.16.19.31.31,0,0,0,.23,0c.47,0,.95-.74.95-.74S216,104.25,214.06,109.17Z" transform="translate(-57 -20)"/><path class="cls-7" d="M214.06,109.17c-1.94,4.92-4.45,6.86-4.45,6.86h-1.4a72.72,72.72,0,0,1,2.85-6.88c.57-.87-4.57-3-7.57-4.22.46-.05.95-.74.95-.74S216,104.25,214.06,109.17Z" transform="translate(-57 -20)"/><ellipse class="cls-1" cx="28.75" cy="241.56" rx="13.98" ry="2.73"/><ellipse class="cls-1" cx="261.86" cy="223.52" rx="10.19" ry="1.99"/><ellipse class="cls-1" cx="306.01" cy="231.59" rx="10.19" ry="1.99"/><ellipse class="cls-1" cx="237.64" cy="248.2" rx="10.19" ry="1.99"/><path class="cls-3" d="M99,185.64s2.29,3-1,7.52-6.11,8.34-5,11.16c0,0,5-8.4,9.16-8.52S103.49,190.69,99,185.64Z" transform="translate(-57 -20)"/><path class="cls-7" d="M99,185.64a3.66,3.66,0,0,1,.47,1c4,4.71,6.15,9.11,2.29,9.22-3.59.1-7.9,6.52-8.93,8.15,0,.12.08.24.13.37s5-8.4,9.16-8.52S103.49,190.69,99,185.64Z" transform="translate(-57 -20)"/><path class="cls-16" d="M103.22,189.46c0,1-.12,1.9-.26,1.9s-.27-.86-.27-1.9.15-.56.3-.56S103.22,188.39,103.22,189.46Z" transform="translate(-57 -20)"/><path class="cls-16" d="M104.68,190.72c-.92.5-1.73.81-1.8.68s.63-.63,1.55-1.15.56-.13.63,0S105.61,190.21,104.68,190.72Z" transform="translate(-57 -20)"/><path class="cls-3" d="M86.87,185.64s-2.29,3,1,7.52,6.11,8.34,5,11.16c0,0-5.06-8.4-9.18-8.52S82.34,190.69,86.87,185.64Z" transform="translate(-57 -20)"/><path class="cls-7" d="M86.87,185.64a3.66,3.66,0,0,0-.47,1c-4,4.71-6.15,9.11-2.29,9.22,3.59.1,7.91,6.52,8.93,8.15l-.12.37s-5.07-8.4-9.18-8.52S82.34,190.69,86.87,185.64Z" transform="translate(-57 -20)"/><path class="cls-16" d="M82.61,189.46c0,1,.12,1.9.26,1.9s.27-.86.27-1.9-.15-.56-.3-.56S82.61,188.39,82.61,189.46Z" transform="translate(-57 -20)"/><path class="cls-16" d="M81.15,190.72c.93.5,1.73.81,1.8.68s-.63-.63-1.55-1.15-.56-.13-.63,0S80.22,190.21,81.15,190.72Z" transform="translate(-57 -20)"/><ellipse class="cls-1" cx="35.91" cy="203.55" rx="23.95" ry="3.67"/><path class="cls-17" d="M105.24,200.28l-.11.95-.17,1.32-.06.55-.16,1.32-.07.55-.17,1.32-1.82,15c-.17,1.34-2.36,2.39-5,2.39h-9.5c-2.64,0-4.83-1-5-2.39l-1.83-15L81.18,205l-.07-.55L81,203.1l-.07-.55-.16-1.32-.11-.95c-.1-.76,1.09-1.4,2.59-1.4h19.47C104.15,198.88,105.33,199.52,105.24,200.28Z" transform="translate(-57 -20)"/><polygon class="cls-18" points="48.12 181.21 47.96 182.54 23.86 182.54 23.7 181.21 48.12 181.21"/><polygon class="cls-18" points="47.89 183.09 47.74 184.41 24.09 184.41 23.93 183.09 47.89 183.09"/><polygon class="cls-18" points="47.67 184.96 47.51 186.28 24.32 186.28 24.16 184.96 47.67 184.96"/><circle class="cls-1" cx="56.97" cy="39.42" r="9.97"/><circle class="cls-1" cx="36.08" cy="15.68" r="6.17"/><circle class="cls-1" cx="3.8" cy="29.44" r="3.8"/></svg>