<svg id="Layer_1" data-name="Layer 1" xmlns="http://www.w3.org/2000/svg" viewBox="0 0 287.37 252"><defs><style>.cls-1{fill:#3f3d56;}.cls-2{fill:#6c63ff;}.cls-3{fill:#fff;}.cls-4{fill:#2f2e41;}.cls-5{fill:#9f616a;}.cls-6{opacity:0.1;isolation:isolate;}.cls-7{fill:#d0cde1;}</style></defs><title>what-8</title><ellipse class="cls-1" cx="160.25" cy="233.58" rx="104.27" ry="18.42"/><path class="cls-2" d="M131.54,137.31a49.67,49.67,0,1,0-23,18.49,16.06,16.06,0,1,0,23-18.49Z" transform="translate(-40.68 -23)"/><rect class="cls-3" x="20.07" y="76.66" width="59.06" height="4.66"/><rect class="cls-3" x="20.07" y="84.43" width="59.06" height="4.66"/><rect class="cls-3" x="20.07" y="92.21" width="59.06" height="4.66"/><path class="cls-2" d="M237.2,100.37a49.64,49.64,0,1,1,23,18.5,16.06,16.06,0,1,1-23-18.5Z" transform="translate(-40.68 -23)"/><rect class="cls-3" x="208.24" y="39.73" width="59.06" height="4.66"/><rect class="cls-3" x="208.24" y="47.5" width="59.06" height="4.66"/><rect class="cls-3" x="208.24" y="55.27" width="59.06" height="4.66"/><path class="cls-2" d="M151,236.28a27.72,27.72,0,1,1,12.86,10.32A9,9,0,1,1,151,236.28Z" transform="translate(-40.68 -23)"/><circle class="cls-3" cx="122.41" cy="197.17" r="3.21"/><circle class="cls-3" cx="133.35" cy="197.17" r="3.21"/><circle class="cls-3" cx="144.3" cy="197.17" r="3.21"/><path class="cls-4" d="M177.25,120.65s14.31.39,16.68,1.25,3.42,7,3.42,7l-11.12,3.5-8.31-.48-6.25.45,3.49-9.15Z" transform="translate(-40.68 -23)"/><path class="cls-5" d="M177.87,116s.94,3.63-1.15,6.21,9,11.75,9,11.75l5.84-1s-1.28-11.18.45-14S177.87,116,177.87,116Z" transform="translate(-40.68 -23)"/><path class="cls-6" d="M177.87,116s.94,3.63-1.15,6.21,9,11.75,9,11.75l5.84-1s-1.28-11.18.45-14S177.87,116,177.87,116Z" transform="translate(-40.68 -23)"/><polygon class="cls-5" points="176.04 199.3 163.15 216.39 171.95 221.53 184.06 201.72 176.04 199.3"/><path class="cls-4" d="M207.68,239.68s-4.75-5.51-4.54-4.28-3.37,11.66,0,12.67,32,3.68,32.37.45-8.54-5.5-8.54-5.5-5.31-5.1-6.49-4.58S207.68,239.68,207.68,239.68Z" transform="translate(-40.68 -23)"/><polygon class="cls-5" points="173.15 215.63 183.44 233.17 191.22 228.66 180.84 214.3 173.15 215.63"/><path class="cls-4" d="M230.08,196.89,227,201.22s-14.57,20.23-13,21.86,8,7.81,11.26,6.61,14.92-21.87,14.92-21.87l-3-12.14Z" transform="translate(-40.68 -23)"/><path class="cls-4" d="M167.33,192.8A18.49,18.49,0,0,0,178.86,201c8.27,2.06,16.91,6.27,17.22,6.22s1.17-.52,1.38.71,2.48,3.37,2.48,3.37,9.14,31,12.63,31.07,10.65-2.46,10.8-3.44-10.68-32.67-10.79-33.28l-1.26-7.38s14.32,2.28,15.65,2.69,13.22,6.91,13.22,6.91,12.11-8.73.79-17.55S210.17,175,210.17,175l-7-2-6.09-.36-.9-3.44-14.42.83-15.05,6.39Z" transform="translate(-40.68 -23)"/><circle class="cls-5" cx="145.68" cy="88.96" r="11.23"/><path class="cls-7" d="M176.2,121l1.35-.23s2.44,9.39,10,11c0,0,3.72-4.47,3.56-5.22s3-4.77,4.61-2.52-.41,41.86,1,42.57,4.37,1.47,2,4.09-11.92,6.17-14,5-6.42-11.56-8.28-15-4.85-15.31-4.85-15.31-3.81-13-1.47-15.9S176.2,121,176.2,121Z" transform="translate(-40.68 -23)"/><path class="cls-4" d="M187,169.76a63.54,63.54,0,0,1-1.29,8.2c-.55,2.2-1.19,3.53-1.92,3.47-1.87-.14-2.72,2.6-3.16,5.76-.46,3.35-.46,7.17-.72,8.52-.34,1.79-2.51,3.15-6.86,2.75a30.79,30.79,0,0,1-7.55-1.86c-5.86-2.13-5.69-19.42-4.71-32.24.6-7.87,1.5-14.06,1.5-14.06a69.83,69.83,0,0,1-2.35-9,12.39,12.39,0,0,1-.17-2c.09-3.18,5.9-11.78,9.4-17.13s8.31-1.43,8.31-1.43l-1.67,5s2.59,4,2.6,7.79,6.19,6.53,8.41,8.37C188.16,143.13,188.13,158.54,187,169.76Z" transform="translate(-40.68 -23)"/><path class="cls-4" d="M191.83,122.58s.4.48,2.25.24c2.23-.28,5.28.49,6,2.62,1.3,3.89,5,19.72,5,19.72s1.52,18.1,2.21,22.1.35,7.53,1,9.63-6.68-3.91-9.4-3.13-4.46-9.36-4.12-12.9.63-7.39-.31-11,.73-13.26.67-15.47S189.13,126.6,191.83,122.58Z" transform="translate(-40.68 -23)"/><path class="cls-5" d="M199.77,178.83s11.9,6.49,13,15.72-15.9-8.94-15.9-8.94Z" transform="translate(-40.68 -23)"/><path class="cls-5" d="M206.56,172.28s3.65,18.37,9.32,17.4-3.17-18.45-3.17-18.45Z" transform="translate(-40.68 -23)"/><path class="cls-4" d="M226,252.36s-2.9,3.35-3.62,2.84-2.38,6.42-.89,7.75,7.25,3.5,7.32,5.71,15.5,1.77,16.05-.54-1.94-7.59-3.69-8.55-8.21-9.86-8.21-9.86S227.89,250.45,226,252.36Z" transform="translate(-40.68 -23)"/><path class="cls-6" d="M197.88,190.07c-2.76-1.95-10.46-2.43-17.3-2.88-3-.2-5.83-.38-8-.69s-4-2.21-5.66-5.06c-2.54-4.33-4.59-10.82-6.17-17.08.6-7.87,1.5-14.06,1.5-14.06a69.83,69.83,0,0,1-2.35-9,4.75,4.75,0,0,1,1.52-1.37c7.25-3.11,14.17,27.52,15.05,32.33a2.07,2.07,0,0,1,0,.22c.43,2.47,5,4.59,9.16,5.43,2.54.52,4.91.55,6-.12,2.86-1.76,11.67,5.28,12.34,5.48S201.84,192.87,197.88,190.07Z" transform="translate(-40.68 -23)"/><path class="cls-4" d="M161.41,138.1s-5.27,2.49-3,14.12,7,31.41,14.12,32.4,21.34.76,25.31,3.56,6.79-6.55,6.12-6.75-9.48-7.24-12.34-5.48-14.47-1.31-15.16-5.31S168.78,134.93,161.41,138.1Z" transform="translate(-40.68 -23)"/><path class="cls-4" d="M199.39,132.52,205.18,146s.59-.29,1.26,1.81,1,3.94,2.19,5.32,6.46,21,6.62,22-7.29,4.11-9,1.54S199.39,132.52,199.39,132.52Z" transform="translate(-40.68 -23)"/><path class="cls-4" d="M180,111.81c.43-.12.49-.69.51-1.13a5.92,5.92,0,0,1,3.79-5.53A6.44,6.44,0,0,1,187,105a10.1,10.1,0,0,1,3.65,1.22,5.84,5.84,0,0,0,1.85.84c.44.06,2.37.62,2.82.7,1,.18,1.88,1,2.81.72s1.1-1.47,1.12-2.41c0-2.16-1.59-5.15-3-6.75a7.6,7.6,0,0,0-4.36-2.08,29.35,29.35,0,0,0-5.7-.34,17.92,17.92,0,0,0-7.55,1.36c-2.33,1.12-4.28,3.34-4.39,5.91,0,.54,0,1.08,0,1.62a24.37,24.37,0,0,1-1.12,3.75,6.83,6.83,0,0,0,1,5.49c.86,1.27,2.22,2.42,2.17,4l1.87-1.94a1.54,1.54,0,0,0,.45-1.88l-.66-2.58a2.36,2.36,0,0,1-.06-1.44C178.48,109.39,179.25,112,180,111.81Z" transform="translate(-40.68 -23)"/><path class="cls-1" d="M265,241c-.08-.13-1.91-3.18-2.54-9.52-.58-5.82-.21-15.63,4.88-29.31,9.63-25.91-2.22-46.82-2.34-47l.58-.34a51.87,51.87,0,0,1,4.9,13.87A60.48,60.48,0,0,1,268,202.45c-9.62,25.87-2.47,38.12-2.39,38.24Z" transform="translate(-40.68 -23)"/><circle class="cls-2" cx="220.58" cy="126.26" r="4.39"/><circle class="cls-1" cx="234.44" cy="142.49" r="4.39"/><circle class="cls-2" cx="224.98" cy="153.3" r="4.39"/><circle class="cls-2" cx="236.47" cy="162.43" r="4.39"/><circle class="cls-1" cx="221.6" cy="176.63" r="4.39"/><path class="cls-1" d="M267.69,241.2s-4.4-10.82,8.78-18.93Z" transform="translate(-40.68 -23)"/><path class="cls-1" d="M262.28,241s-2-11.5-17.48-11.4Z" transform="translate(-40.68 -23)"/></svg>