<svg id="Layer_1" data-name="Layer 1" xmlns="http://www.w3.org/2000/svg" xmlns:xlink="http://www.w3.org/1999/xlink" viewBox="0 0 343.19 256.77"><defs><style>.cls-1,.cls-6{fill:#6c63ff;}.cls-1,.cls-36,.cls-7{opacity:0.1;}.cls-1,.cls-33,.cls-35,.cls-36,.cls-37{isolation:isolate;}.cls-2{fill:url(#linear-gradient);}.cls-3{fill:#535461;}.cls-4{fill:#d6d6e3;}.cls-5{fill:#a8a8a8;}.cls-8{fill:#fff;}.cls-9{fill:#575988;}.cls-10{fill:#fa595f;}.cls-11{fill:#ffd037;}.cls-12{fill:url(#linear-gradient-2);}.cls-13,.cls-35{opacity:0.08;}.cls-14{fill:url(#linear-gradient-4);}.cls-15{fill:url(#linear-gradient-5);}.cls-16,.cls-33,.cls-37{opacity:0.05;}.cls-17{fill:url(#linear-gradient-7);}.cls-18{fill:url(#linear-gradient-9);}.cls-19{fill:url(#linear-gradient-10);}.cls-20{fill:url(#linear-gradient-12);}.cls-21{fill:url(#linear-gradient-13);}.cls-22{fill:url(#linear-gradient-14);}.cls-23{fill:url(#linear-gradient-15);}.cls-24{fill:url(#linear-gradient-16);}.cls-25{fill:url(#linear-gradient-17);}.cls-26{fill:url(#linear-gradient-18);}.cls-27{fill:url(#linear-gradient-19);}.cls-28{fill:url(#linear-gradient-20);}.cls-29{fill:url(#linear-gradient-21);}.cls-30{fill:url(#linear-gradient-22);}.cls-31{fill:url(#linear-gradient-23);}.cls-32{fill:url(#linear-gradient-24);}.cls-33{fill:url(#linear-gradient-25);}.cls-34{fill:#f7c4a7;}.cls-38{fill:#6a5c99;}.cls-39{fill:#632652;}</style><linearGradient id="linear-gradient" x1="253.15" y1="19.57" x2="253.15" y2="248.15" gradientTransform="matrix(1, 0, 0, -1, -44.49, 270.17)" gradientUnits="userSpaceOnUse"><stop offset="0" stop-color="gray" stop-opacity="0.25"/><stop offset="0.54" stop-color="gray" stop-opacity="0.12"/><stop offset="1" stop-color="gray" stop-opacity="0.1"/></linearGradient><linearGradient id="linear-gradient-2" x1="224.55" y1="120.83" x2="224.55" y2="131.63" xlink:href="#linear-gradient"/><linearGradient id="linear-gradient-4" x1="215.12" y1="123.05" x2="215.12" y2="128.79" xlink:href="#linear-gradient"/><linearGradient id="linear-gradient-5" x1="198.84" y1="121.91" x2="198.84" y2="158.42" xlink:href="#linear-gradient"/><linearGradient id="linear-gradient-7" x1="182.47" y1="-6.6" x2="182.47" y2="8.47" xlink:href="#linear-gradient"/><linearGradient id="linear-gradient-9" x1="214.54" y1="-3.16" x2="214.54" y2="10.65" xlink:href="#linear-gradient"/><linearGradient id="linear-gradient-10" x1="183.32" y1="-0.29" x2="183.32" y2="101.9" xlink:href="#linear-gradient"/><linearGradient id="linear-gradient-12" x1="199.13" y1="-2.15" x2="199.13" y2="95.44" xlink:href="#linear-gradient"/><linearGradient id="linear-gradient-13" x1="190.54" y1="164.83" x2="190.54" y2="186.93" xlink:href="#linear-gradient"/><linearGradient id="linear-gradient-14" x1="193.37" y1="87.06" x2="193.37" y2="101.9" xlink:href="#linear-gradient"/><linearGradient id="linear-gradient-15" x1="191.3" y1="87.68" x2="191.3" y2="173.17" xlink:href="#linear-gradient"/><linearGradient id="linear-gradient-16" x1="198.49" y1="115.58" x2="198.49" y2="155.22" xlink:href="#linear-gradient"/><linearGradient id="linear-gradient-17" x1="196.84" y1="172.06" x2="196.84" y2="185.67" xlink:href="#linear-gradient"/><linearGradient id="linear-gradient-18" x1="155.39" y1="205" x2="155.39" y2="232.51" gradientTransform="matrix(1, 0, 0, -1, -32.18, 282)" xlink:href="#linear-gradient"/><linearGradient id="linear-gradient-19" x1="199.52" y1="176.5" x2="199.52" y2="207.4" xlink:href="#linear-gradient"/><linearGradient id="linear-gradient-20" x1="199.3" y1="176.71" x2="199.3" y2="207.61" xlink:href="#linear-gradient"/><linearGradient id="linear-gradient-21" x1="195.73" y1="87.69" x2="195.73" y2="170.14" xlink:href="#linear-gradient"/><linearGradient id="linear-gradient-22" x1="226.19" y1="109.42" x2="226.19" y2="120.02" xlink:href="#linear-gradient"/><linearGradient id="linear-gradient-23" x1="216.83" y1="114.66" x2="216.83" y2="120.02" xlink:href="#linear-gradient"/><linearGradient id="linear-gradient-24" x1="204.68" y1="113.98" x2="204.68" y2="155.85" xlink:href="#linear-gradient"/><linearGradient id="linear-gradient-25" x1="184.61" y1="117" x2="184.61" y2="121.38" xlink:href="#linear-gradient"/></defs><title>what-3</title><path class="cls-1" d="M321,70.61c2.25,21.44,19.77,39.4,36.32,51.45,5.53,4,11.51,8.19,15,14.83,4.27,8.09,3.52,17.64.78,24.89-5,13.21-16.12,21.62-29,21.88-11.13.23-23-5.21-34.09-4.59-18.51,1-30.68,18.59-38.55,37.19-5.56,13.16-10.95,28.54-23.32,31.82-8.71,2.31-19-2.23-27.75-9.13-4.21-3.34-8.36-7.32-13-8.78a17.72,17.72,0,0,0-8-.38c-23.64,3.42-39.25,28.1-63.3,29.84-16.25,1.19-34-8.62-48.63-22.55S61,205.33,49.73,187.46c-8-12.69-16.19-26.61-17.4-41.06-1.3-15.29,5.87-28.13,16-34.5s22.86-7.1,35.44-5.73c15.74,1.71,32.54,6.45,46.14.37C139.16,102.4,145.83,93.66,153,86c12.05-12.73,26.07-22.67,40.14-32.35,13.47-9.27,27.18-18.43,42.63-23.48,10.95-3.59,22.58-2.38,33.83-4.46C277,24.4,283.07,20.19,290.77,20c9.49-.24,21.2,3.84,27.15,15.88C323.59,47.32,319.84,59.23,321,70.61Z" transform="translate(-32.18 -20)"/><path class="cls-2" d="M276.23,24.2l-21.1-1.28-12.21-.87v0h-.32v0L177,27.3h-5.45L170.87,50l10.57,3.72,6.4,32.59L158.71,144,141.1,157.34v12.72l10.57,10.25.64,46.86,3.2.62v-.5l1.61.31v.19l62.53,21,2.63,1.78,5.5-3.43,44.3-25.59ZM209,169.79h0l17.14-14.52h0Zm-59.41,6,4.63,4.5v.28Z" transform="translate(-32.18 -20)"/><polygon class="cls-3" points="125.83 161.26 188.22 177.01 178.96 166.51 173.7 160.02 119.03 149.21 116.56 151.37 125.83 161.26"/><polygon class="cls-4" points="116.56 151.37 178.03 165.58 178.34 150.76 160.73 143.96 125.52 138.09 115.32 138.09 116.56 151.37"/><polygon class="cls-4" points="161.04 67.35 223.75 71.37 223.75 59.63 219.42 33.37 217.26 31.52 154.55 33.37 161.04 67.35"/><polygon class="cls-4" points="146.21 8.35 143.12 8.35 142.5 30.9 152.7 34.61 158.88 67.04 130.77 124.5 113.78 137.78 113.78 150.45 123.97 160.64 124.59 207.28 127.68 207.9 127.06 161.57 116.87 150.76 116.56 137.78 132.93 124.81 161.66 67.35 155.48 34.61 145.29 30.29 146.21 8.35 146.21 8.35"/><polygon class="cls-3" points="143.74 8.35 140.65 8.35 140.03 30.9 150.23 34.61 156.41 67.04 128.3 124.5 111.31 137.78 111.31 150.45 121.5 160.64 122.12 207.28 125.21 207.9 124.59 161.57 114.4 150.76 114.09 137.78 131.08 124.81 159.19 67.35 153.01 34.61 142.81 30.29 143.74 8.35 143.74 8.35"/><polygon class="cls-5" points="143.59 28.59 145.13 30.75 153.78 34.76 222.36 32.91 215.72 30.9 208.61 27.81 209.54 25.34 143.59 28.59"/><polygon class="cls-6" points="132 125.73 194.71 135.93 207.37 109.05 224.67 70.44 161.04 67.35 132 125.73"/><g class="cls-7"><polygon class="cls-8" points="164.44 78.47 206.76 81.87 184.82 125.12 143.74 118.94 164.44 78.47"/></g><g class="cls-7"><polygon class="cls-8" points="167.36 81.61 169.22 81.77 168.26 83.67 166.44 83.4 167.36 81.61"/></g><g class="cls-7"><polygon class="cls-8" points="167.66 99.53 169.53 99.68 168.57 101.59 166.75 101.32 167.66 99.53"/></g><g class="cls-7"><polygon class="cls-8" points="177.86 83.78 179.73 83.93 178.76 85.83 176.95 85.56 177.86 83.78"/></g><g class="cls-7"><polygon class="cls-8" points="197.32 84.7 199.19 84.86 198.22 86.76 196.41 86.49 197.32 84.7"/></g><g class="cls-7"><polygon class="cls-8" points="171.06 87.17 172.93 87.33 171.97 89.23 170.15 88.96 171.06 87.17"/></g><g class="cls-7"><polygon class="cls-8" points="177.86 106.02 179.73 106.17 178.76 108.08 176.95 107.8 177.86 106.02"/></g><g class="cls-7"><polygon class="cls-8" points="161.18 95.21 163.05 95.36 162.08 97.26 160.27 96.99 161.18 95.21"/></g><g class="cls-7"><polygon class="cls-8" points="189.6 83.78 191.47 83.93 190.5 85.83 188.69 85.56 189.6 83.78"/></g><g class="cls-7"><polygon class="cls-8" points="174.77 94.28 176.64 94.43 175.67 96.34 173.86 96.06 174.77 94.28"/></g><g class="cls-7"><polygon class="cls-8" points="172.61 82.54 174.48 82.69 173.51 84.6 171.7 84.33 172.61 82.54"/></g><g class="cls-7"><polygon class="cls-8" points="182.18 93.35 184.05 93.5 183.09 95.41 181.27 95.14 182.18 93.35"/></g><g class="cls-7"><polygon class="cls-8" points="184.35 83.78 186.22 83.93 185.25 85.83 183.44 85.56 184.35 83.78"/></g><g class="cls-7"><polygon class="cls-8" points="164.88 88.1 166.75 88.25 165.79 90.16 163.97 89.89 164.88 88.1"/></g><polygon class="cls-4" points="115.32 138.09 176.48 150.45 193.33 135.71 132.16 125.27 115.32 138.09"/><polygon class="cls-3" points="126.75 159.71 126.75 207.9 187.3 228.91 188.22 178.87 185.75 174.21 174.63 171.45 126.75 159.71"/><ellipse class="cls-9" cx="134.63" cy="129.75" rx="2.63" ry="1.54"/><ellipse class="cls-10" cx="136.79" cy="133.15" rx="2.63" ry="1.54"/><ellipse class="cls-11" cx="129.38" cy="132.22" rx="2.63" ry="1.54"/><ellipse class="cls-9" cx="162.74" cy="135.31" rx="2.63" ry="1.54"/><ellipse class="cls-11" cx="157.49" cy="138.09" rx="2.63" ry="1.54"/><ellipse class="cls-5" cx="147.6" cy="133.46" rx="3.86" ry="1.85"/><ellipse class="cls-10" cx="165.52" cy="138.71" rx="2.63" ry="1.54"/><path class="cls-5" d="M180.86,153.15H179l-1.6-6.15a1.76,1.76,0,0,1,1.26-2.14,2.12,2.12,0,0,1,.44-.05h0a1.75,1.75,0,0,1,1.75,1.75Z" transform="translate(-32.18 -20)"/><ellipse class="cls-5" cx="175.4" cy="138.4" rx="3.86" ry="1.85"/><path class="cls-5" d="M208.66,158.09h-1.85l-1.6-6.15a1.75,1.75,0,0,1,1.26-2.13,1.61,1.61,0,0,1,.44-.06h0a1.75,1.75,0,0,1,1.75,1.75Z" transform="translate(-32.18 -20)"/><polygon class="cls-3" points="145.9 8.35 209.54 3.1 207.99 26.27 144.36 29.36 145.9 8.35"/><polygon class="cls-4" points="209.23 3.1 238.57 5.26 234.56 201.72 189.61 230.61 186.52 228.44 186.37 177.01 176.48 165.89 176.48 150.45 193.78 135.31 223.13 70.13 218.96 32.91 221.12 32.91 207.37 28.12 209.23 3.1"/><polygon class="cls-3" points="212.01 3.41 241.66 5.26 237.65 201.72 189.46 230.45 189.46 177.01 179.57 165.89 179.57 150.45 196.87 135.31 226.22 70.13 220.97 32.76 210.46 28.12 212.01 3.41"/><path class="cls-12" d="M192,142.43c-4.32,9-15,6.63-15,6.63-.55-.5-4-1.36-6.6-1.95-1.67-.38-3-.64-3-.64l3.65-5.1,2.74.57,4.09.84S196.35,133.47,192,142.43Z" transform="translate(-32.18 -20)"/><g class="cls-13"><path class="cls-12" d="M192,142.43c-4.32,9-15,6.63-15,6.63-.55-.5-4-1.36-6.6-1.95-1.67-.38-3-.64-3-.64l3.65-5.1,2.74.57,4.09.84S196.35,133.47,192,142.43Z" transform="translate(-32.18 -20)"/></g><g class="cls-7"><path class="cls-14" d="M173.84,141.94l-3.4,5.18c-1.68-.38-3-.65-3-.65l3.66-5.09Z" transform="translate(-32.18 -20)"/></g><path class="cls-15" d="M135.85,123.42s15.93,24.89,33,24.84l4.64-7.11s-15.61-11.15-17.69-17a55.59,55.59,0,0,0-4-8c-5.18-8.9-19.16-3.08-16.09,6.7C135.72,123.05,135.79,123.23,135.85,123.42Z" transform="translate(-32.18 -20)"/><g class="cls-16"><path class="cls-15" d="M135.85,123.42s15.93,24.89,33,24.84l4.64-7.11s-15.61-11.15-17.69-17a55.59,55.59,0,0,0-4-8c-5.18-8.9-19.16-3.08-16.09,6.7C135.72,123.05,135.79,123.23,135.85,123.42Z" transform="translate(-32.18 -20)"/></g><path class="cls-17" d="M125.48,268.12l.74,8.65s24.47-4.07,24.26-12.2S125.48,268.12,125.48,268.12Z" transform="translate(-32.18 -20)"/><g class="cls-7"><path class="cls-17" d="M125.48,268.12l.74,8.65s24.47-4.07,24.26-12.2S125.48,268.12,125.48,268.12Z" transform="translate(-32.18 -20)"/></g><path class="cls-18" d="M154.11,265.83l-.42,7.5s34-2.5,32.69-9.58-19.23-3.13-19.23-3.13Z" transform="translate(-32.18 -20)"/><path class="cls-19" d="M154.54,197.46s-2,5.56-4.57,11.93c-2.46,6.1-5.42,13-7.61,16.42-4.49,7.08-5.13,29-5.13,29-.85,3.54,3.42,10.42,3.42,10.42-8.55,9-16.45,3.75-16.45,3.75,1.49-2.7-1.07-10.42-1.07-10.42s3.42-35.64,5.56-37.31,3.84-10,3.84-10l-1.91-28.33-.44-6.49,18.38-8.13,1.32,6.46,1.32,6.4Z" transform="translate(-32.18 -20)"/><g class="cls-7"><path class="cls-19" d="M154.54,197.46s-2,5.56-4.57,11.93c-2.46,6.1-5.42,13-7.61,16.42-4.49,7.08-5.13,29-5.13,29-.85,3.54,3.42,10.42,3.42,10.42-8.55,9-16.45,3.75-16.45,3.75,1.49-2.7-1.07-10.42-1.07-10.42s3.42-35.64,5.56-37.31,3.84-10,3.84-10l-1.91-28.33-.44-6.49,18.38-8.13,1.32,6.46,1.32,6.4Z" transform="translate(-32.18 -20)"/></g><path class="cls-20" d="M170.56,266.45c-3.84,6.67-17.29,5.84-17.29,5.84v-19.6s-3.85-21.88-1.71-26.87-.86-14.17-.86-14.17L150,209.4l-8.72-26.88-2.52-7.79h28.84v3.5c0,8.34.21,29,1.06,33.81a13.57,13.57,0,0,1-1.92,10s1.71,24.59.21,32.3A13.05,13.05,0,0,0,170.56,266.45Z" transform="translate(-32.18 -20)"/><path class="cls-21" d="M146.85,83.24s-4.49,12.09-13.47,16.47,14.75,5.63,14.75,5.63a41.84,41.84,0,0,1,12.6-15.64Z" transform="translate(-32.18 -20)"/><g class="cls-7"><path class="cls-22" d="M167.58,178.25c-3.57.69-9.9,1.87-16.39,2.89-3.39.54-6.83,1-9.94,1.39-4.78.55-8.78.79-10.63.35l-.44-6.48,18.37-8.13,1.33,6.46h17.69S167.57,176.08,167.58,178.25Z" transform="translate(-32.18 -20)"/></g><path class="cls-23" d="M170.56,177s-36.11,7.29-40.59,5-5.56-8.13-4.28-14.59,0-22.51-2.35-42.94c-1.18-10.28,1.42-17.19,4.31-21.5a13.7,13.7,0,0,1,11.43-6,17.33,17.33,0,0,1,10.77,3.71,7.92,7.92,0,0,0,2.56,1.51,8.25,8.25,0,0,1,2.47,1.63,22.77,22.77,0,0,1,7.8,15.11c.37,3.88.77,8.77,1,13.71a111.56,111.56,0,0,1-.13,12.67,41.4,41.4,0,0,0,.44,9.24A100.54,100.54,0,0,0,170.56,177Z" transform="translate(-32.18 -20)"/><g class="cls-7"><path class="cls-24" d="M164,154.59c-13.11-8-19.88-30.29-19.88-30.29a5.43,5.43,0,0,0,0-.57c-.3-10.23,14.77-12.21,17.33-2.27a54.45,54.45,0,0,1,1.69,8.78,9.25,9.25,0,0,0,.57,2.43,109.29,109.29,0,0,1-.13,12.67A41.49,41.49,0,0,0,164,154.59Z" transform="translate(-32.18 -20)"/></g><g class="cls-7"><path class="cls-25" d="M144.6,90.44c2.13,3.52,3.82,7.07,8.15,7.67A39.14,39.14,0,0,1,160.09,91l-13.9-6.46S147,86.7,144.6,90.44Z" transform="translate(-32.18 -20)"/></g><ellipse class="cls-26" cx="123.22" cy="63.24" rx="14.1" ry="13.76"/><g class="cls-7"><path class="cls-27" d="M169.33,87.56a2.92,2.92,0,0,0,1.66-.44,3.33,3.33,0,0,0,1-2.18,11.07,11.07,0,0,0,0-5.77,33.05,33.05,0,0,0-1.81-3.43c-1.26-2.52-1.49-5.56-3.3-7.75-1.12-1.37-5.09,0-6.74-.69-3.56-1.49-5.1-4.53-9-4.52a14.26,14.26,0,0,0-4.21.52A15.17,15.17,0,0,0,142.31,66c-2.47,1.92-4.89,4.56-4.67,7.64.14,2,1.34,3.7,2.05,5.54a15.87,15.87,0,0,1,.11,9.76c-.36,1.36-.78,3,.19,4a2.81,2.81,0,0,0,2.47.7,8.42,8.42,0,0,0,2.47-1,17,17,0,0,0,3.92-2.57c.75-.72,1.35-1.57,2.06-2.32A22.91,22.91,0,0,1,155.57,84c1.37-.82,2.78-.3,4.22.23C162.94,85.43,165.86,87.62,169.33,87.56Z" transform="translate(-32.18 -20)"/></g><path class="cls-28" d="M169.12,87.35a2.94,2.94,0,0,0,1.66-.44,3.32,3.32,0,0,0,1-2.18,11,11,0,0,0,0-5.77,31.15,31.15,0,0,0-1.8-3.43c-1.27-2.52-1.49-5.56-3.3-7.75-1.13-1.37-4.88.21-6.53-.48-3.56-1.5-5.32-4.74-9.19-4.73a14.22,14.22,0,0,0-4.21.52,15.06,15.06,0,0,0-4.69,2.66c-2.47,1.92-4.89,4.55-4.67,7.64.14,2,1.34,3.7,2,5.54a15.94,15.94,0,0,1,.11,9.76c-.36,1.36-.78,3,.19,4a2.79,2.79,0,0,0,2.47.7,8.53,8.53,0,0,0,2.47-1,17,17,0,0,0,3.92-2.57c.75-.72,1.35-1.57,2.05-2.32a23.24,23.24,0,0,1,4.67-3.71c1.37-.82,2.78-.3,4.21.23C162.73,85.22,165.65,87.41,169.12,87.35Z" transform="translate(-32.18 -20)"/><g class="cls-16"><path class="cls-29" d="M164,154.59a41.34,41.34,0,0,1-.44-9.23,109.31,109.31,0,0,0,.13-12.67c-.19-4.94-.58-9.83-.95-13.71a22.74,22.74,0,0,0-7.83-15.12,7.72,7.72,0,0,0-2.47-1.63,8.13,8.13,0,0,1-2.56-1.51c-3-2.42.83,2.29,1.82,3.14A22.73,22.73,0,0,1,159.47,119c.37,3.88.76,8.77,1,13.71a114,114,0,0,1-.13,12.67,41.34,41.34,0,0,0,.43,9.23A100.69,100.69,0,0,0,167.35,177s-24.18,4.88-35.43,5.4c8.82.62,38.63-5.4,38.63-5.4A100.82,100.82,0,0,1,164,154.59Z" transform="translate(-32.18 -20)"/></g><path class="cls-30" d="M193.43,156.61c-6.63,7.5-16.24,2.5-16.24,2.5-.39-.63-3.48-2.35-5.83-3.6-1.51-.8-2.72-1.4-2.72-1.4l4.92-4L176,151.4l3.71,1.88S200.06,149.11,193.43,156.61Z" transform="translate(-32.18 -20)"/><g class="cls-7"><path class="cls-31" d="M176,151.4l-4.68,4.11c-1.51-.8-2.72-1.4-2.72-1.4l4.92-4Z" transform="translate(-32.18 -20)"/></g><path class="cls-32" d="M144.5,123.68s8.54,28.14,25,32.51l6.41-5.62s-12-14.81-12.41-21a54.25,54.25,0,0,0-1.69-8.78c-2.56-9.93-17.63-8-17.34,2.28Z" transform="translate(-32.18 -20)"/><path class="cls-33" d="M127.94,151.09s5.56-4.38,10.68-1,12.61,2.92,13.68,3.12" transform="translate(-32.18 -20)"/><path class="cls-34" d="M190.41,142c-4.12,8.74-14.24,6.49-14.24,6.49-.53-.5-3.8-1.33-6.28-1.9-1.6-.37-2.86-.62-2.86-.62l3.48-5,2.6.55,3.89.82S194.54,133.23,190.41,142Z" transform="translate(-32.18 -20)"/><path class="cls-35" d="M190.41,142c-4.12,8.74-14.24,6.49-14.24,6.49-.53-.5-3.8-1.33-6.28-1.9-1.6-.37-2.86-.62-2.86-.62l3.48-5,2.6.55,3.89.82S194.54,133.23,190.41,142Z" transform="translate(-32.18 -20)"/><path class="cls-36" d="M173.11,141.49l-3.22,5c-1.6-.37-2.86-.62-2.86-.62l3.48-5Z" transform="translate(-32.18 -20)"/><path class="cls-9" d="M137,123.42s15.16,24.3,31.39,24.23l4.42-6.92s-14.86-10.88-16.84-16.55a54.07,54.07,0,0,0-3.83-7.83c-4.94-8.68-18.23-3-15.31,6.54C136.85,123.06,136.9,123.24,137,123.42Z" transform="translate(-32.18 -20)"/><path class="cls-37" d="M137,123.42s15.16,24.3,31.39,24.23l4.42-6.92s-14.86-10.88-16.84-16.55a54.07,54.07,0,0,0-3.83-7.83c-4.94-8.68-18.23-3-15.31,6.54C136.85,123.06,136.9,123.24,137,123.42Z" transform="translate(-32.18 -20)"/><path class="cls-3" d="M127.09,264.61l.71,8.43s23.29-4,23.08-11.89S127.09,264.61,127.09,264.61Z" transform="translate(-32.18 -20)"/><path class="cls-36" d="M127.09,264.61l.71,8.43s23.29-4,23.08-11.89S127.09,264.61,127.09,264.61Z" transform="translate(-32.18 -20)"/><path class="cls-3" d="M154.34,267.25l-.4,7.32s32.33-2.44,31.11-9.35-18.3-3.05-18.3-3.05Z" transform="translate(-32.18 -20)"/><path class="cls-38" d="M154.75,195.67s-1.91,5.41-4.35,11.63c-2.34,5.95-5.16,12.64-7.24,16-4.26,6.92-4.88,28.27-4.88,28.27-.81,3.46,3.25,10.17,3.25,10.17-8.13,8.74-15.65,3.66-15.65,3.66,1.42-2.65-1-10.17-1-10.17s3.25-34.78,5.29-36.4,3.66-9.76,3.66-9.76L132,181.44l-.42-6.31,17.49-7.94,1.27,6.31,1.23,6.24Z" transform="translate(-32.18 -20)"/><path class="cls-36" d="M154.75,195.67s-1.91,5.41-4.35,11.63c-2.34,5.95-5.16,12.64-7.24,16-4.26,6.92-4.88,28.27-4.88,28.27-.81,3.46,3.25,10.17,3.25,10.17-8.13,8.74-15.65,3.66-15.65,3.66,1.42-2.65-1-10.17-1-10.17s3.25-34.78,5.29-36.4,3.66-9.76,3.66-9.76L132,181.44l-.42-6.31,17.49-7.94,1.27,6.31,1.23,6.24Z" transform="translate(-32.18 -20)"/><path class="cls-38" d="M170,263c-3.66,6.51-16.47,5.69-16.47,5.69V249.55s-3.66-21.35-1.63-26.23-.81-13.83-.81-13.83l-.69-2.19-8.3-26.21-2.4-7.59h27.45v3.42c0,8.13.2,28.3,1,33a13.46,13.46,0,0,1-1.83,9.76s1.63,24,.21,31.51A12.91,12.91,0,0,0,170,263Z" transform="translate(-32.18 -20)"/><path class="cls-34" d="M147.43,84.22s-4.27,11.8-12.82,16.07,14,5.49,14,5.49a40.61,40.61,0,0,1,12-15.25Z" transform="translate(-32.18 -20)"/><path class="cls-36" d="M167.16,176.92c-3.4.66-9.42,1.82-15.6,2.82-3.23.53-6.5,1-9.46,1.36-4.55.54-8.36.76-10.12.34l-.42-6.32,17.49-7.93,1.28,6.31h16.84S167.15,174.8,167.16,176.92Z" transform="translate(-32.18 -20)"/><path class="cls-9" d="M170,175.73s-34.37,7.1-38.64,4.88-5.28-7.94-4.06-14.24,0-22-2.24-41.89c-1.13-10,1.36-16.77,4.1-21A13,13,0,0,1,140,97.62a16.21,16.21,0,0,1,10.25,3.62,7.7,7.7,0,0,0,2.44,1.47,7.57,7.57,0,0,1,2.34,1.59,22.38,22.38,0,0,1,7.44,14.75c.36,3.79.73,8.56.91,13.38a110.78,110.78,0,0,1-.12,12.36,41.17,41.17,0,0,0,.42,9A99.54,99.54,0,0,0,170,175.73Z" transform="translate(-32.18 -20)"/><path class="cls-36" d="M163.71,153.84c-12.48-7.78-18.93-29.55-18.93-29.55a5.15,5.15,0,0,0,0-.56c-.28-10,14.06-11.91,16.5-2.22a55.29,55.29,0,0,1,1.61,8.57,9.33,9.33,0,0,0,.54,2.38,110.63,110.63,0,0,1-.12,12.35A41.35,41.35,0,0,0,163.71,153.84Z" transform="translate(-32.18 -20)"/><path class="cls-36" d="M145.29,91.24c2,3.44,3.64,6.9,7.76,7.49a37.26,37.26,0,0,1,7-7l-13.22-6.31S147.58,87.6,145.29,91.24Z" transform="translate(-32.18 -20)"/><circle class="cls-34" cx="123.39" cy="64.22" r="13.42"/><path class="cls-36" d="M168.83,88.43a2.75,2.75,0,0,0,1.58-.43,3.26,3.26,0,0,0,1-2.13,11.07,11.07,0,0,0,0-5.63,27.75,27.75,0,0,0-1.72-3.34c-1.2-2.47-1.42-5.42-3.13-7.56-1.08-1.34-4.85,0-6.43-.68-3.39-1.46-4.85-4.42-8.54-4.41a13.33,13.33,0,0,0-4,.51,14.19,14.19,0,0,0-4.46,2.59c-2.36,1.87-4.66,4.45-4.45,7.46.14,1.92,1.28,3.6,2,5.4a15.93,15.93,0,0,1,.11,9.52c-.35,1.33-.75,2.92.17,3.94a2.63,2.63,0,0,0,2.36.68,7.8,7.8,0,0,0,2.37-1,16.06,16.06,0,0,0,3.73-2.51c.71-.7,1.28-1.52,2-2.25A21.45,21.45,0,0,1,155.74,85c1.3-.8,2.64-.31,4,.22C162.75,86.36,165.53,88.49,168.83,88.43Z" transform="translate(-32.18 -20)"/><path class="cls-39" d="M168.63,88.23a2.74,2.74,0,0,0,1.57-.43,3.27,3.27,0,0,0,1-2.13,11.07,11.07,0,0,0,0-5.63,30.14,30.14,0,0,0-1.72-3.34c-1.21-2.47-1.42-5.42-3.14-7.56-1.07-1.34-4.63.21-6.22-.47-3.39-1.46-5.06-4.64-8.74-4.64a13.3,13.3,0,0,0-4,.52,14.08,14.08,0,0,0-4.46,2.59c-2.36,1.87-4.66,4.44-4.45,7.45.14,1.92,1.28,3.6,2,5.41a15.85,15.85,0,0,1,.11,9.52c-.34,1.33-.74,2.92.18,3.94a2.59,2.59,0,0,0,2.36.67,7.48,7.48,0,0,0,2.36-1,15.65,15.65,0,0,0,3.73-2.51c.71-.7,1.28-1.52,2-2.26a21.65,21.65,0,0,1,4.48-3.6c1.3-.8,2.64-.31,4,.22C162.55,86.15,165.32,88.29,168.63,88.23Z" transform="translate(-32.18 -20)"/><path class="cls-37" d="M163.71,153.84a41.73,41.73,0,0,1-.41-9,110.8,110.8,0,0,0,.12-12.36c-.18-4.82-.55-9.59-.91-13.38a22.36,22.36,0,0,0-7.44-14.75,7.77,7.77,0,0,0-2.34-1.6,7.51,7.51,0,0,1-2.44-1.47c-2.89-2.36.78,2.24,1.73,3.07a22.42,22.42,0,0,1,7.45,14.75c.35,3.78.72,8.56.9,13.38a110.8,110.8,0,0,1-.12,12.36,41.17,41.17,0,0,0,.42,9,99.36,99.36,0,0,0,6.3,21.89s-23,4.77-33.71,5.28c8.38.62,36.75-5.28,36.75-5.28A99.54,99.54,0,0,1,163.71,153.84Z" transform="translate(-32.18 -20)"/><path class="cls-34" d="M191.76,155.81c-6.3,7.32-15.44,2.44-15.44,2.44-.37-.62-3.31-2.3-5.56-3.51-1.44-.78-2.59-1.37-2.59-1.37l4.67-3.87,2.37,1.24,3.54,1.82S198.07,148.49,191.76,155.81Z" transform="translate(-32.18 -20)"/><path class="cls-36" d="M175.22,150.73l-4.46,4c-1.43-.78-2.59-1.37-2.59-1.37l4.68-3.86Z" transform="translate(-32.18 -20)"/><path class="cls-9" d="M145.19,123.68s8.13,27.45,23.79,31.72l6.1-5.49s-11.43-14.45-11.81-20.44a55.08,55.08,0,0,0-1.61-8.57c-2.44-9.69-16.78-7.77-16.5,2.21Z" transform="translate(-32.18 -20)"/><path class="cls-37" d="M129.43,150.42s5.29-4.27,10.17-1,12,2.85,13,3" transform="translate(-32.18 -20)"/></svg>