<svg id="Layer_1" data-name="Layer 1" xmlns="http://www.w3.org/2000/svg" xmlns:xlink="http://www.w3.org/1999/xlink" viewBox="0 0 354 187.83"><defs><style>.cls-1,.cls-11{fill:#6c63ff;}.cls-1,.cls-10{opacity:0.1;}.cls-1,.cls-10,.cls-12,.cls-15{isolation:isolate;}.cls-2{fill:url(#linear-gradient);}.cls-3{fill:url(#linear-gradient-2);}.cls-4{fill:url(#linear-gradient-3);}.cls-5{fill:url(#linear-gradient-4);}.cls-6{fill:url(#linear-gradient-5);}.cls-7{fill:url(#linear-gradient-6);}.cls-8{fill:#f7d6c8;}.cls-9{fill:#efb7b9;}.cls-12,.cls-15{opacity:0.05;}.cls-13{fill:#c3705a;}.cls-14{fill:#ecb4b6;}.cls-15{fill:#1010bf;}.cls-16{fill:#463a3e;}.cls-17{fill:#c17174;}</style><linearGradient id="linear-gradient" x1="249.34" y1="-75.44" x2="249.34" y2="71.45" gradientTransform="matrix(1, 0, 0, -1, -44.49, 146.77)" gradientUnits="userSpaceOnUse"><stop offset="0" stop-color="gray" stop-opacity="0.25"/><stop offset="0.54" stop-color="gray" stop-opacity="0.12"/><stop offset="1" stop-color="gray" stop-opacity="0.1"/></linearGradient><linearGradient id="linear-gradient-2" x1="134.15" y1="-10.64" x2="134.15" y2="-10.43" xlink:href="#linear-gradient"/><linearGradient id="linear-gradient-3" x1="134.13" y1="-10.43" x2="134.13" y2="-10.21" xlink:href="#linear-gradient"/><linearGradient id="linear-gradient-4" x1="134.11" y1="-10.11" x2="134.11" y2="-10.11" xlink:href="#linear-gradient"/><linearGradient id="linear-gradient-5" x1="134.11" y1="-10.21" x2="134.11" y2="-10.21" xlink:href="#linear-gradient"/><linearGradient id="linear-gradient-6" x1="134.11" y1="-10.16" x2="134.11" y2="-10.16" xlink:href="#linear-gradient"/></defs><title>what-6</title><path class="cls-1" d="M43,79.39c.57,3.64,2,7.15,2.05,10.83,0,12-14.54,19.42-16.77,31.23-1.33,7,2.11,14.17,7,19.4s11,9,16.71,13.3a107.06,107.06,0,0,1,35,46.36A44.13,44.13,0,0,1,90.07,212c.3,2.87.16,5.81.83,8.61,2.66,11.11,16.15,15.43,27.56,16.15a120.88,120.88,0,0,0,53.77-9c3.82-1.59,7.77-3.4,11.87-3,3.28.36,6.21,2.13,9.09,3.75a120.9,120.9,0,0,0,26.89,11.07c5.19,1.43,10.64,2.52,15.95,1.59,15.93-2.81,24.4-22.13,40-26.36,10.81-2.92,22.07,2.18,31.77,7.79s19.71,12.06,30.9,12.08c14.94,0,27.22-11.29,37.35-22.26,2.13-2.31,4.29-4.72,5.3-7.68,2.06-6-1.27-12.79-6.2-16.84s-11.12-6.05-17.05-8.36a148,148,0,0,1-28.61-14.94c-5.8-3.89-11.41-8.29-15.38-14-3.41-5-5.46-10.68-7.75-16.24-5-12.16-12.11-24.53-23.95-30.24-9.67-4.66-20.9-4.14-31.64-4.27-15.82-.17-32-2.07-46.06-9.39-11.84-6.18-21.57-15.93-33.59-21.77-19.12-9.28-41-7.46-61.57-7.11-9.9.16-21.67,1.15-31.18-2.09-7-2.4-10.65-7.3-18.72-5.33A22.68,22.68,0,0,0,43,79.39Z" transform="translate(-28 -53.71)"/><path class="cls-2" d="M335.9,167a8,8,0,0,1,.15-5c1-2.48,3.29-4.26,4.11-6.79,1.52-4.69-2.58-9.08-5.1-13.34a22.37,22.37,0,0,1-3-13.06c.39-4.9,2.4-9.58,2.55-14.48.14-4.58-1.34-9-2.81-13.36a45.55,45.55,0,0,0-4.48-10.38A23.79,23.79,0,0,0,309.55,80.1c-3.33-.29-6.59.79-9.86.36-4.55-.58-8.84-1.76-13.47-1.91-4.4-.13-9.27.43-12.27,3.65-2.29,2.47-3,6-5.12,8.68-3,3.74-8.18,5-11.47,8.49A12,12,0,0,0,254.64,111c.46,1.48,1.2,2.85,1.69,4.32,2,6.14-.64,12.7-2.25,19a2.78,2.78,0,0,0-.1,1.59c.26.77,1.06,1.17,1.72,1.62a9,9,0,0,1,3.51,6.8,26,26,0,0,1-1,7.82c-1.53,6.53-3.44,13.52-8.47,17.87a45.08,45.08,0,0,0-3.23-6.3c-3.08-5-5.36-11.15-5.4-17v-.05c0-.32,0-.64,0-1,.4-7,3.4-13.67,3.34-20.6,0-.56,0-1.12-.05-1.69-.39-5.93-3.24-11.41-6.51-16.37a39.66,39.66,0,0,0-8.7-10c-5.44-4.13-12.35-5.93-19.14-6.88s-13-1.84-19.81-2.3c-7.36-.5-15.46-.77-21.28,3.76-7.59,5.91-8,17.32-13.79,25-3.44,4.57-8.92,8.1-10.73,13.29a32.7,32.7,0,0,1-1.23-3.9l-.06-.26a38,38,0,0,0,1.48-19.51,24.31,24.31,0,0,0,.22-3.19,12.44,12.44,0,0,0-.37-3.44c-.82-3.11-3.08-5.59-5.26-7.94a24.45,24.45,0,0,0-2.58-2.51,37.83,37.83,0,0,0-64.51,37.6,9.86,9.86,0,0,1-2.67,5.82c-.7.7-1.61,1.57-1.46,2.46a1.2,1.2,0,0,0,.1.75,2.15,2.15,0,0,0,.64.7,11.52,11.52,0,0,0,7.8,2.33,32.65,32.65,0,0,0,13.15,16.87,6.08,6.08,0,0,1,0,.61c0,.36,0,.71,0,1.06v.15s-11.1,14.46-21.35,15c-5.47.29-10.25,4-13.87,8.2-4.35,5.07-7,10.9-7.26,12.51-.42,2.95-3.38,17.32-3.38,17.32H129c-1,5.18-2.36,11.77-2.36,11.77h137.9c-.32-4.43-.67-8.53-1-12h17.34l0,.11h80l5.08-7.62C364.64,180.52,351.56,168.33,335.9,167ZM136.79,142.2a20.55,20.55,0,0,0,5.74,2.07,3.42,3.42,0,0,0,2.58-.2,3,3,0,0,0,1-1.47l0,.09c2.15,5.42,4.14,11,4.53,16.82,0,.55.06,1.1.06,1.65a23.87,23.87,0,0,1-2,9.64A184.33,184.33,0,0,1,128,158.06l-.45-.19s.16.43.34,1.1c0,.17.1.34.14.53-.45-1.47-.87-3-1.23-4.5l-.12-.55A32.67,32.67,0,0,0,136.79,142.2Z" transform="translate(-28 -53.71)"/><path class="cls-3" d="M89.66,157.41v0Z" transform="translate(-28 -53.71)"/><path class="cls-4" d="M89.64,157.2v0Z" transform="translate(-28 -53.71)"/><path class="cls-5" d="M89.62,156.88" transform="translate(-28 -53.71)"/><path class="cls-6" d="M89.62,157Z" transform="translate(-28 -53.71)"/><path class="cls-7" d="M89.62,156.93Z" transform="translate(-28 -53.71)"/><path class="cls-8" d="M284.94,79.68c-4.33-.13-9.12.42-12.07,3.6-2.26,2.42-3,5.93-5,8.53-2.93,3.69-8.05,5-11.29,8.36a11.85,11.85,0,0,0-2.68,11.43c.45,1.45,1.18,2.81,1.66,4.25,2,6.05-.61,12.5-2.23,18.66a2.8,2.8,0,0,0-.09,1.57c.25.75,1,1.15,1.69,1.6a8.8,8.8,0,0,1,3.44,6.69,25.83,25.83,0,0,1-1,7.69c-1.57,6.69-3.54,13.89-9,18.11-2.3,1.8-5.36,3.26-6,6.13-.7,3.36,2.5,6.21,5.58,7.73,9,4.46,19.5,4.52,29.38,6.51,8.69,1.76,17.37,5.08,26.17,3.94a52.38,52.38,0,0,0,11.38-3.25l23.12-8.52a5.93,5.93,0,0,0,1.81-.91c1.39-1.16,1.44-3.37.68-5a18.21,18.21,0,0,0-3.34-4.26c-2.64-3-4.65-7.13-3.21-10.82,1-2.43,3.24-4.19,4-6.69,1.5-4.62-2.55-9-5-13.13A22,22,0,0,1,330.08,129c.38-4.81,2.36-9.42,2.5-14.25.13-4.5-1.32-8.88-2.76-13.15a45.68,45.68,0,0,0-4.41-10.22,23.42,23.42,0,0,0-17.5-10.25c-3.28-.29-6.48.77-9.7.36C293.73,81,289.5,79.82,284.94,79.68Z" transform="translate(-28 -53.71)"/><path class="cls-9" d="M291.4,206.12s-26.2-16.43-16-35.37a29.14,29.14,0,0,0,3.61-12.3,24.86,24.86,0,0,0,0-3v-.15c0-.51-.08-1-.13-1.52a30.94,30.94,0,0,0-7.64-16.51s43.46-12.68,36.19-1.25c-3.38,5.31-2.37,10.52-.11,15.9.24.57.49,1.14.76,1.72,2.61,5.68,6.24,11.56,7.25,17.94C317.4,184.7,291.4,206.12,291.4,206.12Z" transform="translate(-28 -53.71)"/><path class="cls-10" d="M307.42,136c-3.38,5.31-2.37,10.52-.11,15.9a29.35,29.35,0,0,1-28.45,1.88,30.9,30.9,0,0,0-7.63-16.53S314.7,124.59,307.42,136Z" transform="translate(-28 -53.71)"/><circle class="cls-9" cx="263.4" cy="72.96" r="29.32"/><path class="cls-10" d="M279,155.47v-.15l0,0A1.42,1.42,0,0,0,279,155.47Z" transform="translate(-28 -53.71)"/><path class="cls-10" d="M291.4,206.12s-26.2-16.43-16-35.37a29.14,29.14,0,0,0,3.61-12.3c.6,4.67,3.83,10.49,9.7,18.54,2.55,3.5,3.65,8.4,4,13.3l.59.42,2.87-1.73c.31-5.42,1.41-10.89,4-14.77,6.82-10.2,8.44-15.29,7.93-20.58,2.62,5.68,6.24,11.57,7.26,18C317.4,184.7,291.4,206.12,291.4,206.12Z" transform="translate(-28 -53.71)"/><path class="cls-11" d="M333.41,166.65c-15.61-1.13-25.49-13.25-25.49-13.25.83,5.68-.52,10.76-7.8,21.67-2.58,3.86-3.67,9.33-4,14.76l-2.87,1.73-.58-.42c-.35-4.9-1.44-9.8-4-13.3-7.28-10-10.52-16.54-9.67-21.74,0,0-8,13-23.61,14s-28.69,12.06-29.95,32.24l5,6.86h49.22l0,.11h78.7l5-7.5C362.11,179.82,349,167.79,333.41,166.65Z" transform="translate(-28 -53.71)"/><path class="cls-12" d="M333.41,166.65c-15.61-1.13-25.49-13.25-25.49-13.25.83,5.68-.52,10.76-7.8,21.67-2.58,3.86-3.67,9.33-4,14.76l-2.87,1.73-.58-.42c-.35-4.9-1.44-9.8-4-13.3-7.28-10-10.52-16.54-9.67-21.74,0,0-8,13-23.61,14s-28.69,12.06-29.95,32.24l5,6.86h49.22l0,.11h78.7l5-7.5C362.11,179.82,349,167.79,333.41,166.65Z" transform="translate(-28 -53.71)"/><path class="cls-10" d="M311.23,112.5a24.07,24.07,0,0,1-6,8.16c-3.42,3.23-7.71,6.08-12.41,5.86a19.13,19.13,0,0,0,5.36-8.8c-3,1.73-5.21,4.46-8,6.41s-6.83,3-9.59.91a28.71,28.71,0,0,0,12-11.34c-6.72,1.75-10.16,9.31-16.21,12.71a18.46,18.46,0,0,1-9.41,2.12c-2.31-.05-4.88-.59-6.17-2.5a7.07,7.07,0,0,1-.95-3.87A26.35,26.35,0,0,1,266,105.3a44,44,0,0,1,14.36-11.18,19.7,19.7,0,0,1,6.12-2.24,22.38,22.38,0,0,1,8,.79,46.25,46.25,0,0,1,10,3.19C311.25,99.19,314.18,105.22,311.23,112.5Z" transform="translate(-28 -53.71)"/><path class="cls-8" d="M311.23,112.08a24,24,0,0,1-6,8.16c-3.42,3.23-7.71,6.08-12.41,5.86a19.08,19.08,0,0,0,5.36-8.8c-3,1.73-5.21,4.46-8,6.41s-6.83,3-9.59.92a28.83,28.83,0,0,0,12-11.34c-6.72,1.74-10.16,9.3-16.21,12.7a18.46,18.46,0,0,1-9.41,2.12c-2.31,0-4.88-.58-6.17-2.5a7.07,7.07,0,0,1-.95-3.87A26.37,26.37,0,0,1,266,104.88,44,44,0,0,1,280.34,93.7a19.93,19.93,0,0,1,6.12-2.23,22.15,22.15,0,0,1,8,.78,46.25,46.25,0,0,1,10,3.19C311.25,98.76,314.18,104.81,311.23,112.08Z" transform="translate(-28 -53.71)"/><circle class="cls-13" cx="81.03" cy="59.99" r="37.23"/><path class="cls-14" d="M142.41,185.34s-34.09,8.74-34.93,9.56-28.7,2.29-20.59-14.76c3-6.26,4.22-14.77,4.59-23,0-.36,0-.7,0-1.05a170.44,170.44,0,0,0-1.31-26.68s39.51-15.61,36.6,8.11A49.49,49.49,0,0,0,128,154.91c.44,1.86,1,3.68,1.53,5.45A93.05,93.05,0,0,0,142.41,185.34Z" transform="translate(-28 -53.71)"/><path class="cls-10" d="M128,154.92a32.07,32.07,0,0,1-36.49,1.16,169,169,0,0,0-1.31-26.68s39.51-15.62,36.6,8.11A49.73,49.73,0,0,0,128,154.92Z" transform="translate(-28 -53.71)"/><circle class="cls-14" cx="80.93" cy="74.85" r="32.03"/><path class="cls-10" d="M142.41,185.34s-34.09,8.74-34.93,9.56-28.7,2.29-20.59-14.76c3-6.26,4.22-14.77,4.59-23,.32,4.31,2.79,14.76,3.1,18.23a2.9,2.9,0,0,0,.12.6c.46,1.55,2.11,3.33,4.1,5l.12.1a15.17,15.17,0,0,0,17.88,1.19,78.26,78.26,0,0,0,8.15-5.87,14.27,14.27,0,0,0,5-10.83,22.87,22.87,0,0,0-.42-5.22A93,93,0,0,0,142.41,185.34Z" transform="translate(-28 -53.71)"/><path class="cls-11" d="M185.47,209.47H46.32s2.92-14.14,3.33-17.05c.23-1.6,2.87-7.33,7.15-12.31,3.56-4.14,8.26-7.79,13.65-8.08,10.08-.53,21-14.76,21-14.76h0c.24,4.14,2.8,15,3.12,18.51a3.19,3.19,0,0,0,.12.6c.47,1.54,2.11,3.32,4.1,5l.12.1a15.17,15.17,0,0,0,17.88,1.2,81.32,81.32,0,0,0,8.15-5.87A14.27,14.27,0,0,0,130,166a24.1,24.1,0,0,0-.87-7.17,11.23,11.23,0,0,0-.34-1.09l.44.19s18.84,13.7,36.1,19.3a20.68,20.68,0,0,1,5.66,2.87,24.21,24.21,0,0,1,3.84,3.45,35.74,35.74,0,0,1,5.74,8.83A60.72,60.72,0,0,1,185.47,209.47Z" transform="translate(-28 -53.71)"/><path class="cls-15" d="M185.47,209.47H46.32s2.92-14.14,3.33-17.05c.23-1.6,2.87-7.33,7.15-12.31,3.56-4.14,8.26-7.79,13.65-8.08,10.08-.53,21-14.76,21-14.76h0c.24,4.14,2.8,15,3.12,18.51a3.19,3.19,0,0,0,.12.6c.47,1.54,2.11,3.32,4.1,5l.12.1a15.17,15.17,0,0,0,17.88,1.2,81.32,81.32,0,0,0,8.15-5.87A14.27,14.27,0,0,0,130,166a24.1,24.1,0,0,0-.87-7.17,11.23,11.23,0,0,0-.34-1.09l.44.19s18.84,13.7,36.1,19.3a20.68,20.68,0,0,1,5.66,2.87,24.21,24.21,0,0,1,3.84,3.45,35.74,35.74,0,0,1,5.74,8.83A60.72,60.72,0,0,1,185.47,209.47Z" transform="translate(-28 -53.71)"/><path class="cls-10" d="M124.33,117.81c.82,3.19,1.91,6.73,4.75,8.39a4.13,4.13,0,0,1,1,.71c.7.76.48,2,.38,3a12.29,12.29,0,0,0,3.66,9.67,18.1,18.1,0,0,0,9.36,4.81,3.39,3.39,0,0,0,2.55-.19,3,3,0,0,0,1-1.51c1-2.58.56-5.48-.25-8.12s-2-5.16-2.63-7.85c-1.46-6.39.47-13,1.35-19.49a16.67,16.67,0,0,0-.1-6.49c-.81-3-3-5.5-5.18-7.82a16.35,16.35,0,0,0-3.82-3.33c-4.38-2.39-10-.26-14.69-2-1.87-.69-3.46-2-5.24-2.86-3.78-1.92-8.27-2-12.41-1.15A56.7,56.7,0,0,0,92.28,88l-2.94,1.33c-4.14,1.91-8.58,4.07-10.81,8.07-2.37,4.26-1.72,9.71-4.09,14-.72,1.28-1.72,2.5-1.91,4a7.93,7.93,0,0,0,.5,3.14,24.93,24.93,0,0,1,1.32,7.64,10.26,10.26,0,0,1-2.72,7.1c-.78.77-1.82,1.75-1.34,2.74a2.11,2.11,0,0,0,.64.69,11.28,11.28,0,0,0,10.74,1.59,7,7,0,0,0,3.51-2.64,10.85,10.85,0,0,0,1.13-3c1-3.75,2-7.57,1.94-11.45,0-2.23-.46-4.48-.13-6.69s1.62-4.49,3.77-5.1c1.59-.45,3.29.1,5,.08,2.39,0,5.33-2.68,7.55-1.89,1.91.67,3.43,4.33,5,5.73A18.13,18.13,0,0,0,124.33,117.81Z" transform="translate(-28 -53.71)"/><path class="cls-13" d="M124.33,117.39c.82,3.19,1.91,6.73,4.75,8.39a3.83,3.83,0,0,1,1,.7c.7.76.49,2,.38,3a12.33,12.33,0,0,0,3.66,9.67,18.24,18.24,0,0,0,9.37,4.81,3.44,3.44,0,0,0,2.55-.2,2.93,2.93,0,0,0,1-1.5c1-2.58.57-5.49-.25-8.12s-2-5.16-2.62-7.85c-1.47-6.39.47-13,1.35-19.49a16.86,16.86,0,0,0-.1-6.49c-.81-3.06-3-5.5-5.18-7.82a16.19,16.19,0,0,0-3.83-3.33c-4.37-2.39-10-.27-14.68-2-1.87-.7-3.46-2-5.25-2.87-3.78-1.91-8.26-2-12.41-1.14a56.58,56.58,0,0,0-11.87,4.42l-2.9,1.34C85.22,90.8,80.78,93,78.55,97c-2.37,4.26-1.71,9.71-4.08,14-.72,1.27-1.73,2.49-1.92,4a8.08,8.08,0,0,0,.5,3.14,25.05,25.05,0,0,1,1.33,7.65,10.29,10.29,0,0,1-2.73,7.09c-.77.77-1.81,1.76-1.34,2.74a2.12,2.12,0,0,0,.64.69,11.25,11.25,0,0,0,10.75,1.59,6.92,6.92,0,0,0,3.5-2.64,10.13,10.13,0,0,0,1.13-3c1-3.75,2-7.56,1.94-11.45,0-2.23-.45-4.48-.12-6.69s1.61-4.49,3.76-5.1c1.59-.45,3.3.1,5,.08,2.4,0,5.34-2.67,7.56-1.89,1.91.67,3.42,4.33,5,5.73A18,18,0,0,0,124.33,117.39Z" transform="translate(-28 -53.71)"/><rect class="cls-16" x="130.01" y="77.28" width="73" height="62.6"/><rect class="cls-12" x="130.01" y="77.28" width="73" height="62.6"/><path class="cls-17" d="M220.54,221.05H158.09c.81-4.55,3.17-9.53,7.76-14.9a55.1,55.1,0,0,0,8.8-14.09c.59-1.36,1.12-2.73,1.59-4.1a60.13,60.13,0,0,0,2.8-12.57,2.23,2.23,0,0,1,.05-.36,67.66,67.66,0,0,0,.38-8.89v-.64A80.69,80.69,0,0,0,175.89,144l-.08-.25c-.68-2.14-1.18-3.34-1.18-3.34s1.24-.67,3.29-1.66l.17-.09c7.52-3.61,25.33-11.15,33.18-5.78l.13.09c2.75,1.95,4.23,5.55,3.53,11.53v.07a3.16,3.16,0,0,1,0,.32,116.72,116.72,0,0,0-.6,12.4V158c0,1,0,2,0,3v.4c.07,3.22.21,6.54.41,9.91.28,4.68.67,9.44,1.13,14.11q.28,3,.64,5.94c0,.23.05.46.07.69.27,2.38.55,4.71.83,7l0,.15C218.51,208.05,219.71,215.9,220.54,221.05Z" transform="translate(-28 -53.71)"/><path class="cls-10" d="M214.91,144.53v.07a113,113,0,0,0-.64,12.74V158a30.39,30.39,0,0,1-34.81,8.18v-.63a81,81,0,0,0-3.67-21.73c-.67-2.14-1.17-3.34-1.17-3.34s1.24-.68,3.28-1.67c7.45-3.6,25.63-11.37,33.48-5.79C214.12,135,215.6,138.55,214.91,144.53Z" transform="translate(-28 -53.71)"/><circle class="cls-17" cx="163.25" cy="83.81" r="30.37"/><path class="cls-10" d="M192.86,220.84H128.07s2.91-14.14,3.32-17.05c.23-1.59,2.87-7.33,7.15-12.31a31.4,31.4,0,0,1,19.33-6.86c12.4-.19,16,4.08,17,7.24a7.11,7.11,0,0,1,.26,3.27l2.34,3.4Z" transform="translate(-28 -53.71)"/><path class="cls-11" d="M192.65,221.05H127.86s2.91-14.14,3.33-17.05c.22-1.6,2.86-7.33,7.14-12.31a31.43,31.43,0,0,1,19.34-6.86c12.39-.19,16,4.08,17,7.23a7,7,0,0,1,.26,3.28l2.34,3.4Z" transform="translate(-28 -53.71)"/><path class="cls-10" d="M263.38,220.84H195.5c3.23-6.89,11.72-25.25,12.19-29.5.18-1.64,1.93-3.19,4.25-4.5a25.16,25.16,0,0,1,2.26-1.14l.14-.06c.43-.19.86-.36,1.29-.52a25.89,25.89,0,0,1,18.17.14c5.57,2.12,12.74,5,18.32,7.65l0,0c1.43.69,2.77,1.36,3.94,2,2.35,1.29,4.07,2.47,4.73,3.41.3.44.64,2.39,1,5.42C262.33,207.87,262.86,214,263.38,220.84Z" transform="translate(-28 -53.71)"/><path class="cls-11" d="M263.59,221.05H195.7c3.24-6.89,11.73-25.26,12.2-29.5.18-1.65,1.93-3.19,4.25-4.5a23.9,23.9,0,0,1,2.26-1.14l.14-.06c.42-.19.85-.36,1.29-.52a25.86,25.86,0,0,1,18.16.14c5.58,2.12,12.75,5,18.33,7.65l0,0c1.44.69,2.77,1.36,3.95,2,2.35,1.29,4.07,2.47,4.73,3.41.3.43.64,2.39,1,5.42C262.54,208.07,263.07,214.16,263.59,221.05Z" transform="translate(-28 -53.71)"/><path class="cls-10" d="M252.66,187.74c0,1,0,2-.08,2.94,0,.47-.06.95-.1,1.43s-.07.69-.1,1l0,.39c-.52,4.63-1.48,9.24-1.59,13.9v.66a58.68,58.68,0,0,0,1.64,13H213.29a23.67,23.67,0,0,1-.09-2.38c0-.71.05-1.42.12-2.14.6-5.86,3.6-11.35,4.05-17.18l0-.27c0-.43.05-.87,0-1.31v-.12a22.8,22.8,0,0,0-.88-5.69l-.08-.28c-.55-1.84-1.18-3.64-1.91-5.42l-.14-.35a83.63,83.63,0,0,1-2.93-7.91,21.15,21.15,0,0,1-.92-6.06c0-.37,0-.73.05-1.1s.06-.6.1-.9c.07-.47.17-.94.28-1.41a31,31,0,0,1,3.3-7.19h0c1.45-2.6,2.84-5.17,3.09-7.9a9,9,0,0,0,0-1h0a8.56,8.56,0,0,0-.13-1.33,22.63,22.63,0,0,0-2.15-5.47l-.24-.55s0-.05,0-.08a73.5,73.5,0,0,1-3.49-11.51l-.12-.51c-.24-.95-.49-1.91-.75-2.86-1.43-5.22-3.46-10.48-7.33-14.25s-10-5.67-14.88-3.27c-4.19,2.09-6.46,6.76-7.48,11.32s-1.11,9.33-2.43,13.81c-.1.33-.21.66-.32,1-.06.17-.12.32-.18.5a49.18,49.18,0,0,1-2,4.84l-.08.17c-2.42,5.15-5.23,10.21-5.32,15.39v.48a13.08,13.08,0,0,0,.55,3.63,18,18,0,0,0,3.14,5.74c.26.35.54.69.81,1,1.34,1.64,2.79,3.24,4.07,4.93l0,.06a20.52,20.52,0,0,1,2.43,4.05,14.83,14.83,0,0,1,.06,11.44,20,20,0,0,1-1.24,2.44c-.82,1.42-1.72,2.79-2.43,4.27-.24.49-.45,1-.64,1.5-1.59,4.11-1.93,8.65-3.23,12.88a29.57,29.57,0,0,1-4.63,9H128c.48-2.36,2.86-14,3.24-16.64.23-1.6,2.87-7.33,7.15-12.31-.36.28-.71.57-1,.85a35.75,35.75,0,0,0-6.93,8c.09-.29.19-.58.28-.86.58-1.74,1.21-3.47,1.86-5.17,1.85-4.9,3.91-9.9,7.61-13.61,2.09-2.1,4.63-3.72,6.62-5.91,3.5-3.85,4.95-9.18,4.91-14.42q0-.81-.06-1.62c-.38-5.73-2.34-11.22-4.46-16.56-1.14-2.87-2.35-5.89-2.3-8.93a10.86,10.86,0,0,1,.1-1.27c.87-6.3,7.24-10.07,11.07-15.15,5.69-7.57,6.11-18.8,13.57-24.61,5.74-4.46,13.7-4.19,21-3.7,6.73.45,12.81,1.33,19.5,2.26s13.46,2.7,18.83,6.82a39.34,39.34,0,0,1,8.56,9.83c3.21,4.88,6,10.28,6.41,16.12,0,.41,0,.83,0,1.24.07,6.82-2.89,13.43-3.28,20.27,0,.32,0,.64,0,1v.05c-.07,5.94,2.21,12.17,5.31,17.21A46.06,46.06,0,0,1,252.66,187.74Z" transform="translate(-28 -53.71)"/><path class="cls-16" d="M252.66,187.74c0,.84,0,1.68-.08,2.52,0,.48-.06,1-.1,1.43s-.09.95-.15,1.42c-.52,4.64-1.48,9.24-1.59,13.9v1.07a59.51,59.51,0,0,0,1.74,13H213.32c-.07-.8-.11-1.6-.12-2.38a21.56,21.56,0,0,1,.12-2.55c.6-5.87,3.6-11.36,4.05-17.19,0-.42,0-.85.06-1.27v-.3a22.51,22.51,0,0,0-1-6.09,55.14,55.14,0,0,0-1.91-5.41c-1.1-2.77-2.28-5.52-3.07-8.29a21.19,21.19,0,0,1-.92-5.65,12.7,12.7,0,0,1,.05-1.51c0-.3.06-.6.1-.91.07-.47.17-.94.28-1.4a31.1,31.1,0,0,1,3.3-7.2c1.46-2.6,2.85-5.17,3.09-7.91,0-.21,0-.42,0-.64h0a9.21,9.21,0,0,0-.13-1.74,23,23,0,0,0-2.15-5.47l-.25-.55a71.63,71.63,0,0,1-3.52-11.6c-.28-1.13-.57-2.25-.87-3.37-1.43-5.22-3.46-10.48-7.33-14.25s-10-5.63-14.87-3.22c-4.19,2.09-6.46,6.76-7.48,11.32s-1.1,9.33-2.43,13.82c-.15.49-.32,1-.48,1.48-.6,1.67-1.34,3.34-2.11,5-2.49,5.28-5.39,10.48-5.33,15.81v.07a13.54,13.54,0,0,0,.56,3.63,18,18,0,0,0,3.13,5.73c.27.35.54.69.82,1,1.35,1.67,2.82,3.27,4.1,5a19.6,19.6,0,0,1,2.43,4.05,14.79,14.79,0,0,1,.07,11.44,21.49,21.49,0,0,1-1.24,2.44c-.82,1.42-1.72,2.8-2.43,4.27a14.08,14.08,0,0,0-.64,1.5c-1.59,4.11-1.94,8.65-3.24,12.88a29.29,29.29,0,0,1-4.95,9.43H127.86s2.91-14.14,3.33-17c.2-1.46,2.44-6.37,6.1-11,.32-.42.68-.85,1-1.27a35.9,35.9,0,0,0-7.69,8.39l-.28.45c.66-2,1.39-4.05,2.14-6,1.85-4.9,3.92-9.9,7.61-13.61,2.09-2.1,4.63-3.72,6.62-5.91,3.4-3.75,4.87-8.92,4.91-14,0-.68,0-1.36-.06-2-.37-5.74-2.33-11.23-4.46-16.57-1.08-2.75-2.23-5.61-2.29-8.52a9.47,9.47,0,0,1,.09-1.68c.88-6.26,7.25-10,11.08-15.12,5.69-7.56,6.1-18.8,13.57-24.6,5.73-4.46,13.7-4.19,20.94-3.71,6.74.46,12.82,1.33,19.5,2.27s13.48,2.69,18.84,6.8a39.52,39.52,0,0,1,8.56,9.83c3.21,4.89,6,10.28,6.41,16.12,0,.55.05,1.11,0,1.66-.05,6.67-2.9,13.15-3.28,19.86,0,.45,0,.9,0,1.36v0c0,5.81,2.29,11.87,5.31,16.78A46.15,46.15,0,0,1,252.66,187.74Z" transform="translate(-28 -53.71)"/></svg>