<svg id="Layer_1" data-name="Layer 1" xmlns="http://www.w3.org/2000/svg" viewBox="0 0 331.43 266.36"><defs><style>.cls-1{fill:#3f3d56;}.cls-2{fill:#ffb8b8;}.cls-3{fill:#cfcce0;}.cls-4{fill:#2f2e41;}.cls-5{fill:#575a89;}.cls-6{fill:#6c63ff;}</style></defs><title>what-12</title><rect class="cls-1" y="247.5" width="331.43" height="0.77"/><path class="cls-2" d="M247.94,140.51s-14.86,11.68-7.43,14.34,12.21-9.56,12.21-9.56Z" transform="translate(-40 -25)"/><path class="cls-3" d="M248.47,136.26l-3.18,5.31s5.31,0,6.37,8l4.25-5.31Z" transform="translate(-40 -25)"/><polygon class="cls-2" points="279.09 232.31 279.62 248.24 273.25 251.96 270.59 250.37 271.12 232.31 279.09 232.31"/><path class="cls-2" d="M281.39,253.07l1.06,17-14.86,6.37,1.06-9s4.25-6.9,3.18-14.33Z" transform="translate(-40 -25)"/><path class="cls-4" d="M304.22,125.11s8.5,22.3,10.09,36.11,4.25,50.43,4.25,50.43l5.31,47.26L309,261l-6.37-47.78L288.29,166l-3.18,47.25-2.66,43-13.8.53-1.06-44.59-5.84-56.81,3.18-27.08Z" transform="translate(-40 -25)"/><path class="cls-4" d="M312.18,274.3s.88-8.91,7.34-3.92l1.16-.85L326,281.21s6.37,9-4.78,10.08-10.09-10.08-10.09-10.08l-1.06-4.78.53-3.13Z" transform="translate(-40 -25)"/><path class="cls-4" d="M281.39,263.69a8.43,8.43,0,0,1,4.25,7.43c0,5.31-.53,5.84-.53,5.84l-8,2.12s-5.31-.53-8.49,2.66-19.11,5.31-19.11,1.06,13.27-11.15,13.27-11.15,3.94-6.66,6.75-6,3.87,1.73,3.87,2.26a36.6,36.6,0,0,1-1.6,4.25S280.86,270.06,281.39,263.69Z" transform="translate(-40 -25)"/><circle class="cls-2" cx="240.33" cy="21.54" r="13.27"/><path class="cls-2" d="M290.15,50,296,63.26,280.06,86.09s-1.06-25-4.24-29.2S290.15,50,290.15,50Z" transform="translate(-40 -25)"/><polygon class="cls-3" points="242.72 52.6 245.37 45.7 247.5 46.23 250.15 44.1 253.87 32.42 259.18 36.14 266.08 105.69 223.07 106.75 228.91 58.44 234.22 44.63 238.06 39.57 240.59 47.29 242.72 52.6"/><path class="cls-5" d="M294.93,107.33l1.62-48s3.16.25,4.22,1.84,18.58,4.78,18.58,4.78l-3.18,49.37s13.27,39.29,8.49,41.41-13.27,1.6-13.27,1.6Z" transform="translate(-40 -25)"/><path class="cls-5" d="M269.18,101.22l5.63-32.36-12.53,8.47,3.18,23.36-2.65,15.93s-10.09,44.07-6.9,45.66,6.9,0,6.9,0l6.37-44.6Z" transform="translate(-40 -25)"/><path class="cls-5" d="M266,76.27l-3.71,1.06-1.59,21.24L258,117.15,245.29,140s6.37-4.25,9,8l14-24.43Z" transform="translate(-40 -25)"/><path class="cls-2" d="M307.41,136.26S292.54,147.94,300,150.6,312.18,141,312.18,141Z" transform="translate(-40 -25)"/><polygon class="cls-3" points="276.43 117.1 271.65 122.94 265.28 111.8 267.94 107.02 276.43 117.1"/><path class="cls-5" d="M315.37,67.78l4.25-2.13s3.18,4.25,3.71,8,3.19,8.49,3.19,11.14S334,112.37,334,112.37l-17,34.51s-3.71-12.74-11.68-13.8l13.28-18.58-7.44-13.28Z" transform="translate(-40 -25)"/><path class="cls-4" d="M291.44,33.89l2.5-1s-5.23-5.76-12.51-5.26l2.05-2.26s-5-2-9.56,3.26A44.83,44.83,0,0,0,267,38.31h-2.68l1.12,2.46-3.91,2.47,4-.45a13.68,13.68,0,0,0-.11,4.09,5.27,5.27,0,0,0,1.93,3.46h0s3.11-6.43,3.11-7.43v2.51s2.5-2.26,2.5-3.76l1.37,1.75.68-2.75,8.42,2.75-1.37-2.25,5.24.75-2.05-2.76s5.91,3.26,6.14,6a13.26,13.26,0,0,0,2,5.37S298,37.65,291.44,33.89Z" transform="translate(-40 -25)"/><ellipse class="cls-2" cx="251.21" cy="19.41" rx="1.49" ry="1.86"/><polygon class="cls-6" points="61.44 109.43 15.6 109.43 15.6 96.58 39.53 96.58 61.44 109.43"/><path class="cls-1" d="M55.48,132.66v37.52H204.3V132.66Zm58,31.23H65.17V158.6h48.35Zm81.09-9.82H65.17v-5.29H194.61Zm0-9.82H65.17V139H194.61Z" transform="translate(-40 -25)"/><polygon class="cls-6" points="61.44 48.74 15.6 48.74 15.6 35.89 39.53 35.89 61.44 48.74"/><path class="cls-1" d="M55.48,72.73v37.52H204.3V72.73Zm58,31.23H65.17V98.67h48.35Zm28-9.83H65.17V88.85h76.3Zm53.14-9.82H65.17V79H194.61Z" transform="translate(-40 -25)"/><polygon class="cls-6" points="61.44 168.86 15.6 168.86 15.6 156.01 39.53 156.01 61.44 168.86"/><path class="cls-1" d="M55.48,191.34v37.52H204.3V191.34Zm86,31.22H65.17v-5.28h76.3Zm0-9.82H65.17v-5.29h76.3Zm53.14-9.82H65.17v-5.29H194.61Z" transform="translate(-40 -25)"/><polygon class="cls-1" points="206.49 76.94 185.33 76.94 185.33 55.79 199.69 55.79 199.69 56.29 185.84 56.29 185.84 76.44 205.98 76.44 205.98 66.36 206.49 66.36 206.49 76.94"/><path class="cls-6" d="M235.8,96.42c-.49-1.44-6.62-6.35-2.86-7.17L236,93.36l14.16-14.17,1.42,1.43Z" transform="translate(-40 -25)"/><polygon class="cls-1" points="206.49 136.87 185.33 136.87 185.33 115.72 199.69 115.72 199.69 116.22 185.84 116.22 185.84 136.37 205.98 136.37 205.98 126.3 206.49 126.3 206.49 136.87"/><path class="cls-6" d="M235.8,156.36c-.49-1.45-6.62-6.35-2.86-7.18l3.08,4.11,14.16-14.16,1.42,1.42Z" transform="translate(-40 -25)"/><polygon class="cls-1" points="206.49 196.56 185.33 196.56 185.33 175.4 199.69 175.4 199.69 175.91 185.84 175.91 185.84 196.05 205.98 196.05 205.98 185.98 206.49 185.98 206.49 196.56"/><path class="cls-6" d="M235.8,216c-.49-1.44-6.62-6.35-2.86-7.18L236,213l14.16-14.16,1.42,1.42Z" transform="translate(-40 -25)"/></svg>