<svg id="Layer_1" data-name="Layer 1" xmlns="http://www.w3.org/2000/svg" viewBox="0 0 330 236.79"><defs><style>.cls-1{fill:#3f3d56;}.cls-2{fill:#ffb8b8;}.cls-3{fill:#2f2e41;}.cls-4{fill:#6c63ff;}.cls-5{fill:#ccc;}.cls-6{fill:#fff;}</style></defs><title>why-3</title><rect class="cls-1" y="234.21" width="156.21" height="0.68"/><polygon class="cls-2" points="39.71 231.84 44.15 231.84 46.26 214.71 39.71 214.71 39.71 231.84"/><path class="cls-3" d="M79.72,267.78h-14v-5.4h8.56a5.4,5.4,0,0,1,5.4,5.39Z" transform="translate(-27 -31.82)"/><polygon class="cls-2" points="16.08 230.99 20.48 231.57 24.84 214.87 18.34 214 16.08 230.99"/><path class="cls-3" d="M55.43,268.61l-13.84-1.84h0l.71-5.35h0l8.49,1.14a5.39,5.39,0,0,1,4.64,6.05Z" transform="translate(-27 -31.82)"/><polygon class="cls-3" points="22.39 161.09 47.38 162.17 46.3 225.57 39.78 224.85 34.7 181.74 22.75 227.75 16.23 226.66 22.39 161.09"/><path class="cls-4" d="M66.05,155.23l-8.69-1.78-5.44,39.82s15.94,10.5,21-.36Z" transform="translate(-27 -31.82)"/><circle class="cls-2" cx="35.26" cy="109.83" r="8.9"/><path class="cls-3" d="M57.36,153.05l-12.68,4s6.16,30.79-4,46.73c0,0,12.68,13.41,18.12-16.66C58.81,187.11,63.15,162.84,57.36,153.05Z" transform="translate(-27 -31.82)"/><path class="cls-3" d="M66.05,155.23l9.42,5.8s5.07,42.38,0,46.37S66.05,155.23,66.05,155.23Z" transform="translate(-27 -31.82)"/><path class="cls-2" d="M79.39,213.54a3.64,3.64,0,0,1-.13-5.15,4.81,4.81,0,0,1,.48-.42L75.91,195.6l6.46,1.88L85,208.93a3.66,3.66,0,0,1-5.63,4.61Z" transform="translate(-27 -31.82)"/><path class="cls-2" d="M46.85,210a3.64,3.64,0,0,1-.79-5.09,3.29,3.29,0,0,1,.42-.49L41.1,192.62l6.65,1,4.09,11a3.66,3.66,0,0,1-5,5.29Z" transform="translate(-27 -31.82)"/><polygon class="cls-3" points="20.94 125.58 17.68 125.22 9.35 152.39 17.68 171.23 24.2 167.25 16.95 151.67 22.75 135 20.94 125.58"/><polygon class="cls-3" points="46.66 128.84 48.47 129.21 57.17 171.59 51.37 173.4 44.49 148.41 46.66 128.84"/><path class="cls-3" d="M56.15,145.31a5.07,5.07,0,0,1,3.06-4c1.71-.7,3.64-.41,5.49-.27s3.9,0,5.23-1.27a4.48,4.48,0,0,0,.9-4.71,6.83,6.83,0,0,0-3.43-3.57,14.76,14.76,0,0,0-4.88-1.29,19.8,19.8,0,0,0-7.4.29c-2.41.63-1.79,2-3.2,4a7.24,7.24,0,0,0-.75,7.08,12.05,12.05,0,0,0,3.26,3.72" transform="translate(-27 -31.82)"/><path class="cls-5" d="M255.18,243.5v-.67c1.35,0,2.72,0,4.07-.09l0,.68C257.92,243.48,256.54,243.5,255.18,243.5Zm-4.1-.07c-1.36-.06-2.74-.14-4.09-.25l0-.67c1.35.1,2.72.18,4.07.24Zm12.3-.25-.06-.68c1.35-.11,2.71-.25,4.06-.41l.08.68c-1.35.16-2.73.3-4.08.41Zm-20.48-.4c-1.35-.16-2.72-.35-4.06-.57l.11-.67c1.33.21,2.69.4,4,.57Zm28.62-.59-.11-.67c1.33-.21,2.68-.46,4-.73l.13.67c-1.33.27-2.69.52-4,.73Zm-36.71-.71c-1.34-.27-2.69-.57-4-.9l.16-.66c1.31.33,2.65.62,4,.89Zm44.75-.92-.17-.66c1.32-.33,2.64-.68,3.94-1.06l.19.66C282.21,239.87,280.88,240.23,279.56,240.56Zm-52.72-1c-1.31-.38-2.63-.79-3.92-1.22l.22-.64c1.28.42,2.59.83,3.89,1.2Zm60.59-1.26-.21-.64c1.28-.43,2.57-.89,3.84-1.37l.24.64C290,237.38,288.73,237.84,287.43,238.27Zm-68.38-1.34c-1.28-.48-2.56-1-3.82-1.53l.27-.63c1.25.53,2.52,1,3.79,1.53Zm76-1.56-.26-.63c1.24-.53,2.48-1.09,3.7-1.67l.29.61C297.6,234.27,296.34,234.83,295.09,235.37Zm-83.61-1.66c-1.23-.59-2.47-1.2-3.67-1.84l.31-.6c1.2.63,2.43,1.25,3.65,1.83Zm91-1.86-.31-.6c1.19-.63,2.39-1.29,3.56-2l.34.59c-1.18.68-2.38,1.35-3.59,2Zm-98.27-2c-1.19-.69-2.37-1.4-3.52-2.13l.37-.57c1.14.72,2.31,1.43,3.49,2.11Zm105.36-2.14-.36-.57c1.14-.73,2.28-1.48,3.39-2.25l.39.56c-1.12.77-2.27,1.53-3.42,2.26Zm-112.3-2.25c-1.12-.78-2.24-1.59-3.33-2.41l.41-.54c1.08.81,2.19,1.62,3.31,2.39Zm119-2.41-.41-.54c1.08-.81,2.16-1.66,3.21-2.52l.43.53c-1.06.86-2.14,1.71-3.23,2.53Zm-125.6-2.53c-1.05-.86-2.11-1.75-3.12-2.66l.45-.51c1,.9,2.05,1.79,3.1,2.65Zm132-2.66-.45-.5c1-.9,2-1.83,3-2.77l.47.49c-1,.95-2,1.88-3,2.78Zm-138.09-2.78c-1-.94-2-1.92-2.9-2.9l.49-.47c.94,1,1.91,1.95,2.88,2.88Zm144-2.9-.49-.47c.93-1,1.86-2,2.76-3l.51.45c-.91,1-1.84,2-2.78,3Zm-149.69-3c-.91-1-1.8-2.07-2.66-3.12l.52-.43c.86,1,1.75,2.08,2.64,3.1ZM334,206.09l-.53-.43c.86-1,1.71-2.13,2.52-3.21l.55.41c-.82,1.08-1.68,2.17-2.54,3.23ZM173.7,202.86c-.82-1.08-1.63-2.2-2.4-3.32l.56-.39c.76,1.11,1.57,2.22,2.38,3.3ZM339,199.53l-.56-.39c.77-1.11,1.53-2.26,2.25-3.4l.58.37c-.73,1.14-1.49,2.3-2.27,3.42ZM169,196.12c-.73-1.14-1.44-2.32-2.12-3.5l.59-.34c.67,1.17,1.38,2.34,2.11,3.48Zm174.33-3.53-.59-.34c.68-1.17,1.34-2.37,2-3.57l.6.32c-.63,1.2-1.3,2.41-2,3.59ZM164.93,189c-.64-1.2-1.25-2.44-1.84-3.66l.62-.29c.58,1.21,1.19,2.44,1.82,3.63Zm182.25-3.72-.61-.29c.58-1.22,1.14-2.48,1.68-3.72l.62.26c-.54,1.26-1.1,2.52-1.69,3.75Zm-185.77-3.67c-.54-1.25-1-2.53-1.53-3.79l.63-.25c.48,1.26,1,2.53,1.52,3.77Zm189-3.89-.64-.24c.48-1.27,1-2.57,1.37-3.85l.65.22c-.43,1.29-.9,2.59-1.38,3.87ZM158.5,174c-.44-1.29-.85-2.61-1.23-3.91l.66-.19c.37,1.3.78,2.61,1.21,3.89ZM353,170l-.66-.19c.38-1.3.73-2.62,1.06-3.94l.66.17c-.33,1.32-.69,2.65-1.06,4Zm-196.8-3.85c-.33-1.33-.63-2.67-.9-4L156,162c.27,1.32.57,2.66.9,4ZM355,162l-.66-.13c.27-1.33.51-2.67.73-4l.67.11c-.22,1.34-.47,2.7-.74,4Zm-200.39-3.92c-.22-1.34-.41-2.71-.58-4.06l.68-.08c.16,1.34.35,2.7.57,4Zm201.7-4.18-.68-.08c.16-1.34.3-2.7.41-4l.67,0c-.1,1.36-.24,2.73-.4,4.08Zm-202.69-4c-.11-1.36-.19-2.74-.25-4.1l.68,0c.06,1.35.14,2.72.25,4.06Zm203.34-4.21-.68,0c.05-1.35.08-2.72.08-4.07v-.23H357v.23c0,1.36,0,2.74-.08,4.1Zm-203-4h-.68v-.11c0-1.33,0-2.67.07-4l.68,0c-.05,1.31-.07,2.64-.07,4Zm202.3-4.41c-.06-1.35-.14-2.72-.25-4.07l.68,0c.11,1.36.19,2.74.25,4.09Zm-202-3.73-.68,0c.11-1.36.25-2.74.41-4.09l.67.08C154.48,130.88,154.35,132.25,154.24,133.6Zm201.33-4.39c-.17-1.34-.36-2.7-.58-4l.67-.11c.22,1.34.42,2.71.58,4.06Zm-200.37-3.7-.67-.11c.22-1.34.46-2.7.73-4l.67.13C155.66,122.82,155.42,124.17,155.2,125.51Zm199.05-4.34c-.27-1.33-.57-2.66-.9-4L354,117c.33,1.32.63,2.67.91,4Zm-197.43-3.65-.66-.16c.32-1.32.67-2.65,1.05-4l.65.19c-.37,1.3-.72,2.62-1,3.93Zm195.47-4.26c-.38-1.29-.79-2.6-1.22-3.89l.65-.21c.43,1.29.84,2.61,1.22,3.91Zm-193.22-3.57-.65-.21c.43-1.29.9-2.6,1.38-3.88l.64.24C160,107.11,159.5,108.41,159.07,109.69Zm190.63-4.15c-.49-1.26-1-2.53-1.53-3.77l.62-.26c.54,1.24,1,2.51,1.54,3.79ZM162,102.05l-.63-.26c.54-1.26,1.1-2.52,1.69-3.75l.61.29c-.58,1.22-1.14,2.48-1.67,3.72Zm184.53-4c-.58-1.22-1.19-2.44-1.82-3.63l.6-.32c.63,1.2,1.25,2.43,1.84,3.66Zm-181-3.39-.6-.32c.64-1.21,1.3-2.42,2-3.6l.58.34c-.67,1.18-1.34,2.38-2,3.58Zm177.25-3.8c-.68-1.17-1.39-2.34-2.12-3.48l.57-.36c.73,1.14,1.45,2.32,2.13,3.5ZM169.53,87.61l-.57-.36c.73-1.15,1.49-2.31,2.26-3.43l.56.39c-.77,1.11-1.52,2.26-2.25,3.4ZM338.33,84c-.77-1.11-1.57-2.22-2.39-3.29l.54-.41c.82,1.08,1.63,2.2,2.41,3.32ZM174.17,80.9l-.55-.41c.82-1.09,1.67-2.18,2.54-3.23l.52.43c-.85,1-1.7,2.13-2.51,3.21Zm159.25-3.39c-.85-1-1.74-2.08-2.64-3.09l.51-.45c.9,1,1.8,2.06,2.66,3.11Zm-154.1-2.93-.51-.45c.91-1,1.84-2,2.78-3l.49.47c-.93,1-1.86,2-2.76,3ZM328,71.43c-.94-1-1.91-2-2.88-2.88l.47-.49c1,.94,1.95,1.91,2.9,2.9ZM185,68.7l-.47-.49c1-.94,2-1.88,3-2.78l.45.51c-1,.9-2,1.83-3,2.76Zm137.17-2.91c-1-.9-2.06-1.79-3.11-2.64l.43-.53c1.05.86,2.11,1.76,3.13,2.66Zm-131.08-2.5-.43-.52c1.06-.86,2.14-1.72,3.23-2.53l.4.54c-1.07.81-2.15,1.66-3.2,2.51Zm124.76-2.65c-1.08-.81-2.2-1.62-3.31-2.38l.38-.56c1.12.77,2.25,1.58,3.34,2.4ZM197.55,58.39l-.38-.56c1.12-.77,2.27-1.53,3.41-2.26l.36.57c-1.13.72-2.27,1.48-3.39,2.25ZM309.09,56c-1.14-.72-2.32-1.43-3.49-2.11l.34-.59c1.18.68,2.36,1.4,3.52,2.13ZM204.42,54l-.34-.59c1.18-.68,2.38-1.35,3.58-2l.32.6c-1.19.63-2.39,1.29-3.56,2ZM302,51.93c-1.2-.62-2.43-1.24-3.66-1.82l.29-.61c1.24.58,2.47,1.2,3.68,1.83Zm-90.41-1.69-.3-.62c1.23-.58,2.48-1.15,3.73-1.68l.27.62c-1.24.53-2.49,1.1-3.7,1.68Zm83-1.8c-1.25-.53-2.53-1-3.79-1.52l.24-.63c1.27.48,2.56,1,3.81,1.53ZM219.09,47l-.25-.64c1.27-.48,2.57-.95,3.87-1.38l.21.64c-1.28.43-2.57.9-3.83,1.38ZM287,45.56c-1.29-.43-2.6-.83-3.9-1.21l.19-.65c1.31.38,2.63.78,3.92,1.21Zm-60.2-1.11-.19-.66c1.31-.38,2.64-.74,4-1.06l.17.66c-1.32.32-2.64.68-3.94,1.06Zm52.36-1.14c-1.31-.32-2.64-.62-4-.89l.13-.66c1.34.27,2.69.57,4,.89Zm-44.45-.82-.14-.67c1.33-.27,2.69-.52,4-.74l.11.67C237.39,42,236,42.22,234.72,42.49Zm36.47-.79c-1.34-.21-2.7-.4-4-.56l.08-.68c1.35.16,2.72.35,4.06.57Zm-28.43-.52-.08-.68c1.35-.16,2.72-.3,4.08-.41l.05.68c-1.34.11-2.71.25-4.05.41Zm20.34-.44c-1.35-.1-2.72-.18-4.07-.23l0-.68c1.36.05,2.73.13,4.09.23Zm-12.22-.22,0-.68c1.36-.06,2.74-.09,4.1-.09v.68c-1.36,0-2.73,0-4.08.09Z" transform="translate(-27 -31.82)"/><circle class="cls-1" cx="192.15" cy="107.85" r="65.54"/><ellipse class="cls-6" cx="168.89" cy="107.85" rx="34.81" ry="47.88"/><ellipse class="cls-1" cx="157.35" cy="117.99" rx="9.71" ry="15.28"/><circle class="cls-4" cx="320.92" cy="71.24" r="6.45"/><circle class="cls-4" cx="246.39" cy="9.51" r="9.51"/><circle class="cls-4" cx="240.09" cy="210.61" r="6.45"/></svg>