<svg id="Layer_1" data-name="Layer 1" xmlns="http://www.w3.org/2000/svg" xmlns:xlink="http://www.w3.org/1999/xlink" viewBox="0 0 375.31 228.99"><defs><style>.cls-1,.cls-4{fill:#6c63ff;}.cls-1,.cls-5{opacity:0.1;}.cls-1,.cls-5,.cls-8{isolation:isolate;}.cls-2{opacity:0.2;}.cls-3{fill:#3f3d56;}.cls-6{fill:#fff;}.cls-7{opacity:0.5;}.cls-8{fill:none;stroke:#3f3d56;stroke-linecap:round;stroke-miterlimit:10;opacity:0.7;}.cls-9{fill:url(#linear-gradient);}.cls-10{fill:#fbbebe;}.cls-11{fill:#f86d70;}.cls-12{fill:#434175;}</style><linearGradient id="linear-gradient" x1="3138.84" y1="-73.73" x2="3138.84" y2="56.11" gradientTransform="translate(3410 201) rotate(180)" gradientUnits="userSpaceOnUse"><stop offset="0" stop-color="gray" stop-opacity="0.25"/><stop offset="0.54" stop-color="gray" stop-opacity="0.12"/><stop offset="1" stop-color="gray" stop-opacity="0.1"/></linearGradient></defs><title>why-8</title><path class="cls-1" d="M385.31,183.25a59.2,59.2,0,0,1-8.57,30.8c0,11.36-5.29,21.65-13.88,29.16a48,48,0,0,1-6.92,5l-.3.18-.55.33-.18.1h0a53.93,53.93,0,0,1-26.6,6.82H81.25q-3,0-5.86-.23a69.37,69.37,0,0,1-20-4.64c-1.25-.5-2.48-1-3.68-1.6-.57-.27-1.14-.54-1.7-.83-.35-.17-.7-.36-1-.54a61.51,61.51,0,0,1-11.31-7.67c-11.15-9.59-18.07-22.84-18.07-37.47A59.33,59.33,0,0,1,10,170.3c0-32.53,26-58.9,58.07-58.9,1,0,2,0,3,.09a3,3,0,0,1,.42,0A99.82,99.82,0,0,1,92.77,86.37c23.7-20.31,58.33-33.11,96.92-33.11,32.42,0,62.05,9,84.75,24a57.21,57.21,0,0,1,28.2-7.4c32.06,0,58.07,26.37,58.07,58.9,0,2.05-.12,4.11-.33,6.16A59,59,0,0,1,385.31,183.25Z" transform="translate(-10 -47)"/><g class="cls-2"><path class="cls-3" d="M55.39,250.33a3.29,3.29,0,0,1,0,.45c-1.25-.5-2.48-1-3.68-1.6a2.92,2.92,0,0,1-1.7-.83c-.35-.17-.7-.36-1-.54a5.42,5.42,0,0,1,.26-.48,3.06,3.06,0,0,1,5.56.17A5.48,5.48,0,0,1,55.39,250.33Z" transform="translate(-10 -47)"/><path class="cls-3" d="M55.57,244.72a5.49,5.49,0,0,1-.82,2.78,3.29,3.29,0,0,1-2.84,1.7l-.23,0a2.92,2.92,0,0,1-1.7-.83,3.93,3.93,0,0,1-.79-1,5.77,5.77,0,0,1,.18-5.62,3.29,3.29,0,0,1,2.84-1.7,3.32,3.32,0,0,1,2.72,1.87A5.59,5.59,0,0,1,55.57,244.72Z" transform="translate(-10 -47)"/><ellipse class="cls-3" cx="52.24" cy="239" rx="4.6" ry="3.51" transform="translate(-198.29 236.67) rotate(-88.19)"/><ellipse class="cls-3" cx="52.42" cy="233.38" rx="4.6" ry="3.51" transform="translate(-192.51 231.4) rotate(-88.19)"/><ellipse class="cls-3" cx="52.62" cy="227.4" rx="4.6" ry="3.51" transform="translate(-186.26 226.18) rotate(-88.28)"/><path class="cls-4" d="M40.66,188.91a17.59,17.59,0,0,1-1.24-2l9.27-1.23-10-.23a16.89,16.89,0,0,1,.1-13.34L52,179.51l-12-9.47a16.83,16.83,0,0,1,28.62,17.7,18.72,18.72,0,0,1-1.45,2,16.51,16.51,0,0,1,1.82,3.12L56.75,198.7l12.9-3.88a16.84,16.84,0,0,1-3.22,15.71A16.83,16.83,0,1,1,40,209.7a16.82,16.82,0,0,1,.65-20.79Z" transform="translate(-10 -47)"/><path class="cls-5" d="M70.36,200.25a16.71,16.71,0,0,1-3.93,10.28A16.83,16.83,0,1,1,40,209.7C37.84,206.77,70.42,198.36,70.36,200.25Z" transform="translate(-10 -47)"/></g><path class="cls-6" d="M324.29,92.41v157.2a6,6,0,0,1-6,6H77.06a6.34,6.34,0,0,1-1.67-.23A6,6,0,0,1,71,249.61V111.49a3,3,0,0,1,.42,0A99.82,99.82,0,0,1,92.77,86.37H318.25A6,6,0,0,1,324.29,92.41Z" transform="translate(-10 -47)"/><rect class="cls-3" x="233.64" y="59.78" width="45.22" height="11.8" rx="5.9"/><path class="cls-5" d="M240.52,61.76H272a3.92,3.92,0,0,1,3.92,3.92v0A3.93,3.93,0,0,1,272,69.61H240.51a3.92,3.92,0,0,1-3.92-3.92v0a3.93,3.93,0,0,1,3.93-3.93Z"/><rect class="cls-4" x="260.73" y="62.19" width="14.2" height="6.99" rx="3.49"/><circle class="cls-6" cx="267.72" cy="65.68" r="2.18"/><path class="cls-3" d="M249.54,184.55H283a5.9,5.9,0,0,1,5.9,5.9h0a5.9,5.9,0,0,1-5.9,5.9H249.54a5.9,5.9,0,0,1-5.9-5.9h0A5.9,5.9,0,0,1,249.54,184.55Z" transform="translate(-10 -47)"/><path class="cls-5" d="M250.51,186.53H282a3.92,3.92,0,0,1,3.93,3.92h0a3.93,3.93,0,0,1-3.93,3.93H250.51a3.93,3.93,0,0,1-3.92-3.93h0A3.92,3.92,0,0,1,250.51,186.53Z" transform="translate(-10 -47)"/><rect class="cls-4" x="260.73" y="139.95" width="14.2" height="6.99" rx="3.49"/><circle class="cls-6" cx="267.72" cy="143.45" r="2.18"/><rect class="cls-3" x="233.64" y="176.44" width="45.22" height="11.8" rx="5.9"/><path class="cls-5" d="M250.51,225.41H282a3.93,3.93,0,0,1,3.93,3.93h0a3.93,3.93,0,0,1-3.93,3.92H250.51a3.93,3.93,0,0,1-3.92-3.92h0A3.93,3.93,0,0,1,250.51,225.41Z" transform="translate(-10 -47)"/><rect class="cls-4" x="260.73" y="178.84" width="14.2" height="6.99" rx="3.49"/><circle class="cls-6" cx="267.72" cy="182.34" r="2.18"/><rect class="cls-4" x="96.45" y="52.36" width="26.43" height="6.99" rx="3.49"/><rect class="cls-4" x="96.45" y="62.19" width="73.4" height="6.99" rx="3.49"/><rect class="cls-4" x="96.45" y="72.02" width="73.4" height="6.99" rx="3.49"/><g class="cls-7"><rect class="cls-4" x="96.45" y="91.24" width="26.43" height="6.99" rx="3.49"/><rect class="cls-4" x="96.45" y="101.07" width="54.79" height="6.99" rx="3.49"/><rect class="cls-4" x="96.45" y="110.9" width="73.4" height="6.99" rx="3.49"/></g><rect class="cls-4" x="96.45" y="130.13" width="26.43" height="6.99" rx="3.49"/><rect class="cls-4" x="96.45" y="139.95" width="73.4" height="6.99" rx="3.49"/><rect class="cls-4" x="96.45" y="149.79" width="45.6" height="6.99" rx="3.49"/><rect class="cls-4" x="96.45" y="169.01" width="26.43" height="6.99" rx="3.49"/><rect class="cls-4" x="96.45" y="178.84" width="73.4" height="6.99" rx="3.49"/><rect class="cls-4" x="96.45" y="188.67" width="59.05" height="6.99" rx="3.49"/><line class="cls-8" x1="85.3" y1="85.3" x2="299.2" y2="85.3"/><line class="cls-8" x1="85.3" y1="124.83" x2="299.2" y2="124.83"/><line class="cls-8" x1="85.3" y1="164.36" x2="299.2" y2="164.36"/><line class="cls-8" x1="85.3" y1="204.88" x2="299.2" y2="204.88"/><ellipse class="cls-1" cx="260.82" cy="225.55" rx="48.45" ry="3.44"/><circle class="cls-1" cx="23.14" cy="46.32" r="7.1"/><circle class="cls-1" cx="52.71" cy="7.1" r="7.1"/><circle class="cls-1" cx="50.31" cy="34.04" r="11.89"/><path class="cls-3" d="M249.54,145.67H283a5.9,5.9,0,0,1,5.9,5.9h0a5.9,5.9,0,0,1-5.9,5.89H249.54a5.9,5.9,0,0,1-5.9-5.89h0A5.9,5.9,0,0,1,249.54,145.67Z" transform="translate(-10 -47)"/><path class="cls-5" d="M250.51,147.64H282a3.93,3.93,0,0,1,3.93,3.93h0a3.92,3.92,0,0,1-3.93,3.92H250.51a3.92,3.92,0,0,1-3.92-3.92h0A3.93,3.93,0,0,1,250.51,147.64Z" transform="translate(-10 -47)"/><path class="cls-9" d="M247.91,263.85c.51-.07,1-.18,1.53-.29A4.66,4.66,0,0,1,249,265a6.28,6.28,0,0,1-2.39,2.11.74.74,0,0,0-.93-.06c-1.08.66-1.95,1.58-3.1,2.15-.4.19-.82.35-1.22.57a6.59,6.59,0,0,0-2.29,2.37,1.63,1.63,0,0,0-.28,1.68,1.35,1.35,0,0,0,.47.42,2.69,2.69,0,0,0,1.6.48c.32,0,.65-.16,1-.21s.91,0,1.36-.08a8,8,0,0,0,1.92-.5l2.25-.78a12,12,0,0,0,1.85-.77c.36-.19.7-.42,1.06-.59a9.58,9.58,0,0,1,1.27-.45l1.28-.37a1.26,1.26,0,0,1,.58-.08c.17,0,.33.15.51.19a1.53,1.53,0,0,0,.82-.08l1.48-.42a2.82,2.82,0,0,0,.88-.36,2.71,2.71,0,0,0,.8-2.28,17.1,17.1,0,0,0-.43-3.77,1.24,1.24,0,0,0-.48.37,5.8,5.8,0,0,0-.49-.62,7.26,7.26,0,0,1-1.48-2.73,4.76,4.76,0,0,0,1.31-1.48,31.91,31.91,0,0,0-3.18-8.66c-.52-.86-1.12-1.67-1.64-2.52-1.55-2.46-1.87-5.57-3.64-7.87a1.35,1.35,0,0,1,0-1.6c.2-.27.53-.52.47-.86s-.3-.46-.2-.68.15-.17.24-.25c.3-.28.26-.75.29-1.17A5.82,5.82,0,0,1,250,233.3a1.79,1.79,0,0,1,.48-.51c.16-.1.35-.14.51-.24.56-.36.52-1.19.79-1.8.36-.82,1.25-1.23,1.83-1.89.75-.84.94-2,1.72-2.74l.26-.21a13.05,13.05,0,0,0-.46,3.83c-.08,4.43,1,9,.51,13.45a9.28,9.28,0,0,0,4.76,8.73,22.34,22.34,0,0,0,3.7,1.57c1.9.68,3.79,1.38,5.65,2.16,1.31.55,2.6,1.14,3.88,1.77a46.82,46.82,0,0,1,4.59,2.57,17.72,17.72,0,0,1,5,4.1,4,4,0,0,0,2.19-.8c.49.39,1.1.69,1.57,1.13a4.67,4.67,0,0,1,1.24,2.45H288l.06,1.31a.55.55,0,0,1,0,.33.52.52,0,0,1-.17.16l-1,.68c-.74.5-1.55,1.13-1.59,2a1,1,0,0,0,.22.72,1.53,1.53,0,0,0,.9.41,15.85,15.85,0,0,0,5.34.49,3.45,3.45,0,0,0,2.27-1.05,4.5,4.5,0,0,0,.8-2.18c.22-1.31.4-2.65.55-4a8.57,8.57,0,0,1,.54-2.65.42.42,0,0,1,.14-.18c.08,0,.17,0,.25,0a.37.37,0,0,0,.15-.25,15.19,15.19,0,0,0,.47-4,2.75,2.75,0,0,0-.15-1,2.07,2.07,0,0,0-1.41-1.08,12.09,12.09,0,0,0-1.81-.22,8.7,8.7,0,0,1-1.51-.27,1.32,1.32,0,0,0-.62-.08.43.43,0,0,0-.38.43.57.57,0,0,0,.07.22l-.51-.11c-.41-.07-1-.25-1.6-.4,0-.11,0-.22,0-.33a.61.61,0,0,0-.35-.56l-8.67-4.64-1.62-.86c-3.55-1.9-7.22-3.66-10.77-5.56-.24.08-.44-.2-.51-.44s-.11-.53-.34-.64-.26,0-.33-.14a.39.39,0,0,1-.06-.3c.11-1.72,1.35-3.32,1.1-5a6.35,6.35,0,0,1-.32-2.17,10.09,10.09,0,0,1,.65-1.37c.43-1.06,0-2.33.47-3.36a7.62,7.62,0,0,0,.62-2.14,14.68,14.68,0,0,1,1.32-4.25,7.57,7.57,0,0,1,1.22-1.86c.26-.28.55-.53.8-.83a6.9,6.9,0,0,0,1.24-3.28,15.73,15.73,0,0,0,.18-6.37,8.8,8.8,0,0,1-.41-2.14c0-.87.35-1.87-.07-2.57a2.25,2.25,0,0,0,.82-1.4,1.62,1.62,0,0,1,.11-.58,1.75,1.75,0,0,1,.55-.5,2.27,2.27,0,0,0,.85-2.25c.44.2.92-.25,1.13-.7s.37-1,.83-1.19a8,8,0,0,1,1-.14c.53-.13.84-.65,1.21-1a9.59,9.59,0,0,1,2.79-1.72,31.41,31.41,0,0,0,7.6-6.12,26.15,26.15,0,0,0,3.28-3.69c.26-.39.49-.78.71-1.19l.06,0,0,.07.12.43c.11.33.23.68.33,1a7.8,7.8,0,0,0,1.46,2.78,3.85,3.85,0,0,0,.75.58,5,5,0,0,0,1.93.57,6.48,6.48,0,0,0,.77.07l.78,0,5.3.14c-1.82-2.64-2-6.08-1.84-9.3.3-8.27,1.91-16.61.42-24.75a6.36,6.36,0,0,0-1-2.76,5.68,5.68,0,0,0-3.34-1.82,19.84,19.84,0,0,1-3.75-1,16,16,0,0,0-2.95-1.41,6.51,6.51,0,0,0-2.37,0c-.95.14-1.91.31-2.85.51l-.23,0h0l-.16,0h0l-.14,0h-.06l-.13,0-.06,0-.12,0-.07,0-.11,0-.07,0-.11,0-.07,0-.1,0-.08,0-.09,0-.08.05-.08,0-.08.06-.07,0-.08.06-.07.05-.07.07-.06,0-.08.08-.05.06a.31.31,0,0,0-.07.09l-.05,0-.09.13v0a3.39,3.39,0,0,0-.18.39L285,154a3,3,0,0,0-.07.43.82.82,0,0,1,0,.22V155a6,6,0,0,0,.09.74,8,8,0,0,0-2.82,10.95,7.89,7.89,0,0,0,2.44,2.57c0,.13,0,.26,0,.4v.08a13.09,13.09,0,0,1-.14,1.39,19.33,19.33,0,0,0-3.94-.36c-.79,0-1.58.08-2.38.14a35.55,35.55,0,0,1-2.37-3.22L274,165.15a23.5,23.5,0,0,1-1.64-2.62c-.43-.83-.77-1.72-1.25-2.53-1-1.66-2.59-3.07-2.79-5l-.46.1c-.25-.42-.57-.85-.69-1.09a22.19,22.19,0,0,1-1.46-4.27,6.71,6.71,0,0,0-.69-2.21,5,5,0,0,0-1-1.08,6.57,6.57,0,0,0-2.18-1.38,2.79,2.79,0,0,0-2.23.13l-.33-.13a2.7,2.7,0,0,0-2.48.29,3.31,3.31,0,0,0-1.09,2.3,5.67,5.67,0,0,0,.58,3.48,14,14,0,0,0,2.8,2.9,11.33,11.33,0,0,1,1.77,2.19,24.27,24.27,0,0,1-.14,5.32c-.12.75-.33,1.5-.39,2.26-.24,2.75,1.2,5.49.68,8.2a2,2,0,0,0,.93,2.12,10.41,10.41,0,0,0,2.4.66c1.59.4,3,1.42,4.56,1.79.73.18,1.5.21,2.24.41l.11,0a5.47,5.47,0,0,0-1.18,2.23c-.32,1.38,0,2.86-.34,4.23a9.51,9.51,0,0,1-1.61,3.09l-3.86,5.58a33,33,0,0,1-2.83,3.73c-1.77,1.93-4.82,3.46-5.72,5.79,0-.06-.05-.12-.07-.17-1.27.93-1.75,2.68-2.76,3.89-.5.58-1.11,1.06-1.64,1.6a18.67,18.67,0,0,0-1.81,2.26,39.68,39.68,0,0,0-4.11,6.54c-.57,1.22-1,2.49-1.45,3.75-1.77,5-4.65,9.7-5.84,14.85-.3,1.25-1.06,2.39-1.18,3.67A7.19,7.19,0,0,0,238,242c1,1.85,2.08,3.64,3,5.55.51,1.11,1,2.25,1.53,3.33s1.39,2.28,2,3.44A43.22,43.22,0,0,1,247.91,263.85Zm21.7-94-.16-.08a5.6,5.6,0,0,1-1.59-1.06c-1.41-1.5-2-3.78-2.46-5.81,0-.24-.1-.48-.14-.72a35,35,0,0,1,4.35,7.67Z" transform="translate(-10 -47)"/><path class="cls-10" d="M263.17,150.15a6.59,6.59,0,0,0-.7-2.2,5.23,5.23,0,0,0-1-1.08,6.76,6.76,0,0,0-2.2-1.36,2.73,2.73,0,0,0-2.48.28,3.35,3.35,0,0,0-1.09,2.3,5.62,5.62,0,0,0,.59,3.46,14.14,14.14,0,0,0,2.8,2.88,10.71,10.71,0,0,1,1.83,2.3,7.78,7.78,0,0,0,.84,1.22,1.61,1.61,0,0,0,1.31.53,2.27,2.27,0,0,0,1.07-.64c.4-.35,1.48-1,1.51-1.53s-.81-1.47-1-1.89A21.46,21.46,0,0,1,263.17,150.15Z" transform="translate(-10 -47)"/><path class="cls-5" d="M263.17,150.15a6.59,6.59,0,0,0-.7-2.2,5.23,5.23,0,0,0-1-1.08,6.76,6.76,0,0,0-2.2-1.36,2.73,2.73,0,0,0-2.48.28,3.35,3.35,0,0,0-1.09,2.3,5.62,5.62,0,0,0,.59,3.46,14.14,14.14,0,0,0,2.8,2.88,10.71,10.71,0,0,1,1.83,2.3,7.78,7.78,0,0,0,.84,1.22,1.61,1.61,0,0,0,1.31.53,2.27,2.27,0,0,0,1.07-.64c.4-.35,1.48-1,1.51-1.53s-.81-1.47-1-1.89A21.46,21.46,0,0,1,263.17,150.15Z" transform="translate(-10 -47)"/><path class="cls-11" d="M285.86,171.74a19.42,19.42,0,0,0-5.31-.65c-3,0-6.07.76-8.91-.15a16.17,16.17,0,0,1-2.14-.91,5.5,5.5,0,0,1-1.59-1.05c-1.42-1.5-2-3.76-2.47-5.77a38.57,38.57,0,0,1-.67-6.15,4.64,4.64,0,0,1-2.33.61,1.7,1.7,0,0,1-1.64-1.5,24.85,24.85,0,0,1-.11,5.72c-.12.75-.33,1.49-.38,2.24-.24,2.74,1.19,5.47.68,8.16a2,2,0,0,0,.93,2.11,10.62,10.62,0,0,0,2.4.65c1.58.41,2.95,1.41,4.56,1.79.74.17,1.51.21,2.24.4,1.05.28,2,.88,3.08,1.07.8.14,1.64.05,2.43.12s1.4.24,2.11.26a6.07,6.07,0,0,0,4.51-2.24A19.49,19.49,0,0,0,285.86,171.74Z" transform="translate(-10 -47)"/><path class="cls-5" d="M285.86,171.74a19.42,19.42,0,0,0-5.31-.65c-3,0-6.07.76-8.91-.15a16.17,16.17,0,0,1-2.14-.91,5.5,5.5,0,0,1-1.59-1.05c-1.42-1.5-2-3.76-2.47-5.77a38.57,38.57,0,0,1-.67-6.15,4.64,4.64,0,0,1-2.33.61,1.7,1.7,0,0,1-1.64-1.5,24.85,24.85,0,0,1-.11,5.72c-.12.75-.33,1.49-.38,2.24-.24,2.74,1.19,5.47.68,8.16a2,2,0,0,0,.93,2.11,10.62,10.62,0,0,0,2.4.65c1.58.41,2.95,1.41,4.56,1.79.74.17,1.51.21,2.24.4,1.05.28,2,.88,3.08,1.07.8.14,1.64.05,2.43.12s1.4.24,2.11.26a6.07,6.07,0,0,0,4.51-2.24A19.49,19.49,0,0,0,285.86,171.74Z" transform="translate(-10 -47)"/><path class="cls-10" d="M290.6,256.2a4.48,4.48,0,0,1,1.53.48,3.6,3.6,0,0,1,1.34,1.8,15.6,15.6,0,0,1,.89,5.61,11.84,11.84,0,0,1-.58,4.55,3,3,0,0,1-.75,1.19,2.78,2.78,0,0,1-1,.51,2.82,2.82,0,0,1-2.44-.3,3.93,3.93,0,0,1-1.1-2.56A5.88,5.88,0,0,0,287,264c-.7-.65-1.69-1-2.2-1.78-.6-1-.28-2.2.1-3.26s.82-2.79,1.79-3.26S289.6,256,290.6,256.2Z" transform="translate(-10 -47)"/><path class="cls-10" d="M255.07,260.73a7.28,7.28,0,0,0,1.5,2.79c.43.49,1,1.09.74,1.7a1.52,1.52,0,0,1-.4.54c-3.17,3.1-7.61,4.59-12,5.16a.41.41,0,0,1-.22,0,.42.42,0,0,1-.17-.36,4.56,4.56,0,0,1,0-1.38,4.16,4.16,0,0,1,2.08-2.43,6.39,6.39,0,0,0,2.44-2.13c.64-1.2.37-2.77,1.13-3.89a4.08,4.08,0,0,1,2.86-1.48c.38-.06,1.18-.47,1.5-.28S255,260.35,255.07,260.73Z" transform="translate(-10 -47)"/><path class="cls-11" d="M291,256.09a.43.43,0,0,1,.39-.43,1.45,1.45,0,0,1,.62.07,7.73,7.73,0,0,0,1.51.28,12.39,12.39,0,0,1,1.82.22,2,2,0,0,1,1.4,1.07,2.73,2.73,0,0,1,.16,1,15.77,15.77,0,0,1-.47,3.93c0,.1-.07.22-.16.25s-.17,0-.24,0a.28.28,0,0,0-.14.18,8.4,8.4,0,0,0-.55,2.62c-.15,1.31-.33,2.65-.55,4a4.38,4.38,0,0,1-.79,2.16,3.55,3.55,0,0,1-2.28,1.05,16.43,16.43,0,0,1-5.35-.49,1.62,1.62,0,0,1-.9-.41,1,1,0,0,1-.22-.71c0-.88.85-1.51,1.59-2l1-.68a.55.55,0,0,0,.18-.16.62.62,0,0,0,.05-.33l-.07-1.31a3.72,3.72,0,0,1,3.24,2c.14.28.27.61.56.72a.74.74,0,0,0,.88-.54,2.21,2.21,0,0,0,0-1.14c-.59-3.17-.45-6.43-.81-9.64a2.24,2.24,0,0,0-.33-1C291.4,256.6,291.07,256.38,291,256.09Z" transform="translate(-10 -47)"/><rect class="cls-4" x="237.57" y="101.07" width="14.2" height="6.99" rx="3.49"/><circle class="cls-6" cx="244.78" cy="104.57" r="2.18"/><path class="cls-11" d="M246.9,268.39c-.14.24-.38.43-.52.69a.59.59,0,0,0,.12.77.75.75,0,0,0,.47,0,15.72,15.72,0,0,0,8.52-3.86,5.75,5.75,0,0,0,1.05-1.15c.28-.42.52-.94,1-1.11a17.54,17.54,0,0,1,.44,3.75,2.69,2.69,0,0,1-.8,2.27,2.78,2.78,0,0,1-.89.36l-1.48.42a1.64,1.64,0,0,1-.82.08,5.27,5.27,0,0,0-.51-.19,1.14,1.14,0,0,0-.58.07l-1.28.37a9.1,9.1,0,0,0-1.27.45c-.37.17-.7.39-1.06.59a12.47,12.47,0,0,1-1.86.75l-2.25.79a8.46,8.46,0,0,1-1.92.49c-.45,0-.92,0-1.37.07a7.5,7.5,0,0,1-1,.21,2.61,2.61,0,0,1-1.6-.47,1.53,1.53,0,0,1-.47-.41c-.33-.5,0-1.17.28-1.67a6.56,6.56,0,0,1,2.29-2.36c.4-.22.82-.37,1.22-.57,1.15-.56,2-1.49,3.11-2.13S247.39,267.59,246.9,268.39Z" transform="translate(-10 -47)"/><path class="cls-10" d="M278.59,177.55a9.31,9.31,0,0,0,4,1.55,15.44,15.44,0,0,0,2.25.13,58.08,58.08,0,0,0,9.4-.79,11.6,11.6,0,0,1-3-4.59,7.55,7.55,0,0,1-.14-2.88,21.6,21.6,0,0,1,.88-3.61,25.08,25.08,0,0,1-4-.1c-.75-.08-2.6-.76-3.25-.24s-.15,2.19-.14,3v.09a9.45,9.45,0,0,1-.76,3.47A6.53,6.53,0,0,1,278.59,177.55Z" transform="translate(-10 -47)"/><path class="cls-5" d="M284.65,170a7.89,7.89,0,0,0,6.48,1,22.11,22.11,0,0,1,.88-3.61,26.33,26.33,0,0,1-4-.1c-.75-.08-2.59-.76-3.25-.25S284.64,169.19,284.65,170Z" transform="translate(-10 -47)"/><circle class="cls-10" cx="278.98" cy="115.99" r="7.91"/><path class="cls-11" d="M255.43,203a3.67,3.67,0,0,0,1.78,3.17,7,7,0,0,0,1.94.68,37.86,37.86,0,0,0,11,1.36,5.91,5.91,0,0,0,2.34-.49,2.5,2.5,0,0,0,1.45-1.81,1.6,1.6,0,0,1,.11-.57,1.69,1.69,0,0,1,.54-.49,2.21,2.21,0,0,0,.85-2.24c.45.21.93-.25,1.14-.7s.38-1,.83-1.17a6.43,6.43,0,0,1,1-.14c.53-.14.84-.66,1.21-1a9.48,9.48,0,0,1,2.79-1.71,31.58,31.58,0,0,0,7.61-6.08,25.38,25.38,0,0,0,3.28-3.67,12.11,12.11,0,0,0,.73-1.18,33.51,33.51,0,0,0,1.82-4.17,4.9,4.9,0,0,0,.47-2.39,2.07,2.07,0,0,0,0-.22,4.69,4.69,0,0,0-.72-1.45,6.07,6.07,0,0,0-3.24-2.66,8.9,8.9,0,0,0-4.17.37,11.33,11.33,0,0,1-1.42.22,13.32,13.32,0,0,1-4.4-.7l-1.57-.43c-.78-.21-1.18-1.16-2-1.33a2.71,2.71,0,0,0-1.06.06,14.58,14.58,0,0,0-4.66,1.52,8,8,0,0,0-.91.61,5.73,5.73,0,0,0-2.1,3.11c-.33,1.37,0,2.83-.35,4.2a9.37,9.37,0,0,1-1.61,3.06l-3.87,5.54a33.93,33.93,0,0,1-2.84,3.7C259.33,198.24,255.48,199.94,255.43,203Z" transform="translate(-10 -47)"/><path class="cls-10" d="M265.74,150.15a6.58,6.58,0,0,0-.69-2.2,5.28,5.28,0,0,0-1-1.08,6.72,6.72,0,0,0-2.19-1.36,2.73,2.73,0,0,0-2.48.28,3.35,3.35,0,0,0-1.09,2.3,5.61,5.61,0,0,0,.58,3.46,13.93,13.93,0,0,0,2.81,2.88,11,11,0,0,1,1.83,2.3,7.1,7.1,0,0,0,.83,1.22,1.63,1.63,0,0,0,1.32.53,2.31,2.31,0,0,0,1.07-.64c.4-.35,1.47-1,1.51-1.53s-.82-1.47-1-1.89A21.5,21.5,0,0,1,265.74,150.15Z" transform="translate(-10 -47)"/><path class="cls-12" d="M238,241.76c1,1.83,2.08,3.6,3,5.51.51,1.1,1,2.24,1.53,3.31s1.4,2.26,2.05,3.42a39.6,39.6,0,0,1,3.42,9.46,19,19,0,0,0,6.74-2.37l.4-.26a4.88,4.88,0,0,0,1.36-1.5,32.24,32.24,0,0,0-3.19-8.6c-.52-.85-1.12-1.64-1.64-2.5-1.55-2.44-1.87-5.52-3.65-7.81a1.34,1.34,0,0,1,0-1.59c.21-.26.53-.52.47-.85s-.29-.45-.2-.68.16-.16.24-.24c.31-.28.27-.75.3-1.16a5.58,5.58,0,0,1,1.28-2.79,1.79,1.79,0,0,1,.48-.51c.16-.1.35-.14.51-.24.56-.35.52-1.18.79-1.79.36-.81,1.25-1.22,1.84-1.87.74-.84.93-2,1.72-2.72a1.33,1.33,0,0,1,.26-.21,12.86,12.86,0,0,0-.47,3.8c-.07,4.41,1,9,.52,13.35a9.21,9.21,0,0,0,4.76,8.68,22.76,22.76,0,0,0,3.71,1.56c1.9.67,3.79,1.36,5.65,2.14,1.31.55,2.63,1.14,3.89,1.76a50.26,50.26,0,0,1,4.6,2.55,17.77,17.77,0,0,1,4.95,4.08,4.46,4.46,0,0,0,3.2-1.76,12.28,12.28,0,0,0,1.75-3.32,9.1,9.1,0,0,0,.84-3.13.63.63,0,0,0-.35-.56L280,250.33l-1.64-.86c-3.55-1.89-7.22-3.63-10.79-5.52-.24.07-.44-.2-.51-.44s-.12-.53-.34-.63-.26,0-.33-.15a.36.36,0,0,1-.06-.29c.12-1.71,1.36-3.3,1.11-5a6,6,0,0,1-.33-2.15,10.09,10.09,0,0,1,.65-1.37c.43-1,0-2.3.47-3.33a8,8,0,0,0,.63-2.13,14.07,14.07,0,0,1,1.33-4.21,7.15,7.15,0,0,1,1.22-1.85c.26-.28.55-.54.8-.82a7,7,0,0,0,1.25-3.25,15.67,15.67,0,0,0,.17-6.32,8.81,8.81,0,0,1-.41-2.13c0-1,.43-2.08-.23-2.77a2.18,2.18,0,0,0-1-.5,31.48,31.48,0,0,0-4.71-.87l-7.24-.94a6.76,6.76,0,0,1-2.41-.62,4.84,4.84,0,0,1-2-2.6c-1.28.93-1.76,2.65-2.77,3.86-.49.58-1.1,1.05-1.64,1.59a19.56,19.56,0,0,0-1.82,2.24,39.76,39.76,0,0,0-4.11,6.5c-.57,1.21-1,2.47-1.45,3.73-1.77,4.94-4.66,9.63-5.85,14.74-.3,1.25-1.06,2.37-1.18,3.65A6.92,6.92,0,0,0,238,241.76Z" transform="translate(-10 -47)"/><path class="cls-5" d="M275.91,200.71a2.24,2.24,0,0,1,.27,1.07c-.16-.8-1.27-1.24-1.34-2,0-.36,0-.35.26-.15S275.6,200.4,275.91,200.71Z" transform="translate(-10 -47)"/><path class="cls-5" d="M272.56,203.14a1.68,1.68,0,0,1,.5.74,1.85,1.85,0,0,1,.1,1.29c-.16-.07-.21-.27-.26-.44a3.51,3.51,0,0,0-.33-.77c-.13-.2-.73-.7-.73-.92S272.4,203,272.56,203.14Z" transform="translate(-10 -47)"/><path class="cls-5" d="M272.17,176.37a8.09,8.09,0,0,0,1.67,1.11c1.57.8,3.3,1.21,4.88,2,.78.4,1.54.84,2.27,1.31l4.68,3a5,5,0,0,1,1,.79c.56.6.56,1.64,1.07,2.29a3.08,3.08,0,0,0,2.28,1.05,7.27,7.27,0,0,0,2.53-.42,13.88,13.88,0,0,0,1.45-.53,7,7,0,0,0,1.39-.79,4,4,0,0,0,1.64-2.59,5.09,5.09,0,0,0-.27-2.12,8.28,8.28,0,0,0-.5-1.28,5.64,5.64,0,0,0-.4-.67,7.41,7.41,0,0,0-4.81-2.6c-1-.19-1.95-.3-2.92-.47a9.75,9.75,0,0,1-1.42.22,13.58,13.58,0,0,1-4.4-.69l-1.57-.44c-.78-.21-1.18-1.16-2-1.33a2.71,2.71,0,0,0-1.06.06,14.58,14.58,0,0,0-4.66,1.52A8.39,8.39,0,0,0,272.17,176.37Z" transform="translate(-10 -47)"/><path class="cls-11" d="M268.35,155.38c.2,1.91,1.82,3.32,2.8,5,.48.8.81,1.68,1.24,2.51a26.29,26.29,0,0,0,1.64,2.63l1.76,2.55a26.88,26.88,0,0,0,3.39,4.26c2.3.39,4.24,2.1,6.42,2.93a33.68,33.68,0,0,0,5.48,1.11,7.43,7.43,0,0,1,4.81,2.6,6.89,6.89,0,0,1,.9,2,5.24,5.24,0,0,1,.28,2.11,4,4,0,0,1-1.64,2.59,9.19,9.19,0,0,1-2.84,1.32,7.52,7.52,0,0,1-2.54.42,3,3,0,0,1-2.27-1c-.51-.65-.51-1.7-1.08-2.29a5,5,0,0,0-1-.79L281,180.27a22.12,22.12,0,0,0-2.26-1.31c-1.58-.77-3.31-1.19-4.88-2a5.76,5.76,0,0,1-3.34-3.83c-.95-5.32-4.63-9.79-7.77-14.18.1,0,.07-.26.1-.35a4.66,4.66,0,0,1,2.3-2.33A11.74,11.74,0,0,1,268.35,155.38Z" transform="translate(-10 -47)"/><path class="cls-12" d="M284.92,155.42a2.93,2.93,0,0,1,.33-1.67,3.73,3.73,0,0,1,2.6-1.37c1-.2,1.91-.36,2.86-.5a6.51,6.51,0,0,1,2.37,0,15,15,0,0,1,2.95,1.4,21.46,21.46,0,0,0,3.75.95,5.86,5.86,0,0,1,3.35,1.81,6.33,6.33,0,0,1,1,2.74c1.5,8.08-.11,16.37-.42,24.58-.12,3.2,0,6.61,1.85,9.24l-5.32-.14a6.47,6.47,0,0,1-3.89-.95,6.38,6.38,0,0,1-1.79-3.05,9.66,9.66,0,0,1-.68-2.74c-.09-1.93,1-3.82.65-5.72a6.42,6.42,0,0,0-2.4-3.5,22,22,0,0,1-3.22-2.87c-1.6-2-1.9-4.77-1.7-7.33a29.19,29.19,0,0,0,.26-4.57,5.76,5.76,0,0,0-1.21-3.2A4.51,4.51,0,0,1,284.92,155.42Z" transform="translate(-10 -47)"/><path class="cls-5" d="M285.25,153.75a3.67,3.67,0,0,1,2.55-1.36,2.47,2.47,0,0,0-1.26,1,2.93,2.93,0,0,0-.33,1.67,4.42,4.42,0,0,0,1.36,3.06,5.76,5.76,0,0,1,1.21,3.21,28.09,28.09,0,0,1-.26,4.57c-.2,2.56.1,5.31,1.7,7.33a21.51,21.51,0,0,0,3.22,2.87,6.33,6.33,0,0,1,2.4,3.49c.36,1.9-.74,3.8-.65,5.72a9.18,9.18,0,0,0,.68,2.74,4.84,4.84,0,0,0,5.69,4l3.76.1.26.41-5.31-.15a4.82,4.82,0,0,1-5.69-4,9.58,9.58,0,0,1-.68-2.74c-.08-1.93,1-3.82.66-5.72a6.47,6.47,0,0,0-2.41-3.49,22,22,0,0,1-3.22-2.87c-1.59-2-1.9-4.77-1.7-7.34a28,28,0,0,0,.26-4.57,5.76,5.76,0,0,0-1.21-3.2,4.51,4.51,0,0,1-1.36-3.07A2.91,2.91,0,0,1,285.25,153.75Z" transform="translate(-10 -47)"/><path class="cls-5" d="M245.3,237l9.77,23.8a4.88,4.88,0,0,0,1.36-1.5,32.24,32.24,0,0,0-3.19-8.6c-.52-.85-1.12-1.64-1.64-2.5-1.55-2.44-1.87-5.52-3.65-7.81a1.34,1.34,0,0,1,0-1.59c.21-.26.53-.52.47-.85s-.29-.45-.2-.68.16-.16.24-.24c.31-.28.27-.75.3-1.16a5.58,5.58,0,0,1,1.28-2.79,1.91,1.91,0,0,1,.47-.51c.17-.1.36-.14.52-.24.56-.35.52-1.18.79-1.79.36-.81,1.25-1.22,1.84-1.87.74-.84.93-2,1.72-2.72l.07-.17-.74-4.6Z" transform="translate(-10 -47)"/><ellipse class="cls-4" cx="320.54" cy="216.31" rx="11.14" ry="2.14"/><ellipse class="cls-3" cx="320.73" cy="215.4" rx="1.3" ry="1.7"/><ellipse class="cls-3" cx="320.73" cy="213.33" rx="1.3" ry="1.7"/><ellipse class="cls-3" cx="320.73" cy="211.25" rx="1.3" ry="1.7"/><ellipse class="cls-3" cx="320.73" cy="209.18" rx="1.3" ry="1.7"/><ellipse class="cls-3" cx="320.73" cy="207.1" rx="1.3" ry="1.7"/><ellipse class="cls-3" cx="320.73" cy="205.03" rx="1.3" ry="1.7"/><ellipse class="cls-3" cx="320.73" cy="202.95" rx="1.3" ry="1.7"/><path class="cls-4" d="M325.87,235.76a6.93,6.93,0,0,1-.48-.72l3.41-.56-3.69,0a6.27,6.27,0,0,1-.12-4.92l4.95,2.56-4.56-3.35A6.21,6.21,0,1,1,336.16,235a8.13,8.13,0,0,1-.52.78,5.93,5.93,0,0,1,.7,1.13l-4.42,2.29,4.72-1.58a6.15,6.15,0,0,1,.33,2,6.24,6.24,0,0,1-1.33,3.85,6.21,6.21,0,1,1-9.77,0,6.22,6.22,0,0,1,0-7.68Z" transform="translate(-10 -47)"/><path class="cls-5" d="M337,239.59a6.24,6.24,0,0,1-1.33,3.85,6.21,6.21,0,1,1-9.77,0C325,242.38,337,238.9,337,239.59Z" transform="translate(-10 -47)"/><ellipse class="cls-4" cx="342.23" cy="192.52" rx="7.49" ry="1.44"/><ellipse class="cls-3" cx="342.36" cy="191.91" rx="0.87" ry="1.14"/><ellipse class="cls-3" cx="342.36" cy="190.52" rx="0.87" ry="1.14"/><ellipse class="cls-3" cx="342.36" cy="189.12" rx="0.87" ry="1.14"/><ellipse class="cls-3" cx="342.36" cy="187.73" rx="0.87" ry="1.14"/><ellipse class="cls-3" cx="342.36" cy="186.33" rx="0.87" ry="1.14"/><ellipse class="cls-3" cx="342.36" cy="184.94" rx="0.87" ry="1.14"/><ellipse class="cls-3" cx="342.36" cy="183.54" rx="0.87" ry="1.14"/><path class="cls-4" d="M349.1,221a4.58,4.58,0,0,1-.33-.48l2.3-.38-2.48,0a4.07,4.07,0,0,1-.39-1.75,4.21,4.21,0,0,1,.31-1.56l3.32,1.72-3.06-2.25a4.17,4.17,0,1,1,7.26,4.12,4.24,4.24,0,0,1-.38.56,3.75,3.75,0,0,1,.48.76l-3,1.54,3.17-1.06a4.18,4.18,0,0,1-.68,3.93,4.18,4.18,0,1,1-6.56,0,4.18,4.18,0,0,1,0-5.16Z" transform="translate(-10 -47)"/><path class="cls-5" d="M356.55,223.58a4.18,4.18,0,0,1-.89,2.58,4.18,4.18,0,1,1-6.56,0C348.54,225.45,356.55,223.11,356.55,223.58Z" transform="translate(-10 -47)"/></svg>