<svg id="Layer_1" data-name="Layer 1" xmlns="http://www.w3.org/2000/svg" viewBox="0 0 310 269.86"><defs><style>.cls-1{fill:#e6e6e6;}.cls-2{fill:#6c63ff;}.cls-3{fill:#fff;}.cls-4{fill:#2f2e41;}.cls-5{fill:#9f616a;}</style></defs><title>why-12</title><ellipse class="cls-1" cx="139.54" cy="265.56" rx="85.44" ry="4.29"/><circle class="cls-1" cx="42.4" cy="42.4" r="42.4"/><circle class="cls-2" cx="42.4" cy="42.4" r="35.33"/><circle class="cls-1" cx="155" cy="42.4" r="42.4"/><circle class="cls-3" cx="155" cy="42.4" r="35.33"/><circle class="cls-1" cx="267.6" cy="42.4" r="42.4"/><circle class="cls-3" cx="267.6" cy="42.4" r="35.33"/><polygon class="cls-3" points="39.12 56.92 28.83 43.68 34.82 39.03 39.69 45.29 56.16 27.91 61.66 33.13 39.12 56.92"/><path class="cls-4" d="M171.54,75.7c-2.79-6.73-3.24-13.08.68-18.71h0a14.16,14.16,0,0,1,14.67-13.63l.44,0,2.56.17A14.08,14.08,0,0,1,202,52.31c4.78,11.83,4.93,27.57,3.74,44.43h-35C172.84,88.85,173.91,81.45,171.54,75.7Z" transform="translate(-54 -24.65)"/><path class="cls-5" d="M126.33,96.33l-9.25-4.15a7,7,0,0,1-3.54-9.32A7.63,7.63,0,0,1,114,82h0a7,7,0,0,1,9.72-2.18,7.39,7.39,0,0,1,1.7,1.5l4.27,5.25,19.92,17.67,13.25-8.84,6,10.18-21.48,13Z" transform="translate(-54 -24.65)"/><path class="cls-2" d="M167.91,108.54l-7.3-14L189.05,81.9l.24,2.68a14.15,14.15,0,0,1-5.84,12.81Z" transform="translate(-54 -24.65)"/><path class="cls-5" d="M204.77,81.07l-29,24-1.67-2.33,8-14.34,3.66-1.66c.88-3.73-1.36-8.72-4.33-14l14-2C196.11,75.27,199.18,78.73,204.77,81.07Z" transform="translate(-54 -24.65)"/><polygon class="cls-4" points="185.77 222.11 180.94 229.27 142.43 207.44 147.76 181.1 185.77 222.11"/><path class="cls-4" d="M188.93,280.93l-7.83-3.5-2-91.68-7.51-49.84,29.17-5.5,6,13C221.51,163.63,200,225.61,188.93,280.93Z" transform="translate(-54 -24.65)"/><path class="cls-4" d="M189.56,279.68l1.61,3.5a4.65,4.65,0,0,1-2.28,6.16,4.46,4.46,0,0,1-1.29.38l-21.25,3a4.37,4.37,0,0,1-4.82-3.13h0a4.36,4.36,0,0,1,2-5l17.85-8.94Z" transform="translate(-54 -24.65)"/><path class="cls-4" d="M238.77,245.4l3.84-.28a4.63,4.63,0,0,1,4.88,5.63l-4.59,21a4.36,4.36,0,0,1-4.61,3.42h0a4.38,4.38,0,0,1-4-3.62l-2.12-19.85Z" transform="translate(-54 -24.65)"/><circle class="cls-5" cx="132.43" cy="39.42" r="13.33"/><path class="cls-2" d="M200.1,132.41l-29,6-.66-19.34c-4.2-4.44,5.59-22.25,9-30.67l4.33-1.33-7.33,13.33,25.67-21,5,1.33,1.33,24.34Z" transform="translate(-54 -24.65)"/><path class="cls-5" d="M202.1,144.08,195.81,152a7.06,7.06,0,0,1-9.9,1.16,6.86,6.86,0,0,1-.74-.68h0a7,7,0,0,1,2.13-11.24l6.13-2.86,22-15-5.33-15,11.33-3.33,7.34,24Z" transform="translate(-54 -24.65)"/><path class="cls-4" d="M203.26,94.07H179.1c.91-4.57,3.35-8.71,10-11.68,4.86-9.28,6.93-17.69,0-23.31-7.91-1.82-11-5.13-10-9.68l14.17-2.34C204.91,57.44,205.05,75.14,203.26,94.07Z" transform="translate(-54 -24.65)"/><path class="cls-2" d="M224.1,106.74l-15.33,3.67-5.34-30.68,2.65.42a14.16,14.16,0,0,1,11,8.8Z" transform="translate(-54 -24.65)"/></svg>