<svg id="Layer_1" data-name="Layer 1" xmlns="http://www.w3.org/2000/svg" viewBox="0 0 373 254.54"><defs><style>.cls-1{fill:#3f3d56;}.cls-2{opacity:0.1;}.cls-2,.cls-5,.cls-7{isolation:isolate;}.cls-3,.cls-7{fill:#6c63ff;}.cls-4{fill:#a8a8a8;}.cls-5{opacity:0.2;}.cls-6{fill:#f2f2f2;}.cls-7{opacity:0.3;}.cls-8{fill:#a0616a;}.cls-9{fill:#575a89;}.cls-10{fill:#2f2e41;}.cls-11{fill:#fff;}</style></defs><title>why-13</title><path class="cls-1" d="M155.21,283.07c0,6.63-31.1,12-69.47,12s-69.47-5.38-69.47-12c0-1.66,1.94-3.24,5.46-4.67,10.22-4.19,33.77-7.16,61.44-7.33h2.57C124.11,271.06,155.21,276.44,155.21,283.07Z" transform="translate(-14 -40.54)"/><path class="cls-2" d="M83.17,271.07a39.46,39.46,0,0,1-61.44,7.33C32,274.21,55.5,271.24,83.17,271.07Z" transform="translate(-14 -40.54)"/><ellipse class="cls-1" cx="36.36" cy="203.89" rx="36.36" ry="38.96"/><path class="cls-1" d="M95,67.6c5.16,19.86,21.79,32.69,37.18,28.7" transform="translate(-14 -40.54)"/><path class="cls-3" d="M132.15,96.3c-5.21-20.09,4.48-39.95,21.66-44.41" transform="translate(-14 -40.54)"/><path class="cls-3" d="M105.53,66.78c4.9,18.86,16.81,32.07,26.62,29.52" transform="translate(-14 -40.54)"/><path class="cls-1" d="M132.15,96.3c-6.66-25.66,4-50.6,23.88-55.76" transform="translate(-14 -40.54)"/><path class="cls-4" d="M126.36,98.07s3.92-1.15,4.89-2.3,5.59-3.44,6.24-2.16,7.69,5.22,3.24,6.42-10.54,2-11.92,1.58S126.36,98.07,126.36,98.07Z" transform="translate(-14 -40.54)"/><path class="cls-5" d="M140.69,99.53c-4.45,1.2-10.54,2-11.92,1.58-1.05-.31-1.92-2.2-2.28-3.08l-.13,0s1.08,3.12,2.45,3.54,7.47-.39,11.92-1.58c1.29-.35,1.61-.92,1.41-1.59C142.07,98.89,141.65,99.28,140.69,99.53Z" transform="translate(-14 -40.54)"/><rect class="cls-6" x="111.35" y="40.93" width="261.65" height="151.6"/><rect class="cls-7" x="117.52" y="86.95" width="143.49" height="75.15"/><rect class="cls-1" x="272.04" y="83.67" width="57.55" height="3.18"/><rect class="cls-1" x="272.04" y="89.55" width="83.75" height="3.18"/><rect class="cls-1" x="272.04" y="103.75" width="57.55" height="3.18"/><rect class="cls-1" x="272.04" y="127.26" width="57.55" height="3.18"/><rect class="cls-1" x="272.04" y="109.63" width="83.75" height="3.18"/><rect class="cls-1" x="272.04" y="115.51" width="83.75" height="3.18"/><rect class="cls-1" x="272.04" y="121.38" width="83.75" height="3.18"/><rect class="cls-3" x="272.04" y="141.46" width="30.12" height="8.33"/><path class="cls-8" d="M116.09,173s5.41-15.32,9.31-10.51-6,12.92-6,12.92Z" transform="translate(-14 -40.54)"/><path class="cls-9" d="M90.56,157.94l3.25,1.21s1.55,6.91,1,8.11-.9.3,0,2.7,3.61,8.71,3.91,9.61,17.42-5.7,17.42-9c0,0,3.61,4.21,5.41,5.11,0,0-19.83,14.42-22.53,16.22s-4.21.9-6.61-1.2-12.62-19.53-12.62-19.53Z" transform="translate(-14 -40.54)"/><path class="cls-10" d="M99.27,264.59s-.3,3.3-.9,3.6-5.11,7.81,0,9.32,8.11.9,9.31,1.5,22.23,1.8,22.53-1.5S120,273.6,120,273.6s-9.62-6.31-11.12-9.61S99.27,264.59,99.27,264.59Z" transform="translate(-14 -40.54)"/><path class="cls-10" d="M38.29,270.6s-7.21,12.31-5.41,13.82,19.36,7,21.93,7.21c3.3.3,5.71-2.41,3-3.91s-8.41-7.81-8.41-9.91V272.4Z" transform="translate(-14 -40.54)"/><path class="cls-10" d="M31.38,190.09s-6.31,7.81,3.6,20.43l16.52,21S41.29,247.77,41,256.18s-2.4,6.61-3,10.21-3.31,1.8-1.21,4.51,9.92,5.1,12.32,3a7.46,7.46,0,0,0,2.4-6c0-1.2,4.21-8.11,4.51-10.21s11.42-19.23,11.42-19.23,3.6-10.21-.6-15.92-7-13.8-7-13.8,12.39,15,21.1,18.61c0,0,3.31.6,2.71,2.1s0,2.4.9,3.91,7.21,18.92,9.31,23.43,1.2,7.21,3.61,8.71,13.21.3,13.21-1.2-1.5-5.41-2.4-7.51-8.11-26.44-7.51-30.64-.3-9.92-4.81-12.32-27.33-21.93-28.53-21.93S31.38,190.09,31.38,190.09Z" transform="translate(-14 -40.54)"/><circle class="cls-8" cx="77.76" cy="89.76" r="12.62"/><path class="cls-8" d="M81.55,131.51s-3.91,6.91-8.72,7.81S85.45,154,85.45,154s4.21-13.22,7.81-13.82S81.55,131.51,81.55,131.51Z" transform="translate(-14 -40.54)"/><path class="cls-9" d="M93.86,159.75c0,3.9-11.71,15-11.71,15L71,184.08s-.3,3.3-1.5,3.6-2.7.3-1.5,2.11,4.2,5.71,1.5,6.31a22.72,22.72,0,0,1-2.46.23l-2.52.12c-2.22.08-5,.13-8,.11l-2.61,0c-11.36-.23-24.52-1.54-23.44-5.84,1.8-7.21.6-9.61,4.5-13.52S45.2,159.75,45.2,159.75s12.61-21.33,23.13-21.33l2.18-.58a5,5,0,0,1,5.46,2.1c2.11,3.21,5.43,8,7.38,9.59,3,2.41,3.47.68,3.47.68S93.86,155.84,93.86,159.75Z" transform="translate(-14 -40.54)"/><path class="cls-8" d="M67.13,205.41s8.71,13.52,3.3,15.92S62,207.21,62,207.21Z" transform="translate(-14 -40.54)"/><path class="cls-10" d="M83.51,128.88c.49-.06.64-.67.72-1.15.44-2.58,2.36-5,4.94-5.44a7,7,0,0,1,2.94.24,11,11,0,0,1,3.77,1.86,6.24,6.24,0,0,0,1.89,1.18c.47.14,2.48,1,3,1.18,1,.34,1.89,1.42,3,1.2s1.41-1.43,1.57-2.45c.37-2.34-1-5.82-2.29-7.78a8.26,8.26,0,0,0-4.42-2.89,31.4,31.4,0,0,0-6.13-1.22A19.84,19.84,0,0,0,84,114c-2.69.87-5.14,3-5.64,5.77-.1.58-.12,1.17-.25,1.75-.31,1.4-1.24,2.58-1.78,3.91a7.5,7.5,0,0,0,.23,6.1c.75,1.51,2,2.95,1.77,4.61l2.32-1.83a1.68,1.68,0,0,0,.77-2l-.34-2.9a2.55,2.55,0,0,1,.16-1.57C82.26,126,82.7,129,83.51,128.88Z" transform="translate(-14 -40.54)"/><path class="cls-2" d="M61.72,184.68l2.83,11.77c-2.86.1-6.63.15-10.63.08-1-3-2-6.19-2.72-9.15-2.7-10.81,1.81-27.33,4.21-35.14s8.41-9.92,8.41-9.92a27.18,27.18,0,0,1,6.91,3.61C74.64,148.63,61.72,184.68,61.72,184.68Z" transform="translate(-14 -40.54)"/><path class="cls-2" d="M64.12,184.08l2.95,12.25-2.52.12c-2.22.08-5,.13-8,.11-1.08-3.22-2.13-6.62-2.92-9.78-2.71-10.81,1.8-27.33,4.2-35.14s7.66.75,7.66.75-2.1-5.11,1.81-2.41S64.12,184.08,64.12,184.08Z" transform="translate(-14 -40.54)"/><path class="cls-9" d="M65,141.72s-6,2.11-8.41,9.92S49.7,176,52.41,186.78s8.41,24.34,8.41,24.34,5.7-4.21,7.81-3.31l-5.71-23.73s12.92-36.05,9-38.75A27.18,27.18,0,0,0,65,141.72Z" transform="translate(-14 -40.54)"/><rect class="cls-1" x="111.35" y="79.15" width="143.49" height="75.15"/><ellipse class="cls-11" cx="185.76" cy="118.2" rx="16.24" ry="16.27"/><path class="cls-3" d="M199.76,139.71a19.41,19.41,0,1,0,19.41,19.4A19.39,19.39,0,0,0,199.76,139.71Zm-4,29.75-9.95-10,2.79-2.79,7.17,7.17,15.12-15.13,2.79,2.79-17.92,17.91Z" transform="translate(-14 -40.54)"/></svg>