<svg id="Layer_1" data-name="Layer 1" xmlns="http://www.w3.org/2000/svg" xmlns:xlink="http://www.w3.org/1999/xlink" viewBox="0 0 400 270.24"><defs><style>.cls-1{fill:#6c63ff;}.cls-2{fill:#f2f2f2;}.cls-3{fill:#cfcce0;}.cls-4{fill:#3f3d56;}.cls-5{fill:#2f2e41;}.cls-6{fill:#ffb9b9;}.cls-7{opacity:0.15;}.cls-11,.cls-15,.cls-7{isolation:isolate;}.cls-8{fill:#fc6681;}.cls-9{fill:url(#linear-gradient);}.cls-10{fill:#535461;}.cls-11,.cls-15{opacity:0.1;}.cls-12{fill:#e2e2ec;}.cls-13,.cls-14,.cls-15,.cls-16,.cls-17{fill:none;}.cls-14{stroke:#535461;}.cls-14,.cls-15,.cls-16,.cls-17{stroke-miterlimit:10;}.cls-14,.cls-15,.cls-17{stroke-width:2px;}.cls-15{stroke:#000;}.cls-16,.cls-17{stroke:#e2e2ec;}</style><linearGradient id="linear-gradient" x1="423.9" y1="153.92" x2="423.9" y2="183.92" gradientTransform="matrix(1.13, -0.18, -0.18, -1.1, -285.19, 312.1)" gradientUnits="userSpaceOnUse"><stop offset="0" stop-color="gray" stop-opacity="0.25"/><stop offset="0.54" stop-color="gray" stop-opacity="0.12"/><stop offset="1" stop-color="gray" stop-opacity="0.1"/></linearGradient></defs><title>why-11</title><path class="cls-1" d="M108.31,275.53H10.72s-2-29,9.73-29.34,10.38,12.86,25.05-5.27S78,223.77,80.29,234.49s-4.45,19.29,7.91,16.65S118.37,255.42,108.31,275.53Z" transform="translate(0 -29.69)"/><path class="cls-2" d="M57.87,275.54h-.33c.77-19.1,4.77-31.38,8-38.31,3.5-7.53,6.87-10.57,6.9-10.6l.22.24s-3.37,3-6.83,10.53C62.61,244.29,58.63,256.51,57.87,275.54Z" transform="translate(0 -29.69)"/><path class="cls-2" d="M93.19,275.58l-.32-.09a51.1,51.1,0,0,1,12.88-21.42l.22.24A50.72,50.72,0,0,0,93.19,275.58Z" transform="translate(0 -29.69)"/><path class="cls-2" d="M26.09,275.56l-.32-.05a36,36,0,0,0-3.23-21,28.63,28.63,0,0,0-5.1-7.43l.23-.24a29.13,29.13,0,0,1,5.16,7.53A36.18,36.18,0,0,1,26.09,275.56Z" transform="translate(0 -29.69)"/><path class="cls-3" d="M121.55,276H.2l0-.42c-.07-1-1.62-25.14,6.2-33.75a8.56,8.56,0,0,1,6.25-3c5.1-.14,8.3,1.76,10.88,3.3,4.87,2.88,8.09,4.79,19.78-9.66,12.66-15.65,26.33-19,34.18-17.15,5.08,1.21,8.58,4.63,9.6,9.39a41.49,41.49,0,0,1,.41,12.12c-.26,3.64-.47,6.51,1,7.81,1.25,1.09,3.74,1.19,7.83.32,8.33-1.78,20-.26,25.79,7.28,3.14,4,5.61,11.42-.43,23.51ZM1,275.09H121c4.5-9.13,4.64-16.85.4-22.33-5.35-6.92-16.58-8.74-24.9-7-4.45.95-7.11.79-8.6-.51-1.82-1.59-1.6-4.66-1.32-8.54a40.8,40.8,0,0,0-.39-11.88c-1-4.41-4.21-7.58-8.94-8.71C69.65,214.35,56.37,217.67,44,233c-12.17,15-15.83,12.86-20.91,9.85-2.61-1.55-5.58-3.3-10.4-3.17A7.71,7.71,0,0,0,7,242.41C0,250.14.85,271.83,1,275.09Z" transform="translate(0 -29.69)"/><path class="cls-1" d="M382.93,275.53H285.35s-2-29,9.72-29.34,10.39,12.86,25.06-5.27,32.47-17.15,34.78-6.43-4.45,19.29,7.91,16.65S393,255.42,382.93,275.53Z" transform="translate(0 -29.69)"/><path class="cls-2" d="M332.49,275.54h-.33c.77-19.1,4.77-31.38,8-38.31,3.5-7.53,6.87-10.57,6.9-10.6l.22.24s-3.36,3-6.83,10.53C337.24,244.29,333.26,256.51,332.49,275.54Z" transform="translate(0 -29.69)"/><path class="cls-2" d="M367.81,275.58l-.32-.09a51.21,51.21,0,0,1,12.88-21.42l.22.24A50.83,50.83,0,0,0,367.81,275.58Z" transform="translate(0 -29.69)"/><path class="cls-2" d="M300.72,275.56l-.33-.05a35.93,35.93,0,0,0-3.23-21,28.63,28.63,0,0,0-5.1-7.43l.23-.24a29.29,29.29,0,0,1,5.17,7.53A36.34,36.34,0,0,1,300.72,275.56Z" transform="translate(0 -29.69)"/><path class="cls-3" d="M396.18,276H274.82l0-.42c-.07-1-1.62-25.14,6.2-33.75a8.58,8.58,0,0,1,6.26-3c5.09-.14,8.29,1.76,10.87,3.3,4.87,2.88,8.09,4.79,19.78-9.66,12.66-15.65,26.33-19,34.19-17.15,5.07,1.21,8.57,4.63,9.59,9.39a41.88,41.88,0,0,1,.42,12.12c-.27,3.64-.48,6.51,1,7.81,1.25,1.09,3.74,1.19,7.83.32,8.33-1.78,20-.26,25.79,7.28,3.14,4,5.61,11.42-.43,23.51Zm-120.53-.89h120c4.5-9.13,4.65-16.85.4-22.33-5.35-6.92-16.58-8.74-24.9-7-4.45.95-7.1.79-8.6-.51-1.82-1.59-1.6-4.66-1.31-8.54a41.18,41.18,0,0,0-.4-11.88c-.95-4.41-4.21-7.58-8.94-8.71-7.6-1.81-20.89,1.51-33.3,16.85-12.17,15-15.83,12.86-20.9,9.85-2.62-1.55-5.59-3.3-10.41-3.17a7.73,7.73,0,0,0-5.63,2.72c-7,7.73-6.16,29.42-6,32.68Z" transform="translate(0 -29.69)"/><path class="cls-4" d="M188.08,193.15c-8.56,0-16.06,8.93-20.19,22.27-.3.94-.57,1.9-.83,2.87a83.49,83.49,0,0,0-2.57,20.93c0,25.41,10.58,46.08,23.59,46.08s23.58-20.67,23.58-46.08S201.08,193.15,188.08,193.15Zm0,91.42c-12.61,0-22.86-20.35-22.86-45.35a82.73,82.73,0,0,1,2.61-21c.24-.92.5-1.82.77-2.7,4-13,11.25-21.63,19.48-21.63,12.6,0,22.85,20.34,22.85,45.34S200.68,284.57,188.08,284.57Z" transform="translate(0 -29.69)"/><path class="cls-4" d="M193.74,265.86c-4.51,0-8-11.7-8-26.64s3.53-26.64,8-26.64,8,11.7,8,26.64S198.25,265.86,193.74,265.86Zm0-52.55c-4,0-7.31,11.87-7.31,25.91s3.35,25.91,7.31,25.91,7.32-11.86,7.32-25.91S197.71,213.31,193.74,213.31Z" transform="translate(0 -29.69)"/><ellipse class="cls-3" cx="194.66" cy="209.53" rx="3.11" ry="6.12"/><polygon class="cls-4" points="187.89 126.53 237.99 126.34 237.99 146.08 187.89 148.1 187.89 126.53"/><polygon class="cls-4" points="145.11 193.47 144.38 193.43 146.59 153.22 191.91 153.22 191.91 153.95 147.28 153.95 145.11 193.47"/><polygon class="cls-4" points="145.03 258.53 119.44 254.14 119.59 253.42 145.18 257.81 145.03 258.53"/><rect class="cls-4" x="165.4" y="282.68" width="0.73" height="31.19" transform="translate(-145.11 409.32) rotate(-85.29)"/><path class="cls-4" d="M222.36,223.19q-.42,1.32-.78,2.7l-.76.08L197,228.62l-54.48-5.49,56.68-2.92,22.41,2.89Z" transform="translate(0 -29.69)"/><path class="cls-5" d="M209.9,92.33s-7.92-2.83-13,8.49a223.45,223.45,0,0,1-13,23.76l4.52,1.13s1.13-7.92,4-9l-1.13,10.18s33.94,11.88,49.22-1.13l-.57-4s2.26.57,2.26,4l1.7-1.7s-1.7-3.39-6.79-7.92c-3.34-3-4.49-8.62-4.88-12.15a14.76,14.76,0,0,0-3.39-8C225.4,92,219.23,87.84,209.9,92.33Z" transform="translate(0 -29.69)"/><path class="cls-6" d="M166.13,103l-3.29-34.38S156.26,50,166.13,51.45s4,15.72,4,15.72L175.64,103Z" transform="translate(0 -29.69)"/><polygon class="cls-6" points="140.54 229.46 136.88 241.9 143.83 247.75 148.95 232.02 140.54 229.46"/><path class="cls-6" d="M168.69,268.29,165,281.46l12.8,8s.36-15,2.19-17.92Z" transform="translate(0 -29.69)"/><path class="cls-5" d="M184.42,198.08l-1.83,3.66s-20.84-9.51-26.33,3.66-17.55,54.85-17.55,54.85l10.6,4.39,19.38-44.25,44.25-1.1,1.83-24.5Z" transform="translate(0 -29.69)"/><path class="cls-5" d="M199.78,204.3s-30-6.22-32.18,8.78,1.09,43.51,1.46,44.24-1.46,14.26-1.46,14.26l13.16,1.83s8.41-39.86,4.76-50.09l24.74-1.54a17,17,0,0,0,16-15.81c.18-3.27-.63-6.24-3.46-7.89C214,193,198,193,198,193Z" transform="translate(0 -29.69)"/><path class="cls-5" d="M141.63,271.22s-2.56-5.49-6.21-2.93-12.07,8-12.07,8-13,4.58-1.46,7.68c10.27,2.75,12.8,2.19,12.8,2.19s8.41,1.46,9.5.73S146,274.51,146,274.51,140.9,273.41,141.63,271.22Z" transform="translate(0 -29.69)"/><path class="cls-5" d="M170.16,282.55s-3.66-5.11-6.22-2.92-11.7,8.41-11.7,8.41-15.36,4.39-1.83,8.41,28.52,3.29,28.89,1.83-.73-12.07-.73-12.07S170.89,285.85,170.16,282.55Z" transform="translate(0 -29.69)"/><circle class="cls-6" cx="214.04" cy="85.75" r="13.16"/><path class="cls-6" d="M204.53,121.29s-.73,15-4.39,16.09S186.25,150.55,191,154.2s32.18,1.1,32.18,1.1l-2.56-19s-5.85-4-1.1-11Z" transform="translate(0 -29.69)"/><path class="cls-3" d="M204.16,146.16l-2.55-12.07-8.42-3.29-6.94,16.09s-7.87,52.11-5.67,52.84a10,10,0,0,0,3.84.55s11.7-3.66,15.36-1.83,22.67,3.29,22.67,3.29,13.16-7,12.43-13.16,0-41,0-41l-1.64-15.54-14.43,2.26Z" transform="translate(0 -29.69)"/><polygon class="cls-3" points="193.56 102.94 193.19 100.75 182.96 88.31 177.1 67.47 162.84 72.95 173.08 98.19 187.71 116.84 193.56 102.94"/><path class="cls-5" d="M196.74,117s4.53-6.23,8.49-7.36,4.52-6.79,4.52-6.79,10.19,11.32,16.41,11.88.57-13.57.57-13.57l-11.32-2.83-10.75,1.13-8.48,5.66Z" transform="translate(0 -29.69)"/><polygon class="cls-4" points="239.09 171.88 238.73 156.88 204.7 156.88 203.62 197.11 202.88 197.09 203.99 156.15 239.44 156.15 239.45 156.5 239.82 171.86 239.09 171.88"/><polygon class="cls-4" points="238.35 151.39 237.62 151.39 237.62 123.48 249.43 126.91 249.22 127.61 238.35 124.45 238.35 151.39"/><path class="cls-4" d="M241.83,200.83c-8.55,0-16.05,8.93-20.19,22.27-.29.94-.57,1.9-.82,2.87a83.45,83.45,0,0,0-2.58,20.93c0,25.41,10.58,46.08,23.59,46.08s23.59-20.67,23.59-46.08S254.84,200.83,241.83,200.83Zm0,91.42c-12.6,0-22.86-20.35-22.86-45.35a83.13,83.13,0,0,1,2.61-21q.36-1.38.78-2.7c4-13,11.25-21.63,19.47-21.63,12.6,0,22.85,20.34,22.85,45.34S254.43,292.25,241.83,292.25Z" transform="translate(0 -29.69)"/><path class="cls-4" d="M247.5,273.54c-4.51,0-8.05-11.7-8.05-26.64s3.54-26.64,8.05-26.64,8,11.7,8,26.64S252,273.54,247.5,273.54Zm0-52.55c-4,0-7.32,11.87-7.32,25.91s3.35,25.91,7.32,25.91,7.31-11.86,7.31-25.91S251.46,221,247.5,221Z" transform="translate(0 -29.69)"/><ellipse class="cls-3" cx="248.41" cy="217.21" rx="3.11" ry="6.12"/><polygon class="cls-4" points="243.47 122.87 251.15 125.8 249.69 129.82 243.47 127.26 243.47 122.87"/><polygon class="cls-4" points="213.12 154.32 213.12 160.17 234.91 160.17 234.91 154.71 213.12 154.32"/><polygon class="cls-4" points="157.18 151.39 157.18 157.24 178.96 157.24 178.96 151.78 157.18 151.39"/><path class="cls-6" d="M232.72,184.36l-34.53-.65s-19.28,4.41-16.7-5.23,16.08-2.2,16.08-2.2l36.23-1.37Z" transform="translate(0 -29.69)"/><path class="cls-3" d="M229.21,134.64l3.29-2.56s5.49-2.93,6.59,7.31,9.14,44.25,1.09,44.62-28.52.73-28.52.73l2.2-11.34,16.82-1.1Z" transform="translate(0 -29.69)"/><polygon class="cls-7" points="230.31 120.67 229.21 141.52 213.12 144.81 227.75 138.96 230.31 120.67"/><path class="cls-1" d="M142.55,51.37c-.68.8-4.16,2-4.16,2s.48-3.54,1.16-4.35a2,2,0,0,1,2.74-.24,1.86,1.86,0,0,1,.26,2.62Z" transform="translate(0 -29.69)"/><path class="cls-1" d="M144,58.89c-.54.91-3.77,2.62-3.77,2.62s-.13-3.56.4-4.47a2,2,0,0,1,2.65-.71A1.86,1.86,0,0,1,144,58.89Z" transform="translate(0 -29.69)"/><path class="cls-8" d="M142.55,51.37c-.68.8-4.16,2-4.16,2s.48-3.54,1.16-4.35a2,2,0,0,1,2.74-.24,1.86,1.86,0,0,1,.26,2.62Z" transform="translate(0 -29.69)"/><path class="cls-8" d="M144,58.89c-.54.91-3.77,2.62-3.77,2.62s-.13-3.56.4-4.47a2,2,0,0,1,2.65-.71A1.86,1.86,0,0,1,144,58.89Z" transform="translate(0 -29.69)"/><path class="cls-9" d="M190,51.5s-2.77-12.79-6.29-16.9c0,0-2.63-3.28-4.5-4.05l-.07-.42c-3.07-1.41-6.18,1-6.18,1l0,.18-.62.7-3.21.51a1.54,1.54,0,0,0-1.27-.35l-14.62,2.38a1.58,1.58,0,0,0-1.06.67l-3.33.54a2,2,0,0,0-.78-.32l0-.25c-3.08-1.42-6.19,1-6.19,1l.08.5a1,1,0,0,0-.18.22s-2.51,2.29-2.78,4.68c0,0-1.81,10.62-.6,18.51s4.53,8.49,6.2,8.43,4.54-.81,6.25-8.25l.54-4.28s-.18-2.45,2.63-1.35,4.7-1.62,4.7-1.62l9.6-1.56s3.52,1.41,6.19-.59c0,0,.9-1.64,2.77,3.1,0,0,4.92,9.56,9.8,7.7S190,51.5,190,51.5Z" transform="translate(0 -29.69)"/><path class="cls-10" d="M142.42,37.2l-.13-.75s3.05-2.37,6.07-1l.11.68Z" transform="translate(0 -29.69)"/><path class="cls-10" d="M172.9,32.23l-.13-.75s3-2.37,6.07-1l.11.68Z" transform="translate(0 -29.69)"/><path class="cls-11" d="M142.42,37.2l-.13-.75s3.05-2.37,6.07-1l.11.68Z" transform="translate(0 -29.69)"/><path class="cls-11" d="M172.9,32.23l-.13-.75s3-2.37,6.07-1l.11.68Z" transform="translate(0 -29.69)"/><path class="cls-10" d="M152.45,35.49l-3.28.54s-1-.81-3.77-.29-3.2,1.42-3.2,1.42-2.47,2.25-2.73,4.59c0,0-1.77,10.41-.58,18.15s4.43,8.33,6.07,8.27,4.45-.8,6.12-8.1l.54-4.19s-.18-2.41,2.58-1.33S158.81,53,158.81,53l9.41-1.54s3.45,1.39,6.07-.57c0,0,.88-1.6,2.71,3,0,0,4.82,9.37,9.61,7.55s2.88-10,2.88-10-2.72-12.53-6.17-16.56c0,0-3.38-4.22-5.15-4.14,0,0-3.88-.06-5.25.79l-.72.81Z" transform="translate(0 -29.69)"/><ellipse class="cls-12" cx="145.93" cy="43.38" rx="6.15" ry="5.98" transform="matrix(0.99, -0.16, 0.16, 0.99, -5.08, -5.64)"/><ellipse class="cls-13" cx="177.59" cy="38.21" rx="6.15" ry="5.98" transform="translate(-3.83 -0.62) rotate(-9.26)"/><path class="cls-10" d="M146.77,41.89l-.69.83a.41.41,0,0,1-.5.08l-.92-.57a.3.3,0,0,1-.17-.25l-.32-1.91a.39.39,0,0,1,.32-.43l1.62-.26a.38.38,0,0,1,.44.3h0l.31,1.91A.4.4,0,0,1,146.77,41.89Z" transform="translate(0 -29.69)"/><path class="cls-10" d="M147.2,44.52l-.92-.57a.4.4,0,0,0-.5.09l-.7.82a.46.46,0,0,0-.08.3l.31,1.91a.38.38,0,0,0,.44.3h0l1.62-.26a.39.39,0,0,0,.32-.43h0l-.32-1.91A.32.32,0,0,0,147.2,44.52Z" transform="translate(0 -29.69)"/><path class="cls-10" d="M144.74,44.63l.59-.91a.36.36,0,0,0-.08-.48l-.84-.67a.36.36,0,0,0-.3-.08l-2,.32a.37.37,0,0,0-.31.43l.25,1.57a.39.39,0,0,0,.44.31h0l2-.32A.41.41,0,0,0,144.74,44.63Z" transform="translate(0 -29.69)"/><path class="cls-10" d="M147.45,44.18l-.84-.67a.36.36,0,0,1-.08-.48l.59-.9a.37.37,0,0,1,.25-.17l2-.32a.38.38,0,0,1,.44.3h0l.25,1.58a.36.36,0,0,1-.31.42h0l-2,.32A.36.36,0,0,1,147.45,44.18Z" transform="translate(0 -29.69)"/><polygon class="cls-14" points="144.18 9.52 146.27 9.18 145.08 8.47 144.18 9.52"/><polygon class="cls-14" points="145.59 18.2 147.68 17.86 146.78 18.91 145.59 18.2"/><polygon class="cls-14" points="141.3 13.4 141.63 15.43 140.56 14.56 141.3 13.4"/><polygon class="cls-14" points="150.23 11.94 150.56 13.98 151.3 12.81 150.23 11.94"/><ellipse class="cls-12" cx="155.21" cy="48.47" rx="4.45" ry="4.33" transform="translate(-5.78 -4.08) rotate(-9.26)"/><ellipse class="cls-10" cx="154.96" cy="47.82" rx="2.97" ry="2.88" transform="translate(-5.67 -4.13) rotate(-9.26)"/><ellipse class="cls-12" cx="170.41" cy="46" rx="4.45" ry="4.33" transform="translate(-5.18 -1.67) rotate(-9.26)"/><ellipse class="cls-10" cx="170.16" cy="45.34" rx="2.97" ry="2.88" transform="translate(-5.08 -1.72) rotate(-9.26)"/><ellipse class="cls-15" cx="154.96" cy="47.82" rx="1.98" ry="1.92" transform="translate(-5.67 -4.13) rotate(-9.26)"/><ellipse class="cls-15" cx="170.16" cy="45.34" rx="1.98" ry="1.92" transform="translate(-5.08 -1.72) rotate(-9.26)"/><ellipse class="cls-12" cx="163.03" cy="47.69" rx="1.27" ry="1.24" transform="translate(-5.55 -2.84) rotate(-9.26)"/><ellipse class="cls-12" cx="160.45" cy="43.93" rx="0.28" ry="0.27" transform="translate(-4.98 -3.3) rotate(-9.26)"/><ellipse class="cls-12" cx="161.47" cy="43.76" rx="0.28" ry="0.27" transform="translate(-4.94 -3.14) rotate(-9.26)"/><ellipse class="cls-12" cx="161.54" cy="45.05" rx="0.28" ry="0.27" transform="translate(-5.14 -3.11) rotate(-9.26)"/><ellipse class="cls-12" cx="162.51" cy="44.92" rx="0.28" ry="0.27" transform="translate(-5.11 -2.96) rotate(-9.26)"/><ellipse class="cls-12" cx="163.46" cy="44.73" rx="0.28" ry="0.27" transform="translate(-5.07 -2.8) rotate(-9.26)"/><ellipse class="cls-12" cx="161.03" cy="44.51" rx="0.28" ry="0.27" transform="translate(-5.06 -3.2) rotate(-9.26)"/><ellipse class="cls-12" cx="161.92" cy="44.39" rx="0.28" ry="0.27" transform="matrix(0.99, -0.16, 0.16, 0.99, -5.03, -3.06)"/><ellipse class="cls-12" cx="162.82" cy="44.24" rx="0.28" ry="0.27" transform="translate(-5 -2.91) rotate(-9.26)"/><ellipse class="cls-12" cx="163.77" cy="44.07" rx="0.28" ry="0.27" transform="translate(-4.96 -2.76) rotate(-9.26)"/><ellipse class="cls-12" cx="162.3" cy="43.63" rx="0.28" ry="0.27" transform="translate(-4.91 -3.01) rotate(-9.26)"/><ellipse class="cls-12" cx="163.27" cy="43.47" rx="0.28" ry="0.27" transform="translate(-4.87 -2.85) rotate(-9.26)"/><ellipse class="cls-12" cx="164.07" cy="43.33" rx="0.28" ry="0.27" transform="translate(-4.83 -2.72) rotate(-9.26)"/><path class="cls-12" d="M150.47,36.3l.35,0a.58.58,0,0,1,.68.48l.24,1.42a.59.59,0,0,1-.5.67l-.35.06a.59.59,0,0,1-.69-.48L150,37A.6.6,0,0,1,150.47,36.3Z" transform="translate(0 -29.69)"/><rect class="cls-12" x="170.44" y="32.94" width="1.55" height="2.61" rx="0.58" transform="translate(-3.28 -1.69) rotate(-9.26)"/><ellipse class="cls-10" cx="177.08" cy="34.61" rx="1.7" ry="1.65" transform="translate(-3.26 -0.75) rotate(-9.26)"/><path class="cls-12" d="M153.47,34.84,167.8,32.5a1.53,1.53,0,0,1,1.76,1.23l1,6.07a1.52,1.52,0,0,1-1.28,1.72l-14.33,2.34a1.53,1.53,0,0,1-1.76-1.23l-1-6.07A1.52,1.52,0,0,1,153.47,34.84Z" transform="translate(0 -29.69)"/><polygon class="cls-16" points="176.18 5.76 176.89 3.98 178.2 5.43 176.18 5.76"/><rect class="cls-16" x="173.2" y="37.89" width="1.77" height="1.51" transform="translate(-3.95 -1.17) rotate(-9.26)"/><ellipse class="cls-16" cx="181.31" cy="37.26" rx="0.99" ry="0.96" transform="translate(-3.63 -0.03) rotate(-9.26)"/><line class="cls-16" x1="177.55" y1="11.09" x2="179.36" y2="12.36"/><line class="cls-17" x1="179.15" y1="10.83" x2="177.79" y2="12.58"/><path class="cls-13" d="M186,43.35" transform="translate(0 -29.69)"/></svg>