<svg id="Layer_1" data-name="Layer 1" xmlns="http://www.w3.org/2000/svg" xmlns:xlink="http://www.w3.org/1999/xlink" viewBox="0 0 400.17 251.71"><defs><style>.cls-1,.cls-2,.cls-5{fill:#6c63ff;}.cls-1,.cls-20,.cls-8{opacity:0.1;}.cls-1,.cls-14,.cls-5,.cls-8{isolation:isolate;}.cls-3{fill:#444053;}.cls-4{fill:#fff;}.cls-12,.cls-5{opacity:0.2;}.cls-6{fill:url(#linear-gradient);}.cls-7{fill:#65617d;}.cls-9{fill:#fbbebe;}.cls-10{fill:#3f3d56;}.cls-11{fill:#e7effd;}.cls-13{fill:url(#linear-gradient-2);}.cls-14{opacity:0.05;}.cls-15{fill:#ee8e9e;}.cls-16{fill:#e3e8f4;}.cls-17{fill:#0da04c;}.cls-18{fill:#e6e8ec;}.cls-19{fill:#565387;}.cls-21{fill:url(#linear-gradient-3);}.cls-22{fill:#be6f72;}.cls-23{fill:#f3f5f9;}.cls-24{fill:#aa1717;}.cls-25{fill:#67647e;}.cls-26{fill:none;}.cls-27{font-size:12px;font-family:Montserrat-SemiBold, Montserrat;font-weight:600;}.cls-28{letter-spacing:0.01em;}.cls-29{letter-spacing:-0.01em;}.cls-30{letter-spacing:-0.01em;}.cls-31{letter-spacing:0em;}.cls-32{letter-spacing:-0.01em;}.cls-33{letter-spacing:-0.01em;}.cls-34{letter-spacing:-0.02em;}.cls-35{letter-spacing:-0.02em;}</style><linearGradient id="linear-gradient" x1="84.36" y1="-45.36" x2="84.36" y2="37.73" gradientTransform="matrix(1, 0, 0, -1, -28, 239.36)" gradientUnits="userSpaceOnUse"><stop offset="0" stop-color="gray" stop-opacity="0.25"/><stop offset="0.54" stop-color="gray" stop-opacity="0.12"/><stop offset="1" stop-color="gray" stop-opacity="0.1"/></linearGradient><linearGradient id="linear-gradient-2" x1="351.42" y1="-41.29" x2="351.42" y2="45.73" xlink:href="#linear-gradient"/><linearGradient id="linear-gradient-3" x1="-744.21" y1="74.17" x2="-744.21" y2="172.25" gradientTransform="translate(-599.82 239.36) rotate(180)" xlink:href="#linear-gradient"/></defs><title>why-1</title><path class="cls-1" d="M385.7,182.89c0-23.1-9.77-43.5-24.69-55.77.2-2.33.31-4.7.31-7.1,0-37.5-25.75-67.91-57.5-67.91a50.6,50.6,0,0,0-27.92,8.53C253.42,43.42,224.07,33,192,33c-52.25,0-97.18,27.59-117.12,67.16-1.11-.07-2.22-.11-3.35-.11-31.76,0-57.5,30.4-57.5,67.9a76.6,76.6,0,0,0,9.46,37.33h0a61.11,61.11,0,0,0,61.1,61.1H329.24a48,48,0,0,0,48-48h0A77,77,0,0,0,385.7,182.89Z" transform="translate(-7.11 -33)"/><path class="cls-2" d="M225.68,248.94s-4-2.63-8-.76c0,0,1.22,2.35,6.23,2.13Z" transform="translate(-7.11 -33)"/><path class="cls-2" d="M226.17,249.08s1.22,4.63-1.83,7.78c0,0-1.83-1.91,0-6.58Z" transform="translate(-7.11 -33)"/><path class="cls-2" d="M231.15,244.64s-.29-3.93-9.18-2.63c0,0,0,2.54,3.08,3.74S229.6,245.94,231.15,244.64Z" transform="translate(-7.11 -33)"/><path class="cls-2" d="M231.7,244.62s3.76,1.2.41,9.54a4.26,4.26,0,0,1-2.92-3.87C228.75,247,230.07,245.82,231.7,244.62Z" transform="translate(-7.11 -33)"/><path class="cls-2" d="M236.73,239s.51-6.47-8.57-5.81c0,0-.64,5.86,7,7.37Z" transform="translate(-7.11 -33)"/><path class="cls-2" d="M242.73,231.72s-1.24-7.33-10.32-5.15c0,0,0,6.35,8.84,6.9Z" transform="translate(-7.11 -33)"/><path class="cls-2" d="M247.12,224.17S245,217,236,219.16c0,0,2.14,6.43,10.48,6.33Z" transform="translate(-7.11 -33)"/><path class="cls-2" d="M251.28,216.79s-2-7.42-10.71-5.2c0,0,2.89,7,10.14,6.46Z" transform="translate(-7.11 -33)"/><path class="cls-2" d="M254,209.77s-1.57-9.07-9.66-7.06c0,0,2.35,8.25,9.06,8.38Z" transform="translate(-7.11 -33)"/><path class="cls-2" d="M256.49,201.3s-1.88-9.14-10.07-6.48c0,0,3.22,8.64,9.5,7.75Z" transform="translate(-7.11 -33)"/><path class="cls-2" d="M258.05,193.42s-3-9.14-9.32-8.9c0,0,3.05,9.66,8.79,10.73Z" transform="translate(-7.11 -33)"/><path class="cls-2" d="M259,185.73s-3.25-11-8.41-10.16c0,0,2.25,8.41,8.22,11.87Z" transform="translate(-7.11 -33)"/><path class="cls-2" d="M259.6,176.54s-3.05-9.17-8.14-9.54c0,0,2.08,9,8,11.92Z" transform="translate(-7.11 -33)"/><path class="cls-2" d="M260.21,168s-3.79-9.18-7.16-9.39c0,0,1.65,9,6.83,10.9Z" transform="translate(-7.11 -33)"/><path class="cls-2" d="M260.64,160s-2.34-10-5.7-10.8c0,0,.46,8.15,5.36,11.54Z" transform="translate(-7.11 -33)"/><path class="cls-2" d="M261.9,149.59s-2.46-8-5.18-9.16c0,0,.54,9.37,4.55,11.11Z" transform="translate(-7.11 -33)"/><path class="cls-2" d="M263,142.74l.49-14s-5.07,10.58-.87,16.49Z" transform="translate(-7.11 -33)"/><path class="cls-2" d="M266.87,128.82s3.66-10.24,4.54-10.81c0,0-7.17,6.64-6.47,15.18Z" transform="translate(-7.11 -33)"/><path class="cls-2" d="M237,239s6.44-.85,6.25,8.25c0,0-5.82.95-7.72-6.57Z" transform="translate(-7.11 -33)"/><path class="cls-2" d="M243,231.48s7.44,0,6.83,9.29c0,0-6.24,1.12-8.3-7.53Z" transform="translate(-7.11 -33)"/><path class="cls-2" d="M247.19,224.77s6.76-3.17,11.08,5c0,0-6.24,2.64-11.68-3.69Z" transform="translate(-7.11 -33)"/><path class="cls-2" d="M251.43,216.85s6.92-3.37,11,4.62c0,0-7.2,2.48-11.55-3.35Z" transform="translate(-7.11 -33)"/><path class="cls-2" d="M253.88,210s6.66-6.36,12,.07c0,0-6.8,5.24-12.27,1.35Z" transform="translate(-7.11 -33)"/><path class="cls-2" d="M256.11,201.09s6.7-6.51,12,.3c0,0-7.52,5.33-12.21,1.06Z" transform="translate(-7.11 -33)"/><path class="cls-2" d="M257.36,193.16s5.16-8.12,11.24-6.31c0,0-5.36,8.6-11.18,8.22Z" transform="translate(-7.11 -33)"/><path class="cls-2" d="M258.88,185.68s5.21-10.23,10.12-8.46c0,0-3.75,7.86-10.25,10.17Z" transform="translate(-7.11 -33)"/><path class="cls-2" d="M259.24,176s5.35-8.06,10.35-7.07c0,0-4.37,8.16-10.87,9.4Z" transform="translate(-7.11 -33)"/><path class="cls-2" d="M259.65,167.8s4.14-9,7.51-9.11c0,0-2,9-7.23,10.63Z" transform="translate(-7.11 -33)"/><path class="cls-2" d="M260.47,159.82s4.6-9.15,8.06-9.17c0,0-2.35,7.83-7.91,10Z" transform="translate(-7.11 -33)"/><path class="cls-2" d="M261.16,150.15s3.45-7.57,6.3-8.43c0,0-1.73,9.23-5.92,10.44Z" transform="translate(-7.11 -33)"/><path class="cls-2" d="M263.36,142.48l7.7-11.72s-2,11.56-8.83,14Z" transform="translate(-7.11 -33)"/><path class="cls-2" d="M268.64,129.76s8.95-6.18,9.27-7.17c0,0-4.56,8.64-13,10.17Z" transform="translate(-7.11 -33)"/><path class="cls-2" d="M269.18,127s10.27-9.87,12.89-9.86a16.78,16.78,0,0,0-13.14,9.34Z" transform="translate(-7.11 -33)"/><path class="cls-3" d="M261.26,151.62l.38,0c1.93-15.11,4.74-24,7.92-25.14l-.13-.36C266.06,127.34,263.24,136.14,261.26,151.62Z" transform="translate(-7.11 -33)"/><path class="cls-3" d="M258.42,187.74l.57,0c.12-1.41.21-2.86.27-4.29.54-12.51,1.38-24,2.48-32.6l-.33-.4c-1.1,8.62-2.18,20.45-2.72,33C258.63,184.9,258.54,186.34,258.42,187.74Z" transform="translate(-7.11 -33)"/><path class="cls-3" d="M215.14,256.14c.1-.05,10.05-4.49,20.38-15.09a81.83,81.83,0,0,0,14.89-21.11c4.78-9.72,7.69-21.67,8.67-33.28l-.59.28C256.3,213,244.43,230.81,235,240.5c-10.23,10.5-20.07,14.9-20.17,14.94Z" transform="translate(-7.11 -33)"/><path class="cls-4" d="M218.59,131.16V253.91c0,3.65-3.52,6.62-7.87,6.62H44.18c-4.35,0-7.87-3-7.87-6.62V131.16c0-3.66,3.52-7.38,7.87-7.38H210.72C215.07,123.78,218.59,127.5,218.59,131.16Z" transform="translate(-7.11 -33)"/><path class="cls-5" d="M218.59,131.65v19.29H36.31V131.65a7.87,7.87,0,0,1,7.87-7.87H210.72a7.87,7.87,0,0,1,7.87,7.86Z" transform="translate(-7.11 -33)"/><circle class="cls-4" cx="39.2" cy="104.36" r="5.26"/><circle class="cls-4" cx="54.51" cy="104.36" r="5.26"/><circle class="cls-4" cx="69.82" cy="104.36" r="5.26"/><path class="cls-6" d="M80.54,260.3s-5.09,1.23-7.11,3.53a6.82,6.82,0,0,1-2.7,1.72v-3.48c1.16-1.95,2.33-4.12,2.33-4.12s.48-1.61.48-1.61c.95-.75-.05-3.37-.05-3.37s.58-1.66.26-2,0-1.18.21-1.55a1.94,1.94,0,0,0,.22-1.18c0-.32-.43-.8-1.12-1.07s.06-.7.48-.8.53-1.13,0-1.66.06-.86.32-1.45-.85-.48-.85-.48v-5.4h0s-.31-1.76-.63-4.87-1.54-3.42-1.54-3.42a13.51,13.51,0,0,1-1.91-.75,12.16,12.16,0,0,0-2-.75,10.38,10.38,0,0,1-2.6-.36,8.21,8.21,0,0,0-1.77-.38l-.19-.1a6.94,6.94,0,0,1-3.22-3.41l-.09-.21A7.77,7.77,0,0,0,60,222h0c0,.06,0,.11,0,.17a.2.2,0,0,1,0,.07v.39h0c.85-1.49,3.3-1.83,3.53-3.54a1.64,1.64,0,0,0,0-.23h0c0-.06,0-.12,0-.17,0-.48-.19-.95-.23-1.43,0-.14,0-.28,0-.42h0c.11-1.32,1.11-2.48,1.57-3.76a5,5,0,0,0,.24-1.07h0c0-.11,0-.22,0-.33v-.32a5,5,0,0,0-1.66-3.61c-.84-.74-2-1.2-2.54-2.16-.27-.45-.41-1-.71-1.4a3.54,3.54,0,0,0-2.56-1.26,15,15,0,0,1-2.91-.39c-.66-.21-1.26-.6-1.92-.79a3.68,3.68,0,0,0-4,1.43,6.84,6.84,0,0,1-1.06,1.53c-1,.82-2.62.46-3.47,1.41a2.49,2.49,0,0,0-.46,1.95v0c0,.05,0,.11,0,.17v.16c0,.26.07.52.1.76,0,0,0,.08,0,.12s0,.15,0,.23,0,.11,0,.17,0,.14,0,.21a1,1,0,0,1,0,.17,11.37,11.37,0,0,1-1.21,5.7c-.81,1.58-2,3-2.21,4.79a4.92,4.92,0,0,0,0,.86.31.31,0,0,0,0,.1c0,.06,0,.11,0,.16s0,.12,0,.18,0,.07,0,.1,0,.16,0,.24v.05c.21,1.2.69,2.38.94,3.58a10.35,10.35,0,0,1,.19,1.36h0c0,.15,0,.29,0,.44s0,.39,0,.59a11.06,11.06,0,0,1-1.24.38c-.74.1-2.91,2-2.76,2.51s-1,3.86-1,4h0L35.08,247.4s-.94.91-.65,1.5a2.56,2.56,0,0,1-.06,1.61s-1.59.69-1.24,1.12a1.83,1.83,0,0,1-.05,1.77c-.24.53-.64,1.5,0,1.66s.11,2.24.11,2.24,2.24-.25,2.07,1.07c0,.43,1.57,1.59,2.24,2.06v6.39a20.66,20.66,0,0,1-2.65-.9c-1.37-.64-9.11-1.87-10.81,1.82s2.33,8.62,3.34,9.15A6.69,6.69,0,0,1,28.55,278c.21.37,1.43.48,1.43.48a9.14,9.14,0,0,1,1.59.91A18,18,0,0,0,36,280.74h0s-1.86,4.27,1.17,3.92,4.5-1.84,6.63-1.84c.85,0,2.44-.12,4-.27a12.09,12.09,0,0,1,1.19.28,14.5,14.5,0,0,0,2.75.59s2.39,1.29,3.66,1a1.18,1.18,0,0,0,.29-.16h0a1.74,1.74,0,0,0,.76-.66,21.89,21.89,0,0,1,4.09.66c1.32.51,10.75-.2,10.75-.2s6.09.12,7.83.65,1.13-5.39-2.09-6.06a13.58,13.58,0,0,0-2.62-.23,6.32,6.32,0,0,0,.61-.74l1.92-.17s3.07-1.5,4.82-2.41a10.9,10.9,0,0,0,3-2.35s1.54-1,2.17-1.34,1-1.61,1-1.61C92.78,258.86,80.54,260.3,80.54,260.3Zm-13.8-13.69v-.54c.17.12.14.31,0,.53Zm.05,3.78c.12.17.25.32.34.44.34.44-.28.65-.23,1.39,0,.16,0,.39,0,.65h0c-.07-1.06-.12-1.93-.15-2.48Z" transform="translate(-7.11 -33)"/><path class="cls-7" d="M39.2,267.28A32,32,0,0,1,34.85,266c-1.37-.64-9.11-1.86-10.81,1.8s2.33,8.53,3.34,9.06,10.81-6.73,10.81-6.73l7.74,3.26,1.48-5.06Z" transform="translate(-7.11 -33)"/><rect class="cls-7" x="35.37" y="235.29" width="33.67" height="11.71" rx="5.39"/><path class="cls-8" d="M76.14,274.14A5.86,5.86,0,0,1,70.28,280h-22a5.86,5.86,0,0,1,0-11.71h22a5.85,5.85,0,0,1,5.86,5.85Z" transform="translate(-7.11 -33)"/><path class="cls-9" d="M57.81,274.49a28.2,28.2,0,0,1-6.13.82c-2.76,0-15.64,5.32-15.64,5.32s-1.86,4.23,1.17,3.88,4.5-1.82,6.63-1.82,8.85-.74,8.85-.74l6.46-4.77Z" transform="translate(-7.11 -33)"/><path class="cls-9" d="M59.92,234.58l-6.05,1.2-.4.07s-4.78-1.27-4.94-1.37-4.51-6-4.51-6a8.71,8.71,0,0,0,3.93-1l.18-.11a3.81,3.81,0,0,0,1.64-2c0-.09,0-.18.08-.27a5.36,5.36,0,0,0-.05-2.61c-.59-2.47.77-3.15,2.58-3.09a20.34,20.34,0,0,1,6.16,1.72,7.43,7.43,0,0,0,.56,2.41l.09.22a6.9,6.9,0,0,0,3.22,3.37l.19.1.61.26C67.82,229.28,59.92,234.58,59.92,234.58Z" transform="translate(-7.11 -33)"/><path class="cls-8" d="M59.19,223.81a7.62,7.62,0,0,1-9.42,1.62,5.22,5.22,0,0,0,0-2.88c-1.43-6,8.74-1.37,8.74-1.37A7.27,7.27,0,0,0,59.19,223.81Z" transform="translate(-7.11 -33)"/><path class="cls-9" d="M61.1,218.44a7.49,7.49,0,0,1-1.15,4,7.09,7.09,0,0,1-.85,1.11,7.58,7.58,0,0,1-5.17,2.47h-.46a7.63,7.63,0,1,1,7.63-7.63Z" transform="translate(-7.11 -33)"/><path class="cls-8" d="M59.92,234.58l-6.05,1.2-.4.07s-4.78-1.27-4.94-1.37-4.51-6-4.51-6a8.71,8.71,0,0,0,3.93-1l.18-.11a7.12,7.12,0,0,0,5.16,2.26,7.62,7.62,0,0,0,1.08-.08c.85-.14,1.71-.22,2.57-.31,1.64-.17,4.15-.67,5.47-2.12l.19.1.61.26C67.82,229.28,59.92,234.58,59.92,234.58Z" transform="translate(-7.11 -33)"/><path class="cls-2" d="M66.76,250.06c0,1.16.9,14.31.9,14.31H41.21l.18-8.28.15-6.62.05-2.17.21-7.52L41,239.1l-4.16-3.67h0c0-.1,1.16-3.45,1-3.92s2-2.38,2.76-2.49a10.46,10.46,0,0,0,1.24-.38,16.77,16.77,0,0,1,3.11-1,18.89,18.89,0,0,0,3-.12h0A7.09,7.09,0,0,0,53.29,230a6.38,6.38,0,0,0,1.08-.09c.85-.13,1.71-.21,2.57-.3,1.72-.18,4.4-.72,5.66-2.34a7.66,7.66,0,0,1,1.77.38A10.85,10.85,0,0,0,67,228a13.09,13.09,0,0,1,2,.74,13.51,13.51,0,0,0,1.91.75s1.22.31,1.54,3.39.63,4.82.63,4.82l-6.3,5.46S66.7,248.89,66.76,250.06Z" transform="translate(-7.11 -33)"/><polygon class="cls-9" points="29.76 226.23 30.69 227.71 34.16 228.93 36.55 224.58 34.35 223.1 30.82 221.72 28.81 222.89 29.76 226.23"/><path class="cls-7" d="M66.49,266.54s4.93-.37,6.94-2.65,7.11-3.5,7.11-3.5S92.78,259,88,269.77c0,0-.32,1.22-1,1.59s-2.17,1.33-2.17,1.33L66,271Z" transform="translate(-7.11 -33)"/><path class="cls-8" d="M76.14,274.14a5.82,5.82,0,0,1-1,3.24c-3.16.28-10.17.94-11.63,1.35-1.81.5-5.45-.37-5.85-.47h0s-.7-2.13-1-3.49c-.15-.62-.22-1.09-.12-1.12.31-.11,3.23-.9,3.18-.45s8.74-3.42,8.74-3.42l.27,3.39C69.57,274.19,76.14,272.67,76.14,274.14Z" transform="translate(-7.11 -33)"/><path class="cls-7" d="M85.2,271.31l-.37,1.38a11,11,0,0,1-3,2.33c-1.75.9-4.82,2.38-4.82,2.38s-11.29,1-13.2,1.49-5.88-.48-5.88-.48-1.48-4.5-1.17-4.61,3.24-.9,3.18-.45,8.75-3.42,8.75-3.42Z" transform="translate(-7.11 -33)"/><path class="cls-9" d="M53.77,283.19s5.55.39,6.87.89,10.75-.19,10.75-.19,6.09.12,7.83.64,1.13-5.34-2.09-6a23.27,23.27,0,0,0-7.76.31l-5.74-.73c-.62-.08-4.72,0-4.72,0Z" transform="translate(-7.11 -33)"/><path class="cls-8" d="M32,268.56s7.33.66,9.35,1.87Z" transform="translate(-7.11 -33)"/><path class="cls-8" d="M77.71,263.75s-5.74,1.4-8,3.46Z" transform="translate(-7.11 -33)"/><path class="cls-8" d="M32.4,266.9c.11,0,3.37.46,3.29.77S32.4,266.9,32.4,266.9Z" transform="translate(-7.11 -33)"/><path class="cls-8" d="M27.28,275.07l.42,1.59a7.69,7.69,0,0,1,1.17,1.11c.21.38,1.43.48,1.43.48a8.94,8.94,0,0,1,1.59.9c.31.32,3.76,1.33,7,1.75s9.22,1.22,10.49,1.64a15.42,15.42,0,0,0,2.76.59s2.39,1.27,3.66.95S59.23,278,59.23,278s-8.37-2-8.64-2.6-8.32-3.6-8.32-3.6l-4.77.11Z" transform="translate(-7.11 -33)"/><path class="cls-7" d="M27,275.23l.42,1.59a7.23,7.23,0,0,1,1.17,1.11c.21.37,1.43.48,1.43.48a8.94,8.94,0,0,1,1.59.9,26,26,0,0,0,7,1.75c3.24.42,9.22,1.22,10.5,1.64a15.32,15.32,0,0,0,2.75.59s2.39,1.27,3.66.95,3.44-6.09,3.44-6.09-8.37-2-8.63-2.6-12.09-5.46-12.09-5.46l-3.71-.85Z" transform="translate(-7.11 -33)"/><path class="cls-2" d="M37.79,234.9l-.92.53-1.79,12.19s-.94.9-.65,1.48a2.5,2.5,0,0,1-.06,1.59s-1.59.69-1.24,1.12a1.79,1.79,0,0,1-.05,1.75c-.24.53-.64,1.48,0,1.64s.11,2.22.11,2.22,2.24-.25,2.07,1.06c-.06.53,2.53,2.23,2.53,2.23s-2.95-5.35,3.66-4.61l.57-3s.57-1.7,0-2.23.13-3,.13-3l.12-10.95Z" transform="translate(-7.11 -33)"/><path class="cls-8" d="M36.35,250.64c.12.2,3.69.59,3.92,1.23S36.35,250.64,36.35,250.64Z" transform="translate(-7.11 -33)"/><path class="cls-8" d="M35.23,253.67s.48-1.52,1.64-1.24S35.23,253.67,35.23,253.67Z" transform="translate(-7.11 -33)"/><path class="cls-8" d="M34.61,255.88s.85-2,2-1.86S34.61,255.88,34.61,255.88Z" transform="translate(-7.11 -33)"/><path class="cls-9" d="M73.43,255.83l-.37,2.23s-3.81,7-4.5,7.1-4.45-4.66-4.45-4.66l-1-4.67,4-.75,1.76-1.74S73.28,253.77,73.43,255.83Z" transform="translate(-7.11 -33)"/><path class="cls-2" d="M71.63,236.7l1.43,1v5.35s1.12-.1.85.48-.79.9-.32,1.43.37,1.54,0,1.64-1.17.53-.48.8,1.12.74,1.12,1.06a1.87,1.87,0,0,1-.22,1.16c-.26.37-.53,1.22-.21,1.54s-.26,2-.26,2,1,2.6.05,3.34c0,0-.42,1.48-.48,1.59s.67-5.16-6-3c0,0-.12-2-.16-2.69s.57-.94.23-1.38-1.2-1.43-.8-1.69.27-.75.11-1.12-.72-.37-.21-.82.8-.87.51-1.08-.82-.91-.41-1.22.43-4.93.43-4.93S68.45,233.36,71.63,236.7Z" transform="translate(-7.11 -33)"/><path class="cls-8" d="M71,245.82s2-.55,2.1,0S71,245.82,71,245.82Z" transform="translate(-7.11 -33)"/><path class="cls-8" d="M68.67,247.34s2.79-.69,3.14-.15S68.67,247.34,68.67,247.34Z" transform="translate(-7.11 -33)"/><path class="cls-8" d="M68.05,248.82s4.19-.58,4.46.27S68.05,248.82,68.05,248.82Z" transform="translate(-7.11 -33)"/><path class="cls-8" d="M68.67,250.64c.16,0,4,.31,4.11,1.05S68.67,250.64,68.67,250.64Z" transform="translate(-7.11 -33)"/><rect class="cls-10" x="30.4" y="220.03" width="33.22" height="18.87" rx="3.4"/><circle class="cls-11" cx="47.01" cy="229.47" r="1.23"/><path class="cls-8" d="M43.07,241.46s3.18,2.44,5.64.58C48.71,242,44.55,242.42,43.07,241.46Z" transform="translate(-7.11 -33)"/><path class="cls-8" d="M59.19,242.12s3.19,2.43,5.65.58C64.84,242.7,60.68,243.08,59.19,242.12Z" transform="translate(-7.11 -33)"/><path class="cls-8" d="M61.1,218.44a7.49,7.49,0,0,1-1.15,4,11.76,11.76,0,0,0-1.72-6c-1.06-1.62-4.28-4.47-6.49-3.68a1.57,1.57,0,0,0-1,1c-.22.83.42,1.18.84,1.84a5.66,5.66,0,0,1,.77,3.81c0,.18-.07.35-.11.53-.35,1.3-1.15,2.8-.33,3.87.58.75,1.81,1,2,1.94a1.11,1.11,0,0,1,0,.26c0,.62-.57,1.17-.8,1.79a3,3,0,0,0,.16,2.16,13.61,13.61,0,0,1,1.1,2.9,5.77,5.77,0,0,1-.52,2.87,12.19,12.19,0,0,0-.88,2.7c-.26,1.76.39,3.79-.72,5.19a.77.77,0,0,1-.48.32c-.71.08-.59-1.2-1.16-1.63a5.13,5.13,0,0,1-.15,2.21,1.69,1.69,0,0,1-1.71,1.17c-.08-.56-.17-1.11-.25-1.67a4.82,4.82,0,0,1-1.77,1.11,13,13,0,0,1,1.84-5c-1.86.9-3,2.84-3.92,4.67a6,6,0,0,0-1,3.67c.08.52.31,1,.36,1.54a1.29,1.29,0,0,1-.63,1.34,1.15,1.15,0,0,1-1.23-.38l0-.07a.94.94,0,0,1-.09-.12,2,2,0,0,1-.14-.25,5.45,5.45,0,0,1-.3-1l0-.15a17.14,17.14,0,0,1-.58-6.59,12.61,12.61,0,0,0,.35-2.42A4.52,4.52,0,0,0,41,239.1c-.43-1.21-1.26-2.32-1.74-3.54v0a1.94,1.94,0,0,1,.09-2,4,4,0,0,1,.88-.6,4,4,0,0,0,1.51-2.83,9.26,9.26,0,0,0,.11-1.49,16.77,16.77,0,0,1,3.11-1,18.89,18.89,0,0,0,3-.12,3.9,3.9,0,0,0,1.82-2.11c0-.09,0-.18.08-.27a7.63,7.63,0,1,1,11.25-6.72Z" transform="translate(-7.11 -33)"/><path class="cls-10" d="M52.27,219.67c-.35,1.31-1.15,2.8-.33,3.88.58.74,1.81,1,2,1.93.13.73-.53,1.35-.79,2.05-.63,1.66,1,3.3,1.26,5.06.27,1.91-1.12,3.66-1.4,5.57-.26,1.76.39,3.8-.72,5.19a.78.78,0,0,1-.48.33c-.71.07-.59-1.21-1.16-1.63a5.08,5.08,0,0,1-.15,2.2,1.69,1.69,0,0,1-1.71,1.17l-.25-1.67a4.82,4.82,0,0,1-1.77,1.11,13,13,0,0,1,1.84-5c-1.86.9-3,2.85-3.92,4.68a6,6,0,0,0-1,3.66c.08.52.31,1,.36,1.54a1.29,1.29,0,0,1-.63,1.34,1.16,1.16,0,0,1-1.28-.45,3.4,3.4,0,0,1-.53-1.34,17.53,17.53,0,0,1-.61-6.74,12.39,12.39,0,0,0,.35-2.42c-.07-1.79-1.39-3.26-2-4.93a1.94,1.94,0,0,1,.09-2,4,4,0,0,1,.88-.6,4,4,0,0,0,1.51-2.83,9.79,9.79,0,0,0-.1-3.54c-.37-1.74-1.23-3.44-1-5.21s1.4-3.18,2.21-4.74A11.21,11.21,0,0,0,44,209.78c-.14-1.05-.38-2.26.33-3,.85-.94,2.5-.58,3.47-1.4a6.5,6.5,0,0,0,1.06-1.51,3.69,3.69,0,0,1,4-1.41c.66.19,1.26.57,1.92.78a14.24,14.24,0,0,0,2.91.38,3.57,3.57,0,0,1,2.56,1.25c.3.43.44.95.71,1.39.58.95,1.7,1.41,2.54,2.13a5,5,0,0,1,1.4,5.28c-.51,1.41-1.68,2.65-1.58,4.14a9.43,9.43,0,0,1,.22,1.82c-.23,1.69-2.68,2-3.53,3.5a12.11,12.11,0,0,0-1.72-7c-1.06-1.63-4.28-4.48-6.49-3.69a1.57,1.57,0,0,0-1,1c-.22.83.42,1.18.84,1.84A5.66,5.66,0,0,1,52.27,219.67Z" transform="translate(-7.11 -33)"/><g class="cls-12"><path d="M41.87,228.07a9.65,9.65,0,0,0-.21-2.27,27,27,0,0,1-1-4.42c-.09,1.66.69,3.26,1,4.9A9,9,0,0,1,41.87,228.07Z" transform="translate(-7.11 -33)"/><path d="M48.19,240.1c.13-.23.26-.47.4-.69-1.86.89-3,2.84-3.92,4.67a6.51,6.51,0,0,0-1.05,3.38,7.47,7.47,0,0,1,1.05-2.9C45.57,242.86,46.57,241.08,48.19,240.1Z" transform="translate(-7.11 -33)"/><path d="M44,249.69a1,1,0,0,1-1.9.49,3.5,3.5,0,0,1-.53-1.35,24.32,24.32,0,0,1-.74-4.81,22.2,22.2,0,0,0,.74,5.29,3.4,3.4,0,0,0,.53,1.34,1.16,1.16,0,0,0,1.28.45,1.28,1.28,0,0,0,.63-1.34S44,249.72,44,249.69Z" transform="translate(-7.11 -33)"/><path d="M52.44,218.08a6.06,6.06,0,0,1-.17,1.12,9.37,9.37,0,0,0-.68,3,16.79,16.79,0,0,1,.68-2.49A5.73,5.73,0,0,0,52.44,218.08Z" transform="translate(-7.11 -33)"/><path d="M44.07,211a9.58,9.58,0,0,0-.09-1.69c0-.41-.12-.85-.14-1.28a9.43,9.43,0,0,0,.14,1.76A8.21,8.21,0,0,1,44.07,211Z" transform="translate(-7.11 -33)"/><path d="M53.92,225.49s0,0,0,0a11.87,11.87,0,0,1-.78,1.61,2.3,2.3,0,0,0-.13,1,2.17,2.17,0,0,1,.13-.56C53.4,226.84,54.05,226.22,53.92,225.49Z" transform="translate(-7.11 -33)"/><path d="M41.31,239.67c-.07-1.79-1.39-3.25-2-4.93a3.71,3.71,0,0,1-.21-.81,2.85,2.85,0,0,0,.21,1.29c.63,1.64,1.92,3.09,2,4.84C41.31,239.93,41.31,239.8,41.31,239.67Z" transform="translate(-7.11 -33)"/><path d="M58.23,215.67C57.17,214,54,211.19,51.74,212a1.55,1.55,0,0,0-1,1,1,1,0,0,0,0,.55.25.25,0,0,1,0-.08,1.6,1.6,0,0,1,1-1c2.21-.79,5.43,2.06,6.49,3.69A11.72,11.72,0,0,1,60,222.42,12,12,0,0,0,58.23,215.67Z" transform="translate(-7.11 -33)"/><path d="M63.48,219.12c-.23,1.69-2.67,2-3.52,3.5,0,.16,0,.32,0,.48.85-1.48,3.3-1.81,3.53-3.5a2.09,2.09,0,0,0,0-.5Z" transform="translate(-7.11 -33)"/><path d="M64.84,213.17c-.51,1.4-1.67,2.64-1.58,4.13a.17.17,0,0,1,0,.07c.11-1.31,1.11-2.45,1.57-3.73a4.85,4.85,0,0,0,.26-1.81A4.75,4.75,0,0,1,64.84,213.17Z" transform="translate(-7.11 -33)"/><path d="M52.27,242.88a.74.74,0,0,1-.48.33c-.71.07-.59-1.2-1.16-1.63l0,.51c.53.46.43,1.67,1.13,1.6a.78.78,0,0,0,.48-.33,4.26,4.26,0,0,0,.68-2.84A3.73,3.73,0,0,1,52.27,242.88Z" transform="translate(-7.11 -33)"/><path d="M50.48,243.79A1.7,1.7,0,0,1,48.77,245l-.25-1.66a4.87,4.87,0,0,1-1.68,1.07l-.09.51a4.93,4.93,0,0,0,1.77-1.1l.25,1.66a1.7,1.7,0,0,0,1.71-1.16,3.88,3.88,0,0,0,.19-1.51A3.29,3.29,0,0,1,50.48,243.79Z" transform="translate(-7.11 -33)"/><path d="M53,237.69a7.63,7.63,0,0,0-.06,1.35,6.36,6.36,0,0,1,.06-.87c.27-1.82,1.54-3.49,1.43-5.3C54.31,234.5,53.23,236,53,237.69Z" transform="translate(-7.11 -33)"/></g><path class="cls-4" d="M254.11,99.88v31.9a3.38,3.38,0,0,1-3.63,3.05H173.67a3.38,3.38,0,0,1-3.63-3.05V99.88a3.65,3.65,0,0,1,3.63-3.41h76.81A3.66,3.66,0,0,1,254.11,99.88Z" transform="translate(-7.11 -33)"/><path class="cls-5" d="M254.11,100.1V109H170v-8.9a3.63,3.63,0,0,1,3.63-3.63h76.81a3.64,3.64,0,0,1,3.63,3.63Z" transform="translate(-7.11 -33)"/><circle class="cls-4" cx="167.54" cy="69.74" r="2.43"/><circle class="cls-4" cx="174.6" cy="69.74" r="2.43"/><circle class="cls-4" cx="181.66" cy="69.74" r="2.43"/><circle class="cls-2" cx="230.44" cy="88.71" r="9.49"/><rect class="cls-2" x="170.19" y="82.33" width="40.01" height="1.41"/><rect class="cls-5" x="170.19" y="85.77" width="40.01" height="1.41"/><rect class="cls-5" x="170.19" y="89.21" width="40.01" height="1.41"/><rect class="cls-5" x="170.19" y="92.66" width="40.01" height="1.41"/><path class="cls-2" d="M223.43,179.74a5.37,5.37,0,0,0-4.67,1.26s1.19,1.07,4-.12Z" transform="translate(-7.11 -33)"/><path class="cls-2" d="M223.73,179.72a5.33,5.33,0,0,1,.61,4.79s-1.44-.69-1.4-3.72Z" transform="translate(-7.11 -33)"/><path class="cls-2" d="M225.61,176.15s-1-2.16-5.75.45a2.55,2.55,0,0,0,2.53,1.47A3.08,3.08,0,0,0,225.61,176.15Z" transform="translate(-7.11 -33)"/><path class="cls-2" d="M225.92,176s2.38-.11,2.25,5.32a2.56,2.56,0,0,1-2.47-1.58A3.09,3.09,0,0,1,225.92,176Z" transform="translate(-7.11 -33)"/><path class="cls-2" d="M227.59,171.8s-1.09-3.78-6.09-1.48c0,0,.88,3.45,5.51,2.7Z" transform="translate(-7.11 -33)"/><path class="cls-2" d="M229.44,166.39s-2.26-3.9-6.94-.74c0,0,1.33,3.6,6.47,2Z" transform="translate(-7.11 -33)"/><path class="cls-2" d="M230.32,161.18s-2.69-3.62-7.33-.49c0,0,2.57,3.18,7.27,1.36Z" transform="translate(-7.11 -33)"/><path class="cls-2" d="M231.12,156.12s-2.72-3.77-7.17-.67c0,0,3.13,3.37,7.11,1.5Z" transform="translate(-7.11 -33)"/><path class="cls-2" d="M231.16,151.58s-2.81-4.81-7-2c0,0,3.08,4.18,6.91,2.83Z" transform="translate(-7.11 -33)"/><path class="cls-2" d="M230.79,146.25s-3-4.78-7.07-1.55c0,0,3.65,4.22,7,2.38Z" transform="translate(-7.11 -33)"/><path class="cls-2" d="M230,141.45s-3.62-4.54-7.15-3.06c0,0,3.77,4.82,7.24,4.21Z" transform="translate(-7.11 -33)"/><path class="cls-2" d="M228.94,136.89s-4.17-5.55-6.91-4c0,0,3.05,4.29,7.17,5Z" transform="translate(-7.11 -33)"/><path class="cls-2" d="M227.31,131.57s-3.66-4.56-6.62-3.69c0,0,3.08,4.68,7.06,5.06Z" transform="translate(-7.11 -33)"/><path class="cls-2" d="M225.85,126.59s-4.09-4.4-6-3.8c0,0,2.85,4.77,6.17,4.72Z" transform="translate(-7.11 -33)"/><path class="cls-2" d="M224.4,122s-3.43-5.15-5.51-4.91c0,0,2,4.52,5.48,5.4Z" transform="translate(-7.11 -33)"/><path class="cls-2" d="M222.91,115.82s-3.07-4-4.87-4.09c0,0,2.29,5.19,4.93,5.32Z" transform="translate(-7.11 -33)"/><path class="cls-2" d="M222.06,111.72l-2.69-8s-.63,7.06,3,9.52Z" transform="translate(-7.11 -33)"/><path class="cls-2" d="M221.34,103s-.1-6.57.28-7.08c0,0-2.66,5.28-.46,10Z" transform="translate(-7.11 -33)"/><path class="cls-2" d="M227.72,171.72s3.47-1.84,5.28,3.35c0,0-3.09,1.77-5.76-2.09Z" transform="translate(-7.11 -33)"/><path class="cls-2" d="M229.56,166.18s4.21-1.59,5.84,3.82c0,0-3.31,1.95-6.3-2.51Z" transform="translate(-7.11 -33)"/><path class="cls-2" d="M230.49,161.5s3.16-3.22,7.33.5c0,0-3,2.81-7.39.38Z" transform="translate(-7.11 -33)"/><path class="cls-2" d="M231.22,156.12s3.2-3.37,7.19.3c0,0-3.55,2.93-7.25.54Z" transform="translate(-7.11 -33)"/><path class="cls-2" d="M231.15,151.71s2.42-5,6.79-2.49c0,0-2.74,4.4-6.67,3.35Z" transform="translate(-7.11 -33)"/><path class="cls-2" d="M230.53,146.2s2.42-5.1,6.84-2.36c0,0-3.13,4.62-6.69,3.19Z" transform="translate(-7.11 -33)"/><path class="cls-2" d="M229.56,141.45s1.21-5.69,5-5.95c0,0-1.21,6-4.59,7Z" transform="translate(-7.11 -33)"/><path class="cls-2" d="M228.84,136.89s.78-6.89,3.94-6.93c0,0-.46,5.25-3.65,7.93Z" transform="translate(-7.11 -33)"/><path class="cls-2" d="M227,131.35s1.32-5.7,4.37-6.2c0,0-.75,5.55-4.17,7.62Z" transform="translate(-7.11 -33)"/><path class="cls-2" d="M225.49,126.61s.44-6,2.33-6.75c0,0,.77,5.5-1.85,7.55Z" transform="translate(-7.11 -33)"/><path class="cls-2" d="M224.27,121.91s.67-6.15,2.63-6.89c0,0,.32,4.92-2.37,7.32Z" transform="translate(-7.11 -33)"/><path class="cls-2" d="M222.62,116.29s.34-5,1.78-6.1c0,0,1,5.59-1.15,7.16Z" transform="translate(-7.11 -33)"/><path class="cls-2" d="M222.24,111.48l1.87-8.27s1.33,7-2,9.77Z" transform="translate(-7.11 -33)"/><path class="cls-2" d="M222.54,103.16s3.76-5.39,3.73-6c0,0-.76,5.86-5.21,8.51Z" transform="translate(-7.11 -33)"/><path class="cls-2" d="M222.25,101.47s3.73-7.76,5.22-8.31a10.13,10.13,0,0,0-5.47,8.07Z" transform="translate(-7.11 -33)"/><path class="cls-3" d="M223,117.1l.22,0c-2.1-9-2.39-14.62-.83-15.91l-.14-.18C220.57,102.34,220.83,107.92,223,117.1Z" transform="translate(-7.11 -33)"/><path class="cls-3" d="M229,138.16l.33-.1c-.23-.82-.49-1.66-.76-2.48-2.34-7.2-4.29-13.88-5.49-19l-.27-.16c1.2,5.11,3.09,12,5.44,19.24C228.54,136.5,228.79,137.34,229,138.16Z" transform="translate(-7.11 -33)"/><path class="cls-3" d="M219,186.05a44.7,44.7,0,0,0,8.34-12.86,49.45,49.45,0,0,0,4-15.1,58.09,58.09,0,0,0-2.14-20.68l-.28.28c4.28,15.22,1.33,27.82-2,35.3a44.23,44.23,0,0,1-8.25,12.73Z" transform="translate(-7.11 -33)"/><path class="cls-13" d="M360,265.75l-9-13s-.17-3.22-.76-4-.12-2.43-.12-2.43.63-.92.08-1-.08-2.13-.08-2.13l0-3.27s.5-3.15.08-3.9a1.25,1.25,0,0,1,0-1.34s.51-1.8,0-2.26-.38-3.27-.25-5.5a8.29,8.29,0,0,0-.88-3.81c0-.33-3.32-3.6-3.32-3.9s-2.1-1.51-3.36-1.84-1.89-.59-1.85-.76a9.38,9.38,0,0,0-2-.83,4,4,0,0,1-2.44-1c-.66-.87-2.73-1.14-2.79-1.14a1.16,1.16,0,0,0,0-.18l0-.19c.15-.26.3-.54.43-.82l.12-.25a3.58,3.58,0,0,0,2.07-.65,2.8,2.8,0,0,0,1-2,4.34,4.34,0,0,0-.49-2.23,3.74,3.74,0,0,1-.72-2.35c.08-.36.29-.67.4-1a2.65,2.65,0,0,0-.3-2c-.32-.61-.76-1.14-1.11-1.73a6.63,6.63,0,0,1-.89-2.46,3.83,3.83,0,0,0-.33-1.33,2.38,2.38,0,0,0-.74-.74,7.35,7.35,0,0,0-4.51-1.37,22,22,0,0,1-3.42.2,11.53,11.53,0,0,1-2-.52,5.17,5.17,0,0,0-4.26.22c-1.25.82-1.72,2.39-2.55,3.63a30.48,30.48,0,0,0-2.37,3.18s0,0,0-.06a3.53,3.53,0,0,0-.31.84,6,6,0,0,0,.18,2.78,1.94,1.94,0,0,0,.68,1.24,3.82,3.82,0,0,0,1.47.29l-.06.24a9.61,9.61,0,0,0,6.66,11.2,2.09,2.09,0,0,1,0,.25,5.81,5.81,0,0,1-.05.72h0s-4.22-.87-5.36-.28-3.36,1.05-3.69,1.38-1.18.09-1.94,2.06-.84,4-1.8,4.9-1.47,1.55-1.51,2.22.12.84-.26,1.05-.92,1.09-.75,1.42a1.2,1.2,0,0,1-.46,1.26,1.39,1.39,0,0,0-.59,1.26s-.25.92-.84,1.13-1,1.59-1,1.59l-1.9,2.19-3.78-4.17a1.6,1.6,0,0,0-2.25-.12l-1.85,1.67a3.7,3.7,0,0,0-1.86,1.1,4.92,4.92,0,0,0-1,1.43l-1,.92a2.56,2.56,0,0,0-.26,2.85l2.41,2.67,0,0a4.3,4.3,0,0,0-2.34,1c-3.61,3.18-3.66,6.12-3.11,7.46s5.13,6.49,5.13,6.49a20.47,20.47,0,0,0,6.5,5.3h0l0,0a3,3,0,0,0-.22.26l-.06.08-.06.08a.61.61,0,0,0-.07.1.35.35,0,0,0-.05.08l-.08.12a.59.59,0,0,1,0,.08l-.09.17,0,.05c0,.07-.07.15-.1.23a.2.2,0,0,1,0,.08l-.06.17s0,.07,0,.11,0,.11,0,.16,0,.08,0,.12,0,.12-.05.18l0,.12-.06.3a.5.5,0,0,0,0,.12,1.55,1.55,0,0,0,0,.21.78.78,0,0,0,0,.16l0,.2c0,.06,0,.11,0,.16a1.94,1.94,0,0,0,0,.24.76.76,0,0,0,0,.15c0,.13,0,.27,0,.41-.08,4.9.21,5.61.21,5.61a2.73,2.73,0,0,0,2.23,1.68,3.35,3.35,0,0,0,.71,0c2.19-.38,7.31-1.26,9.12-.93a15.27,15.27,0,0,0,4.53-.36l.38-.08.26.84.83-.23.7.41.45.25c.83,2.82,4.19,1.86,4.19,1.86l.8.46,8.11.21a15.8,15.8,0,0,0,2.87,1.37,1.43,1.43,0,0,0,.41.09,18.9,18.9,0,0,0,2.26.05l1.1-.05s-.08-2.2-.2-4.66a64.49,64.49,0,0,0,7.51-.62c4.33-.76,6.13-4.7,6.8-6.8a20.88,20.88,0,0,1,.43,2.61,17.9,17.9,0,0,0,.67,2.27,7.37,7.37,0,0,0,.92,1.67c3.19-1.09,1.26-2.72.59-3.44s.46-1.29.46-1.29.88-.59.8-1.14-.13-1.13,2.73-1.09S360,265.75,360,265.75ZM315.61,239a20,20,0,0,0,.79,3.5,4.25,4.25,0,0,1,.1,1.38c-1.69-.14-3.46-.21-3.46-.21a.36.36,0,0,1,.09.21l-.26-.05-.39-.1L315.6,239Zm-6.18,9.82,2.93.47.25,0a8,8,0,0,0-.15,1.38s.06.1.16.16a4,4,0,0,0-.06.69c0,.23,1.42.73,3,1.15,0,.08-.05.16-.07.24h0c-1.39-.73-3.57-1.07-3.82-1.61s-7.69-3.14-7.69-3.14-.27-.15-.74-.37l2,.37.53-.06a27.5,27.5,0,0,0,3.71.68Z" transform="translate(-7.11 -33)"/><path class="cls-7" d="M350.41,267.57s-1.17,7-7.08,8.08-25.65.83-25.65.83-11.28-1.62-15.36-11.16-6.71-13.32-3.21-13.49,22.36,6.37,23.44,6.45S351.45,243.79,350.41,267.57Z" transform="translate(-7.11 -33)"/><path class="cls-14" d="M350.41,267.57s-1.17,7-7.08,8.08-25.65.83-25.65.83-11.28-1.62-15.36-11.16-6.71-13.32-3.21-13.49,22.36,6.37,23.44,6.45S351.45,243.79,350.41,267.57Z" transform="translate(-7.11 -33)"/><path class="cls-10" d="M297.48,275.4a2.7,2.7,0,0,0,2.21,1.66,2.8,2.8,0,0,0,.71,0c2.17-.37,7.25-1.25,9-.91a15.41,15.41,0,0,0,4.49-.37c.94-.18,1.63-.34,1.63-.34s-1.67-5.54-1.88-5.71-7.49-4.53-7.49-4.53l-5.77-.42h0a3,3,0,0,0-1.95,1.15,6.13,6.13,0,0,0-1.17,3.93C297.2,274.69,297.48,275.4,297.48,275.4Z" transform="translate(-7.11 -33)"/><path class="cls-14" d="M297.48,275.4a2.7,2.7,0,0,0,2.21,1.66,22.6,22.6,0,0,1-1.57-2.29l0-4a7.13,7.13,0,0,1,2.27-6h0s-3,.21-3.12,5.08S297.48,275.4,297.48,275.4Z" transform="translate(-7.11 -33)"/><path class="cls-8" d="M322.51,266.57l5.37-4.2,8.46-8.33-2.29-.11c-.35.22-1.31.91-1.34,1.74,0,1-2.29.08-3.45.66s-6.87,7.88-7.87,7.83-1.79-.5-2.21.2l0,.05Z" transform="translate(-7.11 -33)"/><path class="cls-8" d="M298.45,265.89l.58.26c4.08,1.75,9.12,5.42,9.49,6.08.23.41,3.15,2.18,5.41,3.51.94-.18,1.63-.34,1.63-.34s-1.67-5.54-1.88-5.71-7.49-4.53-7.49-4.53l-5.77-.42h0A3,3,0,0,0,298.45,265.89Z" transform="translate(-7.11 -33)"/><path class="cls-7" d="M287.12,254c.54,1.34,5.08,6.46,5.08,6.46a19.8,19.8,0,0,0,6.95,5.49c4.08,1.75,9.12,5.42,9.5,6.08.24.43,3.49,2.39,5.78,3.74l.51.3,1.14.66.6.34,2.79-2.24c1.37-1.12,2.73-2.23,2.75-2.3s.58-1.54.46-1.62-.35-.62-.88-1.29a5.9,5.9,0,0,0-2.12-1.75,6,6,0,0,1-2.75-2.87s-.18-.13-.46-.3a5.54,5.54,0,0,0-1.87-.84c-.92-.11-2.62-2-2.62-2a5.18,5.18,0,0,1-1.63-1.7c-.43-.92-6.89-5.35-7.49-5.76l15.66,10.05,3.74,2.41,5.37-4.2,8.46-8.33-2.79-.13c-4.11-.18-11.41-.45-12.33-.25a6.78,6.78,0,0,1-2.29.15,7.92,7.92,0,0,1-3.45-.63c-1.38-.73-3.54-1.06-3.79-1.6s-7.62-3.12-7.62-3.12-10-5.33-13.62-2.17S286.58,252.62,287.12,254Z" transform="translate(-7.11 -33)"/><path class="cls-15" d="M319.47,223.39l1.29,4.29,1.67,9.66,6.12.42,1.77-2.94,1.77-2.93s1.1-3.91,1.89-7.68c.7-3.34,1.16-6.59.4-6.94s-1.12-1.44-1.41-2.65c0-.15-.07-.3-.1-.45a24.81,24.81,0,0,1-.41-3.1s-12.82-.67-11,4.62a8.38,8.38,0,0,1,.48,2.81,5.79,5.79,0,0,1,0,.72A6,6,0,0,1,319.47,223.39Z" transform="translate(-7.11 -33)"/><path class="cls-16" d="M316.81,222.68l.46,7.29,1,6.2,1.16,2.88,1,15.72s10,1.16,12.48,0a1.19,1.19,0,0,0,.45-.35c2.95-4.45,2-17.35,2-17.35l1.12-8.33-.75-4.32-1.81-.19-1.39-.15s-.32.39-.77,1c-1.24,1.63-3.51,4.83-3.35,6.17.2,1.83-.25,3.71-1,4s-1.29.79-1.42.29a2.26,2.26,0,0,1-.12-1.33,11.21,11.21,0,0,0-.54-2.88,11.87,11.87,0,0,1-1-3.62,4.3,4.3,0,0,0-.46-2.62c-.34-.29-.79-.59-.42-1.92s-1.64-3.92-1.64-3.92Z" transform="translate(-7.11 -33)"/><path class="cls-8" d="M330.07,240.88l.42,12.45,2.4,1.34a1.09,1.09,0,0,0,.44-.35c2.95-4.45,2-17.35,2-17.35l1.12-8.33-.75-4.32-1.81-.19c.7-3.35,1.16-6.59.39-6.94s-1.12-1.44-1.4-2.65h0l-1.3,8.81s.11.8.15,1.62a4.78,4.78,0,0,1-.11,1.55,5.18,5.18,0,0,0-.08,2.08,16.87,16.87,0,0,0-1.31,6.14C330,237.88,330.07,240.88,330.07,240.88Z" transform="translate(-7.11 -33)"/><path class="cls-17" d="M332.91,214.35s2.09.26,2.76,1.13a4,4,0,0,0,2.41,1,9.3,9.3,0,0,1,2,.83c0,.17.58.42,1.83.75s3.33,1.54,3.33,1.83,3.29,3.54,3.29,3.88a8.31,8.31,0,0,1,.88,3.79c-.13,2.2-.25,5,.25,5.45s0,2.25,0,2.25a1.21,1.21,0,0,0,0,1.33c.41.75-.09,3.87-.09,3.87l.05,3.25s-.46,2,.08,2.12-.08,1-.08,1-.46,1.67.12,2.42.75,3.95.75,3.95l8.91,12.95s.12,2.38-2.71,2.34-2.79.54-2.7,1.08-.79,1.12-.79,1.12-1.13.59-.46,1.29,2.58,2.34-.59,3.42a7.74,7.74,0,0,1-.91-1.67,18.83,18.83,0,0,1-.67-2.25s-.29-3.16-.87-3.58-.5-2.41-.5-2.41.83-1.63-.33-2.29-18.08-10-18.08-10l-.41-12.45s-.29-9.2,1.46-12.28a5.18,5.18,0,0,1,.08-2.08,10.9,10.9,0,0,0,0-3.17Z" transform="translate(-7.11 -33)"/><path class="cls-8" d="M322,219.34s-4.18-.86-5.31-.28-3.33,1-3.66,1.38-1.17.08-1.92,2-.83,4-1.79,4.87-1.45,1.54-1.5,2.2.13.84-.25,1-.91,1.08-.75,1.41,8.66,7.66,8.66,7.66a19.75,19.75,0,0,0,.8,3.5c.37.71-.42,10.45-1.25,11.12s5.62.6,5.62.6.29-6.39.54-6.72S321,241,321,241s0-5.82.5-7.37S322,227,322,227s.48-3.07,1.06-3.79S322,219.34,322,219.34Z" transform="translate(-7.11 -33)"/><path class="cls-17" d="M321.87,219.22s-4.19-.87-5.31-.28-3.33,1-3.67,1.37-1.16.08-1.91,2-.83,4-1.79,4.87-1.46,1.54-1.5,2.21.12.83-.25,1-.92,1.08-.75,1.42,8.66,7.66,8.66,7.66a20.47,20.47,0,0,0,.79,3.5c.38.7-.42,10.45-1.25,11.11s5.62.61,5.62.61.29-6.4.54-6.73-.16-7.16-.16-7.16,0-5.83.5-7.37.48-6.66.48-6.66.48-3.08,1.06-3.79S321.87,219.22,321.87,219.22Z" transform="translate(-7.11 -33)"/><path class="cls-8" d="M321.43,215.69a8.38,8.38,0,0,1,.48,2.81,9.55,9.55,0,0,0,11-4.33,24.81,24.81,0,0,1-.41-3.1S319.64,210.4,321.43,215.69Z" transform="translate(-7.11 -33)"/><path class="cls-15" d="M315.1,209.11a9.55,9.55,0,1,0,.21-2A9.38,9.38,0,0,0,315.1,209.11Z" transform="translate(-7.11 -33)"/><path class="cls-17" d="M309,231.18l-2.29.71a1.18,1.18,0,0,1-.46,1.25,1.37,1.37,0,0,0-.58,1.24s-.25.92-.83,1.13-1,1.58-1,1.58l-1.92,2.21s-.71.58-.58.87-.75.38-.75.38l.46,7.41,3.95.75,2.46-.25,2-.75,1.75-1,.79-2,3.5-5.33Z" transform="translate(-7.11 -33)"/><path class="cls-15" d="M301.19,241.13s-5.08-7.33-8.87-3.37,1.54,10.36,2.79,10.16,7.21-.54,7.21-.54Z" transform="translate(-7.11 -33)"/><rect class="cls-10" x="286.94" y="228.13" width="20.64" height="26.59" rx="0.5" transform="translate(-60.01 363.47) rotate(-62.96)"/><rect class="cls-2" x="288.88" y="230.23" width="16.84" height="22.35" transform="translate(-59.96 363.48) rotate(-62.96)"/><circle class="cls-18" cx="279.46" cy="202.92" r="0.37"/><circle class="cls-18" cx="301.01" cy="213.96" r="0.6"/><path class="cls-15" d="M297.9,242.67c0,5.5,11.33,6.66,11.33,6.66l2.9.46,1.3.21.55-5.37s-.6-.09-1.34-.26c-1.1-.26-2.53-.7-2.83-1.32C309.31,242,297.94,237.17,297.9,242.67Z" transform="translate(-7.11 -33)"/><path class="cls-8" d="M315.31,207.13a1.1,1.1,0,0,1,.69.31c.33.34.34.94.76,1.15a.86.86,0,0,0,.5.06c1.11-.15,1.75-1.4,2.81-1.75a2.83,2.83,0,0,1,1.86.16,1.42,1.42,0,0,1,.62.4c.36.46.11,1.14.27,1.69.23.78,1.15,1.08,1.95,1.18a3.46,3.46,0,0,1,2.24.77,2,2,0,0,1,.39,1.61,1.18,1.18,0,0,0,0,.59c.22.63,1.3.53,1.58,0s.14-.65.63-.75a2.1,2.1,0,0,1,1,.17,7.64,7.64,0,0,0,2.64.41A9.54,9.54,0,0,0,316,205.06a9.33,9.33,0,0,0-.69,2.07Z" transform="translate(-7.11 -33)"/><path class="cls-10" d="M327.4,213.05a1.18,1.18,0,0,1,0-.59,2,2,0,0,0-.39-1.61,3.46,3.46,0,0,0-2.24-.77c-.8-.1-1.72-.4-1.95-1.18-.16-.55.09-1.23-.27-1.69a1.42,1.42,0,0,0-.62-.4,2.83,2.83,0,0,0-1.86-.16c-1.06.35-1.7,1.6-2.81,1.75a.86.86,0,0,1-.5-.06c-.42-.21-.43-.81-.75-1.15-.51-.54-1.47-.19-2.09-.59a1.91,1.91,0,0,1-.67-1.23,6,6,0,0,1-.19-2.76c.37-1.55,1.75-2.61,2.63-3.93s1.29-2.8,2.53-3.61a5,5,0,0,1,4.22-.22,12.55,12.55,0,0,0,2,.52,21.44,21.44,0,0,0,3.39-.21,7.29,7.29,0,0,1,4.47,1.36,2.49,2.49,0,0,1,.74.74,4,4,0,0,1,.32,1.33,6.64,6.64,0,0,0,.88,2.43c.35.59.79,1.12,1.1,1.72a2.65,2.65,0,0,1,.3,2c-.1.34-.31.65-.39,1-.19.81.35,1.59.71,2.34a4.38,4.38,0,0,1,.49,2.22,2.8,2.8,0,0,1-1,2,3.62,3.62,0,0,1-2.11.64,7.46,7.46,0,0,1-2.69-.41,2.1,2.1,0,0,0-1-.17c-.49.1-.42.39-.63.75S327.62,213.68,327.4,213.05Z" transform="translate(-7.11 -33)"/><path class="cls-8" d="M322.26,266.82l5.37-4.2,8.46-8.33-2.79-.13a1.81,1.81,0,0,0-.59,1.14c0,1-2.29.07-3.45.65s-6.87,7.89-7.87,7.84-1.79-.51-2.21.2l0,.05a1.17,1.17,0,0,1-.63.37Z" transform="translate(-7.11 -33)"/><path class="cls-7" d="M311.44,266.53l2.69,8.61.43,1.36,1.28-.35,2.84-.78,12.62-3.47a10.93,10.93,0,0,0,4.54-1.21,13.76,13.76,0,0,1,7.84-1.71c1.67.16,3.52-.56,5.06-3.41,0,0,3.5-10.32-5.33-13.28s-9.24,1.57-9.24,1.57l-.12.07c-.35.22-1.31.91-1.34,1.74,0,1-2.29.08-3.45.66s-6.87,7.88-7.87,7.83-1.79-.5-2.21.2l0,.05c-.31.43-1.24.52-1.85.54h-.58l-.07,0-.65.19Z" transform="translate(-7.11 -33)"/><path class="cls-8" d="M312.13,249.79l1.3.21.55-5.37s-.6-.09-1.34-.26A27.63,27.63,0,0,1,312.13,249.79Z" transform="translate(-7.11 -33)"/><path class="cls-8" d="M346.18,224.69s3.87-1.12,2.92,9.87A30.73,30.73,0,0,1,341,252.51s-8.25,3.62-12,3-6.42-.71-6.42-.71a9.38,9.38,0,0,0-3.74-1c-2.09-.08-6.46-1.37-6.54-1.79s1.08-6.54.58-7c0,0,5.83.23,6.41.66s1.42.12,2,0a7.09,7.09,0,0,1,6.33-.33,3.87,3.87,0,0,0,1.79-.21,1.82,1.82,0,0,1,1.31-.08,3.82,3.82,0,0,0,.9-.46c.13-.17,1.13,0,1.13,0a.44.44,0,0,0,.59-.2l0-.09a2.76,2.76,0,0,1,.58-.92s1.13-6.33,3.25-8.7a1.35,1.35,0,0,0,.46-1.21C337.56,232.86,341.18,223.36,346.18,224.69Z" transform="translate(-7.11 -33)"/><path class="cls-17" d="M346.08,223.85s3.87-1.12,2.91,9.87a30.66,30.66,0,0,1-8.12,17.94s-8.24,3.63-11.95,3a64.28,64.28,0,0,0-6.41-.7,9.38,9.38,0,0,0-3.75-1c-2.08-.09-6.45-1.38-6.53-1.79s1.08-6.54.58-7c0,0,5.83.24,6.41.66s1.42.12,2,0a7.13,7.13,0,0,1,6.33-.33,3.83,3.83,0,0,0,1.79-.2,1.76,1.76,0,0,1,1.3-.09,3.39,3.39,0,0,0,.91-.46c.12-.16,1.12,0,1.12,0a.45.45,0,0,0,.6-.2l0-.09a2.72,2.72,0,0,1,.58-.91s1.12-6.33,3.25-8.71a1.36,1.36,0,0,0,.46-1.2C337.46,232,341.08,222.52,346.08,223.85Z" transform="translate(-7.11 -33)"/><path class="cls-8" d="M316,265.16l5.5,6.66,0,0c0-.13.58-1.54.46-1.63a7.82,7.82,0,0,0-3-3,5.65,5.65,0,0,1-2.35-2.14Z" transform="translate(-7.11 -33)"/><path class="cls-8" d="M316.08,276.68l.6.34,2.79-2.24c1.37-1.12,2.73-2.23,2.75-2.3s.58-1.54.46-1.62-.35-.62-.88-1.29c-3.73-1-1.35,1.55-1,1.66a3.8,3.8,0,0,0-4.79,3.91A6.15,6.15,0,0,0,316.08,276.68Z" transform="translate(-7.11 -33)"/><path class="cls-10" d="M320.68,278.77l.79.46,8,.21a17.28,17.28,0,0,0,2.84,1.37,1.89,1.89,0,0,0,.4.08,18.66,18.66,0,0,0,2.24.05l1.1-.05s-.38-10.13-.67-11.2c-.14-.51-.81-.39-1.48-.14a9.73,9.73,0,0,0-1.44.73,26,26,0,0,0-3.95.62c-.54.3-2.08-.16-3,0s-2.66-1.12-2.66-1.12c-4.67-1.54-2.05,1.33-1.71,1.45a3.8,3.8,0,0,0-4.79,3.91C316.1,280.08,320.68,278.77,320.68,278.77Z" transform="translate(-7.11 -33)"/><path class="cls-19" d="M332.3,274.86c.08,2.09,1.72,4.7,2.69,6.08l1.1-.05s-.38-10.13-.67-11.2c-.14-.51-.81-.39-1.48-.14A11.81,11.81,0,0,0,332.3,274.86Z" transform="translate(-7.11 -33)"/><path class="cls-8" d="M332.3,274.86c.08,2.09,1.72,4.7,2.69,6.08l1.1-.05s-.38-10.13-.67-11.2c-.14-.51-.81-.39-1.48-.14A11.81,11.81,0,0,0,332.3,274.86Z" transform="translate(-7.11 -33)"/><path class="cls-14" d="M330.92,275.14c.56,2,.55,4.29,1.43,5.67a1.89,1.89,0,0,0,.4.08,18.66,18.66,0,0,0,2.24.05l1.1-.05s-.38-10.13-.67-11.2c-.14-.51-.81-.39-1.48-.14a9.73,9.73,0,0,0-1.44.73S330.22,272.54,330.92,275.14Z" transform="translate(-7.11 -33)"/><path class="cls-8" d="M303.2,254.59a16.64,16.64,0,0,1,7.37,5.9Z" transform="translate(-7.11 -33)"/><g class="cls-20"><path d="M335.63,204.63a.29.29,0,0,1,0,.09c0,.11-.09.23-.14.34A3.16,3.16,0,0,1,335.63,204.63Z" transform="translate(-7.11 -33)"/><path d="M313.05,202.61a4,4,0,0,1,.31-.84l-.06.21a6.07,6.07,0,0,0,.19,2.77,1.89,1.89,0,0,0,.67,1.23c.62.4,1.58.05,2.08.59.32.34.34.94.76,1.15a.86.86,0,0,0,.5.06c1.1-.16,1.74-1.41,2.81-1.75a2.77,2.77,0,0,1,1.86.16,1.4,1.4,0,0,1,.62.39c.35.46.1,1.14.27,1.7.23.77,1.15,1.08,1.95,1.18a3.4,3.4,0,0,1,2.23.76,2,2,0,0,1,.4,1.61,1.35,1.35,0,0,0,0,.6c.23.62,1.3.53,1.59,0s.14-.66.63-.76a2,2,0,0,1,1,.18,7.64,7.64,0,0,0,2.69.4,3.62,3.62,0,0,0,2.11-.64,2.38,2.38,0,0,0,.65-.79,2.72,2.72,0,0,1-.9,1.42,3.62,3.62,0,0,1-2.11.64,7.42,7.42,0,0,1-2.69-.41,2.1,2.1,0,0,0-1-.17c-.49.1-.43.39-.63.75s-1.36.59-1.59,0a1.31,1.31,0,0,1,0-.59,2,2,0,0,0-.4-1.61,3.41,3.41,0,0,0-2.23-.77c-.8-.1-1.72-.4-1.95-1.18-.17-.55.08-1.23-.27-1.69a1.42,1.42,0,0,0-.62-.4,2.83,2.83,0,0,0-1.86-.16c-1.07.35-1.71,1.6-2.81,1.75a.86.86,0,0,1-.5-.06c-.42-.21-.44-.81-.76-1.15-.5-.54-1.46-.19-2.08-.59a1.86,1.86,0,0,1-.67-1.23A6,6,0,0,1,313.05,202.61Z" transform="translate(-7.11 -33)"/></g><path class="cls-8" d="M336.28,235.93c-.76,1-1.63,2-2.31,3.08a5.87,5.87,0,0,0-1,3.63,9.62,9.62,0,0,0,1.46-2.6,35,35,0,0,1,2.8-4.21c.18-.27,1.33-1.82.75-1.89S336.54,235.58,336.28,235.93Z" transform="translate(-7.11 -33)"/><path class="cls-21" d="M99.69,164.23c2.24,1.5,5.63.79,5.63.79s5.13-2.43,6.64-2.43,5.2-1.5,5.2-1.5l-.12-1-.38-3.05c2.34,1.82,4.93,1.2,6.21,1.06s8.7-4.5,9.4-4.78a1.81,1.81,0,0,0,.64-.65h0a17.17,17.17,0,0,0,1.24-2.27h0c.46-.4.79-.73.77-.8a4.84,4.84,0,0,1,.45-1.2,5.76,5.76,0,0,0,2.22-.8,2.27,2.27,0,0,0,.31-.31,2,2,0,0,0,.41-1.26s7.15-7.21,6.21-10.21,2.31-3.07,2.31-3.07,5-2.14,5.68-3.43c.42-.79,4.16-2.52,7-3.74l.35-.15c1.09,2.39,6.63.55,7.72-.46s4.55-1.57,4.55-1.57.15-14,1.23-15.79c.52-.84.64-3.61.63-6.28a2.62,2.62,0,0,0,0-.28c1.52-.3,5.13-1,6.81-1.15a6.58,6.58,0,0,0,3-1.41l.1.12a2.13,2.13,0,0,0,.93.16,1.43,1.43,0,0,0,.81-.16c.65-.35,3-1.07,3.9-1.42s-.15-2.93-.8-3.43-1.08-1.14-.72-1.43-.87-1-1.59-1.14A24.68,24.68,0,0,1,183.52,90s-.79-1.64-2.09-1.64a6.71,6.71,0,0,1-3-1.28c-.08-.57-1.45-.65-1.45-.65s-5.2-4-6.06-3.5-3.25-.78-3.25-.78-2.93.33-3.61-.21h0a.86.86,0,0,0-.18-.49,5,5,0,0,0-1.64-1.7,5.88,5.88,0,0,0,.08-1c0-.15,0-.3,0-.45s0,0,0-.07l.1-1a2.19,2.19,0,0,1,.25-.94c.13-.19.31-.34.44-.52l.09-.13,0,0,.06-.11v0a2.81,2.81,0,0,0,.1-.31v0a.78.78,0,0,0,0-.14v0a3,3,0,0,0-.16-1.23,8.71,8.71,0,0,1-.59-2,6.15,6.15,0,0,0,0-1,2.63,2.63,0,0,0-1.75-1.6,10.12,10.12,0,0,1-2.46-1.6c-.73-.57-1.93-.28-2.85-.22a24.81,24.81,0,0,0-6.13,1.41,6.07,6.07,0,0,0-2.14,1.07,2.35,2.35,0,0,0-.79,1.32h0a1.45,1.45,0,0,0,0,.36v0a.59.59,0,0,0,0,.13v0l0,.16h0c.09.26.24.5.33.76a1.21,1.21,0,0,1,.05.18h0a.57.57,0,0,1,0,.18h0a7.66,7.66,0,0,1-.26,2,2.36,2.36,0,0,0,0,.28h0a3.62,3.62,0,0,0,.1,1.14v0a.65.65,0,0,0,0,.13s0,0,0,.06,0,.08,0,.11l0,.08a.93.93,0,0,1,0,.1l0,.08,0,.09a.22.22,0,0,1,.05.08l.06.08.06.08.06.07.07.08.06.06.09.08.07,0,.11.07,0,0,.18.09c.42.19.94.26,1.19.62a.81.81,0,0,1,.12.29v.13c0,.22,0,.42,0,.63a1.94,1.94,0,0,0,0,.34.67.67,0,0,0,.07.24,6.44,6.44,0,0,0,2.19,3.68c0,.11,0,.24.07.39a7.14,7.14,0,0,1-2.1,1.1c-1.73.5-4.19,2.85-4.19,2.85s-1.22,8.78-1.51,9.85a48.36,48.36,0,0,0-.51,5.21,12,12,0,0,1-.72,2.57,7.49,7.49,0,0,0,.6,4.78,4.31,4.31,0,0,1-.53.87c-1.73,2-6.93,1.92-8.66,1.92a2.2,2.2,0,0,0-2.16,1.12c-3.17.91-13.45,3.84-14.67,4.37-1.44.63-2.24,6.87-2.24,6.87s-3,10.35-2.89,11.72-1,5.13-1,5.13,0,4.27-.49,4.56a0,0,0,0,1,0,0c-.51.22-.44,2.29-.44,2.29s.38.11,1,.25a17.36,17.36,0,0,1-1.17,3.55c-.23-.28-.45-.4-.58-.07-.36.91-5.78,7.34-7.15,7.34a4.12,4.12,0,0,0-2.44,1.26C98.85,162.43,98.52,163.45,99.69,164.23ZM124.53,127a60.16,60.16,0,0,0,12.71-.44,15.13,15.13,0,0,1-.94,2.51,24.89,24.89,0,0,0-1.66,5.64c0,.86-1.95,8.21-2.53,8.57a2.14,2.14,0,0,0-.63.91,8.27,8.27,0,0,0-.38,1.09c0,.19,0,.36.05.53l-1.3,1.17h0a27.48,27.48,0,0,0-3.44,2.23c-.87.78-4.91,1.74-4.91,1.74a26.58,26.58,0,0,0-2.91,1.49c-1.25.75-2.51,1.71-2.83,2.66.14-1.6.37-3.52.52-4.74h.23c2-.13,1.72-2.06,1.62-2.54l0-.1c1.45-1.57,4.7-13.29,4.26-14.57a2.32,2.32,0,0,1,.53-2.43,2.84,2.84,0,0,0,0-2.21c-.36-.79,1.59-1.5,1.59-1.5Zm49.63-31.51-.38.1v-.09Zm-21-10.77L153,85l-.07.08v-.39l.25.11ZM146,98.6l0,.4-.11.67Zm33.18-4-1.26.22.53-.22a1.08,1.08,0,0,1,.4-.11,1.88,1.88,0,0,1,.47.1Z" transform="translate(-7.11 -33)"/><path class="cls-22" d="M136.52,146.17a27.63,27.63,0,0,0-1.38,3.21,27.53,27.53,0,0,1-3.12,2.77l-3.47-2.48.35-1.7s3.9-3.51,4.18-3.92S136.52,146.17,136.52,146.17Z" transform="translate(-7.11 -33)"/><path class="cls-10" d="M116.71,156.33c2.41,2.34,5.25,1.63,6.59,1.49s8.54-4.47,9.23-4.75a1.84,1.84,0,0,0,.63-.64h0a16.25,16.25,0,0,0,1.21-2.25s-2.4.68-3,0c0,0-1-1.22-1.2-1.22s0-2.14,0-2.14a27.71,27.71,0,0,0-3.38,2.21c-.85.78-4.82,1.74-4.82,1.74a22.05,22.05,0,0,0-2.86,1.47C117.22,153.38,115.34,155,116.71,156.33Z" transform="translate(-7.11 -33)"/><path class="cls-8" d="M116.71,156.33c2.41,2.34,5.25,1.63,6.59,1.49s8.54-4.47,9.23-4.75a1.84,1.84,0,0,0,.63-.64c-.84-.5-6.31,3-7.85,3.62s-5.41.28-7.61-.64c-1.09-.46,0-1.87,1.4-3.17C117.22,153.38,115.34,155,116.71,156.33Z" transform="translate(-7.11 -33)"/><path class="cls-22" d="M117,149s-1,7.58-.76,8.58-6.33-3.41-6.33-3.41,2.3-4.75,1.63-5.84S117,149,117,149Z" transform="translate(-7.11 -33)"/><path class="cls-10" d="M110.69,149.1a25.15,25.15,0,0,0,6.38,1.06c2-.12,1.69-2,1.58-2.51,0-.07,0-.11,0-.11,1.41-1.56,4.6-13.18,4.18-14.46a2.3,2.3,0,0,1,.52-2.41,2.85,2.85,0,0,0,0-2.19c-.35-.78,1.56-1.49,1.56-1.49a58.36,58.36,0,0,0,12.48-.43,14.17,14.17,0,0,1-.93,2.48,25.71,25.71,0,0,0-1.63,5.6c0,.85-1.91,8.15-2.48,8.51a2.07,2.07,0,0,0-.61.9,8.13,8.13,0,0,0-.38,1.08c.21,4.75,5.6,2.91,6.38,2.27a1.92,1.92,0,0,0,.71-1.56s7-7.16,6.09-10.13,2.27-3.05,2.27-3.05,4.89-2.13,5.57-3.4c.42-.79,4.09-2.51,6.85-3.72,1.73-.76,3.1-1.31,3.1-1.31l-1.15-4.13-.9-3.25-1.71-.64-5.45-2-9.79-1.34-.9.11-9.51,1.23s-13.89,4-15.31,4.6-2.19,6.81-2.19,6.81-3,10.28-2.84,11.63-1,5.1-1,5.1,0,4.24-.48,4.53h0C110.62,147.05,110.69,149.1,110.69,149.1Z" transform="translate(-7.11 -33)"/><path class="cls-8" d="M124.93,127a58.36,58.36,0,0,0,12.48-.43c.42-1.34,6.38-5,6.38-5C138.9,120.33,124.93,127,124.93,127Z" transform="translate(-7.11 -33)"/><path class="cls-3" d="M131.38,145.13c.21,4.75,5.6,2.91,6.38,2.27a1.77,1.77,0,0,0,.3-.31c-1.88.69-5.22,1.23-6.3-3A8.13,8.13,0,0,0,131.38,145.13Z" transform="translate(-7.11 -33)"/><path class="cls-3" d="M110.69,149.1a25.15,25.15,0,0,0,6.38,1.06c2-.12,1.69-2,1.58-2.51a37.42,37.42,0,0,1-7.52-.82h0C110.62,147.05,110.69,149.1,110.69,149.1Z" transform="translate(-7.11 -33)"/><path class="cls-8" d="M131.38,145.13c.21,4.75,5.6,2.91,6.38,2.27a1.77,1.77,0,0,0,.3-.31c-1.88.69-5.22,1.23-6.3-3A8.13,8.13,0,0,0,131.38,145.13Z" transform="translate(-7.11 -33)"/><path class="cls-8" d="M110.69,149.1a25.15,25.15,0,0,0,6.38,1.06c2-.12,1.69-2,1.58-2.51a37.42,37.42,0,0,1-7.52-.82h0C110.62,147.05,110.69,149.1,110.69,149.1Z" transform="translate(-7.11 -33)"/><path class="cls-10" d="M100.55,163.91c2.2,1.49,5.53.78,5.53.78s5-2.41,6.52-2.41,5.1-1.48,5.1-1.48l-.12-1L117,155s-5.52-.14-5.75-.63c0,0-1-2.44-1.34-1.54s-5.67,7.28-7,7.28a4.07,4.07,0,0,0-2.4,1.25C99.73,162.12,99.4,163.14,100.55,163.91Z" transform="translate(-7.11 -33)"/><path class="cls-8" d="M119.62,122s4.6,2.9,3.33,3.54S119.62,122,119.62,122Z" transform="translate(-7.11 -33)"/><path class="cls-8" d="M117.7,127.63s4,3.77,2.48,3.87S117.7,127.63,117.7,127.63Z" transform="translate(-7.11 -33)"/><path class="cls-8" d="M113.45,139.6s2,3.79,1.26,4.45S113.45,139.6,113.45,139.6Z" transform="translate(-7.11 -33)"/><path class="cls-8" d="M135.63,143.43c-.7.71,6.74-2.34,5-2.48S135.63,143.43,135.63,143.43Z" transform="translate(-7.11 -33)"/><path class="cls-22" d="M150.52,90.28l.23,0c.89-.13,4.08-.63,6.95-1.26.7-.15,1.37-.31,2-.47,2.2-.57,3.67-1.2,2.73-1.7a5.09,5.09,0,0,1-2.24-3l-.09-.3a7.64,7.64,0,0,1-.29-1.63s-8-2.84-6.45,0a2.68,2.68,0,0,1-.47,3.32,6.32,6.32,0,0,1-1.72,1.28Z" transform="translate(-7.11 -33)"/><path class="cls-8" d="M159.09,88.08a5.63,5.63,0,0,1-5.79.36c-2.92-1.71-6.75,15-6.75,15l-4,9.78s-2.57,2.13.63,3.05,10.3-.92,12.1,1.77a7.88,7.88,0,0,0,5.56,3.12c.35,0,1.7-10.14,1.7-10.14l.35-14.67Z" transform="translate(-7.11 -33)"/><path class="cls-23" d="M143.35,115.72c3.2.92,10.3-.92,12.1,1.77A6.93,6.93,0,0,0,158.5,120a8,8,0,0,0,2.51.66c.05,0,.12-.18.19-.51.5-2,1.51-9.62,1.51-9.62l.35-14.67-3.37-7.3-.46-1a6,6,0,0,1-1.46.71,5.14,5.14,0,0,1-4.33-.35c-.86-.5-1.79.59-2.69,2.37-2.15,4.3-4.06,12.65-4.06,12.65l-4,9.78-.27.26C141.89,113.53,140.83,115,143.35,115.72Z" transform="translate(-7.11 -33)"/><path class="cls-8" d="M158.59,116.21a18,18,0,0,0-.09,3.74,44.37,44.37,0,0,0,.66,5.27,1.92,1.92,0,0,0,.09.32c1.73-.76,3.1-1.31,3.1-1.31l-1.15-4.13c.5-2,1.51-9.62,1.51-9.62l.35-14.67-3.37-7.3c2.2-.57,3.67-1.2,2.73-1.7a5.19,5.19,0,0,1-2.33-3.26,11.82,11.82,0,0,1-2,2.16l0,0-.26,2.47-.07.76-.17,1.58s.78,18.64,1.35,19.7.28,3.12-.21,5.53C158.64,115.93,158.62,116.07,158.59,116.21Z" transform="translate(-7.11 -33)"/><path class="cls-24" d="M159,115.51c-.49,2.41-.07,6.38.5,9.42s6.59,1.07,7.72,0,4.47-1.55,4.47-1.55.14-13.9,1.2-15.67c.51-.84.63-3.58.62-6.23,0-2.38-.13-4.68-.18-5.46,0-.19,0-.28,0-.28s4.6-7.8,4.53-8.37-1.41-.64-1.41-.64-5.11-4-6-3.47-3.19-.78-3.19-.78-3,.34-3.57-.23a.3.3,0,0,1-.11-.26c.07-.91-3-2.85-3.12-2.91,2.61,2.34-1.61,6-2.08,6.35l-.05,0-.49,4.81s.78,18.64,1.34,19.7S159.45,113.1,159,115.51Z" transform="translate(-7.11 -33)"/><circle class="cls-3" cx="152.12" cy="62.26" r="0.35"/><path class="cls-8" d="M158.5,85.71l2.15,2.09,3.16-5.27a.29.29,0,0,1-.11-.26c.07-.91-3-2.84-3.12-2.9C163.19,81.71,159,85.32,158.5,85.71Z" transform="translate(-7.11 -33)"/><circle class="cls-8" cx="152.83" cy="73.6" r="0.35"/><circle class="cls-3" cx="152.83" cy="73.46" r="0.35"/><path class="cls-25" d="M158.36,85.43l2.15,2.08,3.16-5.26a.3.3,0,0,1-.11-.26c.07-.91-3-2.85-3.12-2.91C163.05,81.42,158.83,85,158.36,85.43Z" transform="translate(-7.11 -33)"/><rect class="cls-10" x="153.49" y="97.66" width="10.42" height="4.93" rx="0.55" transform="translate(47.89 223.51) rotate(-88.69)"/><rect class="cls-8" x="153.49" y="97.66" width="10.42" height="4.93" rx="0.55" transform="translate(47.89 223.51) rotate(-88.69)"/><rect class="cls-10" x="153.52" y="97.89" width="10.42" height="4.93" rx="0.55" transform="translate(47.68 223.76) rotate(-88.69)"/><circle class="cls-25" cx="151.76" cy="65.19" r="0.78"/><path class="cls-8" d="M132.16,114.87c1.77.78,13.4-1.28,15.1-1.77s4.18-4.32,3-7.09a6.48,6.48,0,0,1,.43-5.46s2.55-5.45,3.12-6.52,1.75-4.15,1.91-4.67a.44.44,0,0,0-.1-.33,12.35,12.35,0,0,0-2.24-1.94c-.5.18-.56-1.25-.54-2.31,0-.59.05-1.06.05-1.06s-.24.24-.62.57c-.14.12-.3.25-.48.38a7.14,7.14,0,0,1-2.23,1.22c-1.71.51-4.12,2.83-4.12,2.83l.71,10.88s-1.63,10.24-3.33,12.22-6.8,1.92-8.5,1.92A2.13,2.13,0,0,0,132.16,114.87Z" transform="translate(-7.11 -33)"/><path class="cls-24" d="M132,114.45c1.77.77,13.39-1.28,15.1-1.78s4.18-4.32,3-7.08a6.47,6.47,0,0,1,.43-5.46s2.55-5.46,3.12-6.52,1.74-4.16,1.91-4.68a.41.41,0,0,0-.1-.32,12.52,12.52,0,0,0-2.24-2c-.5.19-.56-1.25-.54-2.3,0-.59,0-1.06,0-1.06s-.23.24-.61.56l-.48.39a7.62,7.62,0,0,1-2.24,1.22c-1.7.5-4.11,2.82-4.11,2.82L146,99.18s-1.63,10.23-3.33,12.22-6.8,1.91-8.5,1.91A2.13,2.13,0,0,0,132,114.45Z" transform="translate(-7.11 -33)"/><path class="cls-8" d="M151.3,83.58s.06.38.18,1c.38,2,1.29,6.2,1.94,6a6,6,0,0,0,1.89-1.67A12.35,12.35,0,0,0,153.07,87c-.5.18-.56-1.25-.54-2.31l-.58-.49Z" transform="translate(-7.11 -33)"/><path class="cls-25" d="M151.44,83.3l.18,1c.38,1.94,1.29,6.19,1.94,6a5.88,5.88,0,0,0,1.89-1.67,12.52,12.52,0,0,0-2.24-2c-.5.19-.56-1.25-.54-2.3l-.57-.5Z" transform="translate(-7.11 -33)"/><path class="cls-22" d="M146.9,104.17s3.55-.71,4.54-2.27,7.74-2.9,6.92-1.27-6.92,7-6.92,7l-2.64,3.78-3.53-.89-1.48-2.89Z" transform="translate(-7.11 -33)"/><path class="cls-8" d="M155.29,108.21s-3.43,1.28-3.95,3S155.29,108.21,155.29,108.21Z" transform="translate(-7.11 -33)"/><path class="cls-8" d="M157.39,110.19s.31,1.77-4,1.63Z" transform="translate(-7.11 -33)"/><path class="cls-8" d="M176,87.51l1.56-.14a6.54,6.54,0,0,0,3,1.28c1.27,0,2.05,1.63,2.05,1.63a22.83,22.83,0,0,0,2.84,1.13c.7.14,1.91.85,1.56,1.14s.07.92.7,1.41,1.63,3.05.78,3.41-3.19,1.06-3.82,1.41a1.76,1.76,0,0,1-1.42,0s-3.76-4.89-5.67-4a12.18,12.18,0,0,1-4.54.93l-2-4.33Z" transform="translate(-7.11 -33)"/><path class="cls-24" d="M143.35,110.83a1.88,1.88,0,0,0,1.32.92,10.13,10.13,0,0,0,4.13-.38s-7.14-2.27-.27-7.78h-1.84l-.61-.23.28-1.47.4-13.24-1.49-.36s-1.19,8.72-1.48,9.78a47.4,47.4,0,0,0-.5,5.18,11.7,11.7,0,0,1-.71,2.55A7.35,7.35,0,0,0,143.35,110.83Z" transform="translate(-7.11 -33)"/><path class="cls-8" d="M143.63,110.83a1.9,1.9,0,0,0,1.32.92,10.11,10.11,0,0,0,4.13-.38s-7.14-2.27-.26-7.78H147l-.61-.23C145.35,105.14,143.76,108.32,143.63,110.83Z" transform="translate(-7.11 -33)"/><path class="cls-26" d="M143.35,110.83a1.88,1.88,0,0,0,1.32.92,10.13,10.13,0,0,0,4.13-.38s-7.14-2.27-.27-7.78h-1.84l-.61-.23C145.07,105.14,143.48,108.32,143.35,110.83Z" transform="translate(-7.11 -33)"/><path class="cls-24" d="M143.35,110.83a1.88,1.88,0,0,0,1.32.92,10.13,10.13,0,0,0,4.13-.38s-7.14-2.27-.27-7.78h-1.84l-.61-.23C145.07,105.14,143.48,108.32,143.35,110.83Z" transform="translate(-7.11 -33)"/><path class="cls-8" d="M152.88,85.24a6.46,6.46,0,0,0,7.3-1.39l-.09-.3a7.64,7.64,0,0,1-.29-1.63s-8-2.84-6.45,0A2.68,2.68,0,0,1,152.88,85.24Z" transform="translate(-7.11 -33)"/><path class="cls-22" d="M149.1,79.08v.06a4.21,4.21,0,0,0,0,.62c0,.2.05.39.08.58a6.46,6.46,0,0,0,12.43.84l.12-.38a6.66,6.66,0,0,0,.23-1.72c0-.15,0-.3,0-.44a6.45,6.45,0,0,0-12.88.44Z" transform="translate(-7.11 -33)"/><path class="cls-8" d="M149.1,79.14a3.28,3.28,0,0,1,0,.62,1.9,1.9,0,0,0,0,.34,1.68,1.68,0,0,0,.07.24,1.21,1.21,0,0,0,1.68.62,2,2,0,0,0,.5-.66c.59-1.11,1.42-2.38,2.73-2.4a6,6,0,0,1,1.61.36,1.74,1.74,0,0,0,1.58-.22c.31-.28.45-.76.87-.86s.79.28,1,.66a2,2,0,0,0,.73,1,4.81,4.81,0,0,1,.53.2c.77.42.42,1.9,1.22,2.14l.08,0c0-.14,0-.27,0-.4l.21-2.16a6.45,6.45,0,0,0-12.88.44Z" transform="translate(-7.11 -33)"/><path class="cls-10" d="M160.56,69.45A2.64,2.64,0,0,1,162.27,71a6,6,0,0,1,0,1,8.61,8.61,0,0,0,.58,2,2.24,2.24,0,0,1-.14,2c-.13.17-.31.32-.43.51a2.05,2.05,0,0,0-.24.94l-.35,3.48c-.9-.16-.5-1.72-1.3-2.16-.17-.09-.36-.11-.54-.2-.38-.19-.53-.63-.72-1s-.56-.75-1-.65-.56.58-.87.86a1.71,1.71,0,0,1-1.58.21,6.46,6.46,0,0,0-1.61-.36c-1.31,0-2.14,1.3-2.73,2.41a2,2,0,0,1-.5.66,1.22,1.22,0,0,1-1.75-.86c-.06-.42.07-.88-.17-1.23s-.76-.43-1.16-.62a2.62,2.62,0,0,1-1.19-2.86,4.78,4.78,0,0,0,.18-2.33c-.08-.26-.24-.5-.32-.76a2,2,0,0,1,.73-2,6,6,0,0,1,2.1-1.06,24.53,24.53,0,0,1,6-1.41c.9-.06,2.08-.34,2.8.22A9.4,9.4,0,0,0,160.56,69.45Z" transform="translate(-7.11 -33)"/><circle class="cls-8" cx="151.76" cy="56.66" r="0.35"/><circle class="cls-3" cx="151.76" cy="56.52" r="0.35"/><circle class="cls-8" cx="154.03" cy="78.92" r="0.35"/><circle class="cls-3" cx="154.03" cy="78.77" r="0.35"/><circle class="cls-8" cx="152.83" cy="84.8" r="0.35"/><circle class="cls-3" cx="152.83" cy="84.66" r="0.35"/><path class="cls-8" d="M147.75,95.26s-.78,5.29,0,6.22S147.75,95.26,147.75,95.26Z" transform="translate(-7.11 -33)"/><path class="cls-8" d="M170.93,105.09a8,8,0,0,1,0,6.28c-1.49,3.08-2.41,4.32-1.92,6.29S170.93,105.09,170.93,105.09Z" transform="translate(-7.11 -33)"/><path class="cls-8" d="M100.55,163.91c2.2,1.49,5.53.78,5.53.78s5-2.41,6.52-2.41,5.1-1.48,5.1-1.48l-.12-1a31,31,0,0,0-5.19,1.29c-.5.42-6.59,2.48-6.59,2.48s-4.15-.52-5.31-2.22C99.73,162.12,99.4,163.14,100.55,163.91Z" transform="translate(-7.11 -33)"/><g class="cls-20"><path d="M162.31,71.51v0Z" transform="translate(-7.11 -33)"/><path d="M147.82,77.54c.4.19.92.26,1.16.62s.11.81.17,1.23a1.22,1.22,0,0,0,1.75.86,2,2,0,0,0,.5-.66c.59-1.11,1.42-2.38,2.73-2.4a6,6,0,0,1,1.61.36,1.77,1.77,0,0,0,1.58-.21c.31-.28.45-.77.87-.86s.79.28,1,.65a2,2,0,0,0,.72,1c.18.08.37.11.54.2.8.43.4,2,1.3,2.16.11-1.17.23-2.33.35-3.49a2.05,2.05,0,0,1,.24-.94c.12-.19.3-.33.43-.51a1.57,1.57,0,0,0,.29-.75,1.77,1.77,0,0,1-.29,1.32c-.13.17-.31.32-.43.51a2.05,2.05,0,0,0-.24.94c-.12,1.16-.24,2.32-.35,3.48-.9-.16-.5-1.72-1.3-2.16-.17-.09-.36-.11-.54-.2-.38-.19-.53-.63-.72-1s-.56-.75-1-.65-.56.58-.87.86a1.71,1.71,0,0,1-1.58.21,6.46,6.46,0,0,0-1.61-.36c-1.31,0-2.14,1.3-2.73,2.41a2,2,0,0,1-.5.66,1.22,1.22,0,0,1-1.75-.86c-.06-.42.07-.88-.17-1.23s-.76-.43-1.16-.62a2.52,2.52,0,0,1-1.22-2.57A2.29,2.29,0,0,0,147.82,77.54Z" transform="translate(-7.11 -33)"/><path d="M146.49,71.59c.08.26.24.5.32.76a2.1,2.1,0,0,1,.08.93,1.45,1.45,0,0,0-.08-.36c-.08-.26-.24-.5-.32-.76a1.68,1.68,0,0,1,0-.74A1,1,0,0,0,146.49,71.59Z" transform="translate(-7.11 -33)"/></g><path class="cls-8" d="M167.31,103.1c1.63-.35,5.46-1.48,5.46-1.48l.69-.14c0-2.38-.13-4.68-.18-5.46h0a26.07,26.07,0,0,0-4,1.63c-.78.57-3.19.42-3.19.42a11,11,0,0,0-6.88,3.69C156.05,105.23,165.68,103.46,167.31,103.1Z" transform="translate(-7.11 -33)"/><path class="cls-22" d="M183.24,96.78a1,1,0,0,1,.22,1.59,7,7,0,0,1-3.33,1.69c-2,.2-6.84,1.17-7.32,1.27l-.08,0c-.39.11-3.88,1.13-5.42,1.47s-11.26,2.13-8.15-1.34A11,11,0,0,1,166,97.8h.12c.37,0,2.43.09,3.14-.42a6.42,6.42,0,0,1,1.17-.59,22.24,22.24,0,0,1,4.79-1.38l3.34-.58a1,1,0,0,1,.56.07Z" transform="translate(-7.11 -33)"/><path class="cls-24" d="M176.24,87.51l1.56-.14a6.54,6.54,0,0,0,3,1.28c1.28,0,2.05,1.63,2.05,1.63a22.83,22.83,0,0,0,2.84,1.13c.71.14,1.91.85,1.56,1.14s.07.92.71,1.41,1.63,3.05.78,3.41-3.19,1.06-3.83,1.41a1.76,1.76,0,0,1-1.42,0s-3.75-4.89-5.67-4a12.15,12.15,0,0,1-4.53.93l-2.06-4.33Z" transform="translate(-7.11 -33)"/><text class="cls-27" transform="translate(0 162.9)">Ga<tspan class="cls-28" x="16.55" y="0">m</tspan><tspan x="29.24" y="0">e p</tspan><tspan class="cls-29" x="48.25" y="0">r</tspan><tspan x="53.17" y="0">og</tspan><tspan class="cls-30" x="69.24" y="0">r</tspan><tspan x="74.18" y="0">am</tspan><tspan class="cls-28" x="94.1" y="0">m</tspan><tspan x="106.8" y="0">er</tspan></text><text class="cls-27" transform="translate(280 155.9)">Ga<tspan class="cls-28" x="16.55" y="0">m</tspan><tspan x="29.24" y="0">e Desig</tspan><tspan class="cls-31" x="75.37" y="0">n</tspan><tspan x="83.65" y="0">er</tspan></text><text class="cls-27" transform="translate(119 27.9)"><tspan class="cls-32">L</tspan><tspan class="cls-33" x="7.13" y="0">e</tspan><tspan class="cls-34" x="14.47" y="0">v</tspan><tspan x="21.23" y="0">el </tspan><tspan class="cls-35" x="35.47" y="0">t</tspan><tspan x="40.34" y="0">es</tspan><tspan class="cls-35" x="53.99" y="0">t</tspan><tspan x="58.86" y="0">er</tspan></text></svg>