<svg id="Layer_1" data-name="Layer 1" xmlns="http://www.w3.org/2000/svg" viewBox="0 0 334.09 290.83"><defs><style>.cls-1{fill:#e6e6e6;}.cls-2{fill:#ff6584;}.cls-3{fill:#3f3d56;}.cls-4{fill:#6c63ff;}.cls-5{fill:#fff;}</style></defs><title>why-10</title><polygon class="cls-1" points="334.08 287.23 94.93 290.83 0 274.01 148.2 274.01 334.08 287.23"/><circle class="cls-2" cx="275.4" cy="38.26" r="38.26"/><path class="cls-3" d="M105.68,281s.56-11.73,12-10.37" transform="translate(-38 -5)"/><circle class="cls-4" cx="64.44" cy="259.11" r="5.74"/><rect class="cls-3" x="63.5" y="268.77" width="1.62" height="11.34"/><path class="cls-3" d="M294.76,283s.56-11.73,12-10.36" transform="translate(-38 -5)"/><circle class="cls-4" cx="253.52" cy="261.11" r="5.74"/><rect class="cls-3" x="252.58" y="270.78" width="1.62" height="11.34"/><path class="cls-3" d="M322.4,285s.56-11.72,12-10.36" transform="translate(-38 -5)"/><circle class="cls-4" cx="281.16" cy="263.11" r="5.74"/><rect class="cls-3" x="280.22" y="272.78" width="1.62" height="11.34"/><path class="cls-3" d="M150.94,275.4s.56-11.73,12-10.37" transform="translate(-38 -5)"/><circle class="cls-4" cx="109.7" cy="253.5" r="5.74"/><rect class="cls-3" x="108.77" y="263.17" width="1.62" height="11.34"/><path class="cls-3" d="M65.62,277.4s.56-11.73,12-10.36" transform="translate(-38 -5)"/><circle class="cls-4" cx="24.38" cy="255.5" r="5.74"/><rect class="cls-3" x="23.44" y="265.17" width="1.62" height="11.34"/><circle class="cls-3" cx="166.44" cy="189.47" r="62.55"/><path class="cls-5" d="M165.06,199.49a16.54,16.54,0,0,1,23.31-2.09,15.87,15.87,0,0,1,2.09,2.09,18.39,18.39,0,1,0-26-.6Z" transform="translate(-38 -5)"/><path class="cls-5" d="M214.73,199.49a16.55,16.55,0,0,1,23.32-2.09,15.87,15.87,0,0,1,2.09,2.09,18.4,18.4,0,1,0-26-.6C214.32,199.09,214.53,199.29,214.73,199.49Z" transform="translate(-38 -5)"/><circle class="cls-3" cx="133.48" cy="174.92" r="6.33"/><circle class="cls-3" cx="183.16" cy="174.92" r="6.33"/><circle class="cls-2" cx="121.36" cy="205.11" r="7.36"/><circle class="cls-2" cx="205.99" cy="205.11" r="7.36"/><polygon class="cls-2" points="163.68 190.39 158.16 214.31 167.36 205.11 163.68 190.39"/><polygon class="cls-3" points="192.04 282.38 185.77 277.12 185.92 282.38 183.97 282.38 183.82 276.82 175.35 282.38 171.81 282.38 183.75 274.54 183.29 258.06 182.94 245.61 184.89 245.56 185.24 258.06 185.7 274.52 195.06 282.38 192.04 282.38"/><polygon class="cls-3" points="162.6 282.38 156.33 277.12 156.48 282.38 154.54 282.38 154.38 276.82 145.92 282.38 142.38 282.38 154.31 274.54 153.85 258.06 153.5 245.61 155.45 245.56 155.8 258.06 156.26 274.52 165.63 282.38 162.6 282.38"/><path class="cls-3" d="M205.36,127.32c-1.72,0-3.23,1.33-4.25,3.38-.89-3.08-2.76-5.22-5-5.22a3.11,3.11,0,0,0-.44.07c-.85-3.29-2.8-5.59-5.08-5.59-3,0-5.52,4.11-5.52,9.2s2.47,9.19,5.52,9.19a3.35,3.35,0,0,0,.44-.07c.84,3.29,2.8,5.59,5.08,5.59,1.71,0,3.23-1.33,4.24-3.38.89,3.08,2.77,5.22,5,5.22,3,0,5.52-4.11,5.52-9.2S208.41,127.32,205.36,127.32Z" transform="translate(-38 -5)"/><path class="cls-4" d="M145.72,218.18h0a18.4,18.4,0,0,1-18.4-18.4h0v-9.2a18.4,18.4,0,0,1,18.4-18.4h0v46Z" transform="translate(-38 -5)"/><path class="cls-4" d="M263.15,172.18h0a18.4,18.4,0,0,1,18.4,18.4v9.2a18.4,18.4,0,0,1-18.4,18.4h0v-46Z" transform="translate(-38 -5)"/><path class="cls-4" d="M272.79,192h-2.92a67.14,67.14,0,0,0-134.28,0h-2.92a70.06,70.06,0,0,1,140.12,0Z" transform="translate(-38 -5)"/><polygon class="cls-3" points="49.56 138.48 49.56 138.48 49.56 138.48 49.56 138.48"/><path class="cls-3" d="M102.56,135.76h0l-1.37-.57-5.79-2.45-2.07-.87-.16.4h0l-2.79,7,7.84,3.32,0,0-.53,1.24a3,3,0,0,0-.18.36,1.73,1.73,0,0,0,1,2.13c.66.26,1.5-.28,1.87-1.22a2,2,0,0,0-.64-2.37h0l-1.37-.57-4.69-1.82,2.68-6.77-.4-.16-2.68,6.77-.58-.22,2.69-6.8.07,0,5.52,2.34,0,0-.53,1.25a2,2,0,0,0-.18.36,1.73,1.73,0,0,0,1,2.13c.66.26,1.49-.29,1.86-1.22A2,2,0,0,0,102.56,135.76Z" transform="translate(-38 -5)"/><path class="cls-3" d="M129.7,153c-2.85-1.63-2.28-5.2-2.28-5.2-.07-2.32-2-2-2-2l-.7.16a2,2,0,0,0-1-.19l-1.07.18a2.51,2.51,0,0,1,2.22,2.59l.34,2.36-6.33-2.55.73-1.72a2.92,2.92,0,0,0,.25-.5,2.39,2.39,0,0,0-1.37-2.95c-.92-.36-2.08.39-2.6,1.69s0,2.91.89,3.3h0l1.9.8,0,0Zm-3.22-4.15.2,2.26a5.25,5.25,0,0,1-1-3.46,2.16,2.16,0,0,0-.42-1.22,2.57,2.57,0,0,1,1.17,2.42Z" transform="translate(-38 -5)"/><path class="cls-3" d="M81.4,119.57h0l-1.91-.79-8-3.1,2-1.78a2.54,2.54,0,0,1,3.47-.57l-.62-.93s-1.18-1.55-2.82.09c0,0-2,3-5.22,2.23l10.89,4.61.06,0-.73,1.73a3.4,3.4,0,0,0-.26.5,2.4,2.4,0,0,0,1.38,3c.91.37,2.08-.39,2.59-1.69S82.29,120,81.4,119.57Z" transform="translate(-38 -5)"/><path class="cls-3" d="M110.54,109.44l-.73,1.73a3.4,3.4,0,0,0-.26.5,2.42,2.42,0,0,0,1.38,3c.91.36,2.08-.4,2.59-1.7s0-2.9-.88-3.3h0l-1.91-.79-6.51-2.53,3.72-9.4-.55-.22-3.73,9.4-.8-.31,3.74-9.44.09,0,7.66,3.24.06,0-.73,1.73a3.4,3.4,0,0,0-.26.5,2.42,2.42,0,0,0,1.38,3c.91.36,2.07-.4,2.59-1.7s0-2.9-.88-3.3h0l-1.91-.79-7.78-3.29h0l-.25-.11-2.89-1.22-4.09,10.33,10.89,4.61Z" transform="translate(-38 -5)"/><path class="cls-3" d="M76,56.55h0l-3.28-1.36-13.7-5.33,3.46-3.08a4.37,4.37,0,0,1,6-1L67.4,44.2s-2-2.67-4.84.15c0,0-3.49,5.16-9,3.84l18.74,7.94.1.09-1.26,3a5.36,5.36,0,0,0-.44.86c-.89,2.23.78,4.45,2.36,5.08s3.58-.68,4.47-2.91S77.57,57.22,76,56.55Z" transform="translate(-38 -5)"/><path class="cls-3" d="M86.09,101.29c-6.8-3.89-5.44-12.43-5.44-12.43-.17-5.54-4.76-4.76-4.76-4.76l-1.66.38A5.19,5.19,0,0,0,71.74,84l-2.53.43c5.78,1.36,5.3,6.19,5.3,6.19l.81,5.65-15.14-6.1,1.74-4.1a7.52,7.52,0,0,0,.61-1.2c1.23-3.1-1.09-6.19-3.29-7.06s-5,1-6.2,4,0,7,2.12,7.89h0l4.56,1.9,0-.11ZM78.4,91.36l.49,5.43a12.4,12.4,0,0,1-2.27-8.3,5.22,5.22,0,0,0-1-2.9,6.12,6.12,0,0,1,2.8,5.77Z" transform="translate(-38 -5)"/></svg>