<svg id="Layer_1" data-name="Layer 1" xmlns="http://www.w3.org/2000/svg" viewBox="0 0 200.26 275"><defs><style>.cls-1{fill:#0028ba;}.cls-2{fill:#e0e0e0;}.cls-3{font-size:13.69px;fill:#666;font-family:Montserrat-SemiBold, Montserrat;font-weight:600;}.cls-4{letter-spacing:0em;}.cls-5{letter-spacing:-0.02em;}.cls-6{letter-spacing:0em;}.cls-7{fill:#fff;}.cls-8{fill:#fbbebe;}.cls-9{fill:none;stroke:#3f3d56;stroke-miterlimit:10;}.cls-10{fill:#3f3d56;}.cls-11{opacity:0.1;}.cls-11,.cls-13{isolation:isolate;}.cls-12{fill:#6c63ff;}.cls-13{opacity:0.2;}.cls-14{fill:#57b894;}.cls-15{fill:#46455b;}.cls-16{fill:#a8a8a8;}.cls-17{font-size:17.12px;fill:#2fa5a2;font-family:Montserrat-Black, Montserrat;font-weight:800;}.cls-18{letter-spacing:-0.02em;}.cls-19{letter-spacing:0em;}.cls-20{letter-spacing:0.01em;}.cls-21{letter-spacing:-0.01em;}.cls-22{letter-spacing:-0.02em;}.cls-23{letter-spacing:0em;}</style></defs><title>why-4</title><rect class="cls-1" x="0.57" y="0.57" width="199.69" height="273.86"/><rect class="cls-2" y="33.09" width="100.41" height="241.91"/><rect class="cls-2" x="0.46" width="199.69" height="33.09"/><rect class="cls-1" x="122.1" width="77.59" height="33.09"/><text class="cls-3" transform="translate(5.2 20.4)">Ga<tspan class="cls-4" x="18.88" y="0">m</tspan><tspan x="33.37" y="0">eB</tspan><tspan class="cls-5" x="52.31" y="0">o</tspan><tspan x="60.89" y="0">x </tspan><tspan class="cls-6" x="72.52" y="0">2</tspan><tspan x="80.45" y="0">000</tspan></text><rect class="cls-7" x="2.28" y="33.09" width="195.12" height="237.34"/><circle class="cls-8" cx="107.43" cy="197.61" r="2.26"/><line class="cls-9" x1="6.85" y1="259.76" x2="175.79" y2="259.76"/><circle class="cls-10" cx="78.41" cy="259.62" r="1.58"/><circle class="cls-11" cx="78.41" cy="259.62" r="1.58"/><circle class="cls-10" cx="66.76" cy="246.57" r="1.58"/><circle class="cls-11" cx="66.76" cy="246.57" r="1.58"/><path class="cls-12" d="M163.8,256.16s1.4-.35,3,2.63l13,14.88a3.45,3.45,0,0,0,3.12.48s.21.75-2.24.57-7.36-6.13-7.36-6.13S163.62,257.73,163.8,256.16Z" transform="translate(-98 -13)"/><circle class="cls-10" cx="67.72" cy="248.94" r="1.58"/><circle class="cls-10" cx="79.46" cy="261.72" r="1.58"/><path class="cls-8" d="M193.29,233.62s11,14.36,11.9,15.24c0,0-2.1,6.48-1.57,8.58s-1.05,7.18-1.05,7.18l1.92,2.45h1.58s1.19-7,2.63-10.51c3.67-8.93,1.92-10,0-13.66s-6.66-10.85-7-10.85S193.29,233.62,193.29,233.62Z" transform="translate(-98 -13)"/><circle class="cls-10" cx="99.66" cy="182.8" r="7.18"/><path class="cls-8" d="M196,199.92s3.15,6-2.28,5.25l.35,7.53s3.68,2.1,3.86,2.1,5.6-1.75,5.6-1.75l1.23-1.4.17-6.48a5,5,0,0,1-4.38-5.08C200.38,195.36,196,199.92,196,199.92Z" transform="translate(-98 -13)"/><path class="cls-11" d="M196,199.92s3.15,6-2.28,5.25l.35,7.53s3.68,2.1,3.86,2.1,5.6-1.75,5.6-1.75l1.23-1.4.17-6.48a5,5,0,0,1-4.38-5.08C200.38,195.36,196,199.92,196,199.92Z" transform="translate(-98 -13)"/><path class="cls-8" d="M191.62,219.18l-2.8,1.92,3.85,6.66,4.38-.35,4.2-1.93a11.2,11.2,0,0,1,1.05-4.73C203.35,219,191.62,219.18,191.62,219.18Z" transform="translate(-98 -13)"/><path class="cls-8" d="M202.13,197.64a4.56,4.56,0,0,1-8.51,2.26,4.6,4.6,0,0,1-.6-2.26h0a4.56,4.56,0,0,1,9.11,0Z" transform="translate(-98 -13)"/><path class="cls-8" d="M193.74,205.07a10.6,10.6,0,0,0-4.39-.95c-1.93.17-5.61.7-6.66,0s-6.48.52-6.48.52-.17,1.76,4.56,3,8.23,1.4,9.1,2.8,2.1,3.15,2.1,3.15l2.45-5.07Z" transform="translate(-98 -13)"/><path class="cls-13" d="M193.62,199.9a4.6,4.6,0,0,1-.6-2.26h0a7,7,0,0,1,3.33.53C198.16,199,195.47,199.61,193.62,199.9Z" transform="translate(-98 -13)"/><path class="cls-8" d="M179.37,205.69s3.15-1.05,4-2.27,8.76-3.85,8.76-3.85,6.83-.7,4.2-1.93-6.13,0-6.13,0-13,4.38-13.48,5.25a3.76,3.76,0,0,0-.53,1.75l1.23.53Z" transform="translate(-98 -13)"/><path class="cls-8" d="M184.27,227.41s-3.5,5.25-.35,18c0,0,0,6.48-.53,8.76s0,14.18,0,14.18l1.75,1.75,1.58-1.05a15.55,15.55,0,0,1,.79-9c1.92-4.56.52-10.51.52-10.51s3.59-12.17,2.72-16.2S184.27,227.41,184.27,227.41Z" transform="translate(-98 -13)"/><path class="cls-10" d="M184.79,268.21s-1.57-2.45-1.92-1.75-.88,2.8-3.15,3.67-3.86.88-1.58,2.63,2.8,1.75,3.85,1.23a6.54,6.54,0,0,1,3.33-.7c.52.17,2.63-.53,2.45-1.58a5.25,5.25,0,0,0-1.05-2.1s-.35-1.93-.7-1.4S184.79,268.21,184.79,268.21Z" transform="translate(-98 -13)"/><path class="cls-10" d="M205.46,265.76s-2.59-2.49-2.44-3-3-.51-2.47,1.42a19.78,19.78,0,0,0,1.93,4.2c-.18,2.28-.18,4.21,1.75,4.91s4.2.17,3.5-1.93a46.92,46.92,0,0,1-1.27-5.32Z" transform="translate(-98 -13)"/><path class="cls-10" d="M189.61,220.32s-6.22,3.59-6.57,8.49a9.84,9.84,0,0,0,8.06,5.78s1.51-.7,2.24,0,7,0,9-1.75c0,0-1.13-7.45-.78-9,0,0-5.69,4.81-8.32.79S189.61,220.32,189.61,220.32Z" transform="translate(-98 -13)"/><path class="cls-8" d="M204.58,205.69s3.33-1.75,5.08,2.11,5.25,9.8,5.08,11.9-10.86,8.06-10.86,8.06-4.55,4.73-4.9,2.8S202.3,226,202.3,226s8.06-4.73,8.06-6.48-4-8.76-4.9-8.76S204.58,205.69,204.58,205.69Z" transform="translate(-98 -13)"/><path class="cls-12" d="M194.07,204.82l-1.4-.18s1.76,5.77-1.48,7.79c0,0,1.83,5.52-.79,7.1s10.5,4.9,11.73,3.5,5.15-10.3,4.85-10.58-2.4-1.85-1.87-3.78a14.88,14.88,0,0,0,.53-3.39l-1.64-.41-1.17,5.9s-5.25,2.1-7.53-1.05Z" transform="translate(-98 -13)"/><rect class="cls-10" x="95.64" y="179.12" width="7" height="3.85" rx="1.27"/><circle class="cls-10" cx="100.19" cy="175.62" r="3.15"/><path class="cls-10" d="M249.39,238.24a7.81,7.81,0,0,0,1-4c0-3.61-2.23-6.54-5-6.54s-5,2.93-5,6.54a8,8,0,0,0,1,4,8.18,8.18,0,0,0,0,8,8.2,8.2,0,0,0,0,8,8.18,8.18,0,0,0,0,8,8,8,0,0,0-1,4c0,3.61,2.24,6.54,5,6.54s5-2.93,5-6.54a7.79,7.79,0,0,0-1-4,8.18,8.18,0,0,0,0-8,8.2,8.2,0,0,0,0-8A8.18,8.18,0,0,0,249.39,238.24Z" transform="translate(-98 -13)"/><ellipse class="cls-10" cx="147.44" cy="213.25" rx="5" ry="6.54"/><ellipse class="cls-10" cx="147.44" cy="205.26" rx="5" ry="6.54"/><path class="cls-14" d="M264.14,163.56a25.38,25.38,0,0,0,1.86-2.74l-13.13-2.16,14.2.11a24,24,0,0,0,.46-19l-19,9.88L266,136.77a23.93,23.93,0,1,0-41.42,24,23.08,23.08,0,0,0,1.9,2.81,24,24,0,0,0-2.73,4.36l17,8.85-18.17-6.1a24,24,0,0,0,3.86,22.48,23.93,23.93,0,1,0,37.62,0A23.93,23.93,0,0,0,264.14,163.56Z" transform="translate(-98 -13)"/><path class="cls-11" d="M221.4,178.35a23.87,23.87,0,0,0,5.12,14.8,23.93,23.93,0,1,0,37.62,0C267.35,189.08,221.4,175.67,221.4,178.35Z" transform="translate(-98 -13)"/><path class="cls-15" d="M108.07,242.91c0,14,8.76,25.25,19.59,25.25" transform="translate(-98 -13)"/><path class="cls-12" d="M124.6,269.26c0-12.23,8.46-22.12,18.92-22.12" transform="translate(-98 -13)"/><path class="cls-12" d="M115.17,244.17c0,13.26,5.58,24,12.49,24" transform="translate(-98 -13)"/><path class="cls-15" d="M124.6,269.26c0-15.63,9.78-28.26,21.87-28.26" transform="translate(-98 -13)"/><path class="cls-16" d="M121,269.41a8.74,8.74,0,0,0,3.13-.59c.72-.52,3.7-1.13,3.88-.31s3.61,4.12.9,4.14-6.31-.42-7-.86S121,269.41,121,269.41Z" transform="translate(-98 -13)"/><path class="cls-13" d="M129,272.36c-2.72,0-6.31-.42-7-.86-.55-.33-.77-1.54-.84-2.09H121s.15,1.94.88,2.38,4.31.88,7,.86c.78,0,1.05-.28,1-.7C129.87,272.2,129.57,272.36,129,272.36Z" transform="translate(-98 -13)"/><path class="cls-14" d="M216.38,158.16a3.9,3.9,0,0,0-2.15-1.21l.64,1.14L213.81,157a.73.73,0,0,0-.42.25c-.53.6,0,2,1.07,3.13s2.46,1.55,3,.94S217.5,159.28,216.38,158.16Z" transform="translate(-98 -13)"/><path class="cls-11" d="M216.76,158.85c-.19.28-.28.65-.5.92a.87.87,0,0,1-1.1.17c-.28-.13-.56-.34-.84-.5a2,2,0,0,0-.74-.24,5.48,5.48,0,0,0,.88,1.15c1.12,1.13,2.46,1.55,3,.94s.18-1.58-.58-2.57Z" transform="translate(-98 -13)"/><path class="cls-14" d="M217.12,193.55A3.87,3.87,0,0,0,219,192l-1.3.19,1.43-.59a.74.74,0,0,0-.08-.48c-.37-.71-1.85-.77-3.31-.12s-2.32,1.74-1.94,2.45S215.67,194.19,217.12,193.55Z" transform="translate(-98 -13)"/><path class="cls-11" d="M216.34,193.66c-.19-.28-.51-.5-.68-.79a.89.89,0,0,1,.24-1.1c.21-.21.52-.4.76-.6a2,2,0,0,0,.49-.6,5.17,5.17,0,0,0-1.39.41c-1.45.64-2.32,1.74-1.95,2.45s1.41.73,2.62.38Z" transform="translate(-98 -13)"/><path class="cls-14" d="M159.14,188a3.88,3.88,0,0,0-2.42.48L158,189l-1.53-.17a.76.76,0,0,0-.16.46c0,.81,1.27,1.56,2.85,1.69s2.87-.43,2.88-1.23S160.72,188.14,159.14,188Z" transform="translate(-98 -13)"/><path class="cls-11" d="M159.88,188.29c0,.34.21.68.22,1a.87.87,0,0,1-.73.85c-.29.08-.64.11-1,.17a2,2,0,0,0-.71.29,5.23,5.23,0,0,0,1.41.31c1.58.12,2.87-.43,2.88-1.23s-.89-1.32-2.11-1.58A1,1,0,0,0,159.88,188.29Z" transform="translate(-98 -13)"/><path class="cls-14" d="M182.72,214.42a3.81,3.81,0,0,0,.42-2.43l-.86,1,.7-1.37a.76.76,0,0,0-.37-.32c-.75-.3-1.91.62-2.6,2.06s-.63,2.83.12,3.13S182,215.85,182.72,214.42Z" transform="translate(-98 -13)"/><path class="cls-11" d="M182.2,215a8.51,8.51,0,0,1-1-.16.88.88,0,0,1-.54-1c0-.3.14-.64.19-1a1.81,1.81,0,0,0,0-.77,5.15,5.15,0,0,0-.79,1.21c-.68,1.43-.63,2.83.12,3.13s1.54-.36,2.23-1.41Z" transform="translate(-98 -13)"/><path class="cls-14" d="M270.06,193.34a3.9,3.9,0,0,0-2.42.48l1.24.46-1.54-.17a.76.76,0,0,0-.16.46c0,.81,1.27,1.56,2.85,1.69s2.87-.43,2.88-1.23S271.65,193.47,270.06,193.34Z" transform="translate(-98 -13)"/><path class="cls-11" d="M270.8,193.62c0,.34.21.68.22,1a.87.87,0,0,1-.73.85,9.12,9.12,0,0,1-1,.17,2,2,0,0,0-.71.29,5.23,5.23,0,0,0,1.41.31c1.58.12,2.87-.43,2.88-1.23s-.89-1.32-2.11-1.58Z" transform="translate(-98 -13)"/><path class="cls-14" d="M293.64,219.75a3.81,3.81,0,0,0,.42-2.43l-.86,1,.7-1.37a.72.72,0,0,0-.37-.32c-.75-.3-1.91.62-2.6,2.06s-.63,2.83.12,3.13S293,221.18,293.64,219.75Z" transform="translate(-98 -13)"/><path class="cls-11" d="M293.12,220.35c-.33-.09-.71,0-1-.17a.86.86,0,0,1-.53-1c0-.3.13-.64.18-1a1.81,1.81,0,0,0,0-.77,5.48,5.48,0,0,0-.79,1.21c-.68,1.43-.63,2.83.12,3.13s1.55-.36,2.23-1.41Z" transform="translate(-98 -13)"/><path class="cls-14" d="M288.33,180.26a3.86,3.86,0,0,0-1.37-2l.05,1.31-.43-1.48a.82.82,0,0,0-.49,0c-.75.3-.95,1.77-.47,3.28s1.5,2.49,2.24,2.19S288.82,181.77,288.33,180.26Z" transform="translate(-98 -13)"/><path class="cls-11" d="M288.36,181.05a9.39,9.39,0,0,1-.86.59.88.88,0,0,1-1.07-.35c-.19-.23-.34-.55-.52-.82a2.06,2.06,0,0,0-.55-.55,5.32,5.32,0,0,0,.27,1.43c.48,1.51,1.49,2.49,2.23,2.19s.88-1.33.65-2.56Z" transform="translate(-98 -13)"/><path class="cls-14" d="M273,212.15a3.81,3.81,0,0,0,2.41-.54l-1.25-.42,1.54.13a.8.8,0,0,0,.15-.47c0-.81-1.31-1.53-2.9-1.61s-2.86.5-2.84,1.3S271.38,212.07,273,212.15Z" transform="translate(-98 -13)"/><path class="cls-11" d="M272.21,211.9a9.41,9.41,0,0,1-.24-1,.87.87,0,0,1,.7-.87c.29-.09.65-.12,1-.19a2,2,0,0,0,.71-.32,5.31,5.31,0,0,0-1.43-.26c-1.58-.08-2.86.5-2.84,1.3s.92,1.3,2.15,1.53A.91.91,0,0,0,272.21,211.9Z" transform="translate(-98 -13)"/><text class="cls-17" transform="translate(10.15 78.86)">Sophia<tspan class="cls-18" x="63.36" y="0">’</tspan><tspan x="68.22" y="0">s P</tspan><tspan class="cls-19" x="95.75" y="0">r</tspan><tspan class="cls-20" x="103.47" y="0">o</tspan><tspan x="115.24" y="0">-s</tspan><tspan class="cls-21" x="131.59" y="0">k</tspan><tspan x="143.62" y="0">a</tspan><tspan class="cls-22" x="154.56" y="0">t</tspan><tspan x="162.17" y="0">er </tspan><tspan x="67.66" y="20.54">2</tspan><tspan class="cls-23" x="78.07" y="20.54">K</tspan><tspan x="91.25" y="20.54">20</tspan></text></svg>