<svg id="Layer_1" data-name="Layer 1" xmlns="http://www.w3.org/2000/svg" xmlns:xlink="http://www.w3.org/1999/xlink" viewBox="0 0 303.71 258.06"><defs><style>.cls-1,.cls-2{fill:#6c63ff;}.cls-1,.cls-15,.cls-3{opacity:0.1;}.cls-1,.cls-16,.cls-17,.cls-18,.cls-3,.cls-6,.cls-7,.cls-8{isolation:isolate;}.cls-4{fill:#ffd037;}.cls-5{fill:#a8a8a8;}.cls-17,.cls-6{opacity:0.2;}.cls-7{opacity:0.03;}.cls-17,.cls-21,.cls-8{fill:#fff;}.cls-18,.cls-8{opacity:0.15;}.cls-9{fill:url(#linear-gradient);}.cls-10{fill:#53517c;}.cls-11{fill:#b3d7f7;}.cls-12{fill:#c37871;}.cls-13{fill:#e6eaed;}.cls-14{fill:#4b3e3c;}.cls-16{opacity:0.25;}.cls-19{fill:#5e5a6b;}.cls-20{fill:#6a6ace;}.cls-21{font-size:11px;font-family:Montserrat-Medium, Montserrat;font-weight:500;}.cls-22{letter-spacing:-0.05em;}.cls-23{letter-spacing:0em;}.cls-24{letter-spacing:0em;}.cls-25{letter-spacing:-0.01em;}.cls-26{letter-spacing:-0.01em;}.cls-27{letter-spacing:-0.01em;}.cls-28{letter-spacing:-0.01em;}.cls-29{letter-spacing:0em;}.cls-30{letter-spacing:0.02em;}.cls-31{letter-spacing:-0.02em;}.cls-32{letter-spacing:-0.01em;}.cls-33{letter-spacing:-0.01em;}</style><linearGradient id="linear-gradient" x1="364.07" y1="17.45" x2="364.07" y2="189.89" gradientTransform="matrix(1, 0, 0, -1, -99.58, 270.5)" gradientUnits="userSpaceOnUse"><stop offset="0" stop-color="gray" stop-opacity="0.25"/><stop offset="0.54" stop-color="gray" stop-opacity="0.12"/><stop offset="1" stop-color="gray" stop-opacity="0.1"/></linearGradient></defs><title>why-2</title><path class="cls-1" d="M145.1,32.49c9.34-8.33,24-10,37.36-9.36,41.92,2.08,79.77,22.32,112.5,45.21,11.85,8.29,23.52,17.22,31.21,28.63,15.66,23.24,11,55.43-10.76,74.56C308,178.05,299,183,289.8,187.47c-16.38,7.86-34.08,14.18-52.68,16-13.27,1.28-26.71.24-39.9-1.55-36.85-5-73-16.05-103.34-35-13.3-8.29-25.84-18.6-31.32-32s-2-30.42,11.61-38.36c5.61-3.28,12.33-4.77,18.9-6.16,9.68-2.05,19.51-4.07,28.24-8.24,9-4.3,19.7-12.63,17.91-22.15C137.31,49.78,135.77,40.8,145.1,32.49Z" transform="translate(-48 -23)"/><ellipse class="cls-1" cx="293.57" cy="252.28" rx="10.14" ry="1.71"/><ellipse class="cls-1" cx="119.39" cy="231.14" rx="45.13" ry="7.99"/><ellipse class="cls-1" cx="240.59" cy="229.56" rx="22.94" ry="5.05"/><path class="cls-2" d="M343.67,253.62s1.86,2.43-.86,6.12-5,6.78-4.06,9.07c0,0,4.11-6.83,7.45-6.93S347.34,257.72,343.67,253.62Z" transform="translate(-48 -23)"/><path class="cls-3" d="M343.67,253.62a3.25,3.25,0,0,1,.38.77c3.26,3.83,5,7.41,1.86,7.49-2.92.09-6.42,5.31-7.26,6.63,0,.1.06.2.1.3s4.11-6.83,7.45-6.92S347.34,257.72,343.67,253.62Z" transform="translate(-48 -23)"/><path class="cls-4" d="M347.13,256.73c0,.86-.1,1.55-.22,1.55s-.21-.69-.21-1.55.12-.45.24-.45S347.13,255.87,347.13,256.73Z" transform="translate(-48 -23)"/><path class="cls-4" d="M348.32,257.75c-.75.41-1.41.66-1.47.56s.51-.53,1.26-.94.46-.11.52,0S349.07,257.34,348.32,257.75Z" transform="translate(-48 -23)"/><path class="cls-2" d="M333.83,253.62s-1.86,2.43.86,6.12,5,6.78,4.06,9.07c0,0-4.11-6.83-7.45-6.93S330.15,257.72,333.83,253.62Z" transform="translate(-48 -23)"/><path class="cls-3" d="M333.83,253.62a3.25,3.25,0,0,0-.38.77c-3.26,3.83-5,7.41-1.86,7.49,2.92.09,6.42,5.31,7.26,6.63,0,.1-.06.2-.1.3s-4.11-6.83-7.45-6.92S330.15,257.72,333.83,253.62Z" transform="translate(-48 -23)"/><path class="cls-4" d="M330.37,256.73c0,.86.1,1.55.22,1.55s.21-.69.21-1.55-.12-.45-.24-.45S330.37,255.87,330.37,256.73Z" transform="translate(-48 -23)"/><path class="cls-4" d="M329.18,257.75c.76.41,1.41.66,1.47.56s-.51-.53-1.26-.94-.46-.11-.51,0S328.43,257.34,329.18,257.75Z" transform="translate(-48 -23)"/><path class="cls-5" d="M331,268.49s5.21-.16,6.78-1.28,8-2.45,8.4-.66,7.82,8.92,1.94,9-13.66-.91-15.22-1.87S331,268.49,331,268.49Z" transform="translate(-48 -23)"/><path class="cls-6" d="M348.19,274.89c-5.88.05-13.66-.91-15.23-1.87-1.19-.73-1.66-3.34-1.82-4.54H331s.33,4.2,1.89,5.16,9.35,1.92,15.23,1.87c1.69,0,2.28-.6,2.25-1.52C350.1,274.54,349.46,274.88,348.19,274.89Z" transform="translate(-48 -23)"/><ellipse class="cls-1" cx="10.14" cy="239.53" rx="10.14" ry="1.71"/><path class="cls-5" d="M51.33,254.56s5.79-.17,7.53-1.42,8.9-2.73,9.33-.73,8.7,9.9,2.17,10-15.18-1-16.92-2.08S51.33,254.56,51.33,254.56Z" transform="translate(-48 -23)"/><path class="cls-6" d="M70.47,261.67c-6.53.05-15.17-1-16.92-2.08-1.32-.81-1.85-3.7-2-5h-.19s.37,4.67,2.12,5.73,10.39,2.12,16.92,2.07c1.89,0,2.54-.68,2.5-1.68C72.59,261.29,71.87,261.67,70.47,261.67Z" transform="translate(-48 -23)"/><ellipse class="cls-2" cx="47.43" cy="245.96" rx="11.05" ry="1.87"/><path class="cls-2" d="M100,265.92a3.23,3.23,0,0,0,1-1.59,1.41,1.41,0,0,0-.73-1.62c-.68-.26-1.4.21-1.95.68a2.53,2.53,0,0,1-1.89.91,2.88,2.88,0,0,0,.89-2.7,1.08,1.08,0,0,0-.25-.54c-.38-.41-1.05-.23-1.52.08-1.43,1-1.82,2.95-1.83,4.7a9.65,9.65,0,0,1,0-1.94,2,2,0,0,0-.72-1.71,3,3,0,0,0-2.91.26,1.79,1.79,0,0,0,.07,2.2A6.94,6.94,0,0,0,92,266.14a4.14,4.14,0,0,1,1.33,1.27,2.14,2.14,0,0,1,.1.22h4A11.19,11.19,0,0,0,100,265.92Z" transform="translate(-48 -23)"/><polygon class="cls-2" points="125.17 142.48 123.3 141.93 123.39 143.29 127.58 144.89 126.82 142.63 125.17 142.48"/><polygon class="cls-7" points="125.17 142.48 123.3 141.93 123.39 143.29 127.58 144.89 126.82 142.63 125.17 142.48"/><path class="cls-2" d="M232.69,226.24a86,86,0,0,0,24.82-60.58v-.73H171.39Z" transform="translate(-48 -23)"/><path class="cls-7" d="M232.69,226.24a86,86,0,0,0,24.82-60.58v-.73H171.39Z" transform="translate(-48 -23)"/><path class="cls-2" d="M232.69,227.6A86,86,0,0,0,257.51,167v-.73H171.39Z" transform="translate(-48 -23)"/><path class="cls-8" d="M232.69,227.6A86,86,0,0,0,257.51,167v-.73H171.39Z" transform="translate(-48 -23)"/><path class="cls-9" d="M311,151.82l-1.33-12S307.3,129,307,123.62s-2.94-5.79-3-5.79h0s-3.21-1.88-3.5-2.5a10.76,10.76,0,0,0-2.81-2l-.39-.21s-1-4.17-2.2-3.57l-.09-.29a10.1,10.1,0,0,1-.56-2.78v-.35a9.87,9.87,0,0,0,3-6.55v-.36c.59-.41.68-1.28.84-2,.28-1.33,1-2.52,1.38-3.83a2.21,2.21,0,0,0,.08-.35V93a4.39,4.39,0,0,0,.07-.72v-.06a2.81,2.81,0,0,0-1.12-2.48,2.14,2.14,0,0,1-.52-.37,1.52,1.52,0,0,1-.27-.48l-.61-1.45a1.56,1.56,0,0,0-.3-.51,2.23,2.23,0,0,0-.81-.38,4.12,4.12,0,0,1-2-2,8.82,8.82,0,0,0-1.55-2.43c-1.12-1.08-2.8-1.31-4.35-1.48a4.4,4.4,0,0,0-.11,1.49c-2.47-.54-5.16-1.06-7.43,0a1.7,1.7,0,0,0-.91.88h0a.74.74,0,0,0,0,.14h0a.61.61,0,0,0,0,.19,1.75,1.75,0,0,1,0,.4.65.65,0,0,1-.38.41c-.75.33-1.65-.1-2.43.16A2.46,2.46,0,0,0,275.76,86a5.6,5.6,0,0,1-.84,2.06c-.25.3-.57.51-.82.79a2.42,2.42,0,0,0-.57,1.93v0a.94.94,0,0,0,.06.28c0,.1.07.2.11.3s.09.17.14.26h0a5.89,5.89,0,0,1,1,1.72v0c.15.84-.38,1.63-.51,2.46h0c0,.07,0,.13,0,.2v.23c0,1.21,1.15,2,1.82,2.91a5.49,5.49,0,0,0,.85,1.18c0,.13,0,.26.07.38a9.66,9.66,0,0,0,1,2.82,10.37,10.37,0,0,0,5.3,4.75,2.2,2.2,0,0,0,0,.36c0,.22,0,.45,0,.68v.33l-.1-.77a3,3,0,0,0-1.15,0,87.51,87.51,0,0,0-60-23.84V127c-2.51-.75-4.56-.84-4.4.93s2.12,3.67,4.4,5.19v39.79h43.77a6.12,6.12,0,0,0,.3,2.14c.47.57.43,7.41.43,7.41s.23,1.25.29,1.47.74,6,.74,6.31a21.1,21.1,0,0,1,.57,3.07,14.75,14.75,0,0,0,1,3.41l.17,4.78s1.77,2.67,1.89,2.84.05,3.52,2,5.12a2.17,2.17,0,0,1,.63,1.07c.15.58,5,8.79,6.54,11.32l-.18.86-1.21,5.67-.06,2.39a7.45,7.45,0,0,0-.52,2.9,3.17,3.17,0,0,1,.12,1.37s-.8,1.24-.29,2,.23,1.25-.51,3.3a1.43,1.43,0,0,0,.37,1.78,1.54,1.54,0,0,1,0,.3c-.1.91-.22,1.95-.22,2.23s-.11,1.52-.11,2.61c0,.86.05,1.64.28,1.77.52.28,3.38.6,3.44,1.59s1.15,2.38,3.43,2.38,6.25-.79,7.22-.68c.16,0,.25-.08.3-.27a.36.36,0,0,0,0-.1,2.18,2.18,0,0,0,1.34.71c3.43.63,7.61-.91,8.41-2.44a3.22,3.22,0,0,0,.24-.61,7.35,7.35,0,0,0-.24-3.42,6,6,0,0,1-.07-2.35,2,2,0,0,1,.47-.95,10.29,10.29,0,0,0,1.44-3.43c.28-1,.45-1.8.45-1.8s-.36-.55-.91-1.31h0c-1.1-1.55-3-4-4.12-4.36a1.12,1.12,0,0,1-.12-.35,11.73,11.73,0,0,0-1.26-2.43,32.53,32.53,0,0,1-1.66-2.9c0-.22-2.29-3.7-2.29-3.7s-.88-1.9-1.46-2.94a6.54,6.54,0,0,0,.2-.68,46.7,46.7,0,0,0,1.09-8.6,3.7,3.7,0,0,1,.57-3.18,6.85,6.85,0,0,0,.8-3.41s-.06-6.42.57-7.73,2.4-11.76,2.35-12a8.75,8.75,0,0,1,.46-1.66l.1-4.13v-.25s.4-3.58.91-4.38a1.91,1.91,0,0,0,.16-.78h9.45c0-.57,0-1.14,0-1.7h0a87.64,87.64,0,0,0-.91-11.89c.88-1.08,1.95-1.82,2-2.05a12.15,12.15,0,0,1,.63-2A9.08,9.08,0,0,0,311,151.82Zm-19.07,89s.25-.15.64-.35c0,.1.05.2.07.3a14,14,0,0,1,.49,3.34c-.11,1.19-.3,3.07-.3,3.07a9.9,9.9,0,0,0-.72,2.13c-.19-.75-.37-1.34-.37-1.34s-3.89-2.61-3.89-3.93a10.77,10.77,0,0,0-.27-2h0c0-.16-.07-.32-.11-.47a3.37,3.37,0,0,1,.44.67s1.16-2.82,1.44-4a1,1,0,0,0,.05-.43,3.48,3.48,0,0,1-.07-1.16c.27.3.48.6.41.82C289.62,238,292,240.77,292,240.77Z" transform="translate(-48 -23)"/><path class="cls-10" d="M292.29,252.67c-1-.11-4.86.68-7.12.68s-3.34-1.41-3.39-2.38-2.88-1.29-3.39-1.57c-.22-.13-.28-.91-.28-1.76,0-1.09.11-2.31.11-2.6s.12-1.31.22-2.21.18-1.46.18-1.46c2.65-3.22,8.7-.85,8.7-.85s.26.9.47,1.9h0a9.83,9.83,0,0,1,.26,1.94c0,1.3,3.85,3.9,3.85,3.9a24.26,24.26,0,0,1,.63,2.68C292.69,251.89,292.72,252.72,292.29,252.67Z" transform="translate(-48 -23)"/><path class="cls-3" d="M292.29,252.67c-1-.11-4.86.68-7.12.68s-3.34-1.41-3.39-2.38-2.88-1.29-3.39-1.58c-.22-.12-.28-.91-.28-1.75a8.66,8.66,0,0,1,3.11,1.42c.84.91,1.07,1.91,1.64,2s1.13.91,3.84.22a24.5,24.5,0,0,1,5.83-.37C292.69,251.89,292.72,252.72,292.29,252.67Z" transform="translate(-48 -23)"/><path class="cls-10" d="M302.63,243.29c-1,1-.39,3.28-.39,3.28s.78,2.49,0,4-4.92,3-8.31,2.43a2,2,0,0,1-1.54-1.06c-.83-1.63.58-4.48.58-4.48l.28-3.05a14.22,14.22,0,0,0-.48-3.32c-.17-.72-.31-1.25-.31-1.25s5.16-7.4,6.73-7.46l.22,0c1.14.28,3.07,2.79,4.19,4.38.54.76.9,1.31.9,1.31S303.59,242.28,302.63,243.29Z" transform="translate(-48 -23)"/><path class="cls-3" d="M302.63,243.29c-1,1-.39,3.28-.39,3.28s.78,2.49,0,4-4.92,3-8.31,2.43a2,2,0,0,1-1.54-1.06c1-.2,2.51-.47,4.93-.75,5.82-.68,4.29-4.52,4.29-4.52s-.68-2.71.17-4.07a29.34,29.34,0,0,0,1.82-5.82c.54.75.9,1.3.9,1.3S303.59,242.28,302.63,243.29Z" transform="translate(-48 -23)"/><path class="cls-3" d="M287.79,242.42c-.81-1.11-3.21-3.24-8,.93a2.79,2.79,0,0,1-1.31-.52c.09-.78.18-1.46.18-1.46,2.65-3.22,8.7-.85,8.7-.85S287.58,241.42,287.79,242.42Z" transform="translate(-48 -23)"/><path class="cls-11" d="M298.9,178.82v.25l-.11,4.11a8.72,8.72,0,0,0-.46,1.64c.06.22-1.69,10.62-2.32,11.92s-.56,7.68-.56,7.68a7,7,0,0,1-.8,3.39,3.82,3.82,0,0,0-.55,3.18,45.71,45.71,0,0,1-1.07,8.54,3,3,0,0,1-.4,1.07.72.72,0,0,0-.14.26c-.81,2.09-2.91,15-2.91,15s0,.25,0,.59a6.55,6.55,0,0,0,0,1.79.91.91,0,0,1-.05.43c-.27,1.12-1.42,3.92-1.42,3.92s-2.2-4.92-8.36.39c0,0-2.38-.22-1.64-2.26s1-2.48.51-3.27.28-2,.28-2a3.13,3.13,0,0,0-.11-1.36,7.37,7.37,0,0,1,.51-2.88l.05-2.37,1.19-5.65.36-1.7.37-1.75,2-34.25.07-1.27.55-9.62,13.33-2.2.46,3.49.72,1.72Z" transform="translate(-48 -23)"/><path class="cls-3" d="M292.59,178.3l-8.16,5.38.3,4.71s.85,7.57.85,8.36-.4,7.23-.4,7.23,2,3,1.82,3.78,1.75,2.83,1.75,2.83l3.36,6.43a12.43,12.43,0,0,0,.91,2.49,3,3,0,0,1-.4,1.07c-.68.68-3.05,15.31-3.05,15.31s0,.25-.05.59a2.89,2.89,0,0,0-.3-.25,28.73,28.73,0,0,1-1.64-3,20.09,20.09,0,0,0-1.75-2.55l-4-7.62-.94-1.58.37-1.76,2.6-45.14,13.33-2.2.46,3.5L285.52,179Z" transform="translate(-48 -23)"/><path class="cls-3" d="M298.22,178.82l-14.91,5.39.55-9.62,13.33-2.2.46,3.5.72,1.72C298.28,178.3,298.22,178.82,298.22,178.82Z" transform="translate(-48 -23)"/><path class="cls-3" d="M289.58,238.26a.9.9,0,0,1-.05.43c-.21-.35-.34-.63-.3-.76.17-.51-1.36-1.7-1.36-1.7a28.73,28.73,0,0,1-1.64-3,20.09,20.09,0,0,0-1.75-2.55l-3.94-7.5.35-1.7.37-1.76,2-34.23.11,2.89s.86,7.56.86,8.34-.4,7.23-.4,7.23,2,3,1.83,3.79,1.75,2.82,1.75,2.82l3.39,6.44a9.46,9.46,0,0,0,1,2.54,6.17,6.17,0,0,1,.76,1.28c-.81,2.1-2.91,15-2.91,15s0,.25,0,.59A6,6,0,0,0,289.58,238.26Z" transform="translate(-48 -23)"/><path class="cls-3" d="M301,235.16s-2.54,4.57-4.46,4.69a10.48,10.48,0,0,0-3.76,1.25c-.17-.72-.31-1.25-.31-1.25s5.16-7.4,6.73-7.46l.22,0v0A13.9,13.9,0,0,0,301,235.16Z" transform="translate(-48 -23)"/><path class="cls-11" d="M301,234.82s-2.54,4.57-4.46,4.69a12.45,12.45,0,0,0-4.46,1.64s-2.32-2.72-2.15-3.22-1.36-1.7-1.36-1.7a28.73,28.73,0,0,1-1.64-3,20.09,20.09,0,0,0-1.75-2.55l-4-7.62s-6.72-11.31-6.89-12a2.17,2.17,0,0,0-.63-1.07c-1.91-1.59-1.86-4.92-2-5.09l-1.86-2.82-.17-4.75a14.35,14.35,0,0,1-1-3.39,20.75,20.75,0,0,0-.57-3.05c0-.29-.68-6-.73-6.27s-.29-1.47-.29-1.47.06-6.78-.39-7.35a10.15,10.15,0,0,1-.34-3.29c0-1.16,0-2.19,0-2.19l33.27-3.44s.21,1.89.33,3.79a11.94,11.94,0,0,1-.1,3.78c-.51.79-.91,4.35-.91,4.35l-15,5.42.17,4.13s.85,7.57.85,8.36-.4,7.23-.4,7.23,2,3,1.82,3.79,1.75,2.82,1.75,2.82l3.39,6.44a10.19,10.19,0,0,0,1,2.54,27.75,27.75,0,0,1,1.87,3.57s2.26,3.45,2.26,3.67a32.38,32.38,0,0,0,1.64,2.89,12,12,0,0,1,1.24,2.42A13.29,13.29,0,0,0,301,234.82Z" transform="translate(-48 -23)"/><path class="cls-3" d="M280.65,206.34s2.77,3.17,4.18,3.22S280.65,206.34,280.65,206.34Z" transform="translate(-48 -23)"/><path class="cls-3" d="M291.22,237.42s8.36-4.3,7.28-2.32-4.12,3-4.12,3Z" transform="translate(-48 -23)"/><path class="cls-3" d="M280.31,236.46s5.14.33,5.82,1.18C286.13,237.64,280.65,236.51,280.31,236.46Z" transform="translate(-48 -23)"/><path class="cls-3" d="M280.37,238.21s4.69.17,6.21.84C286.58,239.05,281.61,238.88,280.37,238.21Z" transform="translate(-48 -23)"/><path class="cls-12" d="M234.15,139.68l-1.49-.68-2.35-1.08s-11.19-4.46-11.53-8.92,13,2.94,13,2.94a13.45,13.45,0,0,0,1.25,1.67,2.56,2.56,0,0,0,1.3.92C235.4,134.65,234.15,139.68,234.15,139.68Z" transform="translate(-48 -23)"/><path class="cls-12" d="M296.36,115.49l-3.67,4.25-8.93-2.93-2.2-1.76,1.41-1.86a4.3,4.3,0,0,0,.6-2.61,5.23,5.23,0,0,0,0-.68,17.21,17.21,0,0,0-.63-3.32s12.71-3.22,11.81-.57a4.77,4.77,0,0,0-.22,1.71,10.41,10.41,0,0,0,.56,2.77,17.12,17.12,0,0,0,.95,2.3Z" transform="translate(-48 -23)"/><path class="cls-3" d="M294.72,106a4.5,4.5,0,0,0-.21,1.71,10.16,10.16,0,0,1-11,2.18,17.87,17.87,0,0,0-.64-3.32S295.62,103.35,294.72,106Z" transform="translate(-48 -23)"/><path class="cls-12" d="M297.54,100.13c0,.24,0,.48,0,.72a10.17,10.17,0,0,1-19.16,4,9.9,9.9,0,0,1-1-2.8,9.45,9.45,0,0,1-.19-1.91,10.36,10.36,0,0,1,.14-1.67,10.17,10.17,0,0,1,20.19,1.32C297.54,99.89,297.54,100,297.54,100.13Z" transform="translate(-48 -23)"/><path class="cls-3" d="M296.36,115.49l-3.67,4.25-8.93-2.93-2.2-1.76,1.41-1.86a4.3,4.3,0,0,0,.6-2.61l.41,3.12.1.1.58.58h.73l1.42,1.92s2-1.64,2.2-1.25,2.94-.67,2.94-.67h.1c2.51-.11,2.95-3.84,2.95-3.84l.06-.05a17.24,17.24,0,0,0,.95,2.31Z" transform="translate(-48 -23)"/><path class="cls-3" d="M299.9,170.7c-.06.25-.13.49-.21.73-2.2,7-18.08,7.17-18.08,7.17l-.45-4.35-1.52,2.94s-9.82-2.71-13.33-4.65c0-1.16,0-2.19,0-2.19l33.27-3.44S299.78,168.81,299.9,170.7Z" transform="translate(-48 -23)"/><path class="cls-3" d="M234.15,139.68l-1.49-.68a36.77,36.77,0,0,0,.41-5.39,2.58,2.58,0,0,0,1.31.92C235.4,134.65,234.15,139.68,234.15,139.68Z" transform="translate(-48 -23)"/><path class="cls-10" d="M299.41,154.82s2.49,8.92.28,15.93-18.08,7.16-18.08,7.16l-.45-4.35-1.52,2.95s-11.86-3.29-14.17-5.21a4.31,4.31,0,0,1-1.14-4.8s.8-3.72,1.47-4.52.79-3.56.57-3.94.79-4.13,1.13-4.69-.06-15.65-.06-15.65-5,2.25-5.31,2.93-6.21,4-6.21,4-5.6.68-6.61.68-6.62-.68-6.62-.68a5.41,5.41,0,0,1-2-.4,6.12,6.12,0,0,0-1.47-.62,4.48,4.48,0,0,1-2-1c-.45-.62-4.25-2.71-4.25-2.71.74-.45.8-6.37.8-6.37l7.17,1.75s.46-1,1.13-.57,4.81.73,4.81.73,3.44-.68,3.61-.4.68.23.68.23.68-.06.68-.28.61.05.61.05l1.13.17s-.17-1.46.34-1.58a.74.74,0,0,0,.56-.62s1.52-2,2.26-2,1.25-2,1.25-2l2.71-2.76s-.34-1.42,0-1.47.39-.68.39-.68.11-1.24.74-1.52,1-1.92,1-1.92,2.88-3.22,3.1-4.35a1.84,1.84,0,0,1,1.42-1.35,6.61,6.61,0,0,1,2.09-.91c1-.17,3.5-.46,3.5-.46s4.63-.39,5.09-.91a2.19,2.19,0,0,1,1.74-.46A.51.51,0,0,0,280,112a18.1,18.1,0,0,0,1.55-1.58,2.32,2.32,0,0,1,1.86-.34L284,114l.1.09.58.59h.73l1.42,1.92s2-1.64,2.2-1.24,2.94-.68,2.94-.68h.1c2.51-.11,3-3.84,3-3.84,1.24-1.08,2.32,3.45,2.32,3.45l.39.21a10.8,10.8,0,0,1,2.77,1.93c.28.61,3.44,2.49,3.44,2.49Z" transform="translate(-48 -23)"/><path class="cls-12" d="M300.88,168.38l-1.67,1.34-1.89,1.52s-3.51,8.19-8.31,5.88,6.44-10.89,6.44-10.89l1.55-.75,1.72-.83Z" transform="translate(-48 -23)"/><path class="cls-3" d="M283.74,114.79a22.14,22.14,0,0,0-3.95,2.45l-.08-4.52a16.77,16.77,0,0,0,1.55-1.58,2.39,2.39,0,0,1,1.87-.34l.51,3.9Z" transform="translate(-48 -23)"/><path class="cls-13" d="M284.08,114.12a21.73,21.73,0,0,0-3.95,2.45l-.07-4.51a16.77,16.77,0,0,0,1.55-1.58,2.34,2.34,0,0,1,1.87-.34L284,114Z" transform="translate(-48 -23)"/><path class="cls-3" d="M297.71,115.54c-.87,2.32-1.95,4.89-2.14,3.91-.23-1.17-2.27-2.82-3.51-3.73,2.5-.11,2.94-3.84,2.94-3.84,1.25-1.07,2.32,3.45,2.32,3.45Z" transform="translate(-48 -23)"/><path class="cls-13" d="M297.71,114.52c-.87,2.33-1.95,4.9-2.14,3.91-.23-1.17-2.27-2.82-3.51-3.73,2.5-.11,2.94-3.84,2.94-3.84,1.25-1.07,2.32,3.45,2.32,3.45Z" transform="translate(-48 -23)"/><path class="cls-3" d="M286.19,203.74s6.44-.91,6.16.46S286.19,203.74,286.19,203.74Z" transform="translate(-48 -23)"/><path class="cls-3" d="M275.79,181.55a7.85,7.85,0,0,1,4.81-.78Z" transform="translate(-48 -23)"/><path class="cls-3" d="M271.67,177.87s4.07-.62,5.59.06Z" transform="translate(-48 -23)"/><path class="cls-3" d="M289.47,187.19s-3.56,3.78-3.34,4.8Z" transform="translate(-48 -23)"/><path class="cls-3" d="M254.72,136.4s-.56,2,2.88,2.88Z" transform="translate(-48 -23)"/><path class="cls-3" d="M253.7,139.9s4.25,3.79,2.26,3.9S253.7,139.9,253.7,139.9Z" transform="translate(-48 -23)"/><path class="cls-3" d="M263.14,124.7s5.2,3.62,4.85,4.47S263.14,124.7,263.14,124.7Z" transform="translate(-48 -23)"/><path class="cls-3" d="M300.88,168.38l-1.67,1.34a10.15,10.15,0,0,0-2.2-4.25l1.72-.83Z" transform="translate(-48 -23)"/><path class="cls-10" d="M301.67,120.35l2.26-1.41s2.6.4,2.94,5.77,2.71,16.1,2.71,16.1l1.3,11.92a8.86,8.86,0,0,1,.06,3.39,11.87,11.87,0,0,0-.61,2c-.06.4-3.17,2.32-3.11,4.8s-3.94,4.8-3.94,4.8a16.86,16.86,0,0,0-3.45,2.6s-1-4.52-3.05-5.65,4.41-10.11,4.41-10.11Z" transform="translate(-48 -23)"/><path class="cls-3" d="M297.76,154.74s-6.78,2.83-6.22,3.73S297.76,154.74,297.76,154.74Z" transform="translate(-48 -23)"/><path class="cls-3" d="M297.76,158.36s-2.82,1.25-2.59,1.64S297.76,158.36,297.76,158.36Z" transform="translate(-48 -23)"/><path class="cls-3" d="M296.18,160.73s-2.82,1.25-2.59,1.65S296.18,160.73,296.18,160.73Z" transform="translate(-48 -23)"/><path class="cls-2" d="M223.13,88.11v85.58h86.13A86.32,86.32,0,0,0,223.13,88.11Z" transform="translate(-48 -23)"/><path class="cls-3" d="M223.13,88.11v85.58h86.13A86.32,86.32,0,0,0,223.13,88.11Z" transform="translate(-48 -23)"/><path class="cls-2" d="M223.13,86.42V172h86.13A86.3,86.3,0,0,0,223.13,86.42Z" transform="translate(-48 -23)"/><path class="cls-12" d="M289.48,174.39a2.18,2.18,0,0,1,.4-1.31,2.12,2.12,0,0,1,1-.54c.32-.11.64-.21,1-.3a2.28,2.28,0,0,1,.78-.13,2.7,2.7,0,0,1,1.44.67.63.63,0,0,1,.21.22c.1.22-.11.46-.3.6a14.47,14.47,0,0,1-2.16,1.59,4.31,4.31,0,0,1-1.89.65C289.12,175.86,289.43,175,289.48,174.39Z" transform="translate(-48 -23)"/><path class="cls-3" d="M297.54,100.13c0,.24,0,.48,0,.72l-.14.08a4.46,4.46,0,0,0-.5.22c-.49.34-.38,1.07-.33,1.67a4.46,4.46,0,0,1-.52,2.48.89.89,0,0,1-.79-.74,5.61,5.61,0,0,1,0-1.16,10,10,0,0,0-1-2.94c-.67-1.87-.52-3.94-1-5.88a2.4,2.4,0,0,0-.83-1.51,2.21,2.21,0,0,0-2.23.11,12.06,12.06,0,0,1-2.06,1.11,6.11,6.11,0,0,1-3.53-.43,4.8,4.8,0,0,0-3.53-.11,4.73,4.73,0,0,0-2,3.13,3.06,3.06,0,0,0-.16,1,9.25,9.25,0,0,1,.13.94c0,.68-.58,1.22-.8,1.86-.14.4-.11,1.38-.69,1.37a.3.3,0,0,1-.18-.06,9.45,9.45,0,0,1-.19-1.91,10.17,10.17,0,0,1,20.33-.35C297.54,99.89,297.54,100,297.54,100.13Z" transform="translate(-48 -23)"/><path class="cls-14" d="M274.68,97.59c0-1,.7-1.9.53-2.86-.13-.76-.79-1.31-1.1-2a2.42,2.42,0,0,1,.38-2.56c.25-.27.56-.49.8-.78a5.8,5.8,0,0,0,.84-2,2.38,2.38,0,0,1,1.31-1.69c.76-.26,1.65.16,2.39-.17a.61.61,0,0,0,.37-.4,1.33,1.33,0,0,0,0-.4c-.05-.54.46-1,1-1.2,2.24-1.09,4.89-.57,7.33,0a4.91,4.91,0,0,1,.1-1.48c1.54.17,3.19.4,4.3,1.46a9,9,0,0,1,1.52,2.41,4.08,4.08,0,0,0,1.94,2,2.19,2.19,0,0,1,.8.38,1.46,1.46,0,0,1,.3.51l.59,1.44a1.87,1.87,0,0,0,.26.48,2.68,2.68,0,0,0,.52.36c1.13.74,1.29,2.36.94,3.67s-1.09,2.48-1.37,3.8c-.16.78-.25,1.74-1,2.09a4.52,4.52,0,0,0-.5.23c-.49.33-.38,1.06-.33,1.66A4.46,4.46,0,0,1,296,105a.87.87,0,0,1-.78-.74,5,5,0,0,1-.05-1.16,10,10,0,0,0-1-2.94c-.67-1.87-.52-3.94-1-5.88a2.45,2.45,0,0,0-.83-1.51,2.19,2.19,0,0,0-2.23.11A12.06,12.06,0,0,1,288.13,94a6.11,6.11,0,0,1-3.53-.43,3.65,3.65,0,0,0-5.51,3,3.11,3.11,0,0,0-.16,1,9.25,9.25,0,0,1,.13.94c0,.68-.58,1.21-.8,1.86-.14.4-.11,1.37-.69,1.37s-.88-1-1.09-1.28C275.82,99.6,274.72,98.79,274.68,97.59Z" transform="translate(-48 -23)"/><g class="cls-15"><path d="M275.21,94.05c-.13-.76-.79-1.31-1.1-2a2.28,2.28,0,0,1-.18-.63,2.24,2.24,0,0,0,.18,1.3c.3.69.95,1.24,1.1,2A1.78,1.78,0,0,0,275.21,94.05Z" transform="translate(-48 -23)"/><path d="M280.2,84.39v0a.39.39,0,0,0,0,.14Z" transform="translate(-48 -23)"/><path d="M288.45,82.76v0Z" transform="translate(-48 -23)"/><path d="M299.72,94c-.35,1.3-1.09,2.48-1.37,3.8-.16.79-.25,1.74-1,2.1a3.63,3.63,0,0,0-.5.22c-.41.28-.4.83-.36,1.35a.87.87,0,0,1,.36-.67,4.52,4.52,0,0,1,.5-.23c.72-.35.81-1.31,1-2.09.28-1.32,1-2.5,1.37-3.8a4.64,4.64,0,0,0,.15-1.57A4.6,4.6,0,0,1,299.72,94Z" transform="translate(-48 -23)"/><path d="M296,104.29a.88.88,0,0,1-.78-.74,5.1,5.1,0,0,1-.05-1.17,10.08,10.08,0,0,0-1-2.94c-.67-1.87-.52-3.94-1-5.87a2.45,2.45,0,0,0-.83-1.52,2.23,2.23,0,0,0-2.23.11,12.11,12.11,0,0,1-2.06,1.12,6.12,6.12,0,0,1-3.53-.44,3.66,3.66,0,0,0-5.51,3,3.06,3.06,0,0,0-.16,1,1.66,1.66,0,0,0,0,.22,5.43,5.43,0,0,1,.13-.58,3.65,3.65,0,0,1,5.51-3,6.2,6.2,0,0,0,3.53.44,12.11,12.11,0,0,0,2.06-1.12,2.21,2.21,0,0,1,2.23-.11,2.39,2.39,0,0,1,.83,1.52c.45,1.94.31,4,1,5.87a11.43,11.43,0,0,1,1,2.94,5.1,5.1,0,0,0,.05,1.17.88.88,0,0,0,.78.74,4.51,4.51,0,0,0,.52-2.47A4.51,4.51,0,0,1,296,104.29Z" transform="translate(-48 -23)"/><path d="M278.26,99.71c-.14.4-.11,1.37-.69,1.37s-.88-1-1.09-1.27c-.61-.83-1.6-1.58-1.78-2.64a2,2,0,0,0,0,.42c0,1.2,1.14,2,1.8,2.89.21.31.66,1.28,1.09,1.28s.55-1,.69-1.37c.22-.64.79-1.18.8-1.86a1.72,1.72,0,0,0,0-.39C278.89,98.69,278.45,99.16,278.26,99.71Z" transform="translate(-48 -23)"/></g><rect class="cls-2" x="30.27" y="135.52" width="1.02" height="1.04"/><rect class="cls-16" x="30.27" y="135.52" width="1.02" height="1.04"/><rect class="cls-2" x="116.67" y="50.05" width="1" height="1.16"/><rect class="cls-16" x="116.67" y="50.05" width="1" height="1.16"/><path class="cls-17" d="M165.67,159.56h0V74h-.18a86.32,86.32,0,0,0-86.31,85.6Z" transform="translate(-48 -23)"/><path class="cls-2" d="M165.67,159.56h0V74h-.18a86.32,86.32,0,0,0-86.31,85.6Z" transform="translate(-48 -23)"/><path class="cls-16" d="M165.67,159.56h0V74h-.18a86.32,86.32,0,0,0-86.31,85.6Z" transform="translate(-48 -23)"/><path class="cls-2" d="M164.76,158.65h0V73.08h-.18a86.32,86.32,0,0,0-86.31,85.6Z" transform="translate(-48 -23)"/><path class="cls-18" d="M164.76,158.65h0V73.08h-.18a86.32,86.32,0,0,0-86.31,85.6Z" transform="translate(-48 -23)"/><polygon class="cls-2" points="180.42 205.55 181.69 206.35 181.69 207.87 179.97 207.6 180.42 205.55"/><polygon class="cls-3" points="180.42 205.55 181.69 206.35 181.69 207.87 179.97 207.6 180.42 205.55"/><polygon class="cls-2" points="59.15 206.16 58.67 206.3 58.67 207.82 60.29 207.47 59.89 205.99 59.15 206.16"/><polygon class="cls-3" points="59.15 206.16 58.67 206.3 58.67 207.82 60.29 207.47 59.89 205.99 59.15 206.16"/><path class="cls-2" d="M169.29,170.47l-62.62,60.35a86.3,86.3,0,0,0,122,1c.33-.32.66-.64,1-1Z" transform="translate(-48 -23)"/><path class="cls-2" d="M169.29,169,106.67,229.3a86.31,86.31,0,0,0,122,1c.33-.33.66-.65,1-1Z" transform="translate(-48 -23)"/><path class="cls-3" d="M169.29,169,106.67,229.3a86.31,86.31,0,0,0,122,1c.33-.33.66-.65,1-1Z" transform="translate(-48 -23)"/><path class="cls-2" d="M169.29,170.47l-62.62,60.35a86.3,86.3,0,0,0,122,1c.33-.32.66-.64,1-1Z" transform="translate(-48 -23)"/><polygon class="cls-19" points="114.47 139.37 116.79 139.24 116.79 139.85 112.88 140.26 113.23 139.47 114.47 139.37"/><polygon class="cls-3" points="114.47 139.37 116.79 139.24 116.79 139.85 112.88 140.26 113.23 139.47 114.47 139.37"/><path class="cls-19" d="M164.79,162.24,80.62,181.41a87.26,87.26,0,0,1-2-18.44v-.73Z" transform="translate(-48 -23)"/><path class="cls-3" d="M164.79,162.24,80.62,181.41a87.26,87.26,0,0,1-2-18.44v-.73Z" transform="translate(-48 -23)"/><path class="cls-19" d="M164.79,162.85,80.62,182a87.26,87.26,0,0,1-2-18.44v-.73Z" transform="translate(-48 -23)"/><path class="cls-20" d="M81.08,184a85.39,85.39,0,0,0,8.78,23.3l75.38-42.46Z" transform="translate(-48 -23)"/><path class="cls-20" d="M162.06,165.94l-72.42,40.8,0,.06a85.93,85.93,0,0,0,14.08,18.84l60.4-60.39-.55.05A5.38,5.38,0,0,1,162.06,165.94Z" transform="translate(-48 -23)"/><text class="cls-21" transform="translate(33.11 152.07) rotate(-7)"><tspan class="cls-22">T</tspan><tspan x="5.85" y="0">esti</tspan><tspan class="cls-23" x="25.72" y="0">n</tspan><tspan x="33.24" y="0">g</tspan></text><text class="cls-21" transform="translate(58.41 102.07)">Sou<tspan class="cls-23" x="21.26" y="0">n</tspan><tspan x="28.79" y="0">d </tspan><tspan x="-16.43" y="13.2">E</tspan><tspan class="cls-23" x="-9.06" y="13.2">n</tspan><tspan x="-1.54" y="13.2">gi</tspan><tspan class="cls-24" x="9.12" y="13.2">n</tspan><tspan x="16.64" y="13.2">ee</tspan><tspan class="cls-25" x="30.11" y="13.2">r</tspan><tspan x="34.54" y="13.2">i</tspan><tspan class="cls-24" x="37.61" y="13.2">n</tspan><tspan x="45.13" y="13.2">g</tspan></text><text class="cls-21" transform="translate(47.5 182.07) rotate(-25)">Design</text><text class="cls-21" transform="translate(202.12 110.07)"><tspan class="cls-26">L<tspan class="cls-27" x="6.46" y="0">e</tspan><tspan class="cls-28" x="13.08" y="0">v</tspan><tspan class="cls-29" x="19.06" y="0">el</tspan></tspan><tspan x="-5.31" y="13.2">Design</tspan></text><text class="cls-21" transform="matrix(0.87, 0.5, -0.5, 0.87, 155.89, 155.62)">A<tspan class="cls-30" x="8.05" y="0">r</tspan><tspan x="12.73" y="0">tist</tspan><tspan class="cls-30" x="30.41" y="0">r</tspan><tspan x="35.09" y="0">y</tspan></text><text class="cls-21" transform="translate(84 207.07)"><tspan class="cls-31">P</tspan><tspan class="cls-32" x="7.73" y="0">r</tspan><tspan x="12.11" y="0">og</tspan><tspan class="cls-33" x="26.69" y="0">r</tspan><tspan x="31.11" y="0">ammi</tspan><tspan class="cls-23" x="64.01" y="0">n</tspan><tspan x="71.53" y="0">g</tspan></text></svg>