<svg id="Layer_1" data-name="Layer 1" xmlns="http://www.w3.org/2000/svg" viewBox="0 0 385.79 289"><defs><style>.cls-1{fill:#6c63ff;stroke:#d3d3d3;stroke-miterlimit:10;stroke-width:2px;}.cls-2{font-size:16px;fill:#fff;font-family:Montserrat-SemiBold, Montserrat;font-weight:600;}.cls-3{letter-spacing:-0.02em;}.cls-4{letter-spacing:-0.01em;}.cls-5{letter-spacing:0.01em;}.cls-6{letter-spacing:0em;}.cls-7{letter-spacing:0em;}.cls-8{letter-spacing:-0.02em;}.cls-9{letter-spacing:-0.01em;}</style></defs><title>why-14</title><rect class="cls-1" x="1" y="1" width="126.79" height="60" rx="8.5"/><rect class="cls-1" x="231" y="1" width="126.79" height="60" rx="8.5"/><rect class="cls-1" x="27" y="80" width="126.79" height="60" rx="8.5"/><rect class="cls-1" x="189" y="80" width="126.79" height="60" rx="8.5"/><rect class="cls-1" x="84" y="154" width="126.79" height="60" rx="8.5"/><rect class="cls-1" x="258" y="154" width="126.79" height="60" rx="8.5"/><rect class="cls-1" x="15" y="226" width="126.79" height="60" rx="8.5"/><rect x="131" y="31" width="89" height="3"/><polygon points="220 27.58 219.91 36.59 226.72 32.16 220 27.58 220 27.58"/><rect x="171.71" y="119.16" width="16.29" height="3" transform="translate(352.68 230.39) rotate(-179.98)"/><polygon points="164.71 114.58 164.81 105.57 158 110 164.71 114.58 164.71 114.58"/><rect x="229" y="194.05" width="25.01" height="3" transform="translate(-8.96 -8.55) rotate(-0.58)"/><polygon points="246.24 179.52 246.24 188.53 253 184.03 246.24 179.52 246.24 179.52"/><rect x="331.06" y="82.65" width="16.29" height="3" transform="translate(604.6 -145.81) rotate(127.27)"/><polygon points="331.19 82.61 324.07 77.08 323.48 85.18 331.19 82.61 331.19 82.61"/><rect x="56.25" y="169.53" width="24.8" height="2.66" transform="translate(137.06 -8.12) rotate(46.07)"/><polygon points="73.92 165.25 67.36 171.44 75.28 173.26 73.92 165.25 73.92 165.25"/><rect x="155.97" y="248.91" width="114.04" height="2.24" transform="translate(493.09 398.56) rotate(159.48)"/><polygon points="154.29 263.58 151.22 255.11 146.4 261.65 154.29 263.58 154.29 263.58"/><text class="cls-2" transform="translate(26.34 33.68)"><tspan class="cls-3">P</tspan><tspan class="cls-4" x="11.38" y="0">r</tspan><tspan class="cls-5" x="17.94" y="0">e</tspan><tspan x="28.05" y="0">-alpha</tspan></text><text class="cls-2" transform="translate(269.34 33.68)">Alpha</text><text class="cls-2" transform="translate(231.34 113.68)">Beta</text><text class="cls-2" transform="translate(37.34 103.68)">Rel<tspan class="cls-3" x="26.27" y="0">e</tspan><tspan x="35.98" y="0">ase </tspan><tspan class="cls-6" x="0" y="19.2">C</tspan><tspan x="11.55" y="19.2">a</tspan><tspan class="cls-7" x="21.26" y="19.2">n</tspan><tspan x="32.3" y="19.2">dida</tspan><tspan class="cls-8" x="68.62" y="19.2">t</tspan><tspan x="75.12" y="19.2">e</tspan></text><text class="cls-2" transform="translate(123.34 185.68)"><tspan class="cls-9">R</tspan><tspan x="11.54" y="0">TM</tspan></text><text class="cls-2" transform="translate(302.34 188.68)">GA</text><text class="cls-2" transform="translate(54.34 263.68)">Gold</text></svg>