<svg id="Layer_1" data-name="Layer 1" xmlns="http://www.w3.org/2000/svg" viewBox="0 0 301.18 245.7"><defs><style>.cls-1,.cls-3{fill:#6c63ff;}.cls-1,.cls-4{opacity:0.1;isolation:isolate;}.cls-2{fill:#3f3d56;}.cls-5{fill:#444053;}.cls-6{fill:#fff;}.cls-7{opacity:0.3;}.cls-8{fill:none;stroke:#444053;stroke-miterlimit:10;stroke-width:3px;}</style></defs><title>why-9</title><ellipse class="cls-1" cx="318.33" cy="260.6" rx="6.52" ry="15.82" transform="translate(-126 274.42) rotate(-45)"/><ellipse class="cls-2" cx="284.49" cy="230.06" rx="3.5" ry="4.58"/><ellipse class="cls-2" cx="284.49" cy="224.46" rx="3.5" ry="4.58"/><ellipse class="cls-2" cx="284.49" cy="218.86" rx="3.5" ry="4.58"/><ellipse class="cls-2" cx="284.49" cy="213.26" rx="3.5" ry="4.58"/><ellipse class="cls-2" cx="284.49" cy="207.67" rx="3.5" ry="4.58"/><ellipse class="cls-2" cx="284.49" cy="202.07" rx="3.5" ry="4.58"/><ellipse class="cls-2" cx="284.49" cy="196.47" rx="3.5" ry="4.58"/><path class="cls-3" d="M332.55,185.17a18,18,0,0,0,1.3-1.92l-9.19-1.51,9.94.07a16.79,16.79,0,0,0,.33-13.28l-13.34,6.93,12.29-9.05a16.76,16.76,0,1,0-29,16.77,16.58,16.58,0,0,0,1.35,2,16.08,16.08,0,0,0-1.91,3.05l11.93,6.2-12.72-4.28a16.79,16.79,0,0,0,2.71,15.74,16.76,16.76,0,1,0,26.34,0,16.76,16.76,0,0,0,0-20.72Z" transform="translate(-34.97 -27)"/><path class="cls-4" d="M302.62,195.53a16.65,16.65,0,0,0,3.59,10.36,16.76,16.76,0,1,0,26.34,0C334.79,203,302.62,193.65,302.62,195.53Z" transform="translate(-34.97 -27)"/><polygon class="cls-5" points="276.12 0 276.12 234.72 196.58 223.63 99.88 243.36 99.1 243.52 22.17 222.33 22.17 18.26 102.04 0 189.41 18.26 192.73 17.55 276.12 0"/><polygon class="cls-6" points="262.75 12.82 262.75 222.83 191.59 212.91 105.07 230.56 104.37 230.7 35.53 211.74 35.53 29.15 107 12.82 185.17 29.15 188.14 28.52 262.75 12.82"/><polygon class="cls-4" points="196.58 223.63 99.88 243.36 102.04 0 189.41 18.26 192.73 17.55 196.58 223.63"/><g class="cls-7"><polyline class="cls-8" points="186.92 44.99 186.96 113.28 215.32 113.28 215.32 85.25 263.89 85.25 269.6 77.93"/><polyline class="cls-8" points="29.02 66.67 134.47 66.67 141 63.73 143.6 63.73 143.6 129.58 189.24 129.58 191.2 135.45 191.2 165.12 226.41 165.12 226.41 201.79"/><line class="cls-8" x1="157.53" y1="201.79" x2="157.53" y2="129.58"/><line class="cls-8" x1="269.6" y1="182.45" x2="157.53" y2="182.45"/><line class="cls-8" x1="241.53" y1="44.99" x2="241.53" y2="201.79"/><line class="cls-8" x1="28.69" y1="168.59" x2="269.6" y2="168.59"/><line class="cls-8" x1="58.01" y1="201.79" x2="58.01" y2="44.99"/><line class="cls-8" x1="114.01" y1="44.99" x2="114.01" y2="201.79"/><line class="cls-8" x1="29.02" y1="84.6" x2="215.32" y2="85.25"/><line class="cls-8" x1="83.24" y1="45.27" x2="83.24" y2="201.79"/><polyline class="cls-8" points="28.69 120.89 114.01 120.89 157.53 168.59"/><line class="cls-8" x1="166.96" y1="44.99" x2="166.96" y2="129.58"/><line class="cls-8" x1="157.53" y1="144.74" x2="269.6" y2="144.74"/></g><polygon class="cls-3" points="191.03 144.09 158.11 144.09 158.11 129.75 189.24 129.58 191.2 135.13 191.03 144.09"/><path class="cls-3" d="M209.7,96.76a18,18,0,0,0-18,18c0,10,18,42.29,18,42.29s18-32.32,18-42.29A18,18,0,0,0,209.7,96.76Zm0,25.71a7.93,7.93,0,1,1,7.93-7.93,7.93,7.93,0,0,1-7.93,7.93Z" transform="translate(-34.97 -27)"/><path class="cls-4" d="M209.7,96.76a18,18,0,0,0-18,18c0,10,18,42.29,18,42.29s18-32.32,18-42.29A18,18,0,0,0,209.7,96.76Zm0,25.71a7.93,7.93,0,1,1,7.93-7.93,7.93,7.93,0,0,1-7.93,7.93Z" transform="translate(-34.97 -27)"/><path class="cls-3" d="M209.7,99.37a18,18,0,0,0-18,18c0,10,18,42.29,18,42.29s18-32.32,18-42.29A18,18,0,0,0,209.7,99.37Zm0,25.71a7.93,7.93,0,1,1,7.93-7.93,7.93,7.93,0,0,1-7.93,7.93Z" transform="translate(-34.97 -27)"/><ellipse class="cls-1" cx="201.82" cy="266.09" rx="10.9" ry="4.49" transform="translate(-123.76 74.53) rotate(-23.3)"/><ellipse class="cls-2" cx="166.72" cy="237.32" rx="2.41" ry="3.16"/><ellipse class="cls-2" cx="166.72" cy="233.46" rx="2.41" ry="3.16"/><ellipse class="cls-2" cx="166.72" cy="229.6" rx="2.41" ry="3.16"/><ellipse class="cls-2" cx="166.72" cy="225.74" rx="2.41" ry="3.16"/><ellipse class="cls-2" cx="166.72" cy="221.88" rx="2.41" ry="3.16"/><ellipse class="cls-2" cx="166.72" cy="218.03" rx="2.41" ry="3.16"/><ellipse class="cls-2" cx="166.72" cy="214.17" rx="2.41" ry="3.16"/><path class="cls-3" d="M192.66,214.77a11.69,11.69,0,0,1-.9-1.31l6.34-1-6.85.05a11.64,11.64,0,0,1-.22-9.15l9.19,4.75-8.47-6.23a11.55,11.55,0,1,1,20,11.56,12.69,12.69,0,0,1-.93,1.37,11.71,11.71,0,0,1,1.31,2.1l-8.22,4.28,8.77-2.94a11.57,11.57,0,0,1-1.86,10.85,11.55,11.55,0,1,1-18.16,0,11.56,11.56,0,0,1,0-14.28Z" transform="translate(-34.97 -27)"/><path class="cls-4" d="M213.29,221.9a11.56,11.56,0,0,1-2.47,7.14,11.55,11.55,0,1,1-18.16,0C191.11,227.08,213.29,220.61,213.29,221.9Z" transform="translate(-34.97 -27)"/><ellipse class="cls-1" cx="50.69" cy="253.43" rx="6.52" ry="15.82" transform="translate(-199.32 83.07) rotate(-45)"/><ellipse class="cls-2" cx="16.84" cy="222.88" rx="3.5" ry="4.58"/><ellipse class="cls-2" cx="16.84" cy="217.29" rx="3.5" ry="4.58"/><ellipse class="cls-2" cx="16.84" cy="211.69" rx="3.5" ry="4.58"/><ellipse class="cls-2" cx="16.84" cy="206.09" rx="3.5" ry="4.58"/><ellipse class="cls-2" cx="16.84" cy="200.49" rx="3.5" ry="4.58"/><ellipse class="cls-2" cx="16.84" cy="194.9" rx="3.5" ry="4.58"/><ellipse class="cls-2" cx="16.84" cy="189.3" rx="3.5" ry="4.58"/><path class="cls-3" d="M64.9,178a15.73,15.73,0,0,0,1.31-1.91L57,174.57l9.95.07a16.84,16.84,0,0,0,.32-13.28L54,168.28l12.29-9A16.76,16.76,0,1,0,38.56,178a17.61,17.61,0,0,0-1.91,3.06l11.93,6.19L35.87,183a16.79,16.79,0,0,0,2.7,15.74,16.76,16.76,0,1,0,26.34,0,16.76,16.76,0,0,0,0-20.72Z" transform="translate(-34.97 -27)"/><path class="cls-4" d="M35,188.35a16.69,16.69,0,0,0,3.58,10.37,16.75,16.75,0,1,0,26.34,0C67.15,195.87,35,186.47,35,188.35Z" transform="translate(-34.97 -27)"/></svg>