<svg id="Layer_1" data-name="Layer 1" xmlns="http://www.w3.org/2000/svg" xmlns:xlink="http://www.w3.org/1999/xlink" viewBox="0 0 355.99 253.98"><defs><style>.cls-1,.cls-121,.cls-122,.cls-123,.cls-124,.cls-6{fill:#6c63ff;}.cls-1,.cls-104,.cls-105,.cls-108,.cls-117,.cls-67,.cls-9{opacity:0.1;}.cls-1,.cls-104,.cls-105,.cls-108,.cls-112,.cls-117,.cls-118,.cls-119,.cls-121,.cls-122,.cls-123,.cls-124,.cls-67{isolation:isolate;}.cls-2{fill:url(#linear-gradient);}.cls-3{fill:#f6f7f9;}.cls-4{fill:#534d72;}.cls-119,.cls-5{opacity:0.2;}.cls-7{fill:url(#linear-gradient-2);}.cls-8{fill:url(#linear-gradient-3);}.cls-10{fill:url(#linear-gradient-4);}.cls-11{fill:url(#linear-gradient-6);}.cls-12{fill:url(#linear-gradient-7);}.cls-13{fill:url(#linear-gradient-8);}.cls-14{fill:url(#linear-gradient-9);}.cls-15{fill:url(#linear-gradient-10);}.cls-16{fill:url(#linear-gradient-11);}.cls-17{fill:url(#linear-gradient-12);}.cls-18{fill:url(#linear-gradient-13);}.cls-19{fill:url(#linear-gradient-14);}.cls-20{fill:url(#linear-gradient-15);}.cls-21{fill:url(#linear-gradient-16);}.cls-22{fill:url(#linear-gradient-17);}.cls-23{fill:url(#linear-gradient-18);}.cls-24{fill:url(#linear-gradient-19);}.cls-25{fill:url(#linear-gradient-20);}.cls-26{fill:url(#linear-gradient-21);}.cls-112,.cls-27{opacity:0.03;}.cls-28{fill:url(#linear-gradient-23);}.cls-29{fill:url(#linear-gradient-24);}.cls-30{fill:url(#linear-gradient-26);}.cls-31{fill:url(#linear-gradient-27);}.cls-32{fill:url(#linear-gradient-28);}.cls-33{fill:url(#linear-gradient-29);}.cls-34{fill:url(#linear-gradient-30);}.cls-35{fill:url(#linear-gradient-31);}.cls-36{fill:url(#linear-gradient-32);}.cls-37{fill:url(#linear-gradient-33);}.cls-38{fill:url(#linear-gradient-34);}.cls-39{fill:url(#linear-gradient-35);}.cls-40{fill:url(#linear-gradient-36);}.cls-41{fill:url(#linear-gradient-37);}.cls-42{fill:url(#linear-gradient-38);}.cls-43{fill:url(#linear-gradient-39);}.cls-44{fill:url(#linear-gradient-40);}.cls-45{fill:url(#linear-gradient-41);}.cls-46{fill:url(#linear-gradient-42);}.cls-47{fill:url(#linear-gradient-44);}.cls-48{fill:url(#linear-gradient-45);}.cls-49{fill:url(#linear-gradient-46);}.cls-50{fill:url(#linear-gradient-47);}.cls-51{fill:url(#linear-gradient-48);}.cls-52{fill:url(#linear-gradient-49);}.cls-53{fill:url(#linear-gradient-50);}.cls-54{fill:url(#linear-gradient-51);}.cls-55{fill:url(#linear-gradient-52);}.cls-56{fill:url(#linear-gradient-53);}.cls-57{fill:url(#linear-gradient-54);}.cls-58{fill:url(#linear-gradient-55);}.cls-59{fill:url(#linear-gradient-56);}.cls-60{fill:url(#linear-gradient-57);}.cls-61{fill:url(#linear-gradient-58);}.cls-62{fill:url(#linear-gradient-59);}.cls-63{fill:url(#linear-gradient-60);}.cls-64{fill:url(#linear-gradient-61);}.cls-65{fill:url(#linear-gradient-62);}.cls-66{fill:url(#linear-gradient-63);}.cls-67{fill:url(#linear-gradient-64);}.cls-68{fill:url(#linear-gradient-65);}.cls-69{fill:url(#linear-gradient-66);}.cls-70{fill:url(#linear-gradient-67);}.cls-71{fill:url(#linear-gradient-68);}.cls-72{fill:url(#linear-gradient-69);}.cls-73{fill:url(#linear-gradient-70);}.cls-74{fill:url(#linear-gradient-71);}.cls-75{fill:url(#linear-gradient-72);}.cls-76{fill:url(#linear-gradient-73);}.cls-77{fill:url(#linear-gradient-74);}.cls-78{fill:url(#linear-gradient-75);}.cls-79{fill:url(#linear-gradient-76);}.cls-80{fill:url(#linear-gradient-77);}.cls-81{fill:url(#linear-gradient-78);}.cls-82{fill:url(#linear-gradient-79);}.cls-83{fill:url(#linear-gradient-80);}.cls-84{fill:url(#linear-gradient-81);}.cls-85{fill:url(#linear-gradient-82);}.cls-86{fill:url(#linear-gradient-83);}.cls-87{fill:url(#linear-gradient-84);}.cls-88{fill:url(#linear-gradient-85);}.cls-89{fill:url(#linear-gradient-86);}.cls-90{fill:url(#linear-gradient-87);}.cls-91{fill:url(#linear-gradient-88);}.cls-92{fill:url(#linear-gradient-89);}.cls-93{fill:url(#linear-gradient-90);}.cls-94{fill:url(#linear-gradient-91);}.cls-95{fill:url(#linear-gradient-92);}.cls-96{fill:url(#linear-gradient-93);}.cls-97{fill:url(#linear-gradient-94);}.cls-98{fill:url(#linear-gradient-95);}.cls-99{fill:url(#linear-gradient-96);}.cls-100{fill:url(#linear-gradient-97);}.cls-101{fill:url(#linear-gradient-98);}.cls-102{fill:url(#linear-gradient-99);}.cls-103{fill:url(#linear-gradient-100);}.cls-104{fill:url(#linear-gradient-101);}.cls-105{fill:url(#linear-gradient-102);}.cls-106{fill:#9d9cb5;}.cls-107{fill:#e4e3f9;}.cls-109,.cls-117{fill:none;}.cls-110{fill:#535461;}.cls-111{fill:#5e52ad;}.cls-113{fill:#784d55;}.cls-114{fill:#f8bdc5;}.cls-115{fill:#eb6475;}.cls-116{fill:#ffc075;}.cls-117{stroke:#000;stroke-miterlimit:10;}.cls-118{fill:#fff;}.cls-118,.cls-121{opacity:0.5;}.cls-120{fill:#a8a8a8;}.cls-122{opacity:0.8;}.cls-123{opacity:0.95;}.cls-124{opacity:0.6;}</style><linearGradient id="linear-gradient" x1="142.58" y1="130.85" x2="142.58" y2="294.34" gradientTransform="matrix(1, 0, 0, -1, -13.99, 297)" gradientUnits="userSpaceOnUse"><stop offset="0" stop-color="gray" stop-opacity="0.25"/><stop offset="0.54" stop-color="gray" stop-opacity="0.12"/><stop offset="1" stop-color="gray" stop-opacity="0.1"/></linearGradient><linearGradient id="linear-gradient-2" x1="201.28" y1="132.43" x2="201.28" y2="132.45" gradientTransform="matrix(1, 0, 0, -1, -21.14, 264.99)" xlink:href="#linear-gradient"/><linearGradient id="linear-gradient-3" x1="202.91" y1="114.18" x2="202.91" y2="132.43" gradientTransform="matrix(1, 0, 0, -1, -21.14, 264.99)" xlink:href="#linear-gradient"/><linearGradient id="linear-gradient-4" x1="202.8" y1="116.02" x2="202.8" y2="117.34" gradientTransform="matrix(1, 0, 0, -1, -21.14, 264.99)" xlink:href="#linear-gradient"/><linearGradient id="linear-gradient-6" x1="204.91" y1="128.74" x2="204.91" y2="130.69" gradientTransform="matrix(1, 0, 0, -1, -21.14, 264.99)" xlink:href="#linear-gradient"/><linearGradient id="linear-gradient-7" x1="205.14" y1="127.89" x2="205.14" y2="129.35" gradientTransform="matrix(1, 0, 0, -1, -21.14, 264.99)" xlink:href="#linear-gradient"/><linearGradient id="linear-gradient-8" x1="204.21" y1="126.34" x2="204.21" y2="128.15" gradientTransform="matrix(1, 0, 0, -1, -21.14, 264.99)" xlink:href="#linear-gradient"/><linearGradient id="linear-gradient-9" x1="203.82" y1="124.75" x2="203.82" y2="126.13" gradientTransform="matrix(1, 0, 0, -1, -21.14, 264.99)" xlink:href="#linear-gradient"/><linearGradient id="linear-gradient-10" x1="203.27" y1="123.13" x2="203.27" y2="125.39" gradientTransform="matrix(1, 0, 0, -1, -21.14, 264.99)" xlink:href="#linear-gradient"/><linearGradient id="linear-gradient-11" x1="202.96" y1="122.62" x2="202.96" y2="124.14" gradientTransform="matrix(1, 0, 0, -1, -21.14, 264.99)" xlink:href="#linear-gradient"/><linearGradient id="linear-gradient-12" x1="203.64" y1="121.76" x2="203.64" y2="122.99" gradientTransform="matrix(1, 0, 0, -1, -21.14, 264.99)" xlink:href="#linear-gradient"/><linearGradient id="linear-gradient-13" x1="202.36" y1="118.92" x2="202.36" y2="121.3" gradientTransform="matrix(1, 0, 0, -1, -21.14, 264.99)" xlink:href="#linear-gradient"/><linearGradient id="linear-gradient-14" x1="203.2" y1="119.56" x2="203.2" y2="120.51" gradientTransform="matrix(1, 0, 0, -1, -21.14, 264.99)" xlink:href="#linear-gradient"/><linearGradient id="linear-gradient-15" x1="202.03" y1="117" x2="202.03" y2="119.88" gradientTransform="matrix(1, 0, 0, -1, -21.14, 264.99)" xlink:href="#linear-gradient"/><linearGradient id="linear-gradient-16" x1="202.11" y1="115.07" x2="202.11" y2="118.54" gradientTransform="matrix(1, 0, 0, -1, -21.14, 264.99)" xlink:href="#linear-gradient"/><linearGradient id="linear-gradient-17" x1="209.95" y1="115.09" x2="209.95" y2="129.4" gradientTransform="matrix(1, 0, 0, -1, -21.14, 264.99)" xlink:href="#linear-gradient"/><linearGradient id="linear-gradient-18" x1="224.57" y1="114.11" x2="224.57" y2="129.69" gradientTransform="matrix(1, 0, 0, -1, -21.14, 264.99)" xlink:href="#linear-gradient"/><linearGradient id="linear-gradient-19" x1="211.26" y1="114.39" x2="211.26" y2="129.69" gradientTransform="matrix(1, 0, 0, -1, -21.14, 264.99)" xlink:href="#linear-gradient"/><linearGradient id="linear-gradient-20" x1="199.7" y1="114.2" x2="199.7" y2="132.43" gradientTransform="matrix(1, 0, 0, -1, -21.14, 264.99)" xlink:href="#linear-gradient"/><linearGradient id="linear-gradient-21" x1="267.56" y1="22.28" x2="267.56" y2="62.51" gradientTransform="matrix(1, 0, 0, -1, -21.14, 264.99)" xlink:href="#linear-gradient"/><linearGradient id="linear-gradient-23" x1="292.5" y1="27.25" x2="292.5" y2="91.04" gradientTransform="matrix(1, 0, 0, -1, -21.14, 264.99)" xlink:href="#linear-gradient"/><linearGradient id="linear-gradient-24" x1="252.91" y1="154.63" x2="252.91" y2="178.66" xlink:href="#linear-gradient"/><linearGradient id="linear-gradient-26" x1="241.82" y1="69.72" x2="241.82" y2="97.13" gradientTransform="matrix(1, 0, 0, -1, -21.14, 264.99)" xlink:href="#linear-gradient"/><linearGradient id="linear-gradient-27" x1="269.7" y1="88.98" x2="269.7" y2="134.41" gradientTransform="matrix(1, 0, 0, -1, -21.14, 264.99)" xlink:href="#linear-gradient"/><linearGradient id="linear-gradient-28" x1="271.4" y1="124.01" x2="271.4" y2="134.41" gradientTransform="matrix(1, 0, 0, -1, -21.14, 264.99)" xlink:href="#linear-gradient"/><linearGradient id="linear-gradient-29" x1="250.67" y1="161.64" x2="250.67" y2="186.57" xlink:href="#linear-gradient"/><linearGradient id="linear-gradient-30" x1="269.7" y1="88.98" x2="269.7" y2="121.51" gradientTransform="matrix(1, 0, 0, -1, -21.14, 264.99)" xlink:href="#linear-gradient"/><linearGradient id="linear-gradient-31" x1="269.12" y1="58.07" x2="269.12" y2="120.51" gradientTransform="matrix(1, 0, 0, -1, -21.14, 264.99)" xlink:href="#linear-gradient"/><linearGradient id="linear-gradient-32" x1="269.12" y1="58.69" x2="269.12" y2="121.12" gradientTransform="matrix(1, 0, 0, -1, -21.14, 264.99)" xlink:href="#linear-gradient"/><linearGradient id="linear-gradient-33" x1="241.82" y1="89.76" x2="241.82" y2="97.13" gradientTransform="matrix(1, 0, 0, -1, -21.14, 264.99)" xlink:href="#linear-gradient"/><linearGradient id="linear-gradient-34" x1="242.23" y1="90.37" x2="242.23" y2="111.13" gradientTransform="matrix(1, 0, 0, -1, -21.14, 264.99)" xlink:href="#linear-gradient"/><linearGradient id="linear-gradient-35" x1="236.11" y1="68.74" x2="236.11" y2="120.49" gradientTransform="matrix(1, 0, 0, -1, -21.14, 264.99)" xlink:href="#linear-gradient"/><linearGradient id="linear-gradient-36" x1="267.97" y1="58.55" x2="267.97" y2="70.44" xlink:href="#linear-gradient"/><linearGradient id="linear-gradient-37" x1="265.14" y1="59.67" x2="265.14" y2="70.44" xlink:href="#linear-gradient"/><linearGradient id="linear-gradient-38" x1="240.55" y1="68.74" x2="240.55" y2="72.71" gradientTransform="matrix(1, 0, 0, -1, -21.14, 264.99)" xlink:href="#linear-gradient"/><linearGradient id="linear-gradient-39" x1="259.29" y1="22.02" x2="259.29" y2="72.09" gradientTransform="matrix(1, 0, 0, -1, -21.14, 264.99)" xlink:href="#linear-gradient"/><linearGradient id="linear-gradient-40" x1="255.28" y1="26.56" x2="255.28" y2="68.23" gradientTransform="matrix(1, 0, 0, -1, -21.14, 264.99)" xlink:href="#linear-gradient"/><linearGradient id="linear-gradient-41" x1="254.66" y1="25.94" x2="254.66" y2="67.61" gradientTransform="matrix(1, 0, 0, -1, -21.14, 264.99)" xlink:href="#linear-gradient"/><linearGradient id="linear-gradient-42" x1="254.65" y1="26.56" x2="254.65" y2="68.23" gradientTransform="matrix(1, 0, 0, -1, -21.14, 264.99)" xlink:href="#linear-gradient"/><linearGradient id="linear-gradient-44" x1="240.5" y1="33.92" x2="240.5" y2="45.2" gradientTransform="matrix(1, 0, 0, -1, -21.14, 264.99)" xlink:href="#linear-gradient"/><linearGradient id="linear-gradient-45" x1="258.23" y1="67.17" x2="258.23" y2="79.4" xlink:href="#linear-gradient"/><linearGradient id="linear-gradient-46" x1="278.46" y1="30.16" x2="278.46" y2="38.04" gradientTransform="matrix(1, 0, 0, -1, -21.14, 264.99)" xlink:href="#linear-gradient"/><linearGradient id="linear-gradient-47" x1="276.22" y1="15.12" x2="276.22" y2="37.72" gradientTransform="matrix(1, 0, 0, -1, -21.14, 264.99)" xlink:href="#linear-gradient"/><linearGradient id="linear-gradient-48" x1="276.22" y1="15.12" x2="276.22" y2="24.09" gradientTransform="matrix(1, 0, 0, -1, -21.14, 264.99)" xlink:href="#linear-gradient"/><linearGradient id="linear-gradient-49" x1="253" y1="69.61" x2="253" y2="70.44" xlink:href="#linear-gradient"/><linearGradient id="linear-gradient-50" x1="253.85" y1="66.34" x2="253.85" y2="67.17" xlink:href="#linear-gradient"/><linearGradient id="linear-gradient-51" x1="253.62" y1="67.56" x2="253.62" y2="68.39" xlink:href="#linear-gradient"/><linearGradient id="linear-gradient-52" x1="253.85" y1="64.71" x2="253.85" y2="65.54" xlink:href="#linear-gradient"/><linearGradient id="linear-gradient-53" x1="251.82" y1="63.02" x2="251.82" y2="63.85" xlink:href="#linear-gradient"/><linearGradient id="linear-gradient-54" x1="293.88" y1="21.55" x2="293.88" y2="33.18" gradientTransform="matrix(1, 0, 0, -1, -21.14, 264.99)" xlink:href="#linear-gradient"/><linearGradient id="linear-gradient-55" x1="307.58" y1="20.96" x2="307.58" y2="37.55" gradientTransform="matrix(1, 0, 0, -1, -21.14, 264.99)" xlink:href="#linear-gradient"/><linearGradient id="linear-gradient-56" x1="307.58" y1="25.95" x2="307.58" y2="37.1" gradientTransform="matrix(1, 0, 0, -1, -21.14, 264.99)" xlink:href="#linear-gradient"/><linearGradient id="linear-gradient-57" x1="295.79" y1="36.54" x2="295.79" y2="83.22" gradientTransform="matrix(1, 0, 0, -1, -21.14, 264.99)" xlink:href="#linear-gradient"/><linearGradient id="linear-gradient-58" x1="296.73" y1="28.51" x2="296.73" y2="83.22" gradientTransform="matrix(1, 0, 0, -1, -21.14, 264.99)" xlink:href="#linear-gradient"/><linearGradient id="linear-gradient-59" x1="279.82" y1="37.11" x2="279.82" y2="42.39" gradientTransform="matrix(1, 0, 0, -1, -21.14, 264.99)" xlink:href="#linear-gradient"/><linearGradient id="linear-gradient-60" x1="296.42" y1="28.51" x2="296.42" y2="86.05" gradientTransform="matrix(1, 0, 0, -1, -21.14, 264.99)" xlink:href="#linear-gradient"/><linearGradient id="linear-gradient-61" x1="265.19" y1="71.06" x2="265.19" y2="75.01" gradientTransform="matrix(1, 0, 0, -1, -21.14, 264.99)" xlink:href="#linear-gradient"/><linearGradient id="linear-gradient-62" x1="263.56" y1="67.4" x2="263.56" y2="69.13" gradientTransform="matrix(1, 0, 0, -1, -21.14, 264.99)" xlink:href="#linear-gradient"/><linearGradient id="linear-gradient-63" x1="252.01" y1="108.28" x2="252.01" y2="116.36" gradientTransform="matrix(1, 0, 0, -1, -21.14, 264.99)" xlink:href="#linear-gradient"/><linearGradient id="linear-gradient-64" x1="246.34" y1="105.88" x2="246.34" y2="113.71" gradientTransform="matrix(1, 0, 0, -1, -21.14, 264.99)" xlink:href="#linear-gradient"/><linearGradient id="linear-gradient-65" x1="258.89" y1="33.43" x2="258.89" y2="47.89" gradientTransform="matrix(1, 0, 0, -1, -21.14, 264.99)" xlink:href="#linear-gradient"/><linearGradient id="linear-gradient-66" x1="289.59" y1="68.39" x2="289.59" y2="69.22" xlink:href="#linear-gradient"/><linearGradient id="linear-gradient-67" x1="291.27" y1="59.72" x2="291.27" y2="60.55" xlink:href="#linear-gradient"/><linearGradient id="linear-gradient-68" x1="302.5" y1="49.43" x2="302.5" y2="68.23" gradientTransform="matrix(1, 0, 0, -1, -21.14, 264.99)" xlink:href="#linear-gradient"/><linearGradient id="linear-gradient-69" x1="301" y1="63.57" x2="301" y2="75.38" gradientTransform="matrix(1, 0, 0, -1, -21.14, 264.99)" xlink:href="#linear-gradient"/><linearGradient id="linear-gradient-70" x1="289.47" y1="39.39" x2="289.47" y2="43.66" gradientTransform="matrix(1, 0, 0, -1, -21.14, 264.99)" xlink:href="#linear-gradient"/><linearGradient id="linear-gradient-71" x1="279.91" y1="66.34" x2="279.91" y2="67.17" xlink:href="#linear-gradient"/><linearGradient id="linear-gradient-72" x1="274.18" y1="67.14" x2="274.18" y2="67.97" xlink:href="#linear-gradient"/><linearGradient id="linear-gradient-73" x1="284.94" y1="66.51" x2="284.94" y2="67.34" xlink:href="#linear-gradient"/><linearGradient id="linear-gradient-74" x1="286.44" y1="60.14" x2="286.44" y2="60.97" xlink:href="#linear-gradient"/><linearGradient id="linear-gradient-75" x1="287.46" y1="67.34" x2="287.46" y2="68.17" xlink:href="#linear-gradient"/><linearGradient id="linear-gradient-76" x1="288.8" y1="60.14" x2="288.8" y2="60.97" xlink:href="#linear-gradient"/><linearGradient id="linear-gradient-77" x1="282.32" y1="66.09" x2="282.32" y2="66.92" xlink:href="#linear-gradient"/><linearGradient id="linear-gradient-78" x1="283.41" y1="59.72" x2="283.41" y2="60.55" xlink:href="#linear-gradient"/><linearGradient id="linear-gradient-79" x1="277.36" y1="66.51" x2="277.36" y2="67.34" xlink:href="#linear-gradient"/><linearGradient id="linear-gradient-80" x1="276.62" y1="47.58" x2="276.62" y2="65.7" gradientTransform="matrix(1, 0, 0, -1, -21.14, 264.99)" xlink:href="#linear-gradient"/><linearGradient id="linear-gradient-81" x1="279.11" y1="47.9" x2="279.11" y2="90.37" gradientTransform="matrix(1, 0, 0, -1, -21.14, 264.99)" xlink:href="#linear-gradient"/><linearGradient id="linear-gradient-82" x1="290.05" y1="85.94" x2="290.05" y2="90.37" gradientTransform="matrix(1, 0, 0, -1, -21.14, 264.99)" xlink:href="#linear-gradient"/><linearGradient id="linear-gradient-83" x1="290.89" y1="86.57" x2="290.89" y2="97.13" gradientTransform="matrix(1, 0, 0, -1, -21.14, 264.99)" xlink:href="#linear-gradient"/><linearGradient id="linear-gradient-84" x1="258.99" y1="93.79" x2="258.99" y2="120.4" gradientTransform="matrix(1, 0, 0, -1, -21.14, 264.99)" xlink:href="#linear-gradient"/><linearGradient id="linear-gradient-85" x1="289.41" y1="92.7" x2="289.41" y2="121.12" gradientTransform="matrix(1, 0, 0, -1, -21.14, 264.99)" xlink:href="#linear-gradient"/><linearGradient id="linear-gradient-86" x1="275.74" y1="91.42" x2="275.74" y2="157.84" gradientTransform="matrix(1, 0, 0, -1, -21.14, 264.99)" xlink:href="#linear-gradient"/><linearGradient id="linear-gradient-87" x1="294.91" y1="139.95" x2="294.91" y2="144.23" gradientTransform="matrix(1, 0, 0, -1, -21.14, 264.99)" xlink:href="#linear-gradient"/><linearGradient id="linear-gradient-88" x1="264.53" y1="132.76" x2="264.53" y2="142.75" gradientTransform="matrix(1, 0, 0, -1, -21.14, 264.99)" xlink:href="#linear-gradient"/><linearGradient id="linear-gradient-89" x1="250.35" y1="124.48" x2="250.35" y2="139.04" gradientTransform="matrix(1, 0, 0, -1, -21.14, 264.99)" xlink:href="#linear-gradient"/><linearGradient id="linear-gradient-90" x1="263.15" y1="107.48" x2="263.15" y2="111.71" gradientTransform="matrix(1, 0, 0, -1, -21.14, 264.99)" xlink:href="#linear-gradient"/><linearGradient id="linear-gradient-91" x1="262.18" y1="120.26" x2="262.18" y2="128.01" gradientTransform="matrix(1, 0, 0, -1, -21.14, 264.99)" xlink:href="#linear-gradient"/><linearGradient id="linear-gradient-92" x1="290.08" y1="91.43" x2="290.08" y2="102.59" gradientTransform="matrix(1, 0, 0, -1, -21.14, 264.99)" xlink:href="#linear-gradient"/><linearGradient id="linear-gradient-93" x1="300.94" y1="99.1" x2="300.94" y2="121.9" gradientTransform="matrix(1, 0, 0, -1, -21.14, 264.99)" xlink:href="#linear-gradient"/><linearGradient id="linear-gradient-94" x1="278.2" y1="110.2" x2="278.2" y2="118.46" gradientTransform="matrix(1, 0, 0, -1, -21.14, 264.99)" xlink:href="#linear-gradient"/><linearGradient id="linear-gradient-95" x1="258.99" y1="94.41" x2="258.99" y2="114.82" gradientTransform="matrix(1, 0, 0, -1, -21.14, 264.99)" xlink:href="#linear-gradient"/><linearGradient id="linear-gradient-96" x1="274.14" y1="130.31" x2="274.14" y2="148.61" gradientTransform="matrix(1, 0, 0, -1, -21.14, 264.99)" xlink:href="#linear-gradient"/><linearGradient id="linear-gradient-97" x1="268.11" y1="74.77" x2="268.11" y2="92.69" gradientTransform="matrix(1, 0, 0, -1, -21.14, 264.99)" xlink:href="#linear-gradient"/><linearGradient id="linear-gradient-98" x1="267.8" y1="75.38" x2="267.8" y2="93.31" gradientTransform="matrix(1, 0, 0, -1, -21.14, 264.99)" xlink:href="#linear-gradient"/><linearGradient id="linear-gradient-99" x1="245.17" y1="78.98" x2="245.17" y2="89.34" gradientTransform="matrix(1, 0, 0, -1, -21.14, 264.99)" xlink:href="#linear-gradient"/><linearGradient id="linear-gradient-100" x1="269.49" y1="95.18" x2="269.49" y2="101.45" gradientTransform="matrix(1, 0, 0, -1, -21.14, 264.99)" xlink:href="#linear-gradient"/><linearGradient id="linear-gradient-101" x1="278.42" y1="30.84" x2="278.42" y2="34.92" gradientTransform="matrix(1, 0, 0, -1, -21.14, 264.99)" xlink:href="#linear-gradient"/><linearGradient id="linear-gradient-102" x1="297.72" y1="21.77" x2="297.72" y2="29.25" gradientTransform="matrix(1, 0, 0, -1, -21.14, 264.99)" xlink:href="#linear-gradient"/></defs><title>why-5</title><ellipse class="cls-1" cx="242.55" cy="236.29" rx="60.16" ry="8.16"/><ellipse class="cls-1" cx="316.42" cy="218.6" rx="25.36" ry="3.44"/><ellipse class="cls-1" cx="323.88" cy="252.49" rx="11" ry="1.49"/><ellipse class="cls-1" cx="131.77" cy="232.35" rx="25.36" ry="3.44"/><ellipse class="cls-1" cx="87.75" cy="217.08" rx="25.36" ry="3.44"/><path class="cls-1" d="M233.23,32.16c-15.28,9.58-35.1,9-52.45,4S147.47,22.28,130.55,16A178.43,178.43,0,0,0,86.42,5.68c-21.56-2.22-45.63.48-60.65,16C9,38.88,10.32,70,28.42,85.81c9.2,8,21.25,12,31.76,18.28S80.42,120.82,79.52,133c-.83,11.23-10.45,19.85-20.43,25.26C51.39,162.39,41.9,167,41,175.61c-.9,8.37,7.07,14.94,14.7,18.67a92.08,92.08,0,0,0,80.25-.31c8.84-4.41,17-10.28,26.22-13.72,24.33-9,51.13.06,76.89,3.38a171.17,171.17,0,0,0,65.38-4.25c12.75-3.39,25.56-8.54,34.52-18.15,6.45-6.92,10.48-15.69,14.26-24.35Q359.25,123,364.82,109c2.23-5.62,4.42-11.35,5-17.37,1.05-10.89-3.35-21.67-9.35-30.87A93.41,93.41,0,0,0,222.83,40.05" transform="translate(-13.99 -5)"/><polygon class="cls-2" points="33.67 2.66 33.67 9.01 33.67 166.15 223.51 166.15 223.51 9.01 223.51 2.66 33.67 2.66"/><rect class="cls-3" x="35.04" y="4.1" width="187.1" height="6.23"/><rect class="cls-4" x="35.04" y="4.1" width="187.1" height="6.23"/><rect class="cls-3" x="35.04" y="10.33" width="187.1" height="154.39"/><ellipse class="cls-3" cx="39.07" cy="7.21" rx="1.4" ry="1.06"/><ellipse class="cls-3" cx="42.87" cy="7.21" rx="1.4" ry="1.06"/><ellipse class="cls-3" cx="46.67" cy="7.21" rx="1.4" ry="1.06"/><g class="cls-5"><rect class="cls-6" x="79.31" y="19.85" width="98.56" height="2.91"/></g><rect class="cls-6" x="164.78" y="19.85" width="13.1" height="2.91"/><path class="cls-7" d="M180.14,132.56Z" transform="translate(-13.99 -5)"/><path class="cls-8" d="M175.2,149l-1.44,1c0-.68,2.53-3.38,2.53-3.38-.66-.37-3,1.43-3,1.43.28-1.18,2.33-2.61,2.33-2.61a8,8,0,0,0-1.76.71,11,11,0,0,1,2.65-2.68c-.27-.17-1.83.51-1.9.54a17.59,17.59,0,0,0,2.46-1.94,19.44,19.44,0,0,0-2.2.36c-.15-.7,3.08-4,3.08-4s.4-.57.26-.42a12.74,12.74,0,0,1-1.65.67c0-1,3.15-2.61,3.15-2.61l-1.42-.06.92-1s-1.51,1.15-1.54.83,1.38-1.66,1.68-1.85a2.74,2.74,0,0,1,1.23,0s-.41-1.17-.48-1.34c.22.19,3.41,1.54,3.41,1.54l.27.06a19.2,19.2,0,0,1,3.08.76,13.72,13.72,0,0,0,2.73.68l.61.12L188,149.9h-.62c-.37,0-.73,0-1.09-.06a16.74,16.74,0,0,1-1.71-.24c-1.14-.21-2.63-.49-3.78-.72-.72-.13-1.3-.25-1.58-.32-1.14-.27-2.57.62-2.89.62a13.73,13.73,0,0,0-2.29,1.63A9.88,9.88,0,0,1,175.2,149Z" transform="translate(-13.99 -5)"/><g class="cls-9"><path class="cls-10" d="M175.18,148.92s2.24-.91,3-1.19,9.59.34,10,.37v.06c-.1,0-9.21-.67-9.94-.38l-3,1.19Z" transform="translate(-13.99 -5)"/></g><path class="cls-7" d="M180.14,132.56Z" transform="translate(-13.99 -5)"/><g class="cls-9"><path class="cls-11" d="M177.68,135.76a17.74,17.74,0,0,1,1.89-1.32,4,4,0,0,1,2.21.06c.21.05.42.08.64.11a28.69,28.69,0,0,1,3,.71s2.63.61,3,.6a9.8,9.8,0,0,1,1.53.27v.06a9.81,9.81,0,0,0-1.53-.28c-.34,0-2.88-.57-3-.6s-2.5-.71-2.94-.71a4.87,4.87,0,0,1-.65-.1,4,4,0,0,0-2.17-.07,17.49,17.49,0,0,0-1.87,1.32Z" transform="translate(-13.99 -5)"/></g><g class="cls-9"><path class="cls-12" d="M178.2,135.92a9.71,9.71,0,0,1,3.08-.24c.24.09,3.23.38,3.38.38l5.13,1v.06l-5.12-1s-3.13-.27-3.41-.38a9.89,9.89,0,0,0-3,.23Z" transform="translate(-13.99 -5)"/></g><g class="cls-9"><path class="cls-13" d="M176.55,138.61c.8-1.36,5.33-1.77,5.37-1.77.48,0,7.38,1.27,7.66,1.32v.06c-.07,0-7.17-1.36-7.64-1.32-1.26.11-4.68.63-5.33,1.75Z" transform="translate(-13.99 -5)"/></g><g class="cls-9"><path class="cls-14" d="M176.24,140.2c1.28-1.44,5.34-1.34,5.38-1.34.3,0,7.2,1,7.5,1.08V140c-.07,0-7.2-1.07-7.5-1.08,0,0-4.06-.1-5.33,1.32Z" transform="translate(-13.99 -5)"/></g><g class="cls-9"><path class="cls-15" d="M175,141.79c.48-.9,1.83-1.54,4-1.91a22.64,22.64,0,0,1,3.19-.28l7,.8v.06l-7-.8c-.06,0-6.08,0-7.16,2.2l-.05,0Z" transform="translate(-13.99 -5)"/></g><g class="cls-9"><path class="cls-16" d="M174.86,142.33c.67-.74,3.31-1.32,4.57-1.47s9,1.09,9.36,1.15v.05c-.08,0-8.17-1.29-9.35-1.15s-3.87.74-4.53,1.46Z" transform="translate(-13.99 -5)"/></g><g class="cls-9"><path class="cls-17" d="M176.4,142.6l3-.49a7.77,7.77,0,0,1,2.31,0l3.29.42,3.63.69v0l-3.63-.68-3.3-.41a7.65,7.65,0,0,0-2.29,0l-3,.49Z" transform="translate(-13.99 -5)"/></g><g class="cls-9"><path class="cls-18" d="M173.91,145.92c.62-1.15,3.35-1.72,4.85-2l.72-.16c.85-.24,8.77.56,9.1.59v.06c-.08,0-8.24-.83-9.08-.59l-.72.16c-1.43.3-4.43.92-4.87,2.12h0A.58.58,0,0,1,173.91,145.92Z" transform="translate(-13.99 -5)"/></g><g class="cls-9"><path class="cls-19" d="M175.57,145.38s1.51-.48,1.84-.64,4.26-.25,4.43-.26l6.72.43V145l-6.72-.42s-4.07.1-4.4.25-1.81.62-1.87.64Z" transform="translate(-13.99 -5)"/></g><g class="cls-9"><path class="cls-20" d="M173.29,148c1.48-2.08,7.11-2.88,7.62-2.85l7.57.49v.05l-7.57-.48c-.5,0-6.1.76-7.56,2.82Z" transform="translate(-13.99 -5)"/></g><g class="cls-9"><path class="cls-21" d="M173.91,149.48c1.33-2.49,7.07-3,7.59-3l6.7.31v.06l-6.7-.31c-.55,0-6.85.59-7.71,3.41h-.06A2.3,2.3,0,0,1,173.91,149.48Z" transform="translate(-13.99 -5)"/></g><g class="cls-9"><path class="cls-22" d="M187.37,149.89l2.27-14.3.61.12L188,149.9Z" transform="translate(-13.99 -5)"/></g><path class="cls-23" d="M187.49,150.2l2.36-14.9,2.9.92,2.13.68s1.48-.31,2,.77-1,4.23-.31,4.92,6.89,1.23,6.89,1.23,9,2.38,9.88,2.52,6.06,3.13,6.06,3.13c.28.7-3.16.73-3.93.94s-8.1-1.17-8.58-1.59-7.3-2.26-7.3-2.26a5,5,0,0,0-3.61-.66,17.24,17.24,0,0,1-1.06,4.3,1.18,1.18,0,0,1-1.23.67l-3.32-.26Z" transform="translate(-13.99 -5)"/><g class="cls-9"><path class="cls-24" d="M187.49,150.2l2.36-14.9,2.9.92c-.46,1.44-3.23,10.53-2.43,14.38Z" transform="translate(-13.99 -5)"/></g><path class="cls-25" d="M175.2,149l-1.44,1c0-.68,2.53-3.38,2.53-3.38-.66-.37-3,1.43-3,1.43.28-1.18,2.33-2.61,2.33-2.61a8,8,0,0,0-1.76.71,11,11,0,0,1,2.65-2.68c-.27-.17-1.83.51-1.9.54a17.59,17.59,0,0,0,2.46-1.94,19.44,19.44,0,0,0-2.2.36c-.15-.7,3.08-4,3.08-4s.4-.57.26-.42a12.74,12.74,0,0,1-1.65.67c0-1,3.15-2.61,3.15-2.61l-1.42-.06.92-1s-1.51,1.15-1.54.83,1.38-1.66,1.68-1.85a2.74,2.74,0,0,1,1.23,0s-.41-1.17-.48-1.34c.22.19,3.41,1.54,3.41,1.54l.27.05c-.3.24-.59.45-.77.62a2.19,2.19,0,0,0-.68.83,1.65,1.65,0,0,0,.21,1.38c.23.42.56.79.79,1.21a.8.8,0,0,1,.13.6,1,1,0,0,1-.4.46,7.87,7.87,0,0,0-2.56,3.54.91.91,0,0,0-.07.43,1.34,1.34,0,0,0,.25.54,1.93,1.93,0,0,1-.25,2.23c-.25.28-.62.52-.63.9a1.13,1.13,0,0,0,.18.59l.75,1.41c-.71-.13-1.29-.25-1.58-.32-1.14-.27-2.56.62-2.89.62a13.73,13.73,0,0,0-2.29,1.63A11.94,11.94,0,0,1,175.2,149Z" transform="translate(-13.99 -5)"/><path class="cls-26" d="M223.42,232.67l1.36,5.45s30.59,9.89,40.5.62-1.09-27.3-1.09-27.3l-6.71-6.9-17.72-2.06h-6.27Z" transform="translate(-13.99 -5)"/><g class="cls-27"><path class="cls-26" d="M223.42,232.67l1.36,5.45s30.59,9.89,40.5.62-1.09-27.3-1.09-27.3l-6.71-6.9-17.72-2.06h-6.27Z" transform="translate(-13.99 -5)"/></g><path class="cls-28" d="M297.74,192.9l-2.94,3.36-10.17,18.18-3.46,6.39s-2.61,3.25-2.35,4.61,1,11.46-7.81,12.28-27.89-19.78-27.89-19.78l.78-.52,17-11.53,6.12-6.59,1.64-1.76s8-10.71,7.75-12.36,8-11.53,12.69-11.23,8.28.31,9.95,6.29S297.74,192.9,297.74,192.9Z" transform="translate(-13.99 -5)"/><rect class="cls-29" x="222.77" y="118.34" width="32.31" height="24.03"/><g class="cls-9"><rect class="cls-29" x="222.77" y="118.34" width="32.31" height="24.03"/></g><path class="cls-30" d="M227.92,173.39c0,.43,0,1-.1,1.72-.24,2.64-.84,6.45-.84,6.45s-1.26,6.72-.94,7.26-.31,5-.74,6-2.93,0-2.93,0l-8.3-21.9-.46-1.21-.18-.47.19-.74.67-2.65S227.92,171.25,227.92,173.39Z" transform="translate(-13.99 -5)"/><path class="cls-31" d="M265.87,151.73v3.46l-2.52,12.09-5.45,7.19-12,1.54-11.53-4.45s-7.65-12.14,1.25-19a16.74,16.74,0,0,0,5.11-6.38,20.31,20.31,0,0,0,1.76-8.2,19.23,19.23,0,0,0-.26-3.63s18.87-8.54,15.83,0a9.48,9.48,0,0,0-.43,4.6,13.89,13.89,0,0,0,1.51,4.51A29.41,29.41,0,0,0,265.87,151.73Z" transform="translate(-13.99 -5)"/><g class="cls-9"><path class="cls-32" d="M258,134.37a9.48,9.48,0,0,0-.43,4.6,12.87,12.87,0,0,1-15.14-1,19.23,19.23,0,0,0-.26-3.63S261.05,125.84,258,134.37Z" transform="translate(-13.99 -5)"/></g><ellipse class="cls-33" cx="236.68" cy="122.9" rx="12.68" ry="12.47"/><g class="cls-9"><path class="cls-34" d="M265.87,151.73v3.46l-2.52,12.09-5.45,7.19-12,1.54-11.53-4.45s-7.65-12.14,1.25-19a16.74,16.74,0,0,0,5.11-6.38c-7,26.21,7.88,24.85,7.88,24.85,13.58,0,10.85-24.9,10.52-27.58A29.5,29.5,0,0,0,265.87,151.73Z" transform="translate(-13.99 -5)"/></g><g class="cls-9"><path class="cls-35" d="M277.4,163.44c-.53,1.75-1.78,8.13-1.78,8.13s-.36.14-.93.4c-2.15,1-7.47,3.69-7.87,7.07,0,.05,0,.1,0,.15-.31,4.33-4.2,13.5-6.18,17.62s.94,8.55.94,8.55l-4,.92a32.45,32.45,0,0,1-10.24-.4c-4.7-1.14-4.09,1.85-7,.82S227.73,205,226.16,204s-2.93-9.17-2.09-10.2,3.45-22.76,3.45-22.76-10.58-9.68-10.37-16,7.86-6.59,7.86-6.59,2.94-1,5.44-2.07c.48-.2,1-.41,1.37-.61,2.07-1,6.73-.55,8.61-.33l.8.11c-.27.92-.52,1.82-.74,2.69-4.28,16.88.75,21.92,4.57,23.41a8.58,8.58,0,0,0,3.5.59c4.81,0,7.58-3.13,9.13-7.29,3.07-8.25,1.36-20.53,1.36-20.53a127.45,127.45,0,0,1,16,7.83C281.37,156.23,277.92,161.69,277.4,163.44Z" transform="translate(-13.99 -5)"/></g><path class="cls-36" d="M277.4,162.82c-.53,1.75-1.78,8.14-1.78,8.14s-.36.13-.93.39c-2.15,1-7.47,3.69-7.87,7.07,0,.05,0,.1,0,.15-.31,4.33-4.2,13.5-6.18,17.62s.94,8.55.94,8.55l-4,.92a32.45,32.45,0,0,1-10.24-.4c-4.7-1.14-4.09,1.85-7,.83s-12.58-1.76-14.15-2.68-2.93-9.17-2.09-10.2,3.45-22.76,3.45-22.76-10.58-9.68-10.37-16,7.86-6.59,7.86-6.59,2.94-1,5.44-2.06l1.37-.62c2.07-1,6.73-.55,8.61-.33l.8.11c-.27.92-.52,1.83-.74,2.69-4.28,16.88.75,21.92,4.57,23.41a8.58,8.58,0,0,0,3.5.59c4.81,0,7.58-3.13,9.13-7.29,3.07-8.25,1.36-20.52,1.36-20.52a125.93,125.93,0,0,1,16,7.83C281.37,155.61,277.92,161.07,277.4,162.82Z" transform="translate(-13.99 -5)"/><g class="cls-9"><path class="cls-37" d="M227.92,173.39v1.84l-.1-.13c-4.42-5.51-11.59-3.07-13.75-2.17-.41.17-.64.29-.64.29s.12-.71.18-1.5a8.14,8.14,0,0,0,0-1.21l.67-2.65S227.92,171.25,227.92,173.39Z" transform="translate(-13.99 -5)"/></g><path class="cls-38" d="M220.38,153.86l-2.73,3.5s-4.62,11-4.19,11.85,0,3.4,0,3.4,9.25-4.73,14.49,2v-3.45s.53-1.45.74-1.85a20.58,20.58,0,0,0,0-3.61Z" transform="translate(-13.99 -5)"/><path class="cls-39" d="M225.3,194.86a1.35,1.35,0,0,1-.11.34c-1.33,3-11.35-1.37-11.35-1.37l-.21-1.08c-.53-2.69-1.79-9.55-1.11-10.87.83-1.65.92-6.8.92-6.8,2.8-4.94,1.39-14.94,1.39-14.94,1.26-2.15-.73-4.12-.73-4.12s-17.41-10.1-5.45-11.43S222.9,157.46,222,159s.73,14.09.73,14.09l1.68,9.71S226,191.22,225.3,194.86Z" transform="translate(-13.99 -5)"/><polygon class="cls-40" points="261.72 238.45 258.61 238.29 246.51 237.71 246.49 237.33 246.24 231.18 255.42 226.56 255.44 226.56 255.55 226.64 255.79 226.8 256.04 226.98 261.29 230.66 261.72 238.45"/><g class="cls-9"><polygon class="cls-41" points="256.07 226.95 256.04 226.98 246.49 237.33 246.24 231.18 255.42 226.56 255.55 226.64 256.07 226.95"/></g><g class="cls-9"><path class="cls-42" d="M225.19,195.2c-1.34,3-11.35-1.37-11.35-1.37l-.21-1.08a8,8,0,0,1,5.28-.05A25.36,25.36,0,0,1,225.19,195.2Z" transform="translate(-13.99 -5)"/></g><path class="cls-43" d="M224.78,238.12s-5.87-2.88-6.18-4.42a37,37,0,0,0-2.73-7.42c-.74-1-5.23-8-6.29-11s-4.19-11.44-1.89-14.63,3.67-9.38,11.22-7.32,9,4.84,9,4.84l.83,1.76S247,216.57,247.31,217.1s10.07,7.73,10.07,7.73l12.05,7.11-10.17,11S246.37,238,246,236s-4-3.91-4-3.91l-4.84-1.85Z" transform="translate(-13.99 -5)"/><g class="cls-9"><path class="cls-44" d="M212.51,213.5s2.2,2.16,2.2,3,3,2.27,3,2.27,24.11,14.72,26.94,14.67l5,5,7.1-14.45-8.89-6.88-18.56-16.37s-3.45-2.27-5.34-2.58-11.53-4.63-12.36,3.71S212.51,213.5,212.51,213.5Z" transform="translate(-13.99 -5)"/></g><g class="cls-9"><path class="cls-45" d="M211.89,214.12s2.2,2.15,2.2,3,3,2.27,3,2.27,24.12,14.72,26.94,14.67l5,5,7.11-14.45-8.88-6.88-18.57-16.37s-3.44-2.27-5.33-2.58-11.53-4.63-12.37,3.71S211.89,214.12,211.89,214.12Z" transform="translate(-13.99 -5)"/></g><path class="cls-46" d="M211.89,213.5s2.2,2.16,2.2,3,3,2.27,3,2.27,24.12,14.72,26.94,14.67l5,5L256.21,224l-8.88-6.88-18.57-16.37s-3.44-2.27-5.33-2.58-11.54-4.63-12.38,3.71S211.89,213.5,211.89,213.5Z" transform="translate(-13.99 -5)"/><path class="cls-46" d="M211.89,213.5s2.2,2.16,2.2,3,3,2.27,3,2.27,24.12,14.72,26.94,14.67l5,5L256.21,224l-8.88-6.88-18.57-16.37s-3.44-2.27-5.33-2.58-11.54-4.63-12.38,3.71S211.89,213.5,211.89,213.5Z" transform="translate(-13.99 -5)"/><g class="cls-9"><path class="cls-47" d="M214.19,219.79S220.53,230.11,224,231,214.19,219.79,214.19,219.79Z" transform="translate(-13.99 -5)"/></g><polygon class="cls-48" points="249.47 217.59 248.52 222.88 247.64 227.74 247.27 229.83 239.01 227.25 239.86 222.73 239.9 222.47 240.45 219.53 249.47 217.59"/><g class="cls-9"><path class="cls-49" d="M261.63,232.74l-.37,2.09L253,232.25l.85-4.53c1.2-1.53,4.38-.3,4.38-.3,4.41-.52,2.92,4.53,2.92,4.53A1.66,1.66,0,0,1,261.63,232.74Z" transform="translate(-13.99 -5)"/></g><path class="cls-50" d="M262.51,249.87c-2.2-2-10.17-2.88-12.78-2.88s-1.58-.82-1.58-.82l-1.73-1.23c-1.18-.85-.64-2.84-.18-4a9.74,9.74,0,0,1,.42-.92,37.83,37.83,0,0,1,1.31-6.29c.65-1.45,5.44-3.63,5.44-3.63-.41-4.34,4.82-2.35,4.82-2.35,4.41-.52,2.92,4.53,2.92,4.53.84.62,1.05,3.91.84,5.05s.73,4.74.73,4.74.89,3.26,1.42,5.16c.1.37.19.69.26.92C264.82,249.56,262.51,249.87,262.51,249.87Z" transform="translate(-13.99 -5)"/><g class="cls-9"><path class="cls-51" d="M262.51,249.87c-2.2-2-10.17-2.88-12.78-2.88s-1.58-.82-1.58-.82l-1.73-1.23c-1.18-.85-.64-2.84-.18-4l2.35,2.06s-.67.52,0,.52h2.74s8.8,1.84,12.8,3.72c.11.36.19.68.26.92C264.82,249.56,262.51,249.87,262.51,249.87Z" transform="translate(-13.99 -5)"/></g><g class="cls-9"><ellipse class="cls-52" cx="239.02" cy="226.97" rx="0.42" ry="0.42"/></g><g class="cls-9"><ellipse class="cls-53" cx="239.86" cy="230.24" rx="0.42" ry="0.42"/></g><g class="cls-9"><ellipse class="cls-54" cx="239.63" cy="229.03" rx="0.42" ry="0.42"/></g><g class="cls-9"><ellipse class="cls-55" cx="239.86" cy="231.87" rx="0.42" ry="0.42"/></g><g class="cls-9"><ellipse class="cls-56" cx="237.83" cy="233.57" rx="0.42" ry="0.42"/></g><g class="cls-9"><path class="cls-57" d="M275.71,243.44l-3.11-.14a1,1,0,0,1,0-.58s2.28-2.16-1.5-6.25c0,0,.22-1,1.09-.72,0,0-2.07-3.42-2.38-3.77a.25.25,0,0,1,0-.17l.26.18,5.24,3.69Z" transform="translate(-13.99 -5)"/></g><path class="cls-58" d="M302.48,235.66a6.53,6.53,0,0,1-.81,3.38,6.88,6.88,0,0,1-1.47,1.87h0a23.15,23.15,0,0,1-9.69,1.72c-4.29-.16-9.72-.15-11.55.81,0,0-6.33,1.74-5.7-.74,0,0,2.28-2.15-1.49-6.24,0,0,.22-1,1.09-.72,0,0-2.07-3.43-2.39-3.78-.17-.19.31-1.53.75-2.71.14-.34.27-.67.39-.95.2-.51.35-.86.35-.86s.44.26,1,.55a14.35,14.35,0,0,0,4.14,1.5c2.27.35,4.24,1.08,7.86,0s5.18-2.57,10.1-.78S302.37,232.35,302.48,235.66Z" transform="translate(-13.99 -5)"/><g class="cls-9"><path class="cls-59" d="M302.48,235.66a6.53,6.53,0,0,1-.81,3.38c-.88-3.64-2-5.87-5.8-8.68-4.16-3.08-10.61.27-10.61.27s-5.23.23-9,.23a8.41,8.41,0,0,1-5-1.6,5.67,5.67,0,0,1-.79-.68l1.18-.27,1.33-.31a14.35,14.35,0,0,0,4.14,1.5c2.27.35,4.24,1.09,7.86,0s5.18-2.57,10.1-.78S302.37,232.35,302.48,235.66Z" transform="translate(-13.99 -5)"/></g><g class="cls-9"><path class="cls-60" d="M280,181.77s-2.83,4.23-2.73,5.46-2.3,3.71-2.3,3.71-2.62,2.77-2.62,3.92-4.83,11-4.83,11-6.37,5.91-7.75,6.84-4.72,7.21-6.08,8-1.34,6.77-1.34,6.77L262,217.6s10.69,10.64,11.32,10.85,2.51-8.66,2.51-8.66,5.88-5.53,7.55-7S291.53,201,291.53,201s5.89-10.87,5.37-14S291.39,185.64,280,181.77Z" transform="translate(-13.99 -5)"/></g><g class="cls-9"><path class="cls-61" d="M281,181.77s-2.83,4.23-2.72,5.46-2.31,3.71-2.31,3.71-2.62,2.77-2.62,3.92-4.82,11-4.82,11-6.4,5.91-7.76,6.84-4.71,7.21-6.08,8-1.33,6.77-1.33,6.77,11-7.07,15.17,9h0l3.77-5.4s1.37-2.84,2-2.63,2.52-8.66,2.52-8.66,5.87-5.53,7.55-7S292.47,201,292.47,201s5.9-10.87,5.37-14S291.18,184.57,281,181.77Z" transform="translate(-13.99 -5)"/></g><g class="cls-9"><path class="cls-62" d="M263.46,222.6l-1,5.28c-3.24-2.21-6.8-1.19-8.61-.4l.56-2.95Z" transform="translate(-13.99 -5)"/></g><path class="cls-63" d="M280.65,181.77s-2.83,4.23-2.73,5.46-2.3,3.71-2.3,3.71-2.62,2.77-2.62,3.92-4.83,11-4.83,11-6.39,5.91-7.75,6.84-4.72,7.21-6.08,8-1.34,6.77-1.34,6.77,11.05-7.07,15.17,9h0l3.78-5.4s1.36-2.84,2-2.63,2.51-8.66,2.51-8.66,5.87-5.53,7.55-7S292.16,201,292.16,201s5.9-10.87,5.36-14S292.18,174.26,280.65,181.77Z" transform="translate(-13.99 -5)"/><g class="cls-9"><path class="cls-64" d="M231.91,192.08s15.54-5.78,24.29,1.84Z" transform="translate(-13.99 -5)"/></g><g class="cls-9"><path class="cls-65" d="M233.51,195.86S246,198,250.67,197.54,233.51,195.86,233.51,195.86Z" transform="translate(-13.99 -5)"/></g><g class="cls-9"><path class="cls-66" d="M229.91,148.63s-1,6.36,1.35,7.91S229.91,148.63,229.91,148.63Z" transform="translate(-13.99 -5)"/></g><path class="cls-67" d="M223.42,151.28s3.25,5.15,3.56,7.83" transform="translate(-13.99 -5)"/><g class="cls-9"><path class="cls-68" d="M232.32,217.1s11.74,8.67,10.8,12.67-.7,0-.7,0Z" transform="translate(-13.99 -5)"/></g><g class="cls-9"><ellipse class="cls-69" cx="275.61" cy="228.2" rx="0.42" ry="0.42"/></g><g class="cls-9"><ellipse class="cls-70" cx="277.28" cy="236.86" rx="0.42" ry="0.42"/></g><g class="cls-9"><path class="cls-71" d="M285.37,196.76s-7.62,7.27-7.59,10.76-.42,8-.42,8l2.55-9.26Z" transform="translate(-13.99 -5)"/></g><g class="cls-9"><path class="cls-72" d="M286,189.61s-13.38,10.6-12.25,11.74S286,189.61,286,189.61Z" transform="translate(-13.99 -5)"/></g><g class="cls-9"><path class="cls-73" d="M265.28,221.33s6.44,2.94,6.08,4.1S265.28,221.33,265.28,221.33Z" transform="translate(-13.99 -5)"/></g><g class="cls-9"><ellipse class="cls-74" cx="265.92" cy="230.24" rx="0.42" ry="0.42"/></g><g class="cls-9"><ellipse class="cls-75" cx="260.19" cy="229.44" rx="0.42" ry="0.42"/></g><g class="cls-9"><ellipse class="cls-76" cx="270.96" cy="230.08" rx="0.42" ry="0.42"/></g><g class="cls-9"><ellipse class="cls-77" cx="272.45" cy="236.45" rx="0.42" ry="0.42"/></g><g class="cls-9"><ellipse class="cls-78" cx="273.48" cy="229.25" rx="0.42" ry="0.42"/></g><g class="cls-9"><ellipse class="cls-79" cx="274.81" cy="236.45" rx="0.42" ry="0.42"/></g><g class="cls-9"><ellipse class="cls-80" cx="268.33" cy="230.49" rx="0.42" ry="0.42"/></g><g class="cls-9"><ellipse class="cls-81" cx="269.43" cy="236.86" rx="0.42" ry="0.42"/></g><g class="cls-9"><ellipse class="cls-82" cx="263.37" cy="230.08" rx="0.42" ry="0.42"/></g><g class="cls-9"><path class="cls-83" d="M267.06,199.29c-.1.57-.14.93-.14.93s-5.87,9.17-10,10.4c0,0-9.27,6.71-13.06,6.79l17-11.53Z" transform="translate(-13.99 -5)"/></g><path class="cls-84" d="M273.94,174.62l-.65,3.14-.11.58c-.49,2.54-2.52,12.69-4.17,14.76-1.88,2.37-2.41,6.8-2.41,6.8s-5.87,9.17-10,10.4c0,0-15.93,11.54-14.57,4.53s10.59-9.78,10.59-9.78a15.78,15.78,0,0,0,1.26-2.89c0-.51,2.72-3.71,2.72-3.71s2.41-4.32,2.52-5.25,4.3-17.93,4.3-17.93l2.48-.15Z" transform="translate(-13.99 -5)"/><g class="cls-9"><path class="cls-85" d="M273.94,174.62l-.65,3.14-.11.58c-3.2.57-8.49,1.29-9.23-.07-.34-.61.58-1.8,2-3.14Z" transform="translate(-13.99 -5)"/></g><path class="cls-86" d="M275.62,177.24a51.91,51.91,0,0,1-8.79,1.18h-.51c-1.19,0-2.1-.26-2.37-.77s.61-1.84,2.06-3.21a69.23,69.23,0,0,1,6.6-5.22c1.15-.82,1.94-1.35,1.94-1.35l1.07,3.09s-.12.55-.24,1.33C275.1,174,274.8,176.75,275.62,177.24Z" transform="translate(-13.99 -5)"/><g class="cls-9"><path class="cls-87" d="M243,163.33c1,2.46,2.1,4.92,3.19,7.36a4.82,4.82,0,0,1-1.12.4c-1.93.4-4.09-.39-6-1.19-2.83-1.19-5.9-2.61-7.18-5.36-.94-2-.7-4.39-1.06-6.59-.31-1.91-1.1-3.73-1.23-5.65-.17-2.19.48-4.33.86-6.48l1.38-.62c2.07-1,6.72-.55,8.61-.32a6.67,6.67,0,0,0-.11,1.34,7.17,7.17,0,0,0,.17,1.45c.46,2.34,1.78,4.57,1.78,7,0,1.49-.5,3-.46,4.45A11.89,11.89,0,0,0,243,163.33Z" transform="translate(-13.99 -5)"/></g><g class="cls-9"><path class="cls-88" d="M277.4,162.82c-.53,1.75-1.78,8.14-1.78,8.14s-.12.55-.25,1.33l-.67-.92-.45-.62a6,6,0,0,0-1.64-1.54,3,3,0,0,0-1.54-.43,6.41,6.41,0,0,0-2.46.89c-3.17,1.55-7.58,1.41-9.67-1.42a6.83,6.83,0,0,1-1.23-3.86c3.08-8.25,1.36-20.52,1.36-20.52a125.93,125.93,0,0,1,16,7.83C281.4,155.61,277.92,161.07,277.4,162.82Z" transform="translate(-13.99 -5)"/></g><path class="cls-89" d="M245.53,120c-.39,1.18,0,2.46-.11,3.71-.28,2.92-3.25,5-3.93,7.81-.52,2.18.4,4.45.31,6.69-.12,2.53-1.54,4.9-1.5,7.43,0,2.89,1.95,5.54,2,8.42,0,1.5-.51,3-.46,4.46a12,12,0,0,0,1.18,4.24q1.56,3.69,3.19,7.35c-2.19,1.12-4.84.17-7.11-.79-2.83-1.19-5.9-2.61-7.18-5.36-.94-2-.69-4.39-1.06-6.59-.3-1.9-1.09-3.73-1.23-5.65-.17-2.24.52-4.44.89-6.65a23.08,23.08,0,0,0-.72-10.54,56.31,56.31,0,0,1-1.88-5.91,7.24,7.24,0,0,1,1.09-5.92c1.42-1.76,3.83-2.39,5.62-3.79a11.82,11.82,0,0,0,3.67-6c.58-2,1.11-4.21,2.92-5.18a4.7,4.7,0,0,1,2.39-.49c2.76.06,5.34,1.62,8.11,1.79a28.9,28.9,0,0,0,4.73-.44,17.69,17.69,0,0,1,11.32,2.3,12.76,12.76,0,0,1,6.12,9.42c.21,2.3-.31,4.63-.09,6.93a11.08,11.08,0,0,0,3.08,6.61,24.06,24.06,0,0,1,3.29,3.33,8.91,8.91,0,0,1,1.16,3.54c1.35,9.43-4,18.76-3.08,28.25.15,1.51.62,3.24,2,3.85-.7,1.08-2.41,1-3.48.31a11.75,11.75,0,0,1-2.5-2.92,4.16,4.16,0,0,0-3.18-1.95,6.1,6.1,0,0,0-2.46.89c-3.18,1.54-7.59,1.4-9.68-1.42-1.57-2.13-1.37-5-.95-7.63s1-5.37-.11-7.78c-.81-1.81-2.51-3.43-2.22-5.38.22-1.49,1.54-2.54,2.5-3.71a12.11,12.11,0,0,0,2.46-8.09,37.23,37.23,0,0,0-1.53-8.47c-.62-2.26-1.23-4.59-2.75-6.4a6.05,6.05,0,0,0-5.93-2.13c-.93.17-1.8-.23-2.77,0A3,3,0,0,0,245.53,120Z" transform="translate(-13.99 -5)"/><g class="cls-9"><path class="cls-90" d="M273.7,125c.06-1.42.21-2.86.15-4.28C273.79,122.19,273.63,123.62,273.7,125Z" transform="translate(-13.99 -5)"/><path class="cls-91" d="M241.37,132.23q0-.39.12-.75c.68-2.86,3.65-4.89,3.93-7.81a8.52,8.52,0,0,0,0-1.43c-.34,2.85-3.24,4.87-3.91,7.68A7.47,7.47,0,0,0,241.37,132.23Z" transform="translate(-13.99 -5)"/><path class="cls-92" d="M230.74,140.51a22.75,22.75,0,0,0-1-7.56,56.49,56.49,0,0,1-1.88-5.92,9.67,9.67,0,0,1-.15-1.08,9.68,9.68,0,0,0,.15,2.63,56.31,56.31,0,0,0,1.88,5.91A23.2,23.2,0,0,1,230.74,140.51Z" transform="translate(-13.99 -5)"/><path class="cls-93" d="M241.82,157.51a31.47,31.47,0,0,0,.42-3.48,6.12,6.12,0,0,0,0-.74,30.29,30.29,0,0,0-.42,3.64C241.8,157.12,241.8,157.32,241.82,157.51Z" transform="translate(-13.99 -5)"/><path class="cls-94" d="M240.33,144.73c.24-2.21,1.35-4.32,1.46-6.56a11.89,11.89,0,0,0,0-1.19c-.22,2.4-1.5,4.66-1.47,7.07C240.29,144.29,240.31,144.51,240.33,144.73Z" transform="translate(-13.99 -5)"/><path class="cls-95" d="M279.19,171.93a3.06,3.06,0,0,1-2.46-.44,12.15,12.15,0,0,1-2.5-2.92,4.16,4.16,0,0,0-3.18-1.95,6.25,6.25,0,0,0-2.46.89c-3.18,1.54-7.59,1.4-9.68-1.42a6.76,6.76,0,0,1-1.23-3.69,7.82,7.82,0,0,0,1.23,5.23c2.09,2.82,6.5,3,9.68,1.42a6.1,6.1,0,0,1,2.46-.89,4.14,4.14,0,0,1,3.18,2,12,12,0,0,0,2.5,2.92c1.07.73,2.77.78,3.49-.31A2.59,2.59,0,0,1,279.19,171.93Z" transform="translate(-13.99 -5)"/><path class="cls-96" d="M278.11,165.89c.22-7.64,3.6-15.2,3.38-22.8C281.25,150.69,277.88,158.25,278.11,165.89Z" transform="translate(-13.99 -5)"/><path class="cls-97" d="M258.47,154.79a8.75,8.75,0,0,0-.61-4.11c-.64-1.41-1.81-2.71-2.16-4.15,0,.11,0,.21-.07.32-.28,2,1.42,3.57,2.23,5.37A7.55,7.55,0,0,1,258.47,154.79Z" transform="translate(-13.99 -5)"/><path class="cls-98" d="M239.05,167.74c-2.83-1.2-5.9-2.61-7.18-5.37-.94-2-.7-4.38-1.06-6.59-.31-1.89-1.09-3.69-1.23-5.61a9.52,9.52,0,0,0,0,1.51c.15,1.92.92,3.75,1.23,5.65.36,2.2.12,4.55,1.06,6.59,1.28,2.77,4.35,4.17,7.18,5.36,2.27,1,4.92,1.91,7.11.79-.2-.44-.39-.87-.58-1.31C243.51,169.48,241.12,168.61,239.05,167.74Z" transform="translate(-13.99 -5)"/><path class="cls-99" d="M256.33,120.18a16.14,16.14,0,0,1,2.75,6.4,38.72,38.72,0,0,1,1.53,8.1c0-.39,0-.79,0-1.18a36.28,36.28,0,0,0-1.54-8.47c-.61-2.25-1.23-4.59-2.74-6.39a6.07,6.07,0,0,0-5.94-2.14c-.92.17-1.79-.23-2.76,0a3,3,0,0,0-2.11,1.88,5.86,5.86,0,0,0-.14,2.17,4.29,4.29,0,0,1,.14-.62,3,3,0,0,1,2.11-1.87c1-.27,1.84.13,2.76,0A6.07,6.07,0,0,1,256.33,120.18Z" transform="translate(-13.99 -5)"/></g><g class="cls-9"><path class="cls-100" d="M265.6,172.3s4.88,12.77-6.44,17.92c0,0-20.3-2.25-26.52-.61s-6.42-12.16-3.57-13S265.6,172.3,265.6,172.3Z" transform="translate(-13.99 -5)"/></g><path class="cls-101" d="M265.28,171.68s4.89,12.77-6.43,17.93c0,0-20.3-2.26-26.53-.62s-6.41-12.16-3.57-13S265.28,171.68,265.28,171.68Z" transform="translate(-13.99 -5)"/><g class="cls-9"><path class="cls-102" d="M223.12,175.65,224.9,186S225.35,178.19,223.12,175.65Z" transform="translate(-13.99 -5)"/></g><g class="cls-9"><path class="cls-103" d="M248.56,163.54s-.4,4.64-.59,6.08S249.29,164,248.56,163.54Z" transform="translate(-13.99 -5)"/></g><path class="cls-104" d="M253.41,230.08s4.3,7.49,7.74,2.18" transform="translate(-13.99 -5)"/><path class="cls-105" d="M272.83,235.74s10.48,5.36,6.66,7.48" transform="translate(-13.99 -5)"/><path class="cls-106" d="M181.7,133.15Z" transform="translate(-13.99 -5)"/><path class="cls-107" d="M176.87,149.46l-1.41,1c0-.67,2.48-3.36,2.48-3.36-.64-.37-2.91,1.43-2.91,1.43.27-1.18,2.27-2.6,2.27-2.6a7.17,7.17,0,0,0-1.72.7,11.31,11.31,0,0,1,2.59-2.66c-.26-.17-1.78.5-1.84.53a17.37,17.37,0,0,0,2.39-1.92,16.37,16.37,0,0,0-2.15.35c-.16-.69,3-3.95,3-3.95s.39-.57.25-.42a11.91,11.91,0,0,1-1.61.67c0-1,3.07-2.6,3.07-2.6l-1.39-.05.93-1c-.05,0-1.48,1.15-1.5.82s1.35-1.64,1.64-1.84,1.22,0,1.22,0-.4-1.17-.47-1.34c.21.19,3.33,1.52,3.33,1.52l.27.06a18.54,18.54,0,0,1,3,.76,13.83,13.83,0,0,0,2.67.68l.61.12-2.21,14.12h-.61c-.36,0-.72,0-1.07-.06a15.61,15.61,0,0,1-1.67-.24l-3.69-.71-1.54-.32c-1.11-.27-2.51.61-2.83.61a13.43,13.43,0,0,0-2.23,1.62A9.07,9.07,0,0,1,176.87,149.46Z" transform="translate(-13.99 -5)"/><path class="cls-108" d="M176.86,149.43l2.91-1.19c.73-.28,9.38.35,9.75.37v.06c-.09,0-9-.66-9.72-.38l-2.91,1.19Z" transform="translate(-13.99 -5)"/><path class="cls-109" d="M181.7,133.15Z" transform="translate(-13.99 -5)"/><path class="cls-108" d="M179.3,136.34a17.24,17.24,0,0,1,1.85-1.32,3.78,3.78,0,0,1,2.15.06,4.34,4.34,0,0,0,.61.11,26.62,26.62,0,0,1,2.89.71s2.57.61,2.89.59a9.48,9.48,0,0,1,1.52.28v.06a8.44,8.44,0,0,0-1.5-.28c-.33,0-2.81-.57-2.91-.6s-2.46-.71-2.87-.71a4.49,4.49,0,0,1-.64-.1,3.77,3.77,0,0,0-2.12-.07,19.93,19.93,0,0,0-1.85,1.31Z" transform="translate(-13.99 -5)"/><path class="cls-108" d="M179.81,136.5a9,9,0,0,1,3-.25c.23.09,3.15.38,3.31.38l5,1v0c-1.69-.33-4.92-1-5-1s-3.08-.28-3.34-.38a9.57,9.57,0,0,0-2.94.23Z" transform="translate(-13.99 -5)"/><path class="cls-108" d="M178.19,139.18c.79-1.36,5.23-1.76,5.26-1.77.47,0,7.2,1.26,7.49,1.32v.05c-.07,0-7-1.35-7.47-1.31-1.23.11-4.58.63-5.23,1.74Z" transform="translate(-13.99 -5)"/><path class="cls-108" d="M177.89,140.75c1.25-1.43,5.23-1.33,5.26-1.33.31,0,7,1,7.33,1.07v.06c-.07,0-7-1.06-7.32-1.07,0,0-4-.1-5.21,1.31Z" transform="translate(-13.99 -5)"/><path class="cls-108" d="M176.71,142.34c.47-.9,1.79-1.54,3.92-1.9a20.31,20.31,0,0,1,3.11-.28l6.88.79V141l-6.87-.8c-.06,0-5.95,0-7,2.19l-.06,0A.14.14,0,0,1,176.71,142.34Z" transform="translate(-13.99 -5)"/><path class="cls-108" d="M176.54,142.87c.66-.73,3.24-1.32,4.47-1.46s8.83,1.09,9.15,1.14v.06c-.07,0-8-1.29-9.14-1.15s-3.79.74-4.43,1.45Z" transform="translate(-13.99 -5)"/><path class="cls-108" d="M178.05,143.14l2.9-.48a7.45,7.45,0,0,1,2.26,0l3.24.42,3.55.69v.05l-3.55-.68-3.22-.42a7.64,7.64,0,0,0-2.24,0l-2.91.49Z" transform="translate(-13.99 -5)"/><path class="cls-108" d="M175.61,146.44c.62-1.13,3.28-1.7,4.75-2l.7-.16c.83-.24,8.57.56,8.9.59v.06c-.08,0-8.06-.83-8.88-.6a6.46,6.46,0,0,1-.7.16c-1.41.31-4.33.93-4.76,2.12l-.06,0Z" transform="translate(-13.99 -5)"/><path class="cls-108" d="M177.22,145.9s1.48-.47,1.82-.63,4.16-.25,4.33-.26l6.56.41v.06l-6.56-.41s-4,.1-4.3.25-1.76.62-1.83.64Z" transform="translate(-13.99 -5)"/><path class="cls-108" d="M175,148.47c1.44-2.06,7-2.87,7.45-2.83l7.4.48v.06l-7.41-.48c-.49,0-6,.76-7.38,2.8Z" transform="translate(-13.99 -5)"/><path class="cls-108" d="M175.61,150c1.3-2.48,6.91-3,7.43-3l6.55.3v.06L183,147c-.55,0-6.71.59-7.54,3.38h-.06A2.17,2.17,0,0,1,175.61,150Z" transform="translate(-13.99 -5)"/><path class="cls-108" d="M188.76,150.4,191,136.17l.61.11-2.21,14.12Z" transform="translate(-13.99 -5)"/><path class="cls-110" d="M188.91,150.71l2.31-14.83,2.83.92,2.08.67s1.45-.31,1.91.77-1,4.21-.31,4.89,6.74,1.23,6.74,1.23,8.73,2.36,9.65,2.5S220,150,220,150c.28.7-3.07.74-3.84.94s-7.92-1.16-8.39-1.58-7.14-2.25-7.14-2.25a4.81,4.81,0,0,0-3.53-.66,17,17,0,0,1-1,4.27,1.15,1.15,0,0,1-1.21.67l-3.22-.26Z" transform="translate(-13.99 -5)"/><path class="cls-108" d="M188.91,150.71l2.31-14.83,2.83.92c-.44,1.43-3.17,10.45-2.37,14.3Z" transform="translate(-13.99 -5)"/><path class="cls-6" d="M176.87,149.46l-1.41,1c0-.67,2.48-3.36,2.48-3.36-.64-.37-2.91,1.43-2.91,1.43.27-1.18,2.27-2.6,2.27-2.6a7.17,7.17,0,0,0-1.72.7,11.1,11.1,0,0,1,2.59-2.66c-.26-.17-1.78.5-1.84.53a17.37,17.37,0,0,0,2.39-1.92,16.37,16.37,0,0,0-2.15.35c-.16-.69,3-3.95,3-3.95s.39-.57.25-.42a11.91,11.91,0,0,1-1.61.67c0-1,3.07-2.6,3.07-2.6l-1.38-.05.92-1s-1.48,1.15-1.49.82,1.34-1.64,1.64-1.84,1.21,0,1.21,0-.39-1.17-.47-1.34c.22.19,3.33,1.52,3.33,1.52l.27.06c-.28.23-.57.44-.76.61a2.23,2.23,0,0,0-.66.83,1.72,1.72,0,0,0,.2,1.38c.24.41.56.78.79,1.2a.83.83,0,0,1,.12.59,1,1,0,0,1-.39.47,7.69,7.69,0,0,0-2.5,3.52.88.88,0,0,0-.08.42,1.34,1.34,0,0,0,.25.54,2,2,0,0,1-.25,2.22c-.24.28-.59.52-.61.89a1.13,1.13,0,0,0,.18.59l.73,1.41-1.53-.32c-1.12-.27-2.51.61-2.83.61a13.55,13.55,0,0,0-2.24,1.62A9.53,9.53,0,0,1,176.87,149.46Z" transform="translate(-13.99 -5)"/><path class="cls-111" d="M224,232.75l1.33,5.43s29.91,9.84,39.61.62-1.07-27.17-1.07-27.17l-6.56-6.87-17.32-2h-6.15Z" transform="translate(-13.99 -5)"/><path class="cls-112" d="M224,232.75l1.33,5.43s29.91,9.84,39.61.62-1.07-27.17-1.07-27.17l-6.56-6.87-17.32-2h-6.15Z" transform="translate(-13.99 -5)"/><path class="cls-111" d="M296.69,193.18l-2.87,3.33-9.94,18.09L280.5,221s-2.56,3.23-2.31,4.59,1,11.4-7.64,12.22-27.26-19.68-27.26-19.68l.76-.53,16.66-11.46,6-6.55,1.6-1.75s7.79-10.66,7.59-12.3,7.78-11.48,12.4-11.17,8.1.31,9.73,6.25S296.69,193.18,296.69,193.18Z" transform="translate(-13.99 -5)"/><rect class="cls-113" x="223.08" y="118.98" width="31.59" height="23.91"/><rect class="cls-108" x="223.08" y="118.98" width="31.59" height="23.91"/><path class="cls-114" d="M228.43,173.77c0,.44,0,1-.1,1.72-.24,2.62-.82,6.42-.82,6.42s-1.23,6.68-.93,7.23-.3,5-.72,6-2.86,0-2.86,0l-8.12-21.79-.45-1.2-.18-.47.19-.73.66-2.64S228.43,171.66,228.43,173.77Z" transform="translate(-13.99 -5)"/><path class="cls-114" d="M265.53,152.22v3.45l-2.46,12-5.33,7.15L246,176.39,234.68,172s-7.48-12.07,1.23-18.87a16.74,16.74,0,0,0,5-6.35,20.67,20.67,0,0,0,1.73-8.16,19.81,19.81,0,0,0-.26-3.61s18.45-8.51,15.47,0a9.71,9.71,0,0,0-.42,4.57A14.55,14.55,0,0,0,258.9,144,29.2,29.2,0,0,0,265.53,152.22Z" transform="translate(-13.99 -5)"/><path class="cls-108" d="M257.84,135a9.72,9.72,0,0,0-.42,4.57,12.39,12.39,0,0,1-14.79-1,19.81,19.81,0,0,0-.26-3.61S260.82,126.46,257.84,135Z" transform="translate(-13.99 -5)"/><circle class="cls-114" cx="236.68" cy="123.51" r="12.4"/><path class="cls-108" d="M265.53,152.22v3.45l-2.46,12-5.33,7.15L246,176.39,234.68,172s-7.48-12.07,1.23-18.87a16.74,16.74,0,0,0,5-6.35c-6.81,26.08,7.71,24.73,7.71,24.73,13.29,0,10.61-24.79,10.29-27.44A29.2,29.2,0,0,0,265.53,152.22Z" transform="translate(-13.99 -5)"/><path class="cls-108" d="M276.81,163.87c-.52,1.75-1.75,8.1-1.75,8.1l-.9.39c-2.12,1-7.3,3.69-7.68,7v.15c-.31,4.3-4.1,13.42-6.05,17.52s.92,8.51.92,8.51l-3.89.92a31.74,31.74,0,0,1-10-.41c-4.61-1.13-4,1.85-6.86.82s-12.3-1.74-13.84-2.66-2.87-9.12-2.05-10.15S228,171.46,228,171.46s-10.35-9.64-10.15-15.89,7.69-6.56,7.69-6.56,2.88-1,5.32-2c.47-.21.92-.41,1.34-.62,2-1,6.58-.55,8.41-.32l.77.1c-.26.92-.5,1.82-.71,2.68-4.19,16.79.72,21.81,4.47,23.29a8.15,8.15,0,0,0,3.46.59c4.7,0,7.41-3.11,8.91-7.25,3-8.2,1.34-20.42,1.34-20.42a122.26,122.26,0,0,1,15.68,7.79C280.72,156.69,277.32,162.13,276.81,163.87Z" transform="translate(-13.99 -5)"/><path class="cls-115" d="M276.81,163.26c-.52,1.74-1.75,8.1-1.75,8.1s-.34.13-.9.39c-2.12,1-7.3,3.69-7.68,7v.15c-.31,4.31-4.1,13.43-6.05,17.53s.92,8.51.92,8.51l-3.89.92a31.74,31.74,0,0,1-10-.41c-4.61-1.13-4,1.84-6.86.82s-12.3-1.75-13.84-2.67-2.87-9.12-2.05-10.15S228,170.85,228,170.85s-10.35-9.64-10.15-15.89,7.69-6.56,7.69-6.56,2.88-1,5.32-2.06c.47-.2.92-.41,1.34-.61,2-1,6.58-.55,8.41-.33l.77.11c-.26.92-.5,1.81-.71,2.67-4.19,16.8.72,21.82,4.47,23.3a8.31,8.31,0,0,0,3.46.59c4.7,0,7.41-3.12,8.91-7.26,3-8.2,1.34-20.41,1.34-20.41a123.06,123.06,0,0,1,15.68,7.78C280.72,156.08,277.32,161.51,276.81,163.26Z" transform="translate(-13.99 -5)"/><path class="cls-108" d="M228.43,173.77v1.85l-.1-.13C224,170,217,172.41,214.88,173.34a6.41,6.41,0,0,0-.61.29s.12-.71.17-1.5a8,8,0,0,0,0-1.2l.66-2.64S228.43,171.66,228.43,173.77Z" transform="translate(-13.99 -5)"/><path class="cls-115" d="M221.05,154.34l-2.67,3.48s-4.51,11-4.1,11.78,0,3.39,0,3.39,9-4.71,14.17,2v-3.43s.51-1.43.72-1.84a21.36,21.36,0,0,0,0-3.59Z" transform="translate(-13.99 -5)"/><path class="cls-114" d="M225.86,195.14a1.46,1.46,0,0,1-.1.34c-1.31,3-11.1-1.37-11.1-1.37l-.21-1.07c-.52-2.68-1.75-9.5-1.09-10.82.82-1.64.9-6.76.9-6.76,2.74-4.92,1.36-14.87,1.36-14.87,1.23-2.15-.72-4.09-.72-4.09s-17-10.05-5.33-11.38,13.94,12.8,13,14.35.71,14,.71,14l1.64,9.66S226.57,191.51,225.86,195.14Z" transform="translate(-13.99 -5)"/><polygon class="cls-114" points="261.16 238.48 258.12 238.33 246.29 237.75 246.28 237.37 246.02 231.25 255.01 226.65 255.02 226.65 255.13 226.73 255.36 226.89 255.61 227.07 260.75 230.73 261.16 238.48"/><polygon class="cls-108" points="255.64 227.03 255.61 227.07 246.28 237.37 246.02 231.25 255.01 226.65 255.13 226.73 255.64 227.03"/><path class="cls-108" d="M225.76,195.48c-1.31,3-11.1-1.37-11.1-1.37l-.21-1.07a7.75,7.75,0,0,1,5.16-.06A24.52,24.52,0,0,1,225.76,195.48Z" transform="translate(-13.99 -5)"/><path class="cls-111" d="M225.35,238.18s-5.74-2.87-6-4.41a36.57,36.57,0,0,0-2.67-7.38c-.72-1-5.12-8-6.15-11s-4.1-11.38-1.84-14.55,3.58-9.33,11-7.28,8.82,4.82,8.82,4.82l.81,1.74s17.83,16.59,18.14,17.11,9.84,7.68,9.84,7.68L269,232l-9.94,11s-12.6-4.92-13-7-3.88-3.89-3.88-3.89l-4.73-1.84Z" transform="translate(-13.99 -5)"/><path class="cls-108" d="M213.36,213.69s2.15,2.15,2.15,3,3,2.25,3,2.25,23.58,14.65,26.35,14.6l4.92,5,6.94-14.39-8.7-6.84L229.85,201s-3.38-2.26-5.22-2.56-11.28-4.62-12.1,3.69S213.36,213.69,213.36,213.69Z" transform="translate(-13.99 -5)"/><path class="cls-108" d="M212.75,214.3s2.15,2.15,2.15,3,3,2.26,3,2.26,23.57,14.65,26.34,14.6l4.92,5,6.94-14.39-8.69-6.83-18.14-16.3s-3.38-2.25-5.23-2.56-11.27-4.61-12.09,3.69S212.75,214.3,212.75,214.3Z" transform="translate(-13.99 -5)"/><path class="cls-111" d="M212.75,213.69s2.15,2.15,2.15,3,3,2.25,3,2.25,23.57,14.65,26.34,14.6l4.92,5,6.94-14.39-8.69-6.84L229.24,201s-3.38-2.26-5.23-2.56-11.27-4.62-12.09,3.69S212.75,213.69,212.75,213.69Z" transform="translate(-13.99 -5)"/><path class="cls-111" d="M212.75,213.69s2.15,2.15,2.15,3,3,2.25,3,2.25,23.57,14.65,26.34,14.6l4.92,5,6.94-14.39-8.69-6.84L229.24,201s-3.38-2.26-5.23-2.56-11.27-4.62-12.09,3.69S212.75,213.69,212.75,213.69Z" transform="translate(-13.99 -5)"/><path class="cls-108" d="M215,219.93s6.19,10.27,9.55,11.18S215,219.93,215,219.93Z" transform="translate(-13.99 -5)"/><polygon class="cls-114" points="249.19 217.73 248.25 223 247.4 227.82 247.03 229.9 238.96 227.34 239.79 222.84 239.83 222.59 240.37 219.66 249.19 217.73"/><path class="cls-108" d="M261.39,232.83,261,234.9,253,232.34l.84-4.5c1.18-1.52,4.28-.31,4.28-.31,4.31-.51,2.86,4.51,2.86,4.51A1.71,1.71,0,0,1,261.39,232.83Z" transform="translate(-13.99 -5)"/><path class="cls-116" d="M262.25,249.87c-2.15-2-9.94-2.87-12.5-2.87s-1.54-.82-1.54-.82l-1.7-1.23c-1.15-.84-.61-2.83-.17-4a8.53,8.53,0,0,1,.41-.92,38.67,38.67,0,0,1,1.28-6.25c.64-1.44,5.32-3.61,5.32-3.61-.4-4.3,4.71-2.34,4.71-2.34,4.31-.51,2.86,4.51,2.86,4.51.82.62,1,3.9.82,5s.72,4.71.72,4.71.86,3.25,1.38,5.14l.26.92C264.51,249.56,262.25,249.87,262.25,249.87Z" transform="translate(-13.99 -5)"/><path class="cls-108" d="M262.25,249.87c-2.15-2-9.94-2.87-12.5-2.87s-1.54-.82-1.54-.82l-1.7-1.23c-1.15-.84-.61-2.83-.17-4l2.29,2.05s-.65.52,0,.52h2.7s8.61,1.82,12.52,3.69c.1.36.19.68.25.92C264.51,249.56,262.25,249.87,262.25,249.87Z" transform="translate(-13.99 -5)"/><circle class="cls-108" cx="238.96" cy="227.06" r="0.41"/><circle class="cls-108" cx="239.79" cy="230.32" r="0.41"/><circle class="cls-108" cx="239.57" cy="229.11" r="0.41"/><circle class="cls-108" cx="239.79" cy="231.94" r="0.41"/><circle class="cls-108" cx="237.81" cy="233.62" r="0.41"/><path class="cls-108" d="M275.15,243.48l-3-.15a1.18,1.18,0,0,1,0-.59s2.23-2.13-1.46-6.21c0,0,.21-1,1.07-.72,0,0-2-3.4-2.34-3.75a.25.25,0,0,1,0-.17l.24.18,5.14,3.66Z" transform="translate(-13.99 -5)"/><path class="cls-116" d="M301.33,235.73a6.58,6.58,0,0,1-.81,3.36,6.65,6.65,0,0,1-1.43,1.86h0a22.47,22.47,0,0,1-9.48,1.71c-4.19-.16-9.5-.15-11.29.8,0,0-6.19,1.73-5.57-.73,0,0,2.23-2.13-1.46-6.21,0,0,.21-1,1.07-.72,0,0-2-3.41-2.34-3.75s.29-1.54.74-2.7c.13-.34.25-.67.37-.95.2-.5.35-.85.35-.85s.43.26,1,.54a14.06,14.06,0,0,0,4,1.5c2.22.34,4.15,1.07,7.69,0s5.07-2.56,9.87-.78S301.21,232.44,301.33,235.73Z" transform="translate(-13.99 -5)"/><path class="cls-108" d="M301.33,235.73a6.58,6.58,0,0,1-.81,3.36,13.07,13.07,0,0,0-5.66-8.64c-4.08-3.08-10.38.27-10.38.27s-5.11.22-8.84.22a8.05,8.05,0,0,1-4.92-1.58,5,5,0,0,1-.77-.68l1.14-.27,1.31-.31a13.88,13.88,0,0,0,4,1.5c2.23.35,4.15,1.08,7.69,0s5.07-2.56,9.88-.78S301.21,232.44,301.33,235.73Z" transform="translate(-13.99 -5)"/><path class="cls-108" d="M279.37,182.11s-2.77,4.21-2.67,5.43-2.25,3.69-2.25,3.69-2.56,2.77-2.56,3.9-4.72,10.92-4.72,10.92-6.25,5.89-7.58,6.81-4.62,7.17-5.95,8-1.3,6.73-1.3,6.73l9.4-9.84s10.45,10.58,11.07,10.79,2.46-8.61,2.46-8.61,5.74-5.51,7.38-7,8-11.71,8-11.71,5.76-10.8,5.25-14S290.49,186,279.37,182.11Z" transform="translate(-13.99 -5)"/><path class="cls-108" d="M280.29,182.11s-2.77,4.21-2.66,5.43-2.26,3.69-2.26,3.69-2.56,2.77-2.56,3.9-4.72,10.92-4.72,10.92-6.25,5.89-7.58,6.81-4.61,7.17-5.95,8-1.3,6.73-1.3,6.73,10.8-7,14.83,9h0l3.69-5.38s1.34-2.82,2-2.62,2.46-8.61,2.46-8.61,5.74-5.51,7.38-7,8-11.71,8-11.71,5.77-10.8,5.25-14S290.28,184.88,280.29,182.11Z" transform="translate(-13.99 -5)"/><path class="cls-108" d="M263.17,222.73l-.92,5.26c-3.17-2.19-6.65-1.19-8.42-.4l.54-2.93Z" transform="translate(-13.99 -5)"/><path class="cls-111" d="M280,182.11s-2.77,4.21-2.66,5.43-2.26,3.69-2.26,3.69-2.56,2.77-2.56,3.9-4.71,10.92-4.71,10.92-6.26,5.89-7.59,6.81-4.61,7.17-5.94,8-1.31,6.73-1.31,6.73,10.8-7,14.84,9h0l3.69-5.38s1.33-2.82,1.94-2.62,2.46-8.61,2.46-8.61,5.74-5.51,7.38-7,8-11.71,8-11.71,5.76-10.8,5.24-14S291.26,174.64,280,182.11Z" transform="translate(-13.99 -5)"/><path class="cls-108" d="M232.32,192.37s15.2-5.75,23.76,1.84Z" transform="translate(-13.99 -5)"/><path class="cls-108" d="M233.89,196.13s12.17,2.08,16.78,1.67S233.89,196.13,233.89,196.13Z" transform="translate(-13.99 -5)"/><path class="cls-108" d="M230.38,149.14s-1,6.33,1.31,7.87S230.38,149.14,230.38,149.14Z" transform="translate(-13.99 -5)"/><path class="cls-108" d="M224,151.78s3.18,5.12,3.49,7.79" transform="translate(-13.99 -5)"/><path class="cls-108" d="M232.73,217.26s11.48,8.61,10.56,12.61-.68,0-.68,0Z" transform="translate(-13.99 -5)"/><circle class="cls-108" cx="274.74" cy="228.28" r="0.41"/><circle class="cls-108" cx="276.39" cy="236.9" r="0.41"/><path class="cls-108" d="M284.6,197s-7.44,7.22-7.42,10.71-.41,8-.41,8l2.49-9.23Z" transform="translate(-13.99 -5)"/><path class="cls-108" d="M285.24,189.91s-13.09,10.56-12,11.68S285.24,189.91,285.24,189.91Z" transform="translate(-13.99 -5)"/><path class="cls-108" d="M265,221.47s6.29,2.93,5.94,4.08S265,221.47,265,221.47Z" transform="translate(-13.99 -5)"/><circle class="cls-108" cx="265.27" cy="230.32" r="0.41"/><circle class="cls-108" cx="259.67" cy="229.52" r="0.41"/><circle class="cls-108" cx="270.2" cy="230.15" r="0.41"/><circle class="cls-108" cx="271.66" cy="236.49" r="0.41"/><circle class="cls-108" cx="272.66" cy="229.33" r="0.41"/><circle class="cls-108" cx="273.96" cy="236.49" r="0.41"/><circle class="cls-108" cx="267.62" cy="230.56" r="0.41"/><circle class="cls-108" cx="268.7" cy="236.9" r="0.41"/><circle class="cls-108" cx="262.78" cy="230.15" r="0.41"/><path class="cls-108" d="M266.7,199.55c-.1.56-.14.92-.14.92s-5.74,9.12-9.74,10.35c0,0-9.06,6.68-12.77,6.77l16.67-11.47Z" transform="translate(-13.99 -5)"/><path class="cls-114" d="M273.42,175l-.63,3.11-.11.58c-.48,2.53-2.46,12.63-4.08,14.69-1.84,2.36-2.35,6.77-2.35,6.77s-5.74,9.12-9.74,10.35c0,0-15.58,11.48-14.24,4.51s10.35-9.74,10.35-9.74a15.7,15.7,0,0,0,1.23-2.87c0-.51,2.66-3.69,2.66-3.69s2.36-4.3,2.46-5.22,4.2-17.84,4.2-17.84l2.43-.16Z" transform="translate(-13.99 -5)"/><path class="cls-108" d="M273.42,175l-.63,3.11-.11.58c-3.13.57-8.3,1.28-9-.07-.33-.61.57-1.79,2-3.13Z" transform="translate(-13.99 -5)"/><path class="cls-115" d="M275.06,177.61a49.68,49.68,0,0,1-8.61,1.18H266c-1.17,0-2-.26-2.32-.76s.59-1.85,2-3.2a69.45,69.45,0,0,1,6.46-5.2c1.12-.81,1.89-1.34,1.89-1.34l1.05,3.08s-.12.54-.24,1.32C274.56,174.36,274.27,177.12,275.06,177.61Z" transform="translate(-13.99 -5)"/><path class="cls-108" d="M243.14,163.77q1.52,3.69,3.11,7.32a4.11,4.11,0,0,1-1.1.39c-1.89.41-4-.38-5.84-1.18-2.77-1.18-5.77-2.59-7-5.33-.92-2-.68-4.37-1-6.56-.31-1.89-1.07-3.71-1.23-5.62-.16-2.17.48-4.3.84-6.46.48-.2.93-.41,1.35-.61,2-1,6.58-.55,8.4-.33a8.54,8.54,0,0,0-.1,1.34,7.74,7.74,0,0,0,.16,1.44c.46,2.34,1.75,4.55,1.75,6.94,0,1.48-.49,2.94-.45,4.43A12.14,12.14,0,0,0,243.14,163.77Z" transform="translate(-13.99 -5)"/><path class="cls-108" d="M276.81,163.26c-.52,1.74-1.75,8.1-1.75,8.1s-.11.54-.23,1.32l-.67-.92c-.14-.21-.28-.42-.43-.62a6.09,6.09,0,0,0-1.6-1.52,2.81,2.81,0,0,0-1.52-.42,6,6,0,0,0-2.4.88c-3.11,1.54-7.42,1.4-9.46-1.41a6.86,6.86,0,0,1-1.21-3.85c3-8.2,1.33-20.41,1.33-20.41a122.26,122.26,0,0,1,15.68,7.79C280.7,156.09,277.32,161.51,276.81,163.26Z" transform="translate(-13.99 -5)"/><path class="cls-113" d="M245.65,120.61c-.38,1.18,0,2.46-.11,3.69-.27,2.91-3.18,4.92-3.84,7.77-.51,2.18.38,4.43.28,6.66-.11,2.52-1.49,4.87-1.46,7.38,0,2.88,1.9,5.5,1.91,8.38,0,1.49-.49,2.95-.45,4.43a12,12,0,0,0,1.16,4.22q1.52,3.69,3.11,7.32c-2.15,1.11-4.73.16-6.94-.79-2.77-1.18-5.77-2.59-7-5.33-.92-2-.68-4.37-1-6.56-.31-1.89-1.07-3.71-1.23-5.62-.17-2.23.51-4.42.87-6.62a23.33,23.33,0,0,0-.69-10.47,59,59,0,0,1-1.85-5.89,7.26,7.26,0,0,1,1.07-5.88c1.38-1.75,3.74-2.38,5.49-3.78a11.74,11.74,0,0,0,3.59-6c.57-1.94,1.08-4.18,2.85-5.15a4.52,4.52,0,0,1,2.34-.49c2.72.06,5.22,1.61,7.94,1.78a25.79,25.79,0,0,0,4.61-.44,17,17,0,0,1,11.07,2.29,12.73,12.73,0,0,1,6,9.37c.21,2.3-.31,4.62-.09,6.9a11.1,11.1,0,0,0,3,6.58,23.47,23.47,0,0,1,3.22,3.32,8.78,8.78,0,0,1,1.13,3.52c1.33,9.38-3.87,18.68-3,28.1.14,1.51.61,3.23,2,3.84-.69,1.07-2.36,1-3.4.31a11.73,11.73,0,0,1-2.45-2.91,4,4,0,0,0-3.11-1.94,6.24,6.24,0,0,0-2.41.89c-3.1,1.53-7.42,1.39-9.46-1.41-1.53-2.12-1.33-5-.92-7.6s.94-5.34-.11-7.74c-.79-1.79-2.46-3.41-2.17-5.34.21-1.49,1.5-2.53,2.46-3.69a12.34,12.34,0,0,0,2.41-8,36.33,36.33,0,0,0-1.51-8.43,16.34,16.34,0,0,0-2.68-6.37,5.89,5.89,0,0,0-5.81-2.12c-.9.17-1.75-.23-2.69,0A3,3,0,0,0,245.65,120.61Z" transform="translate(-13.99 -5)"/><g class="cls-9"><path d="M273.19,125.67c.05-1.42.21-2.84.14-4.26C273.28,122.83,273.12,124.26,273.19,125.67Z" transform="translate(-13.99 -5)"/><path d="M241.58,132.82a4.88,4.88,0,0,1,.12-.75c.66-2.84,3.57-4.86,3.84-7.76a11.37,11.37,0,0,0,0-1.43c-.34,2.85-3.18,4.85-3.83,7.66A7.28,7.28,0,0,0,241.58,132.82Z" transform="translate(-13.99 -5)"/><path d="M231.18,141.06a23,23,0,0,0-1-7.52,58.23,58.23,0,0,1-1.85-5.89c-.06-.35-.11-.71-.14-1.08a10,10,0,0,0,.14,2.62,54.24,54.24,0,0,0,1.85,5.89A22.87,22.87,0,0,1,231.18,141.06Z" transform="translate(-13.99 -5)"/><path d="M242,158c.11-1.15.41-2.3.41-3.46,0-.25,0-.49,0-.74a27.81,27.81,0,0,0-.41,3.63A5.46,5.46,0,0,0,242,158Z" transform="translate(-13.99 -5)"/><path d="M240.57,145.26c.23-2.2,1.31-4.31,1.42-6.53a11.62,11.62,0,0,0,0-1.18c-.22,2.39-1.47,4.64-1.44,7A5,5,0,0,0,240.57,145.26Z" transform="translate(-13.99 -5)"/><path d="M278.56,172.32a3,3,0,0,1-2.39-.43,11.66,11.66,0,0,1-2.44-2.91,4.08,4.08,0,0,0-3.12-1.94,6,6,0,0,0-2.4.88c-3.11,1.54-7.42,1.4-9.46-1.41a6.8,6.8,0,0,1-1.2-3.67,7.93,7.93,0,0,0,1.2,5.21c2,2.81,6.35,3,9.46,1.41a6,6,0,0,1,2.4-.88,4.06,4.06,0,0,1,3.12,1.94,12,12,0,0,0,2.44,2.91c1.05.72,2.71.77,3.41-.31A2.66,2.66,0,0,1,278.56,172.32Z" transform="translate(-13.99 -5)"/><path d="M277.5,166.31c.22-7.59,3.52-15.12,3.29-22.68C280.58,151.19,277.27,158.71,277.5,166.31Z" transform="translate(-13.99 -5)"/><path d="M258.3,155.27a8.78,8.78,0,0,0-.59-4.09c-.62-1.41-1.77-2.7-2.11-4.13l-.06.31c-.28,1.94,1.38,3.55,2.17,5.34A7.83,7.83,0,0,1,258.3,155.27Z" transform="translate(-13.99 -5)"/><path d="M239.31,168.15c-2.77-1.19-5.77-2.6-7-5.34-.92-2-.68-4.36-1-6.55-.31-1.89-1.06-3.69-1.21-5.59a9.39,9.39,0,0,0,0,1.5c.14,1.92.92,3.73,1.23,5.63.36,2.19.12,4.53,1,6.55,1.24,2.74,4.25,4.15,7,5.34,2.22.95,4.8,1.9,6.94.78-.19-.43-.37-.86-.56-1.3C243.67,169.88,241.33,169,239.31,168.15Z" transform="translate(-13.99 -5)"/><path d="M256.2,120.84c1.48,1.79,2.1,4.11,2.69,6.36a38.4,38.4,0,0,1,1.49,8.06c0-.39,0-.78,0-1.17a36.86,36.86,0,0,0-1.51-8.43c-.59-2.24-1.21-4.57-2.69-6.36a5.84,5.84,0,0,0-5.8-2.12c-.9.16-1.75-.23-2.7,0a3,3,0,0,0-2,1.87,5.77,5.77,0,0,0-.14,2.15,4.61,4.61,0,0,1,.14-.62,3,3,0,0,1,2-1.86c1-.27,1.8.13,2.7,0A5.85,5.85,0,0,1,256.2,120.84Z" transform="translate(-13.99 -5)"/></g><path class="cls-108" d="M265.27,172.69S270,185.4,259,190.52c0,0-19.83-2.24-25.93-.61s-6.27-12.1-3.5-12.92S265.27,172.69,265.27,172.69Z" transform="translate(-13.99 -5)"/><path class="cls-115" d="M265,172.07s4.77,12.71-6.3,17.84c0,0-19.82-2.25-25.93-.62s-6.27-12.09-3.49-12.91S265,172.07,265,172.07Z" transform="translate(-13.99 -5)"/><path class="cls-108" d="M223.74,176l1.73,10.3S225.91,178.56,223.74,176Z" transform="translate(-13.99 -5)"/><path class="cls-108" d="M248.61,164s-.39,4.61-.58,6.05S249.32,164.39,248.61,164Z" transform="translate(-13.99 -5)"/><path class="cls-117" d="M253.35,230.17s4.21,7.45,7.57,2.17" transform="translate(-13.99 -5)"/><path class="cls-117" d="M272.34,235.81s10.24,5.34,6.51,7.44" transform="translate(-13.99 -5)"/><path class="cls-4" d="M163.61,198.72c-.12.44-.69.8-1.51,1.09-3.15,1.12-10,1.25-10,1.25l-13-.31-6.43-.92a26.86,26.86,0,0,1-3.05-1.07c-.77-.34-1.41-.71-1.54-1.06a45.62,45.62,0,0,1,19.07-3.19C157.06,195.26,164.22,196.59,163.61,198.72Z" transform="translate(-13.99 -5)"/><path class="cls-108" d="M163.61,198.72c-.12.44-.69.8-1.51,1.09-3.15,1.12-10,1.25-10,1.25l-13-.31-6.43-.92a26.86,26.86,0,0,1-3.05-1.07c-.77-.34-1.41-.71-1.54-1.06a45.62,45.62,0,0,1,19.07-3.19C157.06,195.26,164.22,196.59,163.61,198.72Z" transform="translate(-13.99 -5)"/><path class="cls-4" d="M163.42,199.68,163,207.8l-.17,3.63-.57,12-.15,3.29-.42,8.79c-10,4.95-31.45,0-31.45,0l-.34-8.79-.16-4.3h0l-.41-11-.17-4.48-.29-7.72C141,203.21,163.42,199.68,163.42,199.68Z" transform="translate(-13.99 -5)"/><path class="cls-108" d="M163,207.8l-.17,3.63H129.34l-.16-4.48C133.5,208.3,151.61,213.41,163,207.8Z" transform="translate(-13.99 -5)"/><path class="cls-108" d="M162.29,223.43l-.15,3.29H129.93l-.16-4.31C134.83,224,151.31,228.27,162.29,223.43Z" transform="translate(-13.99 -5)"/><ellipse class="cls-108" cx="132.17" cy="205.34" rx="8.08" ry="3.42"/><ellipse class="cls-6" cx="132.17" cy="205.15" rx="8.08" ry="3.42"/><ellipse class="cls-108" cx="133.05" cy="194.72" rx="12.14" ry="1.53"/><ellipse class="cls-6" cx="133.12" cy="194.85" rx="12.14" ry="1.53"/><path class="cls-108" d="M163.61,198.85c-.12.44-.69.8-1.51,1.09-2.13-5.62-15.93-4.11-15.93-4.11-9.95-.61-15.14,2.16-16.56,3.08-.77-.34-1.41-.71-1.54-1a45.54,45.54,0,0,1,19.07-3.2C157.06,195.41,164.22,196.71,163.61,198.85Z" transform="translate(-13.99 -5)"/><path class="cls-4" d="M163.61,198.72c-.12.44-.69.8-1.51,1.09-2.13-5.62-15.93-4.11-15.93-4.11-9.95-.61-15.14,2.15-16.56,3.08-.77-.34-1.41-.71-1.54-1.06a45.54,45.54,0,0,1,19.07-3.2C157.06,195.28,164.22,196.59,163.61,198.72Z" transform="translate(-13.99 -5)"/><path class="cls-108" d="M130.21,233.71s-2.13,1-.14,2.61,15.21,2.68,18.54,2.06c0,0,12.1-.65,13.68-2.38,0,0,0-1.17-.54-1.21,0,0-4.68,2.07-15,1.89S129.69,235.8,130.21,233.71Z" transform="translate(-13.99 -5)"/><path class="cls-4" d="M130.21,233.84s-2.13,1-.14,2.62,15.21,2.67,18.54,2c0,0,12.1-.65,13.68-2.38,0,0,0-1.17-.54-1.2,0,0-4.68,2.06-15,1.88S129.69,235.92,130.21,233.84Z" transform="translate(-13.99 -5)"/><path class="cls-4" d="M129.82,223.42c-1.28-.36-6.24-2.33-3.76-10.77,0,0,2.68-9,4.31-11.19,0,0-.28-.5-.68,0a32.06,32.06,0,0,0-1.6,3.49s-5.19,9.82-2.58,15.47a7.09,7.09,0,0,0,4.26,3.69" transform="translate(-13.99 -5)"/><path class="cls-108" d="M128.05,197.86s-.16,1.44.86,2,30,4.24,34.51.92c0,0,.65-2,0-2S137.45,203.21,128.05,197.86Z" transform="translate(-13.99 -5)"/><path class="cls-4" d="M128.05,197.73s-.16,1.43.86,2,30,4.23,34.51.92c0,0,.65-2,0-2S137.45,203.08,128.05,197.73Z" transform="translate(-13.99 -5)"/><circle class="cls-108" cx="116.36" cy="196.69" r="1.49"/><circle class="cls-4" cx="116.15" cy="196.46" r="1.49"/><path class="cls-4" d="M91.74,198.54c.08.26.42.48.92.66a27.34,27.34,0,0,0,6.07.75l7.86-.18,3.89-.55a15.48,15.48,0,0,0,1.84-.65,2,2,0,0,0,.94-.63A27.55,27.55,0,0,0,101.74,196C95.75,196.46,91.38,197.25,91.74,198.54Z" transform="translate(-13.99 -5)"/><path class="cls-108" d="M91.74,198.54c.08.26.42.48.92.66a27.34,27.34,0,0,0,6.07.75l7.86-.18,3.89-.55a15.48,15.48,0,0,0,1.84-.65,2,2,0,0,0,.94-.63A27.55,27.55,0,0,0,101.74,196C95.75,196.46,91.38,197.25,91.74,198.54Z" transform="translate(-13.99 -5)"/><path class="cls-4" d="M91.87,199.12,92.1,204l.11,2.19.34,7.26.1,2,.25,5.32c6,3,19,0,19,0l.2-5.32.1-2.6h0l.25-6.64.1-2.71.18-4.67C105.45,201.25,91.87,199.12,91.87,199.12Z" transform="translate(-13.99 -5)"/><path class="cls-108" d="M92.1,204l.11,2.19h20.26l.1-2.7C110,204.33,99,207.42,92.1,204Z" transform="translate(-13.99 -5)"/><path class="cls-108" d="M92.55,213.48l.1,2h19.47l.1-2.6C109.16,213.78,99.19,216.41,92.55,213.48Z" transform="translate(-13.99 -5)"/><ellipse class="cls-108" cx="88.32" cy="200.57" rx="4.89" ry="2.07"/><ellipse class="cls-6" cx="88.32" cy="200.45" rx="4.89" ry="2.07"/><ellipse class="cls-118" cx="88.32" cy="200.45" rx="4.89" ry="2.07"/><ellipse class="cls-108" cx="87.79" cy="194.14" rx="7.34" ry="0.93"/><ellipse class="cls-6" cx="87.75" cy="194.22" rx="7.34" ry="0.93"/><ellipse class="cls-118" cx="87.79" cy="194.23" rx="7.34" ry="0.93"/><path class="cls-108" d="M91.74,198.61c.08.27.42.49.92.67,1.3-3.41,9.65-2.49,9.65-2.49,6-.36,9.15,1.31,10,1.85a2,2,0,0,0,.94-.64,27.45,27.45,0,0,0-11.52-1.93C95.75,196.52,91.38,197.33,91.74,198.61Z" transform="translate(-13.99 -5)"/><path class="cls-4" d="M91.74,198.54c.08.26.42.48.92.66,1.3-3.41,9.65-2.49,9.65-2.49,6-.36,9.15,1.31,10,1.85a2,2,0,0,0,.94-.64A27.45,27.45,0,0,0,101.74,196C95.75,196.44,91.38,197.25,91.74,198.54Z" transform="translate(-13.99 -5)"/><path class="cls-108" d="M112,219.7s1.28.6.08,1.59-9.2,1.61-11.21,1.23c0,0-7.32-.4-8.28-1.45,0,0,0-.7.33-.73,0,0,2.83,1.26,9.07,1.15S112.27,221,112,219.7Z" transform="translate(-13.99 -5)"/><path class="cls-4" d="M112,219.78s1.28.6.08,1.58-9.2,1.62-11.21,1.25c0,0-7.32-.4-8.28-1.44,0,0,0-.71.33-.73,0,0,2.83,1.25,9.07,1.14S112.27,221.05,112,219.78Z" transform="translate(-13.99 -5)"/><path class="cls-4" d="M112.19,213.48c.78-.22,3.78-1.41,2.28-6.51,0,0-1.63-5.47-2.61-6.77,0,0,.17-.31.41,0a20,20,0,0,1,1,2.11s3.14,5.94,1.56,9.35a4.31,4.31,0,0,1-2.58,2.24" transform="translate(-13.99 -5)"/><path class="cls-108" d="M113.27,198s.09.88-.53,1.19-18.14,2.57-20.87.55c0,0-.39-1.23,0-1.18S107.58,201.25,113.27,198Z" transform="translate(-13.99 -5)"/><path class="cls-4" d="M113.27,197.94s.09.87-.53,1.18-18.14,2.57-20.87.56c0,0-.39-1.23,0-1.19S107.58,201.18,113.27,197.94Z" transform="translate(-13.99 -5)"/><circle class="cls-108" cx="97.88" cy="195.33" r="0.9"/><circle class="cls-4" cx="98.01" cy="195.2" r="0.9"/><path class="cls-4" d="M316.35,199.69c.08.27.42.48.92.66a27.34,27.34,0,0,0,6.07.75l7.86-.18,3.88-.55a15,15,0,0,0,1.85-.65c.46-.2.85-.42.92-.63a27.55,27.55,0,0,0-11.52-1.94C320.34,197.61,316,198.41,316.35,199.69Z" transform="translate(-13.99 -5)"/><path class="cls-108" d="M316.35,199.69c.08.27.42.48.92.66a27.34,27.34,0,0,0,6.07.75l7.86-.18,3.88-.55a15,15,0,0,0,1.85-.65c.46-.2.85-.42.92-.63a27.55,27.55,0,0,0-11.52-1.94C320.34,197.61,316,198.41,316.35,199.69Z" transform="translate(-13.99 -5)"/><path class="cls-4" d="M316.47,200.27l.23,4.92.11,2.2.34,7.26.1,2,.25,5.31c6,3,19,0,19,0l.2-5.31.1-2.61h0l.25-6.64.1-2.71.18-4.67C330,202.41,316.47,200.27,316.47,200.27Z" transform="translate(-13.99 -5)"/><path class="cls-108" d="M316.7,205.17l.11,2.2h20.26l.1-2.71C334.57,205.48,323.61,208.57,316.7,205.17Z" transform="translate(-13.99 -5)"/><path class="cls-108" d="M317.15,214.63l.1,2h19.47l.1-2.6C333.76,215,323.79,217.56,317.15,214.63Z" transform="translate(-13.99 -5)"/><ellipse class="cls-108" cx="312.92" cy="201.72" rx="4.89" ry="2.07"/><ellipse class="cls-6" cx="312.92" cy="201.6" rx="4.89" ry="2.07"/><ellipse class="cls-119" cx="312.92" cy="201.6" rx="4.89" ry="2.07"/><ellipse class="cls-108" cx="312.39" cy="195.29" rx="7.34" ry="0.93"/><ellipse class="cls-6" cx="312.35" cy="195.37" rx="7.34" ry="0.93"/><ellipse class="cls-119" cx="312.67" cy="195.29" rx="7.34" ry="0.93"/><path class="cls-108" d="M316.35,199.77c.08.26.42.48.92.66,1.29-3.41,9.64-2.49,9.64-2.49,6-.36,9.16,1.31,10,1.85.46-.2.85-.43.92-.64a27.45,27.45,0,0,0-11.52-1.93C320.34,197.67,316,198.48,316.35,199.77Z" transform="translate(-13.99 -5)"/><path class="cls-4" d="M316.35,199.69c.08.27.42.48.92.66,1.29-3.4,9.64-2.49,9.64-2.49,6-.36,9.16,1.31,10,1.85.46-.2.85-.43.92-.64a27.63,27.63,0,0,0-11.52-1.93C320.34,197.59,316,198.41,316.35,199.69Z" transform="translate(-13.99 -5)"/><path class="cls-106" d="M323.72,198.72Z" transform="translate(-13.99 -5)"/><path class="cls-107" d="M330,203.68l.17.78c-.3-.12-1-1.67-1-1.67-.27.22.11,1.52.11,1.52-.47-.32-.73-1.45-.73-1.45a3.24,3.24,0,0,0,0,.88,5,5,0,0,1-.7-1.6c-.12.09-.1.87-.1.91a7.09,7.09,0,0,0-.41-1.38,8.36,8.36,0,0,0-.23,1c-.32,0-1.18-2-1.18-2s-.18-.27-.14-.18a5.48,5.48,0,0,1,0,.81c-.44-.18-.59-1.79-.59-1.79l-.26.6-.28-.58s.24.85.09.8a3.26,3.26,0,0,1-.51-1c0-.16.2-.53.2-.53l-.66,0c.12-.07,1.23-1.18,1.23-1.18l.07-.11a8.79,8.79,0,0,1,.86-1.17,7.11,7.11,0,0,0,.76-1,2.72,2.72,0,0,0,.16-.25l5.77,3.44-.11.26c-.07.16-.14.31-.22.46s-.25.46-.39.68l-1,1.48-.41.62c-.31.43-.18,1.19-.24,1.33a6.82,6.82,0,0,0,.31,1.26A5.86,5.86,0,0,1,330,203.68Z" transform="translate(-13.99 -5)"/><path class="cls-108" d="M329.94,203.68v-1.47a42.71,42.71,0,0,1,1.87-4.17h0A42.56,42.56,0,0,0,330,202.2c0,.36,0,1.46,0,1.47Z" transform="translate(-13.99 -5)"/><path class="cls-109" d="M323.72,198.72Z" transform="translate(-13.99 -5)"/><path class="cls-108" d="M324.68,200.32a9.09,9.09,0,0,1-.25-1,1.75,1.75,0,0,1,.41-.92,1.35,1.35,0,0,0,.15-.26c.25-.39.53-.76.82-1.13,0,0,.71-1,.76-1.15a4.85,4.85,0,0,1,.39-.61h0a4.78,4.78,0,0,0-.38.61c-.05.15-.74,1.12-.77,1.16a13.07,13.07,0,0,0-.81,1.13,2.13,2.13,0,0,1-.16.25,1.86,1.86,0,0,0-.4.92,7.36,7.36,0,0,0,.25,1Z" transform="translate(-13.99 -5)"/><path class="cls-108" d="M324.84,200.13a4.17,4.17,0,0,1,.42-1.35c.08-.08.72-1.31.75-1.37s1-1.54,1.3-2h0l-1.3,2s-.66,1.28-.75,1.38a4.71,4.71,0,0,0-.41,1.32Z" transform="translate(-13.99 -5)"/><path class="cls-108" d="M325.72,201.3c-.45-.58.15-2.57.15-2.59.07-.21,1.81-2.91,1.89-3l0,0s-1.82,2.81-1.88,3c-.17.55-.53,2.09-.16,2.56Z" transform="translate(-13.99 -5)"/><path class="cls-108" d="M326.35,201.71c-.4-.8.34-2.5.35-2.52s1.68-2.88,1.75-3h0s-1.7,2.87-1.76,3-.74,1.71-.34,2.49Z" transform="translate(-13.99 -5)"/><path class="cls-108" d="M326.83,202.5c-.31-.36-.35-1-.14-2a10,10,0,0,1,.43-1.41l1.54-2.84h0l-1.54,2.84s-1,2.59-.28,3.43h0Z" transform="translate(-13.99 -5)"/><path class="cls-108" d="M327,202.67a4.82,4.82,0,0,1,.15-2.2,42,42,0,0,1,2.1-3.78l0,0s-2,3.24-2.1,3.76a4.87,4.87,0,0,0-.15,2.18Z" transform="translate(-13.99 -5)"/><path class="cls-108" d="M327.42,202.06l.3-1.35a4,4,0,0,1,.38-1l.75-1.32.92-1.42h0l-.92,1.42-.75,1.32a3.88,3.88,0,0,0-.37,1l-.31,1.35Z" transform="translate(-13.99 -5)"/><path class="cls-108" d="M328.42,203.69c-.39-.45-.16-1.72,0-2.41,0-.14.05-.26.05-.33.05-.4,1.75-3.63,1.82-3.77h0s-1.77,3.36-1.81,3.76a2.15,2.15,0,0,1-.06.33c-.11.67-.36,2,.09,2.44l0,0Z" transform="translate(-13.99 -5)"/><path class="cls-108" d="M328.47,202.9s0-.73,0-.9c.18-.65.4-1.29.64-1.93l1.33-2.76h0l-1.33,2.76s-.66,1.75-.65,1.92,0,.87,0,.9Z" transform="translate(-13.99 -5)"/><path class="cls-108" d="M329.2,204.32c-.64-1,0-3.53.07-3.74s1.5-3.1,1.51-3.13h0s-1.41,2.93-1.51,3.13-.72,2.73-.08,3.69Z" transform="translate(-13.99 -5)"/><path class="cls-108" d="M330,204.32c-.85-1-.1-3.53,0-3.76l1.29-2.78h0L330,200.57c-.11.23-.92,3,.15,3.87v0Z" transform="translate(-13.99 -5)"/><path class="cls-108" d="M332.45,198.68l-5.79-3.46a2.72,2.72,0,0,0,.16-.25l5.74,3.44Z" transform="translate(-13.99 -5)"/><path class="cls-110" d="M332.6,198.68l-6-3.61.9-1.07.65-.78s.12-.69.67-.7,1.65,1.18,2.07,1a13.81,13.81,0,0,0,1.72-2.71s2.56-3.38,2.78-3.76a23,23,0,0,1,2.39-2c.36,0-.22,1.47-.27,1.84a17.07,17.07,0,0,1-2.15,3.38c-.26.15-2.23,2.71-2.23,2.71a2.22,2.22,0,0,0-.9,1.42,8.23,8.23,0,0,1,1.67,1.2.53.53,0,0,1,.08.64l-.68,1.36Z" transform="translate(-13.99 -5)"/><path class="cls-108" d="M332.6,198.68l-6-3.61.9-1.07c.54.44,4,3.22,5.79,3.54Z" transform="translate(-13.99 -5)"/><path class="cls-6" d="M330,203.68l.17.78c-.3-.12-1-1.67-1-1.67-.27.22.11,1.52.11,1.52-.47-.32-.73-1.45-.73-1.45a3.23,3.23,0,0,0,0,.88,5,5,0,0,1-.7-1.6c-.12.09-.1.87-.1.91a7.09,7.09,0,0,0-.41-1.38,8.36,8.36,0,0,0-.23,1c-.32,0-1.18-2-1.18-2s-.18-.27-.14-.18a5.48,5.48,0,0,1,0,.81c-.44-.18-.59-1.79-.59-1.79l-.26.6-.28-.58s.24.85.09.8a3.26,3.26,0,0,1-.51-1c0-.16.2-.53.2-.53l-.66,0c.12-.07,1.23-1.18,1.23-1.18l.07-.11c.05.16.09.33.13.44a1,1,0,0,0,.25.43.78.78,0,0,0,.63.15c.22,0,.44-.1.66-.12a.34.34,0,0,1,.28,0,.5.5,0,0,1,.13.26,3.62,3.62,0,0,0,1.09,1.7.42.42,0,0,0,.18.11.61.61,0,0,0,.27,0,.92.92,0,0,1,.92.49c.08.16.12.35.28.43a.54.54,0,0,0,.28,0l.75-.07-.42.62c-.3.43-.17,1.19-.23,1.33a6.11,6.11,0,0,0,.31,1.26A6.54,6.54,0,0,1,330,203.68Z" transform="translate(-13.99 -5)"/><path class="cls-119" d="M330,203.68l.18.78c-.29-.12-1-1.67-1-1.67-.27.22.11,1.52.11,1.52-.46-.32-.73-1.45-.73-1.45a3.69,3.69,0,0,0,0,.88,5.29,5.29,0,0,1-.7-1.6c-.12.09-.09.87-.09.91a6.44,6.44,0,0,0-.42-1.38,6.73,6.73,0,0,0-.22,1c-.33,0-1.19-2-1.19-2s-.18-.27-.14-.18a5.48,5.48,0,0,1,0,.81c-.44-.18-.59-1.79-.59-1.79l-.27.6-.27-.58s.24.85.09.8a3.26,3.26,0,0,1-.51-1c0-.16.2-.53.2-.53l-.66,0c.11-.07,1.23-1.18,1.23-1.18l.07-.11c0,.16.09.33.13.44a1,1,0,0,0,.25.43.78.78,0,0,0,.63.15c.22,0,.44-.1.66-.12a.34.34,0,0,1,.28,0,.43.43,0,0,1,.13.26,3.62,3.62,0,0,0,1.09,1.7.45.45,0,0,0,.17.11.66.66,0,0,0,.28,0,.92.92,0,0,1,.92.49c.08.16.12.35.28.43a.54.54,0,0,0,.28,0l.75-.07-.42.62c-.3.43-.17,1.19-.23,1.33a6.11,6.11,0,0,0,.31,1.26A6.54,6.54,0,0,1,330,203.68Z" transform="translate(-13.99 -5)"/><path class="cls-108" d="M336.56,220.85s1.28.6.08,1.59-9.19,1.61-11.21,1.23c0,0-7.32-.4-8.28-1.44,0,0,0-.71.33-.73,0,0,2.83,1.25,9.08,1.14S336.88,222.12,336.56,220.85Z" transform="translate(-13.99 -5)"/><rect class="cls-4" x="308.4" y="195.97" width="9.99" height="3.5"/><path class="cls-4" d="M336.56,220.93s1.28.6.08,1.59-9.19,1.61-11.21,1.23c0,0-7.32-.4-8.28-1.45,0,0,0-.7.33-.73,0,0,2.83,1.26,9.08,1.15S336.88,222.2,336.56,220.93Z" transform="translate(-13.99 -5)"/><path class="cls-4" d="M336.81,214.63c.77-.22,3.77-1.41,2.27-6.51,0,0-1.62-5.47-2.6-6.77,0,0,.17-.31.41,0a20,20,0,0,1,1,2.11s3.14,5.94,1.56,9.36a4.35,4.35,0,0,1-2.58,2.23" transform="translate(-13.99 -5)"/><path class="cls-108" d="M337.86,199.17s.1.87-.52,1.18-18.14,2.57-20.87.56c0,0-.39-1.23,0-1.19S332.2,202.41,337.86,199.17Z" transform="translate(-13.99 -5)"/><path class="cls-4" d="M337.86,199.09s.1.87-.52,1.18-18.14,2.57-20.87.56c0,0-.39-1.23,0-1.19S332.2,202.33,337.86,199.09Z" transform="translate(-13.99 -5)"/><circle class="cls-108" cx="322.49" cy="196.49" r="0.9"/><circle class="cls-4" cx="322.61" cy="196.35" r="0.9"/><ellipse class="cls-1" cx="35.8" cy="237.94" rx="8.28" ry="1.4"/><path class="cls-6" d="M345,255.56a3.59,3.59,0,0,0,1.17-1.77,1.57,1.57,0,0,0-.82-1.82c-.75-.29-1.56.24-2.18.77a2.9,2.9,0,0,1-2.11,1,3.2,3.2,0,0,0,1-3,1.25,1.25,0,0,0-.27-.61c-.42-.45-1.18-.26-1.69.1-1.6,1.12-2,3.29-2.05,5.24a9.65,9.65,0,0,1,0-2.15,2.2,2.2,0,0,0-.81-1.91,2.53,2.53,0,0,0-1.23-.31,2.57,2.57,0,0,0-2,.57,2,2,0,0,0,.08,2.46,7.88,7.88,0,0,0,2.08,1.67,4.67,4.67,0,0,1,1.48,1.42,1.42,1.42,0,0,1,.12.25h4.5A12.6,12.6,0,0,0,345,255.56Z" transform="translate(-13.99 -5)"/><path class="cls-120" d="M44.23,236.43s4.72-.15,6.15-1.16,7.26-2.22,7.62-.6,7.09,8.09,1.76,8.13S47.37,242,46,241.1,44.23,236.43,44.23,236.43Z" transform="translate(-13.99 -5)"/><path class="cls-119" d="M59.85,242.23c-5.33.05-12.39-.83-13.81-1.69-1.08-.66-1.51-3-1.65-4.12h-.16s.31,3.81,1.72,4.68,8.48,1.74,13.81,1.69c1.53,0,2.07-.56,2-1.37C61.59,241.92,61,242.23,59.85,242.23Z" transform="translate(-13.99 -5)"/><path class="cls-121" d="M90.08,123.55a14.78,14.78,0,0,1,.76,6.3c-.48,2.93.16.87.55,2.14a34.92,34.92,0,0,1,.38,5.61v-3s-.14-4.53,0-5.88S90.08,123.55,90.08,123.55Z" transform="translate(-13.99 -5)"/><path class="cls-121" d="M101.31,118.51a14.68,14.68,0,0,1,.75,6.3c-.47,2.93.17.88.55,2.14a34,34,0,0,1,.39,5.61v-3s-.14-4.53,0-5.88S101.31,118.51,101.31,118.51Z" transform="translate(-13.99 -5)"/><path class="cls-118" d="M96.22,84.74s2.43,3.39,1.51,6.31-1.54,4.54-.77,5.81a5.84,5.84,0,0,0,2.64,1.93v-3a40.14,40.14,0,0,1,0-5.89C99.88,88.59,96.22,84.74,96.22,84.74Z" transform="translate(-13.99 -5)"/><path class="cls-118" d="M153.47,81.59s-.44,4.14-3.08,5.71-4.16,2.38-4.43,3.83a5.78,5.78,0,0,0,.67,3.19l2-2.22a40.56,40.56,0,0,1,3.91-4.39C153.63,86.89,153.47,81.59,153.47,81.59Z" transform="translate(-13.99 -5)"/><path class="cls-6" d="M177,156a9.44,9.44,0,0,0-.35,1.29,1.32,1.32,0,0,0,.43,1.21.42.42,0,0,0,.34.09c.25-.05.31-.37.31-.61,0-.5,0-1,0-1.49a3.76,3.76,0,0,0-.13-1,1.17,1.17,0,0,0-.5-.71C177,155.05,177.14,155.65,177,156Z" transform="translate(-13.99 -5)"/><path class="cls-6" d="M182.49,159.05a8.5,8.5,0,0,0-.35,1.29,1.29,1.29,0,0,0,.43,1.21.46.46,0,0,0,.34.1c.24-.06.3-.37.3-.62,0-.49,0-1,0-1.48a4.72,4.72,0,0,0-.13-1,1.12,1.12,0,0,0-.51-.71C182.45,158.09,182.59,158.68,182.49,159.05Z" transform="translate(-13.99 -5)"/><path class="cls-6" d="M179.89,155.08a4.26,4.26,0,0,0,.15-.54.55.55,0,0,0-.18-.5.15.15,0,0,0-.14,0c-.11,0-.14.15-.14.26v.61a1.42,1.42,0,0,0,.06.42.45.45,0,0,0,.21.31C179.91,155.49,179.85,155.24,179.89,155.08Z" transform="translate(-13.99 -5)"/><path class="cls-6" d="M209.26,96.35a4.77,4.77,0,0,0,.15-.54.55.55,0,0,0-.18-.5.16.16,0,0,0-.15,0c-.1,0-.13.15-.13.26v.61a2,2,0,0,0,.05.42.53.53,0,0,0,.21.31C209.28,96.75,209.22,96.51,209.26,96.35Z" transform="translate(-13.99 -5)"/><ellipse class="cls-6" cx="168.7" cy="225.33" rx="2.32" ry="0.38"/><ellipse class="cls-6" cx="170.63" cy="225.56" rx="2.32" ry="0.38"/><ellipse class="cls-6" cx="171.44" cy="224.63" rx="2.32" ry="0.38"/><ellipse class="cls-6" cx="172.95" cy="225.71" rx="2.32" ry="0.38"/><polygon class="cls-121" points="92.26 77.25 92.57 78.94 93.17 76.58 92.26 77.25"/><path class="cls-121" d="M103.91,62.22l3.5,18.4,1.5-5.89h-.18l2.55-14.2c-1.72.33-3.42.7-5.08,1.11l.54,4.9-1.26-4.73Z" transform="translate(-13.99 -5)"/><path class="cls-122" d="M203.59,84.5,203.16,87l.43,2.49c.6-.82,1.15-1.65,1.66-2.49C204.74,86.14,204.19,85.32,203.59,84.5Z" transform="translate(-13.99 -5)"/><polygon class="cls-121" points="88.17 81.98 88.22 83.75 90.85 85.68 91.79 81.98 90.85 78.29 88.22 80.22 88.17 81.98"/><polygon class="cls-121" points="92.57 85.03 92.26 86.72 93.17 87.39 92.57 85.03"/><path class="cls-121" d="M76.37,92.79l-1.46-4.26-2.12,7.85c.61.54,4,1.07,4.63,1.59C77.91,96.21,75.75,94.39,76.37,92.79Z" transform="translate(-13.99 -5)"/><path class="cls-121" d="M97,94.61,98.64,87l2.29-15.58c-1.53.53-4.37-2.06-5.84-1.47l-1.63,4.59-2.55-7.89c-1.23.51-5.59,7.13-6.75,7.68l2,12.67,3.08,13.24c1.16.56.5,6.6,1.72,7.12l2.56-7.9-1.36,8.4C93.59,108.44,95.43,94.07,97,94.61Z" transform="translate(-13.99 -5)"/><path class="cls-121" d="M111.28,113.43l-2.55-14.2h.18l-1.5-5.89-3.5,18.39c.52.14,1,.28,1.57.4l1.26-4.72-.55,4.9Q108.7,112.93,111.28,113.43Z" transform="translate(-13.99 -5)"/><path class="cls-121" d="M74.69,76c-.66.52-1.29,1-1.91,1.59l2.12,7.84,1.47-4.25C75.75,79.57,75.18,77.76,74.69,76Z" transform="translate(-13.99 -5)"/><path class="cls-121" d="M71.28,79,70.2,94.76c.08.09,1.25.42,1.34.5L74.37,87,71.54,78.7C71.45,78.8,71.36,78.86,71.28,79Z" transform="translate(-13.99 -5)"/><path class="cls-122" d="M86.56,100.22,80.9,64.09c-1.25.68-2.47,1.38-3.64,2.1.76,5.29,4.92,19.75,2.6,20-1.06.12-2.17-1.69-3.19-4.2l-1.35,5,1.35,5c1-2.51,2.13-4.32,3.19-4.2,2.33.24-1,3.23-1.76,8.52C79.27,97,85.3,99.55,86.56,100.22Z" transform="translate(-13.99 -5)"/><path class="cls-121" d="M112.44,113.64q3.33.61,6.8,1l-1.57-12.59-.23,4.38-.28-8.42L117,96.82l-.66,6.07-1.49-2.39,1.78-6.7-.42-3.32-.79-.59.36-2.91-.36-2.9.8-.59.42-3.32-1.79-6.71,1.49-2.38.67,6.09.16-1.23.27-8.43.24,4.38,2.79-2c-1.72,1.38,6.1,11.89-8-9.53l-.62,14.2-2.37.17L107.13,87l2.33,12.3,2.37.17Z" transform="translate(-13.99 -5)"/><path class="cls-121" d="M184.82,67.42c-.66-.31-1.33-.59-2-.87l-2,4.37,4.58.8Z" transform="translate(-13.99 -5)"/><path class="cls-121" d="M174,90.26c-.66-.27.69-16.88,0-17.14l2.54-2.26-.94,14.57Z" transform="translate(-13.99 -5)"/><path class="cls-123" d="M69.42,88.08,70.2,87l-.57-6.39A37.9,37.9,0,0,0,64.68,87C66,89.2,67.47,86.05,69.42,88.08Z" transform="translate(-13.99 -5)"/><path class="cls-121" d="M182,101.82c.85-.46,5.44,1.37,6.26.9L190.89,87,189.8,75.27c-.82-.48-4.11-.37-5-.82L183,83.21l-1.41-10.09L179.29,87l-1.62,11L183,90.76Z" transform="translate(-13.99 -5)"/><path class="cls-121" d="M171.26,110.22,164.75,87.5l-1.63,4.66,1.5-5.18-1.49-5.17,1.63,4.66,6.52-22.72c-1.19-.38-2.39-.74-3.62-1.09V74.74l-3.6-7.42c-2-.51-2.7-.16-4.74-.57h0L158,71.48c-1.38-.25-2.76-.47-4.15-.68l.75-4.24-1.84,4.08-2.11-.28,4.13,15.85.71-3.07L154.9,87l.59,3.86-.71-8.61-4.15,26.93q1.06,8.16,2.11-.28l1.85-7-.74,6.8c1.4,5.33,2.77-.44,4.14-.69l1.32-.8.49.44c2-.41,4,4.66,6,4.15l1.85-12.58v12.08C168.87,111,170.08,110.6,171.26,110.22Z" transform="translate(-13.99 -5)"/><path class="cls-121" d="M164.92,96l-2.51-8.78-.62,1.8.57-2-.57-2,.62,1.79L164.92,78c-.45-.15-.92-.29-1.39-.42v4.67l-.72-4.87c-.76-.2-1.53-.38-2.32-.53l-.18,2.31-.51-2.46c-.52-.1-1.06-.19-1.6-.27l.29,2.64-.72-2.7-.81-.11,1.6,10.4.28-1.19L158.6,87l.24,1.49-.28-1.19L157,97.68l.81-.11.72-2.7-.29,2.63,1.6-.26.51-2.46.19,2.31c.79-.16,1.57-.34,2.32-.54l.72-4.84v4.67C164,96.25,164.47,96.11,164.92,96Z" transform="translate(-13.99 -5)"/><path class="cls-121" d="M191.41,77l-.47,9.69.09-.53L191,87l.07.82-.09-.54-.05,11.42c1.71-1.06,5.93-3.91,7.44-5.07l-5.87,4.87L193.54,87,196,81.77l-1.43-6.28C193.08,74.33,193.11,78.07,191.41,77Z" transform="translate(-13.99 -5)"/><path class="cls-124" d="M126.38,110.91c.34-.07,10.49,4.66,10.83,4.58L138.14,87l-3.24-16.4c-1.44-.31-4.61-2.19-6.06-2.5l1,4.4.49,4.41-.93-3.48-2.59,5.42.53,4.86-1-3.84-2.77,5.81L123.38,87l.16,1.33,2.77,5.8,1-3.83-.53,4.85,2.58,5.43.92-3.48-.48,4.41Z" transform="translate(-13.99 -5)"/><polygon class="cls-121" points="86.49 82.48 86.52 81.98 86.49 81.49 85.81 81.98 86.49 82.48"/><path class="cls-121" d="M172.38,87l-1.27-17.1,2.51.45.42-5.65-1.14-.39-8,22.69,8,22.7,1.14-.4-.42-5.64-2.51.44Z" transform="translate(-13.99 -5)"/><path class="cls-121" d="M147.22,110.26,151.51,87l-5.15-14.45c-1.05-.13-2.11-.25-3.18-.34l.57-7-1.39,7c-.8-.06-1.59-.11-2.4-.15l-.63,15,.5,22.69c.81,0,1.73,5.77,2.53,5.7l1.39-6.55,3.07,5.85C147.89,114.59,146.17,110.4,147.22,110.26Z" transform="translate(-13.99 -5)"/><polygon class="cls-6" points="72.57 71.28 76.09 82.5 80.52 76.59 82.23 73.71 79.31 84.47 77.4 89.33 72.57 78.29 72.57 71.28"/></svg>