<svg id="Layer_1" data-name="Layer 1" xmlns="http://www.w3.org/2000/svg" viewBox="0 0 305.97 213.27"><defs><style>.cls-1{fill:#2f2e41;}.cls-2{fill:#6c63ff;}.cls-3{fill:#9e616a;}</style></defs><title>why-6</title><rect class="cls-1" x="11.69" y="80.02" width="294.27" height="0.61"/><path class="cls-2" d="M308.45,239.76c-4.19,5.51.62,16.23.62,16.23s11.61,1.8,15.81-3.71-.62-16.23-.62-16.23S312.65,234.26,308.45,239.76Z" transform="translate(-47 -43)"/><path class="cls-1" d="M88.61,117.1A23.08,23.08,0,1,1,111.69,94,23.08,23.08,0,0,1,88.61,117.1Zm0-45.55A22.47,22.47,0,1,0,111.08,94,22.47,22.47,0,0,0,88.61,71.55Z" transform="translate(-47 -43)"/><path class="cls-1" d="M88.61,66.23c-7.88,0-14.28-5.21-14.28-11.61S80.73,43,88.61,43s14.27,5.21,14.27,11.62S96.48,66.23,88.61,66.23Zm0-22.74c-7.54,0-13.67,5-13.67,11.13s6.13,11.12,13.67,11.12,13.66-5,13.66-11.12S96.14,43.49,88.61,43.49Z" transform="translate(-47 -43)"/><path class="cls-1" d="M81.92,60.92c-1.7,0-3-2.54-3-5.77s1.33-5.77,3-5.77,3,2.53,3,5.77S83.63,60.92,81.92,60.92Zm0-10.94c-1.31,0-2.43,2.37-2.43,5.17s1.12,5.16,2.43,5.16,2.43-2.36,2.43-5.16S83.24,50,81.92,50Z" transform="translate(-47 -43)"/><path class="cls-1" d="M95.29,60.92c-1.71,0-3-2.54-3-5.77s1.33-5.77,3-5.77,3,2.53,3,5.77S97,60.92,95.29,60.92Zm0-10.94c-1.32,0-2.43,2.37-2.43,5.17s1.11,5.16,2.43,5.16,2.43-2.36,2.43-5.16S96.6,50,95.29,50Z" transform="translate(-47 -43)"/><path class="cls-1" d="M118.37,88.25A12.15,12.15,0,1,1,130.51,76.1,12.15,12.15,0,0,1,118.37,88.25Zm0-23.69A11.54,11.54,0,1,0,129.91,76.1h0A11.56,11.56,0,0,0,118.37,64.56Z" transform="translate(-47 -43)"/><path class="cls-1" d="M59.15,88.25A12.15,12.15,0,1,1,71.3,76.1,12.15,12.15,0,0,1,59.15,88.25Zm0-23.69A11.54,11.54,0,1,0,70.69,76.1h0A11.56,11.56,0,0,0,59.15,64.56Z" transform="translate(-47 -43)"/><path class="cls-1" d="M88.61,123.17c-4.35,0-7.75-1.46-7.75-3.34s3.4-3.34,7.75-3.34,7.74,1.47,7.74,3.34S93,123.17,88.61,123.17Zm0-6.07c-4.27,0-7.14,1.41-7.14,2.73s2.87,2.74,7.14,2.74,7.13-1.42,7.13-2.74S92.87,117.1,88.61,117.1Z" transform="translate(-47 -43)"/><path class="cls-1" d="M191.56,117.1A23.08,23.08,0,1,1,214.64,94,23.08,23.08,0,0,1,191.56,117.1Zm0-45.55A22.47,22.47,0,1,0,214,94a22.47,22.47,0,0,0-22.47-22.47Z" transform="translate(-47 -43)"/><path class="cls-1" d="M191.56,71.55a14.28,14.28,0,1,1,14.27-14.28A14.28,14.28,0,0,1,191.56,71.55Zm0-27.94a13.67,13.67,0,1,0,13.66,13.66h0A13.68,13.68,0,0,0,191.56,43.61Z" transform="translate(-47 -43)"/><path class="cls-1" d="M184.87,60.92c-1.7,0-3-2.54-3-5.77s1.33-5.77,3-5.77,3,2.53,3,5.77S186.58,60.92,184.87,60.92Zm0-10.94c-1.31,0-2.42,2.37-2.42,5.17s1.11,5.16,2.42,5.16,2.43-2.36,2.43-5.16S186.19,50,184.87,50Z" transform="translate(-47 -43)"/><path class="cls-1" d="M198.24,60.92c-1.71,0-3-2.54-3-5.77s1.33-5.77,3-5.77,3,2.53,3,5.77S199.94,60.92,198.24,60.92Zm0-10.94c-1.32,0-2.43,2.37-2.43,5.17s1.11,5.16,2.43,5.16,2.43-2.36,2.43-5.16S199.55,50,198.24,50Z" transform="translate(-47 -43)"/><path class="cls-1" d="M224.05,118.92a12.15,12.15,0,1,1,12.15-12.15A12.15,12.15,0,0,1,224.05,118.92Zm0-23.69a11.54,11.54,0,1,0,11.54,11.54A11.54,11.54,0,0,0,224.05,95.23Z" transform="translate(-47 -43)"/><path class="cls-1" d="M156.86,104.65a12.15,12.15,0,1,1,12.07-12.22v.07A12.13,12.13,0,0,1,156.86,104.65Zm0-23.69a11.54,11.54,0,1,0,11.47,11.61V92.5A11.52,11.52,0,0,0,156.86,81Z" transform="translate(-47 -43)"/><path class="cls-1" d="M191.56,123.17c-4.35,0-7.75-1.46-7.75-3.34s3.4-3.34,7.75-3.34,7.74,1.47,7.74,3.34S195.9,123.17,191.56,123.17Zm0-6.07c-4.27,0-7.14,1.41-7.14,2.73s2.87,2.74,7.14,2.74,7.13-1.42,7.13-2.74S195.82,117.1,191.56,117.1Z" transform="translate(-47 -43)"/><path class="cls-1" d="M297.85,118a23.08,23.08,0,1,1,23.08-23.08A23.08,23.08,0,0,1,297.85,118Zm0-45.55a22.47,22.47,0,1,0,22.47,22.47,22.48,22.48,0,0,0-22.47-22.47Z" transform="translate(-47 -43)"/><path class="cls-1" d="M310,74.58a14.27,14.27,0,1,1,14.28-14.27A14.27,14.27,0,0,1,310,74.58Zm0-27.94a13.67,13.67,0,1,0,13.67,13.67h0A13.69,13.69,0,0,0,310,46.64Z" transform="translate(-47 -43)"/><path class="cls-1" d="M303.31,69.42c-1.7,0-3-2.53-3-5.77s1.33-5.77,3-5.77,3,2.54,3,5.77S305,69.42,303.31,69.42Zm0-10.93c-1.31,0-2.43,2.36-2.43,5.16s1.12,5.16,2.43,5.16,2.43-2.36,2.43-5.16S304.63,58.49,303.31,58.49Z" transform="translate(-47 -43)"/><path class="cls-1" d="M316.68,69.42c-1.71,0-3-2.53-3-5.77s1.33-5.77,3-5.77,3,2.54,3,5.77S318.38,69.42,316.68,69.42Zm0-10.93c-1.32,0-2.43,2.36-2.43,5.16s1.11,5.16,2.43,5.16,2.42-2.36,2.42-5.16S318,58.49,316.68,58.49Z" transform="translate(-47 -43)"/><path class="cls-1" d="M330.34,119.83a12.15,12.15,0,1,1,12.15-12.14A12.15,12.15,0,0,1,330.34,119.83Zm0-23.68a11.54,11.54,0,1,0,11.54,11.54h0A11.55,11.55,0,0,0,330.34,96.15Z" transform="translate(-47 -43)"/><path class="cls-1" d="M263.23,105.56a12.15,12.15,0,1,1,12.14-12.15A12.15,12.15,0,0,1,263.23,105.56Zm0-23.69a11.54,11.54,0,1,0,11.54,11.54h0a11.56,11.56,0,0,0-11.54-11.54Z" transform="translate(-47 -43)"/><path class="cls-1" d="M288.58,122.87c-4.34,0-7.74-1.47-7.74-3.34s3.4-3.34,7.74-3.34,7.75,1.47,7.75,3.34S292.93,122.87,288.58,122.87Zm0-6.07c-4.26,0-7.13,1.41-7.13,2.73s2.87,2.73,7.13,2.73,7.14-1.41,7.14-2.73S292.85,116.8,288.58,116.8Z" transform="translate(-47 -43)"/><path class="cls-2" d="M156.94,57.28c-9.5-10.07-30.41-6.13-30.62-6.09l-.12-.59c.22,0,21.45-4.05,31.18,6.26Z" transform="translate(-47 -43)"/><path class="cls-2" d="M159.36,60a18.15,18.15,0,0,0-5.45-2.35l2.92-.94,1.65-2.59A18.73,18.73,0,0,0,159.36,60Z" transform="translate(-47 -43)"/><path class="cls-2" d="M252.3,73.68c-9.5-10.07-30.41-6.13-30.62-6.09l-.12-.59c.22,0,21.45-4,31.18,6.26Z" transform="translate(-47 -43)"/><path class="cls-2" d="M254.72,76.41a18.15,18.15,0,0,0-5.45-2.35l2.92-.94,1.65-2.59A18.45,18.45,0,0,0,254.72,76.41Z" transform="translate(-47 -43)"/><path class="cls-3" d="M254,100.32s-6.43,0-7.15,3.93-1.78,46.8-1.07,52.16.72,4.29.72,4.29-1.43,10.18,1.78,10.63,3.22-11.7,3.22-11.7L254,116Z" transform="translate(-47 -43)"/><path class="cls-3" d="M281.86,100.32s6.43,0,7.14,3.93,1.79,46.8,1.07,52.16-.71,4.29-.71,4.29,1.42,10.18-1.79,10.63-3.21-11.7-3.21-11.7L281.86,116Z" transform="translate(-47 -43)"/><path class="cls-1" d="M252.92,249.66h-2.86a6.43,6.43,0,0,0-6.43,6.43h17.5v-8.22h-8.21Z" transform="translate(-47 -43)"/><path class="cls-1" d="M280.43,249.66h2.86a6.43,6.43,0,0,1,6.43,6.43H272.21v-8.22h8.22Z" transform="translate(-47 -43)"/><circle class="cls-3" cx="218.06" cy="39.81" r="9.29"/><path class="cls-3" d="M262.92,87.81s-1.07,11.79-2.5,12.86,15-.71,15-.71-5.72-8.57-4.65-11.43S262.92,87.81,262.92,87.81Z" transform="translate(-47 -43)"/><path class="cls-1" d="M284,100.32s-19.65-8.22-32.51,0c0,0-3.22,8.21-.72,12.86s6.43,15.72,2.5,23.22.36,4.29.36,4.29-5,20-5.71,35.73,2.14,72.17,4.28,72.52,8.93,1.08,9.65,0,5.72-75.74,5.72-75.74,2.14,76.46,4.28,76.46,7.86,0,8.93-1.79,10-70.74,6.79-85-5.36-21.44-5.36-21.44,3.93-2.5,2.86-3.93-6.43-16.79-3.93-19.29S284,100.32,284,100.32Z" transform="translate(-47 -43)"/><circle class="cls-1" cx="223.96" cy="34.21" r="15.01"/><path class="cls-1" d="M280.33,69.7A10.11,10.11,0,0,1,272.7,58l-.12.47a10.11,10.11,0,0,0,19.68,4.62c0-.16.07-.31.1-.47A10.11,10.11,0,0,1,280.33,69.7Z" transform="translate(-47 -43)"/><circle class="cls-1" cx="233.94" cy="21.31" r="7.34"/><rect class="cls-1" x="146.53" y="212.43" width="131.8" height="0.61"/></svg>