<svg id="Layer_1" data-name="Layer 1" xmlns="http://www.w3.org/2000/svg" xmlns:xlink="http://www.w3.org/1999/xlink" viewBox="0 0 298 221.49"><defs><style>.cls-1,.cls-3{fill:#6c63ff;}.cls-1,.cls-9{opacity:0.1;isolation:isolate;}.cls-2{opacity:0.8;}.cls-4{fill:#444053;}.cls-5,.cls-6{fill:none;stroke:#444053;stroke-miterlimit:10;}.cls-6{stroke-width:0.75px;}.cls-7{fill:url(#linear-gradient);}.cls-8{fill:#fbbebe;}.cls-10{fill:#3f3d56;}</style><linearGradient id="linear-gradient" x1="224.72" y1="-31.56" x2="224.72" y2="145.73" gradientTransform="matrix(1, 0, 0, -1, -95.23, 227.2)" gradientUnits="userSpaceOnUse"><stop offset="0" stop-color="gray" stop-opacity="0.25"/><stop offset="0.54" stop-color="gray" stop-opacity="0.12"/><stop offset="1" stop-color="gray" stop-opacity="0.1"/></linearGradient></defs><title>how-1</title><path class="cls-1" d="M224.14,69.94c-19.11-.49-37.3-5.08-54.68-10.09s-34.58-10.57-53.23-13.23c-12-1.71-25.71-1.95-35.37,2.83C71.56,54,68.55,62,66.94,69.35c-1.22,5.54-1.93,11.37,1.4,16.56,2.31,3.6,6.42,6.62,9.26,10.07,9.88,12,2.89,26.8-7.81,38.52-5,5.5-10.85,10.74-14.73,16.59s-5.66,12.56-2.27,18.53,11.37,10.36,20,13.48c17.62,6.35,38.38,8.17,58.63,9.2,44.82,2.28,89.87,1.29,134.81.29,16.63-.36,33.33-.73,49.69-2.65,9.09-1.06,18.46-2.75,25.06-6.81,8.37-5.16,10.45-13.9,4.84-20.37-9.41-10.85-35.43-13.55-42-25.2-3.62-6.41.1-13.55,5.36-19.5,11.29-12.76,30.21-24,31.2-38.53.68-10-8.41-20-22.47-24.78-14.74-5-35.18-4.34-46.05,3.88C260.69,67.1,241,70.36,224.14,69.94Z" transform="translate(-51 -38.9)"/><g class="cls-2"><path class="cls-3" d="M328.11,91.66s-3.33-1.35-13.92,3.51-11.92,4.24-14.66,3.49-4.27-.92-7.21-5c0,0-2.07-11.24-4.08-13s-10.53,1-10.53,1-10.22,2.35-12.18-11.32c0,0,1.38-10.29-.5-13.46,0,0,3.8,1.64,10.07-1s11.29,2.85,11.29,2.85,1.58,4.09,1.41,6.53.84,3.36,3.84,2.18c0,0,1.48-2.09-.61-5.54s-3.56-6-3-8.72,2.25-6.39,7.61-8.26,12.65-2.21,16.15-3.65,4.34-2.41,4.34-2.41-2.15,2.16,2.92,11.3,1.84,13.11,1.84,13.11-2.7,6.42-14.61,5.9c0,0-11.47.42-5.21,5.28,0,0,4-.81,10-2.72s10.31,6,11.39,11.43A14.33,14.33,0,0,0,328.11,91.66Z" transform="translate(-51 -38.9)"/><path class="cls-4" d="M312.69,45.82l.06,0c.46,1.75-4.67,8.75-9.05,14.33l-.05,0C309.83,52.23,313.06,47.16,312.69,45.82Z" transform="translate(-51 -38.9)"/><path class="cls-4" d="M303.74,60l0,.07c-3.51,4.46-7.91,9.77-11.43,13.7-.34.38-.67.77-1,1.18l-.11-.08c.33-.4.66-.8,1-1.18C295.76,69.72,300.24,64.42,303.74,60Z" transform="translate(-51 -38.9)"/><path class="cls-4" d="M291.33,74.73l.07.11c-6.41,8-6.84,20.45-6.85,20.56l-1.36-1.55C283.21,93.72,284.87,82.79,291.33,74.73Z" transform="translate(-51 -38.9)"/><path class="cls-5" d="M320.67,87.32s-7.56-3.94-13.45-2.52-19.17-5-19.17-5-5.63-2.29-6.77-4.9c0,0-3.86-4.09-4.08-6.2s-4-7.44-6.44-7.63" transform="translate(-51 -38.9)"/><path class="cls-5" d="M319.58,91.1s-3.81-2.56-3.37-5.56" transform="translate(-51 -38.9)"/><path class="cls-5" d="M313.74,94.42s-5.45-2-6-9.75" transform="translate(-51 -38.9)"/><path class="cls-5" d="M305,96.42a12.18,12.18,0,0,1-3.48-11.86" transform="translate(-51 -38.9)"/><path class="cls-5" d="M294.38,94.31s-3.46-7.27-.38-12" transform="translate(-51 -38.9)"/><path class="cls-5" d="M320.76,82.52s-3.94,1.25-3.09,3.33" transform="translate(-51 -38.9)"/><path class="cls-5" d="M316,75.37s-5.27,1.67-5.4,9.13" transform="translate(-51 -38.9)"/><path class="cls-5" d="M308.66,73.65s-4.8,5.92-4.46,11.3" transform="translate(-51 -38.9)"/><path class="cls-5" d="M300.26,76s-4.77,4.56-4.16,7.09" transform="translate(-51 -38.9)"/><path class="cls-5" d="M297.38,74.37s-4.47.8-5.09-.67" transform="translate(-51 -38.9)"/><path class="cls-5" d="M291.57,69s2.26,3,2.84,2.32" transform="translate(-51 -38.9)"/><path class="cls-5" d="M314,67.08s-11.27.82-13.82-2.58" transform="translate(-51 -38.9)"/><path class="cls-5" d="M289.2,53.9s5.29,11.35,9.13,12.79" transform="translate(-51 -38.9)"/><path class="cls-5" d="M294.75,48.5S298,58.93,302,62.19" transform="translate(-51 -38.9)"/><path class="cls-6" d="M318.7,58.47s-8.56,3.67-13.71,0" transform="translate(-51 -38.9)"/><path class="cls-6" d="M302.38,46.27s2,7.68,4.59,9.53" transform="translate(-51 -38.9)"/><path class="cls-6" d="M317.4,49.87s-4.81,1.82-6.61.42" transform="translate(-51 -38.9)"/><path class="cls-5" d="M287.45,71.48s0,6.68-1.82,7.16" transform="translate(-51 -38.9)"/><path class="cls-5" d="M272.57,80.14s7.23.62,10.56-3.11" transform="translate(-51 -38.9)"/><path class="cls-5" d="M285.59,63.58s-1.75,6.79-6.58,8.6" transform="translate(-51 -38.9)"/><path class="cls-5" d="M268.23,73a9.49,9.49,0,0,0,9.52-2.75" transform="translate(-51 -38.9)"/><path class="cls-5" d="M279.9,57.75s-.49,5.76-3.62,8.45" transform="translate(-51 -38.9)"/><path class="cls-5" d="M268.43,64.22s4.24,0,5.24-1.35" transform="translate(-51 -38.9)"/></g><ellipse class="cls-1" cx="77.6" cy="216.92" rx="64.35" ry="4.58"/><path class="cls-7" d="M165.87,230.9c.89-1.59,1.95-3.09,2.8-4.7s1.4-3,2.1-4.56c1.21-2.59,2.7-5,4-7.58a9.74,9.74,0,0,0,1.57-5.33c-.16-1.77-1.2-3.3-1.6-5-1.64-7-5.57-13.48-8-20.28-.61-1.72-1.21-3.45-2-5.12a53.53,53.53,0,0,0-5.61-8.93,23.8,23.8,0,0,0-2.48-3.09c-.74-.74-1.57-1.39-2.24-2.19-1.39-1.66-2-4-3.78-5.32a2.18,2.18,0,0,1-.09.23c-1.24-3.17-5.41-5.27-7.83-7.9a44.59,44.59,0,0,1-3.87-5.09l-5.27-7.6a12.79,12.79,0,0,1-2.19-4.22c-.45-1.89,0-3.89-.48-5.78a7.14,7.14,0,0,0-1.61-3l.16-.05c1-.27,2.07-.32,3.06-.56,2.17-.51,4.06-1.9,6.22-2.46a15,15,0,0,0,3.28-.88,2.72,2.72,0,0,0,1.27-2.9c-.7-3.7,1.25-7.46.92-11.22-.09-1-.35-2-.52-3.08a32.7,32.7,0,0,1-.19-7.27A16.12,16.12,0,0,1,146,94c1.33-1.28,2.91-2.36,3.84-4a7.73,7.73,0,0,0,.79-4.76,4.57,4.57,0,0,0-1.47-3.14,3.72,3.72,0,0,0-3.39-.4c-.16,0-.31.12-.46.18a3.9,3.9,0,0,0-3.05-.18,9.41,9.41,0,0,0-3,1.89,6.68,6.68,0,0,0-1.39,1.47,8.67,8.67,0,0,0-.95,3,29.49,29.49,0,0,1-2,5.85c-.16.33-.59.92-.94,1.49l-.63-.13c-.27,2.63-2.47,4.56-3.81,6.83-.66,1.1-1.11,2.31-1.7,3.45a33.29,33.29,0,0,1-2.24,3.6q-1.2,1.77-2.4,3.51a51.17,51.17,0,0,1-3.24,4.39c-1.09-.09-2.17-.17-3.25-.19a27.19,27.19,0,0,0-5.4.48,14.76,14.76,0,0,1-.2-1.89v-.11c0-.16,0-.34,0-.54a10.93,10.93,0,0,0-.52-18.48,6.65,6.65,0,0,0,.11-1v-.59a1.51,1.51,0,0,0,0-.3,4,4,0,0,0-.1-.59c0-.09,0-.19-.08-.29a2.35,2.35,0,0,0-.25-.53s0,0,0,0a2,2,0,0,0-.12-.19s0,0,0-.07l-.11-.12-.07-.08a.94.94,0,0,0-.1-.1l-.08-.07-.11-.1-.09-.07-.11-.08-.1-.06-.11-.07a.41.41,0,0,0-.11-.07l-.11-.06-.11-.06-.11,0-.13-.06-.11,0-.14-.06-.1,0-.16,0-.09,0-.17,0-.08,0-.18-.05-.07,0-.19,0-.06,0-.21,0h0l-.31-.06q-1.94-.41-3.9-.69a8.78,8.78,0,0,0-3.23-.06c-1.45.33-2.67,1.31-4,1.92a27.31,27.31,0,0,1-5.12,1.32,7.79,7.79,0,0,0-4.57,2.49,8.61,8.61,0,0,0-1.39,3.77c-2,11.11.16,22.51.58,33.8.16,4.4,0,9.1-2.53,12.7l7.25-.2c.35,0,.7,0,1.06,0s.71,0,1-.09a6.91,6.91,0,0,0,2.63-.78,4.74,4.74,0,0,0,1-.8,10.21,10.21,0,0,0,2-3.79c.16-.46.33-.92.47-1.39.06-.2.12-.39.17-.59l0-.1.08,0a18.15,18.15,0,0,0,1,1.63,35,35,0,0,0,4.46,5c3.17,3.14,6.41,6.34,10.38,8.36a12.47,12.47,0,0,1,3.81,2.37c.5.54.93,1.23,1.65,1.41.44.12.93,0,1.35.19.62.26.84,1,1.13,1.62s.93,1.24,1.55,1a3.08,3.08,0,0,0,1.16,3.08,2.29,2.29,0,0,1,.74.68,2.37,2.37,0,0,1,.16.79,3.07,3.07,0,0,0,1.12,1.91c-.58,1-.12,2.32-.1,3.51a12.85,12.85,0,0,1-.56,2.93,21.69,21.69,0,0,0,.24,8.71,9.53,9.53,0,0,0,1.7,4.45c.34.4.74.75,1.1,1.13a10.9,10.9,0,0,1,1.66,2.54,19.76,19.76,0,0,1,1.81,5.8,10.56,10.56,0,0,0,.86,2.92c.65,1.42.06,3.15.63,4.59a13,13,0,0,1,.91,1.88c.22,1-.3,2-.44,3-.33,2.35,1.36,4.52,1.51,6.88a.51.51,0,0,1-.08.4c-.12.13-.31.13-.47.2s-.37.54-.47.87-.36.71-.69.61c-4.85,2.59-9.87,5-14.72,7.59l-2.21,1.18-11.84,6.32a.86.86,0,0,0-.48.78c0,.14,0,.29,0,.42-.83.21-1.62.46-2.19.56l-.7.14a.77.77,0,0,0,.11-.3.59.59,0,0,0-.52-.59,2,2,0,0,0-.86.12,12.89,12.89,0,0,1-2.06.38,14.61,14.61,0,0,0-2.48.29,2.85,2.85,0,0,0-1.92,1.48,3.64,3.64,0,0,0-.21,1.39,21.49,21.49,0,0,0,.64,5.42.47.47,0,0,0,.22.34c.1,0,.23,0,.33,0a.41.41,0,0,1,.19.24,12,12,0,0,1,.74,3.61q.3,2.73.75,5.45a6.1,6.1,0,0,0,1.08,3,4.89,4.89,0,0,0,3.11,1.44,21.76,21.76,0,0,0,7.3-.67,2.16,2.16,0,0,0,1.23-.56,1.39,1.39,0,0,0,.29-1c0-1.21-1.16-2.07-2.16-2.75l-1.37-.95a.59.59,0,0,1-.3-.66l.09-1.8h-.26a6.4,6.4,0,0,1,1.7-3.34c.64-.59,1.47-1,2.14-1.54a5.3,5.3,0,0,0,3,1.09c1.77-2.38,4.26-4,6.76-5.6a67.42,67.42,0,0,1,6.27-3.51c1.74-.86,3.52-1.67,5.31-2.42,2.54-1.07,5.13-2,7.72-3a30.88,30.88,0,0,0,5.06-2.15c4.13-2.39,7.05-7.15,6.49-11.93-.7-6,.8-12.29.7-18.36a18.14,18.14,0,0,0-.63-5.24,3.27,3.27,0,0,1,.35.3c1.07,1,1.33,2.6,2.36,3.74.8.9,2,1.48,2.5,2.58.37.84.32,2,1.09,2.46.22.14.48.2.69.33a2.28,2.28,0,0,1,.65.7,7.78,7.78,0,0,1,1.75,3.84c0,.56,0,1.22.4,1.6.12.11.27.18.33.33s-.21.61-.27.94.36.8.64,1.18a1.85,1.85,0,0,1,0,2.19c-2.42,3.14-2.86,7.38-5,10.74-.73,1.16-1.55,2.26-2.26,3.43-2.18,3.61-3.28,7.75-4.34,11.84a6.48,6.48,0,0,0,1.81,2,10,10,0,0,1-2,3.73,10.72,10.72,0,0,0-.67.84,1.64,1.64,0,0,0-.66-.5,23.69,23.69,0,0,0-.59,5.17c0,1.14.16,2.45,1.09,3.11a3.57,3.57,0,0,0,1.21.5l2,.59a2,2,0,0,0,1.12.11c.24-.07.45-.21.7-.26a1.74,1.74,0,0,1,.78.1l1.75.51a13.15,13.15,0,0,1,1.73.61c.5.24,1,.55,1.45.82a17.94,17.94,0,0,0,2.53,1l3,1a11.28,11.28,0,0,0,2.61.68c.62.05,1.25,0,1.86.1s.92.25,1.39.3a3.66,3.66,0,0,0,2.18-.65,2.06,2.06,0,0,0,.64-.57,2.27,2.27,0,0,0-.37-2.3,9.17,9.17,0,0,0-3.12-3.25c-.54-.29-1.12-.51-1.67-.78-1.57-.77-2.75-2.05-4.24-2.93a1,1,0,0,0-1.27.09,8.67,8.67,0,0,1-3.25-2.89,6.62,6.62,0,0,1-.59-2c.7.17,1.4.3,2.1.41A54.47,54.47,0,0,1,165.87,230.9ZM137.51,105c-.06.33-.12.66-.19,1-.59,2.78-1.44,5.88-3.37,7.94a7.15,7.15,0,0,1-2.17,1.44l-.22.11A47.31,47.31,0,0,1,137.51,105Z" transform="translate(-51 -38.9)"/><path class="cls-8" d="M140.37,88.57a8.85,8.85,0,0,1,.95-3,6.78,6.78,0,0,1,1.4-1.48,9.35,9.35,0,0,1,3-1.87,3.77,3.77,0,0,1,3.4.39,4.56,4.56,0,0,1,1.49,3.12,7.7,7.7,0,0,1-.8,4.73c-.92,1.59-2.51,2.65-3.84,3.93a15.3,15.3,0,0,0-2.5,3.12,9.12,9.12,0,0,1-1.14,1.67,2.18,2.18,0,0,1-1.81.72A3.22,3.22,0,0,1,139,99c-.54-.47-2-1.33-2.06-2.08s1.11-2,1.39-2.59A29,29,0,0,0,140.37,88.57Z" transform="translate(-51 -38.9)"/><path class="cls-9" d="M140.37,88.57a8.85,8.85,0,0,1,.95-3,6.78,6.78,0,0,1,1.4-1.48,9.35,9.35,0,0,1,3-1.87,3.77,3.77,0,0,1,3.4.39,4.56,4.56,0,0,1,1.49,3.12,7.7,7.7,0,0,1-.8,4.73c-.92,1.59-2.51,2.65-3.84,3.93a15.3,15.3,0,0,0-2.5,3.12,9.12,9.12,0,0,1-1.14,1.67,2.18,2.18,0,0,1-1.81.72A3.22,3.22,0,0,1,139,99c-.54-.47-2-1.33-2.06-2.08s1.11-2,1.39-2.59A29,29,0,0,0,140.37,88.57Z" transform="translate(-51 -38.9)"/><path class="cls-3" d="M109.38,118.07a26,26,0,0,1,7.25-.88c4.08.06,8.28,1,12.17-.21a21.6,21.6,0,0,0,2.92-1.26,7.62,7.62,0,0,0,2.18-1.43c1.93-2.05,2.77-5.14,3.37-7.89a52.4,52.4,0,0,0,.92-8.4,6.36,6.36,0,0,0,3.18.84,2.29,2.29,0,0,0,2.22-2.06,34.08,34.08,0,0,0,.15,7.82c.17,1,.44,2,.53,3.06.33,3.73-1.63,7.46-.93,11.14a2.7,2.7,0,0,1-1.27,2.88,13.88,13.88,0,0,1-3.29.88c-2.16.55-4.05,1.93-6.22,2.44-1,.24-2.07.3-3.07.55-1.43.38-2.73,1.2-4.19,1.46-1.1.2-2.23.06-3.33.16s-1.91.33-2.88.36a8.26,8.26,0,0,1-6.16-3.06C111.36,122.7,110.36,120.22,109.38,118.07Z" transform="translate(-51 -38.9)"/><path class="cls-9" d="M109.38,118.07a26,26,0,0,1,7.25-.88c4.08.06,8.28,1,12.17-.21a21.6,21.6,0,0,0,2.92-1.26,7.62,7.62,0,0,0,2.18-1.43c1.93-2.05,2.77-5.14,3.37-7.89a52.4,52.4,0,0,0,.92-8.4,6.36,6.36,0,0,0,3.18.84,2.29,2.29,0,0,0,2.22-2.06,34.08,34.08,0,0,0,.15,7.82c.17,1,.44,2,.53,3.06.33,3.73-1.63,7.46-.93,11.14a2.7,2.7,0,0,1-1.27,2.88,13.88,13.88,0,0,1-3.29.88c-2.16.55-4.05,1.93-6.22,2.44-1,.24-2.07.3-3.07.55-1.43.38-2.73,1.2-4.19,1.46-1.1.2-2.23.06-3.33.16s-1.91.33-2.88.36a8.26,8.26,0,0,1-6.16-3.06C111.36,122.7,110.36,120.22,109.38,118.07Z" transform="translate(-51 -38.9)"/><path class="cls-10" d="M215.53,121.7A20.32,20.32,0,1,1,195.21,142h0a20.33,20.33,0,0,1,20.32-20.32m0-5A25.34,25.34,0,1,0,240.87,142h0A25.37,25.37,0,0,0,215.53,116.68Z" transform="translate(-51 -38.9)"/><rect class="cls-10" x="160.79" y="71.85" width="5.94" height="6.25"/><rect class="cls-10" x="226.12" y="114.53" width="6.25" height="5.94" transform="translate(-40.53 214.59) rotate(-59)"/><rect class="cls-10" x="236.55" y="124.67" width="6.25" height="5.94" transform="translate(-82.83 93.3) rotate(-29)"/><rect class="cls-10" x="236.84" y="153.04" width="5.94" height="6.25" transform="matrix(0.53, -0.85, 0.85, 0.53, -70.7, 237.88)"/><rect class="cls-10" x="188.43" y="124.51" width="5.94" height="6.25" transform="translate(-64.02 194.26) rotate(-61)"/><rect class="cls-10" x="188.13" y="153.19" width="6.25" height="5.94" transform="translate(-104.69 86.18) rotate(-32)"/><rect class="cls-10" x="198.85" y="114.37" width="5.94" height="6.25" transform="translate(-82.69 81.83) rotate(-31)"/><rect class="cls-10" x="160.79" y="128.13" width="5.94" height="6.25"/><rect class="cls-10" x="226.28" y="163.41" width="5.94" height="6.25" transform="translate(-104.02 102.96) rotate(-31)"/><rect class="cls-10" x="198.69" y="163.57" width="6.25" height="5.94" transform="translate(-95.87 214.86) rotate(-59)"/><rect class="cls-10" x="132.65" y="100.62" width="7.19" height="5.31"/><rect class="cls-10" x="189.23" y="100.62" width="7.19" height="5.31"/><path class="cls-10" d="M262.74,85.12a20.32,20.32,0,1,1-20.32,20.32h0a20.32,20.32,0,0,1,20.32-20.32m0-5a25.34,25.34,0,1,0,25.34,25.34h0A25.37,25.37,0,0,0,262.74,80.1Z" transform="translate(-51 -38.9)"/><rect class="cls-10" x="207.99" y="35.28" width="5.94" height="6.25"/><rect class="cls-10" x="273.33" y="77.95" width="6.25" height="5.94" transform="translate(13.71 237.32) rotate(-59)"/><rect class="cls-10" x="283.75" y="88.09" width="6.25" height="5.94" transform="translate(-59.17 111.6) rotate(-29)"/><rect class="cls-10" x="284.05" y="116.46" width="5.94" height="6.25" transform="translate(-17.49 260.72) rotate(-58)"/><rect class="cls-10" x="235.63" y="87.94" width="5.94" height="6.25" transform="translate(-7.72 216.7) rotate(-61)"/><rect class="cls-10" x="235.34" y="116.61" width="6.25" height="5.94" transform="translate(-78.13 105.64) rotate(-32)"/><rect class="cls-10" x="246.05" y="77.79" width="5.94" height="6.25" transform="translate(-57.1 100.92) rotate(-31)"/><rect class="cls-10" x="207.99" y="91.55" width="5.94" height="6.25"/><rect class="cls-10" x="273.49" y="126.84" width="5.94" height="6.25" transform="translate(-78.44 122.05) rotate(-31)"/><rect class="cls-10" x="245.9" y="126.99" width="6.25" height="5.94" transform="translate(-41.63 237.58) rotate(-59)"/><rect class="cls-10" x="179.86" y="64.04" width="7.19" height="5.31"/><rect class="cls-10" x="236.44" y="64.04" width="7.19" height="5.31"/><path class="cls-10" d="M168.32,83.56H169a20.32,20.32,0,0,1-.69,40.63h-.72a20.32,20.32,0,0,1,.7-40.63m0-5h0a25.34,25.34,0,0,0-.87,50.66l.88,0a25.34,25.34,0,0,0,.87-50.67h-.88Z" transform="translate(-51 -38.9)"/><rect class="cls-10" x="165.39" y="72.77" width="6.25" height="5.94" transform="translate(35.98 202.63) rotate(-88.01)"/><rect class="cls-10" x="179.76" y="76.88" width="6.25" height="5.94" transform="translate(-34.67 150.87) rotate(-57.01)"/><rect class="cls-10" x="189.82" y="87.38" width="6.25" height="5.94" transform="translate(-70.98 58.58) rotate(-27.01)"/><rect class="cls-10" x="189.13" y="115.72" width="5.94" height="6.25" transform="translate(-64.83 172.78) rotate(-56.01)"/><rect class="cls-10" x="141.73" y="85.54" width="5.94" height="6.25" transform="translate(-56.81 128.16) rotate(-59.01)"/><rect class="cls-10" x="140.01" y="114.66" width="6.27" height="5.96" transform="translate(-90.58 48.07) rotate(-29.89)"/><rect class="cls-10" x="152.5" y="75.77" width="5.94" height="6.25" transform="translate(-69.75 46.4) rotate(-29.01)"/><rect class="cls-10" x="163.44" y="129" width="6.25" height="5.94" transform="translate(-22.1 254.96) rotate(-88.01)"/><rect class="cls-10" x="178.22" y="125.74" width="5.94" height="6.25" transform="translate(-90.76 65.14) rotate(-29.01)"/><rect class="cls-10" x="150.65" y="124.94" width="6.25" height="5.94" transform="translate(-88.23 148.34) rotate(-57.01)"/><rect class="cls-10" x="137.39" y="99.46" width="5.31" height="7.19" transform="translate(-18.8 200.54) rotate(-88.01)"/><rect class="cls-10" x="193.94" y="101.42" width="5.31" height="7.19" transform="translate(33.83 258.95) rotate(-88.01)"/><path class="cls-8" d="M102.88,233.45a5.92,5.92,0,0,0-2.09.65A4.89,4.89,0,0,0,99,236.55a21.22,21.22,0,0,0-1.22,7.68,16.45,16.45,0,0,0,.78,6.21,4,4,0,0,0,1,1.63,3.76,3.76,0,0,0,1.42.69,3.93,3.93,0,0,0,3.34-.41c1-.8,1.28-2.21,1.5-3.49.29-1.72.7-3.54,2-4.74,1-.89,2.31-1.33,3-2.43.82-1.3.39-3-.14-4.46-.46-1.26-1.13-3.81-2.44-4.45S104.25,233.2,102.88,233.45Z" transform="translate(-51 -38.9)"/><path class="cls-8" d="M151.43,239.63a9.89,9.89,0,0,1-2.06,3.81c-.6.67-1.32,1.49-1,2.33a2.2,2.2,0,0,0,.55.73c4.33,4.24,10.38,6.3,16.39,7.05a.71.71,0,0,0,.29,0c.18-.08.22-.3.25-.5a6.58,6.58,0,0,0,0-1.88c-.3-1.48-1.58-2.5-2.84-3.31a8.93,8.93,0,0,1-3.34-2.92c-.88-1.64-.5-3.78-1.54-5.31a5.66,5.66,0,0,0-3.9-2c-.52-.08-1.62-.64-2.07-.38S151.59,239.12,151.43,239.63Z" transform="translate(-51 -38.9)"/><path class="cls-10" d="M102.29,233.29a.59.59,0,0,0-.52-.59,1.89,1.89,0,0,0-.85.11,13.23,13.23,0,0,1-2.07.38,15.7,15.7,0,0,0-2.48.29A2.78,2.78,0,0,0,94.45,235a3.6,3.6,0,0,0-.22,1.38,21.19,21.19,0,0,0,.65,5.38.42.42,0,0,0,.22.34c.1.05.22,0,.33.05a.5.5,0,0,1,.19.24,11.72,11.72,0,0,1,.74,3.59q.3,2.72.75,5.41a5.94,5.94,0,0,0,1.09,3,4.78,4.78,0,0,0,3.11,1.42,21.75,21.75,0,0,0,7.3-.66,2.14,2.14,0,0,0,1.24-.56,1.35,1.35,0,0,0,.29-1c-.06-1.21-1.16-2.07-2.17-2.73l-1.38-.93a.72.72,0,0,1-.24-.22.84.84,0,0,1-.07-.44l.09-1.77a5.07,5.07,0,0,0-4.43,2.75c-.19.38-.37.82-.77,1a1,1,0,0,1-1.2-.73,3.17,3.17,0,0,1,0-1.56c.81-4.33.62-8.79,1.11-13.17a3,3,0,0,1,.44-1.38C101.8,234,102.25,233.7,102.29,233.29Z" transform="translate(-51 -38.9)"/><path class="cls-10" d="M162.58,250.09c.2.34.52.59.71.94a.8.8,0,0,1-.15,1.06,1.08,1.08,0,0,1-.64.06,21.59,21.59,0,0,1-11.67-5.28,8.16,8.16,0,0,1-1.43-1.56c-.38-.59-.7-1.29-1.35-1.53a22.68,22.68,0,0,0-.59,5.13c0,1.14.15,2.44,1.08,3.09a4,4,0,0,0,1.21.5l2,.57a2.26,2.26,0,0,0,1.12.11,6.61,6.61,0,0,1,.7-.26,1.63,1.63,0,0,1,.79.1l1.75.51a11.76,11.76,0,0,1,1.73.59c.5.24,1,.55,1.45.81a18,18,0,0,0,2.54,1l3.08,1.07a10.73,10.73,0,0,0,2.62.67c.62.05,1.25,0,1.86.11s.92.25,1.39.29a3.7,3.7,0,0,0,2.19-.64,2,2,0,0,0,.63-.57c.45-.69.06-1.59-.37-2.29a9,9,0,0,0-3.12-3.21c-.54-.3-1.12-.51-1.67-.78-1.57-.76-2.76-2-4.25-2.91S161.92,249,162.58,250.09Z" transform="translate(-51 -38.9)"/><path class="cls-8" d="M119.3,126a12.72,12.72,0,0,1-5.45,2.12,21.26,21.26,0,0,1-3.09.17,78.87,78.87,0,0,1-12.83-1.07c1.69-1.86,3.4-3.84,4-6.28a10.4,10.4,0,0,0,.19-3.93,30,30,0,0,0-1.2-5,33.82,33.82,0,0,0,5.42-.14c1-.1,3.55-1,4.43-.33s.2,3,.19,4.06v.12a13.11,13.11,0,0,0,1,4.74A9,9,0,0,0,119.3,126Z" transform="translate(-51 -38.9)"/><path class="cls-9" d="M111,115.66a10.8,10.8,0,0,1-8.85,1.35,30.26,30.26,0,0,0-1.2-5,33.82,33.82,0,0,0,5.42-.13c1-.11,3.54-1,4.43-.33S111,114.58,111,115.66Z" transform="translate(-51 -38.9)"/><circle class="cls-8" cx="54.1" cy="67.21" r="10.8"/><path class="cls-3" d="M150.94,160.78a5,5,0,0,1-2.44,4.34,9.89,9.89,0,0,1-2.66.93c-4.94,1.18-10,2.15-15.07,1.86a8.09,8.09,0,0,1-3.2-.68,3.42,3.42,0,0,1-2-2.46,2.37,2.37,0,0,0-.16-.79,2.31,2.31,0,0,0-.75-.67,3,3,0,0,1-1.13-3c-.62.27-1.27-.35-1.55-1s-.52-1.35-1.14-1.61a9.9,9.9,0,0,0-1.36-.19c-.71-.18-1.14-.88-1.64-1.41a12.93,12.93,0,0,0-3.82-2.33c-4-2-7.22-5.18-10.39-8.31a33.72,33.72,0,0,1-4.47-5c-.36-.53-.68-1.06-1-1.62a45.1,45.1,0,0,1-2.49-5.7,6.48,6.48,0,0,1-.64-3.24c0-.1,0-.2.06-.3a6.21,6.21,0,0,1,1-2,8.32,8.32,0,0,1,4.43-3.64c1.89-.49,3.77.11,5.69.51a15.79,15.79,0,0,0,1.93.3,18,18,0,0,0,6-1l2.14-.59c1.07-.29,1.61-1.59,2.7-1.82a3.73,3.73,0,0,1,1.45.08,19.87,19.87,0,0,1,6.37,2.08,10.38,10.38,0,0,1,1.24.84,7.82,7.82,0,0,1,2.87,4.25c.45,1.86,0,3.86.48,5.73a12.58,12.58,0,0,0,2.2,4.19l5.27,7.53a45.6,45.6,0,0,0,3.89,5.06C145.6,154.26,150.86,156.59,150.94,160.78Z" transform="translate(-51 -38.9)"/><path class="cls-8" d="M136.85,88.57a8.85,8.85,0,0,1,1-3,6.78,6.78,0,0,1,1.4-1.48,9.24,9.24,0,0,1,3-1.87,3.75,3.75,0,0,1,3.39.39,4.52,4.52,0,0,1,1.49,3.12,7.7,7.7,0,0,1-.8,4.73c-.91,1.59-2.5,2.65-3.84,3.93a16,16,0,0,0-2.5,3.12,8.22,8.22,0,0,1-1.14,1.67,2.15,2.15,0,0,1-1.8.72,3.17,3.17,0,0,1-1.48-.87c-.55-.47-2-1.33-2.07-2.08s1.12-2,1.4-2.59A29.63,29.63,0,0,0,136.85,88.57Z" transform="translate(-51 -38.9)"/><path class="cls-10" d="M174.82,213.72c-1.36,2.5-2.85,4.94-4.06,7.52-.7,1.51-1.31,3.06-2.1,4.53s-1.91,3.09-2.8,4.67c-2.25,4-3.51,8.49-4.67,12.92a25.83,25.83,0,0,1-9.2-3.25,6.49,6.49,0,0,1-.55-.36,6.6,6.6,0,0,1-1.86-2c1.08-4.06,2.18-8.18,4.36-11.76.71-1.18,1.52-2.25,2.26-3.41,2.12-3.33,2.56-7.54,5-10.66a1.86,1.86,0,0,0,0-2.18c-.28-.36-.73-.7-.64-1.15s.4-.63.27-.93-.22-.23-.33-.34c-.42-.38-.36-1-.4-1.59a7.72,7.72,0,0,0-1.77-3.81,2.38,2.38,0,0,0-.65-.69c-.22-.14-.48-.19-.69-.33-.78-.48-.72-1.61-1.09-2.45-.49-1.1-1.71-1.66-2.51-2.55-1-1.14-1.27-2.73-2.36-3.72a2.52,2.52,0,0,0-.35-.3,18.2,18.2,0,0,1,.63,5.21c.1,6-1.4,12.25-.7,18.23.56,4.74-2.36,9.48-6.51,11.85a30.43,30.43,0,0,1-5.06,2.13c-2.6.92-5.18,1.87-7.73,2.93-1.79.74-3.57,1.55-5.31,2.41a66.21,66.21,0,0,0-6.28,3.47c-2.5,1.59-5,3.21-6.77,5.58a6.07,6.07,0,0,1-4.37-2.41,16.56,16.56,0,0,1-2.4-4.53,12.64,12.64,0,0,1-1.13-4.27.83.83,0,0,1,.51-.74l11.86-6.28,2.21-1.18c4.86-2.58,9.89-5,14.74-7.54.33.1.6-.27.69-.59s.17-.72.48-.86c.15-.08.35-.07.46-.2a.57.57,0,0,0,.09-.4c-.16-2.36-1.85-4.5-1.51-6.83.14-1,.65-2,.43-2.95a13.38,13.38,0,0,0-.9-1.87c-.59-1.43,0-3.15-.64-4.55a11.06,11.06,0,0,1-.86-2.91,19.52,19.52,0,0,0-1.81-5.76,10.51,10.51,0,0,0-1.67-2.52c-.35-.38-.76-.73-1.1-1.12a9.39,9.39,0,0,1-1.7-4.43,21.58,21.58,0,0,1-.24-8.65,12.17,12.17,0,0,0,.56-2.91c0-1.3-.59-2.83.32-3.77a2.9,2.9,0,0,1,1.32-.69,41.11,41.11,0,0,1,6.43-1.18l9.91-1.29a9.05,9.05,0,0,0,3.29-.86,6.63,6.63,0,0,0,2.78-3.54c1.74,1.27,2.39,3.63,3.78,5.27.67.8,1.51,1.44,2.25,2.18a24.21,24.21,0,0,1,2.48,3.06,53.76,53.76,0,0,1,5.61,8.88c.77,1.65,1.37,3.37,2,5.09,2.42,6.75,6.36,13.16,8,20.14.41,1.7,1.45,3.24,1.61,5A9.56,9.56,0,0,1,174.82,213.72Z" transform="translate(-51 -38.9)"/><path class="cls-9" d="M123,157.65a3.09,3.09,0,0,0-.36,1.46c.22-1.09,1.72-1.7,1.82-2.78,0-.5,0-.47-.35-.21C123.59,156.52,123.39,157.22,123,157.65Z" transform="translate(-51 -38.9)"/><path class="cls-9" d="M127.53,161a2.21,2.21,0,0,0-.68,1,2.51,2.51,0,0,0-.14,1.77c.22-.1.29-.38.36-.61a4.5,4.5,0,0,1,.47-1c.18-.29,1-1,1-1.26C128.52,160.35,127.75,160.8,127.53,161Z" transform="translate(-51 -38.9)"/><path class="cls-9" d="M128.06,124.4a11.28,11.28,0,0,1-2.28,1.51c-2.14,1.09-4.51,1.66-6.66,2.71a33,33,0,0,0-3.1,1.81l-6.4,4a6.77,6.77,0,0,0-1.41,1.08c-.77.82-.77,2.26-1.48,3.14a4.32,4.32,0,0,1-3.11,1.43,10,10,0,0,1-3.46-.59,18.06,18.06,0,0,1-2-.72,9.4,9.4,0,0,1-1.9-1.08A5.5,5.5,0,0,1,94,134.19a7.23,7.23,0,0,1,.38-2.88,11,11,0,0,1,.69-1.75,6.52,6.52,0,0,1,.54-.92c1.48-2.09,4.06-3.06,6.57-3.55,1.32-.25,2.66-.41,4-.63a14,14,0,0,0,1.93.29,18,18,0,0,0,6-.94l2.14-.59c1.07-.3,1.61-1.6,2.7-1.82a3.73,3.73,0,0,1,1.45.07,20.12,20.12,0,0,1,6.37,2.08A10.46,10.46,0,0,1,128.06,124.4Z" transform="translate(-51 -38.9)"/><path class="cls-3" d="M133.29,95.72c-.28,2.62-2.48,4.53-3.84,6.79-.65,1.1-1.11,2.3-1.7,3.43a32.89,32.89,0,0,1-2.24,3.57l-2.4,3.49a36.34,36.34,0,0,1-4.64,5.83c-3.15.53-5.78,2.87-8.76,4-2.39.91-5,1-7.49,1.52s-5.1,1.47-6.57,3.54a9.21,9.21,0,0,0-1.23,2.66,6.87,6.87,0,0,0-.38,2.88A5.5,5.5,0,0,0,96.28,137a12.41,12.41,0,0,0,3.88,1.81,10.19,10.19,0,0,0,3.46.59,4.18,4.18,0,0,0,3.11-1.44c.73-.92.7-2.32,1.48-3.14a6.64,6.64,0,0,1,1.41-1.07l6.41-4.06a32.65,32.65,0,0,1,3.09-1.79c2.15-1.06,4.52-1.62,6.66-2.71s4.14-2.87,4.56-5.23c1.31-7.26,6.33-13.37,10.63-19.37-.14,0-.1-.35-.15-.48a6.13,6.13,0,0,0-3.15-3.17A18.45,18.45,0,0,0,133.29,95.72Z" transform="translate(-51 -38.9)"/><path class="cls-10" d="M110.64,95.78a4,4,0,0,0-.45-2.28c-.71-1.18-2.2-1.6-3.54-1.88s-2.6-.49-3.91-.68a8.78,8.78,0,0,0-3.23-.06c-1.47.33-2.68,1.3-4,1.91a28,28,0,0,1-5.13,1.31,7.82,7.82,0,0,0-4.57,2.47,8.53,8.53,0,0,0-1.39,3.75c-2,11,.15,22.35.57,33.57.16,4.37,0,9-2.53,12.62l7.27-.19c1.86,0,3.86-.15,5.31-1.29a8.8,8.8,0,0,0,2.45-4.18,12.89,12.89,0,0,0,.92-3.74c.12-2.63-1.38-5.22-.88-7.82a8.7,8.7,0,0,1,3.28-4.77,28.35,28.35,0,0,0,4.4-3.92c2.18-2.76,2.6-6.52,2.33-10a37.33,37.33,0,0,1-.36-6.24,7.92,7.92,0,0,1,1.65-4.38A6.09,6.09,0,0,0,110.64,95.78Z" transform="translate(-51 -38.9)"/><path class="cls-9" d="M110.19,93.5c-.7-1.17-2.15-1.58-3.48-1.86A3.4,3.4,0,0,1,108.43,93a3.9,3.9,0,0,1,.45,2.27A6.1,6.1,0,0,1,107,99.46a7.92,7.92,0,0,0-1.65,4.38,38.42,38.42,0,0,0,.35,6.24c.28,3.5-.14,7.26-2.32,10A29.41,29.41,0,0,1,99,124a8.63,8.63,0,0,0-3.28,4.77c-.49,2.59,1,5.18.88,7.82a12.6,12.6,0,0,1-.93,3.74,8.83,8.83,0,0,1-2.44,4.17c-1.48,1.15-3.47,1.25-5.32,1.3l-5.14.13-.36.56,7.26-.19c1.86,0,3.86-.15,5.32-1.29a8.87,8.87,0,0,0,2.44-4.18,12.91,12.91,0,0,0,.93-3.74c.11-2.63-1.38-5.22-.89-7.82a8.8,8.8,0,0,1,3.28-4.77,28.42,28.42,0,0,0,4.41-3.92c2.18-2.76,2.59-6.52,2.32-10a38.42,38.42,0,0,1-.35-6.24,7.91,7.91,0,0,1,1.64-4.38,6,6,0,0,0,1.87-4.18A4,4,0,0,0,110.19,93.5Z" transform="translate(-51 -38.9)"/><path class="cls-9" d="M164.77,207.25l-13.33,32.52a6.52,6.52,0,0,1-1.86-2.05c1.08-4.05,2.18-8.17,4.36-11.75.71-1.18,1.52-2.26,2.26-3.41,2.12-3.34,2.56-7.55,5-10.67a1.85,1.85,0,0,0,0-2.17c-.28-.36-.73-.71-.64-1.16s.4-.62.27-.93c-.07-.15-.22-.23-.33-.33-.42-.38-.36-1-.4-1.59a7.68,7.68,0,0,0-1.77-3.81,2.55,2.55,0,0,0-.65-.7c-.22-.13-.48-.19-.69-.33-.78-.48-.72-1.61-1.09-2.44-.49-1.1-1.71-1.66-2.51-2.56-1-1.14-1.27-2.72-2.36-3.72l-.09-.23,1-6.27Z" transform="translate(-51 -38.9)"/></svg>