<svg id="Layer_1" data-name="Layer 1" xmlns="http://www.w3.org/2000/svg" viewBox="0 0 346.99 190.69"><defs><style>.cls-1{fill:#f2f2f2;}.cls-2{fill:#3f3d56;}.cls-3{fill:#192534;}.cls-4{fill:#202f42;}.cls-5{opacity:0.1;isolation:isolate;}.cls-6{fill:#fbbebe;}.cls-7{fill:#6c63ff;}.cls-8{fill:#01e7c0;}.cls-9{fill:#464a5f;}</style></defs><title>how-6</title><path class="cls-1" d="M145.28,187.46a11.6,11.6,0,0,1,1.44-1.92,1.84,1.84,0,0,1-.22.17,3.6,3.6,0,0,0-1,.63,2,2,0,0,0-.36.85l-.85,3.3c.17-.21.33-.42.5-.62A5.87,5.87,0,0,1,145.28,187.46Z" transform="translate(-26.01 -68.53)"/><path class="cls-1" d="M225.5,189.69a3.71,3.71,0,0,1-.34,1.07,14.94,14.94,0,0,1-.56,4.15,12.62,12.62,0,0,0-.35,1.73c-.79,5.38-1.55,11-.2,16.21a1.87,1.87,0,0,1,.51-.84,8.73,8.73,0,0,0,1.5-3.89c1.38-7.26,1-14.68.66-22.1a2.42,2.42,0,0,0-.72-.55,7.86,7.86,0,0,1,0,1A32.61,32.61,0,0,1,225.5,189.69Z" transform="translate(-26.01 -68.53)"/><path class="cls-1" d="M178.77,187.47a3.24,3.24,0,0,0-.26-1.27,3.57,3.57,0,0,0-.65-.89l-.72-.82c-.36,8.7-1.14,17.43.48,25.95a8.5,8.5,0,0,0,1.5,3.89,2.1,2.1,0,0,1,.51.83c1.33-5.19.58-10.83-.21-16.2a11,11,0,0,0-.35-1.73,16.46,16.46,0,0,1-.4-6.7A15.64,15.64,0,0,0,178.77,187.47Z" transform="translate(-26.01 -68.53)"/><path class="cls-1" d="M182.9,169.1a22.76,22.76,0,0,1,2.1,5.26l.23.77c-.11-2.63-.16-5.26-.18-7.9l-1.57,1.37Z" transform="translate(-26.01 -68.53)"/><path class="cls-1" d="M190.64,257.92a17.55,17.55,0,0,0-.42-5.5,16.49,16.49,0,0,1-.79-3.44,10.85,10.85,0,0,1,.29-2.33c1.37-7,2-14.29-.11-21.08-.56-1.82-1.3-3.58-1.86-5.39a13.06,13.06,0,0,1-.94,2,2,2,0,0,0-1.14-1.33,6.29,6.29,0,0,1,0,1c-.1,1.09-.26,2.17-.46,3.24a3.45,3.45,0,0,1-.41,1.22,2.83,2.83,0,0,1-1.08.89c.2.44.39.87.58,1.33l-1.39.39c.91,2,.15,4.29-.33,6.41-1.75,7.39-.18,15.29-1,22.77Z" transform="translate(-26.01 -68.53)"/><path class="cls-1" d="M185.6,152.14a12.18,12.18,0,0,1,1.44-1.92l-.22.17a3.38,3.38,0,0,0-1,.63,2,2,0,0,0-.36.85l-.85,3.3.5-.63A5.83,5.83,0,0,1,185.6,152.14Z" transform="translate(-26.01 -68.53)"/><path class="cls-1" d="M219.09,152.15a3.24,3.24,0,0,0-.26-1.27,3.57,3.57,0,0,0-.65-.89l-.72-.82c-.36,8.57-1.11,17.16.41,25.56l.81-2.72a28.52,28.52,0,0,1,1.61-4.36c-.16-1.33-.35-2.69-.55-4a11.16,11.16,0,0,0-.35-1.72,16.46,16.46,0,0,1-.4-6.7A15.67,15.67,0,0,0,219.09,152.15Z" transform="translate(-26.01 -68.53)"/><path class="cls-1" d="M204.56,217.65l-1.14,40.13,3,0A124.6,124.6,0,0,1,205.7,243a20.3,20.3,0,0,0-.25-4.27c-.21-1-.57-1.91-.77-2.89a16.87,16.87,0,0,1-.23-3.55Z" transform="translate(-26.01 -68.53)"/><path class="cls-1" d="M178.79,217.67l.13-.33c.16-.41.3-.82.43-1.23l0,0c-.26.44-.55.85-.84,1.26Z" transform="translate(-26.01 -68.53)"/><path class="cls-1" d="M88.13,172.81a3.24,3.24,0,0,0-.26-1.27,3.81,3.81,0,0,0-.64-.89l-.72-.82c-.37,8.7-1.15,17.43.47,25.95a8.5,8.5,0,0,0,1.5,3.89,2,2,0,0,1,.51.83c1.33-5.2.58-10.83-.2-16.21a12.46,12.46,0,0,0-.34-1.72,16.64,16.64,0,0,1-.42-6.7A14.93,14.93,0,0,0,88.13,172.81Z" transform="translate(-26.01 -68.53)"/><path class="cls-1" d="M88.15,203l.14-.33q.22-.62.42-1.23l0,0c-.27.44-.55.85-.85,1.26A3.88,3.88,0,0,1,88.15,203Z" transform="translate(-26.01 -68.53)"/><path class="cls-1" d="M73.6,238.31q-.28,10.44-.59,20.89l1.43,0c-.21-.88-.53-1.75-.71-2.64A16.87,16.87,0,0,1,73.5,253Z" transform="translate(-26.01 -68.53)"/><path class="cls-1" d="M95,258.43a2.62,2.62,0,0,1-1.07-.88,3.15,3.15,0,0,1-.41-1.22,29.72,29.72,0,0,1-.46-3.24,6.33,6.33,0,0,1,0-1,2,2,0,0,0-1.13,1.33A15.63,15.63,0,0,1,90,247.87c-.1.33-.2.7-.33,1C89,251,88,253,87.8,255.14a12.41,12.41,0,0,0,.33,3.89l6.62-.07Z" transform="translate(-26.01 -68.53)"/><path class="cls-1" d="M99.36,247.43c.13.41.27.82.43,1.23,0,.11.09.22.14.33l.31-.25c-.3-.41-.59-.83-.85-1.26Z" transform="translate(-26.01 -68.53)"/><path class="cls-1" d="M147.1,254.36a42.27,42.27,0,0,1-.95-6l-1.59-14.66c0-.13,0-.26,0-.39l-.06.19a10.39,10.39,0,0,1-2,3.15c-.79,1-1.79,2-3,1.7a3.24,3.24,0,0,1-1.27-.79l-2.67-2.3c-.52-.45-1-.9-1.56-1.37,0,3.21-.1,6.43-.27,9.64a7,7,0,0,1-.61,3,34.49,34.49,0,0,1,1.62,9.45c0,.87,0,1.73,0,2.6l7.81-.08h0l5.87-.06C148,257.05,147.46,255.73,147.1,254.36Z" transform="translate(-26.01 -68.53)"/><path class="cls-1" d="M133.91,221.19l.5.62-.85-3.29a2.12,2.12,0,0,0-.36-.85,3.68,3.68,0,0,0-1-.63l-.22-.16a12,12,0,0,1,1.44,1.91A5.86,5.86,0,0,1,133.91,221.19Z" transform="translate(-26.01 -68.53)"/><path class="cls-1" d="M143.57,206.55c.21,2.31.33,4.64.45,7s.24,4.58.35,6.88a34.56,34.56,0,0,1,1.23-5.23,7.08,7.08,0,0,1-.61-3c-.17-3.21-.24-6.42-.26-9.64-.51.46-1,.91-1.55,1.33A20,20,0,0,1,143.57,206.55Z" transform="translate(-26.01 -68.53)"/><path class="cls-1" d="M99.3,230.29c-.79,5.38-1.55,11-.2,16.21a1.84,1.84,0,0,1,.51-.83,8.73,8.73,0,0,0,1.5-3.89c1.62-8.52.84-17.25.47-26l-.71.82a4.1,4.1,0,0,0-.67.88,3.43,3.43,0,0,0-.27,1.26,15.67,15.67,0,0,0,.11,3.06,16.52,16.52,0,0,1-.4,6.71A12.74,12.74,0,0,0,99.3,230.29Z" transform="translate(-26.01 -68.53)"/><path class="cls-1" d="M219.8,257.61l2.61,0c-1.39-8,.62-16.64-1.28-24.66a26.75,26.75,0,0,1-.76-3.83,21.24,21.24,0,0,0-1.6,5.39c-.3,3.25,1.22,6.35,1.79,9.56.78,4.42-.28,8.93-.75,13.39C219.81,257.51,219.8,257.55,219.8,257.61Z" transform="translate(-26.01 -68.53)"/><path class="cls-1" d="M309.63,253.59c-3-9,0-19.08-2.19-28.33-.5-2.12-1.26-4.42-.33-6.4l-1.39-.43c.19-.44.38-.87.57-1.33a3.48,3.48,0,0,1-.74-.51l-1,9.4a40.92,40.92,0,0,1-1,6c-.58,2.22-1.51,4.33-2.18,6.52-1.79,5.85-1.6,12.1-.63,18.18l10-.11C310.39,255.61,310,254.6,309.63,253.59Z" transform="translate(-26.01 -68.53)"/><path class="cls-1" d="M305,164.45l0-.09.12-.39a4.37,4.37,0,0,0-.94-.59,1.84,1.84,0,0,1-.22-.17C304.27,163.63,304.64,164,305,164.45Z" transform="translate(-26.01 -68.53)"/><path class="cls-1" d="M271.31,193.78q.19.61.42,1.23l.14.33.31-.25c-.3-.41-.58-.83-.85-1.26Z" transform="translate(-26.01 -68.53)"/><path class="cls-1" d="M312.37,200.46a74,74,0,0,0,.91-16.3,2.14,2.14,0,0,1-1.83.52h-.05a14,14,0,0,1-.49,2.57,14.72,14.72,0,0,0-.35,1.73c-.78,5.38-1.54,11-.2,16.21a2,2,0,0,1,.51-.83A8.5,8.5,0,0,0,312.37,200.46Z" transform="translate(-26.01 -68.53)"/><path class="cls-1" d="M164.21,258.21c0-1.75,0-3.49,0-5.24l-.15,5.24Z" transform="translate(-26.01 -68.53)"/><path class="cls-1" d="M371.86,113.65c-.22-1.25-.48-2.49-.79-3.7-3.23-13.07-10.8-23.5-24.66-29.14-1.19-.48-2.42-.93-3.7-1.33a63.62,63.62,0,0,0-8.92-2.14c-29.07-4.86-53.52-2.55-75.55,1.84-1.24.24-2.48.5-3.71.76-30.89,6.53-57.19,16.64-85.26,15.76-1.23,0-2.47-.1-3.7-.18a104.84,104.84,0,0,1-38.38-10.18c-16-7.53-32.23-5-46.88,4a92.11,92.11,0,0,0-23,20.66l0,0q-1.45,1.8-2.88,3.67c-22.54,30-35,74.73-24.79,109.44.37,1.25.77,2.48,1.2,3.7a67.2,67.2,0,0,0,13.43,22.95,28.71,28.71,0,0,0,13,8.25c.86.26,1.73.48,2.62.67a35.25,35.25,0,0,0-1.27-12.45C58,244,57,241.92,56.47,239.7a40.92,40.92,0,0,1-1-6q-.8-7.33-1.58-14.66a64.29,64.29,0,0,1-.58-9.08A33.76,33.76,0,0,1,55,200.48a6.93,6.93,0,0,1-.62-3c-.16-3.21-.24-6.43-.26-9.64-.52.46-1,.92-1.57,1.37l-2.68,2.3a3.24,3.24,0,0,1-1.27.79c-1.17.28-2.21-.76-3-1.7a11.07,11.07,0,0,1-2-3.15,10,10,0,0,1-.37-3.39c0-1.46.1-2.92.18-4.38l.64-12.18c.12-2.33.24-4.64.45-7a11,11,0,0,1,1.22-4.78c1.61-2.67,5.06-3.6,8.2-3.37a1.13,1.13,0,0,1,0-1,1.75,1.75,0,0,1,.8-.67l4.63-2.47a2.66,2.66,0,0,1,1.08-.39,1.38,1.38,0,0,1,.6.13l.89-.63a2.17,2.17,0,0,1,.67-.36,1.57,1.57,0,0,1,.91,0,3.63,3.63,0,0,0,.38-1.44,5.16,5.16,0,0,0-.39-1.82A8.81,8.81,0,0,1,60,136.88c-1-.56-2.28-.87-2.69-2-.28-.8.05-1.69-.06-2.53a2,2,0,0,1-.49-.77c-.29-.84.08-1.76-.07-2.63a3.89,3.89,0,0,1-.24-1.42,2,2,0,0,1,.53-.88l3.28-3.89a8.56,8.56,0,0,1,2.46-2.23c2.38-1.22,5.23,0,7.9,0a8.21,8.21,0,0,1,2.67.15,5.43,5.43,0,0,1,1.64,1l3.67,3c1.23,1,2.56,2.19,2.68,3.78a3.39,3.39,0,0,1-.21,1.41,3.65,3.65,0,0,1,.76,1.89,5.08,5.08,0,0,1-1.06,3.07,16.14,16.14,0,0,1-3.34,3.61,8.81,8.81,0,0,1-2.11,4.25,29.57,29.57,0,0,0,1,3.43s0,0,0,0a1.66,1.66,0,0,1,.87.31,4.51,4.51,0,0,1,.72.66,1.07,1.07,0,0,1,.49-.4,2,2,0,0,1,1.53.24A15.67,15.67,0,0,1,84,149.42a5,5,0,0,1,1.08,1.38,6.81,6.81,0,0,1,4.81,1.08c2.52,1.72,3.56,4.88,4.43,7.8l2,6.56A40.35,40.35,0,0,1,98.25,175a40.59,40.59,0,0,1-.56,8.16c-.52,3.74.7,7.84.71,11.62,0,1,0,2,0,2.93a6.86,6.86,0,0,1,4.55-1,5,5,0,0,1,1.09-1.38,15.48,15.48,0,0,1,4.16-2.44,2,2,0,0,1,1.53-.25,1,1,0,0,1,.48.41,4.54,4.54,0,0,1,.72-.67,1.63,1.63,0,0,1,.87-.3s0,0,0-.06a27.23,27.23,0,0,0,1-3.43,8.77,8.77,0,0,1-2.11-4.25,15.88,15.88,0,0,1-3.33-3.61,5,5,0,0,1-1.07-3.07,3.74,3.74,0,0,1,.76-1.89,3.75,3.75,0,0,1-.21-1.41c.12-1.58,1.45-2.77,2.69-3.78l3.66-3a5.68,5.68,0,0,1,1.65-1,8.15,8.15,0,0,1,2.66-.15c2.67,0,5.53-1.22,7.9,0a8.49,8.49,0,0,1,2.47,2.24l3.27,3.88a2,2,0,0,1,.53.88,3.89,3.89,0,0,1-.24,1.42c-.15.87.22,1.79-.06,2.63a2.09,2.09,0,0,1-.5.77c-.11.84.22,1.73-.06,2.53-.4,1.18-1.68,1.5-2.69,2.06a8.8,8.8,0,0,1-3.48,6.9,5,5,0,0,0-.39,1.82,3.47,3.47,0,0,0,.38,1.44,1.57,1.57,0,0,1,.91,0,2.35,2.35,0,0,1,.66.36l.9.63a1.37,1.37,0,0,1,.59-.13,2.65,2.65,0,0,1,1.09.39l4.63,2.47a3.07,3.07,0,0,1,.56.38c0-.9.08-1.8.13-2.69l.65-12.18c.12-2.33.24-4.64.45-7a11.13,11.13,0,0,1,1.21-4.78c1.61-2.66,5.07-3.6,8.2-3.37a1.17,1.17,0,0,1,0-1,1.83,1.83,0,0,1,.81-.67L150,163a2.5,2.5,0,0,1,1.09-.38,1.2,1.2,0,0,1,.59.12l.9-.63a2.41,2.41,0,0,1,.67-.36,1.57,1.57,0,0,1,.91,0,3.8,3.8,0,0,0,.38-1.44,5.16,5.16,0,0,0-.39-1.82,8.78,8.78,0,0,1-3.49-6.93c-1-.56-2.29-.88-2.69-2.06-.28-.8,0-1.69-.06-2.53a2.09,2.09,0,0,1-.5-.77c-.28-.84.09-1.76-.06-2.63a9,9,0,0,1-.26-1.14,9.75,9.75,0,0,0-.83,2.16c-.47,1.89-.39,3.87-.67,5.79a2.27,2.27,0,0,1-.85,1.73,9,9,0,0,1-1.47.45,2.51,2.51,0,0,0-1.33,2,19.74,19.74,0,0,0,0,2.55,6.46,6.46,0,0,1-3,5.63c-2.57,1.43-5.75.48-8.52-.49a7.54,7.54,0,0,0,3.18-2.21l-3-.62a19.69,19.69,0,0,0,4.85-3.22,4.15,4.15,0,0,0,1.24-1.63c.33-.93,0-2,.33-2.93.52-1.6,2.48-2.21,3.48-3.56a7,7,0,0,0,.91-4.23l0-5.59c0-1.61.1-3.47,1.39-4.45s3.45-.47,5.25-.48,3.7-.79,5.59-1,4.75,1,4.7,2.45a20.07,20.07,0,0,0,3,.31,8.15,8.15,0,0,1,2.66.15,5.39,5.39,0,0,1,1.65,1.05l3.66,3c1.24,1,2.57,2.19,2.67,3.77a3.43,3.43,0,0,1-.21,1.42,3.62,3.62,0,0,1,.76,1.89,5,5,0,0,1-1.06,3.06,16.19,16.19,0,0,1-3.34,3.62,8.74,8.74,0,0,1-2.11,4.24,29,29,0,0,0,.95,3.43.14.14,0,0,1,0,.06,1.65,1.65,0,0,1,.87.3,4.58,4.58,0,0,1,.72.67,1.09,1.09,0,0,1,.49-.41,2,2,0,0,1,1.53.25,19,19,0,0,1,3.66,2v-.2c0-1.46.1-2.92.18-4.38l.67-12.2c.12-2.33.24-4.64.45-7a11.13,11.13,0,0,1,1.21-4.78c1.61-2.66,5.07-3.6,8.2-3.37a1.17,1.17,0,0,1,0-1,1.83,1.83,0,0,1,.81-.67l4.62-2.47a2.65,2.65,0,0,1,1.09-.39,1.34,1.34,0,0,1,.59.13l.9-.63a2.17,2.17,0,0,1,.67-.36,1.57,1.57,0,0,1,.91,0,3.8,3.8,0,0,0,.38-1.44,5.16,5.16,0,0,0-.39-1.82,8.78,8.78,0,0,1-3.49-6.94c-1-.56-2.29-.87-2.69-2-.28-.8.05-1.69-.06-2.53a2.18,2.18,0,0,1-.5-.77c-.28-.84.09-1.76-.06-2.63a3.69,3.69,0,0,1-.24-1.42,2,2,0,0,1,.53-.88l3.27-3.88a8.49,8.49,0,0,1,2.47-2.24c2.38-1.22,5.22,0,7.9,0a8.15,8.15,0,0,1,2.66.15,5.36,5.36,0,0,1,1.65,1l3.66,3c1.24,1,2.57,2.19,2.67,3.78a3.39,3.39,0,0,1-.21,1.41,3.65,3.65,0,0,1,.76,1.89,5.08,5.08,0,0,1-1.06,3.07,16.14,16.14,0,0,1-3.34,3.61,8.88,8.88,0,0,1-2.1,4.25,27.66,27.66,0,0,0,.94,3.43s0,0,0,0a1.66,1.66,0,0,1,.87.31,4.51,4.51,0,0,1,.72.66,1.07,1.07,0,0,1,.49-.4,2,2,0,0,1,1.53.24,15.67,15.67,0,0,1,4.16,2.45,5.24,5.24,0,0,1,1.09,1.38,6.8,6.8,0,0,1,4.82,1.08c2.52,1.72,3.55,4.88,4.43,7.8l2,6.56a40.35,40.35,0,0,1,1.93,8.77,37.56,37.56,0,0,1-.5,7.63l.26-.26a16,16,0,0,1,4.17-2.44,2,2,0,0,1,1.53-.25,1,1,0,0,1,.48.41,5.06,5.06,0,0,1,.72-.67,1.72,1.72,0,0,1,.87-.3.14.14,0,0,1,0-.06,27.23,27.23,0,0,0,1-3.43,8.74,8.74,0,0,1-2.11-4.24,16.14,16.14,0,0,1-3.33-3.62,5,5,0,0,1-1.07-3.06,3.62,3.62,0,0,1,.76-1.89,3.56,3.56,0,0,1-.21-1.41c.12-1.59,1.45-2.78,2.67-3.78l3.66-3a5.51,5.51,0,0,1,1.65-1,8.21,8.21,0,0,1,2.67-.15,20.35,20.35,0,0,0,3-.31c-.05-1.41,2.91-2.66,4.69-2.45s3.7,1,5.59,1,3.83-.61,5.26.48,1.39,2.83,1.38,4.44l0,5.61a7,7,0,0,0,.9,4.23c.95,1.28,2.78,1.9,3.39,3.33a10,10,0,0,1,3.46-4.89,6.85,6.85,0,0,1,4.78-1.1,5.24,5.24,0,0,1,1.09-1.38,15.91,15.91,0,0,1,4.16-2.44,2,2,0,0,1,1.53-.25,1,1,0,0,1,.49.41,4.18,4.18,0,0,1,.72-.67,1.57,1.57,0,0,1,.86-.3l0-.06a27.19,27.19,0,0,0,.94-3.43,8.78,8.78,0,0,1-2.11-4.24,16.38,16.38,0,0,1-3.33-3.62,5,5,0,0,1-1.06-3.07,3.69,3.69,0,0,1,.75-1.88,3.63,3.63,0,0,1-.2-1.42c.12-1.58,1.45-2.77,2.66-3.78l3.67-3a5.55,5.55,0,0,1,1.65-1,8.15,8.15,0,0,1,2.66-.15,21.48,21.48,0,0,0,3-.31c-.05-1.41,2.92-2.67,4.7-2.46s3.69,1,5.59,1,3.82-.61,5.25.48c1.28,1,1.39,2.83,1.39,4.44v5.61a7,7,0,0,0,.9,4.22c1,1.36,3,2,3.48,3.57.3.94,0,2,.34,2.93a4.06,4.06,0,0,0,1.24,1.63,19.35,19.35,0,0,0,2.38,1.84,4,4,0,0,1,.63-1.23,3.43,3.43,0,0,1-.21-1.42c.12-1.58,1.45-2.77,2.67-3.77l3.66-3a5.51,5.51,0,0,1,1.65-1,8.16,8.16,0,0,1,2.66-.15c2.67,0,5.53-1.21,7.91,0a8.6,8.6,0,0,1,2.46,2.24l3.27,3.88a2.08,2.08,0,0,1,.53.89,3.88,3.88,0,0,1-.24,1.41c-.15.87.22,1.8-.06,2.63a2.09,2.09,0,0,1-.5.78c-.11.84.22,1.72-.06,2.52-.4,1.18-1.68,1.5-2.69,2.06a8.8,8.8,0,0,1-3.48,6.9,5.21,5.21,0,0,0-.39,1.82,3.51,3.51,0,0,0,.38,1.45,1.57,1.57,0,0,1,.91-.05,2.59,2.59,0,0,1,.67.37l.89.62a1.23,1.23,0,0,1,.59-.12,2.5,2.5,0,0,1,1.09.38l4.63,2.48a1.73,1.73,0,0,1,.8.66,1.17,1.17,0,0,1,0,1c3.14-.22,6.59.71,8.2,3.38a11,11,0,0,1,1.22,4.78c.21,2.31.33,4.63.45,7l.63,12.2c.08,1.46.15,2.92.18,4.39a9.9,9.9,0,0,1-.37,3.38,10.56,10.56,0,0,1-2,3.16c-.79,1-1.79,2-3,1.69a3.24,3.24,0,0,1-1.27-.79l-2.68-2.3c-.53-.44-1.05-.9-1.57-1.37,0,3.22-.1,6.43-.26,9.64a7.16,7.16,0,0,1-.62,3,34,34,0,0,1,1.62,9.44,60.26,60.26,0,0,1-.44,7.83q.42-.89.84-1.8C360.85,189.68,377.55,145.09,371.86,113.65Z" transform="translate(-26.01 -68.53)"/><path class="cls-1" d="M54.51,172.54l-.84,3.3c.16-.21.33-.42.5-.62a5.7,5.7,0,0,1,.47-2.41,12.66,12.66,0,0,1,1.44-1.92,1.84,1.84,0,0,1-.22.17,3.75,3.75,0,0,0-1,.63A2.13,2.13,0,0,0,54.51,172.54Z" transform="translate(-26.01 -68.53)"/><path class="cls-1" d="M258.87,187.53l.5.63-.85-3.29a2,2,0,0,0-.36-.85,3.6,3.6,0,0,0-1-.63,1.84,1.84,0,0,1-.22-.17,12.18,12.18,0,0,1,1.44,1.92A5.78,5.78,0,0,1,258.87,187.53Z" transform="translate(-26.01 -68.53)"/><path class="cls-1" d="M311.19,207.67l.31-.25c-.3-.41-.58-.83-.85-1.26l0,0q.19.62.42,1.23C311.1,207.45,311.13,207.56,311.19,207.67Z" transform="translate(-26.01 -68.53)"/><path class="cls-1" d="M224.32,213.77c.13.42.27.83.43,1.23,0,.12.09.22.14.34a3.88,3.88,0,0,1,.31-.26c-.3-.41-.59-.83-.85-1.26Z" transform="translate(-26.01 -68.53)"/><path class="cls-1" d="M253.05,149.21a8.77,8.77,0,0,1-3.48,6.91,5.11,5.11,0,0,0-.39,1.82,3.47,3.47,0,0,0,.38,1.44,1.57,1.57,0,0,1,.91,0,2.17,2.17,0,0,1,.67.36l.89.63a1.38,1.38,0,0,1,.6-.13,2.66,2.66,0,0,1,1.08.39l4.63,2.47a1.75,1.75,0,0,1,.8.67,1.17,1.17,0,0,1,0,1,11.8,11.8,0,0,1,3,.14,49.91,49.91,0,0,1,1.39-5.51,6.8,6.8,0,0,1-1.7-4.57,19.74,19.74,0,0,0,0-2.55,2.5,2.5,0,0,0-1.33-2,9.67,9.67,0,0,1-1.47-.45,2.3,2.3,0,0,1-.86-1.73c-.29-1.93-.2-3.91-.66-5.79a9.56,9.56,0,0,0-.83-2.16,9.36,9.36,0,0,1-.26,1.14c-.15.87.22,1.79-.06,2.62a2.13,2.13,0,0,1-.5.78c-.11.84.22,1.73-.06,2.53C255.34,148.33,254.06,148.65,253.05,149.21Z" transform="translate(-26.01 -68.53)"/><path class="cls-1" d="M271.24,176.64c-.78,5.38-1.54,11-.2,16.21a2,2,0,0,1,.51-.83,8.5,8.5,0,0,0,1.5-3.89c1.62-8.52.84-17.25.47-25.95l-.71.81a4.31,4.31,0,0,0-.66.88,3.43,3.43,0,0,0-.27,1.26,15.67,15.67,0,0,0,.1,3.06,16.52,16.52,0,0,1-.4,6.71A14.85,14.85,0,0,0,271.24,176.64Z" transform="translate(-26.01 -68.53)"/><path class="cls-1" d="M266.17,204.24a2.09,2.09,0,0,1-1.7.44,3.17,3.17,0,0,1-1.27-.79l-2.67-2.3c-.52-.45-1-.9-1.57-1.37,0,3.22-.09,6.43-.26,9.64a7,7,0,0,1-.62,3,33.62,33.62,0,0,1,1.62,9.44,67.4,67.4,0,0,1-.57,9.08L257.54,246a42.63,42.63,0,0,1-1,6c-.46,1.77-1.15,3.46-1.75,5.19l3.4,0,4.33,0h.53l7.33-.08s0,0,0,0c.57-3.21,2.1-6.31,1.79-9.56-.2-2.17-1.2-4.16-1.9-6.22-3-9,0-19.07-2.19-28.33-.5-2.12-1.26-4.42-.33-6.4l-1.39-.43c.19-.44.39-.87.58-1.33A3.46,3.46,0,0,1,266.17,204.24Z" transform="translate(-26.01 -68.53)"/><path class="cls-1" d="M239.43,250.64c0,2.25,0,4.5,0,6.75h.14Z" transform="translate(-26.01 -68.53)"/><path class="cls-1" d="M325.74,243q0,5.11.07,10.2L326,253Q325.88,248,325.74,243Z" transform="translate(-26.01 -68.53)"/><path class="cls-1" d="M317.66,137.62l-.56.12a7.1,7.1,0,0,0,1,1A5.41,5.41,0,0,1,317.66,137.62Z" transform="translate(-26.01 -68.53)"/><path class="cls-1" d="M286.42,230.64l.1,14.68a17.56,17.56,0,0,1-.22,3.55c-.2,1-.57,1.92-.78,2.9a19.62,19.62,0,0,0-.25,4.27v.86l1.89,0Q286.8,243.76,286.42,230.64Z" transform="translate(-26.01 -68.53)"/><path class="cls-1" d="M345.17,179.87l.51.62-.85-3.3a2.15,2.15,0,0,0-.36-.85,4,4,0,0,0-1-.63l-.23-.17a12.09,12.09,0,0,1,1.45,1.92A5.86,5.86,0,0,1,345.17,179.87Z" transform="translate(-26.01 -68.53)"/><path class="cls-1" d="M300,129.22a8.78,8.78,0,0,1-3.48,6.9,5,5,0,0,0-.4,1.82,3.64,3.64,0,0,0,.39,1.45,1.56,1.56,0,0,1,.91,0,2.38,2.38,0,0,1,.66.37l.9.62a1.2,1.2,0,0,1,.59-.12,2.5,2.5,0,0,1,1.09.38l4.62,2.48a1.8,1.8,0,0,1,.81.66,1.17,1.17,0,0,1,0,1c3.13-.22,6.59.71,8.2,3.38a11.17,11.17,0,0,1,1.22,4.78c0,.3.05.6.07.91a17,17,0,0,1,3.85-2.18,2,2,0,0,1,1.53-.25,1,1,0,0,1,.49.41,4.54,4.54,0,0,1,.72-.67,1.6,1.6,0,0,1,.87-.3.14.14,0,0,1,0-.06,27.23,27.23,0,0,0,.95-3.43,8.77,8.77,0,0,1-2.11-4.25,16.58,16.58,0,0,1-2.72-2.77c-2.48.81-5.19,1.37-7.42.12a6.4,6.4,0,0,1-3-5.62,19.74,19.74,0,0,0,0-2.55,2.5,2.5,0,0,0-1.33-2,10,10,0,0,1-1.47-.45,2.32,2.32,0,0,1-.85-1.73c-.29-1.93-.21-3.91-.67-5.79a9.56,9.56,0,0,0-.83-2.16,9.36,9.36,0,0,1-.26,1.14c-.15.87.22,1.79-.06,2.62a2.13,2.13,0,0,1-.5.78c-.11.84.22,1.73-.06,2.53C302.32,128.34,301,128.65,300,129.22Z" transform="translate(-26.01 -68.53)"/><path class="cls-2" d="M246.16,251.22v8H74.55v-8a2.33,2.33,0,0,1,2.33-2.33H243.82A2.33,2.33,0,0,1,246.16,251.22Z" transform="translate(-26.01 -68.53)"/><path class="cls-3" d="M181.1,132.36a8.67,8.67,0,0,1,2.74,4.63c-2.72.71-5.49-.62-8-1.81a101.79,101.79,0,0,0-24.66-8,3.77,3.77,0,0,1-1.88-.72c-1-.87-.78-3.07.11-4s2.71-.83,4-.9a36.47,36.47,0,0,1,27.73,10.72Z" transform="translate(-26.01 -68.53)"/><path class="cls-4" d="M237.6,259.21H169.44a37.42,37.42,0,0,1-2.14-6.44c-.17-.69-.33-1.38-.49-2.07s-.27-1.22-.4-1.82q-.58-2.74-1-5.5c-.27-1.73-.49-3.47-.66-5.21s-.31-3.35-.41-5V233a2.93,2.93,0,0,1,.55-2.23,2.84,2.84,0,0,1,1.89-.63c5.67-.39,11.17,1.66,16.83,1.36a15.51,15.51,0,0,1,4.19,0,4.91,4.91,0,0,1,.66.17c.34.1.65.21,1,.33a41.39,41.39,0,0,0,6.53,2.19c4,.75,8.05.61,12.08.9.33,0,.66,0,1,.08s.82.07,1.22.12a45.68,45.68,0,0,1,10.11,2.54c1.76.63,3.5,1.35,5.21,2.12l1.46.66c.86.41,1.74.83,2.6,1.3.34.17.67.35,1,.54a15.93,15.93,0,0,1,6.29,5.9c.11.19.2.38.29.57s.16.36.23.54C238.61,252.51,238.19,255.84,237.6,259.21Z" transform="translate(-26.01 -68.53)"/><path class="cls-5" d="M237.6,259.21H169.44a37.42,37.42,0,0,1-2.14-6.44c-.17-.69-.33-1.38-.49-2.07s-.27-1.22-.4-1.82q-.58-2.74-1-5.5c-.27-1.73-.49-3.47-.66-5.21s-.31-3.35-.41-5V233a2.93,2.93,0,0,1,.55-2.23,2.84,2.84,0,0,1,1.89-.63c5.67-.39,11.17,1.66,16.83,1.36a15.51,15.51,0,0,1,4.19,0,4.91,4.91,0,0,1,.66.17c.34.1.65.21,1,.33a41.39,41.39,0,0,0,6.53,2.19c4,.75,8.05.61,12.08.9.33,0,.66,0,1,.08s.82.07,1.22.12a45.68,45.68,0,0,1,10.11,2.54c1.76.63,3.5,1.35,5.21,2.12l1.46.66c.86.41,1.74.83,2.6,1.3.34.17.67.35,1,.54a15.93,15.93,0,0,1,6.29,5.9c.11.19.2.38.29.57s.16.36.23.54C238.61,252.51,238.19,255.84,237.6,259.21Z" transform="translate(-26.01 -68.53)"/><path class="cls-4" d="M175.4,259.21H98.57a9,9,0,0,1-2.58-6.9,23.22,23.22,0,0,1,.53-3.11l.09-.34A7.71,7.71,0,0,1,100,244.2c3-1.94,6.66-2.7,10-4,1.79-.67,3.51-1.51,5.3-2.18a42.64,42.64,0,0,1,7.94-2l.9-.14.93-.14c1.66-.24,3.33-.44,5-.63a54.1,54.1,0,0,1,11.08-.53,37.78,37.78,0,0,1,8.64,1.94c2.11.7,4.19,1.52,6.25,2.33a49.66,49.66,0,0,1,9.35,4.49c.25.16.49.33.73.51a21.84,21.84,0,0,1,5,5,23.34,23.34,0,0,1,2.1,3.5A24.18,24.18,0,0,1,175.4,259.21Z" transform="translate(-26.01 -68.53)"/><path class="cls-6" d="M153.49,124.86a11.53,11.53,0,0,1-6.26,6.29c-1.52.54-3.16.63-4.72,1.08a5.17,5.17,0,0,0-3.66,2.87,6.82,6.82,0,0,0-.29,2.05c-.24,6.51-.43,13.29,2.17,19.26,2.25,5.16,6.37,9.24,10.45,13.12,4.76,4.55,9.81,9.16,16.07,11.19,3.67,1.18,8,1.31,11-1a16.06,16.06,0,0,0,3.08-3.58,43,43,0,0,0,5.29-9c2.58-6.67,1.71-14.09.8-21.17a1.71,1.71,0,0,0-.44-1.14,1.84,1.84,0,0,0-1.33-.23c-3.25.19-6.79-1.47-7.87-4.53a11.65,11.65,0,0,1-.43-4.16l.12-8.07a6.78,6.78,0,0,0-.3-2.58c-.57-1.4-2-2.23-3.37-2.9a82.89,82.89,0,0,0-13.75-5.42c-2.08-.61-3.65-1.63-4.57.6S154.56,122.51,153.49,124.86Z" transform="translate(-26.01 -68.53)"/><path class="cls-5" d="M153.49,124.86a11.53,11.53,0,0,1-6.26,6.29c-1.52.54-3.16.63-4.72,1.08a5.17,5.17,0,0,0-3.66,2.87,6.82,6.82,0,0,0-.29,2.05c-.24,6.51-.43,13.29,2.17,19.26,2.25,5.16,6.37,9.24,10.45,13.12,4.76,4.55,9.81,9.16,16.07,11.19,3.67,1.18,8,1.31,11-1a16.06,16.06,0,0,0,3.08-3.58,43,43,0,0,0,5.29-9c2.58-6.67,1.71-14.09.8-21.17a1.71,1.71,0,0,0-.44-1.14,1.84,1.84,0,0,0-1.33-.23c-3.25.19-6.79-1.47-7.87-4.53a11.65,11.65,0,0,1-.43-4.16l.12-8.07a6.78,6.78,0,0,0-.3-2.58c-.57-1.4-2-2.23-3.37-2.9a82.89,82.89,0,0,0-13.75-5.42c-2.08-.61-3.65-1.63-4.57.6S154.56,122.51,153.49,124.86Z" transform="translate(-26.01 -68.53)"/><circle class="cls-6" cx="175.35" cy="106.76" r="24.66" transform="matrix(0.16, -0.99, 0.99, 0.16, 15.86, 194.21)"/><path class="cls-7" d="M177.69,145.42l-2.76,6.84a21.38,21.38,0,0,1-2.21,4.47,11.1,11.1,0,0,1-12.22,4c-4.11-1.35-7.76-5.2-12-4.28a7.58,7.58,0,0,0-4.93,4.28,18.92,18.92,0,0,0-1.5,6.54A83.27,83.27,0,0,0,145,198.15a4.42,4.42,0,0,0,5.13,3.88q9,.54,18,.63a65.86,65.86,0,0,0,11.06-.54c3.66-.57,7.15-1.67,10.75-2.39,3.37-.66,6.82-1,10.11-1.94a2.62,2.62,0,0,0,1.44-.81,2.4,2.4,0,0,0,.33-1.41,16.91,16.91,0,0,0-1.24-5.59c-1.67-4.61-3.62-9.15-4.54-14-1.28-6.61-.53-13.42-.67-20.16a21.75,21.75,0,0,0-1-7.14,9.12,9.12,0,0,0-4.61-5.33C185.92,141.7,179.51,140.94,177.69,145.42Z" transform="translate(-26.01 -68.53)"/><path class="cls-3" d="M165,177.79c-1.76-1.49-1.67-4.15-1.88-6.45-.38-4.31-2.26-8.33-4.11-12.25l-5.51-11.72c-2.31-4.88-4.67-10.44-2.76-15.5.63-1.71,1.72-3.23,2.28-5s.45-3.9-1-5c-1.81-1.46-4.48-.47-6.52.63a101.64,101.64,0,0,0-10.84,6.82,5.17,5.17,0,0,0-2.23,2.58,19.33,19.33,0,0,1-.36,2.13c-.52,1.33-2.14,1.73-3.52,2a43,43,0,0,0-27.42,20.13,23.88,23.88,0,0,0-2.34,5.21,34.51,34.51,0,0,0-1,7.16q-.63,9.3-1.23,18.59a24.18,24.18,0,0,0,.4,8.19c.48,1.7,1.33,3.29,1.69,5,.73,3.6-.81,7.28-2.73,10.42s-4.29,6.07-5.49,9.52a22.19,22.19,0,0,0-1.08,6.81,39,39,0,0,0,6.2,22c4.1.61,7.16-3.47,10.92-5.19,5.52-2.53,12.48-.51,17.67-3.63a40.72,40.72,0,0,1,3.7-2.44,13.53,13.53,0,0,1,3.89-1c4.91-.71,9.89-1.37,14.82-.84,7,.76,14.24,3.87,20.82,1.36,1.62-.62,3.11-1.56,4.74-2.16,6-2.22,12.66.43,19.05-.06-1-.05-1.45-1.18-1.64-2.18q-.63-3.31-1.11-6.66a15.67,15.67,0,0,1-.08-5.83,22.5,22.5,0,0,1,2.19-5c2.58-5.1,3.67-10.82,5.88-16.09,1.05-2.51,2.33-4.91,3.58-7.33A151,151,0,0,0,211.71,161c-2.91-5.22-5.54-10.66-8.45-15.88a16,16,0,0,0-3-4.22c-1.85-1.69-4.35-2.43-6.76-3.11a23.3,23.3,0,0,0-6.33-1.19c-2.16,0-8.25-2.26-9.71-.69s1.89,6.88,1.81,9.09a50.59,50.59,0,0,1-.2,6.64c-.53,3.19-2.33,6-3.15,9.16a45,45,0,0,0-.74,4.48,51.69,51.69,0,0,1-2.63,9.85,6.9,6.9,0,0,1-1,1.87C170,178.94,167.47,178.2,165,177.79Z" transform="translate(-26.01 -68.53)"/><path class="cls-6" d="M214,212.91a13.58,13.58,0,0,0,2.29,1.91c3.08,2.42,4.89,6.1,7.61,8.91,1.38,1.42,3,2.61,4.43,3.94,3.41,3.1,6,6.93,8.65,10.72a11.35,11.35,0,0,1,1.66,3.08,7.12,7.12,0,0,1-1,5.75,12.56,12.56,0,0,1-4.39,4,20.55,20.55,0,0,1-2.82,1.4,2.25,2.25,0,0,1-2.78-3.23,37.31,37.31,0,0,0,2-3.56,5,5,0,0,0,.63-2.21,3.72,3.72,0,0,0-2.33-3.08,13,13,0,0,0-4-.83,44.39,44.39,0,0,1-21.07-8.39c-3.5-2.6-6.87-6.41-6.32-10.73.41-3.22,3-5.79,5.77-7.44a21.47,21.47,0,0,1,7.38-2.67c.74-.12,2.58-.62,3.23-.11S213.43,212.24,214,212.91Z" transform="translate(-26.01 -68.53)"/><path class="cls-5" d="M214,212.91a13.58,13.58,0,0,0,2.29,1.91c3.08,2.42,4.89,6.1,7.61,8.91,1.38,1.42,3,2.61,4.43,3.94,3.41,3.1,6,6.93,8.65,10.72a11.35,11.35,0,0,1,1.66,3.08,7.12,7.12,0,0,1-1,5.75,12.56,12.56,0,0,1-4.39,4,20.55,20.55,0,0,1-2.82,1.4,2.25,2.25,0,0,1-2.78-3.23,37.31,37.31,0,0,0,2-3.56,5,5,0,0,0,.63-2.21,3.72,3.72,0,0,0-2.33-3.08,13,13,0,0,0-4-.83,44.39,44.39,0,0,1-21.07-8.39c-3.5-2.6-6.87-6.41-6.32-10.73.41-3.22,3-5.79,5.77-7.44a21.47,21.47,0,0,1,7.38-2.67c.74-.12,2.58-.62,3.23-.11S213.43,212.24,214,212.91Z" transform="translate(-26.01 -68.53)"/><path class="cls-8" d="M186.19,92.83c-3.33,3.41-8.68,3.55-13.45,3.47l.15-1.87-6.71,2.41a18.18,18.18,0,0,0,4.41-4.72,3,3,0,0,0-3.27-.21,7,7,0,0,0-2.44,2.42,22,22,0,0,0-2.44,19.59,4.3,4.3,0,0,1-4.31-.28,7.67,7.67,0,0,1-2.78-3.5c-.4-.91-.81-2-1.76-2.27a2,2,0,0,0-2.1.95,4,4,0,0,0-.46,2.4c.12,1.94,1.54,3.78,1.82,5.7s3.15,3.41,1.67,4.67a21.69,21.69,0,0,1-5.36,1.26c-.75-.12-1.24-.84-1.56-1.53-1.49-3.28-.95-7.11-1.84-10.6a26.41,26.41,0,0,0-3.88-7.74,11.26,11.26,0,0,0-1.49-2A5.06,5.06,0,0,1,139,99.37c-.26-.68.21-1.66.93-1.55a29.18,29.18,0,0,0-3.75-3.09q2-2.51,3.87-5.08c.43-.58.88-1.33.57-2a2.21,2.21,0,0,0-.76-.73l-3.45-2.33c-.07-1.59,3.15-1,3.65-2.5a2.19,2.19,0,0,0-.09-1.19l-1.17-4.28,4.45,2a3.07,3.07,0,0,0,1.71.41c1.17-.17,1.74-1.56,1.8-2.75s-.13-2.47.46-3.51c2-.08,4-.06,6.05,0a3.93,3.93,0,0,0-.75-2.85l14.89-.83a20.47,20.47,0,0,1,7.57.53,6,6,0,0,0,2.5.57c.86-.1,1.73-.89,1.48-1.72A26.77,26.77,0,0,1,185,73.2a6,6,0,0,0,1.72,1.42,1.84,1.84,0,0,0,2.08-.25c.41-.45.61-1.22,1.21-1.25a1.29,1.29,0,0,1,.91.59A15,15,0,0,1,193,77.29a13,13,0,0,0,3.11-.82,3.39,3.39,0,0,0-.57,3.78c.5,1.26,1.4,2.33,2,3.54a14.71,14.71,0,0,1,1.2,4.11c.3,1.78.3,4-1.28,4.89-1.37.76-3.07-.05-4.33-1C189.65,89.2,189,90,186.19,92.83Z" transform="translate(-26.01 -68.53)"/><path class="cls-9" d="M203.62,250.26l23.08-2.08A3.6,3.6,0,0,0,230,244.4l0-.33a3.6,3.6,0,0,0-2.56-3.26l-3.73-1.12a3.68,3.68,0,0,0-1-.15h-8.46a3.11,3.11,0,0,0-.69.07c-1.79.35-10,2-10.33,2.26s-1.15.9-2.09,1.6a3.6,3.6,0,0,0-1.37,3.72l.07.31A3.6,3.6,0,0,0,203.62,250.26Z" transform="translate(-26.01 -68.53)"/><path class="cls-7" d="M192.34,243.05l9.33-2.67L219,238.05s11-3,12,6.33l-.93,1.58s.93-5.91-10.4-4.25c0,0-20.37-.68-19.51,7.33C200.15,249,193,247.71,192.34,243.05Z" transform="translate(-26.01 -68.53)"/><ellipse class="cls-7" cx="178.99" cy="168.52" rx="2.33" ry="0.33"/><rect class="cls-7" x="198.15" y="168.68" width="1.67" height="3"/><rect class="cls-7" x="178.16" y="168.68" width="1.67" height="3"/><ellipse class="cls-7" cx="224.66" cy="236.54" rx="0.83" ry="2.67" transform="translate(-102.6 293.18) rotate(-69.04)"/><path class="cls-6" d="M130.37,242.56a9.24,9.24,0,0,0,2.36,2,9.4,9.4,0,0,0,2.85.76q15.15,2.33,30.18,5.22a42.63,42.63,0,0,1,8.33,2.21c1.36.56,2.67,1.26,4,1.85,7.67,3.36,16.33,3.14,24.69,2.86a12.36,12.36,0,0,0,4.81-.8A3.5,3.5,0,0,0,209.8,254c.17-2.1-2.21-3.34-4.11-4.24a24,24,0,0,1-10.89-10.05c-.43-.78-.78-1.83-.18-2.49a2.39,2.39,0,0,1,1.88-.47q4.2.16,8.4-.08c1.45-.09,3.37-.78,3.14-2.21A2.67,2.67,0,0,0,207,233c-2.52-2.12-5.38-4.3-8.68-4.24a17,17,0,0,0-5,1.25c-8.73,3-18.12,3.13-27.33,3.07a33,33,0,0,1-6.73-.51,35.21,35.21,0,0,1-5.3-1.71,111.94,111.94,0,0,1-16.37-7.26c-2.06-1.18-4.35-2.56-6.64-2a7,7,0,0,0-2.73,1.67c-2.73,2.46-5,5.48-4.26,9.27C124.71,236.52,127.66,239.72,130.37,242.56Z" transform="translate(-26.01 -68.53)"/><path class="cls-3" d="M128.88,178.2c.86,2.79,1.37,5.73,2.85,8.24,1.57,2.67,4.18,4.73,5.08,7.69.64,2.09.34,4.33.34,6.53a12.86,12.86,0,0,0,1.84,7.12c.7,1.05,1.6,1.94,2.39,2.91,3.5,4.33,4.58,10.12,5,15.66-3.33-1.88-7.23-3.83-10.84-2.53a11.79,11.79,0,0,0-3.84,2.59,49.85,49.85,0,0,0-6.08,6.66c-1,1.26-1.88,2.79-1.47,4.31a70.57,70.57,0,0,1-5.51-8.9c-1.08-2.25-1.93-4.63-3.23-6.77-1.64-2.69-4-4.9-5.89-7.38-4.37-5.57-6.81-12.47-8-19.43s-1.24-14.09-1.21-21.17a12.46,12.46,0,0,1,3.39-10.31,15.05,15.05,0,0,1,3.8-3.67c4.84-2.85,10,1.88,13.28,5.11A32.53,32.53,0,0,1,128.88,178.2Z" transform="translate(-26.01 -68.53)"/><path class="cls-3" d="M212.41,162.21a4.63,4.63,0,0,1,1.07,1.45,5,5,0,0,1,.13,2.11,43.49,43.49,0,0,0,.89,12.62c.54,2.5,1.23,5.4-.37,7.4a6,6,0,0,0-.66.85c-.74,1.39.62,2.9,1.66,4.09a12.06,12.06,0,0,1,1.22,13.58,11.57,11.57,0,0,0-1.29,2.43,7.48,7.48,0,0,0-.21,2.21l0,5.57c-3.51-.47-7.42-.83-10.24,1.3-2.37,1.8-3.31,4.94-5.33,7.12s-5,3.45-5.76,6.21l0-11.52a25.85,25.85,0,0,0-.25-4.57c-.4-2.39-1.43-4.62-2-7a40,40,0,0,1-.89-9.41c-.08-5.22-.15-10.5.93-15.61.45-2.08,1.08-4.12,1.56-6.19.89-3.73,1.34-7.61,2.89-11.12s4.59-6.68,8.41-7.06C208.21,156.31,209.91,159.6,212.41,162.21Z" transform="translate(-26.01 -68.53)"/><ellipse class="cls-6" cx="225.16" cy="233.22" rx="2.33" ry="4.33" transform="translate(-112.45 75.29) rotate(-30)"/><ellipse class="cls-5" cx="225.16" cy="233.22" rx="2.33" ry="4.33" transform="translate(-112.45 75.29) rotate(-30)"/></svg>