<svg id="Layer_1" data-name="Layer 1" xmlns="http://www.w3.org/2000/svg" viewBox="0 0 305.81 245.5"><defs><style>.cls-1{fill:#3f3d56;}.cls-2{fill:#f2f2f2;}.cls-3{fill:#fff;}.cls-4{fill:#6c63ff;}.cls-5{fill:#2f2e41;}.cls-6{fill:#ffb8b8;}.cls-7{fill:#d0cde1;}</style></defs><title>how-7</title><rect class="cls-1" x="0.04" width="222.44" height="237.09"/><rect class="cls-2" x="12.44" y="12.78" width="210.04" height="224.31"/><rect class="cls-1" x="7.93" y="44.71" width="65.75" height="6.76"/><rect class="cls-1" x="7.93" y="61.24" width="65.75" height="6.76"/><rect class="cls-1" x="7.93" y="77.78" width="65.75" height="6.76"/><circle class="cls-1" cx="94.73" cy="48.09" r="5.64"/><circle class="cls-1" cx="94.73" cy="64.63" r="5.64"/><circle class="cls-1" cx="94.73" cy="81.16" r="5.64"/><rect class="cls-3" x="35.18" y="122.87" width="164.57" height="97.32"/><path class="cls-1" d="M84.24,247.18c2.58-.62,5.12-1.22,7.64-1.78l-3.48-13c1.21-.75,6.46,6.78,6.46,6.78L90.44,201.5c6,1.5,8.85,39.92,8.85,39.92l6.87-12.8-3.38,14.5c27.73-5.42,51.65-7.1,71.76-6.7l-3-11.15c1.21-.75,6.45,6.78,6.45,6.78l-4.41-37.66c6.05,1.51,8.85,39.93,8.85,39.93l6.87-12.81-3.58,15.36a220.53,220.53,0,0,1,41.17,6.22c-3-17.33-13.36-34-13.36-34,8,4.65,12.16,12.22,14.31,19.24a557.78,557.78,0,0,0-4.51-78.47c-1.09-8.49-2.45-17.28-4.09-26.25.09.38,2.57,10.9,5.41,26.25,4.43,23.87,9.72,59.43,8.24,86.74l-.31,8c3,.86,5.59,1.72,7.92,2.54Z" transform="translate(-47.4 -27)"/><circle class="cls-4" cx="63.54" cy="142.78" r="15.78"/><circle class="cls-4" cx="94.73" cy="48.09" r="2.25"/><circle class="cls-4" cx="94.73" cy="64.63" r="2.25"/><circle class="cls-4" cx="94.73" cy="81.16" r="2.25"/><rect class="cls-1" x="204.2" y="168.81" width="7.94" height="0.76"/><path class="cls-1" d="M264.12,196.19a22.76,22.76,0,0,0-6.48,3.61l1.3-3.61-1.3-3.61A23,23,0,0,0,264.12,196.19Z" transform="translate(-47.4 -27)"/><rect class="cls-1" x="22.52" y="168.81" width="7.94" height="0.76"/><path class="cls-1" d="M65.35,196.19a23.14,23.14,0,0,0,6.48-3.61l-1.3,3.61,1.3,3.6A23.12,23.12,0,0,0,65.35,196.19Z" transform="translate(-47.4 -27)"/><circle class="cls-4" cx="8.08" cy="6.45" r="2.66"/><circle class="cls-4" cx="17.94" cy="6.45" r="2.66"/><circle class="cls-4" cx="27.81" cy="6.45" r="2.66"/><rect class="cls-2" x="204.96" y="3.03" width="11" height="1.52"/><rect class="cls-2" x="204.96" y="5.69" width="11" height="1.52"/><rect class="cls-2" x="204.96" y="8.35" width="11" height="1.52"/><rect class="cls-5" y="236.81" width="305.81" height="0.71"/><polygon class="cls-6" points="244.41 225.82 245.68 232.17 239.33 233.44 240.28 225.5 244.41 225.82"/><polygon class="cls-6" points="264.4 224.55 262.81 232.49 255.2 232.49 258.37 222.97 264.4 224.55"/><path class="cls-5" d="M318.79,196.33l1.27,8.57-1.59,18.72s.32.32,0,1.27.63,1.59,0,1.91-1.27,3.8-1.27,3.8l-5.4,22.86s-6,0-7-2.54l1.59-13s0-7,.63-8.88.64-1.59.32-2.86-1.9-.63-.63-1.59l1.27-.95-1.91-1.27-3.81-17.77-6.66,24.12s-.32,7.94-1.27,10.79-2.22,15.24-2.22,15.24-5.4,1-5.72,0-.63-23.49-.63-27,1.9-2.86,1.27-4.13-.64-1.27-.64-1.9,1.27-.32.64-1.27-3.14-29.67-3.14-29.67Z" transform="translate(-47.4 -27)"/><path class="cls-5" d="M305.77,257.9a6.26,6.26,0,0,0,2.54,0c1-.32,0-2.22,0-2.22h3.49s3.81,8.57,5.4,9.2,6.66,7.62.63,7.62a19.76,19.76,0,0,1-10.47-3.17,4.2,4.2,0,0,0-3.49-3.18c-2.86-.32-4.76-3.81-4.76-3.81l4.12-7.61S304.19,258.22,305.77,257.9Z" transform="translate(-47.4 -27)"/><path class="cls-5" d="M290.86,257.58s-.64,1.27-1.27.64a8.62,8.62,0,0,1-1.27-2.22s-1.91-1-2.22,0-1.59,6-2.23,6.66-7.3,7.3-.63,8.57,7.93-1.59,7.93-1.59a1.45,1.45,0,0,1,1-2.22,3.71,3.71,0,0,0,2.22-2.85L293.08,255S291.81,258.22,290.86,257.58Z" transform="translate(-47.4 -27)"/><path class="cls-6" d="M326.09,174.11l1,16.5s4.44,10.48-1.59,10.16-2.22-10.47-2.22-10.47l-5.9-14.73Z" transform="translate(-47.4 -27)"/><path class="cls-6" d="M277.21,169.35l-.95,16.5s-4.45,10.48,1.58,10.16,2.23-10.47,2.23-10.47l5.9-14.73Z" transform="translate(-47.4 -27)"/><circle class="cls-6" cx="255.2" cy="98.23" r="8.25"/><path class="cls-6" d="M309.11,128.56s-2.23,8.89,2.22,11.11-14,5.4-15.24,0l.64-2.54s2.54-3.17,1.9-6Z" transform="translate(-47.4 -27)"/><path class="cls-7" d="M304.19,139.83s-5.48.51-7.18-3.08c0,0-12.82.86-15.68,12.6l4.77,30.47s1.27,5.4-.64,6.67-4.44,2.22-3.81,3.17c0,0-3.17,8.89,26,9.21l12.69-.64a17.43,17.43,0,0,0-.31-5.39c-.64-2.86-1.27-2.54-.64-4.45a6.11,6.11,0,0,0,.32-3.17L315.93,170s9.52-14.91,8.57-17.14-2.48-11-14.73-14.53C309.77,138.31,309.58,140.15,304.19,139.83Z" transform="translate(-47.4 -27)"/><path class="cls-7" d="M320.37,147.45l4.13,5.39s4.13,22.54,2.86,22.86-8.89,2.85-10.16,1.9-7-19.68-7-19.68Z" transform="translate(-47.4 -27)"/><path class="cls-7" d="M286.73,145.86l-5.4,3.49s-7.93,22.22-5.71,23.17,14.6.32,14.6.32Z" transform="translate(-47.4 -27)"/><path class="cls-5" d="M311.62,117.85s-2.86-6.2-8.34-4.77-8.57,3.58-8.81,5.72a30.38,30.38,0,0,0,.12,5.36s.59-4.41,4.41-3.45,9.76.23,9.76.23l.95,8.58s1.08-1.55,2.27-.6S315.43,119.75,311.62,117.85Z" transform="translate(-47.4 -27)"/><path class="cls-1" d="M340.22,254.81c3.48,6.44,10.85,9.21,10.85,9.21s1.74-7.68-1.73-14.13-10.85-9.2-10.85-9.2S336.75,248.37,340.22,254.81Z" transform="translate(-47.4 -27)"/><path class="cls-4" d="M342.61,252.69c6.27,3.77,8.69,11.27,8.69,11.27s-7.75,1.37-14-2.4-8.68-11.27-8.68-11.27S336.34,248.92,342.61,252.69Z" transform="translate(-47.4 -27)"/></svg>