<svg id="Layer_1" data-name="Layer 1" xmlns="http://www.w3.org/2000/svg" xmlns:xlink="http://www.w3.org/1999/xlink" viewBox="0 0 386.14 229.27"><defs><style>.cls-1{fill:none;stroke:#3f3d56;stroke-miterlimit:10;stroke-width:4px;}.cls-2,.cls-4{fill:#6c63ff;}.cls-3,.cls-4,.cls-5{opacity:0.1;}.cls-10,.cls-11,.cls-18,.cls-3,.cls-4,.cls-9{isolation:isolate;}.cls-6{opacity:0.2;}.cls-7{fill:#fff;}.cls-8{fill:#ededf4;}.cls-9{fill:#fa5959;}.cls-10,.cls-11,.cls-9{opacity:0.8;}.cls-10{fill:#fed253;}.cls-11{fill:#8ccf4d;}.cls-12{fill:url(#linear-gradient);}.cls-13{fill:#a1616a;}.cls-14{fill:#2f2e41;}.cls-15{fill:#303d5c;}.cls-16{fill:#e1e7ef;}.cls-17{fill:#67647e;}.cls-18{opacity:0.03;}</style><linearGradient id="linear-gradient" x1="1609.85" y1="-78.58" x2="1609.85" y2="83.91" gradientTransform="matrix(1, 0, 0, -1, -1518.79, 174.63)" gradientUnits="userSpaceOnUse"><stop offset="0" stop-color="gray" stop-opacity="0.25"/><stop offset="0.54" stop-color="gray" stop-opacity="0.12"/><stop offset="1" stop-color="gray" stop-opacity="0.1"/></linearGradient></defs><title>how-3</title><path class="cls-1" d="M354.62,236.86c2.11-3.91-.29-8.69-3-12.17s-6.1-7.11-6-11.55c.1-6.39,6.87-10.14,12.28-13.52a60.37,60.37,0,0,0,11-8.87,16.25,16.25,0,0,0,3.38-4.54c1.12-2.48,1.09-5.33,1-8.06q-.36-13.65-1.35-27.28" transform="translate(-7 -35)"/><path class="cls-2" d="M382.2,150.37a9.94,9.94,0,0,0-5-8.14l-2.22,4.4.06-5.33a10,10,0,1,0,6.74,12.36,10.11,10.11,0,0,0,.39-3.28Z" transform="translate(-7 -35)"/><path class="cls-2" d="M364.46,217.7a10,10,0,1,1,.49-8l-6.21,5.06,6.83-1.59A9.84,9.84,0,0,1,364.46,217.7Z" transform="translate(-7 -35)"/><path class="cls-2" d="M359.55,198.39a10,10,0,0,1-10.41-9.48h0a9.95,9.95,0,0,1,7.26-10l0,4.1,2.25-4.46h0a10,10,0,0,1,.93,19.88Z" transform="translate(-7 -35)"/><path class="cls-2" d="M383.69,182.32a9.95,9.95,0,1,1,4.4-18.61l-1.77,4.81,3.61-3.47a9.89,9.89,0,0,1,3.2,6.87,9.73,9.73,0,0,1-.25,2.74A10,10,0,0,1,383.69,182.32Z" transform="translate(-7 -35)"/><path class="cls-3" d="M380.86,153c-2.3.26-4.53,1-6.83,1.12s-4.84-.42-6.3-2.21a32.9,32.9,0,0,1-1.84-3.23,7.15,7.15,0,0,0-2.5-2.36,9.95,9.95,0,1,0,17.75,9,10.16,10.16,0,0,0,.85-2.39C381.61,153,381.23,153,380.86,153Z" transform="translate(-7 -35)"/><path class="cls-3" d="M383.69,182.32a10,10,0,0,1-9.46-14.19,7.22,7.22,0,0,1,2,2,33.9,33.9,0,0,0,2,3.28c1.55,1.82,4.2,2.42,6.6,2.31s4.72-.79,7.11-1c.33,0,.66-.05,1-.06A10,10,0,0,1,383.69,182.32Z" transform="translate(-7 -35)"/><path class="cls-3" d="M359.55,198.39a10,10,0,0,1-10.41-9.48h0a10,10,0,0,1,.86-4.53,8.27,8.27,0,0,1,2.11,2,33.6,33.6,0,0,0,2.15,3.36c1.68,1.87,4.5,2.53,7.05,2.46s4.83-.65,7.28-.84A10,10,0,0,1,359.55,198.39Z" transform="translate(-7 -35)"/><path class="cls-3" d="M364.46,217.7a9.95,9.95,0,0,1-18.12-8.12,10.12,10.12,0,0,1,2.18,1.95,38.94,38.94,0,0,0,2.66,3.54c2,2,5.33,2.81,8.24,2.89A42.32,42.32,0,0,0,364.46,217.7Z" transform="translate(-7 -35)"/><ellipse class="cls-4" cx="196.2" cy="211.15" rx="181.21" ry="18.12"/><g class="cls-5"><path class="cls-2" d="M39.28,74.44a6.49,6.49,0,0,1,1.6-6l2.2,2.33-1-3.3a6.46,6.46,0,1,1-1.93,8.92,6.34,6.34,0,0,1-.85-2Z" transform="translate(-7 -35)"/><path class="cls-3" d="M40.6,75.84c1.48-.26,3-.22,4.46-.56a4.83,4.83,0,0,0,3.52-2.52,20.74,20.74,0,0,0,.55-2.36,4.68,4.68,0,0,1,1.13-1.92,6.46,6.46,0,1,1-9.39,8.87,6.12,6.12,0,0,1-1-1.35Z" transform="translate(-7 -35)"/></g><g class="cls-5"><path class="cls-2" d="M340.64,36a5.23,5.23,0,0,1,5-.6l-1.1,2.35L346.69,36a5.21,5.21,0,1,1-7.27,1.23A5.32,5.32,0,0,1,340.65,36Z" transform="translate(-7 -35)"/><path class="cls-3" d="M340,37.38c.64,1,1.07,2.18,1.76,3.18a3.88,3.88,0,0,0,2.95,1.88,17.79,17.79,0,0,0,1.92-.29,3.73,3.73,0,0,1,1.78.27,5.22,5.22,0,1,1-8.75-5.53A5.36,5.36,0,0,1,340,37.38Z" transform="translate(-7 -35)"/></g><g class="cls-5"><path class="cls-2" d="M362.55,61.59a6,6,0,0,1,5.75-.69L367,63.62l2.53-2A6,6,0,1,1,361.13,63a5.94,5.94,0,0,1,1.42-1.41Z" transform="translate(-7 -35)"/><path class="cls-3" d="M361.78,63.22c.74,1.19,1.24,2.53,2,3.68a4.49,4.49,0,0,0,3.41,2.18c.76,0,1.48-.26,2.24-.33a4.27,4.27,0,0,1,2.06.31,6,6,0,1,1-10.13-6.4C361.53,62.84,361.66,63,361.78,63.22Z" transform="translate(-7 -35)"/></g><g class="cls-6"><path class="cls-1" d="M62.59,200.55c-3.13-3.15-2.18-8.42-.53-12.54s3.86-8.52,2.53-12.79c-1.89-6.09-9.45-7.79-15.59-9.51a59.79,59.79,0,0,1-13.06-5.38,16,16,0,0,1-4.53-3.4c-1.78-2.07-2.55-4.81-3.25-7.46q-3.53-13.2-6.4-26.55" transform="translate(-7 -35)"/><path class="cls-2" d="M11.73,125.36a10,10,0,0,1,2.47-9.22l3.38,3.6L16,114.64a10,10,0,1,1-4.26,10.72Z" transform="translate(-7 -35)"/><path class="cls-2" d="M47.75,184.94A9.95,9.95,0,1,0,45,177.4l7.38,3.09-7,.41A9.79,9.79,0,0,0,47.75,184.94Z" transform="translate(-7 -35)"/><path class="cls-2" d="M47,165a9.95,9.95,0,0,0-2.49-19.61l1.21,3.91-3.4-3.64h0a9.95,9.95,0,1,0,4.46,19.39L47,165Z" transform="translate(-7 -35)"/><path class="cls-2" d="M19.31,156.43a9.95,9.95,0,1,0-9.47-16.62l3,4.14-4.45-2.31a9.88,9.88,0,0,0-1.14,7.49,10.12,10.12,0,0,0,1,2.56A10,10,0,0,0,19.31,156.43Z" transform="translate(-7 -35)"/><path class="cls-3" d="M13.76,127.52c2.28-.4,4.62-.35,6.87-.86s4.53-1.76,5.42-3.88a31.39,31.39,0,0,0,.85-3.63,7,7,0,0,1,1.74-3A9.95,9.95,0,1,1,14.1,129.76a9.55,9.55,0,0,1-1.45-2C13,127.67,13.39,127.61,13.76,127.52Z" transform="translate(-7 -35)"/><path class="cls-3" d="M19.31,156.43a10,10,0,0,0,7.31-12,9.83,9.83,0,0,0-2.24-4.27A7.63,7.63,0,0,0,23,142.63a33.66,33.66,0,0,1-1,3.71c-1,2.19-3.35,3.5-5.69,4.08s-4.75.57-7.1,1c-.33.07-.66.14-1,.23A10,10,0,0,0,19.31,156.43Z" transform="translate(-7 -35)"/><path class="cls-3" d="M47,165a10,10,0,0,0,5.21-16.13,7.84,7.84,0,0,0-1.45,2.54,32.13,32.13,0,0,1-1.13,3.82c-1.06,2.27-3.6,3.69-6,4.35s-4.82.74-7.22,1.25A9.93,9.93,0,0,0,47,165Z" transform="translate(-7 -35)"/><path class="cls-3" d="M47.75,184.94A9.95,9.95,0,0,0,62.86,172a9.89,9.89,0,0,0-1.55,2.49,38.49,38.49,0,0,1-1.56,4.14c-1.38,2.49-4.3,4.21-7.08,5.11A43.92,43.92,0,0,1,47.75,184.94Z" transform="translate(-7 -35)"/></g><path class="cls-7" d="M356.42,59.87l-.07,177c-12.44,0,0,0-12.56.07H297.06l-.14-.06a28.73,28.73,0,0,0-21.75,0l-.12.05H228.22q-2.35-1-4.62-2.11a28,28,0,0,0-25.13,0q-2.26,1.15-4.62,2.11H147l-.12-.05a28.73,28.73,0,0,0-21.75,0L125,237H78.26A63.12,63.12,0,0,1,57,222.7V59.87Z" transform="translate(-7 -35)"/><path class="cls-8" d="M356.42,52.94v7.64H57V52.94a2.62,2.62,0,0,1,2.62-2.62H353.8a2.61,2.61,0,0,1,2.62,2.61Z" transform="translate(-7 -35)"/><circle class="cls-9" cx="54.74" cy="20.37" r="1.23"/><circle class="cls-10" cx="58.11" cy="20.37" r="1.23"/><circle class="cls-11" cx="61.48" cy="20.37" r="1.23"/><path class="cls-8" d="M96.26,60.58V237.33s-16-.06-39.26-.42V60.58Z" transform="translate(-7 -35)"/><path class="cls-8" d="M356.86,60.58v177c-.15.11-14.3-.16-14.92.07H317.6V60.58Z" transform="translate(-7 -35)"/><rect class="cls-7" x="55.41" y="34.21" width="28.42" height="3.55"/><rect class="cls-7" x="55.41" y="42.38" width="28.42" height="3.55"/><rect class="cls-7" x="55.41" y="50.55" width="28.42" height="3.55"/><rect class="cls-7" x="55.41" y="58.72" width="28.42" height="3.55"/><rect class="cls-7" x="55.41" y="66.9" width="28.42" height="3.55"/><rect class="cls-7" x="55.5" y="91.06" width="28.42" height="3.55"/><rect class="cls-7" x="55.5" y="99.23" width="28.42" height="3.55"/><rect class="cls-7" x="55.5" y="107.4" width="28.42" height="3.55"/><rect class="cls-7" x="55.5" y="115.57" width="28.42" height="3.55"/><rect class="cls-7" x="55.5" y="123.74" width="28.42" height="3.55"/><rect class="cls-7" x="55.58" y="147.9" width="28.42" height="3.55"/><rect class="cls-7" x="55.58" y="156.08" width="28.42" height="3.55"/><rect class="cls-7" x="55.58" y="164.25" width="28.42" height="3.55"/><rect class="cls-7" x="55.58" y="172.42" width="28.42" height="3.55"/><rect class="cls-7" x="55.58" y="180.59" width="28.42" height="3.55"/><rect class="cls-7" x="312.74" y="27.1" width="3.55" height="3.55"/><rect class="cls-7" x="317" y="27.1" width="3.55" height="3.55"/><rect class="cls-7" x="321.27" y="27.1" width="3.55" height="3.55"/><rect class="cls-7" x="325.53" y="27.1" width="3.55" height="3.55"/><rect class="cls-7" x="329.79" y="27.1" width="3.55" height="3.55"/><rect class="cls-7" x="312.74" y="42.02" width="3.55" height="3.55"/><rect class="cls-7" x="317" y="42.02" width="3.55" height="3.55"/><rect class="cls-7" x="321.27" y="42.02" width="3.55" height="3.55"/><rect class="cls-7" x="325.53" y="42.02" width="3.55" height="3.55"/><rect class="cls-7" x="329.79" y="42.02" width="3.55" height="3.55"/><rect class="cls-7" x="312.74" y="56.95" width="3.55" height="3.55"/><rect class="cls-7" x="317" y="56.95" width="3.55" height="3.55"/><rect class="cls-7" x="321.27" y="56.95" width="3.55" height="3.55"/><rect class="cls-7" x="325.53" y="56.95" width="3.55" height="3.55"/><rect class="cls-7" x="329.79" y="56.95" width="3.55" height="3.55"/><rect class="cls-7" x="312.74" y="71.87" width="3.55" height="3.55"/><rect class="cls-7" x="317" y="71.87" width="3.55" height="3.55"/><rect class="cls-7" x="321.27" y="71.87" width="3.55" height="3.55"/><rect class="cls-7" x="325.53" y="71.87" width="3.55" height="3.55"/><rect class="cls-7" x="329.79" y="71.87" width="3.55" height="3.55"/><rect class="cls-7" x="312.74" y="86.79" width="3.55" height="3.55"/><rect class="cls-7" x="317" y="86.79" width="3.55" height="3.55"/><rect class="cls-7" x="321.27" y="86.79" width="3.55" height="3.55"/><rect class="cls-7" x="325.53" y="86.79" width="3.55" height="3.55"/><rect class="cls-7" x="329.79" y="86.79" width="3.55" height="3.55"/><rect class="cls-7" x="312.74" y="101.72" width="3.55" height="3.55"/><rect class="cls-7" x="317" y="101.72" width="3.55" height="3.55"/><rect class="cls-7" x="321.27" y="101.72" width="3.55" height="3.55"/><rect class="cls-7" x="325.53" y="101.72" width="3.55" height="3.55"/><rect class="cls-7" x="329.79" y="101.72" width="3.55" height="3.55"/><rect class="cls-7" x="312.74" y="116.64" width="3.55" height="3.55"/><rect class="cls-7" x="317" y="116.64" width="3.55" height="3.55"/><rect class="cls-7" x="321.27" y="116.64" width="3.55" height="3.55"/><rect class="cls-7" x="325.53" y="116.64" width="3.55" height="3.55"/><rect class="cls-7" x="329.79" y="116.64" width="3.55" height="3.55"/><rect class="cls-7" x="312.74" y="131.56" width="3.55" height="3.55"/><rect class="cls-7" x="317" y="131.56" width="3.55" height="3.55"/><rect class="cls-7" x="321.27" y="131.56" width="3.55" height="3.55"/><rect class="cls-7" x="325.53" y="131.56" width="3.55" height="3.55"/><rect class="cls-7" x="329.79" y="131.56" width="3.55" height="3.55"/><rect class="cls-7" x="312.74" y="146.48" width="3.55" height="3.55"/><rect class="cls-7" x="317" y="146.48" width="3.55" height="3.55"/><rect class="cls-7" x="321.27" y="146.48" width="3.55" height="3.55"/><rect class="cls-7" x="325.53" y="146.48" width="3.55" height="3.55"/><rect class="cls-7" x="329.79" y="146.48" width="3.55" height="3.55"/><rect class="cls-7" x="312.74" y="161.41" width="3.55" height="3.55"/><rect class="cls-7" x="317" y="161.41" width="3.55" height="3.55"/><rect class="cls-7" x="321.27" y="161.41" width="3.55" height="3.55"/><rect class="cls-7" x="325.53" y="161.41" width="3.55" height="3.55"/><rect class="cls-7" x="329.79" y="161.41" width="3.55" height="3.55"/><rect class="cls-7" x="312.74" y="176.33" width="3.55" height="3.55"/><rect class="cls-7" x="317" y="176.33" width="3.55" height="3.55"/><rect class="cls-7" x="321.27" y="176.33" width="3.55" height="3.55"/><rect class="cls-7" x="325.53" y="176.33" width="3.55" height="3.55"/><rect class="cls-7" x="329.79" y="176.33" width="3.55" height="3.55"/><rect class="cls-7" x="312.74" y="191.25" width="3.55" height="3.55"/><rect class="cls-7" x="317" y="191.25" width="3.55" height="3.55"/><rect class="cls-7" x="321.27" y="191.25" width="3.55" height="3.55"/><rect class="cls-7" x="325.53" y="191.25" width="3.55" height="3.55"/><rect class="cls-7" x="329.79" y="191.25" width="3.55" height="3.55"/><path class="cls-8" d="M217.59,100.05l-11.22,1.67-23.15,3.46-51,7.62-.18,0-16.7,110-.07.43,190.09-83,.5-.22Zm76.83,35.3-5.86,2.22-8.63-4.19,5.81-2Zm-92.87-30.74.19,0,2.13,1.32-1.45.24-2.59.41h0l-2-1.36,3-.47Zm-1.82,2.46,1.88,1.3.95.66-.95.19-.71.14-1.88.37-2.72-2.1,3.22-.52h0Zm3-.48h0l1.83-.3,2.87,1.78-4.17.83-.92-.63-1.88-1.3Zm8.12-1.31,3.64-.59,2.71,1.42-3.91.78-1.45-.83-1.3-.74Zm3.44,2.75h0l1.68,1-.39.08-4.21.83-2.62-1.61,4.45-.88Zm-12,4.2,3.84-.77.57.4h0l.13.09.82.57-3.91.84-1.09-.87-.08-.07Zm4.51-.9,4.51-.9,1.07.65.19.12.31.19-4.55,1-.75-.53h0l-.14-.09Zm-14.46,27.25-8.84,2.33-2.56-4.53,8.35-2Zm-3.34-4.66-8.31,2-2.13-3.78,7.69-1.82.16,0,2,2.84v0Zm26.84-15.75.82.57-2,.43-2.39.52-.26,0-.65-.5-.75-.59-3.2-2.49,4.18-1,3,2.07h0Zm-14.7-.57.55-.12,5.1-1.17,3.17,2.46.75.59.67.52-6,1.29-.85-.71-.58-.48-2.49-2.09Zm10.74,2.67.56.42.19.15,2.72,2.11-6.15,1.46-3.36-2.84Zm-7.1,1-1.94.41h0l-10.19,2.21-.42.09L189,120.34l3.43-.78,8-1.83Zm-12.15,3.12,9.79-2.13h0l.84-.18,2-.43,3.37,2.84-2.25.53-.83.2-10.24,2.42-2.67-3.14-.08-.1Zm5.45,7.29L192.78,133l-3.34.81-2.59-3.61,5.82-1.38,2.38-.56Zm-5.21,1.78,5.56-1.35,3.35,3.95-8.78,2.31-.15,0-3-4.21Zm2.79-5.38,10.3-2.43.83-.2L209,125l3.8,3.2-1.66.4-3.19.77h0l-9.43,2.29Zm14-3.31,6.17-1.46,1.29,1,2.71,2.1-2.71.66-3.67.89Zm7.46-1.07-.68-.53.68-.17,4.27-1,4.32,3-5.26,1.28Zm0-1.2-1.18.28-2.95-2.29-.51-.39,1.3-.28,3.33-.71h.06l3.65,2.53Zm-10.24-6.75-2.64-2,3.95-.85,2.81,1.94Zm-.62.14-4.59,1-.71.16-.31.07-2.53-2.13,2.84-.61.71-.16,2-.42ZM200,117.35l-7.6,1.73-3.77.86-2-2.4,5.73-1.23,5.12-1.11Zm-11.89,2.71-4.33,1-3,.68L179,119.2l4.73-1,2.37-.52Zm-4.31,1.49,4.66-1.07,3.1,3.66-7.63,1.66-.21,0-2.65-3.69Zm8.12,3,.64.76,2.12,2.48-2,.51-6.13,1.42L184,126.26Zm7,7.44,8.74-2.13h0l3.78-.92,1.86-.45,3.8,3.2.28.23-.28.08-14.84,3.91Zm18.18-.93-3.2-2.7,3.2-.77,3.2-.78,4.2,3.26-6.54,1.73Zm3.81-4.4,5.31-1.29,4.43,3.07-5.55,1.47Zm5.95-1.44,6.1-1.48,4.66,2.86-6.34,1.7Zm-.54-.38-4.32-3,5.68-1.35,4.68,2.88Zm-4.87-3.37L217.77,119l5.45-1.17,3.84,2.34Zm-4.19-2.9-.17-.11-4.92-3.41L217,114l.06,0,5.56,3.43Zm-5.63-3.9-2.8-1.94,4.62-1,3,1.83Zm-9.72-2.14h0l1.18.92-1.46.31-.71.15-3.31.71-1.46-1.22,1.78-.36h0l.65-.13h0l2.29-.45.72-.14h0l.19.15h0Zm-9.6,1.64,3.24-.65,1.47,1.24-4.66,1-6.09,1.34L185,115.66Zm-6.57,3-2,.44-5,1.07-1.14-1.6,6.1-1.22.87-.17Zm-7.59,1.63-6.39,1.38-1-1.74,6.23-1.24Zm.31.44,1.83,2.54-6.75,1.54L172,120.67Zm2.14,3,2.64,3.68-7.35,1.59-2.1-3.72Zm2.95,4.12.47.63h0l2,2.84-.19,0-7.61,1.8L176.1,128Zm-3.4,9.66L171,138.26l-1.67-3.94,8.64-2Zm.25.44,2.56,4.54-9.67,2.58-2.05-4.86Zm2.81,5,3.06,5.41-10.34,2.94L173.44,144Zm.49-.13,8.89-2.35,3.63,5.06-9.46,2.69Zm9.41-2.49,9-2.34,4,4.72-9.39,2.67Zm9.51-2.48h0l14.49-3.83.74-.19,4.9,4.16-16.14,4.59Zm15.8-4.19,6.58-1.71,5.08,3.93-6.75,1.93Zm7.17-1.89,5.59-1.47,5.38,3.73-5.9,1.67Zm6.22-1.6,6.39-1.68,5.69,3.49-6.71,1.91Zm7-1.86,5.72-1.51,5.82,3.32-5.87,1.67Zm-.58-.36-4.64-2.84,5.57-1.37,4.75,2.71ZM233,123.23l-4.67-2.87,5.33-1.26,4.89,2.78ZM227.75,120l-3.83-2.33,5.21-1.13,3.91,2.22Zm-4.43-2.72-5.63-3.46,4.78-1.09,6,3.44Zm-6.23-3.83h0l-3-1.82,3-.64,1.71-.35,3.07,1.75Zm0-3-1.59.36h0l-1.94.43-.22-.14-.21-.13-1.12-.68,4.1-.82.54-.11,1.54.88Zm-6.43-.42-4.46.89-2.39-1.66,4.23-.84Zm-5.12,1-3.8.76-.11-.09-.71-.55-1.37-1.07,1.37-.27.71-.14,1.51-.3Zm-4.62.74.18.14-.18,0L195.64,113l-2-1.73,5.3-1.07ZM195,113.16l-2.84.57h0l-7.52,1.5-1.12-1.32-.47-.52.42-.08,6.75-1.34h0l2.73-.55Zm-11.48,1.54.55.64-.52.1-6.39,1.28-1.35-1.88,6.71-1.33Zm-6.9,2.13-6.16,1.23-1.1-1.93L175.3,115ZM170,118.16l-6.89,1.38-.84-2,6.63-1.31Zm.26.45,1,1.74-7.14,1.54-.8-1.89Zm1.23,2.19,1.53,2.7-7.51,1.71-1.21-2.86Zm1.78,3.14,2.1,3.71-8.09,1.76-1.58-3.74Zm2.35,4.16,2.11,3.73-8.58,2-1.69-4Zm-5.08,10.28-9.16,2.22-1.17-4.11,8.66-2.05Zm.19.46,2.06,4.87L163,146.3l-1.48-5.23Zm2.26,5.33,2.44,5.77-10.56,3-1.75-6.17Zm2.63,6.22,2.84,6.76-11.39,3.5L165,153.43Zm.47-.13,10.4-3,3.58,6.32L178.93,157Zm10.87-3.1,9.53-2.71,4.24,5.92-10.19,3.11Zm10-2.84,9.42-2.68,4.72,5.56-9.91,3Zm9.95-2.84,16.24-4.62,5.8,4.89L211.64,147Zm16.8-4.78,6.79-1.93,6,4.67-7,2.13Zm7.37-2.1,5.95-1.67,6.4,4.43-6.32,1.93Zm6.56-1.86,6.75-1.92,6.75,4.16L244,137.16Zm7.39-2.1,5.9-1.68,7,4-6.11,1.87Zm6.57-1.87,5.53-1.57L264.3,131l-5.74,1.76Zm-.59-.35-5.81-3.3,5.33-1.41,6,3.16Zm-6.42-3.66-4.74-2.69,5.18-1.26,4.85,2.56Zm-5.36-3.05-4.88-2.78,4.9-1.16,5.12,2.7Zm-5.5-3.14-3.89-2.22,4.78-1,4,2.1ZM229.22,116l-6-3.44,4.33-1L234,115Zm-6.66-3.8-3.06-1.75,4.18-.9,3.16,1.67Zm-3.7-2.11-1.53-.87,4.15-.83,1.53.81Zm-2.18-1.24-2.77-1.58,4-.78,2.93,1.54ZM212.53,107l-4.42.88-2.85-1.74,4.48-.71Zm-14.16,2.82-5.26,1-2.76-2.32,5.28-.86ZM192.5,111l-2.69.54-6.32,1.25-.76.15-2.36-2.77,3-.49,3.74-.61,2.59-.41Zm-10.32,2-6.66,1.33-2.21-3.07,6.5-1.07ZM175,114.5l-5.85,1.16-1.9-3.33,5.53-.9Zm-6.36,1.27-6.58,1.3-1.56-3.68,6.23-1Zm-7.07,1.42-6.47,1.28-1.14-4,6-1Zm.2.46.84,2L155.8,121l-.57-2Zm1,2.45.81,1.9-7.08,1.52-.58-2Zm1,2.36,1.21,2.86L157.51,127l-.86-3Zm1.41,3.32,1.57,3.73-8.06,1.74-1.07-3.75ZM167,130l1.7,4-8.61,2-1.21-4.29Zm-6.09,10.75-10,2.43-.55-4.32,9.42-2.23Zm.13.47,1.48,5.25-10.86,2.84-.71-5.65Zm1.62,5.7,1.75,6.19-11.83,3.36-.85-6.66Zm1.88,6.66,2.05,7.23-12.94,3.95-1-7.8Zm2.18,7.7,2.49,8.77-14.27,4.79-1.23-9.59Zm.47-.14,11.49-3.5,3.42,8.09-12.44,4.17Zm12-3.66L190.3,154l4.22,7.46-12,4Zm11.65-3.55L201,150.77l4.94,6.89-11,3.7Zm10.73-3.26,10-3,5.44,6.4-10.46,3.51Zm10.47-3.2,17.43-5.33,6.52,5.49-18.53,6.22ZM230,142l7.05-2.13,6.7,5.2-7.24,2.43Zm7.62-2.32,6.36-1.94,7,4.87-6.7,2.25Zm7-2.13,7.18-2.19,7.34,4.54-7.52,2.53Zm7.81-2.38,6.14-1.87,7.49,4.26-6.29,2.12Zm6.79-2.07,5.77-1.77,7.64,4-5.95,2Zm6.44-2,5.25-1.61,7.82,3.8-5.44,1.82Zm-.62-.33L257.82,127l5-1.42,7.4,3.59Zm-7.78-4.08-6-3.15,4.74-1.25,6.16,3Zm-6.6-3.48-4.83-2.55,4.57-1.11,5,2.41Zm-5.49-2.9L240,117.61l4.26-1,5.37,2.61Zm-5.77-3-4-2.09,4.13-.89,4.07,2Zm-4.62-2.45-6.47-3.41,3.65-.82,6.91,3.35Zm-7.13-3.75-3.15-1.67,3.48-.75,3.28,1.59Zm-3.82-2-1.52-.8,3.43-.68,1.53.73Zm-2.21-1.16-2.92-1.55,3.2-.64,3.1,1.51ZM217.94,106l-2.67-1.42,3.2-.52,2.66,1.3Zm-3.39-1.78L212.27,103l3-.47,2.38,1.16Zm-.81.14-3.44.54h0l-.47.07-2.2-1.25,1-.15,2.81-.43Zm-4.67.75-4.44.71-2.13-1.31,4.34-.68Zm-9.91,1.6-3.39.55-1.84-1.42,3.23-.5Zm-4,.64-5.24.85-1.78-1.5,5.16-.79Zm-5.88,1-2.56.42-3.3.53-3.36.54-1.4-1.64,4.7-.71,1.68-.26,2.46-.38Zm-9.81,1.57L173,110.91l-1.24-1.73,6.28-1Zm-7,1.13-5.47.88L166,110l5.26-.81Zm-6,1-6.16,1-.81-1.92,5.94-.9ZM159.8,113l-6,1-.57-2,5.74-.87Zm-6.47,1.07-6.09,1L147,113l5.79-.89Zm.14.47,1.13,4-6.75,1.34-.55-4.39Zm1.27,4.5.58,2-7.11,1.42-.27-2.11Zm.71,2.52.58,2.06-7.49,1.62-.29-2.25Zm.71,2.53.86,3L149,129l-.41-3.24Zm1,3.52,1.07,3.75-8.65,1.87-.49-3.78Zm1.2,4.22,1.23,4.3-9.35,2.21-.59-4.62Zm-8,11.43-10.76,2.61.08-4.54,10.13-2.39Zm.07.49.71,5.66-11.64,3.07.1-6.11Zm.79,6.15.85,6.68-12.73,3.62.13-7.2Zm.91,7.17,1,7.81-13.95,4.27.15-8.42Zm1.07,8.3,1.23,9.59L139,180.15l.19-10.51Zm1.29,10.09,1.58,12.29-17.33,6.56.24-13.64Zm.48-.15,14.34-4.82,3.13,11.06-15.9,6Zm14.8-5,12.49-4.19,4.26,10.07-13.62,5.16Zm13-4.35,12-4,5.19,9.18L187,176Zm12.51-4.2,11-3.7,6,8.37L200.42,171Zm11.51-3.86,10.5-3.52,6.53,7.69-11,4.18Zm11-3.7L236.39,148l7.65,6.45-19.75,7.49Zm19.17-6.43,7.25-2.42,7.81,6-7.46,2.82Zm7.81-2.62,6.75-2.27,8.12,5.62-7.07,2.68Zm7.33-2.46,7.56-2.54,8.39,5.16-7.86,3Zm8.17-2.74,6.32-2.13,8.47,4.83-6.42,2.43Zm6.94-2.33,6-2,8.55,4.51-6.09,2.31Zm6.6-2.22,5.47-1.83,8.67,4.21-5.61,2.13Zm11.29-4.3-5.78,1.94-7.79-3.77,5.68-1.73Zm-8.56-3.87L270.87,129l-7.38-3.59,5.48-1.55Zm-8.25-3.73-5.44,1.55-6.13-3,5.33-1.42Zm-7-3.15L256,121.76l-4.94-2.4,5.2-1.26Zm-5.74-2.6L250.38,119l-5.36-2.6,4.95-1.18Zm-6.32-2.85-4.92,1.17-4-2,4.87-1.06Zm-4.85-2.19-4.83,1-6.92-3.36,4.4-1Zm-8.06-3.67-4.38,1-3.25-1.58,4-.86-.06-.25Zm-4.09-1.85-4.26.92-1.51-.73,3.65-.73-.1-.46Zm-2.24-1-4.27.85-3.1-1.51,4.11-.81Zm-4-1.82-4.06.81-2.63-1.27,4.16-.67Zm-3.31-1.5-4.13.67-2.38-1.16,4-.62Zm-5.12-2.31,1.86.84-4,.62-1.78-.86Zm-4.79.71,1.77.87-3,.45-1.69-.89Zm-5.84.87h0l2.13-.32,1.7.9-2.61.39-1.17.19-1.61-.93Zm-2.35.35,1.62.93-4.32.65-1.54-.94Zm-5,.75,1.54,1-3.83.58-1.42-1Zm-4.41.66,1.42,1-3.2.49-1.3-1Zm-3.75.56,1.31,1-5.12.78-1.27-1Zm-8.17,1.22.13,0,2.34-.35,1.23,1-2.42.35-1.23.19-5.05.77-.95-1.11Zm-6.55,1,.95,1.11-6.23,1-.83-1.14Zm-6.65,1,.83,1.15-5.2.79-.67-1.19Zm-5.56.82.67,1.2-5.88.9-.52-1.24Zm-6.23.94.53,1.23-5.69.87-.35-1.28Zm-6,.89.35,1.28-5.72.88-.17-1.33Zm-12.08,1.81,6-.91.17,1.33-6.25,1Zm0,1.87,6.33-.93.27,2.11-6.62,1.07Zm-.05,2.72,6.7-1.08.57,4.38L140,121.47ZM140,122l7.4-1.47.27,2.11L140,124.15Zm0,2.67,7.8-1.55.28,2.25L140,127.09Zm-.06,3,8.21-1.77.41,3.24-8.68,2Zm-.07,4,8.75-2,.49,3.77-9.3,2Zm9.3,2.27.59,4.62-10,2.38.09-5ZM132.5,113.26l7.23-1.06,0,1.37-7.41,1.14Zm-.29,1.94,7.46-1.14,0,2.22-7.79,1.26Zm-.43,2.84,7.87-1.27-.11,4.8-8.57,1.7Zm-.87,5.74,8.64-1.72,0,2.17L130.57,126Zm-.44,2.76,9-1.8-.05,2.46-9.37,2Zm-.48,3.2,9.44-2-.06,3.46-10,2.27Zm-.64,4.21,10-2.28-.06,3.78-10.53,2.28Zm-.66,4.31,10.6-2.29-.09,5-11.32,2.68Zm-.89,5.9,11.39-2.7-.08,4.54-12,2.92Zm-.8,5.29,12.1-2.93-.12,6.1-13,3.43Zm-1.07,7.14L139,153.15l-.13,7.2-14.12,4Zm-1.26,8.31,14.19-4-.15,8.43L123.29,174Zm-1.48,9.61,15.5-4.73-.19,10.52-17,5.73Zm14.72,38.31-22,9.59,3-20.1,19.27-7.3Zm-18.87-11,2.32-15.18,17.13-5.75-.22,13.66Zm19.37,10.83.31-17.76,17.41-6.59,2,15.75Zm20.2-8.82-2-15.71,16-6L176.51,196Zm18.35-8L173,181.85l13.68-5.18L192,189.2ZM192.44,189l-5.28-12.5,13-4.94,6.39,11.27ZM207,182.65l-6.37-11.26,11.91-4.51,7.29,10.17Zm13.29-5.81L213,166.69l11.08-4.19,7.85,9.23Zm12.12-5.29-7.81-9.24,19.85-7.52,9,7.57Zm21.51-9.4-9-7.54,7.46-2.84,9.12,7.06Zm8.13-3.55-9.08-7,7.1-2.69,9.38,6.5Zm7.93-3.47-9.35-6.47,7.9-3,9.6,5.9Zm8.7-3.8-9.59-5.88,6.45-2.45,9.62,5.49Zm7.06-3.08-9.59-5.47,6.12-2.32,9.65,5.09Zm6.75-2.95-9.61-5.07,5.64-2.13,9.69,4.71Zm6.31-2.75-9.65-4.69,5.88-2.23,9.63,4.36Z" transform="translate(-7 -35)"/><polygon class="cls-8" points="210.06 75.27 210.06 98.11 185.65 103.62 176.99 92.59 176.23 70.54 176.21 69.77 198.25 65.83 210.06 75.27"/><polygon class="cls-3" points="210.06 75.43 210.06 98.11 185.91 103.56 185.65 103.62 176.99 92.59 176.23 70.54 185.25 78.82 210.06 75.43"/><polygon class="cls-3" points="210.06 75.5 210.06 98.11 185.91 103.56 185.25 78.82 209.66 75.67 210.06 75.5"/><polygon class="cls-2" points="196.65 73.26 195.44 71.17 194.24 69.09 193.04 71.17 191.84 73.26 193.89 73.26 193.89 82.88 194.6 82.88 194.6 73.26 196.65 73.26"/><polygon class="cls-2" points="203.97 93.24 202.77 91.15 201.94 92.59 195.73 86.71 195.24 87.23 201.57 93.23 201.57 93.24 200.37 95.32 202.77 95.32 205.17 95.32 203.97 93.24"/><polygon class="cls-2" points="206.83 82.05 204.57 81.22 204.95 83.4 196.84 84.84 196.97 85.54 205.07 84.1 205.39 85.97 207.24 84.42 209.09 82.88 206.83 82.05"/><path class="cls-12" d="M117.41,140.5c-.6-4-4.22-13.31-4.22-13.31h0c-.07-.28-.14-.56-.22-.83-2.58-8.86-6.14-9.64-6.14-9.64L94.06,114a1.07,1.07,0,0,1,.26.26.46.46,0,0,0-.2,0A4.91,4.91,0,0,1,93,111.86c0-.13,0-.27-.07-.41a9,9,0,0,0,.16-12.7,7.48,7.48,0,0,0-.89-.8,3.91,3.91,0,0,0-.41-.3A2,2,0,0,0,92,95.23a8.41,8.41,0,0,0-5.45-4.06,9.14,9.14,0,0,0-5.28-.12,19.92,19.92,0,0,0-2.77,1.29c-1.7.85-3.55,1.51-4.84,2.91a1.43,1.43,0,0,0-.48,1.17,3,3,0,0,0,.48.85,2.63,2.63,0,0,1,0,2.13c-.24.69-.61,1.33-.79,2a2.17,2.17,0,0,0,.43,2.06,7.62,7.62,0,0,0,.8.56,4.46,4.46,0,0,1,.76.86l1.51,2a21,21,0,0,1,1.89,2.88,14.94,14.94,0,0,0,1.17,2.2,3.14,3.14,0,0,0,.51.52l-.15-.06a2.27,2.27,0,0,0,1.69.65h.08a.42.42,0,0,0,.3-.12v.28c0,1,0,2,0,3l-.12-.06a1,1,0,0,0-1.1.11l-11.76,9.44a15.46,15.46,0,0,0-2.2,9.53l-2.06,9S62,152.08,64,157.56s3.13,8.62,3.13,8.62.79,6.24,2,6.76,1.71.78,1.71.78l.23,1.49h0l.22.39c.87,1.51,4.08,6.82,5.94,6.25a22.89,22.89,0,0,1,.3,4.37l1.85,12.39a18.57,18.57,0,0,1,1.21,5.13C80.46,205.5,82,208,82,208a8.21,8.21,0,0,0-.79,5.77C82,217.06,83,232.26,83,232.26L84.34,236l0,4.29a4.09,4.09,0,0,1-.85,1.91c-.89,1-.83,2.09-3,3.41S77,247.38,77,249.14a4.37,4.37,0,0,1-.06.72c-.2,1.29-.59,2,3.36,2.35A10.37,10.37,0,0,0,88,249.63s.68-1.24,3.91-1.74c0,0,1.09-.06,1.16-1,0-.33,0-1,0-1.68a10.59,10.59,0,0,0-.36-3,7.47,7.47,0,0,1-.71-1.94h.89s.84-6.23,0-10.27a16.52,16.52,0,0,1-.08-6.89l-.16-10.66a3,3,0,0,1-.23-3.26c.87-2.08,0-12.34,0-12.34s.31-3.69,1.22-4.55,0-5.4,0-5.63l1.63,5.44s.71,10.82,2.22,12.79l.43,4.89s3.09,4.51,2.49,6.94.64,11.21.64,11.21v9s-1.39,3.6.55,4.89l.83,0c-.28.26-.48.64-.8,1a7.67,7.67,0,0,0-.71,3.09c-.1,1.07-.13,2-.13,2a3.21,3.21,0,0,0,2.38,1.42c1.54.09,6.66,4,6.66,4s5,0,6.36-.26h.07a1.77,1.77,0,0,0,1-.81,2,2,0,0,0,.24-1.48,3.69,3.69,0,0,0-2.13-2.34c-3.4-1.78-3.91-3.47-3.91-3.47l-2.22-3.33h.32a14.17,14.17,0,0,1,2.22-7.48l-.16-17.47s1-6-.71-9.23c0,0-.14-3.45,1-4.51s-1.52-11.76-1.52-11.76-.54-5.74-1.19-11h0c2.67,2.53,5.45-6.6,5.91-8.22h.07a.41.41,0,0,0,0-.13l0-.11h0s-.59-2.12-.16-1.69,1.51-1.17,1.51-1.17-.16-8.74,1.7-13.15S117.41,140.5,117.41,140.5Zm-8,5.58v0c.28,5.33,0,16.72,0,16.72s-.36,1.46-.76,3.18l-.28-10.82h0L108.08,145ZM75.33,142.4s1.35,16.86,0,19.29a12.47,12.47,0,0,0-1,3.33c-.45-1.17-1.39-3.91-1.07-5.37.44-1.88-.87-6.82-.87-6.94a11.63,11.63,0,0,1,.83-4.76c1-2,.32-2.88.32-2.88s.79-3.31,1.75-2.68Z" transform="translate(-7 -35)"/><path class="cls-13" d="M78.6,180.34c-1.18,5.16-5.84-2.64-6.91-4.52l-.21-.38.5-2.38L74.66,172a7.7,7.7,0,0,1,1.2.78A7.23,7.23,0,0,1,78.6,180.34Z" transform="translate(-7 -35)"/><path class="cls-13" d="M114.82,171.89a.39.39,0,0,1,0,.12l0,.13c-.46,1.61-3.18,10.68-5.81,8.17-2.87-2.76-1.47-9.11-1.47-9.11h0l6-.62,1.2,1.23h0Z" transform="translate(-7 -35)"/><path class="cls-14" d="M111.31,216.52l.16,17.3a14.31,14.31,0,0,0-2.18,7.44l-7.82.31c-1.9-1.29-.54-4.86-.54-4.86V227.8s-1.21-8.71-.62-11.12-2.45-6.89-2.45-6.89l-.43-4.86c-1.48-2-2.18-12.68-2.18-12.68l-1.59-5.4c0,.23.86,4.76,0,5.59S92.45,197,92.45,197s.86,10.2,0,12.26a3,3,0,0,0,.23,3.23L92.84,223a16.49,16.49,0,0,0,.08,6.84c.82,4,0,10.2,0,10.2H84.51l0-4.32-1.36-3.67s-.93-15.1-1.67-18.37A8.15,8.15,0,0,1,82.3,208s-1.56-2.49-1.48-4.25a18,18,0,0,0-1.18-5.07l-1.81-12.3a24,24,0,0,0-.89-7c-1.07-3.5-2.61-8.09-2.61-8.09l1.76.16,8.88.78s21.55-1.45,22.52-.24a4,4,0,0,1,.4,1.25c1,4.35,2.25,18,2.25,18s2.6,10.62,1.49,11.67-1,4.47-1,4.47C112.28,210.56,111.31,216.52,111.31,216.52Z" transform="translate(-7 -35)"/><path class="cls-15" d="M93.1,246.63c-.06,1-1.14,1-1.14,1-3.15.5-3.82,1.73-3.82,1.73a10.16,10.16,0,0,1-7.59,2.56c-3.88-.35-3.5-1.06-3.3-2.34a4.25,4.25,0,0,0,.06-.71c0-1.75,1.34-2.25,3.45-3.55s2-2.43,2.91-3.39a5.35,5.35,0,0,0,1-2.84c1-1.72,3.5.26,3.5.26.11.61,3.85.53,3.85.53a8.5,8.5,0,0,0,.75,2.1,10.49,10.49,0,0,1,.35,3C93.11,245.64,93.12,246.28,93.1,246.63Z" transform="translate(-7 -35)"/><path class="cls-3" d="M93.1,246.63c-.06,1-1.14,1-1.14,1-3.15.5-3.82,1.73-3.82,1.73a10.16,10.16,0,0,1-7.59,2.56c-3.88-.35-3.5-1.06-3.3-2.34,1.73.43,5,1,7,0,2.69-1.46,4.62-2.49,4.62-2.49L93.09,245C93.11,245.64,93.12,246.28,93.1,246.63Z" transform="translate(-7 -35)"/><path class="cls-15" d="M116.84,251.81a1.68,1.68,0,0,1-1,.8h-.07a61.77,61.77,0,0,1-6.25.26s-5-3.88-6.53-4a3.21,3.21,0,0,1-2.34-1.42s0-.9.13-1.95a7.49,7.49,0,0,1,.69-3.07c.67-.71.82-1.66,2.33-1.06,0,0,2.16-3.8,4.7-.86l2.63,4s.49,1.66,3.82,3.45a3.61,3.61,0,0,1,2.09,2.32A2.08,2.08,0,0,1,116.84,251.81Z" transform="translate(-7 -35)"/><path class="cls-3" d="M116.84,251.81l-1,.8h-.07a61.77,61.77,0,0,1-6.25.26s-5-3.88-6.53-4a3.21,3.21,0,0,1-2.34-1.42s0-.9.13-1.95c1.54.46,3.88,1.28,4.51,2.16a18.87,18.87,0,0,0,3.89,3.2s5.44-.53,7.86-.6A2.07,2.07,0,0,1,116.84,251.81Z" transform="translate(-7 -35)"/><path class="cls-13" d="M95.63,116.05l-7.18,7.59s-8.7-.64-7.18-3.2c.78-1.31.9-4,.83-6.43s-.3-4.26-.3-4.26,12.2-6.07,11.26-.41a9.22,9.22,0,0,0,0,3.23A4.27,4.27,0,0,0,95.63,116.05Z" transform="translate(-7 -35)"/><path class="cls-3" d="M93.07,109.34a9.47,9.47,0,0,0,0,3.23c-1.62,1.65-3.88,1.28-6.39,1.28-1.66,0-3.44,0-4.77-.76-.06-2.29-.08-3.34-.08-3.34S94,103.68,93.07,109.34Z" transform="translate(-7 -35)"/><path class="cls-13" d="M95.63,105.78a9,9,0,1,1-9-9A9,9,0,0,1,95.63,105.78Z" transform="translate(-7 -35)"/><path class="cls-3" d="M107.86,173.23c-2.24,5.33-16.63,5.43-16.63,5.43v-5.8l-.87-.06c.37,1.66-.53,5.72-.53,5.72-11.37,1.6-14.15-4.87-14.15-4.87l.39-2.22,8.89.79s21.55-1.45,22.51-.25A4,4,0,0,1,107.86,173.23Z" transform="translate(-7 -35)"/><path class="cls-16" d="M91.23,178v-5.8l-.87-.06c.37,1.66-.53,5.72-.53,5.72-8.57,1.21-12.25-2.17-13.55-3.91a4.88,4.88,0,0,1-.6-1l3.47-19.54L80,124.62l1.25-5,.29-2.43v0h0l.89.38,5.29,2.3,6-4.55.09-.07.3-.22.5.4,1.23,1,4,25.62s6.89,19.73,8.18,27.69c0,.32.09.61.12.89C109,177.83,91.23,178,91.23,178Z" transform="translate(-7 -35)"/><circle class="cls-17" cx="81.36" cy="85.37" r="0.51"/><circle class="cls-17" cx="81.6" cy="90.04" r="0.51"/><circle class="cls-17" cx="82.11" cy="97.59" r="0.51"/><circle class="cls-17" cx="82.96" cy="105.73" r="0.51"/><circle class="cls-17" cx="83.47" cy="113.38" r="0.51"/><circle class="cls-17" cx="83.98" cy="121.52" r="0.51"/><circle class="cls-17" cx="83.78" cy="129.57" r="0.51"/><path class="cls-3" d="M81.85,156.24s-.57,7.49-1.62,9.66-1.52,8.29-1.52,8.29l-2.43-.28a4.81,4.81,0,0,1-.6-1l3.47-19.55L80,124.62l1.25-5,.29-2.42h0a.93.93,0,0,1,.86,0l.12.06c0,.1-.07.2-.1.3A47.06,47.06,0,0,0,81.12,126s1.37,10,1.52,14.7S81.85,156.24,81.85,156.24Z" transform="translate(-7 -35)"/><path class="cls-3" d="M75.86,172.75a1.62,1.62,0,0,1-.1.18c-.94,1.6-3.34,2.62-4.07,2.89l-.21-.38.5-2.38L74.66,172A7.7,7.7,0,0,1,75.86,172.75Z" transform="translate(-7 -35)"/><path class="cls-15" d="M69.38,134.55l-2.22,1.32-2,9s-2.53,7.62-.59,13.07,3.07,8.56,3.07,8.56.78,6.18,1.95,6.69,1.68.77,1.68.77l.23,1.48s3.16-1.06,4.28-3-.82-6.61-.82-6.61-1.67-4-1.25-5.87-.85-6.75-.85-6.88a11.64,11.64,0,0,1,.81-4.73c.94-2,.32-2.86.32-2.86l-.59-5.72Z" transform="translate(-7 -35)"/><path class="cls-3" d="M108,171.55s-5.87,2.21-7.74.27-1.67-11-1.67-11S96.85,144,95.71,141.2s-.54-22.68-.54-22.68a12.1,12.1,0,0,0-1.42-3.25l-.14-.11.22,0,.8.17,1.24,1,4,25.62s6.88,19.73,8.17,27.69Z" transform="translate(-7 -35)"/><path class="cls-3" d="M114.82,172.13h-.07c-.74.09-7.27.88-7.29-.48,0-.15,0-.31,0-.47l6-.61,1.2,1.22h0q0,.12.06.21Z" transform="translate(-7 -35)"/><path class="cls-15" d="M108.55,125.55l4.29,2.24S116.4,137,117,141c0,0,2.65,10.62.82,15s-1.67,13.05-1.67,13.05-1.07,1.59-1.48,1.16.15,1.67.15,1.67-7.33,1-7.36-.46,1.68-8.33,1.68-8.33.47-16.38-.19-18.94S108.55,125.55,108.55,125.55Z" transform="translate(-7 -35)"/><path class="cls-3" d="M95.75,143s-2.41,5.91-3.2,6.3.16,2,.16,2S97.12,145.09,95.75,143Z" transform="translate(-7 -35)"/><path class="cls-3" d="M94.31,122.25c0-.11-2.88,2.85-3.65,3.3S93.5,125.52,94.31,122.25Z" transform="translate(-7 -35)"/><path class="cls-3" d="M86.22,142.53s-4.43,2.87-3.85,4S86.22,142.53,86.22,142.53Z" transform="translate(-7 -35)"/><path class="cls-3" d="M94.27,184.38a23.89,23.89,0,0,0,9.65,3Z" transform="translate(-7 -35)"/><path class="cls-3" d="M85.21,190.22s3.5,4.39,5.1,4.51S85.21,190.22,85.21,190.22Z" transform="translate(-7 -35)"/><path class="cls-3" d="M90.11,207.45c-.15.08-2,4-3.85,4.09S90.11,207.45,90.11,207.45Z" transform="translate(-7 -35)"/><path class="cls-3" d="M106.33,216s3.47-.78,4.24,1.71C110.57,217.68,110.34,216.9,106.33,216Z" transform="translate(-7 -35)"/><path class="cls-3" d="M104,230.21s4.2-.86,5.1.31S104,230.21,104,230.21Z" transform="translate(-7 -35)"/><path class="cls-3" d="M92.11,232.19s-4.26.86-4.11,1.4,4.56.47,4.72-.39a.82.82,0,0,0-.57-1Z" transform="translate(-7 -35)"/><path class="cls-3" d="M102.6,235.89s7-.86,6.58.62S102.6,235.89,102.6,235.89Z" transform="translate(-7 -35)"/><path class="cls-3" d="M65.78,149.28c0,.12,4.62.74,5.26,2.22,0,0-4.52-2.1-5.22-2.1" transform="translate(-7 -35)"/><path class="cls-3" d="M72.25,161.31s-3.81,1.21-3.55,3S68.33,163.49,72.25,161.31Z" transform="translate(-7 -35)"/><path class="cls-3" d="M70.48,170.57s1.39-1.91,2.71-1.55S70.48,170.57,70.48,170.57Z" transform="translate(-7 -35)"/><path class="cls-3" d="M92.25,98.76a2,2,0,0,1-.44.33c-1.11.64-1.41,1.63-1.94,2.77a5.88,5.88,0,0,1-2,2.73c-1.26.77-2.93.49-4.26,1.15A3.3,3.3,0,0,0,81.85,109a9.27,9.27,0,0,0,.37,1.49,10.44,10.44,0,0,1,.4,3.24.17.17,0,0,1,0,.1,9,9,0,1,1,9.63-15.06Z" transform="translate(-7 -35)"/><path class="cls-14" d="M92,96.05a8.29,8.29,0,0,0-5.33-4,9,9,0,0,0-5.19-.12,19.7,19.7,0,0,0-2.71,1.28c-1.66.84-3.5,1.51-4.75,2.89a1.41,1.41,0,0,0-.47,1.16,3,3,0,0,0,.46.84,2.63,2.63,0,0,1,0,2.13c-.24.71-.6,1.33-.78,2a2.15,2.15,0,0,0,.42,2,8.68,8.68,0,0,0,.79.56,4.71,4.71,0,0,1,.75.85l1.48,2a21.69,21.69,0,0,1,1.86,2.84,13,13,0,0,0,1.15,2.18,2.49,2.49,0,0,0,2.08,1.11.42.42,0,0,0,.33-.16.45.45,0,0,0,0-.2,10.71,10.71,0,0,0-.4-3.24,9.3,9.3,0,0,1-.38-1.49,3.31,3.31,0,0,1,1.76-3.25c1.32-.67,3-.38,4.27-1.15a5.83,5.83,0,0,0,2-2.73c.53-1.15.82-2.14,1.93-2.77A1.94,1.94,0,0,0,92,96.05Z" transform="translate(-7 -35)"/><path class="cls-3" d="M88,242.94s1.37,1.75,1,2.74S88,242.94,88,242.94Z" transform="translate(-7 -35)"/><path class="cls-3" d="M106.59,247.31s.31-2.34,1.53-2.37a4.1,4.1,0,0,1,2.22.24c.93.35,1.81.92,1.53,1s-1.61-1.34-3-.61A9.8,9.8,0,0,0,106.59,247.31Z" transform="translate(-7 -35)"/><path class="cls-3" d="M83.9,122.75l3.84-2.7s-5.63-3.33-6.3-2.86-1.13,4.67-1.13,4.67Z" transform="translate(-7 -35)"/><path class="cls-16" d="M83.88,122.57l3.85-2.76s-5.63-3.32-6.31-2.84-1.13,4.9-1.13,4.9Z" transform="translate(-7 -35)"/><path class="cls-18" d="M83.88,122.57l3.85-2.76s-5.63-3.32-6.31-2.84-1.13,4.9-1.13,4.9Z" transform="translate(-7 -35)"/><path class="cls-15" d="M82.06,117l-.11-.06a1,1,0,0,0-1.07.11l-11.54,9.37s-2.51,3.47-2.16,9.46L74,145.52s.77-3.27,1.71-2.65c0,0,1.32,16.73,0,19.14s-1.9,11.43-1.9,11.43l4.47.5s.47-6.1,1.52-8.28S81.39,156,81.39,156s.94-10.88.78-15.55-1.51-14.7-1.51-14.7S81,119.87,82.06,117Z" transform="translate(-7 -35)"/><path class="cls-3" d="M93.57,121l-4.8-1.78s6.11-6.69,6.87-3Z" transform="translate(-7 -35)"/><path class="cls-16" d="M93.57,120.81,88.77,119s6.11-6.7,6.86-3Z" transform="translate(-7 -35)"/><path class="cls-18" d="M93.57,120.81,88.77,119s6.11-6.7,6.86-3Z" transform="translate(-7 -35)"/><path class="cls-3" d="M93.41,115.12a.24.24,0,0,1,.2,0Z" transform="translate(-7 -35)"/><path class="cls-15" d="M93.87,114.65l12.74,2.74s3.5.78,6,9.57-3.47,19.57-3.47,19.57l-1.32-1.13.66,25.68s-5.87,2.21-7.74.27-1.67-11-1.67-11-1.78-16.81-2.92-19.57-.56-22.68-.56-22.68S94.59,114.49,93.87,114.65Z" transform="translate(-7 -35)"/><path class="cls-3" d="M105.52,131a72.66,72.66,0,0,0,.39,13.86,74.69,74.69,0,0,0,2.2,10.66L107,131.83S106.06,130.5,105.52,131Z" transform="translate(-7 -35)"/><path class="cls-3" d="M104,124.32c.31.19,1.67,3.42,1.05,4.75S104,124.32,104,124.32Z" transform="translate(-7 -35)"/><path class="cls-3" d="M92,96.05a7.06,7.06,0,0,0-2.8-2.93,6.77,6.77,0,0,1,2.1,2.47,2,2,0,0,1-.69,2.8c-1.07.62-1.4,1.63-1.93,2.77a5.88,5.88,0,0,1-2,2.73c-1.27.77-2.94.49-4.27,1.15a3.34,3.34,0,0,0-1.76,3.25,9.3,9.3,0,0,0,.38,1.49,10.75,10.75,0,0,1,.4,3.24.52.52,0,0,1,0,.21.39.39,0,0,1-.33.15,1.87,1.87,0,0,1-1-.18,2.24,2.24,0,0,0,1.66.65.32.32,0,0,0,.35-.28.11.11,0,0,0,0-.08,10.37,10.37,0,0,0-.39-3.23,8.81,8.81,0,0,1-.38-1.49,3.3,3.3,0,0,1,1.78-3.25c1.31-.67,3-.39,4.26-1.15a5.91,5.91,0,0,0,2-2.74c.54-1.14.83-2.13,1.94-2.77A2,2,0,0,0,92,96.05Z" transform="translate(-7 -35)"/></svg>