<svg id="Layer_1" data-name="Layer 1" xmlns="http://www.w3.org/2000/svg" viewBox="0 0 300.21 275.78"><defs><style>.cls-1{fill:#e6e6e6;}.cls-2{fill:#fff;}.cls-3{fill:#ccc;}.cls-4{fill:#6c63ff;}.cls-5{fill:#3f3d56;}.cls-6{fill:#f2f2f2;}.cls-7{fill:#2f2e41;}.cls-8{fill:#ffb8b8;}</style></defs><title>how-5</title><path class="cls-1" d="M187.51,77.54H186V36a24,24,0,0,0-24-24H74A24,24,0,0,0,50,36h0V263.75a24,24,0,0,0,24,24h88a24,24,0,0,0,24-24V107.08h1.52Z" transform="translate(-50 -12)"/><path class="cls-2" d="M162.94,18.25H151.46A8.52,8.52,0,0,1,143.57,30H93.18a8.52,8.52,0,0,1-8.52-8.52,8.67,8.67,0,0,1,.63-3.22H74.57A17.94,17.94,0,0,0,56.63,36.19v227.4a17.94,17.94,0,0,0,17.94,17.94h88.37a17.94,17.94,0,0,0,17.94-17.94h0V36.19a17.94,17.94,0,0,0-17.94-17.94Z" transform="translate(-50 -12)"/><path class="cls-3" d="M67.6,125.27a.38.38,0,0,1-.38-.38V111.63a.38.38,0,0,1,.76,0v13.26A.38.38,0,0,1,67.6,125.27Z" transform="translate(-50 -12)"/><path class="cls-3" d="M70.25,127.36a.38.38,0,0,1-.38-.38V109.55a.38.38,0,0,1,.76,0V127A.38.38,0,0,1,70.25,127.36Z" transform="translate(-50 -12)"/><path class="cls-3" d="M72.9,128.68a.38.38,0,0,1-.37-.38V108.22a.38.38,0,1,1,.75,0V128.3A.38.38,0,0,1,72.9,128.68Z" transform="translate(-50 -12)"/><path class="cls-3" d="M75.56,132.09a.38.38,0,0,1-.38-.37V104.81a.38.38,0,0,1,.76,0v26.91A.38.38,0,0,1,75.56,132.09Z" transform="translate(-50 -12)"/><path class="cls-3" d="M78.21,137.21a.38.38,0,0,1-.38-.38V99.7a.38.38,0,1,1,.76,0v37.13A.38.38,0,0,1,78.21,137.21Z" transform="translate(-50 -12)"/><path class="cls-3" d="M80.86,132.09a.38.38,0,0,1-.38-.37V104.81a.38.38,0,0,1,.76,0v26.91A.38.38,0,0,1,80.86,132.09Z" transform="translate(-50 -12)"/><path class="cls-3" d="M83.51,134.56a.38.38,0,0,1-.37-.38V102.35a.38.38,0,1,1,.75,0v31.83A.38.38,0,0,1,83.51,134.56Z" transform="translate(-50 -12)"/><path class="cls-3" d="M86.17,128.12a.38.38,0,0,1-.38-.38V108.79a.38.38,0,1,1,.76,0v18.95A.38.38,0,0,1,86.17,128.12Z" transform="translate(-50 -12)"/><path class="cls-3" d="M88.82,129.63a.38.38,0,0,1-.38-.38v-22a.38.38,0,0,1,.76,0v22A.38.38,0,0,1,88.82,129.63Z" transform="translate(-50 -12)"/><path class="cls-3" d="M91.47,125.27a.38.38,0,0,1-.38-.38V111.63a.38.38,0,0,1,.76,0v13.26A.38.38,0,0,1,91.47,125.27Z" transform="translate(-50 -12)"/><path class="cls-3" d="M93.75,125.27a.38.38,0,0,1-.38-.38V111.63a.38.38,0,1,1,.75,0v13.26A.38.38,0,0,1,93.75,125.27Z" transform="translate(-50 -12)"/><path class="cls-3" d="M96.4,127.36A.38.38,0,0,1,96,127V109.55a.38.38,0,1,1,.76,0V127A.38.38,0,0,1,96.4,127.36Z" transform="translate(-50 -12)"/><path class="cls-3" d="M99.05,128.68a.38.38,0,0,1-.38-.38V108.22a.38.38,0,0,1,.76,0V128.3A.38.38,0,0,1,99.05,128.68Z" transform="translate(-50 -12)"/><path class="cls-3" d="M101.7,132.09a.38.38,0,0,1-.38-.37V104.81a.38.38,0,0,1,.76,0v26.91A.38.38,0,0,1,101.7,132.09Z" transform="translate(-50 -12)"/><path class="cls-3" d="M104.36,143.27a.38.38,0,0,1-.38-.38V93.63a.38.38,0,1,1,.75,0v49.26A.38.38,0,0,1,104.36,143.27Z" transform="translate(-50 -12)"/><path class="cls-3" d="M107,132.09a.38.38,0,0,1-.38-.37V104.81a.38.38,0,0,1,.76,0v26.91A.38.38,0,0,1,107,132.09Z" transform="translate(-50 -12)"/><path class="cls-3" d="M109.66,134.56a.38.38,0,0,1-.38-.38V102.35a.38.38,0,0,1,.76,0v31.83A.38.38,0,0,1,109.66,134.56Z" transform="translate(-50 -12)"/><path class="cls-3" d="M112.31,128.12a.38.38,0,0,1-.38-.38V108.79a.38.38,0,1,1,.76,0v18.95A.38.38,0,0,1,112.31,128.12Z" transform="translate(-50 -12)"/><path class="cls-3" d="M115,129.63a.38.38,0,0,1-.38-.38v-22a.37.37,0,0,1,.38-.37.36.36,0,0,1,.37.37v22A.37.37,0,0,1,115,129.63Z" transform="translate(-50 -12)"/><path class="cls-3" d="M117.62,125.27a.38.38,0,0,1-.38-.38V111.63a.38.38,0,0,1,.76,0v13.26A.38.38,0,0,1,117.62,125.27Z" transform="translate(-50 -12)"/><path class="cls-3" d="M119.89,125.27a.38.38,0,0,1-.38-.38V111.63a.38.38,0,0,1,.76,0v13.26A.38.38,0,0,1,119.89,125.27Z" transform="translate(-50 -12)"/><path class="cls-3" d="M122.54,127.36a.38.38,0,0,1-.37-.38V109.55a.38.38,0,1,1,.75,0V127A.38.38,0,0,1,122.54,127.36Z" transform="translate(-50 -12)"/><path class="cls-3" d="M125.2,128.68a.38.38,0,0,1-.38-.38V108.22a.38.38,0,0,1,.76,0V128.3A.38.38,0,0,1,125.2,128.68Z" transform="translate(-50 -12)"/><path class="cls-3" d="M127.85,132.09a.38.38,0,0,1-.38-.37V104.81a.38.38,0,0,1,.76,0v26.91A.38.38,0,0,1,127.85,132.09Z" transform="translate(-50 -12)"/><path class="cls-3" d="M130.5,137.21a.38.38,0,0,1-.38-.38V99.7a.38.38,0,1,1,.76,0v37.13A.38.38,0,0,1,130.5,137.21Z" transform="translate(-50 -12)"/><path class="cls-4" d="M132.4,154a.38.38,0,0,1-.38-.38V82.93a.38.38,0,1,1,.76,0V153.6A.38.38,0,0,1,132.4,154Z" transform="translate(-50 -12)"/><path class="cls-3" d="M133.15,132.09a.38.38,0,0,1-.37-.37V104.81a.38.38,0,1,1,.75,0v26.91A.38.38,0,0,1,133.15,132.09Z" transform="translate(-50 -12)"/><path class="cls-3" d="M135.81,134.56a.38.38,0,0,1-.38-.38V102.35a.38.38,0,0,1,.76,0v31.83A.38.38,0,0,1,135.81,134.56Z" transform="translate(-50 -12)"/><path class="cls-3" d="M138.46,128.12a.38.38,0,0,1-.38-.38V108.79a.38.38,0,1,1,.76,0v18.95A.38.38,0,0,1,138.46,128.12Z" transform="translate(-50 -12)"/><path class="cls-3" d="M141.11,129.63a.38.38,0,0,1-.38-.38v-22a.38.38,0,0,1,.76,0v22A.38.38,0,0,1,141.11,129.63Z" transform="translate(-50 -12)"/><path class="cls-3" d="M143.76,125.27a.38.38,0,0,1-.37-.38V111.63a.38.38,0,1,1,.75,0v13.26A.38.38,0,0,1,143.76,125.27Z" transform="translate(-50 -12)"/><path class="cls-3" d="M146,125.27a.38.38,0,0,1-.38-.38V111.63a.38.38,0,1,1,.76,0v13.26A.38.38,0,0,1,146,125.27Z" transform="translate(-50 -12)"/><path class="cls-3" d="M148.69,127.36a.38.38,0,0,1-.38-.38V109.55a.38.38,0,0,1,.76,0V127A.38.38,0,0,1,148.69,127.36Z" transform="translate(-50 -12)"/><path class="cls-3" d="M151.34,128.68a.38.38,0,0,1-.38-.38V108.22a.38.38,0,0,1,.76,0V128.3A.38.38,0,0,1,151.34,128.68Z" transform="translate(-50 -12)"/><path class="cls-3" d="M154,132.09a.38.38,0,0,1-.38-.37V104.81a.38.38,0,1,1,.75,0v26.91A.38.38,0,0,1,154,132.09Z" transform="translate(-50 -12)"/><path class="cls-3" d="M156.65,143.27a.38.38,0,0,1-.38-.38V93.63a.38.38,0,0,1,.76,0v49.26A.38.38,0,0,1,156.65,143.27Z" transform="translate(-50 -12)"/><path class="cls-3" d="M159.3,132.09a.38.38,0,0,1-.38-.37V104.81a.38.38,0,0,1,.76,0v26.91A.38.38,0,0,1,159.3,132.09Z" transform="translate(-50 -12)"/><path class="cls-3" d="M162,134.56a.38.38,0,0,1-.38-.38V102.35a.38.38,0,0,1,.76,0v31.83A.38.38,0,0,1,162,134.56Z" transform="translate(-50 -12)"/><path class="cls-3" d="M164.61,128.12a.38.38,0,0,1-.38-.38V108.79a.38.38,0,0,1,.38-.38.37.37,0,0,1,.37.38v18.95A.37.37,0,0,1,164.61,128.12Z" transform="translate(-50 -12)"/><path class="cls-3" d="M167.26,129.63a.38.38,0,0,1-.38-.38v-22a.38.38,0,0,1,.76,0v22A.38.38,0,0,1,167.26,129.63Z" transform="translate(-50 -12)"/><path class="cls-3" d="M169.91,125.27a.38.38,0,0,1-.38-.38V111.63a.38.38,0,1,1,.76,0v13.26A.38.38,0,0,1,169.91,125.27Z" transform="translate(-50 -12)"/><path class="cls-5" d="M78.21,216.79v13.53l10.61-6.76Z" transform="translate(-50 -12)"/><ellipse class="cls-4" cx="118" cy="223.55" rx="7.56" ry="7.59" transform="translate(-173.48 136.8) rotate(-44.97)"/><path class="cls-5" d="M151.07,229.62h-2.59a1.3,1.3,0,0,1-1.3-1.3v-9.53a1.31,1.31,0,0,1,1.3-1.3h2.59a1.3,1.3,0,0,1,1.3,1.3v9.53A1.3,1.3,0,0,1,151.07,229.62Zm8.23-1.3v-9.53a1.31,1.31,0,0,0-1.3-1.3h-2.59a1.31,1.31,0,0,0-1.3,1.3v9.53a1.3,1.3,0,0,0,1.3,1.3H158a1.3,1.3,0,0,0,1.3-1.3Z" transform="translate(-50 -12)"/><path class="cls-3" d="M152,164.12H85.54a.45.45,0,1,1,0-.9H152a.45.45,0,1,1,0,.9Z" transform="translate(-50 -12)"/><path class="cls-3" d="M152,73.18H85.54a.46.46,0,0,1-.45-.46.45.45,0,0,1,.45-.45H152a.46.46,0,0,1,0,.91Z" transform="translate(-50 -12)"/><path class="cls-6" d="M259.41,132.3h-.14l-13-1.7a1.08,1.08,0,0,1-.92-1.2,1.14,1.14,0,0,1,.24-.55l9-10.76a1.07,1.07,0,0,1,1.51-.14,1,1,0,0,1,.34.5l3.92,12.47a1.06,1.06,0,0,1-.7,1.34,1.13,1.13,0,0,1-.32.05Z" transform="translate(-50 -12)"/><path class="cls-6" d="M235.14,190.63a1.07,1.07,0,0,1-1.07-1l-.17-14.05a1.07,1.07,0,0,1,1-1.09,1.11,1.11,0,0,1,.59.16l11.1,6.9A1.06,1.06,0,0,1,247,183a.92.92,0,0,1-.32.33l-10.93,7.16a1.06,1.06,0,0,1-.57.17Z" transform="translate(-50 -12)"/><path class="cls-6" d="M338.21,212.23a1.07,1.07,0,0,1-1.07-1L337,197.13a1.07,1.07,0,0,1,1-1.09,1.11,1.11,0,0,1,.59.16l11.1,6.9a1.06,1.06,0,0,1,.34,1.47.92.92,0,0,1-.32.33l-10.93,7.16a1.06,1.06,0,0,1-.57.17Z" transform="translate(-50 -12)"/><path class="cls-7" d="M284.25,165c-3.07-1.42-5.09-5.45-5-9.43a12.12,12.12,0,0,1,5.1-9.6,10.09,10.09,0,0,1,9.56-.73c3.1,1.32,7.26,1.68,9.13,5,1.43,2.52.91,8.15-.1,11a8,8,0,0,1-5.11,4.55,17.16,17.16,0,0,1-14.21-1.14" transform="translate(-50 -12)"/><polygon class="cls-8" points="268.24 264.27 263.89 265.89 255.57 249.87 261.99 247.47 268.24 264.27"/><path class="cls-7" d="M310.32,277.8l8.39-3.12h0l2,5.28h0L307,285.06h0a5.65,5.65,0,0,1,3.32-7.26Z" transform="translate(-50 -12)"/><polygon class="cls-8" points="226.48 268.74 221.83 268.74 219.62 250.82 226.48 250.82 226.48 268.74"/><path class="cls-7" d="M268.51,279.42h9v5.64h-14.6A5.64,5.64,0,0,1,268.51,279.42Z" transform="translate(-50 -12)"/><path class="cls-8" d="M262.35,216.15a4.07,4.07,0,0,0,3.62-4.48,5.42,5.42,0,0,0-.14-.7l15.28-26.37-5.35-2.13-15.27,25.77a4.09,4.09,0,0,0,1.86,7.91Z" transform="translate(-50 -12)"/><path class="cls-7" d="M277.68,194l-8.13-5,7.66-14a5.24,5.24,0,0,1,9.19,5l-.15.26Z" transform="translate(-50 -12)"/><path class="cls-7" d="M308.69,268.58a1.7,1.7,0,0,1-1.52-.93L287,226.06a1.32,1.32,0,0,0-2.48.32L277.28,266a1.7,1.7,0,0,1-1.67,1.36H271a1.68,1.68,0,0,1-1.7-1.54c-2.82-30.92-1.29-53.42,4.53-66.87a1.73,1.73,0,0,1,2-1l23.28,6.26a1.69,1.69,0,0,1,1.21,1.23L315,265a1.71,1.71,0,0,1-1.14,2l-4.61,1.45A1.47,1.47,0,0,1,308.69,268.58Z" transform="translate(-50 -12)"/><circle class="cls-8" cx="240.6" cy="147.42" r="9.31"/><path class="cls-4" d="M299.39,173s-8.33-4.55-14.78.38c0,0-8.14,8.15-5.49,16.1l-6.63,18.76c5.24,9.95,20.61,8.34,28,0l-.57-18Z" transform="translate(-50 -12)"/><path class="cls-7" d="M304.67,223.14a9,9,0,0,1-4.19-.93c-2-1.1-3.3-3.17-3.74-6.14-.73-5-.13-11.8.51-19,.83-9.41,1.69-19.13-.61-24.48a1.7,1.7,0,0,1,.9-2.23,1.66,1.66,0,0,1,1-.11l6.53,1.12a1.72,1.72,0,0,1,1.38,1.35l9,46a1.71,1.71,0,0,1-.94,1.87C312.54,221.46,308.45,223.14,304.67,223.14Z" transform="translate(-50 -12)"/><path class="cls-7" d="M270.49,222.52a1.59,1.59,0,0,1-.68-.14c-1.07-.46-2.56-1.14-4.41-2-5.12-2.39,8.38-35.4,11.14-42a1.7,1.7,0,0,1,.43-.6l7.39-6.73a1.7,1.7,0,0,1,2.39.3,1.69,1.69,0,0,1,.29,1.53c-1.3,4.35-3.6,11.64-6,19.36-3.84,12.17-7.81,24.76-8.87,29a1.7,1.7,0,0,1-1.65,1.28Z" transform="translate(-50 -12)"/><path class="cls-8" d="M322.45,214.54a4.07,4.07,0,0,0-1.4-5.58,3.92,3.92,0,0,0-.65-.32l-11.83-28.08-4.93,3L315,211.26a4.09,4.09,0,0,0,7.44,3.28Z" transform="translate(-50 -12)"/><path class="cls-7" d="M305.06,192.39l-6.53-14.52a5.24,5.24,0,1,1,9.56-4.29l.12.27L314,189Z" transform="translate(-50 -12)"/><path class="cls-7" d="M297.22,147.84a1.54,1.54,0,0,0,1.63-.91,2.2,2.2,0,0,0-.15-2,4.28,4.28,0,0,0-1.43-1.41,4.63,4.63,0,0,0-2.27-.77,2.82,2.82,0,0,0-2.2.83,2,2,0,0,0-.36,2.24,3,3,0,0,0,1.75,1.28,10.36,10.36,0,0,0,4.31.57" transform="translate(-50 -12)"/><path class="cls-7" d="M300.53,157.87c-1.45.43-1.37-.36-2.17-1.64s-1.83-2.8-3.34-2.71c-1.23.06-2.09,1.18-3,2a6.79,6.79,0,0,1-6,2.06c-2.15-.47-3.93-2.69-3.46-4.85a4.56,4.56,0,0,1,2.23-2.83,9.16,9.16,0,0,1,3.54-1,18.61,18.61,0,0,1,8.11.85A7.59,7.59,0,0,1,301,153c.9,1.67,1.69,4.1-.06,4.84Z" transform="translate(-50 -12)"/><path class="cls-7" d="M295.94,143a4.19,4.19,0,0,1,.66-5.39,7.09,7.09,0,0,1,5.54-1.62,11.22,11.22,0,0,1,9.11,6.54c1.25,2.86,1.24,6.13,2.36,9a12.18,12.18,0,0,0,15.77,6.94l.68-.29c2-.91,3.84-2.68,3.73-4.84a11.91,11.91,0,0,1-5.24,12.82,20.68,20.68,0,0,1-8.3,2.35,15.27,15.27,0,0,1-5.64-.07,9.92,9.92,0,0,1-6-4.85,15.72,15.72,0,0,1-1.83-7.63c0-2.06.25-4.12.11-6.17a8.47,8.47,0,0,0-2.25-5.61,4.51,4.51,0,0,0-5.64-.63,13,13,0,0,1-1.88,1.61c-.74.37-1.9.08-1.95-.75Z" transform="translate(-50 -12)"/><path class="cls-5" d="M345.68,285.6H229.24a.45.45,0,0,1,0-.9H345.68a.45.45,0,1,1,0,.9Z" transform="translate(-50 -12)"/></svg>