<svg id="Layer_1" data-name="Layer 1" xmlns="http://www.w3.org/2000/svg" viewBox="0 0 194.77 276.31"><defs><style>.cls-1{fill:#3f3d56;}.cls-2{fill:#ffb9b9;}.cls-3{fill:#2f2e41;}.cls-4{fill:#6c63ff;}.cls-5{fill:#e6e6e6;}</style></defs><title>how-2</title><rect class="cls-1" y="250.55" width="194.77" height="0.8"/><path class="cls-2" d="M217.17,90.81s-8.28,1.38-12.53.61S191.94,95,191.94,95l-22.3,8.26s-20.17,16.53-23,5c-1.59-6.45,19.2-11.63,19.2-11.63l36.54-17.5,13.29-4.6Z" transform="translate(-92 -14)"/><path class="cls-3" d="M218.76,139l-5.83,5.59,1,24.35s1.2,31.93.8,33.12-7.58,49.89-7.58,49.89,8.38,4,16,1.6c0,0,7.58-35.92,7.58-46.3l8.78-36.32,13.57,41.51s.8,27.94,2.4,37.12,1.59,10.38,1.59,10.38,12.78,3.59,16,0c0,0-1.6-47.1-2.79-51.89L267.45,151Z" transform="translate(-92 -14)"/><path class="cls-3" d="M210.38,251.92s-.8-1.19-3.19,2-10,9.18-10,9.18-20.76,14.77-5.19,15.56,18.36-7.18,18.36-7.18,13.17-2.4,13.57-5.19-1.6-14-1.6-14Z" transform="translate(-92 -14)"/><path class="cls-3" d="M257.87,259.11s-2.79,9.58-2,13.57-1.6,18.75,9.58,17.56,7.58-14,7.58-14l-3.59-16.36Z" transform="translate(-92 -14)"/><circle class="cls-2" cx="150.11" cy="23" r="13.17"/><path class="cls-2" d="M234.33,44s4,14,.79,19.15,21.56.8,23.15-4c0,0-8-8.78-6.78-17.16Z" transform="translate(-92 -14)"/><path class="cls-4" d="M240.71,62.74s10.93.74,16.24-5.21l14.21,6.07a7.46,7.46,0,0,1,4.41,8.19l-7.32,40.44s3.35,25.55,1.6,42.71c-1.59,15.5-59.07,0-57.08-13.17.22-1.41.41-2.86.6-4.31a338.28,338.28,0,0,1,7.26-38.53c1.06-4.33-1.87-29-1.87-29l17.57-11.64S237.12,62.74,240.71,62.74Z" transform="translate(-92 -14)"/><path class="cls-4" d="M228.87,68.9l-3.34-3.44L201.07,79.24s7.16,12.52,10,12.56c1.08,0,13.92.64,17-3.51C233.13,81.61,228.87,68.9,228.87,68.9Z" transform="translate(-92 -14)"/><path class="cls-3" d="M238.87,28.38a53.31,53.31,0,0,1,5.9-.58,9,9,0,0,1,4.22.56c1.95.93,3,3,3.76,5.07s1.23,4.22,2.55,5.93c2.21-2.31,2.65-5.74,3-8.91.23-2.24.44-4.62-.59-6.62a10.72,10.72,0,0,0-2.75-3.07c-5.08-4.22-11.53-7.55-18.06-6.6l-.16,1a18.57,18.57,0,0,0-3.33.21l.23,2.51-3.47.22-.13,2.6-3.51.13a4,4,0,0,0,1.22,2.64,5,5,0,0,1-1.8.82c.58,2.26,1.15,4.53,1.76,6.8.44,1.66.36,3.13,2.15,2.32,1.36-.62,2.28-2.59,3.66-3.4A15,15,0,0,1,238.87,28.38Z" transform="translate(-92 -14)"/><path class="cls-2" d="M282.11,86.54l.2,14.06-4.06,40.32s2.19,21.31-4.42,22c-11.79,1.24-3.1-23.35-3.1-23.35l.19-23.78s1.26-9.42-.91-13.16-3.68-12-3.68-12Z" transform="translate(-92 -14)"/><path class="cls-4" d="M271,64.74h0a7.47,7.47,0,0,1,7.17,5.39c2.55,8.83,7.18,25.45,6,25.74-1.59.4-20.35,1.6-20.35,1.6Z" transform="translate(-92 -14)"/><path class="cls-4" d="M125.38,132.45l.09,0a8.51,8.51,0,0,1,1.31,16.12,8,8,0,0,1-2,.57,8.52,8.52,0,0,1-2.57-16.84,8.62,8.62,0,0,1,3.2.12Z" transform="translate(-92 -14)"/><path class="cls-5" d="M125.38,132.45a123.07,123.07,0,0,1,1.4,16.15,8,8,0,0,1-2,.57,88.16,88.16,0,0,0-1.48-16.93A8.79,8.79,0,0,1,125.38,132.45Z" transform="translate(-92 -14)"/><path class="cls-1" d="M159.27,134.23l-29.21,1.19.82,9.67,29-4.38a2,2,0,0,0,1.7-2.2l0-.34,1.15,0a1,1,0,0,0,1-1.05.34.34,0,0,0,0-.1v-.05a1,1,0,0,0-1.1-.85l-1.22.13,0-.21A2,2,0,0,0,159.27,134.23Z" transform="translate(-92 -14)"/><path class="cls-5" d="M143.09,139.93a.6.6,0,0,1-.55.45l-2.1.09a.6.6,0,0,1-.61-.49l-.21-1.16a.59.59,0,0,1,.48-.69h0l2.12-.22a.58.58,0,0,1,.65.5h0l.19,1.3A.6.6,0,0,1,143.09,139.93ZM140,138.67a.11.11,0,0,0,0,.08l.21,1.16a.19.19,0,0,0,.2.16l2.1-.09a.19.19,0,0,0,.19-.2v0l-.19-1.3a.19.19,0,0,0-.21-.17l-2.13.23a.19.19,0,0,0-.14.08Z" transform="translate(-92 -14)"/></svg>