<svg id="Layer_1" data-name="Layer 1" xmlns="http://www.w3.org/2000/svg" viewBox="0 0 368 269.25"><defs><style>.cls-1{fill:#dee3f3;}.cls-1,.cls-5{opacity:0.5;}.cls-1,.cls-12,.cls-4,.cls-5,.cls-6{isolation:isolate;}.cls-2{opacity:0.45;}.cls-3,.cls-5{fill:#6c63ff;}.cls-4{opacity:0.1;}.cls-6{opacity:0.3;}.cls-7,.cls-9{fill:none;stroke-miterlimit:10;stroke-width:2px;}.cls-7{stroke:#fc6681;}.cls-8{fill:#fc6681;}.cls-9{stroke:#ffd037;}.cls-10{fill:#ffd037;}.cls-11{fill:#a8a8a8;}.cls-12{opacity:0.2;}</style></defs><title>how-4</title><ellipse class="cls-1" cx="183.28" cy="252.76" rx="91.59" ry="15.39"/><g class="cls-2"><path class="cls-3" d="M185.28,107.93a3,3,0,0,0,0,.52A3,3,0,0,1,185.28,107.93Z" transform="translate(-24 -15.28)"/><path class="cls-3" d="M231.41,96.88a.68.68,0,0,0,0,.14A.68.68,0,0,1,231.41,96.88Z" transform="translate(-24 -15.28)"/><path class="cls-3" d="M231.31,96.43s0,.09,0,.14S231.32,96.47,231.31,96.43Z" transform="translate(-24 -15.28)"/><path class="cls-3" d="M231.36,108.8l-.06.23Z" transform="translate(-24 -15.28)"/><path class="cls-3" d="M231.42,108.42a2.17,2.17,0,0,1,0,.25A2.17,2.17,0,0,0,231.42,108.42Z" transform="translate(-24 -15.28)"/><path class="cls-3" d="M187.41,111.44a4.1,4.1,0,0,1-.84-.59A4.1,4.1,0,0,0,187.41,111.44Z" transform="translate(-24 -15.28)"/><path class="cls-3" d="M186.54,110.82a2.9,2.9,0,0,1-.34-.36A2.9,2.9,0,0,0,186.54,110.82Z" transform="translate(-24 -15.28)"/><path class="cls-3" d="M254.6,186.46a2.54,2.54,0,0,0-.17-.46A2.54,2.54,0,0,1,254.6,186.46Z" transform="translate(-24 -15.28)"/><path class="cls-3" d="M252.63,184.07a2.6,2.6,0,0,1,.45.28A2.6,2.6,0,0,0,252.63,184.07Z" transform="translate(-24 -15.28)"/><path class="cls-3" d="M253.52,184.7a4.24,4.24,0,0,1,.63.77A4.24,4.24,0,0,0,253.52,184.7Z" transform="translate(-24 -15.28)"/><path class="cls-3" d="M253.1,184.36a3.47,3.47,0,0,1,.37.3A3.47,3.47,0,0,0,253.1,184.36Z" transform="translate(-24 -15.28)"/><path class="cls-3" d="M254.4,185.92l-.2-.37Z" transform="translate(-24 -15.28)"/><path class="cls-3" d="M254.71,186.94c0-.13-.05-.26-.08-.39C254.66,186.68,254.69,186.81,254.71,186.94Z" transform="translate(-24 -15.28)"/><path class="cls-3" d="M374.09,165.24H351.31A4,4,0,0,0,353,162V151.53a4,4,0,0,0-4-4H322.84a4,4,0,0,0,2.76-3.77V133.34a4,4,0,0,0-1.71-3.25h25.16a4,4,0,0,0,4-4h0V115.67a4,4,0,0,0-4-4h-28a4,4,0,0,0,2.75-3.78V97.48a3.93,3.93,0,0,0-1.7-3.26h26.95a4,4,0,0,0,4-4h0V79.81a4,4,0,0,0-4-4H334.94a4,4,0,0,0,2.76-3.77V61.61a4,4,0,0,0-4-4H295.49a4,4,0,0,0-4,4h0a4,4,0,0,0-4-4H249.32a4,4,0,0,0-3.6,2.29,3.44,3.44,0,0,1,.08.78V71.17a4,4,0,0,1-.37,1.67,4,4,0,0,0,1.38,2.29h9.82a4,4,0,0,1,2.51.9h4.28a4,4,0,0,0-2.75,3.78,3.84,3.84,0,0,0-.08-.76v10.5a4.07,4.07,0,0,1-.12,1,1.84,1.84,0,0,1,.17.22,4.19,4.19,0,0,0,0-.5,4,4,0,0,0,.06.69.89.89,0,0,1,.09.39,4,4,0,0,0,1.55,2.17H259l.09-.06c-.32,0-.63,0-.95,0a1.21,1.21,0,0,1-.33-.07,4,4,0,0,1-1.14.16l-23.47.71a4,4,0,0,0-1.7,3.26v10.45a4,4,0,0,0,2.75,3.78l22.42.18a45.53,45.53,0,0,1,1.91.31h0a4.13,4.13,0,0,0-.68-.3h5.51a4,4,0,0,0-2.75,3.78,4,4,0,0,0-.06-.69l-.09.11a3.94,3.94,0,0,1,.07.77v10.45c0,.49.08.37.08-.19a4,4,0,0,0,1.7,3.26l14,.45a4,4,0,0,1,1.4.26h3.37a3.91,3.91,0,0,0-1.37,1.67,3.9,3.9,0,0,1,.56,2v10.45a3.94,3.94,0,0,1-.33,1.59,3.91,3.91,0,0,0,2.19,1.74h-3.67a3.92,3.92,0,0,1-2.15.64H262.48a3.94,3.94,0,0,0-1.81,3.32c0-1.39-.52,12.37-.52,12.37,0,1.23,21.59,1.79,21.59,1.79a3.79,3.79,0,0,1,1.59.34A2.69,2.69,0,0,1,284,166l0,0h3.4a4,4,0,0,0-1.7,3.25,5.27,5.27,0,0,0,0-.56l-.06.13a4.32,4.32,0,0,1,.1.88v10a4,4,0,0,0,4,4h-6.1a3.86,3.86,0,0,1-1.82.45H256.9a4,4,0,0,0-2.13,3.51V198a4,4,0,0,0,4,4H297a4,4,0,0,0,4-4h0a4,4,0,0,0,4,4h38.25a4,4,0,0,0,4-4h0V187.58a4,4,0,0,0-4-4h30.94a4,4,0,0,0,4-4h0V169.2a4,4,0,0,0-4-4Zm-94.76-71a4,4,0,0,0-1.7,3.26,4,4,0,0,0-1.7-3.26Zm-4.46,17.49a4,4,0,0,0,2.76-3.78,4,4,0,0,0,2.76,3.78Zm13.9-35.87a4,4,0,0,0,2.76-3.77,4,4,0,0,0,2.76,3.77Zm12.17,111.74a4,4,0,0,0-4-4h7.92a4,4,0,0,0-4,4Zm4.2-22.34a4,4,0,0,0,1.7-3.25,4,4,0,0,0,1.71,3.25Zm1.7-13.71a4,4,0,0,0-2.76-3.77h5.52A4,4,0,0,0,306.84,151.53Zm-1.7-22.15a4,4,0,0,0,1.7-3.26,4,4,0,0,0,1.71,3.26Zm1.7-13.71a4,4,0,0,0-2.76-3.78h5.52a4,4,0,0,0-2.76,3.78Zm-1.7-22.16a4,4,0,0,0,1.7-3.25,3.94,3.94,0,0,0,1.71,3.25Zm1.7-13.7A4,4,0,0,0,304.08,76h5.52A4,4,0,0,0,306.84,79.81ZM333.58,166a4,4,0,0,0-1.71,3.25,4,4,0,0,0-1.7-3.25Zm-5.67,17.67a4,4,0,0,0,4-4h0a4,4,0,0,0,4,4h-7.93Z" transform="translate(-24 -15.28)"/><path class="cls-3" d="M260.67,162" transform="translate(-24 -15.28)"/><path class="cls-3" d="M254.77,187.58a4.38,4.38,0,0,0,0-.5A4.38,4.38,0,0,1,254.77,187.58Z" transform="translate(-24 -15.28)"/><path class="cls-3" d="M231.46,107.93c0,.13,0,.25,0,.37C231.45,108.18,231.46,108.06,231.46,107.93Z" transform="translate(-24 -15.28)"/><path class="cls-3" d="M185.33,108.52a2.46,2.46,0,0,0,.1.47A2.46,2.46,0,0,1,185.33,108.52Z" transform="translate(-24 -15.28)"/><path class="cls-3" d="M141,131.89a.68.68,0,0,1-.17-.21.93.93,0,0,1-.12-.33,7.42,7.42,0,0,0,0,.82,3.86,3.86,0,0,1,.18,1.17,4,4,0,0,1,.17-1.14,2.29,2.29,0,0,1-.08-.28Z" transform="translate(-24 -15.28)"/><path class="cls-3" d="M195.22,57.65H157a4,4,0,0,0-4,4h0a4,4,0,0,0-4-4H110.79a4,4,0,0,0-4,4h0V72.07a4,4,0,0,0,2.76,3.77H79.93a4,4,0,0,0-4,4h0V90.26a4,4,0,0,0,1.7,3.25H50.72a4,4,0,0,0-4,4h0v10.45a4,4,0,0,0,4,4h28A4,4,0,0,0,76,115.67v10.45a4,4,0,0,0,1.7,3.26H52.51a4,4,0,0,0-4,4h0V143.8a4,4,0,0,0,4,4H78.73A4,4,0,0,0,76,151.53V162a4,4,0,0,0,4,4h22.78A4,4,0,0,0,101,169.2v10.46a4,4,0,0,0,4,4H74a4,4,0,0,0-4,4h0V198a4,4,0,0,0,4,4h38.25a4,4,0,0,0,4-4h0a4,4,0,0,0,4,4h38.25a4,4,0,0,0,4-4h0V187.58a4,4,0,0,0-2.14-3.51H152a3.86,3.86,0,0,1-1.82-.45h-7a4,4,0,0,0,4-4h0c0,1.72.89-10,.89-10a4,4,0,0,1,4-4h0l14.58-.45a3.85,3.85,0,0,0,1-1.08,4.07,4.07,0,0,1-.31-1.54V152.17A4,4,0,0,1,168,150a3.94,3.94,0,0,0-1.5-1.78H145.76a3.92,3.92,0,0,1-2.15-.64h-5.47a4,4,0,0,0,2.76-3.77l-.14-10.38c0-.47,0-.88,0-1.25a4,4,0,0,0-1.52-2.08h3.4s0,0-.07,0c1.93-.11,24-1.4,25.79-2.84a3.31,3.31,0,0,1,0-.83,3.08,3.08,0,0,1-.05-.61V115.41a2.55,2.55,0,0,1,0-.39,4,4,0,0,0-2.71-3.13h4.82a4,4,0,0,1,1.83-.44h10.94a4,4,0,0,0,2.13-3.52V97.48a4,4,0,0,0-1.7-3.26l-11.37-.71c-1.93,0-3.2-.7-2.19,0h-3.41a4,4,0,0,0,1.71-3.23,3.54,3.54,0,0,1-.07-.73V79.07a4,4,0,0,0-2.69-3h4.14a4,4,0,0,1,2.51-.9h25.51a4,4,0,0,0,1.46-3.06V61.61a4,4,0,0,0-4-4ZM94.64,94.22a4,4,0,0,0-1.71,3.26,4,4,0,0,0-1.7-3.26Zm-1.71,13.71a4,4,0,0,0,2.76,3.78H90.17A4,4,0,0,0,92.93,107.93Zm3.5,22.16a3.91,3.91,0,0,0-1.7,3.25A4,4,0,0,0,93,130.09ZM92,147.57a4,4,0,0,0,2.76-3.77,4,4,0,0,0,2.75,3.77Zm48.84-53.35a4,4,0,0,0-1.7,3.26,4,4,0,0,0-1.71-3.26Zm-24.57,93.36a4,4,0,0,0-4-4h7.93a4,4,0,0,0-4,4Zm4.2-22.34a3.94,3.94,0,0,0,1.7-3.25,4,4,0,0,0,1.71,3.25Zm1.7-13.71a4,4,0,0,0-2.75-3.77h5.51a4,4,0,0,0-2.76,3.77Zm-1.7-22.15a4,4,0,0,0,1.7-3.26,4,4,0,0,0,1.71,3.26Zm1.7-13.71a4,4,0,0,0-2.75-3.78h5.51a4,4,0,0,0-2.76,3.78Zm-1.7-22.16a3.93,3.93,0,0,0,1.7-3.25,3.94,3.94,0,0,0,1.71,3.25Zm1.7-13.7A4,4,0,0,0,119.39,76h5.51a4,4,0,0,0-2.76,3.78Zm14.21,31.9a4,4,0,0,0,2.76-3.78,4,4,0,0,0,2.75,3.78Zm13.9-35.87A4,4,0,0,0,153,72.07a4,4,0,0,0,2.76,3.77Z" transform="translate(-24 -15.28)"/><path class="cls-3" d="M186.58,94.55l.06-.06Z" transform="translate(-24 -15.28)"/><path class="cls-3" d="M186.32,94.81l-.06.06Z" transform="translate(-24 -15.28)"/><path class="cls-3" d="M186,95.22l0,0Z" transform="translate(-24 -15.28)"/><path class="cls-3" d="M185.45,109.07a3.61,3.61,0,0,0,.17.46A3.61,3.61,0,0,1,185.45,109.07Z" transform="translate(-24 -15.28)"/><path class="cls-3" d="M185.87,110a3.79,3.79,0,0,0,.3.4A3.79,3.79,0,0,1,185.87,110Z" transform="translate(-24 -15.28)"/><path class="cls-3" d="M185.64,109.57a3.68,3.68,0,0,0,.23.44A3.68,3.68,0,0,1,185.64,109.57Z" transform="translate(-24 -15.28)"/><path class="cls-3" d="M185.39,96.57a.57.57,0,0,1,0-.14A.57.57,0,0,0,185.39,96.57Z" transform="translate(-24 -15.28)"/><path class="cls-3" d="M185.52,96.12l0-.12Z" transform="translate(-24 -15.28)"/><path class="cls-3" d="M185.31,97s0-.09,0-.14S185.32,97,185.31,97Z" transform="translate(-24 -15.28)"/><path class="cls-3" d="M185.74,95.62h0Z" transform="translate(-24 -15.28)"/><rect class="cls-4" x="83.28" y="42.37" width="46.17" height="18.38" rx="3.16"/><rect class="cls-4" x="221.35" y="42.37" width="46.17" height="18.38" rx="3.16"/><rect class="cls-4" x="282.77" y="60.31" width="46.17" height="18.38" rx="3.16"/><rect class="cls-4" x="207.46" y="78.24" width="46.17" height="18.38" rx="3.16"/><rect class="cls-4" x="282.77" y="96.62" width="46.17" height="18.38" rx="3.16"/><rect class="cls-4" x="282.77" y="132.48" width="46.17" height="18.38" rx="3.16"/><path class="cls-4" d="M329,165.69H288.58a2.88,2.88,0,0,0-2.76,2.08,1.56,1.56,0,0,1,0,.48,1.29,1.29,0,0,1-.08.28v12.66a2.88,2.88,0,0,0,2.88,2.88H329a2.88,2.88,0,0,0,2.88-2.88V168.57a2.88,2.88,0,0,0-2.88-2.88Z" transform="translate(-24 -15.28)"/><rect class="cls-4" x="230.77" y="168.35" width="46.17" height="18.38" rx="3.16"/><rect class="cls-4" x="98.07" y="60.31" width="46.17" height="18.38" rx="3.16"/><rect class="cls-4" x="69.38" y="78.24" width="46.17" height="18.38" rx="3.16"/><rect class="cls-4" x="51.9" y="96.62" width="46.17" height="18.38" rx="3.16"/><rect class="cls-4" x="70.73" y="114.55" width="46.17" height="18.38" rx="3.16"/><rect class="cls-4" x="51.9" y="132.48" width="46.17" height="18.38" rx="3.16"/><rect class="cls-3" x="31.01" y="150.43" width="46.17" height="18.38" rx="3.16"/><rect class="cls-3" x="300.61" y="114.53" width="46.17" height="18.38" rx="3.16"/><rect class="cls-3" x="298.65" y="78.3" width="46.17" height="18.38" rx="3.16"/><rect class="cls-3" x="321.83" y="168.06" width="46.17" height="18.38" rx="3.16"/><rect class="cls-3" y="168.39" width="46.17" height="18.38" rx="3.16"/><rect class="cls-3" x="6.2" y="132.16" width="46.17" height="18.38" rx="3.16"/><rect class="cls-3" x="6.2" y="96.58" width="46.17" height="18.38" rx="3.16"/><rect class="cls-3" x="7.83" y="60.35" width="46.17" height="18.38" rx="3.16"/><rect class="cls-4" x="7.83" y="60.35" width="46.17" height="18.38" rx="3.16"/><rect class="cls-3" x="37.21" y="42.4" width="46.17" height="18.38" rx="3.16"/><rect class="cls-4" x="77.45" y="150.41" width="46.17" height="18.38" rx="3.16"/><rect class="cls-4" x="46.07" y="168.35" width="46.17" height="18.38" rx="3.16"/></g><circle class="cls-5" cx="289.93" cy="10.35" r="10.35"/><path class="cls-1" d="M114.14,44.38h-2.46a1.72,1.72,0,1,0,0-3.44h-20a1.72,1.72,0,1,0,0,3.44H94.2a1.73,1.73,0,0,0,0,3.45H90.75a1.73,1.73,0,0,0,0,3.45h20a1.73,1.73,0,0,0,0-3.45h3.44a1.73,1.73,0,0,0,0-3.45Z" transform="translate(-24 -15.28)"/><path class="cls-1" d="M312.62,24.38h-1.87a1.31,1.31,0,1,0,0-2.62H295.57a1.31,1.31,0,0,0,0,2.62h1.87a1.31,1.31,0,0,0,0,2.62h-2.62a1.32,1.32,0,0,0,0,2.63H310A1.32,1.32,0,0,0,310,27h2.62a1.31,1.31,0,1,0,0-2.62Z" transform="translate(-24 -15.28)"/><path class="cls-1" d="M161.37,20.05h-2.46a1.72,1.72,0,1,0,0-3.44H139a1.72,1.72,0,1,0,0,3.44h2.47a1.73,1.73,0,0,0,0,3.45H138A1.73,1.73,0,0,0,138,27h19.94a1.73,1.73,0,0,0,0-3.45h3.45a1.73,1.73,0,0,0,0-3.45Z" transform="translate(-24 -15.28)"/><rect class="cls-3" x="135.21" y="94.72" width="83.01" height="38.5" rx="4.64"/><rect class="cls-4" x="141.83" y="127.31" width="69.78" height="0.72"/><rect class="cls-6" x="141.83" y="100.74" width="69.78" height="26.47"/><circle class="cls-4" cx="158.07" cy="114.52" r="9.62"/><circle class="cls-4" cx="195.36" cy="114.52" r="9.62"/><rect class="cls-3" x="169.5" y="133.22" width="14.44" height="8.42"/><rect class="cls-3" x="146.64" y="139.24" width="60.15" height="48.12"/><rect class="cls-3" x="145.44" y="196.98" width="62.56" height="6.02"/><polygon class="cls-3" points="155.66 217.43 155.66 224.65 155.66 235.48 155.66 241.5 155.66 245.1 166.49 245.1 166.49 241.5 166.49 235.48 166.49 224.65 166.49 217.43 166.49 209.01 155.66 209.01 155.66 217.43"/><polygon class="cls-3" points="188.15 209.01 188.15 217.43 188.15 224.65 188.15 235.48 188.15 241.5 188.15 245.1 198.97 245.1 198.97 241.5 198.97 235.48 198.97 224.65 198.97 217.43 198.97 209.01 188.15 209.01"/><path class="cls-3" d="M162.45,165.34v11.13a16.31,16.31,0,0,0-8,3.85,19,19,0,0,0-4.76,7A35.72,35.72,0,0,0,147.34,198a61.12,61.12,0,0,0,.67,14.3H136a82.45,82.45,0,0,1,.31-17.26,46,46,0,0,1,3.86-13.67A27.8,27.8,0,0,1,153,167.9,23.62,23.62,0,0,1,162.45,165.34Z" transform="translate(-24 -15.28)"/><rect class="cls-6" x="155.66" y="209.01" width="10.83" height="8.42"/><rect class="cls-6" x="155.66" y="224.65" width="10.83" height="10.83"/><rect class="cls-6" x="155.66" y="241.5" width="10.83" height="3.61"/><rect class="cls-6" x="188.15" y="209.01" width="10.83" height="8.42"/><rect class="cls-6" x="188.15" y="224.65" width="10.83" height="10.83"/><rect class="cls-6" x="188.15" y="241.5" width="10.83" height="3.61"/><path class="cls-6" d="M162.45,165.34v11.13a16.31,16.31,0,0,0-8,3.85L153,167.9A23.62,23.62,0,0,1,162.45,165.34Z" transform="translate(-24 -15.28)"/><path class="cls-6" d="M149.69,187.3A35.72,35.72,0,0,0,147.34,198l-11.05-3a46,46,0,0,1,3.86-13.67Z" transform="translate(-24 -15.28)"/><path class="cls-3" d="M239,165.34v11.13a16.24,16.24,0,0,1,8,3.85,18.91,18.91,0,0,1,4.77,7A35.71,35.71,0,0,1,254.09,198a61.11,61.11,0,0,1-.66,14.3h12a82.39,82.39,0,0,0-.32-17.26,45.72,45.72,0,0,0-3.86-13.67,27.76,27.76,0,0,0-12.8-13.43A23.59,23.59,0,0,0,239,165.34Z" transform="translate(-24 -15.28)"/><path class="cls-6" d="M239,165.34v11.13a16.24,16.24,0,0,1,8,3.85l1.5-12.42A23.59,23.59,0,0,0,239,165.34Z" transform="translate(-24 -15.28)"/><path class="cls-6" d="M251.75,187.3A35.71,35.71,0,0,1,254.09,198l11-3a45.72,45.72,0,0,0-3.86-13.67Z" transform="translate(-24 -15.28)"/><rect class="cls-4" x="169.5" y="133.22" width="14.44" height="1"/><path class="cls-4" d="M231.86,163.09v20.14a4.17,4.17,0,0,1-1.12-2.85V165.94A4.17,4.17,0,0,1,231.86,163.09Z" transform="translate(-24 -15.28)"/><path class="cls-4" d="M170.85,164.41V179.5a4.16,4.16,0,0,1-1.12,2.55V161.86A4.16,4.16,0,0,1,170.85,164.41Z" transform="translate(-24 -15.28)"/><rect class="cls-4" x="149.65" y="187.36" width="54.14" height="0.71"/><rect class="cls-4" x="148.44" y="203" width="26.47" height="0.55"/><rect class="cls-4" x="177.32" y="203" width="26.47" height="0.55"/><rect class="cls-3" x="151.4" y="59.1" width="4.14" height="35.63"/><rect class="cls-3" x="198.9" y="59.1" width="4.14" height="35.63"/><circle class="cls-4" cx="153.33" cy="59.37" r="4.7"/><circle class="cls-3" cx="153.33" cy="59.1" r="4.7"/><circle class="cls-4" cx="201.11" cy="59.37" r="4.7"/><circle class="cls-3" cx="201.11" cy="59.1" r="4.7"/><path class="cls-7" d="M78.21,183.51s13.74,27,2.55,41.73,1,55,1,55" transform="translate(-24 -15.28)"/><path class="cls-8" d="M82.28,175.12c0,5.2-3.81,9.41-3.81,9.41s-3.82-4.21-3.82-9.41,3.82-9.42,3.82-9.42S82.28,169.92,82.28,175.12Z" transform="translate(-24 -15.28)"/><path class="cls-9" d="M85.34,183.51s-13.74,27-2.55,41.73-1,55-1,55" transform="translate(-24 -15.28)"/><path class="cls-10" d="M81.27,175.12c0,5.2,3.81,9.41,3.81,9.41s3.82-4.21,3.82-9.41-3.82-9.42-3.82-9.42S81.27,169.92,81.27,175.12Z" transform="translate(-24 -15.28)"/><path class="cls-7" d="M90.93,183.51s13.74,27,2.55,41.73,1,55,1,55" transform="translate(-24 -15.28)"/><path class="cls-8" d="M95,175.12c0,5.2-3.82,9.41-3.82,9.41s-3.82-4.21-3.82-9.41,3.82-9.42,3.82-9.42S95,169.92,95,175.12Z" transform="translate(-24 -15.28)"/><path class="cls-8" d="M92.87,196.73c-3.61,3.74-9.28,4.13-9.28,4.13s.17-5.68,3.78-9.43,9.27-4.13,9.27-4.13S96.47,193,92.87,196.73Z" transform="translate(-24 -15.28)"/><path class="cls-8" d="M93.22,215.33c-3.6,3.75-9.27,4.14-9.27,4.14s.17-5.68,3.77-9.43S97,205.9,97,205.9,96.83,211.58,93.22,215.33Z" transform="translate(-24 -15.28)"/><path class="cls-8" d="M73.68,225.57c3.41,3.92,3.29,9.61,3.29,9.61s-5.65-.68-9.06-4.61S64.62,221,64.62,221,70.27,221.64,73.68,225.57Z" transform="translate(-24 -15.28)"/><path class="cls-8" d="M76.84,185.89c4.33,2.87,5.74,8.38,5.74,8.38s-5.62.85-10-2-5.74-8.38-5.74-8.38S72.51,183,76.84,185.89Z" transform="translate(-24 -15.28)"/><path class="cls-9" d="M98.06,183.51s-13.74,27-2.55,41.73-1,55-1,55" transform="translate(-24 -15.28)"/><path class="cls-10" d="M94,175.12c0,5.2,3.81,9.41,3.81,9.41s3.82-4.21,3.82-9.41-3.82-9.42-3.82-9.42S94,169.92,94,175.12Z" transform="translate(-24 -15.28)"/><path class="cls-10" d="M95.09,197.13c-3.65,3.7-3.89,9.38-3.89,9.38s5.67-.32,9.32-4,3.89-9.38,3.89-9.38S98.74,193.42,95.09,197.13Z" transform="translate(-24 -15.28)"/><path class="cls-10" d="M102.24,222.89c-3.65,3.7-3.89,9.38-3.89,9.38s5.68-.32,9.33-4,3.89-9.38,3.89-9.38S105.89,219.18,102.24,222.89Z" transform="translate(-24 -15.28)"/><path class="cls-9" d="M91.71,217.23s8.27-13,19.88-13.32" transform="translate(-24 -15.28)"/><path class="cls-7" d="M85.27,209.35S77,196.32,65.4,196" transform="translate(-24 -15.28)"/><path class="cls-9" d="M84.2,228s8.27-13,19.88-13.32" transform="translate(-24 -15.28)"/><circle class="cls-10" cx="87.21" cy="188.53" r="2.15"/><circle class="cls-8" cx="41.6" cy="180.84" r="2.15"/><path class="cls-7" d="M90.28,232.25s-8.27-13-19.88-13.31" transform="translate(-24 -15.28)"/><circle class="cls-8" cx="46.6" cy="203.74" r="2.15"/><circle class="cls-10" cx="80.24" cy="199.45" r="2.15"/><path class="cls-11" d="M136,264.54s-19.93-4-25.25-9.3-29.23-14.62-31.88-8S43,276.5,65.58,280.48s53.15,5.32,59.79,2.66S136,264.54,136,264.54Z" transform="translate(-24 -15.28)"/><path class="cls-12" d="M65.58,278c22.59,4,53.15,5.32,59.79,2.66,5.06-2,8.57-11.75,10-16.27l.67.14s-4,15.94-10.63,18.6-37.2,1.33-59.79-2.66c-6.52-1.15-8.39-3.85-7.68-7.27C58.45,275.44,60.73,277.16,65.58,278Z" transform="translate(-24 -15.28)"/><path class="cls-8" d="M351.25,188.28s4.78,6.24-2.2,15.67-12.73,17.39-10.41,23.26c0,0,10.53-17.51,19.1-17.75S360.68,198.81,351.25,188.28Z" transform="translate(-24 -15.28)"/><path class="cls-4" d="M351.25,188.28a7.59,7.59,0,0,1,1,1.95c8.36,9.83,12.82,19,4.78,19.23-7.49.21-16.47,13.6-18.62,17a6.91,6.91,0,0,0,.25.77s10.53-17.51,19.1-17.75S360.68,198.81,351.25,188.28Z" transform="translate(-24 -15.28)"/><path class="cls-10" d="M360.13,196.23c0,2.2-.25,4-.55,4s-.55-1.78-.55-4,.31-1.16.61-1.16S360.13,194,360.13,196.23Z" transform="translate(-24 -15.28)"/><path class="cls-10" d="M363.18,198.86c-1.93,1-3.61,1.69-3.76,1.42s1.3-1.34,3.23-2.39,1.17-.29,1.31,0S365.11,197.81,363.18,198.86Z" transform="translate(-24 -15.28)"/><path class="cls-8" d="M326,188.28s-4.78,6.24,2.2,15.67,12.74,17.39,10.41,23.26c0,0-10.53-17.51-19.1-17.75S316.6,198.81,326,188.28Z" transform="translate(-24 -15.28)"/><path class="cls-4" d="M326,188.28a7.93,7.93,0,0,0-1,1.95c-8.36,9.83-12.81,19-4.77,19.23,7.48.21,16.47,13.6,18.62,17a7,7,0,0,1-.26.77s-10.53-17.51-19.1-17.75S316.6,198.81,326,188.28Z" transform="translate(-24 -15.28)"/><path class="cls-10" d="M317.15,196.23c0,2.2.25,4,.55,4s.55-1.78.55-4-.3-1.16-.61-1.16S317.15,194,317.15,196.23Z" transform="translate(-24 -15.28)"/><path class="cls-10" d="M314.11,198.86c1.93,1,3.61,1.69,3.75,1.42s-1.3-1.34-3.23-2.39-1.16-.29-1.31,0S312.18,197.81,314.11,198.86Z" transform="translate(-24 -15.28)"/><path class="cls-11" d="M318.67,226.4s13.35-.42,17.38-3.28,20.54-6.29,21.53-1.69,20.07,22.85,5,23-35-2.34-39-4.79S318.67,226.4,318.67,226.4Z" transform="translate(-24 -15.28)"/><path class="cls-12" d="M362.84,242.8c-15.07.13-35-2.34-39-4.79-3.05-1.86-4.27-8.55-4.68-11.63l-.45,0s.85,10.76,4.87,13.21,24,4.92,39,4.79c4.35,0,5.85-1.58,5.77-3.87C367.74,241.91,366.08,242.78,362.84,242.8Z" transform="translate(-24 -15.28)"/></svg>