<svg id="Layer_1" data-name="Layer 1" xmlns="http://www.w3.org/2000/svg" viewBox="0 0 247.68 241.34"><defs><style>.cls-1{fill:#6c63ff;}.cls-2{opacity:0.2;isolation:isolate;}.cls-3{fill:#3f3d56;}.cls-4{fill:#ccc;}.cls-5{fill:#9f616a;}.cls-6{fill:#2f2e41;}.cls-7{fill:#e6e6e6;}.cls-8{fill:#ffb9b9;}</style></defs><title>what-3</title><polygon class="cls-1" points="200.5 26.02 200.46 26.29 200.35 27.07 188.99 108.58 119.44 134.1 118.35 133.58 79.41 115.08 59.28 37.83 57.9 32.52 58.32 32.36 144.46 0 200.45 25.99 200.5 26.02"/><polygon class="cls-1" points="118.35 133.58 79.41 115.08 57.9 32.52 58.32 32.36 114.44 56.04 118.35 133.58"/><polygon class="cls-2" points="119.33 132.63 89.71 75.87 93.51 59.78 75.6 38.68 74.07 39.98 91.33 60.3 78.44 114.85 80.39 115.31 89 78.85 117.55 133.56 119.33 132.63"/><polygon class="cls-3" points="200.5 27.02 200.35 27.07 114.44 57.04 59.28 37.83 57.9 32.52 58.32 32.36 144.46 0 200.45 25.99 200.46 26.29 200.5 27.02"/><polygon class="cls-1" points="115.94 58.54 98.42 45.03 102.43 30.02 152.46 12.01 186.49 14.01 200 25.52 201 28.52 115.94 58.54"/><polygon class="cls-1" points="58.9 32.52 98.42 31.02 119.84 23.75 153.22 12.01 159.47 3 143.89 0.21 58.9 32.52"/><rect class="cls-4" x="198.76" y="33.83" width="21.84" height="2" transform="translate(-81.7 57.55) rotate(-19.34)"/><polygon class="cls-5" points="32.05 51.39 29.5 64.12 41.39 73.03 46.91 56.48 32.05 51.39"/><circle class="cls-5" cx="41.6" cy="51.6" r="11.46"/><path class="cls-6" d="M98.77,152.29c0,3.69,16.15,44.85,13.92,50.21-3.53,3.6-11.11,22.78-14.35,27.9-.42,0-2.55,6.36-2.55,6.36s5.1,8.07,10.62,4.67c6.94-16.32,24.31-25.42,24.62-46.69.84,6.72,3.32,49.85,3.32,49.85s-.48.2,10.21,1.23c1.66-25,8.45-67.63-6.74-94.38C133.15,149.32,98.77,152.29,98.77,152.29Z" transform="translate(-82 -13.85)"/><path class="cls-6" d="M134.35,243.75c-.5.95-4.06,9.76-.82,10.65a13,13,0,0,0,7.36-.41s6.53,2,10.53-.55c1.87-1.87,1.45-3.57.56-4.8a5.2,5.2,0,0,0-3.86-2.08c-2-.14-2.68-.52-2.91-1.45C144.87,243.75,134.35,243.75,134.35,243.75Z" transform="translate(-82 -13.85)"/><path class="cls-6" d="M99.42,236.06s-9.13,2.88-7.21,6.24a12.7,12.7,0,0,0,5.25,4.84s1.9,7.84,7.19,7.84c2.64,0,3.54-1.5,3.78-3a5.21,5.21,0,0,0-1.26-4.2c-1.33-1.53-1.52-2.26-1-3.08C106.86,243.5,99.42,236.06,99.42,236.06Z" transform="translate(-82 -13.85)"/><path class="cls-7" d="M140,153.53s-1.7,3.4-8.5,2.12-33.53,0-33.53,0S99.4,125.3,96,107.05a30.36,30.36,0,0,1,10-28.66l4.25-4.25c4.24-.42,13.21,12.76,13.21,12.76,3,.49,5.7,13,8.05,24.9.14.68.27,1.35.4,2,1.09,5.53,2.6,11.69,3.5,17.22.06.39.13.78.18,1.17A203.47,203.47,0,0,0,140,153.53Z" transform="translate(-82 -13.85)"/><path class="cls-6" d="M110.19,58.31s-2.14-4.72,3.43-6.86c0,0,4.71-7.71,14.14-2.57,0,0,6.43,2.57,6.43,9.43s2.15,8.14,2.15,8.14-3.2-3.27-4.05-5.84-7.53-3.16-10.1-.59-9,2.15-9,2.15l.43,9.42s-2.14-5.57-3-5.57S108.91,58.31,110.19,58.31Z" transform="translate(-82 -13.85)"/><path class="cls-2" d="M135.39,131c-10.13-5.5-26.53-17.57-31.82-24.1-7-8.61.63-15.15.63-15.15,8.63-5.44,18.94,13.24,18.94,13.24l8.35,6.77c.14.68.27,1.35.4,2C133,119.35,134.49,125.51,135.39,131Z" transform="translate(-82 -13.85)"/><path class="cls-5" d="M165.62,124.7s15,6.11,17.53-.76-11.89-6.75-11.89-6.75l-5.63.8Z" transform="translate(-82 -13.85)"/><path class="cls-7" d="M102.27,89s-7.6,6.54-.63,15.14,39,27,39,27l20.87-5.64,5.9,1.08,1.12-11.08-8.7.85-22.09-4.71-14.08-11.42S110.9,83.56,102.27,89Z" transform="translate(-82 -13.85)"/><polygon class="cls-2" points="47.98 153.97 49.31 185.06 45.93 153.97 47.98 153.97"/><path class="cls-8" d="M273.63,145.57l-12.08,2.8a3.68,3.68,0,0,1-4.39-2.66h0a3.67,3.67,0,0,1,2.63-4.49,3.06,3.06,0,0,1,.85-.12l11.66-.28Z" transform="translate(-82 -13.85)"/><path class="cls-3" d="M272.35,147.34l-2.68-8,16.08-5.5-4.27-37.59h0c7.69,1.4,11.34,7.44,11,15.25l2.08,25.65Z" transform="translate(-82 -13.85)"/><path class="cls-6" d="M283.46,87.92h26.28V74.86a13.44,13.44,0,0,0-3.85-9.44,13,13,0,0,0-9.29-3.91,13.17,13.17,0,0,0-13.13,13c0,.12,0,.23,0,.35Z" transform="translate(-82 -13.85)"/><path class="cls-6" d="M320.72,241.48l-8.39-1-10.06-67.88-20.79,68.16-9.09.28,10.33-83.86-1.51-19.14L307,130C325.19,142.68,324.81,187.64,320.72,241.48Z" transform="translate(-82 -13.85)"/><circle class="cls-8" cx="212.29" cy="61.57" r="9.91"/><path class="cls-8" d="M304.2,93.32l-16.8,4.41c2.83-5.45,3.74-10.53,2.21-15.15l11.84-1.93A17.27,17.27,0,0,0,304.2,93.32Z" transform="translate(-82 -13.85)"/><path class="cls-3" d="M309.85,133.66c-9.43,6-20.4,12.88-28.51,6.2l-3.85-18.73c-3.07-2.72-1.71-11.15,2.44-23.15a5.27,5.27,0,0,1,3.29-3.29l6.39-2.2c2.83,2.39,7.47,1,12.94-2.2l6.33,1.65,2.76,20.66C307.66,118.55,308.36,126.48,309.85,133.66Z" transform="translate(-82 -13.85)"/><path class="cls-8" d="M302,141.72l-12.08,2.79a3.69,3.69,0,0,1-4.4-2.65h0a3.69,3.69,0,0,1,2.63-4.5,4.05,4.05,0,0,1,.85-.12l11.67-.27Z" transform="translate(-82 -13.85)"/><path class="cls-6" d="M319.26,254.46c-1.41.64-2.59-3.35-3.78-2.18-3.33,3.27-11.31,2.54-11.31,2.54a2.08,2.08,0,0,1-1.34-2.62l0-.09h0a2.07,2.07,0,0,1,1.44-1.29l3.54-.89,5.56-9.77,6.06-.77.15.25a15.59,15.59,0,0,1,1.67,12.77C320.78,254,320.09,254.08,319.26,254.46Z" transform="translate(-82 -13.85)"/><path class="cls-6" d="M279.33,254.46c-1.41.64-2.59-3.35-3.78-2.18-3.33,3.27-11.31,2.54-11.31,2.54a2.08,2.08,0,0,1-1.35-2.62l0-.09h0a2.07,2.07,0,0,1,1.44-1.29l3.54-.89,5.56-9.77,6.06-.77.15.25a15.59,15.59,0,0,1,1.67,12.77C280.85,254,280.16,254.08,279.33,254.46Z" transform="translate(-82 -13.85)"/><path class="cls-6" d="M305.91,67.15l-2.5,7.95-21.58-.39a13.34,13.34,0,0,1,24.08-7.56Z" transform="translate(-82 -13.85)"/><path class="cls-3" d="M300.72,143.49,298,135.44,314.12,130,308,91.54h0a15.63,15.63,0,0,1,12.82,16.06l2.08,25.65Z" transform="translate(-82 -13.85)"/><rect class="cls-3" y="240.52" width="247.68" height="0.82"/></svg>