<svg id="Layer_1" data-name="Layer 1" xmlns="http://www.w3.org/2000/svg" xmlns:xlink="http://www.w3.org/1999/xlink" viewBox="0 0 307 211.49"><defs><style>.cls-1,.cls-3{fill:#6c63ff;}.cls-1,.cls-17,.cls-19,.cls-4{opacity:0.1;}.cls-1,.cls-15,.cls-19,.cls-4,.cls-5,.cls-6,.cls-8{isolation:isolate;}.cls-19,.cls-2{fill:none;stroke-miterlimit:10;}.cls-2{stroke:#535461;stroke-width:3px;}.cls-5{opacity:0.3;}.cls-6{fill:#dee3f3;}.cls-15,.cls-6{opacity:0.5;}.cls-7{fill:#a8a8a8;}.cls-8{opacity:0.2;}.cls-9{fill:url(#linear-gradient);}.cls-10{fill:#f7c4a7;}.cls-11{fill:#535461;}.cls-12{fill:#575988;}.cls-13{fill:#e14b5a;}.cls-14{fill:#632652;}.cls-15,.cls-18{fill:#fff;}.cls-16{fill:url(#linear-gradient-2);}.cls-19{stroke:#000;}.cls-20{fill:#6a5c99;}.cls-21{fill:#ffd037;}.cls-22{fill:#d6d6e3;}</style><linearGradient id="linear-gradient" x1="338.93" y1="57.34" x2="338.93" y2="171.77" gradientTransform="matrix(1, 0, 0, -1, -37.66, 236.63)" gradientUnits="userSpaceOnUse"><stop offset="0" stop-color="gray" stop-opacity="0.25"/><stop offset="0.54" stop-color="gray" stop-opacity="0.12"/><stop offset="1" stop-color="gray" stop-opacity="0.1"/></linearGradient><linearGradient id="linear-gradient-2" x1="171.47" y1="20.39" x2="171.47" y2="127.58" xlink:href="#linear-gradient"/></defs><title>what-12</title><path class="cls-1" d="M336.57,164.68c-10.28,13.07-6.29,32.16.24,47.46,2.19,5.12,4.66,10.53,3.74,16-1.13,6.71-7.12,11.62-13.41,14.22a39.94,39.94,0,0,1-35.73-2.94c-9.11-5.67-15.63-14.88-24.9-20.29-15.5-9-35.23-5.63-52.06.6-11.91,4.41-24.93,10.15-36.76,5.54-8.33-3.24-14.08-11.14-17.22-19.5-1.51-4-2.61-8.42-5.5-11.62a20.7,20.7,0,0,0-6.26-4.39c-21-10.41-47.49-4.84-67.87-16.38-13.77-7.79-22.58-22.49-26.48-37.82s-3.45-31.4-2.46-47.19c.71-11.22,2-23.19,9.14-31.85C68.62,47.39,81.64,44,93.4,45.72s22.43,8,31.81,15.26c11.72,9.13,22.59,20.5,37,24.2,9.8,2.52,20.11,1.15,30.22.67,16.9-.8,33.81,1,50.62,2.92,16.09,1.86,32.29,3.91,47.62,9.14,10.85,3.7,19.55,10.43,29.79,15.13,6.68,3.06,14,3.9,20.28,7.8,7.79,4.81,14.93,13.16,12.93,22.94C351.76,153.08,342,157.74,336.57,164.68Z" transform="translate(-47 -45.28)"/><path class="cls-2" d="M247.64,85.37s-16.52-4.89-17.61,9,4.36,36.85,0,44.22-20,18-11.75,19,12.29,2.32,9.83,7.23-15.28,9.56-12.55,13.11,4.09,7.91,1.36,12.28-12.28,7.1-10.64,10.1,7.64,4.64,4.64,7.92-11.71,10.72-8.31,10.68" transform="translate(-47 -45.28)"/><rect class="cls-3" x="186.39" y="30.81" width="41.93" height="19.45" rx="3.54"/><rect class="cls-4" x="189.74" y="47.27" width="35.25" height="0.36"/><rect class="cls-5" x="189.74" y="33.85" width="35.25" height="13.37"/><circle class="cls-4" cx="197.94" cy="40.81" r="4.86"/><circle class="cls-4" cx="216.78" cy="40.81" r="4.86"/><rect class="cls-3" x="203.71" y="50.26" width="7.29" height="4.25"/><rect class="cls-3" x="192.17" y="53.3" width="30.38" height="24.31"/><rect class="cls-3" x="191.56" y="82.47" width="31.6" height="3.04"/><polygon class="cls-3" points="196.72 92.8 196.72 96.44 196.72 101.91 196.72 104.95 196.72 106.78 202.19 106.78 202.19 104.95 202.19 101.91 202.19 96.44 202.19 92.8 202.19 88.54 196.72 88.54 196.72 92.8"/><polygon class="cls-3" points="213.13 88.54 213.13 92.8 213.13 96.44 213.13 101.91 213.13 104.95 213.13 106.78 218.6 106.78 218.6 104.95 218.6 101.91 218.6 96.44 218.6 92.8 218.6 88.54 213.13 88.54"/><path class="cls-3" d="M235,104.05v5.62a8.22,8.22,0,0,0-4,2,9.59,9.59,0,0,0-2.41,3.52,17.83,17.83,0,0,0-1.18,5.39,31.18,31.18,0,0,0,.33,7.22h-6.07a41,41,0,0,1,.16-8.72,22.7,22.7,0,0,1,2-6.9,14,14,0,0,1,6.46-6.79A12,12,0,0,1,235,104.05Z" transform="translate(-47 -45.28)"/><rect class="cls-5" x="196.72" y="88.54" width="5.47" height="4.25"/><rect class="cls-5" x="196.72" y="96.44" width="5.47" height="5.47"/><rect class="cls-5" x="196.72" y="104.95" width="5.47" height="1.82"/><rect class="cls-5" x="213.13" y="88.54" width="5.47" height="4.25"/><rect class="cls-5" x="213.13" y="96.44" width="5.47" height="5.47"/><rect class="cls-5" x="213.13" y="104.95" width="5.47" height="1.82"/><path class="cls-5" d="M235,104.05v5.62a8.22,8.22,0,0,0-4,2l-.76-6.28A12,12,0,0,1,235,104.05Z" transform="translate(-47 -45.28)"/><path class="cls-5" d="M228.58,115.14a17.83,17.83,0,0,0-1.18,5.39l-5.58-1.5a22.7,22.7,0,0,1,2-6.9Z" transform="translate(-47 -45.28)"/><path class="cls-3" d="M273.69,104.05v5.62a8.22,8.22,0,0,1,4,2,9.59,9.59,0,0,1,2.41,3.52,17.83,17.83,0,0,1,1.18,5.39,30.64,30.64,0,0,1-.34,7.22h6.08a41.69,41.69,0,0,0-.16-8.72,23,23,0,0,0-1.95-6.9,14,14,0,0,0-6.46-6.79A12,12,0,0,0,273.69,104.05Z" transform="translate(-47 -45.28)"/><path class="cls-5" d="M273.69,104.05v5.62a8.22,8.22,0,0,1,4,2l.76-6.28A12,12,0,0,0,273.69,104.05Z" transform="translate(-47 -45.28)"/><path class="cls-5" d="M280.14,115.14a17.83,17.83,0,0,1,1.18,5.39l5.58-1.5a23,23,0,0,0-1.95-6.9Z" transform="translate(-47 -45.28)"/><rect class="cls-4" x="203.71" y="50.26" width="7.29" height="0.5"/><path class="cls-4" d="M270.09,102.91v10.18a2.13,2.13,0,0,1-.56-1.44v-7.3A2.13,2.13,0,0,1,270.09,102.91Z" transform="translate(-47 -45.28)"/><path class="cls-4" d="M239.27,103.58v7.62a2.08,2.08,0,0,1-.56,1.29v-10.2A2.1,2.1,0,0,1,239.27,103.58Z" transform="translate(-47 -45.28)"/><rect class="cls-4" x="193.69" y="77.61" width="27.35" height="0.36"/><rect class="cls-4" x="193.08" y="85.51" width="13.37" height="0.28"/><rect class="cls-4" x="207.66" y="85.51" width="13.37" height="0.28"/><rect class="cls-3" x="194.57" y="12.82" width="2.09" height="18"/><rect class="cls-3" x="218.56" y="12.82" width="2.09" height="18"/><circle class="cls-4" cx="195.55" cy="12.96" r="2.37"/><circle class="cls-3" cx="195.55" cy="12.82" r="2.37"/><circle class="cls-4" cx="219.68" cy="12.96" r="2.37"/><circle class="cls-3" cx="219.68" cy="12.82" r="2.37"/><path class="cls-6" d="M217.33,162.37a7.12,7.12,0,0,0-1.47,3.4,16.82,16.82,0,0,1-6.28,8.83c-2.28,1.69-5.33,3.56-4.79,6.07.13.6.47,1.16.56,1.77.39,2.62-3.62,4-5.18,6.3-1.15,1.71-.84,3.83-.5,5.78.42,2.38.93,4.92,2.89,6.68a8.39,8.39,0,0,1,1.52,1.45c.83,1.28.11,3,.86,4.27,1,1.75,4.15,1.83,6,.65s2.67-3.12,3.48-4.94c2.19-4.91,4.88-9.85,9.43-13.43,4.36-3.43,10.71-6.09,11.46-11.09.32-2.14-.5-4.48.75-6.37.58-.89,1.56-1.55,2.23-2.41,2-2.53.5-6.21-2.39-8C231.5,158.6,221.14,158.55,217.33,162.37Z" transform="translate(-47 -45.28)"/><rect class="cls-3" x="274.66" y="74.06" width="20.2" height="2.46" transform="translate(-56.5 43.07) rotate(-17.35)"/><path class="cls-7" d="M302.61,162.37s-10.57-2.11-13.39-4.93-15.5-7.75-16.91-4.23-19,15.5-7.05,17.62,28.19,2.82,31.72,1.41S302.61,162.37,302.61,162.37Z" transform="translate(-47 -45.28)"/><path class="cls-8" d="M265.26,169.52c12,2.11,28.19,2.82,31.72,1.41,2.68-1.08,4.54-6.23,5.28-8.63l.35.07s-2.11,8.46-5.63,9.87-19.74.7-31.72-1.41c-3.45-.61-4.44-2.05-4.07-3.86C261.49,168.15,262.69,169.06,265.26,169.52Z" transform="translate(-47 -45.28)"/><path class="cls-9" d="M326.09,70.22a3.14,3.14,0,0,0-.88-1.22c-2.83-2.58-7.42-1.8-10.94-3.38a4.72,4.72,0,0,0-2.53-.73c-1.23.19-2.37,1.6-3.44,1l.07.24-.07,0c.26.8.52,1.6.79,2.4a8.68,8.68,0,0,0,1.21,2.64A6.92,6.92,0,0,0,312,82.6a2.56,2.56,0,0,0,.11.24l.1,0a8.28,8.28,0,0,1,.52,1.67,9.74,9.74,0,0,0-4.07,2.63l-3.13-.11a10.15,10.15,0,0,1-5.62-1.91l-9.36-6.73a3.18,3.18,0,0,0-1.8.8c-1.16-1.22-2.15-2.48-2.06-3.22,0,0-4.35-8.15-5.94-4.08s3,8.35,3,8.35L286.58,84a14.77,14.77,0,0,0-.22,2c3.56,4.07,16,7.76,16,7.76l1.94.09V94a6.24,6.24,0,0,0-.17,1.55v.39c.1,6.5,1,26.38,1,26.38l.53-.22-.14,1.77a79.77,79.77,0,0,0-14.44,3.49c-6.13,2.33-6.33,5.05-6.33,5.05v24c-1.75.9-4.52,2.08-5.94,1.44s-2.38-.11-2.53.5h0a.63.63,0,0,0,0,.36h0a.47.47,0,0,0,.06.15h0a.45.45,0,0,0,.1.14c.59.58,13.45,5.62,16.42,4.85l.27-.09.08,0,.16-.08.09-.06.13-.1.08-.07.12-.1.07-.09.1-.12.06-.09.09-.13a.47.47,0,0,0,.05-.1,1.09,1.09,0,0,0,.08-.15s0-.07.05-.1l.06-.16,0-.1.06-.18,0-.1a1.46,1.46,0,0,1,.05-.2.29.29,0,0,1,0-.09c0-.07,0-.14,0-.22s0,0,0-.08,0-.15,0-.23V161l0-.26v-.05c0-.1,0-.19,0-.28v0a2.81,2.81,0,0,0,0-.29v0a15.9,15.9,0,0,0-.38-3.44h0l.72-20.42a113.1,113.1,0,0,0,11.64-.42l.43,9.73s0,6.41,2.17,9.32c1.87,2.49,4,13.5,4.6,16.62a5.52,5.52,0,0,1-5,3.35s-5-.43-4.73.95h0l0,.11h0l.06.11h0l.07.11,0,0,.1.13h0l.11.12,0,0,.14.14c2.57,2.33,17.61,2.71,17.61,2.71h0v0h0v-.05h0a25.78,25.78,0,0,0-1-6.87h.21s-2.18-19.59-4-21.92c0,0-.47-10.33.6-16.8l.19-.07c5-1.86,5.35-6.45,4.83-9.82.95.3,1.5.51,1.5.51s0-.15,0-.41l0,0s-.09-.62-.25-1.58a67.09,67.09,0,0,0-1.78-9.44c-.12-.48-.23-.89-.34-1.2a20.54,20.54,0,0,1-.87-4,50.16,50.16,0,0,1-.31-5.34,51.51,51.51,0,0,1,.55-7.13,43.75,43.75,0,0,0,.55-6,8.06,8.06,0,0,0-.12-1.7,4,4,0,0,0-2.64-2.5l-.24-.09c0-.46.07-1,.12-1.52a1.34,1.34,0,0,0,1,.2,2.4,2.4,0,0,0,1.23-1c1.75-2.15,3.55-4.4,4.23-7.07a16,16,0,0,0,.37-3.64v-.2A4.16,4.16,0,0,0,326.09,70.22Z" transform="translate(-47 -45.28)"/><path class="cls-10" d="M310.12,80.71s2.66,4,2.09,5.89,6.26.76,6.26.76.19-7.41,1.52-9.11S310.12,80.71,310.12,80.71Z" transform="translate(-47 -45.28)"/><path class="cls-10" d="M292.57,83.28s-5.5-4.56-5.31-6.27c0,0-4.18-8-5.7-4s2.85,8.16,2.85,8.16l5.31,7Z" transform="translate(-47 -45.28)"/><path class="cls-11" d="M287,154.72s-5.12,3.23-7.21,2.28-2.85.57-2.28,1.14,12.91,5.5,15.75,4.74,1.4-7,1.4-7Z" transform="translate(-47 -45.28)"/><path class="cls-11" d="M314.11,168.57s-1.24,5.22-5.51,5.13c0,0-6.45-.57-4,1.7s16.89,2.66,16.89,2.66,0-7.78-2.66-9.49A4.07,4.07,0,0,0,314.11,168.57Z" transform="translate(-47 -45.28)"/><path class="cls-12" d="M306.33,131.76,306.9,145s0,6.26,2.08,9.11,4.56,17.08,4.56,17.08h7.21s-2.09-19.17-3.8-21.44c0,0-.76-16.89,1.9-20.69Z" transform="translate(-47 -45.28)"/><path class="cls-4" d="M306.33,131.76,306.9,145s0,6.26,2.08,9.11,4.56,17.08,4.56,17.08h7.21s-2.09-19.17-3.8-21.44c0,0-.76-16.89,1.9-20.69Z" transform="translate(-47 -45.28)"/><path class="cls-12" d="M321.32,119.8s4.36,10.44-3.61,13.48-22.39,2.65-22.39,2.65l-.76,22s-8.92,1.14-9.11-1.71v-24.1s.19-2.66,6.08-4.93a75.45,75.45,0,0,1,13.85-3.42l.38-4.93Z" transform="translate(-47 -45.28)"/><path class="cls-4" d="M314.32,85.42a9.18,9.18,0,0,1,4.46.63,3.87,3.87,0,0,1,2.54,2.44c.3,1.4,0,4.55-.42,7.2a50,50,0,0,0-.23,12.58,13.4,13.4,0,0,0,.84,3.94c1.14,2.09,2.28,12,2.28,12s-12.53-4.74-18.79-1.9c0,0-.86-19.45-.95-25.81-.07-4.92,6.17-10.53,8.25-10.72C313.53,85.63,313.11,85.55,314.32,85.42Z" transform="translate(-47 -45.28)"/><path class="cls-13" d="M314.32,85a9.18,9.18,0,0,1,4.46.63,3.87,3.87,0,0,1,2.54,2.44c.3,1.4,0,4.55-.42,7.2a50,50,0,0,0-.23,12.58,20.33,20.33,0,0,0,.84,3.94c.85,2.57,2.28,12,2.28,12s-12.53-4.74-18.79-1.9c0,0-.86-19.45-.95-25.81-.07-4.92,6.17-10.53,8.25-10.72C313.53,85.25,313.11,85.17,314.32,85Z" transform="translate(-47 -45.28)"/><path class="cls-4" d="M317.71,95.52l-13.47-.76s-.86-6.61,1.09-6.54l13.33.46S321.51,92.1,317.71,95.52Z" transform="translate(-47 -45.28)"/><path class="cls-13" d="M317.71,95.14l-15.37-.76S290.39,90.77,287,86.79c0,0,.19-7,4-7.4l9,6.58a9.72,9.72,0,0,0,5.4,1.87l13.33.46S321.51,91.72,317.71,95.14Z" transform="translate(-47 -45.28)"/><path class="cls-4" d="M318.38,81.57A5.17,5.17,0,0,1,320,78.44c1.33-1.71-9.87,2.46-9.87,2.46a19.94,19.94,0,0,1,1.52,2.8,6.8,6.8,0,0,0,2.85.62C316.14,84.32,317.2,82.54,318.38,81.57Z" transform="translate(-47 -45.28)"/><circle class="cls-10" cx="267.49" cy="32.01" r="6.83"/><path class="cls-4" d="M310.17,72.51a7.59,7.59,0,0,1-1.4-2.88L308,67.28c1,.61,2.12-.76,3.3-1a4.45,4.45,0,0,1,2.43.71c3.37,1.55,7.77.78,10.49,3.31a2.94,2.94,0,0,1,.84,1.19,4,4,0,0,1,.16,1.33,15.29,15.29,0,0,1-.36,3.57c-.65,2.61-2.37,4.81-4.06,6.92a2.22,2.22,0,0,1-1.17.93c-1,.22-1.74-.83-2.11-1.76a18.67,18.67,0,0,1-1.1-3.81,5.29,5.29,0,0,0-.45-1.61,14.8,14.8,0,0,0-2.92-2.83C312.19,73.48,311,73.39,310.17,72.51Z" transform="translate(-47 -45.28)"/><path class="cls-14" d="M310.17,72.32a7.59,7.59,0,0,1-1.4-2.88L308,67.09c1,.61,2.12-.76,3.3-1a4.45,4.45,0,0,1,2.43.71c3.37,1.55,7.77.78,10.49,3.31a2.94,2.94,0,0,1,.84,1.19,4,4,0,0,1,.16,1.33,15.29,15.29,0,0,1-.36,3.57c-.65,2.61-2.37,4.81-4.06,6.92a2.29,2.29,0,0,1-1.17.94c-1,.21-1.74-.84-2.11-1.77a18.67,18.67,0,0,1-1.1-3.81,5.29,5.29,0,0,0-.45-1.61,14.8,14.8,0,0,0-2.92-2.83C312.19,73.29,311,73.2,310.17,72.32Z" transform="translate(-47 -45.28)"/><ellipse class="cls-10" cx="269.29" cy="32.77" rx="0.57" ry="1.23"/><path class="cls-4" d="M319.71,111s-.38,1.14-2.28,1-7.4-.57-7.4,0" transform="translate(-47 -45.28)"/><path class="cls-15" d="M304.62,175.21a1.58,1.58,0,0,1-.55-.79c-.05.25.1.57.55,1,2.47,2.28,16.89,2.66,16.89,2.66v-.19C321.41,177.87,307.08,177.48,304.62,175.21Z" transform="translate(-47 -45.28)"/><path class="cls-15" d="M293.23,162.5c-2.84.76-15.18-4.17-15.75-4.74a.64.64,0,0,1-.15-.28.69.69,0,0,0,.15.66c.57.57,12.91,5.5,15.75,4.74,1.47-.39,1.79-2.23,1.77-3.92C295,160.54,294.59,162.14,293.23,162.5Z" transform="translate(-47 -45.28)"/><path class="cls-16" d="M185,177a82.49,82.49,0,0,1-1.22-11.2h0a15,15,0,0,0-10.56-13.71c-1.08-.33-2.27-.64-3.58-.92-11.5-2.44-15-.31-15.39,0a16.3,16.3,0,0,1-.87-1.9l-.06-.2a14.7,14.7,0,0,0,3.94-8.87,9.71,9.71,0,0,0,3-6.82,9.4,9.4,0,0,0-2.28-6V124a14.94,14.94,0,0,0-14.94-14.93h-1.21A14.93,14.93,0,0,0,126.92,124h0v3.71a9.25,9.25,0,0,0-2.07,5.7,9.69,9.69,0,0,0,2.92,6.7,14.81,14.81,0,0,0,4.1,9.15c.08.56.17,1.17.25,1.8l-20.58,4.35s-7.93.33-13,10.87C94.18,175.18,85.57,198.12,83,205h0c-.46,1.24-.73,2-.73,2l.25-.23-.25.66.37-.33c-.36,2.86-.42,7.76,3.33,8.37,3.14.52,11.22.73,17.33.81h.42c4,.05,7.13.05,7.13.05v-.05h65.69v-.67a4.5,4.5,0,0,0-.37-1.78l.1-.11a3.61,3.61,0,0,1,.68,1.58l0,.16,0-.1a1.64,1.64,0,0,1,0,.54s8.42-21.71,8.33-34.68A21.55,21.55,0,0,0,185,177ZM132.45,154a16.87,16.87,0,0,1-.2-1.88h0C132.32,152.69,132.39,153.33,132.45,154Zm-25.52,46.64v5.17l-3.25.69Z" transform="translate(-47 -45.28)"/><path class="cls-13" d="M142.12,111.14h0a14.93,14.93,0,0,1,14.93,14.93v6.37H127.19v-6.37A14.93,14.93,0,0,1,142.12,111.14Z" transform="translate(-47 -45.28)"/><ellipse class="cls-13" cx="95.22" cy="89.25" rx="17.02" ry="11.7"/><path class="cls-10" d="M131.31,145.86s3.55,18.59,0,23.6,10.86,7,10.86,7L157.1,171l2.09-13.37s-9.08-5.12-7.2-15.45Z" transform="translate(-47 -45.28)"/><path class="cls-10" d="M175.38,208.52s.94,4.07-4.18,4.8a28.94,28.94,0,0,1-9.1-.11L161,203h11.9Z" transform="translate(-47 -45.28)"/><path class="cls-10" d="M85,203.3s-2.26,9.18,2.86,10,23.91.84,23.91.84V203.3l-8.5,1.81-8-7.66Z" transform="translate(-47 -45.28)"/><path class="cls-4" d="M132.41,151.87l-20,4.22s-7.62.32-12.53,10.45-15.56,39.05-15.56,39.05,9.09-9.19,19.74.63l7.1-12.85-1.57,20.37h55v-9.61s11.49,6.16,10.65,9.61c0,0,9.83-25.33,7.72-36.84a78,78,0,0,1-1.17-10.77h0A14.44,14.44,0,0,0,171.66,153c-1-.32-2.17-.62-3.43-.89-11.8-2.5-14.83,0-14.83,0s-2.29,7.44-2.25,10.81c0,4.34-6.16,7.21-6.16,7.21s-9.19-2.2-9.61-4S131.68,154,132.41,151.87Z" transform="translate(-47 -45.28)"/><path class="cls-12" d="M132.41,151.45l-20,4.23s-7.62.31-12.53,10.44-15.56,39-15.56,39,9.09-9.18,19.74.63l7.1-12.84-1.57,20.36h55v-9.61s11.49,6.16,10.65,9.61c0,0,9.83-25.33,7.72-36.84a77.62,77.62,0,0,1-1.17-10.77h0a14.44,14.44,0,0,0-10.16-13.17c-1-.32-2.17-.62-3.43-.88-11.8-2.51-14.83,0-14.83,0s-2.29,7.43-2.25,10.8c0,4.34-6.16,7.21-6.16,7.21s-9.19-2.19-9.61-4S131.68,153.54,132.41,151.45Z" transform="translate(-47 -45.28)"/><path class="cls-4" d="M152.85,150.56a14.16,14.16,0,0,1-.55-7.41l-20.67,3.65s.29,1.56.63,3.9a14.2,14.2,0,0,0,20.08.38l.51-.52Z" transform="translate(-47 -45.28)"/><path class="cls-10" d="M156.37,139.91a14.2,14.2,0,0,1-28.4.34v-.34a14.2,14.2,0,0,1,8-12.76,13.57,13.57,0,0,1,1.31-.56,14.25,14.25,0,0,1,7.32-.68h0A14.18,14.18,0,0,1,156.34,139C156.36,139.28,156.37,139.59,156.37,139.91Z" transform="translate(-47 -45.28)"/><g class="cls-17"><path d="M137.22,126.92h0a13.57,13.57,0,0,0-1.31.56,14.2,14.2,0,0,0-8,12.76v.34a3.12,3.12,0,0,0,1.28-.3c3.46-1.62,5.54-6.56,6.35-10C135.9,129,136.18,127.64,137.22,126.92Z" transform="translate(-47 -45.28)"/><path d="M148.09,127.32a13.63,13.63,0,0,0-3.53-1.09,4.57,4.57,0,0,1,2.54,1.59,7.21,7.21,0,0,1,.78,1.38,14.26,14.26,0,0,0-11.95.25c.89,2,3.66,3,5.5,3.74q3,1.17,6.14,2.13l-1.83-1.48,4.12.66a7.11,7.11,0,0,0-.28-2.43,26.21,26.21,0,0,0,2.69,1.39c1.61,1,2.28,3,3.15,4.65a3,3,0,0,0,.92,1.18A14.19,14.19,0,0,0,148.09,127.32Z" transform="translate(-47 -45.28)"/></g><path class="cls-14" d="M137.22,126.6h0a13.57,13.57,0,0,0-1.31.56,14.2,14.2,0,0,0-8,12.76v.34a3.12,3.12,0,0,0,1.28-.3c3.46-1.62,5.54-6.56,6.35-10C135.9,128.71,136.18,127.31,137.22,126.6Z" transform="translate(-47 -45.28)"/><path class="cls-14" d="M148.09,127a13.63,13.63,0,0,0-3.53-1.09,4.57,4.57,0,0,1,2.54,1.59,7.21,7.21,0,0,1,.78,1.38,14.26,14.26,0,0,0-11.95.25c.89,2,3.66,3,5.5,3.73,2,.78,4.07,1.5,6.14,2.14l-1.83-1.48,4.12.66a7.11,7.11,0,0,0-.28-2.43,26.21,26.21,0,0,0,2.69,1.39c1.61,1,2.28,3,3.15,4.65a3,3,0,0,0,.92,1.18A14.19,14.19,0,0,0,148.09,127Z" transform="translate(-47 -45.28)"/><path class="cls-4" d="M126.35,137.57s14.62-18.17,31.54,0l-1.46-4.08s-7.94-11.59-13.58-9.08-11.17,4.28-11.17,4.28Z" transform="translate(-47 -45.28)"/><path class="cls-13" d="M126.35,137.25s14.62-18.17,31.54,0l-1.46-4.08s-7.94-11.59-13.58-9.08-11.17,4.28-11.17,4.28Z" transform="translate(-47 -45.28)"/><path class="cls-4" d="M114.34,176.41s-3.13,8.35,1.26,15.87-3.87,10.65-3.87,10.65" transform="translate(-47 -45.28)"/><path class="cls-4" d="M165.09,168.89s5.43,6.89,1.88,13.05-3.34,21-3.34,21" transform="translate(-47 -45.28)"/><path class="cls-11" d="M109.54,209.09H169.9a5,5,0,0,1,5,5H104.53a5,5,0,0,1,5-5Z" transform="translate(-47 -45.28)"/><path class="cls-11" d="M118.62,174.63h42.2a10.64,10.64,0,0,1,10.64,10.65v25H108v-25a10.65,10.65,0,0,1,10.65-10.65Z" transform="translate(-47 -45.28)"/><circle class="cls-18" cx="92.67" cy="148.72" r="3.76"/><path class="cls-19" d="M127.19,129.05s14.37-14.36,29.86-.26" transform="translate(-47 -45.28)"/><rect class="cls-20" x="112.24" y="82.85" width="1.44" height="8.18"/><path class="cls-21" d="M157.32,133.42h0a5,5,0,0,1,5,5h0v.32a5,5,0,0,1-5,5h0V133.42Z" transform="translate(-47 -45.28)"/><path class="cls-20" d="M157.48,132.94h0a1.13,1.13,0,0,1,1.12,1.13v9a1.12,1.12,0,0,1-1.12,1.12h0a1.13,1.13,0,0,1-1.13-1.12v-9A1.14,1.14,0,0,1,157.48,132.94Z" transform="translate(-47 -45.28)"/><rect class="cls-20" x="76.41" y="83.01" width="1.44" height="8.18"/><path class="cls-21" d="M126.78,143.85h0a5,5,0,0,1-5-5h0v-.32a5,5,0,0,1,5-5h0v10.27Z" transform="translate(-47 -45.28)"/><path class="cls-20" d="M126.62,144.33h0a1.13,1.13,0,0,1-1.13-1.12v-9a1.14,1.14,0,0,1,1.13-1.13h0a1.13,1.13,0,0,1,1.12,1.13v9A1.12,1.12,0,0,1,126.62,144.33Z" transform="translate(-47 -45.28)"/><path class="cls-21" d="M159.07,119.39c-1.95-4.06-6.21-9-15.38-9.37h-.12l-3.25.15v0c-9.11.42-13.35,5.31-15.3,9.36a21.15,21.15,0,0,0-2,8.77l1.12,0,1.12,0a19,19,0,0,1,1.83-7.81c2.47-5.09,7-7.79,13.53-8h0l2.87-.16h0c6.51.25,11.06,2.95,13.53,8a19.07,19.07,0,0,1,1.83,7.82l1.12,0,1.12,0A21.15,21.15,0,0,0,159.07,119.39Z" transform="translate(-47 -45.28)"/><rect class="cls-22" x="10.27" y="168.89" width="153.07" height="41.1"/><rect class="cls-4" x="10.27" y="171.65" width="153.07" height="5.33"/><rect class="cls-22" y="168.29" width="173.61" height="5.33"/><path class="cls-2" d="M165.88,200.31s6.55,12,22.93,8.73,8.46,30.3,8.46,30.3-2.68,16-.79,15.93" transform="translate(-47 -45.28)"/></svg>