<svg id="Layer_1" data-name="Layer 1" xmlns="http://www.w3.org/2000/svg" xmlns:xlink="http://www.w3.org/1999/xlink" viewBox="0 0 387.89 255.22"><defs><style>.cls-1,.cls-5,.cls-6{fill:#6c63ff;}.cls-1,.cls-11,.cls-4{opacity:0.1;}.cls-1,.cls-10,.cls-4,.cls-6{isolation:isolate;}.cls-2{fill:#464353;}.cls-3{fill:#514e7f;}.cls-6{opacity:0.5;}.cls-7{fill:url(#linear-gradient);}.cls-8{fill:#3f3d56;}.cls-9{fill:#a1616a;}.cls-10{opacity:0.05;}.cls-12{fill:#a0616a;}.cls-13{fill:#36344a;}.cls-14{fill:#eeeff3;}</style><linearGradient id="linear-gradient" x1="99.75" y1="-54.44" x2="99.75" y2="136.5" gradientTransform="matrix(1, 0, 0, -1, -24.78, 189.78)" gradientUnits="userSpaceOnUse"><stop offset="0" stop-color="gray" stop-opacity="0.25"/><stop offset="0.54" stop-color="gray" stop-opacity="0.12"/><stop offset="1" stop-color="gray" stop-opacity="0.1"/></linearGradient></defs><title>what-4</title><ellipse class="cls-1" cx="79.95" cy="214.34" rx="79.95" ry="2.72"/><polygon class="cls-2" points="145.76 213.43 143.13 213.43 123.9 114.12 121.43 213.43 118.64 213.43 115.51 114.29 96.77 213.43 93.81 213.43 106.55 111.36 106.97 108.04 131.96 105.25 132.73 111.36 145.76 213.43"/><rect class="cls-2" x="76.77" y="85.34" width="15.91" height="9.86"/><path class="cls-2" d="M182.11,109.83l9.62-3.88h2.11a1.16,1.16,0,0,1,1.16,1.16V134.2a1.16,1.16,0,0,1-1.16,1.16h-2.11l-9.62-4Z" transform="translate(-13.05 -28.81)"/><rect class="cls-2" x="149.4" y="82.26" width="19.67" height="19.05"/><rect class="cls-3" x="115.26" y="46.48" width="12.66" height="2.3"/><rect class="cls-3" x="100.82" y="49.46" width="35.64" height="26.02"/><rect class="cls-4" x="100.82" y="72.39" width="35.64" height="3.08"/><rect class="cls-4" x="149.09" y="82.26" width="0.8" height="19.05"/><rect class="cls-4" x="87.25" y="85.34" width="5.43" height="9.86"/><polygon class="cls-4" points="132.73 111.36 106.55 111.36 106.97 108.04 131.96 105.25 132.73 111.36"/><rect class="cls-3" x="87.74" y="72.89" width="61.65" height="37.98" rx="3.17"/><path class="cls-3" d="M181.93,109.83h.18v21.52h-.18a1.54,1.54,0,0,1-1.54-1.54h0V111.37A1.54,1.54,0,0,1,181.93,109.83Z" transform="translate(-13.05 -28.81)"/><path class="cls-3" d="M191.73,106h2a1.27,1.27,0,0,1,1.27,1.27V134.1a1.27,1.27,0,0,1-1.27,1.27h-2V106Z" transform="translate(-13.05 -28.81)"/><rect class="cls-4" x="76.77" y="85.34" width="2.84" height="9.86"/><rect class="cls-3" x="73.57" y="82.26" width="5.55" height="16.77" rx="2.13"/><circle class="cls-2" cx="100.82" cy="49.46" r="17.76"/><circle class="cls-5" cx="100.82" cy="49.46" r="13.32"/><circle class="cls-2" cx="133.74" cy="49.83" r="12.95"/><circle class="cls-5" cx="133.74" cy="49.83" r="9.71"/><circle class="cls-5" cx="132.73" cy="78.54" r="1.7"/><circle class="cls-6" cx="138.16" cy="78.54" r="1.7"/><path class="cls-7" d="M129.75,113.23l-.12-.24a10.73,10.73,0,0,1,2.15,1c-.3-2.58-10.18-9.81-12-9.81s-3.75-3.07-3.75-3.07-5.14-.8-5.93-1.63-6.13-.35-7.42-.06-3.26-.79-3.26-.79S98.37,96.84,97,96.84s-2.86-2-2.86-2a6.12,6.12,0,0,0-2.47-1.39A6.45,6.45,0,0,1,88.29,91c-.69-1-4.15-1.49-6.12-1.19s-7.32-.4-7.32-.4A5.22,5.22,0,0,0,77.55,86c-1.94-.1-7.06-4.39-7.06-4.39S70.71,83,71,85l-.33-.42-.05,0a33.81,33.81,0,0,1,0-4.15c0-.11,0-.21,0-.32a9.24,9.24,0,0,0,2.9-9.1c-.06-.23-.12-.45-.19-.66a4.41,4.41,0,0,0,1.19.29h.21a1.71,1.71,0,0,0,1.3-.57h0a1.76,1.76,0,0,0,.14-.23l0,0a1.09,1.09,0,0,0,.09-.23.31.31,0,0,0,0-.08,1.29,1.29,0,0,0,0-.19V69a3.74,3.74,0,0,0-.3-1.32,6,6,0,0,1-.73-2.35,1.38,1.38,0,0,1,0-.2,10.13,10.13,0,0,1,.63-1.88v0A2.86,2.86,0,0,0,76,63a.24.24,0,0,0,0-.08,1.88,1.88,0,0,0,0-.33v0A3.14,3.14,0,0,0,74,59.72a20.64,20.64,0,0,1-3.1-1.18,11.8,11.8,0,0,1-2.42-2.91,5.55,5.55,0,0,0-4.74-2.33c-1.13.13-2.15.72-3.27,1-1.69.35-3.49-.16-5.18.23a1.81,1.81,0,0,0-1.06.6,1.28,1.28,0,0,0-.21.53h0a2.44,2.44,0,0,0,0,.54v0a4.54,4.54,0,0,0,.09.51l0,.1a.36.36,0,0,0,0,.1l.06.21.09.35v0c0,.12.05.25.07.37h0a6.93,6.93,0,0,1,.1.78h0A3.55,3.55,0,0,1,54,60.74c-.74,1.18-2.31,1.71-3,2.94a2.54,2.54,0,0,0-.29,1h0a1.88,1.88,0,0,0,0,.34v0a1,1,0,0,0,0,.3v.07a1.22,1.22,0,0,0,.06.26.19.19,0,0,0,0,.08,1.88,1.88,0,0,0,.12.3h0c.32.66.92,1.21,1,1.92h0A.11.11,0,0,0,52,68a5.22,5.22,0,0,1-.27,1.6,1.29,1.29,0,0,0,0,.19h0v.67a.45.45,0,0,0,0,.11l0,.08a.47.47,0,0,0,.05.1l0,.06.07.11,0,0a.74.74,0,0,0,.13.12c.41.3,1.05.22,1.38.6a.71.71,0,0,1,.1.14l0,0a1,1,0,0,1,.05.16h0a1.56,1.56,0,0,1,0,.68c-.11.59-.37,1.13-.5,1.71,0,.12,0,.24-.06.36h0A1,1,0,0,1,53,75v.23a1.62,1.62,0,0,0,0,.22c0,.08,0,.08,0,.11l0,.08a.53.53,0,0,0,0,.12l0,.07a.5.5,0,0,0,0,.13l0,0a1.08,1.08,0,0,0,.11.18,1.87,1.87,0,0,0,1.57.65A4.7,4.7,0,0,0,56,76.7l.24.54a9.48,9.48,0,0,0,1.67,2.35,2.48,2.48,0,0,1,0,.27c-.07.68-.15,1.4-.24,2.14-.77-.36-1.37-.49-1.6-.24-1,1.09,0,4.86,0,4.86s-4.85,0-6,1.09-3.36,0-3.36,0-4.45.49-4.15,1.39-2.37,0-2.37,0-1.88.2-1.78,1.48-2.87,1.88-2.48,2.77S34,94.83,34,94.83s-2.17-.09-1.38,1.19h0s-1.18,2.78-2.17,3-2.27,2.48-2.27,2.48-3.81.69-3.64,1.88-5.85,9.7-5.85,9.7-2,4.08-.6,7a55.58,55.58,0,0,1,2.67,6c.3,1.09,3.89,5.88,3.86,6.77a21.09,21.09,0,0,0,2.11,3.69l-.36.36-.78.81s-2.47,6.14.49,6.44c2.51.25,4.31.43,5.22.18a1.57,1.57,0,0,0,.42-.18l0,0c1.08,1.59,1.85,2.7,1.85,2.7l.29-.42.3.42.64-.89c-.13,2.7-.15,5.35-.15,5.35s1.29-.2.69,5.75S39,167.88,39,167.88v8.82h0s0,.22,0,.59a18.19,18.19,0,0,0,1.54,6.23c1.39,2.57,0,9.31,0,9.31s-.09,5.5.24,12.35c0,.19,0,.38,0,.57-6,5-12.42,11.65-12.42,11.65a3.74,3.74,0,0,1,.89.4l-.36.46-1.64,2h0L26,221.84h0L28,228l2.19-.85s1.18,2,.93,3.44a1.42,1.42,0,0,1-.29.69.93.93,0,0,0-.16.35c-.57,2.23,1.82,11.86,5.6,12.27,0,0,1.29.43,1.7-.73a5,5,0,0,0-.25-3s-2-2.42-.71-5c.76-1.52,2-3.56,2.93-5l.37-.6,1.32,1.69,2.91-3.13a3.54,3.54,0,0,0,.19.39,8.8,8.8,0,0,0,.75,1.25l2,7.83.8-.18c0,.19,0,.4,0,.6a9.87,9.87,0,0,0,.65,4.53,2.7,2.7,0,0,0,2.65,1.65c4.59-.11,5.93-2.6,5.93-2.6v-6.22l1.58-.35s-.12-13.68-.52-21.31c0-.17,0-.34,0-.5v-.06l10.15-10.92.78-.31a10.54,10.54,0,0,0,6.62-9.21,31.7,31.7,0,0,1,.79-6.74c.79-3.07.1-19-1.38-23a40.64,40.64,0,0,1-2-8.42s1.48-2.08,0-3.81a7.32,7.32,0,0,1-1-1.69l1.93-.32,1.11-.18.6-.11c-.3,2.63-.35,4.64.35,5.12,2.18,1.48,9.49-3.47,9.49-3.47-2.67,0-4.15-19.91-3.61-20.41s1.36-10.47.65-12.25,2.48-9.73,2.48-9.73l.5-.73h0s11.66,5.1,12.94,6.07,5.34-2.37,6-1.08,5,3.23,5,3.23,6.43-.65,7.12.94,4.84,5.3,4.84,5.3a22.85,22.85,0,0,1,.16-2.61l.26.63c2,4.65,5.24,10.55,8.28,7.38C134.05,123.25,131.43,116.59,129.75,113.23Zm-87.91,21v.06l0,0Zm-2.3-22.85-1.26,13.25-2.47,2.56-.29.31L33,124.78s-1.29-.6,0-1.69-2.18-3.56-2.18-3.56-.1-1.77,1.19-2.27,3-3.77,3-3.77l4.65-2.37h0Zm16.53,67.84a1.61,1.61,0,0,1,.3-.21c.55-.32.91,0,1.09.63a5,5,0,0,1-.21,3.05c-.69,1.59,1,7.93,1,7.93a4.85,4.85,0,0,0-2.57,2.87,2.23,2.23,0,0,1-.29.65c0-.17-.05-.33-.08-.48-.19-1.19-.29-2-.29-2a12.4,12.4,0,0,1-.2-4.66c.31-1.9.95-5.78,1.18-7.24.06-.36.1-.57.1-.6Z" transform="translate(-13.05 -28.81)"/><path class="cls-2" d="M69.85,82.74l.64-.42,1.81,3.81-.69.81h-2.1s.07-2.07.12-2.15S69.85,82.74,69.85,82.74Z" transform="translate(-13.05 -28.81)"/><path class="cls-8" d="M57.46,233.76v8.15s-1.34,2.49-5.93,2.6a2.7,2.7,0,0,1-2.65-1.65,10,10,0,0,1-.65-4.52,18.22,18.22,0,0,1,.22-2.1Z" transform="translate(-13.05 -28.81)"/><path class="cls-4" d="M57.46,233.76v2.52l-9.23,2.06a18.22,18.22,0,0,1,.22-2.1Z" transform="translate(-13.05 -28.81)"/><path class="cls-3" d="M59,235.34l-11.56,2.57-2-7.81a9.19,9.19,0,0,1-.75-1.25c-.13-.25-.25-.51-.37-.79-2.16-4.92-3.11-13.8-3.52-21.36l-.06-1.14c-.33-6.83-.24-12.32-.24-12.32s1.38-6.72,0-9.29A17.92,17.92,0,0,1,39,177.73c0-.38,0-.6,0-.6l.21-.56.87-2.3h9.59L55.23,179l.84.72-.09.59c-.24,1.47-.88,5.34-1.19,7.23a12.77,12.77,0,0,0,.2,4.65s.12.75.3,1.94c0,.3.09.61.15,1,.71,4.38,2,12.38,2.6,14.29a21.06,21.06,0,0,1,.4,3.63c0,.35.05.72.07,1.11C58.92,221.7,59,235.34,59,235.34Z" transform="translate(-13.05 -28.81)"/><path class="cls-4" d="M57.46,241.83v.08s-1.34,2.49-5.93,2.6a2.7,2.7,0,0,1-2.65-1.65A11.52,11.52,0,0,0,57.46,241.83Z" transform="translate(-13.05 -28.81)"/><path class="cls-9" d="M130.59,127.42c-3,3.16-6.31-2.72-8.28-7.37-1.1-2.61-1.8-4.84-1.8-4.84l8.11-3.43s.5.79,1.13,2C131.43,117.17,134.05,123.82,130.59,127.42Z" transform="translate(-13.05 -28.81)"/><path class="cls-9" d="M70.54,81.1a37.27,37.27,0,0,0,.65,8.76s-16.5,1.78-15-.79c.87-1.5,1.44-5.48,1.75-8.52.23-2.15.33-3.83.33-3.83s15.81-6.33,13.44-1A15.59,15.59,0,0,0,70.54,81.1Z" transform="translate(-13.05 -28.81)"/><polygon class="cls-2" points="58.88 94.76 56.66 121.24 66.84 119.56 65.06 97.72 65.66 91.89 58.88 94.76"/><polygon class="cls-4" points="66.84 119.61 62.42 120.33 56.66 121.28 57.07 116.45 58.88 94.8 61.19 93.82 62.83 93.13 65.66 91.93 65.06 97.76 66.84 119.61"/><path class="cls-8" d="M37,235.46c-1.3,2.59.7,5,.7,5a5,5,0,0,1,.25,3c-.41,1.15-1.7.73-1.7.73-4-.45-6.48-11.34-5.44-12.59s-.63-4.12-.63-4.12L28,228.3l-2-6.14,1.26-1.56,1.64-2,1.1-1.37,11,11.53s-.47.71-1.12,1.73C39.05,231.9,37.8,234,37,235.46Z" transform="translate(-13.05 -28.81)"/><path class="cls-4" d="M58.52,214.09,44.75,228.85c-2.42-4.71-3.45-14.17-3.89-22.15a37.17,37.17,0,0,1,6.91-4.86s6.34-4.59,7.68-6.79c.71,4.38,2,12.38,2.6,14.3A30.64,30.64,0,0,1,58.52,214.09Z" transform="translate(-13.05 -28.81)"/><polygon class="cls-4" points="42.18 150.17 26.14 147.76 27.01 145.46 36.6 145.46 42.18 150.17"/><path class="cls-4" d="M58.46,213,44.39,228.06c-2.17-4.92-3.12-13.8-3.53-21.36l-.06-1.14a39.13,39.13,0,0,1,7-4.91s5.92-4.27,7.53-6.55c0,.3.09.61.15,1,.71,4.39,2,12.39,2.6,14.3A22.8,22.8,0,0,1,58.46,213Z" transform="translate(-13.05 -28.81)"/><path class="cls-4" d="M41.08,228.76s-.47.7-1.12,1.72c-2.36-3-8-9.84-11-11.89l1.1-1.36Z" transform="translate(-13.05 -28.81)"/><path class="cls-3" d="M76.83,186.42a31.51,31.51,0,0,0-.79,6.72,10.51,10.51,0,0,1-6.62,9.19l-.78.3-27,28.94s-10-13-13.25-13.84c0,0,13.14-13.54,19.37-16.5,0,0,7.51-5.44,7.91-7.31a4.82,4.82,0,0,1,2.57-2.87s-1.68-6.32-1-7.91a5.09,5.09,0,0,0,.21-3c-.18-.59-.54-.94-1.1-.63a1.48,1.48,0,0,0-.29.22L39,177.12v-8.79s-4.15-4.84-3.55-10.77-.7-5.73-.7-5.73.06-10,.91-10.85,9-4.67,9-4.67l25.45,4.52,1,4.87s.89,3.87,2.37,5.59,0,3.79,0,3.79a40.62,40.62,0,0,0,2,8.41C76.94,167.45,77.62,183.35,76.83,186.42Z" transform="translate(-13.05 -28.81)"/><path class="cls-4" d="M71.69,75.73a15.64,15.64,0,0,0-1.15,5.37,9.19,9.19,0,0,1-12.62-.55c.23-2.15.33-3.83.33-3.83S74.06,70.39,71.69,75.73Z" transform="translate(-13.05 -28.81)"/><path class="cls-9" d="M73.71,73.87a9.17,9.17,0,1,1-.25-2.15A9.19,9.19,0,0,1,73.71,73.87Z" transform="translate(-13.05 -28.81)"/><path class="cls-4" d="M66.26,89.86s-6.61-3.06-7-3.46-14.12,34.79-14.12,34.79l-3.85,17.49s20.55,8.8,25,7.61,4.84,0,4.84,0,4.55-25.5,6-27.77-1.38-25.4-1.38-25.4L70.62,86.4Z" transform="translate(-13.05 -28.81)"/><path class="cls-4" d="M66.26,88.68s-6.61-3.07-7-3.46S45.12,120,45.12,120L41.27,137.5s20.55,8.79,25,7.61,4.84,0,4.84,0,4.55-25.5,6-27.77-1.38-25.4-1.38-25.4l-5.14-6.73Z" transform="translate(-13.05 -28.81)"/><path class="cls-5" d="M77.12,117.93a20.2,20.2,0,0,0-1.24,4c-.35,1.42-.73,3.1-1.12,4.91C73,135,71.1,145.7,71.1,145.7s-.12-.36-1-.48a10.17,10.17,0,0,0-3.86.48c-4.44,1.19-25-7.61-25-7.61l.59-2.67,3.26-14.82S58.85,85.41,59.25,85.81c.24.24,2.8,1.48,4.76,2.41l2.25,1L70.41,86l.23-.18,5.12,6.72S78.61,115.66,77.12,117.93Z" transform="translate(-13.05 -28.81)"/><path class="cls-4" d="M61.41,92.73c.59,2.28-.79,6-.79,6s-4.74,11.66-6.13,17-9.3,16.25-9.3,16.25l-2.79,2.79-.56.56,3.26-14.82S58.84,85.41,59.23,85.8A52.7,52.7,0,0,0,64,88.21C62.77,89.32,61,91.22,61.41,92.73Z" transform="translate(-13.05 -28.81)"/><path class="cls-2" d="M60.82,92.73c.59,2.28-.79,6-.79,6s-4.75,11.66-6.13,17-9.3,16.25-9.3,16.25l-2.79,2.79-.6.59c-3.17,3.17-7.64,7.6-9,8.9a5,5,0,0,1-.4.36,1.57,1.57,0,0,1-.42.18c-.91.25-2.71.07-5.22-.18-3-.3-.49-6.42-.49-6.42l.78-.81.71-.73,8.08-8.31.59-.63,2.47-2.55L39.53,112l0-.32-.93-2.12c-1.51-3.46-4.48-10.15-5.56-12.31-.13-.26-.23-.44-.3-.56s0,0,0,0c-.8-1.28,1.38-1.18,1.38-1.18s2.17-.6,1.78-1.49,2.57-1.48,2.47-2.76,1.78-1.49,1.78-1.49,2.67.89,2.37,0,4.15-1.38,4.15-1.38,2.17,1.09,3.36,0,6.05-1.09,6.05-1.09-1-3.75,0-4.84,8.44,4.84,8.44,4.84S60.22,90.45,60.82,92.73Z" transform="translate(-13.05 -28.81)"/><path class="cls-4" d="M36.11,143.33s8.2,11.56,13.94,7.81-7.71-13.54-7.71-13.54Z" transform="translate(-13.05 -28.81)"/><path class="cls-9" d="M36.11,142.73s8.2,11.57,13.94,7.81S42.34,137,42.34,137Z" transform="translate(-13.05 -28.81)"/><path class="cls-4" d="M75.47,149.1c.63-5.46,2.44-13.66,1-16.15a19.94,19.94,0,0,1-1.67-6.15c-.21-1.39-.38-2.84-.52-4.21-.36-3.65-.47-6.78-.47-6.78S70.21,99.94,70.9,96.68c.43-2-.07-7.15-.5-10.69l.23-.18,5.11,6.72s2.87,23.13,1.38,25.4a20.2,20.2,0,0,0-1.24,4l2.83-1.18-.6,5.83,1.78,21.84Z" transform="translate(-13.05 -28.81)"/><path class="cls-2" d="M70.49,82.32s5.12,4.28,7.06,4.38a5.21,5.21,0,0,1-2.7,3.36s5.34.71,7.32.4,5.43.19,6.12,1.19a6.42,6.42,0,0,0,3.38,2.46,6.11,6.11,0,0,1,2.48,1.39l-8.71,12.84S82.28,116.25,83,118s-.1,11.76-.64,12.25.94,20.36,3.61,20.36c0,0-7.32,4.94-9.49,3.46S79.22,136.61,77,133s-2.67-17.14-2.67-17.14-3.55-15.87-2.86-19.13S70.49,82.32,70.49,82.32Z" transform="translate(-13.05 -28.81)"/><path class="cls-4" d="M129.75,113.82c-2.64-.82-6.69-.84-7.44,6.23-1.1-2.61-1.8-4.84-1.8-4.84l8.11-3.43S129.12,112.57,129.75,113.82Z" transform="translate(-13.05 -28.81)"/><path class="cls-2" d="M89.3,94.9l4.85.6s1.48,2,2.86,2,2.47,1.78,2.47,1.78,2,1.09,3.26.79,6.62-.79,7.41,0,5.93,1.63,5.93,1.63,2,3.06,3.76,3.06,11.66,7.22,11.95,9.79c0,0-9.78-6.23-9.88,7.46,0,0-4.15-3.71-4.84-5.29s-7.12-.93-7.12-.93-4.34-1.93-5-3.22-4.74,2-6,1.07-12.94-6-12.94-6l-3.61-6.78Z" transform="translate(-13.05 -28.81)"/><circle class="cls-8" cx="53.9" cy="77.26" r="0.84"/><circle class="cls-8" cx="53.06" cy="94.78" r="0.84"/><circle class="cls-8" cx="53.9" cy="85.56" r="0.84"/><circle class="cls-8" cx="51.47" cy="104" r="0.84"/><path class="cls-4" d="M38,243.44a1.34,1.34,0,0,1-1.7.73c-4-.44-6.48-11.34-5.45-12.59s-.64-4.13-.64-4.13L28,228.3l-2-6.14,1.26-1.56c1.26,2.18,3.06,5.31,3.48,6.11a11.22,11.22,0,0,1,1.12,5.34C31.82,234,34.05,243.19,38,243.44Z" transform="translate(-13.05 -28.81)"/><path class="cls-4" d="M73.46,71.7a6.13,6.13,0,0,1-.6-.22,3.88,3.88,0,0,1-1.8-1.19c-.38-.55-.5-1.33-1.09-1.64s-1.48.13-2.21.29a4.54,4.54,0,0,1-2.63-.35c-1.26-.46-3-1.32-4.32-.43-1,.69-.62,2.15-.88,3.19-.4,1.61-2.11,2.66-2.44,4.3-.14.72-.05,1.6-.63,2a1.63,1.63,0,0,1-.57.25,9.19,9.19,0,1,1,16.48-8.14,9.31,9.31,0,0,1,.7,1.91Z" transform="translate(-13.05 -28.81)"/><path class="cls-2" d="M65.13,68a4.57,4.57,0,0,0,2.62.35c.75-.18,1.54-.66,2.21-.3s.72,1.09,1.09,1.65a3.75,3.75,0,0,0,1.81,1.18,5,5,0,0,0,1.61.45A1.8,1.8,0,0,0,76,70.75a2.32,2.32,0,0,0,0-2.35,5.83,5.83,0,0,1-.72-2.35c0-1,.74-1.83.8-2.8a3.13,3.13,0,0,0-2-2.82A19.28,19.28,0,0,1,71,59.24a11.52,11.52,0,0,1-2.42-2.89A5.57,5.57,0,0,0,63.79,54c-1.12.13-2.14.72-3.26.95-1.7.35-3.5-.16-5.19.23a1.81,1.81,0,0,0-1.05.58,2.35,2.35,0,0,0,0,2,4.61,4.61,0,0,1-.19,3.63c-.74,1.2-2.31,1.71-3,2.94A2.63,2.63,0,0,0,51,66.74c.32.68.95,1.23,1,2a4.58,4.58,0,0,1-.27,1.59,1.46,1.46,0,0,0,.35,1.49c.44.29,1.05.22,1.39.59a1.19,1.19,0,0,1,.15,1c-.12.59-.37,1.13-.5,1.71a2.1,2.1,0,0,0,.23,1.71c.57.78,1.73.73,2.67.52a1.92,1.92,0,0,0,.75-.29c.59-.45.48-1.33.63-2,.32-1.63,2-2.69,2.44-4.3.26-1-.13-2.51.87-3.19C62.1,66.67,63.86,67.53,65.13,68Z" transform="translate(-13.05 -28.81)"/><path class="cls-4" d="M63.68,175.25s9.31,5.93,9.61,8.2Z" transform="translate(-13.05 -28.81)"/><path class="cls-4" d="M63.21,180s10.67,5.14,10.08,6.92Z" transform="translate(-13.05 -28.81)"/><path class="cls-4" d="M62.5,184.54s6,3.16,6.42,5Z" transform="translate(-13.05 -28.81)"/><path class="cls-4" d="M65.07,191.66s4,3.46,4.74,2.57S65.07,191.66,65.07,191.66Z" transform="translate(-13.05 -28.81)"/><path class="cls-4" d="M59.53,193.83s3.08,4.94,1.6,5.24S59.53,193.83,59.53,193.83Z" transform="translate(-13.05 -28.81)"/><path class="cls-4" d="M46,106.07s-5.24,3.16-3.66,4S46,106.07,46,106.07Z" transform="translate(-13.05 -28.81)"/><path class="cls-4" d="M46,94.41s-5.34,9.78-2.87,9.09S46,94.41,46,94.41Z" transform="translate(-13.05 -28.81)"/><path class="cls-4" d="M102.72,104.19s-3.26,3.84-2.66,5.93Z" transform="translate(-13.05 -28.81)"/><path class="cls-4" d="M111.24,106.07s-4.9,4.35-4.18,4.84Z" transform="translate(-13.05 -28.81)"/><path class="cls-4" d="M114.29,111.41s-.5,2.86.29,3Z" transform="translate(-13.05 -28.81)"/><path class="cls-10" d="M60.87,171.71c-1.26,1.63-1.26,4.53-1.83,5.71-.31.65-1,1.78-1.57,2.69-.18-.59-.54-.94-1.09-.63-.37-2.72-1-7.41-1.22-8.36-.3-1.33,3-4.89,3-4.89s3.18.67,4,2.3S62.13,170.09,60.87,171.71Z" transform="translate(-13.05 -28.81)"/><path class="cls-4" d="M44.41,137.4c-3.56.49-10.18,10-10.18,10l-2.07-3c-1.52-2.23-3.56-5.29-5-7.6l8.69-9,1.58,1.7s3.06,3.07,3.06,3.66a5.54,5.54,0,0,0,1.35,1.7C43,136.05,44.41,137.4,44.41,137.4Z" transform="translate(-13.05 -28.81)"/><path class="cls-4" d="M33.07,97.28c-.13-.26-.23-.44-.3-.56L36.6,97l2,12.6C37.12,106.13,34.15,99.44,33.07,97.28Z" transform="translate(-13.05 -28.81)"/><path class="cls-4" d="M41.21,135.45c-3.18,3.17-7.65,7.6-9.05,8.9l-.4.36a1.5,1.5,0,0,1-.41.18c-1.4-2-3.39-5-4.93-7.41l.71-.74,8.08-8.31,1,1.07s3.06,3.07,3.06,3.66A9.37,9.37,0,0,0,41.21,135.45Z" transform="translate(-13.05 -28.81)"/><path class="cls-2" d="M37.2,97l-4.45-.3s-1.18,2.77-2.17,3-2.28,2.47-2.28,2.47-3.8.69-3.64,1.88-5.85,9.66-5.85,9.66-2,4.07-.59,7a60.41,60.41,0,0,1,2.67,6c.29,1.09,3.8,5.84,3.77,6.73s9,13.93,9,13.93,6.62-9.49,10.17-10c0,0-4-3.66-4-4.25s-3-3.66-3-3.66L33,125.34s-1.29-.59,0-1.68-2.18-3.56-2.18-3.56-.1-1.78,1.19-2.27,3-3.75,3-3.75l4.65-2.38Z" transform="translate(-13.05 -28.81)"/><path class="cls-4" d="M20.22,116.64s5.33-1.08,5.43-.39S20.22,116.64,20.22,116.64Z" transform="translate(-13.05 -28.81)"/><path class="cls-4" d="M24.66,122s4.53.59,4.33,1.56S24.66,122,24.66,122Z" transform="translate(-13.05 -28.81)"/><path class="cls-4" d="M28.4,105.23s4.35,6.16,4.94,4.88Z" transform="translate(-13.05 -28.81)"/><g class="cls-11"><path d="M54.54,59.34a6.94,6.94,0,0,0-.27-2.12,6.71,6.71,0,0,1-.19-.89,3.54,3.54,0,0,0,.19,1.48A8,8,0,0,1,54.54,59.34Z" transform="translate(-13.05 -28.81)"/><path d="M75.33,65.87c.12-.89.73-1.7.78-2.61a2.36,2.36,0,0,0,0-.46c-.12.92-.76,1.74-.79,2.67A1.79,1.79,0,0,0,75.33,65.87Z" transform="translate(-13.05 -28.81)"/><path d="M76,70.17a1.86,1.86,0,0,1-1.51.57,5.29,5.29,0,0,1-1.61-.45,3.91,3.91,0,0,1-1.81-1.19c-.38-.55-.5-1.32-1.09-1.64s-1.48.13-2.21.3a4.67,4.67,0,0,1-2.62-.35c-1.27-.47-3-1.32-4.33-.44-1,.69-.62,2.15-.87,3.19-.41,1.61-2.12,2.67-2.45,4.3-.14.72,0,1.6-.63,2.05a1.88,1.88,0,0,1-.75.3c-1,.2-2.11.25-2.67-.52a1.67,1.67,0,0,1-.3-.76,1.9,1.9,0,0,0,.3,1.35c.57.78,1.74.73,2.67.52a1.75,1.75,0,0,0,.75-.3c.59-.44.49-1.32.63-2,.33-1.64,2-2.69,2.45-4.31.25-1-.14-2.5.87-3.19,1.3-.89,3.06,0,4.33.44a4.57,4.57,0,0,0,2.62.35c.75-.18,1.54-.67,2.21-.3s.71,1.09,1.09,1.64a3.7,3.7,0,0,0,1.81,1.19,5,5,0,0,0,1.61.45A1.83,1.83,0,0,0,76,70.76a1.74,1.74,0,0,0,.32-1.36A1.47,1.47,0,0,1,76,70.17Z" transform="translate(-13.05 -28.81)"/><path d="M52.07,68.14c-.1-.75-.73-1.3-1-2a2.3,2.3,0,0,1-.24-.81A2.64,2.64,0,0,0,51,66.75c.31.66.91,1.2,1,1.92A1.88,1.88,0,0,0,52.07,68.14Z" transform="translate(-13.05 -28.81)"/><path d="M53.72,72.77a1.12,1.12,0,0,0-.17-.94c-.33-.38-1-.29-1.38-.59a1,1,0,0,1-.39-.71,1.34,1.34,0,0,0,.39,1.3c.39.28,1,.22,1.38.6A.84.84,0,0,1,53.72,72.77Z" transform="translate(-13.05 -28.81)"/></g><path class="cls-12" d="M346.18,168.25s-8.87,18.45-2.71,25,10.31-25.68,10.31-25.68Z" transform="translate(-13.05 -28.81)"/><path class="cls-13" d="M303.32,254.5,293.39,267s-20.08,8-1.63,9c0,0,9-.72,10.83-2s2.89-3.8,6.51-2.35,7.78-1.45,7.78-1.45.54-14.1-3.08-15.73S303.32,254.5,303.32,254.5Z" transform="translate(-13.05 -28.81)"/><path class="cls-13" d="M340.39,259,338,269.33s-5.25,12.3,2.35,10.49,11.39-3.8,12.11-7.41a36.47,36.47,0,0,1,2.71-7.6S353,259.2,351.06,259,340.39,259,340.39,259Z" transform="translate(-13.05 -28.81)"/><path class="cls-8" d="M291.92,134.43s-6.51,44.68-2,69.06,9.93,49.37,9.93,49.37-6.32,14.44,15.35,4.88c0,0-1.45-35.81-5.79-49.73s2.23-32.72,4-33.26c0,0,7.23,36.35,14.29,48.3s11,39.77,11,39.77,15.2,2,15-2-2.89-37.61-11.73-49.55c0,0-7.6-19.89-2.71-40.5s-5.25-27.67-5.25-27.67l-16.08-19-16.09-3.61Z" transform="translate(-13.05 -28.81)"/><path class="cls-12" d="M339.64,57.44a5.16,5.16,0,0,1-.8,1.63,4.71,4.71,0,0,1-1.32,1,24.74,24.74,0,0,1-5,2.15c-.45.91.28,1.92,1,2.65l2,2.16c1.19,1.26,2.38,2.51,3.67,3.67a31.88,31.88,0,0,0,8.36,5.41c1.6.71,3.66,1.22,4.95,0s1-3.27,1.73-4.82a.87.87,0,0,0,0-1.23.7.7,0,0,0-.19-.15,4.76,4.76,0,0,1-1-4.12c.22-1.46.81-2.83,1.15-4.26a5.77,5.77,0,0,0-.36-4.29,6,6,0,0,0-1.71-1.68,15.8,15.8,0,0,0-4.88-2.33c-.91-.24-1.81-.41-2.71-.68-.56-.17-2.08-1.22-2.56-1.13C341,51.6,340,56.39,339.64,57.44Z" transform="translate(-13.05 -28.81)"/><path class="cls-4" d="M339.64,57.44a5.16,5.16,0,0,1-.8,1.63,4.71,4.71,0,0,1-1.32,1,24.74,24.74,0,0,1-5,2.15c-.45.91.28,1.92,1,2.65l2,2.16c1.19,1.26,2.38,2.51,3.67,3.67a31.88,31.88,0,0,0,8.36,5.41c1.6.71,3.66,1.22,4.95,0s1-3.27,1.73-4.82a.87.87,0,0,0,0-1.23.7.7,0,0,0-.19-.15,4.76,4.76,0,0,1-1-4.12c.22-1.46.81-2.83,1.15-4.26a5.77,5.77,0,0,0-.36-4.29,6,6,0,0,0-1.71-1.68,15.8,15.8,0,0,0-4.88-2.33c-.91-.24-1.81-.41-2.71-.68-.56-.17-2.08-1.22-2.56-1.13C341,51.6,340,56.39,339.64,57.44Z" transform="translate(-13.05 -28.81)"/><path class="cls-14" d="M337.62,60.68c0-.35-.07-.77-.37-1a1,1,0,0,0-.58-.12c-4.27,0-7.73,3.35-10.41,6.67a113.93,113.93,0,0,0-14,23c-2.38,5-4.58,10.62-3.05,15.94a16.23,16.23,0,0,0,2.13,4.44,24.37,24.37,0,0,0,4.62,5.2,5.1,5.1,0,0,0,2.41,1.31,5.72,5.72,0,0,0,3.79-1.24q3.48-2.18,6.93-4.38a81,81,0,0,0,10.76-7.8,28.84,28.84,0,0,0,7.77-10.64c.69-1.75,1.15-3.61,1.92-5.31,1.19-2.61,3.1-4.92,3.77-7.71.32-1.33.35-2.71.69-4,.27-1.06.74-2.06,1-3.13a3.81,3.81,0,0,0-.51-3.13c-1.15-1.46-3.38-1.24-5.19-.87-2.37.49-6.58,1.69-8.84.26C338.51,66.89,337.75,62.78,337.62,60.68Z" transform="translate(-13.05 -28.81)"/><path class="cls-8" d="M336.41,69.33l-2.53.18-1.81-.73,1.45-4.34s5.1.58,5.63,2.19c0,0,.38,1.1,1,1.27s3.16-.2,3.69,1.06.36,8.13-3.08,7.22l-1.62-4.34-.73-1.08S336.23,70.41,336.41,69.33Z" transform="translate(-13.05 -28.81)"/><path class="cls-8" d="M315.61,109.65s5.61-36.89,23.15-50.1c0,0,.18-3.43-2.89-3.07S320,54.31,320,54.31L307.84,77.82s-2.71,21.88-4.7,25.49-14.47,32.38-14.47,32.38,7.05,23.68,17.54-8.13c0,0-8.13,25.86,14.83,28.39s20.25-1.45,20.25-1.45L344,135.7V121.59l5.06-9.93,20.62-26.22s-14-19.38-16.67-17.65C353,67.77,335.69,95.19,315.61,109.65Z" transform="translate(-13.05 -28.81)"/><path class="cls-8" d="M322.67,55.76,320,54.31s-8.32,3.08-11.21,15c0,0-7.05,5.06-11.74,8.86,0,0-6.32-11.74-6.32-15.74,0,0-10.49,7.06-12.84,5.25,0,0,6.32,29.11,18.27,26.94s16.44-9.22,16.44-9.22Z" transform="translate(-13.05 -28.81)"/><path class="cls-8" d="M362.81,86.51l6.87-1.09s4.35,5.79-3.43,14.29l-4.7,28.75s.54,9.58-1.09,16.82-4.16,29.47-4.16,29.47-8.31-3.07-12.84-2.53l6.87-66.71Z" transform="translate(-13.05 -28.81)"/><path class="cls-12" d="M290.3,64.43S286.5,41.65,280,50.15s.72,20.25.72,20.25Z" transform="translate(-13.05 -28.81)"/><circle class="cls-12" cx="340.45" cy="22.17" r="14.65"/><path class="cls-8" d="M365.21,35.17a10.6,10.6,0,0,1-.9-1.32A10.23,10.23,0,0,0,360.7,31c-2.48-1.35-5.31-2.62-8.06-2-1.91.45-3.53,1.8-5.46,2.19s-4.2,0-5.5,1.4-.72,3.72-1.84,5.22c-.62.82-1.76,1.58-1.45,2.57.13.41.51.71.69,1.11.31.7-.07,1.51-.09,2.28,0,1.14.76,2.12,1.31,3.12s.85,2.41,0,3.19a43.71,43.71,0,0,1,9.37-5.74,2.92,2.92,0,0,1-.35,1.32,44.57,44.57,0,0,0,5.37-1.14l-.93,1.78,4-1.74c1.08-.48,2.44-.91,3.36-.18a3.07,3.07,0,0,1,.86,1.49,20.48,20.48,0,0,1,.93,5c.09,1.93,0,4.07,1.25,5.54a3.76,3.76,0,0,0,5.31.15l.18-.18c.35-1.36-.18-2.76-.2-4.15,0-2,1-3.93,1.16-6,.24-2.55-1.27-4.06-2-6.32-.27-.86-.11-1.89-.62-2.71C367.37,36.26,366,36,365.21,35.17Z" transform="translate(-13.05 -28.81)"/><path class="cls-5" d="M280.08,76.48l5.23-8.77-4.26-2.54c1-1.18,4.51-5.31,5.44-7.24,0,0,5.2-4.23,6.26-9.7a1.71,1.71,0,0,0,2.67-.37c1.25-1.7,6.45-4.7,2.34-8.85l.33-1.69a4.07,4.07,0,0,0,1.6-1.56c.9-1.49.8-3.16-.19-3.77s-2.53.13-3.41,1.63a3.9,3.9,0,0,0-.6,2.37l-1.19,1.45s-4.29-4.27-7.17,5.49c0,0-.32,1.76.58,2.3,0,0-4.4,6.16-4.9,9,0,0-3.79,5.55-3.82,7.22l-1.07,1.8L273.4,60.6l-5.31,8.93c-2.62-.85-4.58-.91-5.12,0-1,1.59,2.8,5.57,8.37,8.89s10.86,4.71,11.81,3.12C283.76,80.56,282.49,78.61,280.08,76.48Z" transform="translate(-13.05 -28.81)"/><path class="cls-4" d="M298,34.64a4.09,4.09,0,0,1-1.6,1.57l-.33,1.68c4.12,4.16-1.09,7.16-2.34,8.85a1.69,1.69,0,0,1-2.32.63,1.46,1.46,0,0,1-.34-.26c-1.06,5.47-6.26,9.7-6.26,9.7-.95,1.93-4.44,6.07-5.45,7.25L281,65c1-1.18,4.51-5.32,5.45-7.25,0,0,5.2-4.22,6.26-9.69a1.7,1.7,0,0,0,2.66-.37c1.26-1.7,6.46-4.7,2.34-8.86l.33-1.68a4,4,0,0,0,1.6-1.56c.9-1.49.8-3.16-.19-3.77a1.53,1.53,0,0,0-1-.2A3.54,3.54,0,0,1,298,34.64Z" transform="translate(-13.05 -28.81)"/><path class="cls-4" d="M280.06,76.34l5.22-8.77-1.61-1-5.22,8.77c2.41,2.14,3.67,4.06,3.07,5.08-.9,1.52-5.72.32-11-2.65l.81.5c5.57,3.31,10.86,4.71,11.8,3.12C283.72,80.42,282.45,78.47,280.06,76.34Z" transform="translate(-13.05 -28.81)"/><ellipse class="cls-1" cx="297.42" cy="252.14" rx="90.47" ry="3.07"/></svg>