<svg id="Layer_1" data-name="Layer 1" xmlns="http://www.w3.org/2000/svg" viewBox="0 0 335.49 245.66"><defs><style>.cls-1{fill:#3f3d56;}.cls-2{fill:#6c63ff;}.cls-3{opacity:0.1;}.cls-10,.cls-3{isolation:isolate;}.cls-4{fill:#2f2e41;}.cls-5{fill:#a0616a;}.cls-6{fill:#fff;}.cls-7{fill:#d0cde1;}.cls-8{fill:#fbbebe;}.cls-9{fill:#b3b3b3;}.cls-10{opacity:0.2;}.cls-11{fill:#e6e6e6;}.cls-12{font-size:24px;font-family:Montserrat-Bold, Montserrat;font-weight:700;}.cls-13{letter-spacing:-0.01em;}.cls-14{letter-spacing:-0.01em;}.cls-15{letter-spacing:-0.01em;}</style></defs><title>what-1</title><path class="cls-1" d="M240,185.7c-5.17,3.39-14.36,7.63-23.76,3.27l-6.07-2.82,12.17-14.91c-21.57-26-19.77-66.19,4-89.76s60.54-21.62,82.11,4.38,19.78,66.18-4,89.76C286.86,193.05,261.34,197.05,240,185.7Zm-23.33-57.25a55.24,55.24,0,0,0,15.39,38.85l3.35,3.45-7.66,9.38a24.6,24.6,0,0,0,9.23-4.61l2.42-1.88,2.6,1.56a45.6,45.6,0,0,0,23.44,6.56c26.89,0,48.77-23.92,48.77-53.31s-21.88-53.31-48.77-53.31-48.77,23.91-48.77,53.31Z" transform="translate(-4.51 -35.09)"/><path class="cls-2" d="M211.94,128.45c0-32.3,23.95-58.48,53.49-58.48s53.5,26.18,53.5,58.48-23.95,58.47-53.5,58.47a49.69,49.69,0,0,1-25.72-7.19c-3.7,2.88-12.72,8.61-21.63,4.48l10.73-13.14A61,61,0,0,1,211.94,128.45Z" transform="translate(-4.51 -35.09)"/><path class="cls-3" d="M309.82,128.57c0-30.55-21.44-55.63-48.77-58.25,1.56-.14,3.13-.23,4.73-.23,29.54,0,53.49,26.19,53.49,58.48s-23.95,58.48-53.49,58.48c-1.6,0-3.17-.08-4.72-.23C288.38,184.2,309.82,159.12,309.82,128.57Z" transform="translate(-4.51 -35.09)"/><path class="cls-1" d="M142.15,266.94c-32.19,0-58.3-28.49-58.31-63.68s26.07-63.73,58.26-63.75,58.3,28.5,58.31,63.69a67.14,67.14,0,0,1-15.15,42.89L197.43,261l-6.08,2.82c-9.39,4.36-18.59.12-23.75-3.27A54.18,54.18,0,0,1,142.15,266.94Zm0-116.95c-26.89,0-48.77,23.91-48.77,53.31s21.88,53.31,48.77,53.31a45.61,45.61,0,0,0,23.45-6.56l2.6-1.56,2.42,1.88a24.54,24.54,0,0,0,9.22,4.61l-7.66-9.38,3.36-3.45a55.21,55.21,0,0,0,15.38-38.85c0-29.4-21.88-53.31-48.77-53.31Z" transform="translate(-4.51 -35.09)"/><path class="cls-2" d="M195.65,203.3c0-32.3-24-58.48-53.5-58.48S88.66,171,88.66,203.3s24,58.47,53.49,58.47a49.73,49.73,0,0,0,25.73-7.19c3.69,2.88,12.72,8.61,21.63,4.48l-10.73-13.14A61,61,0,0,0,195.65,203.3Z" transform="translate(-4.51 -35.09)"/><path class="cls-3" d="M98.11,203c0-30.55,21.44-55.63,48.77-58.25-1.56-.15-3.13-.23-4.73-.23-29.54,0-53.49,26.18-53.49,58.48s24,58.48,53.49,58.48c1.59,0,3.17-.08,4.72-.23C119.55,258.63,98.11,233.55,98.11,203Z" transform="translate(-4.51 -35.09)"/><path class="cls-4" d="M278,109.87a13.29,13.29,0,0,0-10.42-6.77s-6.75-.94-11.08,8.9c-4,9.18-9.6,18-.9,20.19l1.58-5.35,1,5.75a30.92,30.92,0,0,0,3.73.07c9.32-.33,18.2.1,17.91-3.56C279.4,124.24,281.36,116.09,278,109.87Z" transform="translate(-4.51 -35.09)"/><path class="cls-4" d="M255.1,166.48a18.38,18.38,0,0,1-.45,2.11c-.22.67-.56,1.29-.76,2a7,7,0,0,0,1.66,6.26,9.25,9.25,0,0,0,4.56,3,17.25,17.25,0,0,0,3.91.45c3.64.13,7.37.25,10.82-1a18.51,18.51,0,0,0,3.15-1.57,2.35,2.35,0,0,0,.81-.7,2.73,2.73,0,0,0,.3-1.44c0-1.68-.33-3.36-.25-5.05a21.7,21.7,0,0,0,.12-2.79,5,5,0,0,0-3.6-4.44,8.83,8.83,0,0,0-3,0,69.76,69.76,0,0,1-7.78.38c-2.65,0-5.29-.46-7.93-.51-.78,0-.76.25-1,1.08A20.45,20.45,0,0,0,255.1,166.48Z" transform="translate(-4.51 -35.09)"/><path class="cls-5" d="M262.63,124.85a5.46,5.46,0,0,1-.67,2.09c-.46.69-1.21,1.08-1.71,1.74a6.08,6.08,0,0,0-.79,3.68,6.39,6.39,0,0,0,.62,3.43,5.67,5.67,0,0,0,1.57,1.52c2.27,1.67,4.72,3.37,7.45,3.42a3.74,3.74,0,0,0,3.1-1.23A5.31,5.31,0,0,0,273,138a21.05,21.05,0,0,0,1.25-5.9,7.49,7.49,0,0,0-.24-2.83,26.55,26.55,0,0,0-1.44-2.81,6.67,6.67,0,0,1-.55-3.69.49.49,0,0,0,0-.27.36.36,0,0,0-.3-.13l-5.42-.43a10.79,10.79,0,0,1-1.5-.19c-.3-.06-1.07-.52-1.35-.4C262.87,121.62,262.73,124.24,262.63,124.85Z" transform="translate(-4.51 -35.09)"/><path class="cls-3" d="M262.63,125a5.46,5.46,0,0,1-.67,2.09c-.46.69-1.21,1.08-1.71,1.74a6.11,6.11,0,0,0-.79,3.68,6.43,6.43,0,0,0,.62,3.44,5.64,5.64,0,0,0,1.57,1.51c2.27,1.67,4.72,3.37,7.45,3.43a3.8,3.8,0,0,0,3.1-1.23,5.45,5.45,0,0,0,.75-1.46,21.13,21.13,0,0,0,1.25-5.9,7.55,7.55,0,0,0-.24-2.84,26.4,26.4,0,0,0-1.44-2.8A6.72,6.72,0,0,1,272,123a.5.5,0,0,0,0-.27.36.36,0,0,0-.3-.13l-5.42-.42a10.79,10.79,0,0,1-1.5-.19c-.3-.07-1.07-.52-1.35-.4C262.87,121.8,262.73,124.43,262.63,125Z" transform="translate(-4.51 -35.09)"/><ellipse class="cls-5" cx="263.3" cy="81.86" rx="7.95" ry="8.69"/><path class="cls-6" d="M263.74,136.42a4.93,4.93,0,0,0,1.4,1.22,4.07,4.07,0,0,0,1.74.37,5,5,0,0,0,4-1.37c1.28-1.46,1.24-3.8,2.25-5.49a1.12,1.12,0,0,1,.32-.39,1,1,0,0,1,.56-.14c1.27,0,2.38.89,3.38,1.75a4.72,4.72,0,0,1,1.19,1.32A4.88,4.88,0,0,1,279,135a63.79,63.79,0,0,1,.82,8.06c.09,1.49.17,3,.17,4.47a70.28,70.28,0,0,1-2.11,14.55,2.34,2.34,0,0,1-.83,1.6,1.9,1.9,0,0,1-.73.2,81.66,81.66,0,0,1-9,.81q-1.76,0-3.51-.09a1.71,1.71,0,0,1-.59-.11,1.75,1.75,0,0,1-.64-.6c-1.63-2.24-1.72-5.33-1.71-8.18q0-10.47.68-20.92a2.46,2.46,0,0,0-.33-1.73A20.58,20.58,0,0,0,263.74,136.42Z" transform="translate(-4.51 -35.09)"/><path class="cls-6" d="M262.06,126.38c-.27.54-2.25,1.86-2.63,2.3-2.14,2.46-6,2.36-8,5a10.85,10.85,0,0,0-1.26,8.22c.6,1.49,1.86,2.52,2.72,3.85a15.46,15.46,0,0,1,1.76,4.95,12.62,12.62,0,0,1,.49,3.9,25,25,0,0,1-1.18,4.29,4.92,4.92,0,0,0,.44,4.27,4.27,4.27,0,0,0,2.69,1.34,29,29,0,0,0,3.84.37,4.38,4.38,0,0,0,3.25-.73,3.76,3.76,0,0,0,1-2.62,19.09,19.09,0,0,0-.26-2.92c-.12-1-.17-2-.21-3q-.25-6.83-.07-13.66a12.76,12.76,0,0,0-.13-2.83,15.79,15.79,0,0,0-1.35-3.43,14,14,0,0,1-1.31-6.85C262,126.35,263,124.49,262.06,126.38Z" transform="translate(-4.51 -35.09)"/><path class="cls-6" d="M273.23,126.57c.4.46,1.79.61,2.32.91a7.53,7.53,0,0,0,1.52.57,19.27,19.27,0,0,1,5.36,2.69,3.27,3.27,0,0,1,.89.85,4,4,0,0,1,.5,1.53,19,19,0,0,1,.45,4.18,18.54,18.54,0,0,1-.88,4.36L281.87,147a61.63,61.63,0,0,0-2.61,12.15,31.85,31.85,0,0,0,.24,6.9.91.91,0,0,1-.08.67.6.6,0,0,1-.37.19,3.51,3.51,0,0,1-2.12-.65,21.85,21.85,0,0,0-6.45-2.31,17.16,17.16,0,0,0,2-4.52,29.46,29.46,0,0,0,.61-3.11l.71-4.48a48.67,48.67,0,0,0,.61-5,6.87,6.87,0,0,0-.1-1.87,9.74,9.74,0,0,0-.65-1.68,15.59,15.59,0,0,1-1.26-8.6,13.86,13.86,0,0,0,.43-3.83,30,30,0,0,0-.28-3.4C271.36,122.5,272.46,125.7,273.23,126.57Z" transform="translate(-4.51 -35.09)"/><path class="cls-6" d="M251.42,137.88c-.54,1.21-1.43,2.24-1.73,3.54a8.21,8.21,0,0,0-.15,1.85,9.58,9.58,0,0,0,.25,2.78c.17.58.44,1.11.64,1.67a6.42,6.42,0,0,1,.36,2.47c0,1.16-.41,2.29-.44,3.46a12,12,0,0,0,1.49,5.19,3.39,3.39,0,0,1,4.54-2.11,3,3,0,0,1,.53.29,1.16,1.16,0,0,0,.23-.83q.09-3.18.16-6.38a41.28,41.28,0,0,0-.53-9.82,9.65,9.65,0,0,0-1.69-4c-.47-.59-2.06-2.14-2.83-1.48-.35.29-.27,1.1-.32,1.51A7,7,0,0,1,251.42,137.88Z" transform="translate(-4.51 -35.09)"/><path class="cls-6" d="M284.43,134.4a9.62,9.62,0,0,1,.27,2.68c0,1.83,0,3.67-.07,5.51a11.38,11.38,0,0,1-.32,2.79c-.18.59-.44,1.15-.62,1.74-.53,1.77-.24,3.68-.19,5.54a7.26,7.26,0,0,1-.14,1.8,15.46,15.46,0,0,1-1.57,3.12,29.89,29.89,0,0,1-1.4,3,2.58,2.58,0,0,1-2.64,1.38,3,3,0,0,1-1.67-1.71,9,9,0,0,1-.79-5.43c.37-2.25,1.59-4.26,2-6.5.6-3.08-.31-6.26-.28-9.41a5.13,5.13,0,0,1,.18-1.46,6.1,6.1,0,0,1,1.18-1.87,24.15,24.15,0,0,0,1.58-2.27c.33-.53.77-1.9,1.35-2C282.61,131.07,284.11,133.31,284.43,134.4Z" transform="translate(-4.51 -35.09)"/><path class="cls-4" d="M244.72,165.11a7.31,7.31,0,0,0-2.18-.25,5.78,5.78,0,0,0-5.14,6.28,6,6,0,0,0,.08.74,11,11,0,0,0,.86,2.59,8.65,8.65,0,0,0,2.35,3.39,9.28,9.28,0,0,0,2.07,1.08l5.65,2.32c.83.34,1.66.69,2.5,1A45.31,45.31,0,0,0,264,185.1a13.12,13.12,0,0,0,4-.22,1.31,1.31,0,0,0,.83-.49,1.77,1.77,0,0,0,.19-.67l.35-2.66a2.64,2.64,0,0,0,0-1.12,2.06,2.06,0,0,0-.94-1c-3.72-2.33-8.05-3.62-11.17-6.82-.74-.75-1.36-1.94-2.25-2.45s-2.21-.92-3.25-1.45A34.74,34.74,0,0,0,244.72,165.11Z" transform="translate(-4.51 -35.09)"/><path class="cls-3" d="M250.36,168.7c2,.68,10.42,5.42,11.87,7.07-.2.08-6.77-3.94-7-4a36.67,36.67,0,0,1-5.3-2c-.34-.17-2.22-1-2.14-1.46S250,168.58,250.36,168.7Z" transform="translate(-4.51 -35.09)"/><path class="cls-5" d="M275.26,186.48a.49.49,0,0,0,.32-.1.57.57,0,0,0,.09-.4v-3.62a9.25,9.25,0,0,0-3.06-.81l-4.88-.71c.11,0-.77,2.29-.63,2.6.24.54,2,1,2.55,1.27C271.42,185.59,273.26,186.56,275.26,186.48Z" transform="translate(-4.51 -35.09)"/><path class="cls-5" d="M259.94,182.34a3.86,3.86,0,0,0-2.55,1.09c-.75,1-.43,2.48-.07,3.71a1.11,1.11,0,0,0,1.25,1h0a4.07,4.07,0,0,0,2.47-.34,9.07,9.07,0,0,0,1-.78,5.86,5.86,0,0,1,1.77-.88,16.05,16.05,0,0,1,3.54-.8,5.11,5.11,0,0,0,1.39-.27,1.65,1.65,0,0,0,1-1,2.64,2.64,0,0,0-.52-1.91,7.81,7.81,0,0,0-1.48-2c-.91-.77-1.36-.17-2.28.32A17.9,17.9,0,0,1,259.94,182.34Z" transform="translate(-4.51 -35.09)"/><path class="cls-4" d="M257.53,183.25l-5.85-1.89a7.07,7.07,0,0,0-2.18-.46,2.53,2.53,0,0,0-2,.88,4.55,4.55,0,0,0-.69,2.14l-.25,1.61a9,9,0,0,0-.13,2.48,2.78,2.78,0,0,0,1.16,2,3.67,3.67,0,0,0,2.71,0,26.53,26.53,0,0,1,5.54-.65,4.13,4.13,0,0,0,2.06-.36,2.83,2.83,0,0,0,1.25-2.23C259.26,185.48,258.84,183.68,257.53,183.25Z" transform="translate(-4.51 -35.09)"/><path class="cls-4" d="M277.56,181.6a12.5,12.5,0,0,0,2.15-.89,9,9,0,0,1,3.22-.39,1.93,1.93,0,0,1,1.15.25,2.43,2.43,0,0,1,.69,1.67l.49,3.74a6.62,6.62,0,0,1,0,2.13,2,2,0,0,1-1.21,1.54c-.77.22-1.52-.32-2.24-.67-1.81-.88-3.9-.65-5.79-1.31a1.27,1.27,0,0,1-.86-.68,1.52,1.52,0,0,1-.07-.64,17.75,17.75,0,0,1,.13-4C275.56,181.31,276.71,181.6,277.56,181.6Z" transform="translate(-4.51 -35.09)"/><path class="cls-4" d="M290,163.61a9.39,9.39,0,0,1,3.58-.27,4.29,4.29,0,0,1,2.64,1.13,5.18,5.18,0,0,1,1.14,3.53,11.62,11.62,0,0,1-2.19,7,6,6,0,0,1-1.25,1.32,8,8,0,0,1-1.63.86l-12.64,5.45a78.6,78.6,0,0,1-10.14,3.82.77.77,0,0,1-1-.41v0a29,29,0,0,1-2.77-5.54.39.39,0,0,1,.05-.52l.1-.07,8.94-5.61a9.33,9.33,0,0,0,1.82-1.37,4.93,4.93,0,0,0,.94-1.43c.18-.42.2-1.42.44-1.73s1-.33,1.39-.45a13.35,13.35,0,0,0,1.51-.63c2-1,3.79-2.4,5.7-3.55A13.88,13.88,0,0,1,290,163.61Z" transform="translate(-4.51 -35.09)"/><path class="cls-3" d="M284.87,167.8c-1.53,1.26-3.52,2.42-5,3.72-.52.44-9.19,5.77-9.31,6.47,1.42.26,10.47-6.66,11.76-7.35a20.66,20.66,0,0,0,3.59-2.63c.29-.25,1.51-1,.68-1.26C286.08,166.59,285.22,167.55,284.87,167.8Z" transform="translate(-4.51 -35.09)"/><path class="cls-7" d="M274.3,126.69H260.81a2.16,2.16,0,0,0-2.06,2.26h0v.83h-.15v1.85h.15v1.29h-.15V134h.15v13.65a2.16,2.16,0,0,0,2.06,2.26H274.3a2.17,2.17,0,0,0,2.07-2.26h0V129A2.17,2.17,0,0,0,274.3,126.69Z" transform="translate(-4.51 -35.09)"/><polygon class="cls-4" points="271.93 74.16 265.09 70.24 255.65 71.84 253.69 81.28 258.56 81.07 259.92 77.61 259.92 81.02 262.16 80.92 263.46 75.4 264.28 81.28 272.26 81.1 271.93 74.16"/><path class="cls-5" d="M253.21,162.38a3.71,3.71,0,0,0,1.27,1.39,2.32,2.32,0,0,0,2.2-.06,4.1,4.1,0,0,0,1.58-1.74,9.29,9.29,0,0,0,.81-4.8c-.1-1.64-.42-3.26-.56-4.91-.1-1.19-.11-2.39-.12-3.59a.93.93,0,0,1,.87-1.13c1.5-.48,2.5-2,3.21-3.54a6.6,6.6,0,0,0,.8-3.27,2.49,2.49,0,0,0-1.88-2.4,2.93,2.93,0,0,0-2.27,1.15,11,11,0,0,0-2.84,6.22,26.5,26.5,0,0,1-.39,3.47c-.61,2.4-2.54,3.87-3.49,6A7.8,7.8,0,0,0,253.21,162.38Z" transform="translate(-4.51 -35.09)"/><path class="cls-5" d="M281.52,153.22a4.37,4.37,0,0,1-2.33,2.44,3,3,0,0,1-2,.14,2.32,2.32,0,0,1-1.48-1.45,4,4,0,0,1-.17-1.09,12,12,0,0,1,.48-4.79c.21-.59.49-1.14.65-1.74a9.38,9.38,0,0,0,.24-2.12l.18-4.41a3.11,3.11,0,0,0-.06-1,3,3,0,0,0-1.22-1.43,8.46,8.46,0,0,1-3-3.47,2.55,2.55,0,0,1-.21-1.44,2.23,2.23,0,0,1,1.77-1.63,4,4,0,0,1,4.73,3.31l0,.18c.08.5.08,1,.13,1.51a30.68,30.68,0,0,0,.6,3.15c.47,2.59.23,5.26.7,7.85C280.94,149.44,282.43,150.85,281.52,153.22Z" transform="translate(-4.51 -35.09)"/><ellipse class="cls-2" cx="263.23" cy="99.68" rx="1.69" ry="1.85"/><ellipse class="cls-4" cx="79.48" cy="160.71" rx="4.99" ry="5.46"/><polygon class="cls-8" points="97.58 176.91 95.06 174.24 90.02 175.95 90.5 182.34 100.88 181.81 97.69 177.07 97.58 176.91"/><ellipse class="cls-8" cx="92.08" cy="168.03" rx="8.07" ry="8.82"/><path class="cls-4" d="M146.69,223.32s9.92,18.62,12.28,21.42a44.12,44.12,0,0,0,3.58,3.9s-1.11,4-2.88,3.88a7.89,7.89,0,0,1-2.92-.79,7.7,7.7,0,0,0-2.16-3.21c-1.37-1-12.61-13.07-12.35-16.93S146.69,223.32,146.69,223.32Z" transform="translate(-4.51 -35.09)"/><path class="cls-4" d="M111.38,249.9s10.57,9,24.94.54l1.24-1a57.58,57.58,0,0,0-2.29,6.53c-.22,1.62-5.66,11.08-6.55,11.53a2.37,2.37,0,0,0-1.08.87l3.77,4.54,1.39-1.12s5.43-8.42,7-10S149,244.43,149,244.43s2.89-6-4.33-6.43-10.55,1.7-10.55,1.7l-12.81,2.23Z" transform="translate(-4.51 -35.09)"/><path class="cls-4" d="M162.67,247.76l5.34,4s6.83,2.34,2.62,3.89-15.27,2.12-15.52,0,.43-5.52,1-5.33A5.45,5.45,0,0,0,162.67,247.76Z" transform="translate(-4.51 -35.09)"/><path class="cls-4" d="M133.27,270.4l1,5.94s2.82,5.88-.56,4.05-10.34-8.75-9.31-10.21,3.29-3,3.52-2.55S129.85,271.27,133.27,270.4Z" transform="translate(-4.51 -35.09)"/><path class="cls-6" d="M123.08,243.88s-7.19,9.17-11.55,6.94-22.21-28-20.18-32.8,2.73-3.75,2.73-3.75l9.21.93-2.65-4.65a1.7,1.7,0,0,1,2.42.4c1.18,1.4,5.91,4.89,7.56,9.83a6.7,6.7,0,0,0,6.5,4.68Z" transform="translate(-4.51 -35.09)"/><polygon class="cls-1" points="147.59 189.88 135.13 204.33 123.97 182.8 134.58 168.79 147.59 189.88"/><polygon class="cls-6" points="146.65 189.72 135.39 202.42 125.2 182.85 134.55 169.98 146.65 189.72"/><polygon class="cls-9" points="134.52 203.78 135.13 204.33 134.74 205.17 117.32 210.84 117.15 210.18 117.95 209.29 134.52 203.78"/><polygon class="cls-7" points="135.28 204.21 117.25 210.37 106.25 187.66 123.97 182.8 135.28 204.21"/><polygon class="cls-1" points="133.93 201.13 133.15 201.75 124.56 185.45 125.45 185 133.93 201.13"/><polygon class="cls-1" points="132.15 202.03 124.52 204.52 115.86 187.76 123.41 185.86 132.15 202.03"/><path class="cls-8" d="M115.17,224.69l1.57-.49s8.81-1.09,8.94,1.93-10.12,1.63-10.12,1.63l-1.36-2Z" transform="translate(-4.51 -35.09)"/><path class="cls-8" d="M122.89,238.29l2.2-1s6.64-3.25,4.73-5.37-7.77,1.56-7.77,1.56l-1.13,1.17Z" transform="translate(-4.51 -35.09)"/><path class="cls-6" d="M120.93,233.61s3.58,3.9,2.77,4.81-14.18,13-17.49,9.11-19.44-23.21-13.16-24.87,7.93,2.22,7.93,2.22l8.29,15.5Z" transform="translate(-4.51 -35.09)"/><polygon class="cls-6" points="105.7 186.67 111.58 188.85 111.49 193.49 105.27 192.76 105.7 186.67"/><polygon class="cls-10" points="111 200.92 104.67 204.98 97.43 192.81 104.42 202.83 111 200.92"/><ellipse class="cls-4" cx="88.54" cy="165.47" rx="9.61" ry="10.5"/><polygon class="cls-2" points="140.45 190.8 133.72 180.04 136.57 176.18 143.56 187.25 140.45 190.8"/><polygon class="cls-11" points="140.26 195.12 130.02 178.84 130.52 178.18 140.72 194.49 140.26 195.12"/><polygon class="cls-11" points="138.94 196.7 128.7 180.43 129.2 179.76 139.4 196.07 138.94 196.7"/><polygon class="cls-11" points="137.81 197.87 127.57 181.59 128.08 180.93 138.27 197.24 137.81 197.87"/><path class="cls-4" d="M97.3,193.55h3a6,6,0,0,1,5.68,6.2H97.3v-6.2Z" transform="translate(-4.51 -35.09)"/><path class="cls-1" d="M138.24,189.6l-.54,0c0,.3,0,.61,0,.92l-2.42-.09,2.54,5.2,2.85-5-2.43-.09C138.21,190.2,138.22,189.9,138.24,189.6Z" transform="translate(-4.51 -35.09)"/><path class="cls-1" d="M152.43,147.24l.43.36c.64-.92,1.31-1.84,2-2.73l-.42-.38C153.75,145.39,153.08,146.32,152.43,147.24Z" transform="translate(-4.51 -35.09)"/><path class="cls-1" d="M156.57,141.83l.4.4c.71-.86,1.46-1.71,2.21-2.54l-.39-.41C158,140.11,157.29,141,156.57,141.83Z" transform="translate(-4.51 -35.09)"/><path class="cls-1" d="M161.12,136.83l.37.44c.78-.79,1.59-1.56,2.4-2.31l-.34-.45C162.73,135.26,161.91,136,161.12,136.83Z" transform="translate(-4.51 -35.09)"/><path class="cls-1" d="M148.74,153l.46.31c.56-1,1.16-2,1.77-2.92l-.45-.33C149.91,151.06,149.31,152.05,148.74,153Z" transform="translate(-4.51 -35.09)"/><path class="cls-1" d="M166.06,132.3l.33.47c.85-.71,1.71-1.41,2.58-2.07l-.31-.49C167.79,130.88,166.91,131.58,166.06,132.3Z" transform="translate(-4.51 -35.09)"/><path class="cls-1" d="M145.53,159.17l.48.27c.49-1,1-2.07,1.53-3.08l-.47-.29C146.54,157.08,146,158.13,145.53,159.17Z" transform="translate(-4.51 -35.09)"/><path class="cls-1" d="M140.32,175.8l-.52-.15c-.27,1.13-.52,2.29-.74,3.44l.53.12C139.81,178.07,140.06,176.92,140.32,175.8Z" transform="translate(-4.51 -35.09)"/><path class="cls-1" d="M171.34,128.26l.29.5c.9-.63,1.82-1.24,2.74-1.82l-.27-.51Q172.71,127.32,171.34,128.26Z" transform="translate(-4.51 -35.09)"/><path class="cls-1" d="M139,182.65l-.53-.1c-.18,1.16-.33,2.33-.46,3.5l.54.07C138.68,185,138.83,183.79,139,182.65Z" transform="translate(-4.51 -35.09)"/><path class="cls-1" d="M142.83,165.59l.51.22c.4-1.07.82-2.16,1.27-3.22l-.49-.24C143.67,163.41,143.24,164.51,142.83,165.59Z" transform="translate(-4.51 -35.09)"/><path class="cls-1" d="M140.67,172.25l.52.18c.31-1.12.65-2.24,1-3.34l-.51-.19C141.33,170,141,171.13,140.67,172.25Z" transform="translate(-4.51 -35.09)"/><path class="cls-1" d="M207.9,116.48c1.06,0,2.14,0,3.2,0v-.59c-1.08,0-2.16,0-3.23,0Z" transform="translate(-4.51 -35.09)"/><path class="cls-1" d="M176.93,124.74l.25.53c.94-.54,1.91-1.06,2.87-1.54l-.23-.54C178.85,123.68,177.88,124.2,176.93,124.74Z" transform="translate(-4.51 -35.09)"/><path class="cls-1" d="M220.69,117.22c1.05.16,2.11.35,3.16.57l.1-.58c-1-.22-2.13-.41-3.19-.58Z" transform="translate(-4.51 -35.09)"/><path class="cls-1" d="M227,118.51c1,.26,2.08.56,3.11.87l.14-.57c-1-.32-2.08-.61-3.12-.88Z" transform="translate(-4.51 -35.09)"/><path class="cls-1" d="M233.15,120.4c1,.37,2,.76,3,1.17l.19-.55c-1-.41-2-.81-3-1.18Z" transform="translate(-4.51 -35.09)"/><path class="cls-1" d="M214.31,116.55c1.06.06,2.14.14,3.19.26l.06-.59c-1.07-.11-2.15-.2-3.22-.26Z" transform="translate(-4.51 -35.09)"/><path class="cls-1" d="M201.45,116.45l.06.58c1.06-.14,2.13-.26,3.19-.35l0-.59C203.59,116.18,202.51,116.3,201.45,116.45Z" transform="translate(-4.51 -35.09)"/><path class="cls-1" d="M188.84,119.4l.16.56c1-.34,2.05-.66,3.08-1l-.14-.57C190.91,118.73,189.86,119.05,188.84,119.4Z" transform="translate(-4.51 -35.09)"/><path class="cls-1" d="M182.77,121.78l.21.55c1-.44,2-.86,3-1.26l-.18-.55C184.78,120.91,183.76,121.34,182.77,121.78Z" transform="translate(-4.51 -35.09)"/><path class="cls-1" d="M195.08,117.62l.12.57c1-.24,2.09-.46,3.14-.65l-.09-.59C197.2,117.15,196.13,117.37,195.08,117.62Z" transform="translate(-4.51 -35.09)"/><path class="cls-1" d="M244.23,125.23l-3-4.88-1.07,2.39-.77-.38-.21.54.75.37-1.06,2.38Z" transform="translate(-4.51 -35.09)"/><text class="cls-12" transform="translate(195 20.4)">DESIGNER</text><text class="cls-12" transform="translate(0 88.4)">D<tspan class="cls-13" x="19.82" y="0">E</tspan><tspan class="cls-14" x="35.69" y="0">V</tspan><tspan x="53.23" y="0">E</tspan><tspan class="cls-15" x="69.33" y="0">L</tspan><tspan x="83.54" y="0">O</tspan><tspan class="cls-13" x="103.8" y="0">P</tspan><tspan x="121.13" y="0">ER</tspan></text></svg>