<svg id="Layer_1" data-name="Layer 1" xmlns="http://www.w3.org/2000/svg" viewBox="0 0 335 202.65"><defs><style>.cls-1{fill:#2f2e41;}.cls-2{fill:#ffb8b8;}.cls-3{fill:#d0cde1;}.cls-4{fill:#6c63ff;}.cls-5{fill:#3f3d56;}.cls-6{fill:none;stroke:#d0cde1;stroke-miterlimit:10;stroke-width:2px;}.cls-7{opacity:0.15;isolation:isolate;}</style></defs><title>what-2</title><circle class="cls-1" cx="192.88" cy="65.11" r="11.07"/><path class="cls-1" d="M229,102.74a11.08,11.08,0,0,1,9.75,16.33,11.07,11.07,0,0,0-17.3-13.82,11.65,11.65,0,0,0-1.1,1.66A11,11,0,0,1,229,102.74Z" transform="translate(-33 -48.4)"/><circle class="cls-1" cx="172.19" cy="32.56" r="32.53"/><path class="cls-1" d="M179.66,60.78a32.52,32.52,0,0,1,45.08-3.42l-.8-.75a32.53,32.53,0,0,0-43.23,48.63l.84.71A32.52,32.52,0,0,1,179.66,60.78Z" transform="translate(-33 -48.4)"/><circle class="cls-2" cx="171.92" cy="43.86" r="20.95"/><path class="cls-2" d="M190,98.88s2.76,25.36-1.65,28.12,25.36,6.61,25.36,6.61-4.41-27.56,6.61-34.73Z" transform="translate(-33 -48.4)"/><path class="cls-3" d="M216.49,122.59s8.21-3.84-3.61-2.47-22-3.87-22-3.87-3.58-3.59-4.13.27,1.66,11-10.47,12.13-23.16-2.2-27.57,6.07-2.21,44.1-2.21,44.1,8.27,29.78,14.89,34.19,64.51-1.66,64.51-1.66l16.54-29.77V146.85s-2.21-12.13-17.65-8.83c0,0-9.92-2.2-9.37-7.16S216.49,122.59,216.49,122.59Z" transform="translate(-33 -48.4)"/><path class="cls-1" d="M163.55,234.08c.34-1.49.57-2.33.57-2.33l-.18-1.2-1.82-12.34-.76-5.2c6.61-2.76,8.27-15.44,8.27-15.44l.25-.15,1.13-.67h0l4.05-2.43.08-.05,1.64,1.09,3.32,2.22a39.14,39.14,0,0,0,30.8,7.06,34.07,34.07,0,0,0,7.25-2.1l8-2.67.25-.08.24,0,4.71.71.08,0,.39.06-1.09,7.53-1.58,10.94c4.18,2.21,7.88,6.36,11.13,11.48.72,1.13,1.41,2.31,2.09,3.53.87,1.58,1.71,3.23,2.51,4.91l.28.61c.31.66.61,1.33.91,2h-84c.11-.68.22-1.32.32-1.93a.2.2,0,0,0,0-.07c0-.21.08-.41.11-.61C162.9,237,163.26,235.31,163.55,234.08Z" transform="translate(-33 -48.4)"/><path class="cls-1" d="M160.26,128.1a42.36,42.36,0,0,1,3.86,24.81c-2.21,13.78,6.61,48,6.61,48l6.62-1.66s-4.41-28.67-3.31-35.28,1.1-32.53-4.41-35.84S160.26,128.1,160.26,128.1Z" transform="translate(-33 -48.4)"/><path class="cls-1" d="M224.38,139.56l2.31,61,4.42,2.76s6.34-67,3-67h-6.73a3,3,0,0,0-3,3A.81.81,0,0,0,224.38,139.56Z" transform="translate(-33 -48.4)"/><circle class="cls-4" cx="140.76" cy="148.34" r="2.76"/><circle class="cls-4" cx="195.9" cy="151.1" r="2.76"/><polygon class="cls-1" points="154 17.67 154 38.62 158.85 38.62 165.02 32 164.2 38.62 185.64 38.62 184.32 32 186.97 38.62 190.39 38.62 190.39 17.67 154 17.67"/><ellipse class="cls-2" cx="150.69" cy="39.45" rx="1.65" ry="3.03"/><ellipse class="cls-2" cx="193.14" cy="39.45" rx="1.65" ry="3.03"/><path class="cls-2" d="M237.45,199.22s-25.09-4.68-26.74,3.59,27.84,4.69,27.84,4.69Z" transform="translate(-33 -48.4)"/><path class="cls-3" d="M236.89,142.43S297,190.4,286,202,233,210.25,233,210.25l2.75-13.78,24.26-2.76-12.13-12.13-11,1.1Z" transform="translate(-33 -48.4)"/><path class="cls-2" d="M148.13,222.38l7.71,6.07s5.52,17.09,13.79,12.13S161.91,218,161.91,218l-9.37-3.31Z" transform="translate(-33 -48.4)"/><path class="cls-3" d="M155.84,133.61l-7.69,2.32s-53.51,39.59-55.71,50.61,10.47,17.1,10.47,17.1l48,22.6,5-13.23-22.6-11.58s1.65-3.31-5-3.86-7.72-7.72-7.72-7.72,13.23-20.4,20.4-16,9.37,7.72,9.37,7.72Z" transform="translate(-33 -48.4)"/><path class="cls-5" d="M265.64,236v1.85a4.21,4.21,0,0,1-.27,1.48,3.83,3.83,0,0,1-.3.61,4.1,4.1,0,0,1-3.51,2H125.69a4.1,4.1,0,0,1-3.52-2,4.85,4.85,0,0,1-.29-.61,4,4,0,0,1-.28-1.48V236a4.09,4.09,0,0,1,4.08-4.09h7.84V231a.17.17,0,0,1,.17-.17h4.08a.18.18,0,0,1,.18.17h0v.86h2.55V231a.17.17,0,0,1,.17-.17h4.08a.18.18,0,0,1,.18.17h0v.86h2.55V231a.18.18,0,0,1,.17-.17h4.09a.18.18,0,0,1,.17.17h0v.86h2.55V231a.18.18,0,0,1,.17-.17h4.09a.18.18,0,0,1,.17.17h0v.86h2.55V231a.18.18,0,0,1,.17-.17h4.09a.18.18,0,0,1,.17.17h0v.86h2.55V231a.18.18,0,0,1,.17-.17h4.09a.18.18,0,0,1,.17.17h0v.86h2.55V231a.18.18,0,0,1,.17-.17h32a.17.17,0,0,1,.17.17h0v.86h2.56V231a.18.18,0,0,1,.17-.17h4.09a.18.18,0,0,1,.17.17v.86h2.55V231a.18.18,0,0,1,.17-.17h4.09a.18.18,0,0,1,.17.17h0v.86h2.55V231a.18.18,0,0,1,.17-.17h4.09a.18.18,0,0,1,.17.17h0v.86h2.55V231a.18.18,0,0,1,.17-.17h4.09a.18.18,0,0,1,.17.17v.86h2.55V231a.18.18,0,0,1,.17-.17h4.09a.18.18,0,0,1,.17.17h0v.86h2.55V231a.18.18,0,0,1,.17-.17h4.09a.18.18,0,0,1,.17.17h0v.86h11.92a4.09,4.09,0,0,1,4.08,4.09Z" transform="translate(-33 -48.4)"/><rect class="cls-5" x="49.12" y="190.89" width="223.03" height="0.61"/><path class="cls-5" d="M254.7,158.19H204.06v-1.05h-23v1.05H130.24a3.42,3.42,0,0,0-3.42,3.42V231a3.42,3.42,0,0,0,3.42,3.42H254.7a3.42,3.42,0,0,0,3.43-3.42V161.61a3.42,3.42,0,0,0-3.43-3.42Z" transform="translate(-33 -48.4)"/><circle class="cls-6" cx="159.57" cy="133.99" r="7.61"/><circle class="cls-3" cx="157.14" cy="136.73" r="7.61"/><rect class="cls-5" x="7.92" y="201.89" width="57.51" height="0.69"/><rect class="cls-5" x="258.94" y="201.89" width="57.51" height="0.69"/><path class="cls-5" d="M74.42,228.13c-6.06,9.89-4,22.19-4,22.19s11.91-3.73,18-13.62,4-22.19,4-22.19S80.48,218.24,74.42,228.13Z" transform="translate(-33 -48.4)"/><path class="cls-4" d="M70.2,250.4l-.34-.05c-.13,0-12.53-2.07-20-11s-7.25-21.45-7.25-21.58v-.34l.35.05c.12,0,12.52,2.07,19.94,11h0c7.43,8.88,7.25,21.45,7.25,21.58Z" transform="translate(-33 -48.4)"/><path class="cls-5" d="M70.69,250.72l-.33-.11c-.12,0-12.09-3.88-18.14-13.75s-4-22.28-4-22.41l.06-.34.33.11c.12,0,12.09,3.88,18.13,13.75h0c6,9.87,4,22.28,4,22.4ZM48.76,214.91c-.28,2.08-1.37,12.88,4,21.63s15.48,12.68,17.46,13.38c.28-2.09,1.37-12.88-4-21.63h0c-5.36-8.75-15.48-12.68-17.46-13.38Z" transform="translate(-33 -48.4)"/><circle class="cls-5" cx="37.83" cy="163.18" r="6.69"/><polygon class="cls-5" points="121.64 78.57 83.24 39.86 65.11 39.86 65.11 39.26 83.5 39.26 83.59 39.35 122.08 78.14 121.64 78.57"/><polygon class="cls-5" points="211.84 77.35 250.24 38.65 268.37 38.65 268.37 38.04 249.98 38.04 249.89 38.13 211.4 76.92 211.84 77.35"/><rect class="cls-3" y="20.78" width="44.42" height="8.79"/><rect class="cls-3" y="34.27" width="44.42" height="8.79"/><rect class="cls-3" y="47.75" width="44.42" height="8.79"/><rect class="cls-7" y="20.78" width="18.38" height="8.79"/><rect class="cls-7" y="34.27" width="5.95" height="8.79"/><rect class="cls-7" y="47.75" width="29.62" height="8.79"/><rect class="cls-3" x="290.51" y="22.76" width="44.49" height="3.96"/><rect class="cls-4" x="273.84" y="22.24" width="8.81" height="8.81"/><rect class="cls-4" x="273.84" y="35.46" width="8.81" height="8.81"/><rect class="cls-4" x="273.84" y="48.67" width="8.81" height="8.81"/><path class="cls-5" d="M318.09,77.63h-9.42V68.21h9.42ZM309.28,77h8.2v-8.2h-8.2Z" transform="translate(-33 -48.4)"/><rect class="cls-3" x="290.51" y="35.97" width="44.49" height="3.96"/><path class="cls-5" d="M318.09,90.85h-9.42V81.43h9.42Zm-8.81-.61h8.2V82h-8.2Z" transform="translate(-33 -48.4)"/><rect class="cls-3" x="290.51" y="49.19" width="44.49" height="3.96"/><path class="cls-5" d="M318.09,104.06h-9.42V94.64h9.42Zm-8.81-.61h8.2v-8.2h-8.2Z" transform="translate(-33 -48.4)"/><circle class="cls-4" cx="57.51" cy="25.26" r="4.87"/><circle class="cls-4" cx="57.51" cy="39.86" r="4.87"/><circle class="cls-4" cx="57.51" cy="52.95" r="4.87"/><path class="cls-5" d="M88.07,77.62a5.18,5.18,0,1,1,5.18-5.17A5.18,5.18,0,0,1,88.07,77.62Zm0-9.74a4.57,4.57,0,1,0,4.57,4.57A4.56,4.56,0,0,0,88.07,67.88Z" transform="translate(-33 -48.4)"/><path class="cls-5" d="M88.07,92.22a5.17,5.17,0,1,1,5.18-5.17A5.17,5.17,0,0,1,88.07,92.22Zm0-9.73a4.56,4.56,0,1,0,4.57,4.56A4.56,4.56,0,0,0,88.07,82.49Z" transform="translate(-33 -48.4)"/><path class="cls-5" d="M88.07,105.31a5.18,5.18,0,1,1,5.18-5.18A5.18,5.18,0,0,1,88.07,105.31Zm0-9.74a4.57,4.57,0,1,0,4.57,4.56A4.56,4.56,0,0,0,88.07,95.57Z" transform="translate(-33 -48.4)"/><path class="cls-5" d="M333.92,229.75h-.61v-4.56a.91.91,0,0,1,.92-.91h1.52a.3.3,0,0,0,.3-.31v-3a.3.3,0,0,0-.3-.31h-1.52a.91.91,0,0,1-.92-.91v-1.52a.29.29,0,0,0-.3-.3h-2.74a.92.92,0,0,1-.91-.92v-.3a.31.31,0,0,0-.31-.31H318.1a.3.3,0,0,0-.3.31v.3a.92.92,0,0,1-.92.92h-2.74a.3.3,0,0,0-.3.3v1.52a.91.91,0,0,1-.91.91h-1.52a.31.31,0,0,0-.31.31v3a.31.31,0,0,0,.31.31h1.82a.9.9,0,0,1,.91.91v4.56h-.6v-4.56a.31.31,0,0,0-.31-.31h-1.82a.92.92,0,0,1-.92-.91v-3a.91.91,0,0,1,.92-.91h1.52a.3.3,0,0,0,.3-.31v-1.52a.91.91,0,0,1,.91-.91h2.74a.31.31,0,0,0,.31-.31v-.3a.91.91,0,0,1,.91-.91h10.95a.91.91,0,0,1,.92.91v.3a.3.3,0,0,0,.3.31H333a.91.91,0,0,1,.91.91v1.52a.31.31,0,0,0,.31.31h1.52a.91.91,0,0,1,.91.91v3a.91.91,0,0,1-.91.91h-1.52a.31.31,0,0,0-.31.31Z" transform="translate(-33 -48.4)"/><path class="cls-5" d="M333,251.05H314.45a.91.91,0,0,1-.91-.91V237.05h.6v13.09a.3.3,0,0,0,.31.3H333a.29.29,0,0,0,.3-.3V237.05h.61v13.09A.91.91,0,0,1,333,251.05Z" transform="translate(-33 -48.4)"/><rect class="cls-4" x="280.54" y="183.48" width="24.04" height="7.3" rx="0.61"/><path class="cls-5" d="M335,237.36H312.17a.92.92,0,0,1-.92-.91v-6.09a.92.92,0,0,1,.92-.91H335a.91.91,0,0,1,.91.91v6.09A.91.91,0,0,1,335,237.36Zm-22.82-7.3a.3.3,0,0,0-.31.3v6.09a.31.31,0,0,0,.31.3H335a.31.31,0,0,0,.3-.3v-6.09a.3.3,0,0,0-.3-.3Z" transform="translate(-33 -48.4)"/><path class="cls-3" d="M323,213.63h0a76.25,76.25,0,0,1-.64-16.47l.64-9.09h0c-3.51,7-2.72,16.18,0,25.56Z" transform="translate(-33 -48.4)"/><path class="cls-3" d="M325.71,215.15h0a55.33,55.33,0,0,1-.31-9.8l.31-5.42h0C324,204.09,324.4,209.57,325.71,215.15Z" transform="translate(-33 -48.4)"/></svg>