<svg id="Layer_1" data-name="Layer 1" xmlns="http://www.w3.org/2000/svg" xmlns:xlink="http://www.w3.org/1999/xlink" viewBox="0 0 330.89 216.14"><defs><style>.cls-1,.cls-11{fill:#6c63ff;}.cls-1,.cls-12,.cls-3{opacity:0.1;}.cls-1,.cls-10,.cls-3{isolation:isolate;}.cls-2{fill:#565661;}.cls-4{fill:#bcbec9;}.cls-5{fill:#efeff0;}.cls-6{fill:#fff;}.cls-7{fill:url(#linear-gradient);}.cls-8{fill:#a26565;}.cls-9{fill:#454b69;}.cls-10{opacity:0.05;}.cls-13{fill:#a1616a;}.cls-14{fill:#464353;}.cls-15{fill:#535461;}.cls-16{fill:#9d9cb5;}.cls-17{fill:none;stroke:#535461;stroke-miterlimit:10;stroke-width:2px;}.cls-18{fill:#dfe6f5;}.cls-19{fill:#474157;}.cls-20{fill:#4c4c78;}.cls-21{fill:#c8cad7;}.cls-22{fill:#ededf4;}</style><linearGradient id="linear-gradient" x1="192.14" y1="47.11" x2="192.82" y2="47.11" gradientTransform="matrix(1, 0, 0, -1, -34.96, 221.07)" gradientUnits="userSpaceOnUse"><stop offset="0" stop-color="gray" stop-opacity="0.25"/><stop offset="0.54" stop-color="gray" stop-opacity="0.12"/><stop offset="1" stop-color="gray" stop-opacity="0.1"/></linearGradient></defs><title>what-7</title><path class="cls-1" d="M215.17,75.88c-20.9,3.53-41.77,2-61.84-.19s-40.1-5.07-61-4.21c-13.45.56-28.43,3.22-37.82,11C45.46,89.9,44.06,100,44,109c0,6.83.57,13.89,5.4,19.33,3.37,3.77,8.54,6.47,12.44,10,13.56,12.1,9.43,31.14.54,47.33-4.18,7.59-9.29,15.06-12.13,22.84s-3.22,16.1,1.87,22.44,14.79,9.83,25,11.67c20.66,3.73,43.67,1.41,65.93-1.73,49.28-7,98-17.84,146.71-28.68,18-4,36.09-8,53.43-13.83,9.64-3.23,19.45-7.23,25.67-13.47,7.9-7.91,8.1-18.72.48-25.19-12.78-10.83-41.71-8.43-51.6-20.81-5.44-6.82-3.07-16.08,1.26-24.26,9.28-17.55,27.23-34.88,24.9-52.37-1.6-12-13.84-21.94-30.25-24.53-17.2-2.71-39.29,2.43-49.19,14.51C254.27,64.67,233.62,72.75,215.17,75.88Z" transform="translate(-44.04 -37)"/><rect class="cls-2" x="105.4" y="105.2" width="82.99" height="19.22"/><rect class="cls-3" x="105.4" y="105.2" width="82.99" height="19.22"/><polygon class="cls-4" points="115.33 125.05 115.91 176.35 107.93 196.5 107.31 125.05 115.33 125.05"/><polygon class="cls-2" points="106.28 108.89 187.07 109.37 187.07 123.68 106.28 123.68 106.28 108.89"/><polygon class="cls-4" points="180.16 125.05 187.07 126.02 187.07 195.72 180.16 174.4 180.16 125.05"/><rect class="cls-5" x="189.7" y="105.97" width="38.94" height="82.75"/><rect class="cls-2" x="192.82" y="108.26" width="32.71" height="63.61"/><rect class="cls-3" x="192.82" y="108.26" width="32.71" height="63.61"/><rect class="cls-2" x="192.82" y="109.57" width="32.71" height="14.12"/><rect class="cls-2" x="192.82" y="125.04" width="32.71" height="29.98"/><rect class="cls-2" x="192.82" y="156.88" width="32.71" height="29.98"/><rect class="cls-3" x="192.82" y="156.88" width="32.71" height="29.98"/><ellipse class="cls-2" cx="194.18" cy="191.41" rx="2.11" ry="2.69"/><ellipse class="cls-2" cx="223.42" cy="191.54" rx="2.11" ry="2.69"/><polygon class="cls-5" points="105.11 196.5 107.93 196.5 107.15 106.68 102.87 106.68 105.11 196.5"/><polygon class="cls-5" points="187.07 105.97 187.07 195.72 189.7 195.72 189.7 106.68 187.07 105.97"/><polygon class="cls-5" points="107.29 122.81 107.29 126.02 187.07 126.02 187.07 123.68 107.29 122.81"/><polygon class="cls-6" points="112.7 99.93 213.85 99.93 228.55 104.8 228.55 107.62 102.38 106.65 102.38 103.78 112.7 99.93"/><polygon class="cls-4" points="102.38 103.78 228.55 104.8 228.55 107.62 102.38 106.65 102.38 103.78"/><path class="cls-7" d="M157.85,174.25l-.59-.09v-.07l-.06-.41c.24.19.47.38.68.57Z" transform="translate(-44.04 -37)"/><path class="cls-8" d="M145.12,219.46a11.27,11.27,0,0,1,1.16-.21,13.83,13.83,0,0,1,7.79,1.15,12.86,12.86,0,0,0,0,5.42,24,24,0,0,1,1.25,3.63,2.12,2.12,0,0,1,1.68,1.49,3,3,0,0,1,.17,1,5.71,5.71,0,0,1-.16,1.3,1.32,1.32,0,0,1-1.41,1.17c-2.27.26-4.49-.64-6.6-1.51l-4.1-1.7c-.48-.2-1-.41-1.42-.65a7.77,7.77,0,0,1-2.28-1.87,1,1,0,0,1-.27-.49c-.08-.51.52-.82.91-1.17a2,2,0,0,0,.29-.36,9.94,9.94,0,0,0,.77-2.44c.65-1.91,2.64-3.15,3.34-5,0-.1.07-.21.1-.31" transform="translate(-44.04 -37)"/><path class="cls-3" d="M157.2,232a5.71,5.71,0,0,1-.16,1.3,1.32,1.32,0,0,1-1.41,1.17c-2.27.26-4.49-.64-6.6-1.51l-4.1-1.7c-.48-.2-1-.41-1.42-.65a7.77,7.77,0,0,1-2.28-1.87,1,1,0,0,1-.27-.49c-.08-.51.52-.82.91-1.17a2,2,0,0,0,.29-.36c1.13.25,2.53,1,3.4,1.23a10.7,10.7,0,0,1,2.47,1,19.66,19.66,0,0,1,2.77,2.63,4.56,4.56,0,0,0,3.36,1.57,5.61,5.61,0,0,0,1.92-.66Z" transform="translate(-44.04 -37)"/><path class="cls-9" d="M152.4,190.37a1.34,1.34,0,0,1-.5,1.46c-.38.24-.88.21-1.26.46a2.22,2.22,0,0,0-.62,1.56,20.91,20.91,0,0,1-2.09,5.52,10.08,10.08,0,0,0-1.22,5.7c.21,1.33.86,2.74.25,3.93-.15.29-.37.55-.54.84-.84,1.39-.36,3.16-.4,4.78a.86.86,0,0,1-.11.52,1.41,1.41,0,0,1-.46.35,2.46,2.46,0,0,0-1,1.89,7,7,0,0,0,.26,2.18,1.26,1.26,0,0,0,.36.76,1.3,1.3,0,0,0,.79.22,17.68,17.68,0,0,1,5.35,1.3,16.68,16.68,0,0,0,3.36,1.27.92.92,0,0,0,.69-.07,1,1,0,0,0,.3-.51,12.07,12.07,0,0,0,.76-4.59c-.07-.66-.25-1.32-.3-2-.2-2.64,1.58-5,2.15-7.62.25-1.17.25-2.38.43-3.56.49-3.24,2.28-6.15,3-9.36a9.85,9.85,0,0,1,.44-1.76c.52-1.24,1.7-2.24,1.73-3.59a1.47,1.47,0,0,0-.22-.84,2,2,0,0,0-1.05-.58,34.72,34.72,0,0,0-4.85-1,9.11,9.11,0,0,0-2.27-.16,6.77,6.77,0,0,0-2.79,1C151.43,189.19,152.15,189.36,152.4,190.37Z" transform="translate(-44.04 -37)"/><path class="cls-10" d="M152.4,190.37a1.34,1.34,0,0,1-.5,1.46c-.38.24-.88.21-1.26.46a2.22,2.22,0,0,0-.62,1.56,20.91,20.91,0,0,1-2.09,5.52,10.08,10.08,0,0,0-1.22,5.7c.21,1.33.86,2.74.25,3.93-.15.29-.37.55-.54.84-.84,1.39-.36,3.16-.4,4.78a.86.86,0,0,1-.11.52,1.41,1.41,0,0,1-.46.35,2.46,2.46,0,0,0-1,1.89,7,7,0,0,0,.26,2.18,1.26,1.26,0,0,0,.36.76,1.3,1.3,0,0,0,.79.22,17.68,17.68,0,0,1,5.35,1.3,16.68,16.68,0,0,0,3.36,1.27.92.92,0,0,0,.69-.07,1,1,0,0,0,.3-.51,12.07,12.07,0,0,0,.76-4.59c-.07-.66-.25-1.32-.3-2-.2-2.64,1.58-5,2.15-7.62.25-1.17.25-2.38.43-3.56.49-3.24,2.28-6.15,3-9.36a9.85,9.85,0,0,1,.44-1.76c.52-1.24,1.7-2.24,1.73-3.59a1.47,1.47,0,0,0-.22-.84,2,2,0,0,0-1.05-.58,34.72,34.72,0,0,0-4.85-1,9.11,9.11,0,0,0-2.27-.16,6.77,6.77,0,0,0-2.79,1C151.43,189.19,152.15,189.36,152.4,190.37Z" transform="translate(-44.04 -37)"/><polygon class="cls-2" points="102.63 197.5 100.14 197.5 98.5 163.93 98.39 162.02 100.51 161.27 100.65 163.3 102.63 197.5"/><polygon class="cls-3" points="100.65 163.3 98.5 163.93 98.39 162.02 100.51 161.27 100.65 163.3"/><polygon class="cls-2" points="133.97 204.6 129.85 205.09 110.87 162.02 105.75 161.65 96.77 164.27 95.02 215.55 90.9 215.55 92.52 162.4 82.65 162.65 65.05 206.47 61.31 206.47 79.82 155.25 80.53 153.28 108.13 152.33 115 156.19 115.09 156.41 133.97 204.6"/><path class="cls-3" d="M159.13,193.41c-5.93,1.79-12.08,3.74-12.08,3.74s-5.62,2-8,0a3.69,3.69,0,0,0-1-.55,4.8,4.8,0,0,0,1,.55l-15.19-4.9.71-2,27.59-.95,6.88,3.86Z" transform="translate(-44.04 -37)"/><path class="cls-6" d="M131.06,184.91l11.24-2.49s26.84,5,28.84,7c0,0-21.47,4.37-23.85,5.85S130.81,198.4,131.06,184.91Z" transform="translate(-44.04 -37)"/><path class="cls-11" d="M126.23,156.84c-.88,2.78-3.27,5.29-6.19,5.41a1.09,1.09,0,0,1-.62-.11,1,1,0,0,1-.23-1.17,5.16,5.16,0,0,0,.45-1.2.75.75,0,0,0,0-.26c-.08-.35-.36-.66-.7-.59a1.17,1.17,0,0,0,.25-1.55,4.29,4.29,0,0,1-.36-.48c-.24-.5.14-1.06.3-1.59.32-1.18-.5-2.35-.57-3.57a17.93,17.93,0,0,1,.63-3.2c.22-1.76-.65-3.44-.75-5.2a11.16,11.16,0,0,1,.56-3.61,12.79,12.79,0,0,0,.65-3.22c0-.8-.14-1.59-.18-2.39a4.08,4.08,0,0,1,.39-2.12,1.66,1.66,0,0,1,1-.82,1.22,1.22,0,0,1,1.73,1.09c.23,1.55.1,3.13.41,4.68a21.68,21.68,0,0,0,1.28,4.25c.52,1.23,1.15,2.43,1.55,3.7a21,21,0,0,1,.64,3.23C126.81,151,127.12,154.05,126.23,156.84Z" transform="translate(-44.04 -37)"/><path class="cls-8" d="M192.92,227.71a4.54,4.54,0,0,1-3.2,1.88c-1.27.16-2.59-.16-3.82.19a1.16,1.16,0,0,0-.88.68c0,.23-.05.47-.06.71-.14.79-1.17,1-2,1l-3.29,0a2.7,2.7,0,0,1-1.94-.51,1.44,1.44,0,0,1,0-1.9.65.65,0,1,0-.42-1.23,3.5,3.5,0,0,1,.06-1.29c0-1.22.29-3.27,1.15-4.23a9.79,9.79,0,0,1,4.49-3.05,3.52,3.52,0,0,1,3,.86c.76.71,1.31,1.81,2.34,1.93a6,6,0,0,0,1.67-.29,3.11,3.11,0,0,1,3.17,1.67,3.33,3.33,0,0,1,.29.91A3.85,3.85,0,0,1,192.92,227.71Z" transform="translate(-44.04 -37)"/><path class="cls-3" d="M192.92,227.71a4.54,4.54,0,0,1-3.2,1.88c-1.27.16-2.59-.16-3.82.19a1.16,1.16,0,0,0-.88.68c0,.23-.05.47-.06.71-.14.79-1.17,1-2,1l-3.29,0a2.7,2.7,0,0,1-1.94-.51,1.44,1.44,0,0,1,0-1.9,33.71,33.71,0,0,0,5.67-.39c.77-.15,1.53-.36,2.31-.47,1.69-.24,3.48,0,5-.75a5.62,5.62,0,0,0,2.76-3.1A3.82,3.82,0,0,1,192.92,227.71Z" transform="translate(-44.04 -37)"/><path class="cls-9" d="M184.22,223.08a7.33,7.33,0,0,1-4,1.69,4.08,4.08,0,0,1-3.76-1.87c-1.06-1.88-.12-4.5-1.42-6.23-.4-.54-1-.92-1.41-1.45a1.62,1.62,0,0,1-.29-1.86c-.46.17-.95-.27-1.08-.75a14.15,14.15,0,0,1-.14-1.46c-.21-1.28-1.46-2.09-2.06-3.22a9.63,9.63,0,0,1-.59-3.94,14.91,14.91,0,0,0-3.45-8.88,2.09,2.09,0,0,0-1.53-.94,2.88,2.88,0,0,0-1.53-2.63,7.69,7.69,0,0,0-3.1-.83c-10.81-1.07-22.08,2.95-32.4-.43a14.35,14.35,0,0,1-7.4-5,8.7,8.7,0,0,1-1.55-6.59v0c.4-2.08,1.5-2.59,3.32-3.54a39.73,39.73,0,0,1,6.56-2.75,26.6,26.6,0,0,1,13.65-.86c2.12.48,4.16,1.26,6.28,1.72.83.18,1.67.31,2.52.42,1.31.16,2.63.27,4,.42a60.13,60.13,0,0,1,12.43,2.8,16.4,16.4,0,0,1,4.3,2,9.5,9.5,0,0,1,3.81,6.29c.13.86.13,1.76.32,2.59a13.39,13.39,0,0,0,.7,2.05,136.92,136.92,0,0,1,6.12,19,4.55,4.55,0,0,0,.49,1.38c.37.6,1,1,1.39,1.62.88,1.43,0,3.42.81,4.91.27.51.72.92,1,1.44C187,219.89,185.72,221.92,184.22,223.08Z" transform="translate(-44.04 -37)"/><path class="cls-3" d="M169.26,189.43a4.54,4.54,0,0,0,1.06-1.17,2.17,2.17,0,0,0,.33-1.51,4.35,4.35,0,0,1-1.14,3.72,3.88,3.88,0,0,1-3.19,1.24C166.47,190.85,168.58,190,169.26,189.43Z" transform="translate(-44.04 -37)"/><path class="cls-3" d="M151,174.84a2,2,0,0,1-1.3,1.34,5.5,5.5,0,0,1-1.93.23h-.59c-7.68-.17-15.45-1.88-23-.25a16.53,16.53,0,0,0-2.66.78,11.7,11.7,0,0,0-3,1.76v0c.4-2.08,1.5-2.6,3.32-3.54a39.9,39.9,0,0,1,6.55-2.73,26.6,26.6,0,0,1,13.65-.86c2.12.48,4.16,1.26,6.28,1.72.83.18,1.67.31,2.52.42A2.13,2.13,0,0,1,151,174.84Z" transform="translate(-44.04 -37)"/><path class="cls-8" d="M151,174.42a2,2,0,0,1-1.3,1.35,5.49,5.49,0,0,1-1.93.22h-.59c-7.68-.17-15.45-1.88-23-.25a17.62,17.62,0,0,0-2.66.78,12.2,12.2,0,0,0-3.17,1.87c-.23-.61-.45-1.23-.67-1.85s.58-.9.75-1.56a3.63,3.63,0,0,0-.17-1.44,2.11,2.11,0,0,1,0-.35,2.27,2.27,0,0,1,1.19-2.24,33.16,33.16,0,0,1,8.64-3.74,21.23,21.23,0,0,1,4.8-.93,23.41,23.41,0,0,1,6.86.83,29.7,29.7,0,0,1,7.94,3,7.49,7.49,0,0,1,3,2.83A2.22,2.22,0,0,1,151,174.42Z" transform="translate(-44.04 -37)"/><path class="cls-3" d="M126.23,156.84c-.88,2.78-3.27,5.29-6.19,5.41a1.09,1.09,0,0,1-.62-.11,1,1,0,0,1-.23-1.17,5.16,5.16,0,0,0,.45-1.2.75.75,0,0,0,0-.26,20.22,20.22,0,0,0,3.64-7,3.73,3.73,0,0,0,.11-1.37,13.29,13.29,0,0,0-.49-1.51,7.91,7.91,0,0,1-.07-2.79,25.69,25.69,0,0,0-2-12,11.66,11.66,0,0,1-1-2.82,1.69,1.69,0,0,1,1-.82,1.22,1.22,0,0,1,1.73,1.09c.24,1.55.1,3.13.41,4.68a21.68,21.68,0,0,0,1.28,4.25c.52,1.23,1.15,2.43,1.55,3.71a20.62,20.62,0,0,1,.64,3.22C126.81,151,127.12,154.05,126.23,156.84Z" transform="translate(-44.04 -37)"/><path class="cls-3" d="M151,174.42a2,2,0,0,1-1.3,1.35,5.49,5.49,0,0,1-1.93.22h-.59a12.75,12.75,0,0,0-8.49-2.05,13.89,13.89,0,0,1-2.86.25c-1.93-.18-3.5-1.57-5.22-2.45a10.93,10.93,0,0,0-12.13,1.64l-.16.15a2.41,2.41,0,0,1,1.14-2.59,32.83,32.83,0,0,1,8.64-3.74,20.7,20.7,0,0,1,4.8-.93,23.41,23.41,0,0,1,6.86.83,29.49,29.49,0,0,1,7.94,3,7.62,7.62,0,0,1,3,2.84A2.22,2.22,0,0,1,151,174.42Z" transform="translate(-44.04 -37)"/><path class="cls-11" d="M157.53,142.35l0,.1c-.65,1.7-1.86,3.14-2.63,4.8a20.12,20.12,0,0,0-1.43,6.76,34.81,34.81,0,0,0-.23,6c.38,4.88,2.76,9.51,3.4,14.3a15.57,15.57,0,0,1,.12,3.34,3.27,3.27,0,0,1-.65,2,1.37,1.37,0,0,1-1.88.23l.68-1.29c-1.34-1-3.35-.3-4.91-.95a7.92,7.92,0,0,1-1.82-1.29,12.74,12.74,0,0,0-9.48-2.77,13.26,13.26,0,0,1-2.87.25c-1.93-.17-3.49-1.56-5.21-2.45A11,11,0,0,0,118.45,173c-.41.38-1,.82-1.46.58a1.2,1.2,0,0,1-.46-.49c-1.92-3.28-.5-7.5,1.54-10.7s4.77-6.13,5.61-9.83a3.71,3.71,0,0,0,.11-1.37,14,14,0,0,0-.49-1.51,7.91,7.91,0,0,1-.07-2.79,25.7,25.7,0,0,0-2-12,8.88,8.88,0,0,1-1-3.39c0-1.87,1.34-3.42,2.45-4.92a30,30,0,0,1,4-5.06,5.9,5.9,0,0,1,5.64-1.49,35.28,35.28,0,0,1,9.82-1,7.68,7.68,0,0,1,3.33.73c1.07.59,1.84,1.63,2.89,2.25a15.52,15.52,0,0,0,2.5,1,10.27,10.27,0,0,1,5.37,4.81,20.38,20.38,0,0,1,1.72,7.42C158.13,137.61,158.37,140.1,157.53,142.35Z" transform="translate(-44.04 -37)"/><path class="cls-3" d="M153.2,160c.38,4.88,2.76,9.51,3.4,14.3-1.27-1.08-3-2.16-3.29-3.42s-1.11-3.14-1.25-4.51.83-3.05-.18-4c-.5-.46.81-.33.33-.8a6.07,6.07,0,0,1-1.41-4.17c-.12-2.66.22-5.35-.27-8a39.22,39.22,0,0,0-1.39-4.72c-.57-1.82-1-3.69-1.39-5.56a39.37,39.37,0,0,1-.88-5.06,8.39,8.39,0,0,1,.59-4.35,4,4,0,0,1,3.45-2.4c5,.07,4.1,6.79,5.19,9.89a24,24,0,0,1,1.26,3.72,8.62,8.62,0,0,1,.14,1.53c-.65,1.7-1.86,3.14-2.63,4.79a20.17,20.17,0,0,0-1.43,6.76A34,34,0,0,0,153.2,160Z" transform="translate(-44.04 -37)"/><path class="cls-11" d="M156.42,137.12a25.11,25.11,0,0,1,1.27,3.72c.39,2.16-.22,4.45.44,6.54a11.48,11.48,0,0,1,.44,1.37,12.39,12.39,0,0,1,0,2,11.39,11.39,0,0,0,.65,3.19,56.7,56.7,0,0,1,2,10.88,13.88,13.88,0,0,0,.47,2.93,8.13,8.13,0,0,1,.31,1,5.1,5.1,0,0,1,.06,1.35,25.88,25.88,0,0,0-.08,4.31,5.91,5.91,0,0,0,1.76,3.83,5.58,5.58,0,0,1-2.92.11c-1.31-.43-2.1-1.75-2.78-3-.84-1.54-4.07-2.93-4.4-4.66-.27-1.35-1.11-3.13-1.25-4.51s.82-3-.19-4c-.49-.46.82-.34.34-.8a6,6,0,0,1-1.41-4.18c-.12-2.66.22-5.34-.27-8a41.73,41.73,0,0,0-1.39-4.72c-.57-1.82-1-3.69-1.39-5.56a37.43,37.43,0,0,1-.88-5.06,8.28,8.28,0,0,1,.58-4.35,4,4,0,0,1,3.46-2.4C156.18,127.3,155.33,134,156.42,137.12Z" transform="translate(-44.04 -37)"/><path class="cls-3" d="M142.3,138.27c.47.54,1.06,1.13,1.76,1a.38.38,0,0,1-.52.12,1.14,1.14,0,0,1-.39-.45l-1-1.69c-.13-.21-1-1.49-1.26-.76C140.8,136.84,142.08,138,142.3,138.27Z" transform="translate(-44.04 -37)"/><path class="cls-3" d="M141.77,142.48a2.25,2.25,0,0,0-.66-1.46,3.56,3.56,0,0,0-1.21-.73,8.86,8.86,0,0,0-3.59-.76c.44.64,1.83,1,2.52,1.37C139.82,141.41,140.8,141.94,141.77,142.48Z" transform="translate(-44.04 -37)"/><path class="cls-3" d="M144.88,154.48a5.6,5.6,0,0,1-2.67,3.51,11.83,11.83,0,0,0-3.44,2.9c-.56.88-.82,1.9-1.29,2.82a33.53,33.53,0,0,1-1.95,2.81,4.58,4.58,0,0,0-.93,3.2.4.4,0,0,0,.14.27.38.38,0,0,0,.37,0c1.28-.67,1.78-2.19,2.32-3.51a39,39,0,0,1,1.89-3.9,3.57,3.57,0,0,1,1.26-1.55,10.53,10.53,0,0,1,1.23-.43,4.28,4.28,0,0,0,1.53-1.2,10.06,10.06,0,0,0,2.34-6.83c0-.52-.05-3-.83-2.26S145,153.46,144.88,154.48Z" transform="translate(-44.04 -37)"/><path class="cls-8" d="M146.81,97c2.52,1.1,4.69,3.51,4.61,6.25s-2.47,5.58-1.65,8.34c.48,1.6,1.93,2.67,3.08,3.88a13,13,0,0,1,0,17.28c-1.67,1.76-3.82,3-5.6,4.68-6.24,5.89-6.51,16.07-3.16,24a38.69,38.69,0,0,1-7.8.88c-1.23,0-2.73-.21-3.17-1.35s.29-2.49-.52-3.27a2.64,2.64,0,0,0-1.46-.5,9.91,9.91,0,0,1-7.24-6.27,16.94,16.94,0,0,1-.46-9.85c.5-2.36,1.29-5,.12-7.06-1.46-2.65-5.67-3.77-5.61-6.8,0-2.49,3-3.7,4.65-5.55,3.07-3.4,1.6-8.68,1.6-13.26a14.61,14.61,0,0,1,4.41-10.89C133.05,93.43,141.66,94.74,146.81,97Z" transform="translate(-44.04 -37)"/><g class="cls-12"><path d="M124,131c-1.29-2.31-4.66-3.46-5.45-5.74a3.26,3.26,0,0,0-.63,1.83c-.06,3,4.14,4.15,5.61,6.81a5.56,5.56,0,0,1,.59,3.05C124.59,134.86,125,132.73,124,131Z" transform="translate(-44.04 -37)"/><path d="M150.11,107.81a16.27,16.27,0,0,0,1.33-4.68,4.51,4.51,0,0,0,0-.52C150.84,104.37,149.94,106.08,150.11,107.81Z" transform="translate(-44.04 -37)"/><path d="M124.51,116c1-3.18.14-7.13.14-10.66,0-.43,0-.86,0-1.28a16.72,16.72,0,0,0-.52,4.17C124.18,110.75,124.62,113.49,124.51,116Z" transform="translate(-44.04 -37)"/><path d="M153.31,129.73c-1.67,1.76-3.83,3-5.6,4.69a17.6,17.6,0,0,0-5.19,11.38,16.71,16.71,0,0,1,4.72-8.49c1.76-1.67,3.93-2.92,5.6-4.69a12.43,12.43,0,0,0,3.27-7.92A11.93,11.93,0,0,1,153.31,129.73Z" transform="translate(-44.04 -37)"/><path d="M136.75,159.26c-1.23,0-2.73-.21-3.17-1.36s.29-2.48-.52-3.27a2.72,2.72,0,0,0-1.46-.5,9.89,9.89,0,0,1-7.24-6.26,15.65,15.65,0,0,1-.88-7.25l-.06.29a17.15,17.15,0,0,0,.46,9.86,9.88,9.88,0,0,0,7.24,6.26,2.59,2.59,0,0,1,1.46.5c.82.78.11,2.21.52,3.27s1.94,1.37,3.17,1.35a38.51,38.51,0,0,0,7.79-.88,26.13,26.13,0,0,1-.94-2.61A39.93,39.93,0,0,1,136.75,159.26Z" transform="translate(-44.04 -37)"/></g><path class="cls-3" d="M146.34,146.49c.72.54,1.51-1.53,1.06-2.05A9.8,9.8,0,0,0,146.34,146.49Z" transform="translate(-44.04 -37)"/><path class="cls-3" d="M149.42,184.07a4.88,4.88,0,0,0,2.32-1.29c.46-.57.83-2.81-.14-1.74C150.78,182,150.39,183.18,149.42,184.07Z" transform="translate(-44.04 -37)"/><path class="cls-3" d="M158.1,181.72a3.33,3.33,0,0,1-.78,1.9c-.09.1-.3.15-.32,0a7.52,7.52,0,0,0,1.51-1.07c1-1,1.12-3.39-.38-4A24.14,24.14,0,0,1,158.1,181.72Z" transform="translate(-44.04 -37)"/><path class="cls-9" d="M168.51,177.36s-8.31-3.26-11.31-2.93,3.4,5.07,3.4,5.07l3.83,2.59,2.5-1C167.08,181.07,168.51,177.36,168.51,177.36Z" transform="translate(-44.04 -37)"/><path class="cls-2" d="M111.34,142.34s6.24-3.62,14.48.87,9.61,31,9.61,31-3.37,27,9.63,21c0,0,23.71-7.36,26.09-5.74,0,0,2.25,0-2.25,1s-21.85,6.5-21.85,6.5-5.62,2-8,0-9.11.25-10-13.23a234.86,234.86,0,0,0-3.12-25.35l-2.31-6.87Z" transform="translate(-44.04 -37)"/><path class="cls-6" d="M110.59,184s2.74-27.34-1.76-37.21c-3.92-8.6,11.23-4.58,15.19-3.4a2.84,2.84,0,0,1,1.51,1.08,48.92,48.92,0,0,1,8.27,34.16s-1,15.73,5.25,18.23l-19.24-6.2c-1.56-.5-3.14-.92-4.74-1.28C113,189,109.71,187.64,110.59,184Z" transform="translate(-44.04 -37)"/><polygon class="cls-2" points="203.35 198.08 205.85 198.08 207.49 164.51 207.6 162.61 205.47 161.86 205.34 163.89 203.35 198.08"/><polygon class="cls-3" points="205.34 163.89 207.49 164.51 207.6 162.61 205.47 161.86 205.34 163.89"/><path class="cls-8" d="M226.54,222.12a5.63,5.63,0,0,1-.35,1.34,2.41,2.41,0,0,1-1.07,1.34A2.88,2.88,0,0,1,224,225a7.09,7.09,0,0,1-4-.64,7.6,7.6,0,0,1-1.38-1.15,63.29,63.29,0,0,1-7.23-8.61,2.26,2.26,0,0,1-.58-1.76,27.17,27.17,0,0,0,7.84-3.58,3.78,3.78,0,0,1,1.1-.59,6,6,0,0,1,2.07-.08c.67.11.7.13.95.88.42,1.27.35,2.64.83,3.91a11.74,11.74,0,0,0,1.09,2C225.92,217.44,226.86,219.85,226.54,222.12Z" transform="translate(-44.04 -37)"/><path class="cls-3" d="M226.54,222.12a5.63,5.63,0,0,1-.35,1.34,2.41,2.41,0,0,1-1.07,1.34A2.88,2.88,0,0,1,224,225a7.09,7.09,0,0,1-4-.64,7.6,7.6,0,0,1-1.38-1.15,63.29,63.29,0,0,1-7.23-8.61,2.26,2.26,0,0,1-.58-1.76,28.23,28.23,0,0,0,2.69-.89l0,0a9.92,9.92,0,0,1,2.19,2.46l2,2.89a8.58,8.58,0,0,0,1.28,1.55,8.75,8.75,0,0,0,2,1.19c1,.47,1.93.93,2.93,1.31C224.64,221.65,225.73,221.75,226.54,222.12Z" transform="translate(-44.04 -37)"/><path class="cls-9" d="M228.43,190.85a8.85,8.85,0,0,1-.73,1.4,59.73,59.73,0,0,0-6.25,14.61c-.4-.09-.63.46-.63.87s0,1-.38,1.1c-.12,0-.25,0-.36.1s-.31.42-.35.69l-.34,2.54a3.14,3.14,0,0,0,1.33,3.77l5.72,4.51a.89.89,0,0,0,.81.28c.64-.23.07-1.38.58-1.85.34-.32.88-.08,1.35-.11a1.55,1.55,0,0,0,1.24-1.21,5.62,5.62,0,0,0,0-1.83,1.68,1.68,0,0,1,.09-.83,2.24,2.24,0,0,1,.7-.67,7.49,7.49,0,0,0,3.08-6.33,3.49,3.49,0,0,1,0-1.12,3,3,0,0,1,.53-.93,85.75,85.75,0,0,0,5.53-8.9,17.87,17.87,0,0,0,2.34-5.52.52.52,0,0,0-.28-.67l-.14,0a20,20,0,0,0-2.62-.63,80.57,80.57,0,0,1-7.91-2.19C229.2,187.09,229.22,188.74,228.43,190.85Z" transform="translate(-44.04 -37)"/><polygon class="cls-2" points="172.01 205.18 176.14 205.68 195.11 162.61 200.23 162.23 209.22 164.85 210.97 216.14 215.09 216.14 213.47 162.98 223.33 163.23 240.93 207.05 244.68 207.05 226.16 155.84 225.45 153.87 197.86 152.92 190.98 156.78 190.89 157 172.01 205.18"/><path class="cls-3" d="M234.93,194c5.93,1.78,12.09,3.73,12.09,3.73s5.61,2,8,0a3.66,3.66,0,0,1,1-.54,4.76,4.76,0,0,1-1,.54l15.19-4.89-.7-2-27.59-1L235,193.78Z" transform="translate(-44.04 -37)"/><path class="cls-6" d="M263,185.5,251.76,183s-26.84,5-28.84,7c0,0,21.47,4.37,23.85,5.86S263.25,199,263,185.5Z" transform="translate(-44.04 -37)"/><path class="cls-8" d="M221.31,225.64c-.68,1.28-2.35,1.65-3.81,1.67a16.35,16.35,0,0,1-5.95-1.06,31.91,31.91,0,0,0-3.24-1.26c-1.67-.46-3.51-.42-5-1.34a5.84,5.84,0,0,1-1.87-2c-.08-.15-.17-.3-.24-.45a6.28,6.28,0,0,1-.64-4.42c.39-1.47,1.81-3.08,3.45-3.06,1.94,0,4.26,1,6.14,1.43a24.31,24.31,0,0,1,6.76,2.5A10.15,10.15,0,0,1,221,222a7.47,7.47,0,0,1,.39,1.09A3.47,3.47,0,0,1,221.31,225.64Z" transform="translate(-44.04 -37)"/><path class="cls-3" d="M221.31,225.64c-.68,1.28-2.35,1.65-3.81,1.67a16.35,16.35,0,0,1-5.95-1.06,31.91,31.91,0,0,0-3.24-1.26c-1.67-.46-3.51-.42-5-1.34a5.84,5.84,0,0,1-1.87-2c-.08-.15-.17-.3-.24-.45l.71.07a29.68,29.68,0,0,1,5.23,1.32,29.25,29.25,0,0,0,7.32,1.14,9.93,9.93,0,0,0,5.12-.93A15.11,15.11,0,0,1,221,222a7.47,7.47,0,0,1,.39,1.09A3.52,3.52,0,0,1,221.31,225.64Z" transform="translate(-44.04 -37)"/><path class="cls-9" d="M233.89,170a96.68,96.68,0,0,0-11.54-.93l-4.72-.18a2.13,2.13,0,0,0-1,.12,6.2,6.2,0,0,0-.77.58,3.22,3.22,0,0,1-1.65.39,81.74,81.74,0,0,0-12.06,1.57,11.51,11.51,0,0,0-5.71,2.38,8.3,8.3,0,0,0-2.4,6,21.6,21.6,0,0,0,1.13,6.5,29.56,29.56,0,0,1,1.28,7.86,15,15,0,0,0,.09,2.22,9.88,9.88,0,0,0,.62,2.05l2.15,5.75c.19.51.38,1,.59,1.5s.4.88.58,1.34c.27.63.47,1.29.68,1.94l1.44,4.51.18.58a16.8,16.8,0,0,0,2,4.67,5.71,5.71,0,0,0,4.19,2.6,13,13,0,0,1,1.65.05,6.41,6.41,0,0,1,1.35.49,10.15,10.15,0,0,0,4,.78,3.92,3.92,0,0,0,3.38-1.42,5.1,5.1,0,0,0,.59-2,8.93,8.93,0,0,0-.11-4.15c-.3-.79-.79-1.47-1.13-2.24a22.65,22.65,0,0,1-.93-3.34,12.74,12.74,0,0,0-3.9-6.2,62.45,62.45,0,0,1-1.46-8,6.89,6.89,0,0,0-.36-1.75c-.34-.88-1-1.59-1.32-2.49s-.19-1.79-.69-2.51c4.12,1.13,8.2.88,12.48.81a33,33,0,0,0,4.1-.23,12.26,12.26,0,0,1,1.92-.21,10.08,10.08,0,0,1,3.78,1.1,31,31,0,0,0,10.78,2.78c3.85.16,7.66-.75,11.42-1.64a11.42,11.42,0,0,0,4.69-1.91c1.31-1.09,2.05-3,1.24-4.54a5.62,5.62,0,0,0-3.08-2.14c-3.29-1.3-6.6-2.57-9.77-4.14C242.82,176.11,239.19,170.84,233.89,170Z" transform="translate(-44.04 -37)"/><path class="cls-13" d="M227.1,156.72a28.71,28.71,0,0,1-1.8,2.74,7,7,0,0,0-.88,5.17,5.89,5.89,0,0,0,3.29,4,8.15,8.15,0,0,0,2.29.55,5,5,0,0,0,3-.35,4.46,4.46,0,0,0,1.62-1.69,17.46,17.46,0,0,0,1.64-4.28,27.75,27.75,0,0,0,1.31-8.36,3.2,3.2,0,0,0-1-2.63,3.32,3.32,0,0,0-1.36-.45l-3.86-.69c-.75-.14-2.05-.68-2.7-.14s-.69,2.13-.81,2.87A11.92,11.92,0,0,1,227.1,156.72Z" transform="translate(-44.04 -37)"/><path class="cls-13" d="M274.05,145.39l-1,8.47a38.56,38.56,0,0,0-.36,4.55,3.58,3.58,0,0,1-.54,2.43,2.19,2.19,0,0,1-1,.61,5.36,5.36,0,0,1-3.73-.49,3,3,0,0,1-1.7-1.4,3.56,3.56,0,0,1-.22-1.48c0-5.05.48-10.32,3.12-14.62a3,3,0,0,1,.93-1.07,3,3,0,0,1,2.51-.09c.51.16,1.89.33,2.22.79S274.12,144.81,274.05,145.39Z" transform="translate(-44.04 -37)"/><circle class="cls-13" cx="203.21" cy="67.23" r="10.54"/><path class="cls-13" d="M244.43,119.94a5.34,5.34,0,0,1-.66,2.34q8.08-1.23,16.11-2.74a7.59,7.59,0,0,1-3.74-4.39,12.35,12.35,0,0,1-.47-3.13,36.85,36.85,0,0,1,.09-5,25.48,25.48,0,0,0-5.43,1.5,52.22,52.22,0,0,1-5.47,1.53c-.9.2-1.79.37-2.7.53s-1.56.18-.82,1.11C243.3,114.12,244.7,116.63,244.43,119.94Z" transform="translate(-44.04 -37)"/><path class="cls-11" d="M247.67,118.53a8.31,8.31,0,0,0-4,1.3A13.26,13.26,0,0,0,242.5,121c-2.2,2.14-5.31,3-8,4.51a3.67,3.67,0,0,0-1.14.89c-.29.41-.44.93-.75,1.33s-.92.76-1.2,1.28a3.74,3.74,0,0,0-.24,1.62,15.31,15.31,0,0,1-.88,3.51c-1.63,5.54-.74,11.72-3.2,17a2.42,2.42,0,0,0,1.3,1.35,7.39,7.39,0,0,0,1.92.41l5.45.68a4.29,4.29,0,0,0,2.31-.14,27,27,0,0,0-1.37,5.54,28.46,28.46,0,0,1-.61,3.44,11.5,11.5,0,0,1-4.87,6.18,1.84,1.84,0,0,0-.69.64c-.29.59.14,1.24.45,1.82.89,1.66.77,3.66.76,5.54s.17,4,1.49,5.31a8.17,8.17,0,0,0,2.88,1.65l8.53,3.4a29.54,29.54,0,0,0,4.34,1.47,26,26,0,0,0,6.88.39c1.52-.07,3-.16,4.56-.3a3.49,3.49,0,0,0,1.73-.45,3.28,3.28,0,0,0,1-1.37c1.18-2.58,1.58-5.59,3.42-7.75,1.26-1.48,3.22-2.67,3.36-4.61.07-1-.36-1.91-.36-2.88,0-1.19.62-2.32.58-3.51-.08-1.94-1.9-3.41-2.19-5.33-.74-4.85,1.73-9.7,3.24-14.37a3.18,3.18,0,0,1,1.43-2.12c.8-.35,1.93-.16,2.21-1a17,17,0,0,0,.81-6.42c-.06-1.22-.49-2.42-.44-3.64,0-.86.31-1.7.38-2.56a10.71,10.71,0,0,0-.58-3.83,4.6,4.6,0,0,0-1.22-2.34l-1.43-1.7a6.49,6.49,0,0,0-2.34-2c-.31-.77-1.31-1.31-2-1.74a20.14,20.14,0,0,0-2.24-1.09l-8.06-3.56a2.42,2.42,0,0,0-2.38,0A35.5,35.5,0,0,1,247.67,118.53Z" transform="translate(-44.04 -37)"/><path class="cls-14" d="M239.12,106.06c-.31-1.09-1.1-2-1.22-3.17a8.29,8.29,0,0,1,.59-3,2.76,2.76,0,0,0-.54-2.82c-.13-.11-.29-.21-.34-.38s.21-.56.3-.85c.16-.59-.56-1.23-.3-1.8.15-.3.53-.41.86-.51a3.74,3.74,0,0,0,2.79-2.48c1,.41,2-.36,2.78-1.1s1.68-1.6,2.71-1.38l-.23.47a7.47,7.47,0,0,1,5,0H251a6.78,6.78,0,0,1,3.92,1.33c-.13,0-.14.18-.09.29a3.4,3.4,0,0,0,2.48,1.7,3.58,3.58,0,0,1,1.73.69c.44.44.45,1.36-.14,1.57a15.51,15.51,0,0,1,3.4,1.84c.29.22.62.51.59.88a3.54,3.54,0,0,1-.18.55,1.84,1.84,0,0,0,.06.93l.32,1.35c.36,1.49.64,3.28-.45,4.36a4,4,0,0,1-.7,4.73,2,2,0,0,1-1.24,2.47l-.23,0a1.32,1.32,0,0,1-.53,1.72,3.17,3.17,0,0,1-1.95.29,8.32,8.32,0,0,0-2-.11c-1,.15-1.91.81-2.84.51a5.55,5.55,0,0,1-1-.53,7.72,7.72,0,0,0-2.13-.58,10,10,0,0,1-3.43-1.47,4,4,0,0,1-1.58-1.76c-.64-1.62.44-3.76-.7-5.08a2,2,0,0,0-2.74-.13c-.37.33-.42,1-.8,1.28A5.14,5.14,0,0,1,239.12,106.06Z" transform="translate(-44.04 -37)"/><path class="cls-3" d="M224.8,190a4.71,4.71,0,0,1-1.06-1.17,2.14,2.14,0,0,1-.32-1.52,4.33,4.33,0,0,0,1.13,3.73,3.87,3.87,0,0,0,3.19,1.23C227.59,191.43,225.48,190.6,224.8,190Z" transform="translate(-44.04 -37)"/><path class="cls-2" d="M282.72,142.92s-6.24-3.62-14.48.88-9.61,31-9.61,31,3.37,27-9.63,21c0,0-23.71-7.36-26.09-5.74,0,0-2.25,0,2.25,1s21.86,6.5,21.86,6.5,5.61,2,8,0,9.11.25,10-13.24a234.37,234.37,0,0,1,3.12-25.34l2.31-6.87Z" transform="translate(-44.04 -37)"/><path class="cls-6" d="M283.47,184.62s-2.74-27.34,1.76-37.2c3.92-8.6-11.23-4.58-15.19-3.41a2.84,2.84,0,0,0-1.51,1.08,49,49,0,0,0-8.27,34.17s1,15.73-5.24,18.22l19.23-6.19c1.56-.51,3.14-.92,4.74-1.29C281,189.54,284.35,188.22,283.47,184.62Z" transform="translate(-44.04 -37)"/><ellipse class="cls-1" cx="289.86" cy="196.21" rx="28.53" ry="4.58"/><rect class="cls-15" x="288.94" y="108.42" width="1.84" height="41.34"/><path class="cls-2" d="M346.35,186.63l-.11,1.86-.16,2.64-.07,1.09-.16,2.64-.07,1.09-.17,2.64-1.85,29.89a5.06,5.06,0,0,1-5.05,4.73h-9.63a5,5,0,0,1-5-4.75l-1.86-29.89-.16-2.64-.07-1.09-.17-2.64-.06-1.09-.16-2.64-.12-1.86a2.64,2.64,0,0,1,2.48-2.78h19.82a2.63,2.63,0,0,1,2.62,2.65A.76.76,0,0,1,346.35,186.63Z" transform="translate(-44.04 -37)"/><polygon class="cls-16" points="302.2 151.49 302.04 154.12 277.68 154.12 277.52 151.49 302.2 151.49"/><polygon class="cls-16" points="301.97 155.22 301.81 157.85 277.91 157.85 277.75 155.22 301.97 155.22"/><polygon class="cls-16" points="301.74 158.94 301.57 161.57 278.14 161.57 277.98 158.94 301.74 158.94"/><path class="cls-11" d="M318.75,160.91c10.69,7.74,15.15,19.84,15.15,19.84s-12.89-.44-23.58-8.18-15.15-19.83-15.15-19.83S308.06,153.18,318.75,160.91Z" transform="translate(-44.04 -37)"/><path class="cls-17" d="M295.17,152.74s13.38,7.42,17.67,13.57,21.06,14.44,21.06,14.44" transform="translate(-44.04 -37)"/><path class="cls-11" d="M325.65,145.33a26,26,0,0,1,8.25,10.8,23.49,23.49,0,0,1-21.06-15.25A25.88,25.88,0,0,1,325.65,145.33Z" transform="translate(-44.04 -37)"/><path class="cls-17" d="M312.84,140.88s7.27,4,9.61,7.39,11.46,7.86,11.46,7.86" transform="translate(-44.04 -37)"/><path class="cls-11" d="M342.35,155.79a35.94,35.94,0,0,0-8.1,17,35.92,35.92,0,0,0,16.11-9.66,35.94,35.94,0,0,0,8.1-17A35.86,35.86,0,0,0,342.35,155.79Z" transform="translate(-44.04 -37)"/><path class="cls-17" d="M358.46,146.13s-8.7,7.53-10.92,12.72-13.29,13.89-13.29,13.89" transform="translate(-44.04 -37)"/><path class="cls-18" d="M207.11,138.1v.67H187.32v-.54a7,7,0,0,0,1.53-.81,6.51,6.51,0,0,0,2.71-5.29,6.16,6.16,0,0,0-.2-1.6,6.52,6.52,0,0,0-3.59-4.32H207a6.53,6.53,0,0,0-3.6,4.32,6.15,6.15,0,0,0-.19,1.6,6.46,6.46,0,0,0,2.71,5.29A6.57,6.57,0,0,0,207.11,138.1Z" transform="translate(-44.04 -37)"/><path class="cls-3" d="M207,126.21a6.53,6.53,0,0,0-3.6,4.32h-12a6.52,6.52,0,0,0-3.59-4.32Z" transform="translate(-44.04 -37)"/><path class="cls-18" d="M164.65,122.8v3.76a3.59,3.59,0,0,0,3.39,3.76h58.24a3.59,3.59,0,0,0,3.4-3.76V122.8Z" transform="translate(-44.04 -37)"/><path class="cls-3" d="M207.11,138.1v.67H187.32v-.54a7,7,0,0,0,1.53-.81H205.9A6.57,6.57,0,0,0,207.11,138.1Z" transform="translate(-44.04 -37)"/><path class="cls-18" d="M181.77,137.62h30.89a1,1,0,0,1,1,1h0a1,1,0,0,1-1,1H181.77a1,1,0,0,1-1-1h0A1,1,0,0,1,181.77,137.62Z" transform="translate(-44.04 -37)"/><path class="cls-19" d="M229.68,81.63a3.4,3.4,0,0,0-3.39-3.4H168a3.39,3.39,0,0,0-3.39,3.39h0v41.9h65Z" transform="translate(-44.04 -37)"/><path class="cls-20" d="M227.9,83.14v36a1.67,1.67,0,0,1-1.66,1.68H168.1a1.67,1.67,0,0,1-1.67-1.67h0v-36a1.58,1.58,0,0,1,.22-.84,1.68,1.68,0,0,1,1.45-.83h58.13a1.67,1.67,0,0,1,1.67,1.67Z" transform="translate(-44.04 -37)"/><circle class="cls-6" cx="153.13" cy="42.85" r="0.78"/><circle class="cls-6" cx="153.13" cy="89.72" r="1.93"/><path class="cls-21" d="M227.9,83.14H166.43a1.67,1.67,0,0,1,1.67-1.67h58.13a1.67,1.67,0,0,1,1.67,1.67Z" transform="translate(-44.04 -37)"/><circle class="cls-22" cx="124.06" cy="45.3" r="0.42"/><circle class="cls-22" cx="125.31" cy="45.3" r="0.42"/><circle class="cls-22" cx="126.56" cy="45.3" r="0.42"/></svg>