<svg id="Layer_1" data-name="Layer 1" xmlns="http://www.w3.org/2000/svg" viewBox="0 0 333.99 278.03"><defs><style>.cls-1{fill:#feb8b8;}.cls-2{fill:#2f2e41;}.cls-3{fill:#f0f0f0;}.cls-4{opacity:0.1;isolation:isolate;}.cls-5{fill:#e6e6e6;}.cls-6{fill:#fff;}.cls-7{fill:#6c63ff;}</style></defs><title>what-10</title><g id="f1503154-f50a-4680-8aa4-587be41cac87"><path id="a9e5a31c-10e6-4175-9779-4994367672f7" class="cls-1" d="M321.86,272.53l-.58,7.71-11.76-3.86,4.82-5.78Z" transform="translate(-44 -10)"/><path id="f499a4aa-6a35-40fc-8432-e4c7ab26d048" class="cls-1" d="M364.65,270l-.58,7.52-6.56,1-3.85-3.66,4.43-7.13Z" transform="translate(-44 -10)"/><path id="fb70bf31-eafd-4d8a-8310-5130d8d104e1" class="cls-2" d="M369.47,174s5.2,6.17-1.35,15.61-14.46,18.7-14.46,18.7L339,236.1s-7.52,27.17-9.25,28-2.7-2.32-1.74,1,.39,3.08-.38,3.28-2.89-.2-2.12,1.15,1.35,1.35-.2,1.35-2.12-1-2.12.39a17.45,17.45,0,0,1-1.35,4.43s-9.44-2.7-9.83-3.85,2.51-1.74,1.93-2.89a4.32,4.32,0,0,1-.77-2.9,2.06,2.06,0,0,1,1.16-2.12s1-.38.57-1.15-1.92-.39,0-1.35,9.84-30.46,9.84-30.46,0-14.65,2.5-19.47.58-39.13,6.56-39.51S369.47,174,369.47,174Z" transform="translate(-44 -10)"/><path id="a89455c2-275d-4b70-b13c-192fbe474176" class="cls-2" d="M367.54,185l-1.16,29.88s5.79,28.92,3.86,37.78-.58,7.71-1.74,9.25-2.12.78-1.15,2.12,1.54,1.74,0,3.28-2.32,5.21-2.32,5.21l-9.83-1s2.51-4.43,1.54-5.39-3.47.57-1.54-1.54,3.09-1.16,1.93-2.12-2.89-.58-1.35-2.12,3.28-1.54,1.74-2.12-3.28,0-2.51-1.16,1.73-2.51,1.73-2.51l-2.31-17.54s-2.7-5.78-1.93-8.29-3.27-23.13-3.27-23.13Z" transform="translate(-44 -10)"/><path id="a3024be5-ad86-493a-9bfb-258ab58160a1" class="cls-2" d="M363.3,273.88s1.93-1.93,2.5-.78,4.82,11.57,2.32,12.34-6.17,1.54-8.1,1-6-3.27-10.79-3.27-8.87-2.12-8.87-2.89-.77-5.4,2.89-5.4,10.41-4.24,10.41-4.24,1.54-3.09,2.31-2.89.2,6.36.2,6.36S360.6,278.31,363.3,273.88Z" transform="translate(-44 -10)"/><path id="a57c92ce-496a-44de-934b-3ddd78679762" class="cls-2" d="M320.51,276.38s1.73-4.24,3.47-3.28.57,12.92.57,12.92-1.54,2.5-6,1.92-16.19-1.92-18.89-1.34-10-2.7-8.1-7.14c0,0,1-2.5,5.59-2.31s13.11-5.4,13.11-5.4,1.35-3.85,1.74-3.47.77,7.14.77,7.14S317.81,278.69,320.51,276.38Z" transform="translate(-44 -10)"/><circle id="fa315d33-3eeb-4d45-ab88-aeb0e9694c5a" class="cls-1" cx="301.76" cy="77.48" r="11.18"/><path id="fbae87ba-2986-46ef-9932-134b7e0cae24" class="cls-1" d="M354.43,88.25s6,12,8.1,13.11-14.46,8.29-14.46,8.29-2.7-11.76-6-14.27S354.43,88.25,354.43,88.25Z" transform="translate(-44 -10)"/><path id="fc15680c-e415-4000-ac02-b1f296562473" class="cls-1" d="M337.28,186l-.77,7.32s-8.29-2.89-5.59-8.29Z" transform="translate(-44 -10)"/><path id="ae3770ab-4aa4-41b9-9f4d-4c69df699916" class="cls-3" d="M334,175c5.78,6.17,36.43,1,36.43,1l-.38-4.43,3.85-4-1.15-18.9s3.46-8.86,4-22.35a11.45,11.45,0,0,0-.15-2.48c-2-12.09-21.67-19.88-22.21-19.69-.27.09-3.17,1.6-6.19,3.18L341.13,111c-4.62,1.73-3.85,29.49-5.4,32s0,11.17,0,11.17L334,162.46S328.22,168.83,334,175Z" transform="translate(-44 -10)"/><path id="b41fb511-fd5e-48e5-b733-0d9230f6b6d5" class="cls-4" d="M352.68,113.8s5.4,16.19,4.24,27.18-13.68,42.4-13.68,42.4L339,185.7v5.39L336,183l8.2-17.16S334,106.67,352.68,113.8Z" transform="translate(-44 -10)"/><path id="efbdbf49-3b58-4bc5-8391-5fbab31acdf7" class="cls-4" d="M347.62,108.94c5.59-3.08,14.07,5,22.94,13.69,3.18,3.11,5,2.8,6.08,1.12-2-12.09-21.67-19.88-22.21-19.69-.27.09-3.17,1.6-6.19,3.18Z" transform="translate(-44 -10)"/><path id="a2828270-d54b-4ede-bb2b-8639f55947f0" class="cls-3" d="M347.62,107.45l2.32-6.36s15.8-7.52,26.21,0l1.74,10.79s1.54,17.93-7.33,9.26S353.21,104.37,347.62,107.45Z" transform="translate(-44 -10)"/><path id="f68da632-d878-40c3-a103-67cfc5c970db" class="cls-3" d="M352.12,111.19s5.4,16.19,4.24,27.18-13.69,42.4-13.69,42.4l-4.24,2.32v5.4L329.57,186l1.92-6.36s-3.08-3.86-1-5,1.74-7.52,1.74-7.52S333.42,104.06,352.12,111.19Z" transform="translate(-44 -10)"/><path id="f57115f6-7f5b-4177-880b-f5eff1305e5b" class="cls-2" d="M355.72,92.16a9.23,9.23,0,0,0-.57-2.57,4.09,4.09,0,0,0-3.37-1.78c-1.68-.14-3.38.15-5.06,0a5.26,5.26,0,0,1-4.33-2.22,9.76,9.76,0,0,0-.95-1.78c-.92-1.06-2.61-.9-3.93-.44s-2.72,1.11-4.08.76c-1.14-3.2.27-6.89,2.7-9.25s5.71-3.64,9-4.59c4.3-1.25,9.13-2,13.08.11,5.73,3,7.75,11.12,7.23,17.14-.2,2.27-.53,4.85-2.37,6.38C360.35,96.2,356.54,96,355.72,92.16Z" transform="translate(-44 -10)"/><rect id="e1abf0e4-070b-4c82-8a12-ebedd4e3db02" class="cls-5" x="0.1" y="0.14" width="241.47" height="154.65"/><rect id="ace8bea0-82e8-49b8-a50c-1e1cb532084f" class="cls-6" x="7.8" y="19.53" width="227.66" height="126.1"/><rect id="b540f353-e277-4512-bc56-a133cea2858b" class="cls-7" width="241.47" height="10.26"/><circle id="b2b285b5-c1c3-4b12-9710-2898c7239781" class="cls-6" cx="7.62" cy="5.24" r="1.9"/><circle id="a5a428bb-42a2-4f57-9e6c-9979c01a2490" class="cls-6" cx="14.84" cy="5.24" r="1.9"/><circle id="a9929a25-14ce-4464-bac9-4165f1e3fae6" class="cls-6" cx="22.06" cy="5.24" r="1.9"/><path id="b4a2d72b-abc3-4d2f-a2b8-a2aff6897b26" class="cls-7" d="M91.63,47.21,76.57,62.08,91.63,77,95,73.56,83.63,62.17,95.11,50.69Z" transform="translate(-44 -10)"/><path id="b5120d89-6cbe-4bfa-9a1b-cf9b07deff91" class="cls-7" d="M104,47.21,119,62.08,104,77l-3.39-3.39L112,62.17,100.48,50.69Z" transform="translate(-44 -10)"/><path id="a31271bd-8e2f-469b-8cee-8b6db3f92f99" class="cls-5" d="M152.68,50.94c-1.23,0-2.23.71-2.23,1.58s1,1.59,2.23,1.59H257.81c1.23,0,2.23-.71,2.23-1.59s-1-1.58-2.23-1.58Z" transform="translate(-44 -10)"/><path id="bf577952-0fd5-43e0-be6b-ea1966b51a93" class="cls-5" d="M256.76,137.62H79.91c-1.81,0-3.28-1.05-3.28-2.33V104.07c0-1.28,1.47-2.33,3.28-2.33H256.76c1.81,0,3.28,1.05,3.28,2.33v31.22C260,136.57,258.57,137.61,256.76,137.62ZM79.91,102.67c-1.09,0-2,.63-2,1.4v31.22c0,.77.88,1.39,2,1.39H256.76c1.09,0,2-.62,2-1.39V104.07c0-.77-.88-1.4-2-1.4Z" transform="translate(-44 -10)"/><circle id="f7f4957b-eaa8-456b-bf02-bacf7de3ef80" class="cls-5" cx="54.12" cy="109.67" r="7.91"/><path id="fb0f055d-da6e-47f2-bb6d-7ff26d7b746a" class="cls-7" d="M120.44,113.34a1.58,1.58,0,1,0,0,3.16H195a1.58,1.58,0,0,0,0-3.16Z" transform="translate(-44 -10)"/><path id="bfcde504-8c45-4d21-843b-87b1f7e22ce0" class="cls-7" d="M120.44,122.83a1.58,1.58,0,1,0,0,3.16h32.1a1.58,1.58,0,1,0,0-3.16Z" transform="translate(-44 -10)"/><path id="a66699ea-75f1-4575-b6d5-52b0b1f8e30c" class="cls-5" d="M151.91,60.42a1.59,1.59,0,0,0,0,3.16h68.9a1.58,1.58,0,0,0,0-3.16Z" transform="translate(-44 -10)"/><path id="bbc4ca7b-25d4-4c7e-b3d4-0411f69bd48f" class="cls-5" d="M152.36,69.9a1.61,1.61,0,1,0,0,3.16h90.32a1.61,1.61,0,1,0,0-3.16Z" transform="translate(-44 -10)"/></g></svg>