<svg id="Layer_1" data-name="Layer 1" xmlns="http://www.w3.org/2000/svg" xmlns:xlink="http://www.w3.org/1999/xlink" viewBox="0 0 367.65 305.53"><defs><style>.cls-1{fill:none;}.cls-2{clip-path:url(#clip-path);}.cls-3{fill:url(#radial-gradient);}.cls-4{clip-path:url(#clip-path-2);}.cls-5{fill:#777bb3;}.cls-6{fill:#fff;}.cls-7{font-size:108px;fill:#d30909;font-family:Montserrat-Bold, Montserrat;font-weight:700;}.cls-8{fill:#53c1de;}</style><clipPath id="clip-path" transform="translate(-27.35 -13.51)"><path class="cls-1" d="M27.35,70.72c0,19.16,29.53,34.69,65.95,34.69h0c36.42,0,66-15.53,66-34.69h0c0-19.16-29.53-34.7-65.95-34.7h0c-36.42,0-65.95,15.54-65.95,34.7"/></clipPath><radialGradient id="radial-gradient" cx="0.67" cy="301.06" r="0.19" gradientTransform="matrix(453.82, 0, 0, -453.82, -235.32, 136675.45)" gradientUnits="userSpaceOnUse"><stop offset="0" stop-color="#aeb2d5"/><stop offset="0.3" stop-color="#aeb2d5"/><stop offset="0.75" stop-color="#484c89"/><stop offset="1" stop-color="#484c89"/></radialGradient><clipPath id="clip-path-2" transform="translate(-27.35 -13.51)"><rect class="cls-1" x="24.6" y="32.07" width="137.4" height="77.29"/></clipPath></defs><title>what-6</title><g id="g3438"><g id="g3440"><g class="cls-2"><g id="g3442"><g id="g3448"><g id="g3450"><path id="path3462" class="cls-3" d="M27.35,70.72c0,19.16,29.53,34.69,65.95,34.69h0c36.42,0,66-15.53,66-34.69h0c0-19.16-29.53-34.7-65.95-34.7h0c-36.42,0-65.95,15.54-65.95,34.7" transform="translate(-27.35 -13.51)"/></g></g></g></g></g><g id="g3464"><g class="cls-4"><g id="g3466"><g id="g3472"><path id="path3474" class="cls-5" d="M93.3,102.83c35,0,63.38-14.37,63.38-32.11S128.3,38.6,93.3,38.6,29.92,53,29.92,70.72,58.3,102.83,93.3,102.83" transform="translate(-27.35 -13.51)"/></g></g></g></g><g id="g3476"><g class="cls-4"><g id="g3478"><g id="g3484"><path id="path3486" d="M63.18,74.7c2.88,0,5-.53,6.39-1.58s2.27-2.83,2.76-5.33c.45-2.34.28-4-.52-4.85s-2.57-1.36-5.22-1.36H62L59.44,74.7Zm-15,16.16a.68.68,0,0,1-.55-.26.7.7,0,0,1-.16-.59l6.76-34.77a.72.72,0,0,1,.7-.58H69.46c4.58,0,8,1.24,10.12,3.7s2.82,5.91,2,10.23a16.14,16.14,0,0,1-1.75,4.87,16.42,16.42,0,0,1-3.22,4,14.14,14.14,0,0,1-5.31,3.18,24.09,24.09,0,0,1-7.29.94H58.1l-1.69,8.66a.71.71,0,0,1-.7.58Z" transform="translate(-27.35 -13.51)"/></g><g id="g3488"><path id="path3490" class="cls-6" d="M62.58,62.3h4c3.2,0,4.31.7,4.69,1.12.63.69.75,2.16.34,4.23-.45,2.33-1.29,4-2.49,4.91S65.9,74,63.18,74H60.31ZM69.46,54H54.89a1.42,1.42,0,0,0-1.4,1.15L46.73,89.87a1.46,1.46,0,0,0,.3,1.19,1.43,1.43,0,0,0,1.11.52h7.57a1.44,1.44,0,0,0,1.41-1.16l1.57-8.09H64a24.55,24.55,0,0,0,7.51-1A14.64,14.64,0,0,0,77.07,78a16.53,16.53,0,0,0,3.36-4.21,16.72,16.72,0,0,0,1.83-5.08c.89-4.56.17-8.21-2.14-10.84S74.25,54,69.46,54M58.57,75.42h4.61c3.05,0,5.33-.58,6.82-1.73s2.51-3.07,3-5.76.27-4.41-.69-5.47-2.87-1.6-5.75-1.6H61.4L58.57,75.42m10.89-20q6.57,0,9.59,3.45t1.81,9.63a15.34,15.34,0,0,1-1.68,4.65A15.18,15.18,0,0,1,76.1,77a13.29,13.29,0,0,1-5,3,23.3,23.3,0,0,1-7.07.9H57.51l-1.8,9.25H48.14l6.75-34.77H69.46" transform="translate(-27.35 -13.51)"/></g><g id="g3492"><path id="path3494" d="M98.93,81.62a.71.71,0,0,1-.71-.85l3-15.39c.29-1.46.22-2.51-.2-2.95-.25-.28-1-.73-3.24-.73H92.35L88.6,81a.73.73,0,0,1-.71.58H80.38a.72.72,0,0,1-.55-.26.71.71,0,0,1-.15-.59L86.43,46a.72.72,0,0,1,.71-.58h7.51a.71.71,0,0,1,.7.85l-1.63,8.39h5.83c4.44,0,7.45.78,9.2,2.39s2.34,4.27,1.66,7.81L107.26,81a.72.72,0,0,1-.7.58Z" transform="translate(-27.35 -13.51)"/></g><g id="g3496"><path id="path3498" class="cls-6" d="M94.65,44.7H87.14a1.44,1.44,0,0,0-1.41,1.16L79,80.63a1.44,1.44,0,0,0,.3,1.18,1.45,1.45,0,0,0,1.11.52h7.51a1.43,1.43,0,0,0,1.41-1.16l3.64-18.76h4.83c2.23,0,2.7.48,2.72.5s.31.82,0,2.34l-3,15.38a1.43,1.43,0,0,0,1.41,1.7h7.63a1.42,1.42,0,0,0,1.4-1.16L111.11,65c.74-3.8.1-6.65-1.88-8.47S104.17,54,99.55,54h-5l1.47-7.54a1.44,1.44,0,0,0-1.41-1.71m0,1.43-1.8,9.25h6.7c4.21,0,7.12.73,8.71,2.2s2.08,3.85,1.44,7.14L106.56,80.9H98.93l3-15.38c.34-1.75.22-2.95-.37-3.58s-1.85-1-3.77-1h-6L87.89,80.9H80.38l6.76-34.77h7.51" transform="translate(-27.35 -13.51)"/></g><g id="g3500"><path id="path3502" d="M122.29,74.7c2.88,0,5-.53,6.39-1.58s2.27-2.83,2.76-5.33c.46-2.34.28-4-.51-4.85s-2.57-1.36-5.22-1.36h-4.6L118.56,74.7Zm-15,16.16a.71.71,0,0,1-.55-.26.7.7,0,0,1-.15-.59l6.76-34.77a.71.71,0,0,1,.7-.58h14.56c4.58,0,8,1.24,10.13,3.7s2.82,5.91,2,10.23a15.84,15.84,0,0,1-5,8.91,14.1,14.1,0,0,1-5.3,3.18,24.09,24.09,0,0,1-7.29.94h-5.9l-1.68,8.66a.72.72,0,0,1-.7.58Z" transform="translate(-27.35 -13.51)"/></g><g id="g3504"><path id="path3506" class="cls-6" d="M121.7,62.3h4c3.2,0,4.31.7,4.69,1.12.62.69.74,2.16.34,4.23-.45,2.33-1.29,4-2.5,4.91S125,74,122.29,74h-2.87ZM128.57,54H114a1.44,1.44,0,0,0-1.41,1.15l-6.75,34.77a1.46,1.46,0,0,0,.3,1.19,1.41,1.41,0,0,0,1.1.52h7.58a1.43,1.43,0,0,0,1.4-1.16l1.57-8.09h5.31a24.59,24.59,0,0,0,7.51-1A14.71,14.71,0,0,0,136.19,78a17,17,0,0,0,3.36-4.21,17.27,17.27,0,0,0,1.83-5.08c.88-4.56.16-8.21-2.14-10.84S133.37,54,128.57,54M117.69,75.42h4.6c3.06,0,5.33-.58,6.83-1.73s2.5-3.07,3-5.76.28-4.41-.68-5.47-2.88-1.6-5.75-1.6h-5.19l-2.83,14.56m10.88-20q6.57,0,9.59,3.45T140,68.46a15.59,15.59,0,0,1-1.67,4.65A15.4,15.4,0,0,1,135.22,77a13.4,13.4,0,0,1-5.05,3,23.23,23.23,0,0,1-7.06.9h-6.49l-1.79,9.25h-7.58L114,55.38h14.56" transform="translate(-27.35 -13.51)"/></g></g></g></g></g><text class="cls-7" transform="translate(27.86 91.8)">X</text><image width="512" height="512" transform="translate(237.65 22.49) scale(0.19)" xlink:href="../../../../../../Projects/Web/blend-test/src/images/512px-HTML5_logo_and_wordmark.svg.png"/><text class="cls-7" transform="translate(244.86 106.8)">X</text><image width="1200" height="1693" transform="translate(31.65 175.49) scale(0.06)" xlink:href="../../../../../../Projects/Web/blend-test/src/images/CSS3_logo_and_wordmark.svg.png"/><text class="cls-7" transform="translate(27.86 260.8)">X</text><image width="250" height="250" transform="translate(274.65 196.49) scale(0.35)" xlink:href="../../../../../../Projects/Web/blend-test/src/images/angular.png"/><path class="cls-6" d="M172.12,176.68c0,7.17,7,13.85,18,17.63-2.21,11.09-.4,20,5.64,23.51,6.21,3.58,15.46,1.1,24.23-6.57,8.56,7.36,17.21,10.26,23.24,6.76,6.2-3.59,8.09-13.13,5.82-24.57,11.49-3.8,17.92-9.5,17.92-16.76,0-7-7-13.05-17.89-16.8,2.43-11.91.37-20.63-5.92-24.26-6.06-3.49-14.81-.45-23.49,7.11-9-8-17.69-10.47-24-6.83-6.06,3.51-7.78,12.61-5.57,23.9C179.49,163.52,172.12,169.71,172.12,176.68Z" transform="translate(-27.35 -13.51)"/><path class="cls-8" d="M246.8,163.6c-.89-.31-1.8-.59-2.71-.85.15-.62.29-1.24.42-1.85,2.05-10,.71-18-3.87-20.65-4.4-2.53-11.59.11-18.85,6.43-.72.63-1.41,1.27-2.1,1.93-.46-.44-.92-.87-1.39-1.29-7.61-6.76-15.24-9.61-19.82-7-4.39,2.55-5.69,10.1-3.84,19.54.18.94.39,1.87.62,2.79-1.08.31-2.12.64-3.12,1-8.92,3.11-14.62,8-14.62,13,0,5.23,6.12,10.46,15.41,13.64.75.26,1.51.49,2.28.71-.25,1-.47,2-.66,3-1.77,9.28-.39,16.65,4,19.18s12.12-.07,19.51-6.54c.58-.51,1.17-1.05,1.76-1.62.74.72,1.5,1.41,2.28,2.08,7.16,6.16,14.23,8.65,18.61,6.12s6-10.53,4.08-20.17q-.22-1.1-.51-2.25c.54-.16,1.06-.32,1.57-.49,9.66-3.2,15.94-8.37,15.94-13.67,0-5.07-5.88-10-15-13.11Z" transform="translate(-27.35 -13.51)"/><path class="cls-6" d="M244.71,187c-.46.16-.94.3-1.42.45A83.46,83.46,0,0,0,239,176.73a84.68,84.68,0,0,0,4.1-10.52c.86.25,1.7.52,2.5.79,7.8,2.69,12.56,6.66,12.56,9.71,0,3.26-5.14,7.49-13.48,10.25Zm-3.46,6.86a30.5,30.5,0,0,1,.4,11.12c-.5,2.71-1.51,4.51-2.76,5.23-2.65,1.54-8.33-.46-14.46-5.73-.7-.6-1.41-1.25-2.11-1.93a85.26,85.26,0,0,0,7.06-9,83.34,83.34,0,0,0,11.41-1.76c.17.7.33,1.38.46,2Zm-35,16.09c-2.6.92-4.66.94-5.91.22-2.66-1.53-3.76-7.45-2.26-15.39.18-.94.39-1.87.62-2.8a83.34,83.34,0,0,0,11.35,1.65,88.7,88.7,0,0,0,7.24,8.94c-.53.5-1.06,1-1.61,1.47a30.44,30.44,0,0,1-9.43,5.91Zm-12.16-23a30.23,30.23,0,0,1-9.82-5.22c-2.09-1.79-3.15-3.56-3.15-5,0-3.06,4.58-7,12.21-9.64.95-.33,1.92-.63,2.9-.91a85,85,0,0,0,4.1,10.64,88.78,88.78,0,0,0-4.16,10.8C195.48,187.4,194.78,187.18,194.09,186.94Zm4.08-27.73c-1.59-8.09-.53-14.2,2.11-15.73,2.82-1.63,9.06.7,15.63,6.53q.63.56,1.26,1.17a85.06,85.06,0,0,0-7.18,8.88,88.54,88.54,0,0,0-11.24,1.75c-.22-.86-.41-1.73-.58-2.6Zm36.35,9c-.83-1.43-1.68-2.83-2.57-4.22,2.69.34,5.27.79,7.69,1.34a76.07,76.07,0,0,1-2.7,7.26q-1.17-2.22-2.42-4.38Zm-14.83-14.44a77.59,77.59,0,0,1,5,6q-5-.22-10,0c1.64-2.16,3.32-4.16,5-6Zm-14.91,14.46c-.83,1.43-1.62,2.89-2.38,4.36-1.05-2.49-2-4.93-2.68-7.29,2.4-.54,5-1,7.64-1.32Q206,166.06,204.78,168.21Zm2.66,21.51a75.22,75.22,0,0,1-7.77-1.25c.74-2.4,1.66-4.9,2.73-7.44q1.14,2.22,2.39,4.36T207.44,189.72Zm12.35,10.22c-1.7-1.85-3.4-3.88-5.07-6.07,1.62.06,3.26.09,4.93.09s3.42,0,5.09-.11A77.06,77.06,0,0,1,219.79,199.94Zm17.18-19a75,75,0,0,1,2.83,7.42c-2.44.55-5.08,1-7.86,1.34.89-1.42,1.76-2.84,2.59-4.29s1.66-3,2.44-4.47Zm-5.56,2.67q-1.91,3.33-4,6.52c-2.5.18-5.08.27-7.72.27s-5.17-.08-7.63-.24q-2.18-3.18-4.11-6.53t-3.6-6.79c1.11-2.31,2.31-4.57,3.58-6.79h0c1.28-2.22,2.65-4.39,4.09-6.51,2.51-.19,5.08-.28,7.67-.28s5.19.1,7.69.29q2.15,3.17,4.06,6.48c1.28,2.21,2.5,4.47,3.63,6.76q-1.68,3.48-3.62,6.82Zm7.43-40.2c2.82,1.63,3.92,8.19,2.14,16.8-.11.56-.24,1.12-.37,1.67a88.92,88.92,0,0,0-11.27-1.78,87.58,87.58,0,0,0-7.12-8.89c.63-.6,1.27-1.2,1.93-1.77,6.22-5.42,12-7.55,14.69-6Z" transform="translate(-27.35 -13.51)"/><path class="cls-8" d="M219.65,169.19a7.53,7.53,0,1,1-7.52,7.52,7.53,7.53,0,0,1,7.52-7.52" transform="translate(-27.35 -13.51)"/><text class="cls-7" transform="translate(155.86 200.8)">X</text><text class="cls-7" transform="translate(279.86 276.8)">X</text></svg>