<svg id="Layer_1" data-name="Layer 1" xmlns="http://www.w3.org/2000/svg" viewBox="0 0 298.31 222.56"><defs><style>.cls-1{fill:none;stroke:#3f3d56;stroke-miterlimit:10;stroke-width:2px;}.cls-2{fill:#2f2e41;}.cls-3{fill:#f2f2f2;}.cls-4{fill:#3f3d56;}.cls-5{fill:#fff;}.cls-6{fill:#6c63ff;}.cls-7{fill:#ff6584;}</style></defs><title>what-9</title><line class="cls-1" x1="104.24" y1="68.24" x2="142.74" y2="68.24"/><ellipse class="cls-2" cx="109.29" cy="143.54" rx="10.56" ry="3.31" transform="translate(-117.81 160.38) rotate(-69.08)"/><path class="cls-3" d="M351.09,170.15c4.18,31.16-1.52,62.36-30.52,74.51a56.94,56.94,0,0,1-74.52-30.52c-12.15-29,16.51-46.36,30.52-74.51C305,82.45,338.08,73.36,351.09,170.15Z" transform="translate(-54 -34)"/><ellipse class="cls-4" cx="244.87" cy="212.37" rx="45.44" ry="6.18"/><rect class="cls-2" x="269.79" y="228.99" width="11.49" height="6.42" transform="translate(-105.91 47.81) rotate(-15.45)"/><ellipse class="cls-2" cx="268.48" cy="232.76" rx="2" ry="5.35" transform="translate(-106.31 45.95) rotate(-15.45)"/><ellipse class="cls-2" cx="300.82" cy="208.92" rx="10.56" ry="3.31" transform="translate(-0.61 444.96) rotate(-82.28)"/><circle class="cls-2" cx="244.76" cy="194.69" r="21.12"/><rect class="cls-2" x="269.79" y="225.25" width="11.49" height="6.42" transform="translate(-104.91 47.67) rotate(-15.45)"/><ellipse class="cls-2" cx="268.48" cy="229.02" rx="2" ry="5.35" transform="translate(-105.31 45.81) rotate(-15.45)"/><circle class="cls-5" cx="250.3" cy="182.59" r="7.22"/><circle class="cls-4" cx="252.61" cy="179.4" r="2.41"/><path class="cls-6" d="M323.14,243.2c7.82-.39,13.81-7.7,13.37-16.32S329.4,211.57,321.58,212s-9,6.52-8.61,15.15S315.33,243.59,323.14,243.2Z" transform="translate(-54 -34)"/><path class="cls-5" d="M290.13,219.76a4.82,4.82,0,0,1-.78-9.6c2.65-.21,3.37,1.89,3.59,4.54S292.77,219.54,290.13,219.76Z" transform="translate(-54 -34)"/><polyline class="cls-1" points="13.22 96.51 131.51 96.51 149.85 105.44 179.07 119.68 198.18 83.91 252.24 83.91"/><circle class="cls-6" cx="59.56" cy="100.25" r="3.66"/><circle class="cls-6" cx="93.71" cy="96.51" r="3.66"/><circle class="cls-6" cx="149.8" cy="105.45" r="3.66"/><circle class="cls-6" cx="228.66" cy="83.91" r="3.66"/><circle class="cls-6" cx="190.45" cy="98.14" r="3.66"/><circle class="cls-1" cx="114.3" cy="155.43" r="3.94"/><ellipse class="cls-4" cx="45.44" cy="216.38" rx="45.44" ry="6.18"/><circle class="cls-2" cx="42.99" cy="186.17" r="21.12"/><rect class="cls-2" x="33.36" y="202.75" width="6.42" height="11.49"/><rect class="cls-2" x="46.19" y="202.75" width="6.42" height="11.49"/><ellipse class="cls-2" cx="38.71" cy="214.38" rx="5.35" ry="2"/><ellipse class="cls-2" cx="51.54" cy="214.11" rx="5.35" ry="2"/><circle class="cls-5" cx="43.52" cy="180.83" r="7.22"/><circle class="cls-4" cx="43.52" cy="180.83" r="2.41"/><path class="cls-6" d="M76.5,200.53c-1.7-7.63,3.75-15.35,12.18-17.23s16.64,2.78,18.35,10.42-3.88,10.45-12.31,12.33S78.21,208.17,76.5,200.53Z" transform="translate(-54 -34)"/><circle class="cls-2" cx="35.77" cy="125.49" r="21.12"/><rect class="cls-2" x="26.15" y="142.07" width="6.42" height="11.49"/><rect class="cls-2" x="38.98" y="142.07" width="6.42" height="11.49"/><ellipse class="cls-2" cx="31.49" cy="153.69" rx="5.35" ry="2"/><ellipse class="cls-2" cx="44.32" cy="153.43" rx="5.35" ry="2"/><circle class="cls-5" cx="36.3" cy="120.14" r="7.22"/><circle class="cls-4" cx="36.3" cy="120.14" r="2.41"/><path class="cls-6" d="M69.28,139.85c-1.7-7.64,3.75-15.35,12.18-17.23S98.1,125.4,99.81,133s-3.88,10.45-12.31,12.33S71,147.49,69.28,139.85Z" transform="translate(-54 -34)"/><ellipse class="cls-2" cx="65.98" cy="149.69" rx="3.31" ry="10.56" transform="translate(-151.54 111.16) rotate(-64.63)"/><path class="cls-5" d="M79.4,167.11c0,2.07,5.32,6.15,11.22,6.15s11.45-5.82,11.45-7.89-5.54.4-11.45.4S79.4,165,79.4,167.11Z" transform="translate(-54 -34)"/><rect class="cls-6" x="223.34" y="150.96" width="33.72" height="17.15"/><rect class="cls-1" x="220.7" y="153.75" width="33.72" height="17.15"/><rect class="cls-7" x="60.58" y="53.2" width="9.62" height="9.62"/><rect class="cls-1" x="58.17" y="49.99" width="9.62" height="9.62"/><circle class="cls-2" cx="242.21" cy="50.65" r="21.12"/><rect class="cls-2" x="303.29" y="99.72" width="6.42" height="11.49" transform="translate(-67.89 22.28) rotate(-10.26)"/><rect class="cls-2" x="290.66" y="102.01" width="6.42" height="11.49" transform="translate(-68.5 20.07) rotate(-10.26)"/><ellipse class="cls-2" cx="293.79" cy="114.83" rx="5.35" ry="2" transform="translate(-58.62 183.07) rotate(-40.26)"/><ellipse class="cls-2" cx="306.16" cy="112.6" rx="5.35" ry="2" transform="translate(-54.24 190.53) rotate(-40.26)"/><circle class="cls-5" cx="240.73" cy="45.48" r="7.22"/><circle class="cls-4" cx="237.76" cy="42.9" r="2.41"/><path class="cls-6" d="M312.87,61.68c.32-7.82-6.42-14.45-15.05-14.8s-15.89,5.71-16.2,13.53,5.68,9.59,14.31,9.94S312.55,69.49,312.87,61.68Z" transform="translate(-54 -34)"/><ellipse class="cls-2" cx="276.71" cy="80.8" rx="3.31" ry="10.56" transform="translate(82.13 298.46) rotate(-77.09)"/><ellipse class="cls-2" cx="318.16" cy="87.7" rx="3.31" ry="10.56" transform="translate(107.6 344.22) rotate(-77.09)"/><path class="cls-5" d="M302,93a4.81,4.81,0,0,1-9.47,1.72c-.47-2.62,1.55-3.54,4.16-4S301.54,90.36,302,93Z" transform="translate(-54 -34)"/><line class="cls-1" x1="190.5" y1="26.47" x2="214.82" y2="45.18"/><circle class="cls-7" cx="179" cy="18.18" r="18.18"/><ellipse class="cls-2" cx="292.9" cy="213.94" rx="10.56" ry="3.31" transform="translate(-12.44 441.45) rotate(-82.28)"/><circle class="cls-6" cx="18.39" cy="210.12" r="3.66"/><rect class="cls-7" x="68.6" y="205.84" width="9.62" height="9.62"/><circle class="cls-6" cx="68.65" cy="212.26" r="3.66"/><circle class="cls-6" cx="123.49" cy="68.17" r="3.66"/><circle class="cls-7" cx="194.54" cy="181.58" r="1.75"/><line class="cls-1" x1="203.1" y1="210.58" x2="203.1" y2="190.69"/><circle class="cls-4" cx="203.1" cy="190.69" r="2.81"/><path class="cls-4" d="M257.1,237s-.41-8.65-8.64-7.64" transform="translate(-54 -34)"/></svg>