<svg id="Layer_1" data-name="Layer 1" xmlns="http://www.w3.org/2000/svg" xmlns:xlink="http://www.w3.org/1999/xlink" viewBox="0 0 281.33 264.99"><defs><style>.cls-1,.cls-10,.cls-17,.cls-2{fill:#6c63ff;}.cls-1,.cls-24,.cls-31,.cls-32,.cls-7{opacity:0.1;}.cls-1,.cls-10,.cls-15,.cls-17,.cls-18,.cls-19,.cls-21,.cls-22,.cls-23,.cls-27,.cls-31,.cls-32,.cls-7{isolation:isolate;}.cls-3{fill:#444053;}.cls-23,.cls-28,.cls-4,.cls-5{fill:none;stroke-miterlimit:10;}.cls-4,.cls-5{stroke:#444053;}.cls-5{stroke-width:0.75px;}.cls-6{fill:#504f60;}.cls-8{fill:#fff;}.cls-19,.cls-9{fill:#3f3d56;}.cls-10{opacity:0.05;}.cls-11{fill:url(#linear-gradient);}.cls-12{fill:#2f2e41;}.cls-13,.cls-15{opacity:0.08;}.cls-14,.cls-18{fill:#fbbebe;}.cls-16{fill:#464353;}.cls-17,.cls-18,.cls-19,.cls-21,.cls-22{opacity:0.9;}.cls-20{fill:#f86d70;}.cls-21{fill:#a1616a;}.cls-22{fill:#fdd8d8;}.cls-23{stroke:#2f2e41;stroke-width:0.25px;}.cls-23,.cls-27{opacity:0.2;}.cls-25{fill:#ffd037;}.cls-26{fill:#a8a8a8;}.cls-28{stroke:#535461;stroke-width:2px;}.cls-29{opacity:0.75;}.cls-30{fill:url(#linear-gradient-2);}.cls-31{fill:url(#radial-gradient);}.cls-32{fill:url(#radial-gradient-2);}</style><linearGradient id="linear-gradient" x1="321.66" y1="-24.85" x2="321.66" y2="202.48" gradientTransform="matrix(1, 0, 0, -1, -169.54, 257.5)" gradientUnits="userSpaceOnUse"><stop offset="0" stop-color="gray" stop-opacity="0.25"/><stop offset="0.54" stop-color="gray" stop-opacity="0.12"/><stop offset="1" stop-color="gray" stop-opacity="0.1"/></linearGradient><linearGradient id="linear-gradient-2" x1="381.29" y1="107.61" x2="381.29" y2="174.59" xlink:href="#linear-gradient"/><radialGradient id="radial-gradient" cx="385.99" cy="160.37" r="3.31" gradientTransform="matrix(1, 0, 0, -1, -169.54, 257.5)" gradientUnits="userSpaceOnUse"><stop offset="0" stop-color="#fff"/><stop offset="1"/></radialGradient><radialGradient id="radial-gradient-2" cx="2155.09" cy="160.37" r="3.31" gradientTransform="translate(2361.46 257.5) rotate(180)" xlink:href="#radial-gradient"/></defs><title>why-5</title><path class="cls-1" d="M153.86,31.69c9.54-8.49,24.53-10.23,38.16-9.56,42.84,2.13,81.5,22.81,115,46.2,12.11,8.47,24,17.59,31.89,29.26,16,23.73,11.25,56.61-11,76.17-7.57,6.65-16.75,11.76-26.17,16.28-16.75,8-34.82,14.49-53.83,16.33-13.55,1.31-27.28.25-40.75-1.58-37.67-5.11-74.63-16.4-105.61-35.72-13.59-8.48-26.39-19-32-32.72s-2-31.08,11.85-39.19c5.74-3.36,12.6-4.87,19.32-6.29,9.89-2.1,19.93-4.16,28.85-8.42,9.22-4.4,20.13-12.91,18.3-22.64C145.89,49.36,144.33,40.19,153.86,31.69Z" transform="translate(-66.99 -22)"/><path class="cls-2" d="M287.57,98.85s-3.46-1.4-14.46,3.64-12.37,4.4-15.21,3.65-4.44-1-7.49-5.17c0,0-2.15-11.67-4.25-13.48s-10.93,1-10.93,1S224.61,91,222.59,76.76c0,0,1.43-10.69-.52-14,0,0,4,1.7,10.46-1s11.72,3,11.72,3,1.63,4.25,1.47,6.78.87,3.49,4,2.27c0,0,1.53-2.17-.63-5.76s-3.71-6.26-3.1-9,2.33-6.65,7.9-8.58,13.14-2.29,16.77-3.82,4.52-2.5,4.52-2.5-2.23,2.24,3,11.73,1.91,13.61,1.91,13.61-2.8,6.68-15.16,6.14c0,0-11.92.43-5.42,5.48,0,0,4.16-.84,10.38-2.82s10.7,6.18,11.82,11.86A14.94,14.94,0,0,0,287.57,98.85Z" transform="translate(-66.99 -22)"/><path class="cls-3" d="M271.56,51.24l.06,0c.48,1.81-4.84,9.09-9.4,14.88l-.05,0C268.59,57.91,271.93,52.64,271.56,51.24Z" transform="translate(-66.99 -22)"/><path class="cls-3" d="M262.26,66l0,.07c-3.63,4.62-8.21,10.13-11.86,14.22-.35.39-.7.8-1,1.22l-.11-.09c.33-.42.68-.83,1-1.22C254,76.08,258.62,70.57,262.26,66Z" transform="translate(-66.99 -22)"/><path class="cls-3" d="M249.38,81.27l.07.12c-6.66,8.32-7.1,21.24-7.12,21.34l-1.4-1.63C241,101,242.67,89.64,249.38,81.27Z" transform="translate(-66.99 -22)"/><path class="cls-4" d="M279.86,94.34s-7.84-4.08-14-2.61S246,86.53,246,86.53s-5.84-2.37-7-5.08c0,0-4-4.25-4.25-6.44s-4.13-7.72-6.68-7.93" transform="translate(-66.99 -22)"/><path class="cls-4" d="M278.71,98.27s-4-2.66-3.49-5.77" transform="translate(-66.99 -22)"/><path class="cls-4" d="M272.64,101.71s-5.65-2-6.2-10.1" transform="translate(-66.99 -22)"/><path class="cls-4" d="M263.52,103.8a12.68,12.68,0,0,1-3.61-12.32" transform="translate(-66.99 -22)"/><path class="cls-4" d="M252.55,101.61s-3.6-7.55-.4-12.46" transform="translate(-66.99 -22)"/><path class="cls-4" d="M279.94,89.36s-4.09,1.31-3.21,3.45" transform="translate(-66.99 -22)"/><path class="cls-4" d="M275,82s-5.47,1.73-5.6,9.47" transform="translate(-66.99 -22)"/><path class="cls-4" d="M267.37,80.15s-5,6.15-4.62,11.74" transform="translate(-66.99 -22)"/><path class="cls-4" d="M258.65,82.56s-4.95,4.74-4.32,7.37" transform="translate(-66.99 -22)"/><path class="cls-4" d="M255.66,80.89s-4.64.83-5.29-.69" transform="translate(-66.99 -22)"/><path class="cls-4" d="M249.63,75.29s2.35,3.11,3,2.41" transform="translate(-66.99 -22)"/><path class="cls-4" d="M272.87,73.33s-11.69.85-14.34-2.68" transform="translate(-66.99 -22)"/><path class="cls-4" d="M247.19,59.65s5.48,11.78,9.47,13.28" transform="translate(-66.99 -22)"/><path class="cls-4" d="M252.93,54s3.37,10.83,7.55,14.22" transform="translate(-66.99 -22)"/><path class="cls-5" d="M277.79,64.39s-8.89,3.81-14.23,0" transform="translate(-66.99 -22)"/><path class="cls-5" d="M260.85,51.73s2,8,4.77,9.89" transform="translate(-66.99 -22)"/><path class="cls-5" d="M276.45,55.46s-5,1.9-6.86.45" transform="translate(-66.99 -22)"/><path class="cls-4" d="M245.35,77.9s0,6.94-1.89,7.43" transform="translate(-66.99 -22)"/><path class="cls-4" d="M229.9,86.89s7.51.65,11-3.23" transform="translate(-66.99 -22)"/><path class="cls-4" d="M243.42,69.69s-1.82,7-6.83,8.94" transform="translate(-66.99 -22)"/><path class="cls-4" d="M225.4,79.47a9.82,9.82,0,0,0,9.88-2.85" transform="translate(-66.99 -22)"/><path class="cls-4" d="M237.51,63.64s-.5,6-3.76,8.78" transform="translate(-66.99 -22)"/><path class="cls-4" d="M225.6,70.36S230,70.39,231,69" transform="translate(-66.99 -22)"/><ellipse class="cls-1" cx="138.7" cy="241.14" rx="122.86" ry="23.85"/><polygon class="cls-6" points="146.08 142.15 146.04 143.42 143.83 221.35 140.12 221.35 141.94 143.42 141.97 141.95 146.08 142.15"/><polygon class="cls-7" points="146.08 142.15 146.04 143.42 143.83 221.35 140.12 221.35 141.94 143.42 141.97 141.95 146.08 142.15"/><polygon class="cls-6" points="167.57 208.17 164.79 208.16 123.47 208.07 121.27 208.07 122.44 204.46 167.28 204.46 167.57 208.17"/><polygon class="cls-7" points="146.08 142.15 146.04 143.42 141.94 143.42 141.97 141.95 146.08 142.15"/><rect class="cls-6" x="140.76" y="140.24" width="6.88" height="2.59"/><polygon class="cls-7" points="123.84 204.46 123.47 208.07 121.27 208.07 122.44 204.46 123.84 204.46"/><polygon class="cls-6" points="129.77 140.19 129.66 141.31 120.49 231.71 116.29 231.51 125.95 141.31 126.06 140.29 129.77 140.19"/><polygon class="cls-7" points="167.57 208.17 164.79 208.16 164.41 204.46 167.28 204.46 167.57 208.17"/><polygon class="cls-6" points="171.96 231.51 167.76 231.71 158.6 141.31 158.48 140.19 162.19 140.29 162.3 141.31 171.96 231.51"/><rect class="cls-8" x="97.25" y="51.07" width="92.59" height="88.78"/><rect class="cls-8" x="97.25" y="51.07" width="92.59" height="88.78"/><path class="cls-6" d="M212.34,43.38V64.82h-3.61V43.38a1.81,1.81,0,1,1,3.61-.15Z" transform="translate(-66.99 -22)"/><rect class="cls-7" x="141.73" y="40.86" width="3.61" height="1.95"/><path class="cls-6" d="M213.76,64.33v7.08h-6.44V64.33a.88.88,0,0,1,.88-.88h4.68A.88.88,0,0,1,213.76,64.33Z" transform="translate(-66.99 -22)"/><circle class="cls-7" cx="143.54" cy="45.94" r="1.37"/><circle class="cls-9" cx="143.54" cy="45.65" r="1.37"/><rect class="cls-7" x="140.32" y="48.53" width="6.45" height="0.88"/><rect class="cls-7" x="137.68" y="49.7" width="11.72" height="1.95"/><rect class="cls-6" x="137.68" y="49.12" width="11.72" height="1.95"/><path class="cls-7" d="M186.83,159.56h49.22a2.13,2.13,0,0,1,2.13,2.12v.47H184.7v-.47A2.12,2.12,0,0,1,186.83,159.56Z" transform="translate(-66.99 -22)"/><polygon class="cls-7" points="126.06 140.29 129.77 140.19 129.66 141.31 125.95 141.31 126.06 140.29"/><rect class="cls-7" x="140.76" y="140.24" width="6.88" height="1.08"/><polygon class="cls-7" points="162.3 141.31 158.6 141.31 158.48 140.19 162.19 140.29 162.3 141.31"/><path class="cls-6" d="M186.83,160.14h49.22a2.13,2.13,0,0,1,2.13,2.12v.47H184.7v-.47A2.12,2.12,0,0,1,186.83,160.14Z" transform="translate(-66.99 -22)"/><path class="cls-10" d="M193.78,82.33c2.87-3.63,7.36-4.36,11.46-4.08,12.87.91,24.49,9.72,34.53,19.68,3.64,3.59,7.22,7.48,9.58,12.45,4.81,10.11,3.38,24.11-3.3,32.43a35.14,35.14,0,0,1-7.86,6.93c-5,3.43-10.46,6.17-16.17,7a37.72,37.72,0,0,1-12.25-.68,66.31,66.31,0,0,1-31.71-15.21c-4.09-3.59-7.93-8.09-9.62-13.92s-.6-13.24,3.56-16.69a15.92,15.92,0,0,1,5.81-2.68,30.18,30.18,0,0,0,8.67-3.6c2.76-1.87,6-5.49,5.49-9.64C191.38,89.85,190.91,85.94,193.78,82.33Z" transform="translate(-66.99 -22)"/><path class="cls-11" d="M191,125.33l-26.73,7.09-1,3.23a12.49,12.49,0,0,1-3.34-.83c-.52-.22-2.29-1.31-3.76-1.91a4.78,4.78,0,0,1,.59-2.22c1.38-2.44,3.36-4.77,3.29-7.54a20,20,0,0,0-.47-2.94,28,28,0,0,1-.27-5.34c0-.93,0-1.86,0-2.79l.47.16c.24.07.45.14.65.22v.05a1.84,1.84,0,0,0-.06.47c2.47,1,2.29,1.88,2.29,1.88l.23,0a6,6,0,0,0-.28-3.92l-.13,0a4.66,4.66,0,0,0-2.37-2.34l-.74-.39.06-6.06a6.39,6.39,0,0,0-.18-2,9,9,0,0,0-1.05-2c-.39-.65-.75-1.3-1.16-2a9.66,9.66,0,0,1,1.19-1l.74-.52.38-.25c.37-.26.75-.52,1.1-.8a7.66,7.66,0,0,0,1-.93,4.75,4.75,0,0,0,.41-.56l.06-.1a5.3,5.3,0,0,0,.33-.57,1.17,1.17,0,0,1,0-.11c.09-.21.17-.42.24-.64h0c.07-.22.13-.44.18-.67,0,0,0,0,0-.08,0-.23.08-.46.11-.69v-.08a12.51,12.51,0,0,0,0-2.29h0c0-.38-.08-.77-.15-1.14-.38-2.4-1.16-4.77-1-7.19,0-.1,0-.21,0-.31h0a24,24,0,0,1,1.16-4.61c0-.13.09-.25.12-.38l.06-.18c.06-.19.11-.39.17-.58v0a10.34,10.34,0,0,0,.48-4.38h0a7,7,0,0,0-.21-.93c-.64-2-2.29-3.51-3.92-4.86a34.69,34.69,0,0,0-9.5-6.07,16.61,16.61,0,0,0-9.73-.81c-3.3.73-6.53.54-9.77,1.91A4.6,4.6,0,0,0,128,59.51a7.76,7.76,0,0,0-.28,2.16,7.49,7.49,0,0,1-2.12,4.6c-.88.88-2,1.54-2.83,2.45a6.11,6.11,0,0,0-1.54,2.94h0a5.38,5.38,0,0,0-.1,1.65h0a2.2,2.2,0,0,0,.06.37v0c0,.11,0,.23.08.34v.06c0,.11.07.22.11.33l0,.06c.06.13.11.26.18.39.32.63.77,1.18,1.11,1.8a4.66,4.66,0,0,1,.22.45,7.88,7.88,0,0,1,.55,2c.05.32.09.67.12,1,0,.17,0,.32,0,.5a35.54,35.54,0,0,1-.2,7.07c-.07.58-.15,1.16-.21,1.75h0a2.66,2.66,0,0,1,0,.28,3.7,3.7,0,0,0-2.08,1.91,7.25,7.25,0,0,0-.3,2.37,6.18,6.18,0,0,1-1,3.39,2.72,2.72,0,0,0-1.39,2.22,13,13,0,0,0-.17,2.25c0,.94,0,1.9.1,2.86h0l-.18.36a.07.07,0,0,1,0,.06c0,.11-.09.22-.13.33s0,0,0,.06-.09.26-.13.39h0c0,.12-.07.25-.11.38l0,.08c0,.12,0,.23-.08.33v0c0,.13,0,.25-.07.37v.07a2.51,2.51,0,0,1,0,.27v.08c0,.11,0,.21,0,.3a1.4,1.4,0,0,1,0,.23,4.9,4.9,0,0,1-.27,1.61,4.32,4.32,0,0,1-.36.67l-.12.23a3.69,3.69,0,0,0-.33,1,4.81,4.81,0,0,0-.07.53c0,.36,0,.73,0,1.1v1.65a12.16,12.16,0,0,1-.15,1.23l-.12.61c0,.2-.09.4-.14.61-.18.83-.36,1.67-.55,2.51s-.37,1.67-.56,2.51c-.39,1.67-.79,3.34-1.22,5a10.78,10.78,0,0,0-.28,1.28,3.87,3.87,0,0,0,0,1.27,2.54,2.54,0,0,0,.25.81,2.88,2.88,0,0,0,.22.38,2.14,2.14,0,0,1,.2.4,6,6,0,0,1,.18,1.81,2.36,2.36,0,0,0,.11.59,1.92,1.92,0,0,0,1.64,1.22h.27l.26.6a4,4,0,0,0,1.07,1.68,2.85,2.85,0,0,0,2.34.41,7.93,7.93,0,0,0,2.23-1c1.69-.94,3.39-1.88,5-2.86a3.43,3.43,0,0,1,.77,1.14,1,1,0,0,1,.05.38,2.14,2.14,0,0,1-.23.73c-.41.87-.81,1.74-1.21,2.61-2.82,6-2.16,13.1-1.57,19.72.26,2.8.69,5.58.92,8.38.59,6.95,0,14,.8,20.89.44,3.73,1.28,7.4,1.86,11.11a79.5,79.5,0,0,1,.9,10.22l1-.26.35-.08.72-.15.66-.11h0a22.35,22.35,0,0,1,4.48-.18l.59,0c.06.46.11.91.16,1.33a3.11,3.11,0,0,0,0,.33,59.4,59.4,0,0,0,.78,5.95,4.54,4.54,0,0,1,.12,1.64,4.66,4.66,0,0,1-1.44,2.28,36.55,36.55,0,0,0-5,5.71,28.36,28.36,0,0,0-3.06,8.44A129.67,129.67,0,0,0,126,247.17a2.75,2.75,0,0,0,0,.81l0,.05a19.75,19.75,0,0,0-2.23,3.71,9.76,9.76,0,0,0-.32,2.8l-.09,4.9c-.07,3.55-.13,7.17.94,10.57a8.54,8.54,0,0,0,1.71,3.23,4.51,4.51,0,0,0,3.27,1.55,6.05,6.05,0,0,0,1.52-.26l.25-.08a4.39,4.39,0,0,0,.11,2.19,1.5,1.5,0,0,0,.39.68,1.64,1.64,0,0,0,.57.33c3.2,1.24,6.86.16,10.24.75,3.93.69,7.26,3.6,11.24,3.92a3.4,3.4,0,0,0,2.43-.52,2.61,2.61,0,0,0,.63-2.93,3.43,3.43,0,0,0-2.69-2,12.68,12.68,0,0,1-8.92-5.75,16,16,0,0,1-2.06-8.88,48,48,0,0,1,1.48-9.11q2.07-9,4.15-18.07a64.33,64.33,0,0,0,1.3-6.89c.14-1.18.21-2.37.25-3.57l.3-.53a24.08,24.08,0,0,0,2.74-6.8,28.23,28.23,0,0,0,.33-3.89V213c0-.45,0-.9.05-1.34a1.83,1.83,0,0,0,.33,0c3.77-.39,7-3.61,10.76-3.29.33.27.57-.24.76-.61,1.94-3.64,1.06-8,.3-12.07a154.44,154.44,0,0,1-2.59-33.11c.14-4.79.45-9.81-.46-14.45L187.35,140Zm-12.69,6.2c0,.39-.49.71-1.18.83a5.08,5.08,0,0,1,0-.87,1.1,1.1,0,0,0-.33-.82c.83.07,1.47.43,1.47.86Zm-2.67-.77a1.19,1.19,0,0,0-.25.73,1.19,1.19,0,0,1,0,.53,1.23,1.23,0,0,0,0,.2c-.42-.16-.7-.41-.7-.69S175.06,130.91,175.63,130.76Zm-51.79-8.1,0,.16h-.3Zm9.25,146.78a37.7,37.7,0,0,1-.51-8c0-2.22,0-4.43,0-6.64a17.42,17.42,0,0,1,.18-2.7c.09-.47.21-.94.31-1.41a16.91,16.91,0,0,1,1.32-2.62v0c-.2,3.9-.92,7.93-.22,11.75A16.76,16.76,0,0,1,133.09,269.44Zm27.21-127.8c-.08-.14-.17-.28-.26-.42l1.49.43-.44,1.51A16.92,16.92,0,0,0,160.3,141.64Z" transform="translate(-66.99 -22)"/><path class="cls-12" d="M130.77,58.16a4.45,4.45,0,0,0-2.58,2.18,7.61,7.61,0,0,0-.27,2.14,7.43,7.43,0,0,1-2.07,4.57c-.85.89-1.92,1.55-2.75,2.44A5.71,5.71,0,0,0,122,75.68c.31.62.76,1.18,1.09,1.79a9.82,9.82,0,0,1,.91,3.9,36.79,36.79,0,0,1-.19,7,12.8,12.8,0,0,0-.11,4.49A9.93,9.93,0,0,0,125,95.82a22,22,0,0,0,5.94,6.61,18,18,0,0,0,8.7,2.79,46.62,46.62,0,0,0,9.21-.43c2.28-.27,5-.85,5.93-2.94.55-1.17.41-2.57.92-3.75.91-2.15,3.56-2.95,5-4.72s1.61-4.54,1.23-6.92-1.13-4.75-.95-7.17c.28-3.87,2.94-7.65,1.77-11.35-.62-2-2.23-3.49-3.82-4.85a33.85,33.85,0,0,0-9.25-6,15.87,15.87,0,0,0-9.48-.81C137.07,57,133.91,56.8,130.77,58.16Z" transform="translate(-66.99 -22)"/><g class="cls-13"><path d="M124,82.87a35.15,35.15,0,0,0-.07-3.7,9.49,9.49,0,0,0-.91-3.9c-.32-.61-.77-1.16-1.08-1.79a4.74,4.74,0,0,1-.36-1,5.06,5.06,0,0,0,.36,3.25c.31.62.75,1.18,1.08,1.79a9.49,9.49,0,0,1,.91,3.9A14.86,14.86,0,0,1,124,82.87Z" transform="translate(-66.99 -22)"/><path d="M161.06,77.09a10,10,0,0,0,0,1.9c.36-3.44,2.44-6.81,1.94-10.13C162.68,71.57,161.25,74.31,161.06,77.09Z" transform="translate(-66.99 -22)"/><path d="M160.78,91.18c-1.48,1.79-4.13,2.58-5,4.71-.51,1.19-.37,2.59-.92,3.76-1,2.09-3.64,2.67-5.93,2.94a46.58,46.58,0,0,1-9.21.43,18.11,18.11,0,0,1-8.7-2.79A22,22,0,0,1,125,93.62a9.93,9.93,0,0,1-1.39-2.92,4.86,4.86,0,0,1-.1-.55,8.19,8.19,0,0,0,.1,2.75A9.81,9.81,0,0,0,125,95.82a21.93,21.93,0,0,0,5.94,6.62,18,18,0,0,0,8.7,2.78,45.86,45.86,0,0,0,9.21-.42c2.28-.28,5-.85,5.93-2.94.55-1.18.41-2.57.92-3.76.91-2.14,3.56-2.94,5-4.72a7.79,7.79,0,0,0,1.37-5.77A6.56,6.56,0,0,1,160.78,91.18Z" transform="translate(-66.99 -22)"/></g><path class="cls-14" d="M153.6,106.22a6.8,6.8,0,0,1-4.71,2.08,11.71,11.71,0,0,1-5.12-1.07,18.92,18.92,0,0,1-11.14-14.72,3.27,3.27,0,0,1,.06-1.46c.48-1.34,2.24-1.55,3.42-2.34a5.2,5.2,0,0,0,2-3.23c.08-.35.15-.69.2-1,.14-.93.21-1.88.37-2.8a3.13,3.13,0,0,1,.45-1.26,2.9,2.9,0,0,1,1.19-.86c2.76-1.2,6.36-.65,9.1.39.92.35.75.45.4,1.35a18.17,18.17,0,0,0-.59,1.76l-.14.5a19.6,19.6,0,0,0-.6,4.7,7.65,7.65,0,0,0,1,4.19c1.27,1.93,3.84,2.74,5,4.74a6.81,6.81,0,0,1,.75,2.57A8.27,8.27,0,0,1,153.6,106.22Z" transform="translate(-66.99 -22)"/><path class="cls-14" d="M124,251.82a10.1,10.1,0,0,0-.33,2.79l-.09,4.9c-.06,3.54-.12,7.14.92,10.52a8.55,8.55,0,0,0,1.67,3.22,4.39,4.39,0,0,0,3.19,1.55,5.37,5.37,0,0,0,1.49-.27,3.73,3.73,0,0,0,2.26-1.43c.63-1,.28-2.36,0-3.55a37.61,37.61,0,0,1-.52-8.08l.06-6.61a16.14,16.14,0,0,1,.17-2.69,18.86,18.86,0,0,0,.4-2.12,1.9,1.9,0,0,0-1.58-2.29,24.53,24.53,0,0,0-2.58-.29,3.64,3.64,0,0,1-1.11-.33c-.21-.1-.65-.57-.87-.56-.42,0-.7,1.16-.94,1.57A19.06,19.06,0,0,0,124,251.82Z" transform="translate(-66.99 -22)"/><path class="cls-14" d="M151.09,206.4c-2.32,6.94-.74,14.61-1.59,21.92a64.65,64.65,0,0,1-1.28,6.86l-4,18a48.37,48.37,0,0,0-1.44,9.08,16.24,16.24,0,0,0,2,8.84,12.35,12.35,0,0,0,8.69,5.73,3.32,3.32,0,0,1,2.61,2,2.38,2.38,0,0,1,.15.52,2.54,2.54,0,0,1-.76,2.4,3.33,3.33,0,0,1-2.37.52c-3.89-.33-7.12-3.23-11-3.92-3.3-.59-6.86.49-10-.75a1.47,1.47,0,0,1-.55-.33,1.41,1.41,0,0,1-.38-.67c-.74-2.29.77-4.6,1.76-6.78a17,17,0,0,0,1.26-10c-.68-3.81,0-7.83.22-11.7a71.25,71.25,0,0,1,1.47-10.68,36.07,36.07,0,0,1,1.85-7c.58-1.3,1.33-2.55,1.93-3.85a35.84,35.84,0,0,0,2.23-7.62c1.1-5.23,2.18-10.5,2.18-15.84a16.52,16.52,0,0,1,6,1.13A1.68,1.68,0,0,1,151.09,206.4Z" transform="translate(-66.99 -22)"/><path class="cls-15" d="M151.09,206.4c-2.32,6.94-.74,14.61-1.59,21.92a64.65,64.65,0,0,1-1.28,6.86l-4,18a48.37,48.37,0,0,0-1.44,9.08,16.24,16.24,0,0,0,2,8.84,12.35,12.35,0,0,0,8.69,5.73,3.32,3.32,0,0,1,2.61,2,2.38,2.38,0,0,1,.15.52,2.54,2.54,0,0,1-.76,2.4,3.33,3.33,0,0,1-2.37.52c-3.89-.33-7.12-3.23-11-3.92-3.3-.59-6.86.49-10-.75a1.47,1.47,0,0,1-.55-.33,1.41,1.41,0,0,1-.38-.67c-.74-2.29.77-4.6,1.76-6.78a17,17,0,0,0,1.26-10c-.68-3.81,0-7.83.22-11.7a71.25,71.25,0,0,1,1.47-10.68,36.07,36.07,0,0,1,1.85-7c.58-1.3,1.33-2.55,1.93-3.85a35.84,35.84,0,0,0,2.23-7.62c1.1-5.23,2.18-10.5,2.18-15.84a16.52,16.52,0,0,1,6,1.13A1.68,1.68,0,0,1,151.09,206.4Z" transform="translate(-66.99 -22)"/><path class="cls-14" d="M153.43,203.12q-.19,5.06-.38,10.13v.32a26.35,26.35,0,0,1-.32,3.87,23.81,23.81,0,0,1-2.68,6.78,14.92,14.92,0,0,1-1.17,2c-.39.52-.83,1-1.19,1.53a20,20,0,0,0-1.77,4.68c-2.49,7.22-10.27,11.57-12.88,18.74a41,41,0,0,1-5.77-2.09,1.35,1.35,0,0,1-1.06-1.6.84.84,0,0,1,.05-.17,129,129,0,0,1,2.67-13,28.68,28.68,0,0,1,3-8.41,36,36,0,0,1,4.87-5.68,4.51,4.51,0,0,0,1.4-2.26,4.7,4.7,0,0,0-.11-1.63q-.52-2.94-.77-5.93a1.19,1.19,0,0,0,0-.33,16.92,16.92,0,0,1-.17-4.85c.59-2.55,5.55-3.07,7.73-3.13A37.67,37.67,0,0,1,153.43,203.12Z" transform="translate(-66.99 -22)"/><path class="cls-14" d="M159.33,135.36c3.29,1.4,7.07,1,10.57.21s7-1.93,10.55-2c1,0,2.26.3,2.44,1.29a2.27,2.27,0,0,1-.45,1.48,5.8,5.8,0,0,1-1.82,2.24,8.65,8.65,0,0,1-2.13.73c-1.36.39-2.61,1.06-3.92,1.58a35.38,35.38,0,0,1-6.94,1.71,12.92,12.92,0,0,1-3.34.31,13.1,13.1,0,0,1-2.21-.44q-3.18-.87-6.3-2a1.57,1.57,0,0,1-1-.75,1.86,1.86,0,0,1-.05-.78,9.37,9.37,0,0,0-.27-3.12c-.14-.51-1.18-2.33-.83-2.7C154.41,132.34,158.5,135,159.33,135.36Z" transform="translate(-66.99 -22)"/><path class="cls-15" d="M159.33,135.36c3.29,1.4,7.07,1,10.57.21s7-1.93,10.55-2c1,0,2.26.3,2.44,1.29a2.27,2.27,0,0,1-.45,1.48,5.8,5.8,0,0,1-1.82,2.24,8.65,8.65,0,0,1-2.13.73c-1.36.39-2.61,1.06-3.92,1.58a35.38,35.38,0,0,1-6.94,1.71,12.92,12.92,0,0,1-3.34.31,13.1,13.1,0,0,1-2.21-.44q-3.18-.87-6.3-2a1.57,1.57,0,0,1-1-.75,1.86,1.86,0,0,1-.05-.78,9.37,9.37,0,0,0-.27-3.12c-.14-.51-1.18-2.33-.83-2.7C154.41,132.34,158.5,135,159.33,135.36Z" transform="translate(-66.99 -22)"/><path class="cls-7" d="M149.8,81.26a18.17,18.17,0,0,0-.59,1.76,10.82,10.82,0,0,1-10.92,1.42c.14-.93.21-1.88.37-2.8a3.13,3.13,0,0,1,.45-1.26,2.9,2.9,0,0,1,1.19-.86c2.76-1.2,6.36-.65,9.1.39C150.32,80.26,150.14,80.36,149.8,81.26Z" transform="translate(-66.99 -22)"/><circle class="cls-14" cx="75.56" cy="52.06" r="10.81"/><path class="cls-15" d="M153.43,203.12q-.19,5.06-.38,10.13a15.31,15.31,0,0,1-5.12-.91A54.07,54.07,0,0,0,137.25,210a16.92,16.92,0,0,1-.17-4.85c.59-2.55,5.55-3.07,7.73-3.12A37.7,37.7,0,0,1,153.43,203.12Z" transform="translate(-66.99 -22)"/><path class="cls-9" d="M164.65,208c-.19.36-.44.88-.75.61-3.68-.32-6.8,2.89-10.48,3.27a14.38,14.38,0,0,1-5.49-.88c-6-1.78-12.44-3.5-18.4-1.61a79.16,79.16,0,0,0-.88-10.19c-.56-3.69-1.38-7.35-1.81-11.07-.79-6.89-.2-13.88-.77-20.8-.23-2.79-.66-5.55-.9-8.34-.58-6.6-1.22-13.62,1.52-19.65.4-.87.79-1.74,1.19-2.6a2,2,0,0,0,.22-.73,1,1,0,0,0,0-.37c-.16-.55-.69-1-1-1.5a4.81,4.81,0,0,1-.4-2.92c0-.42.15-.77.18-1.19a15.69,15.69,0,0,1-2.32-5.31c-.58-2.15-1-4.42-1.59-6.55-1-3.43-2.79-6.63-3.65-10.1a24.6,24.6,0,0,1-.5-5.56,14,14,0,0,1,.17-2.24,2.7,2.7,0,0,1,1.35-2.2,6.34,6.34,0,0,0,.93-3.39,7.12,7.12,0,0,1,.29-2.35c.58-1.48,2.28-2.18,3.84-2.41s3.23-.18,4.67-.84a9.69,9.69,0,0,0,1.55-.94,55.23,55.23,0,0,0,5.35-4.05.29.29,0,0,1,.14-.08.31.31,0,0,1,.2.09l4.07,3.63a29.63,29.63,0,0,1,2.17,2A18,18,0,0,1,146,93.15a15.68,15.68,0,0,1,.89,1.73,17.46,17.46,0,0,1,1,2.82,14.28,14.28,0,0,1,.33,1.55q.09.57.15,1.14c0,.13,0,.26,0,.38a1.61,1.61,0,0,0,.63-.27,1.32,1.32,0,0,0,.45-.57,2.91,2.91,0,0,0,.17-.66,8.12,8.12,0,0,0,.07-.85c0-.33,0-.68,0-1a8.87,8.87,0,0,0-.17-1.78c-.22-1.07-.69-2.07-1-3.13a4.31,4.31,0,0,1,.16-3.2c.2-.36.58-.71,1-.63a1,1,0,0,1,.65.66,3.35,3.35,0,0,1,.28,1.36c0,.23,0,.42.21.53a3.43,3.43,0,0,0,1.77,2.54,20.67,20.67,0,0,1,2.71,1.72,13.71,13.71,0,0,1,2.29,3.35,9.13,9.13,0,0,1,1,2,6.93,6.93,0,0,1,.18,2q-.06,6.33-.14,12.65a29.4,29.4,0,0,0,.26,5.31,19.67,19.67,0,0,1,.46,3c.07,2.76-1.86,5.08-3.2,7.51a6.44,6.44,0,0,0,.24,5.79c.86,1.82,2.17,3.38,3.17,5.12,3.55,6.15,3,13.72,2.76,20.84a156.78,156.78,0,0,0,2.54,33C165.68,200,166.53,204.38,164.65,208Z" transform="translate(-66.99 -22)"/><path class="cls-15" d="M148.23,99.27a9.63,9.63,0,0,0-1.07.08v1c.4,0,.81,0,1.21.08.22,0,.45.06.67.11a4.88,4.88,0,0,1,2,.8,2.9,2.9,0,0,1,1.12,3.52l-.41.17a2.11,2.11,0,0,1,0,1.38c-.19.43-.83.67-1.14.32s0-1.2-.51-1.45a.66.66,0,0,0-.83.32,1.83,1.83,0,0,0-.09,1c.33,2.59,1.57,5,1.61,7.64a3.36,3.36,0,0,1-.55,2.43l-3.4,3.45c-2.11,2.15-4.22,4.3-6.45,6.33a80.08,80.08,0,0,1-11.11,8.47c-.41.27-.83.52-1.25.78-.16-.55-.69-1-1-1.5a4.81,4.81,0,0,1-.4-2.92c0-.42.15-.76.18-1.19a15.6,15.6,0,0,1-2.32-5.31h.44a13.5,13.5,0,0,0,4.55-1.15,33.67,33.67,0,0,0,3.86-1.65,27.74,27.74,0,0,0,5.23-3.78,6.19,6.19,0,0,1,3.52-1.77c.79-.82,2-1.27,2.43-2.33a3.66,3.66,0,0,0,0-1.83,34.61,34.61,0,0,0-.92-4.25,29.9,29.9,0,0,1-.44-3.29,15.79,15.79,0,0,1-.38-3.76c.14-2.36,1.34-4.5,2.5-6.56.23-.4.46-.8.68-1.2s.37-.66.56-1a1,1,0,0,1,.81,1,3,3,0,0,1-.3,1.31c-.07.15-.12.3-.18.45l-1.6,4a17.71,17.71,0,0,1,2.59-1.17,6.7,6.7,0,0,1,1.16-.26,4.17,4.17,0,0,1,.71,0,3.68,3.68,0,0,1,2.94,1.27c.26.32.43.83.16,1.14a15.65,15.65,0,0,0-3.19-.54A11.53,11.53,0,0,0,148.23,99.27Z" transform="translate(-66.99 -22)"/><path class="cls-16" d="M163.52,133l-4.86,16.77L186,140.47l3.53-14.56Zm11.91,0c-1,0-1.77-.39-1.77-.88s.8-.88,1.77-.88,1.77.39,1.77.88-.79.88-1.77.88Z" transform="translate(-66.99 -22)"/><ellipse class="cls-12" cx="76.66" cy="45.44" rx="11.69" ry="5.74"/><ellipse class="cls-17" cx="100.49" cy="114.28" rx="1.55" ry="0.44"/><ellipse class="cls-18" cx="98.73" cy="116.49" rx="1.55" ry="0.44"/><ellipse class="cls-18" cx="110.2" cy="113.4" rx="1.55" ry="0.44"/><ellipse class="cls-18" cx="100.05" cy="116.49" rx="1.55" ry="0.44"/><ellipse class="cls-18" cx="97.4" cy="116.05" rx="1.55" ry="0.44"/><ellipse class="cls-18" cx="97.4" cy="117.37" rx="1.55" ry="0.44"/><ellipse class="cls-18" cx="100.93" cy="115.61" rx="1.55" ry="0.44"/><ellipse class="cls-18" cx="98.29" cy="114.72" rx="1.55" ry="0.44"/><ellipse class="cls-17" cx="101.38" cy="116.05" rx="1.55" ry="0.44"/><ellipse class="cls-17" cx="102.26" cy="113.84" rx="1.55" ry="0.44"/><ellipse class="cls-17" cx="102.26" cy="114.72" rx="1.55" ry="0.44"/><ellipse class="cls-17" cx="102.7" cy="116.05" rx="1.55" ry="0.44"/><ellipse class="cls-17" cx="107.11" cy="114.28" rx="1.55" ry="0.44"/><ellipse class="cls-17" cx="108.88" cy="113.84" rx="1.55" ry="0.44"/><ellipse class="cls-17" cx="108.88" cy="114.72" rx="1.55" ry="0.44"/><ellipse class="cls-17" cx="106.67" cy="116.05" rx="1.55" ry="0.44"/><ellipse class="cls-17" cx="107.11" cy="116.05" rx="1.55" ry="0.44"/><ellipse class="cls-17" cx="106.67" cy="116.05" rx="1.55" ry="0.44"/><ellipse class="cls-17" cx="105.35" cy="116.05" rx="1.55" ry="0.44"/><ellipse class="cls-17" cx="103.58" cy="114.28" rx="1.55" ry="0.44"/><ellipse class="cls-17" cx="104.02" cy="115.16" rx="1.55" ry="0.44"/><ellipse class="cls-19" cx="105.35" cy="113.84" rx="1.55" ry="0.44"/><ellipse class="cls-17" cx="105.35" cy="114.72" rx="1.55" ry="0.44"/><ellipse class="cls-20" cx="104.91" cy="115.16" rx="1.55" ry="0.44"/><ellipse class="cls-17" cx="106.67" cy="115.16" rx="1.55" ry="0.44"/><ellipse class="cls-17" cx="107.55" cy="116.93" rx="1.55" ry="0.44"/><ellipse class="cls-17" cx="108.43" cy="114.72" rx="1.55" ry="0.44"/><ellipse class="cls-17" cx="108.43" cy="115.61" rx="1.55" ry="0.44"/><ellipse class="cls-17" cx="108.88" cy="116.93" rx="1.55" ry="0.44"/><ellipse class="cls-17" cx="113.29" cy="115.16" rx="1.55" ry="0.44"/><ellipse class="cls-17" cx="115.05" cy="114.72" rx="1.55" ry="0.44"/><ellipse class="cls-21" cx="115.05" cy="115.61" rx="1.55" ry="0.44"/><ellipse class="cls-17" cx="112.85" cy="116.93" rx="1.55" ry="0.44"/><ellipse class="cls-17" cx="113.29" cy="116.93" rx="1.55" ry="0.44"/><ellipse class="cls-17" cx="112.85" cy="116.93" rx="1.55" ry="0.44"/><ellipse class="cls-20" cx="111.53" cy="116.93" rx="1.55" ry="0.44"/><ellipse class="cls-17" cx="109.76" cy="115.16" rx="1.55" ry="0.44"/><ellipse class="cls-17" cx="110.2" cy="116.05" rx="1.55" ry="0.44"/><ellipse class="cls-21" cx="111.53" cy="114.72" rx="1.55" ry="0.44"/><ellipse class="cls-20" cx="111.53" cy="115.61" rx="1.55" ry="0.44"/><ellipse class="cls-20" cx="111.08" cy="116.05" rx="1.55" ry="0.44"/><ellipse class="cls-17" cx="162.99" cy="141.18" rx="1.55" ry="0.44" transform="translate(-90.24 10.49) rotate(-10.63)"/><ellipse class="cls-17" cx="164.18" cy="142.75" rx="1.55" ry="0.44" transform="translate(-90.51 10.74) rotate(-10.63)"/><ellipse class="cls-17" cx="164.64" cy="140.42" rx="1.55" ry="0.44" transform="translate(-90.07 10.78) rotate(-10.63)"/><ellipse class="cls-17" cx="163.77" cy="141.59" rx="1.54" ry="0.44" transform="translate(-89.88 9.92) rotate(-10.41)"/><ellipse class="cls-17" cx="165.49" cy="142.51" rx="1.55" ry="0.44" transform="translate(-90.44 10.97) rotate(-10.63)"/><ellipse class="cls-17" cx="169.5" cy="139.96" rx="1.55" ry="0.44" transform="translate(-89.9 11.67) rotate(-10.63)"/><ellipse class="cls-17" cx="171.15" cy="139.2" rx="1.55" ry="0.44" transform="translate(-89.74 11.96) rotate(-10.63)"/><ellipse class="cls-17" cx="171.31" cy="140.07" rx="1.55" ry="0.44" transform="translate(-89.89 12.01) rotate(-10.63)"/><ellipse class="cls-17" cx="169.39" cy="141.78" rx="1.55" ry="0.44" transform="translate(-90.24 11.68) rotate(-10.63)"/><ellipse class="cls-17" cx="169.82" cy="141.69" rx="1.55" ry="0.44" transform="translate(-90.22 11.76) rotate(-10.63)"/><ellipse class="cls-17" cx="169.39" cy="141.78" rx="1.55" ry="0.44" transform="translate(-90.24 11.68) rotate(-10.63)"/><ellipse class="cls-17" cx="168.09" cy="142.02" rx="1.55" ry="0.44" transform="translate(-90.31 11.44) rotate(-10.63)"/><ellipse class="cls-19" cx="166.03" cy="140.61" rx="1.55" ry="0.44" transform="translate(-90.08 11.04) rotate(-10.63)"/><ellipse class="cls-17" cx="166.63" cy="141.39" rx="1.55" ry="0.44" transform="translate(-90.22 11.16) rotate(-10.63)"/><ellipse class="cls-19" cx="167.68" cy="139.85" rx="1.55" ry="0.44" transform="translate(-89.91 11.33) rotate(-10.63)"/><ellipse class="cls-17" cx="167.84" cy="140.72" rx="1.55" ry="0.44" transform="translate(-90.07 11.38) rotate(-10.63)"/><ellipse class="cls-19" cx="167.49" cy="141.24" rx="1.55" ry="0.44" transform="translate(-90.17 11.32) rotate(-10.63)"/><ellipse class="cls-17" cx="169.23" cy="140.91" rx="1.55" ry="0.44" transform="translate(-90.08 11.63) rotate(-10.63)"/><ellipse class="cls-17" cx="170.42" cy="142.48" rx="1.55" ry="0.44" transform="translate(-90.35 11.88) rotate(-10.63)"/><ellipse class="cls-17" cx="170.88" cy="140.15" rx="1.55" ry="0.44" transform="translate(-89.91 11.93) rotate(-10.63)"/><ellipse class="cls-17" cx="171.04" cy="141.02" rx="1.55" ry="0.44" transform="translate(-90.07 11.97) rotate(-10.63)"/><ellipse class="cls-17" cx="171.72" cy="142.24" rx="1.55" ry="0.44" transform="translate(-90.29 12.12) rotate(-10.63)"/><ellipse class="cls-17" cx="175.73" cy="139.69" rx="1.55" ry="0.44" transform="translate(-89.75 12.81) rotate(-10.63)"/><ellipse class="cls-17" cx="177.39" cy="138.93" rx="1.55" ry="0.44" transform="translate(-89.58 13.11) rotate(-10.63)"/><ellipse class="cls-21" cx="177.55" cy="139.8" rx="1.55" ry="0.44" transform="translate(-89.74 13.15) rotate(-10.63)"/><ellipse class="cls-17" cx="175.62" cy="141.5" rx="1.55" ry="0.44" transform="translate(-90.08 12.83) rotate(-10.63)"/><ellipse class="cls-17" cx="176.06" cy="141.42" rx="1.55" ry="0.44" transform="translate(-90.06 12.9) rotate(-10.63)"/><ellipse class="cls-17" cx="175.62" cy="141.5" rx="1.55" ry="0.44" transform="translate(-90.08 12.83) rotate(-10.63)"/><ellipse class="cls-17" cx="174.32" cy="141.75" rx="1.55" ry="0.44" transform="translate(-90.15 12.59) rotate(-10.63)"/><ellipse class="cls-21" cx="171.21" cy="140.68" rx="1.54" ry="0.44" transform="matrix(0.98, -0.18, 0.18, 0.98, -89.59, 11.24)"/><ellipse class="cls-17" cx="172.86" cy="141.12" rx="1.55" ry="0.44" transform="translate(-90.06 12.31) rotate(-10.63)"/><path class="cls-12" d="M137.42,81.38l-.33.33s14.84,23.2,18.12,25.67l1-.82S152.43,99.6,137.42,81.38Z" transform="translate(-66.99 -22)"/><path class="cls-16" d="M157.09,107.41s-.78-1.41-1.08-1.13-1.27.94-1.14,1.14,1,1.34,1,1.34a1.65,1.65,0,0,0,1.46-1Z" transform="translate(-66.99 -22)"/><path class="cls-22" d="M162,114.82l-.16,0s.13-.76-1.66-1.53a9.25,9.25,0,0,0-1-.37c-2.75-.87-3.82-2.77-3.27-4.13,0,0,0-.09.05-.13l1.15-.9.13.11a11.11,11.11,0,0,0,2.26,1.44,4.57,4.57,0,0,1,2.3,2.34A5.5,5.5,0,0,1,162,114.82Z" transform="translate(-66.99 -22)"/><path class="cls-23" d="M157.05,108s.39.85,2.43,1.85,2.48,3.92,2.48,3.92-1.06-2.7-2.7-3.2a4.27,4.27,0,0,1-2.36-2.42Z" transform="translate(-66.99 -22)"/><path class="cls-23" d="M156.74,108.3a2.69,2.69,0,0,0,1.25,2.16c1.34,1,3.88,2.66,3.94,3.43a8.67,8.67,0,0,0-2.29-1.71c-1.06-.42-2.51-1.28-2.67-2.08,0,0-.59-1.25-.42-1.73Z" transform="translate(-66.99 -22)"/><path class="cls-23" d="M156.33,108.55s-.55,1.1.79,2.64a5.71,5.71,0,0,0,2.27,1.29,5.59,5.59,0,0,1,2.42,1.67" transform="translate(-66.99 -22)"/><ellipse class="cls-19" cx="173.92" cy="139.58" rx="1.55" ry="0.44" transform="translate(-89.76 12.48) rotate(-10.63)"/><ellipse class="cls-17" cx="174.08" cy="140.44" rx="1.55" ry="0.44" transform="translate(-89.91 12.52) rotate(-10.63)"/><ellipse class="cls-17" cx="173.73" cy="140.96" rx="1.55" ry="0.44" transform="translate(-90.02 12.47) rotate(-10.63)"/><path class="cls-9" d="M118,108.51a6.71,6.71,0,0,1-.28,1.83c-.13.31-.33.59-.47.89-.64,1.31-.36,2.84-.45,4.29a15.4,15.4,0,0,1-.4,2.43c-.71,3.34-1.43,6.67-2.28,10a4.89,4.89,0,0,0-.06,3.35c.13.26.3.5.41.78.3.75,0,1.63.28,2.39a1.86,1.86,0,0,0,1.9,1.21,17.27,17.27,0,0,1,3.44-8.62,11,11,0,0,1,3.06-3.21,8.07,8.07,0,0,0,1.8-1.23,4.16,4.16,0,0,0,.9-2.15c.87-4.83-1.2-9.69-3.59-14-.5-.89-1.55-2.87-2.6-2.12S118.12,107.3,118,108.51Z" transform="translate(-66.99 -22)"/><path class="cls-7" d="M143.66,71.41c-5.85,0-10.69-2.1-11.56-4.85a2.94,2.94,0,0,0-.14.88c0,3.17,5.23,5.74,11.7,5.74s11.69-2.57,11.69-5.74a2.94,2.94,0,0,0-.14-.88C154.35,69.31,149.5,71.41,143.66,71.41Z" transform="translate(-66.99 -22)"/><g class="cls-24"><path d="M117.14,132.06c-.11-.28-.29-.52-.42-.78a4.89,4.89,0,0,1,.07-3.35c.84-3.31,1.55-6.64,2.28-10a15.4,15.4,0,0,0,.4-2.43c.09-1.45-.19-3,.44-4.29.15-.3.35-.58.47-.89a6.36,6.36,0,0,0,.29-1.83,9.33,9.33,0,0,1,.85-3.12c-.07-1-.08-1.92-.09-2.86a12.93,12.93,0,0,1,.17-2.24,2.66,2.66,0,0,1,1.35-2.2,6.54,6.54,0,0,0,.93-3.39,7.12,7.12,0,0,1,.29-2.35c.58-1.48,2.28-2.18,3.84-2.41s3.23-.18,4.67-.84a10.67,10.67,0,0,0,1.55-.94c1.41-1,2.82-2,4.15-3l-1.11-1a.32.32,0,0,0-.2-.1.6.6,0,0,0-.15.09,54.16,54.16,0,0,1-5.36,4,9.69,9.69,0,0,1-1.55.94c-1.44.65-3.09.6-4.67.84s-3.26.93-3.84,2.41a6.87,6.87,0,0,0-.29,2.35,6.34,6.34,0,0,1-.93,3.39,2.7,2.7,0,0,0-1.35,2.2,14,14,0,0,0-.16,2.24c0,.94,0,1.9.1,2.86a9.12,9.12,0,0,0-.86,3.12,6.35,6.35,0,0,1-.28,1.83c-.13.31-.33.59-.47.89-.64,1.31-.36,2.84-.44,4.29a18.11,18.11,0,0,1-.4,2.43c-.72,3.34-1.43,6.67-2.29,10a5,5,0,0,0-.06,3.35,7.22,7.22,0,0,1,.41.78c.3.75,0,1.63.29,2.39a1.84,1.84,0,0,0,1.9,1.21,12.49,12.49,0,0,1,.58-3.09A1.86,1.86,0,0,0,117.14,132.06Z" transform="translate(-66.99 -22)"/><path d="M149.07,93.92c.17.32.33.65.47,1a17.5,17.5,0,0,1,1,2.82,14.28,14.28,0,0,1,.33,1.55q.09.57.15,1.14c0,.13,0,.26,0,.38a1.67,1.67,0,0,0,.63-.27,1.32,1.32,0,0,0,.44-.58,2.47,2.47,0,0,0,.17-.66,4.88,4.88,0,0,0,.07-.85c0-.33,0-.68,0-1a9.66,9.66,0,0,0-.16-1.78c-.22-1.07-.7-2.07-1-3.13a2,2,0,0,1-.06-.23,2.36,2.36,0,0,1-.3-1c-.21-.11-.22-.3-.21-.53a3.39,3.39,0,0,0-.28-1.37,1,1,0,0,0-.65-.65c-.41-.09-.78.27-1,.63a4.26,4.26,0,0,0-.16,3.2C148.74,93,148.91,93.45,149.07,93.92Z" transform="translate(-66.99 -22)"/><path d="M131.3,199.22c-.56-3.69-1.38-7.35-1.81-11.07-.79-6.9-.2-13.88-.77-20.8-.24-2.79-.66-5.55-.9-8.35-.58-6.59-1.22-13.61,1.52-19.64.4-.87.79-1.74,1.18-2.6a2.08,2.08,0,0,0,.23-.73,1,1,0,0,0-.05-.38c-.16-.55-.69-1-1-1.49a4.76,4.76,0,0,1-.4-2.92c0-.42.15-.77.17-1.19a15.86,15.86,0,0,1-2.31-5.31c-.14-.49-.26-1-.37-1.48l-1,.57a7.41,7.41,0,0,0-1.28,1,15.57,15.57,0,0,0,2.29,5.19c0,.42-.14.77-.18,1.19a4.83,4.83,0,0,0,.4,2.92,6.65,6.65,0,0,1,1,1.49,1,1,0,0,1,.05.38,2.06,2.06,0,0,1-.22.73c-.4.87-.79,1.74-1.19,2.6-2.74,6-2.1,13-1.52,19.64.25,2.79.66,5.56.9,8.35.57,6.92,0,13.9.77,20.8.43,3.72,1.25,7.38,1.81,11.07a79,79,0,0,1,.88,10.19,16.85,16.85,0,0,1,2.62-.6A81.12,81.12,0,0,0,131.3,199.22Z" transform="translate(-66.99 -22)"/><path d="M150.57,211c-4.57-1.35-9.38-2.66-14-2.38A51.85,51.85,0,0,1,147.93,211a14.19,14.19,0,0,0,5.49.88,2.44,2.44,0,0,0,.46-.07A23.5,23.5,0,0,1,150.57,211Z" transform="translate(-66.99 -22)"/></g><path class="cls-14" d="M115.45,132.78l1.44,3.48a4,4,0,0,0,1,1.67,2.69,2.69,0,0,0,2.28.41,7.52,7.52,0,0,0,2.18-1c2.18-1.23,4.36-2.48,6.48-3.82A80.86,80.86,0,0,0,140,125.07c2.23-2,4.35-4.18,6.46-6.33l3.38-3.45a3.42,3.42,0,0,0,.55-2.43c-.05-2.62-1.31-5-1.61-7.64a1.66,1.66,0,0,1,.09-1,.65.65,0,0,1,.83-.32c.47.24.15,1,.51,1.46s.95.1,1.14-.33a2.11,2.11,0,0,0-.05-1.38l.41-.17a2.91,2.91,0,0,0-1.12-3.52,6.74,6.74,0,0,0-3.85-1V98a15.08,15.08,0,0,1,5.71.48c.28-.33.1-.82-.16-1.15a4,4,0,0,0-3.65-1.23,11.94,11.94,0,0,0-3.74,1.44l1.77-4.45a3,3,0,0,0,.3-1.31,1,1,0,0,0-.8-1L144.9,93c-1.16,2.06-2.35,4.21-2.5,6.56a15.79,15.79,0,0,0,.38,3.76c.21,1.12.14,2.2.45,3.3a36,36,0,0,1,.92,4.24,3.78,3.78,0,0,1-.06,1.83c-.41,1.06-1.64,1.52-2.42,2.33a6.35,6.35,0,0,0-3.53,1.78,28.12,28.12,0,0,1-5.22,3.78,34.44,34.44,0,0,1-3.86,1.65,13.49,13.49,0,0,1-4.56,1.15,11.63,11.63,0,0,0-3.49.09c-1.69.53-2.62,2.29-3.37,3.87L116.39,130A19.89,19.89,0,0,0,115.45,132.78Z" transform="translate(-66.99 -22)"/><path class="cls-9" d="M120,126.83a11.13,11.13,0,0,1,3.15-3.26c.24-.16.49-.29.73-.43a8.63,8.63,0,0,0-3,.1c-1.73.54-2.69,2.33-3.46,4l-1.29,2.66a19.58,19.58,0,0,0-1,2.85l1.22,2.94h0A17.88,17.88,0,0,1,120,126.83Z" transform="translate(-66.99 -22)"/><ellipse class="cls-14" cx="108.22" cy="110.04" rx="0.88" ry="1.06"/><ellipse class="cls-14" cx="108.22" cy="110.57" rx="0.88" ry="1.06"/><path class="cls-17" d="M162.23,115.54l-.22-.05s.17-.92-2.24-1.87a1.91,1.91,0,0,1,.07-.47,1.5,1.5,0,0,1,.11-.36,1.71,1.71,0,0,1,.17-.33,2,2,0,0,1,.55-.6,1.45,1.45,0,0,1,.49-.22,1.32,1.32,0,0,1,.39-.06,1.93,1.93,0,0,1,.41.06A6.2,6.2,0,0,1,162.23,115.54Z" transform="translate(-66.99 -22)"/><path class="cls-2" d="M106.68,237.82s2,2.65-.93,6.67-5.42,7.39-4.43,9.9c0,0,4.48-7.45,8.12-7.56S110.69,242.3,106.68,237.82Z" transform="translate(-66.99 -22)"/><path class="cls-7" d="M106.68,237.82a3.09,3.09,0,0,1,.42.83c3.56,4.18,5.45,8.08,2,8.17-3.18.09-7,5.79-7.92,7.22,0,.11.07.22.11.33s4.48-7.45,8.12-7.55S110.69,242.3,106.68,237.82Z" transform="translate(-66.99 -22)"/><path class="cls-25" d="M110.45,241.21c0,.93-.1,1.69-.23,1.69s-.24-.76-.24-1.69.13-.5.26-.5S110.45,240.27,110.45,241.21Z" transform="translate(-66.99 -22)"/><path class="cls-25" d="M111.75,242.32c-.82.45-1.54.72-1.6.61s.55-.57,1.37-1,.5-.12.56,0S112.57,241.88,111.75,242.32Z" transform="translate(-66.99 -22)"/><path class="cls-2" d="M95.94,237.82s-2,2.65.94,6.67,5.42,7.39,4.43,9.9c0,0-4.48-7.45-8.13-7.56S91.93,242.3,95.94,237.82Z" transform="translate(-66.99 -22)"/><path class="cls-7" d="M95.94,237.82a3.38,3.38,0,0,0-.41.83c-3.56,4.18-5.45,8.08-2,8.17,3.19.09,7,5.79,7.93,7.22,0,.11-.07.22-.11.33s-4.48-7.45-8.13-7.55S91.93,242.3,95.94,237.82Z" transform="translate(-66.99 -22)"/><path class="cls-25" d="M92.17,241.21c0,.93.1,1.69.23,1.69s.23-.76.23-1.69-.13-.5-.25-.5S92.17,240.27,92.17,241.21Z" transform="translate(-66.99 -22)"/><path class="cls-25" d="M90.87,242.32c.82.45,1.53.72,1.6.61s-.56-.57-1.38-1-.49-.12-.55,0S90.05,241.88,90.87,242.32Z" transform="translate(-66.99 -22)"/><path class="cls-26" d="M92.81,254s5.68-.17,7.39-1.39,8.74-2.68,9.17-.72,8.53,9.72,2.12,9.77-14.9-1-16.61-2S92.81,254,92.81,254Z" transform="translate(-66.99 -22)"/><path class="cls-27" d="M111.6,261c-6.41.05-14.9-1-16.6-2-1.31-.8-1.82-3.64-2-5h-.19s.36,4.57,2.07,5.62,10.2,2.09,16.61,2c1.85,0,2.49-.67,2.46-1.65C113.69,260.64,113,261,111.6,261Z" transform="translate(-66.99 -22)"/><path class="cls-28" d="M251.94,247.36s-3.63-12.33.68-21.41a19.48,19.48,0,0,0,1.57-12.21,33,33,0,0,0-1.73-5.74" transform="translate(-66.99 -22)"/><path class="cls-2" d="M255.15,202.27c0,1.51-2.74,5.88-2.74,5.88s-2.74-4.38-2.74-5.88a2.74,2.74,0,0,1,5.48,0Z" transform="translate(-66.99 -22)"/><path class="cls-2" d="M259.67,210.64c-.82,1.27-5.5,3.46-5.5,3.46s.08-5.17.9-6.44a2.74,2.74,0,1,1,4.6,3Z" transform="translate(-66.99 -22)"/><path class="cls-2" d="M259.47,224.94c-1.35.68-6.49.21-6.49.21s2.68-4.42,4-5.1a2.74,2.74,0,0,1,2.46,4.9Z" transform="translate(-66.99 -22)"/><path class="cls-2" d="M256.88,235.73c-1.21.89-6.36,1.3-6.36,1.3s1.89-4.8,3.11-5.7a2.74,2.74,0,0,1,3.27,4.4Z" transform="translate(-66.99 -22)"/><path class="cls-2" d="M248.43,214.39c1.08,1.05,6.13,2.14,6.13,2.14s-1.24-5-2.32-6.07a2.74,2.74,0,0,0-3.86,3.88l.05,0Z" transform="translate(-66.99 -22)"/><path class="cls-2" d="M245.55,227c1.35.68,6.5.21,6.5.21s-2.68-4.41-4-5.09a2.74,2.74,0,0,0-2.47,4.88Z" transform="translate(-66.99 -22)"/><path class="cls-2" d="M244.47,239.73c1.21.89,6.36,1.3,6.36,1.3s-1.9-4.8-3.11-5.7a2.74,2.74,0,1,0-3.27,4.4h0Z" transform="translate(-66.99 -22)"/><path class="cls-2" d="M255.15,202.27c0,1.51-2.74,5.88-2.74,5.88s-2.74-4.38-2.74-5.88a2.74,2.74,0,0,1,5.48,0Z" transform="translate(-66.99 -22)"/><path class="cls-2" d="M259.67,210.64c-.82,1.27-5.5,3.46-5.5,3.46s.08-5.17.9-6.44a2.74,2.74,0,1,1,4.6,3Z" transform="translate(-66.99 -22)"/><path class="cls-2" d="M259.47,224.94c-1.35.68-6.49.21-6.49.21s2.68-4.42,4-5.1a2.74,2.74,0,0,1,2.46,4.9Z" transform="translate(-66.99 -22)"/><path class="cls-2" d="M256.88,235.73c-1.21.89-6.36,1.3-6.36,1.3s1.89-4.8,3.11-5.7a2.74,2.74,0,0,1,3.27,4.4Z" transform="translate(-66.99 -22)"/><path class="cls-2" d="M248.43,214.39c1.08,1.05,6.13,2.14,6.13,2.14s-1.24-5-2.32-6.07a2.74,2.74,0,0,0-3.86,3.88l.05,0Z" transform="translate(-66.99 -22)"/><path class="cls-2" d="M245.55,227c1.35.68,6.5.21,6.5.21s-2.68-4.41-4-5.09a2.74,2.74,0,0,0-2.47,4.88Z" transform="translate(-66.99 -22)"/><path class="cls-2" d="M244.47,239.73c1.21.89,6.36,1.3,6.36,1.3s-1.9-4.8-3.11-5.7a2.74,2.74,0,1,0-3.27,4.4h0Z" transform="translate(-66.99 -22)"/><path class="cls-26" d="M243.35,246.58s4.43-.88,5.6-2.05,6.49-3.22,7.08-1.76,8,6.44,2.94,7.32-11.79,1.17-13.26.58S243.35,246.58,243.35,246.58Z" transform="translate(-66.99 -22)"/><path class="cls-27" d="M259,249.54c-5,.88-11.79,1.18-13.27.59-1.12-.45-1.9-2.59-2.21-3.59l-.15,0s.89,3.51,2.36,4.1,8.26.29,13.27-.59c1.44-.25,1.86-.85,1.7-1.6C260.56,249,260.05,249.36,259,249.54Z" transform="translate(-66.99 -22)"/><g class="cls-29"><path class="cls-30" d="M233.82,147.6a3,3,0,0,1-.19-.5,4.47,4.47,0,0,1,0-1.21,4.6,4.6,0,0,0-.1-.84l-.57-3.18a14.71,14.71,0,0,1-.22-1.46c-.05-.49,0-1-.05-1.52,0-1.64-.33-3.27-.37-4.92,0-.85-.11-1.71-.17-2.56-.12-1.46-.25-2.94-.51-4.37a21.48,21.48,0,0,1-.79-3.38c0-.61,0-1.21,0-1.82a3.43,3.43,0,0,0-.24-1.52,3.23,3.23,0,0,0-.89-1c-1-.89-2.1-1.73-3.2-2.53a2,2,0,0,0,1-.08.65.65,0,0,0,.38-.82.78.78,0,0,0-.5-.37,4.63,4.63,0,0,0-1.22-.19,4,4,0,0,0,.09-.48c.21-1.68-.63-3.34-.63-5s.89-3.35,1.4-5a12.13,12.13,0,0,0-.36-8.08,22.17,22.17,0,0,1-1.63-4.07c-.21-1.13-.08-2.29-.27-3.44-.49-2.88-3.06-5.1-5.88-5.88a14.81,14.81,0,0,0-6.59,0c-1.89.35-3.6-.42-5.49-.17a2.94,2.94,0,0,0-2,.91,11,11,0,0,0-.65,1.1c-.84,1.31-2.51,1.76-3.89,2.47a7.55,7.55,0,0,0-4.1,5.48c-.29,2.17.57,4.33.7,6.53.17,2.8-.85,5.51-1.71,8.17a6.38,6.38,0,0,0-.43,2.29,6,6,0,0,0,.36,1.56c.27.82.57,1.63.92,2.43a7.91,7.91,0,0,1-2,.54,5.23,5.23,0,0,0-2.09.41,2.67,2.67,0,0,0-.73.69,3.82,3.82,0,0,0-.65,2.88.86.86,0,0,0-.41.76c0,.3.05.6.06.91a5.68,5.68,0,0,1-.32,1.68,14.25,14.25,0,0,0-.38,5.7c.42,3.06.5,6.08.64,9.15a48.73,48.73,0,0,0,.25,6.05,2.92,2.92,0,0,0,.84,1.79,2.79,2.79,0,0,1,.38.3,2.39,2.39,0,0,1,.41,1.19,2.57,2.57,0,0,0,2.65,1.89h0c-.22.66-.44,1.26-.66,1.89h33.58a2,2,0,0,1-.05-.24,3.35,3.35,0,0,1,0-1,2.43,2.43,0,0,1,.31,1.24h6.31A5.55,5.55,0,0,0,233.82,147.6Z" transform="translate(-66.99 -22)"/><path class="cls-9" d="M207,83.52a2.86,2.86,0,0,0-2,.9,11,11,0,0,0-.66,1.1c-.83,1.31-2.49,1.74-3.86,2.46a7.46,7.46,0,0,0-4.06,5.43c-.3,2.17.55,4.31.68,6.49.17,2.77-.84,5.47-1.69,8.12a4.84,4.84,0,0,0-.08,3.84,20.67,20.67,0,0,0,3.43,6.62,11.53,11.53,0,0,0,6.15,4.06,17.68,17.68,0,0,0,3.4.36c1.74.07,3.48.1,5.22.1a15.33,15.33,0,0,0,2.87-.19,16.2,16.2,0,0,0,5.46-2.62c2-1.27,4.11-2.84,4.41-5.16.21-1.67-.62-3.32-.62-5s.88-3.33,1.39-5a12.13,12.13,0,0,0-.36-8,22.81,22.81,0,0,1-1.63-4.06c-.22-1.12-.09-2.28-.28-3.41-.48-2.86-3-5.07-5.83-5.83a14.73,14.73,0,0,0-6.54,0C210.59,84,208.87,83.26,207,83.52Z" transform="translate(-66.99 -22)"/><path class="cls-14" d="M207.59,107.53a7,7,0,0,1-.88,5.31,8.47,8.47,0,0,1-1.89,2,12.17,12.17,0,0,1-3.73,2.06,7.47,7.47,0,0,0,2.87,1.4,14.27,14.27,0,0,0,2.45.3,71,71,0,0,0,12.37-.45,8.24,8.24,0,0,0,3.92-1.24.56.56,0,0,0,.22-.26c.08-.27-.25-.48-.51-.57a15.25,15.25,0,0,1-3.9-1.51c-1.75-1.23-2.48-3.49-2.64-5.63s.15-4.28-.05-6.42q-4.26-.06-8.5.25c-.33,0-1.74,0-1.91.22s.6,1.06.8,1.35A9.44,9.44,0,0,1,207.59,107.53Z" transform="translate(-66.99 -22)"/><circle class="cls-7" cx="144.51" cy="75.93" r="9.66"/><circle class="cls-14" cx="144.51" cy="75.59" r="9.66"/><path class="cls-9" d="M225.08,133.16a29.31,29.31,0,0,0-1,9.9c.22,2.2,1,4.57,1,6.82h-24v-8a43.25,43.25,0,0,0-.17-4.69,34.86,34.86,0,0,0-1.91-8.13l-.21-.57h0s0-.05,0-.07l-.21-.58c-1.17-3.1-2.5-6.31-1.86-9.54a8.26,8.26,0,0,1,4-5.52,4.53,4.53,0,0,1,2.06-.64,6.27,6.27,0,0,1,3.4,1.41l1.5,1a17,17,0,0,0,3.85,1.84,7.72,7.72,0,0,0,5.88-.37,8.08,8.08,0,0,0,1-.67,11.26,11.26,0,0,0,1.61-1.7c.47.91,1.49,1.3,2.34,1.88A7.36,7.36,0,0,1,225,119a19,19,0,0,1,1,4.21,22.39,22.39,0,0,1,.28,4.25A34.13,34.13,0,0,1,225.08,133.16Z" transform="translate(-66.99 -22)"/><path class="cls-20" d="M210.68,149.88h-16.4c.22-.63.43-1.24.66-1.87h0a2.56,2.56,0,0,1-2.64-1.89,2.28,2.28,0,0,0-.4-1.18,3.37,3.37,0,0,0-.37-.29,2.77,2.77,0,0,1-.84-1.78,50.17,50.17,0,0,1-.25-6c-.14-3.06-.22-6.07-.63-9.11a14,14,0,0,1,.37-5.66,5.62,5.62,0,0,0,.32-1.67c0-.3-.08-.6-.06-.9a.86.86,0,0,1,.41-.76,3.83,3.83,0,0,1,.65-2.86,2.63,2.63,0,0,1,.72-.69,5.36,5.36,0,0,1,2.08-.41c3.3-.37,5.91-3.27,9.22-3.59a12.78,12.78,0,0,1,2.23.05c1.22.1,1.66,1.63,1.94,2.83,0,.16.07.33.11.47a43.84,43.84,0,0,1,.5,9,7.54,7.54,0,0,0,.29,2.06,26.39,26.39,0,0,1,.65,5.62,124.11,124.11,0,0,0,1.33,13.18c.14.82.24,1.64.3,2.47A15.43,15.43,0,0,1,210.68,149.88Z" transform="translate(-66.99 -22)"/><path class="cls-20" d="M207.19,126a9.32,9.32,0,0,1,.95,1.29c.13.21.24.53.05.69a.58.58,0,0,1-.36.1l-2.28.1a2.82,2.82,0,0,1-1-.1,2.54,2.54,0,0,1-1.07-1l-1-1.33a3,3,0,0,1-.65-1.15,1,1,0,0,1,.46-1.14,1.5,1.5,0,0,1,1.12.08,9.22,9.22,0,0,1,2.13.79A8.8,8.8,0,0,1,207.19,126Z" transform="translate(-66.99 -22)"/><path class="cls-7" d="M207.19,126a9.32,9.32,0,0,1,.95,1.29c.13.21.24.53.05.69a.58.58,0,0,1-.36.1l-2.28.1a2.82,2.82,0,0,1-1-.1,2.54,2.54,0,0,1-1.07-1l-1-1.33a3,3,0,0,1-.65-1.15,1,1,0,0,1,.46-1.14,1.5,1.5,0,0,1,1.12.08,9.22,9.22,0,0,1,2.13.79A8.8,8.8,0,0,1,207.19,126Z" transform="translate(-66.99 -22)"/><path class="cls-7" d="M205.88,126.13a33.36,33.36,0,0,1,1.15-4.42,10.22,10.22,0,0,0,.58-2.15c.06-.58,0-1.17.06-1.75s.17-1,.24-1.48a7.28,7.28,0,0,0-.18-3c-.21-.79,0-1.74-.51-2.37-.2-.26-.47-.45-.68-.71a.94.94,0,0,1-.26-.9,5.87,5.87,0,0,0,2.17.07,1.55,1.55,0,0,0,.61-.22.57.57,0,0,0,.25-.55.78.78,0,0,0-.42-.47,5.06,5.06,0,0,0-4.32-.48.25.25,0,0,1,.11-.31.92.92,0,0,1,.33-.11,2.27,2.27,0,0,0,1.61-1.4.54.54,0,0,0,0-.31c-.08-.23-.42-.22-.67-.16l-1.33.33a2.88,2.88,0,0,0-.75.25,3,3,0,0,0-.76.65,8.75,8.75,0,0,0-1.8,2.49c-.17.43-.27.89-.45,1.31a2,2,0,0,1-.88,1,1.13,1.13,0,0,0-.57,1.2,3.45,3.45,0,0,0,.61,1.3,14.87,14.87,0,0,0,1.68,2.18,6,6,0,0,1,1.14,1.41c.19.38.27.81.44,1.21a2.78,2.78,0,0,1,.21.57,1.55,1.55,0,0,1,0,.43c-.28,2.17-1.89,4-2.49,6a.59.59,0,0,0,.32.77h0a12.88,12.88,0,0,0,4,1.79A15.76,15.76,0,0,0,205.88,126.13Z" transform="translate(-66.99 -22)"/><path class="cls-14" d="M205.69,126a33.36,33.36,0,0,1,1.15-4.42,10.22,10.22,0,0,0,.58-2.15c.06-.58,0-1.17.06-1.74s.17-1,.24-1.49a7.29,7.29,0,0,0-.18-3c-.21-.78,0-1.73-.51-2.37-.2-.26-.47-.45-.68-.7a1,1,0,0,1-.26-.91,5.66,5.66,0,0,0,2.17.07,1.53,1.53,0,0,0,.61-.21.58.58,0,0,0,.25-.56.86.86,0,0,0-.41-.47,5.08,5.08,0,0,0-4.33-.48.25.25,0,0,1,.11-.31.92.92,0,0,1,.33-.11,2.24,2.24,0,0,0,1.6-1.4.45.45,0,0,0,0-.3c-.09-.24-.43-.23-.66-.17l-1.33.33a3.07,3.07,0,0,0-.74.25,3.45,3.45,0,0,0-.77.65,8.71,8.71,0,0,0-1.79,2.49c-.18.43-.28.89-.46,1.31a2,2,0,0,1-.87,1,1.13,1.13,0,0,0-.57,1.2,3.4,3.4,0,0,0,.6,1.31,16.86,16.86,0,0,0,1.68,2.18,5.93,5.93,0,0,1,1.14,1.4c.19.38.27.81.44,1.21a2.3,2.3,0,0,1,.21.57,1.55,1.55,0,0,1,0,.43c-.27,2.18-1.89,3.95-2.49,6a.59.59,0,0,0,.32.77h0a13.09,13.09,0,0,0,4,1.78A14.49,14.49,0,0,0,205.69,126Z" transform="translate(-66.99 -22)"/><path class="cls-9" d="M206.57,125.49a.21.21,0,0,1,.11.1.25.25,0,0,1,0,.17,14.2,14.2,0,0,1-1.26,2.78c-1-.57-2-1.18-3-1.83a1.7,1.7,0,0,1-.61-.58C200.3,123.31,205.6,124.92,206.57,125.49Z" transform="translate(-66.99 -22)"/><path class="cls-7" d="M200.74,126.85c-.34.46-.74.87-1.08,1.33a22,22,0,0,0-1.49,2.68,17.94,17.94,0,0,1-2.25,3.34c-.88,1-1.93,2.09-2,3.44a1.07,1.07,0,0,1-.12.56,1.8,1.8,0,0,1-.4.33c-.13.11-.21.33-.08.46-.5,0-.71.65-.81,1.15l-.22,1.15a4.62,4.62,0,0,0-.11.91,3.59,3.59,0,0,0,.3,1.2,19.33,19.33,0,0,0,2.06,4,4,4,0,0,0,1.53,1.48,4.34,4.34,0,0,0,2,.18,2.92,2.92,0,0,0,2.48-1c.29-.51.25-1.17.57-1.67a5.59,5.59,0,0,1,.61-.68,4.38,4.38,0,0,0,.76-1.49,54.4,54.4,0,0,0,2-7.43,12.54,12.54,0,0,1,.67-2.49,13.36,13.36,0,0,1,1.25-2.05,19.24,19.24,0,0,0,1.52-3.72c-1.26-.3-1.84-1.13-2.92-1.84a40.56,40.56,0,0,0-3.59-2.62C201,124.93,201.32,126.07,200.74,126.85Z" transform="translate(-66.99 -22)"/><path class="cls-7" d="M200,126.17c-.33.45-.74.87-1.08,1.33a19.41,19.41,0,0,0-1.48,2.68,18.85,18.85,0,0,1-2.26,3.34c-.88,1-1.93,2.09-2,3.44a1.09,1.09,0,0,1-.12.56,2.44,2.44,0,0,1-.4.32c-.13.12-.21.33-.08.46-.5.06-.71.66-.81,1.16l-.22,1.14a4.62,4.62,0,0,0-.11.91,4.21,4.21,0,0,0,.3,1.21,19.76,19.76,0,0,0,2.06,4,3.82,3.82,0,0,0,1.53,1.48,4.2,4.2,0,0,0,2,.18c.93-.06,2-.21,2.48-1,.29-.52.25-1.18.57-1.68a5.51,5.51,0,0,1,.61-.67,4.48,4.48,0,0,0,.76-1.49,54.54,54.54,0,0,0,2-7.44,11.88,11.88,0,0,1,.66-2.49,13.8,13.8,0,0,1,1.24-2.05c.83-1.25.78-2,1.35-3.38-1.26-.29-1.67-1.47-2.75-2.18a40.44,40.44,0,0,0-3.59-2.61C200.25,124.25,200.55,125.39,200,126.17Z" transform="translate(-66.99 -22)"/><path class="cls-20" d="M200.4,126.51c-.33.46-.74.87-1.08,1.33a20.58,20.58,0,0,0-1.49,2.68,18.27,18.27,0,0,1-2.25,3.34c-.89,1-1.93,2.09-2,3.44a1.07,1.07,0,0,1-.12.56,3.29,3.29,0,0,1-.41.33c-.12.12-.2.32-.07.45-.5.06-.71.66-.81,1.16l-.22,1.15a3.89,3.89,0,0,0-.11.9,3.59,3.59,0,0,0,.3,1.21,19.26,19.26,0,0,0,2.06,4,3.75,3.75,0,0,0,1.53,1.48,4.21,4.21,0,0,0,2,.19c.93-.06,2-.21,2.47-1,.3-.52.25-1.18.57-1.68a6.56,6.56,0,0,1,.62-.67,4.67,4.67,0,0,0,.76-1.49,54.54,54.54,0,0,0,2-7.44,12.68,12.68,0,0,1,.65-2.49,14.77,14.77,0,0,1,1.25-2,22.83,22.83,0,0,0,2.1-4,11,11,0,0,1-3.5-1.59c-1-.65-2.51-2.09-3.59-2.61C200.68,124.59,201,125.74,200.4,126.51Z" transform="translate(-66.99 -22)"/><circle class="cls-9" cx="136.65" cy="105.52" r="0.68"/><circle class="cls-9" cx="134.51" cy="108.85" r="0.68"/><circle class="cls-9" cx="132.29" cy="112.27" r="0.68"/><path class="cls-20" d="M234.09,149.88h-6.26c-.07-.42,0-.9-.3-1.23a3.72,3.72,0,0,0,0,1l.06.23h-8a13,13,0,0,1,.29-3,27.41,27.41,0,0,0,.45-4.34c0-1.8-.09-3.59-.1-5.4a39.39,39.39,0,0,1,.34-5.32,16.52,16.52,0,0,0,.27-4.9c-.29-1.81-.55-3.64-.78-5.46a5.24,5.24,0,0,0-.23-1.18,7.85,7.85,0,0,0-.32-.8,12,12,0,0,1-1.06-4.16c0-.54-.82-1-.81-1.58a9.17,9.17,0,0,1,3.93-.11c1,.36,1.75,1.26,2.76,1.59s2.09.09,3.07.42a.85.85,0,0,1,.51.36.65.65,0,0,1-.38.82,2,2,0,0,1-1,.08c1.09.79,2.15,1.63,3.17,2.52a3.18,3.18,0,0,1,.89,1,3.27,3.27,0,0,1,.24,1.51c0,.61,0,1.2,0,1.8a18.83,18.83,0,0,0,.79,3.36c.25,1.44.38,2.9.5,4.35.06.85.13,1.69.17,2.54.06,1.64.34,3.27.37,4.89,0,.5,0,1,.05,1.51a14.66,14.66,0,0,0,.21,1.46l.57,3.15a4.59,4.59,0,0,1,.1.83,4.09,4.09,0,0,0,0,1.21,2.92,2.92,0,0,0,.19.49A5.59,5.59,0,0,1,234.09,149.88Z" transform="translate(-66.99 -22)"/><ellipse class="cls-9" cx="144.9" cy="68.02" rx="9.24" ry="3.59"/><path class="cls-20" d="M216.86,93.64a3,3,0,0,0-4,1.35c-1.11,3,1,4.73,2.24,5.47a3.07,3.07,0,0,0,1.59.44,3.22,3.22,0,0,0,1.18-.23A5.09,5.09,0,0,0,221,96.75C221.52,92.71,216.86,93.64,216.86,93.64Zm3,3.17a4.23,4.23,0,0,1-2.59,3.27,2.43,2.43,0,0,1-2.24-.17,3.65,3.65,0,0,1-1.83-4.56,2.41,2.41,0,0,1,3.27-1.12S220.31,93.45,219.89,96.81Z" transform="translate(-66.99 -22)"/><path class="cls-9" d="M216.52,94.23s3.79-.78,3.37,2.58a4.23,4.23,0,0,1-2.59,3.27,2.42,2.42,0,0,1-1,.19h0a2.4,2.4,0,0,1-1.28-.36,3.65,3.65,0,0,1-1.83-4.56A2.43,2.43,0,0,1,216.52,94.23Z" transform="translate(-66.99 -22)"/><path class="cls-31" d="M216.52,94.23s3.79-.78,3.37,2.58a4.23,4.23,0,0,1-2.59,3.27,2.42,2.42,0,0,1-1,.19h0a2.4,2.4,0,0,1-1.28-.36,3.65,3.65,0,0,1-1.83-4.56A2.43,2.43,0,0,1,216.52,94.23Z" transform="translate(-66.99 -22)"/><path class="cls-20" d="M201.81,96.75a5.08,5.08,0,0,0,3.18,3.92,3,3,0,0,0,1.18.24,3.16,3.16,0,0,0,1.58-.44C209,99.72,211.11,98,210,95a3,3,0,0,0-4-1.35S201.29,92.71,201.81,96.75Zm4.49-2.52a2.39,2.39,0,0,1,3.26,1.12,3.65,3.65,0,0,1-1.82,4.56,2.5,2.5,0,0,1-2.24.17,4.26,4.26,0,0,1-2.59-3.27C202.51,93.45,206.3,94.23,206.3,94.23Z" transform="translate(-66.99 -22)"/><path class="cls-9" d="M206.3,94.23s-3.79-.78-3.37,2.58a4.24,4.24,0,0,0,2.58,3.27,2.45,2.45,0,0,0,1,.19h0a2.46,2.46,0,0,0,1.29-.36,3.64,3.64,0,0,0,1.82-4.56A2.41,2.41,0,0,0,206.3,94.23Z" transform="translate(-66.99 -22)"/><path class="cls-32" d="M206.3,94.23s-3.79-.78-3.37,2.58a4.24,4.24,0,0,0,2.58,3.27,2.45,2.45,0,0,0,1,.19h0a2.46,2.46,0,0,0,1.29-.36,3.64,3.64,0,0,0,1.82-4.56A2.41,2.41,0,0,0,206.3,94.23Z" transform="translate(-66.99 -22)"/></g></svg>