<svg id="Layer_1" data-name="Layer 1" xmlns="http://www.w3.org/2000/svg" xmlns:xlink="http://www.w3.org/1999/xlink" viewBox="0 0 391 300"><defs><style>.cls-1{fill:#ddd;}.cls-2,.cls-24,.cls-3{fill:#6c63ff;}.cls-2,.cls-5{opacity:0.2;}.cls-15,.cls-2,.cls-5,.cls-9{isolation:isolate;}.cls-15,.cls-4{fill:none;stroke-miterlimit:10;}.cls-4{stroke:#535461;stroke-width:2px;}.cls-5{fill:#f5f5f5;}.cls-6{fill:url(#linear-gradient);}.cls-7{fill:#e14b5a;}.cls-8{fill:#f7c4a7;}.cls-11,.cls-15,.cls-9{opacity:0.1;}.cls-10{fill:#575988;}.cls-12{fill:#632652;}.cls-13{fill:#535461;}.cls-14{fill:#fff;}.cls-15{stroke:#000;}.cls-16{fill:#6a5c99;}.cls-17{fill:#ffd037;}.cls-18{fill:#d6d6e3;}.cls-19{fill:#3f3d56;}.cls-20{fill:#575a89;}.cls-21{fill:#a0616a;}.cls-22{fill:#2f2e41;}.cls-23{fill:#f2f2f2;}.cls-24{font-size:30px;font-family:Montserrat-Bold, Montserrat;font-weight:700;}.cls-25{letter-spacing:-0.01em;}.cls-26{letter-spacing:-0.02em;}.cls-27{letter-spacing:-0.01em;}.cls-28{letter-spacing:0em;}.cls-29{letter-spacing:-0.01em;}</style><linearGradient id="linear-gradient" x1="247.3" y1="-5.11" x2="247.3" y2="92.08" gradientTransform="matrix(1, 0, 0, -1, -149.42, 245.5)" gradientUnits="userSpaceOnUse"><stop offset="0" stop-color="gray" stop-opacity="0.25"/><stop offset="0.54" stop-color="gray" stop-opacity="0.12"/><stop offset="1" stop-color="gray" stop-opacity="0.1"/></linearGradient></defs><title>why-6</title><rect class="cls-1" width="199" height="300"/><rect class="cls-2" x="150.99" y="195.7" width="9.32" height="4.84"/><rect class="cls-2" x="151.7" y="201.61" width="9.32" height="4.84"/><rect class="cls-2" x="144" y="160.59" width="9.32" height="4.84"/><rect class="cls-2" x="150.63" y="166.14" width="9.32" height="4.84"/><rect class="cls-2" x="132.71" y="160.95" width="9.32" height="4.84"/><rect class="cls-2" x="162.63" y="171.7" width="9.32" height="4.84"/><rect class="cls-2" x="151.34" y="172.05" width="9.32" height="4.84"/><rect class="cls-2" x="139.34" y="166.5" width="9.32" height="4.84"/><rect class="cls-2" x="162.09" y="208.96" width="9.32" height="4.84"/><rect class="cls-2" x="150.81" y="209.32" width="9.32" height="4.84"/><path class="cls-3" d="M38.6,194.45a31.35,31.35,0,0,1,5.72,32.61C36.9,246.53,57,279,57,279l-.61-.1C29.44,274.09,16,243.24,31,220.34,36.61,211.81,41.19,201.82,38.6,194.45Z" transform="translate(-1)"/><path class="cls-4" d="M38.6,194.45s7.41,16.09,0,29.22S37.33,273.66,57,279" transform="translate(-1)"/><path class="cls-3" d="M15.21,247.56s15-2.39,16.35,11,28.81,15.29,28.81,15.29l-.51.34C37.19,289.1,15.53,283.7,18.8,264,20,256.61,19.91,249.23,15.21,247.56Z" transform="translate(-1)"/><path class="cls-5" d="M15.21,247.56s15-2.39,16.35,11,28.81,15.29,28.81,15.29l-.51.34C37.19,289.1,15.53,283.7,18.8,264,20,256.61,19.91,249.23,15.21,247.56Z" transform="translate(-1)"/><path class="cls-4" d="M15.21,247.56s11.63,2.55,10.67,13.12,17.28,23.26,34.49,13.21" transform="translate(-1)"/><rect class="cls-2" x="14.29" y="195.88" width="9.32" height="4.84"/><rect class="cls-2" x="20.91" y="201.44" width="9.32" height="4.84"/><rect class="cls-2" x="71.26" y="145" width="9.32" height="4.84"/><rect class="cls-2" x="144.71" y="234.22" width="9.32" height="4.84"/><rect class="cls-2" x="21.63" y="207.35" width="9.32" height="4.84"/><rect class="cls-2" x="77.89" y="150.55" width="9.32" height="4.84"/><rect class="cls-2" x="43.85" y="183.34" width="9.32" height="4.84"/><rect class="cls-2" x="50.48" y="188.89" width="9.32" height="4.84"/><rect class="cls-2" x="68.21" y="185.85" width="9.32" height="4.84"/><rect class="cls-2" x="51.19" y="194.81" width="9.32" height="4.84"/><rect class="cls-2" x="157.26" y="234.22" width="9.32" height="4.84"/><path class="cls-6" d="M144.29,215.07a72.24,72.24,0,0,1-1.11-10.16h0a13.62,13.62,0,0,0-9.58-12.43c-1-.3-2.06-.58-3.24-.83-10.43-2.22-13.6-.28-14,0a13.38,13.38,0,0,1-.79-1.72l-.06-.18a13.29,13.29,0,0,0,3.57-8,8.83,8.83,0,0,0,2.76-6.19,8.53,8.53,0,0,0-2.07-5.42V167a13.54,13.54,0,0,0-13.54-13.54h-1.1A13.54,13.54,0,0,0,91.63,167h0v3.36a8.41,8.41,0,0,0-1.87,5.17,8.73,8.73,0,0,0,2.65,6.07,13.36,13.36,0,0,0,3.71,8.3c.08.51.15,1.06.23,1.63l-18.66,3.94s-7.19.3-11.82,9.86c-3.92,8.09-11.72,28.89-14,35.09h0l-.65,1.76.22-.21-.22.61a4.33,4.33,0,0,1,.33-.31c-.33,2.59-.37,7,3,7.6,2.84.46,10.18.65,15.71.73h.39c3.67.05,6.46.05,6.46.05v-.05h59.56V250a4.08,4.08,0,0,0-.33-1.62l.09-.1a3.35,3.35,0,0,1,.61,1.44.77.77,0,0,1,0,.15l0-.09a1.55,1.55,0,0,1,0,.48s7.64-19.69,7.55-31.44A19.92,19.92,0,0,0,144.29,215.07ZM96.65,194.15a13.64,13.64,0,0,1-.18-1.69v0C96.53,193,96.6,193.57,96.65,194.15ZM73.5,236.44v4.7l-2.93.63Z" transform="translate(-1)"/><path class="cls-7" d="M105.42,155.31h0A13.54,13.54,0,0,1,119,168.85v5.78H91.88v-5.78A13.54,13.54,0,0,1,105.42,155.31Z" transform="translate(-1)"/><ellipse class="cls-7" cx="104.51" cy="176.52" rx="15.43" ry="10.6"/><path class="cls-8" d="M95.62,186.8s3.22,16.85,0,21.4,9.85,6.34,9.85,6.34L119,209.62l1.89-12.12s-8.24-4.64-6.53-14Z" transform="translate(-1)"/><path class="cls-8" d="M135.58,243.61s.85,3.69-3.79,4.35a26.31,26.31,0,0,1-8.26-.09l-1-9.28H133.3Z" transform="translate(-1)"/><path class="cls-8" d="M53.64,238.88s-2,8.33,2.59,9.08,21.68.76,21.68.76v-9.85l-7.72,1.65-7.24-7Z" transform="translate(-1)"/><path class="cls-9" d="M96.62,192.24l-18.14,3.84s-6.91.28-11.36,9.46S53,241,53,241s8.24-8.34,17.9.56l6.44-11.64-1.42,18.46h49.89v-8.71s10.41,5.59,9.66,8.71c0,0,8.91-23,7-33.4a71.21,71.21,0,0,1-1.06-9.76h0a13.09,13.09,0,0,0-9.2-12c-.94-.29-2-.56-3.12-.8-10.7-2.27-13.44,0-13.44,0s-2.07,6.74-2,9.8c0,3.93-5.59,6.54-5.59,6.54s-8.33-2-8.71-3.6S96,194.14,96.62,192.24Z" transform="translate(-1)"/><path class="cls-10" d="M96.62,191.86,78.48,195.7s-6.91.28-11.36,9.47S53,240.58,53,240.58s8.24-8.33,17.9.57l6.43-11.64L75.92,248h49.9v-8.71s10.41,5.59,9.66,8.71c0,0,8.91-23,7-33.4a71,71,0,0,1-1.06-9.76h0a13.09,13.09,0,0,0-9.2-12c-.94-.28-2-.55-3.12-.8-10.7-2.27-13.44,0-13.44,0s-2.07,6.75-2,9.8c0,3.93-5.59,6.54-5.59,6.54s-8.33-2-8.71-3.6S96,193.76,96.62,191.86Z" transform="translate(-1)"/><path class="cls-9" d="M115.14,191.06a12.81,12.81,0,0,1-.49-6.72L95.9,187.65s.27,1.42.58,3.54a12.87,12.87,0,0,0,18.2.34l.46-.47Z" transform="translate(-1)"/><path class="cls-8" d="M118.34,181.4a12.88,12.88,0,0,1-25.75.31v-.31a12.87,12.87,0,0,1,7.22-11.57,12.52,12.52,0,0,1,1.19-.51,13,13,0,0,1,6.63-.62h0a12.87,12.87,0,0,1,10.68,11.85C118.33,180.83,118.34,181.11,118.34,181.4Z" transform="translate(-1)"/><g class="cls-11"><path d="M101,169.62h0a11.51,11.51,0,0,0-1.19.51,12.87,12.87,0,0,0-7.22,11.57V182a2.94,2.94,0,0,0,1.16-.27c3.13-1.47,5-5.95,5.76-9.08C99.78,171.53,100,170.27,101,169.62Z" transform="translate(-1)"/><path d="M110.84,170a12.42,12.42,0,0,0-3.21-1,4,4,0,0,1,2.3,1.44,6.19,6.19,0,0,1,.71,1.25,12.93,12.93,0,0,0-10.83.23c.8,1.77,3.31,2.73,5,3.38q2.76,1.06,5.56,1.94l-1.66-1.34,3.74.59a6.54,6.54,0,0,0-.26-2.2,22.43,22.43,0,0,0,2.44,1.25c1.46.92,2.07,2.69,2.86,4.22a2.8,2.8,0,0,0,.84,1.08A12.89,12.89,0,0,0,110.84,170Z" transform="translate(-1)"/></g><path class="cls-12" d="M101,169.33h0a11.51,11.51,0,0,0-1.19.51,12.87,12.87,0,0,0-7.22,11.57v.31a2.79,2.79,0,0,0,1.16-.28c3.13-1.46,5-5.94,5.76-9.07C99.78,171.25,100,170,101,169.33Z" transform="translate(-1)"/><path class="cls-12" d="M110.84,169.69a12.85,12.85,0,0,0-3.21-1,4.12,4.12,0,0,1,2.3,1.45,6.19,6.19,0,0,1,.71,1.25,12.93,12.93,0,0,0-10.83.23c.8,1.77,3.31,2.73,5,3.38q2.76,1.06,5.56,1.94l-1.66-1.34,3.74.59a6.54,6.54,0,0,0-.26-2.2,22.43,22.43,0,0,0,2.44,1.25c1.46.92,2.07,2.69,2.86,4.22a2.8,2.8,0,0,0,.84,1.08A12.89,12.89,0,0,0,110.84,169.69Z" transform="translate(-1)"/><path class="cls-9" d="M91.12,179.28s13.26-16.49,28.6,0l-1.33-3.7s-7.2-10.5-12.31-8.24S96,171.23,96,171.23Z" transform="translate(-1)"/><path class="cls-7" d="M91.12,179s13.26-16.49,28.6,0l-1.33-3.7s-7.2-10.51-12.31-8.24S96,170.93,96,170.93Z" transform="translate(-1)"/><path class="cls-9" d="M80.23,214.49s-2.84,7.58,1.14,14.4-3.51,9.65-3.51,9.65" transform="translate(-1)"/><path class="cls-9" d="M126.25,207.68s4.92,6.25,1.7,11.83-3,19-3,19" transform="translate(-1)"/><path class="cls-13" d="M75.88,244.13H130.6a4.55,4.55,0,0,1,4.55,4.55H71.33A4.55,4.55,0,0,1,75.88,244.13Z" transform="translate(-1)"/><path class="cls-13" d="M81.44,212.88H125a7,7,0,0,1,7,7v25.3H74.46v-25.3A7,7,0,0,1,81.44,212.88Z" transform="translate(-1)"/><circle class="cls-14" cx="102.19" cy="230.45" r="3.41"/><path class="cls-15" d="M91.88,171.55s13-13,27.08-.24" transform="translate(-1)"/><rect class="cls-16" x="119.94" y="170.72" width="1.31" height="7.42"/><path class="cls-17" d="M119.2,175.52h0a4.5,4.5,0,0,1,4.5,4.51v.29a4.5,4.5,0,0,1-4.5,4.51h0v-9.31Z" transform="translate(-1)"/><path class="cls-16" d="M119.34,175.08h0a1,1,0,0,1,1,1v8.15a1,1,0,0,1-1,1h0a1,1,0,0,1-1-1V176.1A1,1,0,0,1,119.34,175.08Z" transform="translate(-1)"/><rect class="cls-16" x="87.45" y="170.87" width="1.31" height="7.42"/><path class="cls-17" d="M91.51,185h0A4.51,4.51,0,0,1,87,180.46v-.29a4.5,4.5,0,0,1,4.51-4.5h0V185Z" transform="translate(-1)"/><path class="cls-16" d="M91.36,185.41h0a1,1,0,0,1-1-1v-8.14a1,1,0,0,1,1-1h0a1,1,0,0,1,1,1v8.14A1,1,0,0,1,91.36,185.41Z" transform="translate(-1)"/><path class="cls-17" d="M120.79,162.8c-1.77-3.69-5.63-8.14-14-8.5h-.1l-2.95.14v0c-8.26.38-12.1,4.81-13.87,8.48a19.08,19.08,0,0,0-1.83,8l1,0,1,0a17.37,17.37,0,0,1,1.66-7.08c2.24-4.61,6.37-7.06,12.27-7.28h0l2.6-.15h0c5.9.23,10,2.68,12.27,7.28a17.26,17.26,0,0,1,1.66,7.09l1,0,1,0A19.16,19.16,0,0,0,120.79,162.8Z" transform="translate(-1)"/><rect class="cls-18" x="27.48" y="248.73" width="138.8" height="37.27"/><rect class="cls-9" x="27.48" y="251.24" width="138.8" height="4.84"/><rect class="cls-18" x="18.17" y="248.2" width="157.42" height="4.84"/><path class="cls-19" d="M392,280.16c0,7.71-41.64,13.95-93,13.95s-93-6.24-93-13.95c0-5.45,20.87-10.18,51.29-12.47,12.54-.95,26.71-1.48,41.71-1.48,6.16,0,12.19.09,18,.26C359.76,267.73,392,273.38,392,280.16Z" transform="translate(-1)"/><ellipse class="cls-9" cx="286" cy="278.66" rx="35.7" ry="4.35"/><ellipse class="cls-19" cx="285.85" cy="245.81" rx="33.75" ry="36"/><rect class="cls-3" x="275.5" y="267.11" width="21" height="19.2"/><polygon class="cls-20" points="323.95 271.76 322.75 278.36 330.55 279.56 335.65 276.56 335.35 271.76 323.95 271.76"/><path class="cls-21" d="M285.65,147.86s-.6,6.9-2.1,7.2,3.3,12.3,3.3,12.3h7.2l5.7-1.5-2.7-6.6s-3.6-4.8-.9-8.7S285.65,147.86,285.65,147.86Z" transform="translate(-1)"/><path class="cls-9" d="M285.65,147.86s-.6,6.9-2.1,7.2,3.3,12.3,3.3,12.3h7.2l5.7-1.5-2.7-6.6s-3.6-4.8-.9-8.7S285.65,147.86,285.65,147.86Z" transform="translate(-1)"/><path class="cls-22" d="M270.65,200.66s-7.8,15-1.5,18,7.8,2.7,7.8,3.6-1.2.6-.6,2.1-1.2,7.5.6,11.1a10.26,10.26,0,0,1,1.2,6.3,4.85,4.85,0,0,0,.6,1.5c.6,1.2.9,2.1.6,2.7s-2.1,4.5-.3,5.4,11.1,1.5,12,0-.9-2.4,0-3.3,1.5-1.2.9-1.8-1.2-8.1-1.2-8.1,1.5-8.7.9-9.9-1.5-2.4-.9-3.3,1.2-.6,1.5-1.8.9-3.9.9-3.9l3.3-.3,7.8,1.5s8.7,9.6,18.3,12.6c0,0,2.7,2.7,3.6,2.7s.9,0,.6.6-1.2.6-.6,1.2,1.5-.3.9.6-1.2.9-.6,1.5-.3,3.9-.3,4.2-2.7,28.5-1.8,29.1,13.5,2.4,14.4,0-.6-5.4-.6-5.4,4.5-36,3.3-38.4-5.4-13.2-27.9-20.1c0,0-6.3-1.2-6.3-2.1s-.6-6.6-1.8-6.9-8.1-.6-8.1-.6l-8.7,2.7-12-2.1Z" transform="translate(-1)"/><path class="cls-22" d="M281.15,251.06l-1.5,5.4s-1.2,8.7.3,10.8a9.45,9.45,0,0,0,7.18,4,4.83,4.83,0,0,0,5-3.34,1.59,1.59,0,0,0,.08-.39c0-.6-.9-7.8-.9-7.8l-1.5-7.5-.3-2.1Z" transform="translate(-1)"/><path class="cls-22" d="M325,276.86s-1.5-1.5-1.8,0-1.5,7.8.6,8.1,22.2,3.3,24.3,2.1,6-3,3.6-3.9-9.3-3.6-9.3-3.6-3.9-5.1-4.5-5.4-3.9.3-5.4,1.5S325,276.86,325,276.86Z" transform="translate(-1)"/><circle class="cls-21" cx="291.85" cy="144.86" r="9.3"/><path class="cls-20" d="M292,165.86l-3.6-3.9-4-7.8s-2.91-.9-3.51.6-11.4,6.3-11.4,6.3,2.7,25.2,1.5,27.6-3.3,12-1.5,12.9,10.2,0,12.9,1.2,10.5,1.2,12.6-.3,2.7-2.7,4.8-1.8c1.79.77,6-25.42,7.17-33.23a3.53,3.53,0,0,0-1.47-3.45c-2.69-1.89-7.54-5.15-8.4-4.72C295.85,159.86,292,165.86,292,165.86Z" transform="translate(-1)"/><path class="cls-20" d="M304.85,164.66h0a3.55,3.55,0,0,1,2.67,3.06L310,189.56s-6,12.9-9,4.2S304.85,164.66,304.85,164.66Z" transform="translate(-1)"/><path class="cls-20" d="M304.25,191.66l6.6-1.8s1.2,8.4,2.4,8.4-4.2,4.8-6.9,4.2-6.6-2.7-6.9-4.2,2.7-7.8,2.7-7.8Z" transform="translate(-1)"/><path class="cls-22" d="M285.83,148.88c.63-1.4.52-3,1-4.46a5.33,5.33,0,0,1,6.82-3.19,5.51,5.51,0,0,1,1.27.67c.67.48,1.35,1.15,2.17,1.06s1.67-1.08,2.48-.72.66,2,1.57,2.39a1.17,1.17,0,0,0,1.33-.55,3.36,3.36,0,0,0,.38-1.49,7.14,7.14,0,0,0-.31-3.79,10,10,0,0,1-.61-1.23,4.11,4.11,0,0,1-.11-1.21A8.69,8.69,0,0,0,301,132a6.3,6.3,0,0,0-4-2.77,15.39,15.39,0,0,0-5-.2c-2.75.23-5.61.73-7.78,2.44a3.13,3.13,0,0,0-.75.79,4.24,4.24,0,0,0-.4,1.15,23.31,23.31,0,0,1-2.09,5.48,12,12,0,0,0-1.07,2.33,3,3,0,0,0,.26,2.48,9.29,9.29,0,0,0,1.51,1.36c.49.47.72,1.37,1.26,1.72s1,.09,1.51.42S285.1,148.54,285.83,148.88Z" transform="translate(-1)"/><path class="cls-23" d="M293.45,170.36l.9-1.8s13.2,3.9,15.9,7.5c0,0,6.6-4.2,10.2-3.6l3.6.6L313,183l-14.1-1.2Z" transform="translate(-1)"/><path class="cls-3" d="M292.85,168.56l-12.3,17.1,17.7,8.7a3,3,0,0,0,2.93,0L313,189l11.1-15.9-11.1,5.7a2.63,2.63,0,0,0-3.6-1.2Z" transform="translate(-1)"/><path class="cls-21" d="M311.75,198.86l2.4-6.3s5.4-6.9,2.4-10.2-6.3,9.6-6.3,9.6Z" transform="translate(-1)"/><path class="cls-21" d="M284.06,197.86l5.24-4.25s8.13-3.26,7.19-7.62-10.27,5.15-10.27,5.15Z" transform="translate(-1)"/><path class="cls-9" d="M271.1,167.51h-.3s-4.65-5.55-5.55,2-3.9,32.4,3.9,33.3A19,19,0,0,0,282.5,199s5.7-8.7,3.6-8.7a58.11,58.11,0,0,0-6.3-.3c-2.69.17-5.1.93-4.95.15C275.15,188.66,279.5,169.61,271.1,167.51Z" transform="translate(-1)"/><path class="cls-20" d="M270.65,161.66l-1.2-.6s-4.8.9-5.7,8.4-3.9,32.4,3.9,33.3,18.3-1.2,18.3-1.2,2.1-11.4,0-11.4-12.9,1.5-12.6,0S279.05,163.76,270.65,161.66Z" transform="translate(-1)"/><polygon class="cls-20" points="306.4 195.41 309.71 190.34 311.8 198.71 306.4 201.11 306.4 195.41"/><text class="cls-24" transform="translate(216.36 45.49)">DESIGNER</text><text class="cls-24" transform="translate(3.36 73.49)">D<tspan class="cls-25" x="24.78" y="0">E</tspan><tspan class="cls-26" x="44.61" y="0">V</tspan><tspan x="66.54" y="0">E</tspan><tspan class="cls-27" x="86.67" y="0">L</tspan><tspan class="cls-28" x="104.43" y="0">O</tspan><tspan class="cls-29" x="129.75" y="0">P</tspan><tspan x="151.41" y="0">ER</tspan></text></svg>