<svg id="Layer_1" data-name="Layer 1" xmlns="http://www.w3.org/2000/svg" viewBox="0 0 348.99 191.79"><defs><style>.cls-1{fill:#f2f2f2;}.cls-2{fill:#3f3d56;}.cls-3{fill:#192534;}.cls-4{fill:#202f42;}.cls-5{opacity:0.1;isolation:isolate;}.cls-6{fill:#fbbebe;}.cls-7{fill:#6c63ff;}.cls-8{fill:#01e7c0;}.cls-9{fill:#464a5f;}</style></defs><title>why-9</title><path class="cls-1" d="M147,181a11.13,11.13,0,0,1,1.45-1.92,1.88,1.88,0,0,1-.23.16,3.78,3.78,0,0,0-1,.64,1.89,1.89,0,0,0-.36.85l-.86,3.32.51-.62A5.81,5.81,0,0,1,147,181Z" transform="translate(-27.01 -61.43)"/><path class="cls-1" d="M227.65,183.29a3.77,3.77,0,0,1-.34,1.08,14.72,14.72,0,0,1-.57,4.17,14.48,14.48,0,0,0-.35,1.74c-.79,5.41-1.55,11.06-.2,16.3a2,2,0,0,1,.51-.84,8.7,8.7,0,0,0,1.51-3.91c1.39-7.31,1-14.77.67-22.23a2.42,2.42,0,0,0-.73-.55,6.29,6.29,0,0,1,0,1A32.58,32.58,0,0,1,227.65,183.29Z" transform="translate(-27.01 -61.43)"/><path class="cls-1" d="M180.65,181.05a3.28,3.28,0,0,0-.26-1.27,3.82,3.82,0,0,0-.65-.9l-.72-.82c-.37,8.75-1.16,17.53.47,26.1a8.66,8.66,0,0,0,1.51,3.91,2,2,0,0,1,.51.84c1.34-5.23.59-10.89-.2-16.3a14.48,14.48,0,0,0-.35-1.74,16.44,16.44,0,0,1-.41-6.73A16,16,0,0,0,180.65,181.05Z" transform="translate(-27.01 -61.43)"/><path class="cls-1" d="M184.8,162.58a23,23,0,0,1,2.12,5.29l.23.78q-.17-4-.19-8l-1.58,1.38Z" transform="translate(-27.01 -61.43)"/><path class="cls-1" d="M192.59,251.92a17.78,17.78,0,0,0-.42-5.54,16.05,16.05,0,0,1-.79-3.46,10.26,10.26,0,0,1,.28-2.34c1.38-7,2-14.38-.11-21.21-.56-1.83-1.3-3.6-1.87-5.42a12.87,12.87,0,0,1-1,2,2,2,0,0,0-1.14-1.34,6.29,6.29,0,0,1,0,1,32.58,32.58,0,0,1-.47,3.27,3.15,3.15,0,0,1-.41,1.22,2.74,2.74,0,0,1-1.08.89c.2.44.39.88.58,1.34l-1.4.4c.92,2,.16,4.3-.33,6.44-1.75,7.44-.18,15.38-1,22.9Z" transform="translate(-27.01 -61.43)"/><path class="cls-1" d="M187.52,145.52a12.17,12.17,0,0,1,1.45-1.93l-.23.17a3.75,3.75,0,0,0-1,.63,2.11,2.11,0,0,0-.36.86l-.86,3.32.51-.63A5.92,5.92,0,0,1,187.52,145.52Z" transform="translate(-27.01 -61.43)"/><path class="cls-1" d="M221.2,145.53a3.33,3.33,0,0,0-.26-1.28,3.77,3.77,0,0,0-.65-.89l-.72-.83c-.36,8.63-1.13,17.27.41,25.72l.81-2.74a28.52,28.52,0,0,1,1.62-4.39c-.16-1.34-.36-2.7-.55-4a13.4,13.4,0,0,0-.35-1.74,16.44,16.44,0,0,1-.41-6.73A15.1,15.1,0,0,0,221.2,145.53Z" transform="translate(-27.01 -61.43)"/><path class="cls-1" d="M206.59,211.41l-1.15,40.37,3,0a128.16,128.16,0,0,1-.73-14.79,21.28,21.28,0,0,0-.24-4.3c-.21-1-.58-1.92-.78-2.91a17.06,17.06,0,0,1-.23-3.57Z" transform="translate(-27.01 -61.43)"/><path class="cls-1" d="M180.67,211.43c0-.11.09-.22.14-.33.15-.41.29-.83.42-1.24l0,0c-.27.43-.56.85-.85,1.26Z" transform="translate(-27.01 -61.43)"/><path class="cls-1" d="M89.49,166.31a3.33,3.33,0,0,0-.26-1.28,3.77,3.77,0,0,0-.65-.89l-.72-.83c-.37,8.75-1.16,17.53.47,26.11a8.75,8.75,0,0,0,1.51,3.91,1.9,1.9,0,0,1,.51.83c1.34-5.22.59-10.89-.2-16.3a11.63,11.63,0,0,0-.34-1.74,16.61,16.61,0,0,1-.42-6.73A15.85,15.85,0,0,0,89.49,166.31Z" transform="translate(-27.01 -61.43)"/><path class="cls-1" d="M89.51,196.68l.14-.33c.15-.41.29-.82.43-1.24l0,0c-.27.44-.55.85-.85,1.27Z" transform="translate(-27.01 -61.43)"/><path class="cls-1" d="M74.88,232.19l-.6,21,1.44,0c-.22-.89-.54-1.76-.72-2.66a17.05,17.05,0,0,1-.22-3.57Z" transform="translate(-27.01 -61.43)"/><path class="cls-1" d="M96.41,252.43a2.83,2.83,0,0,1-1.08-.89,3.14,3.14,0,0,1-.41-1.23,32.39,32.39,0,0,1-.47-3.26,6.39,6.39,0,0,1,0-1,2.08,2.08,0,0,0-1.14,1.35,15.78,15.78,0,0,1-1.89-5.62c-.1.34-.2.71-.33,1.06-.7,2.07-1.71,4.08-1.91,6.26a12.27,12.27,0,0,0,.33,3.91l6.66-.07Z" transform="translate(-27.01 -61.43)"/><path class="cls-1" d="M100.79,241.36c.13.42.27.83.43,1.24l.13.33.31-.25c-.29-.42-.58-.83-.85-1.27Z" transform="translate(-27.01 -61.43)"/><path class="cls-1" d="M148.8,248.33a41.24,41.24,0,0,1-1-6.07l-1.59-14.74c0-.13,0-.26-.05-.39l-.06.19a10.39,10.39,0,0,1-2,3.17c-.8,1-1.8,2-3,1.71a3.17,3.17,0,0,1-1.27-.79l-2.68-2.32c-.53-.45-1.06-.91-1.58-1.38,0,3.24-.1,6.47-.27,9.7a6.9,6.9,0,0,1-.62,3,34.05,34.05,0,0,1,1.63,9.5c0,.87,0,1.74,0,2.62l7.85-.08h.05l5.91-.07A39.69,39.69,0,0,1,148.8,248.33Z" transform="translate(-27.01 -61.43)"/><path class="cls-1" d="M135.53,215l.51.63-.86-3.31a2.11,2.11,0,0,0-.36-.86,3.9,3.9,0,0,0-1-.63l-.22-.17a12.17,12.17,0,0,1,1.45,1.93A5.87,5.87,0,0,1,135.53,215Z" transform="translate(-27.01 -61.43)"/><path class="cls-1" d="M145.25,200.25c.21,2.32.33,4.66.45,7s.24,4.62.35,6.92a35.25,35.25,0,0,1,1.24-5.26,7.14,7.14,0,0,1-.62-3c-.16-3.23-.24-6.46-.26-9.69-.51.45-1,.9-1.56,1.34A18.63,18.63,0,0,1,145.25,200.25Z" transform="translate(-27.01 -61.43)"/><path class="cls-1" d="M100.72,224.13c-.79,5.41-1.55,11.06-.2,16.3a2,2,0,0,1,.51-.84,8.7,8.7,0,0,0,1.51-3.91c1.63-8.57.84-17.35.48-26.11l-.72.83a4.1,4.1,0,0,0-.67.88,3.43,3.43,0,0,0-.27,1.26,15.85,15.85,0,0,0,.1,3.08,16.54,16.54,0,0,1-.4,6.75A14.78,14.78,0,0,0,100.72,224.13Z" transform="translate(-27.01 -61.43)"/><path class="cls-1" d="M221.91,251.6l2.63,0c-1.4-8.07.62-16.73-1.28-24.8a26,26,0,0,1-.77-3.85,21.48,21.48,0,0,0-1.61,5.42c-.3,3.26,1.23,6.39,1.8,9.61.79,4.45-.28,9-.75,13.47C221.92,251.5,221.92,251.54,221.91,251.6Z" transform="translate(-27.01 -61.43)"/><path class="cls-1" d="M312.26,247.55c-3-9.07,0-19.18-2.2-28.48-.51-2.14-1.27-4.45-.33-6.45l-1.4-.42.58-1.34a3.24,3.24,0,0,1-.75-.52l-1,9.46a41.66,41.66,0,0,1-1,6.07c-.58,2.23-1.52,4.35-2.2,6.55-1.8,5.89-1.6,12.17-.63,18.28l10.06-.11C313,249.59,312.61,248.58,312.26,247.55Z" transform="translate(-27.01 -61.43)"/><path class="cls-1" d="M307.56,157.91l0-.1.12-.39a4.44,4.44,0,0,0-.95-.59l-.22-.17C306.87,157.08,307.24,157.48,307.56,157.91Z" transform="translate(-27.01 -61.43)"/><path class="cls-1" d="M273.72,187.4c.13.42.27.83.43,1.24,0,.11.09.22.14.34a3.88,3.88,0,0,1,.31-.26c-.3-.41-.59-.83-.85-1.27Z" transform="translate(-27.01 -61.43)"/><path class="cls-1" d="M315,194.12a73.6,73.6,0,0,0,.91-16.39,2.11,2.11,0,0,1-1.83.52H314a14.4,14.4,0,0,1-.48,2.59,12.79,12.79,0,0,0-.36,1.74c-.79,5.41-1.55,11.06-.2,16.3a2,2,0,0,1,.51-.84A8.55,8.55,0,0,0,315,194.12Z" transform="translate(-27.01 -61.43)"/><path class="cls-1" d="M166,252.2c0-1.75,0-3.51,0-5.27-.06,1.76-.1,3.52-.15,5.28Z" transform="translate(-27.01 -61.43)"/><path class="cls-1" d="M374.85,106.82c-.22-1.27-.48-2.51-.79-3.73C370.81,90,363.2,79.46,349.26,73.78c-1.2-.48-2.44-.93-3.73-1.34a64,64,0,0,0-9-2.15c-29.23-4.88-53.82-2.56-76,1.85-1.25.25-2.49.5-3.73.77-31.07,6.56-57.52,16.73-85.75,15.84-1.24,0-2.48-.09-3.73-.17a105.55,105.55,0,0,1-38.6-10.24c-16.07-7.57-32.41-5-47.15,4a92.77,92.77,0,0,0-23.1,20.78l0,0q-1.47,1.82-2.89,3.69C32.93,136.94,20.34,182,30.66,216.89c.37,1.26.78,2.5,1.21,3.73A67.39,67.39,0,0,0,45.38,243.7,29,29,0,0,0,58.48,252a25.49,25.49,0,0,0,2.64.67,35.47,35.47,0,0,0-1.28-12.52c-.67-2.2-1.62-4.32-2.2-6.55a41.45,41.45,0,0,1-1-6.07l-1.59-14.75a64.9,64.9,0,0,1-.58-9.13,34.11,34.11,0,0,1,1.63-9.5,6.84,6.84,0,0,1-.62-3c-.17-3.23-.25-6.46-.27-9.69l-1.58,1.37L51,185.16a3.17,3.17,0,0,1-1.27.79c-1.18.28-2.22-.76-3-1.7a11.07,11.07,0,0,1-2-3.18,10,10,0,0,1-.37-3.4c0-1.47.1-2.94.18-4.41L45.16,161c.12-2.34.24-4.67.45-7a11.28,11.28,0,0,1,1.23-4.81c1.62-2.68,5.09-3.61,8.25-3.39a1.13,1.13,0,0,1,0-1,1.71,1.71,0,0,1,.81-.67l4.65-2.49a2.65,2.65,0,0,1,1.09-.39,1.25,1.25,0,0,1,.6.13l.9-.63a2.2,2.2,0,0,1,.67-.37,1.57,1.57,0,0,1,.91,0,3.64,3.64,0,0,0,.39-1.45,5,5,0,0,0-.4-1.83,8.83,8.83,0,0,1-3.5-7c-1-.56-2.3-.88-2.71-2.07-.28-.8.05-1.7-.06-2.54a2.22,2.22,0,0,1-.5-.78c-.28-.84.09-1.77-.06-2.64a3.77,3.77,0,0,1-.24-1.43,2.14,2.14,0,0,1,.53-.89l3.29-3.9a8.56,8.56,0,0,1,2.48-2.25c2.39-1.23,5.26,0,8,0a8.27,8.27,0,0,1,2.68.15,5.39,5.39,0,0,1,1.65,1l3.69,3c1.24,1,2.58,2.2,2.7,3.8a3.46,3.46,0,0,1-.21,1.42,3.65,3.65,0,0,1,.76,1.9,5.05,5.05,0,0,1-1.07,3.08,16.1,16.1,0,0,1-3.35,3.64A8.82,8.82,0,0,1,76.59,136a27.67,27.67,0,0,0,1,3.46.08.08,0,0,1,0,0,1.73,1.73,0,0,1,.88.31,4.54,4.54,0,0,1,.72.67,1,1,0,0,1,.49-.41,2,2,0,0,1,1.54.25,15.62,15.62,0,0,1,4.18,2.45,5.49,5.49,0,0,1,1.1,1.39,6.87,6.87,0,0,1,4.83,1.09c2.53,1.74,3.57,4.91,4.46,7.85l2,6.6a40.68,40.68,0,0,1,1.94,8.82,40.32,40.32,0,0,1-.57,8.2c-.52,3.76.7,7.89.72,11.69,0,1,0,2,0,3a6.85,6.85,0,0,1,4.57-1,5.68,5.68,0,0,1,1.09-1.39,16.14,16.14,0,0,1,4.19-2.46,2,2,0,0,1,1.54-.24,1.07,1.07,0,0,1,.49.4,5.1,5.1,0,0,1,.72-.67,1.72,1.72,0,0,1,.87-.3l0-.06a27.52,27.52,0,0,0,1-3.45,8.76,8.76,0,0,1-2.12-4.27,16,16,0,0,1-3.35-3.63,5,5,0,0,1-1.07-3.09,3.69,3.69,0,0,1,.76-1.9,3.41,3.41,0,0,1-.21-1.42c.12-1.59,1.46-2.79,2.7-3.8l3.68-3a5.59,5.59,0,0,1,1.66-1.06,8.27,8.27,0,0,1,2.68-.15c2.68,0,5.55-1.22,8,0a8.68,8.68,0,0,1,2.47,2.25l3.3,3.91a2.08,2.08,0,0,1,.53.89,3.89,3.89,0,0,1-.24,1.42c-.15.88.22,1.81-.07,2.65a2.06,2.06,0,0,1-.49.78c-.12.84.22,1.73-.06,2.54-.41,1.18-1.7,1.5-2.71,2.06a8.85,8.85,0,0,1-3.5,6.95,5,5,0,0,0-.4,1.83,3.68,3.68,0,0,0,.39,1.45,1.57,1.57,0,0,1,.91,0,2.17,2.17,0,0,1,.67.36l.9.63a1.24,1.24,0,0,1,.6-.12,2.5,2.5,0,0,1,1.09.38l4.65,2.49a3.33,3.33,0,0,1,.57.38c0-.9.08-1.8.13-2.71l.65-12.24c.12-2.35.24-4.67.45-7A11.1,11.1,0,0,1,138,164c1.62-2.68,5.09-3.62,8.25-3.39a1.15,1.15,0,0,1,0-1,1.72,1.72,0,0,1,.81-.67l4.65-2.49a2.5,2.5,0,0,1,1.09-.38,1.24,1.24,0,0,1,.6.12l.9-.63a2.17,2.17,0,0,1,.67-.36,1.57,1.57,0,0,1,.91,0,3.68,3.68,0,0,0,.39-1.45,5,5,0,0,0-.4-1.83,8.85,8.85,0,0,1-3.5-7c-1-.56-2.3-.88-2.71-2.06-.28-.81.05-1.7-.06-2.54a2.22,2.22,0,0,1-.5-.78c-.28-.84.09-1.77-.06-2.65a9,9,0,0,1-.26-1.14,9.67,9.67,0,0,0-.84,2.17c-.47,1.9-.38,3.89-.67,5.83a2.34,2.34,0,0,1-.85,1.73,8.43,8.43,0,0,1-1.48.45,2.53,2.53,0,0,0-1.34,2.06,20.05,20.05,0,0,0,0,2.57,6.46,6.46,0,0,1-3,5.65c-2.58,1.44-5.78.49-8.57-.49a7.56,7.56,0,0,0,3.2-2.22l-3.06-.62a19.93,19.93,0,0,0,4.88-3.24,4.28,4.28,0,0,0,1.25-1.64c.33-.94,0-2,.33-2.95.52-1.61,2.5-2.22,3.5-3.58a7,7,0,0,0,.91-4.26l0-5.62c0-1.62.11-3.49,1.4-4.47,1.44-1.09,3.47-.47,5.28-.48s3.73-.79,5.62-1,4.78,1.05,4.73,2.47a21.78,21.78,0,0,0,3,.32,8.27,8.27,0,0,1,2.68.15,5.39,5.39,0,0,1,1.65,1.05l3.69,3c1.24,1,2.58,2.2,2.68,3.8a3.46,3.46,0,0,1-.21,1.42,3.65,3.65,0,0,1,.76,1.9,5,5,0,0,1-1.07,3.08,16.1,16.1,0,0,1-3.35,3.64,8.73,8.73,0,0,1-2.12,4.26,27.06,27.06,0,0,0,.95,3.45l0,.06a1.73,1.73,0,0,1,.87.31,4.15,4.15,0,0,1,.72.67,1,1,0,0,1,.49-.41,2,2,0,0,1,1.54.25,18.72,18.72,0,0,1,3.69,2v-.2c0-1.48.1-2.94.17-4.41l.67-12.27c.12-2.34.25-4.67.46-7a11,11,0,0,1,1.22-4.8c1.62-2.69,5.09-3.62,8.25-3.4a1.17,1.17,0,0,1,0-1,1.71,1.71,0,0,1,.81-.67l4.65-2.49a2.65,2.65,0,0,1,1.09-.39,1.38,1.38,0,0,1,.6.13l.9-.63a2.44,2.44,0,0,1,.67-.37,1.7,1.7,0,0,1,.92,0,3.8,3.8,0,0,0,.38-1.45,5.22,5.22,0,0,0-.39-1.83,8.81,8.81,0,0,1-3.51-7c-1-.56-2.3-.88-2.71-2.07-.28-.8.06-1.69-.06-2.54a2.06,2.06,0,0,1-.49-.78c-.29-.84.08-1.77-.07-2.64a3.76,3.76,0,0,1-.24-1.42,2.11,2.11,0,0,1,.53-.9l3.3-3.9a8.4,8.4,0,0,1,2.47-2.25c2.4-1.23,5.26,0,7.95,0a8.27,8.27,0,0,1,2.68.15,5.56,5.56,0,0,1,1.66,1l3.68,3c1.24,1,2.58,2.2,2.68,3.8a3.63,3.63,0,0,1-.2,1.42,3.77,3.77,0,0,1,.76,1.9,5.12,5.12,0,0,1-1.07,3.08,16.57,16.57,0,0,1-3.35,3.64,8.83,8.83,0,0,1-2.13,4.26,27.71,27.71,0,0,0,1,3.46l0,0a1.73,1.73,0,0,1,.87.31,3.82,3.82,0,0,1,.72.67,1,1,0,0,1,.49-.41,2,2,0,0,1,1.54.25,16.11,16.11,0,0,1,4.19,2.45,5.24,5.24,0,0,1,1.09,1.39,6.92,6.92,0,0,1,4.85,1.09c2.53,1.74,3.58,4.91,4.46,7.85l2,6.6a40.1,40.1,0,0,1,1.94,8.82,38,38,0,0,1-.5,7.67l.26-.26a16.14,16.14,0,0,1,4.19-2.46,2,2,0,0,1,1.54-.24,1.07,1.07,0,0,1,.49.4,5.1,5.1,0,0,1,.72-.67,1.72,1.72,0,0,1,.87-.3l0-.06a27.52,27.52,0,0,0,1-3.45,8.76,8.76,0,0,1-2.12-4.27,16,16,0,0,1-3.35-3.63,5,5,0,0,1-1.07-3.09,3.69,3.69,0,0,1,.76-1.9,3.41,3.41,0,0,1-.21-1.42c.12-1.59,1.46-2.79,2.68-3.8l3.69-3A5.42,5.42,0,0,1,242,126.2a8.57,8.57,0,0,1,2.68-.15,20.34,20.34,0,0,0,3-.31c0-1.42,2.94-2.68,4.73-2.47s3.71,1,5.62,1,3.84-.62,5.28.48c1.29,1,1.4,2.85,1.4,4.47v5.64a7,7,0,0,0,.91,4.25c1,1.3,2.79,1.92,3.41,3.35a10.14,10.14,0,0,1,3.48-4.91,6.87,6.87,0,0,1,4.81-1.11,5.24,5.24,0,0,1,1.09-1.39,16,16,0,0,1,4.19-2.46,2,2,0,0,1,1.53-.24.94.94,0,0,1,.49.41,4.21,4.21,0,0,1,.73-.67,1.61,1.61,0,0,1,.87-.31.14.14,0,0,1,0-.06,27.52,27.52,0,0,0,.95-3.45,9,9,0,0,1-2.12-4.26,16.8,16.8,0,0,1-3.35-3.64,5.05,5.05,0,0,1-1.07-3.08,3.62,3.62,0,0,1,.76-1.9,3.85,3.85,0,0,1-.21-1.43c.13-1.59,1.46-2.78,2.69-3.8l3.68-3a5.8,5.8,0,0,1,1.66-1.06,8.56,8.56,0,0,1,2.68-.15,20.48,20.48,0,0,0,3-.31c-.05-1.42,2.93-2.68,4.72-2.47s3.71,1,5.62,1,3.85-.62,5.29.48c1.29,1,1.39,2.85,1.39,4.47v5.63a7,7,0,0,0,.91,4.25c1,1.37,3,2,3.5,3.59.3.94,0,2,.34,3a4.26,4.26,0,0,0,1.24,1.64,20.68,20.68,0,0,0,2.4,1.85,4,4,0,0,1,.63-1.24,3.63,3.63,0,0,1-.2-1.42c.12-1.6,1.45-2.79,2.68-3.8l3.68-3a5.76,5.76,0,0,1,1.66-1,8.27,8.27,0,0,1,2.68-.15c2.68,0,5.55-1.22,7.95,0a8.4,8.4,0,0,1,2.47,2.25l3.3,3.9a2.11,2.11,0,0,1,.53.9,4,4,0,0,1-.24,1.42c-.16.87.22,1.8-.07,2.64a2,2,0,0,1-.49.78c-.12.85.21,1.74-.06,2.54-.41,1.19-1.7,1.51-2.71,2.07a8.88,8.88,0,0,1-3.5,6.94,5.1,5.1,0,0,0-.4,1.83,3.9,3.9,0,0,0,.38,1.46,1.61,1.61,0,0,1,.92-.05,2.44,2.44,0,0,1,.67.37l.9.63a1.38,1.38,0,0,1,.6-.13,2.65,2.65,0,0,1,1.09.39l4.65,2.49a1.77,1.77,0,0,1,.81.67,1.17,1.17,0,0,1,0,1c3.16-.22,6.63.71,8.25,3.4a11.09,11.09,0,0,1,1.22,4.81c.22,2.32.34,4.66.46,7l.63,12.28c.08,1.47.15,2.94.18,4.41a10.08,10.08,0,0,1-.37,3.41,10.51,10.51,0,0,1-2,3.17c-.8,1-1.8,2-3,1.7a3.17,3.17,0,0,1-1.27-.79l-2.7-2.32c-.53-.44-1.06-.9-1.58-1.37,0,3.23-.1,6.47-.27,9.69a6.94,6.94,0,0,1-.62,3,34,34,0,0,1,1.63,9.49,59.29,59.29,0,0,1-.44,7.88c.28-.6.57-1.2.85-1.81C363.78,183.28,380.57,138.43,374.85,106.82Z" transform="translate(-27.01 -61.43)"/><path class="cls-1" d="M55.68,166l-.86,3.32.51-.63a5.94,5.94,0,0,1,.48-2.42,12.17,12.17,0,0,1,1.45-1.93l-.23.17a4,4,0,0,0-1,.63A2.09,2.09,0,0,0,55.68,166Z" transform="translate(-27.01 -61.43)"/><path class="cls-1" d="M261.21,181.12l.51.63-.86-3.31a2.11,2.11,0,0,0-.36-.86,3.9,3.9,0,0,0-1-.63l-.22-.17a12.17,12.17,0,0,1,1.45,1.93A5.87,5.87,0,0,1,261.21,181.12Z" transform="translate(-27.01 -61.43)"/><path class="cls-1" d="M313.83,201.38l.32-.26c-.3-.41-.59-.83-.86-1.27l0,0c.13.42.27.83.43,1.24C313.74,201.16,313.78,201.26,313.83,201.38Z" transform="translate(-27.01 -61.43)"/><path class="cls-1" d="M226.47,207.51c.13.42.27.83.42,1.24l.14.33.31-.25c-.29-.42-.58-.83-.85-1.27Z" transform="translate(-27.01 -61.43)"/><path class="cls-1" d="M255.36,142.58a8.82,8.82,0,0,1-3.5,6.94,5.23,5.23,0,0,0-.4,1.83,3.64,3.64,0,0,0,.39,1.45,1.57,1.57,0,0,1,.91,0,2.09,2.09,0,0,1,.67.37l.91.63a1.21,1.21,0,0,1,.59-.13,2.74,2.74,0,0,1,1.1.39l4.65,2.49a1.76,1.76,0,0,1,.81.67,1.17,1.17,0,0,1,0,1,12.37,12.37,0,0,1,3,.15,52.79,52.79,0,0,1,1.39-5.54,6.88,6.88,0,0,1-1.7-4.6,20.05,20.05,0,0,0,0-2.57,2.5,2.5,0,0,0-1.34-2.05,10.16,10.16,0,0,1-1.48-.45,2.33,2.33,0,0,1-.86-1.74c-.29-1.94-.21-3.93-.67-5.83a9.56,9.56,0,0,0-.84-2.17,7.61,7.61,0,0,1-.25,1.15c-.15.87.22,1.8-.07,2.64a2.06,2.06,0,0,1-.49.78c-.12.84.21,1.74-.06,2.54C257.66,141.69,256.37,142,255.36,142.58Z" transform="translate(-27.01 -61.43)"/><path class="cls-1" d="M273.66,170.17c-.79,5.41-1.56,11.06-.21,16.3a2,2,0,0,1,.52-.84,8.53,8.53,0,0,0,1.5-3.91c1.63-8.57.85-17.35.48-26.1l-.71.82a3.65,3.65,0,0,0-.67.89,3.36,3.36,0,0,0-.28,1.26,15.78,15.78,0,0,0,.11,3.07,16.75,16.75,0,0,1-.4,6.76A11.51,11.51,0,0,0,273.66,170.17Z" transform="translate(-27.01 -61.43)"/><path class="cls-1" d="M268.56,197.92a2.06,2.06,0,0,1-1.72.44,3.17,3.17,0,0,1-1.27-.79l-2.68-2.31c-.53-.45-1.06-.91-1.58-1.38,0,3.23-.1,6.47-.27,9.7a7.08,7.08,0,0,1-.62,3,34.05,34.05,0,0,1,1.63,9.5,68.15,68.15,0,0,1-.58,9.13l-1.59,14.74a41.26,41.26,0,0,1-1,6.07c-.46,1.78-1.15,3.49-1.76,5.23l3.43,0,4.35,0h.54l7.37-.08v0c.57-3.22,2.11-6.34,1.8-9.61-.2-2.18-1.21-4.18-1.91-6.26-3-9.07,0-19.18-2.2-28.48-.51-2.14-1.27-4.45-.33-6.45l-1.4-.42.58-1.34A3.31,3.31,0,0,1,268.56,197.92Z" transform="translate(-27.01 -61.43)"/><path class="cls-1" d="M241.66,244.59c0,2.26,0,4.53.05,6.79h.15Z" transform="translate(-27.01 -61.43)"/><path class="cls-1" d="M328.47,236.88l.06,10.26.22-.13C328.66,243.63,328.56,240.25,328.47,236.88Z" transform="translate(-27.01 -61.43)"/><path class="cls-1" d="M320.34,130.92l-.56.12a7.25,7.25,0,0,0,1.05,1A5.76,5.76,0,0,1,320.34,130.92Z" transform="translate(-27.01 -61.43)"/><path class="cls-1" d="M288.92,224.48l.1,14.76a17.76,17.76,0,0,1-.22,3.57c-.21,1-.57,1.93-.79,2.91a19.93,19.93,0,0,0-.24,4.3v.86l1.9,0Z" transform="translate(-27.01 -61.43)"/><path class="cls-1" d="M348,173.41l.51.63-.86-3.32a2.11,2.11,0,0,0-.36-.86,4,4,0,0,0-1-.63l-.23-.17a12.17,12.17,0,0,1,1.45,1.93A5.76,5.76,0,0,1,348,173.41Z" transform="translate(-27.01 -61.43)"/><path class="cls-1" d="M302.62,122.47a8.86,8.86,0,0,1-3.51,6.94,5.31,5.31,0,0,0-.39,1.83,3.9,3.9,0,0,0,.38,1.46,1.61,1.61,0,0,1,.92,0,2.44,2.44,0,0,1,.67.37l.9.63a1.38,1.38,0,0,1,.6-.13,2.65,2.65,0,0,1,1.09.39l4.65,2.49a1.77,1.77,0,0,1,.81.67,1.17,1.17,0,0,1,0,1c3.16-.22,6.63.71,8.25,3.4a11.09,11.09,0,0,1,1.22,4.81c0,.3.05.61.08.91a17.4,17.4,0,0,1,3.88-2.19,2,2,0,0,1,1.53-.25.94.94,0,0,1,.49.41,4.21,4.21,0,0,1,.73-.67,1.61,1.61,0,0,1,.87-.31s0,0,0-.06a27.52,27.52,0,0,0,1-3.45,9,9,0,0,1-2.12-4.26,17.16,17.16,0,0,1-2.73-2.79c-2.5.81-5.22,1.37-7.47.12a6.47,6.47,0,0,1-3-5.66,18.24,18.24,0,0,0,0-2.56,2.52,2.52,0,0,0-1.34-2.06,9.06,9.06,0,0,1-1.48-.45,2.38,2.38,0,0,1-.86-1.74c-.29-1.93-.2-3.92-.67-5.82a9.9,9.9,0,0,0-.83-2.18,8.72,8.72,0,0,1-.26,1.15c-.15.87.22,1.81-.07,2.64a2,2,0,0,1-.49.79c-.12.84.22,1.73-.06,2.54C304.92,121.58,303.63,121.9,302.62,122.47Z" transform="translate(-27.01 -61.43)"/><path class="cls-2" d="M248.42,245.18v8H75.82v-8a2.35,2.35,0,0,1,2.35-2.35H246.08A2.35,2.35,0,0,1,248.42,245.18Z" transform="translate(-27.01 -61.43)"/><path class="cls-3" d="M183,125.63a8.78,8.78,0,0,1,2.76,4.66c-2.73.71-5.52-.63-8.07-1.82a102.16,102.16,0,0,0-24.81-8,3.81,3.81,0,0,1-1.89-.73c-.95-.87-.78-3.08.11-4s2.73-.83,4-.9A36.71,36.71,0,0,1,183,125.63Z" transform="translate(-27.01 -61.43)"/><path class="cls-4" d="M239.82,253.21H171.27a37.87,37.87,0,0,1-2.15-6.48c-.18-.69-.34-1.39-.5-2.08s-.27-1.22-.4-1.83q-.58-2.76-1-5.53c-.28-1.74-.5-3.49-.68-5.24s-.3-3.37-.4-5.06v-.14a2.94,2.94,0,0,1,.55-2.24,2.88,2.88,0,0,1,1.91-.64c5.69-.39,11.23,1.67,16.91,1.37a15.33,15.33,0,0,1,4.22,0,5.06,5.06,0,0,1,.67.17,10.09,10.09,0,0,1,1,.34,42.46,42.46,0,0,0,6.56,2.2c4,.75,8.09.61,12.15.9l1,.08c.41,0,.83.08,1.24.13a46.25,46.25,0,0,1,10.16,2.54c1.77.64,3.52,1.37,5.24,2.14l1.47.67c.87.4,1.75.83,2.62,1.3.33.17.67.35,1,.55a15.91,15.91,0,0,1,6.33,5.93c.1.19.2.38.29.57s.16.36.23.55C240.84,246.47,240.42,249.82,239.82,253.21Z" transform="translate(-27.01 -61.43)"/><path class="cls-5" d="M239.82,253.21H171.27a37.87,37.87,0,0,1-2.15-6.48c-.18-.69-.34-1.39-.5-2.08s-.27-1.22-.4-1.83q-.58-2.76-1-5.53c-.28-1.74-.5-3.49-.68-5.24s-.3-3.37-.4-5.06v-.14a2.94,2.94,0,0,1,.55-2.24,2.88,2.88,0,0,1,1.91-.64c5.69-.39,11.23,1.67,16.91,1.37a15.33,15.33,0,0,1,4.22,0,5.06,5.06,0,0,1,.67.17,10.09,10.09,0,0,1,1,.34,42.46,42.46,0,0,0,6.56,2.2c4,.75,8.09.61,12.15.9l1,.08c.41,0,.83.08,1.24.13a46.25,46.25,0,0,1,10.16,2.54c1.77.64,3.52,1.37,5.24,2.14l1.47.67c.87.4,1.75.83,2.62,1.3.33.17.67.35,1,.55a15.91,15.91,0,0,1,6.33,5.93c.1.19.2.38.29.57s.16.36.23.55C240.84,246.47,240.42,249.82,239.82,253.21Z" transform="translate(-27.01 -61.43)"/><path class="cls-4" d="M177.26,253.21H100a9.05,9.05,0,0,1-2.59-6.94,22,22,0,0,1,.53-3.13c0-.11,0-.22.08-.34a7.82,7.82,0,0,1,3.44-4.69c3-2,6.7-2.72,10-4,1.8-.67,3.54-1.52,5.34-2.2a42.84,42.84,0,0,1,8-2l.9-.15.94-.14c1.67-.24,3.35-.44,5-.63a54.69,54.69,0,0,1,11.14-.53,37.58,37.58,0,0,1,8.69,2c2.12.7,4.21,1.52,6.29,2.34a49.88,49.88,0,0,1,9.4,4.51c.25.17.5.34.74.52a21.85,21.85,0,0,1,5,5,23.32,23.32,0,0,1,2.12,3.52A24.45,24.45,0,0,1,177.26,253.21Z" transform="translate(-27.01 -61.43)"/><path class="cls-6" d="M155.22,118.09a11.54,11.54,0,0,1-6.29,6.32c-1.53.54-3.18.64-4.75,1.08a5.24,5.24,0,0,0-3.68,2.9,6.8,6.8,0,0,0-.29,2.06c-.24,6.55-.43,13.36,2.18,19.37,2.27,5.19,6.41,9.29,10.51,13.2,4.79,4.57,9.86,9.2,16.17,11.25,3.69,1.19,8,1.32,11.08-1.05a16.25,16.25,0,0,0,3.1-3.6,43.52,43.52,0,0,0,5.32-9c2.59-6.71,1.72-14.17.81-21.3a1.77,1.77,0,0,0-.45-1.14,1.86,1.86,0,0,0-1.34-.23c-3.27.19-6.82-1.48-7.92-4.55a12,12,0,0,1-.43-4.19l.13-8.11a6.89,6.89,0,0,0-.31-2.6c-.57-1.41-2-2.24-3.39-2.92a83,83,0,0,0-13.83-5.45c-2.09-.62-3.67-1.64-4.6.6S156.3,115.72,155.22,118.09Z" transform="translate(-27.01 -61.43)"/><path class="cls-5" d="M155.22,118.09a11.54,11.54,0,0,1-6.29,6.32c-1.53.54-3.18.64-4.75,1.08a5.24,5.24,0,0,0-3.68,2.9,6.8,6.8,0,0,0-.29,2.06c-.24,6.55-.43,13.36,2.18,19.37,2.27,5.19,6.41,9.29,10.51,13.2,4.79,4.57,9.86,9.2,16.17,11.25,3.69,1.19,8,1.32,11.08-1.05a16.25,16.25,0,0,0,3.1-3.6,43.52,43.52,0,0,0,5.32-9c2.59-6.71,1.72-14.17.81-21.3a1.77,1.77,0,0,0-.45-1.14,1.86,1.86,0,0,0-1.34-.23c-3.27.19-6.82-1.48-7.92-4.55a12,12,0,0,1-.43-4.19l.13-8.11a6.89,6.89,0,0,0-.31-2.6c-.57-1.41-2-2.24-3.39-2.92a83,83,0,0,0-13.83-5.45c-2.09-.62-3.67-1.64-4.6.6S156.3,115.72,155.22,118.09Z" transform="translate(-27.01 -61.43)"/><circle class="cls-6" cx="177.21" cy="99.88" r="24.8" transform="translate(23.22 197.37) rotate(-80.78)"/><path class="cls-7" d="M179.56,138.76l-2.77,6.89a21.86,21.86,0,0,1-2.23,4.49,11.15,11.15,0,0,1-12.29,4.05c-4.13-1.36-7.8-5.23-12.06-4.3a7.59,7.59,0,0,0-5,4.3,19,19,0,0,0-1.51,6.58,83.32,83.32,0,0,0,2.93,31,4.45,4.45,0,0,0,5.16,3.91q9,.54,18.13.64a66.75,66.75,0,0,0,11.13-.55c3.67-.58,7.19-1.68,10.81-2.4,3.39-.67,6.86-1,10.17-2a2.61,2.61,0,0,0,1.44-.8,2.46,2.46,0,0,0,.33-1.43,16.85,16.85,0,0,0-1.25-5.62c-1.67-4.64-3.63-9.2-4.56-14-1.29-6.65-.53-13.5-.67-20.28a22.25,22.25,0,0,0-1.05-7.17,9.18,9.18,0,0,0-4.64-5.37C187.84,135,181.4,134.25,179.56,138.76Z" transform="translate(-27.01 -61.43)"/><path class="cls-3" d="M166.82,171.32c-1.77-1.5-1.68-4.18-1.89-6.49-.39-4.33-2.27-8.38-4.13-12.32l-5.55-11.78c-2.32-4.91-4.69-10.51-2.77-15.6.64-1.71,1.73-3.24,2.29-5s.45-3.92-1-5.07c-1.82-1.46-4.5-.46-6.56.65a100.71,100.71,0,0,0-10.9,6.85,5.19,5.19,0,0,0-2.25,2.59,19.28,19.28,0,0,1-.36,2.15c-.52,1.34-2.15,1.74-3.54,2.05a43.28,43.28,0,0,0-27.58,20.25,23.73,23.73,0,0,0-2.35,5.24,34.22,34.22,0,0,0-1,7.2q-.65,9.34-1.24,18.69a24.46,24.46,0,0,0,.4,8.24c.49,1.71,1.34,3.31,1.7,5.05.74,3.63-.81,7.33-2.75,10.48s-4.31,6.1-5.52,9.58a22.7,22.7,0,0,0-1.09,6.84A39.35,39.35,0,0,0,97,243.09c4.12.6,7.2-3.49,11-5.23,5.55-2.55,12.55-.51,17.76-3.65a42.58,42.58,0,0,1,3.72-2.45,13.91,13.91,0,0,1,3.92-1c4.94-.72,10-1.38,14.91-.84,7,.76,14.31,3.89,20.93,1.36,1.64-.62,3.13-1.56,4.77-2.17,6-2.23,12.73.44,19.16,0-1-.06-1.46-1.2-1.64-2.2-.43-2.22-.8-4.46-1.12-6.7a15.84,15.84,0,0,1-.09-5.86,22.8,22.8,0,0,1,2.21-5c2.59-5.13,3.69-10.88,5.91-16.18,1.06-2.53,2.35-4.94,3.6-7.38a152,152,0,0,0,11.75-31.35c-2.92-5.26-5.57-10.73-8.5-16a16,16,0,0,0-3-4.24c-1.85-1.71-4.37-2.45-6.79-3.13a23.52,23.52,0,0,0-6.37-1.2c-2.17,0-8.29-2.27-9.76-.69s1.89,6.92,1.81,9.15A49.46,49.46,0,0,1,181,145c-.53,3.21-2.34,6.07-3.16,9.21a42.84,42.84,0,0,0-.75,4.51,50.88,50.88,0,0,1-2.65,9.91,6.68,6.68,0,0,1-1,1.88C171.84,172.47,169.28,171.74,166.82,171.32Z" transform="translate(-27.01 -61.43)"/><path class="cls-6" d="M216.06,206.64a13.3,13.3,0,0,0,2.29,1.93c3.1,2.43,4.92,6.13,7.66,9,1.38,1.43,3,2.62,4.46,4,3.42,3.12,6.07,7,8.69,10.78a11.53,11.53,0,0,1,1.68,3.1,7.14,7.14,0,0,1-1,5.78,12.74,12.74,0,0,1-4.42,4,21.26,21.26,0,0,1-2.83,1.4,2.26,2.26,0,0,1-2.8-3.24,37.89,37.89,0,0,0,2-3.59,5.09,5.09,0,0,0,.64-2.22,3.76,3.76,0,0,0-2.34-3.1,13.46,13.46,0,0,0-4-.84,44.49,44.49,0,0,1-21.19-8.43c-3.52-2.61-6.92-6.44-6.36-10.79.42-3.24,3-5.82,5.81-7.49a21.61,21.61,0,0,1,7.42-2.68c.74-.12,2.59-.62,3.25-.12S215.51,206,216.06,206.64Z" transform="translate(-27.01 -61.43)"/><path class="cls-5" d="M216.06,206.64a13.3,13.3,0,0,0,2.29,1.93c3.1,2.43,4.92,6.13,7.66,9,1.38,1.43,3,2.62,4.46,4,3.42,3.12,6.07,7,8.69,10.78a11.53,11.53,0,0,1,1.68,3.1,7.14,7.14,0,0,1-1,5.78,12.74,12.74,0,0,1-4.42,4,21.26,21.26,0,0,1-2.83,1.4,2.26,2.26,0,0,1-2.8-3.24,37.89,37.89,0,0,0,2-3.59,5.09,5.09,0,0,0,.64-2.22,3.76,3.76,0,0,0-2.34-3.1,13.46,13.46,0,0,0-4-.84,44.49,44.49,0,0,1-21.19-8.43c-3.52-2.61-6.92-6.44-6.36-10.79.42-3.24,3-5.82,5.81-7.49a21.61,21.61,0,0,1,7.42-2.68c.74-.12,2.59-.62,3.25-.12S215.51,206,216.06,206.64Z" transform="translate(-27.01 -61.43)"/><path class="cls-8" d="M188.11,85.87c-3.35,3.43-8.73,3.57-13.53,3.49l.16-1.88L168,89.9a18,18,0,0,0,4.43-4.74,3,3,0,0,0-3.28-.21,6.9,6.9,0,0,0-2.46,2.43,22.15,22.15,0,0,0-2.45,19.71,4.36,4.36,0,0,1-4.34-.29,7.72,7.72,0,0,1-2.8-3.52c-.39-.92-.81-2-1.76-2.28a2,2,0,0,0-2.12,1,4,4,0,0,0-.46,2.41c.12,1.95,1.55,3.8,1.83,5.73s3.17,3.43,1.68,4.69a22,22,0,0,1-5.39,1.28,2.37,2.37,0,0,1-1.56-1.54c-1.51-3.3-1-7.15-1.85-10.67a27.22,27.22,0,0,0-3.91-7.78,12,12,0,0,0-1.5-2,4.88,4.88,0,0,1-1.43-1.65c-.26-.69.21-1.67.94-1.56a29.61,29.61,0,0,0-3.78-3.11q2-2.52,3.9-5.1c.43-.59.89-1.35.57-2a2.13,2.13,0,0,0-.76-.73L138,77.58c-.08-1.59,3.16-1,3.66-2.51a2.13,2.13,0,0,0-.08-1.2l-1.18-4.3,4.48,2a3.07,3.07,0,0,0,1.71.41c1.19-.17,1.76-1.57,1.82-2.77s-.13-2.48.46-3.52q3-.12,6.08,0a4,4,0,0,0-.75-2.88l15-.83a20.51,20.51,0,0,1,7.62.54,6.05,6.05,0,0,0,2.52.57c.86-.1,1.73-.9,1.49-1.73a27.23,27.23,0,0,1,6.09,4.7,6.45,6.45,0,0,0,1.73,1.43,1.86,1.86,0,0,0,2.1-.26c.41-.44.62-1.22,1.22-1.25a1.29,1.29,0,0,1,.91.6,14.91,14.91,0,0,1,2.07,3.59,13,13,0,0,0,3.13-.82,3.39,3.39,0,0,0-.57,3.79c.5,1.28,1.4,2.35,2,3.57a14.51,14.51,0,0,1,1.2,4.13c.31,1.79.31,4-1.28,4.93-1.38.76-3.09,0-4.35-1C191.6,82.22,190.93,83,188.11,85.87Z" transform="translate(-27.01 -61.43)"/><path class="cls-9" d="M205.64,244.21l23.22-2.09a3.62,3.62,0,0,0,3.29-3.8V238a3.62,3.62,0,0,0-2.58-3.27l-3.75-1.13a3.68,3.68,0,0,0-1-.15h-8.52a4,4,0,0,0-.69.06c-1.8.36-10.08,2-10.39,2.28s-1.15.91-2.1,1.61a3.62,3.62,0,0,0-1.38,3.74l.08.31A3.6,3.6,0,0,0,205.64,244.21Z" transform="translate(-27.01 -61.43)"/><path class="cls-7" d="M194.3,237l9.38-2.68,17.43-2.35s11.06-3,12.07,6.37l-.94,1.59s.94-5.94-10.46-4.27c0,0-20.49-.69-19.63,7.37C202.15,243,195,241.64,194.3,237Z" transform="translate(-27.01 -61.43)"/><ellipse class="cls-7" cx="180.02" cy="169.49" rx="2.35" ry="0.34"/><rect class="cls-7" x="199.29" y="169.66" width="1.68" height="3.02"/><rect class="cls-7" x="179.18" y="169.66" width="1.68" height="3.02"/><ellipse class="cls-7" cx="226.8" cy="230.4" rx="0.84" ry="2.68" transform="translate(-96.5 298.34) rotate(-69.04)"/><path class="cls-6" d="M132,236.46a9.33,9.33,0,0,0,2.37,2,9.51,9.51,0,0,0,2.88.76q15.22,2.34,30.35,5.25a44.05,44.05,0,0,1,8.38,2.22c1.36.56,2.68,1.27,4,1.86,7.71,3.38,16.42,3.17,24.83,2.88a12.46,12.46,0,0,0,4.83-.8,3.54,3.54,0,0,0,2.23-2.69c.17-2.1-2.22-3.35-4.14-4.25a24.16,24.16,0,0,1-10.95-10.11c-.43-.78-.78-1.84-.18-2.5a2.4,2.4,0,0,1,1.9-.48c2.81.11,5.63.08,8.44-.08,1.46-.09,3.39-.78,3.16-2.22A2.66,2.66,0,0,0,209,226.8c-2.54-2.13-5.42-4.33-8.73-4.26a16.66,16.66,0,0,0-5,1.25c-8.77,3-18.22,3.14-27.48,3.08a33.3,33.3,0,0,1-6.77-.5,35.73,35.73,0,0,1-5.34-1.72,114.14,114.14,0,0,1-16.46-7.3c-2.06-1.2-4.37-2.58-6.68-2a6.92,6.92,0,0,0-2.74,1.67c-2.75,2.48-5.06,5.52-4.28,9.33C126.28,230.39,129.24,233.61,132,236.46Z" transform="translate(-27.01 -61.43)"/><path class="cls-3" d="M130.48,171.74c.86,2.79,1.37,5.76,2.86,8.28,1.57,2.68,4.2,4.76,5.11,7.73.65,2.11.34,4.36.34,6.57a12.9,12.9,0,0,0,1.86,7.17c.69,1,1.6,1.94,2.39,2.92,3.53,4.36,4.61,10.18,5.05,15.75-3.35-1.89-7.27-3.85-10.9-2.55a11.82,11.82,0,0,0-3.86,2.61,49.13,49.13,0,0,0-6.11,6.7c-1,1.26-1.9,2.81-1.49,4.34a70.26,70.26,0,0,1-5.53-9c-1.09-2.26-1.94-4.66-3.25-6.81-1.65-2.7-4-4.92-5.93-7.42-4.39-5.6-6.85-12.54-8-19.54s-1.25-14.17-1.21-21.29a16.32,16.32,0,0,1,1-6.92,16.52,16.52,0,0,1,2.37-3.45,15.21,15.21,0,0,1,3.82-3.69c4.87-2.87,10.1,1.89,13.36,5.14A32.89,32.89,0,0,1,130.48,171.74Z" transform="translate(-27.01 -61.43)"/><path class="cls-3" d="M214.48,155.65a4.55,4.55,0,0,1,1.08,1.46,5.07,5.07,0,0,1,.13,2.13,43.56,43.56,0,0,0,.9,12.68c.54,2.52,1.23,5.43-.37,7.45a5.45,5.45,0,0,0-.67.85c-.75,1.4.63,2.91,1.67,4.11A12.13,12.13,0,0,1,218.45,198a11.47,11.47,0,0,0-1.3,2.44,7.61,7.61,0,0,0-.21,2.23v5.61c-3.52-.48-7.46-.84-10.29,1.3-2.39,1.81-3.33,5-5.36,7.16s-5,3.47-5.8,6.25l.05-11.59a27.18,27.18,0,0,0-.25-4.6c-.41-2.4-1.45-4.64-2.06-7a39.51,39.51,0,0,1-.89-9.47c-.08-5.25-.15-10.56.94-15.7.44-2.09,1.08-4.14,1.56-6.22.89-3.76,1.35-7.66,2.9-11.19s4.62-6.72,8.46-7.1C210.26,149.71,212,153,214.48,155.65Z" transform="translate(-27.01 -61.43)"/><ellipse class="cls-6" cx="227.31" cy="227.07" rx="2.35" ry="4.36" transform="translate(-110.09 82.64) rotate(-30)"/><ellipse class="cls-5" cx="227.31" cy="227.07" rx="2.35" ry="4.36" transform="translate(-110.09 82.64) rotate(-30)"/></svg>