<svg id="Layer_1" data-name="Layer 1" xmlns="http://www.w3.org/2000/svg" viewBox="0 0 357.01 293.55"><defs><style>.cls-1{fill:#e6e6e6;}.cls-2{fill:#fff;}.cls-3{fill:#ffb8b8;}.cls-4{fill:#2f2e41;}.cls-5,.cls-6{fill:#6c63ff;}.cls-6{font-size:35px;font-family:Montserrat-Bold, Montserrat;font-weight:700;}</style></defs><title>why-7</title><path class="cls-1" d="M356.27,277c6.13-7,35-41.31,14.48-47-15.41-4.25-17.13,19.14-16.61,34.83-2.47-10.57-7.26-22.93-15.68-17.47-12.13,7.85,10.6,25.24,16.54,29.5.09.87.16,1.35.16,1.35l.68-.75.52.36S356.33,277.58,356.27,277Z" transform="translate(-21 -4)"/><path class="cls-1" d="M45.41,296.13c7-8,40.09-47.32,16.59-53.8-17.65-4.87-19.62,21.92-19,39.9-2.83-12.12-8.31-26.27-17.95-20-13.89,9,12.14,28.91,18.94,33.8.11,1,.18,1.54.18,1.54l.78-.86.6.42S45.49,296.75,45.41,296.13Z" transform="translate(-21 -4)"/><path class="cls-1" d="M122.81,27.43a2.31,2.31,0,0,0-2.3,2.3V275.29a2.3,2.3,0,0,0,2.3,2.3H320.64a2.3,2.3,0,0,0,2.29-2.3V29.73a2.3,2.3,0,0,0-2.29-2.3Z" transform="translate(-21 -4)"/><path class="cls-2" d="M289.19,134.67H154.25a3.45,3.45,0,0,1,0-6.89H289.19a3.45,3.45,0,1,1,0,6.89Z" transform="translate(-21 -4)"/><path class="cls-2" d="M289.19,156.93H154.25a3.45,3.45,0,0,1,0-6.89H289.19a3.45,3.45,0,1,1,0,6.89Z" transform="translate(-21 -4)"/><path class="cls-2" d="M289.19,179.19H154.25a3.45,3.45,0,0,1,0-6.89H289.19a3.45,3.45,0,1,1,0,6.89Z" transform="translate(-21 -4)"/><path class="cls-2" d="M289.19,201.45H154.25a3.44,3.44,0,0,1,0-6.88H289.19a3.44,3.44,0,1,1,0,6.88Z" transform="translate(-21 -4)"/><path class="cls-2" d="M289.19,223.71H154.25a3.44,3.44,0,0,1,0-6.88H289.19a3.44,3.44,0,1,1,0,6.88Z" transform="translate(-21 -4)"/><path class="cls-2" d="M289.19,246H154.25a3.44,3.44,0,0,1,0-6.88H289.19a3.44,3.44,0,1,1,0,6.88Z" transform="translate(-21 -4)"/><path class="cls-2" d="M196.87,134.67" transform="translate(-21 -4)"/><path class="cls-3" d="M155.22,140.76l-27,14.38-.34-12a80.12,80.12,0,0,0,25-8.21l2.83-7a4.75,4.75,0,0,1,8-1.23h0a4.74,4.74,0,0,1-.42,6.46Z" transform="translate(-21 -4)"/><path class="cls-4" d="M89.15,223.75h0a5.32,5.32,0,0,1,.68-4.29l5.94-9.12a10.37,10.37,0,0,1,13.46-3.55h0c-2.49,4.25-2.15,8,.86,11.21a53.9,53.9,0,0,0-12.82,8.75,5.32,5.32,0,0,1-7.38-1.4A5.55,5.55,0,0,1,89.15,223.75Z" transform="translate(-21 -4)"/><path class="cls-4" d="M156.45,211.84h0a10.19,10.19,0,0,1-8.67,4.94l-39.45.3-1.71-9.92L124.07,202l-14.71-11.29,16.08-18.82,29.22,27.23A10.2,10.2,0,0,1,156.45,211.84Z" transform="translate(-21 -4)"/><path class="cls-4" d="M102.17,279.71H92.93c-8.3-56.87-16.74-113.9,8.21-135.18l29.43,4.79-3.76,25-16.43,18.83Z" transform="translate(-21 -4)"/><path class="cls-4" d="M109.37,297.18h0a5.28,5.28,0,0,1-4.29-.67L96,290.57a10.37,10.37,0,0,1-3.55-13.46h0c4.25,2.49,8,2.14,11.21-.87a54,54,0,0,0,8.75,12.83,5.3,5.3,0,0,1-3,8.11Z" transform="translate(-21 -4)"/><path class="cls-4" d="M142.5,105H98.58c-8.12-11.47-9.07-22.45,0-32.72,0-4.54,5.86-8.22,13.1-8.22h0c5.67,0,10.7,2.28,12.46,5.67Z" transform="translate(-21 -4)"/><path class="cls-3" d="M124.07,106.54,107,102.43c2.84-5.81,3.08-12.29,1.71-19.16l11.64-.34A89.43,89.43,0,0,0,124.07,106.54Z" transform="translate(-21 -4)"/><path class="cls-5" d="M128.77,159.62c-12.45,8.49-21.25.3-28-12.35.93-7.74-.58-17-3.38-27.07A18.42,18.42,0,0,1,108.67,98h0l14.72,6.16c12.49,10.18,15,21.21,10.26,32.85Z" transform="translate(-21 -4)"/><path class="cls-3" d="M92.93,115.1l-13.69,7.18,24.3,14.38,3.38,8.34a4.42,4.42,0,0,1-2.44,5.76l-.22.08h0a4.41,4.41,0,0,1-5.62-2.74,4.76,4.76,0,0,1-.24-1.18l-.34-5.81L67.18,130.92a7.23,7.23,0,0,1-4.53-4.42h0a7.22,7.22,0,0,1,2.71-8.4l24.83-17Z" transform="translate(-21 -4)"/><path class="cls-5" d="M106.62,116.47c-5.71-2.51-10.9.21-17.46,2.39l-1-18.14c6.5-3.46,12.71-4.4,18.48-1.71Z" transform="translate(-21 -4)"/><path class="cls-4" d="M141.7,105H132c-6-11.12-5.76-30.77-18.72-26.39-8.32-5-3.55,14.45-5.62,26.39H99.25c-2.29-11.67-2.32-23.36.37-32.88a4.45,4.45,0,0,1,1.61-3.24,9.56,9.56,0,0,1,1.35-1c3-1.88,5-3,9.33-3a26.56,26.56,0,0,1,7.2,1l.9.29a10.56,10.56,0,0,1,1.15.45A7.89,7.89,0,0,1,125.27,70C133.47,79.73,137.66,92.07,141.7,105Z" transform="translate(-21 -4)"/><circle class="cls-3" cx="92.45" cy="76.99" r="10.93"/><path class="cls-4" d="M124.53,76.77c-3.29-4.48-11.86.87-22.16,4.69V70.84c8.47-3.73,13.42-4.81,19-.93Z" transform="translate(-21 -4)"/><circle class="cls-5" cx="295.66" cy="26.47" r="26.47"/><path class="cls-2" d="M305.63,28.72a1.75,1.75,0,0,0,0,3.49h9.28v9.28a1.75,1.75,0,0,0,3.5,0h0V32.21h9.28a1.75,1.75,0,0,0,0-3.49h-9.28V19.44a1.75,1.75,0,0,0-3.5,0h0v9.28Z" transform="translate(-21 -4)"/><text class="cls-6" transform="translate(135.21 86.74)">RULES</text></svg>