<svg id="Layer_1" data-name="Layer 1" xmlns="http://www.w3.org/2000/svg" viewBox="0 0 325.99 294.7"><defs><style>.cls-1{fill:#f2f2f2;}.cls-2,.cls-8{fill:#fff;}.cls-3{fill:#6c63ff;}.cls-4{fill:#3f3d56;}.cls-5{fill:#a0616a;}.cls-6{fill:#2f2e41;}.cls-7{fill:#ccc;}.cls-8{stroke:#030316;stroke-miterlimit:10;stroke-width:0.5px;}.cls-9{font-size:20px;font-family:Montserrat-SemiBold, Montserrat;font-weight:600;}.cls-10{letter-spacing:0em;}.cls-11{letter-spacing:-0.01em;}.cls-12{letter-spacing:-0.01em;}.cls-13{letter-spacing:-0.01em;}</style></defs><title>why-3</title><path class="cls-1" d="M299.57,205.14a12.25,12.25,0,0,1-4.39-10.56,9.89,9.89,0,0,1,7.36-8.41c3.88-.84,8.31,1.48,9.49,5.28.65-7.32,1.4-14.94,5.29-21.17a22.41,22.41,0,0,1,16.23-10.4,20.13,20.13,0,0,1,17.69,7.22,18.29,18.29,0,0,1,2.25,18.8c-2.13,4.41-6.05,7.69-10.16,10.37a65.5,65.5,0,0,1-44.81,9.8" transform="translate(-32.01 -2)"/><path class="cls-2" d="M344.7,162a108.19,108.19,0,0,0-31.76,43c-.3.74.9,1.07,1.2.33a106.79,106.79,0,0,1,31.45-42.4C346.21,162.41,345.32,161.53,344.7,162Z" transform="translate(-32.01 -2)"/><path class="cls-3" d="M122.61,205.89H105.4c-1.21,0-2.19-1.73-2.19-3.87V138.87c0-2.14,1-3.87,2.19-3.87h17.21c1.21,0,2.2,1.73,2.2,3.87V202C124.81,204.16,123.82,205.89,122.61,205.89Z" transform="translate(-32.01 -2)"/><path class="cls-4" d="M214.45,206.23H197.24c-1.4,0-2.53-1.9-2.53-4.25V85.25c0-2.35,1.13-4.25,2.53-4.25h17.21c1.4,0,2.53,1.9,2.53,4.25V202C217,204.33,215.85,206.23,214.45,206.23ZM197.24,82.13c-1,0-1.86,1.4-1.86,3.12V202c0,1.72.83,3.12,1.86,3.12h17.21c1,0,1.86-1.4,1.86-3.12V85.25c0-1.72-.83-3.11-1.86-3.12Z" transform="translate(-32.01 -2)"/><path class="cls-4" d="M264.29,206.23H247.08c-1.4,0-2.53-1.42-2.53-3.18V60.18c0-1.76,1.13-3.18,2.53-3.18h17.21c1.4,0,2.53,1.42,2.53,3.18V203.05C266.82,204.81,265.69,206.23,264.29,206.23ZM247.08,57.85a2.13,2.13,0,0,0-1.86,2.33V203.05a2.13,2.13,0,0,0,1.86,2.33h17.21a2.15,2.15,0,0,0,1.86-2.33V60.18a2.15,2.15,0,0,0-1.86-2.33Z" transform="translate(-32.01 -2)"/><path class="cls-3" d="M312.51,207.06H295.3a2.2,2.2,0,0,1-2.2-2.19V44.55a2.2,2.2,0,0,1,2.2-2.19h17.21a2.19,2.19,0,0,1,2.19,2.19V204.87A2.19,2.19,0,0,1,312.51,207.06Z" transform="translate(-32.01 -2)"/><path class="cls-5" d="M138.46,77.05a3.41,3.41,0,0,0-2.94-3.8,4,4,0,0,0-.6,0l-6-11L127.57,67,131.68,77a3.41,3.41,0,0,0,6.78,0Z" transform="translate(-32.01 -2)"/><polygon class="cls-5" points="60.22 118.5 63.56 120.94 74.57 109.21 69.63 105.61 60.22 118.5"/><path class="cls-6" d="M99.75,130.75l-10.5-7.67h0l3-4h0l6.45,4.7a5,5,0,0,1,1.09,7Z" transform="translate(-32.01 -2)"/><polygon class="cls-5" points="77.9 131.42 82.04 131.42 84.01 115.46 77.9 115.46 77.9 131.42"/><path class="cls-6" d="M122,137.26H109v-5h8a5,5,0,0,1,5,5Z" transform="translate(-32.01 -2)"/><path class="cls-6" d="M122.34,71.17s2,19.57-3,33.07l-3.71,25.65h-6.42l.68-30.37-2.36-27S112.21,60.37,122.34,71.17Z" transform="translate(-32.01 -2)"/><polygon class="cls-6" points="68.39 70.52 75.14 93.81 61.98 114.73 68.56 120.3 83.58 96.84 79.19 68.16 68.39 70.52"/><circle class="cls-5" cx="85.61" cy="10.01" r="8.29"/><path class="cls-7" d="M110.69,23.41s5.07-3.37,10.8,4.05L123,74.21s-4.39-6.08-13.5-.34-11.14-.68-11.14-.68S92,24.93,110.69,23.41Z" transform="translate(-32.01 -2)"/><path class="cls-7" d="M121.09,27.34h0a5.92,5.92,0,0,1,5.58,5.59l1.07,20.35,7.08,19.24-4,3.37-13.16-23-2.69-18.86a5.92,5.92,0,0,1,5-6.69A6.4,6.4,0,0,1,121.09,27.34Z" transform="translate(-32.01 -2)"/><path class="cls-6" d="M111.52,18.23a2.35,2.35,0,0,0,4-1.31,3.53,3.53,0,0,0,0-.46c-.09-.87-.6-1.66-.48-2.59a1.44,1.44,0,0,1,.25-.63c1.08-1.45,3.62.64,4.64-.66.62-.81-.11-2.07.37-3,.63-1.18,2.5-.6,3.68-1.25s1.23-2.72.37-3.95A6.22,6.22,0,0,0,119.69,2a12.39,12.39,0,0,0-5.32,1,10.67,10.67,0,0,0-5,3.48,8.54,8.54,0,0,0-.86,7.25A13.75,13.75,0,0,0,111.52,18.23Z" transform="translate(-32.01 -2)"/><path class="cls-4" d="M357.41,211.06H32.6c-.33,0-.6-.07-.59-.15s.26-.15.59-.15H357.41c.33,0,.59.07.59.15S357.73,211.06,357.41,211.06Z" transform="translate(-32.01 -2)"/><path class="cls-4" d="M167.45,207.23H150.24a2.88,2.88,0,0,1-2.53-3.13v-86a2.88,2.88,0,0,1,2.53-3.13h17.21a2.88,2.88,0,0,1,2.53,3.13v86A2.88,2.88,0,0,1,167.45,207.23Zm-17.21-91.4a2.12,2.12,0,0,0-1.86,2.3v86a2.11,2.11,0,0,0,1.86,2.3h17.21a2.11,2.11,0,0,0,1.86-2.3v-86a2.12,2.12,0,0,0-1.86-2.3Z" transform="translate(-32.01 -2)"/><path class="cls-8" d="M74.61,205.89H57.4a2.13,2.13,0,0,1-2.19-2.07V170.07A2.13,2.13,0,0,1,57.4,168H74.61a2.14,2.14,0,0,1,2.2,2.07v33.75A2.14,2.14,0,0,1,74.61,205.89Z" transform="translate(-32.01 -2)"/><text class="cls-9" transform="translate(17.38 270.22)">Ga<tspan class="cls-10" x="27.58" y="0">m</tspan><tspan x="48.74" y="0">e </tspan><tspan class="cls-11" x="66.7" y="0">P</tspan><tspan class="cls-12" x="80.92" y="0">r</tspan><tspan x="89.12" y="0">og</tspan><tspan class="cls-13" x="115.9" y="0">r</tspan><tspan x="124.14" y="0">ammi</tspan><tspan class="cls-10" x="184.18" y="0">n</tspan><tspan x="197.98" y="0">g</tspan></text><rect x="80.99" y="217" width="2" height="39"/><polygon points="81.99 217 77.99 217 81.99 212 85.99 217 81.99 217"/></svg>