<svg id="Layer_1" data-name="Layer 1" xmlns="http://www.w3.org/2000/svg" viewBox="0 0 266.5 265.02"><defs><style>.cls-1,.cls-2{fill:none;stroke-miterlimit:10;}.cls-1{stroke:#2f2e41;}.cls-2{stroke:#3f3d56;}.cls-3{fill:#57b894;}.cls-4{fill:#6c63ff;}.cls-5{fill:#2f2e41;}.cls-6{fill:#ffc1c7;}.cls-7{opacity:0.1;isolation:isolate;}.cls-8{fill:#f2f2f2;}</style></defs><title>why-2</title><path class="cls-1" d="M238.53,90.13q4.8,2.53,9.37,5.18" transform="translate(-58 -18.65)"/><path class="cls-1" d="M179.09,79.69a204.36,204.36,0,0,1,44.47,15.55,212,212,0,0,1,31.74,18.63" transform="translate(-58 -18.65)"/><line class="cls-2" x1="74.72" y1="264.34" x2="217.57" y2="264.34"/><path class="cls-1" d="M166.05,77.46c4.19.51,8.55,1.26,13,2.23" transform="translate(-58 -18.65)"/><path class="cls-1" d="M125.08,121.14c-7.73-11.32-10.39-22-6.42-30.31,4.4-9.18,16.16-13.87,32.11-14.22" transform="translate(-58 -18.65)"/><path class="cls-1" d="M288,146.42c6.45,10.38,8.45,20.11,4.77,27.79-3.24,6.76-10.47,11.08-20.42,13" transform="translate(-58 -18.65)"/><path class="cls-1" d="M255.3,113.87A157.49,157.49,0,0,1,273.57,129" transform="translate(-58 -18.65)"/><path class="cls-1" d="M120.8,63.35c12.84-2.76,29.45-2.27,48,1.39" transform="translate(-58 -18.65)"/><path class="cls-1" d="M307.67,146.42c5.75,8.4,9.28,16.53,10.21,23.92" transform="translate(-58 -18.65)"/><path class="cls-1" d="M247.9,95.31q8.64,5,16.46,10.34" transform="translate(-58 -18.65)"/><path class="cls-2" d="M256.16,219a8,8,0,0,0-6.85,4.79c-1.71,4.14.49,9,3.8,12s7.57,4.75,11.44,7c5.19,3,9.85,7.27,12.45,12.71s2.87,12.15-.18,17.34c-2.83,4.82-8,7.7-12.9,10.36" transform="translate(-58 -18.65)"/><ellipse class="cls-3" cx="202.53" cy="200.69" rx="6.05" ry="2.94"/><ellipse class="cls-3" cx="207.37" cy="220.06" rx="6.05" ry="2.94"/><ellipse class="cls-3" cx="196.3" cy="223.18" rx="6.05" ry="2.94"/><ellipse class="cls-3" cx="213.6" cy="239.43" rx="6.05" ry="2.94"/><ellipse class="cls-3" cx="225.7" cy="239.43" rx="6.05" ry="2.94"/><path class="cls-4" d="M223.72,104.81h3.41s3.13,24.15.86,26.43-8.53,3.69-9.38,0,0-17.34,0-17.34Z" transform="translate(-58 -18.65)"/><ellipse class="cls-5" cx="143.41" cy="65.13" rx="20.74" ry="24.3"/><path class="cls-6" d="M196.73,88.33s1.13,9.37-2.28,11.36,4,13.36,4,13.36l8.81,2.27,6-8.24-1.14-8.52s-6.82-6.82-3.69-13.07Z" transform="translate(-58 -18.65)"/><path class="cls-7" d="M196.73,88.33s1.13,9.37-2.28,11.36,4,13.36,4,13.36l8.81,2.27,6-8.24-1.14-8.52s-6.82-6.82-3.69-13.07Z" transform="translate(-58 -18.65)"/><path class="cls-6" d="M183.94,190.12s-3.41,31,0,38.37,12.5,28.13,12.5,28.13l-2.84,6,7.67-1.7,3.13-6s-3.7-14.5-4.26-19.61-4.83-14.49-4.83-14.49L203.26,187Z" transform="translate(-58 -18.65)"/><path class="cls-6" d="M210.93,185s.29,31.26,2.28,36.11l-1.14,42.34,6.25.83s9.1-35.52,7.68-44,.28-39.22.28-39.22Z" transform="translate(-58 -18.65)"/><circle class="cls-6" cx="143.41" cy="62.72" r="10.8"/><path class="cls-4" d="M238.22,188.93s-7.68,5.11-10.8,1.42-41.49,2.27-46.32,1.13,2.55-19.32,2.55-28.7c0-7,2.55-17.69,3.83-22.62.43-1.66.72-2.67.72-2.67s2.92-8.3,2.37-11.74a3.29,3.29,0,0,0-.21-.76,1.69,1.69,0,0,0-.17-.29c-1.36-1.81-5.26-15.06-6.78-20.74-.24-.84-.45-1.7-.61-2.56,0-.85,10.52-3.41,13.14-3.53s3.34,3.53,3.34,3.53c.86.57,4.83,10.51,4.83,10.51l3.7-9.37s-.29-2-.57-2,4.2-2.69,4.2-2.69,4.61,3.25,7.17,2.69,8.52,4.54,8.52,4.54-10.51,26.43-6.25,32.12S238.22,188.93,238.22,188.93Z" transform="translate(-58 -18.65)"/><path class="cls-5" d="M203.55,253.78s-4.83,4.83-4.83,5.4l-4-1.71s-1.71,6.26-2,7.11-5.12,8.52-9.95,11.93,0,7.68,4.26,6.83,15.07-10.52,15.07-10.52,7.38,0,9.94-5.68C212.07,267.14,205.25,253.21,203.55,253.78Z" transform="translate(-58 -18.65)"/><path class="cls-5" d="M217.76,262s-7.31-5.31-7.78-.38-.47,15.72-.47,15.72-2.27,7.11,4.83,6.25,7.68-2.84,7.68-2.84l-3.41-13.64v-6Z" transform="translate(-58 -18.65)"/><path class="cls-7" d="M190.19,124.7c-1.36-1.81-5.26-15.06-6.78-20.74h1.38s3.46,13.54,5.57,21A1.69,1.69,0,0,0,190.19,124.7Z" transform="translate(-58 -18.65)"/><path class="cls-7" d="M209,143.46s-4,.28-18.48-2.56a28.36,28.36,0,0,1-3-.74c.43-1.66.72-2.67.72-2.67s2.92-8.3,2.37-11.74a26.71,26.71,0,0,0,1.32,4.07c.57.28,18.76,3.41,21.32,4.54S209,143.46,209,143.46Z" transform="translate(-58 -18.65)"/><path class="cls-7" d="M214.06,106.26s7.84-1,8.32.31,2.48,13.55,3.33,15.13,1.14,11.33-2.27,11.65-8-3.15-7.11-6S214.06,106.26,214.06,106.26Z" transform="translate(-58 -18.65)"/><path class="cls-6" d="M210.08,132.37s11.94,1.43,13.93,0,10.23-1.42,8.52,2.56-16.48,4.26-16.48,4.26h-8.53Z" transform="translate(-58 -18.65)"/><path class="cls-4" d="M184.79,102h-2s-4,.85-3.41,13.35-3.41,20.75,11.08,23.59S209,141.47,209,141.47s6.82-8,4.26-9.1-20.75-4.26-21.32-4.54S184.79,102,184.79,102Z" transform="translate(-58 -18.65)"/><path class="cls-6" d="M222.17,107.58s-5-18.68-9-18.68-8.53.85-5.12,4.54,7.68,7.67,8,9.66a26.61,26.61,0,0,0,1.42,4.84Z" transform="translate(-58 -18.65)"/><path class="cls-4" d="M215.2,106.26s7.84-1,8.32.31,2.48,13.55,3.33,15.13S228,133,224.58,133.35s-8-3.15-7.11-6S215.2,106.26,215.2,106.26Z" transform="translate(-58 -18.65)"/><circle class="cls-5" cx="140.57" cy="52.49" r="10.23"/><path class="cls-1" d="M239.8,186.78c-15.88-2.61-33.84-8.3-52-17-20.62-9.88-38.1-22-50.56-34.31" transform="translate(-58 -18.65)"/><path class="cls-1" d="M175.43,175.14a256.21,256.21,0,0,1-38.15-24" transform="translate(-58 -18.65)"/><circle class="cls-4" cx="17.03" cy="24.46" r="17.03"/><circle class="cls-1" cx="21.02" cy="17.53" r="17.03"/><circle class="cls-8" cx="253.77" cy="85.97" r="9.91"/><circle class="cls-1" cx="256.09" cy="81.93" r="9.91"/><circle class="cls-8" cx="73.04" cy="189.24" r="14.24"/><circle class="cls-1" cx="76.39" cy="183.44" r="14.24"/></svg>