<svg id="Layer_1" data-name="Layer 1" xmlns="http://www.w3.org/2000/svg" xmlns:xlink="http://www.w3.org/1999/xlink" viewBox="0 0 409.9 257.1"><defs><style>.cls-1{opacity:0.5;}.cls-2{fill:url(#linear-gradient);}.cls-3{fill:#f5f5f5;}.cls-4{fill:#6c63ff;}.cls-5{fill:#333;}.cls-6{opacity:0.1;isolation:isolate;}.cls-7{fill:#be7c5e;}.cls-8{fill:url(#linear-gradient-2);}.cls-9{fill:url(#linear-gradient-3);}.cls-10{fill:#72351c;}.cls-11{fill:#fda57d;}.cls-12{fill:url(#linear-gradient-4);}.cls-13{fill:#fdb797;}.cls-14{fill:url(#linear-gradient-5);}.cls-15{fill:#fdd835;}.cls-16{fill:url(#linear-gradient-6);}.cls-17{font-size:12px;font-family:Montserrat-Bold, Montserrat;font-weight:700;}.cls-18{letter-spacing:-0.01em;}.cls-19{letter-spacing:-0.01em;}.cls-20{letter-spacing:-0.01em;}.cls-21{letter-spacing:-0.01em;}.cls-22{letter-spacing:-0.03em;}</style><linearGradient id="linear-gradient" x1="58.7" y1="10.49" x2="58.7" y2="85.42" gradientTransform="matrix(1, 0, 0, -1, -3.17, 264.7)" gradientUnits="userSpaceOnUse"><stop offset="0" stop-color="gray" stop-opacity="0.25"/><stop offset="0.54" stop-color="gray" stop-opacity="0.12"/><stop offset="1" stop-color="gray" stop-opacity="0.1"/></linearGradient><linearGradient id="linear-gradient-2" x1="58.43" y1="162.33" x2="58.43" y2="237.26" xlink:href="#linear-gradient"/><linearGradient id="linear-gradient-3" x1="199.75" y1="163.49" x2="199.75" y2="238.43" xlink:href="#linear-gradient"/><linearGradient id="linear-gradient-4" x1="335.42" y1="10.05" x2="335.42" y2="84.99" xlink:href="#linear-gradient"/><linearGradient id="linear-gradient-5" x1="197.7" y1="7.6" x2="197.7" y2="82.54" xlink:href="#linear-gradient"/><linearGradient id="linear-gradient-6" x1="335.53" y1="163.44" x2="335.53" y2="238.38" xlink:href="#linear-gradient"/></defs><title>why-8</title><g class="cls-1"><circle class="cls-2" cx="55.53" cy="216.74" r="37.47"/></g><circle class="cls-3" cx="55.53" cy="216.54" r="36.68"/><path class="cls-4" d="M58.81,290.62a36.6,36.6,0,0,0,20.16-6c-1.35-7.39-6.5-7.81-6.5-7.81H44.11s-4.85.4-6.37,7.19A36.53,36.53,0,0,0,58.81,290.62Z" transform="translate(-3.17 -37.3)"/><circle class="cls-5" cx="55.25" cy="215.73" r="16.26"/><path class="cls-6" d="M52.71,267.78H64.05v9.07a5.67,5.67,0,0,1-5.67,5.68h0a5.67,5.67,0,0,1-5.67-5.68h0v-9.07Z" transform="translate(-3.17 -37.3)"/><path class="cls-7" d="M53.79,267.36H63a1.08,1.08,0,0,1,1.08,1.08h0v8a5.67,5.67,0,0,1-5.67,5.67h0a5.67,5.67,0,0,1-5.67-5.67h0v-8A1.08,1.08,0,0,1,53.79,267.36Z" transform="translate(-3.17 -37.3)"/><path class="cls-6" d="M52.73,272.06a16.35,16.35,0,0,0,11.35,0v-1.4H52.73Z" transform="translate(-3.17 -37.3)"/><circle class="cls-7" cx="55.25" cy="219.26" r="16.26"/><path class="cls-5" d="M48.57,249.86A2.83,2.83,0,0,1,49.63,248a3,3,0,0,1,1.69-.22c4.49.25,9-.78,13.32-1.85,2.5-.61,5.17-1.35,6.79-3.37s-.49-8.34-3-9.09c-1.62-.49-3.49.43-5-.3a9.4,9.4,0,0,1-1.77-1.4,10.62,10.62,0,0,0-4.25-1.73c-1.75-.43-3.65-.85-5.31-.16-1.3.54-2.24,1.67-3.47,2.35-2.33,1.29-5.17.69-7.84.68-.9,0-2,.18-2.34,1a4.09,4.09,0,0,0,0,1.81c.08,1.94-1.52,3.45-2.87,4.85s-2.6,3.4-1.76,5.14c.33.66.92,1.17,1.25,1.82.58,1.14.29,2.51.5,3.77a9.5,9.5,0,0,0,1.06,2.72c1,1.94,6,12.38,8.3,9.73,1.11-1.3,1.29-5,1.74-6.72Q47.6,253.45,48.57,249.86Z" transform="translate(-3.17 -37.3)"/><ellipse class="cls-7" cx="43.68" cy="218.67" rx="1.51" ry="2.84"/><g class="cls-1"><circle class="cls-8" cx="55.26" cy="64.9" r="37.47"/></g><circle class="cls-3" cx="55.26" cy="64.7" r="36.68"/><path class="cls-5" d="M44.12,102.33S40,122.81,37.7,121.68c0,0,21.89,18.91,41.21,0,0,0-3.4-14.44-8.32-19.35Z" transform="translate(-3.17 -37.3)"/><path class="cls-4" d="M58.53,138.79a36.54,36.54,0,0,0,20.17-6c-1.36-7.38-6.5-7.8-6.5-7.8H43.84s-4.85.39-6.37,7.19A36.53,36.53,0,0,0,58.53,138.79Z" transform="translate(-3.17 -37.3)"/><circle class="cls-5" cx="54.98" cy="63.89" r="16.26"/><path class="cls-6" d="M52.43,115.94H63.78V125a5.68,5.68,0,0,1-5.66,5.68h0A5.67,5.67,0,0,1,52.45,125v-9.07Z" transform="translate(-3.17 -37.3)"/><path class="cls-7" d="M53.52,115.52H62.7a1.08,1.08,0,0,1,1.08,1.08h0v8a5.68,5.68,0,0,1-5.66,5.68h0a5.67,5.67,0,0,1-5.67-5.68h0v-8A1.08,1.08,0,0,1,53.52,115.52Z" transform="translate(-3.17 -37.3)"/><path class="cls-6" d="M52.46,120.22a16.33,16.33,0,0,0,11.34,0v-1.4H52.46Z" transform="translate(-3.17 -37.3)"/><circle class="cls-7" cx="54.98" cy="67.42" r="16.26"/><path class="cls-5" d="M42.6,98.54h31S71,86,59.24,86.82,42.6,98.54,42.6,98.54Z" transform="translate(-3.17 -37.3)"/><ellipse class="cls-7" cx="39.05" cy="66.73" rx="1.51" ry="2.84"/><ellipse class="cls-7" cx="70.82" cy="66.73" rx="1.51" ry="2.84"/><path class="cls-6" d="M42.6,99h31S71,86.45,59.24,87.24,42.6,99,42.6,99Z" transform="translate(-3.17 -37.3)"/><g class="cls-1"><circle class="cls-9" cx="196.58" cy="63.74" r="37.47"/></g><circle class="cls-3" cx="196.65" cy="63.5" r="36.68"/><path class="cls-4" d="M199.85,137.62a36.53,36.53,0,0,0,20.17-6c-1.36-7.39-6.5-7.81-6.5-7.81H185.16s-4.85.4-6.37,7.19A36.53,36.53,0,0,0,199.85,137.62Z" transform="translate(-3.17 -37.3)"/><circle class="cls-10" cx="196.3" cy="62.72" r="17.7"/><path class="cls-6" d="M193.75,114.77H205.1v9.08a5.68,5.68,0,0,1-5.66,5.68h0a5.67,5.67,0,0,1-5.67-5.67v-9.09Z" transform="translate(-3.17 -37.3)"/><path class="cls-11" d="M194.83,114.35H204a1.09,1.09,0,0,1,1.09,1.08v8a5.67,5.67,0,0,1-5.67,5.67h0a5.67,5.67,0,0,1-5.67-5.67v-8a1.08,1.08,0,0,1,1.08-1.08Z" transform="translate(-3.17 -37.3)"/><path class="cls-6" d="M193.77,119.05a16.33,16.33,0,0,0,11.34,0v-1.4H193.77Z" transform="translate(-3.17 -37.3)"/><circle class="cls-11" cx="196.3" cy="66.26" r="16.26"/><path class="cls-6" d="M187.89,88.77s6.85,13.9,26.19,5.82l-4.5-7.06-8-2.87Z" transform="translate(-3.17 -37.3)"/><path class="cls-10" d="M187.89,88.56s6.85,13.91,26.19,5.82l-4.5-7.06-8-2.86Z" transform="translate(-3.17 -37.3)"/><path class="cls-10" d="M187.83,87.62a9.37,9.37,0,0,1,2.32-3.78c3.2-3.17,8.45-3.83,11.14-7.44a2.11,2.11,0,0,1-.79,2.87l-.18.1c2.58,0,5.56-.24,7-2.37a4.83,4.83,0,0,1-.82,5.09c2.29.11,4.72,1.66,4.87,3.94a4.53,4.53,0,0,1-2.1,3.83A11.75,11.75,0,0,1,205,91.45C200.7,92.42,185,96.43,187.83,87.62Z" transform="translate(-3.17 -37.3)"/><path class="cls-10" d="M215.73,103.7h-.43l-8.39,7.47c-8.08-3.78-14,0-14,0L184.1,104l-.88.11a16.26,16.26,0,0,0,32.51-.42ZM199.45,114c-3.17,0-5.73-.65-5.73-1.43s2.56-1.44,5.73-1.44,5.72.65,5.72,1.44-2.56,1.43-5.73,1.43Z" transform="translate(-3.17 -37.3)"/><ellipse class="cls-11" cx="180.03" cy="66.24" rx="1.51" ry="2.84"/><ellipse class="cls-11" cx="212.56" cy="66.24" rx="1.51" ry="2.84"/><g class="cls-1"><circle class="cls-12" cx="332.25" cy="217.18" r="37.47"/></g><circle class="cls-3" cx="332.32" cy="216.94" r="36.68"/><path class="cls-4" d="M335.52,291.06a36.47,36.47,0,0,0,20.16-6c-1.35-7.38-6.49-7.81-6.49-7.81H320.81s-4.85.4-6.36,7.2A36.45,36.45,0,0,0,335.52,291.06Z" transform="translate(-3.17 -37.3)"/><circle class="cls-5" cx="331.97" cy="216.17" r="17.7"/><path class="cls-6" d="M329.42,268.21h11.35v9.08A5.67,5.67,0,0,1,335.1,283h0a5.67,5.67,0,0,1-5.68-5.67h0v-9.08Z" transform="translate(-3.17 -37.3)"/><path class="cls-13" d="M330.5,267.79h9.18a1.09,1.09,0,0,1,1.09,1.09h0v8a5.67,5.67,0,0,1-5.67,5.67h0a5.67,5.67,0,0,1-5.68-5.67h0v-8a1.09,1.09,0,0,1,1.08-1.08Z" transform="translate(-3.17 -37.3)"/><path class="cls-6" d="M329.44,272.5a16.35,16.35,0,0,0,11.35,0v-1.4H329.44Z" transform="translate(-3.17 -37.3)"/><circle class="cls-13" cx="331.97" cy="219.7" r="16.26"/><path class="cls-6" d="M323.56,242.21s6.85,13.9,26.18,5.82l-4.5-7.06-8-2.87Z" transform="translate(-3.17 -37.3)"/><path class="cls-5" d="M323.56,242s6.85,13.91,26.18,5.82l-4.5-7.06-8-2.86Z" transform="translate(-3.17 -37.3)"/><path class="cls-5" d="M323.49,241.06a9.6,9.6,0,0,1,2.33-3.79c3.2-3.16,8.44-3.82,11.13-7.43a2.1,2.1,0,0,1-.78,2.87,1.11,1.11,0,0,1-.19.09c2.59,0,5.57-.24,7-2.36a4.81,4.81,0,0,1-.81,5.09c2.28.1,4.72,1.65,4.87,3.94a4.56,4.56,0,0,1-2.1,3.83,11.76,11.76,0,0,1-4.25,1.6C336.37,245.86,320.66,249.87,323.49,241.06Z" transform="translate(-3.17 -37.3)"/><ellipse class="cls-13" cx="315.7" cy="219.68" rx="1.51" ry="2.84"/><ellipse class="cls-13" cx="348.22" cy="219.68" rx="1.51" ry="2.84"/><g class="cls-1"><circle class="cls-14" cx="194.53" cy="219.63" r="37.47"/></g><circle class="cls-3" cx="194.53" cy="219.43" r="36.68"/><path class="cls-15" d="M218,260c0,13.5-8.81,28.54-19.69,28.54s-19.67-15-19.67-28.54,8.81-20.37,19.68-20.37S218,246.52,218,260Z" transform="translate(-3.17 -37.3)"/><path class="cls-4" d="M197.81,293.52a36.6,36.6,0,0,0,20.16-6c-1.35-7.39-6.5-7.81-6.5-7.81H183.11s-4.85.4-6.37,7.19A36.53,36.53,0,0,0,197.81,293.52Z" transform="translate(-3.17 -37.3)"/><path class="cls-6" d="M191.71,270.67h11.34v9.07a5.67,5.67,0,0,1-5.67,5.67h0a5.67,5.67,0,0,1-5.67-5.67v-9.07Z" transform="translate(-3.17 -37.3)"/><path class="cls-13" d="M192.79,270.25H202a1.08,1.08,0,0,1,1.08,1.08v8a5.67,5.67,0,0,1-5.67,5.67h0a5.67,5.67,0,0,1-5.67-5.67v-8A1.08,1.08,0,0,1,192.79,270.25Z" transform="translate(-3.17 -37.3)"/><path class="cls-6" d="M191.73,275a16.3,16.3,0,0,0,11.35,0v-1.39H191.73Z" transform="translate(-3.17 -37.3)"/><circle class="cls-13" cx="194.25" cy="222.15" r="16.26"/><ellipse class="cls-13" cx="178.33" cy="221.46" rx="1.51" ry="2.84"/><ellipse class="cls-13" cx="210.09" cy="221.46" rx="1.51" ry="2.84"/><path class="cls-6" d="M183,250.63s9.2,12.58,30.28,8.28c0,0,2.35-2.86-3.38-11.65S188.23,239.89,183,250.63Z" transform="translate(-3.17 -37.3)"/><path class="cls-15" d="M183,250.43s9.2,12.58,30.28,8.28c0,0,2.35-2.86-3.38-11.66S188.23,239.69,183,250.43Z" transform="translate(-3.17 -37.3)"/><g class="cls-1"><circle class="cls-16" cx="332.36" cy="63.79" r="37.47"/></g><circle class="cls-3" cx="332.44" cy="63.55" r="36.68"/><path class="cls-5" d="M355.78,104.47c0,12.2-8.76,18.2-20.15,18.2s-21.06-6-21.06-18.2,9.22-22.09,20.61-22.09S355.78,92.26,355.78,104.47Z" transform="translate(-3.17 -37.3)"/><path class="cls-4" d="M335.63,137.68a36.51,36.51,0,0,0,20.17-6c-1.35-7.38-6.5-7.81-6.5-7.81H320.94s-4.85.4-6.37,7.2A36.53,36.53,0,0,0,335.63,137.68Z" transform="translate(-3.17 -37.3)"/><path class="cls-6" d="M329.54,114.82h11.34v9.07a5.67,5.67,0,0,1-5.66,5.68h0a5.67,5.67,0,0,1-5.67-5.67v-9.08Z" transform="translate(-3.17 -37.3)"/><path class="cls-11" d="M330.62,114.41h9.18a1.08,1.08,0,0,1,1.08,1.08v8a5.67,5.67,0,0,1-5.67,5.67h0a5.67,5.67,0,0,1-5.67-5.67v-8a1.08,1.08,0,0,1,1.08-1.09Z" transform="translate(-3.17 -37.3)"/><path class="cls-6" d="M329.56,119.11a16.27,16.27,0,0,0,11.34,0v-1.39H329.56Z" transform="translate(-3.17 -37.3)"/><circle class="cls-11" cx="332.08" cy="66.31" r="16.26"/><path class="cls-6" d="M316.51,104.67a29.16,29.16,0,0,0,17.78-11s10.13,11.15,17.18,9.92c0,0,4.09-4.3,0-8.59s-7.26-9.72-12.68-9-12.07,1-14.93,3.58S316.51,104.67,316.51,104.67Z" transform="translate(-3.17 -37.3)"/><path class="cls-5" d="M316.51,104.47a29.14,29.14,0,0,0,17.78-11s10.13,11.15,17.18,9.92c0,0,4.09-4.29,0-8.59s-7.26-9.71-12.68-9-12.05,1-14.91,3.6S316.51,104.47,316.51,104.47Z" transform="translate(-3.17 -37.3)"/><ellipse class="cls-11" cx="315.82" cy="66.3" rx="1.51" ry="2.84"/><ellipse class="cls-11" cx="348.34" cy="66.3" rx="1.51" ry="2.84"/><text class="cls-17" transform="translate(17.11 170.2)">D<tspan class="cls-18" x="9.91" y="0">E</tspan><tspan class="cls-19" x="17.84" y="0">V</tspan><tspan x="26.62" y="0">E</tspan><tspan class="cls-20" x="34.67" y="0">L</tspan><tspan x="41.77" y="0">O</tspan><tspan class="cls-18" x="51.9" y="0">P</tspan><tspan x="60.56" y="0">ER</tspan></text><text class="cls-17" transform="translate(157.11 169.2)">SOUND A<tspan class="cls-18" x="59.44" y="0">R</tspan><tspan x="68.14" y="0">TI</tspan><tspan class="cls-21" x="79.49" y="0">S</tspan><tspan x="87.02" y="0">T</tspan></text><text class="cls-17" transform="translate(300.11 169.2)">DESIGNER</text><text class="cls-17" transform="translate(149.11 11.2)">L<tspan class="cls-18" x="7.25" y="0">E</tspan><tspan class="cls-19" x="15.18" y="0">V</tspan><tspan x="23.95" y="0">EL CRE</tspan><tspan class="cls-22" x="68.31" y="0">A</tspan><tspan class="cls-18" x="77.09" y="0">T</tspan><tspan x="84.38" y="0">OR</tspan></text><text class="cls-17" transform="translate(0.11 11.2)">AI <tspan class="cls-18" x="16.52" y="0">P</tspan><tspan x="25.19" y="0">ROGRAMMER</tspan></text><text class="cls-17" transform="translate(285.11 10.2)">3D MODELER</text></svg>