<svg id="Layer_1" data-name="Layer 1" xmlns="http://www.w3.org/2000/svg" viewBox="0 0 345.25 282.45"><defs><style>.cls-1{fill:#feb8b8;}.cls-2{fill:#2f2e41;}.cls-3{fill:#ccc;}.cls-4{fill:#6c63ff;}.cls-5{fill:#fff;}.cls-6{fill:#424251;}.cls-7{fill:#9c9cdb;}</style></defs><title>why-1</title><g id="b91459ce-423d-4e92-a857-d0ba85dc07c7"><path id="bc369f15-2cd9-428d-9eec-3a8fd8cc1bba" class="cls-1" d="M70.16,290.54h-8l-3.8-30.82h11.8Z" transform="translate(-10.75 -16.51)"/><path id="fafca8b8-1a63-4513-a3fa-e64917847011" class="cls-2" d="M46.76,298H71.87v-9.7H56.33a9.57,9.57,0,0,0-9.57,9.57h0Z" transform="translate(-10.75 -16.51)"/><path id="a38ea43e-f1b1-406e-84c8-61e7480f01b4" class="cls-1" d="M67.35,242.78l5.52,5.79L97.8,230.06l-8.13-8.54Z" transform="translate(-10.75 -16.51)"/><path id="b5ba90e2-8a51-4a77-95c4-5b486c8770ec" class="cls-2" d="M78.54,251.22,67.82,240l-7,6.7,17.33,18.18.1-.09a9.56,9.56,0,0,0,.32-13.53Z" transform="translate(-10.75 -16.51)"/><path id="b1536285-e66e-494f-8c4f-a2304265e4c3" class="cls-1" d="M11.73,158.34a6.55,6.55,0,0,1,2.11-9,5.85,5.85,0,0,1,1-.52l31.37-80,12.23,7.32L23.62,152.87a6.59,6.59,0,0,1-11.89,5.47Z" transform="translate(-10.75 -16.51)"/><path id="acd6249e-4699-4411-813c-091b3a750afe" class="cls-1" d="M130.82,164.07a6.54,6.54,0,0,1-6.07-7,5.42,5.42,0,0,1,.18-1.14L78.65,83.57,91.75,78l41.61,73.26a6.59,6.59,0,0,1-2.54,12.84Z" transform="translate(-10.75 -16.51)"/><path id="ece4d731-f277-435f-bbc1-e3b70679d22f" class="cls-2" d="M46.55,150.34l8.19,121.75,19.58-1.72,4-89.83,10.94,38.58,23.61,1.72-9.34-76.26Z" transform="translate(-10.75 -16.51)"/><path id="b91f5bf0-a8c5-41a2-a26e-8e2fd84207c6" class="cls-2" d="M92.75,213.36l-3.46,5.76-24.18,16.7L82.38,245s33.4-18.43,30.52-24.19Z" transform="translate(-10.75 -16.51)"/><path id="b0b7866d-f3ba-460a-97cc-8103175b89de" class="cls-3" d="M29.41,101.07l6.81-19.2A34.31,34.31,0,0,1,54,62.3h0a49.08,49.08,0,0,1,28.8-1.58l2.48.62a47.85,47.85,0,0,1,18.18,8.78c4.2,3.31,8,7.5,8.31,12,0,0,0,0,0,0,1.16,5.1,1.74,31.58,1.74,31.58H103.22l1.62,35.7-.13-.25s-59.18,11.19-59.18,5.44V117.77l-1.21-13.34Z" transform="translate(-10.75 -16.51)"/><circle id="bd3b9138-8795-4826-98b2-48d72249760b" class="cls-1" cx="73.9" cy="22.82" r="16.4"/><path id="e83e2647-99b5-4c80-ac3e-9e5d1f9bc81d" class="cls-2" d="M87.1,32l12.74.51c1.6,0,3.35-.06,4.57-1.1,1.83-1.56,1.53-4.51.54-6.72-2.74-6.13-8.86-8.33-15.58-8.15S75.61,19,72,24.64A26.34,26.34,0,0,0,68.76,44,21.16,21.16,0,0,1,86.05,32Z" transform="translate(-10.75 -16.51)"/></g><g id="ff061cc6-72bd-494d-9c36-32e4a4020cd7"><path id="bc404282-8d4f-43f7-bc12-02f97785eba1" class="cls-4" d="M162.72,192.39l-46.09-32.31a2,2,0,0,1-.49-2.75l36.18-51.61a2,2,0,0,1,2.75-.49l46.09,32.31a2,2,0,0,1,.48,2.75L165.47,191.9A2,2,0,0,1,162.72,192.39Z" transform="translate(-10.75 -16.51)"/><path id="ae4af9f3-88ec-4cab-9b9e-a4fc234f7062" class="cls-5" d="M173.08,157.34l-27-19a2.9,2.9,0,1,1,3.33-4.76h0l27,18.95a2.91,2.91,0,0,1-3.34,4.77Z" transform="translate(-10.75 -16.51)"/><path id="fe48f3fd-992f-41c2-af3b-c30882e26a16" class="cls-5" d="M166.88,166.19l-27-18.95a2.91,2.91,0,0,1,3.34-4.77h0l27,19a2.9,2.9,0,0,1-3.33,4.76Z" transform="translate(-10.75 -16.51)"/><path id="e216638f-22ba-49ea-a46c-300c78c4e875" class="cls-5" d="M160.6,175.14l-27-18.95a2.9,2.9,0,1,1,3.33-4.76h0l27,18.95a2.91,2.91,0,1,1-3.34,4.76Z" transform="translate(-10.75 -16.51)"/><path id="ee43e3d8-5f22-4b53-a964-043fec166479" class="cls-5" d="M173,139.82l-10.48-7.34a2.91,2.91,0,0,1,3.34-4.77h0l10.47,7.34a2.91,2.91,0,1,1-3.33,4.77Z" transform="translate(-10.75 -16.51)"/></g><path id="bc369f15-2cd9-428d-9eec-3a8fd8cc1bba-2" data-name="bc369f15-2cd9-428d-9eec-3a8fd8cc1bba" class="cls-1" d="M296.55,291.54h8l3.8-30.84h-11.8Z" transform="translate(-10.75 -16.51)"/><path id="fafca8b8-1a63-4513-a3fa-e64917847011-2" data-name="fafca8b8-1a63-4513-a3fa-e64917847011" class="cls-2" d="M320,299H294.84v-9.71h15.55a9.57,9.57,0,0,1,9.57,9.58h0Z" transform="translate(-10.75 -16.51)"/><path id="a38ea43e-f1b1-406e-84c8-61e7480f01b4-2" data-name="a38ea43e-f1b1-406e-84c8-61e7480f01b4" class="cls-1" d="M299.36,243.75l-5.51,5.79-25-18.51,8.14-8.55Z" transform="translate(-10.75 -16.51)"/><path id="b5ba90e2-8a51-4a77-95c4-5b486c8770ec-2" data-name="b5ba90e2-8a51-4a77-95c4-5b486c8770ec" class="cls-2" d="M288.16,252.19l10.74-11.26,7,6.7-17.33,18.19-.1-.09a9.58,9.58,0,0,1-.33-13.54Z" transform="translate(-10.75 -16.51)"/><path id="b1536285-e66e-494f-8c4f-a2304265e4c3-2" data-name="b1536285-e66e-494f-8c4f-a2304265e4c3" class="cls-1" d="M355,159.26a6.56,6.56,0,0,0-2.11-9,7.09,7.09,0,0,0-1-.52l-31.39-80L308.25,77l34.87,76.74A6.59,6.59,0,0,0,355,159.26Z" transform="translate(-10.75 -16.51)"/><path id="acd6249e-4699-4411-813c-091b3a750afe-2" data-name="acd6249e-4699-4411-813c-091b3a750afe" class="cls-1" d="M235.86,165a6.56,6.56,0,0,0,6.08-7,6.17,6.17,0,0,0-.19-1.14l46.31-72.4L275,78.85l-41.64,73.3A6.6,6.6,0,0,0,235.86,165Z" transform="translate(-10.75 -16.51)"/><path id="ece4d731-f277-435f-bbc1-e3b70679d22f-2" data-name="ece4d731-f277-435f-bbc1-e3b70679d22f" class="cls-6" d="M320.17,151.25,312,273.08l-19.59-1.73-4-89.88-10.95,38.6-23.62,1.73,9.35-76.31Z" transform="translate(-10.75 -16.51)"/><path id="b91f5bf0-a8c5-41a2-a26e-8e2fd84207c6-2" data-name="b91f5bf0-a8c5-41a2-a26e-8e2fd84207c6" class="cls-6" d="M274,214.31l3.46,5.76,24.2,16.71L284.32,246s-33.41-18.44-30.53-24.2Z" transform="translate(-10.75 -16.51)"/><path id="b0b7866d-f3ba-460a-97cc-8103175b89de-2" data-name="b0b7866d-f3ba-460a-97cc-8103175b89de" class="cls-7" d="M337.33,102l-6.82-19.21a34.31,34.31,0,0,0-17.75-19.58h0A49.11,49.11,0,0,0,284,61.59l-2.49.62A48,48,0,0,0,263.28,71c-4.2,3.31-8,7.51-8.32,12,0,0,0,0,0,0-1.16,5.1-1.74,31.6-1.74,31.6h10.27l-1.63,35.72.13-.26s59.22,11.21,59.22,5.45V118.67l1.21-13.35Z" transform="translate(-10.75 -16.51)"/><circle id="bd3b9138-8795-4826-98b2-48d72249760b-2" data-name="bd3b9138-8795-4826-98b2-48d72249760b" class="cls-1" cx="271.31" cy="23.68" r="16.41"/><path id="e83e2647-99b5-4c80-ac3e-9e5d1f9bc81d-2" data-name="e83e2647-99b5-4c80-ac3e-9e5d1f9bc81d" class="cls-2" d="M279.6,32.83l-12.74.51c-1.6,0-3.35-.06-4.57-1.1-1.84-1.56-1.53-4.51-.55-6.72,2.75-6.14,8.87-8.34,15.59-8.16s13.77,2.46,17.39,8.13A26.42,26.42,0,0,1,298,44.89a21.18,21.18,0,0,0-17.3-12.06Z" transform="translate(-10.75 -16.51)"/></svg>