<svg id="Layer_1" data-name="Layer 1" xmlns="http://www.w3.org/2000/svg" xmlns:xlink="http://www.w3.org/1999/xlink" viewBox="0 0 366 281.22"><defs><style>.cls-1,.cls-4,.cls-9{fill:#6c63ff;}.cls-1,.cls-2,.cls-5,.cls-8{opacity:0.1;}.cls-1,.cls-10,.cls-11,.cls-12,.cls-5,.cls-8,.cls-9{isolation:isolate;}.cls-3{fill:#3f3d56;}.cls-6{fill:#d0d2d5;}.cls-7{fill:#fff;}.cls-8{fill:#444053;}.cls-9{opacity:0.3;}.cls-10{fill:#fa5959;}.cls-10,.cls-11,.cls-12{opacity:0.8;}.cls-11{fill:#fed253;}.cls-12{fill:#8ccf4d;}.cls-13{fill:url(#linear-gradient);}.cls-14{fill:#2f2e41;}.cls-15{fill:#454b69;}.cls-16{fill:#fbbebe;}</style><linearGradient id="linear-gradient" x1="341.47" y1="-23.28" x2="341.47" y2="94.23" gradientTransform="matrix(1, -0.04, -0.04, -1, -96.76, 274.36)" gradientUnits="userSpaceOnUse"><stop offset="0" stop-color="gray" stop-opacity="0.25"/><stop offset="0.54" stop-color="gray" stop-opacity="0.12"/><stop offset="1" stop-color="gray" stop-opacity="0.1"/></linearGradient></defs><title>why-13</title><ellipse class="cls-1" cx="167.71" cy="236.51" rx="152.1" ry="11.81"/><g class="cls-2"><path class="cls-3" d="M332.42,178.81c-.91-2.76-4.59-4-8.23-2.84a8.43,8.43,0,0,0-1.51.66,5.4,5.4,0,0,0-.72-.17,7.94,7.94,0,0,0,.23-2.43,8.79,8.79,0,0,0,3.9-7.68,8.85,8.85,0,0,0,3.89-7.69,8.51,8.51,0,0,0,2.94-3.33c1.75-3.47,1-7.37-1.62-8.72s-6.23.39-8,3.86a8.53,8.53,0,0,0-.95,4.35,8.81,8.81,0,0,0-3.88,7.68,8.82,8.82,0,0,0-3.89,7.69,8.81,8.81,0,0,0-3.9,7.69,8.54,8.54,0,0,0-2.95,3.33,9.84,9.84,0,0,0-.74,2,7.73,7.73,0,0,0-1.59-1.69,9.11,9.11,0,0,0-.36-1.61c-1.19-3.64-4.4-5.86-7.15-5s-4,4.59-2.84,8.23a8.27,8.27,0,0,0,2.71,4,9.11,9.11,0,0,0,.36,1.61,7.84,7.84,0,0,0,3.63,4.56,8.31,8.31,0,0,0-.3,1.4,9,9,0,0,0-2.7,5.33,9.09,9.09,0,0,0-2.7,5.34,9.15,9.15,0,0,0-1.79,2.44c-1.75,3.47-1,7.38,1.63,8.71s6.22-.38,8-3.85a8.72,8.72,0,0,0,.89-2.9,9,9,0,0,0,2.7-5.33,9.09,9.09,0,0,0,2.7-5.34,9.05,9.05,0,0,0,2.67-5.34,9,9,0,0,0,2.7-5.35,8.32,8.32,0,0,0,1.22-1.43,8.69,8.69,0,0,0,5.9-.93,8.27,8.27,0,0,0,4.8-.17C331.1,184.77,333.33,181.57,332.42,178.81Z" transform="translate(-30 -9.59)"/><g class="cls-2"><path d="M326,167.93a7.67,7.67,0,0,1-1.23,1,8.38,8.38,0,0,1-.4,3,9.61,9.61,0,0,0,.75-1.23A9,9,0,0,0,326,167.93Z" transform="translate(-30 -9.59)"/><path d="M329.89,160.24a7.84,7.84,0,0,1-1.23,1,8.09,8.09,0,0,1-.4,3A8.66,8.66,0,0,0,329,163,9,9,0,0,0,329.89,160.24Z" transform="translate(-30 -9.59)"/><path d="M321.08,157.38a8.39,8.39,0,0,1,.06-1.58,8.85,8.85,0,0,0-1.71,2.36,9.08,9.08,0,0,0-.55,1.33A8.33,8.33,0,0,1,321.08,157.38Z" transform="translate(-30 -9.59)"/><path d="M296.41,203.88a8.67,8.67,0,0,1,1.06-1.21,7.94,7.94,0,0,1,.31-1.43,8.64,8.64,0,0,0-.82,1.33A8.85,8.85,0,0,0,296.41,203.88Z" transform="translate(-30 -9.59)"/><path d="M299.11,198.55a8.07,8.07,0,0,1,1.05-1.21,8.52,8.52,0,0,1,.3-1.4h0a9.48,9.48,0,0,0-.79,1.29A9,9,0,0,0,299.11,198.55Z" transform="translate(-30 -9.59)"/><path d="M322.12,175.61a7.67,7.67,0,0,1-1.23,1,7.94,7.94,0,0,1-.23,2.43c.24,0,.48.1.72.16a9.17,9.17,0,0,1,1.51-.65c3.65-1.2,7.33.08,8.23,2.83a4.14,4.14,0,0,1,.12,2.15,4.9,4.9,0,0,0,1.18-4.7c-.91-2.76-4.6-4-8.23-2.84a9.31,9.31,0,0,0-1.52.66l-.71-.17A8,8,0,0,0,322.12,175.61Z" transform="translate(-30 -9.59)"/><path d="M295.08,206.56a8.64,8.64,0,0,0-.82,1.33,9.2,9.2,0,0,0-.55,1.34,8.9,8.9,0,0,1,1.07-1.22A9.11,9.11,0,0,1,295.08,206.56Z" transform="translate(-30 -9.59)"/><path d="M317.17,165.07a7.58,7.58,0,0,1,.07-1.58,8.84,8.84,0,0,0-1.72,2.35,10.89,10.89,0,0,0-.54,1.33A8.26,8.26,0,0,1,317.17,165.07Z" transform="translate(-30 -9.59)"/><path d="M311.56,196.4a8.5,8.5,0,0,1-.36,1.57,9.61,9.61,0,0,0,.75-1.23,9.31,9.31,0,0,0,.58-1.43A8.39,8.39,0,0,1,311.56,196.4Z" transform="translate(-30 -9.59)"/><path d="M306.16,207.07a8.32,8.32,0,0,1-.36,1.57,8.66,8.66,0,0,0,.76-1.23,10.44,10.44,0,0,0,.58-1.43A7.79,7.79,0,0,1,306.16,207.07Z" transform="translate(-30 -9.59)"/><path d="M308.86,201.73a8.32,8.32,0,0,1-.36,1.57,9.52,9.52,0,0,0,.77-1.21,9.31,9.31,0,0,0,.58-1.43A7.75,7.75,0,0,1,308.86,201.73Z" transform="translate(-30 -9.59)"/><path d="M314.26,191.07a8.4,8.4,0,0,1-.36,1.56,9,9,0,0,0,1.33-2.68A8.56,8.56,0,0,1,314.26,191.07Z" transform="translate(-30 -9.59)"/><path d="M296.59,177.57c2.76-.9,6,1.31,7.16,5a10.06,10.06,0,0,1,.35,1.61,7.34,7.34,0,0,1,1.59,1.7,9.22,9.22,0,0,1,.75-2.06c.12-.24.26-.48.4-.72a7.77,7.77,0,0,0-1.43-1.49,8.73,8.73,0,0,0-.36-1.61c-1.2-3.64-4.4-5.86-7.16-4.95a4.88,4.88,0,0,0-3.08,3.73A4.24,4.24,0,0,1,296.59,177.57Z" transform="translate(-30 -9.59)"/><path d="M309.4,180.43a7.51,7.51,0,0,1,.07-1.57,8.84,8.84,0,0,0-1.72,2.35,8.06,8.06,0,0,0-.54,1.33A8.29,8.29,0,0,1,309.4,180.43Z" transform="translate(-30 -9.59)"/><path d="M313.29,172.75a8.33,8.33,0,0,1,.06-1.58,8.59,8.59,0,0,0-1.71,2.35,9.56,9.56,0,0,0-.55,1.33A8.3,8.3,0,0,1,313.29,172.75Z" transform="translate(-30 -9.59)"/><path d="M303.46,212.41a9.37,9.37,0,0,1-.35,1.57,9.2,9.2,0,0,0,1.33-2.68A8,8,0,0,1,303.46,212.41Z" transform="translate(-30 -9.59)"/></g><path class="cls-3" d="M337.73,143.3a8.39,8.39,0,0,0,2.94-3.34c1.76-3.47,1-7.37-1.62-8.72s-6.23.39-8,3.87a8.42,8.42,0,0,0-.94,4.35,8.84,8.84,0,0,0-3.89,7.69,8.43,8.43,0,0,0-2.94,3.33,8.32,8.32,0,0,0-.54,1.32,7.45,7.45,0,0,1,3.85-2.86,4.38,4.38,0,0,0,5.52,2.82h0a7.44,7.44,0,0,1,0,4.8,10.24,10.24,0,0,0,.75-1.22,8.41,8.41,0,0,0,.93-4.35,8.8,8.8,0,0,0,3.89-7.68Z" transform="translate(-30 -9.59)"/><path class="cls-4" d="M380.44,94a25,25,0,0,0,3.12-1.73L372,83.86l13.6,7a25.84,25.84,0,0,0,9.67-18l-23.12.23,23.17-3.87a25.77,25.77,0,1,0-51,6.54,25.55,25.55,0,0,0-4.75,2.87l12.08,16.79-14.5-14.7a25.8,25.8,0,0,0-7.22,23.48,25.77,25.77,0,1,0,36.17,18.29A25.77,25.77,0,0,0,380.44,94Z" transform="translate(-30 -9.59)"/><path class="cls-5" d="M332.17,87.48a25.66,25.66,0,0,0-2.27,16.72,25.77,25.77,0,1,0,36.16,18.29C371.12,120.14,333.47,84.9,332.17,87.48Z" transform="translate(-30 -9.59)"/><circle class="cls-4" cx="331.21" cy="36.76" r="3.83"/><circle class="cls-4" cx="353.56" cy="39.22" r="3.83"/><circle class="cls-4" cx="362.17" cy="73.59" r="3.83"/><circle class="cls-4" cx="350.54" cy="90.76" r="3.83"/><circle class="cls-4" cx="334.65" cy="126.42" r="3.83"/><circle class="cls-5" cx="334.65" cy="126.42" r="3.83"/><circle class="cls-4" cx="299.32" cy="86.03" r="3.83"/><circle class="cls-5" cx="299.32" cy="86.03" r="3.83"/><path class="cls-5" d="M325.24,158.55c-2.54-1.29-3.31-4.93-1.82-8.29-.08.14-.16.28-.23.43-1.76,3.47-1,7.37,1.62,8.71s6.23-.39,8-3.86c.08-.14.14-.29.21-.43C331.17,158.3,327.79,159.83,325.24,158.55Z" transform="translate(-30 -9.59)"/><path class="cls-5" d="M321.47,166c-2.55-1.29-3.32-4.93-1.83-8.29-.08.14-.16.28-.23.43-1.76,3.47-1,7.37,1.62,8.71s6.23-.38,8-3.86c.07-.14.14-.28.2-.43C327.4,165.77,324,167.3,321.47,166Z" transform="translate(-30 -9.59)"/><path class="cls-5" d="M317.69,173.49c-2.54-1.29-3.32-4.93-1.83-8.28a4.16,4.16,0,0,0-.23.42c-1.76,3.47-1,7.37,1.63,8.71s6.22-.38,8-3.86c.07-.14.14-.29.2-.43C323.62,173.24,320.23,174.78,317.69,173.49Z" transform="translate(-30 -9.59)"/><path class="cls-5" d="M313.92,181c-2.54-1.29-3.31-4.93-1.83-8.28-.08.13-.15.27-.23.42-1.75,3.47-1,7.37,1.63,8.71s6.23-.38,8-3.86c.07-.14.14-.28.2-.43C319.84,180.71,316.45,182.24,313.92,181Z" transform="translate(-30 -9.59)"/><path class="cls-5" d="M310.13,188.43c-2.54-1.29-3.31-4.93-1.83-8.28a4.13,4.13,0,0,0-.22.42c-1.76,3.47-1,7.37,1.62,8.71s6.23-.38,8-3.85l.21-.44C316.07,188.18,312.67,189.72,310.13,188.43Z" transform="translate(-30 -9.59)"/><path class="cls-5" d="M306.35,195.9c-2.54-1.28-3.31-4.92-1.82-8.28-.08.14-.16.28-.23.42-1.76,3.47-1,7.37,1.62,8.72s6.21-.39,8-3.86l.21-.44C312.28,195.65,308.91,197.19,306.35,195.9Z" transform="translate(-30 -9.59)"/><path class="cls-5" d="M302.57,203.37c-2.54-1.28-3.31-4.92-1.82-8.28-.08.14-.16.27-.23.42-1.75,3.47-1,7.37,1.62,8.72s6.23-.39,8-3.86c.08-.15.14-.29.21-.44C308.51,203.12,305.12,204.66,302.57,203.37Z" transform="translate(-30 -9.59)"/><path class="cls-5" d="M298.8,210.84c-2.55-1.28-3.32-4.92-1.83-8.28-.08.14-.16.28-.23.42-1.75,3.47-1,7.38,1.62,8.72s6.23-.39,8-3.86l.2-.44C304.73,210.59,301.34,212.11,298.8,210.84Z" transform="translate(-30 -9.59)"/><path class="cls-5" d="M296.31,215.75c-2.54-1.29-3.31-4.92-1.82-8.28-.08.14-.16.28-.23.42-1.76,3.47-1,7.38,1.62,8.71s6.23-.38,8-3.85c.08-.15.14-.29.21-.44C302.24,215.5,298.85,217,296.31,215.75Z" transform="translate(-30 -9.59)"/><path class="cls-4" d="M364.59,182.5a13.14,13.14,0,0,0,.72-3.5,1.91,1.91,0,1,0,0-3.82,1.32,1.32,0,0,0-.28,0,13.35,13.35,0,0,0-7-9.06,1.91,1.91,0,1,0-3.41-1.72,1.82,1.82,0,0,0-.18.51,13.4,13.4,0,0,0-11.76,3.52,13.31,13.31,0,0,0-3.51-.1l-1.55,7.05-.1-6.8a13.39,13.39,0,0,0,5.74,26.16,12,12,0,0,0,1.42-.39,1.94,1.94,0,0,0,.81.77,1.9,1.9,0,0,0,2.57-.84,2,2,0,0,0,.05-1.62,13.55,13.55,0,0,0,1.71-1.4,13.4,13.4,0,0,0,14.07-7.1L356.64,183Z" transform="translate(-30 -9.59)"/><g class="cls-2"><path d="M353.45,185.93c-2.66-3.52-4.29-7.68-6.17-11.67a49.52,49.52,0,0,0-2.53-4.78l-1.41-1.65-.72.63a13.31,13.31,0,0,0-3.51-.1l-1.55,7-.09-6.8a13.39,13.39,0,1,0,7.15,25.77,1.94,1.94,0,0,0,.81.77,1.91,1.91,0,0,0,2.62-2.46,13.57,13.57,0,0,0,1.72-1.41,13.41,13.41,0,0,0,8-1.18A18.93,18.93,0,0,1,353.45,185.93Z" transform="translate(-30 -9.59)"/></g><path class="cls-4" d="M306.3,170.82a1.91,1.91,0,0,0-1.71-2.77,13.34,13.34,0,0,0-4.19-7.45,13.45,13.45,0,0,0,.4-4.19l-7-1.2,6.82-.43a13.85,13.85,0,0,0-.5-1.89,1.91,1.91,0,0,0-.22-3.29,2,2,0,0,0-1.51-.09,13.39,13.39,0,0,0-23.9,11.07,1.83,1.83,0,0,0-.95.89,1.91,1.91,0,0,0,.84,2.57,1.87,1.87,0,0,0,1.57.07,13.52,13.52,0,0,0,2.54,3.1,13.33,13.33,0,0,0,.62,8.5l9.43-2.45-8.41,4.43a13.39,13.39,0,0,0,24.66-5.82A1.91,1.91,0,0,0,306.3,170.82Z" transform="translate(-30 -9.59)"/><path class="cls-5" d="M306.3,170.82a1.91,1.91,0,0,0-1.71-2.77,13.34,13.34,0,0,0-4.19-7.45c.06-.23.11-.45.15-.68a4.5,4.5,0,0,0-.69.62c-1.27,1.39-1.92,3.26-3.17,4.67a9.21,9.21,0,0,1-5.92,2.76,22.46,22.46,0,0,1-6.63-.54,19.25,19.25,0,0,0-5.48-.6,3.07,3.07,0,0,0-.53.07l.33.31a13.33,13.33,0,0,0,.62,8.5l9.43-2.45-8.41,4.43a13.39,13.39,0,0,0,24.66-5.82A1.91,1.91,0,0,0,306.3,170.82Z" transform="translate(-30 -9.59)"/></g><g class="cls-2"><path class="cls-3" d="M62,192.55c.45-1.39,2.31-2,4.14-1.43a3.72,3.72,0,0,1,.77.33,2.25,2.25,0,0,1,.35-.09,4.18,4.18,0,0,1-.11-1.22,4.47,4.47,0,0,1-2-3.87,4.47,4.47,0,0,1-2-3.87,4.36,4.36,0,0,1-1.48-1.68c-.88-1.75-.52-3.71.82-4.39s3.14.19,4,1.94a4.38,4.38,0,0,1,.47,2.19,4.46,4.46,0,0,1,2,3.87,4.42,4.42,0,0,1,2,3.87,4.41,4.41,0,0,1,2,3.87,4.31,4.31,0,0,1,1.49,1.68,4.25,4.25,0,0,1,.35,1,3.8,3.8,0,0,1,.8-.85,4.64,4.64,0,0,1,.19-.82c.6-1.83,2.22-2.94,3.61-2.5s2,2.31,1.43,4.15a4.25,4.25,0,0,1-1.36,2,4.75,4.75,0,0,1-.19.81,3.94,3.94,0,0,1-1.83,2.29,4.61,4.61,0,0,1,.15.72,4.42,4.42,0,0,1,.91,1.23,4.59,4.59,0,0,1,.45,1.46,4.52,4.52,0,0,1,.91,1.22,4.76,4.76,0,0,1,.45,1.46,4.62,4.62,0,0,1,.91,1.24c.88,1.74.52,3.71-.82,4.38s-3.14-.19-4-1.94a4.42,4.42,0,0,1-.45-1.46,4.5,4.5,0,0,1-1.36-2.69,4.47,4.47,0,0,1-1.36-2.69,4.37,4.37,0,0,1-.91-1.22,4.42,4.42,0,0,1-.45-1.46,4.57,4.57,0,0,1-.91-1.23,4.67,4.67,0,0,1-.45-1.46,4.65,4.65,0,0,1-.61-.72,4.25,4.25,0,0,1-2.21-.13,4.4,4.4,0,0,1-.77-.34,4,4,0,0,1-2.41-.08C62.69,195.55,61.57,193.94,62,192.55Z" transform="translate(-30 -9.59)"/><g class="cls-2"><path d="M65.26,187.06a3.67,3.67,0,0,0,.62.5,4.14,4.14,0,0,0,.2,1.52,5.73,5.73,0,0,1-.38-.62A4.57,4.57,0,0,1,65.26,187.06Z" transform="translate(-30 -9.59)"/><path d="M63.3,183.2a4.17,4.17,0,0,0,.62.49,4.11,4.11,0,0,0,.2,1.52A4.56,4.56,0,0,1,63.3,183.2Z" transform="translate(-30 -9.59)"/><path d="M67.75,181.75a3.49,3.49,0,0,0,0-.79,4.7,4.7,0,0,1,.86,1.18,4.37,4.37,0,0,1,.27.68A4.15,4.15,0,0,0,67.75,181.75Z" transform="translate(-30 -9.59)"/><path d="M80.17,205.18a5.15,5.15,0,0,0-.53-.61,5.62,5.62,0,0,0-.16-.71,4.53,4.53,0,0,1,.41.66A4.84,4.84,0,0,1,80.17,205.18Z" transform="translate(-30 -9.59)"/><path d="M78.8,202.49a5.15,5.15,0,0,0-.53-.61,4.27,4.27,0,0,0-.15-.71h0a4.57,4.57,0,0,1,.67,1.32Z" transform="translate(-30 -9.59)"/><path d="M67.22,190.94a3.26,3.26,0,0,0,.62.49,3.92,3.92,0,0,0,.11,1.23,2.33,2.33,0,0,0-.36.08,5.13,5.13,0,0,0-.76-.33c-1.83-.6-3.69,0-4.15,1.43a2.16,2.16,0,0,0-.06,1.07,2.49,2.49,0,0,1-.59-2.36c.46-1.39,2.32-2,4.15-1.43a3.64,3.64,0,0,1,.76.33,2.37,2.37,0,0,1,.36-.09A3.1,3.1,0,0,1,67.22,190.94Z" transform="translate(-30 -9.59)"/><path d="M80.84,206.53a4.14,4.14,0,0,1,.41.67,5.58,5.58,0,0,1,.28.67,5.15,5.15,0,0,0-.53-.61A4.52,4.52,0,0,0,80.84,206.53Z" transform="translate(-30 -9.59)"/><path d="M69.71,185.63a5.22,5.22,0,0,0,0-.79,4.37,4.37,0,0,1,.86,1.18,4.27,4.27,0,0,1,.27.67A4.11,4.11,0,0,0,69.71,185.63Z" transform="translate(-30 -9.59)"/><path d="M72.54,201.41a4.28,4.28,0,0,0,.17.79,4.61,4.61,0,0,1-.67-1.35A3.78,3.78,0,0,0,72.54,201.41Z" transform="translate(-30 -9.59)"/><path d="M75.25,206.79a5.32,5.32,0,0,0,.18.79,4.51,4.51,0,0,1-.67-1.34A4.28,4.28,0,0,0,75.25,206.79Z" transform="translate(-30 -9.59)"/><path d="M73.9,204.1a4.28,4.28,0,0,0,.17.79,5.73,5.73,0,0,1-.38-.62,4.51,4.51,0,0,1-.29-.72A4.35,4.35,0,0,0,73.9,204.1Z" transform="translate(-30 -9.59)"/><path d="M71.18,198.72a4.28,4.28,0,0,0,.17.79,5.3,5.3,0,0,1-.36-.62,4.81,4.81,0,0,1-.29-.71A4,4,0,0,0,71.18,198.72Z" transform="translate(-30 -9.59)"/><path d="M80.08,191.93c-1.39-.46-3,.65-3.61,2.5a4.54,4.54,0,0,0-.19.81,3.8,3.8,0,0,0-.8.85,4.69,4.69,0,0,0-.37-1c-.06-.13-.13-.24-.2-.36a3.61,3.61,0,0,1,.71-.75,4.64,4.64,0,0,1,.19-.82c.6-1.83,2.22-2.94,3.61-2.5A2.48,2.48,0,0,1,81,192.51,2,2,0,0,0,80.08,191.93Z" transform="translate(-30 -9.59)"/><path d="M73.62,193.37a3.57,3.57,0,0,0,0-.8,4.61,4.61,0,0,1,.87,1.19,6.69,6.69,0,0,1,.27.67A4.15,4.15,0,0,0,73.62,193.37Z" transform="translate(-30 -9.59)"/><path d="M71.66,189.5a4.26,4.26,0,0,0,0-.8,4.82,4.82,0,0,1,.86,1.19,3.91,3.91,0,0,1,.27.67A4,4,0,0,0,71.66,189.5Z" transform="translate(-30 -9.59)"/><path d="M76.61,209.48a5.62,5.62,0,0,0,.18.79,5,5,0,0,1-.38-.63,6.22,6.22,0,0,1-.29-.71A5.07,5.07,0,0,0,76.61,209.48Z" transform="translate(-30 -9.59)"/></g><path class="cls-3" d="M59.35,174.66A4.36,4.36,0,0,1,57.87,173c-.88-1.75-.52-3.72.82-4.39s3.14.19,4,1.94a4.28,4.28,0,0,1,.47,2.19,4.43,4.43,0,0,1,2,3.87,4.39,4.39,0,0,1,1.49,1.68c.1.22.19.44.27.67a3.78,3.78,0,0,0-2-1.43A2.2,2.2,0,0,1,62.19,179h0a3.82,3.82,0,0,0,0,2.41,6.11,6.11,0,0,1-.36-.61,4.25,4.25,0,0,1-.47-2.19,4.46,4.46,0,0,1-2-3.87Z" transform="translate(-30 -9.59)"/><path class="cls-4" d="M37.84,149.84a11.42,11.42,0,0,1-1.57-.87l5.82-4.26-6.85,3.53a13,13,0,0,1-4.86-9.07l11.64.12-11.67-1.95a13,13,0,0,1,25.94,1.46,13.88,13.88,0,0,1-.24,1.83,12.82,12.82,0,0,1,2.39,1.43l-6.08,8.46,7.3-7.4A13,13,0,0,1,63.3,155a13,13,0,1,1-18.22,9.21,13,13,0,0,1-7.24-14.31Z" transform="translate(-30 -9.59)"/><path class="cls-5" d="M62.16,146.54A12.92,12.92,0,0,1,63.3,155a13,13,0,1,1-18.22,9.22C42.53,163,61.5,145.24,62.16,146.54Z" transform="translate(-30 -9.59)"/><circle class="cls-4" cx="17.53" cy="116.23" r="1.93"/><circle class="cls-4" cx="6.27" cy="117.47" r="1.93"/><circle class="cls-4" cx="1.93" cy="134.79" r="1.93"/><circle class="cls-4" cx="7.79" cy="143.44" r="1.93"/><circle class="cls-4" cx="15.79" cy="161.4" r="1.93"/><circle class="cls-5" cx="15.79" cy="161.4" r="1.93"/><circle class="cls-4" cx="33.59" cy="141.05" r="1.93"/><circle class="cls-5" cx="33.59" cy="141.05" r="1.93"/><path class="cls-5" d="M65.64,182.34c1.29-.65,1.67-2.48.92-4.17l.12.21c.88,1.75.52,3.71-.82,4.39s-3.14-.19-4-1.94a2.14,2.14,0,0,1-.1-.22C62.66,182.22,64.36,183,65.64,182.34Z" transform="translate(-30 -9.59)"/><path class="cls-5" d="M67.54,186.11c1.29-.65,1.68-2.49.93-4.18a2.12,2.12,0,0,1,.11.21c.89,1.75.52,3.72-.82,4.4s-3.13-.2-4-1.95a1.47,1.47,0,0,1-.1-.22C64.56,186,66.27,186.75,67.54,186.11Z" transform="translate(-30 -9.59)"/><path class="cls-5" d="M69.45,189.87c1.28-.65,1.67-2.48.92-4.18l.12.22c.88,1.75.51,3.71-.82,4.39s-3.14-.2-4-2l-.11-.21C66.46,189.74,68.17,190.52,69.45,189.87Z" transform="translate(-30 -9.59)"/><path class="cls-5" d="M71.35,193.63c1.28-.65,1.67-2.48.92-4.17l.12.21c.88,1.75.52,3.72-.82,4.39s-3.14-.19-4-1.94a2.14,2.14,0,0,1-.1-.22C68.36,193.5,70.07,194.28,71.35,193.63Z" transform="translate(-30 -9.59)"/><path class="cls-5" d="M73.26,197.39c1.28-.64,1.66-2.48.92-4.17l.11.22c.88,1.75.52,3.71-.82,4.39s-3.13-.2-4-2l-.1-.21C70.27,197.27,72,198,73.26,197.39Z" transform="translate(-30 -9.59)"/><path class="cls-5" d="M75.16,201.16c1.28-.65,1.67-2.48.92-4.17a2.12,2.12,0,0,1,.11.21c.89,1.75.52,3.71-.81,4.39s-3.14-.2-4-2a2.12,2.12,0,0,1-.11-.21C72.17,201,73.88,201.81,75.16,201.16Z" transform="translate(-30 -9.59)"/><path class="cls-5" d="M77.06,204.92c1.28-.64,1.67-2.48.92-4.17l.12.21c.88,1.75.52,3.72-.82,4.39s-3.14-.19-4-1.94l-.1-.22C74.08,204.79,75.78,205.57,77.06,204.92Z" transform="translate(-30 -9.59)"/><path class="cls-5" d="M79,208.68c1.29-.64,1.68-2.48.92-4.17a1.55,1.55,0,0,1,.12.22c.89,1.74.52,3.71-.82,4.38s-3.13-.19-4-1.94a1.47,1.47,0,0,1-.1-.22C76,208.56,77.68,209.33,79,208.68Z" transform="translate(-30 -9.59)"/><path class="cls-5" d="M80.23,211.16c1.28-.65,1.67-2.48.92-4.18a2.26,2.26,0,0,1,.11.22c.89,1.75.52,3.71-.81,4.39s-3.14-.2-4-2l-.1-.21C77.23,211,78.94,211.81,80.23,211.16Z" transform="translate(-30 -9.59)"/><path class="cls-4" d="M45.82,194.41a6.63,6.63,0,0,1-.36-1.77,1,1,0,0,1-1-1,1,1,0,0,1,1-1h.14a6.72,6.72,0,0,1,3.54-4.56,1,1,0,1,1,1.72-.87h0a1.14,1.14,0,0,1,.09.26,6.76,6.76,0,0,1,5.92,1.78,7.17,7.17,0,0,1,1.79-.05l.78,3.55,0-3.42a6.74,6.74,0,0,1-3,13.14q-.28-.06-.57-.15a1,1,0,0,1-.4.39,1,1,0,0,1-1.3-.43.92.92,0,0,1,0-.81,7.56,7.56,0,0,1-.87-.72,6.74,6.74,0,0,1-7.08-3.58l3.63-.61Z" transform="translate(-30 -9.59)"/><g class="cls-2"><path d="M51.43,196.13a31.7,31.7,0,0,0,3.11-5.87,23.08,23.08,0,0,1,1.28-2.41l.71-.83.36.31a7.14,7.14,0,0,1,1.79-.05l.78,3.55v-3.41a6.74,6.74,0,0,1-3,13.14q-.28-.06-.57-.15a1,1,0,0,1-.4.39,1,1,0,0,1-1.3-.43.92.92,0,0,1,0-.81,7.56,7.56,0,0,1-.87-.72,6.78,6.78,0,0,1-4-.6A9.38,9.38,0,0,0,51.43,196.13Z" transform="translate(-30 -9.59)"/></g><path class="cls-4" d="M75.19,188.53a1,1,0,0,1,.42-1.29h0a1,1,0,0,1,.44-.1,6.71,6.71,0,0,1,2.11-3.76,6.53,6.53,0,0,1-.2-2.11l3.54-.59-3.44-.22a6.37,6.37,0,0,1,.26-.95.86.86,0,0,1-.32-.36,1,1,0,0,1,1.19-1.34,6.55,6.55,0,0,1,2.46-2.12,6.74,6.74,0,0,1,9.58,7.69,1,1,0,0,1,0,1.74,1,1,0,0,1-.79,0,6.83,6.83,0,0,1-1.28,1.55,6.75,6.75,0,0,1-.31,4.3l-4.74-1.25L88.4,192A6.77,6.77,0,0,1,76,189.05.94.94,0,0,1,75.19,188.53Z" transform="translate(-30 -9.59)"/><path class="cls-5" d="M75.19,188.53a1,1,0,0,1,.42-1.29h0a1,1,0,0,1,.44-.1,6.71,6.71,0,0,1,2.11-3.76c0-.11-.06-.22-.08-.33a2.6,2.6,0,0,1,.36.3c.64.72,1,1.65,1.6,2.35a4.64,4.64,0,0,0,3,1.4,11.74,11.74,0,0,0,3.34-.27,9.87,9.87,0,0,1,2.76-.31l.27,0-.17.15a6.75,6.75,0,0,1-.31,4.3l-4.75-1.25L88.4,192A6.77,6.77,0,0,1,76,189.05.94.94,0,0,1,75.19,188.53Z" transform="translate(-30 -9.59)"/></g><path class="cls-1" d="M154,28.16a7.37,7.37,0,0,0-4.2.46,6.17,6.17,0,0,1-5.05,0,7.06,7.06,0,0,0-5.93.12,3.77,3.77,0,0,1-1.71.43c-2.4,0-4.4-2.43-4.82-5.62a4.51,4.51,0,0,0,1.2-1.3,6.76,6.76,0,0,1,12.07,0,4.67,4.67,0,0,0,4,2.2h.06C151.47,24.4,153.12,25.93,154,28.16Z" transform="translate(-30 -9.59)"/><path class="cls-1" d="M161.26,18.14l-3.89,2.47,2.36-4.29a3.81,3.81,0,0,0-2.35-.84h-.06a5.52,5.52,0,0,1-.81-.06l-1.32.83.57-1a4.76,4.76,0,0,1-2.31-1.74L151.09,15l1.49-2.71a6.89,6.89,0,0,0-5.29-2.67,7.21,7.21,0,0,0-6,3.73,4.54,4.54,0,0,1-4,2.15h-.12c-2.71,0-4.9,3.06-4.9,6.85s2.19,6.86,4.9,6.86a3.64,3.64,0,0,0,1.71-.43,7,7,0,0,1,5.93-.11,6.25,6.25,0,0,0,5,0,7.06,7.06,0,0,1,5.88.11,3.81,3.81,0,0,0,1.69.42c2.71,0,4.9-3.07,4.9-6.86A8.82,8.82,0,0,0,161.26,18.14Z" transform="translate(-30 -9.59)"/><path class="cls-1" d="M73.07,77.74a10.37,10.37,0,0,0-6,.66,8.88,8.88,0,0,1-7.21,0,10.07,10.07,0,0,0-8.47.17,5.33,5.33,0,0,1-2.44.6c-3.44,0-6.3-3.46-6.89-8a6.56,6.56,0,0,0,1.71-1.85C45.79,66,48.91,64,52.41,64S59,66,61,69.22a6.64,6.64,0,0,0,5.73,3.14h.09C69.53,72.35,71.9,74.55,73.07,77.74Z" transform="translate(-30 -9.59)"/><path class="cls-1" d="M83.52,63.41,78,66.93l3.37-6.13A5.56,5.56,0,0,0,78,59.6h-.09a6.29,6.29,0,0,1-1.15-.08l-1.88,1.21.81-1.47a6.6,6.6,0,0,1-3.29-2.5L69,58.91,71.13,55a9.86,9.86,0,0,0-7.55-3.82c-3.5,0-6.62,2.08-8.64,5.33a6.46,6.46,0,0,1-5.73,3.08H49c-3.86,0-7,4.38-7,9.8s3.14,9.79,7,9.79a5.23,5.23,0,0,0,2.45-.61,10.07,10.07,0,0,1,8.47-.17,8.84,8.84,0,0,0,7.21,0,10.1,10.1,0,0,1,8.4.16,5.21,5.21,0,0,0,2.41.6c3.87,0,7-4.39,7-9.79A12.48,12.48,0,0,0,83.52,63.41Z" transform="translate(-30 -9.59)"/><path class="cls-1" d="M297.68,42.12a7.19,7.19,0,0,1,4.2.46,6.15,6.15,0,0,0,5,0,7.09,7.09,0,0,1,5.94.12,3.61,3.61,0,0,0,1.71.42c2.4,0,4.4-2.42,4.82-5.61a4.79,4.79,0,0,1-1.2-1.3,7.26,7.26,0,0,0-6.06-3.75,7.17,7.17,0,0,0-6,3.69,4.67,4.67,0,0,1-4,2.21h-.06C300.15,38.35,298.49,39.89,297.68,42.12Z" transform="translate(-30 -9.59)"/><path class="cls-1" d="M290.35,32.1l3.89,2.46-2.36-4.29a3.77,3.77,0,0,1,2.35-.84h.06a5.52,5.52,0,0,0,.81-.06l1.31.83-.56-1a4.72,4.72,0,0,0,2.32-1.73l2.36,1.49L299,26.24a6.87,6.87,0,0,1,5.29-2.68,7.2,7.2,0,0,1,6,3.74,4.51,4.51,0,0,0,4,2.14h.13c2.71,0,4.9,3.07,4.9,6.86s-2.19,6.85-4.9,6.85a3.79,3.79,0,0,1-1.71-.42,7.06,7.06,0,0,0-5.93-.12,6.15,6.15,0,0,1-5,0,7.09,7.09,0,0,0-5.89.12,3.66,3.66,0,0,1-1.68.41c-2.71,0-4.91-3.07-4.91-6.85A8.73,8.73,0,0,1,290.35,32.1Z" transform="translate(-30 -9.59)"/><ellipse class="cls-1" cx="220.32" cy="270.87" rx="41.16" ry="7.16"/><polygon class="cls-6" points="198.78 236.87 135.01 236.05 135.2 234.42 138.28 207.44 194.28 207.44 198.4 234.42 198.72 236.46 198.78 236.87"/><polygon class="cls-5" points="198.72 236.46 166.9 236.46 135.01 236.05 135.2 234.42 198.4 234.42 198.72 236.46"/><rect class="cls-6" x="124.38" y="234.83" width="84.62" height="2.04"/><path class="cls-3" d="M319.73,55a5.32,5.32,0,0,0-5.29-5.34H78.12A5.3,5.3,0,0,0,72.83,55h0V198.22h246.9Z" transform="translate(-30 -9.59)"/><path class="cls-6" d="M72.83,196.79v16.78a5.3,5.3,0,0,0,5.29,5.3H314.44a5.3,5.3,0,0,0,5.29-5.3V196.79Z" transform="translate(-30 -9.59)"/><rect class="cls-7" x="53.05" y="49.03" width="227.69" height="128.77"/><path class="cls-4" d="M197.51,212.5a5.54,5.54,0,0,0,4.34-2.11h0a5.39,5.39,0,0,0,.43-.63l-3-.51,3.27,0a5.53,5.53,0,0,0,.11-4.37l-4.4,2.28,4.06-3a5.52,5.52,0,0,0-9.54,5.55,4.31,4.31,0,0,0,.42.63h0A5.52,5.52,0,0,0,197.51,212.5Z" transform="translate(-30 -9.59)"/><polygon class="cls-5" points="173.03 209.28 198.47 234.83 194.56 209.28 173.03 209.28"/><rect class="cls-8" x="52.87" y="49.05" width="227.94" height="7.52"/><rect class="cls-9" x="132.01" y="50.36" width="68.68" height="4.58" rx="0.21"/><path class="cls-3" d="M228.65,62.71h-.17l-.06-.06a1.37,1.37,0,0,0,.32-.89,1.35,1.35,0,0,0-1.36-1.34,1.36,1.36,0,1,0,0,2.71,1.44,1.44,0,0,0,.89-.33l.06.05V63l1,1,.31-.31Zm-1.26,0a.95.95,0,1,1,.94-1h0a.94.94,0,0,1-.93,1Z" transform="translate(-30 -9.59)"/><circle class="cls-10" cx="56.97" cy="52.81" r="1.38"/><circle class="cls-11" cx="60.76" cy="52.81" r="1.38"/><circle class="cls-12" cx="64.55" cy="52.81" r="1.38"/><path class="cls-4" d="M209,113.87a15.28,15.28,0,0,0-25.38,0,13.7,13.7,0,0,0,25.38,0Z" transform="translate(-30 -9.59)"/><path class="cls-4" d="M181.93,116.3a2.45,2.45,0,0,1-.63-.36,2.52,2.52,0,0,1-.7-.89,2.57,2.57,0,1,0-4.19.62,2.92,2.92,0,0,0,.61.49,1.85,1.85,0,0,1,.68.71,5.1,5.1,0,0,0,1.19,1.57,10.34,10.34,0,0,0,1.63,1.14,23.53,23.53,0,0,0-1.34,7,9.68,9.68,0,0,0-2.73.44,4.26,4.26,0,0,0-1.26.63l-.31,0a2.58,2.58,0,1,0,2.4,3.48,1.67,1.67,0,0,1,1.33-1.08c.22,0,.44,0,.66,0a23.22,23.22,0,0,0,3.06,9.55,7.49,7.49,0,0,0-2.84,3.88,1,1,0,0,0-.21.15,3.84,3.84,0,0,0-.3.28,2.57,2.57,0,1,0,4.32.84,1.69,1.69,0,0,1,.41-1.82c.18-.16.36-.33.61-.52,2.91,3.39,6.36,5.56,10.67,5.82v-23A15.85,15.85,0,0,1,181.93,116.3Zm35.72,11.35c-.1,0-.21,0-.31,0a4.65,4.65,0,0,0-1.26-.63,9.39,9.39,0,0,0-2.73-.44,24.18,24.18,0,0,0-1.34-7,9.78,9.78,0,0,0,1.63-1.15,5.44,5.44,0,0,0,1.23-1.63,1.55,1.55,0,0,1,.64-.63h0a2.57,2.57,0,1,0-3.58-1.13,2.47,2.47,0,0,1-.7.9,7.26,7.26,0,0,1-.63.46,15.77,15.77,0,0,1-13,8.76v23c4.29-.26,7.77-2.44,10.67-5.82.22.18.41.34.57.49a1.74,1.74,0,0,1,.45,1.87,2.57,2.57,0,1,0,4.33-.83,2,2,0,0,0-.31-.28,1.2,1.2,0,0,0-.2-.15,7.39,7.39,0,0,0-2.86-3.89,23,23,0,0,0,3.06-9.54c.21,0,.42,0,.63,0a1.71,1.71,0,0,1,1.38,1.08,2.57,2.57,0,0,0,3.33,1.45,2.57,2.57,0,0,0-.85-5Z" transform="translate(-30 -9.59)"/><path class="cls-13" d="M273.71,276.28a3.33,3.33,0,0,0-.77-.86,10.32,10.32,0,0,1-2.68-5.77,58.9,58.9,0,0,0-1.12-6.37,19.47,19.47,0,0,0-1.26-3.11c-.35-.76-.8-2.26-1.46-2.8a1,1,0,0,0-.45-.22,5.22,5.22,0,0,0-1.3-1.72c-1-.93-2.27-1.67-2.95-2.87a6.54,6.54,0,0,0-.69-1.17c-.46-.51-1.19-.72-1.62-1.26a3.57,3.57,0,0,1-.36-2.57,2.49,2.49,0,0,0-.76-2.41c-.46-.28-1.05-.25-1.53-.5a2.21,2.21,0,0,1-1-2.07c0-.8.26-1.59.33-2.39.2-2.56-1.49-5.11-.84-7.6A15.7,15.7,0,0,1,256.5,230a5.07,5.07,0,0,0,.36-.91,12.64,12.64,0,0,0,3.48.84c-2-4.42-1.47-9.56-2.39-14.31l.12-.16a7.44,7.44,0,0,0,1.51-4.25c0-1.77-.83-3.42-1.2-5.15-.32-1.47-.3-3-.71-4.46a14.12,14.12,0,0,0-1.13-2.58c-.45-.83-.92-1.64-1.41-2.45L253.75,192a21.64,21.64,0,0,0-2.56-6.13c-.46-.67-.6-2-1.3-2.45a3.15,3.15,0,0,0-1.86-.33,3.43,3.43,0,0,1-2-2.46,2.21,2.21,0,0,1,.07-.72h.12c1.57-.14,2.37-1.53,3.19-2.75,1.33-2,.82-4.63,0-6.87a4.69,4.69,0,0,0-1.07-1.89c-1.15-1.07-3-.84-4.45-1.36-.5-.17-1-.43-1.47-.55a4.37,4.37,0,0,0-2.92.55,29.8,29.8,0,0,1-2.69,1.4c-.94.35-2.11.64-2.34,1.61a1.7,1.7,0,0,0,.08,1,3.66,3.66,0,0,0,1.1,1.6,6.38,6.38,0,0,0,3,8.52,6.17,6.17,0,0,0,.93.36,14.84,14.84,0,0,1,.76,1.34,4.38,4.38,0,0,1,.63,2.6,8.64,8.64,0,0,0-.72.88,16.89,16.89,0,0,0-2.15,4.78,51.2,51.2,0,0,0-1.73,6.54,49.4,49.4,0,0,0-2.57,5.59,12.38,12.38,0,0,1-3.36-.46l-3-.68a6.92,6.92,0,0,1-3-1.19c-.43-.36-.77-.83-1.22-1.19s-1.33-.77-1.82-.47a1.44,1.44,0,0,0-.25.18c-.44-.89-.86-1.78-1.38-2.65a5.06,5.06,0,0,0-3.24-2.57,3.34,3.34,0,0,0-2.43.57,2,2,0,0,0-.71,2.6,3.45,3.45,0,0,0,.5.51,10.5,10.5,0,0,1,1.1,1.54,7.83,7.83,0,0,0,4.83,3.13l-.13.36a5.48,5.48,0,0,0-.65,2.42l13.43,4.59a8.14,8.14,0,0,0,2.71.6,4.3,4.3,0,0,0,1.07-.14v.72c0,4.72-.72,9.4-.86,14.12a3.65,3.65,0,0,0,.55,2.46,2.75,2.75,0,0,0,2.63.72,6.38,6.38,0,0,0,.66-.15,24.6,24.6,0,0,1,.69,3.62l.89,6.39a10.1,10.1,0,0,1,.14,2,14.29,14.29,0,0,1-1.47,4.23c-.57,1.38-.91,3-.16,4.33.24.41.56.75.77,1.16a4.72,4.72,0,0,1,.36,2c.06,1.93.11,3.86.16,5.79a.69.69,0,0,0-.45.09c-.75.58-.66,3.34-.72,4.2-.06,1.43,0,2.89-.08,4.33a25.46,25.46,0,0,1-.93,5.76,3.67,3.67,0,0,1-.82,1.65,3.42,3.42,0,0,1-1.46.76,16.57,16.57,0,0,1-5.51.75,5.32,5.32,0,0,0-2.25.19,1.55,1.55,0,0,0-1,1.79,2.24,2.24,0,0,0,1.48,1.11,24.17,24.17,0,0,1,3.94,1.81,10.86,10.86,0,0,0,1.52.87,7.72,7.72,0,0,0,1.56.38l6.35,1.1c1.3.22,2.86.35,3.69-.72a3.24,3.24,0,0,0,.49-2.1,28.36,28.36,0,0,1-.14-4.32,14,14,0,0,1,.67-2.48c.63-1.88,1.27-3.76,1.9-5.63a29.67,29.67,0,0,0,1.53-5.76,2.16,2.16,0,0,0-.46-2,1.21,1.21,0,0,0-.48-.24c0-1.73-.24-3.46-.15-5.18,0-.43.07-.86.11-1.29a5.84,5.84,0,0,1,.88,1c.61,1,.84,2.23,1.77,2.86s2,.52,2.53,1.31a3.43,3.43,0,0,1,.4,1,7,7,0,0,0,1.44,2.27,10.78,10.78,0,0,0,.88,2.27c.53,1.11,1.05,2.22,1.57,3.33s1.14,2.36,1.79,3.5a9.57,9.57,0,0,1,1.2,2.31,5.3,5.3,0,0,1-1.62,5,14,14,0,0,1-4.71,2.75,1.44,1.44,0,0,0-.48.28.92.92,0,0,0-.22.63,2,2,0,0,0,1.46,1.79,5.59,5.59,0,0,0,2.44.09,36.42,36.42,0,0,0,13.18-3.9,4.66,4.66,0,0,0,1.57-1.21A1.81,1.81,0,0,0,273.71,276.28Z" transform="translate(-30 -9.59)"/><path class="cls-14" d="M254.38,196c.77,1.17,1.48,2.37,2.15,3.6a13.14,13.14,0,0,1,1.14,2.57c.41,1.43.4,3,.71,4.42.36,1.71,1.2,3.35,1.2,5.11a7.37,7.37,0,0,1-1.51,4.21,20.31,20.31,0,0,1-3.16,3.26,67.39,67.39,0,0,1-4.47-21.91,7.76,7.76,0,0,1,.34-3.07c.23-.61,1.35-2.28,2.07-1.63.26.24.33,1.32.49,1.69A13.44,13.44,0,0,0,254.38,196Z" transform="translate(-30 -9.59)"/><path class="cls-5" d="M254.38,196c.77,1.17,1.48,2.37,2.15,3.6a13.14,13.14,0,0,1,1.14,2.57c.41,1.43.4,3,.71,4.42.36,1.71,1.2,3.35,1.2,5.11a7.37,7.37,0,0,1-1.51,4.21,20.31,20.31,0,0,1-3.16,3.26,67.39,67.39,0,0,1-4.47-21.91,7.76,7.76,0,0,1,.34-3.07c.23-.61,1.35-2.28,2.07-1.63.26.24.33,1.32.49,1.69A13.44,13.44,0,0,0,254.38,196Z" transform="translate(-30 -9.59)"/><path class="cls-6" d="M160,147.21c-2.83,2.82-3.17,4.07-4.87,4.63s-7.81,3.73-5.89,7.24l5.17,3.41.15.1.79,2.38-7.82,13.91s-12.88-5.89-14.14,2.83-.47,11.09-.81,15.74.11,6-1,6-1.58-3-1.58-3l-.2-.4c-1.68-3.51-13.13-29.23,5.2-46.91,0,0,8.49-.56,10.53-10.29,1.41-6.73,6.35-6.15,9.62-4.78a10.94,10.94,0,0,1,3,1.73,14.06,14.06,0,0,1,2.1,2.51C161.15,143.73,161.66,145.58,160,147.21Z" transform="translate(-30 -9.59)"/><path class="cls-5" d="M154.59,162.59l.79,2.38-7.82,13.91s-12.88-5.89-14.14,2.83-.47,11.09-.81,15.74.11,6-1,6-1.58-3-1.58-3l-.2-.4c-.57-4.36-3.45-29.81,7-28.46,0,0,8.48,4,9.84,2.38,1.07-1.25,5.84-8.45,7.78-11.41Z" transform="translate(-30 -9.59)"/><path class="cls-5" d="M160.21,142.23l-5.16,5.88s-6,8-7.25,7.69a5.38,5.38,0,0,0-1.14-.13,2.21,2.21,0,0,1-1.43-3.72c2.05-2.15,5.82-6.22,6.07-7.13a64.63,64.63,0,0,1,3.85-6.82,11.15,11.15,0,0,1,2.94,1.73A14.47,14.47,0,0,1,160.21,142.23Z" transform="translate(-30 -9.59)"/><path class="cls-15" d="M306.43,226.73c-.88,1.75-5.37,8.33-7.34,11.2l-.92,1.35s-.35,2.38-6.22-.57-143.68-61.09-143.68-61.09l-.93-2.81,6.8-10.18L305.19,223S307.56,224.46,306.43,226.73Z" transform="translate(-30 -9.59)"/><path class="cls-5" d="M299.09,237.93l-.92,1.35s-.35,2.38-6.22-.57-143.68-61.09-143.68-61.09l-.93-2.81Z" transform="translate(-30 -9.59)"/><path class="cls-16" d="M216,200a5,5,0,0,0-4,.79,3.26,3.26,0,0,0-1.16,2.2c-.1,1,.48,2.17,1.47,2.24a4.35,4.35,0,0,0,.72,0,10.76,10.76,0,0,1,1.88.16,7.65,7.65,0,0,0,6.52-2.64c.86-1.07-.27-1.54-1.28-1.75C218.7,200.61,217.35,200.17,216,200Z" transform="translate(-30 -9.59)"/><path class="cls-3" d="M239.9,232.27l.89,6.3a10,10,0,0,1,.14,2,14,14,0,0,1-1.47,4.19c-.57,1.38-.91,3-.16,4.3.23.4.56.74.77,1.15a4.6,4.6,0,0,1,.36,2l.24,8.95a56.09,56.09,0,0,0,8.3-.05.35.35,0,0,0,.4-.42c.12-2.09-.24-4.19-.12-6.28,0-.77.15-1.53.16-2.3,0-3.12-1.5-6.17-1-9.25a22.07,22.07,0,0,1,.57-2.3c1.47-5.37,1.16-11,.84-16.55a.38.38,0,0,0-.08-.25.37.37,0,0,0-.19-.11,10.16,10.16,0,0,0-9.22,1.76c-.39.31-1.38.62-1.64,1-.35.52.11,1.05.32,1.6A20.25,20.25,0,0,1,239.9,232.27Z" transform="translate(-30 -9.59)"/><path class="cls-5" d="M239.9,232.27l.89,6.3a10,10,0,0,1,.14,2,14,14,0,0,1-1.47,4.19c-.57,1.38-.91,3-.16,4.3.23.4.56.74.77,1.15a4.6,4.6,0,0,1,.36,2l.24,8.95a56.09,56.09,0,0,0,8.3-.05.35.35,0,0,0,.4-.42c.12-2.09-.24-4.19-.12-6.28,0-.77.15-1.53.16-2.3,0-3.12-1.5-6.17-1-9.25a22.07,22.07,0,0,1,.57-2.3c1.47-5.37,1.16-11,.84-16.55a.38.38,0,0,0-.08-.25.37.37,0,0,0-.19-.11,10.16,10.16,0,0,0-9.22,1.76c-.39.31-1.38.62-1.64,1-.35.52.11,1.05.32,1.6A20.25,20.25,0,0,1,239.9,232.27Z" transform="translate(-30 -9.59)"/><path class="cls-3" d="M256.5,230.36a15.24,15.24,0,0,0-1.23,2.62c-.66,2.46,1,5,.83,7.53-.07.8-.31,1.58-.33,2.38a2.23,2.23,0,0,0,1,2.05c.48.24,1.08.22,1.52.5a2.43,2.43,0,0,1,.77,2.39,3.52,3.52,0,0,0,.36,2.55c.42.53,1.15.74,1.61,1.25a5.47,5.47,0,0,1,.69,1.16c.69,1.2,1.94,1.93,3,2.87s1.89,2.31,1.43,3.61a4,4,0,0,1-2.19,2,23.6,23.6,0,0,1-5.21,1.85,1,1,0,0,1-1.12-.33,9.69,9.69,0,0,1-2.64-3.51,3.37,3.37,0,0,0-.4-1c-.56-.78-1.73-.75-2.53-1.29s-1.15-1.89-1.76-2.84a30.61,30.61,0,0,0-2.15-2.35c-1.1-1.39-1.36-3.24-2.15-4.83a22.12,22.12,0,0,1-1-2,10.87,10.87,0,0,1-.49-2.59c-.51-4.18-1.79-8.39-1-12.53.18-.91.45-1.79.57-2.73.19-1.62-.12-3.28.12-4.9a1.35,1.35,0,0,1,.54-1,1.49,1.49,0,0,1,.62-.12,40.92,40.92,0,0,1,6.36.14,3.9,3.9,0,0,1,2.92,1.2,6.45,6.45,0,0,1,.7,2.67,6.48,6.48,0,0,0,1.38,2.62A2.46,2.46,0,0,1,256.5,230.36Z" transform="translate(-30 -9.59)"/><path class="cls-14" d="M248.24,259.45a2.5,2.5,0,0,1,1.63.32,2.14,2.14,0,0,1,.46,2,29.57,29.57,0,0,1-1.53,5.73l-1.9,5.59a13,13,0,0,0-.67,2.46,28,28,0,0,0,.14,4.29,3.36,3.36,0,0,1-.5,2.09c-.8,1-2.38.92-3.68.71l-6.34-1.07a7.81,7.81,0,0,1-1.57-.38,11.4,11.4,0,0,1-1.52-.86,24.43,24.43,0,0,0-3.93-1.79,2.23,2.23,0,0,1-1.48-1.1,1.55,1.55,0,0,1,1-1.79,5.49,5.49,0,0,1,2.25-.19,16.61,16.61,0,0,0,5.51-.75,3.47,3.47,0,0,0,1.45-.75,3.52,3.52,0,0,0,.84-1.68,25.34,25.34,0,0,0,1-5.73c.07-1.43,0-2.86.08-4.29,0-.85,0-3.58.7-4.17.57-.43,2.91.77,3.68.95A18.15,18.15,0,0,0,248.24,259.45Z" transform="translate(-30 -9.59)"/><path class="cls-14" d="M269.12,263.43a63.25,63.25,0,0,1,1.12,6.32,10.26,10.26,0,0,0,2.67,5.73,3.56,3.56,0,0,1,.78.86,1.84,1.84,0,0,1-.27,1.87,4.87,4.87,0,0,1-1.57,1.21,36.5,36.5,0,0,1-13.18,3.86,5.3,5.3,0,0,1-2.44-.09,2,2,0,0,1-1.46-1.78.92.92,0,0,1,.22-.62,1.32,1.32,0,0,1,.48-.29,14.12,14.12,0,0,0,4.71-2.73,5.2,5.2,0,0,0,1.62-5,10,10,0,0,0-1.2-2.29,37.9,37.9,0,0,1-1.79-3.47l-1.58-3.3a8.73,8.73,0,0,1-1-3,14.52,14.52,0,0,0,5.8-.93,9.19,9.19,0,0,0,2.39-1.43c.61-.51,1.16-1.46,2-.8.66.53,1.08,2,1.46,2.78A20.84,20.84,0,0,1,269.12,263.43Z" transform="translate(-30 -9.59)"/><path class="cls-16" d="M246,181.4c.16,1.38,1.49,2.28,2.76,2.83l-8,2.56a3.63,3.63,0,0,0-.41-3.22,17.59,17.59,0,0,0-1.44-2.29c-.07-.11-.16-.25-.11-.38a.38.38,0,0,1,.23-.18,20.18,20.18,0,0,1,5.16-1.76c.53-.08,1.51-.29,1.9.24S246,180.77,246,181.4Z" transform="translate(-30 -9.59)"/><path class="cls-5" d="M246,181.4c.16,1.38,1.49,2.28,2.76,2.83l-8,2.56a3.63,3.63,0,0,0-.41-3.22,17.59,17.59,0,0,0-1.44-2.29c-.07-.11-.16-.25-.11-.38a.38.38,0,0,1,.23-.18,20.18,20.18,0,0,1,5.16-1.76c.53-.08,1.51-.29,1.9.24S246,180.77,246,181.4Z" transform="translate(-30 -9.59)"/><circle class="cls-16" cx="211.37" cy="166.62" r="6.31"/><path class="cls-14" d="M235.9,228.1a2.78,2.78,0,0,0,2.63.72c2.21-.36,4-2,6.16-2.56,2.64-.72,5.44.2,7.93,1.33s5,2.5,7.7,2.7c-2.46-5.5-1.05-12.11-3.41-17.66a14,14,0,0,1-1.51-4.13c-.16-1.82.75-3.58.89-5.39a13.23,13.23,0,0,0-.83-4.76c-.57-1.89-1.15-3.78-1.72-5.67a21.92,21.92,0,0,0-2.56-6.08c-.46-.67-.6-2-1.3-2.43-1.53-.88-3.86.23-5.52.29a5.74,5.74,0,0,0-4.14,2.58,16.59,16.59,0,0,0-2.15,4.75,45.08,45.08,0,0,0-1.9,7.59c-.06.39-.1.78-.14,1.17-.36,3.67.16,7.37.19,11.06v0c0,4.68-.71,9.34-.85,14A3.69,3.69,0,0,0,235.9,228.1Z" transform="translate(-30 -9.59)"/><path class="cls-5" d="M236.23,211.62a8.08,8.08,0,0,0,3.31-2,13.79,13.79,0,0,0,2.2-2.5,17.78,17.78,0,0,0,1.89-4,46.2,46.2,0,0,0,2.51-11.55,4.43,4.43,0,0,0-.52-3.08,2.6,2.6,0,0,0-3.13-.76,5.2,5.2,0,0,0-1.9,2,26.6,26.6,0,0,0-2.67,5c-.28.78-.49,1.58-.77,2.37s-.62,1.53-1,2.26c-.06.39-.1.77-.14,1.16C235.7,204.24,236.2,207.92,236.23,211.62Z" transform="translate(-30 -9.59)"/><path class="cls-14" d="M245.6,187.85a4.48,4.48,0,0,1,.53,3.07,46.11,46.11,0,0,1-2.51,11.55,17.86,17.86,0,0,1-1.89,4,13.79,13.79,0,0,1-2.2,2.5,6.9,6.9,0,0,1-4.35,2.12,8.59,8.59,0,0,1-2.7-.59L219,205.92a5.35,5.35,0,0,1,.66-2.4l.71-2.12a2.7,2.7,0,0,1,1-1.54c.53-.32,1.37.12,1.82.48s.78.81,1.21,1.18a7,7,0,0,0,3,1.18l3,.67a12.66,12.66,0,0,0,3.36.45c.84-2.57,2.44-4.83,3.34-7.38.28-.78.49-1.58.78-2.36a26.6,26.6,0,0,1,2.67-5,5.13,5.13,0,0,1,1.9-2A2.57,2.57,0,0,1,245.6,187.85Z" transform="translate(-30 -9.59)"/><path class="cls-14" d="M243.38,177.64a3.32,3.32,0,0,0-.38-1.19,1,1,0,0,0-1.07-.47c-.63.2-.84,1.17-1.5,1.2-.45,0-.76-.43-.9-.85a2.65,2.65,0,0,0-.55-1.2,2.06,2.06,0,0,0-.78-.36c-1.53-.48-3.11-1.37-3.62-2.89a1.79,1.79,0,0,1-.08-1c.23-1,1.43-1.26,2.35-1.6s1.78-.94,2.68-1.39a4.41,4.41,0,0,1,2.92-.55,15.26,15.26,0,0,1,1.47.55c1.48.52,3.29.28,4.44,1.35a4.69,4.69,0,0,1,1.08,1.87c.8,2.23,1.31,4.87,0,6.82-.82,1.21-1.62,2.59-3.19,2.74C244.4,180.85,243.67,179.19,243.38,177.64Z" transform="translate(-30 -9.59)"/><g class="cls-2"><path d="M240.58,175.57a2.63,2.63,0,0,0-.54-1.2,2.22,2.22,0,0,0-.78-.36c-1.53-.48-3.11-1.37-3.62-2.89a1.79,1.79,0,0,1-.08-1,1.38,1.38,0,0,1,.19-.43,1.88,1.88,0,0,0-1.23,1.19,1.7,1.7,0,0,0,.08,1c.51,1.52,2.08,2.41,3.61,2.89a2.06,2.06,0,0,1,.78.36,2.55,2.55,0,0,1,.55,1.2c.14.43.46.88.9.85s.66-.42.94-.76A1.14,1.14,0,0,1,240.58,175.57Z" transform="translate(-30 -9.59)"/><path d="M247.28,179.93c-1.84.16-2.57-1.51-2.86-3.05a3,3,0,0,0-.36-1.18,1,1,0,0,0-1.07-.48,1.89,1.89,0,0,0-.79.72,1.06,1.06,0,0,1,.8.5,2.93,2.93,0,0,1,.38,1.18c.29,1.54,1,3.22,2.87,3a3,3,0,0,0,1.89-1A2.57,2.57,0,0,1,247.28,179.93Z" transform="translate(-30 -9.59)"/></g><ellipse class="cls-4" cx="290.99" cy="234.69" rx="11.56" ry="2.22"/><ellipse class="cls-3" cx="290.8" cy="233.74" rx="1.35" ry="1.76"/><ellipse class="cls-3" cx="290.8" cy="231.59" rx="1.35" ry="1.76"/><ellipse class="cls-3" cx="290.8" cy="229.44" rx="1.35" ry="1.76"/><ellipse class="cls-3" cx="290.8" cy="227.28" rx="1.35" ry="1.76"/><ellipse class="cls-3" cx="290.8" cy="225.13" rx="1.35" ry="1.76"/><ellipse class="cls-3" cx="290.8" cy="222.98" rx="1.35" ry="1.76"/><ellipse class="cls-3" cx="290.8" cy="220.82" rx="1.35" ry="1.76"/><path class="cls-4" d="M325.83,215.69a5.4,5.4,0,0,0,.51-.74l-3.54-.58,3.83,0a6.52,6.52,0,0,0,.12-5.11L321.62,212l4.73-3.48a6.44,6.44,0,1,0-10.64,7.21,6.87,6.87,0,0,0-.74,1.18l4.59,2.38-4.89-1.64a6.44,6.44,0,0,0,1,6,6.44,6.44,0,1,0,10.13,0,6.44,6.44,0,0,0,0-8Z" transform="translate(-30 -9.59)"/><path class="cls-5" d="M314.32,219.66a6.41,6.41,0,0,0,1.39,4,6.44,6.44,0,1,0,10.13,0C326.7,222.55,314.32,218.94,314.32,219.66Z" transform="translate(-30 -9.59)"/><ellipse class="cls-4" cx="53.12" cy="278.02" rx="16.64" ry="3.2"/><ellipse class="cls-3" cx="52.84" cy="276.66" rx="1.94" ry="2.54"/><ellipse class="cls-3" cx="52.84" cy="273.56" rx="1.94" ry="2.54"/><ellipse class="cls-3" cx="52.84" cy="270.46" rx="1.94" ry="2.54"/><ellipse class="cls-3" cx="52.84" cy="267.37" rx="1.94" ry="2.54"/><ellipse class="cls-3" cx="52.84" cy="264.27" rx="1.94" ry="2.54"/><ellipse class="cls-3" cx="52.84" cy="261.16" rx="1.94" ry="2.54"/><ellipse class="cls-3" cx="52.84" cy="258.06" rx="1.94" ry="2.54"/><path class="cls-4" d="M90.09,246.44a9.45,9.45,0,0,0,.71-1.07l-5.09-.84,5.51.05a9.32,9.32,0,0,0,.17-7.36L84,241.07l6.8-5a9.28,9.28,0,0,0-16.08,9.27,9.46,9.46,0,0,0,.76,1.11,9.69,9.69,0,0,0-1.08,1.69L81,251.56l-7-2.37a9.27,9.27,0,0,0,1.52,8.73,9.28,9.28,0,1,0,14.59,0,9.27,9.27,0,0,0,0-11.47Z" transform="translate(-30 -9.59)"/><path class="cls-5" d="M73.51,252.2a9.23,9.23,0,0,0,2,5.72,9.28,9.28,0,1,0,14.59,0C91.32,256.34,73.51,251.14,73.51,252.2Z" transform="translate(-30 -9.59)"/></svg>