<svg id="Layer_1" data-name="Layer 1" xmlns="http://www.w3.org/2000/svg" viewBox="0 0 345.31 291.21"><defs><style>.cls-1,.cls-2{fill:#6c63ff;}.cls-1,.cls-4,.cls-6{opacity:0.1;}.cls-1,.cls-4{isolation:isolate;}.cls-3{fill:#3f3d56;}.cls-5{fill:#fabdbd;}.cls-7{fill:#f86d70;}.cls-8{font-size:62px;font-family:Montserrat-SemiBoldItalic, Montserrat;font-weight:600;font-style:italic;}</style></defs><title>why-4</title><path class="cls-1" d="M213,181.2c-13.12-.47-25.61-4.71-37.54-9.33s-23.75-9.77-36.55-12.22c-8.24-1.58-17.66-1.8-24.29,2.61-6.39,4.26-8.45,11.59-9.56,18.39-.84,5.12-1.33,10.51,1,15.3,1.59,3.33,4.41,6.13,6.36,9.32,6.78,11.09,2,24.77-5.36,35.6-3.45,5.08-7.45,9.93-10.12,15.34s-3.89,11.6-1.56,17.12,7.81,9.58,13.77,12.46c12.1,5.87,26.35,7.55,40.26,8.5,30.77,2.11,61.71,1.2,92.57.28,11.42-.33,22.89-.68,34.12-2.44,6.24-1,12.68-2.54,17.21-6.3,5.75-4.77,7.18-12.84,3.32-18.82-6.46-10-24.32-12.53-28.84-23.3-2.49-5.92.06-12.52,3.68-18,7.75-11.79,20.74-22.13,21.42-35.61.47-9.26-5.77-18.53-15.43-22.91-10.12-4.59-24.16-4-31.62,3.59C238.08,178.58,224.57,181.59,213,181.2Z" transform="translate(-35.04 -8.77)"/><ellipse class="cls-2" cx="82.67" cy="288.36" rx="14.84" ry="2.85"/><ellipse class="cls-3" cx="82.42" cy="287.15" rx="1.73" ry="2.26"/><ellipse class="cls-3" cx="82.42" cy="284.38" rx="1.73" ry="2.26"/><ellipse class="cls-3" cx="82.42" cy="281.62" rx="1.73" ry="2.26"/><ellipse class="cls-3" cx="82.42" cy="278.85" rx="1.73" ry="2.26"/><ellipse class="cls-3" cx="82.42" cy="276.09" rx="1.73" ry="2.26"/><ellipse class="cls-3" cx="82.42" cy="273.32" rx="1.73" ry="2.26"/><ellipse class="cls-3" cx="82.42" cy="270.56" rx="1.73" ry="2.26"/><path class="cls-2" d="M123.93,260.41a8.85,8.85,0,0,0,.65-1l-4.54-.75,4.91,0a8.27,8.27,0,0,0,.15-6.56l-6.58,3.42,6.08-4.46a8.28,8.28,0,0,0-14.32,8.3,7,7,0,0,0,.65,1,8.51,8.51,0,0,0-1,1.51l5.9,3.06-6.29-2.1a8.29,8.29,0,0,0,1.34,7.77,8.28,8.28,0,1,0,13,0,8.29,8.29,0,0,0,0-10.24Z" transform="translate(-35.04 -8.77)"/><path class="cls-4" d="M109.16,265.52a8.26,8.26,0,0,0,1.77,5.12,8.28,8.28,0,1,0,13,0C125,269.23,109.16,264.6,109.16,265.52Z" transform="translate(-35.04 -8.77)"/><path class="cls-3" d="M189.61,262.68a5.77,5.77,0,0,0,2.06,4.26,3.3,3.3,0,0,0,4.41-.35,4.69,4.69,0,0,0,.73-1.59c.85-2.67,1.45-5.59.52-8.24-2.09-.13-4.51-1.12-6.08.61A7.22,7.22,0,0,0,189.61,262.68Z" transform="translate(-35.04 -8.77)"/><path class="cls-5" d="M199.31,246.34a52.72,52.72,0,0,0-.7,7.08c0,.91.12,1.82.12,2.74A13.58,13.58,0,0,1,196.9,263a2.18,2.18,0,0,1-.49.64,1.61,1.61,0,0,1-1.75.06,3.55,3.55,0,0,1-1.24-1.34c-1.51-2.59-1.55-5.73-2.15-8.67-.45-2.24-1.26-4.42-1.55-6.69-.19-1.46-.16-2.95-.46-4.39-.09-.44-.34-1.09-.51-1.73a2.56,2.56,0,0,1-.08-1.53c.32-.79,1.38-.48,2.06-.43a47.69,47.69,0,0,0,7.27,0,.84.84,0,0,1,.68.14.92.92,0,0,1,.16.29,9.12,9.12,0,0,1,.44,1.63A17.83,17.83,0,0,1,199.31,246.34Z" transform="translate(-35.04 -8.77)"/><g class="cls-6"><path d="M198.38,238.87a1.15,1.15,0,0,0-.37,0c-1.16.09-2.33.14-3.48.14C195.81,239,197.1,239,198.38,238.87Z" transform="translate(-35.04 -8.77)"/><path d="M195.07,263.67a3.55,3.55,0,0,1-1.24-1.34c-1.51-2.59-1.55-5.73-2.15-8.67-.46-2.24-1.26-4.42-1.55-6.69-.19-1.46-.16-2.95-.46-4.39-.09-.44-.34-1.09-.51-1.73a2.56,2.56,0,0,1-.08-1.53.87.87,0,0,1,.81-.53c-.52,0-1,0-1.22.53a2.64,2.64,0,0,0,.08,1.53c.17.64.43,1.29.52,1.73.3,1.44.27,2.93.46,4.39.29,2.28,1.09,4.45,1.55,6.69.6,2.94.64,6.08,2.15,8.67a3.4,3.4,0,0,0,1.24,1.34,1.77,1.77,0,0,0,1.06.22A2,2,0,0,1,195.07,263.67Z" transform="translate(-35.04 -8.77)"/></g><path class="cls-5" d="M207,258.77a13.66,13.66,0,0,0-1,5.88c.21,8.11-3,25.14-3,25.14h-2.83s-.41-18.86,0-20.48-.21-7.3-.82-15.2a40.6,40.6,0,0,1,1.44-13.54c.23-.81.39-1.26.39-1.26s4.66-6.89,7.3-3.65a8.17,8.17,0,0,1,1,4.2C209.8,246.2,207.91,256.9,207,258.77Z" transform="translate(-35.04 -8.77)"/><path class="cls-4" d="M209.44,239.86a8.07,8.07,0,0,0-1-4.2,2.08,2.08,0,0,0-2-.84,2.17,2.17,0,0,1,1.38.84,8.07,8.07,0,0,1,1,4.2c.36,6.34-1.53,17-2.46,18.91a13.58,13.58,0,0,0-1,5.88c.2,8.11-3,25.14-3,25.14h.6s3.25-17,3-25.14a13.66,13.66,0,0,1,1-5.88C207.91,256.9,209.8,246.2,209.44,239.86Z" transform="translate(-35.04 -8.77)"/><path class="cls-3" d="M198.61,289.05a2.49,2.49,0,0,0-.58.63c-.36.68.15,1.5.7,2.05s1.22,1.13,1.22,1.9a1.91,1.91,0,0,1-1,1.5c-.29.17-.64.4-.58.74a.67.67,0,0,0,.1.23,3.12,3.12,0,0,0,2.08,1.26,9,9,0,0,0,2.48,0,.46.46,0,0,0,.34-.12.41.41,0,0,0,.09-.28,3.6,3.6,0,0,1,.21-1.27c.26-.53.87-.8,1.21-1.27a2.84,2.84,0,0,0,.24-2.34,9.68,9.68,0,0,0-2.66-4.86C200.89,285.87,199.66,288.06,198.61,289.05Z" transform="translate(-35.04 -8.77)"/><path class="cls-3" d="M204.75,186.87a5.25,5.25,0,0,0-.32-5.74,9.77,9.77,0,0,0-4.92-3.42,13.9,13.9,0,0,0-8.09-.54,40.63,40.63,0,0,0-6,2.58,25.57,25.57,0,0,1-11.2,2.23c-4.28-.12-9-1.21-12.56,1.13-6.57,4.27-3.65,15.91-9.87,20.67-1.67,1.29-3.78,1.85-5.65,2.84s-3.63,2.72-3.59,4.83a5.63,5.63,0,0,0,1,2.84,13.15,13.15,0,0,0,11.05,5.94,14.12,14.12,0,0,0,11.14-5.94,8.56,8.56,0,0,1,2.1-2.48c1.82-1.2,4.23-.36,6.4-.18a10.39,10.39,0,0,0,10.66-8c.41-2,.34-4.47,2-5.75,1.32-1,3.19-.81,4.86-1a9.94,9.94,0,0,0,7.16-4.73c.77-1.14.86-2.51,1.9-3.41S203.68,188.47,204.75,186.87Z" transform="translate(-35.04 -8.77)"/><g class="cls-6"><path d="M170.16,182.38a26.24,26.24,0,0,0,5.31-.41H174c-3.36-.09-7-.79-10.1.05C166,182,168.12,182.32,170.16,182.38Z" transform="translate(-35.04 -8.77)"/><path d="M163.8,212.21a8.85,8.85,0,0,0-2.1,2.48,14.24,14.24,0,0,1-8,5.52c.24,0,.47,0,.71,0a14.05,14.05,0,0,0,11.14-5.93,8.89,8.89,0,0,1,2.1-2.49l.16-.09A5.66,5.66,0,0,0,163.8,212.21Z" transform="translate(-35.04 -8.77)"/><path d="M204.23,181.13a9.83,9.83,0,0,0-4.93-3.43,13.87,13.87,0,0,0-8.08-.54l-.18.05a15.52,15.52,0,0,1,4.41.9,9.9,9.9,0,0,1,4.93,3.42,5.27,5.27,0,0,1,.32,5.74c-1.08,1.6-2.82.87-3.95,1.86s-1.13,2.27-1.9,3.42a10.44,10.44,0,0,1-5.91,4.5c.85-.11,1.75-.09,2.61-.18a9.94,9.94,0,0,0,7.15-4.73c.77-1.15.86-2.51,1.9-3.42s2.87-.25,4-1.85A5.24,5.24,0,0,0,204.23,181.13Z" transform="translate(-35.04 -8.77)"/><path d="M187.7,197.27c-1.67.18-3.54,0-4.87,1-1.64,1.28-1.56,3.71-2,5.75a10.43,10.43,0,0,1-7,7.59l.24,0a10.37,10.37,0,0,0,10.66-8c.41-2,.34-4.47,2-5.75a3.51,3.51,0,0,1,1.26-.61Z" transform="translate(-35.04 -8.77)"/></g><path class="cls-5" d="M236.67,179.61s-4.86,9.73-6.48,13.38-16.42,9.12-18.45,9.33a2.66,2.66,0,0,0-1.45.69,8.06,8.06,0,0,0-1.79,2.75,62.63,62.63,0,0,1-.21,14.6c0,.17,0,.35,0,.52-.88,8.68,1,10.73,1,10.73s-19.67,7.5-19.06-2.23a45.27,45.27,0,0,0,0-7.17,30.16,30.16,0,0,0-1.17-5.65c-.48-1.68-1.05-3.52-1.65-6a26.44,26.44,0,0,0-1.12-3.68.49.49,0,0,1,0-.11c-1-2.51-2-3.33-2.61-3.59a8.56,8.56,0,0,1-1.56-.88,81.87,81.87,0,0,1-9.47-8c-4.86-4.86-9.73-16.42-9.73-16.42s-1.42-6.69,1.83-12.16,1.82,10.74,1.82,10.74,5.88,7.91,7.3,11.56a6.11,6.11,0,0,0,2.84,3.33,34.68,34.68,0,0,1,4.48,2.81,27.45,27.45,0,0,0,3,2,25.83,25.83,0,0,0,7.24,3,6.44,6.44,0,0,0,1.07.09,1.08,1.08,0,0,0,.89-.41c.61-.71.6-2.25.46-3.52q-.12-1-.33-1.95s6.58-4.16,6.38.91a5.54,5.54,0,0,0,.16,1.67,2.87,2.87,0,0,0,2,2.15,4.88,4.88,0,0,0,2.43.08,2.56,2.56,0,0,0,.72-.25,48.55,48.55,0,0,1,8.51-2.43c1.83-.21,10.95-4.66,10.95-4.66L234.44,177s-.2-8.11,3.85-11.35S236.67,179.61,236.67,179.61Z" transform="translate(-35.04 -8.77)"/><g class="cls-6"><path d="M208.24,219.67a40,40,0,0,0-.23,4.9c0-1.07.09-2.29.23-3.69,0-.17,0-.35,0-.52a77.76,77.76,0,0,0,.51-9.41,80,80,0,0,1-.51,8.19C208.28,219.32,208.26,219.5,208.24,219.67Z" transform="translate(-35.04 -8.77)"/><path d="M193.61,193.17l-.21.13a16.69,16.69,0,0,1,.39,2.63A12.77,12.77,0,0,0,193.61,193.17Z" transform="translate(-35.04 -8.77)"/><path d="M166.53,175.37c.09-1.42.24-4,.21-6.22,0,3-.3,6.11-.3,6.11Z" transform="translate(-35.04 -8.77)"/><path d="M190.17,229.14a1,1,0,0,1,0,.24c-.61,9.73,19.06,2.23,19.06,2.23a3.33,3.33,0,0,1-.52-1C205.73,231.63,190.85,236.53,190.17,229.14Z" transform="translate(-35.04 -8.77)"/><path d="M236.67,178.4s-4.86,9.73-6.48,13.38-16.42,9.12-18.45,9.32a2.67,2.67,0,0,0-1.45.7,8,8,0,0,0-1.79,2.75s.05.33.11,1a7.58,7.58,0,0,1,1.68-2.5,2.66,2.66,0,0,1,1.45-.69c2-.21,16.83-5.68,18.45-9.33s6.48-13.38,6.48-13.38,3.43-10.4,3.05-13.52C239.41,170.08,236.67,178.4,236.67,178.4Z" transform="translate(-35.04 -8.77)"/><path d="M190.13,221a30.33,30.33,0,0,0-1.17-5.65c-.48-1.68-1.05-3.52-1.65-6a26.44,26.44,0,0,0-1.12-3.68.36.36,0,0,1,0-.11c-1-2.51-2-3.32-2.61-3.59a9.15,9.15,0,0,1-1.56-.87,83.24,83.24,0,0,1-9.47-8c-4.86-4.86-9.73-16.41-9.73-16.41a18.45,18.45,0,0,1-.3-3,19.39,19.39,0,0,0,.3,4.17s4.87,11.56,9.73,16.42a81.87,81.87,0,0,0,9.47,8,9,9,0,0,0,1.57.88c.58.26,1.59,1.08,2.61,3.59,0,0,0,.07,0,.11a26.44,26.44,0,0,1,1.12,3.68c.59,2.51,1.17,4.35,1.65,6a29.37,29.37,0,0,1,1.16,5.65c.09.84.14,1.77.15,2.8A36,36,0,0,0,190.13,221Z" transform="translate(-35.04 -8.77)"/></g><path class="cls-2" d="M210.2,212.19a11.88,11.88,0,0,0-.81,1.59,9.63,9.63,0,0,0-.36,2.68,21.77,21.77,0,0,1-.58,3.76,5,5,0,0,1-.2.66,1.69,1.69,0,0,1-.24.41,1.78,1.78,0,0,1-.38.34,4,4,0,0,1-.68.37c-2.82,1.32-5.9,2.49-9,2a13.11,13.11,0,0,1-3.74-1.26c-1.11-.54-2.37-1.18-3.53-.73h0a1.93,1.93,0,0,1-.56.18H190c-.38-.08-.38-1.36-.47-1.74-.33-1.46-.38-2.64-.58-3.9a12.11,12.11,0,0,0-.49-2.06,24.36,24.36,0,0,1-1-7.64c0-.13-.91,0-1.22,0-.08,0-.12,0-.1,0l.06-.07a.87.87,0,0,1,.36-.18l.24-.07c1.26-.36,2.64-.5,3.58-1.39a4.79,4.79,0,0,0,1.17-3.69c0-.43-.22-1.46-.19-2.33a7.74,7.74,0,0,0,1.07.1,1.11,1.11,0,0,0,.89-.41,16.59,16.59,0,0,1,.88,2,14,14,0,0,0,1.11,2.5,4.26,4.26,0,0,0,3.8,1.95,3.52,3.52,0,0,0,3.13-2.74c.24-1.29-.3-3.14-.29-4.48a4.88,4.88,0,0,0,2.43.08l.09.25c.45,1.57,1.06,3.37,2.59,3.92,1,.36,2.16.09,3.08.61l.2.13a2.44,2.44,0,0,1,.54.57,4.75,4.75,0,0,1,.65,2.05A11.36,11.36,0,0,1,210.2,212.19Z" transform="translate(-35.04 -8.77)"/><path class="cls-4" d="M199.94,195.88a6.93,6.93,0,0,1-6.21-.63q-.12-1-.33-1.95s6.58-4.16,6.38.91A5.54,5.54,0,0,0,199.94,195.88Z" transform="translate(-35.04 -8.77)"/><circle class="cls-5" cx="162.41" cy="180.27" r="6.89"/><path class="cls-7" d="M185.39,206.17s13.38-8.51,54.93.61S306,208.6,306,208.6v9.53s-46.62,5.07-64.46,0-43.23-8-52.13-.15Z" transform="translate(-35.04 -8.77)"/><path class="cls-4" d="M185.39,206.17s13.38-8.51,54.93.61S306,208.6,306,208.6v9.53s-46.62,5.07-64.46,0-43.23-8-52.13-.15Z" transform="translate(-35.04 -8.77)"/><path class="cls-7" d="M185.79,206.57s13-8.51,54.53.61S305.59,209,305.59,209l.21,8.71s-46.22,5.07-64.06,0-43-8.6-51.92-.75Z" transform="translate(-35.04 -8.77)"/><path class="cls-7" d="M180.92,219.67s-13.38,8.51-54.94-.61-39.52-1.82-39.52-1.82v-9.53s20.47-5.07,38.31,0,43.23,8,52.12.14Z" transform="translate(-35.04 -8.77)"/><path class="cls-4" d="M180.92,219.67s-13.38,8.51-54.94-.61-39.52-1.82-39.52-1.82v-9.53s20.47-5.07,38.31,0,43.23,8,52.12.14Z" transform="translate(-35.04 -8.77)"/><path class="cls-7" d="M180.51,219.26s-13,8.52-54.53-.6-39.12-1.83-39.12-1.83l-.2-8.71s20.07-5.07,37.9,0,43,8.59,51.93.75Z" transform="translate(-35.04 -8.77)"/><path class="cls-3" d="M191.52,190.18c-.2-1.26-.51-2.86.54-3.58a2.24,2.24,0,0,1,1.26-.32c2.19,0,4.28,1.5,6.43,1.05a3.62,3.62,0,0,0,1.42-6.46,7.32,7.32,0,0,0-2.95-1.07c-2.71-.55-5.55-1.11-8.24-.4s-5.13,3.12-4.92,5.88a8.36,8.36,0,0,0,1.48,3.65c.54.85,2.62,4.86,3.63,4.92C191.6,193.94,191.66,191,191.52,190.18Z" transform="translate(-35.04 -8.77)"/><path class="cls-2" d="M208.6,228.16s-14,3.45-18.65,0c0,0-2,7.91-1.42,12,0,0,9.93.61,10.95,1.22,0,0,.2-1.62,1.21-.81,0,0,3.45-4.06,9.73-.41C210.42,240.12,211.64,230.6,208.6,228.16Z" transform="translate(-35.04 -8.77)"/><path class="cls-4" d="M201.18,180.87a4.34,4.34,0,0,0-.46-.28,3.6,3.6,0,0,1-2,5.93c-2.15.45-4.24-1.08-6.43-1.06a2.31,2.31,0,0,0-1.26.33c-1.06.72-.75,2.32-.54,3.58.13.83.07,3.75-1.35,3.68h0c.39.47.75.79,1,.81,1.42.08,1.48-2.84,1.35-3.68-.2-1.26-.51-2.86.54-3.58a2.24,2.24,0,0,1,1.26-.32c2.19,0,4.28,1.5,6.43,1.05a3.62,3.62,0,0,0,1.42-6.46Z" transform="translate(-35.04 -8.77)"/><g class="cls-6"><path class="cls-2" d="M100.5,171.24s-15.15-6.37-17.14,5.12a2.78,2.78,0,0,0,.41,3.27s.31-.79,1.77,0a7,7,0,0,0,1.66.67,3.71,3.71,0,0,0,2.35-.12h0s5-.27,9.18-6.79c0,0,1.79-1.11,1.88-1.53l-3,.2a5,5,0,0,1-1,3.52s1.1-3.41.57-3.51c-.11,0-1.59.18-1.59.18s.39,3.82-1.62,5.8c0,0,1.86-3.89,1.05-5.73l-2.21.43s.6,4-1.59,6.36c0,0,1.8-4.14,1.11-6.24l-2.13.72s.52,3.93-1.32,5.87c0,0,1.6-5,.85-5.67A10.78,10.78,0,0,0,87.4,175s.3,2.83-.86,3.85c0,0,.71-3.45.36-3.59a11.65,11.65,0,0,0-2.9,3.11A8.5,8.5,0,0,1,86.62,175a4.65,4.65,0,0,0-2.64.38s.77-1.47,3.18-.77a10.29,10.29,0,0,1,2.14-1.22,10.36,10.36,0,0,0-3.92-.89s1.76-1,4.47.68l2.12-.76s-2.94-1.51-4.41-1.5c0,0,2-.76,5,1.35l2.17-.45A17,17,0,0,0,90.62,170s2-.31,4.69,1.73l1.49-.12s-1.8-1.06-2.34-1.32-.52-.42-.52-.42a7,7,0,0,1,3.48,1.67A16.91,16.91,0,0,0,100.5,171.24Z" transform="translate(-35.04 -8.77)"/></g><g class="cls-6"><path class="cls-2" d="M99.94,159.82s-5.38-12.42-13.1-6.72a2.3,2.3,0,0,0-1.62,2.17s.64-.3,1,1a6,6,0,0,0,.61,1.34,3,3,0,0,0,1.45,1.27h0s3.12,2.68,9.33,1.19c0,0,1.7.37,2,.17l-1.9-1.59a4.07,4.07,0,0,1-2.61,1.5s2.6-1.39,2.34-1.75c0-.08-1-.8-1-.8s-2,2.49-4.26,2.52c0,0,3.32-1.25,3.89-2.8l-1.56-1s-1.93,2.74-4.56,2.88c0,0,3.42-1.42,4.21-3.07l-1.67-.79s-1.94,2.64-4.13,2.73c0,0,3.79-2,3.73-2.88a9,9,0,0,0-2.07-.6s-1.43,1.86-2.71,1.81c0,0,2.39-1.64,2.25-1.93a9.56,9.56,0,0,0-3.49.2,7,7,0,0,1,3.52-.55,3.81,3.81,0,0,0-1.77-1.28s1.29-.43,2.32,1.35a8.72,8.72,0,0,1,2,.49,8.35,8.35,0,0,0-1.82-2.76s1.62.41,2.27,3l1.69.75a11.53,11.53,0,0,0-1.77-3.4s1.59.66,2.18,3.62l1.54,1a14.18,14.18,0,0,0-1.38-3.41s1.35.94,1.81,3.71l1,.77s-.47-1.65-.64-2.11-.07-.55-.07-.55a5.85,5.85,0,0,1,1.12,3A13.9,13.9,0,0,0,99.94,159.82Z" transform="translate(-35.04 -8.77)"/></g><path d="M40.21,25.15a6.68,6.68,0,0,1-2.82-2.53,7.18,7.18,0,0,1-1-3.75,10.29,10.29,0,0,1,1.29-5.13,9.46,9.46,0,0,1,3.65-3.64,10.76,10.76,0,0,1,5.4-1.33,9.62,9.62,0,0,1,3.85.72,5.4,5.4,0,0,1,2.54,2.09l-2.26,1.89a5,5,0,0,0-4.34-2,7,7,0,0,0-3.68,1,6.53,6.53,0,0,0-2.44,2.61,7.58,7.58,0,0,0-.87,3.61,4.36,4.36,0,0,0,1.37,3.38,5.53,5.53,0,0,0,3.89,1.25,6.35,6.35,0,0,0,4.77-1.94l1.83,2a7.46,7.46,0,0,1-2.95,2,11,11,0,0,1-3.89.67A9.84,9.84,0,0,1,40.21,25.15Z" transform="translate(-35.04 -8.77)"/><path d="M57.23,25.15a6.46,6.46,0,0,1-2.77-2.52,7.23,7.23,0,0,1-1-3.76,10.28,10.28,0,0,1,1.28-5.13,9.37,9.37,0,0,1,3.64-3.64,10.67,10.67,0,0,1,5.37-1.33,9.58,9.58,0,0,1,4.31.9,6.46,6.46,0,0,1,2.77,2.52,7.22,7.22,0,0,1,1,3.75,10.45,10.45,0,0,1-1.28,5.14,9.37,9.37,0,0,1-3.64,3.64,10.8,10.8,0,0,1-5.37,1.33A9.58,9.58,0,0,1,57.23,25.15Zm8.18-2.81a6.59,6.59,0,0,0,2.43-2.62,7.74,7.74,0,0,0,.85-3.58,4.38,4.38,0,0,0-1.36-3.38A5.41,5.41,0,0,0,63.5,11.5a6.71,6.71,0,0,0-3.61,1,6.45,6.45,0,0,0-2.41,2.61,7.78,7.78,0,0,0-.84,3.59A4.41,4.41,0,0,0,58,22.05a5.38,5.38,0,0,0,3.82,1.26A6.71,6.71,0,0,0,65.41,22.34Z" transform="translate(-35.04 -8.77)"/><path d="M76.7,9h6.8a10.28,10.28,0,0,1,4.36.85,6.27,6.27,0,0,1,2.82,2.41,6.8,6.8,0,0,1,1,3.67,10.11,10.11,0,0,1-1.31,5.19,8.79,8.79,0,0,1-3.69,3.45,11.7,11.7,0,0,1-5.47,1.23H73.34Zm4.59,14.16a7.84,7.84,0,0,0,3.84-.91,6.38,6.38,0,0,0,2.51-2.51,7.44,7.44,0,0,0,.87-3.61,4.11,4.11,0,0,0-1.37-3.3,5.86,5.86,0,0,0-4-1.19H79.3L77,23.17Z" transform="translate(-35.04 -8.77)"/><path d="M99.1,11.62,98.23,16h8.14l-.51,2.57H97.7l-.91,4.63h9.51l-.53,2.62H93.17L96.53,9h12.26l-.53,2.61Z" transform="translate(-35.04 -8.77)"/><path d="M127.68,18.61h-4.25l-.84,4.2H120l.84-4.2h-4.27l.48-2.4h4.25l.84-4.2h2.57l-.84,4.2h4.27Z" transform="translate(-35.04 -8.77)"/><path d="M149.88,17.22h3L151.46,24a9.63,9.63,0,0,1-2.89,1.53,10.57,10.57,0,0,1-3.37.54,9.75,9.75,0,0,1-4.32-.9A6.74,6.74,0,0,1,138,22.63a7.06,7.06,0,0,1-1-3.76,10.29,10.29,0,0,1,1.29-5.13A9.4,9.4,0,0,1,142,10.1a10.94,10.94,0,0,1,5.47-1.33,10.14,10.14,0,0,1,4,.71,6.6,6.6,0,0,1,2.76,2L152,13.4A4.87,4.87,0,0,0,150,12a8,8,0,0,0-6.44.49A6.55,6.55,0,0,0,141.07,15a7.55,7.55,0,0,0-.89,3.65,4.34,4.34,0,0,0,1.39,3.38,5.75,5.75,0,0,0,4,1.25,6.89,6.89,0,0,0,3.26-.79Z" transform="translate(-35.04 -8.77)"/><path d="M170.18,18.16a6.64,6.64,0,0,1-3.62,2.32l3,5.33h-3.31l-2.76-4.92h-4.18l-1,4.92h-3.14L158.57,9h6.52a7.37,7.37,0,0,1,4.72,1.33,4.51,4.51,0,0,1,1.67,3.73A6.42,6.42,0,0,1,170.18,18.16Zm-3.09-.86a3.58,3.58,0,0,0,1.24-2.94,2.35,2.35,0,0,0-.92-2,4.45,4.45,0,0,0-2.65-.68h-3.58l-1.34,6.67h3.72A5.46,5.46,0,0,0,167.09,17.3Z" transform="translate(-35.04 -8.77)"/><path d="M184.58,21.92h-8.45l-2.42,3.89h-3.34L181.29,9h3.1l4.18,16.8h-3.1ZM184,19.47l-1.71-7.39-4.63,7.39Z" transform="translate(-35.04 -8.77)"/><path d="M205.28,10.34A4.51,4.51,0,0,1,207,14.07a6.79,6.79,0,0,1-1,3.69,6.27,6.27,0,0,1-2.79,2.37,10.15,10.15,0,0,1-4.26.83h-4.1l-1,4.85h-3.12L194.09,9h6.48A7.36,7.36,0,0,1,205.28,10.34Zm-2.71,7a3.61,3.61,0,0,0,1.24-2.94,2.36,2.36,0,0,0-.93-2,4.43,4.43,0,0,0-2.65-.68h-3.55l-1.32,6.67h3.69A5.39,5.39,0,0,0,202.57,17.3Z" transform="translate(-35.04 -8.77)"/><path d="M226.17,9l-3.36,16.8h-3.09l1.41-7.13h-8.68L211,25.81h-3.12L211.27,9h3.12L213,15.9h8.69L223.08,9Z" transform="translate(-35.04 -8.77)"/><path d="M230.71,9h3.12l-3.36,16.8h-3.12Z" transform="translate(-35.04 -8.77)"/><path d="M239.17,25.15a6.62,6.62,0,0,1-2.82-2.53,7.09,7.09,0,0,1-1-3.75,10.29,10.29,0,0,1,1.29-5.13,9.46,9.46,0,0,1,3.65-3.64,10.76,10.76,0,0,1,5.4-1.33,9.62,9.62,0,0,1,3.85.72,5.38,5.38,0,0,1,2.53,2.09l-2.25,1.89a5,5,0,0,0-4.35-2,7,7,0,0,0-3.67,1,6.62,6.62,0,0,0-2.45,2.61,7.69,7.69,0,0,0-.86,3.61,4.36,4.36,0,0,0,1.37,3.38,5.53,5.53,0,0,0,3.89,1.25,6.36,6.36,0,0,0,4.77-1.94l1.83,2a7.43,7.43,0,0,1-3,2,10.89,10.89,0,0,1-3.88.67A9.81,9.81,0,0,1,239.17,25.15Z" transform="translate(-35.04 -8.77)"/><path d="M254.13,25.5a7.77,7.77,0,0,1-2.78-1.42l1.32-2.45A8,8,0,0,0,255.18,23a9.06,9.06,0,0,0,3,.5,5.88,5.88,0,0,0,2.94-.64,1.93,1.93,0,0,0,1.09-1.74,1.35,1.35,0,0,0-.44-1,3.68,3.68,0,0,0-1.1-.69c-.45-.17-1.06-.37-1.84-.6a23.45,23.45,0,0,1-2.64-.92,4.66,4.66,0,0,1-1.73-1.33,3.56,3.56,0,0,1-.72-2.31,4.56,4.56,0,0,1,.93-2.85,5.86,5.86,0,0,1,2.58-1.9A10,10,0,0,1,261,8.77a12.48,12.48,0,0,1,3.1.37,9,9,0,0,1,2.52,1l-1.23,2.48a7.26,7.26,0,0,0-2.11-1,8.63,8.63,0,0,0-2.45-.34,5.61,5.61,0,0,0-3,.68,2.07,2.07,0,0,0-1.09,1.82,1.44,1.44,0,0,0,.45,1.08,3.52,3.52,0,0,0,1.11.68c.43.17,1.06.38,1.89.64a23.19,23.19,0,0,1,2.59.88,4.54,4.54,0,0,1,1.72,1.28,3.27,3.27,0,0,1,.71,2.18,4.64,4.64,0,0,1-.93,2.88,5.84,5.84,0,0,1-2.61,1.9,10.62,10.62,0,0,1-3.88.67A12.78,12.78,0,0,1,254.13,25.5Z" transform="translate(-35.04 -8.77)"/><path d="M285.88,18.61h-4.24l-.84,4.2h-2.57l.84-4.2H274.8l.48-2.4h4.24l.84-4.2h2.57l-.84,4.2h4.27Z" transform="translate(-35.04 -8.77)"/><path d="M306.72,21.92h-8.45l-2.43,3.89h-3.33L303.43,9h3.09l4.18,16.8h-3.1Zm-.58-2.45-1.7-7.39-4.64,7.39Z" transform="translate(-35.04 -8.77)"/><path d="M316.22,9h3.12L316,25.81h-3.12Z" transform="translate(-35.04 -8.77)"/><path d="M339,18.61H334.7l-.84,4.2h-2.57l.84-4.2h-4.27l.48-2.4h4.25l.84-4.2H336l-.84,4.2h4.28Z" transform="translate(-35.04 -8.77)"/><path d="M37.82,54.3A7.77,7.77,0,0,1,35,52.88l1.32-2.45a8,8,0,0,0,2.51,1.33,9.11,9.11,0,0,0,3,.5,5.88,5.88,0,0,0,2.94-.64,1.93,1.93,0,0,0,1.09-1.74,1.35,1.35,0,0,0-.44-1,3.56,3.56,0,0,0-1.1-.69c-.44-.17-1.06-.37-1.84-.6a23.45,23.45,0,0,1-2.64-.92,4.66,4.66,0,0,1-1.73-1.33A3.56,3.56,0,0,1,37.39,43a4.56,4.56,0,0,1,.93-2.85,5.86,5.86,0,0,1,2.58-1.9,10,10,0,0,1,3.81-.67,12.48,12.48,0,0,1,3.1.37,9,9,0,0,1,2.52,1L49.1,41.46a7.14,7.14,0,0,0-2.11-1,8.63,8.63,0,0,0-2.45-.34,5.61,5.61,0,0,0-3,.68,2.07,2.07,0,0,0-1.09,1.82,1.44,1.44,0,0,0,.45,1.08,3.64,3.64,0,0,0,1.11.68c.43.17,1.06.38,1.89.64a24.19,24.19,0,0,1,2.6.88,4.59,4.59,0,0,1,1.71,1.28A3.27,3.27,0,0,1,49,49.4,4.7,4.7,0,0,1,48,52.28a5.93,5.93,0,0,1-2.62,1.9,10.62,10.62,0,0,1-3.88.67A12.78,12.78,0,0,1,37.82,54.3Z" transform="translate(-35.04 -8.77)"/><path d="M55.24,54a6.49,6.49,0,0,1-2.78-2.52,7.23,7.23,0,0,1-1-3.76,10.29,10.29,0,0,1,1.29-5.13,9.34,9.34,0,0,1,3.63-3.64,10.71,10.71,0,0,1,5.38-1.33,9.61,9.61,0,0,1,4.31.9A6.46,6.46,0,0,1,68.88,41a7.22,7.22,0,0,1,1,3.75,10.45,10.45,0,0,1-1.28,5.14,9.37,9.37,0,0,1-3.64,3.64,10.81,10.81,0,0,1-5.38,1.33A9.54,9.54,0,0,1,55.24,54Zm8.18-2.81a6.5,6.5,0,0,0,2.42-2.62,7.63,7.63,0,0,0,.86-3.58,4.41,4.41,0,0,0-1.36-3.38,5.41,5.41,0,0,0-3.83-1.26,6.71,6.71,0,0,0-3.61,1,6.45,6.45,0,0,0-2.41,2.61,7.78,7.78,0,0,0-.84,3.59A4.41,4.41,0,0,0,56,50.85a5.38,5.38,0,0,0,3.82,1.26A6.71,6.71,0,0,0,63.42,51.14Z" transform="translate(-35.04 -8.77)"/><path d="M74.22,53.31a5.33,5.33,0,0,1-1.74-4.22,9.51,9.51,0,0,1,.19-1.8l1.9-9.48h3.12l-1.9,9.43a9.6,9.6,0,0,0-.17,1.49,3.21,3.21,0,0,0,1,2.53,4,4,0,0,0,2.76.85,4.45,4.45,0,0,0,3.23-1.17,7.11,7.11,0,0,0,1.74-3.72l1.87-9.41h3.08l-1.92,9.62A9.74,9.74,0,0,1,84.5,53,7.9,7.9,0,0,1,79,54.85,7,7,0,0,1,74.22,53.31Z" transform="translate(-35.04 -8.77)"/><path d="M108.55,37.81l-3.36,16.8h-2.57L95.74,42.85,93.38,54.61H90.29l3.36-16.8h2.57l6.91,11.76,2.33-11.76Z" transform="translate(-35.04 -8.77)"/><path d="M113.09,37.81h6.79a10.33,10.33,0,0,1,4.37.85,6.38,6.38,0,0,1,2.82,2.41,6.79,6.79,0,0,1,1,3.67,10.11,10.11,0,0,1-1.31,5.19,8.82,8.82,0,0,1-3.68,3.45,11.76,11.76,0,0,1-5.47,1.23h-7.85ZM117.67,52a7.84,7.84,0,0,0,3.84-.91A6.31,6.31,0,0,0,124,48.55a7.45,7.45,0,0,0,.88-3.61,4.14,4.14,0,0,0-1.37-3.3,5.87,5.87,0,0,0-4-1.19h-3.86L113.38,52Z" transform="translate(-35.04 -8.77)"/><path d="M131.33,54.3a7.83,7.83,0,0,1-2.79-1.42l1.32-2.45a8.11,8.11,0,0,0,2.51,1.33,9.17,9.17,0,0,0,3,.5,5.88,5.88,0,0,0,2.94-.64,2,2,0,0,0,1.09-1.74,1.36,1.36,0,0,0-.45-1,3.44,3.44,0,0,0-1.1-.69c-.44-.17-1-.37-1.84-.6a25,25,0,0,1-2.64-.92,4.62,4.62,0,0,1-1.72-1.33A3.56,3.56,0,0,1,130.9,43a4.55,4.55,0,0,1,.92-2.85,6,6,0,0,1,2.58-1.9,10.06,10.06,0,0,1,3.82-.67,12.4,12.4,0,0,1,3.09.37,8.8,8.8,0,0,1,2.52,1l-1.22,2.48a7.38,7.38,0,0,0-2.11-1,8.68,8.68,0,0,0-2.45-.34,5.63,5.63,0,0,0-3,.68A2.07,2.07,0,0,0,134,42.66a1.41,1.41,0,0,0,.46,1.08,3.47,3.47,0,0,0,1.1.68c.43.17,1.07.38,1.9.64a23.92,23.92,0,0,1,2.59.88,4.7,4.7,0,0,1,1.72,1.28,3.26,3.26,0,0,1,.7,2.18,4.63,4.63,0,0,1-.92,2.88,5.93,5.93,0,0,1-2.62,1.9,10.57,10.57,0,0,1-3.87.67A12.68,12.68,0,0,1,131.33,54.3Z" transform="translate(-35.04 -8.77)"/><path d="M163.08,47.41h-4.25l-.84,4.2h-2.57l.84-4.2H152l.48-2.4h4.25l.84-4.2h2.57l-.84,4.2h4.27Z" transform="translate(-35.04 -8.77)"/><path d="M175.44,37.81h3.12L175.73,52h8.78L184,54.61h-11.9Z" transform="translate(-35.04 -8.77)"/><path d="M192.38,40.42l-.86,4.37h8.13l-.5,2.57H191L190.08,52h9.5l-.53,2.62h-12.6l3.36-16.8h12.27l-.53,2.61Z" transform="translate(-35.04 -8.77)"/><path d="M221,37.81l-10.68,16.8h-3.07l-4-16.8h3.21l3,12.91,8.26-12.91Z" transform="translate(-35.04 -8.77)"/><path d="M225.36,40.42l-.87,4.37h8.14l-.5,2.57H224L223.05,52h9.51L232,54.61h-12.6l3.36-16.8h12.26l-.52,2.61Z" transform="translate(-35.04 -8.77)"/><path d="M238.87,37.81H242L239.16,52h8.78l-.53,2.64h-11.9Z" transform="translate(-35.04 -8.77)"/><path d="M251.54,54.3a7.77,7.77,0,0,1-2.78-1.42l1.32-2.45a8.06,8.06,0,0,0,2.5,1.33,9.17,9.17,0,0,0,3,.5,5.88,5.88,0,0,0,2.94-.64,1.93,1.93,0,0,0,1.09-1.74,1.38,1.38,0,0,0-.44-1,3.61,3.61,0,0,0-1.11-.69q-.66-.26-1.83-.6a23.45,23.45,0,0,1-2.64-.92,4.58,4.58,0,0,1-1.73-1.33,3.56,3.56,0,0,1-.72-2.31,4.61,4.61,0,0,1,.92-2.85,6,6,0,0,1,2.58-1.9,10.09,10.09,0,0,1,3.82-.67,12.48,12.48,0,0,1,3.1.37A8.85,8.85,0,0,1,264,39l-1.22,2.48a7.26,7.26,0,0,0-2.11-1,8.68,8.68,0,0,0-2.45-.34,5.59,5.59,0,0,0-3,.68,2.07,2.07,0,0,0-1.09,1.82,1.44,1.44,0,0,0,.45,1.08,3.41,3.41,0,0,0,1.11.68c.43.17,1.06.38,1.89.64a23.19,23.19,0,0,1,2.59.88A4.62,4.62,0,0,1,262,47.22a3.27,3.27,0,0,1,.71,2.18,4.64,4.64,0,0,1-.93,2.88,5.84,5.84,0,0,1-2.61,1.9,10.62,10.62,0,0,1-3.88.67A12.73,12.73,0,0,1,251.54,54.3Z" transform="translate(-35.04 -8.77)"/><path d="M283.29,47.41H279l-.83,4.2h-2.57l.84-4.2h-4.27l.47-2.4h4.25l.84-4.2h2.57L279.5,45h4.27Z" transform="translate(-35.04 -8.77)"/><path d="M295.65,37.81h3.12l-3.36,16.8h-3.12Z" transform="translate(-35.04 -8.77)"/><path d="M318.21,37.81l-3.36,16.8h-2.57L305.4,42.85,303,54.61H300l3.36-16.8h2.57l6.91,11.76,2.33-11.76Z" transform="translate(-35.04 -8.77)"/><path d="M325.63,40.45h-5.57l.53-2.64h14.25l-.55,2.64h-5.57l-2.8,14.16h-3.13Z" transform="translate(-35.04 -8.77)"/><path d="M339.76,40.42l-.86,4.37H347l-.5,2.57h-8.16L337.46,52H347l-.53,2.62h-12.6l3.36-16.8h12.27l-.53,2.61Z" transform="translate(-35.04 -8.77)"/><path d="M364.89,47a6.64,6.64,0,0,1-3.62,2.32l3,5.33H361l-2.77-4.92H354l-1,4.92h-3.14l3.35-16.8h6.53a7.39,7.39,0,0,1,4.72,1.33,4.51,4.51,0,0,1,1.67,3.73A6.48,6.48,0,0,1,364.89,47Zm-3.1-.86A3.56,3.56,0,0,0,363,43.16a2.38,2.38,0,0,0-.92-2,4.45,4.45,0,0,0-2.65-.68h-3.58l-1.34,6.67h3.72A5.41,5.41,0,0,0,361.79,46.1Z" transform="translate(-35.04 -8.77)"/><path d="M368.11,46.69h6.6l-.51,2.49h-6.57Z" transform="translate(-35.04 -8.77)"/><path d="M42,69.22l-1,5.12H49.1L48.58,77H40.46l-1.29,6.43H36.05l3.36-16.8H51.67l-.53,2.61Z" transform="translate(-35.04 -8.77)"/><path d="M62.45,79.52H54l-2.42,3.89H48.24l10.92-16.8h3.1l4.17,16.8H63.34Zm-.58-2.45-1.7-7.39-4.63,7.39Z" transform="translate(-35.04 -8.77)"/><path d="M72.52,82.75a6.56,6.56,0,0,1-2.82-2.53,7.1,7.1,0,0,1-1-3.75A10.19,10.19,0,0,1,70,71.34a9.39,9.39,0,0,1,3.65-3.64,10.7,10.7,0,0,1,5.4-1.33,9.68,9.68,0,0,1,3.85.72,5.43,5.43,0,0,1,2.53,2.09l-2.26,1.89a5,5,0,0,0-4.34-2,6.93,6.93,0,0,0-3.67,1,6.55,6.55,0,0,0-2.45,2.61,7.58,7.58,0,0,0-.87,3.61,4.36,4.36,0,0,0,1.37,3.38,5.55,5.55,0,0,0,3.89,1.25A6.37,6.37,0,0,0,81.89,79l1.82,2a7.39,7.39,0,0,1-2.95,2,11,11,0,0,1-3.89.67A9.76,9.76,0,0,1,72.52,82.75Z" transform="translate(-35.04 -8.77)"/><path d="M91.73,69.22l-.87,4.37H99l-.5,2.57H90.33l-.91,4.63h9.51l-.53,2.62H85.8l3.36-16.8h12.26l-.52,2.61Z" transform="translate(-35.04 -8.77)"/><path d="M120.31,76.21h-4.25l-.84,4.2h-2.57l.84-4.2h-4.27l.48-2.4H114l.84-4.2h2.57l-.84,4.2h4.27Z" transform="translate(-35.04 -8.77)"/><path d="M131.09,83.1a7.74,7.74,0,0,1-2.79-1.42l1.32-2.45a8.11,8.11,0,0,0,2.51,1.33,9.15,9.15,0,0,0,3,.5,5.83,5.83,0,0,0,2.94-.64,1.94,1.94,0,0,0,1.1-1.74,1.36,1.36,0,0,0-.45-1,3.44,3.44,0,0,0-1.1-.69c-.44-.17-1.05-.37-1.84-.6a23.45,23.45,0,0,1-2.64-.92,4.66,4.66,0,0,1-1.73-1.33,3.56,3.56,0,0,1-.72-2.31,4.56,4.56,0,0,1,.93-2.85,5.86,5.86,0,0,1,2.58-1.9,10,10,0,0,1,3.81-.67,12.48,12.48,0,0,1,3.1.37,8.8,8.8,0,0,1,2.52,1l-1.22,2.48a7.32,7.32,0,0,0-2.12-1,8.61,8.61,0,0,0-2.44-.34,5.63,5.63,0,0,0-3,.68,2.07,2.07,0,0,0-1.09,1.82,1.41,1.41,0,0,0,.46,1.08,3.47,3.47,0,0,0,1.1.68c.43.17,1.06.38,1.9.64a23.92,23.92,0,0,1,2.59.88A4.59,4.59,0,0,1,141.51,76a3.22,3.22,0,0,1,.71,2.18,4.7,4.7,0,0,1-.92,2.88,5.93,5.93,0,0,1-2.62,1.9,10.6,10.6,0,0,1-3.87.67A12.68,12.68,0,0,1,131.09,83.1Z" transform="translate(-35.04 -8.77)"/><path d="M150.33,69.22l-.86,4.37h8.14l-.51,2.57h-8.16L148,80.79h9.5L157,83.41h-12.6l3.36-16.8H160l-.53,2.61Z" transform="translate(-35.04 -8.77)"/><path d="M164.58,82.75a6.56,6.56,0,0,1-2.82-2.53,7.1,7.1,0,0,1-1-3.75,10.29,10.29,0,0,1,1.3-5.13,9.39,9.39,0,0,1,3.65-3.64,10.76,10.76,0,0,1,5.4-1.33,9.65,9.65,0,0,1,3.85.72,5.38,5.38,0,0,1,2.53,2.09l-2.25,1.89a5,5,0,0,0-4.35-2,7,7,0,0,0-3.67,1,6.55,6.55,0,0,0-2.45,2.61,7.69,7.69,0,0,0-.86,3.61,4.32,4.32,0,0,0,1.37,3.38,5.5,5.5,0,0,0,3.88,1.25A6.37,6.37,0,0,0,174,79l1.82,2a7.39,7.39,0,0,1-3,2,11,11,0,0,1-3.89.67A9.76,9.76,0,0,1,164.58,82.75Z" transform="translate(-35.04 -8.77)"/><path d="M180.61,82.11a5.33,5.33,0,0,1-1.74-4.22,9.51,9.51,0,0,1,.19-1.8l1.9-9.48h3.12L182.18,76a9.6,9.6,0,0,0-.17,1.49,3.21,3.21,0,0,0,1,2.53,4,4,0,0,0,2.76.85A4.45,4.45,0,0,0,189,79.74,7.11,7.11,0,0,0,190.7,76l1.87-9.41h3.08l-1.92,9.62a9.74,9.74,0,0,1-2.84,5.56,7.9,7.9,0,0,1-5.47,1.86A7,7,0,0,1,180.61,82.11Z" transform="translate(-35.04 -8.77)"/><path d="M211.65,75.76A6.64,6.64,0,0,1,208,78.08l3,5.33h-3.31L205,78.49h-4.18l-1,4.92h-3.14L200,66.61h6.53a7.36,7.36,0,0,1,4.71,1.33A4.51,4.51,0,0,1,213,71.67,6.42,6.42,0,0,1,211.65,75.76Zm-3.09-.86A3.59,3.59,0,0,0,209.81,72a2.36,2.36,0,0,0-.93-2,4.43,4.43,0,0,0-2.65-.68h-3.58l-1.34,6.67H205A5.44,5.44,0,0,0,208.56,74.9Z" transform="translate(-35.04 -8.77)"/><path d="M217.58,66.61h3.12l-3.36,16.8h-3.12Z" transform="translate(-35.04 -8.77)"/><path d="M228.12,69.25h-5.57l.53-2.64h14.25l-.55,2.64h-5.57l-2.8,14.16h-3.12Z" transform="translate(-35.04 -8.77)"/><path d="M244.44,77.67l-1.16,5.74h-3.09l1.17-6L237,66.61h3.1l3.31,8.21L250,66.61h3.27Z" transform="translate(-35.04 -8.77)"/><path d="M270.38,76.21h-4.25l-.84,4.2h-2.57l.84-4.2h-4.27l.48-2.4H264l.84-4.2h2.57l-.84,4.2h4.27Z" transform="translate(-35.04 -8.77)"/><path d="M301.12,66.61l-3.36,16.8h-2.95l2.19-11-7.18,9.1h-1.39l-3.84-9.31-2.23,11.23h-3l3.36-16.8h2.54l4.44,11.18,8.72-11.18Z" transform="translate(-35.04 -8.77)"/><path d="M305.17,82.11a5.33,5.33,0,0,1-1.74-4.22,9.51,9.51,0,0,1,.19-1.8l1.9-9.48h3.12L306.74,76a9.6,9.6,0,0,0-.17,1.49,3.21,3.21,0,0,0,1,2.53,4,4,0,0,0,2.76.85,4.45,4.45,0,0,0,3.23-1.17A7.11,7.11,0,0,0,315.26,76l1.87-9.41h3.07l-1.92,9.62a9.73,9.73,0,0,1-2.83,5.56A7.9,7.9,0,0,1,310,83.65,7,7,0,0,1,305.17,82.11Z" transform="translate(-35.04 -8.77)"/><path d="M323,83.1a7.77,7.77,0,0,1-2.78-1.42l1.32-2.45a8,8,0,0,0,2.51,1.33,9.06,9.06,0,0,0,3,.5,5.88,5.88,0,0,0,2.94-.64,1.93,1.93,0,0,0,1.09-1.74,1.38,1.38,0,0,0-.44-1A3.61,3.61,0,0,0,329.5,77q-.66-.26-1.83-.6a23.45,23.45,0,0,1-2.64-.92,4.66,4.66,0,0,1-1.73-1.33,3.56,3.56,0,0,1-.72-2.31,4.61,4.61,0,0,1,.92-2.85,6,6,0,0,1,2.58-1.9,10.09,10.09,0,0,1,3.82-.67,12.48,12.48,0,0,1,3.1.37,9,9,0,0,1,2.52,1l-1.23,2.48a7.26,7.26,0,0,0-2.11-1,8.63,8.63,0,0,0-2.45-.34,5.59,5.59,0,0,0-3,.68,2.07,2.07,0,0,0-1.09,1.82,1.44,1.44,0,0,0,.45,1.08,3.52,3.52,0,0,0,1.11.68c.43.17,1.06.38,1.89.64a23.19,23.19,0,0,1,2.59.88A4.54,4.54,0,0,1,333.44,76a3.27,3.27,0,0,1,.71,2.18,4.64,4.64,0,0,1-.93,2.88,5.84,5.84,0,0,1-2.61,1.9,10.62,10.62,0,0,1-3.88.67A12.78,12.78,0,0,1,323,83.1Z" transform="translate(-35.04 -8.77)"/><path d="M339.69,66.61h3.12l-3.36,16.8h-3.12Z" transform="translate(-35.04 -8.77)"/><path d="M348.15,82.75a6.68,6.68,0,0,1-2.82-2.53,7.09,7.09,0,0,1-1-3.75,10.29,10.29,0,0,1,1.29-5.13,9.46,9.46,0,0,1,3.65-3.64,10.76,10.76,0,0,1,5.4-1.33,9.62,9.62,0,0,1,3.85.72,5.4,5.4,0,0,1,2.54,2.09l-2.26,1.89a5,5,0,0,0-4.35-2,7,7,0,0,0-3.67,1,6.62,6.62,0,0,0-2.45,2.61,7.69,7.69,0,0,0-.86,3.61,4.36,4.36,0,0,0,1.37,3.38,5.53,5.53,0,0,0,3.89,1.25A6.35,6.35,0,0,0,357.52,79l1.83,2a7.43,7.43,0,0,1-3,2,10.89,10.89,0,0,1-3.88.67A9.84,9.84,0,0,1,348.15,82.75Z" transform="translate(-35.04 -8.77)"/><path d="M379.87,76.21h-4.25l-.84,4.2h-2.57l.84-4.2h-4.27l.48-2.4h4.25l.84-4.2h2.56l-.84,4.2h4.28Z" transform="translate(-35.04 -8.77)"/><path d="M40.21,111.55A6.68,6.68,0,0,1,37.39,109a7.18,7.18,0,0,1-1-3.75,10.29,10.29,0,0,1,1.29-5.13,9.46,9.46,0,0,1,3.65-3.64,10.76,10.76,0,0,1,5.4-1.33,9.62,9.62,0,0,1,3.85.72A5.4,5.4,0,0,1,53.14,98l-2.26,1.89a5,5,0,0,0-4.34-2,7,7,0,0,0-3.68,1,6.53,6.53,0,0,0-2.44,2.61,7.58,7.58,0,0,0-.87,3.61,4.36,4.36,0,0,0,1.37,3.38,5.53,5.53,0,0,0,3.89,1.25,6.35,6.35,0,0,0,4.77-1.94l1.83,2a7.46,7.46,0,0,1-2.95,2,11,11,0,0,1-3.89.67A9.84,9.84,0,0,1,40.21,111.55Z" transform="translate(-35.04 -8.77)"/><path d="M71.76,95.41l-3.36,16.8H65.3l1.42-7.13H58l-1.41,7.13H53.5l3.36-16.8H60l-1.37,6.89H67.3l1.36-6.89Z" transform="translate(-35.04 -8.77)"/><path d="M84.77,108.32H76.32l-2.42,3.89H70.56l10.92-16.8h3.1l4.17,16.8H85.66Zm-.58-2.45-1.7-7.39-4.63,7.39Z" transform="translate(-35.04 -8.77)"/><path d="M105.89,104.56a6.66,6.66,0,0,1-3.63,2.32l3,5.33H102l-2.76-4.92H95l-1,4.92H90.91l3.36-16.8h6.53a7.41,7.41,0,0,1,4.72,1.33,4.5,4.5,0,0,1,1.66,3.73A6.47,6.47,0,0,1,105.89,104.56Zm-3.1-.86a3.59,3.59,0,0,0,1.25-2.94,2.38,2.38,0,0,0-.92-2,4.46,4.46,0,0,0-2.66-.68H96.89l-1.35,6.67h3.72A5.44,5.44,0,0,0,102.79,103.7Z" transform="translate(-35.04 -8.77)"/><path d="M120.29,108.32h-8.45l-2.42,3.89h-3.34L117,95.41h3.1l4.17,16.8h-3.09Zm-.58-2.45L118,98.48l-4.63,7.39Z" transform="translate(-35.04 -8.77)"/><path d="M130.36,111.55a6.56,6.56,0,0,1-2.82-2.53,7.1,7.1,0,0,1-1-3.75,10.19,10.19,0,0,1,1.3-5.13,9.39,9.39,0,0,1,3.65-3.64,10.7,10.7,0,0,1,5.4-1.33,9.65,9.65,0,0,1,3.85.72A5.43,5.43,0,0,1,143.28,98L141,99.87a5,5,0,0,0-4.34-2,6.93,6.93,0,0,0-3.67,1,6.55,6.55,0,0,0-2.45,2.61,7.58,7.58,0,0,0-.86,3.61,4.35,4.35,0,0,0,1.36,3.38,5.55,5.55,0,0,0,3.89,1.25,6.37,6.37,0,0,0,4.78-1.94l1.82,2a7.39,7.39,0,0,1-3,2,11,11,0,0,1-3.89.67A9.76,9.76,0,0,1,130.36,111.55Z" transform="translate(-35.04 -8.77)"/><path d="M149.69,98.05h-5.57l.53-2.64H158.9l-.55,2.64h-5.57L150,112.21h-3.12Z" transform="translate(-35.04 -8.77)"/><path d="M163.82,98l-.86,4.37h8.14l-.51,2.57h-8.16l-.91,4.63H171l-.52,2.62H157.9l3.36-16.8h12.26L173,98Z" transform="translate(-35.04 -8.77)"/><path d="M189,104.56a6.64,6.64,0,0,1-3.62,2.32l3,5.33H185l-2.76-4.92h-4.18l-1,4.92H174l3.36-16.8h6.52a7.37,7.37,0,0,1,4.72,1.33,4.51,4.51,0,0,1,1.67,3.73A6.42,6.42,0,0,1,189,104.56Zm-3.1-.86a3.56,3.56,0,0,0,1.25-2.94,2.38,2.38,0,0,0-.92-2,4.45,4.45,0,0,0-2.65-.68H180l-1.34,6.67h3.72A5.41,5.41,0,0,0,185.85,103.7Z" transform="translate(-35.04 -8.77)"/><path d="M193.29,111.9a7.77,7.77,0,0,1-2.78-1.42l1.32-2.45a8.11,8.11,0,0,0,2.51,1.33,9.11,9.11,0,0,0,3,.5,5.83,5.83,0,0,0,2.94-.64,1.93,1.93,0,0,0,1.09-1.74,1.35,1.35,0,0,0-.44-1,3.56,3.56,0,0,0-1.1-.69c-.44-.17-1.06-.37-1.84-.6a23.45,23.45,0,0,1-2.64-.92,4.66,4.66,0,0,1-1.73-1.33,3.56,3.56,0,0,1-.72-2.31,4.56,4.56,0,0,1,.93-2.85,5.86,5.86,0,0,1,2.58-1.9,10,10,0,0,1,3.81-.67,12.48,12.48,0,0,1,3.1.37,9,9,0,0,1,2.52,1l-1.22,2.48a7.32,7.32,0,0,0-2.12-1,8.61,8.61,0,0,0-2.44-.34,5.63,5.63,0,0,0-3,.68,2.07,2.07,0,0,0-1.09,1.82,1.41,1.41,0,0,0,.46,1.08,3.47,3.47,0,0,0,1.1.68c.43.17,1.06.38,1.9.64a24.7,24.7,0,0,1,2.59.88,4.59,4.59,0,0,1,1.71,1.28,3.22,3.22,0,0,1,.71,2.18,4.7,4.7,0,0,1-.92,2.88,5.93,5.93,0,0,1-2.62,1.9,10.6,10.6,0,0,1-3.87.67A12.8,12.8,0,0,1,193.29,111.9Z" transform="translate(-35.04 -8.77)"/><path d="M225.05,105H220.8l-.84,4.2h-2.57l.84-4.2H214l.48-2.4h4.25l.84-4.2h2.56l-.84,4.2h4.28Z" transform="translate(-35.04 -8.77)"/><path d="M237.41,95.41h6.79a10.36,10.36,0,0,1,4.37.85,6.38,6.38,0,0,1,2.82,2.41,6.88,6.88,0,0,1,1,3.67,10.11,10.11,0,0,1-1.31,5.19,8.82,8.82,0,0,1-3.68,3.45,11.77,11.77,0,0,1-5.48,1.23h-7.84ZM242,109.57a7.84,7.84,0,0,0,3.84-.91,6.38,6.38,0,0,0,2.51-2.51,7.44,7.44,0,0,0,.87-3.61,4.13,4.13,0,0,0-1.36-3.3,5.89,5.89,0,0,0-4-1.19H240l-2.31,11.52Z" transform="translate(-35.04 -8.77)"/><path d="M257.23,95.41h3.12L257,112.21h-3.12Z" transform="translate(-35.04 -8.77)"/><path d="M273.36,108.32h-8.45l-2.43,3.89h-3.33l10.92-16.8h3.09l4.18,16.8h-3.1Zm-.58-2.45-1.7-7.39-4.64,7.39Z" transform="translate(-35.04 -8.77)"/><path d="M282.86,95.41H286l-2.83,14.16h8.78l-.53,2.64H279.5Z" transform="translate(-35.04 -8.77)"/><path d="M297.66,111.55a6.49,6.49,0,0,1-2.78-2.52,7.23,7.23,0,0,1-1-3.76,10.29,10.29,0,0,1,1.29-5.13,9.34,9.34,0,0,1,3.63-3.64,10.71,10.71,0,0,1,5.38-1.33,9.61,9.61,0,0,1,4.31.9,6.46,6.46,0,0,1,2.77,2.52,7.22,7.22,0,0,1,1,3.75,10.45,10.45,0,0,1-1.28,5.14,9.37,9.37,0,0,1-3.64,3.64,10.81,10.81,0,0,1-5.38,1.33A9.54,9.54,0,0,1,297.66,111.55Zm8.18-2.81a6.5,6.5,0,0,0,2.42-2.62,7.63,7.63,0,0,0,.86-3.58,4.41,4.41,0,0,0-1.36-3.38,5.41,5.41,0,0,0-3.83-1.26,6.71,6.71,0,0,0-3.61,1,6.45,6.45,0,0,0-2.41,2.61,7.78,7.78,0,0,0-.84,3.59,4.41,4.41,0,0,0,1.34,3.37,5.38,5.38,0,0,0,3.82,1.26A6.71,6.71,0,0,0,305.84,108.74Z" transform="translate(-35.04 -8.77)"/><path d="M316.64,110.91a5.33,5.33,0,0,1-1.74-4.22,9.51,9.51,0,0,1,.19-1.8l1.9-9.48h3.12l-1.9,9.43a9.6,9.6,0,0,0-.17,1.49,3.21,3.21,0,0,0,1,2.53,4,4,0,0,0,2.76.85,4.45,4.45,0,0,0,3.23-1.17,7.11,7.11,0,0,0,1.74-3.72l1.87-9.41h3.08L329.76,105a9.74,9.74,0,0,1-2.84,5.56,7.9,7.9,0,0,1-5.47,1.86A7,7,0,0,1,316.64,110.91Z" transform="translate(-35.04 -8.77)"/><path d="M345.91,103.62h2.95l-1.37,6.76a9.63,9.63,0,0,1-2.89,1.53,10.57,10.57,0,0,1-3.37.54,9.75,9.75,0,0,1-4.32-.9,6.74,6.74,0,0,1-2.85-2.52,7.06,7.06,0,0,1-1-3.76,10.29,10.29,0,0,1,1.29-5.13A9.4,9.4,0,0,1,338,96.5a10.94,10.94,0,0,1,5.47-1.33,10.14,10.14,0,0,1,4,.71,6.6,6.6,0,0,1,2.76,2.05L348,99.8a4.87,4.87,0,0,0-1.95-1.44,8,8,0,0,0-6.44.49,6.55,6.55,0,0,0-2.51,2.58,7.55,7.55,0,0,0-.89,3.65,4.34,4.34,0,0,0,1.39,3.38,5.75,5.75,0,0,0,4,1.25,6.89,6.89,0,0,0,3.26-.79Z" transform="translate(-35.04 -8.77)"/><path d="M357.16,98l-.86,4.37h8.13l-.5,2.57h-8.16l-.91,4.63h9.5l-.53,2.62H351.24l3.35-16.8h12.27L366.33,98Z" transform="translate(-35.04 -8.77)"/><text class="cls-8" transform="translate(145.66 154.94)">=</text></svg>