<svg id="Layer_1" data-name="Layer 1" xmlns="http://www.w3.org/2000/svg" viewBox="0 0 367.79 201.19"><defs><style>.cls-1{fill:#f2f2f2;}.cls-2{fill:#6c63ff;}.cls-3{fill:#3f3d56;}.cls-4{fill:#2f2e41;}.cls-5{fill:#ffb8b8;}.cls-6{fill:#d0cde1;}</style></defs><title>why-10</title><circle class="cls-1" cx="324.54" cy="117.15" r="43.25"/><circle class="cls-2" cx="317.51" cy="110.83" r="43.25"/><rect class="cls-3" x="251.66" y="200.37" width="55.7" height="0.66"/><path class="cls-3" d="M254.74,202.39a53.8,53.8,0,1,1,53.79,53.8A53.85,53.85,0,0,1,254.74,202.39Zm.7,0a53.1,53.1,0,1,0,53.09-53.09A53.16,53.16,0,0,0,255.44,202.39Z" transform="translate(-29 -55)"/><path class="cls-3" d="M266,106,29.35,70.82,29.18,255.6H336.49ZM92.29,174.55l-.35,0v14.08H54v-38H68.73a6.68,6.68,0,0,1,13.36,0h9.85v10.57l.35,0a6.68,6.68,0,0,1,0,13.36Zm145.39-10.37a54.5,54.5,0,0,1-5,22.86c-.35.78-.73,1.54-1.12,2.3A54.6,54.6,0,0,1,226,198c-1.09,1.38-2.23,2.71-3.44,4-.88.94-1.8,1.84-2.75,2.71a54.87,54.87,0,1,1-41.64-95.14l.37,0c1-.08,1.93-.13,2.9-.15l1.35,0a55.16,55.16,0,0,1,9.16.77c.42.06.83.14,1.25.22l.76.15a54.87,54.87,0,0,1,43.68,53.71Z" transform="translate(-29 -55)"/><rect class="cls-3" x="228.99" y="20.41" width="62.98" height="0.71"/><rect class="cls-3" x="228.99" y="25.36" width="62.98" height="0.71"/><rect class="cls-3" x="228.99" y="30.32" width="62.98" height="0.71"/><path class="cls-3" d="M337,256.12H29V55H337Zm-307.31-.7H336.31V55.7H29.7Z" transform="translate(-29 -55)"/><path class="cls-4" d="M182,74.74h0c-10.61,2.88-16.63,14.76-13.44,26.53l4.06,15,4.6-1.25,1.16-6.27.84,5.73,29.58-8,1-5.7.76,5.2L214,105,210.8,93.29C207.13,79.74,194.25,71.44,182,74.74Z" transform="translate(-29 -55)"/><polygon class="cls-5" points="191.78 144.93 188.27 163.92 199.87 162.16 200.4 142.29 191.78 144.93"/><circle class="cls-5" cx="156.97" cy="40.85" r="12.66"/><polygon class="cls-5" points="152.93 50.17 152.23 57.2 146.6 60.37 161.37 93.07 172.62 65.99 165.24 60.37 164.53 47.01 152.93 50.17"/><path class="cls-4" d="M251.37,183.76c-.44,7.31-12.9,13.09-22.05,16.36-2.63.94-5,1.68-6.72,2.18l-2.38.67-.49.13v-7.74l-29.89,2.46v21.12a56.5,56.5,0,0,1-7,.44,54.66,54.66,0,0,1-26.43-6.78q-.3-4-.66-8.1-.39-4.45-.37-8.48c.09-21,7.73-32.92,10.76-36.83a15.24,15.24,0,0,1,1.21-1.45l1.76-4.57-1.28-8.12-4.29-27.4-.06-.35c1.48-1.29,5.39-2.12,8.77-2.61,2.26-.33,4.29-.51,5.18-.58l.48,0h0l14.4,26.09,5-22.49L210.94,124a82.56,82.56,0,0,0-2.11,16.18,11.53,11.53,0,0,1-.38,2.92,17.06,17.06,0,0,1-2.92,5.84,23.8,23.8,0,0,1-4.08,4.25l-2.82,7.73,2.82,10.55,19.36-5.77,6.83-2a15,15,0,0,1,1.76-.4,13.69,13.69,0,0,1,14,6.69Z" transform="translate(-29 -55)"/><path class="cls-4" d="M218.32,215.75s10.06,1,12.07-3.55l10.08,8.13s18.28,4.89,8.09,9.14c-9.49,4-19-.27-19,.7,0,0-2.81-2.46-6-.7s-12.66,0-12.31-2.82S213.05,213.64,218.32,215.75Z" transform="translate(-29 -55)"/><path class="cls-4" d="M189.1,79.14A10.47,10.47,0,0,0,180,77.23l-.37.11c-7.28,2-11.39,10.15-9.19,18.27h0l2.44-.66-.42-3.11,1.39,2.84,14.45-3.91.53-2.87.38,2.62,2.84-.77q4.68,9.34-.36,21.32l4.84-1.31,1.05-5.73.77,5.24,9.23-2.51-1.34-12.15C203.92,85.88,196.84,79.85,189.1,79.14Z" transform="translate(-29 -55)"/><circle class="cls-4" cx="163.13" cy="16.42" r="6.33"/><path class="cls-4" d="M191.78,74.93a6.32,6.32,0,0,1-2.23-12.24,6.32,6.32,0,1,0,1.61,12.54,6.08,6.08,0,0,0,1.44-.36A5.76,5.76,0,0,1,191.78,74.93Z" transform="translate(-29 -55)"/><ellipse class="cls-5" cx="165.06" cy="40.85" rx="1.58" ry="2.29"/><path class="cls-5" d="M159.6,138.4l-1,14.06s-4.92,7.74-6,24.27l-.35,10.19s-7.38,14.42-1.41,14.07,5.63-13.72,5.63-13.72L167,156.68V141.92Z" transform="translate(-29 -55)"/><path class="cls-4" d="M165.93,117.65h-2.46s-3.87,2.47-7,13-3.52,10.9-3.52,10.9l16.53,3.87Z" transform="translate(-29 -55)"/><circle class="cls-6" cx="216.65" cy="64.37" r="3.2"/><circle class="cls-6" cx="235.36" cy="124.03" r="1.42"/><circle class="cls-6" cx="215.32" cy="190.48" r="1.42"/><circle class="cls-6" cx="24.74" cy="186.26" r="1.42"/><circle class="cls-6" cx="91.9" cy="64.6" r="1.42"/><polygon class="cls-6" points="236.15 90.17 235.44 90.17 235.44 89.46 235.08 89.46 235.08 90.17 234.37 90.17 234.37 90.53 235.08 90.53 235.08 91.24 235.44 91.24 235.44 90.53 236.15 90.53 236.15 90.17"/><polygon class="cls-6" points="260.41 156.98 259.7 156.98 259.7 156.26 259.34 156.26 259.34 156.98 258.63 156.98 258.63 157.33 259.34 157.33 259.34 158.04 259.7 158.04 259.7 157.33 260.41 157.33 260.41 156.98"/><polygon class="cls-6" points="179.54 186.51 178.83 186.51 178.83 185.8 178.47 185.8 178.47 186.51 177.76 186.51 177.76 186.87 178.47 186.87 178.47 187.58 178.83 187.58 178.83 186.87 179.54 186.87 179.54 186.51"/><polygon class="cls-6" points="133.13 48.68 132.42 48.68 132.42 47.97 132.06 47.97 132.06 48.68 131.35 48.68 131.35 49.04 132.06 49.04 132.06 49.75 132.42 49.75 132.42 49.04 133.13 49.04 133.13 48.68"/><polygon class="cls-6" points="7.25 76.46 6.54 76.46 6.54 75.75 6.18 75.75 6.18 76.46 5.47 76.46 5.47 76.81 6.18 76.81 6.18 77.53 6.54 77.53 6.54 76.81 7.25 76.81 7.25 76.46"/><polygon class="cls-6" points="20.96 51.49 20.25 51.49 20.25 50.78 19.89 50.78 19.89 51.49 19.18 51.49 19.18 51.85 19.89 51.85 19.89 52.56 20.25 52.56 20.25 51.85 20.96 51.85 20.96 51.49"/><polygon class="cls-6" points="120.47 187.57 119.76 187.57 119.76 186.85 119.4 186.85 119.4 187.57 118.69 187.57 118.69 187.92 119.4 187.92 119.4 188.63 119.76 188.63 119.76 187.92 120.47 187.92 120.47 187.57"/><polygon class="cls-6" points="67.03 40.59 66.31 40.59 66.31 39.88 65.96 39.88 65.96 40.59 65.25 40.59 65.25 40.95 65.96 40.95 65.96 41.66 66.31 41.66 66.31 40.95 67.03 40.95 67.03 40.59"/><polygon class="cls-6" points="8.3 122.52 7.59 122.52 7.59 121.81 7.24 121.81 7.24 122.52 6.53 122.52 6.53 122.88 7.24 122.88 7.24 123.59 7.59 123.59 7.59 122.88 8.3 122.88 8.3 122.52"/><polygon class="cls-6" points="62.1 82.79 61.39 82.79 61.39 82.07 61.03 82.07 61.03 82.79 60.32 82.79 60.32 83.14 61.03 83.14 61.03 83.85 61.39 83.85 61.39 83.14 62.1 83.14 62.1 82.79"/><polygon class="cls-6" points="63.16 184.75 62.45 184.75 62.45 184.04 62.09 184.04 62.09 184.75 61.38 184.75 61.38 185.11 62.09 185.11 62.09 185.82 62.45 185.82 62.45 185.11 63.16 185.11 63.16 184.75"/><polygon class="cls-6" points="95.15 161.9 94.44 161.9 94.44 161.19 94.09 161.19 94.09 161.9 93.37 161.9 93.37 162.25 94.09 162.25 94.09 162.97 94.44 162.97 94.44 162.25 95.15 162.25 95.15 161.9"/><polygon class="cls-6" points="271.31 189.32 270.6 189.32 270.6 188.61 270.24 188.61 270.24 189.32 269.53 189.32 269.53 189.68 270.24 189.68 270.24 190.39 270.6 190.39 270.6 189.68 271.31 189.68 271.31 189.32"/><circle class="cls-2" cx="9.49" cy="7.38" r="3.52"/><circle class="cls-2" cx="20.04" cy="7.38" r="3.52"/><circle class="cls-2" cx="30.59" cy="7.38" r="3.52"/><rect class="cls-6" x="168.87" y="175.18" width="62.98" height="0.71"/><path class="cls-5" d="M217.27,137.34l5.62,13.72s6,7,7,14.77l1.75,9.14s4.22,16.17-2.46,15.47-4.92-16.18-4.92-16.18l-1.05-4.57-6-9.84-8.82-16.77Z" transform="translate(-29 -55)"/><polygon class="cls-4" points="177.37 67.58 181.94 68.98 191.78 83.75 173.85 95.71 177.37 67.58"/></svg>