<svg id="Layer_1" data-name="Layer 1" xmlns="http://www.w3.org/2000/svg" viewBox="0 0 301.99 206.08"><defs><style>.cls-1{fill:#3f3d56;}.cls-2{opacity:0.1;}.cls-2,.cls-5,.cls-7{isolation:isolate;}.cls-3,.cls-7{fill:#6c63ff;}.cls-4{fill:#a8a8a8;}.cls-5{opacity:0.2;}.cls-6{fill:#f2f2f2;}.cls-7{opacity:0.3;}.cls-8{fill:#a0616a;}.cls-9{fill:#575a89;}.cls-10{fill:#2f2e41;}.cls-11{fill:#fff;}</style></defs><title>why-14</title><path class="cls-1" d="M170.33,243.35c0,5.37-25.18,9.73-56.24,9.73s-56.25-4.36-56.25-9.73c0-1.34,1.57-2.62,4.42-3.78,8.27-3.39,27.34-5.79,49.74-5.93h2.09C145.15,233.63,170.33,238,170.33,243.35Z" transform="translate(-56 -47)"/><path class="cls-2" d="M112,233.64a31.92,31.92,0,0,1-49.74,5.93C70.53,236.18,89.6,233.78,112,233.64Z" transform="translate(-56 -47)"/><ellipse class="cls-1" cx="29.44" cy="165.08" rx="29.44" ry="31.54"/><path class="cls-1" d="M121.56,68.9c4.17,16.08,17.63,26.48,30.1,23.24" transform="translate(-56 -47)"/><path class="cls-3" d="M151.66,92.14c-4.22-16.26,3.62-32.34,17.53-35.95" transform="translate(-56 -47)"/><path class="cls-3" d="M130.11,68.24c4,15.27,13.6,26,21.55,23.9" transform="translate(-56 -47)"/><path class="cls-1" d="M151.66,92.14c-5.39-20.78,3.25-41,19.33-45.14" transform="translate(-56 -47)"/><path class="cls-4" d="M147,93.58s3.17-.93,4-1.87,4.53-2.78,5-1.74,6.23,4.22,2.63,5.19-8.54,1.62-9.65,1.28S147,93.58,147,93.58Z" transform="translate(-56 -47)"/><path class="cls-5" d="M158.57,94.76c-3.6,1-8.54,1.62-9.65,1.28-.85-.26-1.56-1.78-1.84-2.5l-.11,0s.87,2.52,2,2.86,6-.31,9.65-1.28c1-.28,1.3-.74,1.14-1.29C159.69,94.24,159.35,94.55,158.57,94.76Z" transform="translate(-56 -47)"/><rect class="cls-6" x="90.15" y="33.14" width="211.84" height="122.74"/><rect class="cls-7" x="95.14" y="70.39" width="116.17" height="60.85"/><rect class="cls-1" x="220.25" y="67.74" width="46.59" height="2.58"/><rect class="cls-1" x="220.25" y="72.5" width="67.81" height="2.58"/><rect class="cls-1" x="220.25" y="84" width="46.59" height="2.58"/><rect class="cls-1" x="220.25" y="103.03" width="46.59" height="2.58"/><rect class="cls-1" x="220.25" y="88.76" width="67.81" height="2.58"/><rect class="cls-1" x="220.25" y="93.52" width="67.81" height="2.58"/><rect class="cls-1" x="220.25" y="98.28" width="67.81" height="2.58"/><rect class="cls-3" x="220.25" y="114.53" width="24.39" height="6.74"/><path class="cls-8" d="M138.66,154.21s4.37-12.4,7.54-8.51-4.87,10.46-4.87,10.46Z" transform="translate(-56 -47)"/><path class="cls-9" d="M118,142.05l2.64,1s1.25,5.59.77,6.56-.73.24,0,2.19,2.92,7.05,3.16,7.78,14.11-4.62,14.11-7.29c0,0,2.92,3.4,4.37,4.13,0,0-16,11.68-18.24,13.13s-3.4.73-5.35-1-10.21-15.81-10.21-15.81Z" transform="translate(-56 -47)"/><path class="cls-10" d="M125,228.39s-.25,2.68-.73,2.92-4.14,6.33,0,7.54,6.56.73,7.54,1.22,18,1.46,18.24-1.22-8.27-3.16-8.27-3.16-7.78-5.11-9-7.78S125,228.39,125,228.39Z" transform="translate(-56 -47)"/><path class="cls-10" d="M75.66,233.26s-5.83,10-4.37,11.19S87,250.09,89,250.28c2.68.25,4.62-1.94,2.43-3.16s-6.81-6.32-6.81-8v-4.37Z" transform="translate(-56 -47)"/><path class="cls-10" d="M70.07,168.08S65,174.4,73,184.61l13.37,17s-8.26,13.13-8.51,19.94-1.94,5.35-2.43,8.27-2.68,1.46-1,3.65,8,4.14,10,2.43a6,6,0,0,0,1.94-4.86c0-1,3.41-6.57,3.65-8.27s9.25-15.57,9.25-15.57,2.91-8.27-.49-12.89a48.73,48.73,0,0,1-5.66-11.17s10,12.15,17.09,15.06c0,0,2.68.49,2.19,1.71s0,1.94.73,3.16,5.84,15.32,7.54,19,1,5.84,2.92,7.05,10.7.25,10.7-1-1.22-4.38-1.95-6.08-6.56-21.4-6.08-24.81-.24-8-3.89-10-22.13-17.76-23.1-17.76S70.07,168.08,70.07,168.08Z" transform="translate(-56 -47)"/><circle class="cls-8" cx="62.96" cy="72.67" r="10.22"/><path class="cls-8" d="M110.69,120.65s-3.17,5.59-7.06,6.32,10.22,11.92,10.22,11.92,3.4-10.7,6.32-11.19S110.69,120.65,110.69,120.65Z" transform="translate(-56 -47)"/><path class="cls-9" d="M120.66,143.51c0,3.16-9.49,12.16-9.49,12.16l-9,7.54s-.24,2.68-1.21,2.92-2.19.24-1.22,1.7,3.41,4.62,1.22,5.11a19.13,19.13,0,0,1-2,.19l-2,.09c-1.8.07-4.06.11-6.5.09l-2.11,0c-9.2-.19-19.85-1.24-19-4.73,1.46-5.84.49-7.78,3.65-10.94s8.27-14.11,8.27-14.11S91.47,126.24,100,126.24l1.77-.46a4,4,0,0,1,4.42,1.69c1.71,2.6,4.4,6.51,6,7.77,2.43,1.95,2.81.55,2.81.55S120.66,140.35,120.66,143.51Z" transform="translate(-56 -47)"/><path class="cls-8" d="M99,180.48s7.06,10.94,2.68,12.89-6.81-11.43-6.81-11.43Z" transform="translate(-56 -47)"/><path class="cls-10" d="M112.28,118.52c.39,0,.51-.54.58-.93a5.23,5.23,0,0,1,4-4.4,5.48,5.48,0,0,1,2.38.19,9,9,0,0,1,3.05,1.5,5,5,0,0,0,1.53,1c.39.11,2,.84,2.39,1,.84.27,1.53,1.14,2.39,1s1.14-1.16,1.27-2c.3-1.89-.78-4.71-1.86-6.29a6.6,6.6,0,0,0-3.57-2.35,25.57,25.57,0,0,0-5-1,15.89,15.89,0,0,0-6.8.29,6.5,6.5,0,0,0-4.57,4.67c-.08.47-.1.95-.2,1.41a22.53,22.53,0,0,1-1.44,3.17,6.08,6.08,0,0,0,.18,4.94c.61,1.22,1.66,2.39,1.43,3.74L110,122.9a1.38,1.38,0,0,0,.63-1.6l-.27-2.35a2,2,0,0,1,.12-1.27C111.26,116.22,111.62,118.6,112.28,118.52Z" transform="translate(-56 -47)"/><path class="cls-2" d="M94.63,163.7l2.3,9.52c-2.32.09-5.37.13-8.61.07-.82-2.45-1.6-5-2.2-7.4-2.19-8.76,1.46-22.14,3.41-28.46s6.81-8,6.81-8a22.16,22.16,0,0,1,5.59,2.92C105.09,134.51,94.63,163.7,94.63,163.7Z" transform="translate(-56 -47)"/><path class="cls-2" d="M96.58,163.21,99,173.13l-2,.09c-1.8.07-4.06.11-6.5.09-.87-2.6-1.72-5.35-2.36-7.91-2.19-8.76,1.46-22.13,3.4-28.46s6.2.61,6.2.61-1.7-4.13,1.46-1.94S96.58,163.21,96.58,163.21Z" transform="translate(-56 -47)"/><path class="cls-9" d="M97.31,128.92s-4.86,1.7-6.81,8-5.59,19.7-3.41,28.46a163.84,163.84,0,0,0,6.81,19.7s4.63-3.4,6.33-2.67l-4.62-19.22s10.46-29.19,7.29-31.37A22.16,22.16,0,0,0,97.31,128.92Z" transform="translate(-56 -47)"/><rect class="cls-1" x="90.15" y="64.09" width="116.17" height="60.85"/><ellipse class="cls-11" cx="150.4" cy="95.7" rx="13.15" ry="13.17"/><path class="cls-3" d="M206.4,127.28A15.72,15.72,0,1,0,222.11,143,15.71,15.71,0,0,0,206.4,127.28Zm-3.23,24.09-8-8.05,2.26-2.26,5.8,5.8,12.24-12.24,2.26,2.26-14.51,14.49Z" transform="translate(-56 -47)"/></svg>