<svg id="Layer_1" data-name="Layer 1" xmlns="http://www.w3.org/2000/svg" xmlns:xlink="http://www.w3.org/1999/xlink" viewBox="0 0 360.99 192.11"><defs><style>.cls-1,.cls-3{fill:#6c63ff;}.cls-1,.cls-2,.cls-7{opacity:0.1;}.cls-1,.cls-6,.cls-7{isolation:isolate;}.cls-4{fill:#3f3d56;}.cls-5{fill:#65617d;}.cls-6{opacity:0.2;}.cls-8{fill:#d4dfec;}.cls-9{fill:#fbbebe;}.cls-10{fill:url(#linear-gradient);}.cls-11{fill:none;stroke:#6c63ff;stroke-miterlimit:10;stroke-width:2px;}</style><linearGradient id="linear-gradient" x1="278.08" y1="-117.52" x2="278.08" y2="13.34" gradientTransform="matrix(1, 0, 0, -1, -79.34, 129.09)" gradientUnits="userSpaceOnUse"><stop offset="0" stop-color="gray" stop-opacity="0.25"/><stop offset="0.54" stop-color="gray" stop-opacity="0.12"/><stop offset="1" stop-color="gray" stop-opacity="0.1"/></linearGradient></defs><title>why-2</title><path class="cls-1" d="M352.33,207c-.4.87-.8,1.72-1.2,2.57-.62,1.31-1.24,2.59-1.85,3.85-.27.56-.54,1.11-.8,1.66-3,6.09-5.77,11.48-8.13,15.91a25.37,25.37,0,0,1-22.12,13.41l-52.58.57h-.55l-4.51.05-3.85,0-11.83.13h-.47l-6,.07h-.19l-37.09.4L168,246l-3.85,0-23.93.26h0l-15.52.17h-.16L75.49,247l-14.67.16a30.81,30.81,0,0,1-9.25-1.33A29.9,29.9,0,0,1,38,237.23a69.16,69.16,0,0,1-14-23.84c-.45-1.27-.86-2.55-1.25-3.85-10.68-36.11,2.34-82.69,25.77-113.87q1.48-2,3-3.81l0,0a96.28,96.28,0,0,1,23.9-21.49c15.26-9.33,32.16-12,48.78-4.13a109.18,109.18,0,0,0,39.93,10.6c1.28.08,2.57.14,3.85.18,29.2.92,56.57-9.6,88.7-16.4l3.86-.79c22.92-4.56,48.36-7,78.6-1.91a67.35,67.35,0,0,1,9.28,2.22c1.33.43,2.62.89,3.85,1.39,14.44,5.87,22.31,16.72,25.66,30.32.31,1.26.59,2.55.82,3.85C384.74,128.38,367.37,174.77,352.33,207Z" transform="translate(-19.01 -55.07)"/><g class="cls-2"><path class="cls-3" d="M75.48,70.34V247l-14.67.16a30.49,30.49,0,0,1-9.25-1.32v-154h0A95.69,95.69,0,0,1,75.48,70.34Z" transform="translate(-19.01 -55.07)"/><path class="cls-3" d="M378.83,95.67H48.56q1.48-2,3-3.81v0H378C378.32,93.09,378.59,94.37,378.83,95.67Z" transform="translate(-19.01 -55.07)"/><path class="cls-3" d="M352.33,61.5v148h-1.2c-.62,1.32-1.24,2.6-1.85,3.86l-.8,1.65V60.1C349.81,60.53,351.1,61,352.33,61.5Z" transform="translate(-19.01 -55.07)"/><path class="cls-3" d="M260.6,59.79V245l-3.86,0V60.58Z" transform="translate(-19.01 -55.07)"/><path class="cls-3" d="M168,77V246l-3.85,0V76.79C165.47,76.88,166.76,76.93,168,77Z" transform="translate(-19.01 -55.07)"/><path class="cls-3" d="M351.13,209.54c-.62,1.31-1.24,2.59-1.85,3.85H24c-.45-1.27-.86-2.55-1.25-3.85Z" transform="translate(-19.01 -55.07)"/></g><rect class="cls-4" x="73.35" y="92.15" width="6.59" height="19.99"/><rect class="cls-4" x="250.62" y="91.11" width="6.59" height="21.15"/><polygon class="cls-5" points="299.21 184.99 299.21 189.5 246.55 189.99 245.99 190 225.97 190.18 225.49 190.19 219.41 190.24 219.23 190.24 182.14 190.58 121.26 191.15 121.21 191.15 105.73 191.29 105.56 191.3 36.78 191.93 36.78 186.73 52.95 177.02 85.4 176.75 86.09 176.75 86.32 176.74 87.02 176.73 102.6 176.6 103.29 176.6 103.52 176.6 104.21 176.59 109.2 176.55 109.34 176.55 121.66 176.44 121.76 176.44 217.93 175.63 220.28 175.62 220.52 175.62 222.31 175.6 235.37 175.49 236.06 175.48 236.7 175.47 237.03 175.47 241.09 175.44 241.9 175.43 242.98 175.43 246.36 175.39 251.72 175.35 252.41 175.34 253.62 175.34 253.84 175.34 279.75 175.11 299.21 184.99"/><polygon class="cls-6" points="299.21 184.99 299.21 189.5 246.55 189.99 245.99 190 225.97 190.18 225.49 190.19 219.41 190.24 219.23 190.24 182.14 190.58 121.26 191.15 121.21 191.15 105.73 191.29 105.56 191.3 36.78 191.93 36.78 186.73 52.95 177.02 85.4 176.75 86.09 176.75 86.32 176.74 87.02 176.73 102.6 176.6 103.29 176.6 103.52 176.6 104.21 176.59 109.2 176.55 109.34 176.55 121.66 176.44 121.76 176.44 217.93 175.63 220.28 175.62 220.52 175.62 222.31 175.6 235.37 175.49 236.06 175.48 236.7 175.47 237.03 175.47 241.09 175.44 241.9 175.43 242.98 175.43 246.36 175.39 251.72 175.35 252.41 175.34 253.62 175.34 253.84 175.34 279.75 175.11 299.21 184.99"/><path class="cls-4" d="M121.66,222.73v8.49a2.12,2.12,0,0,1-1.21,1.92,2.22,2.22,0,0,1-.87.21l-12.1.25a2.2,2.2,0,0,1-.94-.19,2.13,2.13,0,0,1-1.23-1.93v-8.75Z" transform="translate(-19.01 -55.07)"/><path class="cls-7" d="M121.66,222.73v8.49a2.12,2.12,0,0,1-1.21,1.92,2.22,2.22,0,0,1-.87.21l-12.1.25a2.2,2.2,0,0,1-.94-.19,2.13,2.13,0,0,1-1.23-1.93v-8.75Z" transform="translate(-19.01 -55.07)"/><path class="cls-4" d="M122.35,222.73v8.49a2.12,2.12,0,0,1-1.21,1.92,2.18,2.18,0,0,1-.87.21l-12.1.25a2.12,2.12,0,0,1-2.17-2.12v-8.75Z" transform="translate(-19.01 -55.07)"/><rect class="cls-4" x="236.06" y="167.66" width="16.35" height="10.92"/><rect class="cls-7" x="236.06" y="167.66" width="16.35" height="10.92"/><rect class="cls-4" x="235.37" y="167.66" width="16.35" height="10.92"/><polygon class="cls-7" points="79.94 92.14 79.94 94.13 73.35 93.96 73.35 92.14 79.94 92.14"/><path class="cls-5" d="M142.31,91.25l-7.92,56.85a1.48,1.48,0,0,1-1.51,1.29L69.5,147.75l-1.2,0a1.48,1.48,0,0,1-1.45-1.52.81.81,0,0,1,0-.16l8.88-59.52a1.5,1.5,0,0,1,1.58-1.26l63.6,4.31a1.48,1.48,0,0,1,1.4,1.57S142.31,91.21,142.31,91.25Z" transform="translate(-19.01 -55.07)"/><polygon class="cls-3" points="60.99 34.37 54.29 86.83 112.53 88.67 119.69 38.06 60.99 34.37"/><rect class="cls-5" x="133.33" y="33.55" width="70.95" height="60.09" rx="1.85"/><rect class="cls-3" x="136.68" y="37.6" width="64.48" height="50.04"/><polygon class="cls-7" points="257.21 91.1 257.21 92.42 250.62 92.55 250.62 91.1 257.21 91.1"/><path class="cls-5" d="M305.94,145.06a1.06,1.06,0,0,1-1,1.13h0L240,147.54a1.06,1.06,0,0,1-1.08-1l-5.58-58a1.07,1.07,0,0,1,1-1.17h0l64.41-3.2.69,0a1.07,1.07,0,0,1,1.12,1Z" transform="translate(-19.01 -55.07)"/><polygon class="cls-3" points="218.03 35.75 276.85 32.86 281.82 85.56 223.47 86.94 218.03 35.75"/><path class="cls-7" d="M305.94,145.06a1.06,1.06,0,0,1-1,1.13h0l-6.14-62,.69,0a1.07,1.07,0,0,1,1.12,1Z" transform="translate(-19.01 -55.07)"/><path class="cls-7" d="M77.33,85.25l-7.83,62.5-1.2,0a1.48,1.48,0,0,1-1.45-1.52.81.81,0,0,1,0-.16l8.88-59.52A1.49,1.49,0,0,1,77.33,85.25Z" transform="translate(-19.01 -55.07)"/><rect class="cls-7" x="73.35" y="106.21" width="6.59" height="5.92"/><polygon class="cls-7" points="103.34 167.66 103.34 169.38 86.99 169.82 86.99 167.66 103.34 167.66"/><path class="cls-5" d="M151.21,163.34v58.31a1.38,1.38,0,0,1-1.33,1.37l-66.44,1.77h0a1.39,1.39,0,0,1-1.37-1.37V163.34A1.39,1.39,0,0,1,83.42,162h66.42A1.39,1.39,0,0,1,151.21,163.34Z" transform="translate(-19.01 -55.07)"/><path class="cls-7" d="M83.44,162v62.82h0a1.39,1.39,0,0,1-1.37-1.37V163.34A1.39,1.39,0,0,1,83.42,162Z" transform="translate(-19.01 -55.07)"/><polygon class="cls-8" points="67.46 110.63 129 110.63 129 162.03 67.46 163.41 67.46 110.63"/><rect class="cls-7" x="250.62" y="106.21" width="6.59" height="6.04"/><polygon class="cls-7" points="251.72 167.66 251.72 169.88 235.37 169.44 235.37 167.66 251.72 167.66"/><path class="cls-5" d="M292.31,163.34v60.08a1.39,1.39,0,0,1-1.38,1.37h0L224.47,223a1.37,1.37,0,0,1-1.33-1.37V163.34A1.38,1.38,0,0,1,224.5,162h66.43A1.39,1.39,0,0,1,292.31,163.34Z" transform="translate(-19.01 -55.07)"/><path class="cls-7" d="M292.31,163.34v60.08a1.39,1.39,0,0,1-1.38,1.37h0V162h0A1.39,1.39,0,0,1,292.31,163.34Z" transform="translate(-19.01 -55.07)"/><polygon class="cls-8" points="268.88 110.63 207.34 110.63 207.34 162.03 268.88 163.41 268.88 110.63"/><path class="cls-5" d="M221.42,163.34v58.31a1.39,1.39,0,0,1-1.34,1.37l-66.44,1.77h0a1.39,1.39,0,0,1-1.39-1.37V163.34a1.39,1.39,0,0,1,1.37-1.37h66.43A1.39,1.39,0,0,1,221.42,163.34Z" transform="translate(-19.01 -55.07)"/><polygon class="cls-8" points="137.66 110.63 199.2 110.63 199.2 162.03 137.66 163.41 137.66 110.63"/><polygon class="cls-7" points="299.21 184.99 299.21 189.5 246.55 189.99 245.99 190 225.97 190.18 225.49 190.19 219.41 190.24 219.23 190.24 182.14 190.58 121.26 191.15 121.21 191.15 105.73 191.29 105.56 191.3 36.78 191.93 36.78 186.73 106.98 186.27 107.15 186.27 121.36 186.17 121.43 186.17 219.57 185.52 219.67 185.52 219.72 185.52 219.89 185.52 221.55 185.51 222.06 185.51 247.88 185.33 249.4 185.33 249.74 185.32 299.21 184.99"/><circle class="cls-9" cx="168.92" cy="94.34" r="17.8"/><path class="cls-10" d="M124.54,246.48a.7.7,0,0,1,0-.12c.35-1.24,1-3.35,1.43-5,0-.21.11-.41.16-.6.51-1.9,1.5-6.34,2.05-9.11.2-1,.35-1.74.38-2.12a59.53,59.53,0,0,1,2.3-6c.83-2,1.73-4.24,2.39-6.1a20.37,20.37,0,0,0,1-3.42,1.8,1.8,0,0,0,0-.73,5.06,5.06,0,0,1-.17-1.22h0c-.08-2.15.56-5.54,1.56-7,1.21-1.73,2.08-8.2,2.08-8.2s1.79.26,2.08-1.23a1.94,1.94,0,0,0,0-.48,2.56,2.56,0,0,0,0-.39c-.31-2.16,5.1-4.46,8.15-5a6,6,0,0,1,1-.09,9.42,9.42,0,0,0,2.16-.5c.33-.1.67-.22,1-.35,1.28-.43,2.8-1,4.42-1.62,6.09-2.36,13.46-5.55,13.46-5.55,0-.25.11-.48.18-.71a9.62,9.62,0,0,1,5.67-6.57h0v-.69c0-1.2-.06-2.43-.11-3.65,0-.24,0-.48,0-.72V169c0-.25,0-.49,0-.73l-.06,0a5.69,5.69,0,0,1-1.36-1.45,5.8,5.8,0,0,1-.49-1,32.52,32.52,0,0,1-.82-3.73l-.06-.26a29.93,29.93,0,0,0-1.39-3.66,60.31,60.31,0,0,1-1.94-5.78l-1.08-3.56-.55-1.82c-.1-.34-.21-.69-.29-1h0a4,4,0,0,1-.09-.48h0a3.47,3.47,0,0,1,.09-1.6,10.53,10.53,0,0,1,.45-1,2.5,2.5,0,0,0,.18-.48h0l0-.11a2.31,2.31,0,0,0,0-.37,6.09,6.09,0,0,0-.18-1.35v0s0-.06,0-.09a7.39,7.39,0,0,1-.13-1,10,10,0,0,1,1.2-5.4l.07-.13a8.43,8.43,0,0,1,.64-1h0l.34-.42a1.24,1.24,0,0,1-1.73-.24,1.57,1.57,0,0,1-.19-.26.8.8,0,0,1-.08-.16.5.5,0,0,1,0-.13,2.81,2.81,0,0,1,.73-2.44,6.26,6.26,0,0,1,2-1.63h0l.14-.08a5.94,5.94,0,0,1,.91-.36h0c.19-.06.38-.12.57-.16l-1.29-.11-.52,0a5,5,0,0,1,4.51-3.78h.37a3.31,3.31,0,0,1,.55,0,1.54,1.54,0,0,1-.92-1.5,5,5,0,0,0,3.19,1.06h.13a10.55,10.55,0,0,1-.12-1.13h0a13.36,13.36,0,0,1,0-1.55,2.91,2.91,0,0,0,2.35.78l-.72-1a3.27,3.27,0,0,0,2.27.71l.17,0a1.86,1.86,0,0,0,.41-.08h0l-.18-.26,0,0a3.42,3.42,0,0,1-.35-.72,2.81,2.81,0,0,1-.08-.31h0a3,3,0,0,1,.16-1.88c1.11.93,2.34,2.21,3.81,1.24s1.51-2.74,3.81-2.56a3.54,3.54,0,0,1,2.92,2.12,2.34,2.34,0,0,1,2.66-.6,2.37,2.37,0,0,1,1.34,2.39,4.81,4.81,0,0,1,2.9-.12,1.69,1.69,0,0,1,1,2.31l-.05.07c-.42.55-1.37.85-1.27,1.55l.15.1.45.32h0q2.66,1.92,5.17,4a4.16,4.16,0,0,1,1.83,2.71,3.22,3.22,0,0,1-.08.82h0c-.06.27-.14.54-.19.81a6.74,6.74,0,0,0-.12,2.1h0a6,6,0,0,0,.09.61c.53,2.68,2.67,4.89,2.89,7.63v.19a6.47,6.47,0,0,1,0,.88,18.89,18.89,0,0,1-1.55,4.85c0,.1-.08.2-.11.29a47.84,47.84,0,0,0-2.43,9.77,34.72,34.72,0,0,1-.69,3.49,9.28,9.28,0,0,1-1.77,3.62,5.72,5.72,0,0,1-1.16,1,6.23,6.23,0,0,1-.92.49v0c0,.21.07.42.11.63s0,.23.06.35h0s0,0,0,0c.29,1.64.62,3.25,1,4.77l.18.76c4.36,1.58,4.88,4.81,4.91,6.05a4,4,0,0,1,0,.49s6.59.18,9.19,2.08a7.19,7.19,0,0,0,1.56.8,27.73,27.73,0,0,0,3.21,1c.56.15,1.14.29,1.73.43,1,.24,2.15.47,3.21.69,2.84.57,5.51,1,6.87,1.39,3.23.82,10.63,7.91,10.63,7.91s.87,7.16,1.73,8.2a30.55,30.55,0,0,1,2.43,4.71l5.73,10.2,2.43,4.29h1.56a2.58,2.58,0,0,1,1.11.72c.42.37.87.83,1.28,1.24l.66.71.42.47s2.52.06,3.2,2.05a15.67,15.67,0,0,1,6.34.87,4.58,4.58,0,0,1,.69.37,3,3,0,0,1,1.43,2,2.76,2.76,0,0,1,.07.49v.59c-.13,2.63-1.84,4.81-3.41,6.28l.11.2-.15.35-.1.22h0c-.2.44-.53,1.09-1,1.86a22.13,22.13,0,0,1-3.31,4.56l-.11.11-20,.18-.06-.07-3.88-4.63-1.94-2.3,0-.08-.06.56-.19,1.83-.45,4.44,0,.23v0l-.05.52,0-.52h-.1l-37.09.35-60.88.67v.3h-.05v-.3l-15.52.17Z" transform="translate(-19.01 -55.07)"/><path class="cls-9" d="M205.73,185.81s-34.5,4.16-31.2,0c1.19-1.51,1.52-6,1.45-11,0-1.55-.07-3.14-.15-4.74-.38-7.62-1.3-15.08-1.3-15.08s30.16-14.21,26.69-2.94c-1.38,4.55-.93,10.94.12,16.94.31,1.75.67,3.47,1,5.1A120.22,120.22,0,0,0,205.73,185.81Z" transform="translate(-19.01 -55.07)"/><path class="cls-7" d="M205.73,185.81s-34.5,4.16-31.2,0c1.19-1.51,1.52-6,1.45-11,5.26-2.25,12-.58,12-.58,7-1.4,11.57-1.13,14.45-.14A120.22,120.22,0,0,0,205.73,185.81Z" transform="translate(-19.01 -55.07)"/><path class="cls-3" d="M140.25,246.61v-.3l60.89-.66,37.09-.34h.11l0,.51,0-.51h.07v-.06l.47-4.67.18-1.76.06-.55.05-.46,2.14-7.15,2.14-7.13,1.8-6,2.76-9.18a30.59,30.59,0,0,0-2.43-4.68c-.87-1-1.73-8.15-1.73-8.15s-7.4-7-10.64-7.86c-1.35-.34-4-.81-6.87-1.38-1.07-.22-2.16-.45-3.21-.7-.59-.13-1.17-.28-1.73-.42a29.77,29.77,0,0,1-3.21-1,7.62,7.62,0,0,1-1.56-.79c-2.55-1.87-8.93-2.08-9.18-2.08h0v-.06a3.23,3.23,0,0,0,0-.44,2.86,2.86,0,0,0,0-.48.5.5,0,0,0,0-.17c0-.13,0-.26-.07-.4s0-.12,0-.18a5.64,5.64,0,0,0-.44-1.21.89.89,0,0,0-.08-.17,6.17,6.17,0,0,0-.59-.91,1.3,1.3,0,0,0-.15-.18,6.29,6.29,0,0,0-.94-.92l-.29-.22-.18-.12-.31-.2-.28-.17c-.26-.14-.52-.27-.81-.4l-.29-.12-.38-.15h0l-.26-.1c-.2-.07-.4-.12-.61-.18l-.32-.09-.35-.08-.34-.07q-.53-.11-1.11-.18l-.39-.05-.41,0-.42,0-.6,0-.69,0a43.47,43.47,0,0,0-9.1,1,25.36,25.36,0,0,0-6.33-.58h-.3l-.34,0h-.23l-.44,0a2.22,2.22,0,0,0-.45.06c-.15,0-.31,0-.46.06l-.23,0-.69.12-.23.06c-.3.06-.6.14-.9.23l-.45.14-.22.08-.22.08-.22.09-.26.1-.39.18-.21.1-.21.11a9.29,9.29,0,0,0-2.15,1.52l-.18.17-.17.17-.17.19a9.46,9.46,0,0,0-.64.78l-.15.22a9.26,9.26,0,0,0-.6,1c0,.09-.09.17-.13.26a11.37,11.37,0,0,0-.69,1.82q-.1.34-.18.69c-.08.35-7.34,3.24-13.43,5.58-1.62.62-3.14,1.19-4.42,1.62l-1,.34a8.92,8.92,0,0,1-2.16.5,7.18,7.18,0,0,0-1,.1c-2.8.45-7.6,2.43-8.12,4.41a1.29,1.29,0,0,0,0,.48v0c.34,2.43-2.08,2.08-2.08,2.08s-.87,6.41-2.08,8.15c-.88,1.24-1.48,4-1.56,6.13h0a6.75,6.75,0,0,0,.16,1.95v.05a8.87,8.87,0,0,1-.76,3.36c-.62,1.78-1.51,4-2.37,6.1a67.83,67.83,0,0,0-2.59,6.66c0,.28-.13.78-.25,1.43-.51,2.64-1.63,7.67-2.19,9.71-.41,1.52-1,3.6-1.42,5a.53.53,0,0,1,0,.12l15.54-.16v.3h0Z" transform="translate(-19.01 -55.07)"/><path class="cls-7" d="M145.93,205.74s19.76,10.23,26.86,9Z" transform="translate(-19.01 -55.07)"/><path class="cls-7" d="M186.14,201.58s19.24,6.24,25.66,7.11S186.14,201.58,186.14,201.58Z" transform="translate(-19.01 -55.07)"/><path class="cls-7" d="M207.48,181.5c-10,1.85-29,1.45-37.16,1.17,3-10.74,17.62-7.09,17.62-7.09C206,172,207.43,179.46,207.48,181.5Z" transform="translate(-19.01 -55.07)"/><path class="cls-3" d="M207.48,180.81c-10,1.85-29,1.45-37.16,1.17,3-10.75,17.62-7.09,17.62-7.09C206,171.28,207.43,178.77,207.48,180.81Z" transform="translate(-19.01 -55.07)"/><path class="cls-9" d="M260.85,228.19s11.84-1.82,12.08,3.38-6,8.83-6,8.83Z" transform="translate(-19.01 -55.07)"/><path class="cls-7" d="M201.34,169c-.51.23-1,.43-1.56.61a55.39,55.39,0,0,1-11.44,3.06,18.71,18.71,0,0,1-11.49-1.91,8.84,8.84,0,0,1-1-.68c-.38-7.62-1.3-15.08-1.3-15.08s30.16-14.21,26.69-2.94C199.82,156.56,200.29,163,201.34,169Z" transform="translate(-19.01 -55.07)"/><path class="cls-4" d="M183.05,121.59a3.3,3.3,0,0,1-2.89-.6l.73,1a3,3,0,0,1-2.35-.78,11.45,11.45,0,0,0,.11,2.68,5,5,0,0,1-3.32-1,1.54,1.54,0,0,0,.92,1.5,5,5,0,0,0-5.41,3.71l1.81.17a6.37,6.37,0,0,0-3.62,2.21,2.79,2.79,0,0,0-.74,2.42c.25.85,1.42,1.39,2.06.79a9.69,9.69,0,0,0-2.12,7.9,4.86,4.86,0,0,1,.16,1.82,15,15,0,0,1-.65,1.63,5.1,5.1,0,0,0,.29,3.12l1.62,5.34c.59,1.93,1.18,3.87,1.95,5.74a28.06,28.06,0,0,1,1.38,3.64c.44,1.68.46,3.52,1.39,5a6.85,6.85,0,0,0,2.49,2.2,18.73,18.73,0,0,0,11.5,1.9,55.54,55.54,0,0,0,11.42-3.06,10.66,10.66,0,0,0,2.37-1c2.58-1.69,3.16-5.15,3.64-8.2a47,47,0,0,1,2.53-10c.75-1.9,1.73-3.84,1.57-5.87-.22-2.71-2.36-4.91-2.89-7.57a6.42,6.42,0,0,1,0-2.69,6.46,6.46,0,0,0,.27-1.63,4.2,4.2,0,0,0-1.83-2.7c-1.87-1.55-3.8-3-5.78-4.41-.1-.7.84-1,1.27-1.54.6-.77,0-2-.94-2.36a4.77,4.77,0,0,0-2.89.11,2.29,2.29,0,0,0-4-1.77,3.53,3.53,0,0,0-2.92-2.11c-2.29-.18-2.34,1.58-3.81,2.55s-2.68-.31-3.81-1.24A3.18,3.18,0,0,0,183.05,121.59Z" transform="translate(-19.01 -55.07)"/><path class="cls-3" d="M269.63,238.59s-.31.73-.88,1.8a23.3,23.3,0,0,1-3.12,4.56l-.09.11H265l-20,.18h-.48l-.06-.07-3.88-4.61-1.46-1.73-.06-.08-.12-.14-.07-.09-.09-.1L235.89,235l1-4.33,1.77-7.3.05-.18.34-1.39.25-1,.82-3.39L243,205.75l5,2.6,5.3,9.36,2.85,5h1.56c.29,0,1,.57,1.65,1.23.24.23.48.47.69.69.62.64,1.11,1.19,1.11,1.19s2.52,0,3.2,2a1.71,1.71,0,0,1,.09.3,14.21,14.21,0,0,0,.88,2.27c.44,1,1,2.08,1.57,3.19,1.06,2,2.14,4,2.53,4.66l.05.08Z" transform="translate(-19.01 -55.07)"/><path class="cls-7" d="M239.85,222.94l0,.49v0l-.06.8-.46,6.41-.56,7.73-.16,2.18-.35,4.66v.06l-37.09.35-60.87.65v.3h-.05v-.39l.15-5,.3-9.73.26-8.25,0-.82a3.66,3.66,0,0,1,3.76-3.54l.2,0c1.64.13,3.76.3,6.3.48l1,.08c14.68,1,41.8,2.34,69.17.69l1.73-.1c4.24-.27,8.48-.61,12.68-1a3.64,3.64,0,0,1,4,3.25,3.42,3.42,0,0,1,0,.64Z" transform="translate(-19.01 -55.07)"/><path class="cls-4" d="M140.25,246.61v-.3l60.89-.66,37.09-.34h.11v-.06l.34-4.66.15-2.08.57-7.84.45-6.21v-.15a3.55,3.55,0,0,0,0-.86v0a3.52,3.52,0,0,0-.69-1.61,3.68,3.68,0,0,0-3.27-1.39c-4.2.43-8.44.78-12.68,1-.58,0-1.16.08-1.73.11-27.37,1.63-54.49.31-69.17-.69l-1-.08c-2.54-.18-4.66-.34-6.3-.49a3.67,3.67,0,0,0-3.9,3,5.51,5.51,0,0,0-.06.57l-.23,7.68-.33,9.73-.15,5v.39Z" transform="translate(-19.01 -55.07)"/><path class="cls-7" d="M240,225.37l-.43,5.31-.63,7.92-.16,2-.35,4.44,0,.22v.06h0l-.05.51,0-.51h-.1l-37.09.35-60.89.65v-.09l.16-5,.35-9.73.22-6.46a2.23,2.23,0,0,1,1.06-1.82,2.19,2.19,0,0,1,1.31-.32l2.67.21c1.7.12,3.79.27,6.22.42,4.51.28,10.16.59,16.64.84,18,.69,42.37.93,65.48-1.1l3.17-.29a2.18,2.18,0,0,1,1.2.23,1.17,1.17,0,0,1,.3.19,2.05,2.05,0,0,1,.69.85,1,1,0,0,1,.09.21A2.12,2.12,0,0,1,240,225.37Z" transform="translate(-19.01 -55.07)"/><path class="cls-7" d="M122.35,230.11v1.11a2.12,2.12,0,0,1-1.21,1.92l-13.9.27a2.12,2.12,0,0,1-1.24-1.93v-1Z" transform="translate(-19.01 -55.07)"/><polygon class="cls-4" points="103.52 178.72 85.4 179.07 85.4 176.07 103.52 175.72 103.52 178.72"/><polygon class="cls-7" points="103.52 178.72 85.4 179.07 85.4 176.07 103.52 175.72 103.52 178.72"/><polygon class="cls-4" points="104.21 178.72 86.09 179.07 86.09 176.07 104.21 175.72 104.21 178.72"/><g class="cls-2"><path d="M183.19,120.46a3.35,3.35,0,0,1-.65-1.51,3.23,3.23,0,0,0,.14,1.6A4.54,4.54,0,0,0,183.19,120.46Z" transform="translate(-19.01 -55.07)"/><path d="M178.79,122.76a11.27,11.27,0,0,1-.13-1.29v1.29Z" transform="translate(-19.01 -55.07)"/><path d="M207,134.33a5.66,5.66,0,0,1,.13-.92,6.46,6.46,0,0,0,.27-1.63,1.57,1.57,0,0,0-.05-.37c-.06.32-.15.64-.22,1A6.77,6.77,0,0,0,207,134.33Z" transform="translate(-19.01 -55.07)"/><path d="M199.83,123.61l.38.28a6.56,6.56,0,0,0,.89-.77,1.25,1.25,0,0,0,.13-1.26,1,1,0,0,1-.13.22C200.67,122.63,199.73,122.93,199.83,123.61Z" transform="translate(-19.01 -55.07)"/><path d="M171.34,127a5.36,5.36,0,0,0-.3.79,6.79,6.79,0,0,1,1.74-.66Z" transform="translate(-19.01 -55.07)"/><path d="M176.13,123.18a5.74,5.74,0,0,1-.66-.43,1.84,1.84,0,0,0,0,.41A4.33,4.33,0,0,1,176.13,123.18Z" transform="translate(-19.01 -55.07)"/><path d="M210,143.6a18,18,0,0,1-1.56,4.9,46.77,46.77,0,0,0-2.53,10c-.48,3-1,6.5-3.64,8.19a10.34,10.34,0,0,1-2.36,1,55.65,55.65,0,0,1-11.45,3.06,18.7,18.7,0,0,1-11.49-1.9,6.91,6.91,0,0,1-2.49-2.19c-.93-1.47-.94-3.31-1.39-5a29.59,29.59,0,0,0-1.38-3.64c-.77-1.87-1.36-3.82-1.95-5.73L168.16,147a10.44,10.44,0,0,1-.4-1.65,6.26,6.26,0,0,0,.4,2.69l1.62,5.35c.59,1.93,1.18,3.86,1.95,5.73a29.59,29.59,0,0,1,1.38,3.64c.44,1.68.46,3.52,1.39,5a6.91,6.91,0,0,0,2.49,2.19,18.71,18.71,0,0,0,11.49,1.9,56.16,56.16,0,0,0,11.45-3.06,10.34,10.34,0,0,0,2.36-1c2.59-1.69,3.16-5.15,3.64-8.19a46.77,46.77,0,0,1,2.53-10c.76-1.9,1.73-3.83,1.57-5.87C210,143.64,210,143.62,210,143.6Z" transform="translate(-19.01 -55.07)"/><path d="M168.53,142.26v0a5.08,5.08,0,0,0-.16-1.82,8.81,8.81,0,0,1-.14-1.15,9.42,9.42,0,0,0,.14,2.19C168.42,141.71,168.48,142,168.53,142.26Z" transform="translate(-19.01 -55.07)"/><path d="M169.58,133.78a9.47,9.47,0,0,1,.91-1.27c-.64.61-1.81.07-2.05-.78a2,2,0,0,0,0,1A1.5,1.5,0,0,0,169.58,133.78Z" transform="translate(-19.01 -55.07)"/></g><path class="cls-7" d="M256.17,222.73a15,15,0,0,1,0,7.45C255.07,233.65,256.17,222.73,256.17,222.73Z" transform="translate(-19.01 -55.07)"/><path class="cls-7" d="M260.85,226.8s.46,5.06-.58,6S260.85,226.8,260.85,226.8Z" transform="translate(-19.01 -55.07)"/><line class="cls-11" x1="68.98" y1="118.85" x2="104.21" y2="118.5"/><line class="cls-11" x1="68.98" y1="123.17" x2="104.21" y2="122.83"/><line class="cls-11" x1="68.98" y1="127.5" x2="104.21" y2="127.15"/></svg>