<svg id="Layer_1" data-name="Layer 1" xmlns="http://www.w3.org/2000/svg" viewBox="0 0 353 246.74"><defs><style>.cls-1{fill:#2f2e41;}.cls-2{fill:#9f616a;}.cls-3{opacity:0.2;isolation:isolate;}.cls-4{fill:#6c63ff;}.cls-5{fill:#ffb9b9;}.cls-6{fill:#3f3d56;}.cls-7{fill:#e6e6e6;}.cls-8{fill:#fff;}.cls-9{font-size:36px;fill:#4f4f4f;font-family:Montserrat-ExtraBold, Montserrat;font-weight:800;}.cls-10{letter-spacing:-0.02em;}</style></defs><title>why-7</title><path class="cls-1" d="M38.73,121.08c.33,20.84,8.12,23.09,17.69,20.92a35.16,35.16,0,0,0,24.31-20.56l3-7.1A19.37,19.37,0,0,0,73.62,88.9h0A19.37,19.37,0,0,0,48.18,99.05h0C38.37,102.91,36.43,110.88,38.73,121.08Z" transform="translate(-23 -26.39)"/><path class="cls-2" d="M100.23,79.14l2.93-5a4.66,4.66,0,0,0-1.64-6.39,4.16,4.16,0,0,0-1-.44h0a4.66,4.66,0,0,0-5.84,3.07,4.46,4.46,0,0,0-.21,1.53l.17,5.34L80.86,115.09l7.52,1.57Z" transform="translate(-23 -26.39)"/><path class="cls-2" d="M27.64,172.34,24,176.84a4.67,4.67,0,0,0,.72,6.56,4.61,4.61,0,0,0,.92.58h0a4.68,4.68,0,0,0,6.22-2.22,4.74,4.74,0,0,0,.42-1.48L32.9,175l19-35.46-7.22-2.63Z" transform="translate(-23 -26.39)"/><path class="cls-1" d="M50,209.77l.53,6.39.13,1.49L86,214.25a7.8,7.8,0,0,0,6.88-8.62,7.69,7.69,0,0,0-.63-2.31L80.83,178.83l-3.94-8.46-17.07-3.94c-14.08,10.78-1.41,22.67,14.52,34.7l1.9,1.42Z" transform="translate(-23 -26.39)"/><path class="cls-1" d="M38.05,231.89h0a2.53,2.53,0,0,0,2.32-.89l11.57-14-.66-6.56-3.94-2.37a2.59,2.59,0,0,0-3.56.89c-.07.12-.13.25-.19.38l-7.54,19.12a2.53,2.53,0,0,0,1.43,3.29A2.28,2.28,0,0,0,38.05,231.89Z" transform="translate(-23 -26.39)"/><path class="cls-3" d="M48,208.46l.66,7.88,1.84-.18L84,212.94A7.8,7.8,0,0,0,90.27,202l-9.44-21.12v-2l-3.94-8.46-17.07-3.94c-14.08,10.78-1.41,22.67,14.52,34.7l-.07.1Z" transform="translate(-23 -26.39)"/><path class="cls-1" d="M34.77,229.27h0a2.57,2.57,0,0,0,2.32-.9l11.57-14L48,207.8l-3.94-2.37a2.61,2.61,0,0,0-3.56.89,2.69,2.69,0,0,0-.19.38l-7.54,19.12a2.54,2.54,0,0,0,1.43,3.3A2.65,2.65,0,0,0,34.77,229.27Z" transform="translate(-23 -26.39)"/><path class="cls-1" d="M46.69,207.14l.65,7.88,35.37-3.4A7.8,7.8,0,0,0,89.59,203a8,8,0,0,0-.63-2.31l-9.44-21.12V167.75l-23-3.94C41.9,175,56.16,187.41,73,199.92Z" transform="translate(-23 -26.39)"/><circle class="cls-2" cx="46.01" cy="78.32" r="9.85"/><path class="cls-2" d="M55.88,121.13l13.79,9.19,11.82-2.63-6.57-6.56v-9.85l-10.5-.66C64.2,114.55,61.94,118.15,55.88,121.13Z" transform="translate(-23 -26.39)"/><path class="cls-4" d="M53.91,167.09l25.61,3.28,5.91-27.58c2.74-7.32,1.17-13.78-3.91-19.56a4.38,4.38,0,0,0-4.17-3.52l-2.43.1c.28,8.71-6.14,6.61-15.76-.65L58,119.5a6.54,6.54,0,0,0-4.58,7.21l1.06,7.14a48.71,48.71,0,0,0,2.09,8.34C59.19,150,58.25,158.34,53.91,167.09Z" transform="translate(-23 -26.39)"/><path class="cls-4" d="M42.09,137.54l11.82,3.94,5.25-19-1.78-.81a6.37,6.37,0,0,0-8.26,2.8Z" transform="translate(-23 -26.39)"/><polygon class="cls-4" points="53.89 93.42 60.46 100.65 68.33 88.17 58.48 82.92 53.89 93.42"/><path class="cls-1" d="M57.52,101.75c6.19,2.34,12.8,2.1,19.7,0V93.87H57.52Z" transform="translate(-23 -26.39)"/><polygon class="cls-1" points="341.71 210.63 334.92 213.46 289.65 151.78 256.83 214.59 248.34 212.89 273.24 126.31 302.1 126.31 341.71 210.63"/><path class="cls-1" d="M373.82,251.4h0a2.93,2.93,0,0,1-2.26-.29l-14.32-8.24a2.91,2.91,0,0,1-1.06-4,3,3,0,0,1,.46-.61l1.28-1.28,6.79-.56,10.38,10a3,3,0,0,1,.09,4.19A3,3,0,0,1,373.82,251.4Z" transform="translate(-23 -26.39)"/><path class="cls-1" d="M262.8,253.67h0a3,3,0,0,0,2.25-.29l14.32-8.25a2.9,2.9,0,0,0,1.07-4,2.66,2.66,0,0,0-.46-.6l-1.28-1.28-6.79-.57-10.38,10a3,3,0,0,0-.09,4.18A2.92,2.92,0,0,0,262.8,253.67Z" transform="translate(-23 -26.39)"/><path class="cls-5" d="M277,62.73l-2.83,1.7-5.86-9.53a4.28,4.28,0,0,1,1.4-5.89,4.19,4.19,0,0,1,1.37-.55h0a4.29,4.29,0,0,1,5.07,3.31,3.72,3.72,0,0,1,.08.57Z" transform="translate(-23 -26.39)"/><path class="cls-5" d="M355.38,136.91l1.17-3.09,10.5,3.87a4.28,4.28,0,0,1,2.54,5.5,4.47,4.47,0,0,1-.73,1.27h0a4.29,4.29,0,0,1-6,.53,3.78,3.78,0,0,1-.41-.39Z" transform="translate(-23 -26.39)"/><circle class="cls-5" cx="287.95" cy="61.81" r="8.49"/><polygon class="cls-5" points="295.31 79.91 283.42 79.91 283.42 66.9 293.61 65.77 295.31 79.91"/><path class="cls-6" d="M326.8,156.1H294.54c1.14-18,2-35.39,0-45.27l1.88-9a5.07,5.07,0,0,1,5.59-4l4.42.55c3,5.25,6.6,5.2,10.75.57h5.31a5.32,5.32,0,0,1,5.33,5.32v.11h0a67.06,67.06,0,0,1,1.37,19.32Z" transform="translate(-23 -26.39)"/><polygon class="cls-6" points="249.47 36.34 254 34.08 278.33 74.25 271.54 84.44 249.47 36.34"/><path class="cls-6" d="M355.44,138.52l3.87-3.27-20.56-28.8a18.23,18.23,0,0,0-18.12-7.34l-.64.12,7.77,13.61L338,120.59Z" transform="translate(-23 -26.39)"/><path class="cls-1" d="M320.77,83.18s1.59-3.49-2.54-5.07c0,0-3.49-5.71-10.47-1.9,0,0-4.75,1.9-4.75,7s-1.59,6-1.59,6a15.34,15.34,0,0,0,3-4.33c.63-1.9,5.56-2.33,7.47-.43S318.55,86,318.55,86l-.32,7s1.59-4.13,2.22-4.13S321.72,83.18,320.77,83.18Z" transform="translate(-23 -26.39)"/><ellipse class="cls-7" cx="296.98" cy="244.03" rx="51.94" ry="2.7"/><ellipse class="cls-7" cx="37.68" cy="244.03" rx="27.45" ry="1.43"/><path class="cls-4" d="M270.42,74l-166.89,15a3.1,3.1,0,0,1-3.36-2.82L96.46,44.73a3.09,3.09,0,0,1,2.81-3.37l166.88-15a3.11,3.11,0,0,1,3.37,2.81l3.71,41.4A3.11,3.11,0,0,1,270.42,74Z" transform="translate(-23 -26.39)"/><circle class="cls-8" cx="100.03" cy="36.82" r="13.03"/><path class="cls-8" d="M152.24,51.87a2.17,2.17,0,1,0,.38,4.32l102-9.14a2.17,2.17,0,1,0-.38-4.32h0Z" transform="translate(-23 -26.39)"/><path class="cls-8" d="M153.4,64.85a2.17,2.17,0,1,0,.38,4.33h0l102-9.14a2.17,2.17,0,1,0-.38-4.32h0Z" transform="translate(-23 -26.39)"/><text class="cls-9" transform="translate(108.1 113.98)">EA<tspan class="cls-10" x="52.49" y="0">S</tspan><tspan x="75.24" y="0">Y ! </tspan></text></svg>