<svg id="Layer_1" data-name="Layer 1" xmlns="http://www.w3.org/2000/svg" xmlns:xlink="http://www.w3.org/1999/xlink" viewBox="0 0 302.75 252.77"><defs><style>.cls-1{fill:url(#linear-gradient);}.cls-2,.cls-21{fill:#fff;}.cls-3{fill:#64ffda;}.cls-4{opacity:0.7;}.cls-5{opacity:0.6;}.cls-6{opacity:0.5;}.cls-7{opacity:0.4;}.cls-8{opacity:0.3;}.cls-9{fill:#6c63ff;}.cls-10{fill:url(#linear-gradient-2);}.cls-11{fill:url(#linear-gradient-3);}.cls-12{fill:url(#linear-gradient-4);}.cls-13,.cls-14,.cls-15,.cls-16{fill:none;stroke:#6c63ff;stroke-linecap:round;stroke-linejoin:round;stroke-width:4px;}.cls-14{stroke-dasharray:12.52 33.38;}.cls-15{stroke-dasharray:11.93 31.8;}.cls-16{stroke-dasharray:11.55 30.79;}.cls-17{fill:#e0e0e0;}.cls-18{fill:url(#linear-gradient-5);}.cls-19{fill:#f5f5f5;}.cls-20{fill:url(#linear-gradient-6);}.cls-21{opacity:0.2;isolation:isolate;}</style><linearGradient id="linear-gradient" x1="117.82" y1="122.38" x2="117.82" y2="276" gradientTransform="matrix(1, 0, 0, -1, -49, 276)" gradientUnits="userSpaceOnUse"><stop offset="0" stop-color="gray" stop-opacity="0.25"/><stop offset="0.54" stop-color="gray" stop-opacity="0.12"/><stop offset="1" stop-color="gray" stop-opacity="0.1"/></linearGradient><linearGradient id="linear-gradient-2" x1="165.52" y1="235.77" x2="165.52" y2="262.6" xlink:href="#linear-gradient"/><linearGradient id="linear-gradient-3" x1="165.52" y1="185.87" x2="165.52" y2="212.7" xlink:href="#linear-gradient"/><linearGradient id="linear-gradient-4" x1="165.52" y1="136.3" x2="165.52" y2="163.13" xlink:href="#linear-gradient"/><linearGradient id="linear-gradient-5" x1="270.34" y1="23.23" x2="270.34" y2="28.92" xlink:href="#linear-gradient"/><linearGradient id="linear-gradient-6" x1="418.7" y1="-17.44" x2="418.7" y2="88.05" gradientTransform="matrix(1, 0, 0, -1, -148, 229.38)" xlink:href="#linear-gradient"/></defs><title>what-7</title><rect class="cls-1" width="137.64" height="153.62"/><rect class="cls-2" x="2.27" y="102.57" width="133.09" height="47.71"/><rect class="cls-3" x="13.2" y="113.88" width="5.16" height="24.45"/><g class="cls-4"><rect class="cls-3" x="23.38" y="113.88" width="5.16" height="24.45"/></g><g class="cls-5"><rect class="cls-3" x="33.56" y="113.88" width="5.16" height="24.45"/></g><g class="cls-6"><rect class="cls-3" x="43.74" y="113.88" width="5.16" height="24.45"/></g><g class="cls-6"><rect class="cls-3" x="53.93" y="113.88" width="5.16" height="24.45"/></g><g class="cls-7"><rect class="cls-3" x="64.11" y="113.88" width="5.16" height="24.45"/></g><g class="cls-8"><rect class="cls-3" x="74.29" y="113.88" width="5.16" height="24.45"/></g><circle class="cls-9" cx="116.52" cy="125.95" r="12.44"/><rect class="cls-2" x="2.27" y="53" width="133.09" height="47.71"/><rect class="cls-3" x="13.2" y="64.32" width="5.16" height="24.45"/><g class="cls-4"><rect class="cls-3" x="23.38" y="64.32" width="5.16" height="24.45"/></g><g class="cls-5"><rect class="cls-3" x="33.56" y="64.32" width="5.16" height="24.45"/></g><g class="cls-6"><rect class="cls-3" x="43.74" y="64.32" width="5.16" height="24.45"/></g><g class="cls-6"><rect class="cls-3" x="53.93" y="64.32" width="5.16" height="24.45"/></g><g class="cls-7"><rect class="cls-3" x="64.11" y="64.32" width="5.16" height="24.45"/></g><g class="cls-8"><rect class="cls-3" x="74.29" y="64.32" width="5.16" height="24.45"/></g><circle class="cls-9" cx="116.52" cy="76.39" r="12.44"/><rect class="cls-2" x="2.27" y="3.43" width="133.09" height="47.71"/><rect class="cls-3" x="13.2" y="14.75" width="5.16" height="24.45"/><g class="cls-4"><rect class="cls-3" x="23.38" y="14.75" width="5.16" height="24.45"/></g><g class="cls-5"><rect class="cls-3" x="33.56" y="14.75" width="5.16" height="24.45"/></g><g class="cls-6"><rect class="cls-3" x="43.74" y="14.75" width="5.16" height="24.45"/></g><g class="cls-6"><rect class="cls-3" x="53.93" y="14.75" width="5.16" height="24.45"/></g><g class="cls-7"><rect class="cls-3" x="64.11" y="14.75" width="5.16" height="24.45"/></g><g class="cls-8"><rect class="cls-3" x="74.29" y="14.75" width="5.16" height="24.45"/></g><circle class="cls-10" cx="116.52" cy="26.82" r="13.42"/><circle class="cls-11" cx="116.52" cy="76.72" r="13.42"/><circle class="cls-12" cx="116.52" cy="126.28" r="13.42"/><circle class="cls-9" cx="116.52" cy="26.82" r="12.44"/><g class="cls-4"><line class="cls-13" x1="154.39" y1="53.14" x2="156.4" y2="53.14"/><line class="cls-14" x1="167.58" y1="53.14" x2="223.48" y2="53.14"/><polyline class="cls-13" points="229.07 53.14 231.08 53.14 231.08 55.15"/><line class="cls-15" x1="231.08" y1="65.8" x2="231.08" y2="104.41"/><line class="cls-13" x1="231.08" y1="109.74" x2="231.08" y2="111.74"/></g><g class="cls-4"><line class="cls-13" x1="123.1" y1="204.85" x2="121.09" y2="204.84"/><line class="cls-14" x1="109.91" y1="204.78" x2="54.01" y2="204.51"/><polyline class="cls-13" points="48.42 204.49 46.41 204.48 46.42 202.47"/><line class="cls-16" x1="46.49" y1="192.16" x2="46.64" y2="168.96"/><line class="cls-13" x1="46.68" y1="163.8" x2="46.69" y2="161.8"/></g><path class="cls-17" d="M290.53,237.14s4,26.95,27.55,35.94H222.64c23.56-9,27.55-35.94,27.55-35.94Z" transform="translate(-49 -26)"/><rect class="cls-18" x="173.17" y="247.08" width="96.33" height="5.69"/><rect class="cls-19" x="173.65" y="247.08" width="95.43" height="4.39"/><path class="cls-20" d="M348.15,141.33H193.26a3.6,3.6,0,0,0-3.6,3.6h0v97.59a4.29,4.29,0,0,0,4.3,4.3H347.44a4.3,4.3,0,0,0,4.31-4.3V144.93a3.6,3.6,0,0,0-3.6-3.6Z" transform="translate(-49 -26)"/><path class="cls-2" d="M195.21,142.81H345.53a3.6,3.6,0,0,1,3.6,3.6h0V230H191.61V146.41a3.58,3.58,0,0,1,3.59-3.6Z" transform="translate(-49 -26)"/><path class="cls-19" d="M344.82,244.33H195.91a4.3,4.3,0,0,1-4.3-4.31V230H349.13V240A4.31,4.31,0,0,1,344.82,244.33Z" transform="translate(-49 -26)"/><rect class="cls-9" x="150.39" y="123.86" width="142.55" height="70.35"/><polygon class="cls-21" points="156.03 128.53 293.03 128.53 293.03 123.84 150.48 123.84 150.48 194.19 156.03 194.19 156.03 128.53"/></svg>