<svg id="Layer_1" data-name="Layer 1" xmlns="http://www.w3.org/2000/svg" viewBox="0 0 400 290.34"><defs><style>.cls-1{fill:#f2f2f2;}.cls-2{fill:#3f3d56;}.cls-3{opacity:0.1;isolation:isolate;}.cls-4{fill:#6c63ff;}.cls-5{fill:#bc2b2b;}</style></defs><title>what-3</title><path class="cls-1" d="M206.47,285.18C118.69,278.43,14,209.73,19.33,139S126.05,2.39,213.84,9.14s138.31,139,133,209.69S294.26,291.92,206.47,285.18Z" transform="translate(0 -8.66)"/><ellipse class="cls-2" cx="200" cy="277.96" rx="200" ry="12.38"/><ellipse class="cls-3" cx="200" cy="277.76" rx="170.36" ry="8.18"/><rect class="cls-2" x="52.1" y="30.5" width="310.17" height="245.8"/><path class="cls-1" d="M203.65,72.75H127.13a.94.94,0,0,1,0-1.88h76.52a.94.94,0,0,1,0,1.88Z" transform="translate(0 -8.66)"/><path class="cls-1" d="M287.42,83.07H167.06a.94.94,0,0,1,0-1.88H287.42a.94.94,0,0,1,0,1.88Z" transform="translate(0 -8.66)"/><path class="cls-1" d="M204,93.38H127.51a.94.94,0,0,1,0-1.87H204a.94.94,0,0,1,0,1.87Z" transform="translate(0 -8.66)"/><path class="cls-1" d="M287.42,93.57H210.9a.94.94,0,0,1,0-1.87h76.52a.94.94,0,0,1,0,1.87Z" transform="translate(0 -8.66)"/><path class="cls-1" d="M204.21,103.7H127.69a.94.94,0,0,1,0-1.87h76.52a.94.94,0,0,1,0,1.87Z" transform="translate(0 -8.66)"/><path class="cls-1" d="M204.4,114H127.88a.94.94,0,0,1,0-1.88H204.4a.94.94,0,0,1,0,1.88Z" transform="translate(0 -8.66)"/><path class="cls-1" d="M239.13,72.94H217.21a.94.94,0,0,1,0-1.88h21.92a.94.94,0,0,1,0,1.88Z" transform="translate(0 -8.66)"/><path class="cls-1" d="M239.13,103.7H217.21a.94.94,0,0,1,0-1.87h21.92a.94.94,0,0,1,0,1.87Z" transform="translate(0 -8.66)"/><path class="cls-1" d="M203.07,157.23H126.55a.94.94,0,0,1,0-1.87h76.52a.94.94,0,0,1,0,1.87Z" transform="translate(0 -8.66)"/><path class="cls-1" d="M238,157.23H216.07a.94.94,0,0,1,0-1.87H238a.94.94,0,0,1,0,1.87Z" transform="translate(0 -8.66)"/><path class="cls-1" d="M239.13,113.83H217.21a.94.94,0,0,1,0-1.87h21.93a.94.94,0,0,1,0,1.87Z" transform="translate(0 -8.66)"/><path class="cls-1" d="M275.57,125.22H253.66a.94.94,0,0,1,0-1.88h21.92a.94.94,0,0,1,0,1.88Z" transform="translate(0 -8.66)"/><path class="cls-1" d="M275.9,113.83H254a.94.94,0,0,1,0-1.87H275.9a.94.94,0,0,1,0,1.87Z" transform="translate(0 -8.66)"/><path class="cls-1" d="M148.86,83.07H127a.94.94,0,0,1,0-1.88h21.91a.94.94,0,0,1,0,1.88Z" transform="translate(0 -8.66)"/><path class="cls-1" d="M287.42,145.71H167.06a.94.94,0,0,1,0-1.88H287.42a.94.94,0,0,1,0,1.88Z" transform="translate(0 -8.66)"/><path class="cls-1" d="M148.86,145.71H127a.94.94,0,0,1,0-1.88h21.91a.94.94,0,0,1,0,1.88Z" transform="translate(0 -8.66)"/><path class="cls-1" d="M286.28,216.32H165.93a.94.94,0,0,1,0-1.87H286.28a.94.94,0,0,1,0,1.87Z" transform="translate(0 -8.66)"/><path class="cls-1" d="M147.72,216.32H125.81a.94.94,0,0,1,0-1.87h21.91a.94.94,0,0,1,0,1.87Z" transform="translate(0 -8.66)"/><path class="cls-1" d="M203.75,224.7H127.23a.94.94,0,0,1,0-1.88h76.52a.94.94,0,0,1,0,1.88Z" transform="translate(0 -8.66)"/><path class="cls-1" d="M202.61,168.89H126.09a.94.94,0,0,1,0-1.87h76.52a.94.94,0,0,1,0,1.87Z" transform="translate(0 -8.66)"/><path class="cls-1" d="M203.37,245.33H126.86a.94.94,0,0,1,0-1.87h76.51a.94.94,0,0,1,0,1.87Z" transform="translate(0 -8.66)"/><path class="cls-1" d="M203.56,255.65H127a.94.94,0,0,1,0-1.87h76.52a.94.94,0,0,1,0,1.87Z" transform="translate(0 -8.66)"/><path class="cls-1" d="M236.25,245.52H214.33a.94.94,0,0,1,0-1.87h21.92a.94.94,0,0,1,0,1.87Z" transform="translate(0 -8.66)"/><path class="cls-1" d="M236.25,255.65H214.33a.94.94,0,0,1,0-1.87h21.92a.94.94,0,0,1,0,1.87Z" transform="translate(0 -8.66)"/><path class="cls-1" d="M273,245.52H251.11a.94.94,0,0,1,0-1.87H273a.94.94,0,0,1,0,1.87Z" transform="translate(0 -8.66)"/><path class="cls-1" d="M202.24,204.33H125.72a.94.94,0,0,1,0-1.87h76.52a.94.94,0,0,1,0,1.87Z" transform="translate(0 -8.66)"/><path class="cls-1" d="M235.11,204.52H213.19a.94.94,0,0,1,0-1.88h21.92a.94.94,0,0,1,0,1.88Z" transform="translate(0 -8.66)"/><path class="cls-1" d="M271.88,204.52H250a.94.94,0,0,1,0-1.88h21.91a.94.94,0,0,1,0,1.88Z" transform="translate(0 -8.66)"/><path class="cls-1" d="M287.51,235H167.16a.94.94,0,0,1,0-1.88H287.51a.94.94,0,0,1,0,1.88Z" transform="translate(0 -8.66)"/><path class="cls-1" d="M149,235H127a.94.94,0,0,1,0-1.88H149a.94.94,0,0,1,0,1.88Z" transform="translate(0 -8.66)"/><path class="cls-1" d="M201.47,115.36H125a.94.94,0,0,1,0-1.87h76.52a.94.94,0,0,1,0,1.87Z" transform="translate(0 -8.66)"/><path class="cls-1" d="M286.37,181.49H166a.94.94,0,0,1,0-1.88H286.37a.94.94,0,0,1,0,1.88Z" transform="translate(0 -8.66)"/><path class="cls-1" d="M147.82,181.49H125.9a.94.94,0,0,1,0-1.88h21.92a.94.94,0,0,1,0,1.88Z" transform="translate(0 -8.66)"/><path class="cls-1" d="M286.37,192.88H166a.94.94,0,0,1,0-1.88H286.37a.94.94,0,0,1,0,1.88Z" transform="translate(0 -8.66)"/><path class="cls-1" d="M147.82,192.88H125.9a.94.94,0,0,1,0-1.88h21.92a.94.94,0,0,1,0,1.88Z" transform="translate(0 -8.66)"/><path class="cls-1" d="M287.51,266.16H167.16a.94.94,0,0,1,0-1.88H287.51a.94.94,0,0,1,0,1.88Z" transform="translate(0 -8.66)"/><path class="cls-1" d="M149,266.16H127a.94.94,0,0,1,0-1.88H149a.94.94,0,0,1,0,1.88Z" transform="translate(0 -8.66)"/><ellipse class="cls-4" cx="60.35" cy="36.74" rx="3.71" ry="3.75"/><ellipse class="cls-4" cx="70.24" cy="36.74" rx="3.71" ry="3.75"/><ellipse class="cls-4" cx="80.14" cy="36.74" rx="3.71" ry="3.75"/><rect class="cls-3" x="52.1" y="42.99" width="310.17" height="1.25"/><path class="cls-1" d="M400,233.86c0,23.33-13.73,31.47-30.67,31.47s-30.66-8.14-30.66-31.47,30.66-53,30.66-53S400,210.54,400,233.86Z" transform="translate(0 -8.66)"/><polygon class="cls-2" points="368.22 253.1 368.53 233.58 381.6 209.43 368.58 230.52 368.72 221.74 377.73 204.27 368.76 219.42 368.76 219.42 369.01 203.63 378.66 189.72 369.05 201.15 369.21 172.2 368.21 210.52 368.3 208.94 358.49 193.78 368.14 211.97 367.23 229.61 367.2 229.14 355.89 213.18 367.16 230.79 367.05 233 367.03 233.03 367.04 233.21 364.72 277.95 367.82 277.95 368.19 254.84 379.43 237.27 368.22 253.1"/><path class="cls-1" d="M238.45,124.39H128.29c-.74,0-1.34-.34-1.34-.75s.6-.76,1.34-.76H238.45c.74,0,1.34.34,1.34.76S239.19,124.39,238.45,124.39Z" transform="translate(0 -8.66)"/><path class="cls-1" d="M274.43,135.47H252.52a.94.94,0,0,1,0-1.87h21.92a.94.94,0,0,1,0,1.87Z" transform="translate(0 -8.66)"/><path class="cls-1" d="M237.31,134.64H127.15c-.74,0-1.34-.34-1.34-.75s.6-.76,1.34-.76H237.31c.74,0,1.34.34,1.34.76S238.05,134.64,237.31,134.64Z" transform="translate(0 -8.66)"/><polygon class="cls-5" points="338.7 240.75 235.38 147.48 328.65 44.15 296.74 15.34 203.46 118.66 100.14 25.39 71.32 57.3 174.65 150.58 81.37 253.91 113.29 282.72 206.56 179.39 309.89 272.67 338.7 240.75"/></svg>