<svg id="Layer_1" data-name="Layer 1" xmlns="http://www.w3.org/2000/svg" viewBox="0 0 400 290.34"><defs><style>.cls-1{fill:#f2f2f2;}.cls-2{fill:#3f3d56;}.cls-3{opacity:0.1;isolation:isolate;}.cls-4{fill:#6c63ff;}.cls-5{fill:#7c5656;}.cls-6{fill:#d8a7b2;}.cls-7{fill:#2f2e41;}.cls-8{fill:#d0cde1;}</style></defs><title>what-2</title><path class="cls-1" d="M206.47,283.18C118.69,276.43,14,207.73,19.33,137S126.05.39,213.84,7.14s138.31,139,133,209.69S294.26,289.92,206.47,283.18Z" transform="translate(0 -6.66)"/><ellipse class="cls-2" cx="200" cy="277.96" rx="200" ry="12.38"/><ellipse class="cls-3" cx="200" cy="277.76" rx="170.36" ry="8.18"/><rect class="cls-2" x="52.1" y="30.5" width="310.17" height="245.8"/><path class="cls-1" d="M203.65,70.75H127.13a.94.94,0,0,1,0-1.88h76.52a.94.94,0,0,1,0,1.88Z" transform="translate(0 -6.66)"/><path class="cls-1" d="M287.42,81.07H167.06a.94.94,0,0,1,0-1.88H287.42a.94.94,0,0,1,0,1.88Z" transform="translate(0 -6.66)"/><path class="cls-1" d="M204,91.38H127.51a.94.94,0,0,1,0-1.87H204a.94.94,0,0,1,0,1.87Z" transform="translate(0 -6.66)"/><path class="cls-1" d="M287.42,91.57H210.9a.94.94,0,0,1,0-1.87h76.52a.94.94,0,0,1,0,1.87Z" transform="translate(0 -6.66)"/><path class="cls-1" d="M204.21,101.7H127.69a.94.94,0,0,1,0-1.87h76.52a.94.94,0,0,1,0,1.87Z" transform="translate(0 -6.66)"/><path class="cls-1" d="M204.4,112H127.88a.94.94,0,0,1,0-1.88H204.4a.94.94,0,0,1,0,1.88Z" transform="translate(0 -6.66)"/><path class="cls-1" d="M239.13,70.94H217.21a.94.94,0,0,1,0-1.88h21.92a.94.94,0,0,1,0,1.88Z" transform="translate(0 -6.66)"/><path class="cls-1" d="M239.13,101.7H217.21a.94.94,0,0,1,0-1.87h21.92a.94.94,0,0,1,0,1.87Z" transform="translate(0 -6.66)"/><path class="cls-1" d="M203.07,155.23H126.55a.94.94,0,0,1,0-1.87h76.52a.94.94,0,0,1,0,1.87Z" transform="translate(0 -6.66)"/><path class="cls-1" d="M238,155.23H216.07a.94.94,0,0,1,0-1.87H238a.94.94,0,0,1,0,1.87Z" transform="translate(0 -6.66)"/><path class="cls-1" d="M239.13,111.83H217.21a.94.94,0,0,1,0-1.87h21.93a.94.94,0,0,1,0,1.87Z" transform="translate(0 -6.66)"/><path class="cls-1" d="M275.57,123.22H253.66a.94.94,0,0,1,0-1.88h21.92a.94.94,0,0,1,0,1.88Z" transform="translate(0 -6.66)"/><path class="cls-1" d="M275.9,111.83H254a.94.94,0,0,1,0-1.87H275.9a.94.94,0,0,1,0,1.87Z" transform="translate(0 -6.66)"/><path class="cls-1" d="M148.86,81.07H127a.94.94,0,0,1,0-1.88h21.91a.94.94,0,0,1,0,1.88Z" transform="translate(0 -6.66)"/><path class="cls-1" d="M287.42,143.71H167.06a.94.94,0,0,1,0-1.88H287.42a.94.94,0,0,1,0,1.88Z" transform="translate(0 -6.66)"/><path class="cls-1" d="M148.86,143.71H127a.94.94,0,0,1,0-1.88h21.91a.94.94,0,0,1,0,1.88Z" transform="translate(0 -6.66)"/><path class="cls-1" d="M286.28,214.32H165.93a.94.94,0,0,1,0-1.87H286.28a.94.94,0,0,1,0,1.87Z" transform="translate(0 -6.66)"/><path class="cls-1" d="M147.72,214.32H125.81a.94.94,0,0,1,0-1.87h21.91a.94.94,0,0,1,0,1.87Z" transform="translate(0 -6.66)"/><path class="cls-1" d="M203.75,222.7H127.23a.94.94,0,0,1,0-1.88h76.52a.94.94,0,0,1,0,1.88Z" transform="translate(0 -6.66)"/><path class="cls-1" d="M202.61,166.89H126.09a.94.94,0,0,1,0-1.87h76.52a.94.94,0,0,1,0,1.87Z" transform="translate(0 -6.66)"/><path class="cls-1" d="M203.37,243.33H126.86a.94.94,0,0,1,0-1.87h76.51a.94.94,0,0,1,0,1.87Z" transform="translate(0 -6.66)"/><path class="cls-1" d="M203.56,253.65H127a.94.94,0,0,1,0-1.87h76.52a.94.94,0,0,1,0,1.87Z" transform="translate(0 -6.66)"/><path class="cls-1" d="M236.25,243.52H214.33a.94.94,0,0,1,0-1.87h21.92a.94.94,0,0,1,0,1.87Z" transform="translate(0 -6.66)"/><path class="cls-1" d="M236.25,253.65H214.33a.94.94,0,0,1,0-1.87h21.92a.94.94,0,0,1,0,1.87Z" transform="translate(0 -6.66)"/><path class="cls-1" d="M273,243.52H251.11a.94.94,0,0,1,0-1.87H273a.94.94,0,0,1,0,1.87Z" transform="translate(0 -6.66)"/><path class="cls-1" d="M202.24,202.33H125.72a.94.94,0,0,1,0-1.87h76.52a.94.94,0,0,1,0,1.87Z" transform="translate(0 -6.66)"/><path class="cls-1" d="M235.11,202.52H213.19a.94.94,0,0,1,0-1.88h21.92a.94.94,0,0,1,0,1.88Z" transform="translate(0 -6.66)"/><path class="cls-1" d="M271.88,202.52H250a.94.94,0,0,1,0-1.88h21.91a.94.94,0,0,1,0,1.88Z" transform="translate(0 -6.66)"/><path class="cls-1" d="M287.51,233H167.16a.94.94,0,0,1,0-1.88H287.51a.94.94,0,0,1,0,1.88Z" transform="translate(0 -6.66)"/><path class="cls-1" d="M149,233H127a.94.94,0,0,1,0-1.88H149a.94.94,0,0,1,0,1.88Z" transform="translate(0 -6.66)"/><path class="cls-1" d="M201.47,113.36H125a.94.94,0,0,1,0-1.87h76.52a.94.94,0,0,1,0,1.87Z" transform="translate(0 -6.66)"/><path class="cls-1" d="M286.37,179.49H166a.94.94,0,0,1,0-1.88H286.37a.94.94,0,0,1,0,1.88Z" transform="translate(0 -6.66)"/><path class="cls-1" d="M147.82,179.49H125.9a.94.94,0,0,1,0-1.88h21.92a.94.94,0,0,1,0,1.88Z" transform="translate(0 -6.66)"/><path class="cls-1" d="M286.37,190.88H166a.94.94,0,0,1,0-1.88H286.37a.94.94,0,0,1,0,1.88Z" transform="translate(0 -6.66)"/><path class="cls-1" d="M147.82,190.88H125.9a.94.94,0,0,1,0-1.88h21.92a.94.94,0,0,1,0,1.88Z" transform="translate(0 -6.66)"/><path class="cls-1" d="M287.51,264.16H167.16a.94.94,0,0,1,0-1.88H287.51a.94.94,0,0,1,0,1.88Z" transform="translate(0 -6.66)"/><path class="cls-1" d="M149,264.16H127a.94.94,0,0,1,0-1.88H149a.94.94,0,0,1,0,1.88Z" transform="translate(0 -6.66)"/><ellipse class="cls-4" cx="60.35" cy="36.74" rx="3.71" ry="3.75"/><ellipse class="cls-4" cx="70.24" cy="36.74" rx="3.71" ry="3.75"/><ellipse class="cls-4" cx="80.14" cy="36.74" rx="3.71" ry="3.75"/><rect class="cls-3" x="52.1" y="42.99" width="310.17" height="1.25"/><path class="cls-1" d="M400,231.86c0,23.33-13.73,31.47-30.67,31.47s-30.66-8.14-30.66-31.47,30.66-53,30.66-53S400,208.54,400,231.86Z" transform="translate(0 -6.66)"/><polygon class="cls-2" points="368.22 253.1 368.53 233.58 381.6 209.43 368.58 230.52 368.72 221.74 377.73 204.27 368.76 219.42 368.76 219.42 369.01 203.63 378.66 189.72 369.05 201.15 369.21 172.2 368.21 210.52 368.3 208.94 358.49 193.78 368.14 211.97 367.23 229.61 367.2 229.14 355.89 213.18 367.16 230.79 367.05 233 367.03 233.03 367.04 233.21 364.72 277.95 367.82 277.95 368.19 254.84 379.43 237.27 368.22 253.1"/><path class="cls-1" d="M238.45,122.39H128.29c-.74,0-1.34-.34-1.34-.75s.6-.76,1.34-.76H238.45c.74,0,1.34.34,1.34.76S239.19,122.39,238.45,122.39Z" transform="translate(0 -6.66)"/><path class="cls-1" d="M274.43,133.47H252.52a.94.94,0,0,1,0-1.87h21.92a.94.94,0,0,1,0,1.87Z" transform="translate(0 -6.66)"/><path class="cls-1" d="M237.31,132.64H127.15c-.74,0-1.34-.34-1.34-.75s.6-.76,1.34-.76H237.31c.74,0,1.34.34,1.34.76S238.05,132.64,237.31,132.64Z" transform="translate(0 -6.66)"/><circle class="cls-5" cx="85.11" cy="122.63" r="10.86"/><path class="cls-6" d="M79.39,136.52s.17,6.7-.49,6.87,9,2.78,9,2.78l1-9.16Z" transform="translate(0 -6.66)"/><path class="cls-6" d="M104.05,261.24s.32,7.19,1.15,7.32-6.63,1.93-6.63,1.93l-1.11-2.89s2.2-5.67,2.18-6.16S104.05,261.24,104.05,261.24Z" transform="translate(0 -6.66)"/><path class="cls-7" d="M101.15,269.43s4.35-1.5,4.44-3.14c0,0,3.84,5.39,5,5.5s4.18,1.94,3.24,2.8-16.46,1.56-18.16.16,1.94-8.1,1.94-8.1S99.57,270.65,101.15,269.43Z" transform="translate(0 -6.66)"/><polygon class="cls-6" points="74.65 252.65 73.34 259.68 79.39 260.67 79.39 252.65 74.65 252.65"/><path class="cls-7" d="M74.65,265.53s-1-3.11-1.63-2.62-1.64,3.6-1.47,4.42,1.3,7.19.81,8.34,2.46,7,6.22,6.54S82,278.45,82,278.45l-1.31-5.07-.49-8S76,264.71,74.65,265.53Z" transform="translate(0 -6.66)"/><circle class="cls-5" cx="81.31" cy="111.2" r="4.49"/><path class="cls-5" d="M75.32,115.43a4.5,4.5,0,0,1,4-4.47,3.71,3.71,0,0,0-.47,0,4.5,4.5,0,0,0,0,9l.47,0A4.5,4.5,0,0,1,75.32,115.43Z" transform="translate(0 -6.66)"/><circle class="cls-6" cx="85.12" cy="127.57" r="6.87"/><path class="cls-7" d="M97.06,196a16.18,16.18,0,0,1,.63-1.72,28.35,28.35,0,0,0,2.46-7.12,26.57,26.57,0,0,1,1.32-6,28.55,28.55,0,0,0-4.58.36,98.41,98.41,0,0,1-25.34.49s.32,8.17,1.63,12.42,6,34.53,5,36.82-6,27.61-4.88,29.08,6.54,1,6.54,1l7.34-30.71S85.84,198.24,97.06,196Z" transform="translate(0 -6.66)"/><path class="cls-8" d="M80.7,141.26s-2-1.14-2.45,0-3.92,2.13-5.23,1.15-4.58.32-4.58.32l-3.6,10.63s1.8,9.16,3.44,14.23,2.28,15.53,1.63,16.51S83,189,89.7,186.55s8.17-5.23,8.17-5.23S90.51,170.86,93,166s.49-10.46.49-10.46l1-5.56-5.56-3.11s-.33-2.94-1.64-2.94S80.7,141.26,80.7,141.26Z" transform="translate(0 -6.66)"/><path class="cls-8" d="M92,150.09h2.46a5.49,5.49,0,0,1,1.63,5.07c-.65,3.11-3.6,13.41-3.6,13.41L90,162.19Z" transform="translate(0 -6.66)"/><path class="cls-6" d="M99,176.35s4.89,5.3,1.29,8.08-4.48-6.38-4.48-6.38Z" transform="translate(0 -6.66)"/><path class="cls-8" d="M92,165.3l1.15,4.58,2,3.59s6.7,4.42,6.7,6.05c0,0-2.94-3.76-6.7,0l-3.35-8.09Z" transform="translate(0 -6.66)"/><ellipse class="cls-5" cx="86.38" cy="120.33" rx="7.49" ry="4.49"/><path class="cls-6" d="M71.55,127.36s5.23-2.94,7.35-.81-6.37,5.39-6.37,5.39Z" transform="translate(0 -6.66)"/><path class="cls-8" d="M69.58,143.55l-1.14-.82s-1.31-2-2.45-1.3S58.14,139,58.14,139s2.45,1.15,2.45-.81.33-1.64,2-1.64,1.64.82,2.29-.33.33-1.79,1.47-1.14a2.3,2.3,0,0,0,2.78-.33c.33-.49,6.22-1.31,6.22-1.31s-2.29-6.7-2.78-7.19-13.08,5.07-13.08,5.07-15.86,4.41-11.78,9.48,18.81,12.76,18.81,12.76Z" transform="translate(0 -6.66)"/><path class="cls-7" d="M101.35,182.15c-.18.39.59,2.22.71,2.63.4,1.44,1,2.85,1.39,4.29a79.2,79.2,0,0,1,2.26,9.75c1.13,6.54,1.69,13.15,2.65,19.71.67,4.63,1.54,9.28,1.33,14-.15,3.48-.92,7-1.39,10.46l-2.4,17.58-.25,1.83a18.44,18.44,0,0,1-8.54,0l4.24-31.87L94.5,197Z" transform="translate(0 -6.66)"/></svg>