<svg id="Layer_1" data-name="Layer 1" xmlns="http://www.w3.org/2000/svg" viewBox="0 0 379.15 255.01"><defs><style>.cls-1{fill:#e6e6e6;}.cls-2{fill:#6c63ff;}.cls-3{fill:#fff;}.cls-4{opacity:0.2;isolation:isolate;}.cls-5{fill:#2f2e41;}.cls-6{fill:#a0616a;}</style></defs><title>what-1</title><path class="cls-1" d="M355.2,179.18a175,175,0,0,1-11.58,26.61l-.76,1.41V112.51c.25-.78.51-1.56.76-2.34,10.32-31.67,18-61,15.45-72.17C359.82,40.81,378.17,111.89,355.2,179.18Z" transform="translate(-10.36 -38)"/><path class="cls-1" d="M389.51,134.55c-.28,1.78-9.07,54.07-45.89,85.11l-.76.64V192.05c.25-.26.51-.52.76-.79,3.78-3.87,7.69-7.95,11.58-12.08C371.85,161.43,387.9,142.64,389.51,134.55Z" transform="translate(-10.36 -38)"/><path class="cls-1" d="M341.32,83.87H99.14a2.3,2.3,0,0,0-2.3,2.3h0V220.39a2.3,2.3,0,0,0,2.3,2.3H341.32a2.3,2.3,0,0,0,2.3-2.3h0V86.17a2.3,2.3,0,0,0-2.3-2.3Zm1.54,136.52a1.54,1.54,0,0,1-1.54,1.53H99.14a1.54,1.54,0,0,1-1.53-1.53h0V86.17a1.53,1.53,0,0,1,1.53-1.53H341.32a1.53,1.53,0,0,1,1.54,1.53h0Z" transform="translate(-10.36 -38)"/><rect class="cls-1" x="110.26" y="45.87" width="0.77" height="138.82"/><path class="cls-2" d="M102.14,95.83a7.15,7.15,0,1,1,7.15,7.16h0A7.16,7.16,0,0,1,102.14,95.83Z" transform="translate(-10.36 -38)"/><path class="cls-2" d="M102.14,123.83a7.15,7.15,0,1,1,7.15,7.15h0A7.15,7.15,0,0,1,102.14,123.83Z" transform="translate(-10.36 -38)"/><path class="cls-2" d="M102.14,151.82a7.15,7.15,0,1,1,7.15,7.15h0A7.15,7.15,0,0,1,102.14,151.82Z" transform="translate(-10.36 -38)"/><path class="cls-3" d="M106.47,95.13h2.12V93a.7.7,0,0,1,.7-.71A.71.71,0,0,1,110,93h0v2.12h2.11a.7.7,0,0,1,.71.7.71.71,0,0,1-.71.71H110v2.12a.71.71,0,0,1-1.41,0V96.54h-2.12a.71.71,0,0,1-.71-.71.7.7,0,0,1,.71-.7Z" transform="translate(-10.36 -38)"/><path class="cls-3" d="M108,125.82h6l-2.83-4.91a.19.19,0,0,0-.27-.07.16.16,0,0,0-.07.07l-1.9,3.29-.1.16Z" transform="translate(-10.36 -38)"/><polygon class="cls-4" points="97.59 87.82 99.64 87.82 98.63 86.36 98.56 86.26 98.52 86.2 98.43 86.36 97.59 87.82"/><path class="cls-3" d="M104.62,125.82h5.18l-1-1.46-.07-.1-1.31-1.9a.25.25,0,0,0-.37,0h0l0,0Z" transform="translate(-10.36 -38)"/><circle class="cls-3" cx="98.16" cy="83.19" r="0.89"/><rect class="cls-1" x="135.17" y="137.44" width="111.39" height="0.7" transform="translate(-54.46 114.18) rotate(-39.33)"/><rect class="cls-1" x="190.51" y="82.16" width="0.7" height="111.62" transform="translate(-47.35 159.52) rotate(-50.51)"/><path class="cls-1" d="M232.67,101.23H148.83a2.47,2.47,0,0,0-2.46,2.47v68a2.47,2.47,0,0,0,2.46,2.47h83.84a2.47,2.47,0,0,0,2.46-2.47v-68A2.47,2.47,0,0,0,232.67,101.23Zm-83.84,72.21a1.76,1.76,0,0,1-1.76-1.76v-68a1.76,1.76,0,0,1,1.76-1.76h83.84a1.76,1.76,0,0,1,1.76,1.76v68a1.76,1.76,0,0,1-1.76,1.76Z" transform="translate(-10.36 -38)"/><g id="b7202e77-47b3-4d88-8d2a-2206841e46b2"><path class="cls-1" d="M248.82,139.53c-.72,0-1.29.8-1.28,1.74a1.55,1.55,0,0,0,1.28,1.69h67.86c.72,0,1.31-.74,1.32-1.69a1.56,1.56,0,0,0-1.28-1.74h-67.9Z" transform="translate(-10.36 -38)"/></g><path id="bfc1215b-6465-4563-8feb-7e589d2c97b6" class="cls-2" d="M248.82,129.58a1.58,1.58,0,0,0-1.28,1.75,1.55,1.55,0,0,0,1.28,1.68H285.6c.73,0,1.32-.74,1.33-1.68a1.58,1.58,0,0,0-1.28-1.75H248.82Z" transform="translate(-10.36 -38)"/><g id="e482ad8c-5b59-4aa3-8d0a-acebf632571d"><path class="cls-1" d="M248.82,150a1.8,1.8,0,0,0,0,3.44h67.86c.72,0,1.31-.74,1.32-1.69a1.57,1.57,0,0,0-1.28-1.75h-67.9Z" transform="translate(-10.36 -38)"/></g><g id="a4240805-a668-4077-939e-34c0ef9642f4"><path class="cls-1" d="M248.82,160.21a1.79,1.79,0,0,0,0,3.43h67.86c.72,0,1.31-.74,1.32-1.69a1.55,1.55,0,0,0-1.28-1.74h-67.9Z" transform="translate(-10.36 -38)"/></g><g id="ecd3311d-200b-4df1-9e16-2b2cfcf2d576"><path class="cls-1" d="M248.82,170.63c-.72,0-1.29.8-1.28,1.74a1.55,1.55,0,0,0,1.28,1.69h67.86c.72,0,1.31-.74,1.32-1.69a1.56,1.56,0,0,0-1.28-1.74h-67.9Z" transform="translate(-10.36 -38)"/></g><g id="b12ed9b2-cc32-4c4f-a9d5-2d1deb4d0e3e"><path class="cls-1" d="M146.54,181.21a1.58,1.58,0,0,0-1.29,1.75,1.56,1.56,0,0,0,1.29,1.69H317.16c.72,0,1.31-.74,1.33-1.69a1.58,1.58,0,0,0-1.29-1.75H146.54Z" transform="translate(-10.36 -38)"/></g><g id="e10bb4bc-6df1-41b6-ac46-84090840b498"><path class="cls-1" d="M146.54,191.64a1.78,1.78,0,0,0,0,3.43H317.16c.72,0,1.31-.74,1.33-1.69a1.57,1.57,0,0,0-1.29-1.74H146.54Z" transform="translate(-10.36 -38)"/></g><g id="e3c0a870-6a35-4470-a43f-0902a465f5fb"><path class="cls-1" d="M146.54,201.89a1.57,1.57,0,0,0-1.29,1.74,1.55,1.55,0,0,0,1.29,1.69H317.16c.72,0,1.31-.74,1.33-1.69a1.57,1.57,0,0,0-1.29-1.74H146.54Z" transform="translate(-10.36 -38)"/></g><path class="cls-5" d="M74.86,280.17l-10.32-.32L49.72,218.08,24.44,278.59l-11.55-.36c11-47.12,22-95.1,30.37-108.41l23.19,6.71Z" transform="translate(-10.36 -38)"/><path class="cls-5" d="M30.08,292.94l-.72.06a4.8,4.8,0,0,1-2.12-.33L13.35,291a4.78,4.78,0,0,1-2.63-6.24v0l3-7.22h9.73l10.06,8.16a4.64,4.64,0,0,1-3.45,7.26Z" transform="translate(-10.36 -38)"/><path class="cls-5" d="M81.08,292.94l-.72.06a4.75,4.75,0,0,1-2.11-.33L64.35,291a4.78,4.78,0,0,1-2.63-6.24v0l3-7.22h9.73l10.06,8.16a4.64,4.64,0,0,1-3.45,7.26Z" transform="translate(-10.36 -38)"/><path class="cls-6" d="M73.07,161.05,54.85,149l8.42-5.1,11.93,7.39,19.41,2.9,3-2.93a4.58,4.58,0,0,1,6.48,0,5,5,0,0,1,.61.76h0a4.58,4.58,0,0,1-1.4,6.33,4.67,4.67,0,0,1-1.42.6l-2.91.68Z" transform="translate(-10.36 -38)"/><path class="cls-1" d="M54.94,152.33c-2-4.22-5.58-7.67-10.39-10.48L54,132.36c4.55,2.57,8.54,6.67,12.26,11.56Z" transform="translate(-10.36 -38)"/><circle class="cls-6" cx="44.2" cy="73.67" r="10.54"/><path class="cls-6" d="M59.89,133.17l-13.42-3.36c1.2-3.42.75-8.57,0-14H59.89C57.94,122.15,57.38,128.27,59.89,133.17Z" transform="translate(-10.36 -38)"/><path class="cls-1" d="M67.21,178.93,42,173.17c-2.66-18.55-3.22-37.91,4.73-44.58l12.51,1.53,9.43,12.09a16.38,16.38,0,0,1,1.86,3,14.39,14.39,0,0,1-.68,13.31A26.27,26.27,0,0,0,67.21,178.93Z" transform="translate(-10.36 -38)"/><path class="cls-6" d="M42.89,166.76,47,145.32l7.94,5.82L52.7,165,65.08,180.1l3.84,1.6a4.6,4.6,0,0,1,2.46,6,5.51,5.51,0,0,1-.47.86h0a4.6,4.6,0,0,1-6.39,1.13,4.7,4.7,0,0,1-1.1-1.08l-1.74-2.43Z" transform="translate(-10.36 -38)"/><path class="cls-1" d="M58.42,141.07c-1.73,4.35-1.88,9.29-.69,14.74l-13.39-.55c-1.19-5.09-.87-10.81.22-16.85Z" transform="translate(-10.36 -38)"/><path class="cls-5" d="M59.13,100.06s-12.51-7-18.61,5.8A44.65,44.65,0,0,0,36.25,130l11.59-.3,2.75-2.75,2.13,2.44,0,0a35.93,35.93,0,0,0,5.14-16.82A4.27,4.27,0,0,1,60,108.61c4.28-2.14,5.19-2.14,5.19-2.14S67.67,100.67,59.13,100.06Z" transform="translate(-10.36 -38)"/><path class="cls-3" d="M112.17,148.75h-5.71a.8.8,0,0,0-.8.64.77.77,0,0,0,.63.89h1.82a.41.41,0,0,1,.41.41v3.38a.81.81,0,0,0,.64.8.77.77,0,0,0,.89-.63s0-.09,0-.13V150.7a.41.41,0,0,1,.41-.41h1.66a.79.79,0,0,0,.79-.64.77.77,0,0,0-.62-.89Z" transform="translate(-10.36 -38)"/><circle class="cls-3" cx="101.8" cy="116.12" r="0.77"/></svg>