<svg id="Layer_1" data-name="Layer 1" xmlns="http://www.w3.org/2000/svg" xmlns:xlink="http://www.w3.org/1999/xlink" viewBox="0 0 344.98 250.7"><defs><style>.cls-1{fill:#f2f2f2;}.cls-2{fill:#3f3d56;}.cls-3{fill:#6c63ff;}.cls-4{fill:url(#linear-gradient);}.cls-5{fill:#444176;}.cls-6,.cls-8{opacity:0.1;}.cls-22,.cls-6{isolation:isolate;}.cls-7{fill:#565387;}.cls-9{fill:#ced2df;}.cls-10{fill:#88455e;}.cls-11{fill:#ec8c9c;}.cls-12{fill:#ebf1f6;}.cls-13{fill:url(#linear-gradient-2);}.cls-14{fill:url(#linear-gradient-3);}.cls-15{fill:#ffbdc6;}.cls-16{fill:#7679b4;}.cls-17{fill:#a66477;}.cls-18{fill:#f2f1f2;}.cls-19{fill:#565388;}.cls-20{fill:url(#linear-gradient-4);}.cls-21{fill:#493545;}.cls-22{opacity:0.05;}.cls-23{fill:#3e3d77;}.cls-24{fill:#c77485;}.cls-25{fill:#ffaac4;}</style><linearGradient id="linear-gradient" x1="317.58" y1="-96.94" x2="317.58" y2="59" gradientTransform="matrix(1, 0, 0, -1, -125.1, 182.76)" gradientUnits="userSpaceOnUse"><stop offset="0" stop-color="gray" stop-opacity="0.25"/><stop offset="0.54" stop-color="gray" stop-opacity="0.12"/><stop offset="1" stop-color="gray" stop-opacity="0.1"/></linearGradient><linearGradient id="linear-gradient-2" x1="197.24" y1="-30.71" x2="197.24" y2="-30.62" xlink:href="#linear-gradient"/><linearGradient id="linear-gradient-3" x1="192.11" y1="-75.09" x2="192.11" y2="50.71" xlink:href="#linear-gradient"/><linearGradient id="linear-gradient-4" x1="418.17" y1="-73.99" x2="418.17" y2="79.33" xlink:href="#linear-gradient"/></defs><title>what-6</title><circle class="cls-1" cx="58.83" cy="117.56" r="32.18"/><path class="cls-2" d="M343.6,104.77H163.27V67H343.6ZM164.06,104H342.8V67.83H164.06Z" transform="translate(-18.98 -29)"/><rect class="cls-3" x="131.98" y="45.58" width="179.53" height="36.94"/><circle class="cls-3" cx="18.48" cy="7.55" r="2.78"/><circle class="cls-3" cx="28.02" cy="7.55" r="2.78"/><circle class="cls-3" cx="37.55" cy="7.55" r="2.78"/><path class="cls-2" d="M364,246.67H29.52V29H364Zm-333.65-.8H363.17V29.79H30.31Z" transform="translate(-18.98 -29)"/><rect class="cls-2" x="10.94" y="12.05" width="333.65" height="0.79"/><path class="cls-2" d="M38.26,38.53a3.18,3.18,0,1,1,3.17-3.17A3.17,3.17,0,0,1,38.26,38.53Zm0-5.56a2.39,2.39,0,1,0,2.38,2.39A2.39,2.39,0,0,0,38.26,33Z" transform="translate(-18.98 -29)"/><path class="cls-2" d="M47.79,38.53A3.18,3.18,0,1,1,51,35.36,3.18,3.18,0,0,1,47.79,38.53Zm0-5.56a2.39,2.39,0,1,0,2.38,2.39A2.38,2.38,0,0,0,47.79,33Z" transform="translate(-18.98 -29)"/><path class="cls-2" d="M57.32,38.53a3.18,3.18,0,1,1,3.18-3.17h0A3.17,3.17,0,0,1,57.32,38.53Zm0-5.56a2.39,2.39,0,1,0,2.39,2.39h0A2.4,2.4,0,0,0,57.32,33Z" transform="translate(-18.98 -29)"/><rect class="cls-2" x="115.29" y="12.45" width="0.79" height="205.13"/><rect class="cls-1" x="153.23" y="113.3" width="58.39" height="7.94"/><rect class="cls-1" x="244.98" y="113.3" width="58.39" height="7.94"/><path class="cls-2" d="M234.17,146.67H175v-8.74h59.18Zm-58.39-.79h57.59v-7.15H175.78Z" transform="translate(-18.98 -29)"/><rect class="cls-1" x="153.23" y="174.87" width="58.39" height="7.94"/><path class="cls-2" d="M234.17,208.24H175V199.5h59.18Zm-58.39-.8h57.59v-7.15H175.78Z" transform="translate(-18.98 -29)"/><rect class="cls-1" x="153.42" y="143.29" width="150.14" height="7.94"/><path class="cls-2" d="M326.12,177.45H175.18v-8.73H326.12ZM176,176.66H325.33v-7.15H176Z" transform="translate(-18.98 -29)"/><path class="cls-2" d="M325.92,146.67H266.74v-8.74h59.18Zm-58.39-.79h57.6v-7.15h-57.6Z" transform="translate(-18.98 -29)"/><path class="cls-2" d="M83.26,170.32a32.68,32.68,0,1,1,32.67-32.67A32.68,32.68,0,0,1,83.26,170.32Zm0-64.36a31.69,31.69,0,1,0,31.68,31.69A31.69,31.69,0,0,0,83.26,106Z" transform="translate(-18.98 -29)"/><path class="cls-4" d="M245.73,150.2c-1.61-4.19-5.76-14-8.49-12.09-3.45,2.47,3.45,13.39,3.45,13.39.2,2-3.68,6.17-5.76,8.25v-.26a.92.92,0,0,1-.09.23l-.18-.1a1.09,1.09,0,0,1-.24.45,4.26,4.26,0,0,0,0-.45c-.4,1.69-7.37,3.84-7.37,3.84h-.51c-1.94,0-7-.44-9.31-4.18a21,21,0,0,0-4.57-5.33,4,4,0,0,0-2.17-.82,27.91,27.91,0,0,1-12.72-4.37l-.19-.14,0,.12c-.25-.35-.49-.72-.71-1.1h0l-.11-.21a9.48,9.48,0,0,0,5.22-8.42v-.19a6.53,6.53,0,0,0,.86-3.23v-1.13l1.48-1.31a6,6,0,0,0,1.71-2.06,2.35,2.35,0,0,0,.18-1.05,1.85,1.85,0,0,0-.69-1.64c-1.13-.78-3,0-3.83-1.08-.38-.49-.31-1.16-.5-1.74a3.09,3.09,0,0,0-3-1.82,13,13,0,0,0-3.66.78,21.34,21.34,0,0,1-7.79.73,5.15,5.15,0,0,0-2.14.08,2.89,2.89,0,0,0-1.73,2,4.62,4.62,0,0,0-.17,1,6.5,6.5,0,0,0-1.63,4.3v2.9a6.43,6.43,0,0,0,1.56,4.21,9.43,9.43,0,0,0,3.94,6.88v.23l0,0a16,16,0,0,1-.41,2.66v-.19a27.35,27.35,0,0,1-10.93,2.87h-.62a4.19,4.19,0,0,0-3,1.13c-1.67,1.58-4.6,4.07-6.41,4.07-.37,0-9.88,1.85-11.45,2.16l-3-2.88-.09.17-.17-.17a7.93,7.93,0,0,0-1,.14,22.84,22.84,0,0,1-5.21-11.51s6.5-7.41,4.11-14.31c-2-5.89-7.67,6.72-9.26,10.53a3,3,0,0,0-.1,2.09l5.28,17a8.11,8.11,0,0,0-.42,4.14h-.06l3.85,4.94a20.32,20.32,0,0,0,7.43,1.22,26.18,26.18,0,0,0,9.7-1.86h.89l-.17.06h4.59l2.91,8.82c-.1.8-1.5,12-2.63,14.51a6.21,6.21,0,0,0-.45,2.63,20.15,20.15,0,0,0,.84,5.11l2.56-.1-.1.2a133.06,133.06,0,0,0-7.91,19.72l-3.72,7.53,2.79,33.79h.11l.21,0h0l1.35.19-.22.37-6.14,10.17s-4.38,9,5.31,7.28c0,0,3.58-1,5-7.16l6.37-6s.3-4-1.51-5.56c-.11-1.84-.4-7.19,0-8.48.54-1.56-2.26-19.5-2.26-19.5s10.09-20.92,16.2-21.44a3.46,3.46,0,0,1,1.32.17c5,1.64,11.11,13.78,12.9,17.56h0l.08.17v0l.07.15v0l.06.13v0l0,.12v0l.05.09v0l0,.07v0l0,.05v.07h0l0,0,.8,23.53h0l.08,0h0l-.07.49-.35,2.43s4.38,9.22,4.11,10.39,2.92,5.85,7.44,4.55,1.82-8.62,1.82-8.62l-4.34-9-.2-.4a8.5,8.5,0,0,0,1.23-.91s-1.33-9.62,0-11.7,1.72-11.56,1.72-11.56-.93-6.5-2.52-9.36l-6.68-23.83c2,1.86,3.56,2.59,4.86,2.54h.21a3.25,3.25,0,0,0,1.64-.41,4.85,4.85,0,0,0,.75-.53l.12-.12h0c1.86-1.56-2.12-7.67-4.38-11.3s.82-13,1.05-13.73a3.48,3.48,0,0,1,.64-.38,4,4,0,0,1,1.48-.32c2.16.07,4.82,1.32,8.12,1.94a38.15,38.15,0,0,0,6.92.54h.14c.92,0,1.76,0,2.44,0a4.25,4.25,0,0,0,1.77-.48h0a5.13,5.13,0,0,0,1.25-1l5.78-6.53-.15.07a3.23,3.23,0,0,0,0-2.29l6.11-10.55A4.05,4.05,0,0,0,245.73,150.2Z" transform="translate(-18.98 -29)"/><path class="cls-5" d="M177.12,265.46l-6.15,5.9c-1.41,6-4.87,7.05-4.87,7.05-9.36,1.66-5.13-7.16-5.13-7.16l5.93-10,.74-1.24s4.23-1.28,7-.51a2.31,2.31,0,0,1,1,.52C177.41,261.51,177.12,265.46,177.12,265.46Z" transform="translate(-18.98 -29)"/><path class="cls-5" d="M215.05,270.72c-4.36,1.28-7.43-3.33-7.16-4.49s-4-10.24-4-10.24l.33-2.39.31-2.22,7.16.51.67,1.42,4.2,8.83S219.41,269.44,215.05,270.72Z" transform="translate(-18.98 -29)"/><path class="cls-6" d="M175.71,261c-.67,1.16-6.14.57-8.8.21l.73-1.24s4.23-1.28,7.05-.51a2.44,2.44,0,0,1,1,.52C175.69,260.58,175.71,261,175.71,261Z" transform="translate(-18.98 -29)"/><path class="cls-6" d="M212.39,253.3c-3.66,2.44-7.57.59-8.15.29l.31-2.22,7.15.51Z" transform="translate(-18.98 -29)"/><path class="cls-7" d="M213.39,240.48c-1.28,2.05,0,11.53,0,11.53-4.23,3.85-9.23,1-9.23,1l-.75-23.2s-8.33-19.09-14.23-18.58-15.63,21.14-15.63,21.14,2.69,17.69,2.18,19.22,0,9,0,9c-.9,1.54-10.25,0-10.25,0l-2.69-33.32,3.57-7.43A131.08,131.08,0,0,1,174,200.39c1-2.17,1.73-3.5,1.73-3.5l6.81-1.42,22.14-4.59,8,29c1.54,2.82,2.43,9.22,2.43,9.22S214.67,238.43,213.39,240.48Z" transform="translate(-18.98 -29)"/><g class="cls-8"><path d="M206.21,253l-.75-23.2s-8.33-19.09-14.23-18.58a3,3,0,0,0-.77.17c5.75,1.91,12.95,18.41,12.95,18.41l.75,23.2a9.08,9.08,0,0,0,5.1.93A9.31,9.31,0,0,1,206.21,253Z" transform="translate(-18.98 -29)"/><path d="M167.51,260.6l-2.69-33.32,3.59-7.45A131.08,131.08,0,0,1,176,200.39c1-2.17,1.73-3.5,1.73-3.5l6.81-1.42,20.21-4.2-.11-.4-22.15,4.6-6.81,1.42s-.7,1.33-1.73,3.5a130.87,130.87,0,0,0-7.63,19.44l-3.59,7.43,2.69,33.32a48.5,48.5,0,0,0,8.14.66C171.56,261.13,169.53,260.91,167.51,260.6Z" transform="translate(-18.98 -29)"/></g><path class="cls-9" d="M151.93,157.37s-7.31.38-6.28,8.08l2,.25,3.07-3.33,1.54-2.81v-.64Z" transform="translate(-18.98 -29)"/><path class="cls-6" d="M151.93,157.37s-7.31.38-6.28,8.08l2,.25,3.07-3.33,1.54-2.81v-.64Z" transform="translate(-18.98 -29)"/><path class="cls-9" d="M233.19,160.19s6,3.2,4.48,6.92l-1.92.76-2.56-1.41-.38-3.33.26-2.31Z" transform="translate(-18.98 -29)"/><path class="cls-6" d="M233.19,160.19s6,3.2,4.48,6.92l-1.92.76-2.56-1.41-.38-3.33.26-2.31Z" transform="translate(-18.98 -29)"/><path class="cls-10" d="M189.36,127.13h5.13a8,8,0,0,1,7.94,7.94h0a8,8,0,0,1-7.94,8h-5.13a7.94,7.94,0,0,1-7.94-8h0A7.94,7.94,0,0,1,189.36,127.13Z" transform="translate(-18.98 -29)"/><path class="cls-11" d="M151.88,158.46l-4.49,7.16-.38-1.27-6.09-19.86a3,3,0,0,1,.09-2.06c1.54-3.75,7-16.2,9-10.38,2.3,6.78-4,14.09-4,14.09a22.68,22.68,0,0,0,5.36,11.74C151.67,158.26,151.88,158.46,151.88,158.46Z" transform="translate(-18.98 -29)"/><path class="cls-11" d="M232.23,161.54s7-6.67,6.78-9.36c0,0-6.67-10.76-3.33-13.18,2.63-1.93,6.64,7.79,8.19,11.92a4,4,0,0,1-.27,3.39l-8.42,14.92Z" transform="translate(-18.98 -29)"/><path class="cls-11" d="M186.6,143s1.28,8.2-2.43,11.28,10.64,3.06,10.64,3.06l5.12-4.75s-5.89-5.51-4.1-9.61Z" transform="translate(-18.98 -29)"/><path class="cls-6" d="M186.35,152.31a9,9,0,0,0,11-.51l9,18.58-.51,22.68s-18.58,9.61-26.27,3.72-1.28-9-1.28-9l-1.79-17.42,1.92-11.28s3.46-5.39,3.72-5.39S186.35,152.31,186.35,152.31Z" transform="translate(-18.98 -29)"/><path class="cls-12" d="M186.35,152.06a9,9,0,0,0,11-.52l9,18.59-.51,22.68s-18.59,9.61-26.28,3.72-1.28-9-1.28-9l-1.79-17.43,1.92-11.28s3.46-5.38,3.72-5.38S186.35,152.06,186.35,152.06Z" transform="translate(-18.98 -29)"/><path class="cls-6" d="M186.35,150.14a23.9,23.9,0,0,1-10.9,2.83,4,4,0,0,0-2.9,1.1c-1.61,1.56-4.44,4-6.2,4-.37,0-11.27,2.18-11.27,2.18l-2.89-2.88s-4.29,8.39-6.34,8l3.72,4.87s7.05,3.07,16.27-.64h5.39l2.81,8.71s-1.41,11.79-2.56,14.35.38,7.56.38,7.56l10.12-.37s.51-5,1.28-5.65-2.69-22.69-2.69-22.69-2.3-12.43,6.15-16.91Z" transform="translate(-18.98 -29)"/><path class="cls-6" d="M182.53,195.49a32.79,32.79,0,0,0-.79,4.62l-7.75.29c1-2.17,1.73-3.5,1.73-3.5Z" transform="translate(-18.98 -29)"/><path class="cls-6" d="M151.88,158.46l-4.49,7.16-.38-1.27a33.07,33.07,0,0,0,4.35-6.48A6.32,6.32,0,0,0,151.88,158.46Z" transform="translate(-18.98 -29)"/><path class="cls-9" d="M186.35,150.14s-5.49,3-11.16,2.83a4,4,0,0,0-2.89,1.1c-1.62,1.56-4.45,4-6.2,4-.38,0-11.28,2.18-11.28,2.18l-2.89-2.89s-4.3,8.4-6.35,8l3.72,4.87s7,3.08,16.27-.64H171l2.82,8.71s-1.41,11.79-2.57,14.36.38,7.56.38,7.56l10.12-.38s.52-5,1.28-5.65-2.69-22.68-2.69-22.68-2.3-12.43,6.16-16.92Z" transform="translate(-18.98 -29)"/><path class="cls-6" d="M197.37,149.36a24.93,24.93,0,0,0,12.21,4.45,3.67,3.67,0,0,1,2.09.81,20.14,20.14,0,0,1,4.41,5.27c2.82,4.62,9.74,4.1,9.74,4.1s6.73-2.11,7.11-3.76c0,0,.19,9,4.42,6.85l-5.56,6.41a4,4,0,0,1-2.81,1.36,41.18,41.18,0,0,1-8.79-.49c-4.61-.9-7.94-3.07-10.37-1.15,0,0-3.21,10-1,13.58s6,9.61,4.23,11.15-4,1.41-7.56-2.3-4-10-4-10l.89-16.14s-3.46-12.18-6.78-14.61Z" transform="translate(-18.98 -29)"/><path class="cls-6" d="M237.86,166.92l-5.58,6.44a3.86,3.86,0,0,1-1.34,1h0a3.85,3.85,0,0,1-1.46.34,40.46,40.46,0,0,1-8.79-.48c-4.31-.84-7.51-2.8-9.9-1.48a3.64,3.64,0,0,0-.48.32s-3.2,10-1,13.58,6,9.61,4.23,11.16a4.4,4.4,0,0,1-1,.65c-1.62.72-3.62.09-6.56-3-3.59-3.72-4-10-4-10l.9-16.15s-3.46-12.18-6.78-14.61l1.46-5.25a26.69,26.69,0,0,0,12.29,4.31,3.74,3.74,0,0,1,2.09.81,20.34,20.34,0,0,1,4.41,5.28c2.82,4.61,9.74,4.1,9.74,4.1a37.25,37.25,0,0,0,4.84-1.93h0a7.21,7.21,0,0,0,2.26-1.51,1.11,1.11,0,0,0,.25-.45S233.63,169.1,237.86,166.92Z" transform="translate(-18.98 -29)"/><path class="cls-9" d="M237.61,167.05,232,173.49a3.87,3.87,0,0,1-1.09.88h0a4,4,0,0,1-1.71.47,40.42,40.42,0,0,1-8.78-.49c-4.17-.81-7.29-2.66-9.64-1.6a3.24,3.24,0,0,0-.76.45s-3.2,10-1,13.58,6,9.61,4.23,11.15a4.19,4.19,0,0,1-.75.52c-1.66.92-3.71.38-6.82-2.82-3.59-3.72-4-10-4-10l.89-16.14s-3.46-12.18-6.78-14.61l1.54-5.51.18.12a26.54,26.54,0,0,0,12.28,4.32,3.68,3.68,0,0,1,2.09.81,20.14,20.14,0,0,1,4.42,5.27c2.81,4.62,9.73,4.11,9.73,4.11a38.26,38.26,0,0,0,4.85-1.93h0c1.17-.6,2.12-1.25,2.26-1.84v.32C233.3,162.11,233.86,169,237.61,167.05Z" transform="translate(-18.98 -29)"/><path class="cls-6" d="M196,143.15h-9.42a23.56,23.56,0,0,1,.17,4.52,9.7,9.7,0,0,0,10,.72C195.75,146.71,195.2,144.82,196,143.15Z" transform="translate(-18.98 -29)"/><circle class="cls-11" cx="173.26" cy="110.88" r="9.35"/><path class="cls-6" d="M190.3,138.22a9.72,9.72,0,0,1,3.11-.29c.94.19,1.73.83,2.67,1,1.8.37,3.47-1,4.83-2.19l2.94-2.67a6.11,6.11,0,0,0,1.66-2,2,2,0,0,0-.5-2.39c-1.07-.76-2.92,0-3.7-1.07a5.63,5.63,0,0,1-.48-1.71,3,3,0,0,0-2.88-1.8,12.73,12.73,0,0,0-3.54.76,20.37,20.37,0,0,1-7.53.71,4.77,4.77,0,0,0-2.06.08,2.91,2.91,0,0,0-1.68,2c-.58,2.05.42,5.35,1.41,7.19S188.31,138.46,190.3,138.22Z" transform="translate(-18.98 -29)"/><path class="cls-10" d="M190.3,138a10,10,0,0,1,3.11-.29c.94.19,1.73.84,2.67,1,1.8.38,3.47-.95,4.83-2.18l2.94-2.68a6,6,0,0,0,1.66-2,2,2,0,0,0-.5-2.39c-1.07-.75-2.92,0-3.7-1.07a5.55,5.55,0,0,1-.48-1.71,3,3,0,0,0-2.88-1.79,12.71,12.71,0,0,0-3.54.75,20.38,20.38,0,0,1-7.53.72,4.77,4.77,0,0,0-2.06.07,2.92,2.92,0,0,0-1.68,2c-.58,2,.42,5.35,1.41,7.18S188.31,138.19,190.3,138Z" transform="translate(-18.98 -29)"/><path class="cls-6" d="M174,178.39a5.32,5.32,0,0,1,3.08,1.54,5.48,5.48,0,0,0,2.81,1.66" transform="translate(-18.98 -29)"/><path class="cls-6" d="M155.53,161.47s1.67,3.74.64,4.11-.64,3.08-.64,3.08" transform="translate(-18.98 -29)"/><g class="cls-8"><path d="M156.1,160.19S167,158,167.37,158c1.76,0,4.58-2.45,6.2-4a4,4,0,0,1,1.75-1h-.14a4,4,0,0,0-2.89,1.11c-1.62,1.55-4.45,4-6.2,4-.3,0-7.27,1.38-10.1,1.94Z" transform="translate(-18.98 -29)"/><path d="M186.36,150.68v-.48a27.27,27.27,0,0,1-8.35,2.67A26,26,0,0,0,186.36,150.68Z" transform="translate(-18.98 -29)"/><path d="M172.89,200.17s-1.53-5-.37-7.56,2.56-14.35,2.56-14.35l-2.81-8.71h-5.4l-.33.12H171l2.81,8.72s-1.41,11.79-2.57,14.35.38,7.56.38,7.56l10.12-.37v-.08Z" transform="translate(-18.98 -29)"/></g><g class="cls-8"><path d="M213.39,195.88a4.93,4.93,0,0,1-.76.53c-1.65.91-3.7.37-6.81-2.83-2.85-3-3.68-7.54-3.9-9.27l-.08,1.32s.38,6.28,4,10c3.11,3.21,5.16,3.74,6.81,2.82a4.27,4.27,0,0,0,.76-.52c.54-.46.57-1.33.28-2.42A1.13,1.13,0,0,1,213.39,195.88Z" transform="translate(-18.98 -29)"/><path d="M235.79,167.24l-3.62,4.19a4,4,0,0,1-1.09.88h0a4.09,4.09,0,0,1-1.71.47,41.18,41.18,0,0,1-8.79-.49c-4.16-.81-7.28-2.66-9.64-1.6a2.88,2.88,0,0,0-.75.45s-2.07,6.45-1.75,10.85a42.19,42.19,0,0,1,1.75-8.81,3.14,3.14,0,0,1,.75-.44c2.36-1.06,5.48.79,9.64,1.6a41.18,41.18,0,0,0,8.79.49,4.09,4.09,0,0,0,1.71-.47h0a4,4,0,0,0,1.09-.87l5.57-6.43A2.2,2.2,0,0,1,235.79,167.24Z" transform="translate(-18.98 -29)"/></g><path class="cls-13" d="M72,213.38a.29.29,0,0,0,.34.05A1,1,0,0,1,72,213.38Z" transform="translate(-18.98 -29)"/><path class="cls-14" d="M110.36,151c-.68-.19-1.65-.51-2.81-.92a14.8,14.8,0,0,0,2.6-5.24l-.1,0a3.57,3.57,0,0,0,.1-.35c-2.23.91-4.7-.63-6.28-2.6s-2.64-4.42-4.36-6.24a19.87,19.87,0,0,0-2.31-2,3.2,3.2,0,0,0-1.68-.82c-1,0-1.79,1-2.76,1.24a3.72,3.72,0,0,1-1.93-.07c-2.49-.57-4.89-1.63-7.44-1.91a8.72,8.72,0,0,0-4,.46c-1.28.48-1.86,1.45-2.9,2.23s-3.34.81-4.65,1A33.6,33.6,0,0,1,67,136a11.09,11.09,0,0,0-2.76.1c-1.91.42-3.44,1.94-4.88,3.39a2.49,2.49,0,0,0-.8,1.26,1.48,1.48,0,0,0,0,.42,2.63,2.63,0,0,0,.19,1.11,14.44,14.44,0,0,0,1.85,3.68,10.83,10.83,0,0,1,1.6,2.62,5.06,5.06,0,0,1,.24,1.5,9.67,9.67,0,0,1-.17,1.62A20.32,20.32,0,0,1,61,156a7.75,7.75,0,0,0-.72,2.26,3.84,3.84,0,0,0,0,.48c-.09,2.49,2.41,4.27,2.9,6.75A3.89,3.89,0,0,1,61,169.73a2,2,0,0,0,.34.12A2.9,2.9,0,0,1,61,170q.35.14.72.24a16.84,16.84,0,0,0-3.66,4.52c-4.36,8.11-33.88,24-33.88,24l.44.25-.35.23c-2.56,1.7-8.55,6.66-3.13,12.92,0,0,4.23-6.67,7.19-9.52.13-.13.26-.24.38-.35a.86.86,0,0,1,.11.68l19.41-10.9s6.9-4.83,8.82-5.92a15.66,15.66,0,0,1,4.37-1.88l-.22.09a8.75,8.75,0,0,1,2.22-.32c3.44.06,7.16,2.57,8.39,12.54,1.64,13.34.88,15.75.35,16.07a.63.63,0,0,1-.19,0l0,0-.21,0a.31.31,0,0,0,.29.07.26.26,0,0,0,.21,0h0a1.13,1.13,0,0,0,.26,0c0,.12,0,.25,0,.38s-.16.07,0,.08h0a21.69,21.69,0,0,0,0,2.42l-4.9.29.13-.71.06-.31c1.31-.11,2.55-.49,2.7-1.55.32-2.34-2.88-3.59-5.61-3.74s-19.09.93-19.09.93-2.45,3.18,5.33,4.15l.72.37a87.19,87.19,0,0,1,9.16,6.51l.28.22-.89.73c4.81,1.08,9.46,19.47,12,27.87s8.17,8.1,12.83,6.85c4.36-1.16,4.89-13.82,5-15.41v-.16l7.75,9.57.59.73c.22.12.45.23.67.33,5.87,2.79,12.35-2.56,10.51-8.66s-4.76-15.25-6.69-19.1c-1.62-3.22-3.7-8.57-5-11.92a2.65,2.65,0,0,0,.48-.23l-.08-.42.08,0a116.42,116.42,0,0,1-2-16.58v-.6c1.4-.32,2.29-.44,2.29-.44l0-.3-.16,0,.78-8.92s2.86-6.1.67-8.63A5.38,5.38,0,0,1,99,173.8c-.37-2.33,0-6.22,5.11-9.45,7.86-5,10.92-9,10.92-9S115.17,152.4,110.36,151Zm-15.61,6.19v-4.12c1.46-.07,3,.1,4.41,0a11,11,0,0,0,2.13-.36l.35.25A38,38,0,0,1,94.75,157.17ZM72.47,221.83l1.72,1.23c.36,2,.67,3.47.69,3.58A28.45,28.45,0,0,0,72.47,221.83Z" transform="translate(-18.98 -29)"/><path class="cls-15" d="M84.92,218.44l-.34,1.84-.26,1.41-.47,2.58-4.6,3.22-1.1-.91a80.24,80.24,0,0,0-8.77-6.41,9.86,9.86,0,0,0-2.4-1.11Z" transform="translate(-18.98 -29)"/><path class="cls-6" d="M84.92,218.44l-.34,1.84a14,14,0,0,1-3-.15l-10.74.15-1.43-.11A9.76,9.76,0,0,0,67,219.06Z" transform="translate(-18.98 -29)"/><path class="cls-16" d="M81.55,219.83s5.37.92,5.67-1.38-2.76-3.52-5.36-3.69-18.26.92-18.26.92-2.76,3.69,7.21,4.3Z" transform="translate(-18.98 -29)"/><path class="cls-6" d="M84.92,218.44l-.34,1.84-.26,1.41-.47,2.58-4.6,3.22-1.1-.91a80.24,80.24,0,0,0-8.77-6.41,9.86,9.86,0,0,0-2.4-1.11Z" transform="translate(-18.98 -29)"/><path class="cls-6" d="M84.92,218.44l-.34,1.84a14,14,0,0,1-3-.15l-10.74.15-1.43-.11A9.76,9.76,0,0,0,67,219.06Z" transform="translate(-18.98 -29)"/><path class="cls-6" d="M81.55,219.83s5.37.92,5.67-1.38-2.76-3.52-5.36-3.69-18.26.92-18.26.92-2.76,3.69,7.21,4.3Z" transform="translate(-18.98 -29)"/><rect class="cls-17" x="46.23" y="115.18" width="28.08" height="33.29"/><rect class="cls-6" x="46.23" y="115.18" width="28.08" height="33.29"/><path class="cls-15" d="M32.3,201.18a4.47,4.47,0,0,0-1.71,1.21c-2.84,2.8-6.89,9.38-6.89,9.38-5.18-6.17.56-11.05,3-12.73.59-.4,1-.62,1-.62Z" transform="translate(-18.98 -29)"/><path class="cls-15" d="M84.62,154.69s1.38,9.67,6.13,12-6.13,6.6-6.13,6.6l-14.89-5.53s8.44-2.76,6.75-10.89Z" transform="translate(-18.98 -29)"/><path class="cls-15" d="M68.67,212.84l-.33,1.84-.26,1.41-.48,2.58L63,221.89,61.9,221a81.4,81.4,0,0,0-8.76-6.4,9.76,9.76,0,0,0-2.41-1.11Z" transform="translate(-18.98 -29)"/><path class="cls-6" d="M68.67,212.84l-.33,1.84a14,14,0,0,1-3-.15l-10.74.15-1.43-.11a9.79,9.79,0,0,0-2.41-1.12Z" transform="translate(-18.98 -29)"/><path class="cls-16" d="M65.28,214.22s5.38.92,5.68-1.38-2.76-3.53-5.37-3.68-18.26.92-18.26.92-2.76,3.68,7.21,4.29Z" transform="translate(-18.98 -29)"/><path class="cls-6" d="M68.06,216.1l-.47,2.57L63,221.89s-.41-.35-1.1-.91L68,216Z" transform="translate(-18.98 -29)"/><path class="cls-16" d="M98.43,251.22l-.64-.33-.56-.71-7.41-9.42v.16c0,1.57-.58,14-4.75,15.19-4.45,1.22-9.82,1.53-12.27-6.76S65.89,223,61.29,221.89l6.82-5.6s4.52,5.28,6.37,10.35c-.07-.32-3.19-14.9-.61-17.48H96.26s3.46,9.85,5.84,14.73c1.84,3.79,4.61,12.75,6.4,18.81A7.2,7.2,0,0,1,98.43,251.22Z" transform="translate(-18.98 -29)"/><path class="cls-6" d="M97.81,211.92c-3.46,2-18.64,1.21-23.59.88l-1.35-.1c-.15,0,0-.08,0-.08l.14-1.4,3.68-9.35,19.72-11.42a17.13,17.13,0,0,0-.5,5.15A120.5,120.5,0,0,0,97.81,211.92Z" transform="translate(-18.98 -29)"/><path class="cls-18" d="M97.81,211.46c-3.46,2-18.64,1.21-23.59.88l-1.35-.09h-.22l.24-.07,1.22-.32,2.6-10.43L96.43,190a17.13,17.13,0,0,0-.5,5.15A120.5,120.5,0,0,0,97.81,211.46Z" transform="translate(-18.98 -29)"/><path class="cls-6" d="M95.93,195.14c-4,.92-12.83,3.64-16.22,10.17-2.26,4.36-4.15,6.23-5.49,7l-1.34-.1,0-.08,1.21-.32,2.61-10.44L96.43,190A17.5,17.5,0,0,0,95.93,195.14Z" transform="translate(-18.98 -29)"/><path class="cls-6" d="M27.69,198.42l4.61,2.76a4.47,4.47,0,0,0-1.71,1.21c-.38-1.13-2.8-2.68-3.89-3.34C27.29,198.64,27.69,198.42,27.69,198.42Z" transform="translate(-18.98 -29)"/><path class="cls-6" d="M72.07,212.42a.29.29,0,0,1-.33,0A1.24,1.24,0,0,0,72.07,212.42Z" transform="translate(-18.98 -29)"/><path class="cls-19" d="M82.47,166.05a9.12,9.12,0,0,1-7.06-2.61S63.13,167,59,175s-32.37,23.62-32.37,23.62,4.89,2.77,4.44,4.15L49.63,192s6.59-4.76,8.44-5.83,12-7.67,14.11,10.28,0,15.82,0,15.82,3.07,1.07,7.54-7.53S98,194.13,98,194.13l.75-9s2.74-6,.64-8.5a5.28,5.28,0,0,1-1.23-2.6c-.35-2.29,0-6.12,4.9-9.31,7.53-4.89,10.43-8.9,10.43-8.9s.16-2.91-4.45-4.29-23.32-8.9-23.32-8.9l-.61,2.61,14.73,10.43s-7.37,6-13.19,5.84C86.61,161.44,87.68,165.89,82.47,166.05Z" transform="translate(-18.98 -29)"/><path class="cls-6" d="M85.31,158.9a30.23,30.23,0,0,1-.85-3.77l-8.13,2.17a8.9,8.9,0,0,1-.19,4.69,8.77,8.77,0,0,0,9.17-3.09Z" transform="translate(-18.98 -29)"/><circle class="cls-15" cx="59.58" cy="124.08" r="8.75"/><path class="cls-6" d="M83.2,133.19c2.43.27,4.74,1.31,7.13,1.88a3.48,3.48,0,0,0,1.84.07c.93-.29,1.68-1.26,2.64-1.23a2.8,2.8,0,0,1,1.6.81,18.84,18.84,0,0,1,2.21,2c1.65,1.79,2.67,4.2,4.18,6.14s3.87,3.46,6,2.57c-1.45,5.65-6.22,10-11.36,10.32-2.06.14-4.15-.29-6.15.31a5.18,5.18,0,0,1-1.55.38c-1.13,0-2.06-1-2.78-2.07-1.67-2.41-3-5.13-4.9-7.32a4,4,0,0,0-2.23-1.55,4.12,4.12,0,0,0-2.47.7,11.66,11.66,0,0,0-3.62,2.51,5,5,0,0,0-1.22,4.41,10.93,10.93,0,0,1,.76,2.46c0,1.4-1.22,2.42-1.46,3.77a12.36,12.36,0,0,0-.06,1.72,7,7,0,0,1-2.6,4.55A3.31,3.31,0,0,0,68,167.24c-.1.48,0,1-.07,1.47a2.67,2.67,0,0,1-2.45,2,7.15,7.15,0,0,1-3.69-.44,4.22,4.22,0,0,0,2.06-4.52c-.47-2.49-3-4.27-2.76-6.81a7.66,7.66,0,0,1,.69-2.24A20.32,20.32,0,0,0,63,152.43a7.2,7.2,0,0,0-.07-3.39,10.65,10.65,0,0,0-1.53-2.58,14.72,14.72,0,0,1-1.77-3.63,2.56,2.56,0,0,1-.17-1.19,2.5,2.5,0,0,1,.76-1.25c1.37-1.43,2.84-2.93,4.66-3.34a10.15,10.15,0,0,1,2.64-.1,32.19,32.19,0,0,0,4.6-.2c1.25-.15,3.39-.13,4.45-.95s1.55-1.71,2.77-2.2A8.14,8.14,0,0,1,83.2,133.19Z" transform="translate(-18.98 -29)"/><path class="cls-6" d="M88.07,223.51s5.06,10,3.53,13" transform="translate(-18.98 -29)"/><path class="cls-6" d="M97.25,250.18l-7.42-9.42v.16s-.43-3,1-2c3.09,2.23,8,5.9,8.15,6.53S98,248.62,97.25,250.18Z" transform="translate(-18.98 -29)"/><g class="cls-8"><path d="M86.76,161.44s.62,2.59-1.4,3.89a3.49,3.49,0,0,0,3.16-4A9.48,9.48,0,0,1,86.76,161.44Z" transform="translate(-18.98 -29)"/><path d="M28.46,198s28.23-15.65,32.38-23.63c3-5.72,10.13-9.15,13.93-10.64-2.77.93-12.11,4.5-15.63,11.26-4.14,8-32.37,23.62-32.37,23.62Z" transform="translate(-18.98 -29)"/><path d="M92.25,160.22a33.47,33.47,0,0,0,9.39-5.22L86.91,144.56l.34-1.43-1.41-.56-.61,2.6L100,155.61A35.47,35.47,0,0,1,92.25,160.22Z" transform="translate(-18.98 -29)"/><path d="M92.34,195.58a37.35,37.35,0,0,1,5.78-1.46l0-.3A40.78,40.78,0,0,0,92.34,195.58Z" transform="translate(-18.98 -29)"/><path d="M74.49,211.65h-.13a.27.27,0,0,1-.33,0,.93.93,0,0,0,.33,0c.5-.29,1.26-2.58-.33-15.84-1.69-14.16-8.35-13.05-12-11.42,3.72-1,8.85-.14,10.3,12,1.59,13.26.83,15.56.33,15.85A3.4,3.4,0,0,0,74.49,211.65Z" transform="translate(-18.98 -29)"/><path d="M72.67,212.27a1.24,1.24,0,0,1-.33,0A.29.29,0,0,0,72.67,212.27Z" transform="translate(-18.98 -29)"/></g><path class="cls-17" d="M83.2,132.89c2.43.27,4.74,1.32,7.13,1.88a3.48,3.48,0,0,0,1.84.07c.93-.28,1.68-1.25,2.64-1.22a2.74,2.74,0,0,1,1.6.81,17.9,17.9,0,0,1,2.21,2c1.65,1.79,2.67,4.2,4.18,6.14s3.87,3.46,6,2.57c-1.45,5.65-6.22,10-11.36,10.32-2.06.14-4.15-.29-6.15.32a5.48,5.48,0,0,1-1.55.37c-1.13,0-2.06-1.05-2.78-2.07-1.67-2.4-3-5.13-4.9-7.32a4,4,0,0,0-2.23-1.54,4,4,0,0,0-2.47.69,11.66,11.66,0,0,0-3.62,2.51,5,5,0,0,0-1.22,4.41,11,11,0,0,1,.76,2.47c0,1.39-1.22,2.41-1.46,3.76a12.42,12.42,0,0,0-.06,1.72,7,7,0,0,1-2.6,4.56A3.24,3.24,0,0,0,68,166.94c-.1.48,0,1-.07,1.48a2.66,2.66,0,0,1-2.45,2,7,7,0,0,1-3.69-.43,4.23,4.23,0,0,0,2.06-4.52c-.47-2.49-3-4.28-2.76-6.82a7.66,7.66,0,0,1,.69-2.24A20.15,20.15,0,0,0,63,152.13a7.2,7.2,0,0,0-.07-3.39,10.65,10.65,0,0,0-1.53-2.58,14.83,14.83,0,0,1-1.77-3.62,2.58,2.58,0,0,1-.17-1.2,2.5,2.5,0,0,1,.76-1.25c1.37-1.43,2.84-2.93,4.66-3.34a10.15,10.15,0,0,1,2.64-.1,30.8,30.8,0,0,0,4.6-.2c1.25-.14,3.39-.13,4.45-.95s1.55-1.71,2.77-2.19A8.14,8.14,0,0,1,83.2,132.89Z" transform="translate(-18.98 -29)"/><path class="cls-20" d="M333,113.25h0v-.13a.39.39,0,0,0,0-.15h-.06v-.31c-.15-3.49-5-10.93-6.92-8.76-1.69,1.91.87,6.73,2.17,8.9l.12.2-.07,0s-5.39,16.07-6,16.7-5.07,13.27-10.92,14.69c-1.16.28-2.12.53-2.92.76l.06-.22a23.16,23.16,0,0,0,1-3.77c.19-1.37,0-3-.69-3.7-.34-.33-.76-.37-1-.9a4.2,4.2,0,0,1-.28-1.45l-.5-6.1.35-.1c2.09-.67,4.12-2.26,4.36-4.4l-.22.07c0-.12.05-.25.06-.38-1.76.7-3.39-1.13-5.08-1.94-2.8-1.37-6-.08-8.87.23-3.26.36-6.37-1-9.7-.75-1.82.14-3.84,1.37-3.74,3.16.06,1,.75,1.81,1,2.75.72,2.28-.89,4.57-2.29,6.51a9.72,9.72,0,0,0-2,4.34c-3.24-3.39-6.75-7.31-7.16-8.78l-9.38-16.08-.58.59c-.06-.18-.12-.38-.2-.59-1.2-3.35-4.59-11.48-8.89-10s1.79,9.83,4.43,13.15l.38.46a1.27,1.27,0,0,1-.67,0l10.46,17.95s1.9,3.43,3.65,4.37c0,0,13,16.39,13.16,19.67s5.84,12,5.84,12,1.91,14.2-1.42,16.7H291c-.16.15-.32.32-.49.51C288,191.14,284.89,197,289.2,207c6.34,14.69,7.29,20.45,7.29,20.45s-12.05.62-14.43,1.09c-2.1.42-10.27.71-12.14.76-.66-.78-2.63-2.5-5.29,0-3.33,3.12-5.71,13.56-5.71,13.56s-1.27,8.43,3,6.24c0,0,5.08-7,6.5-7.34.71-.15,1.46-1.2,2-2.2l0,0h0s.17-.08.4-.17h0c1.06-.42,4-1.42,6.25-.92a115.38,115.38,0,0,0,12.27.32c-1.27,3.05-3.55,10.93-3.55,10.93s-1,7.34,2.21,7c2.26-.23,5.72-6,7.53-9.3,1.31-1,5.07-4.4,7.85-4.14l18.7-7.18s4.44-2.5,2.06-10.77c-1.88-6.58-7.24-20-9.36-25.29h0l-.06-.14-.82-2h0a31,31,0,0,1-1.7-7.42c0-.2,0-.41,0-.61a3.3,3.3,0,0,0,.73-.42s-1.74-17.64,0-19.51h0l0,0h0v0h0l0,0h0l.07-.09h0l.08-.1h0c.1-.13.21-.28.34-.47h0a12.89,12.89,0,0,0,2.32-8.74h0c0-.17-.05-.34-.08-.51h0a10.73,10.73,0,0,0-1.08-3.06,7.13,7.13,0,0,1-.14-1.21V154.6a4.51,4.51,0,0,1,.05-.54V154a.52.52,0,0,1,0-.21v-.09a1.77,1.77,0,0,1,0-.2v-.07c0-.09.05-.18.08-.27v-.05l.07-.22,0-.09.07-.18,0-.09a1.86,1.86,0,0,1,.1-.2l0-.06.15-.24,0-.07.12-.17.06-.08.14-.16.06-.07a2.08,2.08,0,0,1,.21-.21c2.06-1.88,11.25-15.76,11.25-15.76s2.22-3.13,2.22-5.15C329.45,130.3,333.37,117.23,333,113.25ZM308.29,229.94c-.23-2.14-.46-4.79-.66-7.53l3.58,5.59S310.87,229.7,308.29,229.94Z" transform="translate(-18.98 -29)"/><path class="cls-21" d="M270.89,228.76s-2.14-3.39-5.37-.31S260,241.8,260,241.8s-1.23,8.29,2.92,6.13c0,0,4.89-6.9,6.29-7.21s2.91-4.14,2.91-4.14Z" transform="translate(-18.98 -29)"/><path class="cls-21" d="M293.91,237s-2.92-1.38-3.84-.3-4,11.81-4,11.81-.92,7.06,2.15,6.75,8.44-11.36,8.44-11.36Z" transform="translate(-18.98 -29)"/><path class="cls-22" d="M293.91,237s-2.92-1.38-3.84-.3-4,11.81-4,11.81-.92,7.06,2.15,6.75,8.44-11.36,8.44-11.36Z" transform="translate(-18.98 -29)"/><path class="cls-23" d="M304,216.17l6.6,10.28s-.46,2.31-4.45,1.85l-13.65,8.59s-1.19,10.46,2.6,9.51c.62-.15,4.9-4.6,8-4.29l18.11-7.06s4.29-2.46,2-10.59-9.91-27-9.91-27l-12,6.73Z" transform="translate(-18.98 -29)"/><path class="cls-22" d="M304,216.17l6.6,10.28s-.46,2.31-4.45,1.85l-13.65,8.59s-1.19,10.46,2.6,9.51c.62-.15,4.9-4.6,8-4.29l18.11-7.06s4.29-2.46,2-10.59-9.91-27-9.91-27l-12,6.73Z" transform="translate(-18.98 -29)"/><path class="cls-23" d="M308.18,231.36c.92,5.83-4.3,6.29-4.3,6.29s-23.47.46-26.23-.15-6.45,1.07-6.45,1.07c-4.76-2.91-.92-10.12-.92-10.12s9.82-.31,12.12-.76,14-1.08,14-1.08-.92-5.68-7.06-20.1c-4.17-9.79-1.13-15.56,1.27-18.24a10.39,10.39,0,0,1,2.11-1.86l18.87.92a24.78,24.78,0,0,0,.11,2.86,30.42,30.42,0,0,0,2.5,9.41c-1.07,0-8,6.45-8,6.45S307.25,225.54,308.18,231.36Z" transform="translate(-18.98 -29)"/><path class="cls-6" d="M271.66,229.06s9.82-.3,12.12-.75,14-1.08,14-1.08-.92-5.67-7.06-20.09c-4.17-9.8-1.13-15.56,1.27-18.25a10.09,10.09,0,0,1,2.11-1.85l17.48.85v-.54l-18.87-.92a10,10,0,0,0-2.1,1.85c-2.39,2.69-5.44,8.45-1.27,18.24,6.15,14.41,7.06,20.09,7.06,20.09s-11.67.61-14,1.07-12.12.76-12.12.76-3.83,7.21.92,10.14l.38-.17C268.42,235.16,271.66,229.06,271.66,229.06Z" transform="translate(-18.98 -29)"/><rect class="cls-21" x="271.24" y="101.1" width="9.51" height="24.09"/><rect class="cls-6" x="271.24" y="101.1" width="9.51" height="24.09"/><path class="cls-21" d="M305.17,126.57c.33.09.7.1.92.55a3.35,3.35,0,0,1,.23,1.13l.6,7.45a4.11,4.11,0,0,0,.27,1.42c.26.5.67.56,1,.89.66.65.85,2.3.67,3.63a23.19,23.19,0,0,1-1,3.69,34.23,34.23,0,0,1-1.57,5.15c-.72,1.46-2,2.26-2.87,1s-.73-3.71-.89-5.74c-.27-3.39-1.59-6.31-1.68-9.72-.07-2.77.67-5.34,1.13-8,.33-1.8.35-4,.83-5.59C303.23,124.42,304,126.24,305.17,126.57Z" transform="translate(-18.98 -29)"/><path class="cls-6" d="M305.17,126.57c.33.09.7.1.92.55a3.35,3.35,0,0,1,.23,1.13l.6,7.45a4.11,4.11,0,0,0,.27,1.42c.26.5.67.56,1,.89.66.65.85,2.3.67,3.63a23.19,23.19,0,0,1-1,3.69,34.23,34.23,0,0,1-1.57,5.15c-.72,1.46-2,2.26-2.87,1s-.73-3.71-.89-5.74c-.27-3.39-1.59-6.31-1.68-9.72-.07-2.77.67-5.34,1.13-8,.33-1.8.35-4,.83-5.59C303.23,124.42,304,126.24,305.17,126.57Z" transform="translate(-18.98 -29)"/><path class="cls-24" d="M264.91,116l-3.68,3.07s-.44-.52-1.09-1.35c-2.56-3.26-8.44-11.45-4.28-12.92s7.44,6.52,8.6,9.82C264.75,115.45,264.91,116,264.91,116Z" transform="translate(-18.98 -29)"/><path class="cls-24" d="M331.34,114.91c-1.53,2.3-3.68,0-3.68,0s-.27-.41-.66-1.07c-1.26-2.14-3.74-6.87-2.1-8.75,1.89-2.14,6.55,5.17,6.7,8.61A2.05,2.05,0,0,1,331.34,114.91Z" transform="translate(-18.98 -29)"/><path class="cls-24" d="M293.6,139.77s3.07,9.82,2.15,12.73,6.6,6.3,6.6,6.3h8.59s3.07-6.29,2.3-8.13-7.36-3.22-7.36-3.22-3.84,0-3.68-10.28Z" transform="translate(-18.98 -29)"/><path class="cls-6" d="M264.91,116l-3.68,3.07s-.44-.52-1.09-1.35c1.34-.23,3.41-2.18,4.32-3.1C264.75,115.45,264.91,116,264.91,116Z" transform="translate(-18.98 -29)"/><path class="cls-6" d="M331.34,114.91c-1.53,2.3-3.68,0-3.68,0s-.27-.41-.66-1.07l.05-.16c1,.72,4.09.11,4.55,0A2,2,0,0,1,331.34,114.91Z" transform="translate(-18.98 -29)"/><path class="cls-6" d="M311.65,190.18c-4.75,2.17-20.17-1.69-21.1-1.92a10.31,10.31,0,0,1,2.11-1.85l18.87.92A27.17,27.17,0,0,0,311.65,190.18Z" transform="translate(-18.98 -29)"/><path class="cls-25" d="M295.6,148.21s-3.69,1.22-8.9-3.53c0,0-11.68-11.51-12.43-14.27l-9-15.83s-3.84,4.15-5.38,3.53L270,135.76s1.84,3.39,3.53,4.29c0,0,12.58,16.12,12.73,19.34s5.67,11.84,5.67,11.84,1.84,14-1.38,16.42c0,0,18,4.6,21.78,1.53,0,0-1.68-17.32,0-19.17,0,0,5.22-6.14,1.69-12.89,0,0-.75-3.68,1.23-5.52s10.89-15.5,10.89-15.5,2.15-3.07,2.15-5.06c0,0,4-13.51,3.39-17,0,0-3.53.76-4.6,0,0,0-5.22,15.83-5.83,16.42s-4.9,13-10.59,14.43-6.6,2-6.6,2,11,6.9,5.68,10S295.6,148.21,295.6,148.21Z" transform="translate(-18.98 -29)"/><path class="cls-6" d="M302.57,142.13a28.89,28.89,0,0,1-.22-4.36l-8.6,2.61a10.84,10.84,0,0,1,.54,1.76c1,.43,2.31,1.46,3.45,1.46A7.86,7.86,0,0,0,302.57,142.13Z" transform="translate(-18.98 -29)"/><circle class="cls-24" cx="278.61" cy="106.16" r="7.98"/><path class="cls-6" d="M288.09,122.87c-1.75.14-3.71,1.35-3.61,3.11a11.52,11.52,0,0,0,1,2.71c.7,2.24-.85,4.49-2.21,6.41s-2.64,4.44-1.47,6.47a16.33,16.33,0,0,0,1.07,1.41c1.45,1.94,1.43,4.57,2.07,6.91a12.13,12.13,0,0,0,14.25,8.67,7.61,7.61,0,0,1-1.6-5.13c.09-1.34.52-2.75,0-4-.67-1.59-2.64-2.22-3.65-3.61a5.8,5.8,0,0,1-.45-5c.49-1.66,1.33-3.2,1.74-4.9a14.91,14.91,0,0,1,.38-1.46c.7-2,2.82-3.18,4.89-3.68s4.25-.53,6.28-1.19,4-2.21,4.22-4.33c-1.7.68-3.28-1.09-4.92-1.91-2.71-1.34-5.79-.08-8.58.23C294.32,124,291.31,122.64,288.09,122.87Z" transform="translate(-18.98 -29)"/><path class="cls-21" d="M287.94,122.57c-1.75.13-3.71,1.35-3.62,3.1a12.27,12.27,0,0,0,1,2.72c.7,2.24-.86,4.49-2.22,6.4s-2.64,4.45-1.47,6.48a15.84,15.84,0,0,0,1.08,1.4c1.44,2,1.42,4.58,2.06,6.92A12.14,12.14,0,0,0,299,158.25a7.6,7.6,0,0,1-1.6-5.13c.08-1.34.52-2.74,0-4-.67-1.59-2.64-2.22-3.65-3.62a5.74,5.74,0,0,1-.46-5c.49-1.67,1.34-3.21,1.75-4.9a14.36,14.36,0,0,1,.37-1.47c.71-2,2.83-3.18,4.9-3.68s4.25-.53,6.27-1.19,4-2.2,4.22-4.32c-1.7.68-3.28-1.1-4.92-1.92-2.7-1.34-5.79-.08-8.58.23C294.17,123.64,291.17,122.31,287.94,122.57Z" transform="translate(-18.98 -29)"/><path class="cls-6" d="M305.49,152.89s3.2,2.85,3.82,4.11" transform="translate(-18.98 -29)"/><path class="cls-6" d="M312.4,169.92a34.3,34.3,0,0,0-5.83.46c-1.84.46-6.29,0-6.29,0" transform="translate(-18.98 -29)"/><g class="cls-8"><path d="M309.71,156.8a4,4,0,0,1-1.1.42,4.23,4.23,0,0,0,2.94-.42c5.37-3.07-5.67-10-5.67-10H304S315.08,153.73,309.71,156.8Z" transform="translate(-18.98 -29)"/><path d="M331.69,114.27a2.36,2.36,0,0,0,0-.28,17.61,17.61,0,0,1-1.91.29A8.48,8.48,0,0,0,331.69,114.27Z" transform="translate(-18.98 -29)"/><path d="M292.37,187.64c3.23-2.46,1.39-16.42,1.39-16.42s-5.53-8.59-5.68-11.81-12.73-19.33-12.73-19.33c-1.69-.92-3.53-4.3-3.53-4.3s-10.44-17-12-17.64L270,135.78s1.84,3.39,3.53,4.3c0,0,12.58,16.11,12.73,19.33s5.67,11.82,5.67,11.82,1.84,14-1.38,16.42c0,0,11,2.83,17.65,2.57C301.55,190,292.37,187.64,292.37,187.64Z" transform="translate(-18.98 -29)"/><path d="M295.69,148.33l-.09-.12-.33.07Z" transform="translate(-18.98 -29)"/></g><g class="cls-8"><path d="M331.65,114l-.09,0c-.17,4.72-3.44,15.79-3.44,15.79,0,2-2.14,5.06-2.14,5.06s-8.9,13.66-10.9,15.5-1.23,5.52-1.23,5.52l0,0a5.58,5.58,0,0,1,1.36-4.34c2-1.84,10.9-15.5,10.9-15.5s2.14-3.07,2.14-5.06C328.27,131,332.26,117.52,331.65,114Z" transform="translate(-18.98 -29)"/><path d="M312.17,168.77a3.41,3.41,0,0,1,.15,1.22s3.77-4.41,2.74-9.88A13.44,13.44,0,0,1,312.17,168.77Z" transform="translate(-18.98 -29)"/></g></svg>