<svg id="Layer_1" data-name="Layer 1" xmlns="http://www.w3.org/2000/svg" xmlns:xlink="http://www.w3.org/1999/xlink" viewBox="0 0 294.71 241.82"><defs><style>.cls-1{fill:#3f3d56;}.cls-2{fill:#f2f2f2;}.cls-3{opacity:0.7;}.cls-4{fill:url(#linear-gradient);}.cls-5{fill:#6c63ff;}.cls-6{opacity:0.1;}.cls-14,.cls-6{isolation:isolate;}.cls-7{fill:#eee;}.cls-10,.cls-8{fill:none;stroke-miterlimit:10;}.cls-8{stroke:#e0e0e0;stroke-width:8px;}.cls-9{fill:url(#linear-gradient-2);}.cls-10{stroke:#bdbdbd;stroke-width:5px;}.cls-11{fill:#b84733;}.cls-12{fill:#f55f44;}.cls-13{fill:#39447a;}.cls-14{opacity:0.05;}.cls-15{fill:#fda57d;}.cls-16{fill:url(#linear-gradient-3);}.cls-17{fill:#e0e0e0;}.cls-18{fill:#535461;}.cls-19{fill:url(#linear-gradient-4);}.cls-20{fill:#3e3f49;}</style><linearGradient id="linear-gradient" x1="436.82" y1="90.47" x2="436.82" y2="110.18" gradientTransform="matrix(1, 0, 0, -1, -149.8, 226.11)" gradientUnits="userSpaceOnUse"><stop offset="0" stop-color="gray" stop-opacity="0.25"/><stop offset="0.54" stop-color="gray" stop-opacity="0.12"/><stop offset="1" stop-color="gray" stop-opacity="0.1"/></linearGradient><linearGradient id="linear-gradient-2" x1="291.54" y1="-43.11" x2="291.54" y2="198.71" xlink:href="#linear-gradient"/><linearGradient id="linear-gradient-3" x1="359.92" y1="65.82" x2="359.92" y2="66.79" xlink:href="#linear-gradient"/><linearGradient id="linear-gradient-4" x1="233.28" y1="164.34" x2="233.28" y2="215.43" gradientTransform="matrix(1, 0, 0, -1, -24, 274.6)" xlink:href="#linear-gradient"/></defs><title>what-5</title><path class="cls-1" d="M68.37,221.93c0,14.62-8.7,19.72-19.42,19.72h-.74c-.5,0-1,0-1.48-.06-9.67-.69-17.19-6.06-17.19-19.65,0-14.07,18-31.83,19.33-33.15h0l.08-.08S68.37,207.3,68.37,221.93Z" transform="translate(-24 -27.4)"/><path class="cls-2" d="M48.24,239.42l7.1-9.93-7.11,11,0,1.14c-.5,0-1,0-1.48-.06L47.5,227v-.12l0,0,.07-1.38-7.14-11,7.16,10,0,.3.58-11.05-6.11-11.41,6.18,9.46.6-22.91v0l-.1,18.07,6.09-7.16-6.11,8.71-.16,9.9,5.68-9.5-5.71,11-.09,5.5L56.72,212l-8.28,15.14Z" transform="translate(-24 -27.4)"/><g class="cls-3"><path class="cls-4" d="M293.54,119.44v-3.52H275.93v16.29a3.43,3.43,0,0,0,3.43,3.43H290.1a3.43,3.43,0,0,0,3.44-3.43V128.6a4.58,4.58,0,0,0,0-9.16Zm0,7.4v-5.63a2.82,2.82,0,0,1,0,5.63Z" transform="translate(-24 -27.4)"/></g><path class="cls-5" d="M293,120a4.18,4.18,0,1,0,4.18,4.18A4.18,4.18,0,0,0,293,120Zm0,6.75a2.58,2.58,0,1,1,2.57-2.57,2.57,2.57,0,0,1-2.57,2.57Z" transform="translate(-24 -27.4)"/><path class="cls-6" d="M293,120a4.18,4.18,0,1,0,4.18,4.18A4.18,4.18,0,0,0,293,120Zm0,6.75a2.58,2.58,0,1,1,2.57-2.57,2.57,2.57,0,0,1-2.57,2.57Z" transform="translate(-24 -27.4)"/><path class="cls-5" d="M276.9,116.78H293v14.85a3.16,3.16,0,0,1-3.15,3.16h-9.77a3.16,3.16,0,0,1-3.15-3.16V116.78Z" transform="translate(-24 -27.4)"/><path class="cls-6" d="M290.08,116.78v14.87a3.15,3.15,0,0,1-3.14,3.14h1.61a3.14,3.14,0,0,0,3.13-3.14V116.78Z" transform="translate(-24 -27.4)"/><path class="cls-7" d="M280.07,104.8a.94.94,0,0,0-.71.36c-.21.38.17.81.52,1.07a7.06,7.06,0,0,1,1.76,1.64,2.07,2.07,0,0,1,.1,2.27c-.63.85-2.12,1-2.26,2.08-.1.67.48,1.24,1.07,1.57,1.45.83,3.31,1,4.36,2.35a3.42,3.42,0,0,1,2.37-1.63c1-.22,2-.2,3-.35a1,1,0,0,0,.81-.43c.28-.56-.51-1.22-.24-1.78s.81-.4,1.25-.57a1.62,1.62,0,0,0,.81-1.94,3.63,3.63,0,0,0-1.38-1.79,15.5,15.5,0,0,0-5.57-2.58,14.43,14.43,0,0,0-3-.68A14.28,14.28,0,0,0,280.07,104.8Z" transform="translate(-24 -27.4)"/><line class="cls-8" x1="143.24" y1="111.18" x2="109.63" y2="215.9"/><g class="cls-3"><path class="cls-9" d="M193.28,255.09c-4.13.24-7.81,3.7-7.81,3.7l-1.78-4.42-.15,0c.87-3.81,18.57-82.32.85-89.09-13.62-5.2-28.06-11.64-39.38-11.4V135.39h15.87v-.67h12.56c2.41-1.71-1.09-2.9-5-3.64a3.51,3.51,0,0,0,.42-.59L189,94.4s4.63-7.6,1.66-11.24-7.28,9.26-7.28,9.26l-16.52,23.8s-16.68-17.39-27.29-26a18.51,18.51,0,0,0-3.95-3c-1.94-1.31-3.4-2-4.13-1.72h0a18.33,18.33,0,0,0-4.94-.67h-1.32V82.1a21.2,21.2,0,0,0,13.1-12.41A23.83,23.83,0,0,0,140.17,49a1.17,1.17,0,0,0,.55-.19,2,2,0,0,0,.6-1.94,14.71,14.71,0,0,0-7.47-11.51c-1.67-.91-3.59-1.54-4.83-3-1.06-1.25-1.5-3-2.79-4-1.52-1.21-3.73-1-5.6-.46a20.18,20.18,0,0,0-5.84,2.76c-2,1.38-3.86,3.16-6.19,3.93-1.65.55-3.45.54-5.12,1A8.6,8.6,0,0,0,98,41a11.39,11.39,0,0,0-.47,4.22,24.31,24.31,0,0,0-2.38,5.4l-.37.21.36-.17a23.8,23.8,0,0,0,6.71,24.27A21.19,21.19,0,0,0,112,82.1v3.28a25.14,25.14,0,0,0-8.11,3.33h0l-.58.38-.1.07c-2.45,1.66-10.65,7.72-10.37,14.28a6.45,6.45,0,0,0,0,.76,25,25,0,0,0-.68,5.78v47.56a23.36,23.36,0,0,0,5,14.49c-6.89,1.54-11.29,3.88-11.29,6.5a1.83,1.83,0,0,1,0,.66c0,4.66,13.91,8.43,31.07,8.43,2.07,0,4.1-.06,6.06-.16l19.39,15.69L111.3,253.05S101.05,261,109,263.63s24.13,4.63,24.13,4.63,2.64-4.63-1-6.61-8.59-1-8.59-1l.66-4s53.88-46.28,42.64-62.14c-2.15-3-4.3-6.17-6.47-9.25l8.48.77,1.93,72.64.24-.08c-.48,1.43-3.91,12.2,3.69,10.38,8.13-1.95,22.92-8.84,22.92-8.84S197.42,254.85,193.28,255.09Zm-32.4-125L145,125.49V111.92l17.25,18.3Z" transform="translate(-24 -27.4)"/></g><circle cx="94.44" cy="32" r="23.27"/><path class="cls-5" d="M144.94,112.73l17.76,18.85a3.46,3.46,0,0,0,4.9.14,3.55,3.55,0,0,0,.66-.83L187.93,95.6l-5.5-1.94-16.16,23.27s-30.34-31.62-34.58-30.06S144.94,112.73,144.94,112.73Z" transform="translate(-24 -27.4)"/><line class="cls-10" x1="87.01" y1="150.61" x2="60.83" y2="218.48"/><line class="cls-10" x1="99.93" y1="150.61" x2="126.11" y2="218.48"/><ellipse class="cls-11" cx="93.47" cy="151.1" rx="30.38" ry="8.24"/><ellipse class="cls-12" cx="93.47" cy="150.45" rx="30.38" ry="8.24"/><line class="cls-10" x1="80.69" y1="165.52" x2="109.35" y2="174.36"/><line class="cls-10" x1="106.25" y1="165.52" x2="77.59" y2="174.36"/><path class="cls-5" d="M117.82,86.22h9a18.1,18.1,0,0,1,18.1,18.1v47.84H93.23V110.82A24.59,24.59,0,0,1,117.82,86.22Z" transform="translate(-24 -27.4)"/><path class="cls-13" d="M93.23,152.16h51.71v28.11H116.18a22.94,22.94,0,0,1-23-22.94h0v-5.17Z" transform="translate(-24 -27.4)"/><path class="cls-14" d="M93.93,105.63l31.62,30h34.9v-4.52l-30-8.73L104.69,90.67S93,97.88,93.93,105.63Z" transform="translate(-24 -27.4)"/><path class="cls-5" d="M93.93,105,125.55,135h34.9V130.5l-30-8.72L104.69,90S93,97.24,93.93,105Z" transform="translate(-24 -27.4)"/><path class="cls-15" d="M160.45,130.5s16.81,1.29,12.29,4.53H160.45Z" transform="translate(-24 -27.4)"/><path class="cls-15" d="M182.43,93.66s4.2-12.61,7.11-9-1.61,11-1.61,11Z" transform="translate(-24 -27.4)"/><polygon class="cls-14" points="69.23 124.76 69.23 126.27 120.94 126.37 120.94 124.76 69.23 124.76"/><path class="cls-13" d="M133.46,182.07l34.78,3.17,1.89,71,12.45-4s18.62-80.47.87-87.26-37-15.71-48.42-8.43S133.46,182.07,133.46,182.07Z" transform="translate(-24 -27.4)"/><path class="cls-6" d="M135.57,160.24s19.07,9.69,21.65,20.68" transform="translate(-24 -27.4)"/><path class="cls-13" d="M115.21,180l27.15,22L112,250.73l12.6,3.55s52.68-45.24,41.69-60.76-22-33.61-35.55-33.93S115.21,180,115.21,180Z" transform="translate(-24 -27.4)"/><polygon class="cls-14" points="133.87 81.13 140.66 92.76 142.27 89.53 133.87 81.13"/><rect class="cls-15" x="88.62" y="47.51" width="12.93" height="19.39" rx="6.46"/><path class="cls-14" d="M119.09,75.56A6.47,6.47,0,0,0,112.62,82v2.2a20.71,20.71,0,0,0,12.93,0V82A6.46,6.46,0,0,0,119.09,75.56Z" transform="translate(-24 -27.4)"/><circle class="cls-15" cx="95.09" cy="36.53" r="20.68"/><path class="cls-14" d="M98.4,63s5.17,1.33,8.08-4.55,5.17-9.08,17.13-5.61,14.36,3.9,14.94.61c.39-2.24-3.86-7.69-6.59-10.92A7.68,7.68,0,0,0,126.12,40h-13.5l-8.08,3.74L98.4,49.09,97.11,56.3Z" transform="translate(-24 -27.4)"/><path d="M98.4,62.34s5.17,1.33,8.08-4.55,5.17-9.08,17.13-5.61,14.36,3.9,14.94.62c.39-2.25-3.86-7.7-6.59-10.93a7.68,7.68,0,0,0-5.84-2.51h-13.5l-8.08,3.74L98.4,48.44l-1.29,7.22Z" transform="translate(-24 -27.4)"/><ellipse class="cls-15" cx="76.5" cy="34.91" rx="2.1" ry="4.2"/><path d="M99,51.5c-.48-2.71-1-5.55-.08-8.15a8.42,8.42,0,0,1,5.41-5.28c1.63-.5,3.39-.49,5-1,2.28-.75,4.06-2.5,6-3.85a19.87,19.87,0,0,1,5.72-2.7c1.83-.53,4-.73,5.48.45,1.25,1,1.69,2.71,2.73,3.93,1.2,1.43,3.08,2,4.72,2.94a14.4,14.4,0,0,1,7.3,11.25,2,2,0,0,1-.58,1.9,2.11,2.11,0,0,1-1.18.21c-8.27-.11-16.55-.23-24.78-1a60,60,0,0,0-7.69-.44A25.21,25.21,0,0,0,95.77,53" transform="translate(-24 -27.4)"/><rect class="cls-5" y="208.55" width="49.8" height="21.19" rx="10.6"/><path class="cls-16" d="M210.12,160.29a.48.48,0,0,0,.47-.5.49.49,0,0,0-.47-.47.49.49,0,0,0,0,1Z" transform="translate(-24 -27.4)"/><line class="cls-8" x1="257.25" y1="111.18" x2="290.86" y2="230.79"/><rect class="cls-17" x="109.49" y="107.68" width="181.51" height="7.07"/><path class="cls-18" d="M180.33,133.41h25.53a2.1,2.1,0,0,1,2.1,2.1h0a2.1,2.1,0,0,1-2.1,2.1H180.33a2.1,2.1,0,0,1-2.1-2.1h0A2.1,2.1,0,0,1,180.33,133.41Z" transform="translate(-24 -27.4)"/><g class="cls-3"><rect class="cls-19" x="172.33" y="59.17" width="73.9" height="51.1" rx="9.12"/></g><rect class="cls-20" x="173.65" y="60.11" width="70.01" height="50.15" rx="8.67"/><rect class="cls-18" x="174.62" y="60.11" width="70.01" height="50.15" rx="8.67"/><circle class="cls-17" cx="212.89" cy="84.84" r="2.26"/></svg>