<svg id="Layer_1" data-name="Layer 1" xmlns="http://www.w3.org/2000/svg" viewBox="0 0 397.45 218.74"><defs><style>.cls-1{fill:none;stroke:#3f3d56;stroke-miterlimit:10;}.cls-2{fill:#6c63ff;}.cls-3{fill:#57b894;}.cls-4{fill:#f2f2f2;}.cls-5{fill:#3f3d56;}.cls-6{fill:#fbbebe;}.cls-10,.cls-7{opacity:0.1;}.cls-7{isolation:isolate;}.cls-8{fill:#55536e;}.cls-9{fill:#4b4b5b;}</style></defs><title>what-4</title><rect class="cls-1" x="170.21" y="34.61" width="161.02" height="33.13"/><path class="cls-1" d="M76.12,121.17c4.59-7.17,13.29-12,23.26-12,14.75,0,26.71,10.61,26.71,23.69,0,8.37-4.89,15.72-12.27,19.94" transform="translate(-2 -39.5)"/><rect class="cls-2" x="158.81" y="41.02" width="161.02" height="33.13"/><circle class="cls-2" cx="57.02" cy="6.91" r="2.49"/><circle class="cls-2" cx="65.57" cy="6.91" r="2.49"/><circle class="cls-2" cx="74.12" cy="6.91" r="2.49"/><rect class="cls-1" x="50.26" y="0.5" width="299.24" height="194.51"/><line class="cls-1" x1="50.26" y1="11.31" x2="349.5" y2="11.31"/><circle class="cls-1" cx="57.74" cy="5.84" r="2.49"/><circle class="cls-1" cx="66.29" cy="5.84" r="2.49"/><circle class="cls-1" cx="74.84" cy="5.84" r="2.49"/><path class="cls-3" d="M13.8,112.69a7.7,7.7,0,1,0-9.49-11.37l2.88,2.73-3.7-1.15a7.66,7.66,0,0,0,.15,5.87,8,8,0,0,0,1.12,1.81A7.71,7.71,0,0,0,13.8,112.69Z" transform="translate(-2 -39.5)"/><path class="cls-1" d="M52.33,139.43c-2.81-2-2.81-6.12-2.11-9.48s1.76-7,.18-10.08c-2.28-4.38-8.27-4.65-13.19-5.12a45.64,45.64,0,0,1-10.7-2.32,12.33,12.33,0,0,1-3.92-2,14.19,14.19,0,0,1-3.49-5.23q-4.49-9.58-8.51-19.35" transform="translate(-2 -39.5)"/><path class="cls-1" d="M13.32,111.73a7.7,7.7,0,1,0-9.49-11.36l2.89,2.72L3,101.94a7.7,7.7,0,0,0,10.31,9.79Z" transform="translate(-2 -39.5)"/><path class="cls-3" d="M3.93,90.38A7.71,7.71,0,0,1,4.55,83l3.07,2.28-1.9-3.67a7.7,7.7,0,1,1-.38,10.89A8,8,0,0,1,3.93,90.38Z" transform="translate(-2 -39.5)"/><path class="cls-1" d="M3.3,89.1a7.69,7.69,0,0,1,.61-7.36L7,84,5.09,80.35A7.7,7.7,0,1,1,4.7,91.23,7.56,7.56,0,0,1,3.3,89.1Z" transform="translate(-2 -39.5)"/><path class="cls-3" d="M36.29,115.75a7.7,7.7,0,0,0-4.57-14.61L33.17,104l-3.1-2.3h0a7.7,7.7,0,0,0,6.24,14.09Z" transform="translate(-2 -39.5)"/><path class="cls-1" d="M35.6,114.5A7.7,7.7,0,0,0,31,99.89l1.45,2.82-3.1-2.3h0a7.7,7.7,0,1,0,6.23,14.08Z" transform="translate(-2 -39.5)"/><path class="cls-3" d="M39.37,130.52a7.68,7.68,0,1,0-3.11-5.37l6.05,1.35L37,127.76A7.62,7.62,0,0,0,39.37,130.52Z" transform="translate(-2 -39.5)"/><path class="cls-1" d="M38.89,129.57a7.7,7.7,0,1,0-3.11-5.38l6,1.35-5.28,1.27A7.7,7.7,0,0,0,38.89,129.57Z" transform="translate(-2 -39.5)"/><path class="cls-3" d="M373.36,203.12a7.42,7.42,0,1,0,3-13.94L376,193l-1.33-3.49a7.42,7.42,0,0,0-1.29,13.63Z" transform="translate(-2 -39.5)"/><path class="cls-1" d="M376,248.19c-.17-3.3,3-5.76,5.93-7.23s6.38-2.84,7.74-5.85c2-4.33-1.39-9-4-13a44.49,44.49,0,0,1-4.6-9.49,12,12,0,0,1-.84-4.13,13.71,13.71,0,0,1,1.89-5.76q4.59-9.07,9.6-17.94" transform="translate(-2 -39.5)"/><path class="cls-1" d="M373.8,202.19a7.42,7.42,0,1,0,3-13.94l-.35,3.8-1.33-3.49a7.42,7.42,0,0,0-1.29,13.63Z" transform="translate(-2 -39.5)"/><path class="cls-3" d="M384.4,182.39a7.42,7.42,0,0,1,6-3.91l.09,3.68,1.66-3.62a7.39,7.39,0,1,1-7.7,3.85Z" transform="translate(-2 -39.5)"/><path class="cls-1" d="M385,181.15a7.42,7.42,0,0,1,5.94-3.91l.1,3.68,1.65-3.62a7.43,7.43,0,1,1-7.69,3.85Z" transform="translate(-2 -39.5)"/><path class="cls-3" d="M384.41,222a7.42,7.42,0,0,0,8.35-12.14l-1.27,2.78-.1-3.72h0a7.41,7.41,0,1,0-7,13.08Z" transform="translate(-2 -39.5)"/><path class="cls-1" d="M385,220.71a7.41,7.41,0,0,0,8.34-12.14L392,211.34l-.1-3.72h0a7.42,7.42,0,0,0-7,13.09Z" transform="translate(-2 -39.5)"/><path class="cls-3" d="M375,233.08a7.4,7.4,0,1,0,2.23-5.55l2.58,5.39-4.1-3.25A7.32,7.32,0,0,0,375,233.08Z" transform="translate(-2 -39.5)"/><path class="cls-1" d="M375.48,232.15a7.4,7.4,0,1,0,2.23-5.55l2.58,5.39-4.1-3.25A7.32,7.32,0,0,0,375.48,232.15Z" transform="translate(-2 -39.5)"/><path class="cls-3" d="M43.37,82.05a7.7,7.7,0,1,0-9.49-11.36l2.88,2.72-3.7-1.15a7.66,7.66,0,0,0,.15,5.87,7.38,7.38,0,0,0,1.12,1.81A7.7,7.7,0,0,0,43.37,82.05Z" transform="translate(-2 -39.5)"/><path class="cls-1" d="M52.16,79.83a14.25,14.25,0,0,1-3.5-5.23Q44.19,65,40.15,55.25" transform="translate(-2 -39.5)"/><path class="cls-1" d="M42.89,81.1A7.7,7.7,0,1,0,33.4,69.73l2.88,2.73-3.7-1.15a7.63,7.63,0,0,0,.15,5.86A7.31,7.31,0,0,0,33.85,79,7.7,7.7,0,0,0,42.89,81.1Z" transform="translate(-2 -39.5)"/><path class="cls-3" d="M33.5,59.74a7.69,7.69,0,0,1,.62-7.36l3.06,2.28L35.29,51a7.69,7.69,0,1,1-1.79,8.75Z" transform="translate(-2 -39.5)"/><path class="cls-1" d="M32.86,58.46a7.69,7.69,0,0,1,.62-7.36l3.07,2.28-1.9-3.67a7.71,7.71,0,1,1-.38,10.89,7.87,7.87,0,0,1-1.41-2.14Z" transform="translate(-2 -39.5)"/><line class="cls-1" x1="144.21" y1="11.31" x2="144.21" y2="195.28"/><rect class="cls-4" x="177.87" y="101.76" width="52.37" height="7.12"/><rect class="cls-4" x="260.16" y="101.76" width="52.37" height="7.12"/><rect class="cls-1" x="180.72" y="98.2" width="52.37" height="7.12"/><rect class="cls-4" x="177.87" y="156.98" width="52.37" height="7.12"/><rect class="cls-1" x="180.72" y="153.41" width="52.37" height="7.12"/><rect class="cls-4" x="178.05" y="128.66" width="134.66" height="7.12"/><rect class="cls-1" x="180.9" y="125.81" width="134.66" height="7.12"/><rect class="cls-1" x="263.01" y="98.2" width="52.37" height="7.12"/><path class="cls-5" d="M334,116.84a8.06,8.06,0,0,0,.43,1.12,18.86,18.86,0,0,1,.23,14.2,27.25,27.25,0,0,1,3.83.22,8.1,8.1,0,0,0,3.79-.41,3.84,3.84,0,0,0,2.39-2.9c.24-1.78-1.06-3.34-2.2-4.69a10.77,10.77,0,0,1-2.63-4.7c-.37-2,.16-4.3-1.09-5.84a1.25,1.25,0,0,0-.41-.35,4.78,4.78,0,0,0-3.1.08A3.19,3.19,0,0,0,334,116.84Z" transform="translate(-2 -39.5)"/><path class="cls-5" d="M369.38,245.84a8.75,8.75,0,0,1-.42,1.75s-1.3,3-6.62,2.18c-3.48-.53-3.45-2.16-2.88-3.42a8.87,8.87,0,0,1,1-1.48c.52-.7.47-3.36.65-5.8s1.28-2.56,1.28-2.56l.07,2.74c2.07-2.72,3.52.47,3.52.47s2.95.06,2.59-1.45-1-4.16-1-4.16,1.43.66,1.68,1.13a36.79,36.79,0,0,1-.28,7.3,4.26,4.26,0,0,0,.34,2.67A1.06,1.06,0,0,1,369.38,245.84Z" transform="translate(-2 -39.5)"/><path class="cls-6" d="M368.39,238.11a2.9,2.9,0,0,1-2,2.76,3.89,3.89,0,0,1-3.42-.52,2,2,0,0,1-.84-1.87l.08-.69.3-2.51.41-3.46s4.41-2.25,4.12-1.4a13.42,13.42,0,0,0,.48,3.41c.25,1.19.55,2.49.82,3.6A2.62,2.62,0,0,1,368.39,238.11Z" transform="translate(-2 -39.5)"/><path class="cls-7" d="M361.84,237.92s3.82-4.49,6.94.41l-.52,3.13h-6.42Z" transform="translate(-2 -39.5)"/><path class="cls-5" d="M361.84,238.23s3.82-4.49,6.94.41l-.52,3.13h-6.42Z" transform="translate(-2 -39.5)"/><circle class="cls-4" cx="364.8" cy="201.11" r="0.39"/><circle class="cls-4" cx="359.84" cy="200.49" r="0.39"/><circle class="cls-4" cx="363.46" cy="203.74" r="0.39"/><circle class="cls-4" cx="360.07" cy="203.28" r="0.39"/><circle class="cls-4" cx="364.21" cy="202.51" r="0.39"/><circle class="cls-4" cx="359.84" cy="201.89" r="0.39"/><circle class="cls-4" cx="363.07" cy="205.19" r="0.39"/><circle class="cls-4" cx="360.07" cy="204.68" r="0.39"/><path class="cls-6" d="M336.25,250.54,331,252.33s-2.8-2.8-2-3.65a7.89,7.89,0,0,0,.84-2.85c.07-.4.13-.81.19-1.2.18-1.26.29-2.32.29-2.32s6.14-2.95,5.13,0a7.28,7.28,0,0,0-.3,2.58,18.91,18.91,0,0,0,.33,2.59A24.64,24.64,0,0,0,336.25,250.54Z" transform="translate(-2 -39.5)"/><path class="cls-7" d="M336.25,250.54,331,252.33s-2.8-2.8-2-3.65a7.89,7.89,0,0,0,.84-2.85,5.36,5.36,0,0,1,.61,1.72c4.57,2.51,4.65,1,4.65,1a2.79,2.79,0,0,1,.38-1.08A24.64,24.64,0,0,0,336.25,250.54Z" transform="translate(-2 -39.5)"/><path class="cls-5" d="M337.42,254.62s-.92.68-3.6.78a14.7,14.7,0,0,0-2.09.24,26.5,26.5,0,0,1-8.57.23,20.48,20.48,0,0,1-2.18-.43c-2.76-.76-.66-2.51-.66-2.51l.36-.28a7.62,7.62,0,0,1,3-1.45c1.73-.27,3.32-3.34,3.32-3.34l1.09-2c1.69-1.45,2.27,2,2.27,2,4.57,2.51,4.65,1,4.65,1,.25-1.34.72-1.34.72-1.34s1.13,3.07,1.54,3.83a.91.91,0,0,0,.11.16C337.69,251.79,337.42,254.62,337.42,254.62Z" transform="translate(-2 -39.5)"/><circle class="cls-4" cx="328.38" cy="209.65" r="0.39"/><circle class="cls-4" cx="326.16" cy="210.73" r="0.39"/><circle class="cls-4" cx="327.36" cy="210.18" r="0.39"/><circle class="cls-4" cx="324.91" cy="211.37" r="0.39"/><path class="cls-7" d="M335.4,242.31a7.28,7.28,0,0,0-.3,2.58,15.07,15.07,0,0,0-5.12-.26c.18-1.26.29-2.32.29-2.32S336.41,239.36,335.4,242.31Z" transform="translate(-2 -39.5)"/><path class="cls-7" d="M367.5,233.83c-1.91,1.87-3.74,2-5,1.45l.41-3.46s4.41-2.25,4.12-1.4A13.42,13.42,0,0,0,367.5,233.83Z" transform="translate(-2 -39.5)"/><path class="cls-5" d="M334,170.05a7.8,7.8,0,0,0-3.58,5c-.54,3.34-1.47,7.62-2.17,8.39s-2.88,3.27-2,4.59,1,5.83,1,5.83-.31,4,.54,5.36,1.56,9.71-.31,12.19c0,0-.62,5.75-.39,6.3s-1,1.94-.62,3.11,2.25,22.6,2,23.46c0,0,5.91-.86,7.46.54a15.33,15.33,0,0,0,0-4c-.31-1.63.23-8.08.93-9.71s.86-7.85.62-8.47c0,0,1.25-5.52.78-6.6s2-11.11,2-11.11,1.24-2.41.93-2.72c0,0,2-1.32,1.79-2.33s1.86-2.18,1.86-2.18a42.8,42.8,0,0,0,2.49,5.28c.62.7.65,5.21,1.41,6.14s1.78,5.83,2.79,7.15,5.05,4.82,5.67,8.78c0,0,3.65,5.67,3.49,7.46s4.12,5.05,8.24-1a5.4,5.4,0,0,1-2.18-4.43c0-3-3.26-12.74-3.26-12.74s-1.86-2.72-1.17-4,.08-5.21.08-5.21l1.48-2.41s.23-2.33.46-4.74-1.39-5.05-.62-6.21-.31-7-.31-7-1-10-2.41-10.65S334,170.05,334,170.05Z" transform="translate(-2 -39.5)"/><path class="cls-6" d="M341.08,156s-1.6.18-3.54.37c-2.8.26-6.32.53-6.74.25-.71-.46,0-6.37,0-6.37s.24-6.45,0-11a9.8,9.8,0,0,1,3.15-7.23l.35-.31.77.62,4.43,7.54Z" transform="translate(-2 -39.5)"/><path class="cls-6" d="M358.39,131.21,354,133.85l-7.15,5.44s-7.38-3.89-5.51-6.14a3.59,3.59,0,0,0,.68-1.53c.56-2.59-.68-6.32-.68-6.32s9.72-13.13,9.17-3c-.23,4.09,1,6.32,2.54,7.53A7.55,7.55,0,0,0,358.39,131.21Z" transform="translate(-2 -39.5)"/><path class="cls-7" d="M358.39,131.21,354,133.85l-7.15,5.44s-7.38-3.89-5.51-6.14a3.59,3.59,0,0,0,.68-1.53c.56-2.59-.68-6.32-.68-6.32s9.72-13.13,9.17-3c-.23,4.09,1,6.32,2.54,7.53A7.55,7.55,0,0,0,358.39,131.21Z" transform="translate(-2 -39.5)"/><ellipse class="cls-7" cx="343.04" cy="80.03" rx="9" ry="9.53"/><ellipse class="cls-6" cx="343.04" cy="79.72" rx="9" ry="9.53"/><path class="cls-7" d="M358.39,131.21,354,133.85l-7.15,5.44s-7.38-3.89-5.51-6.14a3.59,3.59,0,0,0,.68-1.53c8.14,7,10.62-.24,11-1.74A7.55,7.55,0,0,0,358.39,131.21Z" transform="translate(-2 -39.5)"/><path class="cls-7" d="M341.08,156s-1.6.18-3.54.37c-.07-1.68-.33-3.57-.28-4.72.08-1.94.08-2.18-.54-3.26a5.22,5.22,0,0,1-.47-3.34c.07-1.34-.28-1.61-1.54-3.75,0-.1-.11-.19-.17-.29a10.87,10.87,0,0,1-.8-4.82v0c0-.43,0-.86,0-1.27v0c.05-1.23.15-2.28.2-2.78l.35-.31.77.62,4.43,7.54Z" transform="translate(-2 -39.5)"/><path class="cls-8" d="M364.05,132.35l.93.71c-2.81-1.21-4.41,4.9-4.84,6.83-.08.35-.12.56-.12.56s.05.52.12,1.34c.21,2.75.57,8.9-.27,10.39a2.37,2.37,0,0,0-.2.5,10.52,10.52,0,0,0-.1,3.6,34.76,34.76,0,0,0,.69,4.06s1.86,4.74,1.08,7.85a11.57,11.57,0,0,0-.22,3.52,20.52,20.52,0,0,0,.49,3.22c.07.31.12.48.12.48a32.74,32.74,0,0,1-3.43,1,33.15,33.15,0,0,1-6.65.9,29.48,29.48,0,0,1-19.15-6.07l-.29-.25c-1.09-1,1-1.79.78-2.49s1.06-2.25,1.06-2.25-.29-2.57.88-3.11,2-2.41,2.68-4-.12-5.6,0-7.54.08-2.18-.54-3.26a5.29,5.29,0,0,1-.47-3.34c.08-1.34-.28-1.61-1.54-3.75,0-.1-.11-.19-.17-.29-.62-1.07.35-2.91.34-4.73h.36c0-.43-.73-1-.72-1.42,0,0-.35-.34-.35-.36a12,12,0,0,0-.17-2.74c6.21-3.18,7.69.13,7.69.13,9.09,7.83,11.15-1.95,11.15-1.95,5-1.69,11.46,2.87,11.83,3.13Z" transform="translate(-2 -39.5)"/><path class="cls-6" d="M330.69,155.2s-.77,4.15,1.48,6.46a2.51,2.51,0,0,0,2.92.51,4,4,0,0,0,1.9-1.62C337.61,159.18,335.67,152.44,330.69,155.2Z" transform="translate(-2 -39.5)"/><path class="cls-7" d="M359.87,152.18a2.37,2.37,0,0,0-.2.5l.35-9.08.12-1.81C360.35,144.54,360.71,150.69,359.87,152.18Z" transform="translate(-2 -39.5)"/><path class="cls-7" d="M361.34,168.19a11.57,11.57,0,0,0-.22,3.52l-1.22,2.19-.34.62a14.79,14.79,0,0,0-1.26,1.89,3.68,3.68,0,0,0-.53,1.54c0,1.19-1.2,9.16-6.91,7.18-3.69-1.28-1.34-5.2.79-7.82a28.15,28.15,0,0,1,2.28-2.48s.65-.84,1.29-1.72a10.5,10.5,0,0,0,1.11-1.77c.28-.78,2.07-4.2,2.07-4.2s1.78-3.77,1.39-5.52a33.41,33.41,0,0,1-.22-5.34,34.76,34.76,0,0,0,.69,4.06S362.12,165.08,361.34,168.19Z" transform="translate(-2 -39.5)"/><path class="cls-6" d="M365,133.07s2.79,1.94,2.72,7-1,13.79-1,13.79l-.59,5.44a11.06,11.06,0,0,0-.62,2.88c.12.66-6.1,11.73-6.1,11.73s-1.78,2.23-1.78,3.43-1.21,9.16-6.92,7.17,3.07-10.29,3.07-10.29a26.87,26.87,0,0,0,2.41-3.5c.27-.77,2.06-4.19,2.06-4.19s1.78-3.77,1.4-5.52-.16-8.09-.16-8.09l.39-9.93.15-2.53S361.46,132.06,365,133.07Z" transform="translate(-2 -39.5)"/><path class="cls-2" d="M335.33,151.61l4.24-1.54a2,2,0,0,1,2.06.43l5.63,5.31s.31.85-.11.81-6.47-6.09-6.47-6.09l-6,2h0A1,1,0,0,1,335.33,151.61Z" transform="translate(-2 -39.5)"/><polygon class="cls-9" points="339.33 119.24 345.15 117.13 338.68 111.03 332.67 113.05 339.33 119.24"/><circle class="cls-4" cx="330.57" cy="136.17" r="0.52"/><circle class="cls-4" cx="327.05" cy="142.83" r="0.52"/><circle class="cls-4" cx="355.19" cy="145.25" r="0.52"/><circle class="cls-4" cx="358.12" cy="154.65" r="0.52"/><circle class="cls-4" cx="356.97" cy="152" r="0.52"/><circle class="cls-4" cx="355.98" cy="148.63" r="0.52"/><circle class="cls-4" cx="328.69" cy="139.32" r="0.52"/><circle class="cls-4" cx="325" cy="146.28" r="0.52"/><path class="cls-2" d="M365,133.06h0c-2.81-1.21-4.41,4.9-4.84,6.83l-4.42-6.33s-1.81,2.9-7.66,3.35a6.74,6.74,0,0,1-7.28-4.46c-.8-.06-4.44,6.49-5.76,8.84,0-.1-.11-.19-.17-.29a11,11,0,0,1-.8-4.82v0c0-.42,0-.85,0-1.27v0c.07-1.72.24-3.09.24-3.09,6.21-3.18,7.69.13,7.69.13,9.09,7.83,11.15-1.95,11.15-1.95C358.1,128.24,364.61,132.8,365,133.06Z" transform="translate(-2 -39.5)"/><path class="cls-7" d="M330.5,189.87c.08.19,6.6,7.73,9,8.11S330.5,189.87,330.5,189.87Z" transform="translate(-2 -39.5)"/><path class="cls-7" d="M335.17,178.31s.07,5.31-1.56,6.51S335.17,178.31,335.17,178.31Z" transform="translate(-2 -39.5)"/><path class="cls-7" d="M338.19,180.19s-.15,6.26,2.18,7.73C340.37,187.92,336.09,183.77,338.19,180.19Z" transform="translate(-2 -39.5)"/><path class="cls-7" d="M335.32,212.32s-4.35,3.22-5.56,3.46S335.32,212.32,335.32,212.32Z" transform="translate(-2 -39.5)"/><path class="cls-7" d="M334.23,113.66c-.94.79-.6,2.43.36,3.19a5.7,5.7,0,0,0,3.49.92,31.76,31.76,0,0,1,7,.5,5.72,5.72,0,0,1,2.71,1.39,6.1,6.1,0,0,1,1.4,2.79,15.41,15.41,0,0,1,.48,4.68,16.12,16.12,0,0,0-.07,3.18,10.18,10.18,0,0,0,1,2.82,118.22,118.22,0,0,0,6,11.14,1.59,1.59,0,0,0,2.57.57,12.84,12.84,0,0,1-.55-3.37,1.49,1.49,0,0,0,1.59-.56,4.37,4.37,0,0,0,.73-1.63l1-3.6c.33-1.11.8-2.39,1.92-2.72a7.65,7.65,0,0,0,1.17-.27,1.52,1.52,0,0,0,.73-1.49,3.28,3.28,0,0,0-.7-1.58c-1.58-2.11-4.2-3.37-5.43-5.7-1.05-2-.87-4.42-.52-6.65s.83-4.54.3-6.74a9,9,0,0,0-3.47-5,14.09,14.09,0,0,0-5.66-2.33,5.81,5.81,0,0,0-2.87,0c-.71.24-1.31.71-2,1-1.57.64-3.37.26-5,.67a6.74,6.74,0,0,0-3.71,2.68,14.31,14.31,0,0,0-1.94,4.22c-.3,1,.18,1.39-.7,1.92" transform="translate(-2 -39.5)"/><path class="cls-5" d="M334.39,113.35c-.94.79-.6,2.43.35,3.19a5.71,5.71,0,0,0,3.5.92,31.81,31.81,0,0,1,7,.5,5.69,5.69,0,0,1,2.7,1.39,6.12,6.12,0,0,1,1.41,2.79,15.38,15.38,0,0,1,.48,4.68,15.39,15.39,0,0,0-.07,3.18,9.87,9.87,0,0,0,1,2.82,116.83,116.83,0,0,0,6,11.13,2,2,0,0,0,.78.86,2.09,2.09,0,0,0,1.78-.28,13.26,13.26,0,0,1-.55-3.37,1.5,1.5,0,0,0,1.6-.56,4.43,4.43,0,0,0,.72-1.63l1.05-3.6c.32-1.12.8-2.39,1.91-2.72a7,7,0,0,0,1.18-.28,1.49,1.49,0,0,0,.72-1.48,3.11,3.11,0,0,0-.7-1.58c-1.57-2.12-4.19-3.37-5.42-5.7-1.06-2-.87-4.42-.52-6.66s.83-4.53.29-6.73a9,9,0,0,0-3.46-5,14.13,14.13,0,0,0-5.67-2.33,5.66,5.66,0,0,0-2.86,0c-.71.24-1.31.71-2,1-1.57.64-3.38.26-5,.67a6.74,6.74,0,0,0-3.71,2.68,14.07,14.07,0,0,0-1.94,4.22c-.31,1,.18,1.39-.7,1.92" transform="translate(-2 -39.5)"/><path class="cls-6" d="M333.41,155.68s7.11-4.74,9.13-1.83-6.25,6.49-6.25,6.49Z" transform="translate(-2 -39.5)"/><path class="cls-5" d="M335.74,133.16c0,.46-.12,1-.37,1.1.66,0,1.32.47,2,.33a2,2,0,0,0,1.25-1.29.55.55,0,0,1,.17-.27c.07-.05.14,0,.21,0a20,20,0,0,1,3.58,2.7c.36.33.77.7,1.17.52a9,9,0,0,0-.77-3.73,4.73,4.73,0,0,0-2-2.23,6.1,6.1,0,0,0-2.4-.62,2.45,2.45,0,0,1-1-.26c-.35-.21-1.48-1.56-1.73-.58a10.43,10.43,0,0,0,0,2C335.8,131.64,335.78,132.4,335.74,133.16Z" transform="translate(-2 -39.5)"/><g class="cls-10"><path d="M358.24,144a2.09,2.09,0,0,1-.79-.85,117,117,0,0,1-6-11.14,10.07,10.07,0,0,1-1-2.82,16.12,16.12,0,0,1,.07-3.18,15.41,15.41,0,0,0-.48-4.68,6.1,6.1,0,0,0-1.4-2.79,5.72,5.72,0,0,0-2.71-1.39,31.76,31.76,0,0,0-7-.5,5.76,5.76,0,0,1-3.49-.91,2.43,2.43,0,0,1-.8-2.56,1.56,1.56,0,0,1-.2.16c-.91.79-.57,2.41.38,3.17a5.7,5.7,0,0,0,3.49.92,31.76,31.76,0,0,1,7,.5,5.65,5.65,0,0,1,2.7,1.39,6,6,0,0,1,1.41,2.79,15.38,15.38,0,0,1,.48,4.68,16.12,16.12,0,0,0-.07,3.18,10.18,10.18,0,0,0,1,2.82,116.83,116.83,0,0,0,6,11.13,1.58,1.58,0,0,0,2.57.58c0-.15-.09-.31-.14-.47A1.38,1.38,0,0,1,358.24,144Z" transform="translate(-2 -39.5)"/><path d="M334.31,113.43l.1-.06,0,0Z" transform="translate(-2 -39.5)"/><path d="M335,112.59l-.1.07.12-.09,0,0c.74-.51.31-.91.6-1.85a14.52,14.52,0,0,1,1.9-4.16,6.64,6.64,0,0,0-.58.71,14.31,14.31,0,0,0-1.94,4.22,6.77,6.77,0,0,0-.15,1.26A1.45,1.45,0,0,1,335,112.59Z" transform="translate(-2 -39.5)"/><path d="M365.92,131.6a7.65,7.65,0,0,1-1.17.27,2.27,2.27,0,0,0-1.3,1.15,1.81,1.81,0,0,1,.68-.37,6.65,6.65,0,0,0,1.17-.28,1.36,1.36,0,0,0,.65-.78Z" transform="translate(-2 -39.5)"/><path d="M359.47,140.38c0,.27,0,.54,0,.81a1.75,1.75,0,0,0,.92-.59,2.63,2.63,0,0,0,.31-.48A1.36,1.36,0,0,1,359.47,140.38Z" transform="translate(-2 -39.5)"/></g><path class="cls-7" d="M331.69,154.76a7.63,7.63,0,0,1,3-.59" transform="translate(-2 -39.5)"/><path class="cls-7" d="M337.1,163.29s.95,1.48,5.76,2.1S337.1,163.29,337.1,163.29Z" transform="translate(-2 -39.5)"/><path class="cls-7" d="M335.37,168.81a13.64,13.64,0,0,0,11.27,2.41C353.58,169.82,335.37,168.81,335.37,168.81Z" transform="translate(-2 -39.5)"/><line class="cls-1" x1="313.95" y1="218.25" x2="385.2" y2="207.21"/><path class="cls-2" d="M66.91,137.83c0,9.31,6.12,17.35,15,21.17L69.21,128.26A21.19,21.19,0,0,0,66.91,137.83Zm44.54-1.19a11.4,11.4,0,0,0-2.19-6.48c-1.35-1.94-2.62-3.58-2.62-5.52a4.33,4.33,0,0,1,4.47-4.17l.34,0a28.52,28.52,0,0,0-18-6.18,27.61,27.61,0,0,0-22.22,10.6l1.72,0c2.78,0,7.08-.3,7.08-.3a1,1,0,1,1,.17,1.94s-1.44.15-3,.23l9.68,25.47,5.82-15.44-4.14-10c-1.43-.07-2.79-.22-2.79-.22a1,1,0,1,1,.17-1.94s4.39.3,7,.3c2.78,0,7.09-.3,7.09-.3a1,1,0,1,1,.17,1.94s-1.45.15-3,.22l9.61,25.29,2.65-7.84c1.15-3.26,2-5.59,2-7.61Z" transform="translate(-2 -39.5)"/><path class="cls-2" d="M94,139.89l-8,20.5a29.86,29.86,0,0,0,16.34-.37,1.35,1.35,0,0,1-.19-.33Zm22.86-13.34A16.32,16.32,0,0,1,117,129a20.11,20.11,0,0,1-2,8.42l-8.13,20.77c7.91-4.08,13.23-11.65,13.23-20.33a21.33,21.33,0,0,0-3.26-11.28Z" transform="translate(-2 -39.5)"/></svg>