<svg id="Layer_1" data-name="Layer 1" xmlns="http://www.w3.org/2000/svg" viewBox="0 0 360.59 436.66"><defs><style>.cls-1{fill:#3f3d56;}.cls-2{fill:#e6e8ec;}.cls-3{fill:#fff;}.cls-4{fill:#f2f2f2;}.cls-5{fill:#e6e6e6;}.cls-6{fill:#6c63ff;}.cls-7{fill:#ffb9b9;}.cls-8{fill:#2f2e41;}.cls-9{opacity:0.2;isolation:isolate;}</style></defs><title>why-2</title><path class="cls-1" d="M403.07,158.59V208a1.72,1.72,0,0,1-1.72,1.72h-1.23V467a26.85,26.85,0,0,1-26.85,26.84H212.5A26.83,26.83,0,0,1,185.66,467h0V218.73h-.89a1.22,1.22,0,0,1-1.22-1.21V189.41a1.22,1.22,0,0,1,1.22-1.22h.89V177.6h-.9a1.27,1.27,0,0,1-1.27-1.27V148.6a1.27,1.27,0,0,1,1.27-1.27h.9V132.87h-.91a1.12,1.12,0,0,1-1.13-1.12h0V116.61a1.13,1.13,0,0,1,1.13-1.13h.91V84.84A26.84,26.84,0,0,1,212.5,58H373.27a26.85,26.85,0,0,1,26.85,26.84v72h1.23A1.72,1.72,0,0,1,403.07,158.59Z" transform="translate(-144 -58)"/><path class="cls-2" d="M274.51,71.77h26.12a1.9,1.9,0,0,1,1.91,1.91h0v2.26a1.91,1.91,0,0,1-1.91,1.91H274.51a1.92,1.92,0,0,1-1.92-1.91h0V73.68A1.91,1.91,0,0,1,274.51,71.77Z" transform="translate(-144 -58)"/><circle class="cls-2" cx="166.52" cy="16.81" r="3.45"/><path class="cls-3" d="M387.27,90.14V469.25a17,17,0,0,1-17,17H216.33a17,17,0,0,1-17-17h0V90.15a17,17,0,0,1,17-17h23v2.95a14,14,0,0,0,14,14h78.27a14,14,0,0,0,14-14V73.12h24.54a17,17,0,0,1,17,17Z" transform="translate(-144 -58)"/><path class="cls-4" d="M387.27,418.36v50.89a17,17,0,0,1-17,17H216.33a17,17,0,0,1-17-17h0V418.36Z" transform="translate(-144 -58)"/><path class="cls-5" d="M215.82,120.56a2.26,2.26,0,0,0-2.26,2.25v40.61a2.26,2.26,0,0,0,2.26,2.26h40.61a2.26,2.26,0,0,0,2.26-2.26V122.81a2.26,2.26,0,0,0-2.26-2.25Z" transform="translate(-144 -58)"/><path class="cls-5" d="M273,120.56a2.25,2.25,0,0,0-2.25,2.25v40.61a2.26,2.26,0,0,0,2.25,2.26h40.61a2.26,2.26,0,0,0,2.26-2.26V122.81a2.26,2.26,0,0,0-2.26-2.25Z" transform="translate(-144 -58)"/><path class="cls-5" d="M330.13,120.56a2.26,2.26,0,0,0-2.26,2.25v40.61a2.26,2.26,0,0,0,2.26,2.26h40.61a2.27,2.27,0,0,0,2.26-2.26V122.81a2.27,2.27,0,0,0-2.26-2.25Z" transform="translate(-144 -58)"/><path class="cls-5" d="M215.91,183a2.25,2.25,0,0,0-2.25,2.25v40.61a2.26,2.26,0,0,0,2.25,2.26h40.61a2.26,2.26,0,0,0,2.26-2.26V185.23a2.26,2.26,0,0,0-2.26-2.25Z" transform="translate(-144 -58)"/><path class="cls-5" d="M273.07,183a2.26,2.26,0,0,0-2.26,2.25v40.61a2.26,2.26,0,0,0,2.26,2.26h40.61a2.26,2.26,0,0,0,2.25-2.26V185.23a2.25,2.25,0,0,0-2.25-2.25Z" transform="translate(-144 -58)"/><path class="cls-5" d="M330.22,183a2.25,2.25,0,0,0-2.25,2.25v40.61a2.26,2.26,0,0,0,2.25,2.26h40.61a2.26,2.26,0,0,0,2.26-2.26V185.23a2.26,2.26,0,0,0-2.26-2.25Z" transform="translate(-144 -58)"/><path class="cls-5" d="M216,245.4a2.26,2.26,0,0,0-2.26,2.25v40.61a2.26,2.26,0,0,0,2.26,2.26h40.61a2.26,2.26,0,0,0,2.25-2.26V247.65a2.25,2.25,0,0,0-2.25-2.25Z" transform="translate(-144 -58)"/><path class="cls-5" d="M273.16,245.4a2.25,2.25,0,0,0-2.25,2.25v40.61a2.26,2.26,0,0,0,2.25,2.26h40.61a2.26,2.26,0,0,0,2.26-2.26V247.65a2.26,2.26,0,0,0-2.26-2.25Z" transform="translate(-144 -58)"/><path class="cls-5" d="M330.32,245.4a2.26,2.26,0,0,0-2.26,2.25v40.61a2.26,2.26,0,0,0,2.26,2.26h40.61a2.26,2.26,0,0,0,2.25-2.26V247.65a2.25,2.25,0,0,0-2.25-2.25Z" transform="translate(-144 -58)"/><path class="cls-6" d="M215.91,429.64a2.26,2.26,0,0,0-2.25,2.26v40.61a2.26,2.26,0,0,0,2.25,2.26h40.61a2.26,2.26,0,0,0,2.26-2.26V431.9a2.26,2.26,0,0,0-2.26-2.26Z" transform="translate(-144 -58)"/><path class="cls-6" d="M273.07,429.64a2.26,2.26,0,0,0-2.26,2.26v40.61a2.26,2.26,0,0,0,2.26,2.26h40.61a2.26,2.26,0,0,0,2.25-2.26V431.9a2.26,2.26,0,0,0-2.25-2.26Z" transform="translate(-144 -58)"/><path class="cls-6" d="M330.22,429.64A2.26,2.26,0,0,0,328,431.9v40.61a2.26,2.26,0,0,0,2.25,2.26h40.61a2.26,2.26,0,0,0,2.26-2.26V431.9a2.26,2.26,0,0,0-2.26-2.26Z" transform="translate(-144 -58)"/><path class="cls-5" d="M216.1,307.81a2.26,2.26,0,0,0-2.25,2.26v40.61a2.26,2.26,0,0,0,2.25,2.26h40.61a2.26,2.26,0,0,0,2.26-2.26V310.07a2.26,2.26,0,0,0-2.26-2.26Z" transform="translate(-144 -58)"/><path class="cls-7" d="M444.81,334.82,446.87,345A8.59,8.59,0,0,0,457,351.73l.26-.06h0a8.58,8.58,0,0,0,6.4-10.32,8.42,8.42,0,0,0-1.36-3l-6-8.38L441.6,289.54l2.69-34.62c-8.46-3.17-17.07-6.73-21.74-.46l5.8,37.88Z" transform="translate(-144 -58)"/><path class="cls-6" d="M453,341.76a2,2,0,0,0-2,2v35.57a2,2,0,0,0,2,2h35.58a2,2,0,0,0,2-2V343.74a2,2,0,0,0-2-2Z" transform="translate(-144 -58)"/><path class="cls-8" d="M462.49,203.24c0-.21,0-.41,0-.63A23.87,23.87,0,0,0,438.65,179a23.47,23.47,0,0,0-16.85,7.1,24.28,24.28,0,0,0-7,17.11V227h47.67Z" transform="translate(-144 -58)"/><path class="cls-8" d="M449.36,489.62h0a4.93,4.93,0,0,0-2.21-4.84l-14.17-7-10.69,1.35-2.52,9.05a4.82,4.82,0,0,0,4,5.54l.25,0,19.94,0A4.92,4.92,0,0,0,449.36,489.62Z" transform="translate(-144 -58)"/><polygon class="cls-8" points="256.25 287.22 257.9 297.72 258.05 298.68 264.36 339.05 266.31 351.52 266.91 355.35 268.57 367.42 276.32 423.65 289.78 420.6 290.42 355.78 290.53 344.65 290.63 335.24 290.73 326.97 291.1 293.69 256.25 287.22"/><circle class="cls-7" cx="299.65" cy="143.89" r="18.05"/><path class="cls-7" d="M423.65,232.72,444.1,243a50.29,50.29,0,0,1,6.32-29.18l-17.75-2.7C432.43,218.19,428.83,225.43,423.65,232.72Z" transform="translate(-144 -58)"/><path class="cls-5" d="M413.72,303.11l36.09,7.82,3-23.46c2-10,5.49-19.85-.69-27.74l-.91-8.11a26.2,26.2,0,0,0-12.14-19.29l-10.92-6.82C405.53,237.75,406.44,268,413.72,303.11Z" transform="translate(-144 -58)"/><polygon class="cls-9" points="266.31 351.52 266.91 355.35 268.57 367.42 290.42 355.78 290.53 344.65 290.63 335.24 266.31 351.52"/><path class="cls-9" d="M400.25,345.22l1.65,10.5.15,1a39.42,39.42,0,0,0,10.05,11.17L434.73,385l.37-33.28Z" transform="translate(-144 -58)"/><path class="cls-8" d="M405,408.68l4.21,14.14,54.4-29a14.57,14.57,0,0,0,5.33-19.9,14.76,14.76,0,0,0-1.67-2.33L437.48,337.7l13.24-29.78L412.82,298l-4.21,9q-13.2,12.32-11.88,28.74a38.69,38.69,0,0,0,15.37,27.69l28.39,21.47Z" transform="translate(-144 -58)"/><path class="cls-8" d="M400.87,435.66h0a4.9,4.9,0,0,0,4.65-2.49l8.15-14.61-2-10.49-9.12-1.92a4.77,4.77,0,0,0-5.22,4.28,1.94,1.94,0,0,0,0,.24l-.95,19.88A4.9,4.9,0,0,0,400.87,435.66Z" transform="translate(-144 -58)"/><path class="cls-7" d="M412.52,338.9l-.33,10.39a8.6,8.6,0,0,0,8.32,8.86h.27a8.61,8.61,0,0,0,8-11.84l-3.89-9.51-5.11-42.72L430.26,261c-7.5-5-15.07-10.46-21.05-5.42l-3,38.2Z" transform="translate(-144 -58)"/><path class="cls-5" d="M405.6,260.4c11.08-5.3,19.58-2.6,25.87,6.91l4.08-22.75a12.15,12.15,0,0,0-6.75-13.11h0a9.86,9.86,0,0,0-13.13,4.69c-.07.14-.14.3-.2.45Z" transform="translate(-144 -58)"/><path class="cls-8" d="M423.87,189.26l4.53,14.41,39.16-.69a24.21,24.21,0,0,0-43.69-13.72Z" transform="translate(-144 -58)"/><polygon class="cls-1" points="360.34 436.65 0 436.65 0 435.29 360.59 435.29 360.34 436.65"/></svg>