<svg id="Layer_1" data-name="Layer 1" xmlns="http://www.w3.org/2000/svg" viewBox="0 0 333.12 261.3"><defs><style>.cls-1{fill:#e6e6e6;}.cls-2{fill:#3f3d56;}.cls-3{fill:#fff;}.cls-4{fill:#6c63ff;}.cls-5{fill:#111142;}.cls-6{fill:#171751;}.cls-7{opacity:0.1;}.cls-12,.cls-7{isolation:isolate;}.cls-8{fill:#ffc1c7;}.cls-9{fill:#2f2e41;}.cls-10{fill:#cbceda;}.cls-11{fill:#a8a8a8;}.cls-12{opacity:0.2;}</style></defs><title>why-4</title><polygon class="cls-1" points="175.22 229.09 105.37 229.09 107.73 198.3 172.85 198.3 175.22 229.09"/><path class="cls-2" d="M335,36H68a7.1,7.1,0,0,0-7.1,7.1h0V205.89H342.06V43.1A7.1,7.1,0,0,0,335,36Z" transform="translate(-60.88 -36)"/><path class="cls-1" d="M60.88,205.89v26.64a7.1,7.1,0,0,0,7.1,7.1H335a7.1,7.1,0,0,0,7.11-7.1h0V205.89Z" transform="translate(-60.88 -36)"/><rect class="cls-1" x="14.21" y="14.8" width="253.36" height="142.07"/><circle class="cls-2" cx="140.88" cy="186.46" r="7.1"/><circle class="cls-3" cx="22.11" cy="19.45" r="1.35"/><circle class="cls-3" cx="27.22" cy="19.45" r="1.35"/><circle class="cls-3" cx="32.34" cy="19.45" r="1.35"/><rect class="cls-3" x="20.76" y="24.03" width="239.5" height="119.31"/><path class="cls-4" d="M211.42,90.78a53.17,53.17,0,0,0-38.48,15.08,4.17,4.17,0,0,1-5.69.13l-4.8-4.27a4.19,4.19,0,0,1-.35-5.91l.19-.2a68.09,68.09,0,0,1,94-1.59,4.18,4.18,0,0,1,.25,5.92c-.06.07-.13.13-.19.19l-4.64,4.42a4.18,4.18,0,0,1-5.68.09A53.13,53.13,0,0,0,211.42,90.78Z" transform="translate(-60.88 -36)"/><path class="cls-4" d="M211.22,99A53.14,53.14,0,0,1,245.3,112.4a4.18,4.18,0,0,1,.33,5.9l-.24.25-3.47,3.3a4.18,4.18,0,0,1-5.62.13,40.2,40.2,0,0,0-53.76.89,4.18,4.18,0,0,1-5.64.08l-3.58-3.18a4.18,4.18,0,0,1-.36-5.89,2.83,2.83,0,0,1,.24-.25A53.18,53.18,0,0,1,211.22,99Z" transform="translate(-60.88 -36)"/><path class="cls-4" d="M210.43,131a29.52,29.52,0,0,0-20.13,7.27,4.21,4.21,0,0,1-5.59,0L183,136.74a4.18,4.18,0,0,1-.33-5.92c.11-.12.23-.24.35-.35a40.2,40.2,0,0,1,52.49-.81,4.16,4.16,0,0,1,.45,5.87c-.1.11-.2.22-.31.32l-1.68,1.6a4.21,4.21,0,0,1-5.59.16A29.41,29.41,0,0,0,210.43,131Z" transform="translate(-60.88 -36)"/><circle class="cls-5" cx="149.03" cy="117.84" r="13.16"/><rect class="cls-6" x="140.12" y="42" width="19" height="57" rx="5.16"/><ellipse class="cls-2" cx="238.47" cy="252.78" rx="94.65" ry="8.52"/><path class="cls-7" d="M384,280.1c0,13-18.15,9-40.38,9s-40.12,4-40.12-9,18.16-15.86,40.39-15.86S384,267.07,384,280.1Z" transform="translate(-60.88 -36)"/><path class="cls-2" d="M384,277.67c0,13-18.15,9-40.38,9s-40.12,4-40.12-9,18.16-15.86,40.39-15.86S384,264.64,384,277.67Z" transform="translate(-60.88 -36)"/><path class="cls-8" d="M308.13,236.86l-.82,1s-10,.93-9.6,2.56,12-2.17,12-2.17Z" transform="translate(-60.88 -36)"/><path class="cls-4" d="M326.26,236.05s-10.69,3.79-16.51,2.16l2.71,5.42s13.8-.41,16.24-2.85S326.26,236.05,326.26,236.05Z" transform="translate(-60.88 -36)"/><path class="cls-7" d="M326.26,236.05s-10.69,3.79-16.51,2.16l2.71,5.42s13.8-.41,16.24-2.85S326.26,236.05,326.26,236.05Z" transform="translate(-60.88 -36)"/><circle class="cls-8" cx="258.14" cy="163.85" r="7.17"/><path class="cls-8" d="M325.14,206.58a5.36,5.36,0,0,0,.93,1.29,11.67,11.67,0,0,0,3.45,2.59,116.35,116.35,0,0,1-12.31,1.83,6.26,6.26,0,0,0-.91-4.58,24.55,24.55,0,0,1-2.25-4.23l4.85.13c.88,0,1.76,0,2.64,0a11,11,0,0,1,2.37-.28C325.21,203.64,324.57,205.43,325.14,206.58Z" transform="translate(-60.88 -36)"/><path class="cls-9" d="M341.42,240.24l4.06,4.87s6.76,15.84-8,17.46a78.54,78.54,0,0,1-25.71-1.22s-5.95-2.84-6.09-.67a34.79,34.79,0,0,1-3.92,14.21l-2.84,6.49a4.21,4.21,0,0,0-1.09,3.52c.41,2-9.06,2.71-8.93,0a10.19,10.19,0,0,0,1.36-3.65c0-1.36,2.16-4.61,2.16-4.61l3.93-19.48s-.28-10,8.93-8.12,22.32-.41,22.32-.41l3-10.42Z" transform="translate(-60.88 -36)"/><path class="cls-7" d="M341.42,240.24l4.06,4.87s6.76,15.84-8,17.46a78.54,78.54,0,0,1-25.71-1.22s-5.95-2.84-6.09-.67a34.79,34.79,0,0,1-3.92,14.21l-2.84,6.49a4.21,4.21,0,0,0-1.09,3.52c.41,2-9.06,2.71-8.93,0a10.19,10.19,0,0,0,1.36-3.65c0-1.36,2.16-4.61,2.16-4.61l3.93-19.48s-.28-10,8.93-8.12,22.32-.41,22.32-.41l3-10.42Z" transform="translate(-60.88 -36)"/><path class="cls-9" d="M326.19,239.89s12.39-4.65,19.29,5.22c0,0,1.76,15.3-5.28,16s-16.24.54-18.4-1.76S306,250.53,306,250.53s-6.8-3.47-8.13,1a47,47,0,0,0-1.47,5.59s-7,5.14-9.88,6.09c0,0-1.9,2.7-3,2.7s-7.71,1.49-7-3.51l11-10,11-10.69s3.11-4.6,11.09-2.16q7.95,2.35,16.1,3.92Z" transform="translate(-60.88 -36)"/><path class="cls-10" d="M297.44,284.63s2.57,6.49.4,7.31-6.76.27-6.76.27a63,63,0,0,0-6.77-.55c-1.35.14-6.9-.94-6.09-3.11s5-1.62,5-1.62l3.79-1.76s.4-1.35,1.35-.81S292,286.93,297.44,284.63Z" transform="translate(-60.88 -36)"/><path class="cls-10" d="M283.36,265.41s2.85,6.36-1.75,5.82-8.12-1.49-9.48-1.62-5-1.39-4.41-3.89a2.1,2.1,0,0,0,0-.5c0-.33.46-1,4.11-.89,0,0,2.71,0,3.79-1.89C275.65,262.44,279.71,267.58,283.36,265.41Z" transform="translate(-60.88 -36)"/><path class="cls-4" d="M314.08,211.28s9.75-6.08,17.86,0,13.54,33.83,13.54,33.83l-18.81-4.19s-.81-3.25-1.9-3.79-1.22-2.84-1.22-2.84a8.16,8.16,0,0,1-5.41-8.53C318.55,219,314.08,211.28,314.08,211.28Z" transform="translate(-60.88 -36)"/><path class="cls-4" d="M319.09,211.56h-5s-3,3.38-3.38,11.9l-1.62,6.77s-3.39,8.12-1.36,9.47,6,1.22,6.77-1.49,6.36-18.4,6.36-18.4Z" transform="translate(-60.88 -36)"/><path class="cls-9" d="M317.65,190.52a7.22,7.22,0,0,1,7.5,1.23c2.6,2.32,3.13,6.1,3.78,9.52s2,7.23,5.21,8.55a13.63,13.63,0,0,1-4.37-.13l4.87,4.37-8.21-2.68c-2.57-.84-5.28-1.69-7.94-1.21-4.42.78-7.5,4.94-11.74,6.4l.47-2.31-2.85,0a5.56,5.56,0,0,0,1.63-1.91,1.59,1.59,0,0,0-1.09-.57c-1.18-7.4,3.21-14.72,8.94-19.56a8.34,8.34,0,0,1,3.83-2.1,3.29,3.29,0,0,1,3.66,1.8" transform="translate(-60.88 -36)"/><path class="cls-2" d="M193.49,258.37c0,15.57,9.77,28.18,21.84,28.18" transform="translate(-60.88 -36)"/><path class="cls-4" d="M215.33,286.55c0-15.75,10.91-28.5,24.38-28.5" transform="translate(-60.88 -36)"/><path class="cls-4" d="M201.4,259.78c0,14.8,6.23,26.77,13.93,26.77" transform="translate(-60.88 -36)"/><path class="cls-2" d="M215.33,286.55c0-20.13,12.61-36.41,28.18-36.41" transform="translate(-60.88 -36)"/><path class="cls-11" d="M210.74,286.75s3.1-.1,4-.76,4.77-1.46,5-.4,4.65,5.31,1.16,5.34-8.13-.55-9.06-1.12S210.74,286.75,210.74,286.75Z" transform="translate(-60.88 -36)"/><path class="cls-12" d="M221,290.55c-3.5,0-8.13-.54-9.06-1.11-.71-.43-1-2-1.09-2.7h-.1s.19,2.5,1.13,3.06,5.56,1.14,9.06,1.12c1,0,1.36-.37,1.34-.9C222.13,290.35,221.74,290.55,221,290.55Z" transform="translate(-60.88 -36)"/></svg>