<svg id="Layer_1" data-name="Layer 1" xmlns="http://www.w3.org/2000/svg" xmlns:xlink="http://www.w3.org/1999/xlink" viewBox="0 0 397 273.2"><defs><style>.cls-1,.cls-4{fill:#6c63ff;}.cls-1,.cls-10,.cls-12,.cls-5{opacity:0.1;}.cls-1,.cls-12,.cls-5,.cls-8{isolation:isolate;}.cls-2,.cls-8{opacity:0.2;}.cls-3{fill:#3f3d56;}.cls-6{fill:#46455b;}.cls-7{fill:#a8a8a8;}.cls-9{fill:url(#linear-gradient);}.cls-11{fill:#fbbebe;}.cls-12{fill:none;stroke:#6c63ff;stroke-miterlimit:10;stroke-width:3px;}.cls-13{fill:#e6e6e6;}</style><linearGradient id="linear-gradient" x1="161.5" y1="124.82" x2="161.5" y2="219.25" gradientTransform="matrix(1, 0, 0, -1, -30.47, 243.95)" gradientUnits="userSpaceOnUse"><stop offset="0" stop-color="gray" stop-opacity="0.25"/><stop offset="0.54" stop-color="gray" stop-opacity="0.12"/><stop offset="1" stop-color="gray" stop-opacity="0.1"/></linearGradient></defs><title>why-5</title><path class="cls-1" d="M277.57,106.8a2.65,2.65,0,0,0,.48-1.46c0-3.18-6.48-5.76-14.47-5.76s-14.46,2.58-14.46,5.76a2.66,2.66,0,0,0,.6,1.63c-8.9,1-14.89,2.85-14.89,5,0,3.17,13.24,5.75,29.62,5.75s29.63-2.58,29.63-5.75C294.06,109.71,287.33,107.74,277.57,106.8Z" transform="translate(-1 -24.7)"/><g class="cls-2"><path class="cls-3" d="M318.19,273.47a18,18,0,0,0-.15,2.74q9.12.15,18.3.62c.05-.24.09-.49.12-.73a14.59,14.59,0,0,0-.85-7.57c-1.26-3.08-3.62-5.28-6.56-5.7s-5.82,1-7.89,3.6A14.53,14.53,0,0,0,318.19,273.47Z" transform="translate(-1 -24.7)"/><ellipse class="cls-3" cx="329.45" cy="260.18" rx="12.08" ry="9.23" transform="translate(24.04 524.56) rotate(-81.82)"/><ellipse class="cls-3" cx="331.54" cy="245.57" rx="12.08" ry="9.23" transform="translate(40.3 514.11) rotate(-81.82)"/><ellipse class="cls-3" cx="333.64" cy="230.95" rx="12.08" ry="9.23" transform="translate(56.57 503.65) rotate(-81.82)"/><ellipse class="cls-3" cx="335.74" cy="216.34" rx="12.08" ry="9.23" transform="translate(72.84 493.19) rotate(-81.82)"/><path class="cls-4" d="M384.29,121.24a44.39,44.39,0,0,0,4.13-4.54L365,109.33l25.93,3.92a44.26,44.26,0,0,0,5.82-34.56L359.31,91.75l35.51-19a44.21,44.21,0,1,0-79.3,38.59,44.37,44.37,0,0,0-6.14,7.26l28.83,20.67L306.6,123.35a44.23,44.23,0,0,0,1.15,42.1,44.2,44.2,0,1,0,68.78,9.88,44.2,44.2,0,0,0,7.77-54.09Z" transform="translate(-1 -24.7)"/><path class="cls-5" d="M302.27,137.06a43.92,43.92,0,0,0,5.48,28.39,44.2,44.2,0,1,0,68.77,9.88C383.45,168.73,303,132.14,302.27,137.06Z" transform="translate(-1 -24.7)"/></g><g class="cls-2"><path class="cls-3" d="M59,260.55a13.2,13.2,0,0,0,.61,2.32q7.42-2.4,15-4.53c0-.21-.06-.43-.09-.64a12.82,12.82,0,0,0-2.72-6c-1.84-2.21-4.34-3.39-6.84-2.92s-4.45,2.44-5.44,5.17A13,13,0,0,0,59,260.55Z" transform="translate(-1 -24.7)"/><ellipse class="cls-3" cx="64.6" cy="246.4" rx="7.89" ry="10.56" transform="translate(-38.71 -11.57) rotate(-8.99)"/><ellipse class="cls-3" cx="63.43" cy="233.95" rx="7.91" ry="10.59" transform="translate(-37.51 -11.58) rotate(-9.18)"/><ellipse class="cls-3" cx="60.21" cy="220.98" rx="7.89" ry="10.56" transform="translate(-34.79 -12.57) rotate(-8.99)"/><ellipse class="cls-3" cx="58.01" cy="208.27" rx="7.89" ry="10.56" transform="matrix(0.99, -0.16, 0.16, 0.99, -32.83, -13.07)"/><path class="cls-4" d="M72,115.93a38.52,38.52,0,0,0,2.13-4.88l-21,.33,22.08-3.89A39.44,39.44,0,0,0,75.93,91a38.92,38.92,0,0,0-5.15-13.74L43.9,98.36,67.65,72.81A37.15,37.15,0,0,0,32.19,59.74C11.64,63.51-2,83.61,1.58,104.63a38.54,38.54,0,0,0,12,22.06,38.48,38.48,0,0,0-3,7.72l28.9,9.21-29.91-4.5a39.56,39.56,0,0,0,.14,12.57,38.66,38.66,0,0,0,12,22.06,39.37,39.37,0,0,0-3.89,25c3.63,21,23.21,35,43.74,31.21s34.24-23.88,30.61-44.9a38.68,38.68,0,0,0-12-22.07A39.34,39.34,0,0,0,84,138,38.6,38.6,0,0,0,72,115.93Z" transform="translate(-1 -24.7)"/><path class="cls-5" d="M9.7,151.69a38.66,38.66,0,0,0,12,22.06,39.37,39.37,0,0,0-3.89,25c3.63,21,23.21,35,43.74,31.21s34.24-23.88,30.61-44.9a38.68,38.68,0,0,0-12-22.07C84,155.6,9,147.42,9.7,151.69Z" transform="translate(-1 -24.7)"/></g><path class="cls-6" d="M40.68,231.5c0,18.24,11.43,33,25.57,33" transform="translate(-1 -24.7)"/><path class="cls-4" d="M66.25,264.49c0-18.44,12.76-33.36,28.54-33.36" transform="translate(-1 -24.7)"/><path class="cls-4" d="M49.94,233.16c0,17.32,7.29,31.33,16.31,31.33" transform="translate(-1 -24.7)"/><path class="cls-6" d="M66.25,264.49c0-23.56,14.75-42.62,33-42.62" transform="translate(-1 -24.7)"/><ellipse class="cls-1" cx="183.97" cy="253.57" rx="178.1" ry="5.92"/><ellipse class="cls-1" cx="62.3" cy="243.37" rx="6.51" ry="1.1"/><path class="cls-7" d="M58.92,263s3.72-.11,4.84-.91,5.7-1.74,6-.47,5.58,6.36,1.4,6.39-9.74-.65-10.86-1.33S58.92,263,58.92,263Z" transform="translate(-1 -24.7)"/><path class="cls-8" d="M71.21,267.51c-4.19,0-9.74-.65-10.86-1.33-.85-.52-1.19-2.38-1.3-3.23h-.13s.24,3,1.35,3.67S66.94,268,71.13,268c1.21,0,1.63-.44,1.61-1.07C72.57,267.27,72.11,267.51,71.21,267.51Z" transform="translate(-1 -24.7)"/><path class="cls-4" d="M240.63,94a53.5,53.5,0,0,0-100-14.29,42.82,42.82,0,0,0,4.64,85.39h92.89a35.83,35.83,0,0,0,35.72-35.73A35.28,35.28,0,0,0,240.63,94Zm-41.09,21.06v27.16H176.68V115.09h-24.3l35.73-35.7,35.72,35.72Z" transform="translate(-1 -24.7)"/><path class="cls-9" d="M153.17,111c-.35-2-.18-4.14-1.09-5.93a1.33,1.33,0,0,0-.41-.53,1.5,1.5,0,0,0-.75-.17c-.82,0-1.64,0-2.47,0a.69.69,0,0,0-.62.23.11.11,0,0,0,0,.07c-1-1-1.66-2.36-2.68-3.34l.44-.13a1.36,1.36,0,0,0-.06-.29.24.24,0,0,0,0-.09l0-.2a.25.25,0,0,0,0-.1l-.06-.18a.21.21,0,0,0,0-.1l-.07-.18,0-.09-.09-.18,0-.08c0-.07-.07-.13-.1-.2l0-.06-.12-.21,0,0c-.05-.08-.1-.16-.14-.24h0c-.4-.65-.84-1.29-1.16-1.95a24.89,24.89,0,0,1-1.14-3.74,5,5,0,0,0-2.18-3.11c-.54-.28-1.28-.53-1.33-1.15a1.42,1.42,0,0,1,.12-.57,8.31,8.31,0,0,1,.57-1.16l.26-.39.07-.1c.07-.09.14-.19.22-.28l.09-.12.22-.26.1-.1.33-.35a.81.81,0,0,0,.24-.31.92.92,0,0,0,0-.37,4.41,4.41,0,0,1,1.05-2.73,10.59,10.59,0,0,0,1.59-2.5,3,3,0,0,0,.1-.32s0-.08,0-.11,0-.15.05-.22l0-.13a1.49,1.49,0,0,1,0-.21V78a.9.9,0,0,0,0-.22v-.12a2.13,2.13,0,0,0,0-.25v-.09l-.06-.35h0a16.54,16.54,0,0,0-.65-2.18,7.37,7.37,0,0,0-.52-1.27l.39-.08a5,5,0,0,1-.29-.5,12.66,12.66,0,0,0,1.78-3.86,17.8,17.8,0,0,0,.35-3A62.31,62.31,0,0,0,145,57v-.12a7.49,7.49,0,0,0,0-2,8.3,8.3,0,0,0-1.09-3.6,4.43,4.43,0,0,0-3-2.14,5,5,0,0,1-.67.63,2.57,2.57,0,0,1-.79-1.23A6.71,6.71,0,0,0,145,42.73c0-.11,0-.22,0-.33v-.95a1,1,0,0,0,0-.23v-.08l0-.24v-.06a1.32,1.32,0,0,0-.05-.26v0a1.57,1.57,0,0,0-.06-.28h0a6.55,6.55,0,0,0-.73-1.8,6.9,6.9,0,0,0,.53-1.94c0-.12,0-.24,0-.35v-.67A6.77,6.77,0,0,0,142.86,31a4.47,4.47,0,0,0,.33-.7h0a1.87,1.87,0,0,0,.07-.22h0l.06-.22v0l0-.19v0a2,2,0,0,1,0-.24,1.94,1.94,0,0,1,0-.24v-.58a4.13,4.13,0,1,0-8.18,1.09,6.72,6.72,0,0,0-3.74,5.25,7.16,7.16,0,0,0,0,1.13,6.77,6.77,0,0,0-1,3.14h0v.13c0,.14,0,.28,0,.42a6.73,6.73,0,0,0,2.6,5.35,4.76,4.76,0,0,0,1.32,1.4,4.25,4.25,0,0,1,.21.87,2.61,2.61,0,0,1-.8,2.16c-.15.13-.32.23-.47.35a1,1,0,0,0-.49,0,7,7,0,0,0-4.34,3.4,6.48,6.48,0,0,0-.44,1.21l-.09.15a17.45,17.45,0,0,0-2.33,5.58,11.87,11.87,0,0,1-.84,3,3.05,3.05,0,0,0-.27.61,6.37,6.37,0,0,0,0,1,15,15,0,0,1-.5,1.7c-.07.35-.06.69-.12,1a10.81,10.81,0,0,1-.65,1.75c-.37,1-.37,2.15-.64,3.2a1.17,1.17,0,0,1-.22.48,2.52,2.52,0,0,1-.72.39,1.57,1.57,0,0,0-.73,1.09,5.16,5.16,0,0,0,0,1.36l.14,1.77-2,.6-3.25,1A9.88,9.88,0,0,0,113,80.3a5,5,0,0,0-1.7,2.06,10.5,10.5,0,0,0-.63,2.7,40.46,40.46,0,0,1-1.67,7.6c-.06.18-.13.38-.2.56h0l-.22.56a.54.54,0,0,0,0,.11l-.19.45c-.08.18-.17.37-.26.55l7.61,2.54a1.69,1.69,0,0,0,0,.3c.26,1.86.13,3.76.38,5.63a3.54,3.54,0,0,0,.21.91,1.34,1.34,0,0,0-.4.64,3.29,3.29,0,0,0,0,1.21c.09.95.17,1.91.26,2.86a4.61,4.61,0,0,1,0,1,10.7,10.7,0,0,1-.66,1.79,1.6,1.6,0,0,0,.31,1.74,1.25,1.25,0,0,0,1.2.11,2.89,2.89,0,0,0,1-.76c1.53-1.71,2.21-4,3.4-6a11.87,11.87,0,0,0,.82-1.42c.16-.38.27-.79.4-1.18a11.52,11.52,0,0,1,.65-1.53c.15-.28.7-1,.58-1.28-.2-.54-2.29-1-2.79-1.18a1.39,1.39,0,0,0-1,0,.42.42,0,0,0-.14.09l-.18-2.31a7,7,0,0,0,.92-.12c0-.43,0-.86,0-1.3s0-.8,0-1.2c0-1,0-2-.07-2.91a15.81,15.81,0,0,0-.1-1.69c-.12-.86-.38-1.69-.47-2.55a1.06,1.06,0,0,1,.43-.2h0a3.08,3.08,0,0,1,.74,0h.2a6.21,6.21,0,0,0,3.08-.85c1-.49,1.84-1.12,2.78-1.63l.35-.19.14-.06.22-.11.18-.09,0,0c.56-.27,1.12-.52,1.66-.81a.88.88,0,0,0,.12.17,1.1,1.1,0,0,0,1.16.42,17.88,17.88,0,0,0-1.63,4.83c-.29,2.48.7,4.88,1.67,7.19l3.1,7.32c.35.81.8,1.71,1.65,1.91a2.46,2.46,0,0,0,1.55-.31,29.14,29.14,0,0,0,4-2.56l0,0a13.64,13.64,0,0,1,2.72,3.45l2.17,3.57a1.14,1.14,0,0,0,.09.52,3,3,0,0,0,.61.8,10.19,10.19,0,0,1,2.61,5.35,3.23,3.23,0,0,0,.44,1.45,2.13,2.13,0,0,0,2.69.3,1.69,1.69,0,0,0,.68-.56,2.13,2.13,0,0,0,.27-.84,11.33,11.33,0,0,0,.26-2.25A25.65,25.65,0,0,0,153.17,111ZM140.7,45.35a3.61,3.61,0,0,0,.44-.33,6.68,6.68,0,0,1-1.39,2.39h0l-.46.46v-.11c0-.35,0-.74,0-1.11A4.61,4.61,0,0,0,140.7,45.35Zm-12.3,27.5,0-.07a1.44,1.44,0,0,1,.32.33,1.29,1.29,0,0,0,0,1.18c.19.3.51.59.44.94s-.51.49-.87.55l-1.42.26v0a3.74,3.74,0,0,0-.16-1.16A3.4,3.4,0,0,0,128.4,72.85Z" transform="translate(-1 -24.7)"/><path class="cls-6" d="M142.9,32.27a4.14,4.14,0,1,0-7.66-2.61,4,4,0,0,0,0,1.25,6.62,6.62,0,0,0-3.77,6.32,6.65,6.65,0,1,0,12.23,3.63v-.32a6.65,6.65,0,0,0-.81-8.27Z" transform="translate(-1 -24.7)"/><g class="cls-10"><path d="M135.23,29.86l.05,0,0-.21v0A1.5,1.5,0,0,0,135.23,29.86Z" transform="translate(-1 -24.7)"/><path d="M144.74,36.63a6.75,6.75,0,0,1-1,2.84v.31a6.65,6.65,0,0,1-13.28.54c0,.18,0,.34,0,.54a6.65,6.65,0,1,0,13.3,0v-.32a6.53,6.53,0,0,0,1-2.83,6,6,0,0,0,0-1.34A.77.77,0,0,1,144.74,36.63Z" transform="translate(-1 -24.7)"/><path d="M143.45,29.61a4.13,4.13,0,0,1-.55,1.59c.12.11.23.24.35.36a4,4,0,0,0,.22-.9A4.1,4.1,0,0,0,143.45,29.61Z" transform="translate(-1 -24.7)"/></g><path class="cls-11" d="M116.11,103.62a2.9,2.9,0,0,0,.3,1.08,1.18,1.18,0,0,0,.88.65,1.86,1.86,0,0,0,1-.28,2.58,2.58,0,0,0,1.71-3.16l-.39-5.08c-1,0-1.92,0-2.88,0s-1.11.27-1,1.2C116,99.9,115.85,101.77,116.11,103.62Z" transform="translate(-1 -24.7)"/><path class="cls-11" d="M144.21,107l2.27,3.68a.89.89,0,0,0,.5.47.74.74,0,0,0,.48-.08,6.15,6.15,0,0,0,1.9-1.58,3.51,3.51,0,0,0,.91-1.39,1.79,1.79,0,0,0-.45-1.68,5.87,5.87,0,0,0-.86-.62c-1.8-1.22-2.61-3.52-4.39-4.77a.75.75,0,0,0-.35-.16.72.72,0,0,0-.37.13l-2.44,1.33c-1,.57-.72.64.08,1.26A14.09,14.09,0,0,1,144.21,107Z" transform="translate(-1 -24.7)"/><path class="cls-6" d="M121.05,100.68a1.38,1.38,0,0,0-1,0,1.12,1.12,0,0,0-.53.84c-.06.35-.06.69-.15,1a3.45,3.45,0,0,1-1,1.39,1.47,1.47,0,0,1-.63.44c-.33.08-.68-.07-1,0a1.11,1.11,0,0,0-.8.81,3.23,3.23,0,0,0,0,1.2l.26,2.82a4.61,4.61,0,0,1,0,1,10.39,10.39,0,0,1-.66,1.76,1.58,1.58,0,0,0,.31,1.74,1.27,1.27,0,0,0,1.21.11,2.8,2.8,0,0,0,1-.75c1.53-1.68,2.22-4,3.41-5.88a10.78,10.78,0,0,0,.82-1.39c.16-.38.27-.77.4-1.16a10.63,10.63,0,0,1,.66-1.51c.14-.28.7-1,.57-1.26C123.66,101.32,121.57,100.85,121.05,100.68Z" transform="translate(-1 -24.7)"/><path class="cls-6" d="M148.73,108.48a2.89,2.89,0,0,1-1.62,1.39,1.42,1.42,0,0,0-.54.29.83.83,0,0,0-.1.93,3.29,3.29,0,0,0,.61.78,10.07,10.07,0,0,1,2.62,5.27,3.3,3.3,0,0,0,.43,1.44,2.17,2.17,0,0,0,2.71.29,1.63,1.63,0,0,0,.67-.55,2.21,2.21,0,0,0,.28-.83,12.69,12.69,0,0,0,.26-2.21,23.71,23.71,0,0,0-.8-4.13c-.35-2-.18-4.08-1.09-5.85a1.37,1.37,0,0,0-.41-.54,1.5,1.5,0,0,0-.75-.17c-.82,0-1.65,0-2.47,0-.23,0-.51,0-.62.24a.68.68,0,0,0,.09.67C148.5,106.48,149.33,107.27,148.73,108.48Z" transform="translate(-1 -24.7)"/><path class="cls-6" d="M129.12,73.31a1.29,1.29,0,0,0-.3,1.61c.19.31.52.59.44.94s-.51.48-.88.54A71.23,71.23,0,0,0,119,78.78l-3.25,1A9.59,9.59,0,0,0,113,80.88a4.93,4.93,0,0,0-1.7,2,10.12,10.12,0,0,0-.63,2.66,32.33,32.33,0,0,1-2.6,9.7L116,97.86a11.42,11.42,0,0,0,2.37.59,8.45,8.45,0,0,0,2.3-.11c0-1.76-.08-3.58-.13-5.34a13.38,13.38,0,0,0-.11-1.67c-.12-.84-.38-1.66-.46-2.51.35-.3.89-.22,1.37-.21a6.52,6.52,0,0,0,3.08-.84c1-.49,1.85-1.11,2.79-1.61,1.59-.84,3.39-1.4,4.61-2.73-.62,2.35-2.1,4.4-2.36,6.82s.69,4.82,1.68,7.08l3.1,7.21c.35.79.8,1.69,1.65,1.88a2.49,2.49,0,0,0,1.56-.31c2.86-1.34,5.14-3.86,8.2-4.66-.23-1.51-1.43-2.76-2.1-4.13a24.59,24.59,0,0,1-1.13-3.69,5,5,0,0,0-2.18-3.07c-.55-.27-1.29-.52-1.34-1.13a1.28,1.28,0,0,1,.13-.57,7.29,7.29,0,0,1,1.85-2.7.81.81,0,0,0,.25-.3,1,1,0,0,0,0-.35,4.27,4.27,0,0,1,1-2.69,10.15,10.15,0,0,0,1.6-2.47c.57-1.59,0-3.34-.56-4.93a5,5,0,0,0-.93-1.81,4.64,4.64,0,0,0-2.94-1.13C135.9,72.09,131.86,71.19,129.12,73.31Z" transform="translate(-1 -24.7)"/><g class="cls-10"><path d="M142.17,80.29a4.21,4.21,0,0,0-1,2.69,1,1,0,0,1,0,.35.89.89,0,0,1-.25.3,7.41,7.41,0,0,0-1.85,2.7,1.15,1.15,0,0,0-.12.57,1.07,1.07,0,0,0,.69.82,7.5,7.5,0,0,1,1.29-1.57.84.84,0,0,0,.25-.31,1,1,0,0,0,0-.35,4.3,4.3,0,0,1,1.05-2.69,10.6,10.6,0,0,0,1.6-2.46,5.19,5.19,0,0,0,.08-2.79,2.76,2.76,0,0,1-.08.27A10.19,10.19,0,0,1,142.17,80.29Z" transform="translate(-1 -24.7)"/><path d="M128.76,73.79a.66.66,0,0,0,.5-.45.33.33,0,0,0,0-.14l-.15.11A1.3,1.3,0,0,0,128.76,73.79Z" transform="translate(-1 -24.7)"/><path d="M118.34,95.94a12.11,12.11,0,0,1-2.37-.6l-7-2.28a18.48,18.48,0,0,1-.93,2.21l7.9,2.59a11.42,11.42,0,0,0,2.37.59,8.45,8.45,0,0,0,2.3-.11l-.06-2.51A8.43,8.43,0,0,1,118.34,95.94Z" transform="translate(-1 -24.7)"/><path d="M137.43,103.59a2.49,2.49,0,0,1-1.56.31c-.85-.19-1.3-1.08-1.64-1.88l-3.11-7.21a19.48,19.48,0,0,1-1.63-4.92c0,.12,0,.24-.05.35-.29,2.44.69,4.82,1.68,7.08l3.11,7.21c.34.79.79,1.69,1.64,1.88a2.49,2.49,0,0,0,1.56-.31c2.86-1.34,5.14-3.86,8.2-4.66a6,6,0,0,0-.94-2.21C142.09,100.25,140,102.39,137.43,103.59Z" transform="translate(-1 -24.7)"/><path d="M131.8,80.91c-1.22,1.33-3,1.89-4.61,2.73-1,.51-1.84,1.12-2.79,1.62a6.4,6.4,0,0,1-3.08.83,2.11,2.11,0,0,0-1.37.21c.08.79.3,1.55.43,2.33a3.69,3.69,0,0,1,.94,0,6.52,6.52,0,0,0,3.08-.84c1-.49,1.85-1.11,2.79-1.61s2.19-1,3.19-1.6A27.85,27.85,0,0,0,131.8,80.91Z" transform="translate(-1 -24.7)"/></g><path class="cls-11" d="M134.56,48.37a2.56,2.56,0,0,1-.8,2.13c-.19.16-.42.28-.6.45a1.64,1.64,0,0,0,0,2.32,1.2,1.2,0,0,0,.21.17,3.09,3.09,0,0,0,2.15.15,12.58,12.58,0,0,0,2.82-.73A4.68,4.68,0,0,0,140.59,51a2.72,2.72,0,0,1-1.26-2.26c-.05-.9.2-1.93-.38-2.63a2.29,2.29,0,0,0-2.43-.44c-.43.12-.83.28-1.26.4-.21,0-.92,0-1,.21S134.54,47.91,134.56,48.37Z" transform="translate(-1 -24.7)"/><path class="cls-5" d="M134.56,48.37a2.56,2.56,0,0,1-.8,2.13c-.19.16-.42.28-.6.45a1.64,1.64,0,0,0,0,2.32,1.2,1.2,0,0,0,.21.17,3.09,3.09,0,0,0,2.15.15,12.58,12.58,0,0,0,2.82-.73A4.68,4.68,0,0,0,140.59,51a2.72,2.72,0,0,1-1.26-2.26c-.05-.9.2-1.93-.38-2.63a2.29,2.29,0,0,0-2.43-.44c-.43.12-.83.28-1.26.4-.21,0-.92,0-1,.21S134.54,47.91,134.56,48.37Z" transform="translate(-1 -24.7)"/><circle class="cls-11" cx="135.99" cy="18.95" r="4.67"/><path class="cls-11" d="M122.23,79.5a3.08,3.08,0,0,1-.44,1,4.85,4.85,0,0,0-.56,3.19,3.38,3.38,0,0,0,2,2.48,1.36,1.36,0,0,0,1.35-.08,4.45,4.45,0,0,1-.62-2.95.92.92,0,0,1,.12-.54.36.36,0,0,1,.49-.1h0a4.36,4.36,0,0,0,.37,1.88c.09.22.26.47.51.47s.45-.49.44-.85a9.47,9.47,0,0,0-.83-4.23,4.92,4.92,0,0,1-.69-1.42.89.89,0,0,0-.18-.5.66.66,0,0,0-.27-.12c-.4-.12-1.35-.47-1.68-.09S122.29,79,122.23,79.5Z" transform="translate(-1 -24.7)"/><path class="cls-4" d="M129.17,54.67c-.54-.06-1,.43-1.25.88a16.86,16.86,0,0,0-2.33,5.51,12.32,12.32,0,0,1-.84,3,2.73,2.73,0,0,0-.28.6,6.3,6.3,0,0,0,0,1c-.05.58-.4,1.1-.51,1.68-.07.35-.06.7-.12,1a9.1,9.1,0,0,1-.65,1.71c-.37,1-.37,2.12-.64,3.17a1.09,1.09,0,0,1-.22.46c-.18.21-.48.26-.72.39a1.6,1.6,0,0,0-.74,1.08,4.62,4.62,0,0,0,0,1.34l.22,2.76c.22-.09.34-.35.55-.5a1.53,1.53,0,0,1,1.26-.14l.63.12a2.7,2.7,0,0,1,1.75.77c.32-.52.14-1.27.64-1.61a5.29,5.29,0,0,1,.54-.25,1.18,1.18,0,0,0,.55-1,3.42,3.42,0,0,0-.16-1.14,3.33,3.33,0,0,0,1.63-2,16.9,16.9,0,0,0,.76-3.06A79.88,79.88,0,0,0,130.64,58a6,6,0,0,0-.23-2.07C130.2,55.31,129.86,54.75,129.17,54.67Z" transform="translate(-1 -24.7)"/><path class="cls-5" d="M129.17,54.67c-.54-.06-1,.43-1.25.88a16.86,16.86,0,0,0-2.33,5.51,12.32,12.32,0,0,1-.84,3,2.73,2.73,0,0,0-.28.6,6.3,6.3,0,0,0,0,1c-.05.58-.4,1.1-.51,1.68-.07.35-.06.7-.12,1a9.1,9.1,0,0,1-.65,1.71c-.37,1-.37,2.12-.64,3.17a1.09,1.09,0,0,1-.22.46c-.18.21-.48.26-.72.39a1.6,1.6,0,0,0-.74,1.08,4.62,4.62,0,0,0,0,1.34l.22,2.76c.22-.09.34-.35.55-.5a1.53,1.53,0,0,1,1.26-.14l.63.12a2.7,2.7,0,0,1,1.75.77c.32-.52.14-1.27.64-1.61a5.29,5.29,0,0,1,.54-.25,1.18,1.18,0,0,0,.55-1,3.42,3.42,0,0,0-.16-1.14,3.33,3.33,0,0,0,1.63-2,16.9,16.9,0,0,0,.76-3.06A79.88,79.88,0,0,0,130.64,58a6,6,0,0,0-.23-2.07C130.2,55.31,129.86,54.75,129.17,54.67Z" transform="translate(-1 -24.7)"/><path class="cls-4" d="M141,50.19a5.94,5.94,0,0,1-2.85,1.66,18.26,18.26,0,0,1-3.29.48,2,2,0,0,1-1-.09.7.7,0,0,1-.42-.83,1,1,0,0,0,.12-.32c0-.29-.42-.31-.69-.23a7.05,7.05,0,0,0-4.36,3.35,10,10,0,0,0-.77,3.08,25.83,25.83,0,0,0-.26,8.36,26.79,26.79,0,0,1,.85,4.39c0,.84-.12,1.67-.11,2.51a1.2,1.2,0,0,0,.22.82c.13.15.32.25.41.42s-.05.7.15,1,.76.09,1.1-.14a8.64,8.64,0,0,1,5.78-1.45c2.44.26,4.88,1.56,7.25.91a3.91,3.91,0,0,1-.31-.57,16.56,16.56,0,0,1,.67-11.9,15.61,15.61,0,0,0,1.64-3.81,7.41,7.41,0,0,0,0-1.94,8,8,0,0,0-1.1-3.55A4.36,4.36,0,0,0,141,50.19Z" transform="translate(-1 -24.7)"/><path class="cls-11" d="M129.64,80.7a4.33,4.33,0,0,0-.27,1.59,10,10,0,0,0,.08,1.55,2.46,2.46,0,0,0,.46,1.22,1.11,1.11,0,0,0,1.16.42,1.23,1.23,0,0,0,.7-.78,7.81,7.81,0,0,0,.22-1.07,18.21,18.21,0,0,0,.77-3.14.78.78,0,0,0-.06-.37,2.09,2.09,0,0,0-1.68-.87C130.42,79.34,129.87,80.19,129.64,80.7Z" transform="translate(-1 -24.7)"/><path class="cls-5" d="M143.13,54.14c-.09.93.81,1.63,1.16,2.49a4.48,4.48,0,0,1,.25,1.26,60.52,60.52,0,0,1-.14,8.93,17.1,17.1,0,0,1-.35,2.94,17,17,0,0,1-3,5.51,4.24,4.24,0,0,1-.63.77,4.78,4.78,0,0,1-1.17.7l-4.15,2a7.7,7.7,0,0,0-1.47.85,3.83,3.83,0,0,0-1.22,1.59c-.81-.42-1.64-.79-2.44-1.2-.19-.09-.4-.22-.43-.43s.25-.48.45-.7a4.05,4.05,0,0,0,.7-1.41c.67-1.6,2.34-2.63,2.95-4.25a6.26,6.26,0,0,1,.72-1.86,4.35,4.35,0,0,1,.79-.69,14.09,14.09,0,0,0,1.74-1.8,3.07,3.07,0,0,0,.58-.84,4.3,4.3,0,0,0,.13-1.47,18.72,18.72,0,0,1,1.22-4.7c.42-1.47.6-3,1.15-4.43A5.12,5.12,0,0,1,143.13,54.14Z" transform="translate(-1 -24.7)"/><path class="cls-4" d="M143.67,54.14c-.09.93.8,1.63,1.16,2.49a4.48,4.48,0,0,1,.25,1.26,61.92,61.92,0,0,1-.14,8.93,17,17,0,0,1-.37,2.94,16.8,16.8,0,0,1-2.95,5.51A4.24,4.24,0,0,1,141,76a4.78,4.78,0,0,1-1.17.7l-4.15,2a7.7,7.7,0,0,0-1.47.85A3.89,3.89,0,0,0,133,81.19c-.81-.42-1.64-.79-2.44-1.2-.19-.09-.4-.22-.43-.43s.24-.48.45-.7a3.87,3.87,0,0,0,.69-1.41c.67-1.6,2.35-2.63,2.95-4.25a6.85,6.85,0,0,1,.72-1.86,4.71,4.71,0,0,1,.79-.69,14.17,14.17,0,0,0,1.75-1.8A3,3,0,0,0,138,68a4.3,4.3,0,0,0,.14-1.47,18.7,18.7,0,0,1,1.21-4.7c.43-1.47.6-3,1.15-4.43A5.18,5.18,0,0,1,143.67,54.14Z" transform="translate(-1 -24.7)"/><path class="cls-6" d="M139.3,36.42a6.61,6.61,0,0,0-4.15.86,2.64,2.64,0,0,1,.56,0,6.65,6.65,0,0,1,2.55,12.35,6.65,6.65,0,0,0,1.05-13.25Z" transform="translate(-1 -24.7)"/><path class="cls-6" d="M141.35,40.12a3.08,3.08,0,0,1,.05,2.33c0-.1-.07-.19-.11-.29-.82-1.83-3.35-2.58-5.66-1.69a4.62,4.62,0,0,0-2.73,2.61c-.58-1.77.61-3.8,2.79-4.65S140.52,38.29,141.35,40.12Z" transform="translate(-1 -24.7)"/><g class="cls-10"><path d="M141.36,42.3a6.65,6.65,0,0,0-4.44-5.73,6.58,6.58,0,0,0-1.77.69,2.12,2.12,0,0,1,.56.05A6.64,6.64,0,0,1,141.36,42.3Z" transform="translate(-1 -24.7)"/><path d="M142.44,37.45A6.67,6.67,0,0,0,138,31.71a6.94,6.94,0,0,0-1.76.72,2.69,2.69,0,0,1,.56,0A6.65,6.65,0,0,1,142.44,37.45Z" transform="translate(-1 -24.7)"/><path d="M142.46,30.2a4,4,0,0,0-2.68-3.44,3.75,3.75,0,0,0-1.06.43,1.46,1.46,0,0,1,.35,0A4,4,0,0,1,142.46,30.2Z" transform="translate(-1 -24.7)"/><path d="M145,41.4a6.65,6.65,0,0,1-5.15,7,6.56,6.56,0,0,1-1.54,1.24,6.64,6.64,0,0,0,6.89-6.4A6.48,6.48,0,0,0,145,41.4Z" transform="translate(-1 -24.7)"/></g><path class="cls-6" d="M284.3,224c0,34.29,21.52,62,48.1,62" transform="translate(-1 -24.7)"/><path class="cls-4" d="M332.4,286.07c0-34.68,24-62.74,53.68-62.74" transform="translate(-1 -24.7)"/><path class="cls-4" d="M301.73,227.12c0,32.57,13.72,58.93,30.67,58.93" transform="translate(-1 -24.7)"/><path class="cls-6" d="M332.4,286.07c0-44.31,27.75-80.17,62-80.17" transform="translate(-1 -24.7)"/><ellipse class="cls-1" cx="329.32" cy="271.18" rx="11.96" ry="2.02"/><path class="cls-7" d="M322.28,286.49s6.82-.21,8.88-1.68,10.49-3.21,11-.86,10.25,11.67,2.55,11.74-17.89-1.2-19.94-2.44S322.28,286.49,322.28,286.49Z" transform="translate(-1 -24.7)"/><path class="cls-8" d="M344.84,294.87c-7.7.06-17.9-1.2-19.95-2.44-1.56-1-2.18-4.37-2.39-5.95h-.23s.43,5.5,2.48,6.75,12.25,2.52,19.95,2.44c2.22,0,3-.81,2.95-2C347.35,294.43,346.5,294.85,344.84,294.87Z" transform="translate(-1 -24.7)"/><path class="cls-1" d="M285.24,37.44a2.65,2.65,0,0,0,.48-1.46c0-3.18-6.48-5.75-14.47-5.75S256.79,32.8,256.79,36a2.63,2.63,0,0,0,.57,1.63c-8.9,1-14.89,2.85-14.89,5,0,3.17,13.24,5.75,29.62,5.75s29.63-2.58,29.63-5.75C301.73,40.35,295,38.38,285.24,37.44Z" transform="translate(-1 -24.7)"/><path class="cls-1" d="M107.83,43.71a2.53,2.53,0,0,0,.48-1.46c0-3.18-6.47-5.75-14.46-5.75s-14.47,2.57-14.47,5.75a2.74,2.74,0,0,0,.6,1.63c-8.89,1-14.89,2.86-14.89,5,0,3.18,13.27,5.75,29.63,5.75s29.62-2.57,29.62-5.75C124.33,46.62,117.59,44.66,107.83,43.71Z" transform="translate(-1 -24.7)"/><path class="cls-12" d="M209.52,38.88a2,2,0,0,1,2.46.74,6.18,6.18,0,0,1,.86,2.66c.31,2.06.53,4.43-.86,6a19.46,19.46,0,0,1,16-12.94" transform="translate(-1 -24.7)"/><path class="cls-12" d="M93.27,74.08a1.32,1.32,0,0,1,1.59.47,4,4,0,0,1,.55,1.71c.19,1.33.34,2.85-.55,3.83a12.48,12.48,0,0,1,10.3-8.31" transform="translate(-1 -24.7)"/><path class="cls-12" d="M250.11,84.53a1.31,1.31,0,0,1,1.59.48,3.92,3.92,0,0,1,.55,1.71c.19,1.32.34,2.84-.55,3.83A12.51,12.51,0,0,1,262,82.23" transform="translate(-1 -24.7)"/><path class="cls-1" d="M237.25,201.72v-8.47l3.91,3.91,1-1-5.58-5.58L231,196.15l1,1,3.91-3.87v8.47Z" transform="translate(-1 -24.7)"/><path class="cls-13" d="M190.92,269.65h30.36a.93.93,0,0,0,0-1.86H190.92A.93.93,0,0,0,190.92,269.65Z" transform="translate(-1 -24.7)"/><path class="cls-4" d="M182.72,229.17H152.46a1.21,1.21,0,0,0-1.21,1.2v6a3,3,0,0,1,2.73,2.8v5.45h.11a.07.07,0,0,1,.07.07v2.9a.08.08,0,0,1-.07.07H154v17.52c0,.39,0,1.09,0,1.09h28.75a1.2,1.2,0,0,0,1.2-1.2V230.37A1.2,1.2,0,0,0,182.72,229.17Z" transform="translate(-1 -24.7)"/><path class="cls-4" d="M238.94,209.39v32.89H186V227.8a2.48,2.48,0,0,0-2.48-2.48h-9.93V209.39Z" transform="translate(-1 -24.7)"/><path class="cls-3" d="M242.21,246.92H186.08v-.23H242V208a1.72,1.72,0,0,0-1.72-1.72H171.61a1.72,1.72,0,0,0-1.72,1.72v17.22h-.23V208a2,2,0,0,1,2-1.95h68.65a2,2,0,0,1,2,1.95Z" transform="translate(-1 -24.7)"/><path class="cls-3" d="M236.89,253.91H186.08v-.23h50.81a5.09,5.09,0,0,0,5.09-5.09v-1.67h-55.9v-.23h56.13v1.9A5.32,5.32,0,0,1,236.89,253.91Z" transform="translate(-1 -24.7)"/><path class="cls-3" d="M221.81,265.14a17.77,17.77,0,0,1-5.29-11.23H195.64a15.46,15.46,0,0,1-5.41,11.22h-.35a15.28,15.28,0,0,0,5.53-11.35v-.11h21.3v.1a17.54,17.54,0,0,0,5.4,11.35Z" transform="translate(-1 -24.7)"/><path class="cls-3" d="M183.48,269.89H151.32v-.23h32.16a2.49,2.49,0,0,0,2.48-2.48V227.85a2.48,2.48,0,0,0-2.48-2.48H151.32a2.48,2.48,0,0,0-2.48,2.48v8.49h-.23v-8.49a2.71,2.71,0,0,1,2.71-2.71h32.16a2.71,2.71,0,0,1,2.71,2.71v39.33A2.72,2.72,0,0,1,183.48,269.89Z" transform="translate(-1 -24.7)"/><path class="cls-3" d="M167.4,228a.78.78,0,1,1,.78-.78A.78.78,0,0,1,167.4,228Zm0-1.37a.59.59,0,0,0-.6.59.6.6,0,1,0,1.2,0h0a.59.59,0,0,0-.6-.59Z" transform="translate(-1 -24.7)"/><path class="cls-3" d="M167.4,269a1,1,0,1,1,1-1A1,1,0,0,1,167.4,269Zm0-1.76a.77.77,0,1,0,.76.77h0A.76.76,0,0,0,167.4,267.25Z" transform="translate(-1 -24.7)"/><path class="cls-3" d="M151,270H140.35a3,3,0,0,1-3-3V239.36a3,3,0,0,1,3-3H151a3,3,0,0,1,3,3v4.93a.31.31,0,0,1,.18.28v3.21a.28.28,0,0,1-.18.27v18.88A3,3,0,0,1,151,270Zm-10.65-33.38a2.79,2.79,0,0,0-2.79,2.79v27.57a2.79,2.79,0,0,0,2.79,2.79H151a2.79,2.79,0,0,0,2.79-2.79V247.85h.12a.07.07,0,0,0,.06-.07v-3.21a.07.07,0,0,0-.06-.07h-.12v-5.14a2.79,2.79,0,0,0-2.79-2.79Z" transform="translate(-1 -24.7)"/><path class="cls-4" d="M151.11,237.21h-1.39a1,1,0,0,1-.56,1.34,1,1,0,0,1-.39.08h-6.1a1,1,0,0,1-1-1,1,1,0,0,1,.07-.39h-1.29a2.18,2.18,0,0,0-2.18,2.17v27.53a2.18,2.18,0,0,0,2.18,2.17h10.69a2.18,2.18,0,0,0,2.18-2.17h0V239.38A2.18,2.18,0,0,0,151.11,237.21Z" transform="translate(-1 -24.7)"/><path class="cls-3" d="M221.88,269.84H190.13a2.41,2.41,0,0,1,0-4.81h31.75a2.41,2.41,0,1,1,0,4.81Zm-31.75-4.58a2.18,2.18,0,0,0,0,4.35h31.75a2.18,2.18,0,1,0,0-4.35Z" transform="translate(-1 -24.7)"/></svg>