<svg id="Layer_1" data-name="Layer 1" xmlns="http://www.w3.org/2000/svg" viewBox="0 0 390.67 241"><defs><style>.cls-1{fill:#3f3d56;}.cls-2{fill:#d0cde1;}.cls-3{fill:#6c63ff;}.cls-4{fill:#cfcce0;}.cls-5{fill:#848484;}.cls-6{fill:#a0616a;}.cls-7{fill:#2f2e41;}.cls-8{opacity:0.15;isolation:isolate;}</style></defs><title>why-8</title><path class="cls-1" d="M106.46,226.22,106,226c-.1,0-10.09-3.86-14.77-12.54s-2.39-19.13-2.36-19.23l.11-.48.45.17c.1,0,10.09,3.87,14.77,12.55s2.39,19.13,2.37,19.23ZM92,213.1c4,7.33,11.85,11.1,13.85,12,.38-2.14,1.58-10.81-2.38-18.14S91.6,195.81,89.6,195C89.22,197.1,88,205.77,92,213.1Z" transform="translate(-8.6 -36)"/><path class="cls-2" d="M94.81,210.46c8.41,5.06,11.65,15.11,11.65,15.11s-10.4,1.84-18.81-3.22S76,207.24,76,207.24,86.4,205.4,94.81,210.46Z" transform="translate(-8.6 -36)"/><rect class="cls-1" y="190.18" width="256.08" height="0.72"/><rect class="cls-1" x="134.6" y="240.28" width="256.08" height="0.72"/><path class="cls-1" d="M198.74,220.07l18.17-27L198.78,223l0,3c-1.32,0-2.63,0-3.94-.06l.91-39.08,0-.3,0-.06.09-3.69L176,153.93l19.87,26.12.07.78.68-29.52-17.19-29.95,17.24,24.76L196.47,85v0l1.14,48.21,15.67-19.58-15.61,23.73.34,26.41L212.42,138,198.06,167.6l.19,14.69,21-35.9-20.9,41Z" transform="translate(-8.6 -36)"/><path class="cls-1" d="M40,220.25l18.17-27L40,223.15l0,3c-1.32,0-2.64,0-3.94-.06l.9-39.08,0-.3,0-.06.09-3.69-19.9-28.89,19.88,26.12.07.78.68-29.52L20.63,121.54,37.87,146.3l-.18-61.17v0l1.14,48.21,15.66-19.58L38.88,137.49l.35,26.41,14.41-25.77L39.28,167.78l.19,14.69,21-35.9-20.9,41Z" transform="translate(-8.6 -36)"/><path class="cls-1" d="M168.08,122.53h-.76V101.8a12,12,0,0,0-12-12H111.41a12,12,0,0,0-12,12h0V215.5a12,12,0,0,0,12,12h43.91a12,12,0,0,0,12-12h0V137.28h.76Z" transform="translate(-8.6 -36)"/><path class="cls-2" d="M155.81,225.36H111.69a9.32,9.32,0,0,1-9.32-9.32V102.51a9.32,9.32,0,0,1,9.32-9.32h5.89l-.21.5a3.67,3.67,0,0,0-.28,1.47A3.89,3.89,0,0,0,121,99.05h25.16A3.89,3.89,0,0,0,150,95.16a3.67,3.67,0,0,0-.29-1.47l-.2-.5h6.27a9.33,9.33,0,0,1,9.32,9.32V216A9.33,9.33,0,0,1,155.81,225.36ZM111.69,93.91a8.61,8.61,0,0,0-8.6,8.6V216a8.61,8.61,0,0,0,8.6,8.6h44.12a8.61,8.61,0,0,0,8.6-8.6V102.51a8.62,8.62,0,0,0-8.6-8.6h-5.23a4.61,4.61,0,0,1-3.2,5.69,4.75,4.75,0,0,1-1.24.17H121a4.62,4.62,0,0,1-4.62-4.62,4.7,4.7,0,0,1,.17-1.24Z" transform="translate(-8.6 -36)"/><rect class="cls-2" x="112.42" y="134.1" width="37.28" height="1.39"/><rect class="cls-2" x="112.42" y="138.49" width="37.28" height="1.39"/><rect class="cls-2" x="112.42" y="142.87" width="37.28" height="1.39"/><rect class="cls-2" x="100.6" y="134.96" width="8.45" height="8.45"/><rect class="cls-2" x="112.42" y="152.48" width="37.28" height="1.39"/><rect class="cls-2" x="112.42" y="156.87" width="37.28" height="1.39"/><rect class="cls-2" x="112.42" y="161.26" width="37.28" height="1.39"/><rect class="cls-2" x="100.6" y="153.34" width="8.45" height="8.45"/><path class="cls-2" d="M142.14,142.69c-1.85,6.82-8.16,11.05-8.16,11.05s-3.33-6.84-1.49-13.66,8.17-11,8.17-11S144,135.87,142.14,142.69Z" transform="translate(-8.6 -36)"/><path class="cls-2" d="M125.36,142.69c1.84,6.82,8.16,11.05,8.16,11.05s3.33-6.84,1.48-13.66-8.16-11-8.16-11S123.51,135.87,125.36,142.69Z" transform="translate(-8.6 -36)"/><path class="cls-3" d="M128.07,141.23c5.06,4.93,5.68,12.5,5.68,12.5s-7.59-.41-12.65-5.34-5.68-12.5-5.68-12.5S123,136.3,128.07,141.23Z" transform="translate(-8.6 -36)"/><path class="cls-3" d="M139.43,141.23c-5.06,4.93-5.68,12.5-5.68,12.5s7.59-.41,12.65-5.34,5.68-12.5,5.68-12.5S144.49,136.3,139.43,141.23Z" transform="translate(-8.6 -36)"/><rect class="cls-3" x="50.7" y="100.17" width="11.14" height="10.76" transform="translate(-42.88 -8.6) rotate(-21.14)"/><path class="cls-1" d="M61.53,107.76,50.59,112,46.5,101.43,57.44,97.2Zm-10.6,3.49,9.85-3.81-3.68-9.5-9.84,3.81Z" transform="translate(-8.6 -36)"/><rect class="cls-3" x="89.53" y="38.97" width="11.14" height="10.76" transform="translate(-18.19 1.29) rotate(-21.14)"/><path class="cls-1" d="M100.36,46.56,89.42,50.79,85.34,40.23,96.28,36Zm-10.6,3.49,9.85-3.81-3.68-9.5-9.84,3.81Z" transform="translate(-8.6 -36)"/><path class="cls-1" d="M313.33,199.49c-5.51,0-10.33,5.75-13,14.33-.19.6-.37,1.22-.53,1.85a53.67,53.67,0,0,0-1.66,13.47c0,16.34,6.81,29.64,15.18,29.64s15.17-13.3,15.17-29.64S321.7,199.49,313.33,199.49Zm0,58.82c-8.11,0-14.71-13.09-14.71-29.17a53.57,53.57,0,0,1,1.68-13.52c.16-.59.32-1.17.5-1.74C303.39,205.54,308,200,313.33,200c8.1,0,14.7,13.09,14.7,29.18s-6.6,29.17-14.7,29.17Z" transform="translate(-8.6 -36)"/><path class="cls-1" d="M317,246.27c-2.9,0-5.17-7.52-5.17-17.13S314.07,212,317,212s5.18,7.52,5.18,17.14S319.88,246.27,317,246.27Zm0-33.8c-2.55,0-4.7,7.63-4.7,16.67s2.15,16.66,4.7,16.66,4.71-7.63,4.71-16.66-2.16-16.67-4.71-16.67Z" transform="translate(-8.6 -36)"/><ellipse class="cls-4" cx="308.96" cy="193.14" rx="2" ry="3.94"/><polygon class="cls-1" points="304.61 139.73 336.84 139.62 336.84 152.31 304.61 153.61 304.61 139.73"/><polygon class="cls-1" points="277.08 182.8 276.61 182.77 278.04 156.91 307.2 156.91 307.2 157.38 278.48 157.38 277.08 182.8"/><polygon class="cls-1" points="277.04 224.65 260.57 221.83 260.67 221.37 277.13 224.19 277.04 224.65"/><rect class="cls-1" x="298.74" y="257.1" width="0.47" height="20.06" transform="translate(-0.39 507.17) rotate(-85.29)"/><path class="cls-1" d="M335.38,218.82c-.17.57-.34,1.15-.5,1.74l-.49.05-15.3,1.7-35-3.53,36.46-1.88,14.42,1.86Z" transform="translate(-8.6 -36)"/><path class="cls-5" d="M327.37,134.64s-5.1-1.82-8.37,5.46a145.16,145.16,0,0,1-8.37,15.28l2.91.73s.73-5.1,2.54-5.82l-.72,6.55s21.83,7.64,31.66-.73l-.36-2.55s1.45.36,1.45,2.55L349.2,155a19.49,19.49,0,0,0-4.36-5.1c-2.15-1.91-2.89-5.55-3.15-7.82a9.5,9.5,0,0,0-2.17-5.15C337.34,134.43,333.37,131.74,327.37,134.64Z" transform="translate(-8.6 -36)"/><path class="cls-6" d="M299.21,141.5l-2.12-22.11s-4.23-12,2.12-11.06,2.59,10.12,2.59,10.12l3.53,23Z" transform="translate(-8.6 -36)"/><polygon class="cls-6" points="274.14 205.96 271.79 213.96 276.26 217.72 279.56 207.6 274.14 205.96"/><path class="cls-6" d="M300.86,247.84l-2.35,8.47,8.23,5.17s.24-9.64,1.41-11.52Z" transform="translate(-8.6 -36)"/><path class="cls-7" d="M313.35,203.14,312,205.52s-15.21-6.19-19.21,2.39S280,243.63,280,243.63l7.74,2.86,14.14-28.82,32.29-.71,1.33-16Z" transform="translate(-8.6 -36)"/><path class="cls-7" d="M321.77,207.67s-21.65-4-23.23,5.64.79,28,1.06,28.47-1.06,9.18-1.06,9.18l9.5,1.17s6.08-25.64,3.44-32.23l17.86-1c6.16-.34,11.2-4.68,11.55-10.18.14-2.1-.45-4-2.49-5.07-6.33-3.29-17.95-3.29-17.95-3.29Z" transform="translate(-8.6 -36)"/><path class="cls-7" d="M283.45,249.72s-1.65-3.53-4-1.88-7.76,5.17-7.76,5.17-8.37,3-.94,4.94c6.6,1.78,8.23,1.42,8.23,1.42s5.41.94,6.12.47,1.17-8,1.17-8S283,251.13,283.45,249.72Z" transform="translate(-8.6 -36)"/><path class="cls-7" d="M301.8,257s-2.35-3.29-4-1.88-7.53,5.41-7.53,5.41-9.88,2.82-1.17,5.41,18.35,2.12,18.58,1.18-.47-7.76-.47-7.76S302.27,259.13,301.8,257Z" transform="translate(-8.6 -36)"/><circle class="cls-6" cx="321.43" cy="113.5" r="8.47"/><path class="cls-6" d="M323.91,153.27s-.47,9.64-2.82,10.35-8.94,8.47-5.88,10.82,20.7.7,20.7.7l-1.65-12.23s-3.76-2.59-.7-7.06Z" transform="translate(-8.6 -36)"/><path class="cls-4" d="M323.68,169.26,322,161.5l-5.41-2.12-4.47,10.35s-5.06,33.53-3.65,34a6.33,6.33,0,0,0,2.47.35s7.53-2.35,9.89-1.18S335.44,205,335.44,205s8.47-4.47,8-8.47,0-26.35,0-26.35l-1.06-10-9.28,1.45Z" transform="translate(-8.6 -36)"/><polygon class="cls-4" points="308.25 125 307.96 122.71 299.67 109.74 294.94 88 283.4 93.72 291.69 120.04 303.52 139.5 308.25 125"/><polygon class="cls-1" points="337.55 168.91 337.32 159.26 315.42 159.26 314.73 185.14 314.25 185.13 314.97 158.79 337.77 158.79 337.78 159.02 338.01 168.9 337.55 168.91"/><polygon class="cls-1" points="337.07 155.73 336.6 155.73 336.6 137.77 344.2 139.98 344.07 140.43 337.07 138.4 337.07 155.73"/><path class="cls-1" d="M347.91,204.43c-5.5,0-10.33,5.75-13,14.33-.19.61-.36,1.22-.53,1.85a53.21,53.21,0,0,0-1.65,13.47c0,16.34,6.8,29.64,15.17,29.64s15.17-13.3,15.17-29.64S356.28,204.43,347.91,204.43Zm0,58.82c-8.11,0-14.7-13.09-14.7-29.17a53.11,53.11,0,0,1,1.67-13.52c.16-.59.33-1.17.5-1.74,2.59-8.34,7.24-13.92,12.53-13.92,8.11,0,14.7,13.09,14.7,29.18S356,263.25,347.91,263.25Z" transform="translate(-8.6 -36)"/><path class="cls-1" d="M351.56,251.21c-2.91,0-5.18-7.52-5.18-17.13s2.27-17.14,5.18-17.14,5.17,7.53,5.17,17.14S354.46,251.21,351.56,251.21Zm0-33.8c-2.55,0-4.71,7.63-4.71,16.67s2.16,16.66,4.71,16.66,4.7-7.63,4.7-16.66-2.15-16.67-4.7-16.67Z" transform="translate(-8.6 -36)"/><ellipse class="cls-4" cx="343.54" cy="198.08" rx="2" ry="3.94"/><polygon class="cls-1" points="340.37 137.38 345.31 139.26 344.37 141.85 340.37 140.2 340.37 137.38"/><polygon class="cls-1" points="320.84 157.61 320.84 161.38 334.86 161.38 334.86 157.86 320.84 157.61"/><polygon class="cls-1" points="284.85 155.73 284.85 159.49 298.86 159.49 298.86 155.98 284.85 155.73"/><path class="cls-1" d="M319.09,182.6H319v-3.14a1.82,1.82,0,0,0-1.82-1.81h-6.63a1.82,1.82,0,0,0-1.82,1.81h0v17.19a1.82,1.82,0,0,0,1.82,1.81h6.63a1.82,1.82,0,0,0,1.82-1.81h0V184.83h.11Z" transform="translate(-8.6 -36)"/><circle class="cls-2" cx="305.3" cy="146.99" r="1.11"/><path class="cls-6" d="M342.05,193.84l-22.21-.42s-12.41,2.84-10.75-3.36,10.35-1.42,10.35-1.42l23.3-.88Z" transform="translate(-8.6 -36)"/><path class="cls-4" d="M335.49,161.85l3.1-1.64s5.15-1.89,6.18,4.7,8.59,28.47,1,28.7-26.8.47-26.8.47l2.06-7.29,15.81-.71Z" transform="translate(-8.6 -36)"/><polygon class="cls-8" points="331.9 135.97 330.97 149.38 317.4 151.5 329.74 147.73 331.9 135.97"/><rect class="cls-3" x="186.89" y="56.66" width="10.76" height="11.14" transform="translate(-17.61 8.08) rotate(-12.78)"/><path class="cls-1" d="M189.31,67.12l-2.59-11.44,11-2.51,2.6,11.44Zm-1.91-11,2.34,10.3,9.93-2.26-2.33-10.29Z" transform="translate(-8.6 -36)"/><path class="cls-1" d="M298.16,114.59V86.22h82.9v21H305.55Zm.72-27.65v25.91l6.37-6.37h75.09V86.94Z" transform="translate(-8.6 -36)"/><rect class="cls-3" x="308.25" y="55.5" width="46.23" height="3.75"/><rect class="cls-3" x="308.25" y="61.12" width="46.23" height="3.75"/></svg>