<svg id="Layer_1" data-name="Layer 1" xmlns="http://www.w3.org/2000/svg" viewBox="0 0 393.54 211.86"><defs><style>.cls-1{fill:#6c63ff;}.cls-2{fill:#3f3d56;}.cls-3{fill:#ffb8b8;}.cls-4{fill:#2f2e41;}</style></defs><title>why-7</title><path class="cls-1" d="M152.35,121.06H53a4,4,0,0,0-4,4v19.74c5,.12,8.17,4.21,9,9.17v17.89h.38a.22.22,0,0,1,.22.23v9.52a.23.23,0,0,1-.22.23H58v57.54c0,1.26,0,3.57,0,3.57h94.37a4,4,0,0,0,4-4V125A4,4,0,0,0,152.35,121.06Z" transform="translate(-3.33 -45)"/><path class="cls-1" d="M336.93,56.12v108H163.18V116.56a8.16,8.16,0,0,0-8.15-8.14H122.45V56.12Z" transform="translate(-3.33 -45)"/><path class="cls-2" d="M347.66,179.34H163.37v-.76H346.91V51.4a5.66,5.66,0,0,0-5.65-5.65H115.86a5.65,5.65,0,0,0-5.64,5.65v56.53h-.75V51.4a6.4,6.4,0,0,1,6.39-6.4h225.4a6.41,6.41,0,0,1,6.4,6.4Z" transform="translate(-3.33 -45)"/><path class="cls-2" d="M330.2,202.29H163.37v-.75H330.2a16.73,16.73,0,0,0,16.71-16.71v-5.49H163.37v-.76H347.66v6.25A17.48,17.48,0,0,1,330.2,202.29Z" transform="translate(-3.33 -45)"/><path class="cls-2" d="M280.69,239.17c-9.3-8.93-15.42-20.59-17.39-36.88H194.76C194.06,217.53,188,229,177,239.13l-1.16,0C187.17,228.91,193.4,217.4,194,201.9l0-.36H264l0,.33c1.93,16.57,8.18,28.3,17.71,37.24Z" transform="translate(-3.33 -45)"/><path class="cls-2" d="M154.85,254.73H49.26V254H154.85a8.14,8.14,0,0,0,8.14-8.14V116.74a8.15,8.15,0,0,0-8.14-8.15H49.26a8.16,8.16,0,0,0-8.14,8.15V144.6h-.75V116.74a8.9,8.9,0,0,1,8.89-8.9H154.85a8.92,8.92,0,0,1,8.9,8.9v129.1A8.9,8.9,0,0,1,154.85,254.73Z" transform="translate(-3.33 -45)"/><path class="cls-2" d="M102.06,117.36a2.55,2.55,0,1,1,2.55-2.55A2.55,2.55,0,0,1,102.06,117.36Zm0-4.51a2,2,0,1,0,2,2h0a2,2,0,0,0-2-2Z" transform="translate(-3.33 -45)"/><path class="cls-2" d="M102.06,251.85a3.26,3.26,0,1,1,3.25-3.26A3.26,3.26,0,0,1,102.06,251.85Zm0-5.76a2.51,2.51,0,1,0,2.5,2.5h0A2.5,2.5,0,0,0,102.06,246.09Z" transform="translate(-3.33 -45)"/><path class="cls-2" d="M48.2,255H13.25A9.92,9.92,0,0,1,3.33,245V154.52a9.92,9.92,0,0,1,9.92-9.92h35a9.93,9.93,0,0,1,9.93,9.92v16.2a1,1,0,0,1,.6.9v10.54a1,1,0,0,1-.6.9v62A9.93,9.93,0,0,1,48.2,255ZM13.25,145.35a9.19,9.19,0,0,0-9.17,9.17V245a9.19,9.19,0,0,0,9.17,9.17h35A9.19,9.19,0,0,0,57.38,245V182.39h.37a.23.23,0,0,0,.23-.23V171.62a.22.22,0,0,0-.23-.22h-.37V154.52a9.19,9.19,0,0,0-9.18-9.17Z" transform="translate(-3.33 -45)"/><path class="cls-1" d="M48.59,147.46H44a3.39,3.39,0,0,1-1.86,4.41,3.32,3.32,0,0,1-1.28.25h-20a3.38,3.38,0,0,1-3.39-3.38,3.28,3.28,0,0,1,.25-1.28H13.47a7.13,7.13,0,0,0-7.13,7.13V245a7.13,7.13,0,0,0,7.13,7.13H48.59A7.13,7.13,0,0,0,55.72,245h0V154.59A7.13,7.13,0,0,0,48.59,147.46Z" transform="translate(-3.33 -45)"/><path class="cls-2" d="M280.92,254.59H176.69a7.9,7.9,0,1,1,0-15.8H280.92a7.9,7.9,0,0,1,0,15.8ZM176.69,239.54a7.15,7.15,0,0,0,0,14.3H280.92a7.15,7.15,0,0,0,0-14.3Z" transform="translate(-3.33 -45)"/><polygon class="cls-3" points="353.27 149.43 356.19 155.53 381.12 147.18 376.81 138.17 353.27 149.43"/><path class="cls-4" d="M359.48,215l-9.17-19.18h0l7.41-3.54h0l5.9,12.33a7.59,7.59,0,0,1-3.57,10.12l-.57.27Z" transform="translate(-3.33 -45)"/><polygon class="cls-3" points="347.4 203.93 354.16 203.7 354.44 177.38 346.52 177.85 347.4 203.93"/><path class="cls-4" d="M351.28,245a2.54,2.54,0,0,1-2.46-1.93c-3.7-14.88-17.49-89.87-5.3-104.6l.11-.13.16,0c.85-.21,17-5.21,26.45,2.59l.11.09,5.26,15.25,14.2,21.07A10.41,10.41,0,0,1,387,191.72l-.26.17-18.65,11.76a2.54,2.54,0,0,1-3.69-1.27l-3.92-9.8a2.55,2.55,0,0,1,1.22-3.22l8.74-4.37a1.89,1.89,0,0,0,.93-1.28,1.51,1.51,0,0,0-.52-1.29l-10.14-8.74a1.53,1.53,0,0,0-2.16.16,1.55,1.55,0,0,0-.37,1l2.52,66.36a2.56,2.56,0,0,1-2.15,2.61L351.69,245A2.83,2.83,0,0,1,351.28,245Z" transform="translate(-3.33 -45)"/><path class="cls-2" d="M368.77,143.57h-.17l-25.29-1.88a2.29,2.29,0,0,1-2.12-2.45,2.4,2.4,0,0,1,.13-.59,24.1,24.1,0,0,0,.55-13.92c-1.65-6.5-1.69-18.57-1.57-25.19a4.46,4.46,0,0,1,4.22-4.34H345a104,104,0,0,1,17.87,1.64,9.38,9.38,0,0,1,7.47,9c.14,6.15.16,14.47-.54,19.2-.58,4,.5,11.65,1.2,15.86a2.28,2.28,0,0,1-1.89,2.63A2.22,2.22,0,0,1,368.77,143.57Z" transform="translate(-3.33 -45)"/><path class="cls-3" d="M377.8,167.68a5.11,5.11,0,0,1-2.4-6.82,4.61,4.61,0,0,1,.46-.77l-11.68-50.36H373l10.31,49.37a5.14,5.14,0,0,1-5.52,8.58Z" transform="translate(-3.33 -45)"/><path class="cls-3" d="M322.49,115.18l14-13.23,5.27,7.38-13.17,11.59,17.27,13.71.37,0a5.54,5.54,0,1,1-5.47,6.27l-.06.06-18-15.58a6.86,6.86,0,0,1-.69-9.69C322.17,115.5,322.32,115.34,322.49,115.18Z" transform="translate(-3.33 -45)"/><path class="cls-2" d="M365.11,113a2.27,2.27,0,0,1-2.07-1.3,26.8,26.8,0,0,1-2.27-7.42A6.23,6.23,0,0,1,366.05,97a6.08,6.08,0,0,1,7.31,4.78,9,9,0,0,1,.18,1c.36,3.06.7,5.44,1,7.08a2.29,2.29,0,0,1-1.83,2.67,1.76,1.76,0,0,1-.31,0l-7.18.36Z" transform="translate(-3.33 -45)"/><circle class="cls-4" cx="351.77" cy="30.57" r="15.29"/><circle class="cls-3" cx="351.86" cy="34.54" r="12.52"/><path class="cls-2" d="M333,106.86a2.27,2.27,0,0,1-.64-2.35,27,27,0,0,1,3.34-7,6.25,6.25,0,0,1,8.79-1.77,6.08,6.08,0,0,1,2.16,8.47c-.18.3-.37.59-.57.88-1.81,2.5-3.17,4.49-4,5.9a2.29,2.29,0,0,1-3.16.74l-.25-.19-5.54-4.58Z" transform="translate(-3.33 -45)"/><path class="cls-4" d="M352.13,61.91c-3.08-1.83-3.75-6.4-1.91-9.48s5.54-4.68,9.12-4.79c5.11-.15,10.05,2.4,13.63,6s5.95,8.34,7.75,13.13,3.09,9.76,4.86,14.56c.91,2.46,2,5,4.12,6.59s5.39,1.89,7.17,0a7.59,7.59,0,0,1-5.31,6.85,10.48,10.48,0,0,1-8.84-1.47c-4.46-3-6.62-8.37-7.85-13.58S373,69.05,370.55,64.3a10.84,10.84,0,0,0-4.42-4.85,5.54,5.54,0,0,0-6.21.61,18.7,18.7,0,0,1-2.05,2.29,4.08,4.08,0,0,1-3.58.38A12.25,12.25,0,0,1,351,60.9" transform="translate(-3.33 -45)"/><path class="cls-4" d="M342.12,71.08a15,15,0,0,0,20.95,3.08c.17-.13.35-.26.51-.4,1.22-1,2.35-2.35,2.27-3.92s-1.39-2.86-2.72-3.74a17.58,17.58,0,0,0-11.93-2.75,11,11,0,0,0-6.46,2.91,6.42,6.42,0,0,0-1.66,6.61" transform="translate(-3.33 -45)"/><path class="cls-4" d="M370.59,256.86H350.25V249h13.08a7.26,7.26,0,0,1,7.26,7.26v.6Z" transform="translate(-3.33 -45)"/></svg>