<svg id="Layer_1" data-name="Layer 1" xmlns="http://www.w3.org/2000/svg" xmlns:xlink="http://www.w3.org/1999/xlink" viewBox="0 0 331.46 255.33"><defs><style>.cls-1,.cls-3{fill:#6c63ff;}.cls-1,.cls-2,.cls-26{opacity:0.1;}.cls-1,.cls-13,.cls-19,.cls-26,.cls-28,.cls-47,.cls-51{isolation:isolate;}.cls-13,.cls-4{opacity:0.6;}.cls-5{fill:#ef3f36;}.cls-6{fill:#fcd900;}.cls-7{fill:#61bc5b;}.cls-8{fill:#5ab055;}.cls-28,.cls-47,.cls-9{fill:#fff;}.cls-10{fill:url(#linear-gradient);}.cls-11{fill:#eaca05;}.cls-12{fill:#df3a32;}.cls-13{fill:#3277bc;}.cls-14{fill:url(#linear-gradient-2);}.cls-15{fill:url(#radial-gradient);}.cls-16{fill:#f3f3f3;}.cls-17{fill:#e2e2e2;}.cls-18{fill-opacity:0.2;fill:url(#linear-gradient-3);}.cls-19{opacity:0.05;}.cls-20{fill:#cd151e;}.cls-21{fill:#fa5153;}.cls-22{fill:#acacac;}.cls-23{fill:#eee;}.cls-24{fill:url(#linear-gradient-4);}.cls-25{fill:#ecb4b6;}.cls-27{fill:#c17174;}.cls-28{opacity:0.25;}.cls-29{fill:#9f9eff;}.cls-30{fill:#5e5a6b;}.cls-31{fill:#464353;}.cls-32{fill:url(#linear-gradient-5);}.cls-33{fill:url(#linear-gradient-6);}.cls-34{fill:url(#linear-gradient-7);}.cls-35{fill:url(#linear-gradient-8);}.cls-36{fill:#3e373a;}.cls-37{fill:#e7c7ca;}.cls-38{fill:#be6f72;}.cls-39{fill:#4b4b5b;}.cls-40{fill:url(#linear-gradient-9);}.cls-41{fill:#7e656a;}.cls-42{fill:#ffb9b9;}.cls-43{fill:#8189a6;}.cls-44{fill:#c3c7d9;}.cls-45{fill:#cdd0db;}.cls-46{fill:#9da7c0;}.cls-47{opacity:0.3;}.cls-48{fill:none;stroke:#565987;stroke-miterlimit:10;}.cls-49{fill:#ffd037;}.cls-50{fill:#a8a8a8;}.cls-51{opacity:0.2;}</style><linearGradient id="linear-gradient" x1="1.48" y1="-600.74" x2="1.48" y2="-600.73" gradientTransform="translate(-1127.68 554795.83) scale(923.39)" gradientUnits="userSpaceOnUse"><stop offset="0" stop-color="#86bbe5"/><stop offset="1" stop-color="#1072ba"/></linearGradient><linearGradient id="linear-gradient-2" x1="2.03" y1="-599.93" x2="2.03" y2="-599.95" gradientTransform="translate(-4897.78 1453079.16) scale(2421.88)" gradientUnits="userSpaceOnUse"><stop offset="0.25" stop-color="#dbdbda"/><stop offset="1" stop-color="#fff"/></linearGradient><radialGradient id="radial-gradient" cx="2" cy="-599.98" r="0.01" gradientTransform="translate(-4443.67 1344188.4) scale(2240.23)" gradientUnits="userSpaceOnUse"><stop offset="0" stop-color="#2abce1"/><stop offset="0.11" stop-color="#2abbe1"/><stop offset="1" stop-color="#3375f8"/></radialGradient><linearGradient id="linear-gradient-3" x1="1.99" y1="-599.98" x2="1.99" y2="-599.97" gradientTransform="translate(-4437.04 1344187.53) scale(2240.23)" gradientUnits="userSpaceOnUse"><stop offset="0" stop-opacity="0"/><stop offset="1"/></linearGradient><linearGradient id="linear-gradient-4" x1="146.6" y1="-14.42" x2="146.6" y2="126.75" gradientTransform="matrix(1, 0, 0, -1, -61.06, 267.16)" gradientUnits="userSpaceOnUse"><stop offset="0" stop-color="gray" stop-opacity="0.25"/><stop offset="0.54" stop-color="gray" stop-opacity="0.12"/><stop offset="1" stop-color="gray" stop-opacity="0.1"/></linearGradient><linearGradient id="linear-gradient-5" x1="377.95" y1="116.95" x2="377.95" y2="117.55" xlink:href="#linear-gradient-4"/><linearGradient id="linear-gradient-6" x1="405.31" y1="49.38" x2="405.31" y2="52.46" xlink:href="#linear-gradient-4"/><linearGradient id="linear-gradient-7" x1="375.44" y1="158.17" x2="375.44" y2="158.24" xlink:href="#linear-gradient-4"/><linearGradient id="linear-gradient-8" x1="384.44" y1="33.35" x2="384.44" y2="167.52" xlink:href="#linear-gradient-4"/><linearGradient id="linear-gradient-9" x1="264.3" y1="66.26" x2="264.3" y2="174.79" xlink:href="#linear-gradient-4"/></defs><title>why-6</title><path class="cls-1" d="M238.15,65.23c-14.23,12.08-32.67,11.29-48.84,5s-31-17.46-46.77-25.41a131.47,131.47,0,0,0-41.08-13C81.38,29.08,59,32.46,45,52,29.4,73.7,30.6,112.9,47.44,132.84,56,143,67.23,148,77,155.91S95.86,177,95,192.28c-.77,14.15-9.74,25-19,31.84-7.17,5.27-16,11-16.87,21.94-.84,10.56,6.59,18.83,13.69,23.53,23.14,15.35,51.66,15.21,74.72-.39,8.23-5.56,15.79-12.95,24.41-17.29,22.65-11.37,47.61.08,71.59,4.27a119.21,119.21,0,0,0,60.89-5.37c11.88-4.26,23.8-10.77,32.14-22.87,6-8.74,9.77-19.79,13.28-30.71q5.64-17.46,10.83-35.17c2.07-7.07,4.12-14.31,4.65-21.89,1-13.74-3.12-27.32-8.7-38.91-13.25-27.53-35.56-46.89-59.72-51.81s-49.71,4.69-68.45,25.71" transform="translate(-34.02 -31)"/><g class="cls-2"><path class="cls-3" d="M118.45,104s-8.4,2-10.72,6.76l-2.55-.9V113l-5.33-1.42s3.6,2,1.58,4.5-8.09,7.12-8.09,7.12S89.22,119.4,94.77,112,112.23,99.23,118.45,104Z" transform="translate(-34.02 -31)"/><path class="cls-3" d="M117.85,101.85s-14.49-20.47-34.54-3.74c0,0,6.27.3,7.92,1.42,0,0,.08-4.27,1.5-3.15l.83,3.3,4.64.67s1.09-3.82,2.38-3.15l1.75,3.3,3.75.23s.75-3.45,1.57-2.93,1.5,2.63,1.5,2.63S115.75,100.06,117.85,101.85Z" transform="translate(-34.02 -31)"/><path class="cls-3" d="M119.28,101.85l-3.45-8.38s.15-2.93,1.12-3.08l-1.87.75-1.58-1.8,1.13-2.92s-2.25,2.17-3,2.17-5.4-2.92-5.4-2.92l2.32-2.77s-3,3.23-5.32,2.18-10.5-4.75-8-5.5,7.65-4.65,15.75-.45S125.42,94.06,119.28,101.85Z" transform="translate(-34.02 -31)"/><path class="cls-3" d="M120.77,101.85l5.71-10.32,2.1.58L128.2,89l4.42-3,1,1.57V84.24l5-1.87,1.28,1.35s-.75-2.92,3.07-2.46,5.33-.05,5.33-.05-3.6,5.12-5.78,7l-2.85-.94,1.23,2.7L135.63,93s-3.15-2-3.3-1.47l1.27,2.61S120.48,100.43,120.77,101.85Z" transform="translate(-34.02 -31)"/><path class="cls-3" d="M122.8,103.13s3.08-5.62,7.8-5.17L132,99.75s-1.27-3,3.83-4a116.4,116.4,0,0,1,12.45-1.56l1.35,2.55,1.57-2.55,5.63,2.55s-1.28,4.49-10.28,5.16l-1.42-2.17-.23,2.17-5.1,1.65s-1.27-2.7-1.8-2.32-.3,2.32-.3,2.32A30.18,30.18,0,0,1,122.8,103.13Z" transform="translate(-34.02 -31)"/><path class="cls-3" d="M121.3,104.27s1.2,8.16,2.85,9.13a17.23,17.23,0,0,0,4.65,1.5l-4.87.6,2.46,3.9,4.57,2.1-3.45.67-.22,2,2,.9-2.24,1s-1.5,5.63-3.67,8.33c0,0,5.77-1.42,7.65-4.5a28.06,28.06,0,0,0,2.76-7.88s.31-7-1-8.91S122.72,103.76,121.3,104.27Z" transform="translate(-34.02 -31)"/><polygon class="cls-3" points="85.41 75.28 84.44 75.88 82.64 79.63 85.78 79.63 85.41 75.28"/><path class="cls-3" d="M119.13,111.38l-3.08.67v2.25s1.8.68,1.8,1.28Z" transform="translate(-34.02 -31)"/><polygon class="cls-3" points="81.14 83.83 80.39 87.05 83.08 88.32 83.08 85.4 81.14 83.83"/><path class="cls-3" d="M114.14,118.88l-1,5.36s2.74-1.39,3.23-1l.26-2.85S114.87,118.46,114.14,118.88Z" transform="translate(-34.02 -31)"/><path class="cls-3" d="M112.9,125.21l.26,1.76,3.16.94v-3.22l-.79-.93S112.79,124.42,112.9,125.21Z" transform="translate(-34.02 -31)"/><path class="cls-3" d="M112.45,127.91c0,.22,0,4.65,0,4.65h4L116.3,129Z" transform="translate(-34.02 -31)"/><polygon class="cls-3" points="78.44 102.09 78.88 107.49 82.64 105.2 82.45 102.61 78.44 102.09"/><polygon class="cls-3" points="78.88 108.13 79.15 111.84 83.72 111.58 83.08 105.72 78.88 108.13"/><polygon class="cls-3" points="79.15 112.89 79.9 116.37 84.44 115.58 83.72 112.32 79.15 112.89"/><polygon class="cls-3" points="79.71 117.65 80.44 120.39 85.48 121.14 84.66 116.97 79.71 117.65"/><path class="cls-3" d="M114.56,152.54l2.06,7s2.44-4.39,4.13-4.12l-.83-2.63S115,152,114.56,152.54Z" transform="translate(-34.02 -31)"/><path class="cls-3" d="M116.92,160.38l1.53,4.09s4.92-1.85,5.63-1.35L121,155.93S118.15,160.23,116.92,160.38Z" transform="translate(-34.02 -31)"/><polygon class="cls-3" points="85.11 134.48 87.32 138.91 92.01 135.98 90.06 132.8 85.11 134.48"/><polygon class="cls-3" points="87.92 139.69 89.76 142.58 97.22 142.58 92.57 136.69 87.92 139.69"/><polygon class="cls-3" points="90.06 143.56 95.31 150.72 100.59 146.22 98.01 143.56 90.06 143.56"/><polygon class="cls-3" points="101.08 147.13 95.98 151.17 102.84 153.79 105.28 150.72 101.08 147.13"/><path class="cls-3" d="M165.14,122.77s6.48,1.5,8.27,5.2l2-.7v2.43l4.11-1.1s-2.77,1.51-1.23,3.47,6.24,5.49,6.24,5.49,3.18-2.94-1.1-8.67S169.94,119.06,165.14,122.77Z" transform="translate(-34.02 -31)"/><path class="cls-3" d="M165.61,121.09s11.17-15.79,26.62-2.89c0,0-4.83.23-6.1,1.1,0,0-.06-3.3-1.16-2.43l-.63,2.54-3.59.52s-.83-3-1.84-2.43l-1.35,2.55-2.89.17s-.58-2.66-1.23-2.26-1.16,2-1.16,2S167.22,119.7,165.61,121.09Z" transform="translate(-34.02 -31)"/><path class="cls-3" d="M164.5,121.09l2.66-6.48s-.11-2.25-.86-2.37l1.44.58,1.22-1.39-.87-2.25s1.73,1.68,2.31,1.68,4.16-2.26,4.16-2.26l-1.79-2.15s2.31,2.48,4.11,1.67,8.1-3.62,6.12-4.2-5.89-3.58-12.14-.34S159.76,115.07,164.5,121.09Z" transform="translate(-34.02 -31)"/><path class="cls-3" d="M163.35,121.09l-4.4-8-1.62.44.29-2.43-3.39-2.3-.75,1.23v-2.54l-3.88-1.45-1,1s.58-2.26-2.37-1.91a10.91,10.91,0,0,1-4.1,0,38.17,38.17,0,0,0,4.45,5.38l2.2-.72-1,2.08,4.07,2.37s2.42-1.57,2.54-1.13l-1,2S163.58,120,163.35,121.09Z" transform="translate(-34.02 -31)"/><path class="cls-3" d="M161.79,122.07s-2.37-4.34-6-4l-1.1,1.39s1-2.32-2.94-3.12a90.74,90.74,0,0,0-9.6-1.21l-1,2-1.22-2-4.33,2s1,3.45,7.92,4l1.1-1.67.17,1.67,3.93,1.3s1-2.08,1.39-1.79.23,1.79.23,1.79A23.49,23.49,0,0,0,161.79,122.07Z" transform="translate(-34.02 -31)"/><path class="cls-3" d="M162.94,123s-.92,6.29-2.19,7a13.27,13.27,0,0,1-3.59,1.16l3.76.46-1.91,3-3.53,1.61,2.66.52.18,1.57-1.5.69,1.73.75s1.16,4.34,2.83,6.42c0,0-4.45-1.1-5.9-3.47a21.76,21.76,0,0,1-2.13-6.07s-.23-5.44.75-6.88S161.85,122.56,162.94,123Z" transform="translate(-34.02 -31)"/><polygon class="cls-3" points="130.37 93.5 131.12 93.96 132.51 96.85 130.08 96.85 130.37 93.5"/><path class="cls-3" d="M164.62,128.43,167,129v1.73s-1.39.52-1.39,1Z" transform="translate(-34.02 -31)"/><polygon class="cls-3" points="133.67 100.09 134.25 102.58 132.16 103.56 132.16 101.3 133.67 100.09"/><path class="cls-3" d="M168.46,134.21l.76,4.13s-2.12-1.07-2.49-.78l-.2-2.19S167.92,133.89,168.46,134.21Z" transform="translate(-34.02 -31)"/><path class="cls-3" d="M169.42,139.1l-.2,1.36-2.43.72v-2.49l.61-.72S169.51,138.49,169.42,139.1Z" transform="translate(-34.02 -31)"/><path class="cls-3" d="M169.76,141.18c0,.17,0,3.58,0,3.58h-3.09l.12-2.74Z" transform="translate(-34.02 -31)"/><polygon class="cls-3" points="135.75 114.17 135.4 118.33 132.51 116.57 132.66 114.57 135.75 114.17"/><polygon class="cls-3" points="135.4 118.82 135.2 121.68 131.67 121.48 132.16 116.97 135.4 118.82"/><polygon class="cls-3" points="135.2 122.49 134.62 125.18 131.12 124.57 131.67 122.06 135.2 122.49"/><polygon class="cls-3" points="134.76 126.16 134.2 128.27 130.31 128.85 130.95 125.64 134.76 126.16"/><path class="cls-3" d="M168.15,160.17l-1.59,5.38s-1.88-3.39-3.18-3.18l.63-2S167.83,159.73,168.15,160.17Z" transform="translate(-34.02 -31)"/><path class="cls-3" d="M166.33,166.21l-1.19,3.15s-3.79-1.42-4.34-1l2.37-5.54S165.37,166.09,166.33,166.21Z" transform="translate(-34.02 -31)"/><polygon class="cls-3" points="130.6 139.14 128.9 142.55 125.28 140.3 126.79 137.84 130.6 139.14"/><polygon class="cls-3" points="128.43 143.16 127.02 145.39 121.27 145.39 124.85 140.85 128.43 143.16"/><polygon class="cls-3" points="126.79 146.14 122.74 151.66 118.66 148.19 120.66 146.14 126.79 146.14"/><polygon class="cls-3" points="118.29 148.9 122.22 152.01 116.93 154.03 115.05 151.66 118.29 148.9"/><path class="cls-3" d="M110.61,186.77s15.63-6.64,28.4-5.22a25.6,25.6,0,0,0,2.63.16c5.22.06,23.67.57,32.19,5.06Z" transform="translate(-34.02 -31)"/></g><g class="cls-4"><path class="cls-5" d="M235.07,69a14.45,14.45,0,0,1,12.73,8H234.37s-2.54-.08-4.7,3a6.26,6.26,0,0,0-.54,5.22c-1.08-1.83-5.74-9.94-5.74-9.94s3.29-5.94,11.69-6.27Z" transform="translate(-34.02 -31)"/><path class="cls-6" d="M247.36,90.24a14.46,14.46,0,0,1-13.27,7l6.72-11.63s1.34-2.16-.24-5.57A6.22,6.22,0,0,0,236.3,77c2.13,0,11.47,0,11.47,0S251.28,82.8,247.36,90.24Z" transform="translate(-34.02 -31)"/><path class="cls-7" d="M222.84,90.3a14.45,14.45,0,0,1,.56-15l6.71,11.63s1.2,2.24,4.94,2.58a6.32,6.32,0,0,0,4.81-2.16c-1.05,1.85-5.74,9.94-5.74,9.94s-6.79.12-11.28-7Z" transform="translate(-34.02 -31)"/><path class="cls-8" d="M234.09,97.34,236,89.45a6.31,6.31,0,0,0,3.81-2.07C238.71,89.28,234.09,97.34,234.09,97.34Z" transform="translate(-34.02 -31)"/><path class="cls-9" d="M228.74,83.27a6.3,6.3,0,1,1,6.3,6.29h0A6.3,6.3,0,0,1,228.74,83.27Z" transform="translate(-34.02 -31)"/><path class="cls-10" d="M229.8,83.27A5.23,5.23,0,1,1,235,88.5,5.23,5.23,0,0,1,229.8,83.27Z" transform="translate(-34.02 -31)"/><path class="cls-11" d="M247.77,77,240,79.27A6.32,6.32,0,0,0,236.3,77h11.47Z" transform="translate(-34.02 -31)"/><path class="cls-12" d="M229,85l-5.59-9.66,5.76,5.7a5.76,5.76,0,0,0-.37,3Z" transform="translate(-34.02 -31)"/></g><path class="cls-13" d="M273.78,132.18h14.86c0-5.27-2.3-8.87-8.58-8.87-7.41,0-15,4.83-18.54,10.85,1.11-10.45,8.61-18.89,19.88-18.89,9.67,0,18.83,7.38,18.83,19.68v4.68H273.85c0,6.36,5.54,8.87,11.36,8.87a20.84,20.84,0,0,0,11.45-3.17v8.91a26.51,26.51,0,0,1-12.82,3c-10.24,0-17.47-7.34-17.47-16.46a16.18,16.18,0,0,1,10.33-15.24,10.82,10.82,0,0,0-2.93,6.64Z" transform="translate(-34.02 -31)"/><ellipse class="cls-1" cx="320.01" cy="231.83" rx="34.16" ry="4.24" transform="translate(-67.18 23.58) rotate(-9.27)"/><g class="cls-4"><circle class="cls-14" cx="23.12" cy="104.13" r="21.81"/><circle class="cls-15" cx="23.12" cy="104.13" r="20.17"/><path class="cls-16" d="M57.17,119.87a.26.26,0,0,1-.26-.24v-3.56a.26.26,0,0,1,.26-.26.26.26,0,0,1,.25.26v3.56a.25.25,0,0,1-.25.24Z" transform="translate(-34.02 -31)"/><path class="cls-9" d="M57.17,119.88a.25.25,0,0,1-.27-.25v-3.56a.26.26,0,0,1,.27-.26.27.27,0,0,1,.27.26v3.56A.27.27,0,0,1,57.17,119.88Zm0-4a.24.24,0,0,0-.24.22v3.56a.24.24,0,0,0,.24.22h0a.24.24,0,0,0,.24-.22v-3.56A.26.26,0,0,0,57.17,115.85Z" transform="translate(-34.02 -31)"/><path class="cls-16" d="M58.87,118a.25.25,0,0,1-.23-.26l.11-1.58a.25.25,0,0,1,.28-.22.27.27,0,0,1,.24.25l-.12,1.59a.26.26,0,0,1-.27.22Z" transform="translate(-34.02 -31)"/><path class="cls-9" d="M58.87,118a.28.28,0,0,1-.25-.28l.12-1.58a.26.26,0,0,1,.29-.24.27.27,0,0,1,.25.27l-.12,1.59a.26.26,0,0,1-.27.24Zm.16-2.07a.23.23,0,0,0-.24.21l-.12,1.58a.24.24,0,0,0,.22.24.22.22,0,0,0,.24-.2l.12-1.59A.27.27,0,0,0,59,115.91Z" transform="translate(-34.02 -31)"/><path class="cls-16" d="M60.15,120.17a.25.25,0,0,1-.2-.29l.69-3.49a.24.24,0,0,1,.28-.19h0a.25.25,0,0,1,.2.28l-.71,3.5a.25.25,0,0,1-.29.18Z" transform="translate(-34.02 -31)"/><path class="cls-9" d="M60.15,120.19a.28.28,0,0,1-.22-.31l.7-3.49a.28.28,0,0,1,.31-.2.27.27,0,0,1,.22.3l-.7,3.5A.29.29,0,0,1,60.15,120.19Zm.8-4a.24.24,0,0,0-.27.17l-.7,3.49a.24.24,0,0,0,.46.11l.7-3.5a.25.25,0,0,0-.19-.27Z" transform="translate(-34.02 -31)"/><path class="cls-16" d="M62.19,118.64a.25.25,0,0,1-.18-.3h0l.42-1.53a.26.26,0,0,1,.3-.18h0a.26.26,0,0,1,.19.31l-.43,1.54a.23.23,0,0,1-.29.17Z" transform="translate(-34.02 -31)"/><path class="cls-9" d="M62.19,118.66a.25.25,0,0,1-.18-.31v0l.42-1.53a.27.27,0,0,1,.31-.19.25.25,0,0,1,.19.3v0l-.43,1.54a.26.26,0,0,1-.31.19h0Zm.57-2a.24.24,0,0,0-.29.16L62,118.36a.22.22,0,0,0,.15.26h0a.25.25,0,0,0,.29-.16l.43-1.54a.25.25,0,0,0-.17-.27Z" transform="translate(-34.02 -31)"/><path class="cls-16" d="M63,121a.24.24,0,0,1-.14-.31h0l1.36-3.29a.24.24,0,0,1,.3-.13h0a.25.25,0,0,1,.14.31l-1.37,3.29a.23.23,0,0,1-.3.12Z" transform="translate(-34.02 -31)"/><path class="cls-9" d="M63,121.06a.26.26,0,0,1-.15-.34l1.36-3.29a.28.28,0,0,1,.51.21l-1.36,3.28a.27.27,0,0,1-.35.15Zm1.54-3.73a.23.23,0,0,0-.31.12l-1.36,3.29A.21.21,0,0,0,63,121h0a.22.22,0,0,0,.31-.11h0l1.36-3.29A.23.23,0,0,0,64.57,117.33Z" transform="translate(-34.02 -31)"/><path class="cls-16" d="M65.33,120a.25.25,0,0,1-.12-.32l.72-1.42a.26.26,0,0,1,.46.23l-.72,1.41a.24.24,0,0,1-.33.1Z" transform="translate(-34.02 -31)"/><path class="cls-9" d="M65.33,120a.26.26,0,0,1-.13-.34v0l.72-1.41a.26.26,0,0,1,.34-.16.27.27,0,0,1,.16.35l0,0-.71,1.41a.26.26,0,0,1-.35.12Zm.94-1.85a.24.24,0,0,0-.31.1h0l-.72,1.41a.26.26,0,0,0,.11.31.22.22,0,0,0,.3-.1h0l.72-1.42a.25.25,0,0,0-.09-.32Z" transform="translate(-34.02 -31)"/><path class="cls-16" d="M65.67,122.47a.23.23,0,0,1-.09-.32l0,0,2-2.94a.25.25,0,0,1,.34-.08h0a.24.24,0,0,1,.09.32l0,0-2,3a.24.24,0,0,1-.31.08A0,0,0,0,1,65.67,122.47Z" transform="translate(-34.02 -31)"/><path class="cls-9" d="M65.67,122.49a.3.3,0,0,1-.09-.37l2-3a.27.27,0,0,1,.37-.07h0a.31.31,0,0,1,.09.37l-2,3A.27.27,0,0,1,65.67,122.49Zm2.24-3.35a.23.23,0,0,0-.32,0l-2,2.94a.24.24,0,0,0,.07.31h0a.23.23,0,0,0,.32,0l2-2.93a.24.24,0,0,0-.07-.31Z" transform="translate(-34.02 -31)"/><path class="cls-16" d="M68.16,121.84a.24.24,0,0,1,0-.34l1-1.24a.25.25,0,0,1,.35,0,.26.26,0,0,1,0,.34l-1,1.23a.25.25,0,0,1-.34,0Z" transform="translate(-34.02 -31)"/><path class="cls-9" d="M68.14,121.86a.26.26,0,0,1,0-.37l1-1.23a.25.25,0,0,1,.35-.06l0,0a.27.27,0,0,1,.06.37h0l-1,1.25a.26.26,0,0,1-.36,0Zm1.28-1.62a.22.22,0,0,0-.31,0h0l-1,1.23a.23.23,0,0,0,0,.3.22.22,0,0,0,.32,0h0l1-1.23a.24.24,0,0,0-.06-.32Z" transform="translate(-34.02 -31)"/><path class="cls-16" d="M68,124.4a.24.24,0,0,1,0-.33h0l2.52-2.51a.24.24,0,1,1,.34.34l-2.51,2.51a.24.24,0,0,1-.34,0Z" transform="translate(-34.02 -31)"/><path class="cls-9" d="M68,124.42a.28.28,0,0,1,0-.38l2.52-2.5a.26.26,0,1,1,.39.35v0l-2.53,2.51a.27.27,0,0,1-.37,0Zm2.88-2.87a.26.26,0,0,0-.33,0L68,124.06a.22.22,0,0,0,0,.32.22.22,0,0,0,.3,0l2.53-2.5a.26.26,0,0,0,0-.33Z" transform="translate(-34.02 -31)"/><path class="cls-16" d="M70.54,124.26a.24.24,0,0,1,0-.34h0l1.21-1a.25.25,0,0,1,.35.07.26.26,0,0,1,0,.31l-1.2,1a.25.25,0,0,1-.34,0Z" transform="translate(-34.02 -31)"/><path class="cls-9" d="M70.52,124.28a.28.28,0,0,1,0-.37l1.21-1a.28.28,0,0,1,.37,0v0a.27.27,0,0,1,0,.37l-1.24,1a.25.25,0,0,1-.36,0Zm1.57-1.35a.24.24,0,0,0-.32,0l-1.21,1a.25.25,0,0,0,0,.34.23.23,0,0,0,.32,0l1.21-1a.21.21,0,0,0,0-.31Z" transform="translate(-34.02 -31)"/><path class="cls-16" d="M69.86,126.72a.24.24,0,0,1,0-.33h0l3-2a.25.25,0,0,1,.34.07.23.23,0,0,1,0,.32l0,0-3,2A.26.26,0,0,1,69.86,126.72Z" transform="translate(-34.02 -31)"/><path class="cls-9" d="M69.85,126.72a.27.27,0,0,1,.06-.38l3-2a.26.26,0,0,1,.36.08h0a.28.28,0,0,1-.07.38l-3,2a.26.26,0,0,1-.36-.07Zm3.38-2.24a.22.22,0,0,0-.31-.06l-3,2a.24.24,0,0,0-.07.33.24.24,0,0,0,.32.06l3-2a.26.26,0,0,0,0-.33Z" transform="translate(-34.02 -31)"/><path class="cls-16" d="M72.4,127.07a.25.25,0,0,1,.09-.34l1.37-.78a.26.26,0,0,1,.35.1.25.25,0,0,1-.09.34h0l-1.38.78a.24.24,0,0,1-.34-.1Z" transform="translate(-34.02 -31)"/><path class="cls-9" d="M72.38,127.09a.27.27,0,0,1,.09-.36l1.38-.78a.27.27,0,0,1,.36.1.27.27,0,0,1-.09.36l-1.38.78a.27.27,0,0,1-.36-.1Zm1.81-1a.22.22,0,0,0-.29-.1h0l-1.38.79a.24.24,0,0,0-.09.3.22.22,0,0,0,.29.1h0l1.38-.78a.24.24,0,0,0,.09-.32Z" transform="translate(-34.02 -31)"/><path class="cls-16" d="M71.26,129.34a.24.24,0,0,1,.13-.31h0l3.29-1.36a.26.26,0,0,1,.33.14.24.24,0,0,1-.12.31h0l-3.29,1.36a.24.24,0,0,1-.31-.13Z" transform="translate(-34.02 -31)"/><path class="cls-9" d="M71.24,129.36a.29.29,0,0,1,.14-.36l3.29-1.36a.24.24,0,0,1,.33.15h0a.29.29,0,0,1-.14.36l-3.29,1.36a.27.27,0,0,1-.34-.15ZM75,127.82a.25.25,0,0,0-.29-.14L71.39,129a.25.25,0,0,0-.12.31.26.26,0,0,0,.29.14l3.29-1.36a.24.24,0,0,0,.13-.31h0Z" transform="translate(-34.02 -31)"/><path class="cls-16" d="M73.66,130.19a.24.24,0,0,1,.14-.31h0l1.5-.5a.25.25,0,0,1,.31.15h0a.25.25,0,0,1-.15.32h0l-1.5.5a.24.24,0,0,1-.3-.14Z" transform="translate(-34.02 -31)"/><path class="cls-9" d="M73.64,130.21a.26.26,0,0,1,.16-.34h0l1.5-.5a.28.28,0,0,1,.34.17.27.27,0,0,1-.15.34h0l-1.5.49A.32.32,0,0,1,73.64,130.21Zm2-.65a.23.23,0,0,0-.29-.15l-1.5.49a.23.23,0,0,0-.14.29h0a.23.23,0,0,0,.28.16l1.5-.5A.23.23,0,0,0,75.62,129.56Z" transform="translate(-34.02 -31)"/><path class="cls-16" d="M72.12,132.21a.24.24,0,0,1,.16-.28h0l3.5-.68a.24.24,0,0,1,.29.2h0a.23.23,0,0,1-.16.29h0l-3.49.68a.25.25,0,0,1-.3-.19Z" transform="translate(-34.02 -31)"/><path class="cls-9" d="M72.09,132.21a.28.28,0,0,1,.21-.32l3.49-.68a.27.27,0,0,1,.31.21h0a.27.27,0,0,1-.21.32l-3.49.69a.28.28,0,0,1-.31-.22Zm4-.76a.22.22,0,0,0-.25-.19l-3.5.68a.22.22,0,0,0-.17.26h0a.21.21,0,0,0,.25.19l3.49-.68A.23.23,0,0,0,76.06,131.45Z" transform="translate(-34.02 -31)"/><path class="cls-16" d="M74.31,133.53a.23.23,0,0,1,.19-.27h0l1.57-.19a.25.25,0,0,1,.27.22.23.23,0,0,1-.19.27h0l-1.57.19a.26.26,0,0,1-.27-.22Z" transform="translate(-34.02 -31)"/><path class="cls-9" d="M74.29,133.53a.28.28,0,0,1,.22-.31h0l1.57-.18a.26.26,0,0,1,.29.24.27.27,0,0,1-.22.3l-1.57.19a.27.27,0,0,1-.29-.24Zm2.06-.24a.24.24,0,0,0-.25-.2l-1.57.19a.23.23,0,0,0-.19.25.24.24,0,0,0,.26.2l1.56-.18A.23.23,0,0,0,76.35,133.29Z" transform="translate(-34.02 -31)"/><path class="cls-16" d="M72.4,135.18a.25.25,0,0,1,.24-.25H76.2a.25.25,0,0,1,.25.25.26.26,0,0,1-.25.26H72.64a.25.25,0,0,1-.24-.26Z" transform="translate(-34.02 -31)"/><path class="cls-9" d="M72.38,135.18a.27.27,0,0,1,.26-.27H76.2a.27.27,0,0,1,.27.27.28.28,0,0,1-.27.28H72.64A.28.28,0,0,1,72.38,135.18Zm4,0a.25.25,0,0,0-.22-.24H72.64a.23.23,0,0,0-.22.24h0a.24.24,0,0,0,.22.24H76.2A.27.27,0,0,0,76.42,135.2Z" transform="translate(-34.02 -31)"/><path class="cls-16" d="M74.29,136.9a.27.27,0,0,1,.26-.24l1.58.12a.25.25,0,0,1,.22.27h0a.27.27,0,0,1-.25.24l-1.59-.12A.29.29,0,0,1,74.29,136.9Z" transform="translate(-34.02 -31)"/><path class="cls-9" d="M74.28,136.9a.27.27,0,0,1,.27-.25l1.58.12a.26.26,0,0,1,.24.29.27.27,0,0,1-.27.25l-1.58-.12A.3.3,0,0,1,74.28,136.9Zm2.08.16a.22.22,0,0,0-.2-.24h0l-1.58-.12a.24.24,0,0,0-.24.22.21.21,0,0,0,.19.24h0l1.59.12a.25.25,0,0,0,.23-.22Z" transform="translate(-34.02 -31)"/><path class="cls-16" d="M72.09,138.15a.26.26,0,0,1,.29-.21l3.5.7a.25.25,0,0,1,.19.28h0a.26.26,0,0,1-.29.2l-3.49-.69A.26.26,0,0,1,72.09,138.15Z" transform="translate(-34.02 -31)"/><path class="cls-9" d="M72.08,138.15a.26.26,0,0,1,.31-.22l3.49.69a.28.28,0,0,1,.22.33.27.27,0,0,1-.32.22h0l-3.5-.7a.29.29,0,0,1-.2-.31Zm4,.8a.24.24,0,0,0-.16-.27l-3.5-.71a.25.25,0,0,0-.27.21.26.26,0,0,0,.17.26l3.49.69A.23.23,0,0,0,76,139Z" transform="translate(-34.02 -31)"/><path class="cls-16" d="M73.63,140.19a.25.25,0,0,1,.29-.19h0l1.54.43a.24.24,0,0,1,.17.3h0a.24.24,0,0,1-.3.18h0l-1.53-.42a.26.26,0,0,1-.18-.3Z" transform="translate(-34.02 -31)"/><path class="cls-9" d="M73.61,140.19a.26.26,0,0,1,.31-.19l1.53.43a.27.27,0,0,1,.19.32.26.26,0,0,1-.31.19l-1.53-.43A.26.26,0,0,1,73.61,140.19Zm2,.56a.23.23,0,0,0-.15-.29L73.91,140a.21.21,0,0,0-.27.15v0a.23.23,0,0,0,.15.29l1.54.42A.24.24,0,0,0,75.6,140.75Z" transform="translate(-34.02 -31)"/><path class="cls-16" d="M71.23,141a.24.24,0,0,1,.3-.14l3.29,1.36a.28.28,0,0,1,.14.33.24.24,0,0,1-.31.13l-3.29-1.36a.23.23,0,0,1-.13-.3Z" transform="translate(-34.02 -31)"/><path class="cls-9" d="M71.2,141a.26.26,0,0,1,.34-.15h0l3.29,1.36a.27.27,0,0,1,.14.36.27.27,0,0,1-.34.15l-3.29-1.36A.28.28,0,0,1,71.2,141Zm3.73,1.54a.24.24,0,0,0-.11-.31h0l-3.29-1.36a.22.22,0,0,0-.28.13h0a.23.23,0,0,0,.12.3h0l3.3,1.37a.23.23,0,0,0,.29-.13Z" transform="translate(-34.02 -31)"/><path class="cls-16" d="M72.33,143.31a.26.26,0,0,1,.31-.12l1.41.71a.25.25,0,0,1,.11.34h0a.25.25,0,0,1-.31.12l-1.42-.71A.26.26,0,0,1,72.33,143.31Z" transform="translate(-34.02 -31)"/><path class="cls-9" d="M72.31,143.29a.26.26,0,0,1,.35-.13h0l1.42.71a.27.27,0,0,1-.24.48l-1.42-.72a.27.27,0,0,1-.13-.33Zm1.85.93a.22.22,0,0,0-.09-.3h0l-1.42-.72a.24.24,0,0,0-.3.1.22.22,0,0,0,.08.3h0l1.41.71a.23.23,0,0,0,.31-.09Z" transform="translate(-34.02 -31)"/><path class="cls-16" d="M69.83,143.63a.24.24,0,0,1,.32-.08l0,0,3,2a.24.24,0,0,1,.07.34h0a.23.23,0,0,1-.32.08h0l-3-2a.24.24,0,0,1-.07-.33Z" transform="translate(-34.02 -31)"/><path class="cls-9" d="M69.81,143.61a.32.32,0,0,1,.38-.08l3,2a.27.27,0,0,1,.07.37.32.32,0,0,1-.38.09l-3-2a.26.26,0,0,1-.08-.36Zm3.36,2.25a.24.24,0,0,0,0-.32l-3-2a.21.21,0,0,0-.3.06h0a.25.25,0,0,0,0,.33l3,2a.21.21,0,0,0,.3-.06Z" transform="translate(-34.02 -31)"/><path class="cls-16" d="M70.46,146.1a.25.25,0,0,1,.34,0L72,147a.25.25,0,0,1,0,.34.27.27,0,0,1-.35.06l-1.24-1A.24.24,0,0,1,70.46,146.1Z" transform="translate(-34.02 -31)"/><path class="cls-9" d="M70.44,146.08a.29.29,0,0,1,.38-.05l1.23,1a.26.26,0,1,1-.22.48.15.15,0,0,1-.09-.06l-1.25-1A.28.28,0,0,1,70.44,146.08Zm1.64,1.28a.21.21,0,0,0,0-.31h0l-1.23-1a.24.24,0,0,0-.32.05.22.22,0,0,0,0,.31h0l1.23,1A.26.26,0,0,0,72.08,147.36Z" transform="translate(-34.02 -31)"/><path class="cls-16" d="M67.92,145.93a.23.23,0,0,1,.32,0l0,0,2.52,2.51a.25.25,0,0,1,0,.34.22.22,0,0,1-.32,0h0l-2.52-2.51A.25.25,0,0,1,67.92,145.93Z" transform="translate(-34.02 -31)"/><path class="cls-9" d="M67.92,145.91a.28.28,0,0,1,.38,0l2.52,2.51a.27.27,0,0,1,0,.37.26.26,0,0,1-.38,0l-2.52-2.5a.25.25,0,0,1,0-.34S67.91,145.93,67.92,145.91Zm2.86,2.85a.22.22,0,0,0,0-.32l-2.52-2.51a.24.24,0,0,0-.32,0,.24.24,0,0,0,0,.33l2.52,2.5a.22.22,0,0,0,.3,0Z" transform="translate(-34.02 -31)"/><path class="cls-16" d="M68.07,148.47a.24.24,0,0,1,.34,0h0l1,1.19a.25.25,0,0,1-.37.32l-1-1.18a.24.24,0,0,1,0-.34Z" transform="translate(-34.02 -31)"/><path class="cls-9" d="M68.06,148.47a.26.26,0,0,1,.37,0l1,1.19a.25.25,0,0,1,0,.36h0a.27.27,0,0,1-.38,0h0l-1-1.19a.28.28,0,0,1,0-.38ZM69.42,150a.24.24,0,0,0,0-.31l-1-1.19a.23.23,0,0,0-.35.31l1,1.19a.21.21,0,0,0,.31,0Z" transform="translate(-34.02 -31)"/><path class="cls-16" d="M65.62,147.82a.24.24,0,0,1,.33,0,.05.05,0,0,1,0,0l2,2.94a.26.26,0,0,1-.07.35.25.25,0,0,1-.33-.05v0l-2-3a.27.27,0,0,1,.07-.34Z" transform="translate(-34.02 -31)"/><path class="cls-9" d="M65.62,147.81a.26.26,0,0,1,.37.06l2,2.95a.27.27,0,0,1-.06.36h0a.27.27,0,0,1-.38-.06l-2-2.95a.26.26,0,0,1,.07-.36Zm2.25,3.35a.22.22,0,0,0,.07-.3h0l-2-2.95a.23.23,0,0,0-.32-.05.22.22,0,0,0-.08.3h0l2,3a.24.24,0,0,0,.3,0Z" transform="translate(-34.02 -31)"/><path class="cls-16" d="M65.26,150.36a.25.25,0,0,1,.34.08h0l.79,1.38a.27.27,0,0,1-.11.35.25.25,0,0,1-.34-.09l-.78-1.38A.27.27,0,0,1,65.26,150.36Z" transform="translate(-34.02 -31)"/><path class="cls-9" d="M65.26,150.33a.26.26,0,0,1,.36.08l.78,1.38a.26.26,0,0,1-.09.36h0a.26.26,0,0,1-.36-.09l-.78-1.38a.25.25,0,0,1,.1-.35Zm1,1.8a.23.23,0,0,0,.09-.31l-.78-1.37a.25.25,0,0,0-.31-.09.23.23,0,0,0-.09.31l.79,1.38a.22.22,0,0,0,.3.08Z" transform="translate(-34.02 -31)"/><path class="cls-16" d="M63,149.22a.24.24,0,0,1,.32.12h0l1.38,3.29a.26.26,0,0,1-.13.32.26.26,0,0,1-.33-.12l-1.38-3.29a.25.25,0,0,1,.14-.32Z" transform="translate(-34.02 -31)"/><path class="cls-9" d="M63,149.2a.28.28,0,0,1,.35.14l1.39,3.29a.25.25,0,0,1-.15.33h0a.29.29,0,0,1-.36-.14l-1.38-3.29a.28.28,0,0,1,.16-.34Zm1.53,3.73a.21.21,0,0,0,.13-.28h0l-1.38-3.28a.22.22,0,0,0-.3-.12.2.2,0,0,0-.12.28h0l1.38,3.3a.24.24,0,0,0,.31.12h0Z" transform="translate(-34.02 -31)"/><path class="cls-16" d="M62.16,151.64a.24.24,0,0,1,.32.15h0l.49,1.5a.25.25,0,0,1-.15.31h0a.24.24,0,0,1-.3-.15L62,152a.22.22,0,0,1,.13-.3h0Z" transform="translate(-34.02 -31)"/><path class="cls-9" d="M62.14,151.62a.28.28,0,0,1,.35.16h0l.49,1.49a.27.27,0,0,1-.17.34.26.26,0,0,1-.34-.15L62,152a.3.3,0,0,1,.17-.34Zm.67,2a.23.23,0,0,0,.15-.29l-.49-1.5a.23.23,0,0,0-.29-.14h0a.22.22,0,0,0-.15.28l.49,1.51a.21.21,0,0,0,.26.14h0Z" transform="translate(-34.02 -31)"/><path class="cls-16" d="M60.15,150.09a.23.23,0,0,1,.29.16v0l.72,3.49a.26.26,0,0,1-.2.29h0a.23.23,0,0,1-.28-.16v0L60,150.38A.26.26,0,0,1,60.15,150.09Z" transform="translate(-34.02 -31)"/><path class="cls-9" d="M60.15,150.07a.28.28,0,0,1,.33.21l.71,3.49a.26.26,0,0,1-.2.31h0a.29.29,0,0,1-.33-.21L60,150.38a.25.25,0,0,1,.18-.31Zm.8,4a.24.24,0,0,0,.19-.27l-.7-3.49a.23.23,0,0,0-.26-.18h0a.23.23,0,0,0-.19.27l.71,3.49A.25.25,0,0,0,61,154Z" transform="translate(-34.02 -31)"/><path class="cls-16" d="M58.86,152.3a.27.27,0,0,1,.29.21l.2,1.57a.24.24,0,0,1-.21.27h0a.26.26,0,0,1-.29-.21l-.2-1.56A.25.25,0,0,1,58.86,152.3Z" transform="translate(-34.02 -31)"/><path class="cls-9" d="M58.86,152.29a.27.27,0,0,1,.31.22h0l.2,1.57a.27.27,0,0,1-.54.06h0l-.21-1.56A.26.26,0,0,1,58.86,152.29Zm.25,2a.24.24,0,0,0,.21-.25l-.21-1.57a.22.22,0,0,0-.25-.19.24.24,0,0,0-.21.26l.21,1.56a.22.22,0,0,0,.25.19Z" transform="translate(-34.02 -31)"/><path class="cls-16" d="M57.1,150.39a.26.26,0,0,1,.26.24v3.56a.26.26,0,0,1-.26.26.26.26,0,0,1-.25-.26h0v-3.56A.27.27,0,0,1,57.1,150.39Z" transform="translate(-34.02 -31)"/><path class="cls-9" d="M57.1,150.38a.27.27,0,0,1,.28.25v3.56a.29.29,0,0,1-.28.28.28.28,0,0,1-.27-.28v-3.56A.27.27,0,0,1,57.1,150.38Zm0,4a.23.23,0,0,0,.24-.22v-3.56a.23.23,0,0,0-.24-.22.25.25,0,0,0-.24.22v3.56A.26.26,0,0,0,57.1,154.41Z" transform="translate(-34.02 -31)"/><path class="cls-16" d="M55.4,152.3a.26.26,0,0,1,.24.26l-.12,1.58a.26.26,0,0,1-.51,0l.11-1.59A.26.26,0,0,1,55.4,152.3Z" transform="translate(-34.02 -31)"/><path class="cls-9" d="M55.4,152.29a.27.27,0,0,1,.25.27l-.12,1.58a.26.26,0,0,1-.29.24.27.27,0,0,1-.25-.27l.12-1.59a.26.26,0,0,1,.27-.24Zm-.16,2.06a.23.23,0,0,0,.24-.21l.12-1.58a.23.23,0,0,0-.22-.24.23.23,0,0,0-.24.2L55,154.11A.27.27,0,0,0,55.24,154.35Z" transform="translate(-34.02 -31)"/><path class="cls-16" d="M54.12,150.09a.26.26,0,0,1,.2.29l-.69,3.49a.25.25,0,0,1-.28.19h0a.26.26,0,0,1-.21-.29l.7-3.49A.25.25,0,0,1,54.12,150.09Z" transform="translate(-34.02 -31)"/><path class="cls-9" d="M54.12,150.07a.28.28,0,0,1,.22.31l-.69,3.49a.28.28,0,0,1-.55-.1l.7-3.49a.29.29,0,0,1,.32-.2Zm-.8,4a.24.24,0,0,0,.27-.17l.7-3.5a.23.23,0,0,0-.18-.28.23.23,0,0,0-.28.18h0l-.7,3.49A.25.25,0,0,0,53.32,154.05Z" transform="translate(-34.02 -31)"/><path class="cls-16" d="M52.08,151.62a.25.25,0,0,1,.18.31l-.42,1.54a.24.24,0,0,1-.3.17h0a.26.26,0,0,1-.19-.31h0l.43-1.54a.25.25,0,0,1,.3-.17h0Z" transform="translate(-34.02 -31)"/><path class="cls-9" d="M52.08,151.6a.27.27,0,0,1,.19.32h0l-.42,1.54a.27.27,0,0,1-.31.18.26.26,0,0,1-.19-.31h0l.43-1.54a.26.26,0,0,1,.31-.18Zm-.56,2a.24.24,0,0,0,.29-.15l.43-1.54a.22.22,0,0,0-.15-.27h0a.24.24,0,0,0-.28.16l-.43,1.54A.24.24,0,0,0,51.52,153.6Z" transform="translate(-34.02 -31)"/><path class="cls-16" d="M51.24,149.22a.24.24,0,0,1,.14.31h0L50,152.82a.24.24,0,0,1-.32.12h0a.25.25,0,0,1-.13-.32l1.35-3.28a.22.22,0,0,1,.3-.12Z" transform="translate(-34.02 -31)"/><path class="cls-9" d="M51.24,149.2a.25.25,0,0,1,.15.34h0L50,152.82a.28.28,0,0,1-.35.14h0a.25.25,0,0,1-.16-.33h0l1.36-3.29a.28.28,0,0,1,.36-.13Zm-1.54,3.73a.24.24,0,0,0,.31-.11l1.36-3.3a.21.21,0,0,0-.12-.28h0a.23.23,0,0,0-.31.12l-1.36,3.28a.23.23,0,0,0,.12.29Z" transform="translate(-34.02 -31)"/><path class="cls-16" d="M48.94,150.31a.25.25,0,0,1,.12.32l-.71,1.42a.25.25,0,0,1-.34.1h0a.26.26,0,0,1-.12-.33l.71-1.41a.25.25,0,0,1,.34-.1Z" transform="translate(-34.02 -31)"/><path class="cls-9" d="M48.94,150.29a.27.27,0,0,1,.14.34s0,0,0,0l-.71,1.41a.27.27,0,0,1-.36.12h0a.26.26,0,0,1-.13-.34v0l.71-1.41a.27.27,0,0,1,.34-.15ZM48,152.14a.22.22,0,0,0,.3-.1h0l.72-1.41a.25.25,0,0,0-.1-.3.23.23,0,0,0-.31.09h0l-.72,1.41A.26.26,0,0,0,48,152.14Z" transform="translate(-34.02 -31)"/><path class="cls-16" d="M48.6,147.79a.23.23,0,0,1,.08.32v0l-2,3a.24.24,0,0,1-.33.07h0a.25.25,0,0,1-.08-.33v0l2-3a.24.24,0,0,1,.32-.08Z" transform="translate(-34.02 -31)"/><path class="cls-9" d="M48.6,147.77a.32.32,0,0,1,.09.38l-2,2.94a.26.26,0,0,1-.37.07h0a.3.3,0,0,1-.09-.37l2-2.95A.27.27,0,0,1,48.6,147.77Zm-2.25,3.36a.24.24,0,0,0,.31,0l2-3a.22.22,0,0,0-.06-.3h0a.25.25,0,0,0-.31.05l-2,2.93a.26.26,0,0,0,.07.33Z" transform="translate(-34.02 -31)"/><path class="cls-16" d="M46.11,148.42a.25.25,0,0,1,.06.34l-1,1.24a.25.25,0,0,1-.36,0,.24.24,0,0,1,0-.32l1-1.25A.24.24,0,0,1,46.11,148.42Z" transform="translate(-34.02 -31)"/><path class="cls-9" d="M46.13,148.4a.27.27,0,0,1,0,.38l-1,1.23a.25.25,0,0,1-.35.05l0,0a.26.26,0,0,1,0-.37l1-1.23a.25.25,0,0,1,.35-.06ZM44.85,150a.23.23,0,0,0,.32,0h0l1-1.23a.25.25,0,0,0-.06-.33.22.22,0,0,0-.3,0l-1,1.25a.25.25,0,0,0,0,.31Z" transform="translate(-34.02 -31)"/><path class="cls-16" d="M46.29,145.86a.22.22,0,0,1,0,.32l0,0-2.52,2.51a.24.24,0,0,1-.33,0h0a.25.25,0,0,1,0-.34h0l2.51-2.51a.24.24,0,0,1,.34,0Z" transform="translate(-34.02 -31)"/><path class="cls-9" d="M46.29,145.85a.27.27,0,0,1,0,.37l-2.52,2.51a.27.27,0,0,1-.37,0,.26.26,0,0,1,0-.38l2.52-2.5A.27.27,0,0,1,46.29,145.85Zm-2.88,2.86a.26.26,0,0,0,.31,0l2.52-2.51a.21.21,0,0,0-.05-.31.21.21,0,0,0-.25,0l-2.53,2.5A.26.26,0,0,0,43.41,148.71Z" transform="translate(-34.02 -31)"/><path class="cls-16" d="M43.73,146a.25.25,0,0,1,0,.34l-1.21,1a.25.25,0,1,1-.34-.38h0l1.21-1a.24.24,0,0,1,.33,0Z" transform="translate(-34.02 -31)"/><path class="cls-9" d="M43.75,146a.27.27,0,0,1,0,.38h0l-1.21,1a.26.26,0,0,1-.36,0l0,0a.28.28,0,0,1,0-.37l1.21-1a.25.25,0,0,1,.36,0Zm-1.57,1.35a.23.23,0,0,0,.32,0l1.21-1a.23.23,0,0,0,0-.33.23.23,0,0,0-.32,0l-1.21,1a.21.21,0,0,0,0,.3Z" transform="translate(-34.02 -31)"/><path class="cls-16" d="M44.41,143.55a.23.23,0,0,1,0,.32l0,0-3,2a.25.25,0,0,1-.34-.07.22.22,0,0,1,0-.32l0,0,3-2a.26.26,0,0,1,.34.07Z" transform="translate(-34.02 -31)"/><path class="cls-9" d="M44.43,143.55a.27.27,0,0,1-.07.37l-3,2a.26.26,0,0,1-.36-.07v0a.27.27,0,0,1,.07-.37l3-2a.27.27,0,0,1,.37.07v0Zm-3.38,2.23a.22.22,0,0,0,.3.07h0l3-2a.21.21,0,0,0,0-.3h0a.24.24,0,0,0-.31-.07l-3,2a.24.24,0,0,0-.05.32Z" transform="translate(-34.02 -31)"/><path class="cls-16" d="M41.87,143.19a.24.24,0,0,1-.08.34h0l-1.38.78a.26.26,0,0,1-.27-.44l1.38-.78a.24.24,0,0,1,.34.1Z" transform="translate(-34.02 -31)"/><path class="cls-9" d="M41.89,143.17a.27.27,0,0,1-.09.36l-1.37.78a.27.27,0,0,1-.36-.1.26.26,0,0,1,.08-.36l1.38-.78A.27.27,0,0,1,41.89,143.17Zm-1.81,1a.22.22,0,0,0,.29.09h0l1.38-.78a.25.25,0,0,0,.09-.31.22.22,0,0,0-.29-.1h0l-1.38.79A.24.24,0,0,0,40.08,144.21Z" transform="translate(-34.02 -31)"/><path class="cls-16" d="M43,140.92a.24.24,0,0,1-.11.32h0l-3.29,1.36a.26.26,0,0,1-.31-.14.23.23,0,0,1,.12-.31h0l3.29-1.36A.23.23,0,0,1,43,140.92Z" transform="translate(-34.02 -31)"/><path class="cls-9" d="M43,140.91a.26.26,0,0,1-.14.35l-3.28,1.37a.26.26,0,0,1-.34-.16h0a.27.27,0,0,1,.13-.35l3.29-1.37A.26.26,0,0,1,43,140.91Zm-3.73,1.53a.25.25,0,0,0,.29.14l3.29-1.36a.24.24,0,0,0,.12-.3h0a.24.24,0,0,0-.29-.13l-3.29,1.36a.22.22,0,0,0-.12.29v0Z" transform="translate(-34.02 -31)"/><path class="cls-16" d="M40.61,140.07a.24.24,0,0,1-.14.32h0l-1.5.5a.25.25,0,0,1-.31-.15h0a.25.25,0,0,1,.15-.31l1.5-.5a.24.24,0,0,1,.31.13Z" transform="translate(-34.02 -31)"/><path class="cls-9" d="M40.63,140.05a.27.27,0,0,1-.15.34h0l-1.5.5a.28.28,0,0,1-.34-.17.26.26,0,0,1,.15-.33h0l1.5-.5a.3.3,0,0,1,.34.17Zm-2,.65a.25.25,0,0,0,.29.16l1.51-.5a.23.23,0,0,0,.14-.29.24.24,0,0,0-.3-.15h0l-1.5.49a.25.25,0,0,0-.13.29Z" transform="translate(-34.02 -31)"/><path class="cls-16" d="M42.14,138.06a.22.22,0,0,1-.16.28h0l-3.49.68a.26.26,0,0,1-.31-.18v0a.23.23,0,0,1,.16-.28h0l3.49-.68a.25.25,0,0,1,.29.21Z" transform="translate(-34.02 -31)"/><path class="cls-9" d="M42.18,138.06a.28.28,0,0,1-.19.31l-3.51.68a.26.26,0,0,1-.3-.22h0a.3.3,0,0,1,.21-.33l3.49-.68a.28.28,0,0,1,.31.22Zm-4,.76a.23.23,0,0,0,.26.19l3.49-.68a.22.22,0,0,0,.17-.26h0a.23.23,0,0,0-.26-.19l-3.49.68A.23.23,0,0,0,38.21,138.82Z" transform="translate(-34.02 -31)"/><path class="cls-16" d="M40,136.73a.22.22,0,0,1-.19.27h0l-1.57.18a.25.25,0,0,1-.27-.22.24.24,0,0,1,.2-.27h0l1.56-.19A.25.25,0,0,1,40,136.73Z" transform="translate(-34.02 -31)"/><path class="cls-9" d="M40,136.73a.27.27,0,0,1-.22.31l-1.57.19a.28.28,0,0,1-.29-.24.28.28,0,0,1,.23-.31l1.56-.18a.25.25,0,0,1,.29.23Zm-2.06.24a.25.25,0,0,0,.25.21l1.57-.19a.23.23,0,0,0,.19-.26.24.24,0,0,0-.25-.2l-1.57.19A.22.22,0,0,0,37.92,137Z" transform="translate(-34.02 -31)"/><path class="cls-16" d="M41.87,135.08a.25.25,0,0,1-.24.26H38.07a.26.26,0,0,1-.25-.26.25.25,0,0,1,.25-.25h3.56a.23.23,0,0,1,.24.25Z" transform="translate(-34.02 -31)"/><path class="cls-9" d="M41.89,135.08a.26.26,0,0,1-.26.27H38.07a.25.25,0,0,1-.25-.27.26.26,0,0,1,.25-.27h3.56A.27.27,0,0,1,41.89,135.08Zm-4,0a.24.24,0,0,0,.22.24h3.56a.23.23,0,0,0,.23-.23h0a.25.25,0,0,0-.23-.23H38.07A.25.25,0,0,0,37.85,135.06Z" transform="translate(-34.02 -31)"/><path class="cls-17" d="M40,133.36a.26.26,0,0,1-.25.24l-1.59-.12a.25.25,0,0,1-.22-.27.25.25,0,0,1,.25-.24l1.59.12A.27.27,0,0,1,40,133.36Z" transform="translate(-34.02 -31)"/><path class="cls-9" d="M40,133.36a.27.27,0,0,1-.27.25l-1.59-.11a.28.28,0,0,1-.24-.29.27.27,0,0,1,.27-.26l1.59.12A.31.31,0,0,1,40,133.36Zm-2.08-.15a.21.21,0,0,0,.19.23h0l1.58.12a.24.24,0,0,0,.24-.22.23.23,0,0,0-.2-.24h0L38.16,133A.27.27,0,0,0,37.92,133.21Z" transform="translate(-34.02 -31)"/><path class="cls-16" d="M42.18,132.12a.26.26,0,0,1-.29.2l-3.49-.72a.23.23,0,0,1-.19-.28h0a.27.27,0,0,1,.29-.21l3.49.71a.29.29,0,0,1,.19.31Z" transform="translate(-34.02 -31)"/><path class="cls-9" d="M42.2,132.12a.28.28,0,0,1-.31.22l-3.49-.7a.28.28,0,0,1-.21-.33.29.29,0,0,1,.31-.22l3.49.7a.28.28,0,0,1,.2.33Zm-4-.81a.25.25,0,0,0,.17.28l3.49.7a.24.24,0,0,0,.27-.19.24.24,0,0,0-.17-.27l-3.49-.7a.24.24,0,0,0-.27.18Z" transform="translate(-34.02 -31)"/><path class="cls-16" d="M40.65,130.06a.26.26,0,0,1-.31.19h0l-1.54-.43a.24.24,0,0,1-.17-.29v0a.25.25,0,0,1,.31-.18h0l1.54.42a.24.24,0,0,1,.17.3Z" transform="translate(-34.02 -31)"/><path class="cls-9" d="M40.66,130.06a.26.26,0,0,1-.31.19l-1.53-.43a.26.26,0,0,1-.21-.31.26.26,0,0,1,.32-.19h0l1.54.43a.26.26,0,0,1,.19.31Zm-2-.56a.24.24,0,0,0,.15.29l1.54.43a.23.23,0,0,0,.27-.15v0a.23.23,0,0,0-.15-.29l-1.54-.42a.24.24,0,0,0-.27.17Z" transform="translate(-34.02 -31)"/><path class="cls-16" d="M43.05,129.25a.25.25,0,0,1-.31.14L39.45,128a.26.26,0,0,1-.13-.33.23.23,0,0,1,.3-.13l3.29,1.36a.24.24,0,0,1,.14.31Z" transform="translate(-34.02 -31)"/><path class="cls-9" d="M43.06,129.27a.26.26,0,0,1-.33.16l-3.29-1.37a.28.28,0,0,1,.2-.51l3.29,1.36A.28.28,0,0,1,43.06,129.27Zm-3.73-1.54a.23.23,0,0,0,.12.31h0l3.29,1.36a.21.21,0,0,0,.28-.12h0a.23.23,0,0,0-.12-.31l-3.29-1.36a.23.23,0,0,0-.29.14Z" transform="translate(-34.02 -31)"/><path class="cls-16" d="M41.94,127a.26.26,0,0,1-.31.12l-1.43-.7a.24.24,0,0,1-.11-.32v0a.27.27,0,0,1,.33-.12l1.41.72a.25.25,0,0,1,.1.34Z" transform="translate(-34.02 -31)"/><path class="cls-9" d="M42,127a.26.26,0,0,1-.35.12h0l-1.41-.74A.26.26,0,0,1,40,126a.27.27,0,0,1,.35-.14l0,0,1.41.71A.26.26,0,0,1,42,127S42,127,42,127Zm-1.85-.94a.22.22,0,0,0,.1.3h0l1.42.71a.26.26,0,0,0,.31-.1.23.23,0,0,0-.1-.3h0l-1.43-.72a.21.21,0,0,0-.28.09v0Z" transform="translate(-34.02 -31)"/><path class="cls-16" d="M44.45,126.63a.23.23,0,0,1-.32.08h0l-3-2a.25.25,0,0,1-.07-.34h0a.24.24,0,0,1,.32-.09s0,0,0,0l3,2a.23.23,0,0,1,.05.31Z" transform="translate(-34.02 -31)"/><path class="cls-9" d="M44.46,126.65a.29.29,0,0,1-.37.08l-3-2a.28.28,0,0,1-.07-.38.31.31,0,0,1,.38-.08l2.94,2a.27.27,0,0,1,.09.36l0,0Zm-3.35-2.25a.23.23,0,0,0,0,.32l3,2a.24.24,0,0,0,.31-.07.25.25,0,0,0,0-.31l-3-2a.21.21,0,0,0-.3.06Z" transform="translate(-34.02 -31)"/><path class="cls-16" d="M43.81,124.16a.24.24,0,0,1-.34,0l-1.23-1a.25.25,0,0,1,.31-.39l1.23,1A.24.24,0,0,1,43.81,124.16Z" transform="translate(-34.02 -31)"/><path class="cls-9" d="M43.83,124.18a.27.27,0,0,1-.37,0h0l-1.23-1a.27.27,0,0,1,0-.38.26.26,0,0,1,.37,0l1.23,1a.28.28,0,0,1,.06.38ZM42.2,122.9a.22.22,0,0,0,0,.31h0l1.23,1a.26.26,0,0,0,.33-.06.21.21,0,0,0,0-.31h0l-1.23-1a.23.23,0,0,0-.3.05Z" transform="translate(-34.02 -31)"/><path class="cls-16" d="M46.35,124.33a.23.23,0,0,1-.32,0l0,0-2.54-2.5a.25.25,0,0,1,0-.34.23.23,0,0,1,.33,0v0l2.53,2.5a.25.25,0,0,1,0,.34Z" transform="translate(-34.02 -31)"/><path class="cls-9" d="M46.35,124.35a.27.27,0,0,1-.37,0l-2.52-2.51a.25.25,0,0,1,0-.37h0a.27.27,0,0,1,.37,0l2.52,2.5a.25.25,0,0,1,0,.34S46.37,124.34,46.35,124.35Zm-2.86-2.85a.24.24,0,0,0,0,.33l2.52,2.5a.23.23,0,0,0,.38-.26s0,0-.07-.06l-2.52-2.52a.22.22,0,0,0-.31,0Z" transform="translate(-34.02 -31)"/><path class="cls-16" d="M46.2,121.79a.24.24,0,0,1-.34,0l-1-1.19a.25.25,0,0,1,0-.34h0a.24.24,0,0,1,.34,0l1,1.19a.24.24,0,0,1,0,.34Z" transform="translate(-34.02 -31)"/><path class="cls-9" d="M46.22,121.79a.27.27,0,0,1-.38,0l-1-1.19a.25.25,0,0,1,0-.35l0,0a.27.27,0,0,1,.37,0h0l1,1.19A.27.27,0,0,1,46.22,121.79Zm-1.37-1.53a.24.24,0,0,0,0,.32l1,1.18a.24.24,0,0,0,.33,0,.24.24,0,0,0,0-.3l-1-1.19a.23.23,0,0,0-.32,0h0Z" transform="translate(-34.02 -31)"/><path class="cls-16" d="M48.65,122.44a.23.23,0,0,1-.32,0l0,0-2-2.94a.26.26,0,0,1,.07-.35.23.23,0,0,1,.32,0l0,0,2,2.95a.24.24,0,0,1,0,.33Z" transform="translate(-34.02 -31)"/><path class="cls-9" d="M48.65,122.46a.27.27,0,0,1-.37-.07l-2-3a.26.26,0,0,1,.07-.36h0a.27.27,0,0,1,.37.07l2,2.94a.26.26,0,0,1-.06.36ZM46.4,119.1a.22.22,0,0,0-.06.31l2,3a.25.25,0,0,0,.33,0,.22.22,0,0,0,.06-.31l-2-2.93a.24.24,0,0,0-.31-.07Z" transform="translate(-34.02 -31)"/><path class="cls-16" d="M49,119.91a.24.24,0,0,1-.34-.08l-.78-1.38a.25.25,0,0,1,.1-.34.25.25,0,0,1,.34.09l.78,1.38a.25.25,0,0,1-.1.33Z" transform="translate(-34.02 -31)"/><path class="cls-9" d="M49,119.94a.27.27,0,0,1-.36-.09l-.78-1.38a.26.26,0,0,1,.09-.35h0a.27.27,0,0,1,.36.09l.78,1.38a.26.26,0,0,1-.1.36Zm-1-1.81a.23.23,0,0,0-.09.31h0l.79,1.38a.25.25,0,0,0,.31.09.24.24,0,0,0,.08-.31l-.78-1.38a.22.22,0,0,0-.3-.09Z" transform="translate(-34.02 -31)"/><path class="cls-16" d="M51.27,121a.23.23,0,0,1-.3-.12l-1.38-3.28a.25.25,0,0,1,.13-.31.23.23,0,0,1,.31.12l1.38,3.29a.25.25,0,0,1-.14.32Z" transform="translate(-34.02 -31)"/><path class="cls-9" d="M51.27,121.06a.28.28,0,0,1-.35-.14l-1.38-3.28a.28.28,0,0,1,.15-.35.29.29,0,0,1,.36.14l1.38,3.29a.28.28,0,0,1-.15.34Zm-1.53-3.73a.21.21,0,0,0-.12.28h0L51,120.91a.23.23,0,0,0,.31.11.22.22,0,0,0,.12-.28h0L50,117.45a.25.25,0,0,0-.31-.12Z" transform="translate(-34.02 -31)"/><path class="cls-16" d="M52.11,118.62a.24.24,0,0,1-.31-.15h0l-.49-1.5a.23.23,0,0,1,.15-.3h0a.27.27,0,0,1,.31.16l.49,1.5a.23.23,0,0,1-.13.3h0Z" transform="translate(-34.02 -31)"/><path class="cls-9" d="M52.14,118.64a.26.26,0,0,1-.34-.15h0l-.5-1.5a.28.28,0,0,1,.17-.34h0a.27.27,0,0,1,.34.15h0l.5,1.5A.3.3,0,0,1,52.14,118.64Zm-.67-2a.23.23,0,0,0-.15.29l.49,1.5a.23.23,0,0,0,.29.14.25.25,0,0,0,.16-.29l-.5-1.5a.21.21,0,0,0-.26-.15h0Z" transform="translate(-34.02 -31)"/><path class="cls-16" d="M54.12,120.17a.22.22,0,0,1-.28-.15s0,0,0,0l-.71-3.5a.23.23,0,0,1,.2-.28h0a.22.22,0,0,1,.28.15s0,0,0,0l.71,3.49A.26.26,0,0,1,54.12,120.17Z" transform="translate(-34.02 -31)"/><path class="cls-9" d="M54.12,120.19a.27.27,0,0,1-.32-.2l-.72-3.5a.26.26,0,0,1,.2-.3h0a.28.28,0,0,1,.32.2l.71,3.49a.25.25,0,0,1-.18.31Zm-.8-4a.25.25,0,0,0-.19.28l.72,3.49a.23.23,0,0,0,.27.17h0a.24.24,0,0,0,.19-.27l-.72-3.49a.25.25,0,0,0-.27-.18Z" transform="translate(-34.02 -31)"/><path class="cls-16" d="M55.42,118a.27.27,0,0,1-.3-.2l-.2-1.57a.26.26,0,0,1,.22-.28.27.27,0,0,1,.29.21l.21,1.57A.26.26,0,0,1,55.42,118Z" transform="translate(-34.02 -31)"/><path class="cls-9" d="M55.42,118a.28.28,0,0,1-.31-.22l-.21-1.57a.27.27,0,0,1,.24-.29.28.28,0,0,1,.31.22l.2,1.57A.27.27,0,0,1,55.42,118Zm-.26-2a.24.24,0,0,0-.2.26l.2,1.57a.22.22,0,0,0,.26.18.24.24,0,0,0,.2-.25l-.2-1.57A.24.24,0,0,0,55.16,115.93Z" transform="translate(-34.02 -31)"/><circle class="cls-18" cx="23.24" cy="104.11" r="20.17"/><polygon class="cls-19" points="37.21 91.32 20.94 101.75 20.92 101.75 20.92 101.77 20.91 101.78 10.75 118.53 25.68 106.52 25.69 106.5 25.69 106.48 37.21 91.32 37.21 91.32"/><path class="cls-20" d="M70.92,121.35,54.84,132.78l4.76,4.74,11.32-16.17" transform="translate(-34.02 -31)"/><path class="cls-21" d="M54.85,132.75l2.41,2.36,13.66-13.76-16.07,11.4Z" transform="translate(-34.02 -31)"/><path class="cls-22" d="M54.85,132.75l4.77,4.73L43.54,148.91l11.31-16.16Z" transform="translate(-34.02 -31)"/><path class="cls-23" d="M43.54,148.91l13.72-13.8-2.41-2.36Z" transform="translate(-34.02 -31)"/></g><ellipse class="cls-1" cx="38.55" cy="247.74" rx="34.89" ry="3.85"/><ellipse class="cls-1" cx="164.78" cy="168.63" rx="24.57" ry="3.39"/><path class="cls-24" d="M117.47,169.7v0l0,0h0l-.16-.12,0,0a.55.55,0,0,0-.72.16l-.07.1h0l-3.74,5.37-.65.94c-2-.59-5.17,1.91-6.8,3.34l-.28.25c-.13-.29-.2-.47-.2-.47-.08.88-3.19,2.19-3.92,2.67a2.62,2.62,0,0,1-1.08.37c.1-3.35-2.48-6.86-2.48-6.86l-6.3-8.05a7,7,0,0,1,.64-4.26,3.07,3.07,0,0,1,.17-.31h0a6.91,6.91,0,0,0-.4,2.1c0,.55.52,3.18,1.23,3.08a.4.4,0,0,0,.36-.18,4.25,4.25,0,0,0,.59-2.81,5.63,5.63,0,0,1-.1.91c0-.87,0-1.78,0-2.43,0-.25,0-.51,0-.77h.08v0h.08a8.5,8.5,0,0,0,3.86-1.78,2.09,2.09,0,0,0,1.45-.68,1.39,1.39,0,0,1-.27,1.31,2.3,2.3,0,0,0,1.89-1.47,5.14,5.14,0,0,0,.24-2.46,17.41,17.41,0,0,1-.18-2.5,8.86,8.86,0,0,0,.07-1.36,2.7,2.7,0,0,0-.07-.41h0a.62.62,0,0,0,.44-.17,2.09,2.09,0,0,0,.56-1.21,10.21,10.21,0,0,0,.32-2.86,8.58,8.58,0,0,1-.1.87,3.82,3.82,0,0,0-.81-3,5.73,5.73,0,0,0-1.88-1.19,1.6,1.6,0,0,1-.62-.44,1.85,1.85,0,0,1-.18-.77c-.24-1.62-1.76-2.74-3.28-3.4-2-.84-4.3-1.21-6.16-.2a19.51,19.51,0,0,0-2.46,1.88c-1,.79-2.24,1.34-3.35,2a6.62,6.62,0,0,0-2.7,2.75c-.81,1.84-.2,3.94-.1,5.94a9.67,9.67,0,0,1-3.71,8.3,3.61,3.61,0,0,0-.81.7.89.89,0,0,0-.07,1c.13.18.34.27.49.43a1.41,1.41,0,0,1,.12,1.27A7.88,7.88,0,0,1,74.26,169c0,.33.45.46.78.51a17.8,17.8,0,0,0,2.63.19h.38c0,.1-.08.21-.13.31a10.38,10.38,0,0,0-.89,4.36c.33,1.87,1.3,10.39.81,11.88s.75,12.41.75,12.41.17.84.46,2.09c-.75,1.79-1.62,3.77-2.06,4.57-.87,1.6-.44,9.75,2.57,13.37,0,0,1.25,1.76.92,2.39a2.88,2.88,0,0,0,.06,1.76L81,233.36a26.81,26.81,0,0,1-.23,3.22c-1.28,1.59-3.26,3.91-4.19,4.3-1.44.59-12.2,13.63-12.2,13.63l.25.42-.31.35-2.06,2.39-.16.19c-.39-.07-3-.54-5-.69h-.2v-.11a7.75,7.75,0,0,0-2.15.06.7.7,0,0,0-.36.19c-.7.85-1.07,14.27-1.07,14.27s.74,6.72,3.07,7.1a1.61,1.61,0,0,0,.37.07h.13A3.18,3.18,0,0,0,59.66,277a2.64,2.64,0,0,0,.23-.61,5,5,0,0,1,.46-2.85c.72-1.66,2.07-4.53,2.07-4.53s2.46-2.58,2-3.84l.23-.34c.93-1.31,2.79-3.91,4.31-5.65l.31-.33a7.81,7.81,0,0,0,1.71.5,6.39,6.39,0,0,0,3.17-2.93,17.57,17.57,0,0,1,3.33-3.86l0,.4,0,12.83a9.73,9.73,0,0,0,1.58.87V267a41.62,41.62,0,0,1-.33,5.47l-.05.28c-.19-.13-.35-.18-.46-.07-.47.48-.77,3.54-.79,4.95v.14c-.08,1.41-.88,3.46,1.53,3.56,1.81.08,9.6.2,13.78.26a9.24,9.24,0,0,0,6.15-2.18c1.32-1.14,2.12-2.49.3-3.48a2.85,2.85,0,0,0-.35-.17l-4-.62-6.83-3.49s0-2.11-.86-1.76a2.33,2.33,0,0,0-.69.28l-.13-.24a8,8,0,0,1-.84-3.56V266a7.8,7.8,0,0,0,.57-.58s-.06-4.79.48-5.7,2.21-10.06,2.21-10.06A4.37,4.37,0,0,1,89.8,247c1.08-1,.7-3.95.7-3.95a4.69,4.69,0,0,0,2-3.4c.48-2.61,2.05-8.31,2.05-8.31s3.22-8.41,3-13.74a39.57,39.57,0,0,1,.32-8.09l.67-12.38v-.19c.27.21.45.37.45.37v-.13l.15.13s.35-5.62.23-7.84c1.88-.64,4.75-1.69,4.92-2.23.25-.8,3.47-3.31,3.47-3.31a.46.46,0,0,1-.19-.08,2.19,2.19,0,0,0,.3-.16c2.12-1.13,6-4.44,5.39-6.46l4.3-6.17A1,1,0,0,0,117.47,169.7Z" transform="translate(-34.02 -31)"/><path class="cls-25" d="M107.45,184.62a2.69,2.69,0,0,1-1,.39c-1.34,0-2.46-3.6-2.46-3.6s.38-.39,1-.92c1.81-1.6,5.58-4.57,7.36-2.91C114.3,179.43,109.77,183.37,107.45,184.62Z" transform="translate(-34.02 -31)"/><path class="cls-25" d="M87,271.38l-5,5.36s-4.59.06-3.69-2.47a8.8,8.8,0,0,0,.38-1.69,40.7,40.7,0,0,0,.31-5.41c0-1.19,0-2,0-2s7.23-3.17,6.49.12a6.77,6.77,0,0,0-.15,1.26A8.35,8.35,0,0,0,87,271.39Z" transform="translate(-34.02 -31)"/><path class="cls-26" d="M87,271.38l-5,5.36s-4.59.06-3.69-2.47a8.8,8.8,0,0,0,.38-1.69,10.53,10.53,0,0,1,1.6,2s3.16.93,4-1.84a4.71,4.71,0,0,1,1.85-2.69A7.77,7.77,0,0,0,87,271.38Z" transform="translate(-34.02 -31)"/><path class="cls-27" d="M98.53,279.44a9,9,0,0,1-6,2.15c-4.09-.06-11.73-.17-13.5-.25-2.38-.1-1.59-2.13-1.51-3.53v-.14c0-1.39.3-4.43.78-4.9s2.09,2.11,2.09,2.11,3.17.92,4-1.85S87,270,87,270c.8-.35.84,1.74.84,1.74l6.7,3.47,3.93.61.35.18C100.62,277,99.83,278.31,98.53,279.44Z" transform="translate(-34.02 -31)"/><circle class="cls-28" cx="52.14" cy="242.83" r="0.29"/><circle class="cls-28" cx="54.86" cy="244.18" r="0.29"/><circle class="cls-28" cx="56.26" cy="244.8" r="0.29"/><circle class="cls-28" cx="59.16" cy="245.92" r="0.29"/><circle class="cls-28" cx="57.68" cy="245.44" r="0.29"/><path class="cls-27" d="M98.53,279.44a9,9,0,0,1-6,2.15c-4.09-.06-11.73-.17-13.5-.25-2.38-.1-1.59-2.13-1.51-3.53l14.9.92s6.11-.92,6.46-2.74C100.62,277,99.83,278.31,98.53,279.44Z" transform="translate(-34.02 -31)"/><path class="cls-28" d="M98.53,279.44a9,9,0,0,1-6,2.15c-4.09-.06-11.73-.17-13.5-.25-2.38-.1-1.59-2.13-1.51-3.53l14.9.92s6.11-.92,6.46-2.74C100.62,277,99.83,278.31,98.53,279.44Z" transform="translate(-34.02 -31)"/><path class="cls-25" d="M70.79,257.93a10.63,10.63,0,0,0-1.5,1.5c-1.48,1.72-3.31,4.29-4.21,5.59l-.57.82-2-.29s-2.13-3.26-2.09-3.35l1.69-3.58.64-.76,2-2.36.93-1.08S72.58,256.64,70.79,257.93Z" transform="translate(-34.02 -31)"/><path class="cls-26" d="M65.08,265l-.57.82-2-.29s-2.13-3.26-2.09-3.35l1.69-3.58.64-.76.21,0h.5c-1.77,1.85.13,5.91.13,5.91A2.1,2.1,0,0,1,65.08,265Z" transform="translate(-34.02 -31)"/><path class="cls-27" d="M62.86,269.16s-1.32,2.85-2,4.48a5,5,0,0,0-.45,2.82,2.69,2.69,0,0,1-.22.62,3.1,3.1,0,0,1-2.7,1.7.29.29,0,0,1-.13,0c-2.41-.06-3.17-7-3.17-7s.37-13.29,1.06-14.14a.64.64,0,0,1,.34-.19,7.85,7.85,0,0,1,2.11,0c2.17.16,5,.69,5,.69h.5c-1.77,1.85.13,5.91.13,5.91a2.17,2.17,0,0,1,1.5,1.26C65.43,266.42,62.86,269.16,62.86,269.16Z" transform="translate(-34.02 -31)"/><circle class="cls-28" cx="25.94" cy="234.21" r="0.29"/><circle class="cls-28" cx="25.8" cy="236.51" r="0.29"/><path class="cls-27" d="M60,277a3.08,3.08,0,0,1-2.7,1.7h-.12c-2.41-.06-3.17-7-3.17-7s.36-13.29,1.05-14.14a.71.71,0,0,1,.35-.19,7.53,7.53,0,0,1,2.12-.05c0,2.38-.16,9.94,0,10.68S59,275,60,277Z" transform="translate(-34.02 -31)"/><path class="cls-28" d="M60,277a3.08,3.08,0,0,1-2.7,1.7h-.12c-2.41-.06-3.17-7-3.17-7s.36-13.29,1.05-14.14a.71.71,0,0,1,.35-.19,7.53,7.53,0,0,1,2.12-.05c0,2.38-.16,9.94,0,10.68S59,275,60,277Z" transform="translate(-34.02 -31)"/><path class="cls-27" d="M57.14,278.74c-2.41-.07-3.17-7-3.17-7s.36-13.3,1.05-14.15a.69.69,0,0,1,.35-.18c.5.75.94,2.41.54,6.06-.75,6.92.16,7.36.16,7.36A63.52,63.52,0,0,1,57.14,278.74Z" transform="translate(-34.02 -31)"/><path class="cls-26" d="M57.14,278.74c-2.41-.07-3.17-7-3.17-7s.36-13.3,1.05-14.15a.69.69,0,0,1,.35-.18c.5.75.94,2.41.54,6.06-.75,6.92.16,7.36.16,7.36A63.52,63.52,0,0,1,57.14,278.74Z" transform="translate(-34.02 -31)"/><path class="cls-26" d="M107.45,184.62a2.69,2.69,0,0,1-1,.39c-1.34,0-2.46-3.6-2.46-3.6s.38-.39,1-.92C105.39,181.47,106.6,184.13,107.45,184.62Z" transform="translate(-34.02 -31)"/><path class="cls-29" d="M98.83,183.31a3.35,3.35,0,0,0,1.82-.4c.71-.47,3.76-1.78,3.84-2.65,0,0,1.81,4.43,2.84,4.59,0,0-3.16,2.49-3.4,3.29s-6.41,2.72-6.41,2.72Z" transform="translate(-34.02 -31)"/><path class="cls-26" d="M98.83,183.31a3.35,3.35,0,0,0,1.82-.4c.71-.47,3.76-1.78,3.84-2.65,0,0,1.81,4.43,2.84,4.59,0,0-3.16,2.49-3.4,3.29s-6.41,2.72-6.41,2.72Z" transform="translate(-34.02 -31)"/><path class="cls-26" d="M70.79,257.93a10.63,10.63,0,0,0-1.5,1.5,10.78,10.78,0,0,1-4.51-3.93l.92-1.08S72.58,256.64,70.79,257.93Z" transform="translate(-34.02 -31)"/><path class="cls-30" d="M82.07,235.49s-3.87,5.17-5.28,5.75-12,13.5-12,13.5,2.27,4.17,6.43,4.85a6.16,6.16,0,0,0,3.11-2.9c.85-2,7.49-7.65,7.49-7.65Z" transform="translate(-34.02 -31)"/><path class="cls-26" d="M82.07,235.49s-3.87,5.17-5.28,5.75-12,13.5-12,13.5,2.27,4.17,6.43,4.85a6.16,6.16,0,0,0,3.11-2.9c.85-2,7.49-7.65,7.49-7.65Z" transform="translate(-34.02 -31)"/><path class="cls-26" d="M70.35,252.8a17.25,17.25,0,0,0,3.52,0C76,252.61,74.39,253.87,70.35,252.8Z" transform="translate(-34.02 -31)"/><path class="cls-26" d="M69.4,254.15s2.77,1.58,3.84.79S72.21,255.7,69.4,254.15Z" transform="translate(-34.02 -31)"/><path class="cls-26" d="M85.55,265.26a5.84,5.84,0,0,0-.14,1.25,5.64,5.64,0,0,1-6.32.64c0-1.19,0-2,0-2S86.29,262,85.55,265.26Z" transform="translate(-34.02 -31)"/><path class="cls-30" d="M98.37,196.47l-.08,1.46-.64,12.25a38.45,38.45,0,0,0-.31,8c.22,5.28-3,13.61-3,13.61s-1.53,5.64-2,8.23a4.71,4.71,0,0,1-1.95,3.38s.37,2.9-.69,3.9a4.33,4.33,0,0,0-1.1,2.69s-1.64,9.07-2.16,10S86,265.6,86,265.6c-3.41,4.07-8.42.38-8.42.38l0-12.71s1.42-11.7,2.48-13.34,1.05-6.12,1.05-6.12l-.47-10.45a2.85,2.85,0,0,1-.05-1.74c.32-.63-.9-2.38-.9-2.38-3-3.58-3.38-11.65-2.52-13.22s3.42-7.91,3.42-7.91L84.12,196l6.37.2Z" transform="translate(-34.02 -31)"/><path class="cls-26" d="M83.37,258.62s.83,2.88,1.5,3.2S83.37,258.62,83.37,258.62Z" transform="translate(-34.02 -31)"/><path class="cls-26" d="M84.51,249s2.16,1.71,3.08,1.7S84.51,249,84.51,249Z" transform="translate(-34.02 -31)"/><path class="cls-25" d="M97.52,177.61v3.5l-2.29-1-2.29-1-5-4.9a37.61,37.61,0,0,1-6-4.9c-1.21-1.33-1.81-2.59-.75-3.25a6.93,6.93,0,0,0,1.38-1.21,22.82,22.82,0,0,0,2.75-4.06l.1-.17c1-1.89,1.7-3.5,1.7-3.5a20.68,20.68,0,0,1,4.75,2.24l.43.31c1,.85,1.55,1.84.6,2.81a6.57,6.57,0,0,0-.68.82h0a5.87,5.87,0,0,0-.43.67l-.16.3a7.1,7.1,0,0,0-.63,4.23Z" transform="translate(-34.02 -31)"/><path class="cls-31" d="M97.1,152.77c.12.21.29.39.4.6a2.77,2.77,0,0,1,.17,1.48,8.42,8.42,0,0,0,.16,2.35,11,11,0,0,1,.49,2.08,5.44,5.44,0,0,1-1,2.81,2,2,0,0,0,1.45-.68,1.39,1.39,0,0,1-.26,1.3,2.18,2.18,0,0,0,1.84-1.45,5,5,0,0,0,.24-2.46,17.14,17.14,0,0,1-.18-2.48,8.54,8.54,0,0,0,.07-1.34,4.8,4.8,0,0,0-1.15-2.4l-1.07-1.46a.7.7,0,0,0-.31-.28C96.94,150.41,96.82,152.28,97.1,152.77Z" transform="translate(-34.02 -31)"/><path class="cls-26" d="M92.86,162.5a6.57,6.57,0,0,0-.68.82h0a5.87,5.87,0,0,0-.43.67l-.16.3a8.24,8.24,0,0,1-6.21-3.35l-.1-.14.1-.18c1-1.89,1.7-3.49,1.7-3.49a20.68,20.68,0,0,1,4.75,2.24l.43.3C93.3,160.54,93.81,161.52,92.86,162.5Z" transform="translate(-34.02 -31)"/><path class="cls-25" d="M100.37,155.69a8.32,8.32,0,0,1-6.8,8.17,8.56,8.56,0,0,1-1.51.13h-.31a8.3,8.3,0,1,1,8.61-8.3Z" transform="translate(-34.02 -31)"/><path class="cls-26" d="M93.15,176.22s4.18,2.36,3.11.37l-5.46-8.07h0l6.2,8s4,5.43,1.79,9.17c0,0-.31,3.11,0,3.85s-.1,8.61-.1,8.61-1.48-1.37-2.27-1.1-6.38.73-6.38.73Z" transform="translate(-34.02 -31)"/><path class="cls-26" d="M98.37,196.47l-.08,1.46c-.5-.37-1.2-.78-1.66-.62-.79.27-6.38.74-6.38.74l.25-1.81Z" transform="translate(-34.02 -31)"/><path class="cls-31" d="M93.3,176.22s4.19,2.36,3.12.37L91,168.52h0l6.2,8s4,5.43,1.79,9.17c0,0-.31,3.11,0,3.85s-.1,8.61-.1,8.61-1.48-1.37-2.27-1.1-6.38.73-6.38.73Z" transform="translate(-34.02 -31)"/><path class="cls-26" d="M95.54,180.26a28.42,28.42,0,0,1-1.28,5.54s-.74,7.49-1.69,9.7-.53,5.28-1.06,10.92a7.1,7.1,0,0,1-1.73,4.37,6.44,6.44,0,0,1-5.16,1.77l-.39,0c-2.63-.27-5.16-13-5.16-13s-1.21-10.81-.74-12.28-.47-9.92-.79-11.76a10.25,10.25,0,0,1,.87-4.33c.27-.72.5-1.21.5-1.21a12.86,12.86,0,0,1,2.37-4.33,2.15,2.15,0,0,1,1.57-.65,3.86,3.86,0,0,1,2,.61l.07,0s9.6,9.81,10.49,12.07A5.79,5.79,0,0,1,95.54,180.26Z" transform="translate(-34.02 -31)"/><path class="cls-29" d="M95.23,180.1a29.3,29.3,0,0,1-1.29,5.56s-.74,7.49-1.69,9.7-.53,5.27-1,10.92a7.25,7.25,0,0,1-1.73,4.37,6.49,6.49,0,0,1-5.16,1.77l-.39,0c-2.64-.26-5.17-13-5.17-13s-1.21-10.81-.74-12.29-.47-9.91-.79-11.76a10.36,10.36,0,0,1,.87-4.32c.28-.72.5-1.21.5-1.21A12.86,12.86,0,0,1,81,165.51a2.22,2.22,0,0,1,1.57-.66,3.87,3.87,0,0,1,2,.62.18.18,0,0,1,.07.05s9.6,9.8,10.5,12.07A6,6,0,0,1,95.23,180.1Z" transform="translate(-34.02 -31)"/><path class="cls-26" d="M84.47,218.71s-2.17,1.94-2.92,1.84S84.47,218.71,84.47,218.71Z" transform="translate(-34.02 -31)"/><path class="cls-26" d="M85,220.57a29.26,29.26,0,0,1-3,1.23C81.37,222,84.17,220.3,85,220.57Z" transform="translate(-34.02 -31)"/><path class="cls-26" d="M93.93,191.46s3.4,0,3.91,1.1S95,191,93.93,191.46Z" transform="translate(-34.02 -31)"/><path class="cls-26" d="M93.45,193.32a12.41,12.41,0,0,1,3.4,1.18C97.64,195.13,93.45,193.32,93.45,193.32Z" transform="translate(-34.02 -31)"/><path class="cls-26" d="M89.06,186.87s-.31,10.72-1.48,12.1S89.06,186.87,89.06,186.87Z" transform="translate(-34.02 -31)"/><path class="cls-26" d="M86.13,217.16s-2.17,9.46,2.2,10.05,3-10.76,3-10.76Z" transform="translate(-34.02 -31)"/><path class="cls-25" d="M86,217s-2.17,9.45,2.2,10,3-10.76,3-10.76Z" transform="translate(-34.02 -31)"/><path class="cls-26" d="M100.31,154.77a3.1,3.1,0,0,1-.3-.57c-.59-1.21-2.08-.62-3.17,0l-.59.75a4.67,4.67,0,0,0-.67,1c-.11.3-.2.61-.28.92-.15.54-.37,1-.57,1.57a18.07,18.07,0,0,0-1.17,5.43,8.47,8.47,0,0,1-1.51.13h0v0c.06-.21.1-.42.15-.63h0a11.06,11.06,0,0,0,.08-3.63v-.08c0-.27-.09-.54-.11-.81l-.31.57a6,6,0,0,1-2.6,3,5.48,5.48,0,0,1-1.59.36,9.53,9.53,0,0,0-2,.33,1.17,1.17,0,0,0-.57.35,1.56,1.56,0,0,0-.29.86,7.16,7.16,0,0,1-.31,1.21,10.58,10.58,0,0,1-2.58,3.85l-.29.28a5.45,5.45,0,0,1-1.71,1.18,5.56,5.56,0,0,1-1.81.27c.27-.72.5-1.21.5-1.21A12.86,12.86,0,0,1,81,165.51a2.2,2.2,0,0,1,1.57-.66,23.18,23.18,0,0,0,2.84-4.23,8.3,8.3,0,1,1,14.94-5.84Z" transform="translate(-34.02 -31)"/><path class="cls-31" d="M100.84,148.29A5.48,5.48,0,0,0,99,147.11a1.33,1.33,0,0,1-.6-.44,1.77,1.77,0,0,1-.19-.75c-.23-1.61-1.72-2.72-3.21-3.37-1.91-.84-4.21-1.2-6-.2a19.49,19.49,0,0,0-2.4,1.86c-1,.79-2.2,1.33-3.29,2A6.38,6.38,0,0,0,80.63,149c-.8,1.81-.2,3.9-.1,5.88a9.69,9.69,0,0,1-3.64,8.23,3.13,3.13,0,0,0-.8.7.87.87,0,0,0-.06,1c.13.17.33.27.47.43a1.37,1.37,0,0,1,.12,1.25A7.92,7.92,0,0,1,74.51,170c0,.32.43.45.76.5a17,17,0,0,0,2.58.19,4.34,4.34,0,0,0,3.6-1.45A9.85,9.85,0,0,0,84.64,164a1.8,1.8,0,0,1,.29-.87,1.22,1.22,0,0,1,.57-.35c1.15-.39,2.46-.2,3.57-.68,1.44-.62,2.15-2.16,2.9-3.57,0,.27.08.54.12.81a10.94,10.94,0,0,1-.21,4.34,9,9,0,0,0-.49,2.44c0,.61.64,3.82,1.46,2.86s.52-3.08.52-4.29a18.46,18.46,0,0,1,1.2-6.53c.2-.52.42-1,.57-1.56a9.12,9.12,0,0,1,.28-.93,5.35,5.35,0,0,1,.67-1l.59-.75c1.09-.58,2.59-1.17,3.17,0,.22.46.34,1,.92.53a2.05,2.05,0,0,0,.55-1.2C101.69,151.54,102,149.57,100.84,148.29Z" transform="translate(-34.02 -31)"/><path class="cls-26" d="M89.71,177.33a5.16,5.16,0,0,0-10-1.49.76.76,0,0,0,0,.11c-1.22,3.64-.69,12.86-.69,12.86s.16,6.18.74,8.24,2.21,8,2.21,8.92,1.52,4.58,2.16,4.85,1,2.32,1.11,2.69.63,5.16.63,5.16,6-.36,6.07-1.31-1.31-5.6-1.31-5.6a10.94,10.94,0,0,1-1.18-3.43c-.13-1.53-1-2.21-.82-3.27s-.47-1.58-.47-2.27a16.8,16.8,0,0,0-.48-2.53,2.15,2.15,0,0,1-.84-1.74c.16-1-1.42-2.84-1-3.53a7.12,7.12,0,0,0,.52-2.37s.52-7.6.89-9.67,2.53-5.37,2.53-5.37Z" transform="translate(-34.02 -31)"/><path class="cls-26" d="M89.47,210.65a6.49,6.49,0,0,1-5.16,1.77c-.19-.72-.47-1.6-.87-1.77-.64-.26-2.16-3.9-2.16-4.85s-1.63-6.86-2.21-8.92-.74-8.24-.74-8.24-.53-9.22.69-12.85a.61.61,0,0,1,0-.11,5.16,5.16,0,0,1,10,1.48v.27s-2.15,3.32-2.53,5.37-.9,9.66-.9,9.66a7.07,7.07,0,0,1-.52,2.37c-.43.68,1.15,2.59,1,3.54a2.15,2.15,0,0,0,.84,1.74,16.86,16.86,0,0,1,.47,2.53c0,.68.64,1.21.48,2.26s.69,1.74.82,3.28A8.66,8.66,0,0,0,89.47,210.65Z" transform="translate(-34.02 -31)"/><path class="cls-29" d="M89.4,177.17c-.23-5.68-8.18-6.86-10-1.49l0,.12c-1.21,3.63-.68,12.85-.68,12.85s.15,6.18.73,8.24a90.25,90.25,0,0,1,2.22,8.92c0,.95,1.51,4.58,2.15,4.84s1,2.33,1.12,2.7.63,5.16.63,5.16,6-.36,6.06-1.31-1.32-5.6-1.32-5.6a10.84,10.84,0,0,1-1.18-3.43c-.13-1.54-1-2.21-.82-3.27s-.47-1.58-.47-2.27a16.8,16.8,0,0,0-.48-2.53,2.15,2.15,0,0,1-.84-1.74c.16-.94-1.42-2.84-1-3.53a7.12,7.12,0,0,0,.52-2.37s.53-7.6.9-9.65,2.53-5.38,2.53-5.38Z" transform="translate(-34.02 -31)"/><path class="cls-26" d="M79.61,191.77c.16-.15,3.16-3.48,4.11-2.29S79.61,191.77,79.61,191.77Z" transform="translate(-34.02 -31)"/><path class="cls-26" d="M79.89,194.33c.11-.12,3-.23,3.71-1.84S79.89,194.33,79.89,194.33Z" transform="translate(-34.02 -31)"/><g class="cls-2"><path d="M76.59,165.18a.64.64,0,0,1,.16.29,1.22,1.22,0,0,0-.16-1.08c-.14-.16-.34-.26-.47-.43l0,0a.82.82,0,0,0,0,.83C76.25,164.92,76.45,165,76.59,165.18Z" transform="translate(-34.02 -31)"/><path d="M80.62,154.93V154c-.06-1.07-.26-2.18-.31-3.25-.06,1.32.24,2.7.31,4.05Z" transform="translate(-34.02 -31)"/><path d="M93,168.14c-.74.86-1.31-1.61-1.44-2.58a4.36,4.36,0,0,0,0,.51c0,.61.64,3.82,1.47,2.86a4.22,4.22,0,0,0,.57-2.78A3.3,3.3,0,0,1,93,168.14Z" transform="translate(-34.02 -31)"/><path d="M92.18,159.29a10.74,10.74,0,0,1,.12,1.26,10.81,10.81,0,0,0-.12-2.05c0-.27-.09-.53-.11-.8-.76,1.41-1.47,2.93-2.91,3.56-1.11.48-2.41.29-3.56.69a1.31,1.31,0,0,0-.58.34,1.8,1.8,0,0,0-.29.87,9.86,9.86,0,0,1-3.18,5.33,4.38,4.38,0,0,1-3.61,1.45,17.13,17.13,0,0,1-2.58-.19,1.86,1.86,0,0,1-.39-.1,4.59,4.59,0,0,1-.37.39c0,.33.44.45.76.5a17.13,17.13,0,0,0,2.58.19,4.32,4.32,0,0,0,3.61-1.45A9.86,9.86,0,0,0,84.73,164a1.8,1.8,0,0,1,.29-.87,1.31,1.31,0,0,1,.58-.34c1.15-.4,2.46-.21,3.56-.69,1.44-.62,2.16-2.15,2.91-3.56C92.09,158.76,92.14,159,92.18,159.29Z" transform="translate(-34.02 -31)"/><path d="M101.41,152.42a2.08,2.08,0,0,1-.54,1.19c-.58.46-.7-.06-.92-.52-.58-1.21-2.08-.62-3.17,0l-.59.75a4.67,4.67,0,0,0-.67,1c-.11.3-.2.61-.28.92-.15.54-.37,1.05-.57,1.57a18.27,18.27,0,0,0-1.21,6.54v.32a18.51,18.51,0,0,1,1.2-6.07c.2-.52.43-1,.58-1.56a5.87,5.87,0,0,1,.28-.93,4.87,4.87,0,0,1,.66-1l.59-.75c1.1-.58,2.59-1.17,3.17,0,.23.46.34,1,.92.53a2.12,2.12,0,0,0,.55-1.2,10.78,10.78,0,0,0,.31-2.83A12.72,12.72,0,0,1,101.41,152.42Z" transform="translate(-34.02 -31)"/></g><path class="cls-31" d="M108.61,182.36l.16.11a.65.65,0,0,1-.17-.9h0l7.33-10.64a.67.67,0,0,1,.91-.17h0l-.16-.12a1,1,0,0,1,.27,1.46l-6.9,10A1,1,0,0,1,108.61,182.36Z" transform="translate(-34.02 -31)"/><path class="cls-29" d="M116.75,170.69l.13.09h0l-8.07,11.72h0l-.13-.09a.54.54,0,0,1-.14-.74L116,170.83A.54.54,0,0,1,116.75,170.69Z" transform="translate(-34.02 -31)"/><rect class="cls-31" x="114.93" y="172.7" width="1.16" height="0.13" rx="0.05" transform="translate(-126.31 138.89) rotate(-55.44)"/><g class="cls-2"><path class="cls-32" d="M316.74,150.21a1.25,1.25,0,0,0,.1-.51l.19-.09C316.94,149.81,316.84,150,316.74,150.21Z" transform="translate(-34.02 -31)"/></g><g class="cls-2"><path class="cls-33" d="M344.58,217.75a1.28,1.28,0,0,0-.05-.27c-.21-.86-.44-1.85-.64-2.77.1.43.44,1.91.72,3.07Z" transform="translate(-34.02 -31)"/></g><g class="cls-2"><path class="cls-34" d="M314.33,109l.09-.06h0Z" transform="translate(-34.02 -31)"/></g><path class="cls-35" d="M345.38,224.28a3.72,3.72,0,0,1-.3-2.34,32,32,0,0,0,.25-6.38c-.23-.41-1.48-1-1.49-1l-.06-.25c0-.11,0-.23-.07-.34a10.13,10.13,0,0,0,1.37-1.62,4.7,4.7,0,0,1-1.94-3.87c0-2.65-2.89-11.15-2.89-11.15s-1.65-2.38-1-3.53.07-4.56.07-4.56l1.31-2.11s.2-2,.41-4.14-1.23-4.42-.55-5.44-.28-6.11-.28-6.11-.61-6.48-1.62-8.64v0a18.87,18.87,0,0,1-.43-2.81c0-.24,0-.49,0-.73,1.62-2.92,4-7.24,3.91-7.62a9.81,9.81,0,0,1,.55-2.52l.52-4.75s.83-7.65.9-12.07-2.42-6.12-2.42-6.12a1.84,1.84,0,0,0-1.7.37,1.77,1.77,0,0,1,.76-.47l.17,0a1.53,1.53,0,0,1,.76.13h0a2.06,2.06,0,0,0-.31-.21,1.55,1.55,0,0,0,.42-.12,1.21,1.21,0,0,0,.51-.54,1.37,1.37,0,0,0,.23-.43h0a1.56,1.56,0,0,0,.09-.61,2.8,2.8,0,0,0-.62-1.38c-1.39-1.85-3.72-2.95-4.81-5-.92-1.76-.77-3.87-.46-5.82s.74-4,.26-5.9a7.78,7.78,0,0,0-3.07-4.34,12.45,12.45,0,0,0-5-2,5,5,0,0,0-2.53,0c-.62.21-1.17.61-1.78.87-1.39.56-3,.22-4.44.58a6,6,0,0,0-3.29,2.35,9,9,0,0,0-.85,1.43,14.3,14.3,0,0,0-1,2.54,6.25,6.25,0,0,0-.15,1.13,1.07,1.07,0,0,1-.25.22,1.41,1.41,0,0,0-.37.53,1.86,1.86,0,0,0,0,1.8,2.76,2.76,0,0,0,.06.7,5.53,5.53,0,0,0,.38,1,16.33,16.33,0,0,1,.43,11.81l-.54.26-.31.27a8.54,8.54,0,0,0-2.79,6.33c.2,3.94,0,9.58,0,9.58a26.82,26.82,0,0,0-.21,5.17,6.41,6.41,0,0,0,1.4,4.82,2.27,2.27,0,0,0,2.59.44,3.47,3.47,0,0,0,1.68-1.41,4.72,4.72,0,0,1-1.82,2.25c-1,.48-.78,2.73-.78,2.73s-1.15,1.36-.95,2-1.65,1.29-.68,2.17l.25.22h0a6.18,6.18,0,0,0-1.84,3.39,49.13,49.13,0,0,1-1.28,5.87.45.45,0,0,0-.38.51.49.49,0,0,0,.12.25,2.57,2.57,0,0,1-.38.71,13.67,13.67,0,0,0-1.25,1.57.45.45,0,0,0-.31.43v.08a2,2,0,0,0-.23,1.93c.76,1.15.9,5.09.9,5.09s-.28,3.54.48,4.69,1.38,8.5-.28,10.67a42.35,42.35,0,0,0-.34,5.51c.21.47-.9,1.7-.55,2.72s2,19.78,1.79,20.53c0,0,.57-.09,1.39-.15l-.06.41c0,.34-.11.7-.17,1.05a1.55,1.55,0,0,1,0,.21.86.86,0,0,0-1.43-.15l-1,1.72s-1.42,2.68-2.95,2.92a6.74,6.74,0,0,0-2.69,1.26c-.2.15-.31.25-.31.25s-1.86,1.54.58,2.2a18.24,18.24,0,0,0,1.93.37,23.35,23.35,0,0,0,7.6-.2,14.35,14.35,0,0,1,1.85-.21,6.14,6.14,0,0,0,3.18-.68,10.28,10.28,0,0,0,0-2.72l-.09-.13c-.36-.66-1.36-3.34-1.36-3.34s-.11,0-.25.17l0-.21a14.53,14.53,0,0,1-.29-2.27v-.41a2.13,2.13,0,0,1,.74.4,13,13,0,0,0,0-3.47,27.31,27.31,0,0,1,.83-8.5c.61-1.42.76-6.86.55-7.4,0,0,1.1-4.83.69-5.78s1.77-9.74,1.77-9.74,1.1-2.1.83-2.37c0,0,1.79-1.16,1.58-2s1.65-1.9,1.65-1.9a37.74,37.74,0,0,0,2.21,4.61c.55.61.57,4.55,1.25,5.37s1.57,5.1,2.46,6.25,4.48,4.21,5,7.69c0,0,3.23,5,3.1,6.52a2.3,2.3,0,0,0,1.61,2l-.05.39-.13,1.09h0s-1,.11-1.13,2.24-.12,4.46-.58,5.07a6.8,6.8,0,0,0-.84,1.29c-.51,1.11-.53,2.53,2.55,3,4.72.71,5.87-1.9,5.87-1.9a8,8,0,0,0,.37-1.54A.84.84,0,0,0,345.38,224.28Z" transform="translate(-34.02 -31)"/><path class="cls-36" d="M314.34,113.59a6.68,6.68,0,0,0,.37,1,16.31,16.31,0,0,1,.2,12.26,24.59,24.59,0,0,1,3.31.19,6.92,6.92,0,0,0,3.26-.36,3.3,3.3,0,0,0,2.07-2.49c.2-1.54-.92-2.89-1.9-4a9.4,9.4,0,0,1-2.27-4.06c-.33-1.71.14-3.71-.94-5a1.19,1.19,0,0,0-.36-.31,4.14,4.14,0,0,0-2.67.08A2.72,2.72,0,0,0,314.34,113.59Z" transform="translate(-34.02 -31)"/><path class="cls-37" d="M344.89,225a7.75,7.75,0,0,1-.37,1.51s-1.11,2.57-5.71,1.88c-3-.45-3-1.86-2.48-3a7,7,0,0,1,.82-1.28c.44-.61.4-2.9.56-5s1.1-2.21,1.1-2.21l.06,2.36c1.79-2.34,3,.4,3,.4s2.54.06,2.23-1.25-.83-3.59-.83-3.59a4.94,4.94,0,0,1,1.46,1,31.23,31.23,0,0,1-.25,6.3,3.58,3.58,0,0,0,.31,2.31A.84.84,0,0,1,344.89,225Z" transform="translate(-34.02 -31)"/><path class="cls-37" d="M344.89,225a7.75,7.75,0,0,1-.37,1.51s-1.11,2.57-5.71,1.88c-3-.45-3-1.86-2.48-3,.42.62,1.37,1.11,3.41.92C342.86,226.07,344.21,225.54,344.89,225Z" transform="translate(-34.02 -31)"/><path class="cls-26" d="M344.89,225a7.75,7.75,0,0,1-.37,1.51s-1.11,2.57-5.71,1.88c-3-.45-3-1.86-2.48-3,.42.62,1.37,1.11,3.41.92C342.86,226.07,344.21,225.54,344.89,225Z" transform="translate(-34.02 -31)"/><path class="cls-38" d="M344,218.27a2.49,2.49,0,0,1-1.76,2.39,3.38,3.38,0,0,1-2.94-.44,1.76,1.76,0,0,1-.73-1.63l.07-.59.26-2.15.35-3s3.81-1.94,3.56-1.21a11,11,0,0,0,.42,2.94c.21,1,.47,2.16.7,3.12A2.6,2.6,0,0,1,344,218.27Z" transform="translate(-34.02 -31)"/><path class="cls-26" d="M338.37,218.11s3.29-3.87,6,.36l-.45,2.7h-5.53Z" transform="translate(-34.02 -31)"/><path class="cls-37" d="M338.37,218.38s3.29-3.87,6,.35l-.45,2.71h-5.53Z" transform="translate(-34.02 -31)"/><circle class="cls-39" cx="308.63" cy="189.44" r="0.34"/><circle class="cls-39" cx="304.35" cy="188.9" r="0.34"/><circle class="cls-39" cx="307.48" cy="191.71" r="0.34"/><circle class="cls-39" cx="304.55" cy="191.31" r="0.34"/><circle class="cls-39" cx="308.13" cy="190.64" r="0.34"/><circle class="cls-39" cx="304.35" cy="190.11" r="0.34"/><circle class="cls-39" cx="307.14" cy="192.95" r="0.34"/><circle class="cls-39" cx="304.55" cy="192.52" r="0.34"/><path class="cls-38" d="M316.29,229l-4.56,1.54s-2.42-2.42-1.75-3.15a6.67,6.67,0,0,0,.73-2.46c.06-.35.12-.7.16-1,.16-1.09.25-2,.25-2s5.3-2.54,4.43,0a6.25,6.25,0,0,0-.25,2.23,15.41,15.41,0,0,0,.28,2.24A20.31,20.31,0,0,0,316.29,229Z" transform="translate(-34.02 -31)"/><path class="cls-26" d="M316.29,229l-4.56,1.54s-2.42-2.42-1.75-3.15a6.67,6.67,0,0,0,.73-2.46,4.6,4.6,0,0,1,.53,1.48c3.94,2.16,4,.87,4,.87a2.36,2.36,0,0,1,.33-.93A20.35,20.35,0,0,0,316.29,229Z" transform="translate(-34.02 -31)"/><path class="cls-37" d="M317.29,232.53a6,6,0,0,1-3.11.67,13.58,13.58,0,0,0-1.8.2,22,22,0,0,1-7.38.2,14.85,14.85,0,0,1-1.88-.36c-2.38-.66-.58-2.16-.58-2.16l.31-.25a6.46,6.46,0,0,1,2.62-1.23c1.5-.23,2.87-2.88,2.87-2.88l.92-1.7c1.46-1.25,2,1.7,2,1.7,3.94,2.15,4,.87,4,.87.22-1.16.62-1.16.62-1.16s1,2.65,1.34,3.31l.08.13C317.52,230.08,317.29,232.53,317.29,232.53Z" transform="translate(-34.02 -31)"/><path class="cls-37" d="M317.29,232.53a6,6,0,0,1-3.11.67,13.58,13.58,0,0,0-1.8.2,22,22,0,0,1-7.38.2,14.85,14.85,0,0,1-1.88-.36c-2.38-.66-.58-2.16-.58-2.16l.31-.25a21.54,21.54,0,0,0,5.09.7c2.15-.13,4.22-.48,4.22-.48a50.78,50.78,0,0,1,5-1.33.42.42,0,0,0,.09.14A10.76,10.76,0,0,1,317.29,232.53Z" transform="translate(-34.02 -31)"/><path class="cls-26" d="M317.29,232.53a6,6,0,0,1-3.11.67,13.58,13.58,0,0,0-1.8.2,22,22,0,0,1-7.38.2,14.85,14.85,0,0,1-1.88-.36c-2.38-.66-.58-2.16-.58-2.16l.31-.25a21.54,21.54,0,0,0,5.09.7c2.15-.13,4.22-.48,4.22-.48a50.78,50.78,0,0,1,5-1.33.42.42,0,0,0,.09.14A10.76,10.76,0,0,1,317.29,232.53Z" transform="translate(-34.02 -31)"/><circle class="cls-39" cx="277.2" cy="196.8" r="0.34"/><circle class="cls-39" cx="275.28" cy="197.74" r="0.34"/><circle class="cls-39" cx="276.31" cy="197.26" r="0.34"/><circle class="cls-39" cx="274.2" cy="198.3" r="0.34"/><path class="cls-26" d="M315.54,221.9a6.23,6.23,0,0,0-.25,2.23,12.8,12.8,0,0,0-4.42-.22c.15-1.09.24-2,.24-2S316.41,219.35,315.54,221.9Z" transform="translate(-34.02 -31)"/><path class="cls-26" d="M343.26,214.58c-1.65,1.62-3.23,1.72-4.33,1.25l.35-3s3.81-1.94,3.56-1.21A10.61,10.61,0,0,0,343.26,214.58Z" transform="translate(-34.02 -31)"/><path class="cls-39" d="M314.33,159.53a6.67,6.67,0,0,0-3.07,4.36c-.46,2.88-1.28,6.57-1.88,7.24s-2.48,2.82-1.74,4,.87,5,.87,5-.27,3.49.47,4.63,1.34,8.38-.27,10.53a43,43,0,0,0-.34,5.43c.21.47-.87,1.68-.53,2.68s1.94,19.52,1.74,20.26c0,0,5.1-.74,6.44.46a13.12,13.12,0,0,0,0-3.42,27.17,27.17,0,0,1,.81-8.38c.6-1.41.73-6.76.53-7.31,0,0,1.07-4.76.67-5.7s1.73-9.58,1.73-9.58,1.08-2.08.81-2.35c0,0,1.74-1.14,1.54-2s1.61-1.88,1.61-1.88a36,36,0,0,0,2.15,4.56c.54.61.56,4.5,1.23,5.3s1.54,5,2.4,6.17,4.36,4.16,4.9,7.58c0,0,3.15,4.9,3,6.44s3.55,4.36,7.11-.87a4.65,4.65,0,0,1-1.88-3.83c0-2.61-2.82-11-2.82-11s-1.61-2.34-1-3.48.07-4.5.07-4.5l1.28-2.08s.2-2,.4-4.09-1.21-4.36-.54-5.36-.26-6-.26-6-.84-8.67-2.08-9.19S314.33,159.53,314.33,159.53Z" transform="translate(-34.02 -31)"/><path class="cls-38" d="M320.44,147.39s-1.37.16-3.05.31c-2.42.23-5.45.46-5.81.22-.62-.4,0-5.5,0-5.5s.21-5.57,0-9.46a8.43,8.43,0,0,1,2.71-6.23,4,4,0,0,1,.31-.27l.67.53,3.82,6.51Z" transform="translate(-34.02 -31)"/><path class="cls-38" d="M335.39,126l-3.75,2.28L325.47,133s-6.38-3.35-4.76-5.3a2.88,2.88,0,0,0,.58-1.31c.49-2.24-.58-5.46-.58-5.46s8.39-11.34,7.91-2.55c-.19,3.53.86,5.46,2.19,6.5A6.51,6.51,0,0,0,335.39,126Z" transform="translate(-34.02 -31)"/><ellipse class="cls-26" cx="289.85" cy="84.92" rx="7.77" ry="8.23"/><ellipse class="cls-38" cx="289.85" cy="84.65" rx="7.77" ry="8.23"/><path class="cls-26" d="M335.39,126l-3.75,2.28L325.47,133s-6.38-3.35-4.76-5.3a2.88,2.88,0,0,0,.58-1.31c7,6,9.17-.21,9.54-1.51A6.45,6.45,0,0,0,335.39,126Z" transform="translate(-34.02 -31)"/><path class="cls-26" d="M320.44,147.39s-1.37.16-3.05.31c-.06-1.45-.28-3.08-.24-4.07.07-1.68.07-1.88-.47-2.82a4.52,4.52,0,0,1-.4-2.88c.06-1.16-.24-1.39-1.33-3.24l-.15-.25a9.59,9.59,0,0,1-.69-4.16v0c0-.37,0-.74,0-1.09v0c0-1.06.13-2,.17-2.4l.31-.27.67.54,3.82,6.51Z" transform="translate(-34.02 -31)"/><path class="cls-37" d="M341.09,127.6h0c-2.43-1-3.81,4.23-4.18,5.89-.07.31-.1.49-.1.49l.1,1.15c.18,2.38.49,7.69-.23,9a2.05,2.05,0,0,0-.18.43,9.23,9.23,0,0,0-.08,3.11,32,32,0,0,0,.59,3.5s1.61,4.09.94,6.76a9.72,9.72,0,0,0-.19,3,18.33,18.33,0,0,0,.42,2.77c.06.27.11.42.11.42a28,28,0,0,1-3,.86,29.15,29.15,0,0,1-5.74.78A25.5,25.5,0,0,1,313,160.54l-.25-.22c-.92-.87.87-1.54.67-2.15s.92-1.95.92-1.95-.25-2.21.76-2.68,1.75-2.08,2.31-3.42-.1-4.83,0-6.51.07-1.87-.47-2.81a4.54,4.54,0,0,1-.4-2.89c.07-1.15-.24-1.39-1.33-3.23l-.14-.25a9.46,9.46,0,0,1-.7-4.16v0c0-.37,0-.74,0-1.09v0c.06-1.49.2-2.67.2-2.67,5.37-2.75,6.64.12,6.64.12,7.85,6.76,9.63-1.69,9.63-1.69,4.27-1.46,9.89,2.46,10.21,2.7Z" transform="translate(-34.02 -31)"/><path class="cls-38" d="M311.48,146.71s-.67,3.58,1.27,5.58a2.19,2.19,0,0,0,2.53.43,3.43,3.43,0,0,0,1.64-1.39C317.45,150.14,315.78,144.33,311.48,146.71Z" transform="translate(-34.02 -31)"/><path class="cls-26" d="M336.67,144.1a2.3,2.3,0,0,0-.18.43l.31-7.84.1-1.56C337.08,137.5,337.39,142.81,336.67,144.1Z" transform="translate(-34.02 -31)"/><path class="cls-26" d="M337.94,157.92a9.71,9.71,0,0,0-.19,3l-1.05,1.89-.31.54A11.87,11.87,0,0,0,335.3,165a3.14,3.14,0,0,0-.45,1.33c0,1-1,7.9-6,6.19-3.19-1.1-1.15-4.48.69-6.74a23.57,23.57,0,0,1,2-2.16s.57-.72,1.11-1.48a8.49,8.49,0,0,0,1-1.54c.23-.67,1.78-3.62,1.78-3.62s1.54-3.25,1.2-4.76a28.61,28.61,0,0,1-.19-4.61,32.36,32.36,0,0,0,.59,3.5S338.61,155.24,337.94,157.92Z" transform="translate(-34.02 -31)"/><path class="cls-38" d="M341.09,127.6s2.42,1.68,2.35,6-.87,11.9-.87,11.9l-.5,4.7a9.6,9.6,0,0,0-.54,2.48c.1.57-5.25,10.13-5.25,10.13s-1.54,1.93-1.54,3-1,7.9-6,6.19,2.65-8.88,2.65-8.88a24.13,24.13,0,0,0,2.08-3c.24-.67,1.78-3.62,1.78-3.62s1.54-3.25,1.2-4.76a52.6,52.6,0,0,1-.13-7l.33-8.57.14-2.18S338,126.74,341.09,127.6Z" transform="translate(-34.02 -31)"/><path class="cls-29" d="M315.48,143.61l3.66-1.33a1.71,1.71,0,0,1,1.78.37l4.86,4.58s.27.74-.09.71-5.59-5.27-5.59-5.27l-5.18,1.74h0A.84.84,0,0,1,315.48,143.61Z" transform="translate(-34.02 -31)"/><polygon class="cls-39" points="286.64 118.76 291.67 116.94 286.08 111.68 280.9 113.42 286.64 118.76"/><circle class="cls-37" cx="279.09" cy="133.38" r="0.45"/><circle class="cls-37" cx="276.05" cy="139.13" r="0.45"/><circle class="cls-37" cx="300.33" cy="141.22" r="0.45"/><circle class="cls-37" cx="302.86" cy="149.33" r="0.45"/><circle class="cls-37" cx="301.88" cy="147.05" r="0.45"/><circle class="cls-37" cx="301.02" cy="144.13" r="0.45"/><circle class="cls-37" cx="277.47" cy="136.1" r="0.45"/><circle class="cls-37" cx="274.27" cy="142.11" r="0.45"/><path class="cls-31" d="M341.08,127.6h0c-2.43-1-3.81,4.23-4.18,5.89L333.09,128s-1.56,2.5-6.62,2.88a5.8,5.8,0,0,1-6.28-3.85c-.69,0-3.83,5.6-5,7.63l-.15-.25a9.45,9.45,0,0,1-.69-4.16v0c0-.36,0-.72,0-1.09v0c.05-1.49.2-2.67.2-2.67,5.37-2.75,6.64.12,6.64.12,7.85,6.76,9.63-1.69,9.63-1.69C335.14,123.44,340.76,127.37,341.08,127.6Z" transform="translate(-34.02 -31)"/><path class="cls-26" d="M311.31,176.63c.07.17,5.71,6.67,7.78,7S311.31,176.63,311.31,176.63Z" transform="translate(-34.02 -31)"/><path class="cls-26" d="M315.36,166.66s.06,4.58-1.35,5.62S315.36,166.66,315.36,166.66Z" transform="translate(-34.02 -31)"/><path class="cls-26" d="M318,168.28s-.14,5.4,1.87,6.68C319.83,175,316.15,171.37,318,168.28Z" transform="translate(-34.02 -31)"/><path class="cls-26" d="M315.48,196s-3.76,2.77-4.8,3S315.48,196,315.48,196Z" transform="translate(-34.02 -31)"/><path class="cls-26" d="M314.54,110.85a1.9,1.9,0,0,0,.3,2.77,4.85,4.85,0,0,0,3,.78,28,28,0,0,1,6.08.44,4.9,4.9,0,0,1,2.33,1.19,5.19,5.19,0,0,1,1.21,2.42,13.11,13.11,0,0,1,.42,4,14,14,0,0,0-.06,2.74,8.84,8.84,0,0,0,.85,2.44,105.76,105.76,0,0,0,5.18,9.61,1.86,1.86,0,0,0,.68.74,1.83,1.83,0,0,0,1.54-.24,11.14,11.14,0,0,1-.48-2.91,1.33,1.33,0,0,0,1.38-.48,3.76,3.76,0,0,0,.61-1.41l.9-3.11c.28-1,.7-2.07,1.66-2.35a5.93,5.93,0,0,0,1-.24,1.29,1.29,0,0,0,.62-1.28,2.78,2.78,0,0,0-.62-1.36c-1.35-1.83-3.62-2.91-4.68-4.92-.92-1.73-.75-3.82-.45-5.75a15,15,0,0,0,.26-5.81,7.78,7.78,0,0,0-3-4.29,12.15,12.15,0,0,0-4.89-2,4.88,4.88,0,0,0-2.46,0c-.62.21-1.14.61-1.73.86-1.35.55-2.91.22-4.33.58a5.76,5.76,0,0,0-3.2,2.31,12.35,12.35,0,0,0-1.68,3.65c-.26.85.16,1.19-.61,1.66" transform="translate(-34.02 -31)"/><path class="cls-36" d="M314.67,110.58a1.89,1.89,0,0,0,.31,2.77,4.87,4.87,0,0,0,3,.79,27.37,27.37,0,0,1,6.08.43,4.92,4.92,0,0,1,2.33,1.2,5.24,5.24,0,0,1,1.23,2.41,12.81,12.81,0,0,1,.41,4A14.82,14.82,0,0,0,328,125a9.21,9.21,0,0,0,.86,2.44A101,101,0,0,0,334,137a1.36,1.36,0,0,0,2.21.5,11.56,11.56,0,0,1-.47-2.91,1.33,1.33,0,0,0,1.38-.48,4.11,4.11,0,0,0,.61-1.41l.91-3.11c.28-1,.69-2.07,1.65-2.35a5.93,5.93,0,0,0,1-.24,1.3,1.3,0,0,0,.62-1.27,2.77,2.77,0,0,0-.62-1.37c-1.35-1.83-3.62-2.91-4.68-4.92-.92-1.73-.75-3.81-.45-5.74s.72-3.92.25-5.82a7.62,7.62,0,0,0-3-4.28,12,12,0,0,0-4.89-2,4.88,4.88,0,0,0-2.46,0c-.61.21-1.13.62-1.73.86-1.35.56-2.91.23-4.33.58a5.83,5.83,0,0,0-3.2,2.31,12.61,12.61,0,0,0-1.68,3.65c-.26.86.16,1.2-.61,1.66" transform="translate(-34.02 -31)"/><path class="cls-38" d="M313.83,147.12s6.15-4.09,7.88-1.57-5.4,5.6-5.4,5.6Z" transform="translate(-34.02 -31)"/><path class="cls-36" d="M315.84,127.68c0,.4-.1.88-.31.95.57,0,1.14.41,1.71.28a1.71,1.71,0,0,0,1.07-1.11.51.51,0,0,1,.15-.23c.06,0,.12,0,.18,0a18.46,18.46,0,0,1,3.08,2.33c.31.31.66.62,1,.46a7.82,7.82,0,0,0-.66-3.23,4.1,4.1,0,0,0-1.76-1.92,5.34,5.34,0,0,0-2.07-.54,2.13,2.13,0,0,1-.89-.22c-.31-.18-1.28-1.34-1.49-.5a8.49,8.49,0,0,0,0,1.74C315.89,126.37,315.87,127,315.84,127.68Z" transform="translate(-34.02 -31)"/><g class="cls-2"><path d="M335.26,137.07a1.8,1.8,0,0,1-.68-.74,101,101,0,0,1-5.18-9.61,8.84,8.84,0,0,1-.85-2.44,13.22,13.22,0,0,1,.06-2.74,13.08,13.08,0,0,0-.42-4,5.2,5.2,0,0,0-1.21-2.41,5,5,0,0,0-2.33-1.2,27.46,27.46,0,0,0-6.08-.43,4.94,4.94,0,0,1-3-.79,2.07,2.07,0,0,1-.69-2.21,1.24,1.24,0,0,1-.18.14,1.9,1.9,0,0,0,.31,2.74,5,5,0,0,0,3,.79,27.33,27.33,0,0,1,6.07.43,5,5,0,0,1,2.34,1.2,5.2,5.2,0,0,1,1.21,2.41,13.11,13.11,0,0,1,.42,4A14,14,0,0,0,328,125a8.87,8.87,0,0,0,.86,2.44A101,101,0,0,0,334,137a1.73,1.73,0,0,0,.68.74,1.81,1.81,0,0,0,1.53-.24c0-.13-.08-.27-.11-.4A1.3,1.3,0,0,1,335.26,137.07Z" transform="translate(-34.02 -31)"/><path d="M314.6,110.66l.09-.06v0Z" transform="translate(-34.02 -31)"/><path d="M315.23,109.92l-.09.06.1-.07h0c.64-.43.27-.78.52-1.6a12.47,12.47,0,0,1,1.63-3.58,7.26,7.26,0,0,0-.49.61,12.35,12.35,0,0,0-1.68,3.65,5.7,5.7,0,0,0-.13,1.09A1.14,1.14,0,0,1,315.23,109.92Z" transform="translate(-34.02 -31)"/><path d="M341.89,126.34a7,7,0,0,1-1,.23,2,2,0,0,0-1.12,1,1.63,1.63,0,0,1,.58-.31,5.8,5.8,0,0,0,1-.23,1.13,1.13,0,0,0,.55-.68Z" transform="translate(-34.02 -31)"/><path d="M336.32,133.92c0,.23,0,.46,0,.69a1.47,1.47,0,0,0,.8-.5,3,3,0,0,0,.27-.42A1.21,1.21,0,0,1,336.32,133.92Z" transform="translate(-34.02 -31)"/></g><path class="cls-26" d="M312.35,146.32a6.56,6.56,0,0,1,2.57-.5" transform="translate(-34.02 -31)"/><path class="cls-26" d="M317,153.69s.82,1.28,5,1.82S317,153.69,317,153.69Z" transform="translate(-34.02 -31)"/><path class="cls-26" d="M315.52,158.46a11.79,11.79,0,0,0,9.72,2.08C331.24,159.33,315.52,158.46,315.52,158.46Z" transform="translate(-34.02 -31)"/><path class="cls-40" d="M217,113.46l-.27-.29a4.16,4.16,0,0,0,1.41-2.59c0-1.23-1.1-2.16-1.5-3.33-.56-1.58.21-3.27.52-4.93a9.21,9.21,0,0,0-2-7.58,2.64,2.64,0,0,0-1.17-.89,5.43,5.43,0,0,0-2.25.18c-2.49.31-4.76-1.84-7.26-1.64a1.33,1.33,0,0,0-.48.1,2,2,0,0,0-.7.79,7.38,7.38,0,0,1-3.38,2.3,1.92,1.92,0,0,0-.46.21c-.39.18-.77.38-1.13.59-2.46,1.45-2.1,3.48-.66,4.74-.28,1.4-1.72,2.64-1.47,4.09.19,1.13,1.37,1.91,1.6,3a3,3,0,0,1-.36,1.89c-2.74.64-5.84,1.81-6.09,3.87-.42,3.6-1.68,13.51-1.68,13.51s-1.47,7.94,4.1,4.19l-.07.21a46.13,46.13,0,0,0-2,9.36c-.06.47-.17.85-.38,1s.07.11.4.2c0,.13-.08.27-.11.4a37.9,37.9,0,0,0-1.18,7.09,48.25,48.25,0,0,1-.87,6.32c-1.32,6.64,0,15.16,0,15.16L192.41,185l.49,2.32a3.46,3.46,0,0,0,1.17.84,16.85,16.85,0,0,1,.4,2.53,1.32,1.32,0,0,0,0,.28,1.19,1.19,0,0,0-.85.54c-1,1.44.14,2.6-3.82,5.49a3.77,3.77,0,0,0-1.64,2h0a1.36,1.36,0,0,0,.68,1.46h0l.28.16h0l.15.06h0l.16.06h0l.15.05h0l.16,0h0l.16,0h0l.17,0h0l.15,0h.85l.18,0h0l.15,0h.05l.17,0h0l.15,0h0l.17,0h0l.16-.05,0,0,.17-.07c2.64-1.15,8.06-4.19,8.06-4.19V196a.11.11,0,0,0,0-.08v-.09h0c0-1.26-.15-4.16-.72-4.05-.2,0-.33.31-.47.63l-.07-.13a12.23,12.23,0,0,1-1.44-4.73,8.19,8.19,0,0,0,1.24-1.11s-.3-1.23-.54-2.55a13,13,0,0,1-.34-2.8c.15-1-1.76-8.81-1.76-8.81s.2-1.71.59-4.1c.77-4.63,2.28-11.79,4.54-13.82l.16-.13s1.61.29,2.93,9.39l.38,4.05a24.74,24.74,0,0,0,.56,3.32,17.29,17.29,0,0,1,.37,5.32c-.17,2.39-.24,5.2-.27,7.18,0,1.48,0,2.5,0,2.5a4.93,4.93,0,0,0,.88.61V188a1.15,1.15,0,0,1-.31.75h0a2,2,0,0,0-.44.82,5.91,5.91,0,0,0-.57,2.42c-.3,3.89-.44,3.46-.44,3.46a5.36,5.36,0,0,0-.33,1.31h0a2.26,2.26,0,0,0,0,.26v.43a.22.22,0,0,0,0,.1s0,0,0,0l0,.1v0l0,.09s0,0,0,0a.54.54,0,0,0,.05.11l0,0a.61.61,0,0,0,.07.1l0,0,.08.09h0l.11.08h0l.12.07h0l.14.05h0a.49.49,0,0,1,.16,0h0l.19,0h.6l.25,0c3.07-.44,4.55-.73,4.4-2.46-.09-1-.34-2.57-.52-3.61a5.79,5.79,0,0,0-.51-1.52c0-.08,0-.16,0-.25a5.39,5.39,0,0,0-.17-2.15l.07-1.26a4.07,4.07,0,0,0,2-1.19s0-.92.08-2.18a31.21,31.21,0,0,1,.65-5.62c.59-1.74,0-7.8,0-7.8s-2.2-10.4-.14-14.88a13.63,13.63,0,0,0,0-11.75l.09-.09s-.44-.29-.3-3.61a18.74,18.74,0,0,0-1-6.25,14.62,14.62,0,0,0,1.72.61c3.38,1,3.67-2.74,3.67-2.74l.76-5.57.87-8.39h0A4.19,4.19,0,0,0,217,113.46Zm-14.92-5.57a2.46,2.46,0,0,1,0,.28,3.84,3.84,0,0,1-.19.88,5.29,5.29,0,0,0,.19-1.17ZM211,128.4l.15.28-.37-.19a8.62,8.62,0,0,1,.66-2,13.41,13.41,0,0,0,.9-2.27,22.09,22.09,0,0,0,.13,2.7c.29,2.32-1.47,1.45-1.47,1.45Z" transform="translate(-34.02 -31)"/><path class="cls-41" d="M198.51,97a2.54,2.54,0,0,0-1.13,1.23c-.27.88.41,1.75.48,2.67.12,1.66-1.76,3-1.48,4.67.19,1.13,1.34,1.89,1.56,3,.33,1.64-1.44,3.08-1.3,4.73A3.3,3.3,0,0,0,198,115.5a6.77,6.77,0,0,0,3.38,1.38c-.08-1.42-1.13-2.71-1-4.12a9.85,9.85,0,0,1,1.2-2.65,7.83,7.83,0,0,0,0-5,22.87,22.87,0,0,1-1-5c0-1,.47-2.54.11-3.52C200.36,95.34,199.31,96.45,198.51,97Z" transform="translate(-34.02 -31)"/><path class="cls-26" d="M198.51,97a2.54,2.54,0,0,0-1.13,1.23c-.27.88.41,1.76.48,2.67.12,1.66-1.76,3-1.48,4.68.19,1.12,1.34,1.89,1.56,3,.33,1.63-1.44,3.07-1.3,4.73a3.3,3.3,0,0,0,1.38,2.18,6.88,6.88,0,0,0,3.38,1.39c-.08-1.43-1.13-2.72-1-4.13a10,10,0,0,1,1.2-2.65,7.83,7.83,0,0,0,0-5,22.87,22.87,0,0,1-1-5c0-1,.46-2.54.11-3.52C200.36,95.38,199.31,96.49,198.51,97Z" transform="translate(-34.02 -31)"/><path class="cls-42" d="M199.88,192.87l-1.29,1.29s-4.58,2.43-4-.86a11.75,11.75,0,0,0,.09-3,18.15,18.15,0,0,0-.81-4.06l4.3-.86c-.71,2.25.47,5.07,1.2,6.51C199.66,192.51,199.88,192.87,199.88,192.87Z" transform="translate(-34.02 -31)"/><path class="cls-42" d="M209.64,190.26a11.88,11.88,0,0,1-.16,1.32s-3.59,2.44-3.87-.29c-.18-1.77.24-2.57.55-2.91h0a1.08,1.08,0,0,0,.31-.75v-3.21l3.15,1-.14,2.73A5.42,5.42,0,0,1,209.64,190.26Z" transform="translate(-34.02 -31)"/><path class="cls-19" d="M199.88,192.87l-1.29,1.29s-4.58,2.43-4-.86a11.75,11.75,0,0,0,.09-3c1-.15,2.2.95,2.2.95,1.68,2.37,2.13,1.48,2.48.64C199.66,192.51,199.88,192.87,199.88,192.87Z" transform="translate(-34.02 -31)"/><path class="cls-43" d="M196.87,191.58s-2-1.86-3-.43.14,2.58-3.73,5.44,0,4.73,2.58,3.58S200.6,196,200.6,196s0-4.73-.72-4.58S199.31,195,196.87,191.58Z" transform="translate(-34.02 -31)"/><path class="cls-19" d="M209.64,190.26a11.88,11.88,0,0,1-.16,1.32s-3.59,2.44-3.87-.29c-.18-1.77.24-2.57.55-2.91a.85.85,0,0,1,.88-.09c.58-.26,1.21.17,1.73.72A4.92,4.92,0,0,1,209.64,190.26Z" transform="translate(-34.02 -31)"/><path class="cls-43" d="M207,188.57s-1.57-.86-1.86,3-.43,3.44-.43,3.44-1.43,3.44,1.58,3,4.44-.72,4.3-2.44c-.08-1-.32-2.54-.5-3.57a5.27,5.27,0,0,0-1.35-2.73C208.25,188.74,207.62,188.32,207,188.57Z" transform="translate(-34.02 -31)"/><path class="cls-39" d="M212.2,170.24s.57,6,0,7.73a29.21,29.21,0,0,0-.63,5.57c-.06,1.23-.09,2.16-.09,2.16-2.72,2.86-5.87,0-5.87,0s0-1,0-2.48c0-2,.09-4.75.26-7.12a18,18,0,0,0-.36-5.28,23.21,23.21,0,0,1-.56-3.3l-.37-4c-1.29-9-2.86-9.31-2.86-9.31l-.16.13c-2.2,2-3.69,9.11-4.42,13.7-.39,2.37-.58,4.07-.58,4.07s1.84,7.74,1.72,8.74a12.46,12.46,0,0,0,.32,2.77c.25,1.29.54,2.53.54,2.53-3.58,3.87-6,.86-6,.86l-.48-2.3-2.81-13.45s-1.29-8.45,0-15a50.89,50.89,0,0,0,.85-6.26,38.14,38.14,0,0,1,1.14-7c.18-.67.37-1.35.58-2a71.94,71.94,0,0,1,10.46-.92c3.8,0,7.42.53,8.46,2.37.24.42.46.85.66,1.28a13.72,13.72,0,0,1,.06,11.9C210.05,159.92,212.2,170.24,212.2,170.24Z" transform="translate(-34.02 -31)"/><path class="cls-42" d="M200.17,118.24s-7.59-7.73-1.85-7.16a3.86,3.86,0,0,0,2.77-.54,2.74,2.74,0,0,0,1-2,8.36,8.36,0,0,0-.49-3.29s7.74-6.15,6.15,1.58a13.58,13.58,0,0,0-.3,2.39c0,1.64.51,2.27,1.27,2.52,1.27.44,3.17-.17,4,1.23C214.35,115.52,200.17,118.24,200.17,118.24Z" transform="translate(-34.02 -31)"/><path class="cls-19" d="M207.76,106.79a13.59,13.59,0,0,0-.31,2.39,4.24,4.24,0,0,1-.61.17,5.74,5.74,0,0,1-1.36.16,6.18,6.18,0,0,1-3.39-1,8.36,8.36,0,0,0-.49-3.29S209.33,99.05,207.76,106.79Z" transform="translate(-34.02 -31)"/><path class="cls-42" d="M211.63,103.06a6.16,6.16,0,0,1-4.8,6,6.23,6.23,0,0,1-1.36.15,6.15,6.15,0,0,1-6.15-6.15v-.34a6.15,6.15,0,0,1,12.3.34h0Z" transform="translate(-34.02 -31)"/><path class="cls-19" d="M200.17,118.24s-7.59-7.73-1.85-7.16a3.86,3.86,0,0,0,2.77-.54c-1.11,1.85-2.36,5.15,3.25,4.84,5.14-.28,5-2.33,4.41-3.68,1.28.44,3.18-.17,4,1.23C214.35,115.52,200.17,118.24,200.17,118.24Z" transform="translate(-34.02 -31)"/><path class="cls-26" d="M212.2,144.17c-1.3,1.7-17.92-.53-20.35-1.27.18-.67.37-1.35.58-2a71.94,71.94,0,0,1,10.46-.92c3.8,0,7.42.53,8.46,2.37.24.42.46.85.66,1.28S212.2,144.17,212.2,144.17Z" transform="translate(-34.02 -31)"/><path class="cls-44" d="M201.75,109.79s-9.67.79-10.1,4.52c-.42,3.56-1.65,13.39-1.65,13.39s-1.43,7.88,4,4.15l-.07.21a46.76,46.76,0,0,0-2,9.29c-.06.47-.17.84-.37,1-.71.43,19.2,3.29,20.63,1.43,0,0-.43-.29-.29-3.58a19.59,19.59,0,0,0-1.14-6.73,9.86,9.86,0,0,1,.43-6.73c1.57-3.3,1-4.31,1-4.31l5.44-4.15s1.18-2-1-4.51a7.51,7.51,0,0,0-5.12-2.52l-3.75-.27s4.11,4.43-3.62,4.86S201.75,109.79,201.75,109.79Z" transform="translate(-34.02 -31)"/><path class="cls-19" d="M195.3,117.67s.29,2.29-.29,3-.71,4,0,6" transform="translate(-34.02 -31)"/><path class="cls-26" d="M201.59,154.32c-2.21,2-3.69,9.12-4.43,13.71-1-6.4,3.29-17,3.29-17Z" transform="translate(-34.02 -31)"/><path class="cls-26" d="M199.17,186.14c-3.58,3.87-6,.85-6,.85l-.48-2.3a4.74,4.74,0,0,0,6-1.08C198.88,184.9,199.17,186.14,199.17,186.14Z" transform="translate(-34.02 -31)"/><path class="cls-26" d="M211.57,183.54c-.06,1.23-.09,2.16-.09,2.16-2.72,2.86-5.87,0-5.87,0s0-1,0-2.48A5.89,5.89,0,0,0,211.57,183.54Z" transform="translate(-34.02 -31)"/><rect class="cls-45" x="162" y="91.54" width="9.74" height="4.01" rx="1.15"/><rect class="cls-19" x="162" y="91.54" width="9.74" height="4.01" rx="1.15"/><rect class="cls-30" x="162" y="91.69" width="9.74" height="4.01" rx="1.15"/><circle class="cls-46" cx="169.66" cy="93.62" r="0.43"/><path class="cls-19" d="M191.87,128.89a2.76,2.76,0,0,1,1.62-1.7,2.54,2.54,0,0,0,1.39-1.23c.56-1.25,1.56-2.54,4.14-1.68s-.71,1.43-.71,1.43,5.87-.86,3.58.86a22,22,0,0,1-5.16,2.72l-1.41,1.49a2.1,2.1,0,0,1-3,.11c-.06,0-.11-.11-.17-.17A1.84,1.84,0,0,1,191.87,128.89Z" transform="translate(-34.02 -31)"/><path class="cls-42" d="M191.73,128.6a2.79,2.79,0,0,1,1.61-1.7,2.48,2.48,0,0,0,1.39-1.25c.57-1.25,1.57-2.53,4.15-1.68s-.72,1.44-.72,1.44,5.88-.86,3.59.85a22,22,0,0,1-5.16,2.73l-1.41,1.49a2.1,2.1,0,0,1-3,.11l-.17-.17A1.84,1.84,0,0,1,191.73,128.6Z" transform="translate(-34.02 -31)"/><path class="cls-19" d="M211.91,131.57l-1,2.43-1.28-.94L206,130.42l-2.43-1.59c-3.44-2.58,0-3,0-3-1.29-.57,0-1.14,0-1.14,4.58-1,3.72,2.72,3.72,2.72l2.9,1.51,1,.49Z" transform="translate(-34.02 -31)"/><path class="cls-42" d="M212.2,131.29l-1,2.43-1.29-.94-3.58-2.63-2.44-1.58c-3.44-2.58,0-3,0-3-1.29-.57,0-1.14,0-1.14,4.59-1,3.73,2.72,3.73,2.72l2.9,1.5,1,.5Z" transform="translate(-34.02 -31)"/><path class="cls-19" d="M212.2,131.29l-1,2.43-1.29-.94c1.17,0,2.54-.52.62-4.14l1,.5Z" transform="translate(-34.02 -31)"/><path class="cls-44" d="M217.5,116.81l.28,1.13-.85,8.32-.72,5.59s-.29,3.73-3.58,2.72-3.58-2-3.58-2,4.73,1.57,1.72-4c0,0,1.72.86,1.43-1.43a42.44,42.44,0,0,1,0-6.31Z" transform="translate(-34.02 -31)"/><path class="cls-19" d="M211.63,103.06a6.16,6.16,0,0,1-4.8,6,3.14,3.14,0,0,1-.2-1.79c.29-1.17,1.64-2,1.49-3.22a.73.73,0,0,0-.14-.38c-.3-.4-.92-.2-1.4-.1a2.68,2.68,0,0,1-3-1.85,4.17,4.17,0,0,1-4.26,1,6.15,6.15,0,0,1,12.3.34h0Z" transform="translate(-34.02 -31)"/><path class="cls-41" d="M203.74,101.45a2.67,2.67,0,0,0,3,1.84c.49-.1,1.11-.31,1.41.1a.73.73,0,0,1,.14.38c.15,1.19-1.2,2-1.49,3.22s.58,2.37.76,3.59a12.63,12.63,0,0,1,0,2,2.48,2.48,0,0,0,.67,1.87,1.2,1.2,0,0,0,1.77-.13c1.61.85,1,3.49,2.19,4.84A3.32,3.32,0,0,0,215,120a1.17,1.17,0,0,0,.65-.21,1.11,1.11,0,0,0,.31-.62,4.91,4.91,0,0,0-.12-2.89,3.07,3.07,0,0,1-.33-1.37,2,2,0,0,1,.49-1c.77-1,1.82-1.88,1.82-3.1s-1.07-2.16-1.47-3.3c-.54-1.57.21-3.25.52-4.87a9.28,9.28,0,0,0-2-7.52,2.62,2.62,0,0,0-1.14-.89,5.35,5.35,0,0,0-2.2.18c-2.43.31-4.64-1.82-7.07-1.63A1.29,1.29,0,0,0,204,93a2,2,0,0,0-.68.78c-1.08,1.61-3.2,2.07-4.86,3.08C193.59,99.74,200,105,203.74,101.45Z" transform="translate(-34.02 -31)"/><path class="cls-47" d="M192.72,199.6c-1.67.74-3.89.22-4.18-1-.35,1.64,2.27,2.46,4.18,1.59C195.3,199,200.6,196,200.6,196v-.57C200.44,195.54,195.26,198.47,192.72,199.6Z" transform="translate(-34.02 -31)"/><path class="cls-47" d="M210.62,195.51c-.17,1.29-1.6,1.56-4.31,1.94-1.37.2-1.82-.41-1.9-1.13-.09.92.17,2,1.9,1.71,3-.44,4.44-.72,4.31-2.44Z" transform="translate(-34.02 -31)"/><g class="cls-2"><path d="M215.53,119.4a3.29,3.29,0,0,1-2.79-.83c-1.23-1.35-.58-4-2.19-4.84a1.2,1.2,0,0,1-1.77.13,2.52,2.52,0,0,1-.67-1.87,15.28,15.28,0,0,0,0-2c-.19-1.23-1.07-2.4-.76-3.6s1.64-2,1.48-3.22a.75.75,0,0,0-.13-.38c-.31-.39-.92-.2-1.41-.1a2.69,2.69,0,0,1-3-1.84c-3.31,3.19-8.79-.69-6.45-3.63-3.66,3,2.34,7.61,5.88,4.2a2.67,2.67,0,0,0,3,1.85c.49-.1,1.11-.31,1.41.1a.84.84,0,0,1,.14.37c.15,1.2-1.2,2.06-1.49,3.22s.58,2.38.76,3.61a13.75,13.75,0,0,1,0,2,2.44,2.44,0,0,0,.67,1.86,1.19,1.19,0,0,0,1.77-.12c1.61.85,1,3.49,2.19,4.84A3.35,3.35,0,0,0,215,120a1.25,1.25,0,0,0,.65-.21,1,1,0,0,0,.27-.42Z" transform="translate(-34.02 -31)"/><path d="M203.88,93.11l.15-.22h0a2.13,2.13,0,0,0-.68.78l-.21.29A4,4,0,0,0,203.88,93.11Z" transform="translate(-34.02 -31)"/></g><path class="cls-26" d="M196,133.18s-.37,1.3,2.07,1.87S196,133.18,196,133.18Z" transform="translate(-34.02 -31)"/><path class="cls-26" d="M195,137s-1.23.91,1.76,2.49S195,137,195,137Z" transform="translate(-34.02 -31)"/><path class="cls-26" d="M192.16,152.14s3.38-.95,3.84-2.39S192.16,152.14,192.16,152.14Z" transform="translate(-34.02 -31)"/><path class="cls-26" d="M192.16,170.28a5.72,5.72,0,0,0,2.37.62C195.46,170.8,192.16,170.28,192.16,170.28Z" transform="translate(-34.02 -31)"/><path class="cls-26" d="M192.67,172.29a4.76,4.76,0,0,0,1.86.38C195.74,172.72,192.67,172.29,192.67,172.29Z" transform="translate(-34.02 -31)"/><ellipse class="cls-1" cx="237.85" cy="202.33" rx="5.87" ry="0.81"/><ellipse class="cls-1" cx="215.35" cy="204.61" rx="5.87" ry="0.81"/><ellipse class="cls-1" cx="188.86" cy="201.52" rx="5.87" ry="0.81"/><ellipse class="cls-1" cx="224.36" cy="211.11" rx="4.18" ry="0.57"/><ellipse class="cls-1" cx="201.01" cy="210.53" rx="4.18" ry="0.57"/><path class="cls-3" d="M249.25,235.43s8.24-27-1.29-37.82c-7.12-8.09-15.21-7.12-18.83-6.12a6.68,6.68,0,0,0-4.31,3.59c-1.27,2.73-1,7.16,7.9,12.34,15,8.67,15.9,20.55,15.9,20.55Z" transform="translate(-34.02 -31)"/><path class="cls-48" d="M230.41,195.33s24.28,7.58,18.84,40.1" transform="translate(-34.02 -31)"/><path class="cls-48" d="M244.59,198.05s-3.34,2.25-2.28,5.63" transform="translate(-34.02 -31)"/><path class="cls-48" d="M232.84,200.05a4.21,4.21,0,0,1,4.54-.92" transform="translate(-34.02 -31)"/><path class="cls-48" d="M242.44,210.51s3.59-1.82,4.52.46" transform="translate(-34.02 -31)"/><path class="cls-48" d="M251.32,214.3s-2.69-.21-2.74,1.08" transform="translate(-34.02 -31)"/><path class="cls-3" d="M249.58,235.65s-9.65-19.63-12.3-19.2c-1.26.21-1.85,1.44-2.1,2.69a7.89,7.89,0,0,0,.54,4.77C237.08,227.05,240.75,233,249.58,235.65Z" transform="translate(-34.02 -31)"/><path class="cls-48" d="M237.36,220.16s10.12,14.69,12.07,15.33" transform="translate(-34.02 -31)"/><line class="cls-48" x1="202.4" y1="191.47" x2="204.77" y2="191.47"/><line class="cls-48" x1="205.24" y1="196.84" x2="208.94" y2="197"/><line class="cls-48" x1="207.49" y1="192.54" x2="207.09" y2="194.47"/><line class="cls-48" x1="211.43" y1="198.42" x2="211.36" y2="200.17"/><path class="cls-3" d="M249.29,235.65s9.65-19.63,12.3-19.2c1.26.21,1.85,1.44,2.1,2.69a7.88,7.88,0,0,1-.52,4.77C261.79,227.05,258.12,233,249.29,235.65Z" transform="translate(-34.02 -31)"/><path class="cls-48" d="M261.52,220.16s-10.12,14.7-12.09,15.34" transform="translate(-34.02 -31)"/><line class="cls-48" x1="228.43" y1="191.47" x2="226.07" y2="191.47"/><line class="cls-48" x1="225.6" y1="196.84" x2="221.89" y2="197"/><line class="cls-48" x1="223.35" y1="192.54" x2="223.75" y2="194.47"/><line class="cls-48" x1="219.41" y1="198.42" x2="219.48" y2="200.17"/><path class="cls-3" d="M232.73,240.23a1.63,1.63,0,0,1-.55-.83.72.72,0,0,1,.38-.84c.35-.14.73.11,1,.35a1.34,1.34,0,0,0,1,.48,1.52,1.52,0,0,1-.46-1.41.6.6,0,0,1,.13-.28c.19-.21.55-.12.78,0a2.92,2.92,0,0,1,1,2.46,4.27,4.27,0,0,0,0-1,1,1,0,0,1,.38-.88,1.08,1.08,0,0,1,.58-.14,1.15,1.15,0,0,1,.92.27.92.92,0,0,1,0,1.15,3.47,3.47,0,0,1-1,.77,2.29,2.29,0,0,0-.69.66.61.61,0,0,0-.05.12H234A5.85,5.85,0,0,1,232.73,240.23Z" transform="translate(-34.02 -31)"/><path class="cls-3" d="M269.48,232.32a1.62,1.62,0,0,1-.54-.82.74.74,0,0,1,.38-.85,1.07,1.07,0,0,1,1,.36c.29.24.62.53,1,.48a1.5,1.5,0,0,1-.46-1.41.62.62,0,0,1,.12-.29.64.64,0,0,1,.79.05,3,3,0,0,1,1,2.44,5.57,5.57,0,0,0,0-1,1,1,0,0,1,.37-.89,1.08,1.08,0,0,1,.58-.14,1.14,1.14,0,0,1,.92.27.92.92,0,0,1,0,1.15,3.79,3.79,0,0,1-1,.77,2.08,2.08,0,0,0-.69.66l-.06.12h-2.07A5.81,5.81,0,0,1,269.48,232.32Z" transform="translate(-34.02 -31)"/><path class="cls-3" d="M257.24,240.23a1.74,1.74,0,0,1-.55-.83.74.74,0,0,1,.39-.84c.35-.14.73.11,1,.35a1.38,1.38,0,0,0,1,.48,1.5,1.5,0,0,1-.46-1.41.52.52,0,0,1,.13-.28c.19-.21.54-.12.78,0a3,3,0,0,1,1,2.46,5.68,5.68,0,0,0,0-1,1,1,0,0,1,.37-.88,1.08,1.08,0,0,1,.58-.14,1.17,1.17,0,0,1,.93.27.93.93,0,0,1,0,1.15,3.62,3.62,0,0,1-1,.77,2.18,2.18,0,0,0-.69.66.61.61,0,0,0-.05.12h-2.1A6.34,6.34,0,0,1,257.24,240.23Z" transform="translate(-34.02 -31)"/><path class="cls-3" d="M222.5,224.25s-.79,1,.36,2.59,2.1,2.86,1.72,3.83c0,0-1.74-2.89-3.15-2.93S220.94,226,222.5,224.25Z" transform="translate(-34.02 -31)"/><path class="cls-26" d="M222.5,224.25a1,1,0,0,0-.16.33c-1.38,1.61-2.12,3.13-.79,3.16s2.71,2.24,3.07,2.8a.33.33,0,0,1,0,.13s-1.73-2.89-3.15-2.93S220.94,226,222.5,224.25Z" transform="translate(-34.02 -31)"/><path class="cls-49" d="M221,225.56c0,.37,0,.66.09.66s.09-.31.09-.66-.05-.19-.1-.19S221,225.2,221,225.56Z" transform="translate(-34.02 -31)"/><path class="cls-49" d="M220.53,226c.31.17.59.27.61.23s-.21-.22-.53-.39-.19,0-.22,0S220.21,225.82,220.53,226Z" transform="translate(-34.02 -31)"/><path class="cls-3" d="M226.65,224.25s.79,1-.36,2.59-2.1,2.86-1.72,3.83c0,0,1.74-2.89,3.15-2.93S228.2,226,226.65,224.25Z" transform="translate(-34.02 -31)"/><path class="cls-26" d="M226.65,224.25a1.26,1.26,0,0,1,.16.33c1.38,1.61,2.11,3.13.79,3.16s-2.71,2.24-3.08,2.8a.35.35,0,0,0,0,.13s1.73-2.89,3.14-2.93S228.2,226,226.65,224.25Z" transform="translate(-34.02 -31)"/><path class="cls-49" d="M228.11,225.56c0,.37,0,.66-.09.66s-.09-.31-.09-.66,0-.19.1-.19S228.11,225.2,228.11,225.56Z" transform="translate(-34.02 -31)"/><path class="cls-49" d="M228.62,226c-.31.17-.6.27-.62.23s.22-.22.53-.39.2,0,.22,0S228.93,225.82,228.62,226Z" transform="translate(-34.02 -31)"/><path class="cls-50" d="M227.86,230.54A8.16,8.16,0,0,1,225,230c-.66-.47-3.38-1-3.55-.28s-3.3,3.77-.82,3.79,5.77-.38,6.43-.79S227.86,230.54,227.86,230.54Z" transform="translate(-34.02 -31)"/><path class="cls-51" d="M220.58,233.24c2.49,0,5.78-.39,6.44-.79.5-.31.7-1.41.77-1.92h.07s-.14,1.78-.8,2.18-3.95.81-6.43.79c-.72,0-1-.26-.95-.64C219.78,233.08,220.05,233.23,220.58,233.24Z" transform="translate(-34.02 -31)"/><ellipse class="cls-1" cx="166.58" cy="233.92" rx="10.68" ry="1.58"/><ellipse class="cls-1" cx="192.43" cy="248.08" rx="10.68" ry="1.58"/><ellipse class="cls-1" cx="303.11" cy="226.86" rx="7.07" ry="0.79"/><ellipse class="cls-1" cx="273.44" cy="233.92" rx="7.07" ry="0.79"/><ellipse class="cls-1" cx="258.54" cy="248.08" rx="7.07" ry="0.79"/><ellipse class="cls-1" cx="89.51" cy="253.89" rx="8.36" ry="1.44"/><path class="cls-3" d="M127.25,270.46s-11.64,6-5.62,13.1a2.24,2.24,0,0,0,2.2,1.43s-.33-.59.92-1.07a6.09,6.09,0,0,0,1.26-.67,2.88,2.88,0,0,0,1.12-1.51h0s2.38-3.18.54-9.08c0,0,.24-1.66,0-1.93l-1.41,1.94a4,4,0,0,1,1.63,2.42s-1.54-2.42-1.85-2.15c-.07.05-.7,1.06-.7,1.06s2.53,1.72,2.72,3.95c0,0-1.43-3.12-3-3.57l-.87,1.57s2.77,1.69,3.07,4.22c0,0-1.6-3.21-3.24-3.86l-.65,1.66s2.66,1.7,2.91,3.81c0,0-2.23-3.53-3-3.41a8.45,8.45,0,0,0-.43,2s1.88,1.26,1.92,2.5c0,0-1.74-2.2-2-2.06a9.34,9.34,0,0,0,.42,3.36,6.6,6.6,0,0,1-.77-3.36,3.66,3.66,0,0,0-1.11,1.8s-.51-1.23,1.15-2.33a8.45,8.45,0,0,1,.34-1.93,8.08,8.08,0,0,0-2.54,1.94s.28-1.6,2.7-2.39l.61-1.68a11.34,11.34,0,0,0-3.17,1.93s.54-1.59,3.36-2.35l.84-1.54a14.22,14.22,0,0,0-3.2,1.54s.81-1.36,3.46-2l.68-1s-1.56.56-2,.76-.52.1-.52.1a5.66,5.66,0,0,1,2.8-1.27A13.2,13.2,0,0,0,127.25,270.46Z" transform="translate(-34.02 -31)"/></svg>