<svg id="Layer_1" data-name="Layer 1" xmlns="http://www.w3.org/2000/svg" viewBox="0 0 600 500"><defs><style>.cls-1{fill:#6c63ff;}.cls-2{fill:#0b92bf;}.cls-3{fill:#fff;}</style></defs><title>why-1</title><rect class="cls-1" width="300" height="500"/><rect class="cls-2" x="300" width="300" height="500"/><path class="cls-3" d="M153.85,195.18A90.58,90.58,0,0,0,88.3,220.86a7.11,7.11,0,0,1-9.69.22l-8.17-7.27a7.13,7.13,0,0,1-.59-10.07c.1-.12.21-.23.32-.34a116,116,0,0,1,160-2.71,7.14,7.14,0,0,1,.42,10.09l-.32.33-7.91,7.52a7.08,7.08,0,0,1-9.66.14A90.51,90.51,0,0,0,153.85,195.18Z" transform="translate(0 0)"/><path class="cls-3" d="M153.5,209.16A90.48,90.48,0,0,1,211.55,232a7.12,7.12,0,0,1,.57,10.05,5.44,5.44,0,0,1-.41.42l-5.9,5.62a7.11,7.11,0,0,1-9.58.22,68.49,68.49,0,0,0-91.57,1.52,7.14,7.14,0,0,1-9.61.14L89,244.56a7.12,7.12,0,0,1-.62-10,5.33,5.33,0,0,1,.4-.42A90.56,90.56,0,0,1,153.5,209.16Z" transform="translate(0 0)"/><path class="cls-3" d="M152.17,263.67A50.2,50.2,0,0,0,117.88,276a7.18,7.18,0,0,1-9.53,0l-2.94-2.62a7.15,7.15,0,0,1-.57-10.09,6.92,6.92,0,0,1,.61-.6,68.48,68.48,0,0,1,89.4-1.38,7.08,7.08,0,0,1,.76,10,4.51,4.51,0,0,1-.52.55l-2.86,2.73a7.19,7.19,0,0,1-9.52.27A50.11,50.11,0,0,0,152.17,263.67Z" transform="translate(0 0)"/><circle class="cls-3" cx="151.27" cy="302.58" r="22.42"/><rect class="cls-3" x="294" width="12" height="500"/><path class="cls-3" d="M452.17,199.38c3.87-2,6.62-6.19,9.6-9.36,3.4-3.6,7.86-7.05,10.68-11.07-6.26-3.51-16.38-3.95-23.46-4.53a115.65,115.65,0,0,0-90.82,33c-.11.11-.22.22-.32.34a7.13,7.13,0,0,0,.59,10.07l8.17,7.27a7.11,7.11,0,0,0,9.69-.22,90.58,90.58,0,0,1,65.55-25.68,86,86,0,0,1,9.52.74A4.3,4.3,0,0,1,452.17,199.38Z" transform="translate(0 0)"/><path class="cls-3" d="M483.15,182.47A100.38,100.38,0,0,1,473.78,195a52.4,52.4,0,0,1-9.45,7.63c2.62.74,5.21,1.59,7.74,2.56a4,4,0,0,1,1.08-2.42c3.36-3.63,6.88-7.11,10.38-10.61a4,4,0,0,1,1-1.47c1.84-1.7,3.63-3.44,5.46-5.14C487.75,184.4,485.46,183.41,483.15,182.47Z" transform="translate(0 0)"/><path class="cls-3" d="M518.21,204.69c-2.07-1.91-13.89-13.37-16.25-11.18-1.74,1.61-16.39,18.13-17.45,17.53a90.35,90.35,0,0,1,16.23,11.73,7.08,7.08,0,0,0,9.66-.14l7.91-7.52.32-.33A7.14,7.14,0,0,0,518.21,204.69Z" transform="translate(0 0)"/><path class="cls-3" d="M438.31,213.33c-10.3-1.77-23.69,2.62-33.11,6.43a89.85,89.85,0,0,0-28.46,18.34c-.14.14-.27.27-.4.42a7.12,7.12,0,0,0,.62,10l6.09,5.41a7.14,7.14,0,0,0,9.61-.14,68.17,68.17,0,0,1,23-14.11c1.32-1.69,2.77-3.28,4.26-4.84a104.51,104.51,0,0,1,8.94-11.18C431.82,220.45,436.19,217.12,438.31,213.33Z" transform="translate(0 0)"/><path class="cls-3" d="M453.55,214.26c-2.81,5.25-7.72,8.87-12.06,12.84-2.35,2.15-4.72,4.29-7.08,6.44-.07.06-.12.14-.2.2a1.84,1.84,0,0,1-.22.17l-2.22,2a68.77,68.77,0,0,1,15.11,0,94.46,94.46,0,0,0,12.45-11.2c2.15-2.31,5.31-4.64,7.59-7.29A90.91,90.91,0,0,0,453.55,214.26Z" transform="translate(0 0)"/><path class="cls-3" d="M499.55,236a89.94,89.94,0,0,0-24.09-15.35,1.33,1.33,0,0,0-.67-.16,1.35,1.35,0,0,0-.73.5c-5.37,5.81-11.31,11-16.74,16.77,4,2.21,9.08,3.15,13.31,5.33a68.55,68.55,0,0,1,13.6,9.22,7.11,7.11,0,0,0,9.58-.22l5.9-5.62a5.44,5.44,0,0,0,.41-.42A7.12,7.12,0,0,0,499.55,236Z" transform="translate(0 0)"/><path class="cls-3" d="M409.93,274.3c2.25-3.32,5.19-5.7,8-8.47,3.07-3,6-6.11,9.08-9.05,2.52-2.37,5.4-4.72,8.17-7.2a68.29,68.29,0,0,0-41.76,17.2,6.92,6.92,0,0,0-.61.6,7.15,7.15,0,0,0,.57,10.09l2.94,2.62a7.18,7.18,0,0,0,9.53,0c1.12-1,2.29-1.9,3.49-2.77A3.41,3.41,0,0,1,409.93,274.3Z" transform="translate(0 0)"/><path class="cls-3" d="M482.85,265.4a68.22,68.22,0,0,0-18.6-11.08c-4.56-1.81-15.88-6.86-20-2.8-2.87,2.84-6,5.43-8.85,8.29-3.16,3.11-6.46,6-9.5,9.26l-.42.42a50.3,50.3,0,0,1,45.21,9.45,7.19,7.19,0,0,0,9.52-.27l2.86-2.73a4.51,4.51,0,0,0,.52-.55A7.08,7.08,0,0,0,482.85,265.4Z" transform="translate(0 0)"/><circle class="cls-3" cx="439.27" cy="306.58" r="22.42"/><rect class="cls-3" x="340.66" y="220.69" width="206.3" height="20" transform="translate(-33.13 381.39) rotate(-45)"/></svg>