<svg id="Layer_1" data-name="Layer 1" xmlns="http://www.w3.org/2000/svg" viewBox="0 0 395.85 230.79"><defs><style>.cls-1{fill:#3f3d56;}.cls-2{fill:#f2f2f2;}.cls-3{fill:#6c63ff;}.cls-4{fill:#e6e6e6;}.cls-5{fill:#ccc;}.cls-6{fill:#d0cde1;}.cls-7{fill:#ffb8b8;}.cls-8{fill:#2f2e41;}</style></defs><title>why-3</title><rect class="cls-1" x="0.47" y="230.12" width="388.88" height="0.67"/><path class="cls-1" d="M366.65,62.33H230.77v-2.8h-61.6v2.8H32.73a9.2,9.2,0,0,0-9.19,9.2h0v186a9.2,9.2,0,0,0,9.19,9.19H366.65a9.2,9.2,0,0,0,9.19-9.19v-186A9.2,9.2,0,0,0,366.65,62.33Z" transform="translate(-0.53 -59.53)"/><rect class="cls-2" x="35.34" y="19.04" width="327.65" height="184.83"/><circle class="cls-3" cx="198.88" cy="10.64" r="3.36"/><path class="cls-1" d="M385,260.05h-32v-2.31a.46.46,0,0,0-.46-.46h-11a.47.47,0,0,0-.46.46h0v2.31h-6.85v-2.31a.46.46,0,0,0-.46-.46h-11a.47.47,0,0,0-.46.46h0v2.31H315.6v-2.31a.46.46,0,0,0-.45-.46h-11a.47.47,0,0,0-.46.46h0v2.31h-6.85v-2.31a.46.46,0,0,0-.45-.46h-11a.46.46,0,0,0-.45.46h0v2.31h-6.86v-2.31a.46.46,0,0,0-.45-.46h-11a.46.46,0,0,0-.45.46h0v2.31h-6.86v-2.31a.46.46,0,0,0-.45-.46H248a.46.46,0,0,0-.45.46h0v2.31h-6.85v-2.31a.47.47,0,0,0-.46-.46H154.35a.47.47,0,0,0-.46.46h0v2.31H147v-2.31a.46.46,0,0,0-.46-.46h-11a.47.47,0,0,0-.46.46h0v2.31h-6.85v-2.31a.46.46,0,0,0-.46-.46h-11a.47.47,0,0,0-.46.46h0v2.31h-6.85v-2.31a.46.46,0,0,0-.46-.46h-11a.47.47,0,0,0-.46.46h0v2.31H90.85v-2.31a.46.46,0,0,0-.45-.46h-11a.46.46,0,0,0-.45.46h0v2.31H72.12v-2.31a.46.46,0,0,0-.45-.46h-11a.46.46,0,0,0-.45.46h0v2.31H53.39v-2.31a.46.46,0,0,0-.45-.46H42a.46.46,0,0,0-.45.46h0v2.31h-21a11,11,0,0,0-11,11v5a11,11,0,0,0,11,11H385a11,11,0,0,0,11-11v-5a11,11,0,0,0-11-11Z" transform="translate(-0.53 -59.53)"/><rect class="cls-4" x="167.49" y="33.52" width="91.94" height="3.42"/><rect class="cls-4" x="167.49" y="44.34" width="91.94" height="3.42"/><rect class="cls-4" x="167.49" y="55.16" width="91.94" height="3.42"/><rect class="cls-5" x="167.49" y="33.52" width="91.94" height="3.42"/><rect class="cls-5" x="167.49" y="44.34" width="91.94" height="3.42"/><rect class="cls-5" x="167.49" y="55.16" width="91.94" height="3.42"/><rect class="cls-5" x="138.34" y="35.63" width="20.83" height="20.83"/><rect class="cls-5" x="167.49" y="155.25" width="91.94" height="3.42"/><rect class="cls-5" x="167.49" y="166.07" width="91.94" height="3.42"/><rect class="cls-5" x="167.49" y="176.89" width="91.94" height="3.42"/><rect class="cls-5" x="138.34" y="157.36" width="20.83" height="20.83"/><circle class="cls-3" cx="198.88" cy="105.3" r="36.45"/><polygon class="cls-6" points="212.44 113.32 198.84 85.86 185.32 113.36 192.96 113.35 192.96 124.75 204.79 124.75 204.79 113.33 212.44 113.32"/><path class="cls-3" d="M68.82,254.25c.75,25.71-14.28,35.14-33.13,35.69l-1.31,0c-.87,0-1.74,0-2.59,0-17-.71-30.55-9.76-31.25-33.67-.72-24.75,30-56.9,32.3-59.28h0l.13-.14S68.07,228.54,68.82,254.25Z" transform="translate(-0.53 -59.53)"/><path class="cls-1" d="M34.33,286l12-17.81L34.36,288l0,2c-.87,0-1.74,0-2.59,0l.59-25.76,0-.2,0,0,0-2.44-13.11-19,13.1,17.22,0,.52.45-19.47L21.59,221,33,237.29,32.84,197v0l.75,31.78,10.33-12.91L33.63,231.49l.22,17.41,9.5-17-9.46,19.55.12,9.68,13.82-23.67-13.78,27Z" transform="translate(-0.53 -59.53)"/><path class="cls-7" d="M334.6,134.79l10.68-15.5s9.3-7.46,6.63-8.91-9.64,5.35-9.64,5.35-20.13,15.44-16.81,17.59S334.6,134.79,334.6,134.79Z" transform="translate(-0.53 -59.53)"/><path class="cls-3" d="M336.15,114.43H350a48.06,48.06,0,0,0,0-16.49H336.15A29.64,29.64,0,0,1,336.15,114.43Z" transform="translate(-0.53 -59.53)"/><path class="cls-8" d="M372.11,115.22c-4.16-7-12.38-7.35-12.38-7.35s-8-1-13.15,9.67c-4.79,10-11.4,19.59-1.07,21.92l1.87-5.81,1.16,6.25A40.75,40.75,0,0,0,353,140c11.07-.36,21.61.11,21.27-3.87C373.78,130.82,376.1,122,372.11,115.22Z" transform="translate(-0.53 -59.53)"/><path class="cls-7" d="M350,158.5l-5.32,12.24,18.63,2.93s8.78-12,9.58-12.77Z" transform="translate(-0.53 -59.53)"/><circle class="cls-7" cx="358.79" cy="122.04" r="9.85" transform="translate(180.33 397.11) rotate(-80.78)"/><path class="cls-7" d="M356.4,129.22s4.52,10.12,4,11.18,9.58-5.59,9.58-5.59-4.26-7.19-4-8.25Z" transform="translate(-0.53 -59.53)"/><path class="cls-7" d="M371.3,133.48s8-4.52,12.51,8c0,0,14.91,17.56,12.25,20.76s-12.78-7.72-12.78-7.72l-6.39-6.66s-9.05-2.39-8.25-7.45S371.3,133.48,371.3,133.48Z" transform="translate(-0.53 -59.53)"/><path class="cls-7" d="M352.67,139.6,334,134.28s-9.85-4-9.58-1.6,18.1,16,24,15.17S352.67,139.6,352.67,139.6Z" transform="translate(-0.53 -59.53)"/><path class="cls-6" d="M363.32,137.74s-6.12-.8-7.45.53-3.86.13-3.86.13l-4.26,7.72s-3.06,4.4-.67,8.65-1.06,9.85-1.06,9.85,19.16,0,23.15,2.13S378,149,378,149s-5-6-3.61-9.78a12,12,0,0,0,.53-6.65l-5.86.53Z" transform="translate(-0.53 -59.53)"/><polygon class="cls-7" points="339.9 195.85 342.03 216.35 350.28 212.09 347.62 194.26 339.9 195.85"/><polygon class="cls-7" points="371.04 195.59 377.97 214.12 384.63 209.32 376.37 191.33 371.04 195.59"/><path class="cls-8" d="M350.81,264.7A16.85,16.85,0,0,1,349,269c-1.34,2.13-4.53,1.07-4.53,1.07s-3.73-2.93-4.52-1.6-5.06,8-5.06,8-14.11,11.71-2.13,13.57,14.37-6.92,14.37-6.92,9.05-3.19,9.32-6.39S350.81,264.7,350.81,264.7Z" transform="translate(-0.53 -59.53)"/><path class="cls-8" d="M378.76,268.58s-4.26-1.33-4,.8S376.63,280,376.63,280s-2.93,12,5.32,9.85,8.52-13.58,8.52-13.58,4.26-15.17,1.06-15.43-10.91-1.07-10.91-1.07S385.41,267.52,378.76,268.58Z" transform="translate(-0.53 -59.53)"/><polygon class="cls-8" points="369.74 55.01 361.62 50.75 350.4 52.49 348.08 62.74 353.86 62.52 355.47 58.75 355.47 62.46 358.14 62.35 359.68 56.36 360.65 62.74 370.13 62.55 369.74 55.01"/><path class="cls-8" d="M366.25,172.87l-22.36-5.05S332.71,187,331.11,203s-8.78,54.3,2.66,54.83,18.1.54,18.64-.53-5.59-43.12-5.59-43.12,13,51.64,20.23,48.18,15.17-8,14.9-10.65-17.57-30.87-17.57-30.87l2.4-24.49s2.93-9.85-2.13-18.9Z" transform="translate(-0.53 -59.53)"/><path class="cls-3" d="M350.13,166.22H364a48.06,48.06,0,0,0,0-16.49H350.13A29.64,29.64,0,0,1,350.13,166.22Z" transform="translate(-0.53 -59.53)"/><path class="cls-7" d="M390.47,154.24l-23.42-.53s-10.39-8-10.65-3.19S367.31,158,367.31,158s24,8.62,27.72,4.84Z" transform="translate(-0.53 -59.53)"/></svg>